<?xml version="1.0" encoding="UTF-8" standalone="no"?>
<!DOCTYPE svg PUBLIC "-//W3C//DTD SVG 1.1//EN"
 "http://www.w3.org/Graphics/SVG/1.1/DTD/svg11.dtd">
<!-- Generated by graphviz version 12.1.0 (20240811.2233)
 -->
<!-- Title: AudioPlayer.hpp Pages: 1 -->
<svg width="262pt" height="196pt"
 viewBox="0.00 0.00 262.37 196.00" xmlns="http://www.w3.org/2000/svg" xmlns:xlink="http://www.w3.org/1999/xlink">
<g id="graph0" class="graph" transform="scale(1 1) rotate(0) translate(4 192)">
<title>AudioPlayer.hpp</title>
<!-- Node1 -->
<g id="Node000001" class="node">
<title>Node1</title>
<g id="a_Node000001"><a xlink:title=" ">
<polygon fill="#999999" stroke="#666666" points="144.37,-188 57.12,-188 57.12,-168 144.37,-168 144.37,-188"/>
<text text-anchor="middle" x="100.74" y="-174.5" font-family="Helvetica,sans-Serif" font-size="10.00">AudioPlayer.hpp</text>
</a>
</g>
</g>
<!-- Node2 -->
<g id="Node000002" class="node">
<title>Node2</title>
<g id="a_Node000002"><a xlink:href="GameTypes_8cpp.html" target="_top" xlink:title=" ">
<polygon fill="white" stroke="#666666" points="168.37,-20 81.12,-20 81.12,0 168.37,0 168.37,-20"/>
<text text-anchor="middle" x="124.74" y="-6.5" font-family="Helvetica,sans-Serif" font-size="10.00">GameTypes.cpp</text>
</a>
</g>
</g>
<!-- Node1&#45;&gt;Node2 -->
<g id="edge1_Node000001_Node000002" class="edge">
<title>Node1&#45;&gt;Node2</title>
<g id="a_edge1_Node000001_Node000002"><a xlink:title=" ">
<path fill="none" stroke="#63b8ff" d="M53.02,-163.4C37.77,-156.56 22.58,-146.52 13.74,-132 -3.82,-103.15 -5.13,-84.01 13.74,-56 28.67,-33.84 56.58,-22.59 80.68,-16.88"/>
<polygon fill="#63b8ff" stroke="#63b8ff" points="51.52,-166.57 62.1,-167.08 54.14,-160.08 51.52,-166.57"/>
</a>
</g>
</g>
<!-- Node3 -->
<g id="Node000003" class="node">
<title>Node3</title>
<g id="a_Node000003"><a xlink:href="GameTypes_8hpp.html" target="_top" xlink:title=" ">
<polygon fill="white" stroke="#666666" points="254.37,-76 167.12,-76 167.12,-56 254.37,-56 254.37,-76"/>
<text text-anchor="middle" x="210.74" y="-62.5" font-family="Helvetica,sans-Serif" font-size="10.00">GameTypes.hpp</text>
</a>
</g>
</g>
<!-- Node1&#45;&gt;Node3 -->
<g id="edge2_Node000001_Node000003" class="edge">
<title>Node1&#45;&gt;Node3</title>
<g id="a_edge2_Node000001_Node000003"><a xlink:title=" ">
<path fill="none" stroke="#63b8ff" d="M155.47,-164.03C172.79,-157.27 190.38,-147.12 201.74,-132 214.07,-115.61 213.51,-90.13 212.09,-76.45"/>
<polygon fill="#63b8ff" stroke="#63b8ff" points="154.45,-160.68 146.19,-167.31 156.79,-167.28 154.45,-160.68"/>
</a>
</g>
</g>
<!-- Node5 -->
<g id="Node000005" class="node">
<title>Node5</title>
<g id="a_Node000005"><a xlink:href="AudioPlayers_2SFML_2SFML_8hpp.html" target="_top" xlink:title=" ">
<polygon fill="white" stroke="#666666" points="84.24,-132 23.24,-132 23.24,-112 84.24,-112 84.24,-132"/>
<text text-anchor="middle" x="53.74" y="-118.5" font-family="Helvetica,sans-Serif" font-size="10.00">SFML.hpp</text>
</a>
</g>
</g>
<!-- Node1&#45;&gt;Node5 -->
<g id="edge5_Node000001_Node000005" class="edge">
<title>Node1&#45;&gt;Node5</title>
<g id="a_edge5_Node000001_Node000005"><a xlink:title=" ">
<path fill="none" stroke="#63b8ff" d="M85.08,-159C77.29,-150.06 68.21,-139.62 61.84,-132.3"/>
<polygon fill="#63b8ff" stroke="#63b8ff" points="82.36,-161.21 91.56,-166.45 87.64,-156.61 82.36,-161.21"/>
</a>
</g>
</g>
<!-- Node7 -->
<g id="Node000007" class="node">
<title>Node7</title>
<g id="a_Node000007"><a xlink:href="SoundPlayer_8hpp.html" target="_top" xlink:title=" ">
<polygon fill="white" stroke="#666666" points="192.87,-132 102.62,-132 102.62,-112 192.87,-112 192.87,-132"/>
<text text-anchor="middle" x="147.74" y="-118.5" font-family="Helvetica,sans-Serif" font-size="10.00">SoundPlayer.hpp</text>
</a>
</g>
</g>
<!-- Node1&#45;&gt;Node7 -->
<g id="edge7_Node000001_Node000007" class="edge">
<title>Node1&#45;&gt;Node7</title>
<g id="a_edge7_Node000001_Node000007"><a xlink:title=" ">
<path fill="none" stroke="#63b8ff" d="M116.41,-159C124.19,-150.06 133.28,-139.62 139.65,-132.3"/>
<polygon fill="#63b8ff" stroke="#63b8ff" points="113.85,-156.61 109.92,-166.45 119.13,-161.21 113.85,-156.61"/>
</a>
</g>
</g>
<!-- Node3&#45;&gt;Node2 -->
<g id="edge3_Node000003_Node000002" class="edge">
<title>Node3&#45;&gt;Node2</title>
<g id="a_edge3_Node000003_Node000002"><a xlink:title=" ">
<path fill="none" stroke="#63b8ff" d="M186.13,-49.54C171.2,-40.17 152.62,-28.51 139.84,-20.48"/>
<polygon fill="#63b8ff" stroke="#63b8ff" points="184.15,-52.44 194.48,-54.79 187.87,-46.51 184.15,-52.44"/>
</a>
</g>
</g>
<!-- Node4 -->
<g id="Node000004" class="node">
<title>Node4</title>
<g id="a_Node000004"><a xlink:href="Client_2src_2main_8cpp.html" target="_top" xlink:title=" ">
<polygon fill="white" stroke="#666666" points="242.62,-20 186.87,-20 186.87,0 242.62,0 242.62,-20"/>
<text text-anchor="middle" x="214.74" y="-6.5" font-family="Helvetica,sans-Serif" font-size="10.00">main.cpp</text>
</a>
</g>
</g>
<!-- Node3&#45;&gt;Node4 -->
<g id="edge4_Node000003_Node000004" class="edge">
<title>Node3&#45;&gt;Node4</title>
<g id="a_edge4_Node000003_Node000004"><a xlink:title=" ">
<path fill="none" stroke="#63b8ff" d="M212.29,-44.13C212.9,-35.9 213.57,-26.85 214.06,-20.3"/>
<polygon fill="#63b8ff" stroke="#63b8ff" points="208.8,-43.85 211.55,-54.08 215.78,-44.37 208.8,-43.85"/>
</a>
</g>
</g>
<!-- Node6 -->
<g id="Node000006" class="node">
<title>Node6</title>
<g id="a_Node000006"><a xlink:href="AudioPlayers_2SFML_2SFML_8cpp.html" target="_top" xlink:title=" ">
<polygon fill="white" stroke="#666666" points="84.24,-76 23.24,-76 23.24,-56 84.24,-56 84.24,-76"/>
<text text-anchor="middle" x="53.74" y="-62.5" font-family="Helvetica,sans-Serif" font-size="10.00">SFML.cpp</text>
</a>
</g>
</g>
<!-- Node5&#45;&gt;Node6 -->
<g id="edge6_Node000005_Node000006" class="edge">
<title>Node5&#45;&gt;Node6</title>
<g id="a_edge6_Node000005_Node000006"><a xlink:title=" ">
<path fill="none" stroke="#63b8ff" d="M53.74,-100.13C53.74,-91.9 53.74,-82.85 53.74,-76.3"/>
<polygon fill="#63b8ff" stroke="#63b8ff" points="50.24,-100.08 53.74,-110.08 57.24,-100.08 50.24,-100.08"/>
</a>
</g>
</g>
<!-- Node7&#45;&gt;Node2 -->
<g id="edge8_Node000007_Node000002" class="edge">
<title>Node7&#45;&gt;Node2</title>
<g id="a_edge8_Node000007_Node000002"><a xlink:title=" ">
<path fill="none" stroke="#63b8ff" d="M143.49,-100.64C138.48,-76.72 130.4,-38.03 126.7,-20.35"/>
<polygon fill="#63b8ff" stroke="#63b8ff" points="140,-101.07 145.47,-110.14 146.85,-99.64 140,-101.07"/>
</a>
</g>
</g>
<!-- Node7&#45;&gt;Node3 -->
<g id="edge9_Node000007_Node000003" class="edge">
<title>Node7&#45;&gt;Node3</title>
<g id="a_edge9_Node000007_Node000003"><a xlink:title=" ">
<path fill="none" stroke="#63b8ff" d="M167.43,-104.13C178.14,-94.94 190.99,-83.93 199.9,-76.3"/>
<polygon fill="#63b8ff" stroke="#63b8ff" points="165.18,-101.44 159.87,-110.61 169.74,-106.76 165.18,-101.44"/>
</a>
</g>
</g>
</g>
</svg>
