<?xml version="1.0" encoding="UTF-8" standalone="no"?>
<!DOCTYPE svg PUBLIC "-//W3C//DTD SVG 1.1//EN"
 "http://www.w3.org/Graphics/SVG/1.1/DTD/svg11.dtd">
<!-- Generated by graphviz version 12.1.0 (20240811.2233)
 -->
<!-- Title: SFML.hpp Pages: 1 -->
<svg width="410pt" height="140pt"
 viewBox="0.00 0.00 410.00 140.00" xmlns="http://www.w3.org/2000/svg" xmlns:xlink="http://www.w3.org/1999/xlink">
<g id="graph0" class="graph" transform="scale(1 1) rotate(0) translate(4 136)">
<title>SFML.hpp</title>
<!-- Node1 -->
<g id="Node000001" class="node">
<title>Node1</title>
<g id="a_Node000001"><a xlink:title=" ">
<polygon fill="#999999" stroke="#666666" points="247.88,-132 186.88,-132 186.88,-112 247.88,-112 247.88,-132"/>
<text text-anchor="middle" x="217.38" y="-118.5" font-family="Helvetica,sans-Serif" font-size="10.00">SFML.hpp</text>
</a>
</g>
</g>
<!-- Node2 -->
<g id="Node000002" class="node">
<title>Node2</title>
<g id="a_Node000002"><a xlink:title=" ">
<polygon fill="#e0e0e0" stroke="#999999" points="88.75,-76 0,-76 0,-56 88.75,-56 88.75,-76"/>
<text text-anchor="middle" x="44.38" y="-62.5" font-family="Helvetica,sans-Serif" font-size="10.00">SFML/Audio.hpp</text>
</a>
</g>
</g>
<!-- Node1&#45;&gt;Node2 -->
<g id="edge1_Node000001_Node000002" class="edge">
<title>Node1&#45;&gt;Node2</title>
<g id="a_edge1_Node000001_Node000002"><a xlink:title=" ">
<path fill="none" stroke="#63b8ff" d="M187.24,-111.59C159.13,-102.82 116.96,-89.66 85.72,-79.9"/>
<polygon fill="#63b8ff" stroke="#63b8ff" points="86.78,-76.57 76.19,-76.93 84.69,-83.25 86.78,-76.57"/>
</a>
</g>
</g>
<!-- Node3 -->
<g id="Node000003" class="node">
<title>Node3</title>
<g id="a_Node000003"><a xlink:title=" ">
<polygon fill="#e0e0e0" stroke="#999999" points="189.75,-76 107,-76 107,-56 189.75,-56 189.75,-76"/>
<text text-anchor="middle" x="148.38" y="-62.5" font-family="Helvetica,sans-Serif" font-size="10.00">unordered_map</text>
</a>
</g>
</g>
<!-- Node1&#45;&gt;Node3 -->
<g id="edge2_Node000001_Node000003" class="edge">
<title>Node1&#45;&gt;Node3</title>
<g id="a_edge2_Node000001_Node000003"><a xlink:title=" ">
<path fill="none" stroke="#63b8ff" d="M205.36,-111.59C195.36,-103.77 180.91,-92.46 169.07,-83.19"/>
<polygon fill="#63b8ff" stroke="#63b8ff" points="171.48,-80.64 161.45,-77.23 167.17,-86.15 171.48,-80.64"/>
</a>
</g>
</g>
<!-- Node4 -->
<g id="Node000004" class="node">
<title>Node4</title>
<g id="a_Node000004"><a xlink:title=" ">
<polygon fill="#e0e0e0" stroke="#999999" points="307.38,-20 267.38,-20 267.38,0 307.38,0 307.38,-20"/>
<text text-anchor="middle" x="287.38" y="-6.5" font-family="Helvetica,sans-Serif" font-size="10.00">string</text>
</a>
</g>
</g>
<!-- Node1&#45;&gt;Node4 -->
<g id="edge3_Node000001_Node000004" class="edge">
<title>Node1&#45;&gt;Node4</title>
<g id="a_edge3_Node000001_Node000004"><a xlink:title=" ">
<path fill="none" stroke="#63b8ff" d="M218.4,-111.94C220.24,-98.74 225.02,-73.86 236.38,-56 243.48,-44.82 254.15,-34.8 263.89,-27.07"/>
<polygon fill="#63b8ff" stroke="#63b8ff" points="265.69,-30.1 271.6,-21.3 261.49,-24.49 265.69,-30.1"/>
</a>
</g>
</g>
<!-- Node5 -->
<g id="Node000005" class="node">
<title>Node5</title>
<g id="a_Node000005"><a xlink:title=" ">
<polygon fill="#e0e0e0" stroke="#999999" points="297,-76 245.75,-76 245.75,-56 297,-56 297,-76"/>
<text text-anchor="middle" x="271.38" y="-62.5" font-family="Helvetica,sans-Serif" font-size="10.00">memory</text>
</a>
</g>
</g>
<!-- Node1&#45;&gt;Node5 -->
<g id="edge4_Node000001_Node000005" class="edge">
<title>Node1&#45;&gt;Node5</title>
<g id="a_edge4_Node000001_Node000005"><a xlink:title=" ">
<path fill="none" stroke="#63b8ff" d="M226.78,-111.59C234.29,-104.08 245.02,-93.35 254.07,-84.3"/>
<polygon fill="#63b8ff" stroke="#63b8ff" points="256.41,-86.91 261.01,-77.37 251.46,-81.96 256.41,-86.91"/>
</a>
</g>
</g>
<!-- Node6 -->
<g id="Node000006" class="node">
<title>Node6</title>
<g id="a_Node000006"><a xlink:href="AudioPlayer_8hpp.html" target="_top" xlink:title=" ">
<polygon fill="white" stroke="#666666" points="402,-76 314.75,-76 314.75,-56 402,-56 402,-76"/>
<text text-anchor="middle" x="358.38" y="-62.5" font-family="Helvetica,sans-Serif" font-size="10.00">AudioPlayer.hpp</text>
</a>
</g>
</g>
<!-- Node1&#45;&gt;Node6 -->
<g id="edge5_Node000001_Node000006" class="edge">
<title>Node1&#45;&gt;Node6</title>
<g id="a_edge5_Node000001_Node000006"><a xlink:title=" ">
<path fill="none" stroke="#63b8ff" d="M241.94,-111.59C264.34,-103.01 297.71,-90.23 322.99,-80.55"/>
<polygon fill="#63b8ff" stroke="#63b8ff" points="324.12,-83.87 332.21,-77.02 321.62,-77.33 324.12,-83.87"/>
</a>
</g>
</g>
<!-- Node6&#45;&gt;Node4 -->
<g id="edge6_Node000006_Node000004" class="edge">
<title>Node6&#45;&gt;Node4</title>
<g id="a_edge6_Node000006_Node000004"><a xlink:title=" ">
<path fill="none" stroke="#63b8ff" d="M346.01,-55.59C335.73,-47.77 320.86,-36.46 308.66,-27.19"/>
<polygon fill="#63b8ff" stroke="#63b8ff" points="310.88,-24.48 300.81,-21.21 306.65,-30.05 310.88,-24.48"/>
</a>
</g>
</g>
</g>
</svg>
