<?xml version="1.0" encoding="UTF-8" standalone="no"?>
<!DOCTYPE svg PUBLIC "-//W3C//DTD SVG 1.1//EN"
 "http://www.w3.org/Graphics/SVG/1.1/DTD/svg11.dtd">
<!-- Generated by graphviz version 12.1.0 (20240811.2233)
 -->
<!-- Title: ParticleSystem::getRandomPosition Pages: 1 -->
<svg width="715pt" height="78pt"
 viewBox="0.00 0.00 715.00 78.00" xmlns="http://www.w3.org/2000/svg" xmlns:xlink="http://www.w3.org/1999/xlink">
<g id="graph0" class="graph" transform="scale(1 1) rotate(0) translate(4 74)">
<title>ParticleSystem::getRandomPosition</title>
<!-- Node1 -->
<g id="Node000001" class="node">
<title>Node1</title>
<g id="a_Node000001"><a xlink:title=" ">
<polygon fill="#999999" stroke="#666666" points="707,-48 568,-48 568,-16 707,-16 707,-48"/>
<text text-anchor="start" x="576" y="-34.5" font-family="Helvetica,sans-Serif" font-size="10.00">ParticleSystem::getRandom</text>
<text text-anchor="middle" x="637.5" y="-22.5" font-family="Helvetica,sans-Serif" font-size="10.00">Position</text>
</a>
</g>
</g>
<!-- Node2 -->
<g id="Node000002" class="node">
<title>Node2</title>
<g id="a_Node000002"><a xlink:href="classParticleSystem.html#aa446ccbbc59cb9dc98c3dce3b6aedd4a" target="_top" xlink:title=" ">
<polygon fill="white" stroke="#666666" points="532,-42 381.75,-42 381.75,-22 532,-22 532,-42"/>
<text text-anchor="middle" x="456.88" y="-28.5" font-family="Helvetica,sans-Serif" font-size="10.00">ParticleSystem::spawnParticle</text>
</a>
</g>
</g>
<!-- Node1&#45;&gt;Node2 -->
<g id="edge1_Node000001_Node000002" class="edge">
<title>Node1&#45;&gt;Node2</title>
<g id="a_edge1_Node000001_Node000002"><a xlink:title=" ">
<path fill="none" stroke="#63b8ff" d="M556.43,-32C548.39,-32 540.25,-32 532.28,-32"/>
<polygon fill="#63b8ff" stroke="#63b8ff" points="556.18,-35.5 566.18,-32 556.18,-28.5 556.18,-35.5"/>
</a>
</g>
</g>
<!-- Node3 -->
<g id="Node000003" class="node">
<title>Node3</title>
<g id="a_Node000003"><a xlink:href="classParticleSystem.html#ae72dbb14519c81be430c51f887d1ad17" target="_top" xlink:title=" ">
<polygon fill="white" stroke="#666666" points="345.75,-70 224,-70 224,-38 345.75,-38 345.75,-70"/>
<text text-anchor="start" x="232" y="-56.5" font-family="Helvetica,sans-Serif" font-size="10.00">ParticleSystem::Particle</text>
<text text-anchor="middle" x="284.88" y="-44.5" font-family="Helvetica,sans-Serif" font-size="10.00">System</text>
</a>
</g>
</g>
<!-- Node2&#45;&gt;Node3 -->
<g id="edge2_Node000002_Node000003" class="edge">
<title>Node2&#45;&gt;Node3</title>
<g id="a_edge2_Node000002_Node000003"><a xlink:title=" ">
<path fill="none" stroke="#63b8ff" d="M369.94,-43.12C361.88,-44.16 353.84,-45.2 346.09,-46.21"/>
<polygon fill="#63b8ff" stroke="#63b8ff" points="370.34,-46.6 379.81,-41.84 369.44,-39.66 370.34,-46.6"/>
</a>
</g>
</g>
<!-- Node4 -->
<g id="Node000004" class="node">
<title>Node4</title>
<g id="a_Node000004"><a xlink:href="classParticleSystem.html#a166fd86f020b6024d7d42723762d7cb2" target="_top" xlink:title=" ">
<polygon fill="white" stroke="#666666" points="343.88,-20 225.88,-20 225.88,0 343.88,0 343.88,-20"/>
<text text-anchor="middle" x="284.88" y="-6.5" font-family="Helvetica,sans-Serif" font-size="10.00">ParticleSystem::update</text>
</a>
</g>
</g>
<!-- Node2&#45;&gt;Node4 -->
<g id="edge3_Node000002_Node000004" class="edge">
<title>Node2&#45;&gt;Node4</title>
<g id="a_edge3_Node000002_Node000004"><a xlink:title=" ">
<path fill="none" stroke="#63b8ff" d="M369.92,-20.88C361.24,-19.75 352.58,-18.63 344.28,-17.56"/>
<polygon fill="#63b8ff" stroke="#63b8ff" points="369.44,-24.34 379.81,-22.16 370.34,-17.4 369.44,-24.34"/>
</a>
</g>
</g>
<!-- Node5 -->
<g id="Node000005" class="node">
<title>Node5</title>
<g id="a_Node000005"><a xlink:href="classGameManager.html#a7ecc3a14cd9e92f50729b37d1364953f" target="_top" xlink:title=" ">
<polygon fill="white" stroke="#666666" points="188,-20 73,-20 73,0 188,0 188,-20"/>
<text text-anchor="middle" x="130.5" y="-6.5" font-family="Helvetica,sans-Serif" font-size="10.00">GameManager::update</text>
</a>
</g>
</g>
<!-- Node4&#45;&gt;Node5 -->
<g id="edge4_Node000004_Node000005" class="edge">
<title>Node4&#45;&gt;Node5</title>
<g id="a_edge4_Node000004_Node000005"><a xlink:title=" ">
<path fill="none" stroke="#63b8ff" d="M214.14,-10C205.49,-10 196.73,-10 188.31,-10"/>
<polygon fill="#63b8ff" stroke="#63b8ff" points="213.89,-13.5 223.89,-10 213.89,-6.5 213.89,-13.5"/>
</a>
</g>
</g>
<!-- Node6 -->
<g id="Node000006" class="node">
<title>Node6</title>
<g id="a_Node000006"><a xlink:href="Client_2src_2main_8cpp.html#ae66f6b31b5ad750f1fe042a706a4e3d4" target="_top" xlink:title=" ">
<polygon fill="white" stroke="#666666" points="37,-20 0,-20 0,0 37,0 37,-20"/>
<text text-anchor="middle" x="18.5" y="-6.5" font-family="Helvetica,sans-Serif" font-size="10.00">main</text>
</a>
</g>
</g>
<!-- Node5&#45;&gt;Node6 -->
<g id="edge5_Node000005_Node000006" class="edge">
<title>Node5&#45;&gt;Node6</title>
<g id="a_edge5_Node000005_Node000006"><a xlink:title=" ">
<path fill="none" stroke="#63b8ff" d="M61.28,-10C52.52,-10 44.23,-10 37.38,-10"/>
<polygon fill="#63b8ff" stroke="#63b8ff" points="61.05,-13.5 71.05,-10 61.05,-6.5 61.05,-13.5"/>
</a>
</g>
</g>
</g>
</svg>
