<?xml version="1.0" encoding="UTF-8" standalone="no"?>
<!DOCTYPE svg PUBLIC "-//W3C//DTD SVG 1.1//EN"
 "http://www.w3.org/Graphics/SVG/1.1/DTD/svg11.dtd">
<!-- Generated by graphviz version 12.1.0 (20240811.2233)
 -->
<!-- Title: RtypeServer::UdpServer::send_room_list Pages: 1 -->
<svg width="280pt" height="166pt"
 viewBox="0.00 0.00 280.00 166.00" xmlns="http://www.w3.org/2000/svg" xmlns:xlink="http://www.w3.org/1999/xlink">
<g id="graph0" class="graph" transform="scale(1 1) rotate(0) translate(4 162)">
<title>RtypeServer::UdpServer::send_room_list</title>
<!-- Node1 -->
<g id="Node000001" class="node">
<title>Node1</title>
<g id="a_Node000001"><a xlink:title=" ">
<polygon fill="#999999" stroke="#666666" points="123.25,-104 0,-104 0,-72 123.25,-72 123.25,-104"/>
<text text-anchor="start" x="8" y="-90.5" font-family="Helvetica,sans-Serif" font-size="10.00">RtypeServer::UdpServer</text>
<text text-anchor="middle" x="61.62" y="-78.5" font-family="Helvetica,sans-Serif" font-size="10.00">::send_room_list</text>
</a>
</g>
</g>
<!-- Node2 -->
<g id="Node000002" class="node">
<title>Node2</title>
<g id="a_Node000002"><a xlink:href="namespaceRtypeServer.html#a0945154a39091e84a43cedc8136b0abe" target="_top" xlink:title=" ">
<polygon fill="white" stroke="#666666" points="263.38,-158 167.88,-158 167.88,-138 263.38,-138 263.38,-158"/>
<text text-anchor="middle" x="215.62" y="-144.5" font-family="Helvetica,sans-Serif" font-size="10.00">RtypeServer::infof</text>
</a>
</g>
</g>
<!-- Node1&#45;&gt;Node2 -->
<g id="edge1_Node000001_Node000002" class="edge">
<title>Node1&#45;&gt;Node2</title>
<g id="a_edge1_Node000001_Node000002"><a xlink:title=" ">
<path fill="none" stroke="#63b8ff" d="M99.54,-104.39C117.45,-112.15 139.34,-121.37 159.25,-129 163.4,-130.59 167.75,-132.19 172.11,-133.76"/>
<polygon fill="#63b8ff" stroke="#63b8ff" points="170.84,-137.02 181.43,-137.03 173.16,-130.41 170.84,-137.02"/>
</a>
</g>
</g>
<!-- Node3 -->
<g id="Node000003" class="node">
<title>Node3</title>
<g id="a_Node000003"><a xlink:href="namespaceRtypeServer.html#a29d016de4637084d2ec30b53700af223" target="_top" xlink:title=" ">
<polygon fill="white" stroke="#666666" points="266,-120 165.25,-120 165.25,-100 266,-100 266,-120"/>
<text text-anchor="middle" x="215.62" y="-106.5" font-family="Helvetica,sans-Serif" font-size="10.00">RtypeServer::warnf</text>
</a>
</g>
</g>
<!-- Node1&#45;&gt;Node3 -->
<g id="edge2_Node000001_Node000003" class="edge">
<title>Node1&#45;&gt;Node3</title>
<g id="a_edge2_Node000001_Node000003"><a xlink:title=" ">
<path fill="none" stroke="#63b8ff" d="M123.57,-96.82C133.43,-98.25 143.63,-99.72 153.49,-101.15"/>
<polygon fill="#63b8ff" stroke="#63b8ff" points="152.97,-104.61 163.37,-102.58 153.97,-97.68 152.97,-104.61"/>
</a>
</g>
</g>
<!-- Node4 -->
<g id="Node000004" class="node">
<title>Node4</title>
<g id="a_Node000004"><a xlink:href="classRtypeServer_1_1Protocol.html#ad918184440d6fcb33f231a7173a67399" target="_top" xlink:title=" ">
<polygon fill="white" stroke="#666666" points="272,-82 159.25,-82 159.25,-50 272,-50 272,-82"/>
<text text-anchor="start" x="167.25" y="-68.5" font-family="Helvetica,sans-Serif" font-size="10.00">RtypeServer::Protocol</text>
<text text-anchor="middle" x="215.62" y="-56.5" font-family="Helvetica,sans-Serif" font-size="10.00">::writeHeader</text>
</a>
</g>
</g>
<!-- Node1&#45;&gt;Node4 -->
<g id="edge3_Node000001_Node000004" class="edge">
<title>Node1&#45;&gt;Node4</title>
<g id="a_edge3_Node000001_Node000004"><a xlink:title=" ">
<path fill="none" stroke="#63b8ff" d="M123.57,-79.18C131.54,-78.02 139.75,-76.84 147.81,-75.67"/>
<polygon fill="#63b8ff" stroke="#63b8ff" points="148.18,-79.15 157.58,-74.26 147.18,-72.23 148.18,-79.15"/>
</a>
</g>
</g>
<!-- Node5 -->
<g id="Node000005" class="node">
<title>Node5</title>
<g id="a_Node000005"><a xlink:href="classRtypeServer_1_1Protocol.html#a59eba3ecb7c8d85b5927c3c077eddb1c" target="_top" xlink:title=" ">
<polygon fill="white" stroke="#666666" points="272,-32 159.25,-32 159.25,0 272,0 272,-32"/>
<text text-anchor="start" x="167.25" y="-18.5" font-family="Helvetica,sans-Serif" font-size="10.00">RtypeServer::Protocol</text>
<text text-anchor="middle" x="215.62" y="-6.5" font-family="Helvetica,sans-Serif" font-size="10.00">::writeRoomListBody</text>
</a>
</g>
</g>
<!-- Node1&#45;&gt;Node5 -->
<g id="edge4_Node000001_Node000005" class="edge">
<title>Node1&#45;&gt;Node5</title>
<g id="a_edge4_Node000001_Node000005"><a xlink:title=" ">
<path fill="none" stroke="#63b8ff" d="M95.61,-71.67C114.23,-62.52 137.97,-50.98 159.25,-41 161.98,-39.72 164.78,-38.42 167.62,-37.11"/>
<polygon fill="#63b8ff" stroke="#63b8ff" points="168.91,-40.37 176.54,-33.02 165.99,-34 168.91,-40.37"/>
</a>
</g>
</g>
</g>
</svg>
