<?xml version="1.0" encoding="UTF-8" standalone="no"?>
<!DOCTYPE svg PUBLIC "-//W3C//DTD SVG 1.1//EN"
 "http://www.w3.org/Graphics/SVG/1.1/DTD/svg11.dtd">
<!-- Generated by graphviz version 12.1.0 (20240811.2233)
 -->
<!-- Title: Engine::System Pages: 1 -->
<svg width="796pt" height="212pt"
 viewBox="0.00 0.00 796.00 212.00" xmlns="http://www.w3.org/2000/svg" xmlns:xlink="http://www.w3.org/1999/xlink">
<g id="graph0" class="graph" transform="scale(1 1) rotate(0) translate(4 208)">
<title>Engine::System</title>
<!-- Node1 -->
<g id="Node000001" class="node">
<title>Node1</title>
<g id="a_Node000001"><a xlink:title=" ">
<polygon fill="#999999" stroke="none" points="422.5,-204 343.5,-204 343.5,-152 422.5,-152 422.5,-204"/>
<text text-anchor="start" x="348.12" y="-190.5" font-family="Helvetica,sans-Serif" font-size="10.00">Engine::System</text>
<text text-anchor="start" x="355" y="-174.5" font-family="Helvetica,sans-Serif" font-size="10.00">+</text>
<text text-anchor="start" x="372.5" y="-174.5" font-family="Helvetica,sans-Serif" font-size="10.00">entities</text>
<text text-anchor="start" x="381.5" y="-158.5" font-family="Helvetica,sans-Serif" font-size="10.00"> </text>
<polygon fill="#666666" stroke="#666666" points="343.5,-186 343.5,-186 422.5,-186 422.5,-186 343.5,-186"/>
<polygon fill="#666666" stroke="#666666" points="343.5,-170 343.5,-170 370.5,-170 370.5,-170 343.5,-170"/>
<polygon fill="#666666" stroke="#666666" points="370.5,-170 370.5,-170 422.5,-170 422.5,-170 370.5,-170"/>
<polygon fill="none" stroke="#666666" points="343.5,-152 343.5,-204 422.5,-204 422.5,-152 343.5,-152"/>
</a>
</g>
</g>
<!-- Node2 -->
<g id="Node000002" class="node">
<title>Node2</title>
<g id="a_Node000002"><a xlink:href="classEngine_1_1Systems_1_1Collision.html" target="_top" xlink:title=" ">
<polygon fill="white" stroke="none" points="128,-92 0,-92 0,-24 128,-24 128,-92"/>
<text text-anchor="start" x="4.75" y="-78.5" font-family="Helvetica,sans-Serif" font-size="10.00">Engine::Systems::Collision</text>
<text text-anchor="start" x="15" y="-62.5" font-family="Helvetica,sans-Serif" font-size="10.00">&#45;</text>
<text text-anchor="start" x="33" y="-62.5" font-family="Helvetica,sans-Serif" font-size="10.00">active_collisions</text>
<text text-anchor="start" x="13.5" y="-46.5" font-family="Helvetica,sans-Serif" font-size="10.00">+</text>
<text text-anchor="start" x="33" y="-46.5" font-family="Helvetica,sans-Serif" font-size="10.00">update()</text>
<text text-anchor="start" x="15" y="-30.5" font-family="Helvetica,sans-Serif" font-size="10.00">&#45;</text>
<text text-anchor="start" x="33" y="-30.5" font-family="Helvetica,sans-Serif" font-size="10.00">checkCollision()</text>
<polygon fill="#666666" stroke="#666666" points="0,-74 0,-74 128,-74 128,-74 0,-74"/>
<polygon fill="#666666" stroke="#666666" points="0,-58 0,-58 31,-58 31,-58 0,-58"/>
<polygon fill="#666666" stroke="#666666" points="31,-58 31,-58 128,-58 128,-58 31,-58"/>
<polygon fill="none" stroke="#666666" points="0,-24 0,-92 128,-92 128,-24 0,-24"/>
</a>
</g>
</g>
<!-- Node1&#45;&gt;Node2 -->
<g id="edge1_Node000001_Node000002" class="edge">
<title>Node1&#45;&gt;Node2</title>
<g id="a_edge1_Node000001_Node000002"><a xlink:title=" ">
<path fill="none" stroke="#63b8ff" d="M332.67,-170.82C281.41,-163.11 200.63,-146.97 137,-116 123.99,-109.67 111.1,-100.74 99.86,-91.83"/>
<polygon fill="none" stroke="#63b8ff" points="331.88,-174.24 342.28,-172.21 332.88,-167.31 331.88,-174.24"/>
</a>
</g>
</g>
<!-- Node3 -->
<g id="Node000003" class="node">
<title>Node3</title>
<g id="a_Node000003"><a xlink:href="classEngine_1_1Systems_1_1EnemySystem.html" target="_top" xlink:title=" ">
<polygon fill="white" stroke="none" points="301.5,-116 146.5,-116 146.5,0 301.5,0 301.5,-116"/>
<text text-anchor="start" x="151.25" y="-102.5" font-family="Helvetica,sans-Serif" font-size="10.00">Engine::Systems::EnemySystem</text>
<text text-anchor="start" x="222.5" y="-86.5" font-family="Helvetica,sans-Serif" font-size="10.00"> </text>
<text text-anchor="start" x="166" y="-70.5" font-family="Helvetica,sans-Serif" font-size="10.00">+</text>
<text text-anchor="start" x="191.5" y="-70.5" font-family="Helvetica,sans-Serif" font-size="10.00">init()</text>
<text text-anchor="start" x="166" y="-54.5" font-family="Helvetica,sans-Serif" font-size="10.00">+</text>
<text text-anchor="start" x="191.5" y="-54.5" font-family="Helvetica,sans-Serif" font-size="10.00">update()</text>
<text text-anchor="start" x="167.5" y="-38.5" font-family="Helvetica,sans-Serif" font-size="10.00">&#45;</text>
<text text-anchor="start" x="191.5" y="-38.5" font-family="Helvetica,sans-Serif" font-size="10.00">handleCollision()</text>
<text text-anchor="start" x="167.5" y="-22.5" font-family="Helvetica,sans-Serif" font-size="10.00">&#45;</text>
<text text-anchor="start" x="191.5" y="-22.5" font-family="Helvetica,sans-Serif" font-size="10.00">damageEnemy()</text>
<text text-anchor="start" x="167.5" y="-6.5" font-family="Helvetica,sans-Serif" font-size="10.00">&#45;</text>
<text text-anchor="start" x="191.5" y="-6.5" font-family="Helvetica,sans-Serif" font-size="10.00">updateEnemyAI()</text>
<polygon fill="#666666" stroke="#666666" points="146.5,-98 146.5,-98 301.5,-98 301.5,-98 146.5,-98"/>
<polygon fill="#666666" stroke="#666666" points="146.5,-82 146.5,-82 301.5,-82 301.5,-82 146.5,-82"/>
<polygon fill="none" stroke="#666666" points="146.5,0 146.5,-116 301.5,-116 301.5,0 146.5,0"/>
</a>
</g>
</g>
<!-- Node1&#45;&gt;Node3 -->
<g id="edge2_Node000001_Node000003" class="edge">
<title>Node1&#45;&gt;Node3</title>
<g id="a_edge2_Node000001_Node000003"><a xlink:title=" ">
<path fill="none" stroke="#63b8ff" d="M340.55,-145.49C328.19,-136.32 314.29,-126.01 300.52,-115.79"/>
<polygon fill="none" stroke="#63b8ff" points="338.34,-148.21 348.45,-151.36 342.51,-142.59 338.34,-148.21"/>
</a>
</g>
</g>
<!-- Node4 -->
<g id="Node000004" class="node">
<title>Node4</title>
<g id="a_Node000004"><a xlink:href="classEngine_1_1Systems_1_1PhysicsSystem.html" target="_top" xlink:title=" ">
<polygon fill="white" stroke="none" points="446,-90 320,-90 320,-26 446,-26 446,-90"/>
<text text-anchor="start" x="324.88" y="-76.5" font-family="Helvetica,sans-Serif" font-size="10.00">Engine::Systems::Physics</text>
<text text-anchor="start" x="366.12" y="-64.5" font-family="Helvetica,sans-Serif" font-size="10.00">System</text>
<text text-anchor="start" x="381.5" y="-48.5" font-family="Helvetica,sans-Serif" font-size="10.00"> </text>
<text text-anchor="start" x="342" y="-32.5" font-family="Helvetica,sans-Serif" font-size="10.00">+</text>
<text text-anchor="start" x="370" y="-32.5" font-family="Helvetica,sans-Serif" font-size="10.00">update()</text>
<polygon fill="#666666" stroke="#666666" points="320,-60 320,-60 446,-60 446,-60 320,-60"/>
<polygon fill="#666666" stroke="#666666" points="320,-44 320,-44 446,-44 446,-44 320,-44"/>
<polygon fill="none" stroke="#666666" points="320,-26 320,-90 446,-90 446,-26 320,-26"/>
</a>
</g>
</g>
<!-- Node1&#45;&gt;Node4 -->
<g id="edge3_Node000001_Node000004" class="edge">
<title>Node1&#45;&gt;Node4</title>
<g id="a_edge3_Node000001_Node000004"><a xlink:title=" ">
<path fill="none" stroke="#63b8ff" d="M383,-140.9C383,-124.48 383,-105.27 383,-89.58"/>
<polygon fill="none" stroke="#63b8ff" points="379.5,-140.75 383,-150.75 386.5,-140.75 379.5,-140.75"/>
</a>
</g>
</g>
<!-- Node5 -->
<g id="Node000005" class="node">
<title>Node5</title>
<g id="a_Node000005"><a xlink:href="classEngine_1_1Systems_1_1PlayerControl.html" target="_top" xlink:title=" ">
<polygon fill="white" stroke="none" points="614,-100 464,-100 464,-16 614,-16 614,-100"/>
<text text-anchor="start" x="468.88" y="-86.5" font-family="Helvetica,sans-Serif" font-size="10.00">Engine::Systems::PlayerControl</text>
<text text-anchor="start" x="480" y="-70.5" font-family="Helvetica,sans-Serif" font-size="10.00">&#45;</text>
<text text-anchor="start" x="499" y="-70.5" font-family="Helvetica,sans-Serif" font-size="10.00">player_id_to_buttons</text>
<text text-anchor="start" x="478.5" y="-54.5" font-family="Helvetica,sans-Serif" font-size="10.00">+</text>
<text text-anchor="start" x="499" y="-54.5" font-family="Helvetica,sans-Serif" font-size="10.00">init()</text>
<text text-anchor="start" x="478.5" y="-38.5" font-family="Helvetica,sans-Serif" font-size="10.00">+</text>
<text text-anchor="start" x="499" y="-38.5" font-family="Helvetica,sans-Serif" font-size="10.00">update()</text>
<text text-anchor="start" x="478.5" y="-22.5" font-family="Helvetica,sans-Serif" font-size="10.00">+</text>
<text text-anchor="start" x="499" y="-22.5" font-family="Helvetica,sans-Serif" font-size="10.00">inputListener()</text>
<polygon fill="#666666" stroke="#666666" points="464,-82 464,-82 614,-82 614,-82 464,-82"/>
<polygon fill="#666666" stroke="#666666" points="464,-66 464,-66 497,-66 497,-66 464,-66"/>
<polygon fill="#666666" stroke="#666666" points="497,-66 497,-66 614,-66 614,-66 497,-66"/>
<polygon fill="none" stroke="#666666" points="464,-16 464,-100 614,-100 614,-16 464,-16"/>
</a>
</g>
</g>
<!-- Node1&#45;&gt;Node5 -->
<g id="edge4_Node000001_Node000005" class="edge">
<title>Node1&#45;&gt;Node5</title>
<g id="a_edge4_Node000001_Node000005"><a xlink:title=" ">
<path fill="none" stroke="#63b8ff" d="M424.73,-145.43C443.2,-131.47 465.15,-114.86 484.85,-99.96"/>
<polygon fill="none" stroke="#63b8ff" points="422.77,-142.53 416.91,-151.35 427,-148.11 422.77,-142.53"/>
</a>
</g>
</g>
<!-- Node6 -->
<g id="Node000006" class="node">
<title>Node6</title>
<g id="a_Node000006"><a xlink:href="classEngine_1_1Systems_1_1RenderSystem.html" target="_top" xlink:title=" ">
<polygon fill="white" stroke="none" points="788,-100 632,-100 632,-16 788,-16 788,-100"/>
<text text-anchor="start" x="636.88" y="-86.5" font-family="Helvetica,sans-Serif" font-size="10.00">Engine::Systems::RenderSystem</text>
<text text-anchor="start" x="658.5" y="-70.5" font-family="Helvetica,sans-Serif" font-size="10.00">&#45;</text>
<text text-anchor="start" x="688" y="-70.5" font-family="Helvetica,sans-Serif" font-size="10.00">sprites</text>
<text text-anchor="start" x="657" y="-54.5" font-family="Helvetica,sans-Serif" font-size="10.00">+</text>
<text text-anchor="start" x="688" y="-54.5" font-family="Helvetica,sans-Serif" font-size="10.00">addTexture()</text>
<text text-anchor="start" x="657" y="-38.5" font-family="Helvetica,sans-Serif" font-size="10.00">+</text>
<text text-anchor="start" x="688" y="-38.5" font-family="Helvetica,sans-Serif" font-size="10.00">addSprite()</text>
<text text-anchor="start" x="657" y="-22.5" font-family="Helvetica,sans-Serif" font-size="10.00">+</text>
<text text-anchor="start" x="688" y="-22.5" font-family="Helvetica,sans-Serif" font-size="10.00">update()</text>
<polygon fill="#666666" stroke="#666666" points="632,-82 632,-82 788,-82 788,-82 632,-82"/>
<polygon fill="#666666" stroke="#666666" points="632,-66 632,-66 686,-66 686,-66 632,-66"/>
<polygon fill="#666666" stroke="#666666" points="686,-66 686,-66 788,-66 788,-66 686,-66"/>
<polygon fill="none" stroke="#666666" points="632,-16 632,-100 788,-100 788,-16 632,-16"/>
</a>
</g>
</g>
<!-- Node1&#45;&gt;Node6 -->
<g id="edge5_Node000001_Node000006" class="edge">
<title>Node1&#45;&gt;Node6</title>
<g id="a_edge5_Node000001_Node000006"><a xlink:title=" ">
<path fill="none" stroke="#63b8ff" d="M433.21,-169.24C482.9,-160.41 560.39,-143.54 623,-116 633.25,-111.49 643.63,-105.82 653.49,-99.82"/>
<polygon fill="none" stroke="#63b8ff" points="432.87,-165.74 423.62,-170.9 434.07,-172.64 432.87,-165.74"/>
</a>
</g>
</g>
</g>
</svg>
