<?xml version="1.0" encoding="UTF-8" standalone="no"?>
<!DOCTYPE svg PUBLIC "-//W3C//DTD SVG 1.1//EN"
 "http://www.w3.org/Graphics/SVG/1.1/DTD/svg11.dtd">
<!-- Generated by graphviz version 12.1.0 (20240811.2233)
 -->
<!-- Title: RtypeServer::Protocol Pages: 1 -->
<svg width="114pt" height="220pt"
 viewBox="0.00 0.00 114.00 220.00" xmlns="http://www.w3.org/2000/svg" xmlns:xlink="http://www.w3.org/1999/xlink">
<g id="graph0" class="graph" transform="scale(1 1) rotate(0) translate(4 216)">
<title>RtypeServer::Protocol</title>
<!-- Node1 -->
<g id="Node000001" class="node">
<title>Node1</title>
<g id="a_Node000001"><a xlink:title=" ">
<polygon fill="#999999" stroke="none" points="106,-212 0,-212 0,0 106,0 106,-212"/>
<text text-anchor="start" x="4.62" y="-198.5" font-family="Helvetica,sans-Serif" font-size="10.00">RtypeServer::Protocol</text>
<text text-anchor="start" x="51.5" y="-182.5" font-family="Helvetica,sans-Serif" font-size="10.00"> </text>
<text text-anchor="start" x="8.5" y="-166.5" font-family="Helvetica,sans-Serif" font-size="10.00">+</text>
<text text-anchor="start" x="23" y="-166.5" font-family="Helvetica,sans-Serif" font-size="10.00">Protocol()</text>
<text text-anchor="start" x="8.5" y="-150.5" font-family="Helvetica,sans-Serif" font-size="10.00">+</text>
<text text-anchor="start" x="23" y="-150.5" font-family="Helvetica,sans-Serif" font-size="10.00">~Protocol()</text>
<text text-anchor="start" x="8.5" y="-134.5" font-family="Helvetica,sans-Serif" font-size="10.00">+</text>
<text text-anchor="start" x="23" y="-134.5" font-family="Helvetica,sans-Serif" font-size="10.00">writeHeader()</text>
<text text-anchor="start" x="8.5" y="-118.5" font-family="Helvetica,sans-Serif" font-size="10.00">+</text>
<text text-anchor="start" x="23" y="-118.5" font-family="Helvetica,sans-Serif" font-size="10.00">readHeader()</text>
<text text-anchor="start" x="8.5" y="-102.5" font-family="Helvetica,sans-Serif" font-size="10.00">+</text>
<text text-anchor="start" x="23" y="-102.5" font-family="Helvetica,sans-Serif" font-size="10.00">append_u8()</text>
<text text-anchor="start" x="8.5" y="-86.5" font-family="Helvetica,sans-Serif" font-size="10.00">+</text>
<text text-anchor="start" x="23" y="-86.5" font-family="Helvetica,sans-Serif" font-size="10.00">append_u16be()</text>
<text text-anchor="start" x="8.5" y="-70.5" font-family="Helvetica,sans-Serif" font-size="10.00">+</text>
<text text-anchor="start" x="23" y="-70.5" font-family="Helvetica,sans-Serif" font-size="10.00">append_u32be()</text>
<text text-anchor="start" x="8.5" y="-54.5" font-family="Helvetica,sans-Serif" font-size="10.00">+</text>
<text text-anchor="start" x="23" y="-54.5" font-family="Helvetica,sans-Serif" font-size="10.00">append_i16be()</text>
<text text-anchor="start" x="8.5" y="-38.5" font-family="Helvetica,sans-Serif" font-size="10.00">+</text>
<text text-anchor="start" x="23" y="-38.5" font-family="Helvetica,sans-Serif" font-size="10.00">read_u8()</text>
<text text-anchor="start" x="8.5" y="-22.5" font-family="Helvetica,sans-Serif" font-size="10.00">+</text>
<text text-anchor="start" x="23" y="-22.5" font-family="Helvetica,sans-Serif" font-size="10.00">read_u16be()</text>
<text text-anchor="start" x="23" y="-6.5" font-family="Helvetica,sans-Serif" font-size="10.00">and 62 more...</text>
<polygon fill="#666666" stroke="#666666" points="0,-194 0,-194 106,-194 106,-194 0,-194"/>
<polygon fill="#666666" stroke="#666666" points="0,-178 0,-178 106,-178 106,-178 0,-178"/>
<polygon fill="none" stroke="#666666" points="0,0 0,-212 106,-212 106,0 0,0"/>
</a>
</g>
</g>
</g>
</svg>
