<?xml version="1.0" encoding="UTF-8" standalone="no"?>
<!DOCTYPE svg PUBLIC "-//W3C//DTD SVG 1.1//EN"
 "http://www.w3.org/Graphics/SVG/1.1/DTD/svg11.dtd">
<!-- Generated by graphviz version 12.1.0 (20240811.2233)
 -->
<!-- Title: NetworkClient::startReceive Pages: 1 -->
<svg width="333pt" height="66pt"
 viewBox="0.00 0.00 332.50 66.00" xmlns="http://www.w3.org/2000/svg" xmlns:xlink="http://www.w3.org/1999/xlink">
<g id="graph0" class="graph" transform="scale(1 1) rotate(0) translate(4 62)">
<title>NetworkClient::startReceive</title>
<!-- Node1 -->
<g id="Node000001" class="node">
<title>Node1</title>
<g id="a_Node000001"><a xlink:title=" ">
<polygon fill="#999999" stroke="#666666" points="324.5,-20 184.75,-20 184.75,0 324.5,0 324.5,-20"/>
<text text-anchor="middle" x="254.62" y="-6.5" font-family="Helvetica,sans-Serif" font-size="10.00">NetworkClient::startReceive</text>
</a>
</g>
</g>
<!-- Node2 -->
<g id="Node000002" class="node">
<title>Node2</title>
<g id="a_Node000002"><a xlink:href="classNetworkClient.html#afc8d05d54e88bce60554d9f31e9b0838" target="_top" xlink:title=" ">
<polygon fill="white" stroke="#666666" points="133.75,-58 15,-58 15,-38 133.75,-38 133.75,-58"/>
<text text-anchor="middle" x="74.38" y="-44.5" font-family="Helvetica,sans-Serif" font-size="10.00">NetworkClient::connect</text>
</a>
</g>
</g>
<!-- Node1&#45;&gt;Node2 -->
<g id="edge1_Node000001_Node000002" class="edge">
<title>Node1&#45;&gt;Node2</title>
<g id="a_edge1_Node000001_Node000002"><a xlink:title=" ">
<path fill="none" stroke="#63b8ff" d="M193.33,-22.85C170.89,-27.64 145.71,-33.01 124.39,-37.55"/>
<polygon fill="#63b8ff" stroke="#63b8ff" points="193.91,-26.31 202.97,-20.8 192.46,-19.46 193.91,-26.31"/>
</a>
</g>
</g>
<!-- Node3 -->
<g id="Node000003" class="node">
<title>Node3</title>
<g id="a_Node000003"><a xlink:href="classNetworkClient.html#ae2e39148013eaea326c8ae242ab341bc" target="_top" xlink:title=" ">
<polygon fill="white" stroke="#666666" points="148.75,-20 0,-20 0,0 148.75,0 148.75,-20"/>
<text text-anchor="middle" x="74.38" y="-6.5" font-family="Helvetica,sans-Serif" font-size="10.00">NetworkClient::handleReceive</text>
</a>
</g>
</g>
<!-- Node1&#45;&gt;Node3 -->
<g id="edge2_Node000001_Node000003" class="edge">
<title>Node1&#45;&gt;Node3</title>
<g id="a_edge2_Node000001_Node000003"><a xlink:title=" ">
<path fill="none" stroke="#63b8ff" d="M172.96,-3.28C165.06,-3.23 157.06,-3.25 149.23,-3.34"/>
<polygon fill="#63b8ff" stroke="#63b8ff" points="172.9,-6.78 182.94,-3.39 172.98,0.22 172.9,-6.78"/>
</a>
</g>
</g>
<!-- Node3&#45;&gt;Node1 -->
<g id="edge3_Node000003_Node000001" class="edge">
<title>Node3&#45;&gt;Node1</title>
<g id="a_edge3_Node000003_Node000001"><a xlink:title=" ">
<path fill="none" stroke="#63b8ff" d="M160.52,-16.74C168.54,-16.77 176.61,-16.72 184.45,-16.6"/>
<polygon fill="#63b8ff" stroke="#63b8ff" points="160.77,-13.25 150.74,-16.67 160.72,-20.25 160.77,-13.25"/>
</a>
</g>
</g>
</g>
</svg>
