<?xml version="1.0" encoding="UTF-8" standalone="no"?>
<!DOCTYPE svg PUBLIC "-//W3C//DTD SVG 1.1//EN"
 "http://www.w3.org/Graphics/SVG/1.1/DTD/svg11.dtd">
<!-- Generated by graphviz version 12.1.0 (20240811.2233)
 -->
<!-- Title: Parameters::getResolutionString Pages: 1 -->
<svg width="964pt" height="78pt"
 viewBox="0.00 0.00 964.25 78.00" xmlns="http://www.w3.org/2000/svg" xmlns:xlink="http://www.w3.org/1999/xlink">
<g id="graph0" class="graph" transform="scale(1 1) rotate(0) translate(4 74)">
<title>Parameters::getResolutionString</title>
<!-- Node1 -->
<g id="Node000001" class="node">
<title>Node1</title>
<g id="a_Node000001"><a xlink:title=" ">
<polygon fill="#999999" stroke="#666666" points="956.25,-49 824,-49 824,-17 956.25,-17 956.25,-49"/>
<text text-anchor="start" x="832" y="-35.5" font-family="Helvetica,sans-Serif" font-size="10.00">Parameters::getResolution</text>
<text text-anchor="middle" x="890.12" y="-23.5" font-family="Helvetica,sans-Serif" font-size="10.00">String</text>
</a>
</g>
</g>
<!-- Node2 -->
<g id="Node000002" class="node">
<title>Node2</title>
<g id="a_Node000002"><a xlink:href="classParameters.html#aa44f94f237faff1315187b2a31af3c11" target="_top" xlink:title=" ">
<polygon fill="white" stroke="#666666" points="775.62,-63 643.38,-63 643.38,-43 775.62,-43 775.62,-63"/>
<text text-anchor="middle" x="709.5" y="-49.5" font-family="Helvetica,sans-Serif" font-size="10.00">Parameters::setResolution</text>
</a>
</g>
</g>
<!-- Node1&#45;&gt;Node2 -->
<g id="edge1_Node000001_Node000002" class="edge">
<title>Node1&#45;&gt;Node2</title>
<g id="a_edge1_Node000001_Node000002"><a xlink:title=" ">
<path fill="none" stroke="#63b8ff" d="M812.19,-41.61C800.13,-42.96 787.76,-44.35 775.99,-45.67"/>
<polygon fill="#63b8ff" stroke="#63b8ff" points="812.57,-45.09 822.12,-40.5 811.79,-38.14 812.57,-45.09"/>
</a>
</g>
</g>
<!-- Node7 -->
<g id="Node000007" class="node">
<title>Node7</title>
<g id="a_Node000007"><a xlink:href="classParameters.html#a97f0af15da3b0a1a8b3702fc5b56556e" target="_top" xlink:title=" ">
<polygon fill="white" stroke="#666666" points="788,-24 631,-24 631,-4 788,-4 788,-24"/>
<text text-anchor="middle" x="709.5" y="-10.5" font-family="Helvetica,sans-Serif" font-size="10.00">Parameters::setupVideoSettings</text>
</a>
</g>
</g>
<!-- Node1&#45;&gt;Node7 -->
<g id="edge6_Node000001_Node000007" class="edge">
<title>Node1&#45;&gt;Node7</title>
<g id="a_edge6_Node000001_Node000007"><a xlink:title=" ">
<path fill="none" stroke="#63b8ff" d="M812.2,-24.82C804.32,-23.98 796.31,-23.13 788.42,-22.29"/>
<polygon fill="#63b8ff" stroke="#63b8ff" points="811.81,-28.3 822.12,-25.87 812.55,-21.33 811.81,-28.3"/>
</a>
</g>
</g>
<!-- Node3 -->
<g id="Node000003" class="node">
<title>Node3</title>
<g id="a_Node000003"><a xlink:href="classGameManager.html#aadc216c110deaa25eb19de55f8a1056a" target="_top" xlink:title=" ">
<polygon fill="white" stroke="#666666" points="595,-63 439.5,-63 439.5,-43 595,-43 595,-63"/>
<text text-anchor="middle" x="517.25" y="-49.5" font-family="Helvetica,sans-Serif" font-size="10.00">GameManager::cycleResolution</text>
</a>
</g>
</g>
<!-- Node2&#45;&gt;Node3 -->
<g id="edge2_Node000002_Node000003" class="edge">
<title>Node2&#45;&gt;Node3</title>
<g id="a_edge2_Node000002_Node000003"><a xlink:title=" ">
<path fill="none" stroke="#63b8ff" d="M631.68,-53C619.7,-53 607.31,-53 595.31,-53"/>
<polygon fill="#63b8ff" stroke="#63b8ff" points="631.51,-56.5 641.51,-53 631.51,-49.5 631.51,-56.5"/>
</a>
</g>
</g>
<!-- Node4 -->
<g id="Node000004" class="node">
<title>Node4</title>
<g id="a_Node000004"><a xlink:href="classGameManager.html#aeed1dd73db1c39b2e39d30d9d37c1f6c" target="_top" xlink:title=" ">
<polygon fill="white" stroke="#666666" points="400.5,-70 257,-70 257,-38 400.5,-38 400.5,-70"/>
<text text-anchor="start" x="265" y="-56.5" font-family="Helvetica,sans-Serif" font-size="10.00">GameManager::handleMouse</text>
<text text-anchor="middle" x="328.75" y="-44.5" font-family="Helvetica,sans-Serif" font-size="10.00">Click</text>
</a>
</g>
</g>
<!-- Node3&#45;&gt;Node4 -->
<g id="edge3_Node000003_Node000004" class="edge">
<title>Node3&#45;&gt;Node4</title>
<g id="a_edge3_Node000003_Node000004"><a xlink:title=" ">
<path fill="none" stroke="#63b8ff" d="M427.72,-53.47C418.73,-53.52 409.69,-53.57 400.92,-53.62"/>
<polygon fill="#63b8ff" stroke="#63b8ff" points="427.55,-56.98 437.53,-53.42 427.51,-49.98 427.55,-56.98"/>
</a>
</g>
</g>
<!-- Node5 -->
<g id="Node000005" class="node">
<title>Node5</title>
<g id="a_Node000005"><a xlink:href="classGameManager.html#a6cea7fca5fecdd4f8a32912d4bfc233f" target="_top" xlink:title=" ">
<polygon fill="white" stroke="#666666" points="218,-64 73,-64 73,-44 218,-44 218,-64"/>
<text text-anchor="middle" x="145.5" y="-50.5" font-family="Helvetica,sans-Serif" font-size="10.00">GameManager::handleEvents</text>
</a>
</g>
</g>
<!-- Node4&#45;&gt;Node5 -->
<g id="edge4_Node000004_Node000005" class="edge">
<title>Node4&#45;&gt;Node5</title>
<g id="a_edge4_Node000004_Node000005"><a xlink:title=" ">
<path fill="none" stroke="#63b8ff" d="M245.31,-54C236.29,-54 227.17,-54 218.3,-54"/>
<polygon fill="#63b8ff" stroke="#63b8ff" points="245.12,-57.5 255.12,-54 245.12,-50.5 245.12,-57.5"/>
</a>
</g>
</g>
<!-- Node6 -->
<g id="Node000006" class="node">
<title>Node6</title>
<g id="a_Node000006"><a xlink:href="Client_2src_2main_8cpp.html#ae66f6b31b5ad750f1fe042a706a4e3d4" target="_top" xlink:title=" ">
<polygon fill="white" stroke="#666666" points="37,-64 0,-64 0,-44 37,-44 37,-64"/>
<text text-anchor="middle" x="18.5" y="-50.5" font-family="Helvetica,sans-Serif" font-size="10.00">main</text>
</a>
</g>
</g>
<!-- Node5&#45;&gt;Node6 -->
<g id="edge5_Node000005_Node000006" class="edge">
<title>Node5&#45;&gt;Node6</title>
<g id="a_edge5_Node000005_Node000006"><a xlink:title=" ">
<path fill="none" stroke="#63b8ff" d="M61.12,-54C52.34,-54 44.18,-54 37.46,-54"/>
<polygon fill="#63b8ff" stroke="#63b8ff" points="61,-57.5 71,-54 61,-50.5 61,-57.5"/>
</a>
</g>
</g>
<!-- Node8 -->
<g id="Node000008" class="node">
<title>Node8</title>
<g id="a_Node000008"><a xlink:href="classParameters.html#a8e74ddb8f408ad9e725e3784f8a873e7" target="_top" xlink:title=" ">
<polygon fill="white" stroke="#666666" points="586,-23 448.5,-23 448.5,-3 586,-3 586,-23"/>
<text text-anchor="middle" x="517.25" y="-9.5" font-family="Helvetica,sans-Serif" font-size="10.00">Parameters::loadResources</text>
</a>
</g>
</g>
<!-- Node7&#45;&gt;Node8 -->
<g id="edge7_Node000007_Node000008" class="edge">
<title>Node7&#45;&gt;Node8</title>
<g id="a_edge7_Node000007_Node000008"><a xlink:title=" ">
<path fill="none" stroke="#63b8ff" d="M619.13,-13.53C608.1,-13.47 596.96,-13.41 586.31,-13.36"/>
<polygon fill="#63b8ff" stroke="#63b8ff" points="619.04,-17.03 629.06,-13.58 619.07,-10.03 619.04,-17.03"/>
</a>
</g>
</g>
<!-- Node9 -->
<g id="Node000009" class="node">
<title>Node9</title>
<g id="a_Node000009"><a xlink:href="classGameManager.html#a72e1318dfab6fad06bd4126d12f6a537" target="_top" xlink:title=" ">
<polygon fill="white" stroke="#666666" points="403.5,-20 254,-20 254,0 403.5,0 403.5,-20"/>
<text text-anchor="middle" x="328.75" y="-6.5" font-family="Helvetica,sans-Serif" font-size="10.00">GameManager::GameManager</text>
</a>
</g>
</g>
<!-- Node8&#45;&gt;Node9 -->
<g id="edge8_Node000008_Node000009" class="edge">
<title>Node8&#45;&gt;Node9</title>
<g id="a_edge8_Node000008_Node000009"><a xlink:title=" ">
<path fill="none" stroke="#63b8ff" d="M436.88,-11.72C425.96,-11.55 414.79,-11.37 403.98,-11.19"/>
<polygon fill="#63b8ff" stroke="#63b8ff" points="436.56,-15.22 446.61,-11.88 436.67,-8.22 436.56,-15.22"/>
</a>
</g>
</g>
</g>
</svg>
