<?xml version="1.0" encoding="UTF-8" standalone="no"?>
<!DOCTYPE svg PUBLIC "-//W3C//DTD SVG 1.1//EN"
 "http://www.w3.org/Graphics/SVG/1.1/DTD/svg11.dtd">
<!-- Generated by graphviz version 12.1.0 (20240811.2233)
 -->
<!-- Title: RtypeServer::UdpServer::start_heartbeat Pages: 1 -->
<svg width="439pt" height="102pt"
 viewBox="0.00 0.00 439.25 102.00" xmlns="http://www.w3.org/2000/svg" xmlns:xlink="http://www.w3.org/1999/xlink">
<g id="graph0" class="graph" transform="scale(1 1) rotate(0) translate(4 98)">
<title>RtypeServer::UdpServer::start_heartbeat</title>
<!-- Node1 -->
<g id="Node000001" class="node">
<title>Node1</title>
<g id="a_Node000001"><a xlink:title=" ">
<polygon fill="#999999" stroke="#666666" points="123.25,-76 0,-76 0,-44 123.25,-44 123.25,-76"/>
<text text-anchor="start" x="8" y="-62.5" font-family="Helvetica,sans-Serif" font-size="10.00">RtypeServer::UdpServer</text>
<text text-anchor="middle" x="61.62" y="-50.5" font-family="Helvetica,sans-Serif" font-size="10.00">::start_heartbeat</text>
</a>
</g>
</g>
<!-- Node1&#45;&gt;Node1 -->
<g id="edge5_Node000001_Node000001" class="edge">
<title>Node1&#45;&gt;Node1</title>
<g id="a_edge5_Node000001_Node000001"><a xlink:title=" ">
<path fill="none" stroke="#63b8ff" d="M33.19,-76.44C27.89,-85.58 37.36,-94 61.62,-94 74.89,-94 83.74,-91.48 88.16,-87.71"/>
<polygon fill="#63b8ff" stroke="#63b8ff" points="91.6,-88.38 89.8,-77.94 84.7,-87.22 91.6,-88.38"/>
</a>
</g>
</g>
<!-- Node2 -->
<g id="Node000002" class="node">
<title>Node2</title>
<g id="a_Node000002"><a xlink:href="namespaceRtypeServer.html#a0945154a39091e84a43cedc8136b0abe" target="_top" xlink:title=" ">
<polygon fill="white" stroke="#666666" points="268.62,-92 173.12,-92 173.12,-72 268.62,-72 268.62,-92"/>
<text text-anchor="middle" x="220.88" y="-78.5" font-family="Helvetica,sans-Serif" font-size="10.00">RtypeServer::infof</text>
</a>
</g>
</g>
<!-- Node1&#45;&gt;Node2 -->
<g id="edge1_Node000001_Node000002" class="edge">
<title>Node1&#45;&gt;Node2</title>
<g id="a_edge1_Node000001_Node000002"><a xlink:title=" ">
<path fill="none" stroke="#63b8ff" d="M123.42,-68.51C135.99,-70.26 149.21,-72.11 161.69,-73.86"/>
<polygon fill="#63b8ff" stroke="#63b8ff" points="161.01,-77.3 171.4,-75.22 161.98,-70.37 161.01,-77.3"/>
</a>
</g>
</g>
<!-- Node3 -->
<g id="Node000003" class="node">
<title>Node3</title>
<g id="a_Node000003"><a xlink:href="classRtypeServer_1_1UdpServer.html#ad5b8e37aeff4739ff56c64834ff489d4" target="_top" xlink:title=" ">
<polygon fill="white" stroke="#666666" points="282.5,-54 159.25,-54 159.25,-22 282.5,-22 282.5,-54"/>
<text text-anchor="start" x="167.25" y="-40.5" font-family="Helvetica,sans-Serif" font-size="10.00">RtypeServer::UdpServer</text>
<text text-anchor="middle" x="220.88" y="-28.5" font-family="Helvetica,sans-Serif" font-size="10.00">::send_ping</text>
</a>
</g>
</g>
<!-- Node1&#45;&gt;Node3 -->
<g id="edge2_Node000001_Node000003" class="edge">
<title>Node1&#45;&gt;Node3</title>
<g id="a_edge2_Node000001_Node000003"><a xlink:title=" ">
<path fill="none" stroke="#63b8ff" d="M123.42,-51.49C131.35,-50.38 139.54,-49.24 147.63,-48.11"/>
<polygon fill="#63b8ff" stroke="#63b8ff" points="148.06,-51.58 157.48,-46.73 147.09,-44.65 148.06,-51.58"/>
</a>
</g>
</g>
<!-- Node4 -->
<g id="Node000004" class="node">
<title>Node4</title>
<g id="a_Node000004"><a xlink:href="namespaceRtypeServer.html#a29d016de4637084d2ec30b53700af223" target="_top" xlink:title=" ">
<polygon fill="white" stroke="#666666" points="425.25,-70 324.5,-70 324.5,-50 425.25,-50 425.25,-70"/>
<text text-anchor="middle" x="374.88" y="-56.5" font-family="Helvetica,sans-Serif" font-size="10.00">RtypeServer::warnf</text>
</a>
</g>
</g>
<!-- Node3&#45;&gt;Node4 -->
<g id="edge3_Node000003_Node000004" class="edge">
<title>Node3&#45;&gt;Node4</title>
<g id="a_edge3_Node000003_Node000004"><a xlink:title=" ">
<path fill="none" stroke="#63b8ff" d="M282.82,-46.82C292.68,-48.25 302.88,-49.72 312.74,-51.15"/>
<polygon fill="#63b8ff" stroke="#63b8ff" points="312.22,-54.61 322.62,-52.58 313.22,-47.68 312.22,-54.61"/>
</a>
</g>
</g>
<!-- Node5 -->
<g id="Node000005" class="node">
<title>Node5</title>
<g id="a_Node000005"><a xlink:href="classRtypeServer_1_1Protocol.html#ad918184440d6fcb33f231a7173a67399" target="_top" xlink:title=" ">
<polygon fill="white" stroke="#666666" points="431.25,-32 318.5,-32 318.5,0 431.25,0 431.25,-32"/>
<text text-anchor="start" x="326.5" y="-18.5" font-family="Helvetica,sans-Serif" font-size="10.00">RtypeServer::Protocol</text>
<text text-anchor="middle" x="374.88" y="-6.5" font-family="Helvetica,sans-Serif" font-size="10.00">::writeHeader</text>
</a>
</g>
</g>
<!-- Node3&#45;&gt;Node5 -->
<g id="edge4_Node000003_Node000005" class="edge">
<title>Node3&#45;&gt;Node5</title>
<g id="a_edge4_Node000003_Node000005"><a xlink:title=" ">
<path fill="none" stroke="#63b8ff" d="M282.82,-29.18C290.79,-28.02 299,-26.84 307.06,-25.67"/>
<polygon fill="#63b8ff" stroke="#63b8ff" points="307.43,-29.15 316.83,-24.26 306.43,-22.23 307.43,-29.15"/>
</a>
</g>
</g>
</g>
</svg>
