<?xml version="1.0" encoding="UTF-8" standalone="no"?>
<!DOCTYPE svg PUBLIC "-//W3C//DTD SVG 1.1//EN"
 "http://www.w3.org/Graphics/SVG/1.1/DTD/svg11.dtd">
<!-- Generated by graphviz version 12.1.0 (20240811.2233)
 -->
<!-- Title: RTypeServer::Server::initEngine Pages: 1 -->
<svg width="707pt" height="90pt"
 viewBox="0.00 0.00 707.25 90.00" xmlns="http://www.w3.org/2000/svg" xmlns:xlink="http://www.w3.org/1999/xlink">
<g id="graph0" class="graph" transform="scale(1 1) rotate(0) translate(4 86)">
<title>RTypeServer::Server::initEngine</title>
<!-- Node1 -->
<g id="Node000001" class="node">
<title>Node1</title>
<g id="a_Node000001"><a xlink:title=" ">
<polygon fill="#999999" stroke="#666666" points="106.75,-57 0,-57 0,-25 106.75,-25 106.75,-57"/>
<text text-anchor="start" x="8" y="-43.5" font-family="Helvetica,sans-Serif" font-size="10.00">RTypeServer::Server</text>
<text text-anchor="middle" x="53.38" y="-31.5" font-family="Helvetica,sans-Serif" font-size="10.00">::initEngine</text>
</a>
</g>
</g>
<!-- Node2 -->
<g id="Node000002" class="node">
<title>Node2</title>
<g id="a_Node000002"><a xlink:href="classEngine_1_1Systems_1_1EnemySystem.html#a3f56472b9d1cbd11d38ed305cd839c5a" target="_top" xlink:title=" ">
<polygon fill="white" stroke="#666666" points="304.25,-82 142.75,-82 142.75,-50 304.25,-50 304.25,-82"/>
<text text-anchor="start" x="150.75" y="-68.5" font-family="Helvetica,sans-Serif" font-size="10.00">Engine::Systems::EnemySystem</text>
<text text-anchor="middle" x="223.5" y="-56.5" font-family="Helvetica,sans-Serif" font-size="10.00">::init</text>
</a>
</g>
</g>
<!-- Node1&#45;&gt;Node2 -->
<g id="edge1_Node000001_Node000002" class="edge">
<title>Node1&#45;&gt;Node2</title>
<g id="a_edge1_Node000001_Node000002"><a xlink:title=" ">
<path fill="none" stroke="#63b8ff" d="M107.11,-48.84C114.86,-49.99 123.02,-51.21 131.27,-52.43"/>
<polygon fill="#63b8ff" stroke="#63b8ff" points="130.65,-55.88 141.05,-53.89 131.68,-48.96 130.65,-55.88"/>
</a>
</g>
</g>
<!-- Node5 -->
<g id="Node000005" class="node">
<title>Node5</title>
<g id="a_Node000005"><a xlink:href="classEngine_1_1Systems_1_1PlayerControl.html#a34f318711aedbf730d7390125d2f6924" target="_top" xlink:title=" ">
<polygon fill="white" stroke="#666666" points="301.62,-32 145.38,-32 145.38,0 301.62,0 301.62,-32"/>
<text text-anchor="start" x="153.38" y="-18.5" font-family="Helvetica,sans-Serif" font-size="10.00">Engine::Systems::PlayerControl</text>
<text text-anchor="middle" x="223.5" y="-6.5" font-family="Helvetica,sans-Serif" font-size="10.00">::init</text>
</a>
</g>
</g>
<!-- Node1&#45;&gt;Node5 -->
<g id="edge4_Node000001_Node000005" class="edge">
<title>Node1&#45;&gt;Node5</title>
<g id="a_edge4_Node000001_Node000005"><a xlink:title=" ">
<path fill="none" stroke="#63b8ff" d="M107.11,-33.16C115.67,-31.89 124.73,-30.54 133.87,-29.18"/>
<polygon fill="#63b8ff" stroke="#63b8ff" points="134.14,-32.68 143.52,-27.74 133.11,-25.75 134.14,-32.68"/>
</a>
</g>
</g>
<!-- Node3 -->
<g id="Node000003" class="node">
<title>Node3</title>
<g id="a_Node000003"><a xlink:href="classEngine_1_1Systems_1_1EnemySystem.html#ad40dc42ba3526d22bbc4735fb4ca7dba" target="_top" xlink:title=" ">
<polygon fill="white" stroke="#666666" points="501.75,-82 340.25,-82 340.25,-50 501.75,-50 501.75,-82"/>
<text text-anchor="start" x="348.25" y="-68.5" font-family="Helvetica,sans-Serif" font-size="10.00">Engine::Systems::EnemySystem</text>
<text text-anchor="middle" x="421" y="-56.5" font-family="Helvetica,sans-Serif" font-size="10.00">::handleCollision</text>
</a>
</g>
</g>
<!-- Node2&#45;&gt;Node3 -->
<g id="edge2_Node000002_Node000003" class="edge">
<title>Node2&#45;&gt;Node3</title>
<g id="a_edge2_Node000002_Node000003"><a xlink:title=" ">
<path fill="none" stroke="#63b8ff" d="M304.58,-66C312.54,-66 320.65,-66 328.71,-66"/>
<polygon fill="#63b8ff" stroke="#63b8ff" points="328.53,-69.5 338.53,-66 328.53,-62.5 328.53,-69.5"/>
</a>
</g>
</g>
<!-- Node4 -->
<g id="Node000004" class="node">
<title>Node4</title>
<g id="a_Node000004"><a xlink:href="classEngine_1_1Systems_1_1EnemySystem.html#a60a0336504ab065e4a49cb6e2980770e" target="_top" xlink:title=" ">
<polygon fill="white" stroke="#666666" points="699.25,-82 537.75,-82 537.75,-50 699.25,-50 699.25,-82"/>
<text text-anchor="start" x="545.75" y="-68.5" font-family="Helvetica,sans-Serif" font-size="10.00">Engine::Systems::EnemySystem</text>
<text text-anchor="middle" x="618.5" y="-56.5" font-family="Helvetica,sans-Serif" font-size="10.00">::damageEnemy</text>
</a>
</g>
</g>
<!-- Node3&#45;&gt;Node4 -->
<g id="edge3_Node000003_Node000004" class="edge">
<title>Node3&#45;&gt;Node4</title>
<g id="a_edge3_Node000003_Node000004"><a xlink:title=" ">
<path fill="none" stroke="#63b8ff" d="M502.08,-66C510.04,-66 518.15,-66 526.21,-66"/>
<polygon fill="#63b8ff" stroke="#63b8ff" points="526.03,-69.5 536.03,-66 526.03,-62.5 526.03,-69.5"/>
</a>
</g>
</g>
<!-- Node6 -->
<g id="Node000006" class="node">
<title>Node6</title>
<g id="a_Node000006"><a xlink:href="classEngine_1_1Systems_1_1PlayerControl.html#acdc125a87269bdcb52dbf899a1657a07" target="_top" xlink:title=" ">
<polygon fill="white" stroke="#666666" points="499.12,-32 342.88,-32 342.88,0 499.12,0 499.12,-32"/>
<text text-anchor="start" x="350.88" y="-18.5" font-family="Helvetica,sans-Serif" font-size="10.00">Engine::Systems::PlayerControl</text>
<text text-anchor="middle" x="421" y="-6.5" font-family="Helvetica,sans-Serif" font-size="10.00">::inputListener</text>
</a>
</g>
</g>
<!-- Node5&#45;&gt;Node6 -->
<g id="edge5_Node000005_Node000006" class="edge">
<title>Node5&#45;&gt;Node6</title>
<g id="a_edge5_Node000005_Node000006"><a xlink:title=" ">
<path fill="none" stroke="#63b8ff" d="M302.05,-16C311.63,-16 321.47,-16 331.2,-16"/>
<polygon fill="#63b8ff" stroke="#63b8ff" points="331.03,-19.5 341.03,-16 331.03,-12.5 331.03,-19.5"/>
</a>
</g>
</g>
</g>
</svg>
