<?xml version="1.0" encoding="UTF-8" standalone="no"?>
<!DOCTYPE svg PUBLIC "-//W3C//DTD SVG 1.1//EN"
 "http://www.w3.org/Graphics/SVG/1.1/DTD/svg11.dtd">
<!-- Generated by graphviz version 12.1.0 (20240811.2233)
 -->
<!-- Title: GameManager::connectToServer Pages: 1 -->
<svg width="760pt" height="90pt"
 viewBox="0.00 0.00 759.75 90.00" xmlns="http://www.w3.org/2000/svg" xmlns:xlink="http://www.w3.org/1999/xlink">
<g id="graph0" class="graph" transform="scale(1 1) rotate(0) translate(4 86)">
<title>GameManager::connectToServer</title>
<!-- Node1 -->
<g id="Node000001" class="node">
<title>Node1</title>
<g id="a_Node000001"><a xlink:title=" ">
<polygon fill="#999999" stroke="#666666" points="159.25,-51 0,-51 0,-31 159.25,-31 159.25,-51"/>
<text text-anchor="middle" x="79.62" y="-37.5" font-family="Helvetica,sans-Serif" font-size="10.00">GameManager::connectToServer</text>
</a>
</g>
</g>
<!-- Node2 -->
<g id="Node000002" class="node">
<title>Node2</title>
<g id="a_Node000002"><a xlink:href="classEngine_1_1Systems_1_1EnemySystem.html#a3f56472b9d1cbd11d38ed305cd839c5a" target="_top" xlink:title=" ">
<polygon fill="white" stroke="#666666" points="356.75,-82 195.25,-82 195.25,-50 356.75,-50 356.75,-82"/>
<text text-anchor="start" x="203.25" y="-68.5" font-family="Helvetica,sans-Serif" font-size="10.00">Engine::Systems::EnemySystem</text>
<text text-anchor="middle" x="276" y="-56.5" font-family="Helvetica,sans-Serif" font-size="10.00">::init</text>
</a>
</g>
</g>
<!-- Node1&#45;&gt;Node2 -->
<g id="edge1_Node000001_Node000002" class="edge">
<title>Node1&#45;&gt;Node2</title>
<g id="a_edge1_Node000001_Node000002"><a xlink:title=" ">
<path fill="none" stroke="#63b8ff" d="M159.68,-51.17C167.61,-52.19 175.71,-53.23 183.75,-54.26"/>
<polygon fill="#63b8ff" stroke="#63b8ff" points="183.2,-57.72 193.56,-55.53 184.09,-50.78 183.2,-57.72"/>
</a>
</g>
</g>
<!-- Node5 -->
<g id="Node000005" class="node">
<title>Node5</title>
<g id="a_Node000005"><a xlink:href="classEngine_1_1Systems_1_1PlayerControl.html#ac934a66a980beab79c733e4f7785a017" target="_top" xlink:title=" ">
<polygon fill="white" stroke="#666666" points="354.12,-32 197.88,-32 197.88,0 354.12,0 354.12,-32"/>
<text text-anchor="start" x="205.88" y="-18.5" font-family="Helvetica,sans-Serif" font-size="10.00">Engine::Systems::PlayerControl</text>
<text text-anchor="middle" x="276" y="-6.5" font-family="Helvetica,sans-Serif" font-size="10.00">::init</text>
</a>
</g>
</g>
<!-- Node1&#45;&gt;Node5 -->
<g id="edge4_Node000001_Node000005" class="edge">
<title>Node1&#45;&gt;Node5</title>
<g id="a_edge4_Node000001_Node000005"><a xlink:title=" ">
<path fill="none" stroke="#63b8ff" d="M159.68,-30.83C168.48,-29.7 177.48,-28.54 186.38,-27.4"/>
<polygon fill="#63b8ff" stroke="#63b8ff" points="186.61,-30.9 196.08,-26.15 185.72,-23.95 186.61,-30.9"/>
</a>
</g>
</g>
<!-- Node3 -->
<g id="Node000003" class="node">
<title>Node3</title>
<g id="a_Node000003"><a xlink:href="classEngine_1_1Systems_1_1EnemySystem.html#ad40dc42ba3526d22bbc4735fb4ca7dba" target="_top" xlink:title=" ">
<polygon fill="white" stroke="#666666" points="554.25,-82 392.75,-82 392.75,-50 554.25,-50 554.25,-82"/>
<text text-anchor="start" x="400.75" y="-68.5" font-family="Helvetica,sans-Serif" font-size="10.00">Engine::Systems::EnemySystem</text>
<text text-anchor="middle" x="473.5" y="-56.5" font-family="Helvetica,sans-Serif" font-size="10.00">::handleCollision</text>
</a>
</g>
</g>
<!-- Node2&#45;&gt;Node3 -->
<g id="edge2_Node000002_Node000003" class="edge">
<title>Node2&#45;&gt;Node3</title>
<g id="a_edge2_Node000002_Node000003"><a xlink:title=" ">
<path fill="none" stroke="#63b8ff" d="M357.08,-66C365.04,-66 373.15,-66 381.21,-66"/>
<polygon fill="#63b8ff" stroke="#63b8ff" points="381.03,-69.5 391.03,-66 381.03,-62.5 381.03,-69.5"/>
</a>
</g>
</g>
<!-- Node4 -->
<g id="Node000004" class="node">
<title>Node4</title>
<g id="a_Node000004"><a xlink:href="classEngine_1_1Systems_1_1EnemySystem.html#a60a0336504ab065e4a49cb6e2980770e" target="_top" xlink:title=" ">
<polygon fill="white" stroke="#666666" points="751.75,-82 590.25,-82 590.25,-50 751.75,-50 751.75,-82"/>
<text text-anchor="start" x="598.25" y="-68.5" font-family="Helvetica,sans-Serif" font-size="10.00">Engine::Systems::EnemySystem</text>
<text text-anchor="middle" x="671" y="-56.5" font-family="Helvetica,sans-Serif" font-size="10.00">::damageEnemy</text>
</a>
</g>
</g>
<!-- Node3&#45;&gt;Node4 -->
<g id="edge3_Node000003_Node000004" class="edge">
<title>Node3&#45;&gt;Node4</title>
<g id="a_edge3_Node000003_Node000004"><a xlink:title=" ">
<path fill="none" stroke="#63b8ff" d="M554.58,-66C562.54,-66 570.65,-66 578.71,-66"/>
<polygon fill="#63b8ff" stroke="#63b8ff" points="578.53,-69.5 588.53,-66 578.53,-62.5 578.53,-69.5"/>
</a>
</g>
</g>
<!-- Node6 -->
<g id="Node000006" class="node">
<title>Node6</title>
<g id="a_Node000006"><a xlink:href="classEngine_1_1Systems_1_1PlayerControl.html#acdc125a87269bdcb52dbf899a1657a07" target="_top" xlink:title=" ">
<polygon fill="white" stroke="#666666" points="551.62,-32 395.38,-32 395.38,0 551.62,0 551.62,-32"/>
<text text-anchor="start" x="403.38" y="-18.5" font-family="Helvetica,sans-Serif" font-size="10.00">Engine::Systems::PlayerControl</text>
<text text-anchor="middle" x="473.5" y="-6.5" font-family="Helvetica,sans-Serif" font-size="10.00">::inputListener</text>
</a>
</g>
</g>
<!-- Node5&#45;&gt;Node6 -->
<g id="edge5_Node000005_Node000006" class="edge">
<title>Node5&#45;&gt;Node6</title>
<g id="a_edge5_Node000005_Node000006"><a xlink:title=" ">
<path fill="none" stroke="#63b8ff" d="M354.55,-16C364.13,-16 373.97,-16 383.7,-16"/>
<polygon fill="#63b8ff" stroke="#63b8ff" points="383.53,-19.5 393.53,-16 383.53,-12.5 383.53,-19.5"/>
</a>
</g>
</g>
</g>
</svg>
