<?xml version="1.0" encoding="UTF-8" standalone="no"?>
<!DOCTYPE svg PUBLIC "-//W3C//DTD SVG 1.1//EN"
 "http://www.w3.org/Graphics/SVG/1.1/DTD/svg11.dtd">
<!-- Generated by graphviz version 12.1.0 (20240811.2233)
 -->
<!-- Title: Engine::Systems::PhysicsSystem::update Pages: 1 -->
<svg width="534pt" height="40pt"
 viewBox="0.00 0.00 534.00 40.00" xmlns="http://www.w3.org/2000/svg" xmlns:xlink="http://www.w3.org/1999/xlink">
<g id="graph0" class="graph" transform="scale(1 1) rotate(0) translate(4 36)">
<title>Engine::Systems::PhysicsSystem::update</title>
<!-- Node1 -->
<g id="Node000001" class="node">
<title>Node1</title>
<g id="a_Node000001"><a xlink:title=" ">
<polygon fill="#999999" stroke="#666666" points="526,-32 393.75,-32 393.75,0 526,0 526,-32"/>
<text text-anchor="start" x="401.75" y="-18.5" font-family="Helvetica,sans-Serif" font-size="10.00">Engine::Systems::Physics</text>
<text text-anchor="middle" x="459.88" y="-6.5" font-family="Helvetica,sans-Serif" font-size="10.00">System::update</text>
</a>
</g>
</g>
<!-- Node2 -->
<g id="Node000002" class="node">
<title>Node2</title>
<g id="a_Node000002"><a xlink:href="classGameManager.html#a5315da76c5b8b7338ec77022547ad03f" target="_top" xlink:title=" ">
<polygon fill="white" stroke="#666666" points="357.75,-26 221.75,-26 221.75,-6 357.75,-6 357.75,-26"/>
<text text-anchor="middle" x="289.75" y="-12.5" font-family="Helvetica,sans-Serif" font-size="10.00">GameManager::gameDemo</text>
</a>
</g>
</g>
<!-- Node1&#45;&gt;Node2 -->
<g id="edge1_Node000001_Node000002" class="edge">
<title>Node1&#45;&gt;Node2</title>
<g id="a_edge1_Node000001_Node000002"><a xlink:title=" ">
<path fill="none" stroke="#63b8ff" d="M382.11,-16C374.06,-16 365.92,-16 357.99,-16"/>
<polygon fill="#63b8ff" stroke="#63b8ff" points="381.88,-19.5 391.88,-16 381.88,-12.5 381.88,-19.5"/>
</a>
</g>
</g>
<!-- Node3 -->
<g id="Node000003" class="node">
<title>Node3</title>
<g id="a_Node000003"><a xlink:href="classGameManager.html#a932e6df46aa4d397f8f5d61f3c137bbd" target="_top" xlink:title=" ">
<polygon fill="white" stroke="#666666" points="185.75,-26 73,-26 73,-6 185.75,-6 185.75,-26"/>
<text text-anchor="middle" x="129.38" y="-12.5" font-family="Helvetica,sans-Serif" font-size="10.00">GameManager::render</text>
</a>
</g>
</g>
<!-- Node2&#45;&gt;Node3 -->
<g id="edge2_Node000002_Node000003" class="edge">
<title>Node2&#45;&gt;Node3</title>
<g id="a_edge2_Node000002_Node000003"><a xlink:title=" ">
<path fill="none" stroke="#63b8ff" d="M210.17,-16C202.06,-16 193.95,-16 186.16,-16"/>
<polygon fill="#63b8ff" stroke="#63b8ff" points="210.07,-19.5 220.07,-16 210.07,-12.5 210.07,-19.5"/>
</a>
</g>
</g>
<!-- Node4 -->
<g id="Node000004" class="node">
<title>Node4</title>
<g id="a_Node000004"><a xlink:href="Client_2src_2main_8cpp.html#ae66f6b31b5ad750f1fe042a706a4e3d4" target="_top" xlink:title=" ">
<polygon fill="white" stroke="#666666" points="37,-26 0,-26 0,-6 37,-6 37,-26"/>
<text text-anchor="middle" x="18.5" y="-12.5" font-family="Helvetica,sans-Serif" font-size="10.00">main</text>
</a>
</g>
</g>
<!-- Node3&#45;&gt;Node4 -->
<g id="edge3_Node000003_Node000004" class="edge">
<title>Node3&#45;&gt;Node4</title>
<g id="a_edge3_Node000003_Node000004"><a xlink:title=" ">
<path fill="none" stroke="#63b8ff" d="M61.39,-16C52.63,-16 44.32,-16 37.46,-16"/>
<polygon fill="#63b8ff" stroke="#63b8ff" points="61.15,-19.5 71.15,-16 61.15,-12.5 61.15,-19.5"/>
</a>
</g>
</g>
</g>
</svg>
