<?xml version="1.0" encoding="UTF-8" standalone="no"?>
<!DOCTYPE svg PUBLIC "-//W3C//DTD SVG 1.1//EN"
 "http://www.w3.org/Graphics/SVG/1.1/DTD/svg11.dtd">
<!-- Generated by graphviz version 12.1.0 (20240811.2233)
 -->
<!-- Title: NetworkClient::sendMessage Pages: 1 -->
<svg width="325pt" height="128pt"
 viewBox="0.00 0.00 325.00 128.00" xmlns="http://www.w3.org/2000/svg" xmlns:xlink="http://www.w3.org/1999/xlink">
<g id="graph0" class="graph" transform="scale(1 1) rotate(0) translate(4 124)">
<title>NetworkClient::sendMessage</title>
<!-- Node1 -->
<g id="Node000001" class="node">
<title>Node1</title>
<g id="a_Node000001"><a xlink:title=" ">
<polygon fill="#999999" stroke="#666666" points="145,-76 0,-76 0,-56 145,-56 145,-76"/>
<text text-anchor="middle" x="72.5" y="-62.5" font-family="Helvetica,sans-Serif" font-size="10.00">NetworkClient::sendMessage</text>
</a>
</g>
</g>
<!-- Node2 -->
<g id="Node000002" class="node">
<title>Node2</title>
<g id="a_Node000002"><a xlink:href="classNetworkClient.html#ad307cf1f5e6ff844ef8c1e106df510f5" target="_top" xlink:title=" ">
<polygon fill="white" stroke="#666666" points="317,-120 181,-120 181,-100 317,-100 317,-120"/>
<text text-anchor="middle" x="249" y="-106.5" font-family="Helvetica,sans-Serif" font-size="10.00">NetworkClient::sendPacket</text>
</a>
</g>
</g>
<!-- Node1&#45;&gt;Node2 -->
<g id="edge1_Node000001_Node000002" class="edge">
<title>Node1&#45;&gt;Node2</title>
<g id="a_edge1_Node000001_Node000002"><a xlink:title=" ">
<path fill="none" stroke="#63b8ff" d="M114.85,-76.43C139,-82.52 169.69,-90.26 195.53,-96.77"/>
<polygon fill="#63b8ff" stroke="#63b8ff" points="194.62,-100.15 205.17,-99.2 196.33,-93.36 194.62,-100.15"/>
</a>
</g>
</g>
<!-- Node3 -->
<g id="Node000003" class="node">
<title>Node3</title>
<g id="a_Node000003"><a xlink:href="classRtypeServer_1_1Protocol.html#ad918184440d6fcb33f231a7173a67399" target="_top" xlink:title=" ">
<polygon fill="white" stroke="#666666" points="305.38,-82 192.62,-82 192.62,-50 305.38,-50 305.38,-82"/>
<text text-anchor="start" x="200.62" y="-68.5" font-family="Helvetica,sans-Serif" font-size="10.00">RtypeServer::Protocol</text>
<text text-anchor="middle" x="249" y="-56.5" font-family="Helvetica,sans-Serif" font-size="10.00">::writeHeader</text>
</a>
</g>
</g>
<!-- Node1&#45;&gt;Node3 -->
<g id="edge2_Node000001_Node000003" class="edge">
<title>Node1&#45;&gt;Node3</title>
<g id="a_edge2_Node000001_Node000003"><a xlink:title=" ">
<path fill="none" stroke="#63b8ff" d="M145.48,-66C157.17,-66 169.24,-66 180.81,-66"/>
<polygon fill="#63b8ff" stroke="#63b8ff" points="180.66,-69.5 190.66,-66 180.66,-62.5 180.66,-69.5"/>
</a>
</g>
</g>
<!-- Node4 -->
<g id="Node000004" class="node">
<title>Node4</title>
<g id="a_Node000004"><a xlink:href="classRtypeServer_1_1Protocol.html#a00e7b5e99f49b6a2c393ccae84f08f98" target="_top" xlink:title=" ">
<polygon fill="white" stroke="#666666" points="305.38,-32 192.62,-32 192.62,0 305.38,0 305.38,-32"/>
<text text-anchor="start" x="200.62" y="-18.5" font-family="Helvetica,sans-Serif" font-size="10.00">RtypeServer::Protocol</text>
<text text-anchor="middle" x="249" y="-6.5" font-family="Helvetica,sans-Serif" font-size="10.00">::writeMessageBody</text>
</a>
</g>
</g>
<!-- Node1&#45;&gt;Node4 -->
<g id="edge3_Node000001_Node000004" class="edge">
<title>Node1&#45;&gt;Node4</title>
<g id="a_edge3_Node000001_Node000004"><a xlink:title=" ">
<path fill="none" stroke="#63b8ff" d="M110.08,-55.52C130.71,-49.61 157.12,-42.04 181.29,-35.11"/>
<polygon fill="#63b8ff" stroke="#63b8ff" points="182.11,-38.52 190.76,-32.4 180.18,-31.79 182.11,-38.52"/>
</a>
</g>
</g>
</g>
</svg>
