<?xml version="1.0" encoding="UTF-8" standalone="no"?>
<!DOCTYPE svg PUBLIC "-//W3C//DTD SVG 1.1//EN"
 "http://www.w3.org/Graphics/SVG/1.1/DTD/svg11.dtd">
<!-- Generated by graphviz version 12.1.0 (20240811.2233)
 -->
<!-- Title: RtypeServer::RoomManager::roomExists Pages: 1 -->
<svg width="467pt" height="62pt"
 viewBox="0.00 0.00 467.00 62.00" xmlns="http://www.w3.org/2000/svg" xmlns:xlink="http://www.w3.org/1999/xlink">
<g id="graph0" class="graph" transform="scale(1 1) rotate(0) translate(4 58)">
<title>RtypeServer::RoomManager::roomExists</title>
<!-- Node1 -->
<g id="Node000001" class="node">
<title>Node1</title>
<g id="a_Node000001"><a xlink:title=" ">
<polygon fill="#999999" stroke="#666666" points="459,-54 318.5,-54 318.5,-22 459,-22 459,-54"/>
<text text-anchor="start" x="326.5" y="-40.5" font-family="Helvetica,sans-Serif" font-size="10.00">RtypeServer::RoomManager</text>
<text text-anchor="middle" x="388.75" y="-28.5" font-family="Helvetica,sans-Serif" font-size="10.00">::roomExists</text>
</a>
</g>
</g>
<!-- Node2 -->
<g id="Node000002" class="node">
<title>Node2</title>
<g id="a_Node000002"><a xlink:href="classRtypeServer_1_1UdpServer.html#a8edbc5c835a5d23856953e06f7877b8d" target="_top" xlink:title=" ">
<polygon fill="white" stroke="#666666" points="123.25,-54 0,-54 0,-22 123.25,-22 123.25,-54"/>
<text text-anchor="start" x="8" y="-40.5" font-family="Helvetica,sans-Serif" font-size="10.00">RtypeServer::UdpServer</text>
<text text-anchor="middle" x="61.62" y="-28.5" font-family="Helvetica,sans-Serif" font-size="10.00">::handle_create_room</text>
</a>
</g>
</g>
<!-- Node1&#45;&gt;Node2 -->
<g id="edge1_Node000001_Node000002" class="edge">
<title>Node1&#45;&gt;Node2</title>
<g id="a_edge1_Node000001_Node000002"><a xlink:title=" ">
<path fill="none" stroke="#63b8ff" d="M306.63,-40.54C298.48,-40.73 290.33,-40.89 282.5,-41 227.73,-41.78 214.02,-41.85 159.25,-41 147.75,-40.82 135.49,-40.52 123.7,-40.18"/>
<polygon fill="#63b8ff" stroke="#63b8ff" points="306.7,-44.04 316.61,-40.3 306.52,-37.05 306.7,-44.04"/>
</a>
</g>
</g>
<!-- Node3 -->
<g id="Node000003" class="node">
<title>Node3</title>
<g id="a_Node000003"><a xlink:href="classRtypeServer_1_1UdpServer.html#ad6474bca80e8ede6d6bbf8ff3524c05e" target="_top" xlink:title=" ">
<polygon fill="white" stroke="#666666" points="282.5,-32 159.25,-32 159.25,0 282.5,0 282.5,-32"/>
<text text-anchor="start" x="167.25" y="-18.5" font-family="Helvetica,sans-Serif" font-size="10.00">RtypeServer::UdpServer</text>
<text text-anchor="middle" x="220.88" y="-6.5" font-family="Helvetica,sans-Serif" font-size="10.00">::handle_join_room</text>
</a>
</g>
</g>
<!-- Node1&#45;&gt;Node3 -->
<g id="edge2_Node000001_Node000003" class="edge">
<title>Node1&#45;&gt;Node3</title>
<g id="a_edge2_Node000001_Node000003"><a xlink:title=" ">
<path fill="none" stroke="#63b8ff" d="M307.22,-27.32C299,-26.23 290.76,-25.14 282.81,-24.08"/>
<polygon fill="#63b8ff" stroke="#63b8ff" points="306.49,-30.75 316.86,-28.6 307.41,-23.81 306.49,-30.75"/>
</a>
</g>
</g>
<!-- Node3&#45;&gt;Node2 -->
<g id="edge3_Node000003_Node000002" class="edge">
<title>Node3&#45;&gt;Node2</title>
<g id="a_edge3_Node000003_Node000002"><a xlink:title=" ">
<path fill="none" stroke="#63b8ff" d="M147.73,-26.09C139.64,-27.23 131.45,-28.37 123.52,-29.48"/>
<polygon fill="#63b8ff" stroke="#63b8ff" points="148.16,-29.57 157.58,-24.72 147.19,-22.63 148.16,-29.57"/>
</a>
</g>
</g>
</g>
</svg>
