<?xml version="1.0" encoding="UTF-8" standalone="no"?>
<!DOCTYPE svg PUBLIC "-//W3C//DTD SVG 1.1//EN"
 "http://www.w3.org/Graphics/SVG/1.1/DTD/svg11.dtd">
<!-- Generated by graphviz version 12.1.0 (20240811.2233)
 -->
<!-- Title: GameManager::updatePositions Pages: 1 -->
<svg width="351pt" height="128pt"
 viewBox="0.00 0.00 351.25 128.00" xmlns="http://www.w3.org/2000/svg" xmlns:xlink="http://www.w3.org/1999/xlink">
<g id="graph0" class="graph" transform="scale(1 1) rotate(0) translate(4 124)">
<title>GameManager::updatePositions</title>
<!-- Node1 -->
<g id="Node000001" class="node">
<title>Node1</title>
<g id="a_Node000001"><a xlink:title=" ">
<polygon fill="#999999" stroke="#666666" points="155.5,-76 0,-76 0,-56 155.5,-56 155.5,-76"/>
<text text-anchor="middle" x="77.75" y="-62.5" font-family="Helvetica,sans-Serif" font-size="10.00">GameManager::updatePositions</text>
</a>
</g>
</g>
<!-- Node2 -->
<g id="Node000002" class="node">
<title>Node2</title>
<g id="a_Node000002"><a xlink:href="classButton.html#ac28684e1eb644f7121492812f5e83471" target="_top" xlink:title=" ">
<polygon fill="white" stroke="#666666" points="343.25,-120 191.5,-120 191.5,-100 343.25,-100 343.25,-120"/>
<text text-anchor="middle" x="267.38" y="-106.5" font-family="Helvetica,sans-Serif" font-size="10.00">Button::updatePositionAndSize</text>
</a>
</g>
</g>
<!-- Node1&#45;&gt;Node2 -->
<g id="edge1_Node000001_Node000002" class="edge">
<title>Node1&#45;&gt;Node2</title>
<g id="a_edge1_Node000001_Node000002"><a xlink:title=" ">
<path fill="none" stroke="#63b8ff" d="M123.21,-76.43C149.41,-82.57 182.77,-90.39 210.7,-96.94"/>
<polygon fill="#63b8ff" stroke="#63b8ff" points="209.9,-100.35 220.43,-99.23 211.49,-93.53 209.9,-100.35"/>
</a>
</g>
</g>
<!-- Node3 -->
<g id="Node000003" class="node">
<title>Node3</title>
<g id="a_Node000003"><a xlink:href="classParamButton.html#a26d084094df8af9988e99861e713f561" target="_top" xlink:title=" ">
<polygon fill="white" stroke="#666666" points="339.12,-82 195.62,-82 195.62,-50 339.12,-50 339.12,-82"/>
<text text-anchor="start" x="203.62" y="-68.5" font-family="Helvetica,sans-Serif" font-size="10.00">ParamButton::updatePosition</text>
<text text-anchor="middle" x="267.38" y="-56.5" font-family="Helvetica,sans-Serif" font-size="10.00">AndSize</text>
</a>
</g>
</g>
<!-- Node1&#45;&gt;Node3 -->
<g id="edge2_Node000001_Node000003" class="edge">
<title>Node1&#45;&gt;Node3</title>
<g id="a_edge2_Node000001_Node000003"><a xlink:title=" ">
<path fill="none" stroke="#63b8ff" d="M155.88,-66C165.15,-66 174.64,-66 183.98,-66"/>
<polygon fill="#63b8ff" stroke="#63b8ff" points="183.76,-69.5 193.76,-66 183.76,-62.5 183.76,-69.5"/>
</a>
</g>
</g>
<!-- Node4 -->
<g id="Node000004" class="node">
<title>Node4</title>
<g id="a_Node000004"><a xlink:href="classUsername.html#ab81195cabb31c518dc87c3e18c5991d0" target="_top" xlink:title=" ">
<polygon fill="white" stroke="#666666" points="333.12,-32 201.62,-32 201.62,0 333.12,0 333.12,-32"/>
<text text-anchor="start" x="209.62" y="-18.5" font-family="Helvetica,sans-Serif" font-size="10.00">Username::updatePosition</text>
<text text-anchor="middle" x="267.38" y="-6.5" font-family="Helvetica,sans-Serif" font-size="10.00">AndSize</text>
</a>
</g>
</g>
<!-- Node1&#45;&gt;Node4 -->
<g id="edge3_Node000001_Node000004" class="edge">
<title>Node1&#45;&gt;Node4</title>
<g id="a_edge3_Node000001_Node000004"><a xlink:title=" ">
<path fill="none" stroke="#63b8ff" d="M118.08,-55.52C139.99,-49.68 167.96,-42.23 193.7,-35.37"/>
<polygon fill="#63b8ff" stroke="#63b8ff" points="194.34,-38.82 203.1,-32.86 192.54,-32.05 194.34,-38.82"/>
</a>
</g>
</g>
</g>
</svg>
