<?xml version="1.0" encoding="UTF-8" standalone="no"?>
<!DOCTYPE svg PUBLIC "-//W3C//DTD SVG 1.1//EN"
 "http://www.w3.org/Graphics/SVG/1.1/DTD/svg11.dtd">
<!-- Generated by graphviz version 12.1.0 (20240811.2233)
 -->
<!-- Title: ControlsConfig::loadResources Pages: 1 -->
<svg width="523pt" height="78pt"
 viewBox="0.00 0.00 523.25 78.00" xmlns="http://www.w3.org/2000/svg" xmlns:xlink="http://www.w3.org/1999/xlink">
<g id="graph0" class="graph" transform="scale(1 1) rotate(0) translate(4 74)">
<title>ControlsConfig::loadResources</title>
<!-- Node1 -->
<g id="Node000001" class="node">
<title>Node1</title>
<g id="a_Node000001"><a xlink:title=" ">
<polygon fill="#999999" stroke="#666666" points="152.5,-48 0,-48 0,-28 152.5,-28 152.5,-48"/>
<text text-anchor="middle" x="76.25" y="-34.5" font-family="Helvetica,sans-Serif" font-size="10.00">ControlsConfig::loadResources</text>
</a>
</g>
</g>
<!-- Node2 -->
<g id="Node000002" class="node">
<title>Node2</title>
<g id="a_Node000002"><a xlink:href="classControlsConfig.html#a19d45c2752ac1653237de9314510ebc2" target="_top" xlink:title=" ">
<polygon fill="white" stroke="#666666" points="331.25,-54 188.5,-54 188.5,-22 331.25,-22 331.25,-54"/>
<text text-anchor="start" x="196.5" y="-40.5" font-family="Helvetica,sans-Serif" font-size="10.00">ControlsConfig::setupControl</text>
<text text-anchor="middle" x="259.88" y="-28.5" font-family="Helvetica,sans-Serif" font-size="10.00">Settings</text>
</a>
</g>
</g>
<!-- Node1&#45;&gt;Node2 -->
<g id="edge1_Node000001_Node000002" class="edge">
<title>Node1&#45;&gt;Node2</title>
<g id="a_edge1_Node000001_Node000002"><a xlink:title=" ">
<path fill="none" stroke="#63b8ff" d="M152.96,-38C160.81,-38 168.81,-38 176.72,-38"/>
<polygon fill="#63b8ff" stroke="#63b8ff" points="176.71,-41.5 186.71,-38 176.71,-34.5 176.71,-41.5"/>
</a>
</g>
</g>
<!-- Node3 -->
<g id="Node000003" class="node">
<title>Node3</title>
<g id="a_Node000003"><a xlink:href="classControlsConfig.html#a98c32bfcca7b184b230394e79bdac59e" target="_top" xlink:title=" ">
<polygon fill="white" stroke="#666666" points="513.38,-70 369.12,-70 369.12,-50 513.38,-50 513.38,-70"/>
<text text-anchor="middle" x="441.25" y="-56.5" font-family="Helvetica,sans-Serif" font-size="10.00">ControlsConfig::getKeyName</text>
</a>
</g>
</g>
<!-- Node2&#45;&gt;Node3 -->
<g id="edge2_Node000002_Node000003" class="edge">
<title>Node2&#45;&gt;Node3</title>
<g id="a_edge2_Node000002_Node000003"><a xlink:title=" ">
<path fill="none" stroke="#63b8ff" d="M331.51,-46.66C340.03,-47.71 348.79,-48.78 357.47,-49.85"/>
<polygon fill="#63b8ff" stroke="#63b8ff" points="356.94,-53.31 367.29,-51.05 357.79,-46.36 356.94,-53.31"/>
</a>
</g>
</g>
<!-- Node4 -->
<g id="Node000004" class="node">
<title>Node4</title>
<g id="a_Node000004"><a xlink:href="classControlsConfig.html#a5d7aa2d264ab4f3dfeb428e81e6c2f82" target="_top" xlink:title=" ">
<polygon fill="white" stroke="#666666" points="515.25,-32 367.25,-32 367.25,0 515.25,0 515.25,-32"/>
<text text-anchor="start" x="375.25" y="-18.5" font-family="Helvetica,sans-Serif" font-size="10.00">ControlsConfig::updateControl</text>
<text text-anchor="middle" x="441.25" y="-6.5" font-family="Helvetica,sans-Serif" font-size="10.00">SettingsPositions</text>
</a>
</g>
</g>
<!-- Node2&#45;&gt;Node4 -->
<g id="edge3_Node000002_Node000004" class="edge">
<title>Node2&#45;&gt;Node4</title>
<g id="a_edge3_Node000002_Node000004"><a xlink:title=" ">
<path fill="none" stroke="#63b8ff" d="M331.51,-29.34C339.44,-28.36 347.58,-27.37 355.66,-26.37"/>
<polygon fill="#63b8ff" stroke="#63b8ff" points="356.02,-29.86 365.52,-25.17 355.17,-22.91 356.02,-29.86"/>
</a>
</g>
</g>
</g>
</svg>
