<?xml version="1.0" encoding="UTF-8" standalone="no"?>
<!DOCTYPE svg PUBLIC "-//W3C//DTD SVG 1.1//EN"
 "http://www.w3.org/Graphics/SVG/1.1/DTD/svg11.dtd">
<!-- Generated by graphviz version 12.1.0 (20240811.2233)
 -->
<!-- Title: GameManager::handleMouseClick Pages: 1 -->
<svg width="983pt" height="892pt"
 viewBox="0.00 0.00 982.75 892.00" xmlns="http://www.w3.org/2000/svg" xmlns:xlink="http://www.w3.org/1999/xlink">
<g id="graph0" class="graph" transform="scale(1 1) rotate(0) translate(4 888)">
<title>GameManager::handleMouseClick</title>
<!-- Node1 -->
<g id="Node000001" class="node">
<title>Node1</title>
<g id="a_Node000001"><a xlink:title=" ">
<polygon fill="#999999" stroke="#666666" points="143.5,-296 0,-296 0,-264 143.5,-264 143.5,-296"/>
<text text-anchor="start" x="8" y="-282.5" font-family="Helvetica,sans-Serif" font-size="10.00">GameManager::handleMouse</text>
<text text-anchor="middle" x="71.75" y="-270.5" font-family="Helvetica,sans-Serif" font-size="10.00">Click</text>
</a>
</g>
</g>
<!-- Node2 -->
<g id="Node000002" class="node">
<title>Node2</title>
<g id="a_Node000002"><a xlink:href="classGameManager.html#a948792a1ef6f0a0c8c21fae779c4b525" target="_top" xlink:title=" ">
<polygon fill="white" stroke="#666666" points="339.12,-639 197.88,-639 197.88,-607 339.12,-607 339.12,-639"/>
<text text-anchor="start" x="205.88" y="-625.5" font-family="Helvetica,sans-Serif" font-size="10.00">GameManager::applyCurrent</text>
<text text-anchor="middle" x="268.5" y="-613.5" font-family="Helvetica,sans-Serif" font-size="10.00">Resolution</text>
</a>
</g>
</g>
<!-- Node1&#45;&gt;Node2 -->
<g id="edge1_Node000001_Node000002" class="edge">
<title>Node1&#45;&gt;Node2</title>
<g id="a_edge1_Node000001_Node000002"><a xlink:title=" ">
<path fill="none" stroke="#63b8ff" d="M75.97,-296.21C85.46,-340.84 116.64,-467.83 179.5,-553 193.29,-571.69 213.27,-588.12 230.71,-600.36"/>
<polygon fill="#63b8ff" stroke="#63b8ff" points="228.58,-603.15 238.82,-605.87 232.51,-597.36 228.58,-603.15"/>
</a>
</g>
</g>
<!-- Node12 -->
<g id="Node000012" class="node">
<title>Node12</title>
<g id="a_Node000012"><a xlink:href="classGameManager.html#aa0ef44b3392b1d25e06302865070d283" target="_top" xlink:title=" ">
<polygon fill="white" stroke="#666666" points="762.62,-568 619.12,-568 619.12,-536 762.62,-536 762.62,-568"/>
<text text-anchor="start" x="627.12" y="-554.5" font-family="Helvetica,sans-Serif" font-size="10.00">GameManager::updateStatus</text>
<text text-anchor="middle" x="690.88" y="-542.5" font-family="Helvetica,sans-Serif" font-size="10.00">TextPosition</text>
</a>
</g>
</g>
<!-- Node1&#45;&gt;Node12 -->
<g id="edge51_Node000001_Node000012" class="edge">
<title>Node1&#45;&gt;Node12</title>
<g id="a_edge51_Node000001_Node000012"><a xlink:title=" ">
<path fill="none" stroke="#63b8ff" d="M84.01,-296.48C101.69,-321.24 138.23,-368.11 179.5,-396 329.29,-497.24 394.15,-467.16 568.5,-515 584.76,-519.46 588.4,-521.96 604.5,-527 610.21,-528.79 616.15,-530.61 622.12,-532.41"/>
<polygon fill="#63b8ff" stroke="#63b8ff" points="620.81,-535.67 631.39,-535.18 622.81,-528.96 620.81,-535.67"/>
</a>
</g>
</g>
<!-- Node20 -->
<g id="Node000020" class="node">
<title>Node20</title>
<g id="a_Node000020"><a xlink:href="classGameManager.html#accd6989268bea90e6d9ec2800b3b6a8f" target="_top" xlink:title=" ">
<polygon fill="white" stroke="#666666" points="348.12,-387 188.88,-387 188.88,-367 348.12,-367 348.12,-387"/>
<text text-anchor="middle" x="268.5" y="-373.5" font-family="Helvetica,sans-Serif" font-size="10.00">GameManager::connectToServer</text>
</a>
</g>
</g>
<!-- Node1&#45;&gt;Node20 -->
<g id="edge20_Node000001_Node000020" class="edge">
<title>Node1&#45;&gt;Node20</title>
<g id="a_edge20_Node000001_Node000020"><a xlink:title=" ">
<path fill="none" stroke="#63b8ff" d="M97.98,-296.49C119.21,-309.98 150.64,-329.03 179.5,-343 194.45,-350.24 211.36,-357.07 226.33,-362.69"/>
<polygon fill="#63b8ff" stroke="#63b8ff" points="224.82,-365.87 235.42,-366.04 227.24,-359.3 224.82,-365.87"/>
</a>
</g>
</g>
<!-- Node28 -->
<g id="Node000028" class="node">
<title>Node28</title>
<g id="a_Node000028"><a xlink:href="classGameManager.html#ac2ac55880dc9315aa67b2f142647efbb" target="_top" xlink:title=" ">
<polygon fill="white" stroke="#666666" points="357.5,-334 179.5,-334 179.5,-314 357.5,-314 357.5,-334"/>
<text text-anchor="middle" x="268.5" y="-320.5" font-family="Helvetica,sans-Serif" font-size="10.00">GameManager::cycleColorBlindMode</text>
</a>
</g>
</g>
<!-- Node1&#45;&gt;Node28 -->
<g id="edge28_Node000001_Node000028" class="edge">
<title>Node1&#45;&gt;Node28</title>
<g id="a_edge28_Node000001_Node000028"><a xlink:title=" ">
<path fill="none" stroke="#63b8ff" d="M142.19,-296.45C154.61,-299.34 167.43,-302.28 179.5,-305 188.5,-307.02 198.02,-309.13 207.35,-311.16"/>
<polygon fill="#63b8ff" stroke="#63b8ff" points="206.6,-314.58 217.11,-313.28 208.08,-307.74 206.6,-314.58"/>
</a>
</g>
</g>
<!-- Node32 -->
<g id="Node000032" class="node">
<title>Node32</title>
<g id="a_Node000032"><a xlink:href="classGameManager.html#a58db496b49ed75ce83edb44b9581ae64" target="_top" xlink:title=" ">
<polygon fill="white" stroke="#666666" points="351.5,-723 185.5,-723 185.5,-703 351.5,-703 351.5,-723"/>
<text text-anchor="middle" x="268.5" y="-709.5" font-family="Helvetica,sans-Serif" font-size="10.00">GameManager::cycleDisplayMode</text>
</a>
</g>
</g>
<!-- Node1&#45;&gt;Node32 -->
<g id="edge32_Node000001_Node000032" class="edge">
<title>Node1&#45;&gt;Node32</title>
<g id="a_edge32_Node000001_Node000032"><a xlink:title=" ">
<path fill="none" stroke="#63b8ff" d="M73.8,-296.26C78.02,-350.85 97.75,-530.65 179.5,-648 194.04,-668.87 217.45,-685.7 236.47,-696.99"/>
<polygon fill="#63b8ff" stroke="#63b8ff" points="234.49,-699.89 244.91,-701.79 237.95,-693.81 234.49,-699.89"/>
</a>
</g>
</g>
<!-- Node35 -->
<g id="Node000035" class="node">
<title>Node35</title>
<g id="a_Node000035"><a xlink:href="classGameManager.html#a47a393a719eaf10a709a0a0cc28899d7" target="_top" xlink:title=" ">
<polygon fill="white" stroke="#666666" points="342.5,-296 194.5,-296 194.5,-264 342.5,-264 342.5,-296"/>
<text text-anchor="start" x="202.5" y="-282.5" font-family="Helvetica,sans-Serif" font-size="10.00">GameManager::cycleGraphics</text>
<text text-anchor="middle" x="268.5" y="-270.5" font-family="Helvetica,sans-Serif" font-size="10.00">Quality</text>
</a>
</g>
</g>
<!-- Node1&#45;&gt;Node35 -->
<g id="edge36_Node000001_Node000035" class="edge">
<title>Node1&#45;&gt;Node35</title>
<g id="a_edge36_Node000001_Node000035"><a xlink:title=" ">
<path fill="none" stroke="#63b8ff" d="M143.89,-280C156.58,-280 169.91,-280 182.93,-280"/>
<polygon fill="#63b8ff" stroke="#63b8ff" points="182.76,-283.5 192.76,-280 182.76,-276.5 182.76,-283.5"/>
</a>
</g>
</g>
<!-- Node40 -->
<g id="Node000040" class="node">
<title>Node40</title>
<g id="a_Node000040"><a xlink:href="classGameManager.html#aadc216c110deaa25eb19de55f8a1056a" target="_top" xlink:title=" ">
<polygon fill="white" stroke="#666666" points="346.25,-544 190.75,-544 190.75,-524 346.25,-524 346.25,-544"/>
<text text-anchor="middle" x="268.5" y="-530.5" font-family="Helvetica,sans-Serif" font-size="10.00">GameManager::cycleResolution</text>
</a>
</g>
</g>
<!-- Node1&#45;&gt;Node40 -->
<g id="edge41_Node000001_Node000040" class="edge">
<title>Node1&#45;&gt;Node40</title>
<g id="a_edge41_Node000001_Node000040"><a xlink:title=" ">
<path fill="none" stroke="#63b8ff" d="M75.45,-296.2C83.31,-338.22 110.21,-451.49 179.5,-510 183.59,-513.46 188.14,-516.42 192.96,-518.96"/>
<polygon fill="#63b8ff" stroke="#63b8ff" points="191.22,-522.01 201.77,-522.97 194.12,-515.64 191.22,-522.01"/>
</a>
</g>
</g>
<!-- Node43 -->
<g id="Node000043" class="node">
<title>Node43</title>
<g id="a_Node000043"><a xlink:href="classGameManager.html#abaddb74d389261f0af8dfe96391319b0" target="_top" xlink:title=" ">
<polygon fill="white" stroke="#666666" points="350.75,-246 186.25,-246 186.25,-214 350.75,-214 350.75,-246"/>
<text text-anchor="start" x="194.25" y="-232.5" font-family="Helvetica,sans-Serif" font-size="10.00">GameManager::getWaitingPlayers</text>
<text text-anchor="middle" x="268.5" y="-220.5" font-family="Helvetica,sans-Serif" font-size="10.00">Count</text>
</a>
</g>
</g>
<!-- Node1&#45;&gt;Node43 -->
<g id="edge45_Node000001_Node000043" class="edge">
<title>Node1&#45;&gt;Node43</title>
<g id="a_edge45_Node000001_Node000043"><a xlink:title=" ">
<path fill="none" stroke="#63b8ff" d="M136.79,-263.56C154.59,-258.99 174.08,-253.98 192.46,-249.27"/>
<polygon fill="#63b8ff" stroke="#63b8ff" points="193.14,-252.7 201.96,-246.83 191.4,-245.92 193.14,-252.7"/>
</a>
</g>
</g>
<!-- Node44 -->
<g id="Node000044" class="node">
<title>Node44</title>
<g id="a_Node000044"><a xlink:href="classButton.html#aaeb4f984d04352c089537dc7ca4c9631" target="_top" xlink:title=" ">
<polygon fill="white" stroke="#666666" points="314,-196 223,-196 223,-176 314,-176 314,-196"/>
<text text-anchor="middle" x="268.5" y="-182.5" font-family="Helvetica,sans-Serif" font-size="10.00">Button::isClicked</text>
</a>
</g>
</g>
<!-- Node1&#45;&gt;Node44 -->
<g id="edge46_Node000001_Node000044" class="edge">
<title>Node1&#45;&gt;Node44</title>
<g id="a_edge46_Node000001_Node000044"><a xlink:title=" ">
<path fill="none" stroke="#63b8ff" d="M91.02,-263.67C111.23,-246.48 145.47,-219.89 179.5,-205 189.49,-200.63 200.57,-197.23 211.4,-194.59"/>
<polygon fill="#63b8ff" stroke="#63b8ff" points="212.07,-198.03 221.07,-192.45 210.55,-191.2 212.07,-198.03"/>
</a>
</g>
</g>
<!-- Node45 -->
<g id="Node000045" class="node">
<title>Node45</title>
<g id="a_Node000045"><a xlink:href="classParamButton.html#ad6c1a9d8474f6c27ac61fb6025e221fc" target="_top" xlink:title=" ">
<polygon fill="white" stroke="#666666" points="328.25,-158 208.75,-158 208.75,-138 328.25,-138 328.25,-158"/>
<text text-anchor="middle" x="268.5" y="-144.5" font-family="Helvetica,sans-Serif" font-size="10.00">ParamButton::isClicked</text>
</a>
</g>
</g>
<!-- Node1&#45;&gt;Node45 -->
<g id="edge47_Node000001_Node000045" class="edge">
<title>Node1&#45;&gt;Node45</title>
<g id="a_edge47_Node000001_Node000045"><a xlink:title=" ">
<path fill="none" stroke="#63b8ff" d="M83.34,-263.59C100.41,-238.57 136.48,-191.25 179.5,-167 185.17,-163.8 191.32,-161.15 197.65,-158.93"/>
<polygon fill="#63b8ff" stroke="#63b8ff" points="198.45,-162.35 206.97,-156.06 196.38,-155.66 198.45,-162.35"/>
</a>
</g>
</g>
<!-- Node46 -->
<g id="Node000046" class="node">
<title>Node46</title>
<g id="a_Node000046"><a xlink:href="classUsername.html#aa9e457c265174166f972744f5b6a9e96" target="_top" xlink:title=" ">
<polygon fill="white" stroke="#666666" points="322.25,-120 214.75,-120 214.75,-100 322.25,-100 322.25,-120"/>
<text text-anchor="middle" x="268.5" y="-106.5" font-family="Helvetica,sans-Serif" font-size="10.00">Username::isClicked</text>
</a>
</g>
</g>
<!-- Node1&#45;&gt;Node46 -->
<g id="edge48_Node000001_Node000046" class="edge">
<title>Node1&#45;&gt;Node46</title>
<g id="a_edge48_Node000001_Node000046"><a xlink:title=" ">
<path fill="none" stroke="#63b8ff" d="M79.36,-263.76C93.03,-232.35 127.54,-163.34 179.5,-129 186.83,-124.15 195.19,-120.52 203.78,-117.8"/>
<polygon fill="#63b8ff" stroke="#63b8ff" points="204.51,-121.22 213.24,-115.22 202.67,-114.47 204.51,-121.22"/>
</a>
</g>
</g>
<!-- Node47 -->
<g id="Node000047" class="node">
<title>Node47</title>
<g id="a_Node000047"><a xlink:href="classParamButton.html#a40d938e4e1048b6a85e73926f9eb258e" target="_top" xlink:title=" ">
<polygon fill="white" stroke="#666666" points="335.38,-82 201.62,-82 201.62,-50 335.38,-50 335.38,-82"/>
<text text-anchor="start" x="209.62" y="-68.5" font-family="Helvetica,sans-Serif" font-size="10.00">ParamButton::isVolumeBar</text>
<text text-anchor="middle" x="268.5" y="-56.5" font-family="Helvetica,sans-Serif" font-size="10.00">Clicked</text>
</a>
</g>
</g>
<!-- Node1&#45;&gt;Node47 -->
<g id="edge49_Node000001_Node000047" class="edge">
<title>Node1&#45;&gt;Node47</title>
<g id="a_edge49_Node000001_Node000047"><a xlink:title=" ">
<path fill="none" stroke="#63b8ff" d="M77.34,-263.52C88.43,-226.75 120.27,-137.61 179.5,-91 183.05,-88.21 186.9,-85.73 190.93,-83.52"/>
<polygon fill="#63b8ff" stroke="#63b8ff" points="192.39,-86.7 199.91,-79.25 189.38,-80.38 192.39,-86.7"/>
</a>
</g>
</g>
<!-- Node48 -->
<g id="Node000048" class="node">
<title>Node48</title>
<g id="a_Node000048"><a xlink:href="classParamButton.html#a016f47d14d74feeec0eac5d881c77d60" target="_top" xlink:title=" ">
<polygon fill="white" stroke="#666666" points="342.12,-32 194.88,-32 194.88,0 342.12,0 342.12,-32"/>
<text text-anchor="start" x="202.88" y="-18.5" font-family="Helvetica,sans-Serif" font-size="10.00">ParamButton::setVolumeFrom</text>
<text text-anchor="middle" x="268.5" y="-6.5" font-family="Helvetica,sans-Serif" font-size="10.00">Mouse</text>
</a>
</g>
</g>
<!-- Node1&#45;&gt;Node48 -->
<g id="edge50_Node000001_Node000048" class="edge">
<title>Node1&#45;&gt;Node48</title>
<g id="a_edge50_Node000001_Node000048"><a xlink:title=" ">
<path fill="none" stroke="#63b8ff" d="M75.22,-263.54C82.61,-220.27 108.56,-102.44 179.5,-41 181.21,-39.52 183,-38.12 184.86,-36.81"/>
<polygon fill="#63b8ff" stroke="#63b8ff" points="186.6,-39.85 193.37,-31.7 183,-33.85 186.6,-39.85"/>
</a>
</g>
</g>
<!-- Node3 -->
<g id="Node000003" class="node">
<title>Node3</title>
<g id="a_Node000003"><a xlink:href="classParameters.html#a0cd03e2bf5323f95c2d64ca8472e019b" target="_top" xlink:title=" ">
<polygon fill="white" stroke="#666666" points="568.5,-723 393.5,-723 393.5,-703 568.5,-703 568.5,-723"/>
<text text-anchor="middle" x="481" y="-709.5" font-family="Helvetica,sans-Serif" font-size="10.00">Parameters::getCurrentDisplayMode</text>
</a>
</g>
</g>
<!-- Node2&#45;&gt;Node3 -->
<g id="edge2_Node000002_Node000003" class="edge">
<title>Node2&#45;&gt;Node3</title>
<g id="a_edge2_Node000002_Node000003"><a xlink:title=" ">
<path fill="none" stroke="#63b8ff" d="M293.11,-639.44C317.29,-655.55 356.47,-679.72 393.5,-694 398.83,-696.06 404.44,-697.92 410.13,-699.59"/>
<polygon fill="#63b8ff" stroke="#63b8ff" points="409.1,-702.94 419.67,-702.2 410.94,-696.19 409.1,-702.94"/>
</a>
</g>
</g>
<!-- Node4 -->
<g id="Node000004" class="node">
<title>Node4</title>
<g id="a_Node000004"><a xlink:href="classParameters.html#a679561c2f5dfe92294135e7bcf71f531" target="_top" xlink:title=" ">
<polygon fill="white" stroke="#666666" points="563.25,-591 398.75,-591 398.75,-571 563.25,-571 563.25,-591"/>
<text text-anchor="middle" x="481" y="-577.5" font-family="Helvetica,sans-Serif" font-size="10.00">Parameters::getCurrentResolution</text>
</a>
</g>
</g>
<!-- Node2&#45;&gt;Node4 -->
<g id="edge3_Node000002_Node000004" class="edge">
<title>Node2&#45;&gt;Node4</title>
<g id="a_edge3_Node000002_Node000004"><a xlink:title=" ">
<path fill="none" stroke="#63b8ff" d="M339.59,-609.01C364.37,-604.07 392.09,-598.54 416.31,-593.71"/>
<polygon fill="#63b8ff" stroke="#63b8ff" points="416.92,-597.16 426.04,-591.77 415.55,-590.29 416.92,-597.16"/>
</a>
</g>
</g>
<!-- Node5 -->
<g id="Node000005" class="node">
<title>Node5</title>
<g id="a_Node000005"><a xlink:href="classParameters.html#aed7adcc0e919f1d76e4880fe49f99220" target="_top" xlink:title=" ">
<polygon fill="white" stroke="#666666" points="556.88,-633 405.12,-633 405.12,-613 556.88,-613 556.88,-633"/>
<text text-anchor="middle" x="481" y="-619.5" font-family="Helvetica,sans-Serif" font-size="10.00">Parameters::getResolutionSize</text>
</a>
</g>
</g>
<!-- Node2&#45;&gt;Node5 -->
<g id="edge4_Node000002_Node000005" class="edge">
<title>Node2&#45;&gt;Node5</title>
<g id="a_edge4_Node000002_Node000005"><a xlink:title=" ">
<path fill="none" stroke="#63b8ff" d="M339.59,-623C356.84,-623 375.52,-623 393.45,-623"/>
<polygon fill="#63b8ff" stroke="#63b8ff" points="393.28,-626.5 403.28,-623 393.28,-619.5 393.28,-626.5"/>
</a>
</g>
</g>
<!-- Node6 -->
<g id="Node000006" class="node">
<title>Node6</title>
<g id="a_Node000006"><a xlink:href="classGameManager.html#a0a220f16a3e2d31baa08c03bec5c88b6" target="_top" xlink:title=" ">
<polygon fill="white" stroke="#666666" points="555.75,-685 406.25,-685 406.25,-653 555.75,-653 555.75,-685"/>
<text text-anchor="start" x="414.25" y="-671.5" font-family="Helvetica,sans-Serif" font-size="10.00">GameManager::handleWindow</text>
<text text-anchor="middle" x="481" y="-659.5" font-family="Helvetica,sans-Serif" font-size="10.00">Resize</text>
</a>
</g>
</g>
<!-- Node2&#45;&gt;Node6 -->
<g id="edge5_Node000002_Node000006" class="edge">
<title>Node2&#45;&gt;Node6</title>
<g id="a_edge5_Node000002_Node000006"><a xlink:title=" ">
<path fill="none" stroke="#63b8ff" d="M339.59,-638.32C357.31,-642.19 376.52,-646.39 394.88,-650.4"/>
<polygon fill="#63b8ff" stroke="#63b8ff" points="393.89,-653.76 404.4,-652.48 395.38,-646.93 393.89,-653.76"/>
</a>
</g>
</g>
<!-- Node7 -->
<g id="Node000007" class="node">
<title>Node7</title>
<g id="a_Node000007"><a xlink:href="classParamButton.html#a8d13151ad6cbd6c9e40af00f97782368" target="_top" xlink:title=" ">
<polygon fill="white" stroke="#666666" points="766,-720 615.75,-720 615.75,-700 766,-700 766,-720"/>
<text text-anchor="middle" x="690.88" y="-706.5" font-family="Helvetica,sans-Serif" font-size="10.00">ParamButton::setupVolumeBar</text>
</a>
</g>
</g>
<!-- Node6&#45;&gt;Node7 -->
<g id="edge6_Node000006_Node000007" class="edge">
<title>Node6&#45;&gt;Node7</title>
<g id="a_edge6_Node000006_Node000007"><a xlink:title=" ">
<path fill="none" stroke="#63b8ff" d="M556.17,-683.63C578.9,-688.11 603.72,-693.01 625.73,-697.35"/>
<polygon fill="#63b8ff" stroke="#63b8ff" points="624.98,-700.77 635.47,-699.27 626.34,-693.9 624.98,-700.77"/>
</a>
</g>
</g>
<!-- Node8 -->
<g id="Node000008" class="node">
<title>Node8</title>
<g id="a_Node000008"><a xlink:href="classButton.html#ac28684e1eb644f7121492812f5e83471" target="_top" xlink:title=" ">
<polygon fill="white" stroke="#666666" points="969.88,-688 818.12,-688 818.12,-668 969.88,-668 969.88,-688"/>
<text text-anchor="middle" x="894" y="-674.5" font-family="Helvetica,sans-Serif" font-size="10.00">Button::updatePositionAndSize</text>
</a>
</g>
</g>
<!-- Node6&#45;&gt;Node8 -->
<g id="edge7_Node000006_Node000008" class="edge">
<title>Node6&#45;&gt;Node8</title>
<g id="a_edge7_Node000006_Node000008"><a xlink:title=" ">
<path fill="none" stroke="#63b8ff" d="M555.95,-670.62C626.41,-672.16 732.45,-674.48 806.73,-676.11"/>
<polygon fill="#63b8ff" stroke="#63b8ff" points="806.32,-679.6 816.39,-676.32 806.47,-672.6 806.32,-679.6"/>
</a>
</g>
</g>
<!-- Node9 -->
<g id="Node000009" class="node">
<title>Node9</title>
<g id="a_Node000009"><a xlink:href="classGameManager.html#a8e15c786c5c741751d7abf5433f29d75" target="_top" xlink:title=" ">
<polygon fill="white" stroke="#666666" points="768.62,-644 613.12,-644 613.12,-624 768.62,-624 768.62,-644"/>
<text text-anchor="middle" x="690.88" y="-630.5" font-family="Helvetica,sans-Serif" font-size="10.00">GameManager::updatePositions</text>
</a>
</g>
</g>
<!-- Node6&#45;&gt;Node9 -->
<g id="edge8_Node000006_Node000009" class="edge">
<title>Node6&#45;&gt;Node9</title>
<g id="a_edge8_Node000006_Node000009"><a xlink:title=" ">
<path fill="none" stroke="#63b8ff" d="M556.17,-656.51C575.76,-653.21 596.89,-649.66 616.44,-646.36"/>
<polygon fill="#63b8ff" stroke="#63b8ff" points="616.98,-649.82 626.26,-644.71 615.81,-642.92 616.98,-649.82"/>
</a>
</g>
</g>
<!-- Node6&#45;&gt;Node12 -->
<g id="edge12_Node000006_Node000012" class="edge">
<title>Node6&#45;&gt;Node12</title>
<g id="a_edge12_Node000006_Node000012"><a xlink:title=" ">
<path fill="none" stroke="#63b8ff" d="M551.54,-652.69C557.61,-649.71 563.38,-646.17 568.5,-642 594.1,-621.14 578.72,-597.63 604.5,-577 605.99,-575.81 607.54,-574.67 609.13,-573.59"/>
<polygon fill="#63b8ff" stroke="#63b8ff" points="610.56,-576.81 617.4,-568.73 607.01,-570.78 610.56,-576.81"/>
</a>
</g>
</g>
<!-- Node13 -->
<g id="Node000013" class="node">
<title>Node13</title>
<g id="a_Node000013"><a xlink:href="classErrorServer.html#a6a35750672d438e868b805841b1d091a" target="_top" xlink:title=" ">
<polygon fill="white" stroke="#666666" points="768.62,-606 613.12,-606 613.12,-586 768.62,-586 768.62,-606"/>
<text text-anchor="middle" x="690.88" y="-592.5" font-family="Helvetica,sans-Serif" font-size="10.00">ErrorServer::updateWindowSize</text>
</a>
</g>
</g>
<!-- Node6&#45;&gt;Node13 -->
<g id="edge13_Node000006_Node000013" class="edge">
<title>Node6&#45;&gt;Node13</title>
<g id="a_edge13_Node000006_Node000013"><a xlink:title=" ">
<path fill="none" stroke="#63b8ff" d="M543.53,-652.66C552.11,-649.56 560.66,-646.01 568.5,-642 586.3,-632.89 586.33,-623.36 604.5,-615 608.69,-613.07 613.09,-611.33 617.58,-609.77"/>
<polygon fill="#63b8ff" stroke="#63b8ff" points="618.28,-613.22 626.76,-606.87 616.17,-606.54 618.28,-613.22"/>
</a>
</g>
</g>
<!-- Node15 -->
<g id="Node000015" class="node">
<title>Node15</title>
<g id="a_Node000015"><a xlink:href="classLaunch.html#ad8cf1c5a7c0b277a26e9095b6a1c4a38" target="_top" xlink:title=" ">
<polygon fill="white" stroke="#666666" points="759.62,-834 622.12,-834 622.12,-814 759.62,-814 759.62,-834"/>
<text text-anchor="middle" x="690.88" y="-820.5" font-family="Helvetica,sans-Serif" font-size="10.00">Launch::updateWindowSize</text>
</a>
</g>
</g>
<!-- Node6&#45;&gt;Node15 -->
<g id="edge15_Node000006_Node000015" class="edge">
<title>Node6&#45;&gt;Node15</title>
<g id="a_edge15_Node000006_Node000015"><a xlink:title=" ">
<path fill="none" stroke="#63b8ff" d="M556.12,-684.69C560.61,-687.33 564.79,-690.41 568.5,-694 605.76,-730.08 566.13,-770.1 604.5,-805 606.79,-807.08 609.26,-808.96 611.86,-810.64"/>
<polygon fill="#63b8ff" stroke="#63b8ff" points="609.98,-813.6 620.45,-815.21 613.27,-807.42 609.98,-813.6"/>
</a>
</g>
</g>
<!-- Node17 -->
<g id="Node000017" class="node">
<title>Node17</title>
<g id="a_Node000017"><a xlink:href="classParticleSystem.html#a5cf1945d047b8a5c2f636b5af701cc25" target="_top" xlink:title=" ">
<polygon fill="white" stroke="#666666" points="777.25,-796 604.5,-796 604.5,-776 777.25,-776 777.25,-796"/>
<text text-anchor="middle" x="690.88" y="-782.5" font-family="Helvetica,sans-Serif" font-size="10.00">ParticleSystem::updateWindowSize</text>
</a>
</g>
</g>
<!-- Node6&#45;&gt;Node17 -->
<g id="edge17_Node000006_Node000017" class="edge">
<title>Node6&#45;&gt;Node17</title>
<g id="a_edge17_Node000006_Node000017"><a xlink:title=" ">
<path fill="none" stroke="#63b8ff" d="M555.55,-685.32C560.17,-687.82 564.54,-690.69 568.5,-694 596.24,-717.22 576.05,-744.65 604.5,-767 605.84,-768.06 607.23,-769.05 608.66,-770"/>
<polygon fill="#63b8ff" stroke="#63b8ff" points="606.85,-772.99 617.29,-774.77 610.23,-766.87 606.85,-772.99"/>
</a>
</g>
</g>
<!-- Node18 -->
<g id="Node000018" class="node">
<title>Node18</title>
<g id="a_Node000018"><a xlink:href="classPlayer.html#a20c7958b7c482892f0059848e12f7625" target="_top" xlink:title=" ">
<polygon fill="white" stroke="#666666" points="757.75,-758 624,-758 624,-738 757.75,-738 757.75,-758"/>
<text text-anchor="middle" x="690.88" y="-744.5" font-family="Helvetica,sans-Serif" font-size="10.00">Player::updateWindowSize</text>
</a>
</g>
</g>
<!-- Node6&#45;&gt;Node18 -->
<g id="edge18_Node000006_Node000018" class="edge">
<title>Node6&#45;&gt;Node18</title>
<g id="a_edge18_Node000006_Node000018"><a xlink:title=" ">
<path fill="none" stroke="#63b8ff" d="M550.83,-685.47C556.97,-687.95 562.96,-690.78 568.5,-694 587.8,-705.21 584.86,-718.4 604.5,-729 607.71,-730.73 611.06,-732.31 614.51,-733.74"/>
<polygon fill="#63b8ff" stroke="#63b8ff" points="613.07,-736.93 623.66,-737.09 615.48,-730.36 613.07,-736.93"/>
</a>
</g>
</g>
<!-- Node9&#45;&gt;Node8 -->
<g id="edge9_Node000009_Node000008" class="edge">
<title>Node9&#45;&gt;Node8</title>
<g id="a_edge9_Node000009_Node000008"><a xlink:title=" ">
<path fill="none" stroke="#63b8ff" d="M739.79,-644.48C768.02,-650.66 803.96,-658.52 833.93,-665.08"/>
<polygon fill="#63b8ff" stroke="#63b8ff" points="833.1,-668.48 843.62,-667.2 834.6,-661.64 833.1,-668.48"/>
</a>
</g>
</g>
<!-- Node10 -->
<g id="Node000010" class="node">
<title>Node10</title>
<g id="a_Node000010"><a xlink:href="classParamButton.html#a26d084094df8af9988e99861e713f561" target="_top" xlink:title=" ">
<polygon fill="white" stroke="#666666" points="965.75,-600 822.25,-600 822.25,-568 965.75,-568 965.75,-600"/>
<text text-anchor="start" x="830.25" y="-586.5" font-family="Helvetica,sans-Serif" font-size="10.00">ParamButton::updatePosition</text>
<text text-anchor="middle" x="894" y="-574.5" font-family="Helvetica,sans-Serif" font-size="10.00">AndSize</text>
</a>
</g>
</g>
<!-- Node9&#45;&gt;Node10 -->
<g id="edge10_Node000009_Node000010" class="edge">
<title>Node9&#45;&gt;Node10</title>
<g id="a_edge10_Node000009_Node000010"><a xlink:title=" ">
<path fill="none" stroke="#63b8ff" d="M740.72,-623.51C752.69,-620.83 765.45,-617.89 777.25,-615 791.96,-611.39 807.67,-607.33 822.62,-603.36"/>
<polygon fill="#63b8ff" stroke="#63b8ff" points="823.13,-606.85 831.88,-600.89 821.32,-600.09 823.13,-606.85"/>
</a>
</g>
</g>
<!-- Node11 -->
<g id="Node000011" class="node">
<title>Node11</title>
<g id="a_Node000011"><a xlink:href="classUsername.html#ab81195cabb31c518dc87c3e18c5991d0" target="_top" xlink:title=" ">
<polygon fill="white" stroke="#666666" points="959.75,-650 828.25,-650 828.25,-618 959.75,-618 959.75,-650"/>
<text text-anchor="start" x="836.25" y="-636.5" font-family="Helvetica,sans-Serif" font-size="10.00">Username::updatePosition</text>
<text text-anchor="middle" x="894" y="-624.5" font-family="Helvetica,sans-Serif" font-size="10.00">AndSize</text>
</a>
</g>
</g>
<!-- Node9&#45;&gt;Node11 -->
<g id="edge11_Node000009_Node000011" class="edge">
<title>Node9&#45;&gt;Node11</title>
<g id="a_edge11_Node000009_Node000011"><a xlink:title=" ">
<path fill="none" stroke="#63b8ff" d="M769.06,-634C784.66,-634 801.05,-634 816.63,-634"/>
<polygon fill="#63b8ff" stroke="#63b8ff" points="816.28,-637.5 826.28,-634 816.28,-630.5 816.28,-637.5"/>
</a>
</g>
</g>
<!-- Node14 -->
<g id="Node000014" class="node">
<title>Node14</title>
<g id="a_Node000014"><a xlink:href="classErrorServer.html#a404c80b1d4794111a3b3d5a75a67575e" target="_top" xlink:title=" ">
<polygon fill="white" stroke="#666666" points="953.75,-550 834.25,-550 834.25,-530 953.75,-530 953.75,-550"/>
<text text-anchor="middle" x="894" y="-536.5" font-family="Helvetica,sans-Serif" font-size="10.00">ErrorServer::centerLogo</text>
</a>
</g>
</g>
<!-- Node13&#45;&gt;Node14 -->
<g id="edge14_Node000013_Node000014" class="edge">
<title>Node13&#45;&gt;Node14</title>
<g id="a_edge14_Node000013_Node000014"><a xlink:title=" ">
<path fill="none" stroke="#63b8ff" d="M748,-585.57C757.87,-583.15 767.95,-580.3 777.25,-577 794.11,-571.01 796.44,-565.11 813.25,-559 818.85,-556.96 824.75,-555.08 830.71,-553.37"/>
<polygon fill="#63b8ff" stroke="#63b8ff" points="831.24,-556.85 839.97,-550.85 829.4,-550.09 831.24,-556.85"/>
</a>
</g>
</g>
<!-- Node16 -->
<g id="Node000016" class="node">
<title>Node16</title>
<g id="a_Node000016"><a xlink:href="classLaunch.html#ae9147199644338655660e8f6fd0be189" target="_top" xlink:title=" ">
<polygon fill="white" stroke="#666666" points="944.75,-834 843.25,-834 843.25,-814 944.75,-814 944.75,-834"/>
<text text-anchor="middle" x="894" y="-820.5" font-family="Helvetica,sans-Serif" font-size="10.00">Launch::centerLogo</text>
</a>
</g>
</g>
<!-- Node15&#45;&gt;Node16 -->
<g id="edge16_Node000015_Node000016" class="edge">
<title>Node15&#45;&gt;Node16</title>
<g id="a_edge16_Node000015_Node000016"><a xlink:title=" ">
<path fill="none" stroke="#63b8ff" d="M759.97,-824C783.06,-824 808.72,-824 831.29,-824"/>
<polygon fill="#63b8ff" stroke="#63b8ff" points="831.27,-827.5 841.27,-824 831.27,-820.5 831.27,-827.5"/>
</a>
</g>
</g>
<!-- Node19 -->
<g id="Node000019" class="node">
<title>Node19</title>
<g id="a_Node000019"><a xlink:href="classPlayer.html#a16e1b8e2e944502ce79e413606c965df" target="_top" xlink:title=" ">
<polygon fill="white" stroke="#666666" points="945.88,-758 842.12,-758 842.12,-738 945.88,-738 945.88,-758"/>
<text text-anchor="middle" x="894" y="-744.5" font-family="Helvetica,sans-Serif" font-size="10.00">Player::centerImage</text>
</a>
</g>
</g>
<!-- Node18&#45;&gt;Node19 -->
<g id="edge19_Node000018_Node000019" class="edge">
<title>Node18&#45;&gt;Node19</title>
<g id="a_edge19_Node000018_Node000019"><a xlink:title=" ">
<path fill="none" stroke="#63b8ff" d="M758.01,-748C781.32,-748 807.44,-748 830.44,-748"/>
<polygon fill="#63b8ff" stroke="#63b8ff" points="830.3,-751.5 840.3,-748 830.3,-744.5 830.3,-751.5"/>
</a>
</g>
</g>
<!-- Node21 -->
<g id="Node000021" class="node">
<title>Node21</title>
<g id="a_Node000021"><a xlink:href="classEngine_1_1Systems_1_1DevConsole.html#ab2a44d921ed28f1a6a5ba835d93225e6" target="_top" xlink:title=" ">
<polygon fill="white" stroke="#666666" points="556.5,-468 405.5,-468 405.5,-436 556.5,-436 556.5,-468"/>
<text text-anchor="start" x="413.5" y="-454.5" font-family="Helvetica,sans-Serif" font-size="10.00">Engine::Systems::DevConsole</text>
<text text-anchor="middle" x="481" y="-442.5" font-family="Helvetica,sans-Serif" font-size="10.00">::init</text>
</a>
</g>
</g>
<!-- Node20&#45;&gt;Node21 -->
<g id="edge21_Node000020_Node000021" class="edge">
<title>Node20&#45;&gt;Node21</title>
<g id="a_edge21_Node000020_Node000021"><a xlink:title=" ">
<path fill="none" stroke="#63b8ff" d="M293,-387.31C317.74,-397.97 357.95,-414.73 393.5,-427 398.59,-428.76 403.87,-430.49 409.21,-432.18"/>
<polygon fill="#63b8ff" stroke="#63b8ff" points="408.16,-435.52 418.74,-435.13 410.22,-428.83 408.16,-435.52"/>
</a>
</g>
</g>
<!-- Node23 -->
<g id="Node000023" class="node">
<title>Node23</title>
<g id="a_Node000023"><a xlink:href="classEngine_1_1Systems_1_1EnemySystem.html#a3f56472b9d1cbd11d38ed305cd839c5a" target="_top" xlink:title=" ">
<polygon fill="white" stroke="#666666" points="561.75,-418 400.25,-418 400.25,-386 561.75,-386 561.75,-418"/>
<text text-anchor="start" x="408.25" y="-404.5" font-family="Helvetica,sans-Serif" font-size="10.00">Engine::Systems::EnemySystem</text>
<text text-anchor="middle" x="481" y="-392.5" font-family="Helvetica,sans-Serif" font-size="10.00">::init</text>
</a>
</g>
</g>
<!-- Node20&#45;&gt;Node23 -->
<g id="edge23_Node000020_Node000023" class="edge">
<title>Node20&#45;&gt;Node23</title>
<g id="a_edge23_Node000020_Node000023"><a xlink:title=" ">
<path fill="none" stroke="#63b8ff" d="M348.48,-386.38C361.61,-387.94 375.31,-389.57 388.71,-391.16"/>
<polygon fill="#63b8ff" stroke="#63b8ff" points="388.03,-394.6 398.37,-392.31 388.85,-387.65 388.03,-394.6"/>
</a>
</g>
</g>
<!-- Node26 -->
<g id="Node000026" class="node">
<title>Node26</title>
<g id="a_Node000026"><a xlink:href="classEngine_1_1Systems_1_1PlayerControl.html#a34f318711aedbf730d7390125d2f6924" target="_top" xlink:title=" ">
<polygon fill="white" stroke="#666666" points="559.12,-368 402.88,-368 402.88,-336 559.12,-336 559.12,-368"/>
<text text-anchor="start" x="410.88" y="-354.5" font-family="Helvetica,sans-Serif" font-size="10.00">Engine::Systems::PlayerControl</text>
<text text-anchor="middle" x="481" y="-342.5" font-family="Helvetica,sans-Serif" font-size="10.00">::init</text>
</a>
</g>
</g>
<!-- Node20&#45;&gt;Node26 -->
<g id="edge26_Node000020_Node000026" class="edge">
<title>Node20&#45;&gt;Node26</title>
<g id="a_edge26_Node000020_Node000026"><a xlink:title=" ">
<path fill="none" stroke="#63b8ff" d="M348.48,-367.62C362.47,-365.96 377.13,-364.22 391.36,-362.53"/>
<polygon fill="#63b8ff" stroke="#63b8ff" points="391.65,-366.02 401.17,-361.36 390.83,-359.07 391.65,-366.02"/>
</a>
</g>
</g>
<!-- Node22 -->
<g id="Node000022" class="node">
<title>Node22</title>
<g id="a_Node000022"><a xlink:href="classEngine_1_1Systems_1_1DevConsole.html#a975b181348aabc7a9b296fb5b93c7ae8" target="_top" xlink:title=" ">
<polygon fill="white" stroke="#666666" points="766.38,-468 615.38,-468 615.38,-436 766.38,-436 766.38,-468"/>
<text text-anchor="start" x="623.38" y="-454.5" font-family="Helvetica,sans-Serif" font-size="10.00">Engine::Systems::DevConsole</text>
<text text-anchor="middle" x="690.88" y="-442.5" font-family="Helvetica,sans-Serif" font-size="10.00">::treatNewTextInput</text>
</a>
</g>
</g>
<!-- Node21&#45;&gt;Node22 -->
<g id="edge22_Node000021_Node000022" class="edge">
<title>Node21&#45;&gt;Node22</title>
<g id="a_edge22_Node000021_Node000022"><a xlink:title=" ">
<path fill="none" stroke="#63b8ff" d="M556.75,-452C572.02,-452 588.2,-452 603.83,-452"/>
<polygon fill="#63b8ff" stroke="#63b8ff" points="603.57,-455.5 613.57,-452 603.57,-448.5 603.57,-455.5"/>
</a>
</g>
</g>
<!-- Node24 -->
<g id="Node000024" class="node">
<title>Node24</title>
<g id="a_Node000024"><a xlink:href="classEngine_1_1Systems_1_1EnemySystem.html#ad40dc42ba3526d22bbc4735fb4ca7dba" target="_top" xlink:title=" ">
<polygon fill="white" stroke="#666666" points="771.62,-418 610.12,-418 610.12,-386 771.62,-386 771.62,-418"/>
<text text-anchor="start" x="618.12" y="-404.5" font-family="Helvetica,sans-Serif" font-size="10.00">Engine::Systems::EnemySystem</text>
<text text-anchor="middle" x="690.88" y="-392.5" font-family="Helvetica,sans-Serif" font-size="10.00">::handleCollision</text>
</a>
</g>
</g>
<!-- Node23&#45;&gt;Node24 -->
<g id="edge24_Node000023_Node000024" class="edge">
<title>Node23&#45;&gt;Node24</title>
<g id="a_edge24_Node000023_Node000024"><a xlink:title=" ">
<path fill="none" stroke="#63b8ff" d="M562.07,-402C573.95,-402 586.26,-402 598.35,-402"/>
<polygon fill="#63b8ff" stroke="#63b8ff" points="598.33,-405.5 608.33,-402 598.33,-398.5 598.33,-405.5"/>
</a>
</g>
</g>
<!-- Node25 -->
<g id="Node000025" class="node">
<title>Node25</title>
<g id="a_Node000025"><a xlink:href="classEngine_1_1Systems_1_1EnemySystem.html#a60a0336504ab065e4a49cb6e2980770e" target="_top" xlink:title=" ">
<polygon fill="white" stroke="#666666" points="974.75,-418 813.25,-418 813.25,-386 974.75,-386 974.75,-418"/>
<text text-anchor="start" x="821.25" y="-404.5" font-family="Helvetica,sans-Serif" font-size="10.00">Engine::Systems::EnemySystem</text>
<text text-anchor="middle" x="894" y="-392.5" font-family="Helvetica,sans-Serif" font-size="10.00">::damageEnemy</text>
</a>
</g>
</g>
<!-- Node24&#45;&gt;Node25 -->
<g id="edge25_Node000024_Node000025" class="edge">
<title>Node24&#45;&gt;Node25</title>
<g id="a_edge25_Node000024_Node000025"><a xlink:title=" ">
<path fill="none" stroke="#63b8ff" d="M771.94,-402C781.63,-402 791.58,-402 801.41,-402"/>
<polygon fill="#63b8ff" stroke="#63b8ff" points="801.37,-405.5 811.37,-402 801.37,-398.5 801.37,-405.5"/>
</a>
</g>
</g>
<!-- Node27 -->
<g id="Node000027" class="node">
<title>Node27</title>
<g id="a_Node000027"><a xlink:href="classEngine_1_1Systems_1_1PlayerControl.html#acdc125a87269bdcb52dbf899a1657a07" target="_top" xlink:title=" ">
<polygon fill="white" stroke="#666666" points="769,-368 612.75,-368 612.75,-336 769,-336 769,-368"/>
<text text-anchor="start" x="620.75" y="-354.5" font-family="Helvetica,sans-Serif" font-size="10.00">Engine::Systems::PlayerControl</text>
<text text-anchor="middle" x="690.88" y="-342.5" font-family="Helvetica,sans-Serif" font-size="10.00">::inputListener</text>
</a>
</g>
</g>
<!-- Node26&#45;&gt;Node27 -->
<g id="edge27_Node000026_Node000027" class="edge">
<title>Node26&#45;&gt;Node27</title>
<g id="a_edge27_Node000026_Node000027"><a xlink:title=" ">
<path fill="none" stroke="#63b8ff" d="M559.4,-352C572.93,-352 587.1,-352 600.91,-352"/>
<polygon fill="#63b8ff" stroke="#63b8ff" points="600.89,-355.5 610.89,-352 600.89,-348.5 600.89,-355.5"/>
</a>
</g>
</g>
<!-- Node29 -->
<g id="Node000029" class="node">
<title>Node29</title>
<g id="a_Node000029"><a xlink:href="classParameters.html#ade0e5f42198d5f294949bd87c6eec0fa" target="_top" xlink:title=" ">
<polygon fill="white" stroke="#666666" points="551.62,-280 410.38,-280 410.38,-248 551.62,-248 551.62,-280"/>
<text text-anchor="start" x="418.38" y="-266.5" font-family="Helvetica,sans-Serif" font-size="10.00">Parameters::getCurrentColor</text>
<text text-anchor="middle" x="481" y="-254.5" font-family="Helvetica,sans-Serif" font-size="10.00">BlindMode</text>
</a>
</g>
</g>
<!-- Node28&#45;&gt;Node29 -->
<g id="edge29_Node000028_Node000029" class="edge">
<title>Node28&#45;&gt;Node29</title>
<g id="a_edge29_Node000028_Node000029"><a xlink:title=" ">
<path fill="none" stroke="#63b8ff" d="M326.29,-313.54C336.77,-311.1 347.54,-308.25 357.5,-305 374.15,-299.57 377.05,-295 393.5,-289 398.38,-287.22 403.46,-285.48 408.59,-283.8"/>
<polygon fill="#63b8ff" stroke="#63b8ff" points="409.25,-287.26 417.72,-280.9 407.13,-280.59 409.25,-287.26"/>
</a>
</g>
</g>
<!-- Node30 -->
<g id="Node000030" class="node">
<title>Node30</title>
<g id="a_Node000030"><a xlink:href="classParameters.html#aef99182406aa08d547716d348fab78de" target="_top" xlink:title=" ">
<polygon fill="white" stroke="#666666" points="558.38,-318 403.62,-318 403.62,-298 558.38,-298 558.38,-318"/>
<text text-anchor="middle" x="481" y="-304.5" font-family="Helvetica,sans-Serif" font-size="10.00">Parameters::setColorBlindMode</text>
</a>
</g>
</g>
<!-- Node28&#45;&gt;Node30 -->
<g id="edge30_Node000028_Node000030" class="edge">
<title>Node28&#45;&gt;Node30</title>
<g id="a_edge30_Node000028_Node000030"><a xlink:title=" ">
<path fill="none" stroke="#63b8ff" d="M357.86,-317.28C369.16,-316.42 380.74,-315.54 392.04,-314.69"/>
<polygon fill="#63b8ff" stroke="#63b8ff" points="392.01,-318.2 401.72,-313.95 391.48,-311.22 392.01,-318.2"/>
</a>
</g>
</g>
<!-- Node31 -->
<g id="Node000031" class="node">
<title>Node31</title>
<g id="a_Node000031"><a xlink:href="classParameters.html#a30943fe99e7fa2007923912bdd56f59f" target="_top" xlink:title=" ">
<polygon fill="white" stroke="#666666" points="756.25,-318 625.5,-318 625.5,-286 756.25,-286 756.25,-318"/>
<text text-anchor="start" x="633.5" y="-304.5" font-family="Helvetica,sans-Serif" font-size="10.00">Parameters::getColorBlind</text>
<text text-anchor="middle" x="690.88" y="-292.5" font-family="Helvetica,sans-Serif" font-size="10.00">ModeString</text>
</a>
</g>
</g>
<!-- Node30&#45;&gt;Node31 -->
<g id="edge31_Node000030_Node000031" class="edge">
<title>Node30&#45;&gt;Node31</title>
<g id="a_edge31_Node000030_Node000031"><a xlink:title=" ">
<path fill="none" stroke="#63b8ff" d="M558.81,-305.78C576.83,-305.26 596.02,-304.71 613.99,-304.19"/>
<polygon fill="#63b8ff" stroke="#63b8ff" points="613.9,-307.69 623.79,-303.91 613.7,-300.7 613.9,-307.69"/>
</a>
</g>
</g>
<!-- Node32&#45;&gt;Node3 -->
<g id="edge33_Node000032_Node000003" class="edge">
<title>Node32&#45;&gt;Node3</title>
<g id="a_edge33_Node000032_Node000003"><a xlink:title=" ">
<path fill="none" stroke="#63b8ff" d="M351.79,-713C361.68,-713 371.85,-713 381.93,-713"/>
<polygon fill="#63b8ff" stroke="#63b8ff" points="381.74,-716.5 391.74,-713 381.74,-709.5 381.74,-716.5"/>
</a>
</g>
</g>
<!-- Node33 -->
<g id="Node000033" class="node">
<title>Node33</title>
<g id="a_Node000033"><a xlink:href="classParameters.html#a51dc69f2c06bb07b0e2ae9bc2594ce43" target="_top" xlink:title=" ">
<polygon fill="white" stroke="#666666" points="552.38,-820 409.62,-820 409.62,-800 552.38,-800 552.38,-820"/>
<text text-anchor="middle" x="481" y="-806.5" font-family="Helvetica,sans-Serif" font-size="10.00">Parameters::setDisplayMode</text>
</a>
</g>
</g>
<!-- Node32&#45;&gt;Node33 -->
<g id="edge34_Node000032_Node000033" class="edge">
<title>Node32&#45;&gt;Node33</title>
<g id="a_edge34_Node000032_Node000033"><a xlink:title=" ">
<path fill="none" stroke="#63b8ff" d="M292.03,-723.38C329.28,-740.55 403.88,-774.92 447.06,-794.82"/>
<polygon fill="#63b8ff" stroke="#63b8ff" points="445.4,-797.91 455.94,-798.91 448.32,-791.55 445.4,-797.91"/>
</a>
</g>
</g>
<!-- Node34 -->
<g id="Node000034" class="node">
<title>Node34</title>
<g id="a_Node000034"><a xlink:href="classParameters.html#a461466b15c2fa714bb7c93b5a8b7e034" target="_top" xlink:title=" ">
<polygon fill="white" stroke="#666666" points="762.25,-884 619.5,-884 619.5,-852 762.25,-852 762.25,-884"/>
<text text-anchor="start" x="627.5" y="-870.5" font-family="Helvetica,sans-Serif" font-size="10.00">Parameters::getDisplayMode</text>
<text text-anchor="middle" x="690.88" y="-858.5" font-family="Helvetica,sans-Serif" font-size="10.00">String</text>
</a>
</g>
</g>
<!-- Node33&#45;&gt;Node34 -->
<g id="edge35_Node000033_Node000034" class="edge">
<title>Node33&#45;&gt;Node34</title>
<g id="a_edge35_Node000033_Node000034"><a xlink:title=" ">
<path fill="none" stroke="#63b8ff" d="M519.16,-820.37C547.19,-828.19 586.46,-839.15 620.27,-848.58"/>
<polygon fill="#63b8ff" stroke="#63b8ff" points="619,-851.86 629.57,-851.18 620.88,-845.12 619,-851.86"/>
</a>
</g>
</g>
<!-- Node36 -->
<g id="Node000036" class="node">
<title>Node36</title>
<g id="a_Node000036"><a xlink:href="classParameters.html#ae06898aa199b69ba3b8b29ee880aabd6" target="_top" xlink:title=" ">
<polygon fill="white" stroke="#666666" points="559.5,-230 402.5,-230 402.5,-198 559.5,-198 559.5,-230"/>
<text text-anchor="start" x="410.5" y="-216.5" font-family="Helvetica,sans-Serif" font-size="10.00">Parameters::getCurrentGraphics</text>
<text text-anchor="middle" x="481" y="-204.5" font-family="Helvetica,sans-Serif" font-size="10.00">Quality</text>
</a>
</g>
</g>
<!-- Node35&#45;&gt;Node36 -->
<g id="edge37_Node000035_Node000036" class="edge">
<title>Node35&#45;&gt;Node36</title>
<g id="a_edge37_Node000035_Node000036"><a xlink:title=" ">
<path fill="none" stroke="#63b8ff" d="M331.4,-263.61C340.22,-260.93 349.14,-258.03 357.5,-255 373.96,-249.04 377.05,-245 393.5,-239 398.38,-237.22 403.46,-235.48 408.59,-233.8"/>
<polygon fill="#63b8ff" stroke="#63b8ff" points="409.25,-237.26 417.72,-230.9 407.13,-230.59 409.25,-237.26"/>
</a>
</g>
</g>
<!-- Node37 -->
<g id="Node000037" class="node">
<title>Node37</title>
<g id="a_Node000037"><a xlink:href="classParameters.html#a5fee9764416320845781343f62276521" target="_top" xlink:title=" ">
<polygon fill="white" stroke="#666666" points="558.75,-180 403.25,-180 403.25,-160 558.75,-160 558.75,-180"/>
<text text-anchor="middle" x="481" y="-166.5" font-family="Helvetica,sans-Serif" font-size="10.00">Parameters::setGraphicsQuality</text>
</a>
</g>
</g>
<!-- Node35&#45;&gt;Node37 -->
<g id="edge38_Node000035_Node000037" class="edge">
<title>Node35&#45;&gt;Node37</title>
<g id="a_edge38_Node000035_Node000037"><a xlink:title=" ">
<path fill="none" stroke="#63b8ff" d="M342.87,-264.25C348.08,-261.63 353.03,-258.57 357.5,-255 383.6,-234.14 366.78,-209.06 393.5,-189 395.06,-187.83 396.69,-186.72 398.36,-185.68"/>
<polygon fill="#63b8ff" stroke="#63b8ff" points="399.81,-188.87 407.05,-181.13 396.57,-182.67 399.81,-188.87"/>
</a>
</g>
</g>
<!-- Node39 -->
<g id="Node000039" class="node">
<title>Node39</title>
<g id="a_Node000039"><a xlink:href="classParticleSystem.html#aaa0bb2c4005e7d01b0fd23f685fd92fc" target="_top" xlink:title=" ">
<polygon fill="white" stroke="#666666" points="560.62,-142 401.38,-142 401.38,-122 560.62,-122 560.62,-142"/>
<text text-anchor="middle" x="481" y="-128.5" font-family="Helvetica,sans-Serif" font-size="10.00">ParticleSystem::setMaxParticles</text>
</a>
</g>
</g>
<!-- Node35&#45;&gt;Node39 -->
<g id="edge40_Node000035_Node000039" class="edge">
<title>Node35&#45;&gt;Node39</title>
<g id="a_edge40_Node000035_Node000039"><a xlink:title=" ">
<path fill="none" stroke="#63b8ff" d="M342.72,-265.51C348.09,-262.61 353.11,-259.15 357.5,-255 393.05,-221.4 356.95,-183.51 393.5,-151 394.45,-150.16 395.42,-149.35 396.43,-148.57"/>
<polygon fill="#63b8ff" stroke="#63b8ff" points="398.22,-151.58 404.79,-143.27 394.47,-145.67 398.22,-151.58"/>
</a>
</g>
</g>
<!-- Node38 -->
<g id="Node000038" class="node">
<title>Node38</title>
<g id="a_Node000038"><a xlink:href="classParameters.html#a457a6ed2d096be7f5b648c7df1c7fafa" target="_top" xlink:title=" ">
<polygon fill="white" stroke="#666666" points="768.62,-186 613.12,-186 613.12,-154 768.62,-154 768.62,-186"/>
<text text-anchor="start" x="621.12" y="-172.5" font-family="Helvetica,sans-Serif" font-size="10.00">Parameters::getGraphicsQuality</text>
<text text-anchor="middle" x="690.88" y="-160.5" font-family="Helvetica,sans-Serif" font-size="10.00">String</text>
</a>
</g>
</g>
<!-- Node37&#45;&gt;Node38 -->
<g id="edge39_Node000037_Node000038" class="edge">
<title>Node37&#45;&gt;Node38</title>
<g id="a_edge39_Node000037_Node000038"><a xlink:title=" ">
<path fill="none" stroke="#63b8ff" d="M559.11,-170C572.97,-170 587.51,-170 601.65,-170"/>
<polygon fill="#63b8ff" stroke="#63b8ff" points="601.38,-173.5 611.38,-170 601.38,-166.5 601.38,-173.5"/>
</a>
</g>
</g>
<!-- Node40&#45;&gt;Node4 -->
<g id="edge42_Node000040_Node000004" class="edge">
<title>Node40&#45;&gt;Node4</title>
<g id="a_edge42_Node000040_Node000004"><a xlink:title=" ">
<path fill="none" stroke="#63b8ff" d="M316.48,-544.49C347.72,-551.47 388.97,-560.68 422.22,-568.1"/>
<polygon fill="#63b8ff" stroke="#63b8ff" points="421.17,-571.45 431.69,-570.21 422.69,-564.62 421.17,-571.45"/>
</a>
</g>
</g>
<!-- Node41 -->
<g id="Node000041" class="node">
<title>Node41</title>
<g id="a_Node000041"><a xlink:href="classParameters.html#aa44f94f237faff1315187b2a31af3c11" target="_top" xlink:title=" ">
<polygon fill="white" stroke="#666666" points="547.12,-544 414.88,-544 414.88,-524 547.12,-524 547.12,-544"/>
<text text-anchor="middle" x="481" y="-530.5" font-family="Helvetica,sans-Serif" font-size="10.00">Parameters::setResolution</text>
</a>
</g>
</g>
<!-- Node40&#45;&gt;Node41 -->
<g id="edge43_Node000040_Node000041" class="edge">
<title>Node40&#45;&gt;Node41</title>
<g id="a_edge43_Node000040_Node000041"><a xlink:title=" ">
<path fill="none" stroke="#63b8ff" d="M346.69,-534C365.15,-534 384.85,-534 403.29,-534"/>
<polygon fill="#63b8ff" stroke="#63b8ff" points="403.08,-537.5 413.08,-534 403.08,-530.5 403.08,-537.5"/>
</a>
</g>
</g>
<!-- Node42 -->
<g id="Node000042" class="node">
<title>Node42</title>
<g id="a_Node000042"><a xlink:href="classParameters.html#ab06f51d4f6cecc5d4ca32f6a770fca12" target="_top" xlink:title=" ">
<polygon fill="white" stroke="#666666" points="757,-518 624.75,-518 624.75,-486 757,-486 757,-518"/>
<text text-anchor="start" x="632.75" y="-504.5" font-family="Helvetica,sans-Serif" font-size="10.00">Parameters::getResolution</text>
<text text-anchor="middle" x="690.88" y="-492.5" font-family="Helvetica,sans-Serif" font-size="10.00">String</text>
</a>
</g>
</g>
<!-- Node41&#45;&gt;Node42 -->
<g id="edge44_Node000041_Node000042" class="edge">
<title>Node41&#45;&gt;Node42</title>
<g id="a_edge44_Node000041_Node000042"><a xlink:title=" ">
<path fill="none" stroke="#63b8ff" d="M547.49,-523.92C568.36,-520.71 591.65,-517.12 613.24,-513.8"/>
<polygon fill="#63b8ff" stroke="#63b8ff" points="613.51,-517.3 622.86,-512.32 612.45,-510.38 613.51,-517.3"/>
</a>
</g>
</g>
</g>
</svg>
