<?xml version="1.0" encoding="UTF-8" standalone="no"?>
<!DOCTYPE svg PUBLIC "-//W3C//DTD SVG 1.1//EN"
 "http://www.w3.org/Graphics/SVG/1.1/DTD/svg11.dtd">
<!-- Generated by graphviz version 12.1.0 (20240811.2233)
 -->
<!-- Title: Engine::Systems::PlayerControl Pages: 1 -->
<svg width="158pt" height="196pt"
 viewBox="0.00 0.00 158.00 196.00" xmlns="http://www.w3.org/2000/svg" xmlns:xlink="http://www.w3.org/1999/xlink">
<g id="graph0" class="graph" transform="scale(1 1) rotate(0) translate(4 192)">
<title>Engine::Systems::PlayerControl</title>
<!-- Node1 -->
<g id="Node000001" class="node">
<title>Node1</title>
<g id="a_Node000001"><a xlink:title=" ">
<polygon fill="#999999" stroke="none" points="150,-100 0,-100 0,0 150,0 150,-100"/>
<text text-anchor="start" x="4.88" y="-86.5" font-family="Helvetica,sans-Serif" font-size="10.00">Engine::Systems::PlayerControl</text>
<text text-anchor="start" x="13.5" y="-70.5" font-family="Helvetica,sans-Serif" font-size="10.00">&#45;</text>
<text text-anchor="start" x="30" y="-70.5" font-family="Helvetica,sans-Serif" font-size="10.00">playerProjectileCreator</text>
<text text-anchor="start" x="13.5" y="-54.5" font-family="Helvetica,sans-Serif" font-size="10.00">&#45;</text>
<text text-anchor="start" x="30" y="-54.5" font-family="Helvetica,sans-Serif" font-size="10.00">player_id_to_buttons</text>
<text text-anchor="start" x="12" y="-38.5" font-family="Helvetica,sans-Serif" font-size="10.00">+</text>
<text text-anchor="start" x="30" y="-38.5" font-family="Helvetica,sans-Serif" font-size="10.00">init()</text>
<text text-anchor="start" x="12" y="-22.5" font-family="Helvetica,sans-Serif" font-size="10.00">+</text>
<text text-anchor="start" x="30" y="-22.5" font-family="Helvetica,sans-Serif" font-size="10.00">update()</text>
<text text-anchor="start" x="12" y="-6.5" font-family="Helvetica,sans-Serif" font-size="10.00">+</text>
<text text-anchor="start" x="30" y="-6.5" font-family="Helvetica,sans-Serif" font-size="10.00">inputListener()</text>
<polygon fill="#666666" stroke="#666666" points="0,-82 0,-82 150,-82 150,-82 0,-82"/>
<polygon fill="#666666" stroke="#666666" points="0,-50 0,-50 28,-50 28,-50 0,-50"/>
<polygon fill="#666666" stroke="#666666" points="28,-50 28,-50 150,-50 150,-50 28,-50"/>
<polygon fill="none" stroke="#666666" points="0,0 0,-100 150,-100 150,0 0,0"/>
</a>
</g>
</g>
<!-- Node2 -->
<g id="Node000002" class="node">
<title>Node2</title>
<g id="a_Node000002"><a xlink:href="classEngine_1_1System.html" target="_top" xlink:title=" ">
<polygon fill="white" stroke="none" points="114.5,-188 35.5,-188 35.5,-136 114.5,-136 114.5,-188"/>
<text text-anchor="start" x="40.12" y="-174.5" font-family="Helvetica,sans-Serif" font-size="10.00">Engine::System</text>
<text text-anchor="start" x="47" y="-158.5" font-family="Helvetica,sans-Serif" font-size="10.00">+</text>
<text text-anchor="start" x="64.5" y="-158.5" font-family="Helvetica,sans-Serif" font-size="10.00">entities</text>
<text text-anchor="start" x="73.5" y="-142.5" font-family="Helvetica,sans-Serif" font-size="10.00"> </text>
<polygon fill="#666666" stroke="#666666" points="35.5,-170 35.5,-170 114.5,-170 114.5,-170 35.5,-170"/>
<polygon fill="#666666" stroke="#666666" points="35.5,-154 35.5,-154 62.5,-154 62.5,-154 35.5,-154"/>
<polygon fill="#666666" stroke="#666666" points="62.5,-154 62.5,-154 114.5,-154 114.5,-154 62.5,-154"/>
<polygon fill="none" stroke="#666666" points="35.5,-136 35.5,-188 114.5,-188 114.5,-136 35.5,-136"/>
</a>
</g>
</g>
<!-- Node2&#45;&gt;Node1 -->
<g id="edge1_Node000001_Node000002" class="edge">
<title>Node2&#45;&gt;Node1</title>
<g id="a_edge1_Node000001_Node000002"><a xlink:title=" ">
<path fill="none" stroke="#63b8ff" d="M75,-124.53C75,-116.58 75,-108.05 75,-99.72"/>
<polygon fill="none" stroke="#63b8ff" points="71.5,-124.53 75,-134.53 78.5,-124.53 71.5,-124.53"/>
</a>
</g>
</g>
</g>
</svg>
