<?xml version="1.0" encoding="UTF-8" standalone="no"?>
<!DOCTYPE svg PUBLIC "-//W3C//DTD SVG 1.1//EN"
 "http://www.w3.org/Graphics/SVG/1.1/DTD/svg11.dtd">
<!-- Generated by graphviz version 12.1.0 (20240811.2233)
 -->
<!-- Title: Engine::NetworkManager Pages: 1 -->
<svg width="165pt" height="608pt"
 viewBox="0.00 0.00 165.25 608.00" xmlns="http://www.w3.org/2000/svg" xmlns:xlink="http://www.w3.org/1999/xlink">
<g id="graph0" class="graph" transform="scale(1 1) rotate(0) translate(4 604)">
<title>Engine::NetworkManager</title>
<!-- Node1 -->
<g id="Node000001" class="node">
<title>Node1</title>
<g id="a_Node000001"><a xlink:title=" ">
<polygon fill="#999999" stroke="none" points="126.5,-468 6.5,-468 6.5,0 126.5,0 126.5,-468"/>
<text text-anchor="start" x="11.38" y="-454.5" font-family="Helvetica,sans-Serif" font-size="10.00">Engine::NetworkManager</text>
<text text-anchor="start" x="10.5" y="-438.5" font-family="Helvetica,sans-Serif" font-size="10.00">+</text>
<text text-anchor="start" x="20.5" y="-438.5" font-family="Helvetica,sans-Serif" font-size="10.00">MAGIC</text>
<text text-anchor="start" x="10.5" y="-422.5" font-family="Helvetica,sans-Serif" font-size="10.00">+</text>
<text text-anchor="start" x="20.5" y="-422.5" font-family="Helvetica,sans-Serif" font-size="10.00">PROTO_VERSION</text>
<text text-anchor="start" x="10.5" y="-406.5" font-family="Helvetica,sans-Serif" font-size="10.00">+</text>
<text text-anchor="start" x="20.5" y="-406.5" font-family="Helvetica,sans-Serif" font-size="10.00">mediator</text>
<text text-anchor="start" x="10.5" y="-390.5" font-family="Helvetica,sans-Serif" font-size="10.00">+</text>
<text text-anchor="start" x="20.5" y="-390.5" font-family="Helvetica,sans-Serif" font-size="10.00">player_id</text>
<text text-anchor="start" x="10.5" y="-374.5" font-family="Helvetica,sans-Serif" font-size="10.00">+</text>
<text text-anchor="start" x="20.5" y="-374.5" font-family="Helvetica,sans-Serif" font-size="10.00">room_id</text>
<text text-anchor="start" x="12" y="-358.5" font-family="Helvetica,sans-Serif" font-size="10.00">&#45;</text>
<text text-anchor="start" x="20.5" y="-358.5" font-family="Helvetica,sans-Serif" font-size="10.00">role</text>
<text text-anchor="start" x="12" y="-342.5" font-family="Helvetica,sans-Serif" font-size="10.00">&#45;</text>
<text text-anchor="start" x="20.5" y="-342.5" font-family="Helvetica,sans-Serif" font-size="10.00">address</text>
<text text-anchor="start" x="12" y="-326.5" font-family="Helvetica,sans-Serif" font-size="10.00">&#45;</text>
<text text-anchor="start" x="20.5" y="-326.5" font-family="Helvetica,sans-Serif" font-size="10.00">port</text>
<text text-anchor="start" x="12" y="-310.5" font-family="Helvetica,sans-Serif" font-size="10.00">&#45;</text>
<text text-anchor="start" x="20.5" y="-310.5" font-family="Helvetica,sans-Serif" font-size="10.00">io_context</text>
<text text-anchor="start" x="12" y="-294.5" font-family="Helvetica,sans-Serif" font-size="10.00">&#45;</text>
<text text-anchor="start" x="20.5" y="-294.5" font-family="Helvetica,sans-Serif" font-size="10.00">socket</text>
<text text-anchor="start" x="12" y="-278.5" font-family="Helvetica,sans-Serif" font-size="10.00">&#45;</text>
<text text-anchor="start" x="20.5" y="-278.5" font-family="Helvetica,sans-Serif" font-size="10.00">remote_endpoint</text>
<text text-anchor="start" x="12" y="-262.5" font-family="Helvetica,sans-Serif" font-size="10.00">&#45;</text>
<text text-anchor="start" x="20.5" y="-262.5" font-family="Helvetica,sans-Serif" font-size="10.00">recv_buffer</text>
<text text-anchor="start" x="12" y="-246.5" font-family="Helvetica,sans-Serif" font-size="10.00">&#45;</text>
<text text-anchor="start" x="20.5" y="-246.5" font-family="Helvetica,sans-Serif" font-size="10.00">io_thread</text>
<text text-anchor="start" x="12" y="-230.5" font-family="Helvetica,sans-Serif" font-size="10.00">&#45;</text>
<text text-anchor="start" x="20.5" y="-230.5" font-family="Helvetica,sans-Serif" font-size="10.00">client_endpoints</text>
<text text-anchor="start" x="12" y="-214.5" font-family="Helvetica,sans-Serif" font-size="10.00">&#45;</text>
<text text-anchor="start" x="20.5" y="-214.5" font-family="Helvetica,sans-Serif" font-size="10.00">temp_sender_endpoint</text>
<text text-anchor="start" x="10.5" y="-198.5" font-family="Helvetica,sans-Serif" font-size="10.00">+</text>
<text text-anchor="start" x="20.5" y="-198.5" font-family="Helvetica,sans-Serif" font-size="10.00">createPlayer()</text>
<text text-anchor="start" x="10.5" y="-182.5" font-family="Helvetica,sans-Serif" font-size="10.00">+</text>
<text text-anchor="start" x="20.5" y="-182.5" font-family="Helvetica,sans-Serif" font-size="10.00">createPlayerProjectile()</text>
<text text-anchor="start" x="10.5" y="-166.5" font-family="Helvetica,sans-Serif" font-size="10.00">+</text>
<text text-anchor="start" x="20.5" y="-166.5" font-family="Helvetica,sans-Serif" font-size="10.00">createEnemy()</text>
<text text-anchor="start" x="10.5" y="-150.5" font-family="Helvetica,sans-Serif" font-size="10.00">+</text>
<text text-anchor="start" x="20.5" y="-150.5" font-family="Helvetica,sans-Serif" font-size="10.00">getRole()</text>
<text text-anchor="start" x="10.5" y="-134.5" font-family="Helvetica,sans-Serif" font-size="10.00">+</text>
<text text-anchor="start" x="20.5" y="-134.5" font-family="Helvetica,sans-Serif" font-size="10.00">NetworkManager()</text>
<text text-anchor="start" x="10.5" y="-118.5" font-family="Helvetica,sans-Serif" font-size="10.00">+</text>
<text text-anchor="start" x="20.5" y="-118.5" font-family="Helvetica,sans-Serif" font-size="10.00">~NetworkManager()</text>
<text text-anchor="start" x="10.5" y="-102.5" font-family="Helvetica,sans-Serif" font-size="10.00">+</text>
<text text-anchor="start" x="20.5" y="-102.5" font-family="Helvetica,sans-Serif" font-size="10.00">sendPacket()</text>
<text text-anchor="start" x="10.5" y="-86.5" font-family="Helvetica,sans-Serif" font-size="10.00">+</text>
<text text-anchor="start" x="20.5" y="-86.5" font-family="Helvetica,sans-Serif" font-size="10.00">receivePacket()</text>
<text text-anchor="start" x="10.5" y="-70.5" font-family="Helvetica,sans-Serif" font-size="10.00">+</text>
<text text-anchor="start" x="20.5" y="-70.5" font-family="Helvetica,sans-Serif" font-size="10.00">startServer()</text>
<text text-anchor="start" x="10.5" y="-54.5" font-family="Helvetica,sans-Serif" font-size="10.00">+</text>
<text text-anchor="start" x="20.5" y="-54.5" font-family="Helvetica,sans-Serif" font-size="10.00">createPacketHeader()</text>
<text text-anchor="start" x="20.5" y="-38.5" font-family="Helvetica,sans-Serif" font-size="10.00">and 13 more...</text>
<text text-anchor="start" x="12" y="-22.5" font-family="Helvetica,sans-Serif" font-size="10.00">&#45;</text>
<text text-anchor="start" x="20.5" y="-22.5" font-family="Helvetica,sans-Serif" font-size="10.00">handle_receive()</text>
<text text-anchor="start" x="12" y="-6.5" font-family="Helvetica,sans-Serif" font-size="10.00">&#45;</text>
<text text-anchor="start" x="20.5" y="-6.5" font-family="Helvetica,sans-Serif" font-size="10.00">registerComponent()</text>
<polygon fill="#666666" stroke="#666666" points="6.5,-450 6.5,-450 126.5,-450 126.5,-450 6.5,-450"/>
<polygon fill="#666666" stroke="#666666" points="6.5,-210 6.5,-210 18.5,-210 18.5,-210 6.5,-210"/>
<polygon fill="#666666" stroke="#666666" points="18.5,-210 18.5,-210 126.5,-210 126.5,-210 18.5,-210"/>
<polygon fill="none" stroke="#666666" points="6.5,0 6.5,-468 126.5,-468 126.5,0 6.5,0"/>
</a>
</g>
</g>
<!-- Node2 -->
<g id="Node000002" class="node">
<title>Node2</title>
<g id="a_Node000002"><a xlink:href="classEngine_1_1ComponentRegistry.html" target="_top" xlink:title=" ">
<polygon fill="white" stroke="none" points="133,-600 0,-600 0,-516 133,-516 133,-600"/>
<text text-anchor="start" x="5" y="-586.5" font-family="Helvetica,sans-Serif" font-size="10.00">Engine::ComponentRegistry</text>
<text text-anchor="start" x="8" y="-570.5" font-family="Helvetica,sans-Serif" font-size="10.00">&#45;</text>
<text text-anchor="start" x="19" y="-570.5" font-family="Helvetica,sans-Serif" font-size="10.00">registry_</text>
<text text-anchor="start" x="6.5" y="-554.5" font-family="Helvetica,sans-Serif" font-size="10.00">+</text>
<text text-anchor="start" x="19" y="-554.5" font-family="Helvetica,sans-Serif" font-size="10.00">registerType()</text>
<text text-anchor="start" x="6.5" y="-538.5" font-family="Helvetica,sans-Serif" font-size="10.00">+</text>
<text text-anchor="start" x="19" y="-538.5" font-family="Helvetica,sans-Serif" font-size="10.00">addComponentByType()</text>
<text text-anchor="start" x="6.5" y="-522.5" font-family="Helvetica,sans-Serif" font-size="10.00">+</text>
<text text-anchor="start" x="19" y="-522.5" font-family="Helvetica,sans-Serif" font-size="10.00">instance()</text>
<polygon fill="#666666" stroke="#666666" points="0,-582 0,-582 133,-582 133,-582 0,-582"/>
<polygon fill="#666666" stroke="#666666" points="0,-566 0,-566 17,-566 17,-566 0,-566"/>
<polygon fill="#666666" stroke="#666666" points="17,-566 17,-566 133,-566 133,-566 17,-566"/>
<polygon fill="none" stroke="#666666" points="0,-516 0,-600 133,-600 133,-516 0,-516"/>
</a>
</g>
</g>
<!-- Node2&#45;&gt;Node1 -->
<g id="edge1_Node000001_Node000002" class="edge">
<title>Node2&#45;&gt;Node1</title>
<g id="a_edge1_Node000001_Node000002"><a xlink:title=" ">
<path fill="none" stroke="#63b8ff" d="M66.5,-516.22C66.5,-505.77 66.5,-493.74 66.5,-480.68"/>
<polygon fill="none" stroke="#63b8ff" points="66.5,-480.76 62.5,-474.76 66.5,-468.76 70.5,-474.76 66.5,-480.76"/>
</a>
</g>
<text text-anchor="middle" x="111.88" y="-488.5" font-family="Helvetica,sans-Serif" font-size="10.00" fill="grey"> &#45;componentRegistry</text>
</g>
</g>
</svg>
