<?xml version="1.0" encoding="UTF-8" standalone="no"?>
<!DOCTYPE svg PUBLIC "-//W3C//DTD SVG 1.1//EN"
 "http://www.w3.org/Graphics/SVG/1.1/DTD/svg11.dtd">
<!-- Generated by graphviz version 12.1.0 (20240811.2233)
 -->
<!-- Title: ParamButton::setupVolumeBar Pages: 1 -->
<svg width="955pt" height="78pt"
 viewBox="0.00 0.00 954.50 78.00" xmlns="http://www.w3.org/2000/svg" xmlns:xlink="http://www.w3.org/1999/xlink">
<g id="graph0" class="graph" transform="scale(1 1) rotate(0) translate(4 74)">
<title>ParamButton::setupVolumeBar</title>
<!-- Node1 -->
<g id="Node000001" class="node">
<title>Node1</title>
<g id="a_Node000001"><a xlink:title=" ">
<polygon fill="#999999" stroke="#666666" points="946.5,-48 796.25,-48 796.25,-28 946.5,-28 946.5,-48"/>
<text text-anchor="middle" x="871.38" y="-34.5" font-family="Helvetica,sans-Serif" font-size="10.00">ParamButton::setupVolumeBar</text>
</a>
</g>
</g>
<!-- Node2 -->
<g id="Node000002" class="node">
<title>Node2</title>
<g id="a_Node000002"><a xlink:href="classGameManager.html#ae60f9a9c5dc48f158537ed98d2b6dbfe" target="_top" xlink:title=" ">
<polygon fill="white" stroke="#666666" points="760.25,-70 610.75,-70 610.75,-50 760.25,-50 760.25,-70"/>
<text text-anchor="middle" x="685.5" y="-56.5" font-family="Helvetica,sans-Serif" font-size="10.00">GameManager::GameManager</text>
</a>
</g>
</g>
<!-- Node1&#45;&gt;Node2 -->
<g id="edge1_Node000001_Node000002" class="edge">
<title>Node1&#45;&gt;Node2</title>
<g id="a_edge1_Node000001_Node000002"><a xlink:title=" ">
<path fill="none" stroke="#63b8ff" d="M784.57,-48.27C776.54,-49.23 768.44,-50.2 760.53,-51.14"/>
<polygon fill="#63b8ff" stroke="#63b8ff" points="784.83,-51.76 794.35,-47.1 784,-44.81 784.83,-51.76"/>
</a>
</g>
</g>
<!-- Node3 -->
<g id="Node000003" class="node">
<title>Node3</title>
<g id="a_Node000003"><a xlink:href="classGameManager.html#a0a220f16a3e2d31baa08c03bec5c88b6" target="_top" xlink:title=" ">
<polygon fill="white" stroke="#666666" points="760.25,-32 610.75,-32 610.75,0 760.25,0 760.25,-32"/>
<text text-anchor="start" x="618.75" y="-18.5" font-family="Helvetica,sans-Serif" font-size="10.00">GameManager::handleWindow</text>
<text text-anchor="middle" x="685.5" y="-6.5" font-family="Helvetica,sans-Serif" font-size="10.00">Resize</text>
</a>
</g>
</g>
<!-- Node1&#45;&gt;Node3 -->
<g id="edge2_Node000001_Node000003" class="edge">
<title>Node1&#45;&gt;Node3</title>
<g id="a_edge2_Node000001_Node000003"><a xlink:title=" ">
<path fill="none" stroke="#63b8ff" d="M784.57,-27.73C776.54,-26.77 768.44,-25.8 760.53,-24.86"/>
<polygon fill="#63b8ff" stroke="#63b8ff" points="784,-31.19 794.35,-28.9 784.83,-24.24 784,-31.19"/>
</a>
</g>
</g>
<!-- Node4 -->
<g id="Node000004" class="node">
<title>Node4</title>
<g id="a_Node000004"><a xlink:href="classGameManager.html#a948792a1ef6f0a0c8c21fae779c4b525" target="_top" xlink:title=" ">
<polygon fill="white" stroke="#666666" points="574.75,-54 433.5,-54 433.5,-22 574.75,-22 574.75,-54"/>
<text text-anchor="start" x="441.5" y="-40.5" font-family="Helvetica,sans-Serif" font-size="10.00">GameManager::applyCurrent</text>
<text text-anchor="middle" x="504.12" y="-28.5" font-family="Helvetica,sans-Serif" font-size="10.00">Resolution</text>
</a>
</g>
</g>
<!-- Node3&#45;&gt;Node4 -->
<g id="edge3_Node000003_Node000004" class="edge">
<title>Node3&#45;&gt;Node4</title>
<g id="a_edge3_Node000003_Node000004"><a xlink:title=" ">
<path fill="none" stroke="#63b8ff" d="M599.2,-26.46C591.16,-27.45 583.07,-28.44 575.2,-29.41"/>
<polygon fill="#63b8ff" stroke="#63b8ff" points="599.5,-29.95 609,-25.26 598.65,-23 599.5,-29.95"/>
</a>
</g>
</g>
<!-- Node6 -->
<g id="Node000006" class="node">
<title>Node6</title>
<g id="a_Node000006"><a xlink:href="classGameManager.html#a6cea7fca5fecdd4f8a32912d4bfc233f" target="_top" xlink:title=" ">
<polygon fill="white" stroke="#666666" points="218,-26 73,-26 73,-6 218,-6 218,-26"/>
<text text-anchor="middle" x="145.5" y="-12.5" font-family="Helvetica,sans-Serif" font-size="10.00">GameManager::handleEvents</text>
</a>
</g>
</g>
<!-- Node3&#45;&gt;Node6 -->
<g id="edge7_Node000003_Node000006" class="edge">
<title>Node3&#45;&gt;Node6</title>
<g id="a_edge7_Node000003_Node000006"><a xlink:title=" ">
<path fill="none" stroke="#63b8ff" d="M599.18,-13.44C590.93,-13.26 582.68,-13.11 574.75,-13 432.21,-11.05 396.54,-11.01 254,-13 242.52,-13.16 230.35,-13.42 218.49,-13.71"/>
<polygon fill="#63b8ff" stroke="#63b8ff" points="598.82,-16.93 608.9,-13.66 598.99,-9.93 598.82,-16.93"/>
</a>
</g>
</g>
<!-- Node5 -->
<g id="Node000005" class="node">
<title>Node5</title>
<g id="a_Node000005"><a xlink:href="classGameManager.html#aeed1dd73db1c39b2e39d30d9d37c1f6c" target="_top" xlink:title=" ">
<polygon fill="white" stroke="#666666" points="397.5,-54 254,-54 254,-22 397.5,-22 397.5,-54"/>
<text text-anchor="start" x="262" y="-40.5" font-family="Helvetica,sans-Serif" font-size="10.00">GameManager::handleMouse</text>
<text text-anchor="middle" x="325.75" y="-28.5" font-family="Helvetica,sans-Serif" font-size="10.00">Click</text>
</a>
</g>
</g>
<!-- Node4&#45;&gt;Node5 -->
<g id="edge4_Node000004_Node000005" class="edge">
<title>Node4&#45;&gt;Node5</title>
<g id="a_edge4_Node000004_Node000005"><a xlink:title=" ">
<path fill="none" stroke="#63b8ff" d="M421.87,-38C413.83,-38 405.71,-38 397.78,-38"/>
<polygon fill="#63b8ff" stroke="#63b8ff" points="421.65,-41.5 431.65,-38 421.65,-34.5 421.65,-41.5"/>
</a>
</g>
</g>
<!-- Node5&#45;&gt;Node6 -->
<g id="edge5_Node000005_Node000006" class="edge">
<title>Node5&#45;&gt;Node6</title>
<g id="a_edge5_Node000005_Node000006"><a xlink:title=" ">
<path fill="none" stroke="#63b8ff" d="M242.34,-27.83C234.37,-26.85 226.33,-25.85 218.48,-24.88"/>
<polygon fill="#63b8ff" stroke="#63b8ff" points="241.68,-31.27 252.03,-29.02 242.53,-24.33 241.68,-31.27"/>
</a>
</g>
</g>
<!-- Node7 -->
<g id="Node000007" class="node">
<title>Node7</title>
<g id="a_Node000007"><a xlink:href="Client_2src_2main_8cpp.html#ae66f6b31b5ad750f1fe042a706a4e3d4" target="_top" xlink:title=" ">
<polygon fill="white" stroke="#666666" points="37,-26 0,-26 0,-6 37,-6 37,-26"/>
<text text-anchor="middle" x="18.5" y="-12.5" font-family="Helvetica,sans-Serif" font-size="10.00">main</text>
</a>
</g>
</g>
<!-- Node6&#45;&gt;Node7 -->
<g id="edge6_Node000006_Node000007" class="edge">
<title>Node6&#45;&gt;Node7</title>
<g id="a_edge6_Node000006_Node000007"><a xlink:title=" ">
<path fill="none" stroke="#63b8ff" d="M61.12,-16C52.34,-16 44.18,-16 37.46,-16"/>
<polygon fill="#63b8ff" stroke="#63b8ff" points="61,-19.5 71,-16 61,-12.5 61,-19.5"/>
</a>
</g>
</g>
</g>
</svg>
