<?xml version="1.0" encoding="UTF-8" standalone="no"?>
<!DOCTYPE svg PUBLIC "-//W3C//DTD SVG 1.1//EN"
 "http://www.w3.org/Graphics/SVG/1.1/DTD/svg11.dtd">
<!-- Generated by graphviz version 12.1.0 (20240811.2233)
 -->
<!-- Title: RtypeServer::UdpServer::handle_join_room Pages: 1 -->
<svg width="464pt" height="278pt"
 viewBox="0.00 0.00 464.00 278.00" xmlns="http://www.w3.org/2000/svg" xmlns:xlink="http://www.w3.org/1999/xlink">
<g id="graph0" class="graph" transform="scale(1 1) rotate(0) translate(4 274)">
<title>RtypeServer::UdpServer::handle_join_room</title>
<!-- Node1 -->
<g id="Node000001" class="node">
<title>Node1</title>
<g id="a_Node000001"><a xlink:title=" ">
<polygon fill="#999999" stroke="#666666" points="123.25,-157 0,-157 0,-125 123.25,-125 123.25,-157"/>
<text text-anchor="start" x="8" y="-143.5" font-family="Helvetica,sans-Serif" font-size="10.00">RtypeServer::UdpServer</text>
<text text-anchor="middle" x="61.62" y="-131.5" font-family="Helvetica,sans-Serif" font-size="10.00">::handle_join_room</text>
</a>
</g>
</g>
<!-- Node2 -->
<g id="Node000002" class="node">
<title>Node2</title>
<g id="a_Node000002"><a xlink:href="classRtypeServer_1_1RoomManager.html#aabb4ebfaae6223fba609f7320749d280" target="_top" xlink:title=" ">
<polygon fill="white" stroke="#666666" points="299.75,-270 159.25,-270 159.25,-238 299.75,-238 299.75,-270"/>
<text text-anchor="start" x="167.25" y="-256.5" font-family="Helvetica,sans-Serif" font-size="10.00">RtypeServer::RoomManager</text>
<text text-anchor="middle" x="229.5" y="-244.5" font-family="Helvetica,sans-Serif" font-size="10.00">::getRoom</text>
</a>
</g>
</g>
<!-- Node1&#45;&gt;Node2 -->
<g id="edge1_Node000001_Node000002" class="edge">
<title>Node1&#45;&gt;Node2</title>
<g id="a_edge1_Node000001_Node000002"><a xlink:title=" ">
<path fill="none" stroke="#63b8ff" d="M78.52,-157.34C96.74,-175.41 128.13,-204.52 159.25,-224 164.12,-227.05 169.36,-229.94 174.69,-232.62"/>
<polygon fill="#63b8ff" stroke="#63b8ff" points="173.1,-235.74 183.63,-236.89 176.11,-229.42 173.1,-235.74"/>
</a>
</g>
</g>
<!-- Node3 -->
<g id="Node000003" class="node">
<title>Node3</title>
<g id="a_Node000003"><a xlink:href="namespaceRtypeServer.html#a0945154a39091e84a43cedc8136b0abe" target="_top" xlink:title=" ">
<polygon fill="white" stroke="#666666" points="443.62,-214 348.12,-214 348.12,-194 443.62,-194 443.62,-214"/>
<text text-anchor="middle" x="395.88" y="-200.5" font-family="Helvetica,sans-Serif" font-size="10.00">RtypeServer::infof</text>
</a>
</g>
</g>
<!-- Node1&#45;&gt;Node3 -->
<g id="edge2_Node000001_Node000003" class="edge">
<title>Node1&#45;&gt;Node3</title>
<g id="a_edge2_Node000001_Node000003"><a xlink:title=" ">
<path fill="none" stroke="#63b8ff" d="M87.25,-157.47C106.1,-169.12 133.19,-183.89 159.25,-191 218.04,-207.04 288.05,-208.83 336.4,-207.51"/>
<polygon fill="#63b8ff" stroke="#63b8ff" points="336.51,-211.01 346.39,-207.18 336.28,-204.01 336.51,-211.01"/>
</a>
</g>
</g>
<!-- Node4 -->
<g id="Node000004" class="node">
<title>Node4</title>
<g id="a_Node000004"><a xlink:href="classRtypeServer_1_1RoomManager.html#a61622cbcc554dfdc5c26a4a24ccdb0ff" target="_top" xlink:title=" ">
<polygon fill="white" stroke="#666666" points="299.75,-82 159.25,-82 159.25,-50 299.75,-50 299.75,-82"/>
<text text-anchor="start" x="167.25" y="-68.5" font-family="Helvetica,sans-Serif" font-size="10.00">RtypeServer::RoomManager</text>
<text text-anchor="middle" x="229.5" y="-56.5" font-family="Helvetica,sans-Serif" font-size="10.00">::joinRoom</text>
</a>
</g>
</g>
<!-- Node1&#45;&gt;Node4 -->
<g id="edge3_Node000001_Node000004" class="edge">
<title>Node1&#45;&gt;Node4</title>
<g id="a_edge3_Node000001_Node000004"><a xlink:title=" ">
<path fill="none" stroke="#63b8ff" d="M91.74,-124.66C110.67,-114.36 136.06,-101.13 159.25,-91 162.75,-89.47 166.38,-87.96 170.06,-86.47"/>
<polygon fill="#63b8ff" stroke="#63b8ff" points="171.04,-89.85 179.08,-82.95 168.5,-83.33 171.04,-89.85"/>
</a>
</g>
</g>
<!-- Node5 -->
<g id="Node000005" class="node">
<title>Node5</title>
<g id="a_Node000005"><a xlink:href="classRtypeServer_1_1RoomManager.html#a1bb23690b4594531c502c5b9be329598" target="_top" xlink:title=" ">
<polygon fill="white" stroke="#666666" points="299.75,-32 159.25,-32 159.25,0 299.75,0 299.75,-32"/>
<text text-anchor="start" x="167.25" y="-18.5" font-family="Helvetica,sans-Serif" font-size="10.00">RtypeServer::RoomManager</text>
<text text-anchor="middle" x="229.5" y="-6.5" font-family="Helvetica,sans-Serif" font-size="10.00">::roomExists</text>
</a>
</g>
</g>
<!-- Node1&#45;&gt;Node5 -->
<g id="edge4_Node000001_Node000005" class="edge">
<title>Node1&#45;&gt;Node5</title>
<g id="a_edge4_Node000001_Node000005"><a xlink:title=" ">
<path fill="none" stroke="#63b8ff" d="M74.59,-124.57C91.29,-102.7 123.58,-64.09 159.25,-41 161.1,-39.8 163.02,-38.65 164.98,-37.55"/>
<polygon fill="#63b8ff" stroke="#63b8ff" points="166.43,-40.74 173.77,-33.1 163.26,-34.49 166.43,-40.74"/>
</a>
</g>
</g>
<!-- Node6 -->
<g id="Node000006" class="node">
<title>Node6</title>
<g id="a_Node000006"><a xlink:href="classRtypeServer_1_1UdpServer.html#ab6e480e2b78f9cbc75fb5ba9bbdc71f5" target="_top" xlink:title=" ">
<polygon fill="white" stroke="#666666" points="291.12,-132 167.88,-132 167.88,-100 291.12,-100 291.12,-132"/>
<text text-anchor="start" x="175.88" y="-118.5" font-family="Helvetica,sans-Serif" font-size="10.00">RtypeServer::UdpServer</text>
<text text-anchor="middle" x="229.5" y="-106.5" font-family="Helvetica,sans-Serif" font-size="10.00">::send_room_error</text>
</a>
</g>
</g>
<!-- Node1&#45;&gt;Node6 -->
<g id="edge5_Node000001_Node000006" class="edge">
<title>Node1&#45;&gt;Node6</title>
<g id="a_edge5_Node000001_Node000006"><a xlink:title=" ">
<path fill="none" stroke="#63b8ff" d="M123.45,-131.83C134.09,-130.23 145.25,-128.55 156.16,-126.9"/>
<polygon fill="#63b8ff" stroke="#63b8ff" points="156.54,-130.38 165.91,-125.43 155.5,-123.46 156.54,-130.38"/>
</a>
</g>
</g>
<!-- Node10 -->
<g id="Node000010" class="node">
<title>Node10</title>
<g id="a_Node000010"><a xlink:href="classRtypeServer_1_1UdpServer.html#ae3593b22a1ed07c63ebf786f7667007c" target="_top" xlink:title=" ">
<polygon fill="white" stroke="#666666" points="291.12,-182 167.88,-182 167.88,-150 291.12,-150 291.12,-182"/>
<text text-anchor="start" x="175.88" y="-168.5" font-family="Helvetica,sans-Serif" font-size="10.00">RtypeServer::UdpServer</text>
<text text-anchor="middle" x="229.5" y="-156.5" font-family="Helvetica,sans-Serif" font-size="10.00">::send_room_joined</text>
</a>
</g>
</g>
<!-- Node1&#45;&gt;Node10 -->
<g id="edge10_Node000001_Node000010" class="edge">
<title>Node1&#45;&gt;Node10</title>
<g id="a_edge10_Node000001_Node000010"><a xlink:title=" ">
<path fill="none" stroke="#63b8ff" d="M123.45,-150.17C134.09,-151.77 145.25,-153.45 156.16,-155.1"/>
<polygon fill="#63b8ff" stroke="#63b8ff" points="155.5,-158.54 165.91,-156.57 156.54,-151.62 155.5,-158.54"/>
</a>
</g>
</g>
<!-- Node6&#45;&gt;Node3 -->
<g id="edge6_Node000006_Node000003" class="edge">
<title>Node6&#45;&gt;Node3</title>
<g id="a_edge6_Node000006_Node000003"><a xlink:title=" ">
<path fill="none" stroke="#63b8ff" d="M284.87,-132.36C290.1,-134.88 295.16,-137.75 299.75,-141 320.38,-155.59 314.87,-170.77 335.75,-185 337.7,-186.33 339.75,-187.57 341.86,-188.72"/>
<polygon fill="#63b8ff" stroke="#63b8ff" points="340.23,-191.82 350.77,-192.91 343.21,-185.49 340.23,-191.82"/>
</a>
</g>
</g>
<!-- Node7 -->
<g id="Node000007" class="node">
<title>Node7</title>
<g id="a_Node000007"><a xlink:href="namespaceRtypeServer.html#a29d016de4637084d2ec30b53700af223" target="_top" xlink:title=" ">
<polygon fill="white" stroke="#666666" points="446.25,-126 345.5,-126 345.5,-106 446.25,-106 446.25,-126"/>
<text text-anchor="middle" x="395.88" y="-112.5" font-family="Helvetica,sans-Serif" font-size="10.00">RtypeServer::warnf</text>
</a>
</g>
</g>
<!-- Node6&#45;&gt;Node7 -->
<g id="edge7_Node000006_Node000007" class="edge">
<title>Node6&#45;&gt;Node7</title>
<g id="a_edge7_Node000006_Node000007"><a xlink:title=" ">
<path fill="none" stroke="#63b8ff" d="M291.24,-116C305.1,-116 319.84,-116 333.72,-116"/>
<polygon fill="#63b8ff" stroke="#63b8ff" points="333.62,-119.5 343.62,-116 333.62,-112.5 333.62,-119.5"/>
</a>
</g>
</g>
<!-- Node8 -->
<g id="Node000008" class="node">
<title>Node8</title>
<g id="a_Node000008"><a xlink:href="classRtypeServer_1_1Protocol.html#ad918184440d6fcb33f231a7173a67399" target="_top" xlink:title=" ">
<polygon fill="white" stroke="#666666" points="452.25,-176 339.5,-176 339.5,-144 452.25,-144 452.25,-176"/>
<text text-anchor="start" x="347.5" y="-162.5" font-family="Helvetica,sans-Serif" font-size="10.00">RtypeServer::Protocol</text>
<text text-anchor="middle" x="395.88" y="-150.5" font-family="Helvetica,sans-Serif" font-size="10.00">::writeHeader</text>
</a>
</g>
</g>
<!-- Node6&#45;&gt;Node8 -->
<g id="edge8_Node000006_Node000008" class="edge">
<title>Node6&#45;&gt;Node8</title>
<g id="a_edge8_Node000006_Node000008"><a xlink:title=" ">
<path fill="none" stroke="#63b8ff" d="M291.24,-132.26C303.21,-135.46 315.84,-138.84 328,-142.1"/>
<polygon fill="#63b8ff" stroke="#63b8ff" points="326.98,-145.45 337.55,-144.65 328.79,-138.69 326.98,-145.45"/>
</a>
</g>
</g>
<!-- Node9 -->
<g id="Node000009" class="node">
<title>Node9</title>
<g id="a_Node000009"><a xlink:href="classRtypeServer_1_1Protocol.html#a5b46d0759af7c3a4f3925420298c171a" target="_top" xlink:title=" ">
<polygon fill="white" stroke="#666666" points="452.25,-88 339.5,-88 339.5,-56 452.25,-56 452.25,-88"/>
<text text-anchor="start" x="347.5" y="-74.5" font-family="Helvetica,sans-Serif" font-size="10.00">RtypeServer::Protocol</text>
<text text-anchor="middle" x="395.88" y="-62.5" font-family="Helvetica,sans-Serif" font-size="10.00">::writeRoomErrorBody</text>
</a>
</g>
</g>
<!-- Node6&#45;&gt;Node9 -->
<g id="edge9_Node000006_Node000009" class="edge">
<title>Node6&#45;&gt;Node9</title>
<g id="a_edge9_Node000006_Node000009"><a xlink:title=" ">
<path fill="none" stroke="#63b8ff" d="M291.24,-99.74C303.21,-96.54 315.84,-93.16 328,-89.9"/>
<polygon fill="#63b8ff" stroke="#63b8ff" points="328.79,-93.31 337.55,-87.35 326.98,-86.55 328.79,-93.31"/>
</a>
</g>
</g>
<!-- Node10&#45;&gt;Node3 -->
<g id="edge11_Node000010_Node000003" class="edge">
<title>Node10&#45;&gt;Node3</title>
<g id="a_edge11_Node000010_Node000003"><a xlink:title=" ">
<path fill="none" stroke="#63b8ff" d="M291.24,-180.04C306.77,-183.63 323.39,-187.48 338.68,-191.01"/>
<polygon fill="#63b8ff" stroke="#63b8ff" points="337.54,-194.34 348.07,-193.18 339.11,-187.52 337.54,-194.34"/>
</a>
</g>
</g>
<!-- Node10&#45;&gt;Node7 -->
<g id="edge12_Node000010_Node000007" class="edge">
<title>Node10&#45;&gt;Node7</title>
<g id="a_edge12_Node000010_Node000007"><a xlink:title=" ">
<path fill="none" stroke="#63b8ff" d="M284.32,-149.63C305.49,-143.19 329.53,-135.88 349.77,-129.72"/>
<polygon fill="#63b8ff" stroke="#63b8ff" points="350.58,-133.13 359.13,-126.87 348.55,-126.43 350.58,-133.13"/>
</a>
</g>
</g>
<!-- Node10&#45;&gt;Node8 -->
<g id="edge13_Node000010_Node000008" class="edge">
<title>Node10&#45;&gt;Node8</title>
<g id="a_edge13_Node000010_Node000008"><a xlink:title=" ">
<path fill="none" stroke="#63b8ff" d="M291.24,-163.78C303.09,-163.35 315.58,-162.89 327.63,-162.45"/>
<polygon fill="#63b8ff" stroke="#63b8ff" points="327.63,-165.96 337.5,-162.09 327.38,-158.96 327.63,-165.96"/>
</a>
</g>
</g>
<!-- Node11 -->
<g id="Node000011" class="node">
<title>Node11</title>
<g id="a_Node000011"><a xlink:href="classRtypeServer_1_1Protocol.html#a60211e1b53451ea55a75054580b325aa" target="_top" xlink:title=" ">
<polygon fill="white" stroke="#666666" points="456,-264 335.75,-264 335.75,-232 456,-232 456,-264"/>
<text text-anchor="start" x="343.75" y="-250.5" font-family="Helvetica,sans-Serif" font-size="10.00">RtypeServer::Protocol</text>
<text text-anchor="middle" x="395.88" y="-238.5" font-family="Helvetica,sans-Serif" font-size="10.00">::writeRoomJoinedBody</text>
</a>
</g>
</g>
<!-- Node10&#45;&gt;Node11 -->
<g id="edge14_Node000010_Node000011" class="edge">
<title>Node10&#45;&gt;Node11</title>
<g id="a_edge14_Node000010_Node000011"><a xlink:title=" ">
<path fill="none" stroke="#63b8ff" d="M259.15,-182.49C280.1,-194.3 309.34,-210.3 335.75,-223 338.48,-224.31 341.3,-225.63 344.15,-226.93"/>
<polygon fill="#63b8ff" stroke="#63b8ff" points="342.63,-230.08 353.19,-230.96 345.48,-223.69 342.63,-230.08"/>
</a>
</g>
</g>
</g>
</svg>
