<?xml version="1.0" encoding="UTF-8" standalone="no"?>
<!DOCTYPE svg PUBLIC "-//W3C//DTD SVG 1.1//EN"
 "http://www.w3.org/Graphics/SVG/1.1/DTD/svg11.dtd">
<!-- Generated by graphviz version 12.1.0 (20240811.2233)
 -->
<!-- Title: Engine::Systems::Collision Pages: 1 -->
<svg width="136pt" height="164pt"
 viewBox="0.00 0.00 136.00 164.00" xmlns="http://www.w3.org/2000/svg" xmlns:xlink="http://www.w3.org/1999/xlink">
<g id="graph0" class="graph" transform="scale(1 1) rotate(0) translate(4 160)">
<title>Engine::Systems::Collision</title>
<!-- Node1 -->
<g id="Node000001" class="node">
<title>Node1</title>
<g id="a_Node000001"><a xlink:title=" ">
<polygon fill="#999999" stroke="none" points="128,-68 0,-68 0,0 128,0 128,-68"/>
<text text-anchor="start" x="4.75" y="-54.5" font-family="Helvetica,sans-Serif" font-size="10.00">Engine::Systems::Collision</text>
<text text-anchor="start" x="15" y="-38.5" font-family="Helvetica,sans-Serif" font-size="10.00">&#45;</text>
<text text-anchor="start" x="33" y="-38.5" font-family="Helvetica,sans-Serif" font-size="10.00">active_collisions</text>
<text text-anchor="start" x="13.5" y="-22.5" font-family="Helvetica,sans-Serif" font-size="10.00">+</text>
<text text-anchor="start" x="33" y="-22.5" font-family="Helvetica,sans-Serif" font-size="10.00">update()</text>
<text text-anchor="start" x="15" y="-6.5" font-family="Helvetica,sans-Serif" font-size="10.00">&#45;</text>
<text text-anchor="start" x="33" y="-6.5" font-family="Helvetica,sans-Serif" font-size="10.00">checkCollision()</text>
<polygon fill="#666666" stroke="#666666" points="0,-50 0,-50 128,-50 128,-50 0,-50"/>
<polygon fill="#666666" stroke="#666666" points="0,-34 0,-34 31,-34 31,-34 0,-34"/>
<polygon fill="#666666" stroke="#666666" points="31,-34 31,-34 128,-34 128,-34 31,-34"/>
<polygon fill="none" stroke="#666666" points="0,0 0,-68 128,-68 128,0 0,0"/>
</a>
</g>
</g>
<!-- Node2 -->
<g id="Node000002" class="node">
<title>Node2</title>
<g id="a_Node000002"><a xlink:href="classEngine_1_1System.html" target="_top" xlink:title=" ">
<polygon fill="white" stroke="none" points="103.5,-156 24.5,-156 24.5,-104 103.5,-104 103.5,-156"/>
<text text-anchor="start" x="29.12" y="-142.5" font-family="Helvetica,sans-Serif" font-size="10.00">Engine::System</text>
<text text-anchor="start" x="36" y="-126.5" font-family="Helvetica,sans-Serif" font-size="10.00">+</text>
<text text-anchor="start" x="53.5" y="-126.5" font-family="Helvetica,sans-Serif" font-size="10.00">entities</text>
<text text-anchor="start" x="62.5" y="-110.5" font-family="Helvetica,sans-Serif" font-size="10.00"> </text>
<polygon fill="#666666" stroke="#666666" points="24.5,-138 24.5,-138 103.5,-138 103.5,-138 24.5,-138"/>
<polygon fill="#666666" stroke="#666666" points="24.5,-122 24.5,-122 51.5,-122 51.5,-122 24.5,-122"/>
<polygon fill="#666666" stroke="#666666" points="51.5,-122 51.5,-122 103.5,-122 103.5,-122 51.5,-122"/>
<polygon fill="none" stroke="#666666" points="24.5,-104 24.5,-156 103.5,-156 103.5,-104 24.5,-104"/>
</a>
</g>
</g>
<!-- Node2&#45;&gt;Node1 -->
<g id="edge1_Node000001_Node000002" class="edge">
<title>Node2&#45;&gt;Node1</title>
<g id="a_edge1_Node000001_Node000002"><a xlink:title=" ">
<path fill="none" stroke="#63b8ff" d="M64,-92.97C64,-84.65 64,-75.84 64,-67.67"/>
<polygon fill="none" stroke="#63b8ff" points="60.5,-92.79 64,-102.79 67.5,-92.79 60.5,-92.79"/>
</a>
</g>
</g>
</g>
</svg>
