<?xml version="1.0" encoding="UTF-8" standalone="no"?>
<!DOCTYPE svg PUBLIC "-//W3C//DTD SVG 1.1//EN"
 "http://www.w3.org/Graphics/SVG/1.1/DTD/svg11.dtd">
<!-- Generated by graphviz version 12.1.0 (20240811.2233)
 -->
<!-- Title: ParticleSystem::spawnParticle Pages: 1 -->
<svg width="353pt" height="216pt"
 viewBox="0.00 0.00 352.75 216.00" xmlns="http://www.w3.org/2000/svg" xmlns:xlink="http://www.w3.org/1999/xlink">
<g id="graph0" class="graph" transform="scale(1 1) rotate(0) translate(4 212)">
<title>ParticleSystem::spawnParticle</title>
<!-- Node1 -->
<g id="Node000001" class="node">
<title>Node1</title>
<g id="a_Node000001"><a xlink:title=" ">
<polygon fill="#999999" stroke="#666666" points="150.25,-114 0,-114 0,-94 150.25,-94 150.25,-114"/>
<text text-anchor="middle" x="75.12" y="-100.5" font-family="Helvetica,sans-Serif" font-size="10.00">ParticleSystem::spawnParticle</text>
</a>
</g>
</g>
<!-- Node2 -->
<g id="Node000002" class="node">
<title>Node2</title>
<g id="a_Node000002"><a xlink:href="classParticleSystem.html#a45c54539a80ca1de8f827e3c081f4dc0" target="_top" xlink:title=" ">
<polygon fill="white" stroke="#666666" points="335,-208 196,-208 196,-176 335,-176 335,-208"/>
<text text-anchor="start" x="204" y="-194.5" font-family="Helvetica,sans-Serif" font-size="10.00">ParticleSystem::getRandom</text>
<text text-anchor="middle" x="265.5" y="-182.5" font-family="Helvetica,sans-Serif" font-size="10.00">Color</text>
</a>
</g>
</g>
<!-- Node1&#45;&gt;Node2 -->
<g id="edge1_Node000001_Node000002" class="edge">
<title>Node1&#45;&gt;Node2</title>
<g id="a_edge1_Node000001_Node000002"><a xlink:title=" ">
<path fill="none" stroke="#63b8ff" d="M91.63,-114.27C112.46,-127.74 150.97,-151.48 186.25,-167 189.82,-168.57 193.52,-170.09 197.27,-171.55"/>
<polygon fill="#63b8ff" stroke="#63b8ff" points="195.96,-174.8 206.56,-174.99 198.39,-168.23 195.96,-174.8"/>
</a>
</g>
</g>
<!-- Node3 -->
<g id="Node000003" class="node">
<title>Node3</title>
<g id="a_Node000003"><a xlink:href="classParticleSystem.html#a0bfa46f2bc767edf8e857b6308708b31" target="_top" xlink:title=" ">
<polygon fill="white" stroke="#666666" points="342.88,-158 188.12,-158 188.12,-138 342.88,-138 342.88,-158"/>
<text text-anchor="middle" x="265.5" y="-144.5" font-family="Helvetica,sans-Serif" font-size="10.00">ParticleSystem::getRandomLife</text>
</a>
</g>
</g>
<!-- Node1&#45;&gt;Node3 -->
<g id="edge2_Node000001_Node000003" class="edge">
<title>Node1&#45;&gt;Node3</title>
<g id="a_edge2_Node000001_Node000003"><a xlink:title=" ">
<path fill="none" stroke="#63b8ff" d="M120.77,-114.43C147.18,-120.6 180.86,-128.46 208.98,-135.03"/>
<polygon fill="#63b8ff" stroke="#63b8ff" points="207.84,-138.36 218.38,-137.23 209.44,-131.54 207.84,-138.36"/>
</a>
</g>
</g>
<!-- Node4 -->
<g id="Node000004" class="node">
<title>Node4</title>
<g id="a_Node000004"><a xlink:href="classParticleSystem.html#ab46d7e29af8876dfa45f1e834e2dc2ee" target="_top" xlink:title=" ">
<polygon fill="white" stroke="#666666" points="335,-120 196,-120 196,-88 335,-88 335,-120"/>
<text text-anchor="start" x="204" y="-106.5" font-family="Helvetica,sans-Serif" font-size="10.00">ParticleSystem::getRandom</text>
<text text-anchor="middle" x="265.5" y="-94.5" font-family="Helvetica,sans-Serif" font-size="10.00">Position</text>
</a>
</g>
</g>
<!-- Node1&#45;&gt;Node4 -->
<g id="edge3_Node000001_Node000004" class="edge">
<title>Node1&#45;&gt;Node4</title>
<g id="a_edge3_Node000001_Node000004"><a xlink:title=" ">
<path fill="none" stroke="#63b8ff" d="M150.58,-104C161.76,-104 173.33,-104 184.62,-104"/>
<polygon fill="#63b8ff" stroke="#63b8ff" points="184.28,-107.5 194.28,-104 184.28,-100.5 184.28,-107.5"/>
</a>
</g>
</g>
<!-- Node5 -->
<g id="Node000005" class="node">
<title>Node5</title>
<g id="a_Node000005"><a xlink:href="classParticleSystem.html#a19c9832490b8c9b47ea11629b677663c" target="_top" xlink:title=" ">
<polygon fill="white" stroke="#666666" points="344.75,-70 186.25,-70 186.25,-50 344.75,-50 344.75,-70"/>
<text text-anchor="middle" x="265.5" y="-56.5" font-family="Helvetica,sans-Serif" font-size="10.00">ParticleSystem::getRandomSize</text>
</a>
</g>
</g>
<!-- Node1&#45;&gt;Node5 -->
<g id="edge4_Node000001_Node000005" class="edge">
<title>Node1&#45;&gt;Node5</title>
<g id="a_edge4_Node000001_Node000005"><a xlink:title=" ">
<path fill="none" stroke="#63b8ff" d="M120.77,-93.57C147.18,-87.4 180.86,-79.54 208.98,-72.97"/>
<polygon fill="#63b8ff" stroke="#63b8ff" points="209.44,-76.46 218.38,-70.77 207.84,-69.64 209.44,-76.46"/>
</a>
</g>
</g>
<!-- Node6 -->
<g id="Node000006" class="node">
<title>Node6</title>
<g id="a_Node000006"><a xlink:href="classParticleSystem.html#a37517ae9e46755a487c7e681ebaab64b" target="_top" xlink:title=" ">
<polygon fill="white" stroke="#666666" points="335,-32 196,-32 196,0 335,0 335,-32"/>
<text text-anchor="start" x="204" y="-18.5" font-family="Helvetica,sans-Serif" font-size="10.00">ParticleSystem::getRandom</text>
<text text-anchor="middle" x="265.5" y="-6.5" font-family="Helvetica,sans-Serif" font-size="10.00">Velocity</text>
</a>
</g>
</g>
<!-- Node1&#45;&gt;Node6 -->
<g id="edge5_Node000001_Node000006" class="edge">
<title>Node1&#45;&gt;Node6</title>
<g id="a_edge5_Node000001_Node000006"><a xlink:title=" ">
<path fill="none" stroke="#63b8ff" d="M91.63,-93.73C112.46,-80.26 150.97,-56.52 186.25,-41 189.82,-39.43 193.52,-37.91 197.27,-36.45"/>
<polygon fill="#63b8ff" stroke="#63b8ff" points="198.39,-39.77 206.56,-33.01 195.96,-33.2 198.39,-39.77"/>
</a>
</g>
</g>
</g>
</svg>
