<?xml version="1.0" encoding="UTF-8" standalone="no"?>
<!DOCTYPE svg PUBLIC "-//W3C//DTD SVG 1.1//EN"
 "http://www.w3.org/Graphics/SVG/1.1/DTD/svg11.dtd">
<!-- Generated by graphviz version 12.1.0 (20240811.2233)
 -->
<!-- Title: GameManager::onRoomList Pages: 1 -->
<svg width="321pt" height="104pt"
 viewBox="0.00 0.00 321.25 104.00" xmlns="http://www.w3.org/2000/svg" xmlns:xlink="http://www.w3.org/1999/xlink">
<g id="graph0" class="graph" transform="scale(1 1) rotate(0) translate(4 100)">
<title>GameManager::onRoomList</title>
<!-- Node1 -->
<g id="Node000001" class="node">
<title>Node1</title>
<g id="a_Node000001"><a xlink:title=" ">
<polygon fill="#999999" stroke="#666666" points="138.25,-58 0,-58 0,-38 138.25,-38 138.25,-58"/>
<text text-anchor="middle" x="69.12" y="-44.5" font-family="Helvetica,sans-Serif" font-size="10.00">GameManager::onRoomList</text>
</a>
</g>
</g>
<!-- Node2 -->
<g id="Node000002" class="node">
<title>Node2</title>
<g id="a_Node000002"><a xlink:href="classGameManager.html#af597fa0982e7be211f1400f929fabeaf" target="_top" xlink:title=" ">
<polygon fill="white" stroke="#666666" points="313.25,-96 174.25,-96 174.25,-76 313.25,-76 313.25,-96"/>
<text text-anchor="middle" x="243.75" y="-82.5" font-family="Helvetica,sans-Serif" font-size="10.00">GameManager::createRoom</text>
</a>
</g>
</g>
<!-- Node1&#45;&gt;Node2 -->
<g id="edge1_Node000001_Node000002" class="edge">
<title>Node1&#45;&gt;Node2</title>
<g id="a_edge1_Node000001_Node000002"><a xlink:title=" ">
<path fill="none" stroke="#63b8ff" d="M117.75,-58.48C138.32,-63.01 162.58,-68.35 184.23,-73.12"/>
<polygon fill="#63b8ff" stroke="#63b8ff" points="183.28,-76.49 193.8,-75.22 184.79,-69.66 183.28,-76.49"/>
</a>
</g>
</g>
<!-- Node3 -->
<g id="Node000003" class="node">
<title>Node3</title>
<g id="a_Node000003"><a xlink:href="GameTypes_8hpp.html#ae3c1e425aceb99f3cab2037f4b24ab1c" target="_top" xlink:title=" ">
<polygon fill="white" stroke="#666666" points="303.5,-58 184,-58 184,-38 303.5,-38 303.5,-58"/>
<text text-anchor="middle" x="243.75" y="-44.5" font-family="Helvetica,sans-Serif" font-size="10.00">getMaxPlayersForMode</text>
</a>
</g>
</g>
<!-- Node1&#45;&gt;Node3 -->
<g id="edge2_Node000001_Node000003" class="edge">
<title>Node1&#45;&gt;Node3</title>
<g id="a_edge2_Node000001_Node000003"><a xlink:title=" ">
<path fill="none" stroke="#63b8ff" d="M138.35,-48C149.47,-48 161.01,-48 172.19,-48"/>
<polygon fill="#63b8ff" stroke="#63b8ff" points="172.16,-51.5 182.16,-48 172.16,-44.5 172.16,-51.5"/>
</a>
</g>
</g>
<!-- Node4 -->
<g id="Node000004" class="node">
<title>Node4</title>
<g id="a_Node000004"><a xlink:href="classGameManager.html#aa4a2d722a376c7c2025a6172d39e5f16" target="_top" xlink:title=" ">
<polygon fill="white" stroke="#666666" points="307.25,-20 180.25,-20 180.25,0 307.25,0 307.25,-20"/>
<text text-anchor="middle" x="243.75" y="-6.5" font-family="Helvetica,sans-Serif" font-size="10.00">GameManager::joinRoom</text>
</a>
</g>
</g>
<!-- Node1&#45;&gt;Node4 -->
<g id="edge3_Node000001_Node000004" class="edge">
<title>Node1&#45;&gt;Node4</title>
<g id="a_edge3_Node000001_Node000004"><a xlink:title=" ">
<path fill="none" stroke="#63b8ff" d="M117.75,-37.52C138.32,-32.99 162.58,-27.65 184.23,-22.88"/>
<polygon fill="#63b8ff" stroke="#63b8ff" points="184.79,-26.34 193.8,-20.78 183.28,-19.51 184.79,-26.34"/>
</a>
</g>
</g>
</g>
</svg>
