<?xml version="1.0" encoding="UTF-8" standalone="no"?>
<!DOCTYPE svg PUBLIC "-//W3C//DTD SVG 1.1//EN"
 "http://www.w3.org/Graphics/SVG/1.1/DTD/svg11.dtd">
<!-- Generated by graphviz version 12.1.0 (20240811.2233)
 -->
<!-- Title: NetworkClient::startReceive Pages: 1 -->
<svg width="864pt" height="450pt"
 viewBox="0.00 0.00 864.25 450.00" xmlns="http://www.w3.org/2000/svg" xmlns:xlink="http://www.w3.org/1999/xlink">
<g id="graph0" class="graph" transform="scale(1 1) rotate(0) translate(4 446)">
<title>NetworkClient::startReceive</title>
<!-- Node1 -->
<g id="Node000001" class="node">
<title>Node1</title>
<g id="a_Node000001"><a xlink:title=" ">
<polygon fill="#999999" stroke="#666666" points="139.75,-226 0,-226 0,-206 139.75,-206 139.75,-226"/>
<text text-anchor="middle" x="69.88" y="-212.5" font-family="Helvetica,sans-Serif" font-size="10.00">NetworkClient::startReceive</text>
</a>
</g>
</g>
<!-- Node2 -->
<g id="Node000002" class="node">
<title>Node2</title>
<g id="a_Node000002"><a xlink:href="classNetworkClient.html#ae2e39148013eaea326c8ae242ab341bc" target="_top" xlink:title=" ">
<polygon fill="white" stroke="#666666" points="324.5,-226 175.75,-226 175.75,-206 324.5,-206 324.5,-226"/>
<text text-anchor="middle" x="250.12" y="-212.5" font-family="Helvetica,sans-Serif" font-size="10.00">NetworkClient::handleReceive</text>
</a>
</g>
</g>
<!-- Node1&#45;&gt;Node2 -->
<g id="edge1_Node000001_Node000002" class="edge">
<title>Node1&#45;&gt;Node2</title>
<g id="a_edge1_Node000001_Node000002"><a xlink:title=" ">
<path fill="none" stroke="#63b8ff" d="M140.05,-209.4C147.89,-209.28 155.96,-209.23 163.98,-209.26"/>
<polygon fill="#63b8ff" stroke="#63b8ff" points="163.73,-212.75 173.76,-209.33 163.78,-205.75 163.73,-212.75"/>
</a>
</g>
</g>
<!-- Node2&#45;&gt;Node1 -->
<g id="edge14_Node000002_Node000001" class="edge">
<title>Node2&#45;&gt;Node1</title>
<g id="a_edge14_Node000002_Node000001"><a xlink:title=" ">
<path fill="none" stroke="#63b8ff" d="M175.27,-222.66C167.44,-222.75 159.44,-222.77 151.54,-222.72"/>
<polygon fill="#63b8ff" stroke="#63b8ff" points="151.6,-219.22 141.56,-222.61 151.52,-226.22 151.6,-219.22"/>
</a>
</g>
</g>
<!-- Node3 -->
<g id="Node000003" class="node">
<title>Node3</title>
<g id="a_Node000003"><a xlink:href="classNetworkClient.html#a3db47d9224d5319ffca153c4a4784329" target="_top" xlink:title=" ">
<polygon fill="white" stroke="#666666" points="519,-226 360.5,-226 360.5,-206 519,-206 519,-226"/>
<text text-anchor="middle" x="439.75" y="-212.5" font-family="Helvetica,sans-Serif" font-size="10.00">NetworkClient::processMessage</text>
</a>
</g>
</g>
<!-- Node2&#45;&gt;Node3 -->
<g id="edge2_Node000002_Node000003" class="edge">
<title>Node2&#45;&gt;Node3</title>
<g id="a_edge2_Node000002_Node000003"><a xlink:title=" ">
<path fill="none" stroke="#63b8ff" d="M324.74,-216C332.63,-216 340.71,-216 348.76,-216"/>
<polygon fill="#63b8ff" stroke="#63b8ff" points="348.57,-219.5 358.57,-216 348.57,-212.5 348.57,-219.5"/>
</a>
</g>
</g>
<!-- Node4 -->
<g id="Node000004" class="node">
<title>Node4</title>
<g id="a_Node000004"><a xlink:href="classNetworkClient.html#a4c76dee697263665a9903aeb7149b81b" target="_top" xlink:title=" ">
<polygon fill="white" stroke="#666666" points="683.88,-420 555.38,-420 555.38,-400 683.88,-400 683.88,-420"/>
<text text-anchor="middle" x="619.62" y="-406.5" font-family="Helvetica,sans-Serif" font-size="10.00">NetworkClient::listRooms</text>
</a>
</g>
</g>
<!-- Node3&#45;&gt;Node4 -->
<g id="edge3_Node000003_Node000004" class="edge">
<title>Node3&#45;&gt;Node4</title>
<g id="a_edge3_Node000003_Node000004"><a xlink:title=" ">
<path fill="none" stroke="#63b8ff" d="M444.41,-226.08C455.82,-256.01 493.65,-345.2 555,-391 556.73,-392.29 558.55,-393.5 560.44,-394.62"/>
<polygon fill="#63b8ff" stroke="#63b8ff" points="558.45,-397.54 568.95,-398.91 561.59,-391.29 558.45,-397.54"/>
</a>
</g>
</g>
<!-- Node7 -->
<g id="Node000007" class="node">
<title>Node7</title>
<g id="a_Node000007"><a xlink:href="classRtypeServer_1_1Protocol.html#a7ae416c1a86e67eb7500bd81868540cb" target="_top" xlink:title=" ">
<polygon fill="white" stroke="#666666" points="676,-382 563.25,-382 563.25,-350 676,-350 676,-382"/>
<text text-anchor="start" x="571.25" y="-368.5" font-family="Helvetica,sans-Serif" font-size="10.00">RtypeServer::Protocol</text>
<text text-anchor="middle" x="619.62" y="-356.5" font-family="Helvetica,sans-Serif" font-size="10.00">::readHeader</text>
</a>
</g>
</g>
<!-- Node3&#45;&gt;Node7 -->
<g id="edge6_Node000003_Node000007" class="edge">
<title>Node3&#45;&gt;Node7</title>
<g id="a_edge6_Node000003_Node000007"><a xlink:title=" ">
<path fill="none" stroke="#63b8ff" d="M447.56,-226.19C463.64,-249.55 506.31,-307.52 555,-341 556.58,-342.09 558.21,-343.14 559.89,-344.15"/>
<polygon fill="#63b8ff" stroke="#63b8ff" points="558.05,-347.13 568.51,-348.82 561.38,-340.98 558.05,-347.13"/>
</a>
</g>
</g>
<!-- Node8 -->
<g id="Node000008" class="node">
<title>Node8</title>
<g id="a_Node000008"><a xlink:href="classRtypeServer_1_1Protocol.html#aefe182e0b8207a9b0c5c9314fc9bcc24" target="_top" xlink:title=" ">
<polygon fill="white" stroke="#666666" points="681.62,-332 557.62,-332 557.62,-300 681.62,-300 681.62,-332"/>
<text text-anchor="start" x="565.62" y="-318.5" font-family="Helvetica,sans-Serif" font-size="10.00">RtypeServer::Protocol</text>
<text text-anchor="middle" x="619.62" y="-306.5" font-family="Helvetica,sans-Serif" font-size="10.00">::readRoomCreatedBody</text>
</a>
</g>
</g>
<!-- Node3&#45;&gt;Node8 -->
<g id="edge7_Node000003_Node000008" class="edge">
<title>Node3&#45;&gt;Node8</title>
<g id="a_edge7_Node000003_Node000008"><a xlink:title=" ">
<path fill="none" stroke="#63b8ff" d="M454.6,-226.46C475.54,-241.94 516.86,-271.26 555,-291 557.54,-292.31 560.16,-293.6 562.83,-294.85"/>
<polygon fill="#63b8ff" stroke="#63b8ff" points="561.33,-298.02 571.89,-298.9 564.18,-291.63 561.33,-298.02"/>
</a>
</g>
</g>
<!-- Node9 -->
<g id="Node000009" class="node">
<title>Node9</title>
<g id="a_Node000009"><a xlink:href="classRtypeServer_1_1Protocol.html#ad791c08d720fad6c97eb1281c0d3f793" target="_top" xlink:title=" ">
<polygon fill="white" stroke="#666666" points="676,-282 563.25,-282 563.25,-250 676,-250 676,-282"/>
<text text-anchor="start" x="571.25" y="-268.5" font-family="Helvetica,sans-Serif" font-size="10.00">RtypeServer::Protocol</text>
<text text-anchor="middle" x="619.62" y="-256.5" font-family="Helvetica,sans-Serif" font-size="10.00">::readRoomErrorBody</text>
</a>
</g>
</g>
<!-- Node3&#45;&gt;Node9 -->
<g id="edge8_Node000003_Node000009" class="edge">
<title>Node3&#45;&gt;Node9</title>
<g id="a_edge8_Node000003_Node000009"><a xlink:title=" ">
<path fill="none" stroke="#63b8ff" d="M478.04,-226.48C499.42,-232.49 526.91,-240.22 551.89,-247.24"/>
<polygon fill="#63b8ff" stroke="#63b8ff" points="550.76,-250.56 561.34,-249.9 552.66,-243.82 550.76,-250.56"/>
</a>
</g>
</g>
<!-- Node10 -->
<g id="Node000010" class="node">
<title>Node10</title>
<g id="a_Node000010"><a xlink:href="classRtypeServer_1_1Protocol.html#afe33d8c3050627d0039de4bf29dcb5a1" target="_top" xlink:title=" ">
<polygon fill="white" stroke="#666666" points="678.62,-232 560.62,-232 560.62,-200 678.62,-200 678.62,-232"/>
<text text-anchor="start" x="568.62" y="-218.5" font-family="Helvetica,sans-Serif" font-size="10.00">RtypeServer::Protocol</text>
<text text-anchor="middle" x="619.62" y="-206.5" font-family="Helvetica,sans-Serif" font-size="10.00">::readRoomJoinedBody</text>
</a>
</g>
</g>
<!-- Node3&#45;&gt;Node10 -->
<g id="edge9_Node000003_Node000010" class="edge">
<title>Node3&#45;&gt;Node10</title>
<g id="a_edge9_Node000003_Node000010"><a xlink:title=" ">
<path fill="none" stroke="#63b8ff" d="M519.29,-216C529.19,-216 539.26,-216 549.01,-216"/>
<polygon fill="#63b8ff" stroke="#63b8ff" points="548.76,-219.5 558.76,-216 548.76,-212.5 548.76,-219.5"/>
</a>
</g>
</g>
<!-- Node11 -->
<g id="Node000011" class="node">
<title>Node11</title>
<g id="a_Node000011"><a xlink:href="classRtypeServer_1_1Protocol.html#abde690c7dc5ee22f6e646cbbf7523b3b" target="_top" xlink:title=" ">
<polygon fill="white" stroke="#666666" points="676,-182 563.25,-182 563.25,-150 676,-150 676,-182"/>
<text text-anchor="start" x="571.25" y="-168.5" font-family="Helvetica,sans-Serif" font-size="10.00">RtypeServer::Protocol</text>
<text text-anchor="middle" x="619.62" y="-156.5" font-family="Helvetica,sans-Serif" font-size="10.00">::readRoomLeftBody</text>
</a>
</g>
</g>
<!-- Node3&#45;&gt;Node11 -->
<g id="edge10_Node000003_Node000011" class="edge">
<title>Node3&#45;&gt;Node11</title>
<g id="a_edge10_Node000003_Node000011"><a xlink:title=" ">
<path fill="none" stroke="#63b8ff" d="M478.04,-205.52C499.42,-199.51 526.91,-191.78 551.89,-184.76"/>
<polygon fill="#63b8ff" stroke="#63b8ff" points="552.66,-188.18 561.34,-182.1 550.76,-181.44 552.66,-188.18"/>
</a>
</g>
</g>
<!-- Node12 -->
<g id="Node000012" class="node">
<title>Node12</title>
<g id="a_Node000012"><a xlink:href="classRtypeServer_1_1Protocol.html#ad9b727fe0be0c583db5a98d5b5b3a04b" target="_top" xlink:title=" ">
<polygon fill="white" stroke="#666666" points="676,-132 563.25,-132 563.25,-100 676,-100 676,-132"/>
<text text-anchor="start" x="571.25" y="-118.5" font-family="Helvetica,sans-Serif" font-size="10.00">RtypeServer::Protocol</text>
<text text-anchor="middle" x="619.62" y="-106.5" font-family="Helvetica,sans-Serif" font-size="10.00">::readRoomListBody</text>
</a>
</g>
</g>
<!-- Node3&#45;&gt;Node12 -->
<g id="edge11_Node000003_Node000012" class="edge">
<title>Node3&#45;&gt;Node12</title>
<g id="a_edge11_Node000003_Node000012"><a xlink:title=" ">
<path fill="none" stroke="#63b8ff" d="M454.6,-205.54C475.54,-190.06 516.86,-160.74 555,-141 557.54,-139.69 560.16,-138.4 562.83,-137.15"/>
<polygon fill="#63b8ff" stroke="#63b8ff" points="564.18,-140.37 571.89,-133.1 561.33,-133.98 564.18,-140.37"/>
</a>
</g>
</g>
<!-- Node13 -->
<g id="Node000013" class="node">
<title>Node13</title>
<g id="a_Node000013"><a xlink:href="classRtypeServer_1_1Protocol.html#a1d59245eae226e073600c4c8157388c0" target="_top" xlink:title=" ">
<polygon fill="white" stroke="#666666" points="684.25,-82 555,-82 555,-50 684.25,-50 684.25,-82"/>
<text text-anchor="start" x="563" y="-68.5" font-family="Helvetica,sans-Serif" font-size="10.00">RtypeServer::Protocol</text>
<text text-anchor="middle" x="619.62" y="-56.5" font-family="Helvetica,sans-Serif" font-size="10.00">::readRoomMessageBody</text>
</a>
</g>
</g>
<!-- Node3&#45;&gt;Node13 -->
<g id="edge12_Node000003_Node000013" class="edge">
<title>Node3&#45;&gt;Node13</title>
<g id="a_edge12_Node000003_Node000013"><a xlink:title=" ">
<path fill="none" stroke="#63b8ff" d="M447.56,-205.81C463.64,-182.45 506.31,-124.48 555,-91 556.58,-89.91 558.21,-88.86 559.89,-87.85"/>
<polygon fill="#63b8ff" stroke="#63b8ff" points="561.38,-91.02 568.51,-83.18 558.05,-84.87 561.38,-91.02"/>
</a>
</g>
</g>
<!-- Node14 -->
<g id="Node000014" class="node">
<title>Node14</title>
<g id="a_Node000014"><a xlink:href="classRtypeServer_1_1Protocol.html#ac5cd35b625c214fe377e3efead2f4f8d" target="_top" xlink:title=" ">
<polygon fill="white" stroke="#666666" points="676,-32 563.25,-32 563.25,0 676,0 676,-32"/>
<text text-anchor="start" x="571.25" y="-18.5" font-family="Helvetica,sans-Serif" font-size="10.00">RtypeServer::Protocol</text>
<text text-anchor="middle" x="619.62" y="-6.5" font-family="Helvetica,sans-Serif" font-size="10.00">::readWelcomeBody</text>
</a>
</g>
</g>
<!-- Node3&#45;&gt;Node14 -->
<g id="edge13_Node000003_Node000014" class="edge">
<title>Node3&#45;&gt;Node14</title>
<g id="a_edge13_Node000003_Node000014"><a xlink:title=" ">
<path fill="none" stroke="#63b8ff" d="M444.77,-205.74C456.89,-176.05 495.92,-89.11 555,-41 556.11,-40.09 557.26,-39.22 558.44,-38.37"/>
<polygon fill="#63b8ff" stroke="#63b8ff" points="560.07,-41.48 566.72,-33.23 556.37,-35.53 560.07,-41.48"/>
</a>
</g>
</g>
<!-- Node5 -->
<g id="Node000005" class="node">
<title>Node5</title>
<g id="a_Node000005"><a xlink:href="classNetworkClient.html#ad307cf1f5e6ff844ef8c1e106df510f5" target="_top" xlink:title=" ">
<polygon fill="white" stroke="#666666" points="856.25,-442 720.25,-442 720.25,-422 856.25,-422 856.25,-442"/>
<text text-anchor="middle" x="788.25" y="-428.5" font-family="Helvetica,sans-Serif" font-size="10.00">NetworkClient::sendPacket</text>
</a>
</g>
</g>
<!-- Node4&#45;&gt;Node5 -->
<g id="edge4_Node000004_Node000005" class="edge">
<title>Node4&#45;&gt;Node5</title>
<g id="a_edge4_Node000004_Node000005"><a xlink:title=" ">
<path fill="none" stroke="#63b8ff" d="M684.09,-418.38C692.12,-419.44 700.42,-420.53 708.65,-421.62"/>
<polygon fill="#63b8ff" stroke="#63b8ff" points="707.93,-425.06 718.3,-422.9 708.84,-418.12 707.93,-425.06"/>
</a>
</g>
</g>
<!-- Node6 -->
<g id="Node000006" class="node">
<title>Node6</title>
<g id="a_Node000006"><a xlink:href="classRtypeServer_1_1Protocol.html#ad918184440d6fcb33f231a7173a67399" target="_top" xlink:title=" ">
<polygon fill="white" stroke="#666666" points="844.62,-404 731.88,-404 731.88,-372 844.62,-372 844.62,-404"/>
<text text-anchor="start" x="739.88" y="-390.5" font-family="Helvetica,sans-Serif" font-size="10.00">RtypeServer::Protocol</text>
<text text-anchor="middle" x="788.25" y="-378.5" font-family="Helvetica,sans-Serif" font-size="10.00">::writeHeader</text>
</a>
</g>
</g>
<!-- Node4&#45;&gt;Node6 -->
<g id="edge5_Node000004_Node000006" class="edge">
<title>Node4&#45;&gt;Node6</title>
<g id="a_edge5_Node000004_Node000006"><a xlink:title=" ">
<path fill="none" stroke="#63b8ff" d="M684.09,-401.62C695.94,-400.06 708.36,-398.42 720.31,-396.84"/>
<polygon fill="#63b8ff" stroke="#63b8ff" points="720.63,-400.33 730.09,-395.55 719.71,-393.39 720.63,-400.33"/>
</a>
</g>
</g>
</g>
</svg>
