<?xml version="1.0" encoding="UTF-8" standalone="no"?>
<!DOCTYPE svg PUBLIC "-//W3C//DTD SVG 1.1//EN"
 "http://www.w3.org/Graphics/SVG/1.1/DTD/svg11.dtd">
<!-- Generated by graphviz version 12.1.0 (20240811.2233)
 -->
<!-- Title: Engine::Utils::Vec2UInt::Vec2UInt Pages: 1 -->
<svg width="282pt" height="90pt"
 viewBox="0.00 0.00 281.50 90.00" xmlns="http://www.w3.org/2000/svg" xmlns:xlink="http://www.w3.org/1999/xlink">
<g id="graph0" class="graph" transform="scale(1 1) rotate(0) translate(4 86)">
<title>Engine::Utils::Vec2UInt::Vec2UInt</title>
<!-- Node1 -->
<g id="Node000001" class="node">
<title>Node1</title>
<g id="a_Node000001"><a xlink:title=" ">
<polygon fill="#999999" stroke="#666666" points="273.5,-57 154.75,-57 154.75,-25 273.5,-25 273.5,-57"/>
<text text-anchor="start" x="162.75" y="-43.5" font-family="Helvetica,sans-Serif" font-size="10.00">Engine::Utils::Vec2UInt</text>
<text text-anchor="middle" x="214.12" y="-31.5" font-family="Helvetica,sans-Serif" font-size="10.00">::Vec2UInt</text>
</a>
</g>
</g>
<!-- Node2 -->
<g id="Node000002" class="node">
<title>Node2</title>
<g id="a_Node000002"><a xlink:href="classEngine_1_1Utils_1_1Vec2UInt.html#a091c0639b1727bf88255eeffffc6dc1a" target="_top" xlink:title=" ">
<polygon fill="white" stroke="#666666" points="118.75,-82 0,-82 0,-50 118.75,-50 118.75,-82"/>
<text text-anchor="start" x="8" y="-68.5" font-family="Helvetica,sans-Serif" font-size="10.00">Engine::Utils::Vec2UInt</text>
<text text-anchor="middle" x="59.38" y="-56.5" font-family="Helvetica,sans-Serif" font-size="10.00">::operator+</text>
</a>
</g>
</g>
<!-- Node1&#45;&gt;Node2 -->
<g id="edge1_Node000001_Node000002" class="edge">
<title>Node1&#45;&gt;Node2</title>
<g id="a_edge1_Node000001_Node000002"><a xlink:title=" ">
<path fill="none" stroke="#63b8ff" d="M143.21,-52.44C135.14,-53.76 126.98,-55.1 119.09,-56.39"/>
<polygon fill="#63b8ff" stroke="#63b8ff" points="143.71,-55.91 153.01,-50.84 142.58,-49 143.71,-55.91"/>
</a>
</g>
</g>
<!-- Node3 -->
<g id="Node000003" class="node">
<title>Node3</title>
<g id="a_Node000003"><a xlink:href="classEngine_1_1Utils_1_1Vec2UInt.html#a71bb8ae23bfe32e9113d8cc9dc3affb7" target="_top" xlink:title=" ">
<polygon fill="white" stroke="#666666" points="118.75,-32 0,-32 0,0 118.75,0 118.75,-32"/>
<text text-anchor="start" x="8" y="-18.5" font-family="Helvetica,sans-Serif" font-size="10.00">Engine::Utils::Vec2UInt</text>
<text text-anchor="middle" x="59.38" y="-6.5" font-family="Helvetica,sans-Serif" font-size="10.00">::operator&#45;</text>
</a>
</g>
</g>
<!-- Node1&#45;&gt;Node3 -->
<g id="edge2_Node000001_Node000003" class="edge">
<title>Node1&#45;&gt;Node3</title>
<g id="a_edge2_Node000001_Node000003"><a xlink:title=" ">
<path fill="none" stroke="#63b8ff" d="M143.21,-29.56C135.14,-28.24 126.98,-26.9 119.09,-25.61"/>
<polygon fill="#63b8ff" stroke="#63b8ff" points="142.58,-33 153.01,-31.16 143.71,-26.09 142.58,-33"/>
</a>
</g>
</g>
</g>
</svg>
