<?xml version="1.0" encoding="UTF-8" standalone="no"?>
<!DOCTYPE svg PUBLIC "-//W3C//DTD SVG 1.1//EN"
 "http://www.w3.org/Graphics/SVG/1.1/DTD/svg11.dtd">
<!-- Generated by graphviz version 12.1.0 (20240811.2233)
 -->
<!-- Title: Player::centerImage Pages: 1 -->
<svg width="1078pt" height="116pt"
 viewBox="0.00 0.00 1077.75 116.00" xmlns="http://www.w3.org/2000/svg" xmlns:xlink="http://www.w3.org/1999/xlink">
<g id="graph0" class="graph" transform="scale(1 1) rotate(0) translate(4 112)">
<title>Player::centerImage</title>
<!-- Node1 -->
<g id="Node000001" class="node">
<title>Node1</title>
<g id="a_Node000001"><a xlink:title=" ">
<polygon fill="#999999" stroke="#666666" points="1069.75,-70 966,-70 966,-50 1069.75,-50 1069.75,-70"/>
<text text-anchor="middle" x="1017.88" y="-56.5" font-family="Helvetica,sans-Serif" font-size="10.00">Player::centerImage</text>
</a>
</g>
</g>
<!-- Node2 -->
<g id="Node000002" class="node">
<title>Node2</title>
<g id="a_Node000002"><a xlink:href="classPlayer.html#a9180daf882767c2aed3f7a06cb649c3c" target="_top" xlink:title=" ">
<polygon fill="white" stroke="#666666" points="556,-108 452.25,-108 452.25,-88 556,-88 556,-108"/>
<text text-anchor="middle" x="504.12" y="-94.5" font-family="Helvetica,sans-Serif" font-size="10.00">Player::handleEvent</text>
</a>
</g>
</g>
<!-- Node1&#45;&gt;Node2 -->
<g id="edge1_Node000001_Node000002" class="edge">
<title>Node1&#45;&gt;Node2</title>
<g id="a_edge1_Node000001_Node000002"><a xlink:title=" ">
<path fill="none" stroke="#63b8ff" d="M964.87,-72.89C953.45,-75.29 941.37,-77.51 930,-79 796.02,-96.52 636.48,-98.7 556.38,-98.52"/>
<polygon fill="#63b8ff" stroke="#63b8ff" points="965.53,-76.32 974.55,-70.76 964.03,-69.49 965.53,-76.32"/>
</a>
</g>
</g>
<!-- Node5 -->
<g id="Node000005" class="node">
<title>Node5</title>
<g id="a_Node000005"><a xlink:href="classPlayer.html#a603d7d308af08e4f8941908a5f247697" target="_top" xlink:title=" ">
<polygon fill="white" stroke="#666666" points="920.62,-70 805.62,-70 805.62,-50 920.62,-50 920.62,-70"/>
<text text-anchor="middle" x="863.12" y="-56.5" font-family="Helvetica,sans-Serif" font-size="10.00">Player::loadResources</text>
</a>
</g>
</g>
<!-- Node1&#45;&gt;Node5 -->
<g id="edge4_Node000001_Node000005" class="edge">
<title>Node1&#45;&gt;Node5</title>
<g id="a_edge4_Node000001_Node000005"><a xlink:title=" ">
<path fill="none" stroke="#63b8ff" d="M954.3,-60C943.3,-60 931.9,-60 921.06,-60"/>
<polygon fill="#63b8ff" stroke="#63b8ff" points="954.07,-63.5 964.07,-60 954.07,-56.5 954.07,-63.5"/>
</a>
</g>
</g>
<!-- Node7 -->
<g id="Node000007" class="node">
<title>Node7</title>
<g id="a_Node000007"><a xlink:href="classPlayer.html#a50451ee8e2220be61ddb24f2706f2290" target="_top" xlink:title=" ">
<polygon fill="white" stroke="#666666" points="930,-29 796.25,-29 796.25,-9 930,-9 930,-29"/>
<text text-anchor="middle" x="863.12" y="-15.5" font-family="Helvetica,sans-Serif" font-size="10.00">Player::updateWindowSize</text>
</a>
</g>
</g>
<!-- Node1&#45;&gt;Node7 -->
<g id="edge6_Node000001_Node000007" class="edge">
<title>Node1&#45;&gt;Node7</title>
<g id="a_edge6_Node000001_Node000007"><a xlink:title=" ">
<path fill="none" stroke="#63b8ff" d="M967.06,-46.63C946.26,-41.05 922.46,-34.66 902.99,-29.43"/>
<polygon fill="#63b8ff" stroke="#63b8ff" points="965.91,-49.94 976.47,-49.16 967.72,-43.18 965.91,-49.94"/>
</a>
</g>
</g>
<!-- Node3 -->
<g id="Node000003" class="node">
<title>Node3</title>
<g id="a_Node000003"><a xlink:href="classGameManager.html#a6cea7fca5fecdd4f8a32912d4bfc233f" target="_top" xlink:title=" ">
<polygon fill="white" stroke="#666666" points="218,-70 73,-70 73,-50 218,-50 218,-70"/>
<text text-anchor="middle" x="145.5" y="-56.5" font-family="Helvetica,sans-Serif" font-size="10.00">GameManager::handleEvents</text>
</a>
</g>
</g>
<!-- Node2&#45;&gt;Node3 -->
<g id="edge2_Node000002_Node000003" class="edge">
<title>Node2&#45;&gt;Node3</title>
<g id="a_edge2_Node000002_Node000003"><a xlink:title=" ">
<path fill="none" stroke="#63b8ff" d="M440.66,-92.57C390.24,-88.04 317.49,-81.19 254,-74 242.5,-72.7 230.32,-71.21 218.45,-69.71"/>
<polygon fill="#63b8ff" stroke="#63b8ff" points="440.24,-96.04 450.51,-93.45 440.86,-89.07 440.24,-96.04"/>
</a>
</g>
</g>
<!-- Node4 -->
<g id="Node000004" class="node">
<title>Node4</title>
<g id="a_Node000004"><a xlink:href="Client_2src_2main_8cpp.html#ae66f6b31b5ad750f1fe042a706a4e3d4" target="_top" xlink:title=" ">
<polygon fill="white" stroke="#666666" points="37,-70 0,-70 0,-50 37,-50 37,-70"/>
<text text-anchor="middle" x="18.5" y="-56.5" font-family="Helvetica,sans-Serif" font-size="10.00">main</text>
</a>
</g>
</g>
<!-- Node3&#45;&gt;Node4 -->
<g id="edge3_Node000003_Node000004" class="edge">
<title>Node3&#45;&gt;Node4</title>
<g id="a_edge3_Node000003_Node000004"><a xlink:title=" ">
<path fill="none" stroke="#63b8ff" d="M61.12,-60C52.34,-60 44.18,-60 37.46,-60"/>
<polygon fill="#63b8ff" stroke="#63b8ff" points="61,-63.5 71,-60 61,-56.5 61,-63.5"/>
</a>
</g>
</g>
<!-- Node6 -->
<g id="Node000006" class="node">
<title>Node6</title>
<g id="a_Node000006"><a xlink:href="classGameManager.html#a72e1318dfab6fad06bd4126d12f6a537" target="_top" xlink:title=" ">
<polygon fill="white" stroke="#666666" points="760.25,-70 610.75,-70 610.75,-50 760.25,-50 760.25,-70"/>
<text text-anchor="middle" x="685.5" y="-56.5" font-family="Helvetica,sans-Serif" font-size="10.00">GameManager::GameManager</text>
</a>
</g>
</g>
<!-- Node5&#45;&gt;Node6 -->
<g id="edge5_Node000005_Node000006" class="edge">
<title>Node5&#45;&gt;Node6</title>
<g id="a_edge5_Node000005_Node000006"><a xlink:title=" ">
<path fill="none" stroke="#63b8ff" d="M794.28,-60C783.23,-60 771.75,-60 760.57,-60"/>
<polygon fill="#63b8ff" stroke="#63b8ff" points="794.08,-63.5 804.08,-60 794.08,-56.5 794.08,-63.5"/>
</a>
</g>
</g>
<!-- Node8 -->
<g id="Node000008" class="node">
<title>Node8</title>
<g id="a_Node000008"><a xlink:href="classGameManager.html#a0a220f16a3e2d31baa08c03bec5c88b6" target="_top" xlink:title=" ">
<polygon fill="white" stroke="#666666" points="760.25,-32 610.75,-32 610.75,0 760.25,0 760.25,-32"/>
<text text-anchor="start" x="618.75" y="-18.5" font-family="Helvetica,sans-Serif" font-size="10.00">GameManager::handleWindow</text>
<text text-anchor="middle" x="685.5" y="-6.5" font-family="Helvetica,sans-Serif" font-size="10.00">Resize</text>
</a>
</g>
</g>
<!-- Node7&#45;&gt;Node8 -->
<g id="edge7_Node000007_Node000008" class="edge">
<title>Node7&#45;&gt;Node8</title>
<g id="a_edge7_Node000007_Node000008"><a xlink:title=" ">
<path fill="none" stroke="#63b8ff" d="M784.72,-17.68C776.69,-17.54 768.53,-17.4 760.53,-17.26"/>
<polygon fill="#63b8ff" stroke="#63b8ff" points="784.41,-21.17 794.47,-17.84 784.53,-14.17 784.41,-21.17"/>
</a>
</g>
</g>
<!-- Node8&#45;&gt;Node3 -->
<g id="edge11_Node000008_Node000003" class="edge">
<title>Node8&#45;&gt;Node3</title>
<g id="a_edge11_Node000008_Node000003"><a xlink:title=" ">
<path fill="none" stroke="#63b8ff" d="M609.92,-34.88C598.21,-37.29 586.2,-39.46 574.75,-41 450.29,-57.8 303.83,-60.71 218.46,-60.74"/>
<polygon fill="#63b8ff" stroke="#63b8ff" points="610.49,-38.33 619.54,-32.81 609.02,-31.49 610.49,-38.33"/>
</a>
</g>
</g>
<!-- Node9 -->
<g id="Node000009" class="node">
<title>Node9</title>
<g id="a_Node000009"><a xlink:href="classGameManager.html#a948792a1ef6f0a0c8c21fae779c4b525" target="_top" xlink:title=" ">
<polygon fill="white" stroke="#666666" points="574.75,-32 433.5,-32 433.5,0 574.75,0 574.75,-32"/>
<text text-anchor="start" x="441.5" y="-18.5" font-family="Helvetica,sans-Serif" font-size="10.00">GameManager::applyCurrent</text>
<text text-anchor="middle" x="504.12" y="-6.5" font-family="Helvetica,sans-Serif" font-size="10.00">Resolution</text>
</a>
</g>
</g>
<!-- Node8&#45;&gt;Node9 -->
<g id="edge8_Node000008_Node000009" class="edge">
<title>Node8&#45;&gt;Node9</title>
<g id="a_edge8_Node000008_Node000009"><a xlink:title=" ">
<path fill="none" stroke="#63b8ff" d="M599.2,-16C591.16,-16 583.07,-16 575.2,-16"/>
<polygon fill="#63b8ff" stroke="#63b8ff" points="598.99,-19.5 608.99,-16 598.99,-12.5 598.99,-19.5"/>
</a>
</g>
</g>
<!-- Node10 -->
<g id="Node000010" class="node">
<title>Node10</title>
<g id="a_Node000010"><a xlink:href="classGameManager.html#aeed1dd73db1c39b2e39d30d9d37c1f6c" target="_top" xlink:title=" ">
<polygon fill="white" stroke="#666666" points="397.5,-32 254,-32 254,0 397.5,0 397.5,-32"/>
<text text-anchor="start" x="262" y="-18.5" font-family="Helvetica,sans-Serif" font-size="10.00">GameManager::handleMouse</text>
<text text-anchor="middle" x="325.75" y="-6.5" font-family="Helvetica,sans-Serif" font-size="10.00">Click</text>
</a>
</g>
</g>
<!-- Node9&#45;&gt;Node10 -->
<g id="edge9_Node000009_Node000010" class="edge">
<title>Node9&#45;&gt;Node10</title>
<g id="a_edge9_Node000009_Node000010"><a xlink:title=" ">
<path fill="none" stroke="#63b8ff" d="M421.87,-16C413.83,-16 405.71,-16 397.78,-16"/>
<polygon fill="#63b8ff" stroke="#63b8ff" points="421.65,-19.5 431.65,-16 421.65,-12.5 421.65,-19.5"/>
</a>
</g>
</g>
<!-- Node10&#45;&gt;Node3 -->
<g id="edge10_Node000010_Node000003" class="edge">
<title>Node10&#45;&gt;Node3</title>
<g id="a_edge10_Node000010_Node000003"><a xlink:title=" ">
<path fill="none" stroke="#63b8ff" d="M247.14,-35.16C227.19,-40.08 206.45,-45.2 189.02,-49.5"/>
<polygon fill="#63b8ff" stroke="#63b8ff" points="247.78,-38.6 256.65,-32.81 246.11,-31.81 247.78,-38.6"/>
</a>
</g>
</g>
</g>
</svg>
