<?xml version="1.0" encoding="UTF-8" standalone="no"?>
<!DOCTYPE svg PUBLIC "-//W3C//DTD SVG 1.1//EN"
 "http://www.w3.org/Graphics/SVG/1.1/DTD/svg11.dtd">
<!-- Generated by graphviz version 12.1.0 (20240811.2233)
 -->
<!-- Title: Engine::Event::setParam Pages: 1 -->
<svg width="475pt" height="140pt"
 viewBox="0.00 0.00 474.50 140.00" xmlns="http://www.w3.org/2000/svg" xmlns:xlink="http://www.w3.org/1999/xlink">
<g id="graph0" class="graph" transform="scale(1 1) rotate(0) translate(4 136)">
<title>Engine::Event::setParam</title>
<!-- Node1 -->
<g id="Node000001" class="node">
<title>Node1</title>
<g id="a_Node000001"><a xlink:title=" ">
<polygon fill="#999999" stroke="#666666" points="466.5,-76 341,-76 341,-56 466.5,-56 466.5,-76"/>
<text text-anchor="middle" x="403.75" y="-62.5" font-family="Helvetica,sans-Serif" font-size="10.00">Engine::Event::setParam</text>
</a>
</g>
</g>
<!-- Node2 -->
<g id="Node000002" class="node">
<title>Node2</title>
<g id="a_Node000002"><a xlink:href="classEngine_1_1Systems_1_1Collision.html#a5f50766268cf3c990d173a08b045c478" target="_top" xlink:title=" ">
<polygon fill="white" stroke="#666666" points="305,-132 170.5,-132 170.5,-100 305,-100 305,-132"/>
<text text-anchor="start" x="178.5" y="-118.5" font-family="Helvetica,sans-Serif" font-size="10.00">Engine::Systems::Collision</text>
<text text-anchor="middle" x="237.75" y="-106.5" font-family="Helvetica,sans-Serif" font-size="10.00">::checkCollision</text>
</a>
</g>
</g>
<!-- Node1&#45;&gt;Node2 -->
<g id="edge1_Node000001_Node000002" class="edge">
<title>Node1&#45;&gt;Node2</title>
<g id="a_edge1_Node000001_Node000002"><a xlink:title=" ">
<path fill="none" stroke="#63b8ff" d="M357.37,-79.84C337.36,-85.94 313.69,-93.15 292.78,-99.53"/>
<polygon fill="#63b8ff" stroke="#63b8ff" points="358.38,-83.19 366.92,-76.92 356.34,-76.49 358.38,-83.19"/>
</a>
</g>
</g>
<!-- Node4 -->
<g id="Node000004" class="node">
<title>Node4</title>
<g id="a_Node000004"><a xlink:href="classEngine_1_1Renderers_1_1SFML.html#a0591c816389c5340c04b0beb5f6fa523" target="_top" xlink:title=" ">
<polygon fill="white" stroke="#666666" points="291.5,-82 184,-82 184,-50 291.5,-50 291.5,-82"/>
<text text-anchor="start" x="192" y="-68.5" font-family="Helvetica,sans-Serif" font-size="10.00">Engine::Renderers::</text>
<text text-anchor="middle" x="237.75" y="-56.5" font-family="Helvetica,sans-Serif" font-size="10.00">SFML::handleEvents</text>
</a>
</g>
</g>
<!-- Node1&#45;&gt;Node4 -->
<g id="edge3_Node000001_Node000004" class="edge">
<title>Node1&#45;&gt;Node4</title>
<g id="a_edge3_Node000001_Node000004"><a xlink:title=" ">
<path fill="none" stroke="#63b8ff" d="M329.31,-66C316.74,-66 303.9,-66 291.99,-66"/>
<polygon fill="#63b8ff" stroke="#63b8ff" points="329.24,-69.5 339.24,-66 329.24,-62.5 329.24,-69.5"/>
</a>
</g>
</g>
<!-- Node5 -->
<g id="Node000005" class="node">
<title>Node5</title>
<g id="a_Node000005"><a xlink:href="classEngine_1_1NetworkManager.html#a0d369bcaf7f33f551b482678c65b7fee" target="_top" xlink:title=" ">
<polygon fill="white" stroke="#666666" points="300.88,-32 174.62,-32 174.62,0 300.88,0 300.88,-32"/>
<text text-anchor="start" x="182.62" y="-18.5" font-family="Helvetica,sans-Serif" font-size="10.00">Engine::NetworkManager</text>
<text text-anchor="middle" x="237.75" y="-6.5" font-family="Helvetica,sans-Serif" font-size="10.00">::receiveInputs</text>
</a>
</g>
</g>
<!-- Node1&#45;&gt;Node5 -->
<g id="edge4_Node000001_Node000005" class="edge">
<title>Node1&#45;&gt;Node5</title>
<g id="a_edge4_Node000001_Node000005"><a xlink:title=" ">
<path fill="none" stroke="#63b8ff" d="M357.37,-52.16C337.36,-46.06 313.69,-38.85 292.78,-32.47"/>
<polygon fill="#63b8ff" stroke="#63b8ff" points="356.34,-55.51 366.92,-55.08 358.38,-48.81 356.34,-55.51"/>
</a>
</g>
</g>
<!-- Node3 -->
<g id="Node000003" class="node">
<title>Node3</title>
<g id="a_Node000003"><a xlink:href="classEngine_1_1Systems_1_1Collision.html#a51951ae3e9317cb67e68ea1df4b47d1d" target="_top" xlink:title=" ">
<polygon fill="white" stroke="#666666" points="134.5,-132 0,-132 0,-100 134.5,-100 134.5,-132"/>
<text text-anchor="start" x="8" y="-118.5" font-family="Helvetica,sans-Serif" font-size="10.00">Engine::Systems::Collision</text>
<text text-anchor="middle" x="67.25" y="-106.5" font-family="Helvetica,sans-Serif" font-size="10.00">::update</text>
</a>
</g>
</g>
<!-- Node2&#45;&gt;Node3 -->
<g id="edge2_Node000002_Node000003" class="edge">
<title>Node2&#45;&gt;Node3</title>
<g id="a_edge2_Node000002_Node000003"><a xlink:title=" ">
<path fill="none" stroke="#63b8ff" d="M158.9,-116C150.89,-116 142.79,-116 134.91,-116"/>
<polygon fill="#63b8ff" stroke="#63b8ff" points="158.64,-119.5 168.64,-116 158.64,-112.5 158.64,-119.5"/>
</a>
</g>
</g>
</g>
</svg>
