<?xml version="1.0" encoding="UTF-8" standalone="no"?>
<!DOCTYPE svg PUBLIC "-//W3C//DTD SVG 1.1//EN"
 "http://www.w3.org/Graphics/SVG/1.1/DTD/svg11.dtd">
<!-- Generated by graphviz version 12.1.0 (20240811.2233)
 -->
<!-- Title: ErrorServer::centerLogo Pages: 1 -->
<svg width="1115pt" height="116pt"
 viewBox="0.00 0.00 1115.25 116.00" xmlns="http://www.w3.org/2000/svg" xmlns:xlink="http://www.w3.org/1999/xlink">
<g id="graph0" class="graph" transform="scale(1 1) rotate(0) translate(4 112)">
<title>ErrorServer::centerLogo</title>
<!-- Node1 -->
<g id="Node000001" class="node">
<title>Node1</title>
<g id="a_Node000001"><a xlink:title=" ">
<polygon fill="#999999" stroke="#666666" points="1107.25,-70 987.75,-70 987.75,-50 1107.25,-50 1107.25,-70"/>
<text text-anchor="middle" x="1047.5" y="-56.5" font-family="Helvetica,sans-Serif" font-size="10.00">ErrorServer::centerLogo</text>
</a>
</g>
</g>
<!-- Node2 -->
<g id="Node000002" class="node">
<title>Node2</title>
<g id="a_Node000002"><a xlink:href="classErrorServer.html#a0435e2089548440a04719f00483f3837" target="_top" xlink:title=" ">
<polygon fill="white" stroke="#666666" points="566.88,-108 441.38,-108 441.38,-88 566.88,-88 566.88,-108"/>
<text text-anchor="middle" x="504.12" y="-94.5" font-family="Helvetica,sans-Serif" font-size="10.00">ErrorServer::handleEvent</text>
</a>
</g>
</g>
<!-- Node1&#45;&gt;Node2 -->
<g id="edge1_Node000001_Node000002" class="edge">
<title>Node1&#45;&gt;Node2</title>
<g id="a_edge1_Node000001_Node000002"><a xlink:title=" ">
<path fill="none" stroke="#63b8ff" d="M990.9,-72.65C978.1,-75.14 964.5,-77.46 951.75,-79 815.18,-95.5 653.62,-98.26 567.14,-98.4"/>
<polygon fill="#63b8ff" stroke="#63b8ff" points="991.31,-76.14 1000.42,-70.73 989.93,-69.27 991.31,-76.14"/>
</a>
</g>
</g>
<!-- Node5 -->
<g id="Node000005" class="node">
<title>Node5</title>
<g id="a_Node000005"><a xlink:href="classErrorServer.html#aebdad5ffd89240d9cb4b1f2d12a8244a" target="_top" xlink:title=" ">
<polygon fill="white" stroke="#666666" points="942.38,-70 805.62,-70 805.62,-50 942.38,-50 942.38,-70"/>
<text text-anchor="middle" x="874" y="-56.5" font-family="Helvetica,sans-Serif" font-size="10.00">ErrorServer::loadResources</text>
</a>
</g>
</g>
<!-- Node1&#45;&gt;Node5 -->
<g id="edge4_Node000001_Node000005" class="edge">
<title>Node1&#45;&gt;Node5</title>
<g id="a_edge4_Node000001_Node000005"><a xlink:title=" ">
<path fill="none" stroke="#63b8ff" d="M976.12,-60C965.07,-60 953.67,-60 942.68,-60"/>
<polygon fill="#63b8ff" stroke="#63b8ff" points="975.97,-63.5 985.97,-60 975.97,-56.5 975.97,-63.5"/>
</a>
</g>
</g>
<!-- Node7 -->
<g id="Node000007" class="node">
<title>Node7</title>
<g id="a_Node000007"><a xlink:href="classErrorServer.html#aa15372919d65fa1e10df53b84bb008e3" target="_top" xlink:title=" ">
<polygon fill="white" stroke="#666666" points="951.75,-29 796.25,-29 796.25,-9 951.75,-9 951.75,-29"/>
<text text-anchor="middle" x="874" y="-15.5" font-family="Helvetica,sans-Serif" font-size="10.00">ErrorServer::updateWindowSize</text>
</a>
</g>
</g>
<!-- Node1&#45;&gt;Node7 -->
<g id="edge6_Node000001_Node000007" class="edge">
<title>Node1&#45;&gt;Node7</title>
<g id="a_edge6_Node000001_Node000007"><a xlink:title=" ">
<path fill="none" stroke="#63b8ff" d="M991.85,-46.94C968.2,-41.28 940.9,-34.76 918.64,-29.43"/>
<polygon fill="#63b8ff" stroke="#63b8ff" points="990.77,-50.27 1001.31,-49.2 992.4,-43.47 990.77,-50.27"/>
</a>
</g>
</g>
<!-- Node3 -->
<g id="Node000003" class="node">
<title>Node3</title>
<g id="a_Node000003"><a xlink:href="classGameManager.html#a6cea7fca5fecdd4f8a32912d4bfc233f" target="_top" xlink:title=" ">
<polygon fill="white" stroke="#666666" points="218,-70 73,-70 73,-50 218,-50 218,-70"/>
<text text-anchor="middle" x="145.5" y="-56.5" font-family="Helvetica,sans-Serif" font-size="10.00">GameManager::handleEvents</text>
</a>
</g>
</g>
<!-- Node2&#45;&gt;Node3 -->
<g id="edge2_Node000002_Node000003" class="edge">
<title>Node2&#45;&gt;Node3</title>
<g id="a_edge2_Node000002_Node000003"><a xlink:title=" ">
<path fill="none" stroke="#63b8ff" d="M429.85,-91.59C380.18,-87.09 313.08,-80.69 254,-74 242.5,-72.7 230.32,-71.21 218.45,-69.71"/>
<polygon fill="#63b8ff" stroke="#63b8ff" points="429.34,-95.06 439.62,-92.47 429.97,-88.09 429.34,-95.06"/>
</a>
</g>
</g>
<!-- Node4 -->
<g id="Node000004" class="node">
<title>Node4</title>
<g id="a_Node000004"><a xlink:href="Client_2src_2main_8cpp.html#ae66f6b31b5ad750f1fe042a706a4e3d4" target="_top" xlink:title=" ">
<polygon fill="white" stroke="#666666" points="37,-70 0,-70 0,-50 37,-50 37,-70"/>
<text text-anchor="middle" x="18.5" y="-56.5" font-family="Helvetica,sans-Serif" font-size="10.00">main</text>
</a>
</g>
</g>
<!-- Node3&#45;&gt;Node4 -->
<g id="edge3_Node000003_Node000004" class="edge">
<title>Node3&#45;&gt;Node4</title>
<g id="a_edge3_Node000003_Node000004"><a xlink:title=" ">
<path fill="none" stroke="#63b8ff" d="M61.12,-60C52.34,-60 44.18,-60 37.46,-60"/>
<polygon fill="#63b8ff" stroke="#63b8ff" points="61,-63.5 71,-60 61,-56.5 61,-63.5"/>
</a>
</g>
</g>
<!-- Node6 -->
<g id="Node000006" class="node">
<title>Node6</title>
<g id="a_Node000006"><a xlink:href="classGameManager.html#a72e1318dfab6fad06bd4126d12f6a537" target="_top" xlink:title=" ">
<polygon fill="white" stroke="#666666" points="760.25,-70 610.75,-70 610.75,-50 760.25,-50 760.25,-70"/>
<text text-anchor="middle" x="685.5" y="-56.5" font-family="Helvetica,sans-Serif" font-size="10.00">GameManager::GameManager</text>
</a>
</g>
</g>
<!-- Node5&#45;&gt;Node6 -->
<g id="edge5_Node000005_Node000006" class="edge">
<title>Node5&#45;&gt;Node6</title>
<g id="a_edge5_Node000005_Node000006"><a xlink:title=" ">
<path fill="none" stroke="#63b8ff" d="M793.79,-60C782.79,-60 771.51,-60 760.61,-60"/>
<polygon fill="#63b8ff" stroke="#63b8ff" points="793.63,-63.5 803.63,-60 793.63,-56.5 793.63,-63.5"/>
</a>
</g>
</g>
<!-- Node8 -->
<g id="Node000008" class="node">
<title>Node8</title>
<g id="a_Node000008"><a xlink:href="classGameManager.html#a0a220f16a3e2d31baa08c03bec5c88b6" target="_top" xlink:title=" ">
<polygon fill="white" stroke="#666666" points="760.25,-32 610.75,-32 610.75,0 760.25,0 760.25,-32"/>
<text text-anchor="start" x="618.75" y="-18.5" font-family="Helvetica,sans-Serif" font-size="10.00">GameManager::handleWindow</text>
<text text-anchor="middle" x="685.5" y="-6.5" font-family="Helvetica,sans-Serif" font-size="10.00">Resize</text>
</a>
</g>
</g>
<!-- Node7&#45;&gt;Node8 -->
<g id="edge7_Node000007_Node000008" class="edge">
<title>Node7&#45;&gt;Node8</title>
<g id="a_edge7_Node000007_Node000008"><a xlink:title=" ">
<path fill="none" stroke="#63b8ff" d="M784.55,-17.58C776.55,-17.45 768.5,-17.32 760.65,-17.19"/>
<polygon fill="#63b8ff" stroke="#63b8ff" points="784.23,-21.07 794.28,-17.73 784.34,-14.07 784.23,-21.07"/>
</a>
</g>
</g>
<!-- Node8&#45;&gt;Node3 -->
<g id="edge11_Node000008_Node000003" class="edge">
<title>Node8&#45;&gt;Node3</title>
<g id="a_edge11_Node000008_Node000003"><a xlink:title=" ">
<path fill="none" stroke="#63b8ff" d="M609.92,-34.88C598.21,-37.29 586.2,-39.46 574.75,-41 450.29,-57.8 303.83,-60.71 218.46,-60.74"/>
<polygon fill="#63b8ff" stroke="#63b8ff" points="610.49,-38.33 619.54,-32.81 609.02,-31.49 610.49,-38.33"/>
</a>
</g>
</g>
<!-- Node9 -->
<g id="Node000009" class="node">
<title>Node9</title>
<g id="a_Node000009"><a xlink:href="classGameManager.html#a948792a1ef6f0a0c8c21fae779c4b525" target="_top" xlink:title=" ">
<polygon fill="white" stroke="#666666" points="574.75,-32 433.5,-32 433.5,0 574.75,0 574.75,-32"/>
<text text-anchor="start" x="441.5" y="-18.5" font-family="Helvetica,sans-Serif" font-size="10.00">GameManager::applyCurrent</text>
<text text-anchor="middle" x="504.12" y="-6.5" font-family="Helvetica,sans-Serif" font-size="10.00">Resolution</text>
</a>
</g>
</g>
<!-- Node8&#45;&gt;Node9 -->
<g id="edge8_Node000008_Node000009" class="edge">
<title>Node8&#45;&gt;Node9</title>
<g id="a_edge8_Node000008_Node000009"><a xlink:title=" ">
<path fill="none" stroke="#63b8ff" d="M599.2,-16C591.16,-16 583.07,-16 575.2,-16"/>
<polygon fill="#63b8ff" stroke="#63b8ff" points="598.99,-19.5 608.99,-16 598.99,-12.5 598.99,-19.5"/>
</a>
</g>
</g>
<!-- Node10 -->
<g id="Node000010" class="node">
<title>Node10</title>
<g id="a_Node000010"><a xlink:href="classGameManager.html#aeed1dd73db1c39b2e39d30d9d37c1f6c" target="_top" xlink:title=" ">
<polygon fill="white" stroke="#666666" points="397.5,-32 254,-32 254,0 397.5,0 397.5,-32"/>
<text text-anchor="start" x="262" y="-18.5" font-family="Helvetica,sans-Serif" font-size="10.00">GameManager::handleMouse</text>
<text text-anchor="middle" x="325.75" y="-6.5" font-family="Helvetica,sans-Serif" font-size="10.00">Click</text>
</a>
</g>
</g>
<!-- Node9&#45;&gt;Node10 -->
<g id="edge9_Node000009_Node000010" class="edge">
<title>Node9&#45;&gt;Node10</title>
<g id="a_edge9_Node000009_Node000010"><a xlink:title=" ">
<path fill="none" stroke="#63b8ff" d="M421.87,-16C413.83,-16 405.71,-16 397.78,-16"/>
<polygon fill="#63b8ff" stroke="#63b8ff" points="421.65,-19.5 431.65,-16 421.65,-12.5 421.65,-19.5"/>
</a>
</g>
</g>
<!-- Node10&#45;&gt;Node3 -->
<g id="edge10_Node000010_Node000003" class="edge">
<title>Node10&#45;&gt;Node3</title>
<g id="a_edge10_Node000010_Node000003"><a xlink:title=" ">
<path fill="none" stroke="#63b8ff" d="M247.14,-35.16C227.19,-40.08 206.45,-45.2 189.02,-49.5"/>
<polygon fill="#63b8ff" stroke="#63b8ff" points="247.78,-38.6 256.65,-32.81 246.11,-31.81 247.78,-38.6"/>
</a>
</g>
</g>
</g>
</svg>
