<?xml version="1.0" encoding="UTF-8" standalone="no"?>
<!DOCTYPE svg PUBLIC "-//W3C//DTD SVG 1.1//EN"
 "http://www.w3.org/Graphics/SVG/1.1/DTD/svg11.dtd">
<!-- Generated by graphviz version 12.1.0 (20240811.2233)
 -->
<!-- Title: ControlsConfig::handleEvent Pages: 1 -->
<svg width="515pt" height="228pt"
 viewBox="0.00 0.00 515.00 228.00" xmlns="http://www.w3.org/2000/svg" xmlns:xlink="http://www.w3.org/1999/xlink">
<g id="graph0" class="graph" transform="scale(1 1) rotate(0) translate(4 224)">
<title>ControlsConfig::handleEvent</title>
<!-- Node1 -->
<g id="Node000001" class="node">
<title>Node1</title>
<g id="a_Node000001"><a xlink:title=" ">
<polygon fill="#999999" stroke="#666666" points="141.25,-120 0,-120 0,-100 141.25,-100 141.25,-120"/>
<text text-anchor="middle" x="70.62" y="-106.5" font-family="Helvetica,sans-Serif" font-size="10.00">ControlsConfig::handleEvent</text>
</a>
</g>
</g>
<!-- Node2 -->
<g id="Node000002" class="node">
<title>Node2</title>
<g id="a_Node000002"><a xlink:href="classControlsConfig.html#ad218bc10857ddae59029265b257a4eb9" target="_top" xlink:title=" ">
<polygon fill="white" stroke="#666666" points="318.5,-220 185.5,-220 185.5,-188 318.5,-188 318.5,-220"/>
<text text-anchor="start" x="193.5" y="-206.5" font-family="Helvetica,sans-Serif" font-size="10.00">ControlsConfig::cancelKey</text>
<text text-anchor="middle" x="252" y="-194.5" font-family="Helvetica,sans-Serif" font-size="10.00">Capture</text>
</a>
</g>
</g>
<!-- Node1&#45;&gt;Node2 -->
<g id="edge1_Node000001_Node000002" class="edge">
<title>Node1&#45;&gt;Node2</title>
<g id="a_edge1_Node000001_Node000002"><a xlink:title=" ">
<path fill="none" stroke="#63b8ff" d="M84.97,-120.32C104.4,-134.95 141.99,-161.85 177.25,-179 180.31,-180.49 183.49,-181.93 186.72,-183.31"/>
<polygon fill="#63b8ff" stroke="#63b8ff" points="185.2,-186.47 195.78,-186.97 187.82,-179.98 185.2,-186.47"/>
</a>
</g>
</g>
<!-- Node4 -->
<g id="Node000004" class="node">
<title>Node4</title>
<g id="a_Node000004"><a xlink:href="classControlsConfig.html#a856b97e670b795cee0393eab9a71a907" target="_top" xlink:title=" ">
<polygon fill="white" stroke="#666666" points="315.12,-170 188.88,-170 188.88,-138 315.12,-138 315.12,-170"/>
<text text-anchor="start" x="196.88" y="-156.5" font-family="Helvetica,sans-Serif" font-size="10.00">ControlsConfig::isControl</text>
<text text-anchor="middle" x="252" y="-144.5" font-family="Helvetica,sans-Serif" font-size="10.00">ButtonClicked</text>
</a>
</g>
</g>
<!-- Node1&#45;&gt;Node4 -->
<g id="edge3_Node000001_Node000004" class="edge">
<title>Node1&#45;&gt;Node4</title>
<g id="a_edge3_Node000001_Node000004"><a xlink:title=" ">
<path fill="none" stroke="#63b8ff" d="M114.13,-120.43C133.01,-125.06 155.79,-130.65 177.3,-135.92"/>
<polygon fill="#63b8ff" stroke="#63b8ff" points="176.39,-139.3 186.94,-138.29 178.06,-132.5 176.39,-139.3"/>
</a>
</g>
</g>
<!-- Node5 -->
<g id="Node000005" class="node">
<title>Node5</title>
<g id="a_Node000005"><a xlink:href="classControlsConfig.html#aa2fe4477b60057141a0cf43e1a064805" target="_top" xlink:title=" ">
<polygon fill="white" stroke="#666666" points="326.75,-120 177.25,-120 177.25,-100 326.75,-100 326.75,-120"/>
<text text-anchor="middle" x="252" y="-106.5" font-family="Helvetica,sans-Serif" font-size="10.00">ControlsConfig::setControlKey</text>
</a>
</g>
</g>
<!-- Node1&#45;&gt;Node5 -->
<g id="edge4_Node000001_Node000005" class="edge">
<title>Node1&#45;&gt;Node5</title>
<g id="a_edge4_Node000001_Node000005"><a xlink:title=" ">
<path fill="none" stroke="#63b8ff" d="M141.75,-110C149.47,-110 157.4,-110 165.29,-110"/>
<polygon fill="#63b8ff" stroke="#63b8ff" points="165.27,-113.5 175.27,-110 165.27,-106.5 165.27,-113.5"/>
</a>
</g>
</g>
<!-- Node6 -->
<g id="Node000006" class="node">
<title>Node6</title>
<g id="a_Node000006"><a xlink:href="classControlsConfig.html#ade541947fd00028b06949da7ef182f51" target="_top" xlink:title=" ">
<polygon fill="white" stroke="#666666" points="314,-82 190,-82 190,-50 314,-50 314,-82"/>
<text text-anchor="start" x="198" y="-68.5" font-family="Helvetica,sans-Serif" font-size="10.00">ControlsConfig::startKey</text>
<text text-anchor="middle" x="252" y="-56.5" font-family="Helvetica,sans-Serif" font-size="10.00">Capture</text>
</a>
</g>
</g>
<!-- Node1&#45;&gt;Node6 -->
<g id="edge6_Node000001_Node000006" class="edge">
<title>Node1&#45;&gt;Node6</title>
<g id="a_edge6_Node000001_Node000006"><a xlink:title=" ">
<path fill="none" stroke="#63b8ff" d="M114.13,-99.57C133.46,-94.83 156.86,-89.09 178.81,-83.71"/>
<polygon fill="#63b8ff" stroke="#63b8ff" points="179.43,-87.16 188.31,-81.38 177.77,-80.36 179.43,-87.16"/>
</a>
</g>
</g>
<!-- Node7 -->
<g id="Node000007" class="node">
<title>Node7</title>
<g id="a_Node000007"><a xlink:href="classControlsConfig.html#a5d7aa2d264ab4f3dfeb428e81e6c2f82" target="_top" xlink:title=" ">
<polygon fill="white" stroke="#666666" points="326,-32 178,-32 178,0 326,0 326,-32"/>
<text text-anchor="start" x="186" y="-18.5" font-family="Helvetica,sans-Serif" font-size="10.00">ControlsConfig::updateControl</text>
<text text-anchor="middle" x="252" y="-6.5" font-family="Helvetica,sans-Serif" font-size="10.00">SettingsPositions</text>
</a>
</g>
</g>
<!-- Node1&#45;&gt;Node7 -->
<g id="edge7_Node000001_Node000007" class="edge">
<title>Node1&#45;&gt;Node7</title>
<g id="a_edge7_Node000001_Node000007"><a xlink:title=" ">
<path fill="none" stroke="#63b8ff" d="M84.97,-99.68C104.4,-85.05 141.99,-58.15 177.25,-41 180.31,-39.51 183.49,-38.07 186.72,-36.69"/>
<polygon fill="#63b8ff" stroke="#63b8ff" points="187.82,-40.02 195.78,-33.03 185.2,-33.53 187.82,-40.02"/>
</a>
</g>
</g>
<!-- Node3 -->
<g id="Node000003" class="node">
<title>Node3</title>
<g id="a_Node000003"><a xlink:href="classControlsConfig.html#a98c32bfcca7b184b230394e79bdac59e" target="_top" xlink:title=" ">
<polygon fill="white" stroke="#666666" points="507,-167 362.75,-167 362.75,-147 507,-147 507,-167"/>
<text text-anchor="middle" x="434.88" y="-153.5" font-family="Helvetica,sans-Serif" font-size="10.00">ControlsConfig::getKeyName</text>
</a>
</g>
</g>
<!-- Node2&#45;&gt;Node3 -->
<g id="edge2_Node000002_Node000003" class="edge">
<title>Node2&#45;&gt;Node3</title>
<g id="a_edge2_Node000002_Node000003"><a xlink:title=" ">
<path fill="none" stroke="#63b8ff" d="M316.26,-187.56C337.92,-181.93 361.88,-175.71 382.48,-170.35"/>
<polygon fill="#63b8ff" stroke="#63b8ff" points="383.29,-173.76 392.09,-167.86 381.53,-166.99 383.29,-173.76"/>
</a>
</g>
</g>
<!-- Node5&#45;&gt;Node3 -->
<g id="edge5_Node000005_Node000003" class="edge">
<title>Node5&#45;&gt;Node3</title>
<g id="a_edge5_Node000005_Node000003"><a xlink:title=" ">
<path fill="none" stroke="#63b8ff" d="M293.58,-120.43C304.36,-123.21 316,-126.21 326.75,-129 345.08,-133.76 365.16,-139 382.93,-143.65"/>
<polygon fill="#63b8ff" stroke="#63b8ff" points="381.92,-147 392.49,-146.15 383.7,-140.23 381.92,-147"/>
</a>
</g>
</g>
</g>
</svg>
