<?xml version="1.0" encoding="UTF-8" standalone="no"?>
<!DOCTYPE svg PUBLIC "-//W3C//DTD SVG 1.1//EN"
 "http://www.w3.org/Graphics/SVG/1.1/DTD/svg11.dtd">
<!-- Generated by graphviz version 12.1.0 (20240811.2233)
 -->
<!-- Title: Engine::Systems::EnemySystem::init Pages: 1 -->
<svg width="565pt" height="40pt"
 viewBox="0.00 0.00 564.50 40.00" xmlns="http://www.w3.org/2000/svg" xmlns:xlink="http://www.w3.org/1999/xlink">
<g id="graph0" class="graph" transform="scale(1 1) rotate(0) translate(4 36)">
<title>Engine::Systems::EnemySystem::init</title>
<!-- Node1 -->
<g id="Node000001" class="node">
<title>Node1</title>
<g id="a_Node000001"><a xlink:title=" ">
<polygon fill="#999999" stroke="#666666" points="161.5,-32 0,-32 0,0 161.5,0 161.5,-32"/>
<text text-anchor="start" x="8" y="-18.5" font-family="Helvetica,sans-Serif" font-size="10.00">Engine::Systems::EnemySystem</text>
<text text-anchor="middle" x="80.75" y="-6.5" font-family="Helvetica,sans-Serif" font-size="10.00">::init</text>
</a>
</g>
</g>
<!-- Node2 -->
<g id="Node000002" class="node">
<title>Node2</title>
<g id="a_Node000002"><a xlink:href="classEngine_1_1Systems_1_1EnemySystem.html#ad40dc42ba3526d22bbc4735fb4ca7dba" target="_top" xlink:title=" ">
<polygon fill="white" stroke="#666666" points="359,-32 197.5,-32 197.5,0 359,0 359,-32"/>
<text text-anchor="start" x="205.5" y="-18.5" font-family="Helvetica,sans-Serif" font-size="10.00">Engine::Systems::EnemySystem</text>
<text text-anchor="middle" x="278.25" y="-6.5" font-family="Helvetica,sans-Serif" font-size="10.00">::handleCollision</text>
</a>
</g>
</g>
<!-- Node1&#45;&gt;Node2 -->
<g id="edge1_Node000001_Node000002" class="edge">
<title>Node1&#45;&gt;Node2</title>
<g id="a_edge1_Node000001_Node000002"><a xlink:title=" ">
<path fill="none" stroke="#63b8ff" d="M161.83,-16C169.79,-16 177.9,-16 185.96,-16"/>
<polygon fill="#63b8ff" stroke="#63b8ff" points="185.78,-19.5 195.78,-16 185.78,-12.5 185.78,-19.5"/>
</a>
</g>
</g>
<!-- Node3 -->
<g id="Node000003" class="node">
<title>Node3</title>
<g id="a_Node000003"><a xlink:href="classEngine_1_1Systems_1_1EnemySystem.html#a60a0336504ab065e4a49cb6e2980770e" target="_top" xlink:title=" ">
<polygon fill="white" stroke="#666666" points="556.5,-32 395,-32 395,0 556.5,0 556.5,-32"/>
<text text-anchor="start" x="403" y="-18.5" font-family="Helvetica,sans-Serif" font-size="10.00">Engine::Systems::EnemySystem</text>
<text text-anchor="middle" x="475.75" y="-6.5" font-family="Helvetica,sans-Serif" font-size="10.00">::damageEnemy</text>
</a>
</g>
</g>
<!-- Node2&#45;&gt;Node3 -->
<g id="edge2_Node000002_Node000003" class="edge">
<title>Node2&#45;&gt;Node3</title>
<g id="a_edge2_Node000002_Node000003"><a xlink:title=" ">
<path fill="none" stroke="#63b8ff" d="M359.33,-16C367.29,-16 375.4,-16 383.46,-16"/>
<polygon fill="#63b8ff" stroke="#63b8ff" points="383.28,-19.5 393.28,-16 383.28,-12.5 383.28,-19.5"/>
</a>
</g>
</g>
</g>
</svg>
