<?xml version="1.0" encoding="UTF-8" standalone="no"?>
<!DOCTYPE svg PUBLIC "-//W3C//DTD SVG 1.1//EN"
 "http://www.w3.org/Graphics/SVG/1.1/DTD/svg11.dtd">
<!-- Generated by graphviz version 12.1.0 (20240811.2233)
 -->
<!-- Title: GameManager::handleMouseMove Pages: 1 -->
<svg width="359pt" height="192pt"
 viewBox="0.00 0.00 358.75 192.00" xmlns="http://www.w3.org/2000/svg" xmlns:xlink="http://www.w3.org/1999/xlink">
<g id="graph0" class="graph" transform="scale(1 1) rotate(0) translate(4 188)">
<title>GameManager::handleMouseMove</title>
<!-- Node1 -->
<g id="Node000001" class="node">
<title>Node1</title>
<g id="a_Node000001"><a xlink:title=" ">
<polygon fill="#999999" stroke="#666666" points="167.5,-108 0,-108 0,-88 167.5,-88 167.5,-108"/>
<text text-anchor="middle" x="83.75" y="-94.5" font-family="Helvetica,sans-Serif" font-size="10.00">GameManager::handleMouseMove</text>
</a>
</g>
</g>
<!-- Node2 -->
<g id="Node000002" class="node">
<title>Node2</title>
<g id="a_Node000002"><a xlink:href="classButton.html#a96e705aa9d92e90b1e437fb772a00865" target="_top" xlink:title=" ">
<polygon fill="white" stroke="#666666" points="322.62,-184 231.62,-184 231.62,-164 322.62,-164 322.62,-184"/>
<text text-anchor="middle" x="277.12" y="-170.5" font-family="Helvetica,sans-Serif" font-size="10.00">Button::isClicked</text>
</a>
</g>
</g>
<!-- Node1&#45;&gt;Node2 -->
<g id="edge1_Node000001_Node000002" class="edge">
<title>Node1&#45;&gt;Node2</title>
<g id="a_edge1_Node000001_Node000002"><a xlink:title=" ">
<path fill="none" stroke="#63b8ff" d="M103.59,-108.44C126.61,-120.87 167,-141.61 203.5,-155 208.87,-156.97 214.53,-158.82 220.23,-160.54"/>
<polygon fill="#63b8ff" stroke="#63b8ff" points="219.12,-163.87 229.7,-163.26 221.05,-157.14 219.12,-163.87"/>
</a>
</g>
</g>
<!-- Node3 -->
<g id="Node000003" class="node">
<title>Node3</title>
<g id="a_Node000003"><a xlink:href="classParamButton.html#a225cd80fbb7827fd8f17c8c756977650" target="_top" xlink:title=" ">
<polygon fill="white" stroke="#666666" points="336.88,-146 217.38,-146 217.38,-126 336.88,-126 336.88,-146"/>
<text text-anchor="middle" x="277.12" y="-132.5" font-family="Helvetica,sans-Serif" font-size="10.00">ParamButton::isClicked</text>
</a>
</g>
</g>
<!-- Node1&#45;&gt;Node3 -->
<g id="edge2_Node000001_Node000003" class="edge">
<title>Node1&#45;&gt;Node3</title>
<g id="a_edge2_Node000001_Node000003"><a xlink:title=" ">
<path fill="none" stroke="#63b8ff" d="M137.55,-108.48C160.66,-113.07 187.99,-118.5 212.24,-123.31"/>
<polygon fill="#63b8ff" stroke="#63b8ff" points="211.52,-126.74 222.01,-125.26 212.89,-119.87 211.52,-126.74"/>
</a>
</g>
</g>
<!-- Node4 -->
<g id="Node000004" class="node">
<title>Node4</title>
<g id="a_Node000004"><a xlink:href="classButton.html#afa680a101be074b8a8cdbbfb8c203847" target="_top" xlink:title=" ">
<polygon fill="white" stroke="#666666" points="327.5,-108 226.75,-108 226.75,-88 327.5,-88 327.5,-108"/>
<text text-anchor="middle" x="277.12" y="-94.5" font-family="Helvetica,sans-Serif" font-size="10.00">Button::setHovered</text>
</a>
</g>
</g>
<!-- Node1&#45;&gt;Node4 -->
<g id="edge3_Node000001_Node000004" class="edge">
<title>Node1&#45;&gt;Node4</title>
<g id="a_edge3_Node000001_Node000004"><a xlink:title=" ">
<path fill="none" stroke="#63b8ff" d="M167.85,-98C183.77,-98 200.16,-98 215.22,-98"/>
<polygon fill="#63b8ff" stroke="#63b8ff" points="214.93,-101.5 224.93,-98 214.93,-94.5 214.93,-101.5"/>
</a>
</g>
</g>
<!-- Node5 -->
<g id="Node000005" class="node">
<title>Node5</title>
<g id="a_Node000005"><a xlink:href="classParamButton.html#ae87a288d149678fa4946dca9c5537275" target="_top" xlink:title=" ">
<polygon fill="white" stroke="#666666" points="341.75,-70 212.5,-70 212.5,-50 341.75,-50 341.75,-70"/>
<text text-anchor="middle" x="277.12" y="-56.5" font-family="Helvetica,sans-Serif" font-size="10.00">ParamButton::setHovered</text>
</a>
</g>
</g>
<!-- Node1&#45;&gt;Node5 -->
<g id="edge4_Node000001_Node000005" class="edge">
<title>Node1&#45;&gt;Node5</title>
<g id="a_edge4_Node000001_Node000005"><a xlink:title=" ">
<path fill="none" stroke="#63b8ff" d="M137.55,-87.52C160.66,-82.93 187.99,-77.5 212.24,-72.69"/>
<polygon fill="#63b8ff" stroke="#63b8ff" points="212.89,-76.13 222.01,-70.74 211.52,-69.26 212.89,-76.13"/>
</a>
</g>
</g>
<!-- Node6 -->
<g id="Node000006" class="node">
<title>Node6</title>
<g id="a_Node000006"><a xlink:href="classParamButton.html#a016f47d14d74feeec0eac5d881c77d60" target="_top" xlink:title=" ">
<polygon fill="white" stroke="#666666" points="350.75,-32 203.5,-32 203.5,0 350.75,0 350.75,-32"/>
<text text-anchor="start" x="211.5" y="-18.5" font-family="Helvetica,sans-Serif" font-size="10.00">ParamButton::setVolumeFrom</text>
<text text-anchor="middle" x="277.12" y="-6.5" font-family="Helvetica,sans-Serif" font-size="10.00">Mouse</text>
</a>
</g>
</g>
<!-- Node1&#45;&gt;Node6 -->
<g id="edge5_Node000001_Node000006" class="edge">
<title>Node1&#45;&gt;Node6</title>
<g id="a_edge5_Node000001_Node000006"><a xlink:title=" ">
<path fill="none" stroke="#63b8ff" d="M104.6,-87.6C127.92,-75.58 167.96,-55.59 203.5,-41 207.3,-39.44 211.24,-37.89 215.23,-36.38"/>
<polygon fill="#63b8ff" stroke="#63b8ff" points="216.25,-39.73 224.41,-32.99 213.82,-33.17 216.25,-39.73"/>
</a>
</g>
</g>
</g>
</svg>
