<?xml version="1.0" encoding="UTF-8" standalone="no"?>
<!DOCTYPE svg PUBLIC "-//W3C//DTD SVG 1.1//EN"
 "http://www.w3.org/Graphics/SVG/1.1/DTD/svg11.dtd">
<!-- Generated by graphviz version 12.1.0 (20240811.2233)
 -->
<!-- Title: NetworkClient::sendPacket Pages: 1 -->
<svg width="1035pt" height="214pt"
 viewBox="0.00 0.00 1034.75 213.67" xmlns="http://www.w3.org/2000/svg" xmlns:xlink="http://www.w3.org/1999/xlink">
<g id="graph0" class="graph" transform="scale(1 1) rotate(0) translate(4 209.67)">
<title>NetworkClient::sendPacket</title>
<!-- Node1 -->
<g id="Node000001" class="node">
<title>Node1</title>
<g id="a_Node000001"><a xlink:title=" ">
<polygon fill="#999999" stroke="#666666" points="1026.75,-115 890.75,-115 890.75,-95 1026.75,-95 1026.75,-115"/>
<text text-anchor="middle" x="958.75" y="-101.5" font-family="Helvetica,sans-Serif" font-size="10.00">NetworkClient::sendPacket</text>
</a>
</g>
</g>
<!-- Node2 -->
<g id="Node000002" class="node">
<title>Node2</title>
<g id="a_Node000002"><a xlink:href="classNetworkClient.html#afc8d05d54e88bce60554d9f31e9b0838" target="_top" xlink:title=" ">
<polygon fill="white" stroke="#666666" points="118.75,-163 0,-163 0,-143 118.75,-143 118.75,-163"/>
<text text-anchor="middle" x="59.38" y="-149.5" font-family="Helvetica,sans-Serif" font-size="10.00">NetworkClient::connect</text>
</a>
</g>
</g>
<!-- Node1&#45;&gt;Node2 -->
<g id="edge1_Node000001_Node000002" class="edge">
<title>Node1&#45;&gt;Node2</title>
<g id="a_edge1_Node000001_Node000002"><a xlink:title=" ">
<path fill="none" stroke="#63b8ff" d="M939.74,-123.35C920.57,-141.58 888.4,-168.55 854.75,-181 746.4,-221.1 711.03,-200 595.5,-200 595.5,-200 595.5,-200 403.88,-200 296.89,-200 172.87,-177.34 107.05,-163.49"/>
<polygon fill="#63b8ff" stroke="#63b8ff" points="942.05,-126 946.75,-116.5 937.15,-120.99 942.05,-126"/>
</a>
</g>
</g>
<!-- Node3 -->
<g id="Node000003" class="node">
<title>Node3</title>
<g id="a_Node000003"><a xlink:href="classNetworkClient.html#a529267d800eca8535bc84c1affcf2718" target="_top" xlink:title=" ">
<polygon fill="white" stroke="#666666" points="851,-172 713.5,-172 713.5,-152 851,-152 851,-172"/>
<text text-anchor="middle" x="782.25" y="-158.5" font-family="Helvetica,sans-Serif" font-size="10.00">NetworkClient::createRoom</text>
</a>
</g>
</g>
<!-- Node1&#45;&gt;Node3 -->
<g id="edge2_Node000001_Node000003" class="edge">
<title>Node1&#45;&gt;Node3</title>
<g id="a_edge2_Node000001_Node000003"><a xlink:title=" ">
<path fill="none" stroke="#63b8ff" d="M921.15,-119.45C901.6,-126.93 877.03,-135.95 854.75,-143 845.32,-145.98 835.1,-148.89 825.41,-151.5"/>
<polygon fill="#63b8ff" stroke="#63b8ff" points="922.26,-122.78 930.32,-115.91 919.74,-116.25 922.26,-122.78"/>
</a>
</g>
</g>
<!-- Node4 -->
<g id="Node000004" class="node">
<title>Node4</title>
<g id="a_Node000004"><a xlink:href="classNetworkClient.html#a3f2015048aa45b490f1ee8b47dc3b28f" target="_top" xlink:title=" ">
<polygon fill="white" stroke="#666666" points="845,-134 719.5,-134 719.5,-114 845,-114 845,-134"/>
<text text-anchor="middle" x="782.25" y="-120.5" font-family="Helvetica,sans-Serif" font-size="10.00">NetworkClient::joinRoom</text>
</a>
</g>
</g>
<!-- Node1&#45;&gt;Node4 -->
<g id="edge3_Node000001_Node000004" class="edge">
<title>Node1&#45;&gt;Node4</title>
<g id="a_edge3_Node000001_Node000004"><a xlink:title=" ">
<path fill="none" stroke="#63b8ff" d="M879.09,-113.57C867.79,-114.79 856.31,-116.05 845.4,-117.23"/>
<polygon fill="#63b8ff" stroke="#63b8ff" points="879.22,-117.07 888.78,-112.51 878.46,-110.11 879.22,-117.07"/>
</a>
</g>
</g>
<!-- Node5 -->
<g id="Node000005" class="node">
<title>Node5</title>
<g id="a_Node000005"><a xlink:href="classNetworkClient.html#ad3d2accfc25509feb50638e5cec6dc76" target="_top" xlink:title=" ">
<polygon fill="white" stroke="#666666" points="849.12,-96 715.38,-96 715.38,-76 849.12,-76 849.12,-96"/>
<text text-anchor="middle" x="782.25" y="-82.5" font-family="Helvetica,sans-Serif" font-size="10.00">NetworkClient::leaveRoom</text>
</a>
</g>
</g>
<!-- Node1&#45;&gt;Node5 -->
<g id="edge4_Node000001_Node000005" class="edge">
<title>Node1&#45;&gt;Node5</title>
<g id="a_edge4_Node000001_Node000005"><a xlink:title=" ">
<path fill="none" stroke="#63b8ff" d="M879.15,-96.44C869.21,-95.36 859.11,-94.26 849.39,-93.2"/>
<polygon fill="#63b8ff" stroke="#63b8ff" points="878.46,-99.89 888.78,-97.49 879.22,-92.93 878.46,-99.89"/>
</a>
</g>
</g>
<!-- Node6 -->
<g id="Node000006" class="node">
<title>Node6</title>
<g id="a_Node000006"><a xlink:href="classNetworkClient.html#a4c76dee697263665a9903aeb7149b81b" target="_top" xlink:title=" ">
<polygon fill="white" stroke="#666666" points="846.5,-58 718,-58 718,-38 846.5,-38 846.5,-58"/>
<text text-anchor="middle" x="782.25" y="-44.5" font-family="Helvetica,sans-Serif" font-size="10.00">NetworkClient::listRooms</text>
</a>
</g>
</g>
<!-- Node1&#45;&gt;Node6 -->
<g id="edge5_Node000001_Node000006" class="edge">
<title>Node1&#45;&gt;Node6</title>
<g id="a_edge5_Node000001_Node000006"><a xlink:title=" ">
<path fill="none" stroke="#63b8ff" d="M921.15,-90.55C901.6,-83.07 877.03,-74.05 854.75,-67 845.32,-64.02 835.1,-61.11 825.41,-58.5"/>
<polygon fill="#63b8ff" stroke="#63b8ff" points="919.74,-93.75 930.32,-94.09 922.26,-87.22 919.74,-93.75"/>
</a>
</g>
</g>
<!-- Node10 -->
<g id="Node000010" class="node">
<title>Node10</title>
<g id="a_Node000010"><a xlink:href="classNetworkClient.html#a7216687fbd6c8f6085d8a78c00204602" target="_top" xlink:title=" ">
<polygon fill="white" stroke="#666666" points="854.75,-20 709.75,-20 709.75,0 854.75,0 854.75,-20"/>
<text text-anchor="middle" x="782.25" y="-6.5" font-family="Helvetica,sans-Serif" font-size="10.00">NetworkClient::sendMessage</text>
</a>
</g>
</g>
<!-- Node1&#45;&gt;Node10 -->
<g id="edge11_Node000001_Node000010" class="edge">
<title>Node1&#45;&gt;Node10</title>
<g id="a_edge11_Node000001_Node000010"><a xlink:title=" ">
<path fill="none" stroke="#63b8ff" d="M938.25,-87.07C918.56,-69.86 886.57,-44.28 854.75,-29 847.8,-25.66 840.19,-22.85 832.59,-20.49"/>
<polygon fill="#63b8ff" stroke="#63b8ff" points="935.71,-89.5 945.51,-93.54 940.37,-84.27 935.71,-89.5"/>
</a>
</g>
</g>
<!-- Node7 -->
<g id="Node000007" class="node">
<title>Node7</title>
<g id="a_Node000007"><a xlink:href="classNetworkClient.html#a3db47d9224d5319ffca153c4a4784329" target="_top" xlink:title=" ">
<polygon fill="white" stroke="#666666" points="673.75,-87 515.25,-87 515.25,-67 673.75,-67 673.75,-87"/>
<text text-anchor="middle" x="594.5" y="-73.5" font-family="Helvetica,sans-Serif" font-size="10.00">NetworkClient::processMessage</text>
</a>
</g>
</g>
<!-- Node6&#45;&gt;Node7 -->
<g id="edge6_Node000006_Node000007" class="edge">
<title>Node6&#45;&gt;Node7</title>
<g id="a_edge6_Node000006_Node000007"><a xlink:title=" ">
<path fill="none" stroke="#63b8ff" d="M706.6,-59.65C692.04,-61.93 676.86,-64.3 662.57,-66.53"/>
<polygon fill="#63b8ff" stroke="#63b8ff" points="706.75,-63.17 716.09,-58.17 705.67,-56.26 706.75,-63.17"/>
</a>
</g>
</g>
<!-- Node8 -->
<g id="Node000008" class="node">
<title>Node8</title>
<g id="a_Node000008"><a xlink:href="classNetworkClient.html#ae2e39148013eaea326c8ae242ab341bc" target="_top" xlink:title=" ">
<polygon fill="white" stroke="#666666" points="479.25,-144 330.5,-144 330.5,-124 479.25,-124 479.25,-144"/>
<text text-anchor="middle" x="404.88" y="-130.5" font-family="Helvetica,sans-Serif" font-size="10.00">NetworkClient::handleReceive</text>
</a>
</g>
</g>
<!-- Node7&#45;&gt;Node8 -->
<g id="edge7_Node000007_Node000008" class="edge">
<title>Node7&#45;&gt;Node8</title>
<g id="a_edge7_Node000007_Node000008"><a xlink:title=" ">
<path fill="none" stroke="#63b8ff" d="M548.3,-90.73C515.12,-100.81 470.74,-114.29 440.39,-123.52"/>
<polygon fill="#63b8ff" stroke="#63b8ff" points="549.09,-94.15 557.64,-87.89 547.05,-87.45 549.09,-94.15"/>
</a>
</g>
</g>
<!-- Node9 -->
<g id="Node000009" class="node">
<title>Node9</title>
<g id="a_Node000009"><a xlink:href="classNetworkClient.html#a9202769a61813d85199c6249ac416705" target="_top" xlink:title=" ">
<polygon fill="white" stroke="#666666" points="294.5,-144 154.75,-144 154.75,-124 294.5,-124 294.5,-144"/>
<text text-anchor="middle" x="224.62" y="-130.5" font-family="Helvetica,sans-Serif" font-size="10.00">NetworkClient::startReceive</text>
</a>
</g>
</g>
<!-- Node8&#45;&gt;Node9 -->
<g id="edge8_Node000008_Node000009" class="edge">
<title>Node8&#45;&gt;Node9</title>
<g id="a_edge8_Node000008_Node000009"><a xlink:title=" ">
<path fill="none" stroke="#63b8ff" d="M318.77,-127.26C310.73,-127.23 302.65,-127.28 294.78,-127.4"/>
<polygon fill="#63b8ff" stroke="#63b8ff" points="318.55,-130.75 328.57,-127.33 318.6,-123.75 318.55,-130.75"/>
</a>
</g>
</g>
<!-- Node9&#45;&gt;Node2 -->
<g id="edge9_Node000009_Node000002" class="edge">
<title>Node9&#45;&gt;Node2</title>
<g id="a_edge9_Node000009_Node000002"><a xlink:title=" ">
<path fill="none" stroke="#63b8ff" d="M143.04,-143.38C134.99,-144.32 126.92,-145.26 119.15,-146.16"/>
<polygon fill="#63b8ff" stroke="#63b8ff" points="143.36,-146.87 152.89,-142.23 142.55,-139.91 143.36,-146.87"/>
</a>
</g>
</g>
<!-- Node9&#45;&gt;Node8 -->
<g id="edge10_Node000009_Node000008" class="edge">
<title>Node9&#45;&gt;Node8</title>
<g id="a_edge10_Node000009_Node000008"><a xlink:title=" ">
<path fill="none" stroke="#63b8ff" d="M306.02,-140.72C314.04,-140.77 322.15,-140.75 330.09,-140.66"/>
<polygon fill="#63b8ff" stroke="#63b8ff" points="306.33,-137.22 296.29,-140.61 306.26,-144.22 306.33,-137.22"/>
</a>
</g>
</g>
</g>
</svg>
