<?xml version="1.0" encoding="UTF-8" standalone="no"?>
<!DOCTYPE svg PUBLIC "-//W3C//DTD SVG 1.1//EN"
 "http://www.w3.org/Graphics/SVG/1.1/DTD/svg11.dtd">
<!-- Generated by graphviz version 12.1.0 (20240811.2233)
 -->
<!-- Title: Leaderboard::centerImage Pages: 1 -->
<svg width="518pt" height="104pt"
 viewBox="0.00 0.00 518.00 104.00" xmlns="http://www.w3.org/2000/svg" xmlns:xlink="http://www.w3.org/1999/xlink">
<g id="graph0" class="graph" transform="scale(1 1) rotate(0) translate(4 100)">
<title>Leaderboard::centerImage</title>
<!-- Node1 -->
<g id="Node000001" class="node">
<title>Node1</title>
<g id="a_Node000001"><a xlink:title=" ">
<polygon fill="#999999" stroke="#666666" points="510,-58 380.75,-58 380.75,-38 510,-38 510,-58"/>
<text text-anchor="middle" x="445.38" y="-44.5" font-family="Helvetica,sans-Serif" font-size="10.00">Leaderboard::centerImage</text>
</a>
</g>
</g>
<!-- Node2 -->
<g id="Node000002" class="node">
<title>Node2</title>
<g id="a_Node000002"><a xlink:href="classLeaderboard.html#a9dade7164f5bc1ba54117647b896515f" target="_top" xlink:title=" ">
<polygon fill="white" stroke="#666666" points="329.75,-96 200.5,-96 200.5,-76 329.75,-76 329.75,-96"/>
<text text-anchor="middle" x="265.12" y="-82.5" font-family="Helvetica,sans-Serif" font-size="10.00">Leaderboard::handleEvent</text>
</a>
</g>
</g>
<!-- Node1&#45;&gt;Node2 -->
<g id="edge1_Node000001_Node000002" class="edge">
<title>Node1&#45;&gt;Node2</title>
<g id="a_edge1_Node000001_Node000002"><a xlink:title=" ">
<path fill="none" stroke="#63b8ff" d="M384.08,-60.85C361.64,-65.64 336.46,-71.01 315.14,-75.55"/>
<polygon fill="#63b8ff" stroke="#63b8ff" points="384.66,-64.31 393.72,-58.8 383.21,-57.46 384.66,-64.31"/>
</a>
</g>
</g>
<!-- Node3 -->
<g id="Node000003" class="node">
<title>Node3</title>
<g id="a_Node000003"><a xlink:href="classLeaderboard.html#aae704c36e1e66a58e8530792b4da6ef1" target="_top" xlink:title=" ">
<polygon fill="white" stroke="#666666" points="335.38,-58 194.88,-58 194.88,-38 335.38,-38 335.38,-58"/>
<text text-anchor="middle" x="265.12" y="-44.5" font-family="Helvetica,sans-Serif" font-size="10.00">Leaderboard::loadResources</text>
</a>
</g>
</g>
<!-- Node1&#45;&gt;Node3 -->
<g id="edge2_Node000001_Node000003" class="edge">
<title>Node1&#45;&gt;Node3</title>
<g id="a_edge2_Node000001_Node000003"><a xlink:title=" ">
<path fill="none" stroke="#63b8ff" d="M368.92,-48C357.9,-48 346.59,-48 335.69,-48"/>
<polygon fill="#63b8ff" stroke="#63b8ff" points="368.76,-51.5 378.76,-48 368.76,-44.5 368.76,-51.5"/>
</a>
</g>
</g>
<!-- Node5 -->
<g id="Node000005" class="node">
<title>Node5</title>
<g id="a_Node000005"><a xlink:href="classLeaderboard.html#a4248bdf680c2182d27caaed2667d6132" target="_top" xlink:title=" ">
<polygon fill="white" stroke="#666666" points="344.75,-20 185.5,-20 185.5,0 344.75,0 344.75,-20"/>
<text text-anchor="middle" x="265.12" y="-6.5" font-family="Helvetica,sans-Serif" font-size="10.00">Leaderboard::updateWindowSize</text>
</a>
</g>
</g>
<!-- Node1&#45;&gt;Node5 -->
<g id="edge4_Node000001_Node000005" class="edge">
<title>Node1&#45;&gt;Node5</title>
<g id="a_edge4_Node000001_Node000005"><a xlink:title=" ">
<path fill="none" stroke="#63b8ff" d="M384.08,-35.15C361.64,-30.36 336.46,-24.99 315.14,-20.45"/>
<polygon fill="#63b8ff" stroke="#63b8ff" points="383.21,-38.54 393.72,-37.2 384.66,-31.69 383.21,-38.54"/>
</a>
</g>
</g>
<!-- Node4 -->
<g id="Node000004" class="node">
<title>Node4</title>
<g id="a_Node000004"><a xlink:href="classGameManager.html#ae60f9a9c5dc48f158537ed98d2b6dbfe" target="_top" xlink:title=" ">
<polygon fill="white" stroke="#666666" points="149.5,-58 0,-58 0,-38 149.5,-38 149.5,-58"/>
<text text-anchor="middle" x="74.75" y="-44.5" font-family="Helvetica,sans-Serif" font-size="10.00">GameManager::GameManager</text>
</a>
</g>
</g>
<!-- Node3&#45;&gt;Node4 -->
<g id="edge3_Node000003_Node000004" class="edge">
<title>Node3&#45;&gt;Node4</title>
<g id="a_edge3_Node000003_Node000004"><a xlink:title=" ">
<path fill="none" stroke="#63b8ff" d="M183.11,-48C172.05,-48 160.74,-48 149.81,-48"/>
<polygon fill="#63b8ff" stroke="#63b8ff" points="183,-51.5 193,-48 183,-44.5 183,-51.5"/>
</a>
</g>
</g>
</g>
</svg>
