<?xml version="1.0" encoding="UTF-8" standalone="no"?>
<!DOCTYPE svg PUBLIC "-//W3C//DTD SVG 1.1//EN"
 "http://www.w3.org/Graphics/SVG/1.1/DTD/svg11.dtd">
<!-- Generated by graphviz version 12.1.0 (20240811.2233)
 -->
<!-- Title: GameManager::cycleGraphicsQuality Pages: 1 -->
<svg width="543pt" height="116pt"
 viewBox="0.00 0.00 542.75 116.00" xmlns="http://www.w3.org/2000/svg" xmlns:xlink="http://www.w3.org/1999/xlink">
<g id="graph0" class="graph" transform="scale(1 1) rotate(0) translate(4 112)">
<title>GameManager::cycleGraphicsQuality</title>
<!-- Node1 -->
<g id="Node000001" class="node">
<title>Node1</title>
<g id="a_Node000001"><a xlink:title=" ">
<polygon fill="#999999" stroke="#666666" points="148,-64 0,-64 0,-32 148,-32 148,-64"/>
<text text-anchor="start" x="8" y="-50.5" font-family="Helvetica,sans-Serif" font-size="10.00">GameManager::cycleGraphics</text>
<text text-anchor="middle" x="74" y="-38.5" font-family="Helvetica,sans-Serif" font-size="10.00">Quality</text>
</a>
</g>
</g>
<!-- Node2 -->
<g id="Node000002" class="node">
<title>Node2</title>
<g id="a_Node000002"><a xlink:href="classParameters.html#ae06898aa199b69ba3b8b29ee880aabd6" target="_top" xlink:title=" ">
<polygon fill="white" stroke="#666666" points="342.12,-108 185.12,-108 185.12,-76 342.12,-76 342.12,-108"/>
<text text-anchor="start" x="193.12" y="-94.5" font-family="Helvetica,sans-Serif" font-size="10.00">Parameters::getCurrentGraphics</text>
<text text-anchor="middle" x="263.62" y="-82.5" font-family="Helvetica,sans-Serif" font-size="10.00">Quality</text>
</a>
</g>
</g>
<!-- Node1&#45;&gt;Node2 -->
<g id="edge1_Node000001_Node000002" class="edge">
<title>Node1&#45;&gt;Node2</title>
<g id="a_edge1_Node000001_Node000002"><a xlink:title=" ">
<path fill="none" stroke="#63b8ff" d="M145.13,-64.45C156.93,-67.21 169.25,-70.1 181.3,-72.93"/>
<polygon fill="#63b8ff" stroke="#63b8ff" points="180.26,-76.28 190.79,-75.15 181.86,-69.46 180.26,-76.28"/>
</a>
</g>
</g>
<!-- Node3 -->
<g id="Node000003" class="node">
<title>Node3</title>
<g id="a_Node000003"><a xlink:href="classParameters.html#a5fee9764416320845781343f62276521" target="_top" xlink:title=" ">
<polygon fill="white" stroke="#666666" points="341.38,-58 185.88,-58 185.88,-38 341.38,-38 341.38,-58"/>
<text text-anchor="middle" x="263.62" y="-44.5" font-family="Helvetica,sans-Serif" font-size="10.00">Parameters::setGraphicsQuality</text>
</a>
</g>
</g>
<!-- Node1&#45;&gt;Node3 -->
<g id="edge2_Node000001_Node000003" class="edge">
<title>Node1&#45;&gt;Node3</title>
<g id="a_edge2_Node000001_Node000003"><a xlink:title=" ">
<path fill="none" stroke="#63b8ff" d="M148.35,-48C156.85,-48 165.59,-48 174.27,-48"/>
<polygon fill="#63b8ff" stroke="#63b8ff" points="174.1,-51.5 184.1,-48 174.1,-44.5 174.1,-51.5"/>
</a>
</g>
</g>
<!-- Node5 -->
<g id="Node000005" class="node">
<title>Node5</title>
<g id="a_Node000005"><a xlink:href="classParticleSystem.html#aaa0bb2c4005e7d01b0fd23f685fd92fc" target="_top" xlink:title=" ">
<polygon fill="white" stroke="#666666" points="343.25,-20 184,-20 184,0 343.25,0 343.25,-20"/>
<text text-anchor="middle" x="263.62" y="-6.5" font-family="Helvetica,sans-Serif" font-size="10.00">ParticleSystem::setMaxParticles</text>
</a>
</g>
</g>
<!-- Node1&#45;&gt;Node5 -->
<g id="edge4_Node000001_Node000005" class="edge">
<title>Node1&#45;&gt;Node5</title>
<g id="a_edge4_Node000001_Node000005"><a xlink:title=" ">
<path fill="none" stroke="#63b8ff" d="M148.35,-33.14C165.3,-29.71 183.19,-26.09 199.65,-22.75"/>
<polygon fill="#63b8ff" stroke="#63b8ff" points="200.2,-26.21 209.31,-20.8 198.81,-19.35 200.2,-26.21"/>
</a>
</g>
</g>
<!-- Node4 -->
<g id="Node000004" class="node">
<title>Node4</title>
<g id="a_Node000004"><a xlink:href="classParameters.html#a457a6ed2d096be7f5b648c7df1c7fafa" target="_top" xlink:title=" ">
<polygon fill="white" stroke="#666666" points="534.75,-64 379.25,-64 379.25,-32 534.75,-32 534.75,-64"/>
<text text-anchor="start" x="387.25" y="-50.5" font-family="Helvetica,sans-Serif" font-size="10.00">Parameters::getGraphicsQuality</text>
<text text-anchor="middle" x="457" y="-38.5" font-family="Helvetica,sans-Serif" font-size="10.00">String</text>
</a>
</g>
</g>
<!-- Node3&#45;&gt;Node4 -->
<g id="edge3_Node000003_Node000004" class="edge">
<title>Node3&#45;&gt;Node4</title>
<g id="a_edge3_Node000003_Node000004"><a xlink:title=" ">
<path fill="none" stroke="#63b8ff" d="M341.64,-48C350.16,-48 358.89,-48 367.53,-48"/>
<polygon fill="#63b8ff" stroke="#63b8ff" points="367.32,-51.5 377.32,-48 367.32,-44.5 367.32,-51.5"/>
</a>
</g>
</g>
</g>
</svg>
