<?xml version="1.0" encoding="UTF-8" standalone="no"?>
<!DOCTYPE svg PUBLIC "-//W3C//DTD SVG 1.1//EN"
 "http://www.w3.org/Graphics/SVG/1.1/DTD/svg11.dtd">
<!-- Generated by graphviz version 12.1.0 (20240811.2233)
 -->
<!-- Title: RtypeServer::Protocol::writeRoomJoinedBody Pages: 1 -->
<svg width="606pt" height="40pt"
 viewBox="0.00 0.00 606.00 40.00" xmlns="http://www.w3.org/2000/svg" xmlns:xlink="http://www.w3.org/1999/xlink">
<g id="graph0" class="graph" transform="scale(1 1) rotate(0) translate(4 36)">
<title>RtypeServer::Protocol::writeRoomJoinedBody</title>
<!-- Node1 -->
<g id="Node000001" class="node">
<title>Node1</title>
<g id="a_Node000001"><a xlink:title=" ">
<polygon fill="#999999" stroke="#666666" points="598,-32 477.75,-32 477.75,0 598,0 598,-32"/>
<text text-anchor="start" x="485.75" y="-18.5" font-family="Helvetica,sans-Serif" font-size="10.00">RtypeServer::Protocol</text>
<text text-anchor="middle" x="537.88" y="-6.5" font-family="Helvetica,sans-Serif" font-size="10.00">::writeRoomJoinedBody</text>
</a>
</g>
</g>
<!-- Node2 -->
<g id="Node000002" class="node">
<title>Node2</title>
<g id="a_Node000002"><a xlink:href="classRtypeServer_1_1UdpServer.html#ae3593b22a1ed07c63ebf786f7667007c" target="_top" xlink:title=" ">
<polygon fill="white" stroke="#666666" points="441.75,-32 318.5,-32 318.5,0 441.75,0 441.75,-32"/>
<text text-anchor="start" x="326.5" y="-18.5" font-family="Helvetica,sans-Serif" font-size="10.00">RtypeServer::UdpServer</text>
<text text-anchor="middle" x="380.12" y="-6.5" font-family="Helvetica,sans-Serif" font-size="10.00">::send_room_joined</text>
</a>
</g>
</g>
<!-- Node1&#45;&gt;Node2 -->
<g id="edge1_Node000001_Node000002" class="edge">
<title>Node1&#45;&gt;Node2</title>
<g id="a_edge1_Node000001_Node000002"><a xlink:title=" ">
<path fill="none" stroke="#63b8ff" d="M466.25,-16C458.19,-16 450.02,-16 442.1,-16"/>
<polygon fill="#63b8ff" stroke="#63b8ff" points="466.03,-19.5 476.03,-16 466.03,-12.5 466.03,-19.5"/>
</a>
</g>
</g>
<!-- Node3 -->
<g id="Node000003" class="node">
<title>Node3</title>
<g id="a_Node000003"><a xlink:href="classRtypeServer_1_1UdpServer.html#ad6474bca80e8ede6d6bbf8ff3524c05e" target="_top" xlink:title=" ">
<polygon fill="white" stroke="#666666" points="282.5,-32 159.25,-32 159.25,0 282.5,0 282.5,-32"/>
<text text-anchor="start" x="167.25" y="-18.5" font-family="Helvetica,sans-Serif" font-size="10.00">RtypeServer::UdpServer</text>
<text text-anchor="middle" x="220.88" y="-6.5" font-family="Helvetica,sans-Serif" font-size="10.00">::handle_join_room</text>
</a>
</g>
</g>
<!-- Node2&#45;&gt;Node3 -->
<g id="edge2_Node000002_Node000003" class="edge">
<title>Node2&#45;&gt;Node3</title>
<g id="a_edge2_Node000002_Node000003"><a xlink:title=" ">
<path fill="none" stroke="#63b8ff" d="M306.98,-16C298.89,-16 290.7,-16 282.77,-16"/>
<polygon fill="#63b8ff" stroke="#63b8ff" points="306.81,-19.5 316.81,-16 306.81,-12.5 306.81,-19.5"/>
</a>
</g>
</g>
<!-- Node4 -->
<g id="Node000004" class="node">
<title>Node4</title>
<g id="a_Node000004"><a xlink:href="classRtypeServer_1_1UdpServer.html#a8edbc5c835a5d23856953e06f7877b8d" target="_top" xlink:title=" ">
<polygon fill="white" stroke="#666666" points="123.25,-32 0,-32 0,0 123.25,0 123.25,-32"/>
<text text-anchor="start" x="8" y="-18.5" font-family="Helvetica,sans-Serif" font-size="10.00">RtypeServer::UdpServer</text>
<text text-anchor="middle" x="61.62" y="-6.5" font-family="Helvetica,sans-Serif" font-size="10.00">::handle_create_room</text>
</a>
</g>
</g>
<!-- Node3&#45;&gt;Node4 -->
<g id="edge3_Node000003_Node000004" class="edge">
<title>Node3&#45;&gt;Node4</title>
<g id="a_edge3_Node000003_Node000004"><a xlink:title=" ">
<path fill="none" stroke="#63b8ff" d="M147.73,-16C139.64,-16 131.45,-16 123.52,-16"/>
<polygon fill="#63b8ff" stroke="#63b8ff" points="147.56,-19.5 157.56,-16 147.56,-12.5 147.56,-19.5"/>
</a>
</g>
</g>
</g>
</svg>
