<?xml version="1.0" encoding="UTF-8" standalone="no"?>
<!DOCTYPE svg PUBLIC "-//W3C//DTD SVG 1.1//EN"
 "http://www.w3.org/Graphics/SVG/1.1/DTD/svg11.dtd">
<!-- Generated by graphviz version 12.1.0 (20240811.2233)
 -->
<!-- Title: GameManager::updatePositions Pages: 1 -->
<svg width="351pt" height="78pt"
 viewBox="0.00 0.00 351.25 78.00" xmlns="http://www.w3.org/2000/svg" xmlns:xlink="http://www.w3.org/1999/xlink">
<g id="graph0" class="graph" transform="scale(1 1) rotate(0) translate(4 74)">
<title>GameManager::updatePositions</title>
<!-- Node1 -->
<g id="Node000001" class="node">
<title>Node1</title>
<g id="a_Node000001"><a xlink:title=" ">
<polygon fill="#999999" stroke="#666666" points="155.5,-48 0,-48 0,-28 155.5,-28 155.5,-48"/>
<text text-anchor="middle" x="77.75" y="-34.5" font-family="Helvetica,sans-Serif" font-size="10.00">GameManager::updatePositions</text>
</a>
</g>
</g>
<!-- Node2 -->
<g id="Node000002" class="node">
<title>Node2</title>
<g id="a_Node000002"><a xlink:href="classButton.html#ac28684e1eb644f7121492812f5e83471" target="_top" xlink:title=" ">
<polygon fill="white" stroke="#666666" points="343.25,-70 191.5,-70 191.5,-50 343.25,-50 343.25,-70"/>
<text text-anchor="middle" x="267.38" y="-56.5" font-family="Helvetica,sans-Serif" font-size="10.00">Button::updatePositionAndSize</text>
</a>
</g>
</g>
<!-- Node1&#45;&gt;Node2 -->
<g id="edge1_Node000001_Node000002" class="edge">
<title>Node1&#45;&gt;Node2</title>
<g id="a_edge1_Node000001_Node000002"><a xlink:title=" ">
<path fill="none" stroke="#63b8ff" d="M155.88,-47.04C163.78,-47.97 171.84,-48.92 179.83,-49.85"/>
<polygon fill="#63b8ff" stroke="#63b8ff" points="179.22,-53.3 189.56,-50.99 180.03,-46.35 179.22,-53.3"/>
</a>
</g>
</g>
<!-- Node3 -->
<g id="Node000003" class="node">
<title>Node3</title>
<g id="a_Node000003"><a xlink:href="classParamButton.html#a26d084094df8af9988e99861e713f561" target="_top" xlink:title=" ">
<polygon fill="white" stroke="#666666" points="339.12,-32 195.62,-32 195.62,0 339.12,0 339.12,-32"/>
<text text-anchor="start" x="203.62" y="-18.5" font-family="Helvetica,sans-Serif" font-size="10.00">ParamButton::updatePosition</text>
<text text-anchor="middle" x="267.38" y="-6.5" font-family="Helvetica,sans-Serif" font-size="10.00">AndSize</text>
</a>
</g>
</g>
<!-- Node1&#45;&gt;Node3 -->
<g id="edge2_Node000001_Node000003" class="edge">
<title>Node1&#45;&gt;Node3</title>
<g id="a_edge2_Node000001_Node000003"><a xlink:title=" ">
<path fill="none" stroke="#63b8ff" d="M155.88,-28.96C165.15,-27.87 174.64,-26.76 183.98,-25.66"/>
<polygon fill="#63b8ff" stroke="#63b8ff" points="184.25,-29.15 193.77,-24.51 183.43,-22.2 184.25,-29.15"/>
</a>
</g>
</g>
</g>
</svg>
