<?xml version="1.0" encoding="UTF-8" standalone="no"?>
<!DOCTYPE svg PUBLIC "-//W3C//DTD SVG 1.1//EN"
 "http://www.w3.org/Graphics/SVG/1.1/DTD/svg11.dtd">
<!-- Generated by graphviz version 12.1.0 (20240811.2233)
 -->
<!-- Title: NetworkClient::connect Pages: 1 -->
<svg width="1028pt" height="592pt"
 viewBox="0.00 0.00 1028.00 592.00" xmlns="http://www.w3.org/2000/svg" xmlns:xlink="http://www.w3.org/1999/xlink">
<g id="graph0" class="graph" transform="scale(1 1) rotate(0) translate(4 588)">
<title>NetworkClient::connect</title>
<!-- Node1 -->
<g id="Node000001" class="node">
<title>Node1</title>
<g id="a_Node000001"><a xlink:title=" ">
<polygon fill="#999999" stroke="#666666" points="118.75,-314 0,-314 0,-294 118.75,-294 118.75,-314"/>
<text text-anchor="middle" x="59.38" y="-300.5" font-family="Helvetica,sans-Serif" font-size="10.00">NetworkClient::connect</text>
</a>
</g>
</g>
<!-- Node2 -->
<g id="Node000002" class="node">
<title>Node2</title>
<g id="a_Node000002"><a xlink:href="classNetworkClient.html#a123c671c816a9cc956f0073ce448a9d4" target="_top" xlink:title=" ">
<polygon fill="white" stroke="#666666" points="303.5,-584 154.75,-584 154.75,-564 303.5,-564 303.5,-584"/>
<text text-anchor="middle" x="229.12" y="-570.5" font-family="Helvetica,sans-Serif" font-size="10.00">NetworkClient::networkThread</text>
</a>
</g>
</g>
<!-- Node1&#45;&gt;Node2 -->
<g id="edge1_Node000001_Node000002" class="edge">
<title>Node1&#45;&gt;Node2</title>
<g id="a_edge1_Node000001_Node000002"><a xlink:title=" ">
<path fill="none" stroke="#63b8ff" d="M61.24,-314.37C64.94,-351.81 82.66,-481.44 154.75,-550 158.19,-553.27 162.09,-556.1 166.24,-558.54"/>
<polygon fill="#63b8ff" stroke="#63b8ff" points="164.46,-561.56 174.97,-562.89 167.58,-555.3 164.46,-561.56"/>
</a>
</g>
</g>
<!-- Node3 -->
<g id="Node000003" class="node">
<title>Node3</title>
<g id="a_Node000003"><a xlink:href="classNetworkClient.html#ad307cf1f5e6ff844ef8c1e106df510f5" target="_top" xlink:title=" ">
<polygon fill="white" stroke="#666666" points="1020,-527 884,-527 884,-507 1020,-507 1020,-527"/>
<text text-anchor="middle" x="952" y="-513.5" font-family="Helvetica,sans-Serif" font-size="10.00">NetworkClient::sendPacket</text>
</a>
</g>
</g>
<!-- Node1&#45;&gt;Node3 -->
<g id="edge2_Node000001_Node000003" class="edge">
<title>Node1&#45;&gt;Node3</title>
<g id="a_edge2_Node000001_Node000003"><a xlink:title=" ">
<path fill="none" stroke="#63b8ff" d="M68.06,-314.27C102.62,-359.17 249.13,-536 412.88,-536 412.88,-536 412.88,-536 604.5,-536 696.52,-536 802.09,-529.24 872.28,-523.78"/>
<polygon fill="#63b8ff" stroke="#63b8ff" points="872.46,-527.28 882.15,-523 871.91,-520.3 872.46,-527.28"/>
</a>
</g>
</g>
<!-- Node4 -->
<g id="Node000004" class="node">
<title>Node4</title>
<g id="a_Node000004"><a xlink:href="classNetworkClient.html#a9202769a61813d85199c6249ac416705" target="_top" xlink:title=" ">
<polygon fill="white" stroke="#666666" points="299,-314 159.25,-314 159.25,-294 299,-294 299,-314"/>
<text text-anchor="middle" x="229.12" y="-300.5" font-family="Helvetica,sans-Serif" font-size="10.00">NetworkClient::startReceive</text>
</a>
</g>
</g>
<!-- Node1&#45;&gt;Node4 -->
<g id="edge3_Node000001_Node000004" class="edge">
<title>Node1&#45;&gt;Node4</title>
<g id="a_edge3_Node000001_Node000004"><a xlink:title=" ">
<path fill="none" stroke="#63b8ff" d="M119.05,-304C128.28,-304 137.97,-304 147.59,-304"/>
<polygon fill="#63b8ff" stroke="#63b8ff" points="147.32,-307.5 157.32,-304 147.32,-300.5 147.32,-307.5"/>
</a>
</g>
</g>
<!-- Node8 -->
<g id="Node000008" class="node">
<title>Node8</title>
<g id="a_Node000008"><a xlink:href="classRtypeServer_1_1Protocol.html#ad918184440d6fcb33f231a7173a67399" target="_top" xlink:title=" ">
<polygon fill="white" stroke="#666666" points="1008.38,-292 895.62,-292 895.62,-260 1008.38,-260 1008.38,-292"/>
<text text-anchor="start" x="903.62" y="-278.5" font-family="Helvetica,sans-Serif" font-size="10.00">RtypeServer::Protocol</text>
<text text-anchor="middle" x="952" y="-266.5" font-family="Helvetica,sans-Serif" font-size="10.00">::writeHeader</text>
</a>
</g>
</g>
<!-- Node1&#45;&gt;Node8 -->
<g id="edge18_Node000001_Node000008" class="edge">
<title>Node1&#45;&gt;Node8</title>
<g id="a_edge18_Node000001_Node000008"><a xlink:title=" ">
<path fill="none" stroke="#63b8ff" d="M67.71,-293.52C101.31,-246.81 246.15,-60 412.88,-60 412.88,-60 412.88,-60 604.5,-60 713.05,-60 757.41,-19.2 848,-79 907.89,-118.54 935.12,-204.58 945.54,-248.7"/>
<polygon fill="#63b8ff" stroke="#63b8ff" points="942.07,-249.24 947.66,-258.24 948.9,-247.72 942.07,-249.24"/>
</a>
</g>
</g>
<!-- Node17 -->
<g id="Node000017" class="node">
<title>Node17</title>
<g id="a_Node000017"><a xlink:href="classRtypeServer_1_1Protocol.html#a19d9410f57d6f95b378d87b6501fe465" target="_top" xlink:title=" ">
<polygon fill="white" stroke="#666666" points="285.5,-32 172.75,-32 172.75,0 285.5,0 285.5,-32"/>
<text text-anchor="start" x="180.75" y="-18.5" font-family="Helvetica,sans-Serif" font-size="10.00">RtypeServer::Protocol</text>
<text text-anchor="middle" x="229.12" y="-6.5" font-family="Helvetica,sans-Serif" font-size="10.00">::writeHelloBody</text>
</a>
</g>
</g>
<!-- Node1&#45;&gt;Node17 -->
<g id="edge19_Node000001_Node000017" class="edge">
<title>Node1&#45;&gt;Node17</title>
<g id="a_edge19_Node000001_Node000017"><a xlink:title=" ">
<path fill="none" stroke="#63b8ff" d="M61.23,-293.58C64.9,-255.32 82.62,-120.88 154.75,-46 157.46,-43.19 160.47,-40.63 163.67,-38.31"/>
<polygon fill="#63b8ff" stroke="#63b8ff" points="165.27,-41.44 171.88,-33.16 161.55,-35.51 165.27,-41.44"/>
</a>
</g>
</g>
<!-- Node5 -->
<g id="Node000005" class="node">
<title>Node5</title>
<g id="a_Node000005"><a xlink:href="classNetworkClient.html#ae2e39148013eaea326c8ae242ab341bc" target="_top" xlink:title=" ">
<polygon fill="white" stroke="#666666" points="488.25,-314 339.5,-314 339.5,-294 488.25,-294 488.25,-314"/>
<text text-anchor="middle" x="413.88" y="-300.5" font-family="Helvetica,sans-Serif" font-size="10.00">NetworkClient::handleReceive</text>
</a>
</g>
</g>
<!-- Node4&#45;&gt;Node5 -->
<g id="edge4_Node000004_Node000005" class="edge">
<title>Node4&#45;&gt;Node5</title>
<g id="a_edge4_Node000004_Node000005"><a xlink:title=" ">
<path fill="none" stroke="#63b8ff" d="M299.48,-297.43C308.66,-297.28 318.17,-297.22 327.59,-297.26"/>
<polygon fill="#63b8ff" stroke="#63b8ff" points="327.46,-300.76 337.49,-297.35 327.52,-293.76 327.46,-300.76"/>
</a>
</g>
</g>
<!-- Node5&#45;&gt;Node4 -->
<g id="edge17_Node000005_Node000004" class="edge">
<title>Node5&#45;&gt;Node4</title>
<g id="a_edge17_Node000005_Node000004"><a xlink:title=" ">
<path fill="none" stroke="#63b8ff" d="M339,-310.64C329.72,-310.76 320.19,-310.78 310.81,-310.71"/>
<polygon fill="#63b8ff" stroke="#63b8ff" points="311.03,-307.21 300.99,-310.59 310.95,-314.21 311.03,-307.21"/>
</a>
</g>
</g>
<!-- Node6 -->
<g id="Node000006" class="node">
<title>Node6</title>
<g id="a_Node000006"><a xlink:href="classNetworkClient.html#a3db47d9224d5319ffca153c4a4784329" target="_top" xlink:title=" ">
<polygon fill="white" stroke="#666666" points="682.75,-314 524.25,-314 524.25,-294 682.75,-294 682.75,-314"/>
<text text-anchor="middle" x="603.5" y="-300.5" font-family="Helvetica,sans-Serif" font-size="10.00">NetworkClient::processMessage</text>
</a>
</g>
</g>
<!-- Node5&#45;&gt;Node6 -->
<g id="edge5_Node000005_Node000006" class="edge">
<title>Node5&#45;&gt;Node6</title>
<g id="a_edge5_Node000005_Node000006"><a xlink:title=" ">
<path fill="none" stroke="#63b8ff" d="M488.49,-304C496.38,-304 504.46,-304 512.51,-304"/>
<polygon fill="#63b8ff" stroke="#63b8ff" points="512.32,-307.5 522.32,-304 512.32,-300.5 512.32,-307.5"/>
</a>
</g>
</g>
<!-- Node7 -->
<g id="Node000007" class="node">
<title>Node7</title>
<g id="a_Node000007"><a xlink:href="classNetworkClient.html#a4c76dee697263665a9903aeb7149b81b" target="_top" xlink:title=" ">
<polygon fill="white" stroke="#666666" points="847.62,-508 719.12,-508 719.12,-488 847.62,-488 847.62,-508"/>
<text text-anchor="middle" x="783.38" y="-494.5" font-family="Helvetica,sans-Serif" font-size="10.00">NetworkClient::listRooms</text>
</a>
</g>
</g>
<!-- Node6&#45;&gt;Node7 -->
<g id="edge6_Node000006_Node000007" class="edge">
<title>Node6&#45;&gt;Node7</title>
<g id="a_edge6_Node000006_Node000007"><a xlink:title=" ">
<path fill="none" stroke="#63b8ff" d="M608.16,-314.08C619.57,-344.01 657.4,-433.2 718.75,-479 720.48,-480.29 722.3,-481.5 724.19,-482.62"/>
<polygon fill="#63b8ff" stroke="#63b8ff" points="722.2,-485.54 732.7,-486.91 725.34,-479.29 722.2,-485.54"/>
</a>
</g>
</g>
<!-- Node9 -->
<g id="Node000009" class="node">
<title>Node9</title>
<g id="a_Node000009"><a xlink:href="classRtypeServer_1_1Protocol.html#a7ae416c1a86e67eb7500bd81868540cb" target="_top" xlink:title=" ">
<polygon fill="white" stroke="#666666" points="839.75,-470 727,-470 727,-438 839.75,-438 839.75,-470"/>
<text text-anchor="start" x="735" y="-456.5" font-family="Helvetica,sans-Serif" font-size="10.00">RtypeServer::Protocol</text>
<text text-anchor="middle" x="783.38" y="-444.5" font-family="Helvetica,sans-Serif" font-size="10.00">::readHeader</text>
</a>
</g>
</g>
<!-- Node6&#45;&gt;Node9 -->
<g id="edge9_Node000006_Node000009" class="edge">
<title>Node6&#45;&gt;Node9</title>
<g id="a_edge9_Node000006_Node000009"><a xlink:title=" ">
<path fill="none" stroke="#63b8ff" d="M611.31,-314.19C627.39,-337.55 670.06,-395.52 718.75,-429 720.33,-430.09 721.96,-431.14 723.64,-432.15"/>
<polygon fill="#63b8ff" stroke="#63b8ff" points="721.8,-435.13 732.26,-436.82 725.13,-428.98 721.8,-435.13"/>
</a>
</g>
</g>
<!-- Node10 -->
<g id="Node000010" class="node">
<title>Node10</title>
<g id="a_Node000010"><a xlink:href="classRtypeServer_1_1Protocol.html#aefe182e0b8207a9b0c5c9314fc9bcc24" target="_top" xlink:title=" ">
<polygon fill="white" stroke="#666666" points="845.38,-420 721.38,-420 721.38,-388 845.38,-388 845.38,-420"/>
<text text-anchor="start" x="729.38" y="-406.5" font-family="Helvetica,sans-Serif" font-size="10.00">RtypeServer::Protocol</text>
<text text-anchor="middle" x="783.38" y="-394.5" font-family="Helvetica,sans-Serif" font-size="10.00">::readRoomCreatedBody</text>
</a>
</g>
</g>
<!-- Node6&#45;&gt;Node10 -->
<g id="edge10_Node000006_Node000010" class="edge">
<title>Node6&#45;&gt;Node10</title>
<g id="a_edge10_Node000006_Node000010"><a xlink:title=" ">
<path fill="none" stroke="#63b8ff" d="M618.35,-314.46C639.29,-329.94 680.61,-359.26 718.75,-379 721.29,-380.31 723.91,-381.6 726.58,-382.85"/>
<polygon fill="#63b8ff" stroke="#63b8ff" points="725.08,-386.02 735.64,-386.9 727.93,-379.63 725.08,-386.02"/>
</a>
</g>
</g>
<!-- Node11 -->
<g id="Node000011" class="node">
<title>Node11</title>
<g id="a_Node000011"><a xlink:href="classRtypeServer_1_1Protocol.html#ad791c08d720fad6c97eb1281c0d3f793" target="_top" xlink:title=" ">
<polygon fill="white" stroke="#666666" points="839.75,-370 727,-370 727,-338 839.75,-338 839.75,-370"/>
<text text-anchor="start" x="735" y="-356.5" font-family="Helvetica,sans-Serif" font-size="10.00">RtypeServer::Protocol</text>
<text text-anchor="middle" x="783.38" y="-344.5" font-family="Helvetica,sans-Serif" font-size="10.00">::readRoomErrorBody</text>
</a>
</g>
</g>
<!-- Node6&#45;&gt;Node11 -->
<g id="edge11_Node000006_Node000011" class="edge">
<title>Node6&#45;&gt;Node11</title>
<g id="a_edge11_Node000006_Node000011"><a xlink:title=" ">
<path fill="none" stroke="#63b8ff" d="M641.79,-314.48C663.17,-320.49 690.66,-328.22 715.64,-335.24"/>
<polygon fill="#63b8ff" stroke="#63b8ff" points="714.51,-338.56 725.09,-337.9 716.41,-331.82 714.51,-338.56"/>
</a>
</g>
</g>
<!-- Node12 -->
<g id="Node000012" class="node">
<title>Node12</title>
<g id="a_Node000012"><a xlink:href="classRtypeServer_1_1Protocol.html#afe33d8c3050627d0039de4bf29dcb5a1" target="_top" xlink:title=" ">
<polygon fill="white" stroke="#666666" points="842.38,-320 724.38,-320 724.38,-288 842.38,-288 842.38,-320"/>
<text text-anchor="start" x="732.38" y="-306.5" font-family="Helvetica,sans-Serif" font-size="10.00">RtypeServer::Protocol</text>
<text text-anchor="middle" x="783.38" y="-294.5" font-family="Helvetica,sans-Serif" font-size="10.00">::readRoomJoinedBody</text>
</a>
</g>
</g>
<!-- Node6&#45;&gt;Node12 -->
<g id="edge12_Node000006_Node000012" class="edge">
<title>Node6&#45;&gt;Node12</title>
<g id="a_edge12_Node000006_Node000012"><a xlink:title=" ">
<path fill="none" stroke="#63b8ff" d="M683.04,-304C692.94,-304 703.01,-304 712.76,-304"/>
<polygon fill="#63b8ff" stroke="#63b8ff" points="712.51,-307.5 722.51,-304 712.51,-300.5 712.51,-307.5"/>
</a>
</g>
</g>
<!-- Node13 -->
<g id="Node000013" class="node">
<title>Node13</title>
<g id="a_Node000013"><a xlink:href="classRtypeServer_1_1Protocol.html#abde690c7dc5ee22f6e646cbbf7523b3b" target="_top" xlink:title=" ">
<polygon fill="white" stroke="#666666" points="839.75,-270 727,-270 727,-238 839.75,-238 839.75,-270"/>
<text text-anchor="start" x="735" y="-256.5" font-family="Helvetica,sans-Serif" font-size="10.00">RtypeServer::Protocol</text>
<text text-anchor="middle" x="783.38" y="-244.5" font-family="Helvetica,sans-Serif" font-size="10.00">::readRoomLeftBody</text>
</a>
</g>
</g>
<!-- Node6&#45;&gt;Node13 -->
<g id="edge13_Node000006_Node000013" class="edge">
<title>Node6&#45;&gt;Node13</title>
<g id="a_edge13_Node000006_Node000013"><a xlink:title=" ">
<path fill="none" stroke="#63b8ff" d="M641.79,-293.52C663.17,-287.51 690.66,-279.78 715.64,-272.76"/>
<polygon fill="#63b8ff" stroke="#63b8ff" points="716.41,-276.18 725.09,-270.1 714.51,-269.44 716.41,-276.18"/>
</a>
</g>
</g>
<!-- Node14 -->
<g id="Node000014" class="node">
<title>Node14</title>
<g id="a_Node000014"><a xlink:href="classRtypeServer_1_1Protocol.html#ad9b727fe0be0c583db5a98d5b5b3a04b" target="_top" xlink:title=" ">
<polygon fill="white" stroke="#666666" points="839.75,-220 727,-220 727,-188 839.75,-188 839.75,-220"/>
<text text-anchor="start" x="735" y="-206.5" font-family="Helvetica,sans-Serif" font-size="10.00">RtypeServer::Protocol</text>
<text text-anchor="middle" x="783.38" y="-194.5" font-family="Helvetica,sans-Serif" font-size="10.00">::readRoomListBody</text>
</a>
</g>
</g>
<!-- Node6&#45;&gt;Node14 -->
<g id="edge14_Node000006_Node000014" class="edge">
<title>Node6&#45;&gt;Node14</title>
<g id="a_edge14_Node000006_Node000014"><a xlink:title=" ">
<path fill="none" stroke="#63b8ff" d="M618.35,-293.54C639.29,-278.06 680.61,-248.74 718.75,-229 721.29,-227.69 723.91,-226.4 726.58,-225.15"/>
<polygon fill="#63b8ff" stroke="#63b8ff" points="727.93,-228.37 735.64,-221.1 725.08,-221.98 727.93,-228.37"/>
</a>
</g>
</g>
<!-- Node15 -->
<g id="Node000015" class="node">
<title>Node15</title>
<g id="a_Node000015"><a xlink:href="classRtypeServer_1_1Protocol.html#a1d59245eae226e073600c4c8157388c0" target="_top" xlink:title=" ">
<polygon fill="white" stroke="#666666" points="848,-170 718.75,-170 718.75,-138 848,-138 848,-170"/>
<text text-anchor="start" x="726.75" y="-156.5" font-family="Helvetica,sans-Serif" font-size="10.00">RtypeServer::Protocol</text>
<text text-anchor="middle" x="783.38" y="-144.5" font-family="Helvetica,sans-Serif" font-size="10.00">::readRoomMessageBody</text>
</a>
</g>
</g>
<!-- Node6&#45;&gt;Node15 -->
<g id="edge15_Node000006_Node000015" class="edge">
<title>Node6&#45;&gt;Node15</title>
<g id="a_edge15_Node000006_Node000015"><a xlink:title=" ">
<path fill="none" stroke="#63b8ff" d="M611.31,-293.81C627.39,-270.45 670.06,-212.48 718.75,-179 720.33,-177.91 721.96,-176.86 723.64,-175.85"/>
<polygon fill="#63b8ff" stroke="#63b8ff" points="725.13,-179.02 732.26,-171.18 721.8,-172.87 725.13,-179.02"/>
</a>
</g>
</g>
<!-- Node16 -->
<g id="Node000016" class="node">
<title>Node16</title>
<g id="a_Node000016"><a xlink:href="classRtypeServer_1_1Protocol.html#ac5cd35b625c214fe377e3efead2f4f8d" target="_top" xlink:title=" ">
<polygon fill="white" stroke="#666666" points="839.75,-120 727,-120 727,-88 839.75,-88 839.75,-120"/>
<text text-anchor="start" x="735" y="-106.5" font-family="Helvetica,sans-Serif" font-size="10.00">RtypeServer::Protocol</text>
<text text-anchor="middle" x="783.38" y="-94.5" font-family="Helvetica,sans-Serif" font-size="10.00">::readWelcomeBody</text>
</a>
</g>
</g>
<!-- Node6&#45;&gt;Node16 -->
<g id="edge16_Node000006_Node000016" class="edge">
<title>Node6&#45;&gt;Node16</title>
<g id="a_edge16_Node000006_Node000016"><a xlink:title=" ">
<path fill="none" stroke="#63b8ff" d="M608.52,-293.74C620.64,-264.05 659.67,-177.11 718.75,-129 719.86,-128.09 721.01,-127.22 722.19,-126.37"/>
<polygon fill="#63b8ff" stroke="#63b8ff" points="723.82,-129.48 730.47,-121.23 720.12,-123.53 723.82,-129.48"/>
</a>
</g>
</g>
<!-- Node7&#45;&gt;Node3 -->
<g id="edge7_Node000007_Node000003" class="edge">
<title>Node7&#45;&gt;Node3</title>
<g id="a_edge7_Node000007_Node000003"><a xlink:title=" ">
<path fill="none" stroke="#63b8ff" d="M847.84,-505.24C855.78,-506.14 863.98,-507.08 872.11,-508"/>
<polygon fill="#63b8ff" stroke="#63b8ff" points="871.71,-511.48 882.05,-509.14 872.51,-504.53 871.71,-511.48"/>
</a>
</g>
</g>
<!-- Node7&#45;&gt;Node8 -->
<g id="edge8_Node000007_Node000008" class="edge">
<title>Node7&#45;&gt;Node8</title>
<g id="a_edge8_Node000007_Node000008"><a xlink:title=" ">
<path fill="none" stroke="#63b8ff" d="M834.04,-487.63C839.06,-485.31 843.84,-482.47 848,-479 904.13,-432.13 932.93,-346.96 944.58,-303.34"/>
<polygon fill="#63b8ff" stroke="#63b8ff" points="947.91,-304.48 946.99,-293.92 941.12,-302.75 947.91,-304.48"/>
</a>
</g>
</g>
</g>
</svg>
