<?xml version="1.0" encoding="UTF-8" standalone="no"?>
<!DOCTYPE svg PUBLIC "-//W3C//DTD SVG 1.1//EN"
 "http://www.w3.org/Graphics/SVG/1.1/DTD/svg11.dtd">
<!-- Generated by graphviz version 12.1.0 (20240811.2233)
 -->
<!-- Title: ParticleSystem::update Pages: 1 -->
<svg width="508pt" height="216pt"
 viewBox="0.00 0.00 507.50 216.00" xmlns="http://www.w3.org/2000/svg" xmlns:xlink="http://www.w3.org/1999/xlink">
<g id="graph0" class="graph" transform="scale(1 1) rotate(0) translate(4 212)">
<title>ParticleSystem::update</title>
<!-- Node1 -->
<g id="Node000001" class="node">
<title>Node1</title>
<g id="a_Node000001"><a xlink:title=" ">
<polygon fill="#999999" stroke="#666666" points="118,-95 0,-95 0,-75 118,-75 118,-95"/>
<text text-anchor="middle" x="59" y="-81.5" font-family="Helvetica,sans-Serif" font-size="10.00">ParticleSystem::update</text>
</a>
</g>
</g>
<!-- Node2 -->
<g id="Node000002" class="node">
<title>Node2</title>
<g id="a_Node000002"><a xlink:href="classParticleSystem.html#aa446ccbbc59cb9dc98c3dce3b6aedd4a" target="_top" xlink:title=" ">
<polygon fill="white" stroke="#666666" points="304.62,-114 154.38,-114 154.38,-94 304.62,-94 304.62,-114"/>
<text text-anchor="middle" x="229.5" y="-100.5" font-family="Helvetica,sans-Serif" font-size="10.00">ParticleSystem::spawnParticle</text>
</a>
</g>
</g>
<!-- Node1&#45;&gt;Node2 -->
<g id="edge1_Node000001_Node000002" class="edge">
<title>Node1&#45;&gt;Node2</title>
<g id="a_edge1_Node000001_Node000002"><a xlink:title=" ">
<path fill="none" stroke="#63b8ff" d="M118.46,-91.59C126.37,-92.48 134.61,-93.41 142.87,-94.34"/>
<polygon fill="#63b8ff" stroke="#63b8ff" points="142.28,-97.8 152.61,-95.44 143.07,-90.84 142.28,-97.8"/>
</a>
</g>
</g>
<!-- Node8 -->
<g id="Node000008" class="node">
<title>Node8</title>
<g id="a_Node000008"><a xlink:href="classParticleSystem.html#ad0dcb05d87185411a342566a37b2eee1" target="_top" xlink:title=" ">
<polygon fill="white" stroke="#666666" points="305,-76 154,-76 154,-56 305,-56 305,-76"/>
<text text-anchor="middle" x="229.5" y="-62.5" font-family="Helvetica,sans-Serif" font-size="10.00">ParticleSystem::updateParticle</text>
</a>
</g>
</g>
<!-- Node1&#45;&gt;Node8 -->
<g id="edge7_Node000001_Node000008" class="edge">
<title>Node1&#45;&gt;Node8</title>
<g id="a_edge7_Node000001_Node000008"><a xlink:title=" ">
<path fill="none" stroke="#63b8ff" d="M118.46,-78.41C126.15,-77.54 134.15,-76.64 142.18,-75.73"/>
<polygon fill="#63b8ff" stroke="#63b8ff" points="142.47,-79.22 152.02,-74.62 141.69,-72.27 142.47,-79.22"/>
</a>
</g>
</g>
<!-- Node3 -->
<g id="Node000003" class="node">
<title>Node3</title>
<g id="a_Node000003"><a xlink:href="classParticleSystem.html#a45c54539a80ca1de8f827e3c081f4dc0" target="_top" xlink:title=" ">
<polygon fill="white" stroke="#666666" points="489.75,-208 350.75,-208 350.75,-176 489.75,-176 489.75,-208"/>
<text text-anchor="start" x="358.75" y="-194.5" font-family="Helvetica,sans-Serif" font-size="10.00">ParticleSystem::getRandom</text>
<text text-anchor="middle" x="420.25" y="-182.5" font-family="Helvetica,sans-Serif" font-size="10.00">Color</text>
</a>
</g>
</g>
<!-- Node2&#45;&gt;Node3 -->
<g id="edge2_Node000002_Node000003" class="edge">
<title>Node2&#45;&gt;Node3</title>
<g id="a_edge2_Node000002_Node000003"><a xlink:title=" ">
<path fill="none" stroke="#63b8ff" d="M246.42,-114.5C267.41,-128 305.82,-151.55 341,-167 344.57,-168.57 348.27,-170.08 352.03,-171.54"/>
<polygon fill="#63b8ff" stroke="#63b8ff" points="350.72,-174.79 361.31,-174.98 353.14,-168.23 350.72,-174.79"/>
</a>
</g>
</g>
<!-- Node4 -->
<g id="Node000004" class="node">
<title>Node4</title>
<g id="a_Node000004"><a xlink:href="classParticleSystem.html#a0bfa46f2bc767edf8e857b6308708b31" target="_top" xlink:title=" ">
<polygon fill="white" stroke="#666666" points="497.62,-158 342.88,-158 342.88,-138 497.62,-138 497.62,-158"/>
<text text-anchor="middle" x="420.25" y="-144.5" font-family="Helvetica,sans-Serif" font-size="10.00">ParticleSystem::getRandomLife</text>
</a>
</g>
</g>
<!-- Node2&#45;&gt;Node4 -->
<g id="edge3_Node000002_Node000004" class="edge">
<title>Node2&#45;&gt;Node4</title>
<g id="a_edge3_Node000002_Node000004"><a xlink:title=" ">
<path fill="none" stroke="#63b8ff" d="M275.23,-114.43C301.7,-120.6 335.44,-128.46 363.62,-135.03"/>
<polygon fill="#63b8ff" stroke="#63b8ff" points="362.51,-138.37 373.04,-137.23 364.09,-131.55 362.51,-138.37"/>
</a>
</g>
</g>
<!-- Node5 -->
<g id="Node000005" class="node">
<title>Node5</title>
<g id="a_Node000005"><a xlink:href="classParticleSystem.html#ab46d7e29af8876dfa45f1e834e2dc2ee" target="_top" xlink:title=" ">
<polygon fill="white" stroke="#666666" points="489.75,-120 350.75,-120 350.75,-88 489.75,-88 489.75,-120"/>
<text text-anchor="start" x="358.75" y="-106.5" font-family="Helvetica,sans-Serif" font-size="10.00">ParticleSystem::getRandom</text>
<text text-anchor="middle" x="420.25" y="-94.5" font-family="Helvetica,sans-Serif" font-size="10.00">Position</text>
</a>
</g>
</g>
<!-- Node2&#45;&gt;Node5 -->
<g id="edge4_Node000002_Node000005" class="edge">
<title>Node2&#45;&gt;Node5</title>
<g id="a_edge4_Node000002_Node000005"><a xlink:title=" ">
<path fill="none" stroke="#63b8ff" d="M305.1,-104C316.31,-104 327.9,-104 339.21,-104"/>
<polygon fill="#63b8ff" stroke="#63b8ff" points="338.9,-107.5 348.9,-104 338.9,-100.5 338.9,-107.5"/>
</a>
</g>
</g>
<!-- Node6 -->
<g id="Node000006" class="node">
<title>Node6</title>
<g id="a_Node000006"><a xlink:href="classParticleSystem.html#a19c9832490b8c9b47ea11629b677663c" target="_top" xlink:title=" ">
<polygon fill="white" stroke="#666666" points="499.5,-70 341,-70 341,-50 499.5,-50 499.5,-70"/>
<text text-anchor="middle" x="420.25" y="-56.5" font-family="Helvetica,sans-Serif" font-size="10.00">ParticleSystem::getRandomSize</text>
</a>
</g>
</g>
<!-- Node2&#45;&gt;Node6 -->
<g id="edge5_Node000002_Node000006" class="edge">
<title>Node2&#45;&gt;Node6</title>
<g id="a_edge5_Node000002_Node000006"><a xlink:title=" ">
<path fill="none" stroke="#63b8ff" d="M275.23,-93.57C301.7,-87.4 335.44,-79.54 363.62,-72.97"/>
<polygon fill="#63b8ff" stroke="#63b8ff" points="364.09,-76.45 373.04,-70.77 362.51,-69.63 364.09,-76.45"/>
</a>
</g>
</g>
<!-- Node7 -->
<g id="Node000007" class="node">
<title>Node7</title>
<g id="a_Node000007"><a xlink:href="classParticleSystem.html#a37517ae9e46755a487c7e681ebaab64b" target="_top" xlink:title=" ">
<polygon fill="white" stroke="#666666" points="489.75,-32 350.75,-32 350.75,0 489.75,0 489.75,-32"/>
<text text-anchor="start" x="358.75" y="-18.5" font-family="Helvetica,sans-Serif" font-size="10.00">ParticleSystem::getRandom</text>
<text text-anchor="middle" x="420.25" y="-6.5" font-family="Helvetica,sans-Serif" font-size="10.00">Velocity</text>
</a>
</g>
</g>
<!-- Node2&#45;&gt;Node7 -->
<g id="edge6_Node000002_Node000007" class="edge">
<title>Node2&#45;&gt;Node7</title>
<g id="a_edge6_Node000002_Node000007"><a xlink:title=" ">
<path fill="none" stroke="#63b8ff" d="M287.42,-93.57C293.6,-91.26 299.6,-88.44 305,-85 326.31,-71.42 320.11,-55.21 341,-41 342.81,-39.77 344.69,-38.59 346.62,-37.47"/>
<polygon fill="#63b8ff" stroke="#63b8ff" points="347.98,-40.71 355.26,-33.02 344.77,-34.49 347.98,-40.71"/>
</a>
</g>
</g>
</g>
</svg>
