<?xml version="1.0" encoding="UTF-8" standalone="no"?>
<!DOCTYPE svg PUBLIC "-//W3C//DTD SVG 1.1//EN"
 "http://www.w3.org/Graphics/SVG/1.1/DTD/svg11.dtd">
<!-- Generated by graphviz version 12.1.0 (20240811.2233)
 -->
<!-- Title: ParticleSystem Pages: 1 -->
<svg width="279pt" height="1172pt"
 viewBox="0.00 0.00 279.00 1172.00" xmlns="http://www.w3.org/2000/svg" xmlns:xlink="http://www.w3.org/1999/xlink">
<g id="graph0" class="graph" transform="scale(1 1) rotate(0) translate(4 1168)">
<title>ParticleSystem</title>
<!-- Node1 -->
<g id="Node000001" class="node">
<title>Node1</title>
<g id="a_Node000001"><a xlink:title=" ">
<polygon fill="#999999" stroke="none" points="110.5,-404 1.5,-404 1.5,0 110.5,0 110.5,-404"/>
<text text-anchor="start" x="22.62" y="-390.5" font-family="Helvetica,sans-Serif" font-size="10.00">ParticleSystem</text>
<text text-anchor="start" x="7" y="-374.5" font-family="Helvetica,sans-Serif" font-size="10.00">&#45;</text>
<text text-anchor="start" x="15.5" y="-374.5" font-family="Helvetica,sans-Serif" font-size="10.00">particles</text>
<text text-anchor="start" x="7" y="-358.5" font-family="Helvetica,sans-Serif" font-size="10.00">&#45;</text>
<text text-anchor="start" x="15.5" y="-358.5" font-family="Helvetica,sans-Serif" font-size="10.00">generator</text>
<text text-anchor="start" x="7" y="-342.5" font-family="Helvetica,sans-Serif" font-size="10.00">&#45;</text>
<text text-anchor="start" x="15.5" y="-342.5" font-family="Helvetica,sans-Serif" font-size="10.00">distribution</text>
<text text-anchor="start" x="7" y="-326.5" font-family="Helvetica,sans-Serif" font-size="10.00">&#45;</text>
<text text-anchor="start" x="15.5" y="-326.5" font-family="Helvetica,sans-Serif" font-size="10.00">maxParticles</text>
<text text-anchor="start" x="7" y="-310.5" font-family="Helvetica,sans-Serif" font-size="10.00">&#45;</text>
<text text-anchor="start" x="15.5" y="-310.5" font-family="Helvetica,sans-Serif" font-size="10.00">spawnRate</text>
<text text-anchor="start" x="7" y="-294.5" font-family="Helvetica,sans-Serif" font-size="10.00">&#45;</text>
<text text-anchor="start" x="15.5" y="-294.5" font-family="Helvetica,sans-Serif" font-size="10.00">spawnTimer</text>
<text text-anchor="start" x="7" y="-278.5" font-family="Helvetica,sans-Serif" font-size="10.00">&#45;</text>
<text text-anchor="start" x="15.5" y="-278.5" font-family="Helvetica,sans-Serif" font-size="10.00">starColors</text>
<text text-anchor="start" x="7" y="-262.5" font-family="Helvetica,sans-Serif" font-size="10.00">&#45;</text>
<text text-anchor="start" x="15.5" y="-262.5" font-family="Helvetica,sans-Serif" font-size="10.00">dustColors</text>
<text text-anchor="start" x="7" y="-246.5" font-family="Helvetica,sans-Serif" font-size="10.00">&#45;</text>
<text text-anchor="start" x="15.5" y="-246.5" font-family="Helvetica,sans-Serif" font-size="10.00">nebulaColors</text>
<text text-anchor="start" x="5.5" y="-230.5" font-family="Helvetica,sans-Serif" font-size="10.00">+</text>
<text text-anchor="start" x="15.5" y="-230.5" font-family="Helvetica,sans-Serif" font-size="10.00">ParticleSystem()</text>
<text text-anchor="start" x="5.5" y="-214.5" font-family="Helvetica,sans-Serif" font-size="10.00">+</text>
<text text-anchor="start" x="15.5" y="-214.5" font-family="Helvetica,sans-Serif" font-size="10.00">~ParticleSystem()</text>
<text text-anchor="start" x="5.5" y="-198.5" font-family="Helvetica,sans-Serif" font-size="10.00">+</text>
<text text-anchor="start" x="15.5" y="-198.5" font-family="Helvetica,sans-Serif" font-size="10.00">update()</text>
<text text-anchor="start" x="5.5" y="-182.5" font-family="Helvetica,sans-Serif" font-size="10.00">+</text>
<text text-anchor="start" x="15.5" y="-182.5" font-family="Helvetica,sans-Serif" font-size="10.00">render()</text>
<text text-anchor="start" x="5.5" y="-166.5" font-family="Helvetica,sans-Serif" font-size="10.00">+</text>
<text text-anchor="start" x="15.5" y="-166.5" font-family="Helvetica,sans-Serif" font-size="10.00">updateWindowSize()</text>
<text text-anchor="start" x="5.5" y="-150.5" font-family="Helvetica,sans-Serif" font-size="10.00">+</text>
<text text-anchor="start" x="15.5" y="-150.5" font-family="Helvetica,sans-Serif" font-size="10.00">setMaxParticles()</text>
<text text-anchor="start" x="5.5" y="-134.5" font-family="Helvetica,sans-Serif" font-size="10.00">+</text>
<text text-anchor="start" x="15.5" y="-134.5" font-family="Helvetica,sans-Serif" font-size="10.00">setParameters()</text>
<text text-anchor="start" x="7" y="-118.5" font-family="Helvetica,sans-Serif" font-size="10.00">&#45;</text>
<text text-anchor="start" x="15.5" y="-118.5" font-family="Helvetica,sans-Serif" font-size="10.00">spawnParticle()</text>
<text text-anchor="start" x="7" y="-102.5" font-family="Helvetica,sans-Serif" font-size="10.00">&#45;</text>
<text text-anchor="start" x="15.5" y="-102.5" font-family="Helvetica,sans-Serif" font-size="10.00">updateParticle()</text>
<text text-anchor="start" x="7" y="-86.5" font-family="Helvetica,sans-Serif" font-size="10.00">&#45;</text>
<text text-anchor="start" x="15.5" y="-86.5" font-family="Helvetica,sans-Serif" font-size="10.00">renderParticle()</text>
<text text-anchor="start" x="7" y="-70.5" font-family="Helvetica,sans-Serif" font-size="10.00">&#45;</text>
<text text-anchor="start" x="15.5" y="-70.5" font-family="Helvetica,sans-Serif" font-size="10.00">getRandomColor()</text>
<text text-anchor="start" x="7" y="-54.5" font-family="Helvetica,sans-Serif" font-size="10.00">&#45;</text>
<text text-anchor="start" x="15.5" y="-54.5" font-family="Helvetica,sans-Serif" font-size="10.00">getRandomPosition()</text>
<text text-anchor="start" x="7" y="-38.5" font-family="Helvetica,sans-Serif" font-size="10.00">&#45;</text>
<text text-anchor="start" x="15.5" y="-38.5" font-family="Helvetica,sans-Serif" font-size="10.00">getRandomVelocity()</text>
<text text-anchor="start" x="7" y="-22.5" font-family="Helvetica,sans-Serif" font-size="10.00">&#45;</text>
<text text-anchor="start" x="15.5" y="-22.5" font-family="Helvetica,sans-Serif" font-size="10.00">getRandomSize()</text>
<text text-anchor="start" x="7" y="-6.5" font-family="Helvetica,sans-Serif" font-size="10.00">&#45;</text>
<text text-anchor="start" x="15.5" y="-6.5" font-family="Helvetica,sans-Serif" font-size="10.00">getRandomLife()</text>
<polygon fill="#666666" stroke="#666666" points="1.5,-386 1.5,-386 110.5,-386 110.5,-386 1.5,-386"/>
<polygon fill="#666666" stroke="#666666" points="1.5,-242 1.5,-242 13.5,-242 13.5,-242 1.5,-242"/>
<polygon fill="#666666" stroke="#666666" points="13.5,-242 13.5,-242 110.5,-242 110.5,-242 13.5,-242"/>
<polygon fill="none" stroke="#666666" points="1.5,0 1.5,-404 110.5,-404 110.5,0 1.5,0"/>
</a>
</g>
</g>
<!-- Node2 -->
<g id="Node000002" class="node">
<title>Node2</title>
<g id="a_Node000002"><a xlink:href="classEngine_1_1Utils_1_1Vec2UInt.html" target="_top" xlink:title=" ">
<polygon fill="white" stroke="none" points="112,-1164 0,-1164 0,-984 112,-984 112,-1164"/>
<text text-anchor="start" x="4.62" y="-1150.5" font-family="Helvetica,sans-Serif" font-size="10.00">Engine::Utils::Vec2UInt</text>
<text text-anchor="start" x="14" y="-1134.5" font-family="Helvetica,sans-Serif" font-size="10.00">+</text>
<text text-anchor="start" x="34" y="-1134.5" font-family="Helvetica,sans-Serif" font-size="10.00">x</text>
<text text-anchor="start" x="14" y="-1118.5" font-family="Helvetica,sans-Serif" font-size="10.00">+</text>
<text text-anchor="start" x="34" y="-1118.5" font-family="Helvetica,sans-Serif" font-size="10.00">y</text>
<text text-anchor="start" x="14" y="-1102.5" font-family="Helvetica,sans-Serif" font-size="10.00">+</text>
<text text-anchor="start" x="34" y="-1102.5" font-family="Helvetica,sans-Serif" font-size="10.00">Vec2UInt()</text>
<text text-anchor="start" x="14" y="-1086.5" font-family="Helvetica,sans-Serif" font-size="10.00">+</text>
<text text-anchor="start" x="34" y="-1086.5" font-family="Helvetica,sans-Serif" font-size="10.00">Vec2UInt()</text>
<text text-anchor="start" x="14" y="-1070.5" font-family="Helvetica,sans-Serif" font-size="10.00">+</text>
<text text-anchor="start" x="34" y="-1070.5" font-family="Helvetica,sans-Serif" font-size="10.00">operator+()</text>
<text text-anchor="start" x="14" y="-1054.5" font-family="Helvetica,sans-Serif" font-size="10.00">+</text>
<text text-anchor="start" x="34" y="-1054.5" font-family="Helvetica,sans-Serif" font-size="10.00">operator+=()</text>
<text text-anchor="start" x="14" y="-1038.5" font-family="Helvetica,sans-Serif" font-size="10.00">+</text>
<text text-anchor="start" x="34" y="-1038.5" font-family="Helvetica,sans-Serif" font-size="10.00">operator&#45;()</text>
<text text-anchor="start" x="14" y="-1022.5" font-family="Helvetica,sans-Serif" font-size="10.00">+</text>
<text text-anchor="start" x="34" y="-1022.5" font-family="Helvetica,sans-Serif" font-size="10.00">operator&#45;=()</text>
<text text-anchor="start" x="14" y="-1006.5" font-family="Helvetica,sans-Serif" font-size="10.00">+</text>
<text text-anchor="start" x="34" y="-1006.5" font-family="Helvetica,sans-Serif" font-size="10.00">operator*()</text>
<text text-anchor="start" x="14" y="-990.5" font-family="Helvetica,sans-Serif" font-size="10.00">+</text>
<text text-anchor="start" x="34" y="-990.5" font-family="Helvetica,sans-Serif" font-size="10.00">toString()</text>
<polygon fill="#666666" stroke="#666666" points="0,-1146 0,-1146 112,-1146 112,-1146 0,-1146"/>
<polygon fill="#666666" stroke="#666666" points="0,-1114 0,-1114 32,-1114 32,-1114 0,-1114"/>
<polygon fill="#666666" stroke="#666666" points="32,-1114 32,-1114 112,-1114 112,-1114 32,-1114"/>
<polygon fill="none" stroke="#666666" points="0,-984 0,-1164 112,-1164 112,-984 0,-984"/>
</a>
</g>
</g>
<!-- Node2&#45;&gt;Node1 -->
<g id="edge1_Node000001_Node000002" class="edge">
<title>Node2&#45;&gt;Node1</title>
<g id="a_edge1_Node000001_Node000002"><a xlink:title=" ">
<path fill="none" stroke="#63b8ff" d="M51.17,-984.22C50.48,-968.17 49.87,-951.59 49.5,-936 44.4,-720.95 46.69,-667.09 49.5,-452 49.65,-440.49 49.84,-428.68 50.06,-416.76"/>
<polygon fill="none" stroke="#63b8ff" points="50.06,-416.69 46.17,-410.61 50.29,-404.69 54.17,-410.76 50.06,-416.69"/>
</a>
</g>
<text text-anchor="middle" x="78.75" y="-690.5" font-family="Helvetica,sans-Serif" font-size="10.00" fill="grey"> &#45;windowSize</text>
</g>
<!-- Node3 -->
<g id="Node000003" class="node">
<title>Node3</title>
<g id="a_Node000003"><a xlink:href="classParameters.html" target="_top" xlink:title=" ">
<polygon fill="white" stroke="none" points="271,-936 117,-936 117,-452 271,-452 271,-936"/>
<text text-anchor="start" x="168.88" y="-922.5" font-family="Helvetica,sans-Serif" font-size="10.00">Parameters</text>
<text text-anchor="start" x="122.5" y="-906.5" font-family="Helvetica,sans-Serif" font-size="10.00">&#45;</text>
<text text-anchor="start" x="131" y="-906.5" font-family="Helvetica,sans-Serif" font-size="10.00">ParamsText</text>
<text text-anchor="start" x="122.5" y="-890.5" font-family="Helvetica,sans-Serif" font-size="10.00">&#45;</text>
<text text-anchor="start" x="131" y="-890.5" font-family="Helvetica,sans-Serif" font-size="10.00">VideoSectionTitle</text>
<text text-anchor="start" x="122.5" y="-874.5" font-family="Helvetica,sans-Serif" font-size="10.00">&#45;</text>
<text text-anchor="start" x="131" y="-874.5" font-family="Helvetica,sans-Serif" font-size="10.00">ResolutionLabel</text>
<text text-anchor="start" x="122.5" y="-858.5" font-family="Helvetica,sans-Serif" font-size="10.00">&#45;</text>
<text text-anchor="start" x="131" y="-858.5" font-family="Helvetica,sans-Serif" font-size="10.00">ResolutionValue</text>
<text text-anchor="start" x="122.5" y="-842.5" font-family="Helvetica,sans-Serif" font-size="10.00">&#45;</text>
<text text-anchor="start" x="131" y="-842.5" font-family="Helvetica,sans-Serif" font-size="10.00">DisplayModeLabel</text>
<text text-anchor="start" x="122.5" y="-826.5" font-family="Helvetica,sans-Serif" font-size="10.00">&#45;</text>
<text text-anchor="start" x="131" y="-826.5" font-family="Helvetica,sans-Serif" font-size="10.00">DisplayModeValue</text>
<text text-anchor="start" x="122.5" y="-810.5" font-family="Helvetica,sans-Serif" font-size="10.00">&#45;</text>
<text text-anchor="start" x="131" y="-810.5" font-family="Helvetica,sans-Serif" font-size="10.00">GraphicsQualityLabel</text>
<text text-anchor="start" x="122.5" y="-794.5" font-family="Helvetica,sans-Serif" font-size="10.00">&#45;</text>
<text text-anchor="start" x="131" y="-794.5" font-family="Helvetica,sans-Serif" font-size="10.00">GraphicsQualityValue</text>
<text text-anchor="start" x="122.5" y="-778.5" font-family="Helvetica,sans-Serif" font-size="10.00">&#45;</text>
<text text-anchor="start" x="131" y="-778.5" font-family="Helvetica,sans-Serif" font-size="10.00">AccessibilityTitle</text>
<text text-anchor="start" x="122.5" y="-762.5" font-family="Helvetica,sans-Serif" font-size="10.00">&#45;</text>
<text text-anchor="start" x="131" y="-762.5" font-family="Helvetica,sans-Serif" font-size="10.00">ColorBlindLabel</text>
<text text-anchor="start" x="131" y="-746.5" font-family="Helvetica,sans-Serif" font-size="10.00">and 6 more...</text>
<text text-anchor="start" x="121" y="-730.5" font-family="Helvetica,sans-Serif" font-size="10.00">+</text>
<text text-anchor="start" x="131" y="-730.5" font-family="Helvetica,sans-Serif" font-size="10.00">Parameters()</text>
<text text-anchor="start" x="121" y="-714.5" font-family="Helvetica,sans-Serif" font-size="10.00">+</text>
<text text-anchor="start" x="131" y="-714.5" font-family="Helvetica,sans-Serif" font-size="10.00">~Parameters()</text>
<text text-anchor="start" x="121" y="-698.5" font-family="Helvetica,sans-Serif" font-size="10.00">+</text>
<text text-anchor="start" x="131" y="-698.5" font-family="Helvetica,sans-Serif" font-size="10.00">loadResources()</text>
<text text-anchor="start" x="121" y="-682.5" font-family="Helvetica,sans-Serif" font-size="10.00">+</text>
<text text-anchor="start" x="131" y="-682.5" font-family="Helvetica,sans-Serif" font-size="10.00">draw()</text>
<text text-anchor="start" x="121" y="-666.5" font-family="Helvetica,sans-Serif" font-size="10.00">+</text>
<text text-anchor="start" x="131" y="-666.5" font-family="Helvetica,sans-Serif" font-size="10.00">handleEvent()</text>
<text text-anchor="start" x="121" y="-650.5" font-family="Helvetica,sans-Serif" font-size="10.00">+</text>
<text text-anchor="start" x="131" y="-650.5" font-family="Helvetica,sans-Serif" font-size="10.00">update()</text>
<text text-anchor="start" x="121" y="-634.5" font-family="Helvetica,sans-Serif" font-size="10.00">+</text>
<text text-anchor="start" x="131" y="-634.5" font-family="Helvetica,sans-Serif" font-size="10.00">updateWindowSize()</text>
<text text-anchor="start" x="121" y="-618.5" font-family="Helvetica,sans-Serif" font-size="10.00">+</text>
<text text-anchor="start" x="131" y="-618.5" font-family="Helvetica,sans-Serif" font-size="10.00">getCurrentResolution()</text>
<text text-anchor="start" x="121" y="-602.5" font-family="Helvetica,sans-Serif" font-size="10.00">+</text>
<text text-anchor="start" x="131" y="-602.5" font-family="Helvetica,sans-Serif" font-size="10.00">getCurrentDisplayMode()</text>
<text text-anchor="start" x="121" y="-586.5" font-family="Helvetica,sans-Serif" font-size="10.00">+</text>
<text text-anchor="start" x="131" y="-586.5" font-family="Helvetica,sans-Serif" font-size="10.00">getCurrentGraphicsQuality()</text>
<text text-anchor="start" x="131" y="-570.5" font-family="Helvetica,sans-Serif" font-size="10.00">and 7 more...</text>
<text text-anchor="start" x="122.5" y="-554.5" font-family="Helvetica,sans-Serif" font-size="10.00">&#45;</text>
<text text-anchor="start" x="131" y="-554.5" font-family="Helvetica,sans-Serif" font-size="10.00">centerText()</text>
<text text-anchor="start" x="122.5" y="-538.5" font-family="Helvetica,sans-Serif" font-size="10.00">&#45;</text>
<text text-anchor="start" x="131" y="-538.5" font-family="Helvetica,sans-Serif" font-size="10.00">setupVideoSettings()</text>
<text text-anchor="start" x="122.5" y="-522.5" font-family="Helvetica,sans-Serif" font-size="10.00">&#45;</text>
<text text-anchor="start" x="131" y="-522.5" font-family="Helvetica,sans-Serif" font-size="10.00">updateVideoSettingsPositions()</text>
<text text-anchor="start" x="122.5" y="-506.5" font-family="Helvetica,sans-Serif" font-size="10.00">&#45;</text>
<text text-anchor="start" x="131" y="-506.5" font-family="Helvetica,sans-Serif" font-size="10.00">getResolutionString()</text>
<text text-anchor="start" x="122.5" y="-490.5" font-family="Helvetica,sans-Serif" font-size="10.00">&#45;</text>
<text text-anchor="start" x="131" y="-490.5" font-family="Helvetica,sans-Serif" font-size="10.00">getDisplayModeString()</text>
<text text-anchor="start" x="122.5" y="-474.5" font-family="Helvetica,sans-Serif" font-size="10.00">&#45;</text>
<text text-anchor="start" x="131" y="-474.5" font-family="Helvetica,sans-Serif" font-size="10.00">getGraphicsQualityString()</text>
<text text-anchor="start" x="122.5" y="-458.5" font-family="Helvetica,sans-Serif" font-size="10.00">&#45;</text>
<text text-anchor="start" x="131" y="-458.5" font-family="Helvetica,sans-Serif" font-size="10.00">getColorBlindModeString()</text>
<polygon fill="#666666" stroke="#666666" points="117,-918 117,-918 271,-918 271,-918 117,-918"/>
<polygon fill="#666666" stroke="#666666" points="117,-742 117,-742 129,-742 129,-742 117,-742"/>
<polygon fill="#666666" stroke="#666666" points="129,-742 129,-742 271,-742 271,-742 129,-742"/>
<polygon fill="none" stroke="#666666" points="117,-452 117,-936 271,-936 271,-452 117,-452"/>
</a>
</g>
</g>
<!-- Node2&#45;&gt;Node3 -->
<g id="edge3_Node000003_Node000002" class="edge">
<title>Node2&#45;&gt;Node3</title>
<g id="a_edge3_Node000003_Node000002"><a xlink:title=" ">
<path fill="none" stroke="#63b8ff" d="M88.35,-984.38C95.85,-963.84 104.16,-941.08 112.73,-917.6"/>
<polygon fill="none" stroke="#63b8ff" points="112.67,-917.77 110.97,-910.76 116.79,-906.5 118.49,-913.51 112.67,-917.77"/>
</a>
</g>
<text text-anchor="middle" x="126.03" y="-956.5" font-family="Helvetica,sans-Serif" font-size="10.00" fill="grey"> &#45;windowSize</text>
</g>
<!-- Node3&#45;&gt;Node1 -->
<g id="edge2_Node000001_Node000003" class="edge">
<title>Node3&#45;&gt;Node1</title>
<g id="a_edge2_Node000001_Node000003"><a xlink:title=" ">
<path fill="none" stroke="#63b8ff" d="M126.21,-452.31C122.13,-437.8 118.04,-423.27 114,-408.93"/>
<polygon fill="none" stroke="#63b8ff" points="113.96,-408.79 108.48,-404.1 110.7,-397.24 116.18,-401.93 113.96,-408.79"/>
</a>
</g>
<text text-anchor="middle" x="148.24" y="-424.5" font-family="Helvetica,sans-Serif" font-size="10.00" fill="grey"> &#45;parameters</text>
</g>
</g>
</svg>
