<?xml version="1.0" encoding="UTF-8" standalone="no"?>
<!DOCTYPE svg PUBLIC "-//W3C//DTD SVG 1.1//EN"
 "http://www.w3.org/Graphics/SVG/1.1/DTD/svg11.dtd">
<!-- Generated by graphviz version 12.1.0 (20240811.2233)
 -->
<!-- Title: RtypeServer::UdpServer::send_room_joined Pages: 1 -->
<svg width="288pt" height="166pt"
 viewBox="0.00 0.00 287.50 166.00" xmlns="http://www.w3.org/2000/svg" xmlns:xlink="http://www.w3.org/1999/xlink">
<g id="graph0" class="graph" transform="scale(1 1) rotate(0) translate(4 162)">
<title>RtypeServer::UdpServer::send_room_joined</title>
<!-- Node1 -->
<g id="Node000001" class="node">
<title>Node1</title>
<g id="a_Node000001"><a xlink:title=" ">
<polygon fill="#999999" stroke="#666666" points="123.25,-104 0,-104 0,-72 123.25,-72 123.25,-104"/>
<text text-anchor="start" x="8" y="-90.5" font-family="Helvetica,sans-Serif" font-size="10.00">RtypeServer::UdpServer</text>
<text text-anchor="middle" x="61.62" y="-78.5" font-family="Helvetica,sans-Serif" font-size="10.00">::send_room_joined</text>
</a>
</g>
</g>
<!-- Node2 -->
<g id="Node000002" class="node">
<title>Node2</title>
<g id="a_Node000002"><a xlink:href="namespaceRtypeServer.html#a0945154a39091e84a43cedc8136b0abe" target="_top" xlink:title=" ">
<polygon fill="white" stroke="#666666" points="267.12,-158 171.62,-158 171.62,-138 267.12,-138 267.12,-158"/>
<text text-anchor="middle" x="219.38" y="-144.5" font-family="Helvetica,sans-Serif" font-size="10.00">RtypeServer::infof</text>
</a>
</g>
</g>
<!-- Node1&#45;&gt;Node2 -->
<g id="edge1_Node000001_Node000002" class="edge">
<title>Node1&#45;&gt;Node2</title>
<g id="a_edge1_Node000001_Node000002"><a xlink:title=" ">
<path fill="none" stroke="#63b8ff" d="M99.02,-104.36C116.99,-112.21 139.1,-121.5 159.25,-129 163.87,-130.72 168.72,-132.43 173.57,-134.07"/>
<polygon fill="#63b8ff" stroke="#63b8ff" points="172.09,-137.27 182.68,-137.09 174.29,-130.63 172.09,-137.27"/>
</a>
</g>
</g>
<!-- Node3 -->
<g id="Node000003" class="node">
<title>Node3</title>
<g id="a_Node000003"><a xlink:href="namespaceRtypeServer.html#a29d016de4637084d2ec30b53700af223" target="_top" xlink:title=" ">
<polygon fill="white" stroke="#666666" points="269.75,-120 169,-120 169,-100 269.75,-100 269.75,-120"/>
<text text-anchor="middle" x="219.38" y="-106.5" font-family="Helvetica,sans-Serif" font-size="10.00">RtypeServer::warnf</text>
</a>
</g>
</g>
<!-- Node1&#45;&gt;Node3 -->
<g id="edge2_Node000001_Node000003" class="edge">
<title>Node1&#45;&gt;Node3</title>
<g id="a_edge2_Node000001_Node000003"><a xlink:title=" ">
<path fill="none" stroke="#63b8ff" d="M123.73,-96.63C134.87,-98.2 146.48,-99.84 157.6,-101.42"/>
<polygon fill="#63b8ff" stroke="#63b8ff" points="157.08,-104.88 167.48,-102.81 158.06,-97.95 157.08,-104.88"/>
</a>
</g>
</g>
<!-- Node4 -->
<g id="Node000004" class="node">
<title>Node4</title>
<g id="a_Node000004"><a xlink:href="classRtypeServer_1_1Protocol.html#ad918184440d6fcb33f231a7173a67399" target="_top" xlink:title=" ">
<polygon fill="white" stroke="#666666" points="275.75,-82 163,-82 163,-50 275.75,-50 275.75,-82"/>
<text text-anchor="start" x="171" y="-68.5" font-family="Helvetica,sans-Serif" font-size="10.00">RtypeServer::Protocol</text>
<text text-anchor="middle" x="219.38" y="-56.5" font-family="Helvetica,sans-Serif" font-size="10.00">::writeHeader</text>
</a>
</g>
</g>
<!-- Node1&#45;&gt;Node4 -->
<g id="edge3_Node000001_Node000004" class="edge">
<title>Node1&#45;&gt;Node4</title>
<g id="a_edge3_Node000001_Node000004"><a xlink:title=" ">
<path fill="none" stroke="#63b8ff" d="M123.73,-79.37C132.72,-78.1 142.02,-76.78 151.13,-75.5"/>
<polygon fill="#63b8ff" stroke="#63b8ff" points="151.6,-78.97 161.02,-74.1 150.63,-72.04 151.6,-78.97"/>
</a>
</g>
</g>
<!-- Node5 -->
<g id="Node000005" class="node">
<title>Node5</title>
<g id="a_Node000005"><a xlink:href="classRtypeServer_1_1Protocol.html#a60211e1b53451ea55a75054580b325aa" target="_top" xlink:title=" ">
<polygon fill="white" stroke="#666666" points="279.5,-32 159.25,-32 159.25,0 279.5,0 279.5,-32"/>
<text text-anchor="start" x="167.25" y="-18.5" font-family="Helvetica,sans-Serif" font-size="10.00">RtypeServer::Protocol</text>
<text text-anchor="middle" x="219.38" y="-6.5" font-family="Helvetica,sans-Serif" font-size="10.00">::writeRoomJoinedBody</text>
</a>
</g>
</g>
<!-- Node1&#45;&gt;Node5 -->
<g id="edge4_Node000001_Node000005" class="edge">
<title>Node1&#45;&gt;Node5</title>
<g id="a_edge4_Node000001_Node000005"><a xlink:title=" ">
<path fill="none" stroke="#63b8ff" d="M95.07,-71.69C113.73,-62.44 137.68,-50.8 159.25,-41 162.2,-39.66 165.24,-38.3 168.32,-36.95"/>
<polygon fill="#63b8ff" stroke="#63b8ff" points="169.65,-40.19 177.42,-32.99 166.86,-33.77 169.65,-40.19"/>
</a>
</g>
</g>
</g>
</svg>
