<?xml version="1.0" encoding="UTF-8" standalone="no"?>
<!DOCTYPE svg PUBLIC "-//W3C//DTD SVG 1.1//EN"
 "http://www.w3.org/Graphics/SVG/1.1/DTD/svg11.dtd">
<!-- Generated by graphviz version 12.1.0 (20240811.2233)
 -->
<!-- Title: Engine::DLLoader::getFunction Pages: 1 -->
<svg width="566pt" height="166pt"
 viewBox="0.00 0.00 566.25 166.00" xmlns="http://www.w3.org/2000/svg" xmlns:xlink="http://www.w3.org/1999/xlink">
<g id="graph0" class="graph" transform="scale(1 1) rotate(0) translate(4 162)">
<title>Engine::DLLoader::getFunction</title>
<!-- Node1 -->
<g id="Node000001" class="node">
<title>Node1</title>
<g id="a_Node000001"><a xlink:title=" ">
<polygon fill="#999999" stroke="#666666" points="558.25,-98 407.25,-98 407.25,-78 558.25,-78 558.25,-98"/>
<text text-anchor="middle" x="482.75" y="-84.5" font-family="Helvetica,sans-Serif" font-size="10.00">Engine::DLLoader::getFunction</text>
</a>
</g>
</g>
<!-- Node2 -->
<g id="Node000002" class="node">
<title>Node2</title>
<g id="a_Node000002"><a xlink:href="classGameManager.html#a5315da76c5b8b7338ec77022547ad03f" target="_top" xlink:title=" ">
<polygon fill="white" stroke="#666666" points="364.5,-158 228.5,-158 228.5,-138 364.5,-138 364.5,-158"/>
<text text-anchor="middle" x="296.5" y="-144.5" font-family="Helvetica,sans-Serif" font-size="10.00">GameManager::gameDemo</text>
</a>
</g>
</g>
<!-- Node1&#45;&gt;Node2 -->
<g id="edge1_Node000001_Node000002" class="edge">
<title>Node1&#45;&gt;Node2</title>
<g id="a_edge1_Node000001_Node000002"><a xlink:title=" ">
<path fill="none" stroke="#63b8ff" d="M445.54,-102.51C424.12,-110.82 396.36,-121.13 371.25,-129 361.54,-132.04 350.99,-134.98 341,-137.59"/>
<polygon fill="#63b8ff" stroke="#63b8ff" points="446.67,-105.83 454.7,-98.92 444.11,-99.31 446.67,-105.83"/>
</a>
</g>
</g>
<!-- Node5 -->
<g id="Node000005" class="node">
<title>Node5</title>
<g id="a_Node000005"><a xlink:href="classGameManager.html#ae60f9a9c5dc48f158537ed98d2b6dbfe" target="_top" xlink:title=" ">
<polygon fill="white" stroke="#666666" points="371.25,-120 221.75,-120 221.75,-100 371.25,-100 371.25,-120"/>
<text text-anchor="middle" x="296.5" y="-106.5" font-family="Helvetica,sans-Serif" font-size="10.00">GameManager::GameManager</text>
</a>
</g>
</g>
<!-- Node1&#45;&gt;Node5 -->
<g id="edge4_Node000001_Node000005" class="edge">
<title>Node1&#45;&gt;Node5</title>
<g id="a_edge4_Node000001_Node000005"><a xlink:title=" ">
<path fill="none" stroke="#63b8ff" d="M395.52,-98.3C387.48,-99.26 379.39,-100.22 371.48,-101.17"/>
<polygon fill="#63b8ff" stroke="#63b8ff" points="395.79,-101.79 405.31,-97.13 394.96,-94.84 395.79,-101.79"/>
</a>
</g>
</g>
<!-- Node6 -->
<g id="Node000006" class="node">
<title>Node6</title>
<g id="a_Node000006"><a xlink:href="classEngine_1_1Systems_1_1PhysicsUsingEngineSystem.html#a18a61377f3cd9f476141c9037f96cd79" target="_top" xlink:title=" ">
<polygon fill="white" stroke="#666666" points="362.62,-82 230.38,-82 230.38,-50 362.62,-50 362.62,-82"/>
<text text-anchor="start" x="238.38" y="-68.5" font-family="Helvetica,sans-Serif" font-size="10.00">Engine::Systems::Physics</text>
<text text-anchor="middle" x="296.5" y="-56.5" font-family="Helvetica,sans-Serif" font-size="10.00">UsingEngineSystem::init</text>
</a>
</g>
</g>
<!-- Node1&#45;&gt;Node6 -->
<g id="edge5_Node000001_Node000006" class="edge">
<title>Node1&#45;&gt;Node6</title>
<g id="a_edge5_Node000001_Node000006"><a xlink:title=" ">
<path fill="none" stroke="#63b8ff" d="M395.47,-77.7C384.52,-76.39 373.46,-75.07 362.91,-73.81"/>
<polygon fill="#63b8ff" stroke="#63b8ff" points="394.96,-81.16 405.31,-78.87 395.79,-74.21 394.96,-81.16"/>
</a>
</g>
</g>
<!-- Node7 -->
<g id="Node000007" class="node">
<title>Node7</title>
<g id="a_Node000007"><a xlink:href="classRTypeServer_1_1Server.html#a27bb5bac3ba73b4b48be68a9b9ac1476" target="_top" xlink:title=" ">
<polygon fill="white" stroke="#666666" points="349.88,-32 243.12,-32 243.12,0 349.88,0 349.88,-32"/>
<text text-anchor="start" x="251.12" y="-18.5" font-family="Helvetica,sans-Serif" font-size="10.00">RTypeServer::Server</text>
<text text-anchor="middle" x="296.5" y="-6.5" font-family="Helvetica,sans-Serif" font-size="10.00">::loadEngineLib</text>
</a>
</g>
</g>
<!-- Node1&#45;&gt;Node7 -->
<g id="edge6_Node000001_Node000007" class="edge">
<title>Node1&#45;&gt;Node7</title>
<g id="a_edge6_Node000001_Node000007"><a xlink:title=" ">
<path fill="none" stroke="#63b8ff" d="M448.32,-73C426.54,-63.43 397.41,-50.98 371.25,-41 363.67,-38.11 355.59,-35.2 347.67,-32.44"/>
<polygon fill="#63b8ff" stroke="#63b8ff" points="446.73,-76.13 457.29,-76.97 449.56,-69.73 446.73,-76.13"/>
</a>
</g>
</g>
<!-- Node3 -->
<g id="Node000003" class="node">
<title>Node3</title>
<g id="a_Node000003"><a xlink:href="classGameManager.html#a932e6df46aa4d397f8f5d61f3c137bbd" target="_top" xlink:title=" ">
<polygon fill="white" stroke="#666666" points="185.75,-158 73,-158 73,-138 185.75,-138 185.75,-158"/>
<text text-anchor="middle" x="129.38" y="-144.5" font-family="Helvetica,sans-Serif" font-size="10.00">GameManager::render</text>
</a>
</g>
</g>
<!-- Node2&#45;&gt;Node3 -->
<g id="edge2_Node000002_Node000003" class="edge">
<title>Node2&#45;&gt;Node3</title>
<g id="a_edge2_Node000002_Node000003"><a xlink:title=" ">
<path fill="none" stroke="#63b8ff" d="M217.07,-148C206.62,-148 196.09,-148 186.13,-148"/>
<polygon fill="#63b8ff" stroke="#63b8ff" points="216.82,-151.5 226.82,-148 216.82,-144.5 216.82,-151.5"/>
</a>
</g>
</g>
<!-- Node4 -->
<g id="Node000004" class="node">
<title>Node4</title>
<g id="a_Node000004"><a xlink:href="Client_2src_2main_8cpp.html#ae66f6b31b5ad750f1fe042a706a4e3d4" target="_top" xlink:title=" ">
<polygon fill="white" stroke="#666666" points="37,-158 0,-158 0,-138 37,-138 37,-158"/>
<text text-anchor="middle" x="18.5" y="-144.5" font-family="Helvetica,sans-Serif" font-size="10.00">main</text>
</a>
</g>
</g>
<!-- Node3&#45;&gt;Node4 -->
<g id="edge3_Node000003_Node000004" class="edge">
<title>Node3&#45;&gt;Node4</title>
<g id="a_edge3_Node000003_Node000004"><a xlink:title=" ">
<path fill="none" stroke="#63b8ff" d="M61.39,-148C52.63,-148 44.32,-148 37.46,-148"/>
<polygon fill="#63b8ff" stroke="#63b8ff" points="61.15,-151.5 71.15,-148 61.15,-144.5 61.15,-151.5"/>
</a>
</g>
</g>
<!-- Node8 -->
<g id="Node000008" class="node">
<title>Node8</title>
<g id="a_Node000008"><a xlink:href="Server_2src_2main_8cpp.html#ad53223b8779f25caeddb70a3b9172967" target="_top" xlink:title=" ">
<polygon fill="white" stroke="#666666" points="147.88,-26 110.88,-26 110.88,-6 147.88,-6 147.88,-26"/>
<text text-anchor="middle" x="129.38" y="-12.5" font-family="Helvetica,sans-Serif" font-size="10.00">main</text>
</a>
</g>
</g>
<!-- Node7&#45;&gt;Node8 -->
<g id="edge7_Node000007_Node000008" class="edge">
<title>Node7&#45;&gt;Node8</title>
<g id="a_edge7_Node000007_Node000008"><a xlink:title=" ">
<path fill="none" stroke="#63b8ff" d="M231.53,-16C201.58,-16 168.19,-16 148.26,-16"/>
<polygon fill="#63b8ff" stroke="#63b8ff" points="231.29,-19.5 241.29,-16 231.29,-12.5 231.29,-19.5"/>
</a>
</g>
</g>
</g>
</svg>
