<?xml version="1.0" encoding="UTF-8" standalone="no"?>
<!DOCTYPE svg PUBLIC "-//W3C//DTD SVG 1.1//EN"
 "http://www.w3.org/Graphics/SVG/1.1/DTD/svg11.dtd">
<!-- Generated by graphviz version 12.1.0 (20240811.2233)
 -->
<!-- Title: RtypeServer::UdpServer::handle_list_rooms Pages: 1 -->
<svg width="457pt" height="172pt"
 viewBox="0.00 0.00 456.50 172.00" xmlns="http://www.w3.org/2000/svg" xmlns:xlink="http://www.w3.org/1999/xlink">
<g id="graph0" class="graph" transform="scale(1 1) rotate(0) translate(4 168)">
<title>RtypeServer::UdpServer::handle_list_rooms</title>
<!-- Node1 -->
<g id="Node000001" class="node">
<title>Node1</title>
<g id="a_Node000001"><a xlink:title=" ">
<polygon fill="#999999" stroke="#666666" points="123.25,-132 0,-132 0,-100 123.25,-100 123.25,-132"/>
<text text-anchor="start" x="8" y="-118.5" font-family="Helvetica,sans-Serif" font-size="10.00">RtypeServer::UdpServer</text>
<text text-anchor="middle" x="61.62" y="-106.5" font-family="Helvetica,sans-Serif" font-size="10.00">::handle_list_rooms</text>
</a>
</g>
</g>
<!-- Node2 -->
<g id="Node000002" class="node">
<title>Node2</title>
<g id="a_Node000002"><a xlink:href="namespaceRtypeServer.html#a0945154a39091e84a43cedc8136b0abe" target="_top" xlink:title=" ">
<polygon fill="white" stroke="#666666" points="439.88,-164 344.38,-164 344.38,-144 439.88,-144 439.88,-164"/>
<text text-anchor="middle" x="392.12" y="-150.5" font-family="Helvetica,sans-Serif" font-size="10.00">RtypeServer::infof</text>
</a>
</g>
</g>
<!-- Node1&#45;&gt;Node2 -->
<g id="edge1_Node000001_Node000002" class="edge">
<title>Node1&#45;&gt;Node2</title>
<g id="a_edge1_Node000001_Node000002"><a xlink:title=" ">
<path fill="none" stroke="#63b8ff" d="M118.69,-132.5C131.89,-135.83 145.98,-138.93 159.25,-141 217.83,-150.13 285.61,-153.06 332.7,-153.9"/>
<polygon fill="#63b8ff" stroke="#63b8ff" points="332.64,-157.4 342.69,-154.05 332.75,-150.4 332.64,-157.4"/>
</a>
</g>
</g>
<!-- Node3 -->
<g id="Node000003" class="node">
<title>Node3</title>
<g id="a_Node000003"><a xlink:href="classRtypeServer_1_1RoomManager.html#a46ccf312396c021e52e2142c9c1add2d" target="_top" xlink:title=" ">
<polygon fill="white" stroke="#666666" points="299.75,-132 159.25,-132 159.25,-100 299.75,-100 299.75,-132"/>
<text text-anchor="start" x="167.25" y="-118.5" font-family="Helvetica,sans-Serif" font-size="10.00">RtypeServer::RoomManager</text>
<text text-anchor="middle" x="229.5" y="-106.5" font-family="Helvetica,sans-Serif" font-size="10.00">::listRooms</text>
</a>
</g>
</g>
<!-- Node1&#45;&gt;Node3 -->
<g id="edge2_Node000001_Node000003" class="edge">
<title>Node1&#45;&gt;Node3</title>
<g id="a_edge2_Node000001_Node000003"><a xlink:title=" ">
<path fill="none" stroke="#63b8ff" d="M123.45,-116C131.3,-116 139.45,-116 147.56,-116"/>
<polygon fill="#63b8ff" stroke="#63b8ff" points="147.47,-119.5 157.47,-116 147.47,-112.5 147.47,-119.5"/>
</a>
</g>
</g>
<!-- Node4 -->
<g id="Node000004" class="node">
<title>Node4</title>
<g id="a_Node000004"><a xlink:href="classRtypeServer_1_1UdpServer.html#ad76118bb574c0aebbd3f2fb0fb978ae2" target="_top" xlink:title=" ">
<polygon fill="white" stroke="#666666" points="291.12,-82 167.88,-82 167.88,-50 291.12,-50 291.12,-82"/>
<text text-anchor="start" x="175.88" y="-68.5" font-family="Helvetica,sans-Serif" font-size="10.00">RtypeServer::UdpServer</text>
<text text-anchor="middle" x="229.5" y="-56.5" font-family="Helvetica,sans-Serif" font-size="10.00">::send_room_list</text>
</a>
</g>
</g>
<!-- Node1&#45;&gt;Node4 -->
<g id="edge3_Node000001_Node000004" class="edge">
<title>Node1&#45;&gt;Node4</title>
<g id="a_edge3_Node000001_Node000004"><a xlink:title=" ">
<path fill="none" stroke="#63b8ff" d="M116.94,-99.63C131.61,-95.2 147.65,-90.37 162.87,-85.78"/>
<polygon fill="#63b8ff" stroke="#63b8ff" points="163.77,-89.17 172.33,-82.93 161.75,-82.47 163.77,-89.17"/>
</a>
</g>
</g>
<!-- Node4&#45;&gt;Node2 -->
<g id="edge4_Node000004_Node000002" class="edge">
<title>Node4&#45;&gt;Node2</title>
<g id="a_edge4_Node000004_Node000002"><a xlink:title=" ">
<path fill="none" stroke="#63b8ff" d="M283.91,-82.37C289.44,-84.91 294.83,-87.78 299.75,-91 319.22,-103.74 316.79,-115.52 335.75,-129 340.8,-132.59 346.45,-135.85 352.15,-138.74"/>
<polygon fill="#63b8ff" stroke="#63b8ff" points="350.46,-141.81 361,-142.9 353.44,-135.48 350.46,-141.81"/>
</a>
</g>
</g>
<!-- Node5 -->
<g id="Node000005" class="node">
<title>Node5</title>
<g id="a_Node000005"><a xlink:href="namespaceRtypeServer.html#a29d016de4637084d2ec30b53700af223" target="_top" xlink:title=" ">
<polygon fill="white" stroke="#666666" points="442.5,-120 341.75,-120 341.75,-100 442.5,-100 442.5,-120"/>
<text text-anchor="middle" x="392.12" y="-106.5" font-family="Helvetica,sans-Serif" font-size="10.00">RtypeServer::warnf</text>
</a>
</g>
</g>
<!-- Node4&#45;&gt;Node5 -->
<g id="edge5_Node000004_Node000005" class="edge">
<title>Node4&#45;&gt;Node5</title>
<g id="a_edge5_Node000004_Node000005"><a xlink:title=" ">
<path fill="none" stroke="#63b8ff" d="M290.31,-82.38C307.41,-87.07 325.85,-92.12 342.21,-96.6"/>
<polygon fill="#63b8ff" stroke="#63b8ff" points="341.14,-99.94 351.71,-99.2 342.99,-93.19 341.14,-99.94"/>
</a>
</g>
</g>
<!-- Node6 -->
<g id="Node000006" class="node">
<title>Node6</title>
<g id="a_Node000006"><a xlink:href="classRtypeServer_1_1Protocol.html#ad918184440d6fcb33f231a7173a67399" target="_top" xlink:title=" ">
<polygon fill="white" stroke="#666666" points="448.5,-82 335.75,-82 335.75,-50 448.5,-50 448.5,-82"/>
<text text-anchor="start" x="343.75" y="-68.5" font-family="Helvetica,sans-Serif" font-size="10.00">RtypeServer::Protocol</text>
<text text-anchor="middle" x="392.12" y="-56.5" font-family="Helvetica,sans-Serif" font-size="10.00">::writeHeader</text>
</a>
</g>
</g>
<!-- Node4&#45;&gt;Node6 -->
<g id="edge6_Node000004_Node000006" class="edge">
<title>Node4&#45;&gt;Node6</title>
<g id="a_edge6_Node000004_Node000006"><a xlink:title=" ">
<path fill="none" stroke="#63b8ff" d="M291.23,-66C301.97,-66 313.22,-66 324.13,-66"/>
<polygon fill="#63b8ff" stroke="#63b8ff" points="323.83,-69.5 333.83,-66 323.83,-62.5 323.83,-69.5"/>
</a>
</g>
</g>
<!-- Node7 -->
<g id="Node000007" class="node">
<title>Node7</title>
<g id="a_Node000007"><a xlink:href="classRtypeServer_1_1Protocol.html#a59eba3ecb7c8d85b5927c3c077eddb1c" target="_top" xlink:title=" ">
<polygon fill="white" stroke="#666666" points="448.5,-32 335.75,-32 335.75,0 448.5,0 448.5,-32"/>
<text text-anchor="start" x="343.75" y="-18.5" font-family="Helvetica,sans-Serif" font-size="10.00">RtypeServer::Protocol</text>
<text text-anchor="middle" x="392.12" y="-6.5" font-family="Helvetica,sans-Serif" font-size="10.00">::writeRoomListBody</text>
</a>
</g>
</g>
<!-- Node4&#45;&gt;Node7 -->
<g id="edge7_Node000004_Node000007" class="edge">
<title>Node4&#45;&gt;Node7</title>
<g id="a_edge7_Node000004_Node000007"><a xlink:title=" ">
<path fill="none" stroke="#63b8ff" d="M283.09,-49.63C297.3,-45.2 312.83,-40.37 327.57,-35.78"/>
<polygon fill="#63b8ff" stroke="#63b8ff" points="328.18,-39.26 336.69,-32.94 326.1,-32.57 328.18,-39.26"/>
</a>
</g>
</g>
</g>
</svg>
