<?xml version="1.0" encoding="UTF-8" standalone="no"?>
<!DOCTYPE svg PUBLIC "-//W3C//DTD SVG 1.1//EN"
 "http://www.w3.org/Graphics/SVG/1.1/DTD/svg11.dtd">
<!-- Generated by graphviz version 12.1.0 (20240811.2233)
 -->
<!-- Title: Parameters::getGraphicsQualityString Pages: 1 -->
<svg width="980pt" height="78pt"
 viewBox="0.00 0.00 980.00 78.00" xmlns="http://www.w3.org/2000/svg" xmlns:xlink="http://www.w3.org/1999/xlink">
<g id="graph0" class="graph" transform="scale(1 1) rotate(0) translate(4 74)">
<title>Parameters::getGraphicsQualityString</title>
<!-- Node1 -->
<g id="Node000001" class="node">
<title>Node1</title>
<g id="a_Node000001"><a xlink:title=" ">
<polygon fill="#999999" stroke="#666666" points="972,-48 816.5,-48 816.5,-16 972,-16 972,-48"/>
<text text-anchor="start" x="824.5" y="-34.5" font-family="Helvetica,sans-Serif" font-size="10.00">Parameters::getGraphicsQuality</text>
<text text-anchor="middle" x="894.25" y="-22.5" font-family="Helvetica,sans-Serif" font-size="10.00">String</text>
</a>
</g>
</g>
<!-- Node2 -->
<g id="Node000002" class="node">
<title>Node2</title>
<g id="a_Node000002"><a xlink:href="classParameters.html#a5fee9764416320845781343f62276521" target="_top" xlink:title=" ">
<polygon fill="white" stroke="#666666" points="779.75,-62 624.25,-62 624.25,-42 779.75,-42 779.75,-62"/>
<text text-anchor="middle" x="702" y="-48.5" font-family="Helvetica,sans-Serif" font-size="10.00">Parameters::setGraphicsQuality</text>
</a>
</g>
</g>
<!-- Node1&#45;&gt;Node2 -->
<g id="edge1_Node000001_Node000002" class="edge">
<title>Node1&#45;&gt;Node2</title>
<g id="a_edge1_Node000001_Node000002"><a xlink:title=" ">
<path fill="none" stroke="#63b8ff" d="M804.95,-41.28C796.69,-42.15 788.36,-43.03 780.22,-43.88"/>
<polygon fill="#63b8ff" stroke="#63b8ff" points="805.06,-44.79 814.64,-40.26 804.33,-37.83 805.06,-44.79"/>
</a>
</g>
</g>
<!-- Node7 -->
<g id="Node000007" class="node">
<title>Node7</title>
<g id="a_Node000007"><a xlink:href="classParameters.html#a97f0af15da3b0a1a8b3702fc5b56556e" target="_top" xlink:title=" ">
<polygon fill="white" stroke="#666666" points="780.5,-23 623.5,-23 623.5,-3 780.5,-3 780.5,-23"/>
<text text-anchor="middle" x="702" y="-9.5" font-family="Helvetica,sans-Serif" font-size="10.00">Parameters::setupVideoSettings</text>
</a>
</g>
</g>
<!-- Node1&#45;&gt;Node7 -->
<g id="edge6_Node000001_Node000007" class="edge">
<title>Node1&#45;&gt;Node7</title>
<g id="a_edge6_Node000001_Node000007"><a xlink:title=" ">
<path fill="none" stroke="#63b8ff" d="M804.87,-23.17C796.84,-22.37 788.76,-21.56 780.84,-20.77"/>
<polygon fill="#63b8ff" stroke="#63b8ff" points="804.34,-26.64 814.64,-24.15 805.03,-19.67 804.34,-26.64"/>
</a>
</g>
</g>
<!-- Node3 -->
<g id="Node000003" class="node">
<title>Node3</title>
<g id="a_Node000003"><a xlink:href="classGameManager.html#a47a393a719eaf10a709a0a0cc28899d7" target="_top" xlink:title=" ">
<polygon fill="white" stroke="#666666" points="587.5,-70 439.5,-70 439.5,-38 587.5,-38 587.5,-70"/>
<text text-anchor="start" x="447.5" y="-56.5" font-family="Helvetica,sans-Serif" font-size="10.00">GameManager::cycleGraphics</text>
<text text-anchor="middle" x="513.5" y="-44.5" font-family="Helvetica,sans-Serif" font-size="10.00">Quality</text>
</a>
</g>
</g>
<!-- Node2&#45;&gt;Node3 -->
<g id="edge2_Node000002_Node000003" class="edge">
<title>Node2&#45;&gt;Node3</title>
<g id="a_edge2_Node000002_Node000003"><a xlink:title=" ">
<path fill="none" stroke="#63b8ff" d="M612.54,-52.95C604.24,-53.04 595.89,-53.13 587.75,-53.21"/>
<polygon fill="#63b8ff" stroke="#63b8ff" points="612.32,-56.45 622.28,-52.84 612.25,-49.45 612.32,-56.45"/>
</a>
</g>
</g>
<!-- Node4 -->
<g id="Node000004" class="node">
<title>Node4</title>
<g id="a_Node000004"><a xlink:href="classGameManager.html#aeed1dd73db1c39b2e39d30d9d37c1f6c" target="_top" xlink:title=" ">
<polygon fill="white" stroke="#666666" points="400.5,-70 257,-70 257,-38 400.5,-38 400.5,-70"/>
<text text-anchor="start" x="265" y="-56.5" font-family="Helvetica,sans-Serif" font-size="10.00">GameManager::handleMouse</text>
<text text-anchor="middle" x="328.75" y="-44.5" font-family="Helvetica,sans-Serif" font-size="10.00">Click</text>
</a>
</g>
</g>
<!-- Node3&#45;&gt;Node4 -->
<g id="edge3_Node000003_Node000004" class="edge">
<title>Node3&#45;&gt;Node4</title>
<g id="a_edge3_Node000003_Node000004"><a xlink:title=" ">
<path fill="none" stroke="#63b8ff" d="M427.89,-54C418.88,-54 409.79,-54 400.96,-54"/>
<polygon fill="#63b8ff" stroke="#63b8ff" points="427.71,-57.5 437.71,-54 427.71,-50.5 427.71,-57.5"/>
</a>
</g>
</g>
<!-- Node5 -->
<g id="Node000005" class="node">
<title>Node5</title>
<g id="a_Node000005"><a xlink:href="classGameManager.html#a6cea7fca5fecdd4f8a32912d4bfc233f" target="_top" xlink:title=" ">
<polygon fill="white" stroke="#666666" points="218,-64 73,-64 73,-44 218,-44 218,-64"/>
<text text-anchor="middle" x="145.5" y="-50.5" font-family="Helvetica,sans-Serif" font-size="10.00">GameManager::handleEvents</text>
</a>
</g>
</g>
<!-- Node4&#45;&gt;Node5 -->
<g id="edge4_Node000004_Node000005" class="edge">
<title>Node4&#45;&gt;Node5</title>
<g id="a_edge4_Node000004_Node000005"><a xlink:title=" ">
<path fill="none" stroke="#63b8ff" d="M245.31,-54C236.29,-54 227.17,-54 218.3,-54"/>
<polygon fill="#63b8ff" stroke="#63b8ff" points="245.12,-57.5 255.12,-54 245.12,-50.5 245.12,-57.5"/>
</a>
</g>
</g>
<!-- Node6 -->
<g id="Node000006" class="node">
<title>Node6</title>
<g id="a_Node000006"><a xlink:href="Client_2src_2main_8cpp.html#ae66f6b31b5ad750f1fe042a706a4e3d4" target="_top" xlink:title=" ">
<polygon fill="white" stroke="#666666" points="37,-64 0,-64 0,-44 37,-44 37,-64"/>
<text text-anchor="middle" x="18.5" y="-50.5" font-family="Helvetica,sans-Serif" font-size="10.00">main</text>
</a>
</g>
</g>
<!-- Node5&#45;&gt;Node6 -->
<g id="edge5_Node000005_Node000006" class="edge">
<title>Node5&#45;&gt;Node6</title>
<g id="a_edge5_Node000005_Node000006"><a xlink:title=" ">
<path fill="none" stroke="#63b8ff" d="M61.12,-54C52.34,-54 44.18,-54 37.46,-54"/>
<polygon fill="#63b8ff" stroke="#63b8ff" points="61,-57.5 71,-54 61,-50.5 61,-57.5"/>
</a>
</g>
</g>
<!-- Node8 -->
<g id="Node000008" class="node">
<title>Node8</title>
<g id="a_Node000008"><a xlink:href="classParameters.html#a8e74ddb8f408ad9e725e3784f8a873e7" target="_top" xlink:title=" ">
<polygon fill="white" stroke="#666666" points="582.25,-20 444.75,-20 444.75,0 582.25,0 582.25,-20"/>
<text text-anchor="middle" x="513.5" y="-6.5" font-family="Helvetica,sans-Serif" font-size="10.00">Parameters::loadResources</text>
</a>
</g>
</g>
<!-- Node7&#45;&gt;Node8 -->
<g id="edge7_Node000007_Node000008" class="edge">
<title>Node7&#45;&gt;Node8</title>
<g id="a_edge7_Node000007_Node000008"><a xlink:title=" ">
<path fill="none" stroke="#63b8ff" d="M611.79,-11.57C601.98,-11.41 592.11,-11.25 582.61,-11.1"/>
<polygon fill="#63b8ff" stroke="#63b8ff" points="611.69,-15.06 621.74,-11.73 611.8,-8.06 611.69,-15.06"/>
</a>
</g>
</g>
<!-- Node9 -->
<g id="Node000009" class="node">
<title>Node9</title>
<g id="a_Node000009"><a xlink:href="classGameManager.html#a72e1318dfab6fad06bd4126d12f6a537" target="_top" xlink:title=" ">
<polygon fill="white" stroke="#666666" points="403.5,-20 254,-20 254,0 403.5,0 403.5,-20"/>
<text text-anchor="middle" x="328.75" y="-6.5" font-family="Helvetica,sans-Serif" font-size="10.00">GameManager::GameManager</text>
</a>
</g>
</g>
<!-- Node8&#45;&gt;Node9 -->
<g id="edge8_Node000008_Node000009" class="edge">
<title>Node8&#45;&gt;Node9</title>
<g id="a_edge8_Node000008_Node000009"><a xlink:title=" ">
<path fill="none" stroke="#63b8ff" d="M433.18,-10C423.49,-10 413.61,-10 403.99,-10"/>
<polygon fill="#63b8ff" stroke="#63b8ff" points="432.94,-13.5 442.94,-10 432.94,-6.5 432.94,-13.5"/>
</a>
</g>
</g>
</g>
</svg>
