<?xml version="1.0" encoding="UTF-8" standalone="no"?>
<!DOCTYPE svg PUBLIC "-//W3C//DTD SVG 1.1//EN"
 "http://www.w3.org/Graphics/SVG/1.1/DTD/svg11.dtd">
<!-- Generated by graphviz version 12.1.0 (20240811.2233)
 -->
<!-- Title: Engine::System Pages: 1 -->
<svg width="87pt" height="60pt"
 viewBox="0.00 0.00 87.00 60.00" xmlns="http://www.w3.org/2000/svg" xmlns:xlink="http://www.w3.org/1999/xlink">
<g id="graph0" class="graph" transform="scale(1 1) rotate(0) translate(4 56)">
<title>Engine::System</title>
<!-- Node1 -->
<g id="Node000001" class="node">
<title>Node1</title>
<g id="a_Node000001"><a xlink:title=" ">
<polygon fill="#999999" stroke="none" points="79,-52 0,-52 0,0 79,0 79,-52"/>
<text text-anchor="start" x="4.62" y="-38.5" font-family="Helvetica,sans-Serif" font-size="10.00">Engine::System</text>
<text text-anchor="start" x="11.5" y="-22.5" font-family="Helvetica,sans-Serif" font-size="10.00">+</text>
<text text-anchor="start" x="29" y="-22.5" font-family="Helvetica,sans-Serif" font-size="10.00">entities</text>
<text text-anchor="start" x="38" y="-6.5" font-family="Helvetica,sans-Serif" font-size="10.00"> </text>
<polygon fill="#666666" stroke="#666666" points="0,-34 0,-34 79,-34 79,-34 0,-34"/>
<polygon fill="#666666" stroke="#666666" points="0,-18 0,-18 27,-18 27,-18 0,-18"/>
<polygon fill="#666666" stroke="#666666" points="27,-18 27,-18 79,-18 79,-18 27,-18"/>
<polygon fill="none" stroke="#666666" points="0,0 0,-52 79,-52 79,0 0,0"/>
</a>
</g>
</g>
</g>
</svg>
