<?xml version="1.0" encoding="UTF-8" standalone="no"?>
<!DOCTYPE svg PUBLIC "-//W3C//DTD SVG 1.1//EN"
 "http://www.w3.org/Graphics/SVG/1.1/DTD/svg11.dtd">
<!-- Generated by graphviz version 12.1.0 (20240811.2233)
 -->
<!-- Title: RtypeServer::UdpServer::handle_receive Pages: 1 -->
<svg width="268pt" height="66pt"
 viewBox="0.00 0.00 268.00 66.00" xmlns="http://www.w3.org/2000/svg" xmlns:xlink="http://www.w3.org/1999/xlink">
<g id="graph0" class="graph" transform="scale(1 1) rotate(0) translate(4 62)">
<title>RtypeServer::UdpServer::handle_receive</title>
<!-- Node1 -->
<g id="Node000001" class="node">
<title>Node1</title>
<g id="a_Node000001"><a xlink:title=" ">
<polygon fill="#999999" stroke="#666666" points="123.25,-45 0,-45 0,-13 123.25,-13 123.25,-45"/>
<text text-anchor="start" x="8" y="-31.5" font-family="Helvetica,sans-Serif" font-size="10.00">RtypeServer::UdpServer</text>
<text text-anchor="middle" x="61.62" y="-19.5" font-family="Helvetica,sans-Serif" font-size="10.00">::handle_receive</text>
</a>
</g>
</g>
<!-- Node2 -->
<g id="Node000002" class="node">
<title>Node2</title>
<g id="a_Node000002"><a xlink:href="namespaceRtypeServer.html#a0945154a39091e84a43cedc8136b0abe" target="_top" xlink:title=" ">
<polygon fill="white" stroke="#666666" points="257.38,-58 161.88,-58 161.88,-38 257.38,-38 257.38,-58"/>
<text text-anchor="middle" x="209.62" y="-44.5" font-family="Helvetica,sans-Serif" font-size="10.00">RtypeServer::infof</text>
</a>
</g>
</g>
<!-- Node1&#45;&gt;Node2 -->
<g id="edge1_Node000001_Node000002" class="edge">
<title>Node1&#45;&gt;Node2</title>
<g id="a_edge1_Node000001_Node000002"><a xlink:title=" ">
<path fill="none" stroke="#63b8ff" d="M123.7,-36.95C132.5,-38.09 141.54,-39.27 150.28,-40.41"/>
<polygon fill="#63b8ff" stroke="#63b8ff" points="149.7,-43.86 160.07,-41.68 150.6,-36.92 149.7,-43.86"/>
</a>
</g>
</g>
<!-- Node3 -->
<g id="Node000003" class="node">
<title>Node3</title>
<g id="a_Node000003"><a xlink:href="namespaceRtypeServer.html#a29d016de4637084d2ec30b53700af223" target="_top" xlink:title=" ">
<polygon fill="white" stroke="#666666" points="260,-20 159.25,-20 159.25,0 260,0 260,-20"/>
<text text-anchor="middle" x="209.62" y="-6.5" font-family="Helvetica,sans-Serif" font-size="10.00">RtypeServer::warnf</text>
</a>
</g>
</g>
<!-- Node1&#45;&gt;Node3 -->
<g id="edge2_Node000001_Node000003" class="edge">
<title>Node1&#45;&gt;Node3</title>
<g id="a_edge2_Node000001_Node000003"><a xlink:title=" ">
<path fill="none" stroke="#63b8ff" d="M123.7,-21.05C131.57,-20.03 139.64,-18.98 147.51,-17.95"/>
<polygon fill="#63b8ff" stroke="#63b8ff" points="147.91,-21.43 157.37,-16.67 147,-14.49 147.91,-21.43"/>
</a>
</g>
</g>
</g>
</svg>
