<?xml version="1.0" encoding="UTF-8" standalone="no"?>
<!DOCTYPE svg PUBLIC "-//W3C//DTD SVG 1.1//EN"
 "http://www.w3.org/Graphics/SVG/1.1/DTD/svg11.dtd">
<!-- Generated by graphviz version 12.1.0 (20240811.2233)
 -->
<!-- Title: GameManager::connectToServer Pages: 1 -->
<svg width="760pt" height="140pt"
 viewBox="0.00 0.00 759.75 140.00" xmlns="http://www.w3.org/2000/svg" xmlns:xlink="http://www.w3.org/1999/xlink">
<g id="graph0" class="graph" transform="scale(1 1) rotate(0) translate(4 136)">
<title>GameManager::connectToServer</title>
<!-- Node1 -->
<g id="Node000001" class="node">
<title>Node1</title>
<g id="a_Node000001"><a xlink:title=" ">
<polygon fill="#999999" stroke="#666666" points="159.25,-76 0,-76 0,-56 159.25,-56 159.25,-76"/>
<text text-anchor="middle" x="79.62" y="-62.5" font-family="Helvetica,sans-Serif" font-size="10.00">GameManager::connectToServer</text>
</a>
</g>
</g>
<!-- Node2 -->
<g id="Node000002" class="node">
<title>Node2</title>
<g id="a_Node000002"><a xlink:href="classEngine_1_1Systems_1_1DevConsole.html#ab2a44d921ed28f1a6a5ba835d93225e6" target="_top" xlink:title=" ">
<polygon fill="white" stroke="#666666" points="351.5,-132 200.5,-132 200.5,-100 351.5,-100 351.5,-132"/>
<text text-anchor="start" x="208.5" y="-118.5" font-family="Helvetica,sans-Serif" font-size="10.00">Engine::Systems::DevConsole</text>
<text text-anchor="middle" x="276" y="-106.5" font-family="Helvetica,sans-Serif" font-size="10.00">::init</text>
</a>
</g>
</g>
<!-- Node1&#45;&gt;Node2 -->
<g id="edge1_Node000001_Node000002" class="edge">
<title>Node1&#45;&gt;Node2</title>
<g id="a_edge1_Node000001_Node000002"><a xlink:title=" ">
<path fill="none" stroke="#63b8ff" d="M121.37,-76.48C144.17,-82.35 173.31,-89.84 200.07,-96.72"/>
<polygon fill="#63b8ff" stroke="#63b8ff" points="198.95,-100.05 209.5,-99.15 200.69,-93.27 198.95,-100.05"/>
</a>
</g>
</g>
<!-- Node4 -->
<g id="Node000004" class="node">
<title>Node4</title>
<g id="a_Node000004"><a xlink:href="classEngine_1_1Systems_1_1EnemySystem.html#a3f56472b9d1cbd11d38ed305cd839c5a" target="_top" xlink:title=" ">
<polygon fill="white" stroke="#666666" points="356.75,-82 195.25,-82 195.25,-50 356.75,-50 356.75,-82"/>
<text text-anchor="start" x="203.25" y="-68.5" font-family="Helvetica,sans-Serif" font-size="10.00">Engine::Systems::EnemySystem</text>
<text text-anchor="middle" x="276" y="-56.5" font-family="Helvetica,sans-Serif" font-size="10.00">::init</text>
</a>
</g>
</g>
<!-- Node1&#45;&gt;Node4 -->
<g id="edge3_Node000001_Node000004" class="edge">
<title>Node1&#45;&gt;Node4</title>
<g id="a_edge3_Node000001_Node000004"><a xlink:title=" ">
<path fill="none" stroke="#63b8ff" d="M159.68,-66C167.61,-66 175.71,-66 183.75,-66"/>
<polygon fill="#63b8ff" stroke="#63b8ff" points="183.55,-69.5 193.55,-66 183.55,-62.5 183.55,-69.5"/>
</a>
</g>
</g>
<!-- Node7 -->
<g id="Node000007" class="node">
<title>Node7</title>
<g id="a_Node000007"><a xlink:href="classEngine_1_1Systems_1_1PlayerControl.html#a34f318711aedbf730d7390125d2f6924" target="_top" xlink:title=" ">
<polygon fill="white" stroke="#666666" points="354.12,-32 197.88,-32 197.88,0 354.12,0 354.12,-32"/>
<text text-anchor="start" x="205.88" y="-18.5" font-family="Helvetica,sans-Serif" font-size="10.00">Engine::Systems::PlayerControl</text>
<text text-anchor="middle" x="276" y="-6.5" font-family="Helvetica,sans-Serif" font-size="10.00">::init</text>
</a>
</g>
</g>
<!-- Node1&#45;&gt;Node7 -->
<g id="edge6_Node000001_Node000007" class="edge">
<title>Node1&#45;&gt;Node7</title>
<g id="a_edge6_Node000001_Node000007"><a xlink:title=" ">
<path fill="none" stroke="#63b8ff" d="M121.37,-55.52C144.17,-49.65 173.31,-42.16 200.07,-35.28"/>
<polygon fill="#63b8ff" stroke="#63b8ff" points="200.69,-38.73 209.5,-32.85 198.95,-31.95 200.69,-38.73"/>
</a>
</g>
</g>
<!-- Node3 -->
<g id="Node000003" class="node">
<title>Node3</title>
<g id="a_Node000003"><a xlink:href="classEngine_1_1Systems_1_1DevConsole.html#a975b181348aabc7a9b296fb5b93c7ae8" target="_top" xlink:title=" ">
<polygon fill="white" stroke="#666666" points="549,-132 398,-132 398,-100 549,-100 549,-132"/>
<text text-anchor="start" x="406" y="-118.5" font-family="Helvetica,sans-Serif" font-size="10.00">Engine::Systems::DevConsole</text>
<text text-anchor="middle" x="473.5" y="-106.5" font-family="Helvetica,sans-Serif" font-size="10.00">::treatNewTextInput</text>
</a>
</g>
</g>
<!-- Node2&#45;&gt;Node3 -->
<g id="edge2_Node000002_Node000003" class="edge">
<title>Node2&#45;&gt;Node3</title>
<g id="a_edge2_Node000002_Node000003"><a xlink:title=" ">
<path fill="none" stroke="#63b8ff" d="M351.75,-116C363.07,-116 374.82,-116 386.36,-116"/>
<polygon fill="#63b8ff" stroke="#63b8ff" points="386.28,-119.5 396.28,-116 386.28,-112.5 386.28,-119.5"/>
</a>
</g>
</g>
<!-- Node5 -->
<g id="Node000005" class="node">
<title>Node5</title>
<g id="a_Node000005"><a xlink:href="classEngine_1_1Systems_1_1EnemySystem.html#ad40dc42ba3526d22bbc4735fb4ca7dba" target="_top" xlink:title=" ">
<polygon fill="white" stroke="#666666" points="554.25,-82 392.75,-82 392.75,-50 554.25,-50 554.25,-82"/>
<text text-anchor="start" x="400.75" y="-68.5" font-family="Helvetica,sans-Serif" font-size="10.00">Engine::Systems::EnemySystem</text>
<text text-anchor="middle" x="473.5" y="-56.5" font-family="Helvetica,sans-Serif" font-size="10.00">::handleCollision</text>
</a>
</g>
</g>
<!-- Node4&#45;&gt;Node5 -->
<g id="edge4_Node000004_Node000005" class="edge">
<title>Node4&#45;&gt;Node5</title>
<g id="a_edge4_Node000004_Node000005"><a xlink:title=" ">
<path fill="none" stroke="#63b8ff" d="M357.08,-66C365.04,-66 373.15,-66 381.21,-66"/>
<polygon fill="#63b8ff" stroke="#63b8ff" points="381.03,-69.5 391.03,-66 381.03,-62.5 381.03,-69.5"/>
</a>
</g>
</g>
<!-- Node6 -->
<g id="Node000006" class="node">
<title>Node6</title>
<g id="a_Node000006"><a xlink:href="classEngine_1_1Systems_1_1EnemySystem.html#a60a0336504ab065e4a49cb6e2980770e" target="_top" xlink:title=" ">
<polygon fill="white" stroke="#666666" points="751.75,-82 590.25,-82 590.25,-50 751.75,-50 751.75,-82"/>
<text text-anchor="start" x="598.25" y="-68.5" font-family="Helvetica,sans-Serif" font-size="10.00">Engine::Systems::EnemySystem</text>
<text text-anchor="middle" x="671" y="-56.5" font-family="Helvetica,sans-Serif" font-size="10.00">::damageEnemy</text>
</a>
</g>
</g>
<!-- Node5&#45;&gt;Node6 -->
<g id="edge5_Node000005_Node000006" class="edge">
<title>Node5&#45;&gt;Node6</title>
<g id="a_edge5_Node000005_Node000006"><a xlink:title=" ">
<path fill="none" stroke="#63b8ff" d="M554.58,-66C562.54,-66 570.65,-66 578.71,-66"/>
<polygon fill="#63b8ff" stroke="#63b8ff" points="578.53,-69.5 588.53,-66 578.53,-62.5 578.53,-69.5"/>
</a>
</g>
</g>
<!-- Node8 -->
<g id="Node000008" class="node">
<title>Node8</title>
<g id="a_Node000008"><a xlink:href="classEngine_1_1Systems_1_1PlayerControl.html#acdc125a87269bdcb52dbf899a1657a07" target="_top" xlink:title=" ">
<polygon fill="white" stroke="#666666" points="551.62,-32 395.38,-32 395.38,0 551.62,0 551.62,-32"/>
<text text-anchor="start" x="403.38" y="-18.5" font-family="Helvetica,sans-Serif" font-size="10.00">Engine::Systems::PlayerControl</text>
<text text-anchor="middle" x="473.5" y="-6.5" font-family="Helvetica,sans-Serif" font-size="10.00">::inputListener</text>
</a>
</g>
</g>
<!-- Node7&#45;&gt;Node8 -->
<g id="edge7_Node000007_Node000008" class="edge">
<title>Node7&#45;&gt;Node8</title>
<g id="a_edge7_Node000007_Node000008"><a xlink:title=" ">
<path fill="none" stroke="#63b8ff" d="M354.55,-16C364.13,-16 373.97,-16 383.7,-16"/>
<polygon fill="#63b8ff" stroke="#63b8ff" points="383.53,-19.5 393.53,-16 383.53,-12.5 383.53,-19.5"/>
</a>
</g>
</g>
</g>
</svg>
