<?xml version="1.0" encoding="UTF-8" standalone="no"?>
<!DOCTYPE svg PUBLIC "-//W3C//DTD SVG 1.1//EN"
 "http://www.w3.org/Graphics/SVG/1.1/DTD/svg11.dtd">
<!-- Generated by graphviz version 12.1.0 (20240811.2233)
 -->
<!-- Title: GameManager::connectToServerWithRooms Pages: 1 -->
<svg width="766pt" height="256pt"
 viewBox="0.00 0.00 765.75 256.00" xmlns="http://www.w3.org/2000/svg" xmlns:xlink="http://www.w3.org/1999/xlink">
<g id="graph0" class="graph" transform="scale(1 1) rotate(0) translate(4 252)">
<title>GameManager::connectToServerWithRooms</title>
<!-- Node1 -->
<g id="Node000001" class="node">
<title>Node1</title>
<g id="a_Node000001"><a xlink:title=" ">
<polygon fill="#999999" stroke="#666666" points="159.25,-140 0,-140 0,-108 159.25,-108 159.25,-140"/>
<text text-anchor="start" x="8" y="-126.5" font-family="Helvetica,sans-Serif" font-size="10.00">GameManager::connectToServer</text>
<text text-anchor="middle" x="79.62" y="-114.5" font-family="Helvetica,sans-Serif" font-size="10.00">WithRooms</text>
</a>
</g>
</g>
<!-- Node2 -->
<g id="Node000002" class="node">
<title>Node2</title>
<g id="a_Node000002"><a xlink:href="classGameManager.html#a14d06b2592fdbf40f9bc38e2643635fd" target="_top" xlink:title=" ">
<polygon fill="white" stroke="#666666" points="365.75,-134 195.25,-134 195.25,-114 365.75,-114 365.75,-134"/>
<text text-anchor="middle" x="280.5" y="-120.5" font-family="Helvetica,sans-Serif" font-size="10.00">GameManager::initializeNetworking</text>
</a>
</g>
</g>
<!-- Node1&#45;&gt;Node2 -->
<g id="edge1_Node000001_Node000002" class="edge">
<title>Node1&#45;&gt;Node2</title>
<g id="a_edge1_Node000001_Node000002"><a xlink:title=" ">
<path fill="none" stroke="#63b8ff" d="M159.51,-124C167.4,-124 175.47,-124 183.5,-124"/>
<polygon fill="#63b8ff" stroke="#63b8ff" points="183.31,-127.5 193.31,-124 183.31,-120.5 183.31,-127.5"/>
</a>
</g>
</g>
<!-- Node3 -->
<g id="Node000003" class="node">
<title>Node3</title>
<g id="a_Node000003"><a xlink:href="classGameManager.html#ab7d648c8c27a581741269b09a5622776" target="_top" xlink:title=" ">
<polygon fill="white" stroke="#666666" points="554.62,-248 411.12,-248 411.12,-228 554.62,-228 554.62,-248"/>
<text text-anchor="middle" x="482.88" y="-234.5" font-family="Helvetica,sans-Serif" font-size="10.00">GameManager::onConnected</text>
</a>
</g>
</g>
<!-- Node2&#45;&gt;Node3 -->
<g id="edge2_Node000002_Node000003" class="edge">
<title>Node2&#45;&gt;Node3</title>
<g id="a_edge2_Node000002_Node000003"><a xlink:title=" ">
<path fill="none" stroke="#63b8ff" d="M291.37,-134.36C310.65,-153.99 355.53,-196.63 401.75,-219 405.51,-220.82 409.46,-222.47 413.5,-223.97"/>
<polygon fill="#63b8ff" stroke="#63b8ff" points="412.32,-227.27 422.91,-227.11 414.53,-220.63 412.32,-227.27"/>
</a>
</g>
</g>
<!-- Node5 -->
<g id="Node000005" class="node">
<title>Node5</title>
<g id="a_Node000005"><a xlink:href="classGameManager.html#ac4585cba1dc5e4a3b2febcdd1675a814" target="_top" xlink:title=" ">
<polygon fill="white" stroke="#666666" points="561.38,-210 404.38,-210 404.38,-190 561.38,-190 561.38,-210"/>
<text text-anchor="middle" x="482.88" y="-196.5" font-family="Helvetica,sans-Serif" font-size="10.00">GameManager::onRoomCreated</text>
</a>
</g>
</g>
<!-- Node2&#45;&gt;Node5 -->
<g id="edge4_Node000002_Node000005" class="edge">
<title>Node2&#45;&gt;Node5</title>
<g id="a_edge4_Node000002_Node000005"><a xlink:title=" ">
<path fill="none" stroke="#63b8ff" d="M300.14,-134.35C323.34,-146.87 364.48,-167.91 401.75,-181 407.48,-183.01 413.52,-184.88 419.6,-186.6"/>
<polygon fill="#63b8ff" stroke="#63b8ff" points="418.52,-189.93 429.08,-189.13 420.33,-183.17 418.52,-189.93"/>
</a>
</g>
</g>
<!-- Node6 -->
<g id="Node000006" class="node">
<title>Node6</title>
<g id="a_Node000006"><a xlink:href="classGameManager.html#a9a2668595f93dbf96a2753fccd5c044f" target="_top" xlink:title=" ">
<polygon fill="white" stroke="#666666" points="554.62,-172 411.12,-172 411.12,-152 554.62,-152 554.62,-172"/>
<text text-anchor="middle" x="482.88" y="-158.5" font-family="Helvetica,sans-Serif" font-size="10.00">GameManager::onRoomError</text>
</a>
</g>
</g>
<!-- Node2&#45;&gt;Node6 -->
<g id="edge5_Node000002_Node000006" class="edge">
<title>Node2&#45;&gt;Node6</title>
<g id="a_edge5_Node000002_Node000006"><a xlink:title=" ">
<path fill="none" stroke="#63b8ff" d="M336.78,-134.48C361.2,-139.12 390.11,-144.6 415.67,-149.44"/>
<polygon fill="#63b8ff" stroke="#63b8ff" points="414.81,-152.84 425.28,-151.27 416.11,-145.97 414.81,-152.84"/>
</a>
</g>
</g>
<!-- Node7 -->
<g id="Node000007" class="node">
<title>Node7</title>
<g id="a_Node000007"><a xlink:href="classGameManager.html#a4033d43700b3673e7a062590376451e2" target="_top" xlink:title=" ">
<polygon fill="white" stroke="#666666" points="558.38,-96 407.38,-96 407.38,-76 558.38,-76 558.38,-96"/>
<text text-anchor="middle" x="482.88" y="-82.5" font-family="Helvetica,sans-Serif" font-size="10.00">GameManager::onRoomJoined</text>
</a>
</g>
</g>
<!-- Node2&#45;&gt;Node7 -->
<g id="edge6_Node000002_Node000007" class="edge">
<title>Node2&#45;&gt;Node7</title>
<g id="a_edge6_Node000002_Node000007"><a xlink:title=" ">
<path fill="none" stroke="#63b8ff" d="M336.78,-113.52C361.2,-108.88 390.11,-103.4 415.67,-98.56"/>
<polygon fill="#63b8ff" stroke="#63b8ff" points="416.11,-102.03 425.28,-96.73 414.81,-95.16 416.11,-102.03"/>
</a>
</g>
</g>
<!-- Node9 -->
<g id="Node000009" class="node">
<title>Node9</title>
<g id="a_Node000009"><a xlink:href="classGameManager.html#a0ec8dae876f394af00216bcaa4082670" target="_top" xlink:title=" ">
<polygon fill="white" stroke="#666666" points="552.38,-134 413.38,-134 413.38,-114 552.38,-114 552.38,-134"/>
<text text-anchor="middle" x="482.88" y="-120.5" font-family="Helvetica,sans-Serif" font-size="10.00">GameManager::onRoomLeft</text>
</a>
</g>
</g>
<!-- Node2&#45;&gt;Node9 -->
<g id="edge9_Node000002_Node000009" class="edge">
<title>Node2&#45;&gt;Node9</title>
<g id="a_edge9_Node000002_Node000009"><a xlink:title=" ">
<path fill="none" stroke="#63b8ff" d="M366.19,-124C377.88,-124 389.87,-124 401.48,-124"/>
<polygon fill="#63b8ff" stroke="#63b8ff" points="401.44,-127.5 411.44,-124 401.44,-120.5 401.44,-127.5"/>
</a>
</g>
</g>
<!-- Node10 -->
<g id="Node000010" class="node">
<title>Node10</title>
<g id="a_Node000010"><a xlink:href="classGameManager.html#a436ef659f0f618e7b791c0b492a544ec" target="_top" xlink:title=" ">
<polygon fill="white" stroke="#666666" points="552,-58 413.75,-58 413.75,-38 552,-38 552,-58"/>
<text text-anchor="middle" x="482.88" y="-44.5" font-family="Helvetica,sans-Serif" font-size="10.00">GameManager::onRoomList</text>
</a>
</g>
</g>
<!-- Node2&#45;&gt;Node10 -->
<g id="edge11_Node000002_Node000010" class="edge">
<title>Node2&#45;&gt;Node10</title>
<g id="a_edge11_Node000002_Node000010"><a xlink:title=" ">
<path fill="none" stroke="#63b8ff" d="M300.14,-113.65C323.34,-101.13 364.48,-80.09 401.75,-67 407.48,-64.99 413.52,-63.12 419.6,-61.4"/>
<polygon fill="#63b8ff" stroke="#63b8ff" points="420.33,-64.83 429.08,-58.87 418.52,-58.07 420.33,-64.83"/>
</a>
</g>
</g>
<!-- Node13 -->
<g id="Node000013" class="node">
<title>Node13</title>
<g id="a_Node000013"><a xlink:href="classGameManager.html#aa828e77f2d247c046ff53aa7b7848d22" target="_top" xlink:title=" ">
<polygon fill="white" stroke="#666666" points="564,-20 401.75,-20 401.75,0 564,0 564,-20"/>
<text text-anchor="middle" x="482.88" y="-6.5" font-family="Helvetica,sans-Serif" font-size="10.00">GameManager::onRoomMessage</text>
</a>
</g>
</g>
<!-- Node2&#45;&gt;Node13 -->
<g id="edge15_Node000002_Node000013" class="edge">
<title>Node2&#45;&gt;Node13</title>
<g id="a_edge15_Node000002_Node000013"><a xlink:title=" ">
<path fill="none" stroke="#63b8ff" d="M291.37,-113.64C310.65,-94.01 355.53,-51.37 401.75,-29 405.51,-27.18 409.46,-25.53 413.5,-24.03"/>
<polygon fill="#63b8ff" stroke="#63b8ff" points="414.53,-27.37 422.91,-20.89 412.32,-20.73 414.53,-27.37"/>
</a>
</g>
</g>
<!-- Node4 -->
<g id="Node000004" class="node">
<title>Node4</title>
<g id="a_Node000004"><a xlink:href="classGameManager.html#a23ec271d95d996128b158d3e5e3fe333" target="_top" xlink:title=" ">
<polygon fill="white" stroke="#666666" points="757.75,-134 600,-134 600,-114 757.75,-114 757.75,-134"/>
<text text-anchor="middle" x="678.88" y="-120.5" font-family="Helvetica,sans-Serif" font-size="10.00">GameManager::refreshRoomList</text>
</a>
</g>
</g>
<!-- Node3&#45;&gt;Node4 -->
<g id="edge3_Node000003_Node000004" class="edge">
<title>Node3&#45;&gt;Node4</title>
<g id="a_edge3_Node000003_Node000004"><a xlink:title=" ">
<path fill="none" stroke="#63b8ff" d="M542.34,-227.5C549.82,-225.19 557.22,-222.39 564,-219 602.88,-199.54 640.02,-164.41 660.79,-142.76"/>
<polygon fill="#63b8ff" stroke="#63b8ff" points="663.32,-145.18 667.62,-135.49 658.22,-140.39 663.32,-145.18"/>
</a>
</g>
</g>
<!-- Node7&#45;&gt;Node4 -->
<g id="edge8_Node000007_Node000004" class="edge">
<title>Node7&#45;&gt;Node4</title>
<g id="a_edge8_Node000007_Node000004"><a xlink:title=" ">
<path fill="none" stroke="#63b8ff" d="M537.4,-96.48C560.94,-101.09 588.78,-106.55 613.44,-111.38"/>
<polygon fill="#63b8ff" stroke="#63b8ff" points="612.55,-114.77 623.04,-113.26 613.9,-107.9 612.55,-114.77"/>
</a>
</g>
</g>
<!-- Node8 -->
<g id="Node000008" class="node">
<title>Node8</title>
<g id="a_Node000008"><a xlink:href="GameTypes_8hpp.html#ae3c1e425aceb99f3cab2037f4b24ab1c" target="_top" xlink:title=" ">
<polygon fill="white" stroke="#666666" points="738.62,-96 619.12,-96 619.12,-76 738.62,-76 738.62,-96"/>
<text text-anchor="middle" x="678.88" y="-82.5" font-family="Helvetica,sans-Serif" font-size="10.00">getMaxPlayersForMode</text>
</a>
</g>
</g>
<!-- Node7&#45;&gt;Node8 -->
<g id="edge7_Node000007_Node000008" class="edge">
<title>Node7&#45;&gt;Node8</title>
<g id="a_edge7_Node000007_Node000008"><a xlink:title=" ">
<path fill="none" stroke="#63b8ff" d="M558.6,-86C574.66,-86 591.59,-86 607.48,-86"/>
<polygon fill="#63b8ff" stroke="#63b8ff" points="607.33,-89.5 617.33,-86 607.33,-82.5 607.33,-89.5"/>
</a>
</g>
</g>
<!-- Node9&#45;&gt;Node4 -->
<g id="edge10_Node000009_Node000004" class="edge">
<title>Node9&#45;&gt;Node4</title>
<g id="a_edge10_Node000009_Node000004"><a xlink:title=" ">
<path fill="none" stroke="#63b8ff" d="M552.82,-124C564.29,-124 576.34,-124 588.23,-124"/>
<polygon fill="#63b8ff" stroke="#63b8ff" points="588.05,-127.5 598.05,-124 588.05,-120.5 588.05,-127.5"/>
</a>
</g>
</g>
<!-- Node10&#45;&gt;Node8 -->
<g id="edge13_Node000010_Node000008" class="edge">
<title>Node10&#45;&gt;Node8</title>
<g id="a_edge13_Node000010_Node000008"><a xlink:title=" ">
<path fill="none" stroke="#63b8ff" d="M537.4,-58.48C560.94,-63.09 588.78,-68.55 613.44,-73.38"/>
<polygon fill="#63b8ff" stroke="#63b8ff" points="612.55,-76.77 623.04,-75.26 613.9,-69.9 612.55,-76.77"/>
</a>
</g>
</g>
<!-- Node11 -->
<g id="Node000011" class="node">
<title>Node11</title>
<g id="a_Node000011"><a xlink:href="classGameManager.html#af597fa0982e7be211f1400f929fabeaf" target="_top" xlink:title=" ">
<polygon fill="white" stroke="#666666" points="748.38,-58 609.38,-58 609.38,-38 748.38,-38 748.38,-58"/>
<text text-anchor="middle" x="678.88" y="-44.5" font-family="Helvetica,sans-Serif" font-size="10.00">GameManager::createRoom</text>
</a>
</g>
</g>
<!-- Node10&#45;&gt;Node11 -->
<g id="edge12_Node000010_Node000011" class="edge">
<title>Node10&#45;&gt;Node11</title>
<g id="a_edge12_Node000010_Node000011"><a xlink:title=" ">
<path fill="none" stroke="#63b8ff" d="M552.27,-48C566.96,-48 582.62,-48 597.71,-48"/>
<polygon fill="#63b8ff" stroke="#63b8ff" points="597.6,-51.5 607.6,-48 597.6,-44.5 597.6,-51.5"/>
</a>
</g>
</g>
<!-- Node12 -->
<g id="Node000012" class="node">
<title>Node12</title>
<g id="a_Node000012"><a xlink:href="classGameManager.html#aa4a2d722a376c7c2025a6172d39e5f16" target="_top" xlink:title=" ">
<polygon fill="white" stroke="#666666" points="742.38,-20 615.38,-20 615.38,0 742.38,0 742.38,-20"/>
<text text-anchor="middle" x="678.88" y="-6.5" font-family="Helvetica,sans-Serif" font-size="10.00">GameManager::joinRoom</text>
</a>
</g>
</g>
<!-- Node10&#45;&gt;Node12 -->
<g id="edge14_Node000010_Node000012" class="edge">
<title>Node10&#45;&gt;Node12</title>
<g id="a_edge14_Node000010_Node000012"><a xlink:title=" ">
<path fill="none" stroke="#63b8ff" d="M537.4,-37.52C560.94,-32.91 588.78,-27.45 613.44,-22.62"/>
<polygon fill="#63b8ff" stroke="#63b8ff" points="613.9,-26.1 623.04,-20.74 612.55,-19.23 613.9,-26.1"/>
</a>
</g>
</g>
</g>
</svg>
