<?xml version="1.0" encoding="UTF-8" standalone="no"?>
<!DOCTYPE svg PUBLIC "-//W3C//DTD SVG 1.1//EN"
 "http://www.w3.org/Graphics/SVG/1.1/DTD/svg11.dtd">
<!-- Generated by graphviz version 12.1.0 (20240811.2233)
 -->
<!-- Title: ControlsConfig::setupControlSettings Pages: 1 -->
<svg width="335pt" height="78pt"
 viewBox="0.00 0.00 334.75 78.00" xmlns="http://www.w3.org/2000/svg" xmlns:xlink="http://www.w3.org/1999/xlink">
<g id="graph0" class="graph" transform="scale(1 1) rotate(0) translate(4 74)">
<title>ControlsConfig::setupControlSettings</title>
<!-- Node1 -->
<g id="Node000001" class="node">
<title>Node1</title>
<g id="a_Node000001"><a xlink:title=" ">
<polygon fill="#999999" stroke="#666666" points="142.75,-54 0,-54 0,-22 142.75,-22 142.75,-54"/>
<text text-anchor="start" x="8" y="-40.5" font-family="Helvetica,sans-Serif" font-size="10.00">ControlsConfig::setupControl</text>
<text text-anchor="middle" x="71.38" y="-28.5" font-family="Helvetica,sans-Serif" font-size="10.00">Settings</text>
</a>
</g>
</g>
<!-- Node2 -->
<g id="Node000002" class="node">
<title>Node2</title>
<g id="a_Node000002"><a xlink:href="classControlsConfig.html#a98c32bfcca7b184b230394e79bdac59e" target="_top" xlink:title=" ">
<polygon fill="white" stroke="#666666" points="324.88,-70 180.62,-70 180.62,-50 324.88,-50 324.88,-70"/>
<text text-anchor="middle" x="252.75" y="-56.5" font-family="Helvetica,sans-Serif" font-size="10.00">ControlsConfig::getKeyName</text>
</a>
</g>
</g>
<!-- Node1&#45;&gt;Node2 -->
<g id="edge1_Node000001_Node000002" class="edge">
<title>Node1&#45;&gt;Node2</title>
<g id="a_edge1_Node000001_Node000002"><a xlink:title=" ">
<path fill="none" stroke="#63b8ff" d="M143.01,-46.66C151.53,-47.71 160.29,-48.78 168.97,-49.85"/>
<polygon fill="#63b8ff" stroke="#63b8ff" points="168.44,-53.31 178.79,-51.05 169.29,-46.36 168.44,-53.31"/>
</a>
</g>
</g>
<!-- Node3 -->
<g id="Node000003" class="node">
<title>Node3</title>
<g id="a_Node000003"><a xlink:href="classControlsConfig.html#a5d7aa2d264ab4f3dfeb428e81e6c2f82" target="_top" xlink:title=" ">
<polygon fill="white" stroke="#666666" points="326.75,-32 178.75,-32 178.75,0 326.75,0 326.75,-32"/>
<text text-anchor="start" x="186.75" y="-18.5" font-family="Helvetica,sans-Serif" font-size="10.00">ControlsConfig::updateControl</text>
<text text-anchor="middle" x="252.75" y="-6.5" font-family="Helvetica,sans-Serif" font-size="10.00">SettingsPositions</text>
</a>
</g>
</g>
<!-- Node1&#45;&gt;Node3 -->
<g id="edge2_Node000001_Node000003" class="edge">
<title>Node1&#45;&gt;Node3</title>
<g id="a_edge2_Node000001_Node000003"><a xlink:title=" ">
<path fill="none" stroke="#63b8ff" d="M143.01,-29.34C150.94,-28.36 159.08,-27.37 167.16,-26.37"/>
<polygon fill="#63b8ff" stroke="#63b8ff" points="167.52,-29.86 177.02,-25.17 166.67,-22.91 167.52,-29.86"/>
</a>
</g>
</g>
</g>
</svg>
