<?xml version="1.0" encoding="UTF-8" standalone="no"?>
<!DOCTYPE svg PUBLIC "-//W3C//DTD SVG 1.1//EN"
 "http://www.w3.org/Graphics/SVG/1.1/DTD/svg11.dtd">
<!-- Generated by graphviz version 12.1.0 (20240811.2233)
 -->
<!-- Title: GameManager::render Pages: 1 -->
<svg width="679pt" height="420pt"
 viewBox="0.00 0.00 678.75 420.00" xmlns="http://www.w3.org/2000/svg" xmlns:xlink="http://www.w3.org/1999/xlink">
<g id="graph0" class="graph" transform="scale(1 1) rotate(0) translate(4 416)">
<title>GameManager::render</title>
<!-- Node1 -->
<g id="Node000001" class="node">
<title>Node1</title>
<g id="a_Node000001"><a xlink:title=" ">
<polygon fill="#999999" stroke="#666666" points="112.75,-222 0,-222 0,-202 112.75,-202 112.75,-222"/>
<text text-anchor="middle" x="56.38" y="-208.5" font-family="Helvetica,sans-Serif" font-size="10.00">GameManager::render</text>
</a>
</g>
</g>
<!-- Node2 -->
<g id="Node000002" class="node">
<title>Node2</title>
<g id="a_Node000002"><a xlink:href="classButton.html#adf65892636ea303a84e1391106ea7cb0" target="_top" xlink:title=" ">
<polygon fill="white" stroke="#666666" points="258.12,-412 186.62,-412 186.62,-392 258.12,-392 258.12,-412"/>
<text text-anchor="middle" x="222.38" y="-398.5" font-family="Helvetica,sans-Serif" font-size="10.00">Button::draw</text>
</a>
</g>
</g>
<!-- Node1&#45;&gt;Node2 -->
<g id="edge1_Node000001_Node000002" class="edge">
<title>Node1&#45;&gt;Node2</title>
<g id="a_edge1_Node000001_Node000002"><a xlink:title=" ">
<path fill="none" stroke="#63b8ff" d="M59.79,-222.34C67.32,-252.2 93.26,-339.22 148.75,-383 156.4,-389.03 165.77,-393.16 175.21,-395.99"/>
<polygon fill="#63b8ff" stroke="#63b8ff" points="174.21,-399.34 184.76,-398.37 175.9,-392.55 174.21,-399.34"/>
</a>
</g>
</g>
<!-- Node3 -->
<g id="Node000003" class="node">
<title>Node3</title>
<g id="a_Node000003"><a xlink:href="classControlsConfig.html#aee10925f5a8bef01c9f7f5bb594479cf" target="_top" xlink:title=" ">
<polygon fill="white" stroke="#666666" points="276.5,-374 168.25,-374 168.25,-354 276.5,-354 276.5,-374"/>
<text text-anchor="middle" x="222.38" y="-360.5" font-family="Helvetica,sans-Serif" font-size="10.00">ControlsConfig::draw</text>
</a>
</g>
</g>
<!-- Node1&#45;&gt;Node3 -->
<g id="edge2_Node000001_Node000003" class="edge">
<title>Node1&#45;&gt;Node3</title>
<g id="a_edge2_Node000001_Node000003"><a xlink:title=" ">
<path fill="none" stroke="#63b8ff" d="M61.37,-222.17C71.73,-247.2 101.98,-312.15 148.75,-345 151.45,-346.9 154.33,-348.6 157.32,-350.14"/>
<polygon fill="#63b8ff" stroke="#63b8ff" points="155.89,-353.33 166.45,-354.13 158.69,-346.92 155.89,-353.33"/>
</a>
</g>
</g>
<!-- Node4 -->
<g id="Node000004" class="node">
<title>Node4</title>
<g id="a_Node000004"><a xlink:href="classErrorServer.html#a0e977c4fb8bc4789e0c1bb1985af2bba" target="_top" xlink:title=" ">
<polygon fill="white" stroke="#666666" points="268.62,-336 176.12,-336 176.12,-316 268.62,-316 268.62,-336"/>
<text text-anchor="middle" x="222.38" y="-322.5" font-family="Helvetica,sans-Serif" font-size="10.00">ErrorServer::draw</text>
</a>
</g>
</g>
<!-- Node1&#45;&gt;Node4 -->
<g id="edge3_Node000001_Node000004" class="edge">
<title>Node1&#45;&gt;Node4</title>
<g id="a_edge3_Node000001_Node000004"><a xlink:title=" ">
<path fill="none" stroke="#63b8ff" d="M64.33,-222.37C78.06,-242.01 110.65,-284.66 148.75,-307 153.75,-309.93 159.21,-312.42 164.81,-314.53"/>
<polygon fill="#63b8ff" stroke="#63b8ff" points="163.65,-317.83 174.24,-317.66 165.85,-311.19 163.65,-317.83"/>
</a>
</g>
</g>
<!-- Node5 -->
<g id="Node000005" class="node">
<title>Node5</title>
<g id="a_Node000005"><a xlink:href="classLaunch.html#afa6b62100d64c138b9ad68b728fb3fd2" target="_top" xlink:title=" ">
<polygon fill="white" stroke="#666666" points="259.62,-298 185.12,-298 185.12,-278 259.62,-278 259.62,-298"/>
<text text-anchor="middle" x="222.38" y="-284.5" font-family="Helvetica,sans-Serif" font-size="10.00">Launch::draw</text>
</a>
</g>
</g>
<!-- Node1&#45;&gt;Node5 -->
<g id="edge4_Node000001_Node000005" class="edge">
<title>Node1&#45;&gt;Node5</title>
<g id="a_edge4_Node000001_Node000005"><a xlink:title=" ">
<path fill="none" stroke="#63b8ff" d="M71.2,-222.49C88.48,-235.17 119.39,-256.35 148.75,-269 156.66,-272.41 165.32,-275.32 173.82,-277.77"/>
<polygon fill="#63b8ff" stroke="#63b8ff" points="172.8,-281.12 183.36,-280.33 174.61,-274.36 172.8,-281.12"/>
</a>
</g>
</g>
<!-- Node6 -->
<g id="Node000006" class="node">
<title>Node6</title>
<g id="a_Node000006"><a xlink:href="classParamButton.html#a4d861d1ebb303222ed3df43964aff44f" target="_top" xlink:title=" ">
<polygon fill="white" stroke="#666666" points="272.38,-260 172.38,-260 172.38,-240 272.38,-240 272.38,-260"/>
<text text-anchor="middle" x="222.38" y="-246.5" font-family="Helvetica,sans-Serif" font-size="10.00">ParamButton::draw</text>
</a>
</g>
</g>
<!-- Node1&#45;&gt;Node6 -->
<g id="edge5_Node000001_Node000006" class="edge">
<title>Node1&#45;&gt;Node6</title>
<g id="a_edge5_Node000001_Node000006"><a xlink:title=" ">
<path fill="none" stroke="#63b8ff" d="M102.62,-222.48C121.98,-226.97 144.79,-232.25 165.21,-236.99"/>
<polygon fill="#63b8ff" stroke="#63b8ff" points="164.27,-240.36 174.8,-239.21 165.85,-233.54 164.27,-240.36"/>
</a>
</g>
</g>
<!-- Node7 -->
<g id="Node000007" class="node">
<title>Node7</title>
<g id="a_Node000007"><a xlink:href="classParameters.html#a3861a3375a9e31e5ce06d0e71a0bf1ab" target="_top" xlink:title=" ">
<polygon fill="white" stroke="#666666" points="459.75,-222 366.5,-222 366.5,-202 459.75,-202 459.75,-222"/>
<text text-anchor="middle" x="413.12" y="-208.5" font-family="Helvetica,sans-Serif" font-size="10.00">Parameters::draw</text>
</a>
</g>
</g>
<!-- Node1&#45;&gt;Node7 -->
<g id="edge6_Node000001_Node000007" class="edge">
<title>Node1&#45;&gt;Node7</title>
<g id="a_edge6_Node000001_Node000007"><a xlink:title=" ">
<path fill="none" stroke="#63b8ff" d="M113.19,-212C179.23,-212 288.57,-212 355.12,-212"/>
<polygon fill="#63b8ff" stroke="#63b8ff" points="354.71,-215.5 364.71,-212 354.71,-208.5 354.71,-215.5"/>
</a>
</g>
</g>
<!-- Node9 -->
<g id="Node000009" class="node">
<title>Node9</title>
<g id="a_Node000009"><a xlink:href="classPlayer.html#a70bbe0afb8ef88207288c9134ae80b6e" target="_top" xlink:title=" ">
<polygon fill="white" stroke="#666666" points="257.75,-184 187,-184 187,-164 257.75,-164 257.75,-184"/>
<text text-anchor="middle" x="222.38" y="-170.5" font-family="Helvetica,sans-Serif" font-size="10.00">Player::draw</text>
</a>
</g>
</g>
<!-- Node1&#45;&gt;Node9 -->
<g id="edge8_Node000001_Node000009" class="edge">
<title>Node1&#45;&gt;Node9</title>
<g id="a_edge8_Node000001_Node000009"><a xlink:title=" ">
<path fill="none" stroke="#63b8ff" d="M102.62,-201.52C125.33,-196.25 152.79,-189.89 175.57,-184.61"/>
<polygon fill="#63b8ff" stroke="#63b8ff" points="176.25,-188.05 185.2,-182.38 174.67,-181.23 176.25,-188.05"/>
</a>
</g>
</g>
<!-- Node10 -->
<g id="Node000010" class="node">
<title>Node10</title>
<g id="a_Node000010"><a xlink:href="classParamButton.html#a5905a3b1fb8a29813d96d9e962b21bb7" target="_top" xlink:title=" ">
<polygon fill="white" stroke="#666666" points="296,-146 148.75,-146 148.75,-126 296,-126 296,-146"/>
<text text-anchor="middle" x="222.38" y="-132.5" font-family="Helvetica,sans-Serif" font-size="10.00">ParamButton::drawVolumeBar</text>
</a>
</g>
</g>
<!-- Node1&#45;&gt;Node10 -->
<g id="edge9_Node000001_Node000010" class="edge">
<title>Node1&#45;&gt;Node10</title>
<g id="a_edge9_Node000001_Node000010"><a xlink:title=" ">
<path fill="none" stroke="#63b8ff" d="M71.2,-201.51C88.48,-188.83 119.39,-167.65 148.75,-155 153.06,-153.14 157.59,-151.43 162.2,-149.87"/>
<polygon fill="#63b8ff" stroke="#63b8ff" points="163.09,-153.25 171.58,-146.92 160.99,-146.58 163.09,-153.25"/>
</a>
</g>
</g>
<!-- Node11 -->
<g id="Node000011" class="node">
<title>Node11</title>
<g id="a_Node000011"><a xlink:href="classGameManager.html#a5315da76c5b8b7338ec77022547ad03f" target="_top" xlink:title=" ">
<polygon fill="white" stroke="#666666" points="290.38,-108 154.38,-108 154.38,-88 290.38,-88 290.38,-108"/>
<text text-anchor="middle" x="222.38" y="-94.5" font-family="Helvetica,sans-Serif" font-size="10.00">GameManager::gameDemo</text>
</a>
</g>
</g>
<!-- Node1&#45;&gt;Node11 -->
<g id="edge10_Node000001_Node000011" class="edge">
<title>Node1&#45;&gt;Node11</title>
<g id="a_edge10_Node000001_Node000011"><a xlink:title=" ">
<path fill="none" stroke="#63b8ff" d="M64.33,-201.63C78.06,-181.99 110.65,-139.34 148.75,-117 151.4,-115.45 154.18,-114.02 157.03,-112.7"/>
<polygon fill="#63b8ff" stroke="#63b8ff" points="158.28,-115.98 166.25,-109 155.67,-109.48 158.28,-115.98"/>
</a>
</g>
</g>
<!-- Node15 -->
<g id="Node000015" class="node">
<title>Node15</title>
<g id="a_Node000015"><a xlink:href="classParticleSystem.html#abe33b51ab04720074de064406a3f20df" target="_top" xlink:title=" ">
<polygon fill="white" stroke="#666666" points="280.25,-70 164.5,-70 164.5,-50 280.25,-50 280.25,-70"/>
<text text-anchor="middle" x="222.38" y="-56.5" font-family="Helvetica,sans-Serif" font-size="10.00">ParticleSystem::render</text>
</a>
</g>
</g>
<!-- Node1&#45;&gt;Node15 -->
<g id="edge14_Node000001_Node000015" class="edge">
<title>Node1&#45;&gt;Node15</title>
<g id="a_edge14_Node000001_Node000015"><a xlink:title=" ">
<path fill="none" stroke="#63b8ff" d="M61.37,-201.83C71.73,-176.8 101.98,-111.85 148.75,-79 150.59,-77.71 152.51,-76.5 154.5,-75.38"/>
<polygon fill="#63b8ff" stroke="#63b8ff" points="155.97,-78.55 163.48,-71.08 152.95,-72.24 155.97,-78.55"/>
</a>
</g>
</g>
<!-- Node17 -->
<g id="Node000017" class="node">
<title>Node17</title>
<g id="a_Node000017"><a xlink:href="classParamButton.html#a26d084094df8af9988e99861e713f561" target="_top" xlink:title=" ">
<polygon fill="white" stroke="#666666" points="294.12,-32 150.62,-32 150.62,0 294.12,0 294.12,-32"/>
<text text-anchor="start" x="158.62" y="-18.5" font-family="Helvetica,sans-Serif" font-size="10.00">ParamButton::updatePosition</text>
<text text-anchor="middle" x="222.38" y="-6.5" font-family="Helvetica,sans-Serif" font-size="10.00">AndSize</text>
</a>
</g>
</g>
<!-- Node1&#45;&gt;Node17 -->
<g id="edge17_Node000001_Node000017" class="edge">
<title>Node1&#45;&gt;Node17</title>
<g id="a_edge17_Node000001_Node000017"><a xlink:title=" ">
<path fill="none" stroke="#63b8ff" d="M59.95,-201.86C67.93,-172.55 94.95,-86.85 148.75,-41 149.83,-40.08 150.96,-39.18 152.11,-38.33"/>
<polygon fill="#63b8ff" stroke="#63b8ff" points="153.64,-41.5 160.19,-33.17 149.88,-35.6 153.64,-41.5"/>
</a>
</g>
</g>
<!-- Node8 -->
<g id="Node000008" class="node">
<title>Node8</title>
<g id="a_Node000008"><a xlink:href="classParameters.html#a11623d0313272ad8e9841469facbaa7a" target="_top" xlink:title=" ">
<polygon fill="white" stroke="#666666" points="670.75,-140 530.25,-140 530.25,-108 670.75,-108 670.75,-140"/>
<text text-anchor="start" x="538.25" y="-126.5" font-family="Helvetica,sans-Serif" font-size="10.00">Parameters::applyColorBlind</text>
<text text-anchor="middle" x="600.5" y="-114.5" font-family="Helvetica,sans-Serif" font-size="10.00">Filter</text>
</a>
</g>
</g>
<!-- Node7&#45;&gt;Node8 -->
<g id="edge7_Node000007_Node000008" class="edge">
<title>Node7&#45;&gt;Node8</title>
<g id="a_edge7_Node000007_Node000008"><a xlink:title=" ">
<path fill="none" stroke="#63b8ff" d="M459.93,-204.02C471.39,-201.25 483.48,-197.64 494.25,-193 521.8,-181.14 550.06,-162.16 570.35,-147.11"/>
<polygon fill="#63b8ff" stroke="#63b8ff" points="572.29,-150.03 578.16,-141.21 568.07,-144.45 572.29,-150.03"/>
</a>
</g>
</g>
<!-- Node12 -->
<g id="Node000012" class="node">
<title>Node12</title>
<g id="a_Node000012"><a xlink:href="classEngine_1_1Event.html#a096c333084c5fbac10f77048263b3066" target="_top" xlink:title=" ">
<polygon fill="white" stroke="#666666" points="475.88,-184 350.38,-184 350.38,-164 475.88,-164 475.88,-184"/>
<text text-anchor="middle" x="413.12" y="-170.5" font-family="Helvetica,sans-Serif" font-size="10.00">Engine::Event::setParam</text>
</a>
</g>
</g>
<!-- Node11&#45;&gt;Node12 -->
<g id="edge11_Node000011_Node000012" class="edge">
<title>Node11&#45;&gt;Node12</title>
<g id="a_edge11_Node000011_Node000012"><a xlink:title=" ">
<path fill="none" stroke="#63b8ff" d="M277.12,-108.39C283.71,-110.72 290.17,-113.55 296,-117 316.02,-128.84 311.84,-143.39 332,-155 334.79,-156.61 337.7,-158.08 340.7,-159.42"/>
<polygon fill="#63b8ff" stroke="#63b8ff" points="339.17,-162.58 349.76,-162.98 341.74,-156.07 339.17,-162.58"/>
</a>
</g>
</g>
<!-- Node13 -->
<g id="Node000013" class="node">
<title>Node13</title>
<g id="a_Node000013"><a xlink:href="classEngine_1_1Systems_1_1PhysicsSystem.html#ae197e05c4ba008676c53675548236d2d" target="_top" xlink:title=" ">
<polygon fill="white" stroke="#666666" points="479.25,-146 347,-146 347,-114 479.25,-114 479.25,-146"/>
<text text-anchor="start" x="355" y="-132.5" font-family="Helvetica,sans-Serif" font-size="10.00">Engine::Systems::Physics</text>
<text text-anchor="middle" x="413.12" y="-120.5" font-family="Helvetica,sans-Serif" font-size="10.00">System::update</text>
</a>
</g>
</g>
<!-- Node11&#45;&gt;Node13 -->
<g id="edge12_Node000011_Node000013" class="edge">
<title>Node11&#45;&gt;Node13</title>
<g id="a_edge12_Node000011_Node000013"><a xlink:title=" ">
<path fill="none" stroke="#63b8ff" d="M285.18,-108.48C301.32,-111.21 318.91,-114.2 335.71,-117.04"/>
<polygon fill="#63b8ff" stroke="#63b8ff" points="334.67,-120.42 345.12,-118.64 335.84,-113.52 334.67,-120.42"/>
</a>
</g>
</g>
<!-- Node14 -->
<g id="Node000014" class="node">
<title>Node14</title>
<g id="a_Node000014"><a xlink:href="classEngine_1_1Systems_1_1RenderSystem.html#a85ca1f772ccfdaea708a4408216fdae7" target="_top" xlink:title=" ">
<polygon fill="white" stroke="#666666" points="494.25,-96 332,-96 332,-64 494.25,-64 494.25,-96"/>
<text text-anchor="start" x="340" y="-82.5" font-family="Helvetica,sans-Serif" font-size="10.00">Engine::Systems::RenderSystem</text>
<text text-anchor="middle" x="413.12" y="-70.5" font-family="Helvetica,sans-Serif" font-size="10.00">::update</text>
</a>
</g>
</g>
<!-- Node11&#45;&gt;Node14 -->
<g id="edge13_Node000011_Node000014" class="edge">
<title>Node11&#45;&gt;Node14</title>
<g id="a_edge13_Node000011_Node000014"><a xlink:title=" ">
<path fill="none" stroke="#63b8ff" d="M290.72,-91.58C300.33,-90.66 310.36,-89.7 320.34,-88.75"/>
<polygon fill="#63b8ff" stroke="#63b8ff" points="320.45,-92.26 330.07,-87.83 319.78,-85.29 320.45,-92.26"/>
</a>
</g>
</g>
<!-- Node16 -->
<g id="Node000016" class="node">
<title>Node16</title>
<g id="a_Node000016"><a xlink:href="classParticleSystem.html#abdef4bdd9875aef1b3224cfd3919111c" target="_top" xlink:title=" ">
<polygon fill="white" stroke="#666666" points="487.5,-46 338.75,-46 338.75,-26 487.5,-26 487.5,-46"/>
<text text-anchor="middle" x="413.12" y="-32.5" font-family="Helvetica,sans-Serif" font-size="10.00">ParticleSystem::renderParticle</text>
</a>
</g>
</g>
<!-- Node15&#45;&gt;Node16 -->
<g id="edge15_Node000015_Node000016" class="edge">
<title>Node15&#45;&gt;Node16</title>
<g id="a_edge15_Node000015_Node000016"><a xlink:title=" ">
<path fill="none" stroke="#63b8ff" d="M280.52,-52.73C295.19,-50.87 311.28,-48.82 327.03,-46.82"/>
<polygon fill="#63b8ff" stroke="#63b8ff" points="327.43,-50.3 336.91,-45.56 326.55,-43.35 327.43,-50.3"/>
</a>
</g>
</g>
<!-- Node16&#45;&gt;Node8 -->
<g id="edge16_Node000016_Node000008" class="edge">
<title>Node16&#45;&gt;Node8</title>
<g id="a_edge16_Node000016_Node000008"><a xlink:title=" ">
<path fill="none" stroke="#63b8ff" d="M469.25,-46.39C477.78,-48.76 486.37,-51.61 494.25,-55 521.8,-66.86 550.06,-85.84 570.35,-100.89"/>
<polygon fill="#63b8ff" stroke="#63b8ff" points="568.07,-103.55 578.16,-106.79 572.29,-97.97 568.07,-103.55"/>
</a>
</g>
</g>
</g>
</svg>
