<?xml version="1.0" encoding="UTF-8" standalone="no"?>
<!DOCTYPE svg PUBLIC "-//W3C//DTD SVG 1.1//EN"
 "http://www.w3.org/Graphics/SVG/1.1/DTD/svg11.dtd">
<!-- Generated by graphviz version 12.1.0 (20240811.2233)
 -->
<!-- Title: RtypeServer::UdpServer::handle_leave_room Pages: 1 -->
<svg width="457pt" height="244pt"
 viewBox="0.00 0.00 456.50 244.00" xmlns="http://www.w3.org/2000/svg" xmlns:xlink="http://www.w3.org/1999/xlink">
<g id="graph0" class="graph" transform="scale(1 1) rotate(0) translate(4 240)">
<title>RtypeServer::UdpServer::handle_leave_room</title>
<!-- Node1 -->
<g id="Node000001" class="node">
<title>Node1</title>
<g id="a_Node000001"><a xlink:title=" ">
<polygon fill="#999999" stroke="#666666" points="123.25,-148 0,-148 0,-116 123.25,-116 123.25,-148"/>
<text text-anchor="start" x="8" y="-134.5" font-family="Helvetica,sans-Serif" font-size="10.00">RtypeServer::UdpServer</text>
<text text-anchor="middle" x="61.62" y="-122.5" font-family="Helvetica,sans-Serif" font-size="10.00">::handle_leave_room</text>
</a>
</g>
</g>
<!-- Node2 -->
<g id="Node000002" class="node">
<title>Node2</title>
<g id="a_Node000002"><a xlink:href="classRtypeServer_1_1RoomManager.html#ad3f5e3ce2c669a04fc74d8a2e0fdc246" target="_top" xlink:title=" ">
<polygon fill="white" stroke="#666666" points="299.75,-236 159.25,-236 159.25,-204 299.75,-204 299.75,-236"/>
<text text-anchor="start" x="167.25" y="-222.5" font-family="Helvetica,sans-Serif" font-size="10.00">RtypeServer::RoomManager</text>
<text text-anchor="middle" x="229.5" y="-210.5" font-family="Helvetica,sans-Serif" font-size="10.00">::cleanup</text>
</a>
</g>
</g>
<!-- Node1&#45;&gt;Node2 -->
<g id="edge1_Node000001_Node000002" class="edge">
<title>Node1&#45;&gt;Node2</title>
<g id="a_edge1_Node000001_Node000002"><a xlink:title=" ">
<path fill="none" stroke="#63b8ff" d="M87.94,-148.45C107.13,-160.61 134.37,-177.21 159.25,-190 165.15,-193.03 171.42,-196.04 177.69,-198.91"/>
<polygon fill="#63b8ff" stroke="#63b8ff" points="176.23,-202.09 186.79,-202.97 179.09,-195.7 176.23,-202.09"/>
</a>
</g>
</g>
<!-- Node3 -->
<g id="Node000003" class="node">
<title>Node3</title>
<g id="a_Node000003"><a xlink:href="namespaceRtypeServer.html#a0945154a39091e84a43cedc8136b0abe" target="_top" xlink:title=" ">
<polygon fill="white" stroke="#666666" points="439.88,-208 344.38,-208 344.38,-188 439.88,-188 439.88,-208"/>
<text text-anchor="middle" x="392.12" y="-194.5" font-family="Helvetica,sans-Serif" font-size="10.00">RtypeServer::infof</text>
</a>
</g>
</g>
<!-- Node1&#45;&gt;Node3 -->
<g id="edge3_Node000001_Node000003" class="edge">
<title>Node1&#45;&gt;Node3</title>
<g id="a_edge3_Node000001_Node000003"><a xlink:title=" ">
<path fill="none" stroke="#63b8ff" d="M123.27,-148.46C135.16,-151.47 147.57,-154.46 159.25,-157 218.11,-169.8 286.03,-181.45 333.09,-189.03"/>
<polygon fill="#63b8ff" stroke="#63b8ff" points="332.36,-192.46 342.79,-190.58 333.47,-185.55 332.36,-192.46"/>
</a>
</g>
</g>
<!-- Node4 -->
<g id="Node000004" class="node">
<title>Node4</title>
<g id="a_Node000004"><a xlink:href="classRtypeServer_1_1RoomManager.html#a83d990846ffa4448ef1cfeed46868138" target="_top" xlink:title=" ">
<polygon fill="white" stroke="#666666" points="299.75,-48 159.25,-48 159.25,-16 299.75,-16 299.75,-48"/>
<text text-anchor="start" x="167.25" y="-34.5" font-family="Helvetica,sans-Serif" font-size="10.00">RtypeServer::RoomManager</text>
<text text-anchor="middle" x="229.5" y="-22.5" font-family="Helvetica,sans-Serif" font-size="10.00">::leaveRoom</text>
</a>
</g>
</g>
<!-- Node1&#45;&gt;Node4 -->
<g id="edge4_Node000001_Node000004" class="edge">
<title>Node1&#45;&gt;Node4</title>
<g id="a_edge4_Node000001_Node000004"><a xlink:title=" ">
<path fill="none" stroke="#63b8ff" d="M79.95,-115.8C98.42,-99.22 129.11,-73.59 159.25,-57 161.75,-55.62 164.34,-54.3 166.98,-53.02"/>
<polygon fill="#63b8ff" stroke="#63b8ff" points="168.31,-56.27 176,-48.99 165.45,-49.88 168.31,-56.27"/>
</a>
</g>
</g>
<!-- Node5 -->
<g id="Node000005" class="node">
<title>Node5</title>
<g id="a_Node000005"><a xlink:href="classRtypeServer_1_1UdpServer.html#ab6e480e2b78f9cbc75fb5ba9bbdc71f5" target="_top" xlink:title=" ">
<polygon fill="white" stroke="#666666" points="291.12,-98 167.88,-98 167.88,-66 291.12,-66 291.12,-98"/>
<text text-anchor="start" x="175.88" y="-84.5" font-family="Helvetica,sans-Serif" font-size="10.00">RtypeServer::UdpServer</text>
<text text-anchor="middle" x="229.5" y="-72.5" font-family="Helvetica,sans-Serif" font-size="10.00">::send_room_error</text>
</a>
</g>
</g>
<!-- Node1&#45;&gt;Node5 -->
<g id="edge5_Node000001_Node000005" class="edge">
<title>Node1&#45;&gt;Node5</title>
<g id="a_edge5_Node000001_Node000005"><a xlink:title=" ">
<path fill="none" stroke="#63b8ff" d="M116.94,-115.63C131.61,-111.2 147.65,-106.37 162.87,-101.78"/>
<polygon fill="#63b8ff" stroke="#63b8ff" points="163.77,-105.17 172.33,-98.93 161.75,-98.47 163.77,-105.17"/>
</a>
</g>
</g>
<!-- Node9 -->
<g id="Node000009" class="node">
<title>Node9</title>
<g id="a_Node000009"><a xlink:href="classRtypeServer_1_1UdpServer.html#a7583cf1fea483149a02b3f2b5fdd8cad" target="_top" xlink:title=" ">
<polygon fill="white" stroke="#666666" points="291.12,-148 167.88,-148 167.88,-116 291.12,-116 291.12,-148"/>
<text text-anchor="start" x="175.88" y="-134.5" font-family="Helvetica,sans-Serif" font-size="10.00">RtypeServer::UdpServer</text>
<text text-anchor="middle" x="229.5" y="-122.5" font-family="Helvetica,sans-Serif" font-size="10.00">::send_room_left</text>
</a>
</g>
</g>
<!-- Node1&#45;&gt;Node9 -->
<g id="edge10_Node000001_Node000009" class="edge">
<title>Node1&#45;&gt;Node9</title>
<g id="a_edge10_Node000001_Node000009"><a xlink:title=" ">
<path fill="none" stroke="#63b8ff" d="M123.45,-132C134.09,-132 145.25,-132 156.16,-132"/>
<polygon fill="#63b8ff" stroke="#63b8ff" points="155.89,-135.5 165.89,-132 155.89,-128.5 155.89,-135.5"/>
</a>
</g>
</g>
<!-- Node2&#45;&gt;Node3 -->
<g id="edge2_Node000002_Node000003" class="edge">
<title>Node2&#45;&gt;Node3</title>
<g id="a_edge2_Node000002_Node000003"><a xlink:title=" ">
<path fill="none" stroke="#63b8ff" d="M300.02,-210.48C310.98,-208.98 322.21,-207.44 332.88,-205.98"/>
<polygon fill="#63b8ff" stroke="#63b8ff" points="333.26,-209.46 342.69,-204.63 332.31,-202.52 333.26,-209.46"/>
</a>
</g>
</g>
<!-- Node5&#45;&gt;Node3 -->
<g id="edge6_Node000005_Node000003" class="edge">
<title>Node5&#45;&gt;Node3</title>
<g id="a_edge6_Node000005_Node000003"><a xlink:title=" ">
<path fill="none" stroke="#63b8ff" d="M287.73,-98.49C292.04,-100.95 296.12,-103.77 299.75,-107 326.49,-130.77 308.83,-155.44 335.75,-179 336.85,-179.96 338,-180.87 339.19,-181.74"/>
<polygon fill="#63b8ff" stroke="#63b8ff" points="337.28,-184.68 347.67,-186.76 340.84,-178.65 337.28,-184.68"/>
</a>
</g>
</g>
<!-- Node6 -->
<g id="Node000006" class="node">
<title>Node6</title>
<g id="a_Node000006"><a xlink:href="namespaceRtypeServer.html#a29d016de4637084d2ec30b53700af223" target="_top" xlink:title=" ">
<polygon fill="white" stroke="#666666" points="442.5,-70 341.75,-70 341.75,-50 442.5,-50 442.5,-70"/>
<text text-anchor="middle" x="392.12" y="-56.5" font-family="Helvetica,sans-Serif" font-size="10.00">RtypeServer::warnf</text>
</a>
</g>
</g>
<!-- Node5&#45;&gt;Node6 -->
<g id="edge7_Node000005_Node000006" class="edge">
<title>Node5&#45;&gt;Node6</title>
<g id="a_edge7_Node000005_Node000006"><a xlink:title=" ">
<path fill="none" stroke="#63b8ff" d="M291.23,-73.68C304.01,-71.93 317.49,-70.09 330.28,-68.33"/>
<polygon fill="#63b8ff" stroke="#63b8ff" points="330.36,-71.85 339.8,-67.03 329.41,-64.92 330.36,-71.85"/>
</a>
</g>
</g>
<!-- Node7 -->
<g id="Node000007" class="node">
<title>Node7</title>
<g id="a_Node000007"><a xlink:href="classRtypeServer_1_1Protocol.html#ad918184440d6fcb33f231a7173a67399" target="_top" xlink:title=" ">
<polygon fill="white" stroke="#666666" points="448.5,-120 335.75,-120 335.75,-88 448.5,-88 448.5,-120"/>
<text text-anchor="start" x="343.75" y="-106.5" font-family="Helvetica,sans-Serif" font-size="10.00">RtypeServer::Protocol</text>
<text text-anchor="middle" x="392.12" y="-94.5" font-family="Helvetica,sans-Serif" font-size="10.00">::writeHeader</text>
</a>
</g>
</g>
<!-- Node5&#45;&gt;Node7 -->
<g id="edge8_Node000005_Node000007" class="edge">
<title>Node5&#45;&gt;Node7</title>
<g id="a_edge8_Node000005_Node000007"><a xlink:title=" ">
<path fill="none" stroke="#63b8ff" d="M291.23,-90.32C301.97,-91.79 313.22,-93.33 324.13,-94.82"/>
<polygon fill="#63b8ff" stroke="#63b8ff" points="323.46,-98.26 333.84,-96.15 324.41,-91.33 323.46,-98.26"/>
</a>
</g>
</g>
<!-- Node8 -->
<g id="Node000008" class="node">
<title>Node8</title>
<g id="a_Node000008"><a xlink:href="classRtypeServer_1_1Protocol.html#a5b46d0759af7c3a4f3925420298c171a" target="_top" xlink:title=" ">
<polygon fill="white" stroke="#666666" points="448.5,-32 335.75,-32 335.75,0 448.5,0 448.5,-32"/>
<text text-anchor="start" x="343.75" y="-18.5" font-family="Helvetica,sans-Serif" font-size="10.00">RtypeServer::Protocol</text>
<text text-anchor="middle" x="392.12" y="-6.5" font-family="Helvetica,sans-Serif" font-size="10.00">::writeRoomErrorBody</text>
</a>
</g>
</g>
<!-- Node5&#45;&gt;Node8 -->
<g id="edge9_Node000005_Node000008" class="edge">
<title>Node5&#45;&gt;Node8</title>
<g id="a_edge9_Node000005_Node000008"><a xlink:title=" ">
<path fill="none" stroke="#63b8ff" d="M277.62,-65.53C285.06,-62.77 292.64,-59.87 299.75,-57 302.21,-56.01 323.09,-46.64 344.26,-37.12"/>
<polygon fill="#63b8ff" stroke="#63b8ff" points="345.54,-40.38 353.23,-33.08 342.67,-34 345.54,-40.38"/>
</a>
</g>
</g>
<!-- Node9&#45;&gt;Node3 -->
<g id="edge11_Node000009_Node000003" class="edge">
<title>Node9&#45;&gt;Node3</title>
<g id="a_edge11_Node000009_Node000003"><a xlink:title=" ">
<path fill="none" stroke="#63b8ff" d="M269.06,-148.44C279.08,-152.79 289.84,-157.52 299.75,-162 315.87,-169.3 319.36,-172.34 335.75,-179 339.65,-180.59 343.74,-182.15 347.86,-183.67"/>
<polygon fill="#63b8ff" stroke="#63b8ff" points="346.67,-186.97 357.27,-187.03 349.03,-180.37 346.67,-186.97"/>
</a>
</g>
</g>
<!-- Node9&#45;&gt;Node6 -->
<g id="edge12_Node000009_Node000006" class="edge">
<title>Node9&#45;&gt;Node6</title>
<g id="a_edge12_Node000009_Node000006"><a xlink:title=" ">
<path fill="none" stroke="#63b8ff" d="M281.62,-115.63C287.86,-113.03 294.04,-110.15 299.75,-107 317.5,-97.22 317.92,-88.64 335.75,-79 338.56,-77.48 341.51,-76.05 344.53,-74.71"/>
<polygon fill="#63b8ff" stroke="#63b8ff" points="345.59,-78.05 353.54,-71.05 342.95,-71.57 345.59,-78.05"/>
</a>
</g>
</g>
<!-- Node9&#45;&gt;Node7 -->
<g id="edge13_Node000009_Node000007" class="edge">
<title>Node9&#45;&gt;Node7</title>
<g id="a_edge13_Node000009_Node000007"><a xlink:title=" ">
<path fill="none" stroke="#63b8ff" d="M291.23,-121.41C301.97,-119.54 313.22,-117.58 324.13,-115.68"/>
<polygon fill="#63b8ff" stroke="#63b8ff" points="324.6,-119.15 333.85,-113.98 323.4,-112.25 324.6,-119.15"/>
</a>
</g>
</g>
<!-- Node10 -->
<g id="Node000010" class="node">
<title>Node10</title>
<g id="a_Node000010"><a xlink:href="classRtypeServer_1_1Protocol.html#a345d8097cd269e7af36c93ff428f8c8c" target="_top" xlink:title=" ">
<polygon fill="white" stroke="#666666" points="448.5,-170 335.75,-170 335.75,-138 448.5,-138 448.5,-170"/>
<text text-anchor="start" x="343.75" y="-156.5" font-family="Helvetica,sans-Serif" font-size="10.00">RtypeServer::Protocol</text>
<text text-anchor="middle" x="392.12" y="-144.5" font-family="Helvetica,sans-Serif" font-size="10.00">::writeRoomLeftBody</text>
</a>
</g>
</g>
<!-- Node9&#45;&gt;Node10 -->
<g id="edge14_Node000009_Node000010" class="edge">
<title>Node9&#45;&gt;Node10</title>
<g id="a_edge14_Node000009_Node000010"><a xlink:title=" ">
<path fill="none" stroke="#63b8ff" d="M291.23,-140.32C301.97,-141.79 313.22,-143.33 324.13,-144.82"/>
<polygon fill="#63b8ff" stroke="#63b8ff" points="323.46,-148.26 333.84,-146.15 324.41,-141.33 323.46,-148.26"/>
</a>
</g>
</g>
</g>
</svg>
