<?xml version="1.0" encoding="UTF-8" standalone="no"?>
<!DOCTYPE svg PUBLIC "-//W3C//DTD SVG 1.1//EN"
 "http://www.w3.org/Graphics/SVG/1.1/DTD/svg11.dtd">
<!-- Generated by graphviz version 12.1.0 (20240811.2233)
 -->
<!-- Title: RtypeServer::UdpServer::send_room_created Pages: 1 -->
<svg width="294pt" height="166pt"
 viewBox="0.00 0.00 293.50 166.00" xmlns="http://www.w3.org/2000/svg" xmlns:xlink="http://www.w3.org/1999/xlink">
<g id="graph0" class="graph" transform="scale(1 1) rotate(0) translate(4 162)">
<title>RtypeServer::UdpServer::send_room_created</title>
<!-- Node1 -->
<g id="Node000001" class="node">
<title>Node1</title>
<g id="a_Node000001"><a xlink:title=" ">
<polygon fill="#999999" stroke="#666666" points="123.25,-104 0,-104 0,-72 123.25,-72 123.25,-104"/>
<text text-anchor="start" x="8" y="-90.5" font-family="Helvetica,sans-Serif" font-size="10.00">RtypeServer::UdpServer</text>
<text text-anchor="middle" x="61.62" y="-78.5" font-family="Helvetica,sans-Serif" font-size="10.00">::send_room_created</text>
</a>
</g>
</g>
<!-- Node2 -->
<g id="Node000002" class="node">
<title>Node2</title>
<g id="a_Node000002"><a xlink:href="namespaceRtypeServer.html#a0945154a39091e84a43cedc8136b0abe" target="_top" xlink:title=" ">
<polygon fill="white" stroke="#666666" points="270.12,-158 174.62,-158 174.62,-138 270.12,-138 270.12,-158"/>
<text text-anchor="middle" x="222.38" y="-144.5" font-family="Helvetica,sans-Serif" font-size="10.00">RtypeServer::infof</text>
</a>
</g>
</g>
<!-- Node1&#45;&gt;Node2 -->
<g id="edge1_Node000001_Node000002" class="edge">
<title>Node1&#45;&gt;Node2</title>
<g id="a_edge1_Node000001_Node000002"><a xlink:title=" ">
<path fill="none" stroke="#63b8ff" d="M98.97,-104.49C116.94,-112.36 139.04,-121.65 159.25,-129 164.03,-130.74 169.05,-132.46 174.09,-134.1"/>
<polygon fill="#63b8ff" stroke="#63b8ff" points="172.99,-137.43 183.59,-137.12 175.12,-130.76 172.99,-137.43"/>
</a>
</g>
</g>
<!-- Node3 -->
<g id="Node000003" class="node">
<title>Node3</title>
<g id="a_Node000003"><a xlink:href="namespaceRtypeServer.html#a29d016de4637084d2ec30b53700af223" target="_top" xlink:title=" ">
<polygon fill="white" stroke="#666666" points="272.75,-120 172,-120 172,-100 272.75,-100 272.75,-120"/>
<text text-anchor="middle" x="222.38" y="-106.5" font-family="Helvetica,sans-Serif" font-size="10.00">RtypeServer::warnf</text>
</a>
</g>
</g>
<!-- Node1&#45;&gt;Node3 -->
<g id="edge2_Node000001_Node000003" class="edge">
<title>Node1&#45;&gt;Node3</title>
<g id="a_edge2_Node000001_Node000003"><a xlink:title=" ">
<path fill="none" stroke="#63b8ff" d="M123.55,-96.44C135.61,-98.11 148.27,-99.87 160.33,-101.54"/>
<polygon fill="#63b8ff" stroke="#63b8ff" points="159.79,-105 170.18,-102.9 160.75,-98.07 159.79,-105"/>
</a>
</g>
</g>
<!-- Node4 -->
<g id="Node000004" class="node">
<title>Node4</title>
<g id="a_Node000004"><a xlink:href="classRtypeServer_1_1Protocol.html#ad918184440d6fcb33f231a7173a67399" target="_top" xlink:title=" ">
<polygon fill="white" stroke="#666666" points="278.75,-82 166,-82 166,-50 278.75,-50 278.75,-82"/>
<text text-anchor="start" x="174" y="-68.5" font-family="Helvetica,sans-Serif" font-size="10.00">RtypeServer::Protocol</text>
<text text-anchor="middle" x="222.38" y="-56.5" font-family="Helvetica,sans-Serif" font-size="10.00">::writeHeader</text>
</a>
</g>
</g>
<!-- Node1&#45;&gt;Node4 -->
<g id="edge3_Node000001_Node000004" class="edge">
<title>Node1&#45;&gt;Node4</title>
<g id="a_edge3_Node000001_Node000004"><a xlink:title=" ">
<path fill="none" stroke="#63b8ff" d="M123.55,-79.56C133.59,-78.17 144.04,-76.72 154.22,-75.31"/>
<polygon fill="#63b8ff" stroke="#63b8ff" points="154.64,-78.78 164.06,-73.94 153.67,-71.85 154.64,-78.78"/>
</a>
</g>
</g>
<!-- Node5 -->
<g id="Node000005" class="node">
<title>Node5</title>
<g id="a_Node000005"><a xlink:href="classRtypeServer_1_1Protocol.html#a972db5856809fcdf0b8d00c96eeeae32" target="_top" xlink:title=" ">
<polygon fill="white" stroke="#666666" points="285.5,-32 159.25,-32 159.25,0 285.5,0 285.5,-32"/>
<text text-anchor="start" x="167.25" y="-18.5" font-family="Helvetica,sans-Serif" font-size="10.00">RtypeServer::Protocol</text>
<text text-anchor="middle" x="222.38" y="-6.5" font-family="Helvetica,sans-Serif" font-size="10.00">::writeRoomCreatedBody</text>
</a>
</g>
</g>
<!-- Node1&#45;&gt;Node5 -->
<g id="edge4_Node000001_Node000005" class="edge">
<title>Node1&#45;&gt;Node5</title>
<g id="a_edge4_Node000001_Node000005"><a xlink:title=" ">
<path fill="none" stroke="#63b8ff" d="M95.01,-71.54C113.65,-62.25 137.6,-50.61 159.25,-41 162.39,-39.61 165.63,-38.2 168.91,-36.81"/>
<polygon fill="#63b8ff" stroke="#63b8ff" points="170.16,-40.08 178.04,-32.99 167.46,-33.62 170.16,-40.08"/>
</a>
</g>
</g>
</g>
</svg>
