<?xml version="1.0" encoding="UTF-8" standalone="no"?>
<!DOCTYPE svg PUBLIC "-//W3C//DTD SVG 1.1//EN"
 "http://www.w3.org/Graphics/SVG/1.1/DTD/svg11.dtd">
<!-- Generated by graphviz version 12.1.0 (20240811.2233)
 -->
<!-- Title: Parameters::centerText Pages: 1 -->
<svg width="504pt" height="104pt"
 viewBox="0.00 0.00 503.75 104.00" xmlns="http://www.w3.org/2000/svg" xmlns:xlink="http://www.w3.org/1999/xlink">
<g id="graph0" class="graph" transform="scale(1 1) rotate(0) translate(4 100)">
<title>Parameters::centerText</title>
<!-- Node1 -->
<g id="Node000001" class="node">
<title>Node1</title>
<g id="a_Node000001"><a xlink:title=" ">
<polygon fill="#999999" stroke="#666666" points="495.75,-58 377.75,-58 377.75,-38 495.75,-38 495.75,-58"/>
<text text-anchor="middle" x="436.75" y="-44.5" font-family="Helvetica,sans-Serif" font-size="10.00">Parameters::centerText</text>
</a>
</g>
</g>
<!-- Node2 -->
<g id="Node000002" class="node">
<title>Node2</title>
<g id="a_Node000002"><a xlink:href="classParameters.html#ac68047f87a6de361336845e593e217a7" target="_top" xlink:title=" ">
<polygon fill="white" stroke="#666666" points="326.75,-96 200.5,-96 200.5,-76 326.75,-76 326.75,-96"/>
<text text-anchor="middle" x="263.62" y="-82.5" font-family="Helvetica,sans-Serif" font-size="10.00">Parameters::handleEvent</text>
</a>
</g>
</g>
<!-- Node1&#45;&gt;Node2 -->
<g id="edge1_Node000001_Node000002" class="edge">
<title>Node1&#45;&gt;Node2</title>
<g id="a_edge1_Node000001_Node000002"><a xlink:title=" ">
<path fill="none" stroke="#63b8ff" d="M377.57,-60.92C356.1,-65.69 332.05,-71.03 311.68,-75.55"/>
<polygon fill="#63b8ff" stroke="#63b8ff" points="378.06,-64.4 387.06,-58.81 376.54,-57.56 378.06,-64.4"/>
</a>
</g>
</g>
<!-- Node3 -->
<g id="Node000003" class="node">
<title>Node3</title>
<g id="a_Node000003"><a xlink:href="classParameters.html#a8e74ddb8f408ad9e725e3784f8a873e7" target="_top" xlink:title=" ">
<polygon fill="white" stroke="#666666" points="332.38,-58 194.88,-58 194.88,-38 332.38,-38 332.38,-58"/>
<text text-anchor="middle" x="263.62" y="-44.5" font-family="Helvetica,sans-Serif" font-size="10.00">Parameters::loadResources</text>
</a>
</g>
</g>
<!-- Node1&#45;&gt;Node3 -->
<g id="edge2_Node000001_Node000003" class="edge">
<title>Node1&#45;&gt;Node3</title>
<g id="a_edge2_Node000001_Node000003"><a xlink:title=" ">
<path fill="none" stroke="#63b8ff" d="M366.06,-48C355.08,-48 343.74,-48 332.8,-48"/>
<polygon fill="#63b8ff" stroke="#63b8ff" points="365.82,-51.5 375.82,-48 365.82,-44.5 365.82,-51.5"/>
</a>
</g>
</g>
<!-- Node5 -->
<g id="Node000005" class="node">
<title>Node5</title>
<g id="a_Node000005"><a xlink:href="classParameters.html#aac22cfbba7232b289298637e456bd9b6" target="_top" xlink:title=" ">
<polygon fill="white" stroke="#666666" points="341.75,-20 185.5,-20 185.5,0 341.75,0 341.75,-20"/>
<text text-anchor="middle" x="263.62" y="-6.5" font-family="Helvetica,sans-Serif" font-size="10.00">Parameters::updateWindowSize</text>
</a>
</g>
</g>
<!-- Node1&#45;&gt;Node5 -->
<g id="edge4_Node000001_Node000005" class="edge">
<title>Node1&#45;&gt;Node5</title>
<g id="a_edge4_Node000001_Node000005"><a xlink:title=" ">
<path fill="none" stroke="#63b8ff" d="M377.57,-35.08C356.1,-30.31 332.05,-24.97 311.68,-20.45"/>
<polygon fill="#63b8ff" stroke="#63b8ff" points="376.54,-38.44 387.06,-37.19 378.06,-31.6 376.54,-38.44"/>
</a>
</g>
</g>
<!-- Node4 -->
<g id="Node000004" class="node">
<title>Node4</title>
<g id="a_Node000004"><a xlink:href="classGameManager.html#ae60f9a9c5dc48f158537ed98d2b6dbfe" target="_top" xlink:title=" ">
<polygon fill="white" stroke="#666666" points="149.5,-58 0,-58 0,-38 149.5,-38 149.5,-58"/>
<text text-anchor="middle" x="74.75" y="-44.5" font-family="Helvetica,sans-Serif" font-size="10.00">GameManager::GameManager</text>
</a>
</g>
</g>
<!-- Node3&#45;&gt;Node4 -->
<g id="edge3_Node000003_Node000004" class="edge">
<title>Node3&#45;&gt;Node4</title>
<g id="a_edge3_Node000003_Node000004"><a xlink:title=" ">
<path fill="none" stroke="#63b8ff" d="M183.18,-48C172.07,-48 160.69,-48 149.69,-48"/>
<polygon fill="#63b8ff" stroke="#63b8ff" points="183.12,-51.5 193.12,-48 183.12,-44.5 183.12,-51.5"/>
</a>
</g>
</g>
</g>
</svg>
