<?xml version="1.0" encoding="UTF-8" standalone="no"?>
<!DOCTYPE svg PUBLIC "-//W3C//DTD SVG 1.1//EN"
 "http://www.w3.org/Graphics/SVG/1.1/DTD/svg11.dtd">
<!-- Generated by graphviz version 12.1.0 (20240811.2233)
 -->
<!-- Title: RtypeServer::RoomManager Pages: 1 -->
<svg width="142pt" height="284pt"
 viewBox="0.00 0.00 142.00 284.00" xmlns="http://www.w3.org/2000/svg" xmlns:xlink="http://www.w3.org/1999/xlink">
<g id="graph0" class="graph" transform="scale(1 1) rotate(0) translate(4 280)">
<title>RtypeServer::RoomManager</title>
<!-- Node1 -->
<g id="Node000001" class="node">
<title>Node1</title>
<g id="a_Node000001"><a xlink:title=" ">
<polygon fill="#999999" stroke="none" points="134,-276 0,-276 0,0 134,0 134,-276"/>
<text text-anchor="start" x="4.75" y="-262.5" font-family="Helvetica,sans-Serif" font-size="10.00">RtypeServer::RoomManager</text>
<text text-anchor="start" x="15" y="-246.5" font-family="Helvetica,sans-Serif" font-size="10.00">&#45;</text>
<text text-anchor="start" x="33" y="-246.5" font-family="Helvetica,sans-Serif" font-size="10.00">m_mutex</text>
<text text-anchor="start" x="15" y="-230.5" font-family="Helvetica,sans-Serif" font-size="10.00">&#45;</text>
<text text-anchor="start" x="33" y="-230.5" font-family="Helvetica,sans-Serif" font-size="10.00">m_roomsByName</text>
<text text-anchor="start" x="15" y="-214.5" font-family="Helvetica,sans-Serif" font-size="10.00">&#45;</text>
<text text-anchor="start" x="33" y="-214.5" font-family="Helvetica,sans-Serif" font-size="10.00">m_roomsById</text>
<text text-anchor="start" x="15" y="-198.5" font-family="Helvetica,sans-Serif" font-size="10.00">&#45;</text>
<text text-anchor="start" x="33" y="-198.5" font-family="Helvetica,sans-Serif" font-size="10.00">m_nextRoomId</text>
<text text-anchor="start" x="15" y="-182.5" font-family="Helvetica,sans-Serif" font-size="10.00">&#45;</text>
<text text-anchor="start" x="33" y="-182.5" font-family="Helvetica,sans-Serif" font-size="10.00">m_socket</text>
<text text-anchor="start" x="13.5" y="-166.5" font-family="Helvetica,sans-Serif" font-size="10.00">+</text>
<text text-anchor="start" x="33" y="-166.5" font-family="Helvetica,sans-Serif" font-size="10.00">RoomManager()</text>
<text text-anchor="start" x="13.5" y="-150.5" font-family="Helvetica,sans-Serif" font-size="10.00">+</text>
<text text-anchor="start" x="33" y="-150.5" font-family="Helvetica,sans-Serif" font-size="10.00">~RoomManager()</text>
<text text-anchor="start" x="13.5" y="-134.5" font-family="Helvetica,sans-Serif" font-size="10.00">+</text>
<text text-anchor="start" x="33" y="-134.5" font-family="Helvetica,sans-Serif" font-size="10.00">createRoom()</text>
<text text-anchor="start" x="13.5" y="-118.5" font-family="Helvetica,sans-Serif" font-size="10.00">+</text>
<text text-anchor="start" x="33" y="-118.5" font-family="Helvetica,sans-Serif" font-size="10.00">getRoom()</text>
<text text-anchor="start" x="13.5" y="-102.5" font-family="Helvetica,sans-Serif" font-size="10.00">+</text>
<text text-anchor="start" x="33" y="-102.5" font-family="Helvetica,sans-Serif" font-size="10.00">getRoom()</text>
<text text-anchor="start" x="13.5" y="-86.5" font-family="Helvetica,sans-Serif" font-size="10.00">+</text>
<text text-anchor="start" x="33" y="-86.5" font-family="Helvetica,sans-Serif" font-size="10.00">removeRoom()</text>
<text text-anchor="start" x="13.5" y="-70.5" font-family="Helvetica,sans-Serif" font-size="10.00">+</text>
<text text-anchor="start" x="33" y="-70.5" font-family="Helvetica,sans-Serif" font-size="10.00">removeRoom()</text>
<text text-anchor="start" x="13.5" y="-54.5" font-family="Helvetica,sans-Serif" font-size="10.00">+</text>
<text text-anchor="start" x="33" y="-54.5" font-family="Helvetica,sans-Serif" font-size="10.00">listRooms()</text>
<text text-anchor="start" x="13.5" y="-38.5" font-family="Helvetica,sans-Serif" font-size="10.00">+</text>
<text text-anchor="start" x="33" y="-38.5" font-family="Helvetica,sans-Serif" font-size="10.00">getRoomCount()</text>
<text text-anchor="start" x="13.5" y="-22.5" font-family="Helvetica,sans-Serif" font-size="10.00">+</text>
<text text-anchor="start" x="33" y="-22.5" font-family="Helvetica,sans-Serif" font-size="10.00">cleanup()</text>
<text text-anchor="start" x="33" y="-6.5" font-family="Helvetica,sans-Serif" font-size="10.00">and 6 more...</text>
<polygon fill="#666666" stroke="#666666" points="0,-258 0,-258 134,-258 134,-258 0,-258"/>
<polygon fill="#666666" stroke="#666666" points="0,-178 0,-178 31,-178 31,-178 0,-178"/>
<polygon fill="#666666" stroke="#666666" points="31,-178 31,-178 134,-178 134,-178 31,-178"/>
<polygon fill="none" stroke="#666666" points="0,0 0,-276 134,-276 134,0 0,0"/>
</a>
</g>
</g>
</g>
</svg>
