<?xml version="1.0" encoding="UTF-8" standalone="no"?>
<!DOCTYPE svg PUBLIC "-//W3C//DTD SVG 1.1//EN"
 "http://www.w3.org/Graphics/SVG/1.1/DTD/svg11.dtd">
<!-- Generated by graphviz version 12.1.0 (20240811.2233)
 -->
<!-- Title: Engine::Systems::PhysicsNoEngineSystem Pages: 1 -->
<svg width="134pt" height="160pt"
 viewBox="0.00 0.00 134.00 160.00" xmlns="http://www.w3.org/2000/svg" xmlns:xlink="http://www.w3.org/1999/xlink">
<g id="graph0" class="graph" transform="scale(1 1) rotate(0) translate(4 156)">
<title>Engine::Systems::PhysicsNoEngineSystem</title>
<!-- Node1 -->
<g id="Node000001" class="node">
<title>Node1</title>
<g id="a_Node000001"><a xlink:title=" ">
<polygon fill="#999999" stroke="none" points="126,-64 0,-64 0,0 126,0 126,-64"/>
<text text-anchor="start" x="4.88" y="-50.5" font-family="Helvetica,sans-Serif" font-size="10.00">Engine::Systems::Physics</text>
<text text-anchor="start" x="24.75" y="-38.5" font-family="Helvetica,sans-Serif" font-size="10.00">NoEngineSystem</text>
<text text-anchor="start" x="61.5" y="-22.5" font-family="Helvetica,sans-Serif" font-size="10.00"> </text>
<text text-anchor="start" x="22" y="-6.5" font-family="Helvetica,sans-Serif" font-size="10.00">+</text>
<text text-anchor="start" x="50" y="-6.5" font-family="Helvetica,sans-Serif" font-size="10.00">update()</text>
<polygon fill="#666666" stroke="#666666" points="0,-34 0,-34 126,-34 126,-34 0,-34"/>
<polygon fill="#666666" stroke="#666666" points="0,-18 0,-18 126,-18 126,-18 0,-18"/>
<polygon fill="none" stroke="#666666" points="0,0 0,-64 126,-64 126,0 0,0"/>
</a>
</g>
</g>
<!-- Node2 -->
<g id="Node000002" class="node">
<title>Node2</title>
<g id="a_Node000002"><a xlink:href="classEngine_1_1System.html" target="_top" xlink:title=" ">
<polygon fill="white" stroke="none" points="102.5,-152 23.5,-152 23.5,-100 102.5,-100 102.5,-152"/>
<text text-anchor="start" x="28.12" y="-138.5" font-family="Helvetica,sans-Serif" font-size="10.00">Engine::System</text>
<text text-anchor="start" x="35" y="-122.5" font-family="Helvetica,sans-Serif" font-size="10.00">+</text>
<text text-anchor="start" x="52.5" y="-122.5" font-family="Helvetica,sans-Serif" font-size="10.00">entities</text>
<text text-anchor="start" x="61.5" y="-106.5" font-family="Helvetica,sans-Serif" font-size="10.00"> </text>
<polygon fill="#666666" stroke="#666666" points="23.5,-134 23.5,-134 102.5,-134 102.5,-134 23.5,-134"/>
<polygon fill="#666666" stroke="#666666" points="23.5,-118 23.5,-118 50.5,-118 50.5,-118 23.5,-118"/>
<polygon fill="#666666" stroke="#666666" points="50.5,-118 50.5,-118 102.5,-118 102.5,-118 50.5,-118"/>
<polygon fill="none" stroke="#666666" points="23.5,-100 23.5,-152 102.5,-152 102.5,-100 23.5,-100"/>
</a>
</g>
</g>
<!-- Node2&#45;&gt;Node1 -->
<g id="edge1_Node000001_Node000002" class="edge">
<title>Node2&#45;&gt;Node1</title>
<g id="a_edge1_Node000001_Node000002"><a xlink:title=" ">
<path fill="none" stroke="#63b8ff" d="M63,-89.06C63,-80.78 63,-72.04 63,-63.98"/>
<polygon fill="none" stroke="#63b8ff" points="59.5,-88.83 63,-98.83 66.5,-88.83 59.5,-88.83"/>
</a>
</g>
</g>
</g>
</svg>
