<?xml version="1.0" encoding="UTF-8" standalone="no"?>
<!DOCTYPE svg PUBLIC "-//W3C//DTD SVG 1.1//EN"
 "http://www.w3.org/Graphics/SVG/1.1/DTD/svg11.dtd">
<!-- Generated by graphviz version 12.1.0 (20240811.2233)
 -->
<!-- Title: RtypeServer::UdpServer::handle_create_room Pages: 1 -->
<svg width="629pt" height="399pt"
 viewBox="0.00 0.00 629.25 399.25" xmlns="http://www.w3.org/2000/svg" xmlns:xlink="http://www.w3.org/1999/xlink">
<g id="graph0" class="graph" transform="scale(1 1) rotate(0) translate(4 395.25)">
<title>RtypeServer::UdpServer::handle_create_room</title>
<!-- Node1 -->
<g id="Node000001" class="node">
<title>Node1</title>
<g id="a_Node000001"><a xlink:title=" ">
<polygon fill="#999999" stroke="#666666" points="123.25,-255 0,-255 0,-223 123.25,-223 123.25,-255"/>
<text text-anchor="start" x="8" y="-241.5" font-family="Helvetica,sans-Serif" font-size="10.00">RtypeServer::UdpServer</text>
<text text-anchor="middle" x="61.62" y="-229.5" font-family="Helvetica,sans-Serif" font-size="10.00">::handle_create_room</text>
</a>
</g>
</g>
<!-- Node2 -->
<g id="Node000002" class="node">
<title>Node2</title>
<g id="a_Node000002"><a xlink:href="classRtypeServer_1_1RoomManager.html#ad598fe8c2755ee1d450b9e7b045eb034" target="_top" xlink:title=" ">
<polygon fill="white" stroke="#666666" points="459,-370 318.5,-370 318.5,-338 459,-338 459,-370"/>
<text text-anchor="start" x="326.5" y="-356.5" font-family="Helvetica,sans-Serif" font-size="10.00">RtypeServer::RoomManager</text>
<text text-anchor="middle" x="388.75" y="-344.5" font-family="Helvetica,sans-Serif" font-size="10.00">::createRoom</text>
</a>
</g>
</g>
<!-- Node1&#45;&gt;Node2 -->
<g id="edge1_Node000001_Node000002" class="edge">
<title>Node1&#45;&gt;Node2</title>
<g id="a_edge1_Node000001_Node000002"><a xlink:title=" ">
<path fill="none" stroke="#63b8ff" d="M109.21,-255.48C167.63,-276.14 267.77,-311.56 330.72,-333.83"/>
<polygon fill="#63b8ff" stroke="#63b8ff" points="329.23,-337.01 339.83,-337.05 331.57,-330.41 329.23,-337.01"/>
</a>
</g>
</g>
<!-- Node3 -->
<g id="Node000003" class="node">
<title>Node3</title>
<g id="a_Node000003"><a xlink:href="namespaceRtypeServer.html#a0945154a39091e84a43cedc8136b0abe" target="_top" xlink:title=" ">
<polygon fill="white" stroke="#666666" points="605.88,-320 510.38,-320 510.38,-300 605.88,-300 605.88,-320"/>
<text text-anchor="middle" x="558.12" y="-306.5" font-family="Helvetica,sans-Serif" font-size="10.00">RtypeServer::infof</text>
</a>
</g>
</g>
<!-- Node1&#45;&gt;Node3 -->
<g id="edge19_Node000001_Node000003" class="edge">
<title>Node1&#45;&gt;Node3</title>
<g id="a_edge19_Node000001_Node000003"><a xlink:title=" ">
<path fill="none" stroke="#63b8ff" d="M82.51,-255.35C123.48,-287.73 221.62,-358.65 318.5,-379 379.61,-391.84 399.46,-397.84 459,-379 490.42,-369.06 520.5,-345.04 538.88,-328.15"/>
<polygon fill="#63b8ff" stroke="#63b8ff" points="541.21,-330.76 546.05,-321.34 536.39,-325.69 541.21,-330.76"/>
</a>
</g>
</g>
<!-- Node5 -->
<g id="Node000005" class="node">
<title>Node5</title>
<g id="a_Node000005"><a xlink:href="classRtypeServer_1_1UdpServer.html#ad6474bca80e8ede6d6bbf8ff3524c05e" target="_top" xlink:title=" ">
<polygon fill="white" stroke="#666666" points="282.5,-232 159.25,-232 159.25,-200 282.5,-200 282.5,-232"/>
<text text-anchor="start" x="167.25" y="-218.5" font-family="Helvetica,sans-Serif" font-size="10.00">RtypeServer::UdpServer</text>
<text text-anchor="middle" x="220.88" y="-206.5" font-family="Helvetica,sans-Serif" font-size="10.00">::handle_join_room</text>
</a>
</g>
</g>
<!-- Node1&#45;&gt;Node5 -->
<g id="edge4_Node000001_Node000005" class="edge">
<title>Node1&#45;&gt;Node5</title>
<g id="a_edge4_Node000001_Node000005"><a xlink:title=" ">
<path fill="none" stroke="#63b8ff" d="M123.42,-230.11C131.35,-228.95 139.54,-227.75 147.63,-226.57"/>
<polygon fill="#63b8ff" stroke="#63b8ff" points="148.09,-230.04 157.48,-225.13 147.08,-223.11 148.09,-230.04"/>
</a>
</g>
</g>
<!-- Node8 -->
<g id="Node000008" class="node">
<title>Node8</title>
<g id="a_Node000008"><a xlink:href="classRtypeServer_1_1RoomManager.html#a1bb23690b4594531c502c5b9be329598" target="_top" xlink:title=" ">
<polygon fill="white" stroke="#666666" points="459,-82 318.5,-82 318.5,-50 459,-50 459,-82"/>
<text text-anchor="start" x="326.5" y="-68.5" font-family="Helvetica,sans-Serif" font-size="10.00">RtypeServer::RoomManager</text>
<text text-anchor="middle" x="388.75" y="-56.5" font-family="Helvetica,sans-Serif" font-size="10.00">::roomExists</text>
</a>
</g>
</g>
<!-- Node1&#45;&gt;Node8 -->
<g id="edge20_Node000001_Node000008" class="edge">
<title>Node1&#45;&gt;Node8</title>
<g id="a_edge20_Node000001_Node000008"><a xlink:title=" ">
<path fill="none" stroke="#63b8ff" d="M87.6,-222.53C132.48,-193.41 230.33,-132.02 318.5,-91 321.64,-89.54 324.9,-88.1 328.21,-86.71"/>
<polygon fill="#63b8ff" stroke="#63b8ff" points="329.51,-89.96 337.47,-82.97 326.89,-83.47 329.51,-89.96"/>
</a>
</g>
</g>
<!-- Node9 -->
<g id="Node000009" class="node">
<title>Node9</title>
<g id="a_Node000009"><a xlink:href="classRtypeServer_1_1UdpServer.html#ab6e480e2b78f9cbc75fb5ba9bbdc71f5" target="_top" xlink:title=" ">
<polygon fill="white" stroke="#666666" points="450.38,-282 327.12,-282 327.12,-250 450.38,-250 450.38,-282"/>
<text text-anchor="start" x="335.12" y="-268.5" font-family="Helvetica,sans-Serif" font-size="10.00">RtypeServer::UdpServer</text>
<text text-anchor="middle" x="388.75" y="-256.5" font-family="Helvetica,sans-Serif" font-size="10.00">::send_room_error</text>
</a>
</g>
</g>
<!-- Node1&#45;&gt;Node9 -->
<g id="edge26_Node000001_Node000009" class="edge">
<title>Node1&#45;&gt;Node9</title>
<g id="a_edge26_Node000001_Node000009"><a xlink:title=" ">
<path fill="none" stroke="#63b8ff" d="M123.4,-244.05C177.85,-248.57 257.79,-255.21 315.49,-260"/>
<polygon fill="#63b8ff" stroke="#63b8ff" points="314.96,-263.47 325.22,-260.81 315.54,-256.49 314.96,-263.47"/>
</a>
</g>
</g>
<!-- Node14 -->
<g id="Node000014" class="node">
<title>Node14</title>
<g id="a_Node000014"><a xlink:href="classRtypeServer_1_1UdpServer.html#a1f4561ac6e917c681be96e80c6f72d31" target="_top" xlink:title=" ">
<polygon fill="white" stroke="#666666" points="450.38,-32 327.12,-32 327.12,0 450.38,0 450.38,-32"/>
<text text-anchor="start" x="335.12" y="-18.5" font-family="Helvetica,sans-Serif" font-size="10.00">RtypeServer::UdpServer</text>
<text text-anchor="middle" x="388.75" y="-6.5" font-family="Helvetica,sans-Serif" font-size="10.00">::send_room_created</text>
</a>
</g>
</g>
<!-- Node1&#45;&gt;Node14 -->
<g id="edge21_Node000001_Node000014" class="edge">
<title>Node1&#45;&gt;Node14</title>
<g id="a_edge21_Node000001_Node000014"><a xlink:title=" ">
<path fill="none" stroke="#63b8ff" d="M70.47,-222.69C84.58,-194.92 116.79,-138.23 159.25,-105 205.44,-68.85 268.09,-45.83 316.11,-32.28"/>
<polygon fill="#63b8ff" stroke="#63b8ff" points="316.87,-35.7 325.59,-29.69 315.02,-28.95 316.87,-35.7"/>
</a>
</g>
</g>
<!-- Node2&#45;&gt;Node3 -->
<g id="edge2_Node000002_Node000003" class="edge">
<title>Node2&#45;&gt;Node3</title>
<g id="a_edge2_Node000002_Node000003"><a xlink:title=" ">
<path fill="none" stroke="#63b8ff" d="M452.07,-337.62C470.07,-332.89 489.47,-327.78 506.65,-323.27"/>
<polygon fill="#63b8ff" stroke="#63b8ff" points="507.33,-326.71 516.11,-320.78 505.55,-319.94 507.33,-326.71"/>
</a>
</g>
</g>
<!-- Node4 -->
<g id="Node000004" class="node">
<title>Node4</title>
<g id="a_Node000004"><a xlink:href="namespaceRtypeServer.html#a29d016de4637084d2ec30b53700af223" target="_top" xlink:title=" ">
<polygon fill="white" stroke="#666666" points="608.5,-226 507.75,-226 507.75,-206 608.5,-206 608.5,-226"/>
<text text-anchor="middle" x="558.12" y="-212.5" font-family="Helvetica,sans-Serif" font-size="10.00">RtypeServer::warnf</text>
</a>
</g>
</g>
<!-- Node2&#45;&gt;Node4 -->
<g id="edge3_Node000002_Node000004" class="edge">
<title>Node2&#45;&gt;Node4</title>
<g id="a_edge3_Node000002_Node000004"><a xlink:title=" ">
<path fill="none" stroke="#63b8ff" d="M409.88,-337.64C424.29,-325.48 443.75,-308.1 459,-291 477.23,-270.56 473.45,-257.89 495,-241 499.86,-237.19 505.38,-233.89 511.08,-231.04"/>
<polygon fill="#63b8ff" stroke="#63b8ff" points="512.34,-234.31 520.03,-227.02 509.47,-227.92 512.34,-234.31"/>
</a>
</g>
</g>
<!-- Node5&#45;&gt;Node3 -->
<g id="edge6_Node000005_Node000003" class="edge">
<title>Node5&#45;&gt;Node3</title>
<g id="a_edge6_Node000005_Node000003"><a xlink:title=" ">
<path fill="none" stroke="#63b8ff" d="M236.8,-232.24C254.39,-250.17 285.43,-278.18 318.5,-291 376.8,-313.59 448.98,-316.19 498.6,-314.5"/>
<polygon fill="#63b8ff" stroke="#63b8ff" points="498.73,-318 508.57,-314.08 498.43,-311 498.73,-318"/>
</a>
</g>
</g>
<!-- Node6 -->
<g id="Node000006" class="node">
<title>Node6</title>
<g id="a_Node000006"><a xlink:href="classRtypeServer_1_1RoomManager.html#aabb4ebfaae6223fba609f7320749d280" target="_top" xlink:title=" ">
<polygon fill="white" stroke="#666666" points="459,-182 318.5,-182 318.5,-150 459,-150 459,-182"/>
<text text-anchor="start" x="326.5" y="-168.5" font-family="Helvetica,sans-Serif" font-size="10.00">RtypeServer::RoomManager</text>
<text text-anchor="middle" x="388.75" y="-156.5" font-family="Helvetica,sans-Serif" font-size="10.00">::getRoom</text>
</a>
</g>
</g>
<!-- Node5&#45;&gt;Node6 -->
<g id="edge5_Node000005_Node000006" class="edge">
<title>Node5&#45;&gt;Node6</title>
<g id="a_edge5_Node000005_Node000006"><a xlink:title=" ">
<path fill="none" stroke="#63b8ff" d="M276.19,-199.63C290.86,-195.2 306.9,-190.37 322.12,-185.78"/>
<polygon fill="#63b8ff" stroke="#63b8ff" points="323.02,-189.17 331.58,-182.93 321,-182.47 323.02,-189.17"/>
</a>
</g>
</g>
<!-- Node7 -->
<g id="Node000007" class="node">
<title>Node7</title>
<g id="a_Node000007"><a xlink:href="classRtypeServer_1_1RoomManager.html#a61622cbcc554dfdc5c26a4a24ccdb0ff" target="_top" xlink:title=" ">
<polygon fill="white" stroke="#666666" points="459,-232 318.5,-232 318.5,-200 459,-200 459,-232"/>
<text text-anchor="start" x="326.5" y="-218.5" font-family="Helvetica,sans-Serif" font-size="10.00">RtypeServer::RoomManager</text>
<text text-anchor="middle" x="388.75" y="-206.5" font-family="Helvetica,sans-Serif" font-size="10.00">::joinRoom</text>
</a>
</g>
</g>
<!-- Node5&#45;&gt;Node7 -->
<g id="edge7_Node000005_Node000007" class="edge">
<title>Node5&#45;&gt;Node7</title>
<g id="a_edge7_Node000005_Node000007"><a xlink:title=" ">
<path fill="none" stroke="#63b8ff" d="M282.7,-216C290.55,-216 298.7,-216 306.81,-216"/>
<polygon fill="#63b8ff" stroke="#63b8ff" points="306.72,-219.5 316.72,-216 306.72,-212.5 306.72,-219.5"/>
</a>
</g>
</g>
<!-- Node5&#45;&gt;Node8 -->
<g id="edge8_Node000005_Node000008" class="edge">
<title>Node5&#45;&gt;Node8</title>
<g id="a_edge8_Node000005_Node000008"><a xlink:title=" ">
<path fill="none" stroke="#63b8ff" d="M233.52,-199.92C256.77,-167.98 307.64,-98.91 318.5,-91 320.03,-89.89 321.61,-88.82 323.23,-87.8"/>
<polygon fill="#63b8ff" stroke="#63b8ff" points="324.57,-91.06 331.61,-83.14 321.17,-84.94 324.57,-91.06"/>
</a>
</g>
</g>
<!-- Node5&#45;&gt;Node9 -->
<g id="edge9_Node000005_Node000009" class="edge">
<title>Node5&#45;&gt;Node9</title>
<g id="a_edge9_Node000005_Node000009"><a xlink:title=" ">
<path fill="none" stroke="#63b8ff" d="M276.19,-232.37C290.86,-236.8 306.9,-241.63 322.12,-246.22"/>
<polygon fill="#63b8ff" stroke="#63b8ff" points="321,-249.53 331.58,-249.07 323.02,-242.83 321,-249.53"/>
</a>
</g>
</g>
<!-- Node12 -->
<g id="Node000012" class="node">
<title>Node12</title>
<g id="a_Node000012"><a xlink:href="classRtypeServer_1_1UdpServer.html#ae3593b22a1ed07c63ebf786f7667007c" target="_top" xlink:title=" ">
<polygon fill="white" stroke="#666666" points="450.38,-132 327.12,-132 327.12,-100 450.38,-100 450.38,-132"/>
<text text-anchor="start" x="335.12" y="-118.5" font-family="Helvetica,sans-Serif" font-size="10.00">RtypeServer::UdpServer</text>
<text text-anchor="middle" x="388.75" y="-106.5" font-family="Helvetica,sans-Serif" font-size="10.00">::send_room_joined</text>
</a>
</g>
</g>
<!-- Node5&#45;&gt;Node12 -->
<g id="edge14_Node000005_Node000012" class="edge">
<title>Node5&#45;&gt;Node12</title>
<g id="a_edge14_Node000005_Node000012"><a xlink:title=" ">
<path fill="none" stroke="#63b8ff" d="M239.2,-199.8C257.67,-183.22 288.36,-157.59 318.5,-141 321,-139.62 323.59,-138.3 326.23,-137.02"/>
<polygon fill="#63b8ff" stroke="#63b8ff" points="327.56,-140.27 335.25,-132.99 324.7,-133.88 327.56,-140.27"/>
</a>
</g>
</g>
<!-- Node9&#45;&gt;Node3 -->
<g id="edge10_Node000009_Node000003" class="edge">
<title>Node9&#45;&gt;Node3</title>
<g id="a_edge10_Node000009_Node000003"><a xlink:title=" ">
<path fill="none" stroke="#63b8ff" d="M450.65,-282.01C468.99,-286.83 488.9,-292.06 506.49,-296.69"/>
<polygon fill="#63b8ff" stroke="#63b8ff" points="505.37,-300.01 515.93,-299.17 507.15,-293.24 505.37,-300.01"/>
</a>
</g>
</g>
<!-- Node9&#45;&gt;Node4 -->
<g id="edge11_Node000009_Node000004" class="edge">
<title>Node9&#45;&gt;Node4</title>
<g id="a_edge11_Node000009_Node000004"><a xlink:title=" ">
<path fill="none" stroke="#63b8ff" d="M444.55,-249.63C466.11,-243.19 490.59,-235.88 511.19,-229.72"/>
<polygon fill="#63b8ff" stroke="#63b8ff" points="512.17,-233.08 520.75,-226.87 510.17,-226.37 512.17,-233.08"/>
</a>
</g>
</g>
<!-- Node10 -->
<g id="Node000010" class="node">
<title>Node10</title>
<g id="a_Node000010"><a xlink:href="classRtypeServer_1_1Protocol.html#ad918184440d6fcb33f231a7173a67399" target="_top" xlink:title=" ">
<polygon fill="white" stroke="#666666" points="614.5,-157 501.75,-157 501.75,-125 614.5,-125 614.5,-157"/>
<text text-anchor="start" x="509.75" y="-143.5" font-family="Helvetica,sans-Serif" font-size="10.00">RtypeServer::Protocol</text>
<text text-anchor="middle" x="558.12" y="-131.5" font-family="Helvetica,sans-Serif" font-size="10.00">::writeHeader</text>
</a>
</g>
</g>
<!-- Node9&#45;&gt;Node10 -->
<g id="edge12_Node000009_Node000010" class="edge">
<title>Node9&#45;&gt;Node10</title>
<g id="a_edge12_Node000009_Node000010"><a xlink:title=" ">
<path fill="none" stroke="#63b8ff" d="M444.12,-249.64C449.35,-247.12 454.41,-244.25 459,-241 479.63,-226.41 477.57,-215.29 495,-197 505.59,-185.89 518.03,-174.4 528.99,-164.75"/>
<polygon fill="#63b8ff" stroke="#63b8ff" points="531,-167.63 536.25,-158.43 526.41,-162.35 531,-167.63"/>
</a>
</g>
</g>
<!-- Node11 -->
<g id="Node000011" class="node">
<title>Node11</title>
<g id="a_Node000011"><a xlink:href="classRtypeServer_1_1Protocol.html#a5b46d0759af7c3a4f3925420298c171a" target="_top" xlink:title=" ">
<polygon fill="white" stroke="#666666" points="614.5,-282 501.75,-282 501.75,-250 614.5,-250 614.5,-282"/>
<text text-anchor="start" x="509.75" y="-268.5" font-family="Helvetica,sans-Serif" font-size="10.00">RtypeServer::Protocol</text>
<text text-anchor="middle" x="558.12" y="-256.5" font-family="Helvetica,sans-Serif" font-size="10.00">::writeRoomErrorBody</text>
</a>
</g>
</g>
<!-- Node9&#45;&gt;Node11 -->
<g id="edge13_Node000009_Node000011" class="edge">
<title>Node9&#45;&gt;Node11</title>
<g id="a_edge13_Node000009_Node000011"><a xlink:title=" ">
<path fill="none" stroke="#63b8ff" d="M450.65,-266C463.45,-266 477.01,-266 490.02,-266"/>
<polygon fill="#63b8ff" stroke="#63b8ff" points="489.76,-269.5 499.76,-266 489.76,-262.5 489.76,-269.5"/>
</a>
</g>
</g>
<!-- Node12&#45;&gt;Node3 -->
<g id="edge15_Node000012_Node000003" class="edge">
<title>Node12&#45;&gt;Node3</title>
<g id="a_edge15_Node000012_Node000003"><a xlink:title=" ">
<path fill="none" stroke="#63b8ff" d="M449.12,-132.49C452.75,-134.94 456.1,-137.76 459,-141 504.72,-192.09 448.03,-241.06 495,-291 496.56,-292.66 498.27,-294.18 500.09,-295.57"/>
<polygon fill="#63b8ff" stroke="#63b8ff" points="498.25,-298.55 508.62,-300.69 501.85,-292.54 498.25,-298.55"/>
</a>
</g>
</g>
<!-- Node12&#45;&gt;Node4 -->
<g id="edge16_Node000012_Node000004" class="edge">
<title>Node12&#45;&gt;Node4</title>
<g id="a_edge16_Node000012_Node000004"><a xlink:title=" ">
<path fill="none" stroke="#63b8ff" d="M440.84,-132.41C447.09,-135.01 453.28,-137.88 459,-141 474.79,-149.61 512.01,-179.14 535.8,-198.47"/>
<polygon fill="#63b8ff" stroke="#63b8ff" points="533.35,-200.99 543.31,-204.6 537.78,-195.57 533.35,-200.99"/>
</a>
</g>
</g>
<!-- Node12&#45;&gt;Node10 -->
<g id="edge17_Node000012_Node000010" class="edge">
<title>Node12&#45;&gt;Node10</title>
<g id="a_edge17_Node000012_Node000010"><a xlink:title=" ">
<path fill="none" stroke="#63b8ff" d="M450.65,-125.1C463.45,-127.01 477.01,-129.03 490.02,-130.98"/>
<polygon fill="#63b8ff" stroke="#63b8ff" points="489.37,-134.42 499.78,-132.43 490.4,-127.5 489.37,-134.42"/>
</a>
</g>
</g>
<!-- Node13 -->
<g id="Node000013" class="node">
<title>Node13</title>
<g id="a_Node000013"><a xlink:href="classRtypeServer_1_1Protocol.html#a60211e1b53451ea55a75054580b325aa" target="_top" xlink:title=" ">
<polygon fill="white" stroke="#666666" points="618.25,-107 498,-107 498,-75 618.25,-75 618.25,-107"/>
<text text-anchor="start" x="506" y="-93.5" font-family="Helvetica,sans-Serif" font-size="10.00">RtypeServer::Protocol</text>
<text text-anchor="middle" x="558.12" y="-81.5" font-family="Helvetica,sans-Serif" font-size="10.00">::writeRoomJoinedBody</text>
</a>
</g>
</g>
<!-- Node12&#45;&gt;Node13 -->
<g id="edge18_Node000012_Node000013" class="edge">
<title>Node12&#45;&gt;Node13</title>
<g id="a_edge18_Node000012_Node000013"><a xlink:title=" ">
<path fill="none" stroke="#63b8ff" d="M450.65,-106.9C462.27,-105.17 474.52,-103.34 486.41,-101.56"/>
<polygon fill="#63b8ff" stroke="#63b8ff" points="486.8,-105.04 496.17,-100.1 485.77,-98.12 486.8,-105.04"/>
</a>
</g>
</g>
<!-- Node14&#45;&gt;Node3 -->
<g id="edge22_Node000014_Node000003" class="edge">
<title>Node14&#45;&gt;Node3</title>
<g id="a_edge22_Node000014_Node000003"><a xlink:title=" ">
<path fill="none" stroke="#63b8ff" d="M449.78,-32.42C453.21,-34.89 456.34,-37.73 459,-41 529.91,-128.03 421.95,-205.76 495,-291 496.67,-292.95 498.53,-294.7 500.54,-296.28"/>
<polygon fill="#63b8ff" stroke="#63b8ff" points="498.49,-299.12 508.85,-301.33 502.12,-293.14 498.49,-299.12"/>
</a>
</g>
</g>
<!-- Node14&#45;&gt;Node4 -->
<g id="edge23_Node000014_Node000004" class="edge">
<title>Node14&#45;&gt;Node4</title>
<g id="a_edge23_Node000014_Node000004"><a xlink:title=" ">
<path fill="none" stroke="#63b8ff" d="M448.64,-32.42C452.43,-34.89 455.94,-37.73 459,-41 498.51,-83.21 462.99,-117.86 495,-166 503.83,-179.28 517.29,-190.74 529.43,-199.32"/>
<polygon fill="#63b8ff" stroke="#63b8ff" points="527.25,-202.07 537.51,-204.72 531.15,-196.25 527.25,-202.07"/>
</a>
</g>
</g>
<!-- Node14&#45;&gt;Node10 -->
<g id="edge24_Node000014_Node000010" class="edge">
<title>Node14&#45;&gt;Node10</title>
<g id="a_edge24_Node000014_Node000010"><a xlink:title=" ">
<path fill="none" stroke="#63b8ff" d="M447.04,-32.43C451.34,-34.9 455.4,-37.74 459,-41 486.43,-65.79 468.02,-90.72 495,-116 495.76,-116.71 496.54,-117.41 497.35,-118.08"/>
<polygon fill="#63b8ff" stroke="#63b8ff" points="495.2,-120.85 505.39,-123.74 499.23,-115.13 495.2,-120.85"/>
</a>
</g>
</g>
<!-- Node15 -->
<g id="Node000015" class="node">
<title>Node15</title>
<g id="a_Node000015"><a xlink:href="classRtypeServer_1_1Protocol.html#a972db5856809fcdf0b8d00c96eeeae32" target="_top" xlink:title=" ">
<polygon fill="white" stroke="#666666" points="621.25,-32 495,-32 495,0 621.25,0 621.25,-32"/>
<text text-anchor="start" x="503" y="-18.5" font-family="Helvetica,sans-Serif" font-size="10.00">RtypeServer::Protocol</text>
<text text-anchor="middle" x="558.12" y="-6.5" font-family="Helvetica,sans-Serif" font-size="10.00">::writeRoomCreatedBody</text>
</a>
</g>
</g>
<!-- Node14&#45;&gt;Node15 -->
<g id="edge25_Node000014_Node000015" class="edge">
<title>Node14&#45;&gt;Node15</title>
<g id="a_edge25_Node000014_Node000015"><a xlink:title=" ">
<path fill="none" stroke="#63b8ff" d="M450.65,-16C461.26,-16 472.41,-16 483.32,-16"/>
<polygon fill="#63b8ff" stroke="#63b8ff" points="483.07,-19.5 493.07,-16 483.07,-12.5 483.07,-19.5"/>
</a>
</g>
</g>
</g>
</svg>
