<?xml version="1.0" encoding="UTF-8" standalone="no"?>
<!DOCTYPE svg PUBLIC "-//W3C//DTD SVG 1.1//EN"
 "http://www.w3.org/Graphics/SVG/1.1/DTD/svg11.dtd">
<!-- Generated by graphviz version 12.1.0 (20240811.2233)
 -->
<!-- Title: Leaderboard Pages: 1 -->
<svg width="136pt" height="448pt"
 viewBox="0.00 0.00 136.00 448.00" xmlns="http://www.w3.org/2000/svg" xmlns:xlink="http://www.w3.org/1999/xlink">
<g id="graph0" class="graph" transform="scale(1 1) rotate(0) translate(4 444)">
<title>Leaderboard</title>
<!-- Node1 -->
<g id="Node000001" class="node">
<title>Node1</title>
<g id="a_Node000001"><a xlink:title=" ">
<polygon fill="#999999" stroke="none" points="128,-228 0,-228 0,0 128,0 128,-228"/>
<text text-anchor="start" x="37.38" y="-214.5" font-family="Helvetica,sans-Serif" font-size="10.00">Leaderboard</text>
<text text-anchor="start" x="4" y="-198.5" font-family="Helvetica,sans-Serif" font-size="10.00">+</text>
<text text-anchor="start" x="14" y="-198.5" font-family="Helvetica,sans-Serif" font-size="10.00">leaderboardRectangle</text>
<text text-anchor="start" x="5.5" y="-182.5" font-family="Helvetica,sans-Serif" font-size="10.00">&#45;</text>
<text text-anchor="start" x="14" y="-182.5" font-family="Helvetica,sans-Serif" font-size="10.00">trophyRect</text>
<text text-anchor="start" x="5.5" y="-166.5" font-family="Helvetica,sans-Serif" font-size="10.00">&#45;</text>
<text text-anchor="start" x="14" y="-166.5" font-family="Helvetica,sans-Serif" font-size="10.00">trophySprite</text>
<text text-anchor="start" x="5.5" y="-150.5" font-family="Helvetica,sans-Serif" font-size="10.00">&#45;</text>
<text text-anchor="start" x="14" y="-150.5" font-family="Helvetica,sans-Serif" font-size="10.00">trophyTexture</text>
<text text-anchor="start" x="4" y="-134.5" font-family="Helvetica,sans-Serif" font-size="10.00">+</text>
<text text-anchor="start" x="14" y="-134.5" font-family="Helvetica,sans-Serif" font-size="10.00">Leaderboard()</text>
<text text-anchor="start" x="4" y="-118.5" font-family="Helvetica,sans-Serif" font-size="10.00">+</text>
<text text-anchor="start" x="14" y="-118.5" font-family="Helvetica,sans-Serif" font-size="10.00">~Leaderboard()</text>
<text text-anchor="start" x="4" y="-102.5" font-family="Helvetica,sans-Serif" font-size="10.00">+</text>
<text text-anchor="start" x="14" y="-102.5" font-family="Helvetica,sans-Serif" font-size="10.00">loadResources()</text>
<text text-anchor="start" x="4" y="-86.5" font-family="Helvetica,sans-Serif" font-size="10.00">+</text>
<text text-anchor="start" x="14" y="-86.5" font-family="Helvetica,sans-Serif" font-size="10.00">draw()</text>
<text text-anchor="start" x="4" y="-70.5" font-family="Helvetica,sans-Serif" font-size="10.00">+</text>
<text text-anchor="start" x="14" y="-70.5" font-family="Helvetica,sans-Serif" font-size="10.00">drawRoundedRectangle()</text>
<text text-anchor="start" x="4" y="-54.5" font-family="Helvetica,sans-Serif" font-size="10.00">+</text>
<text text-anchor="start" x="14" y="-54.5" font-family="Helvetica,sans-Serif" font-size="10.00">handleEvent()</text>
<text text-anchor="start" x="4" y="-38.5" font-family="Helvetica,sans-Serif" font-size="10.00">+</text>
<text text-anchor="start" x="14" y="-38.5" font-family="Helvetica,sans-Serif" font-size="10.00">update()</text>
<text text-anchor="start" x="4" y="-22.5" font-family="Helvetica,sans-Serif" font-size="10.00">+</text>
<text text-anchor="start" x="14" y="-22.5" font-family="Helvetica,sans-Serif" font-size="10.00">updateWindowSize()</text>
<text text-anchor="start" x="5.5" y="-6.5" font-family="Helvetica,sans-Serif" font-size="10.00">&#45;</text>
<text text-anchor="start" x="14" y="-6.5" font-family="Helvetica,sans-Serif" font-size="10.00">centerImage()</text>
<polygon fill="#666666" stroke="#666666" points="0,-210 0,-210 128,-210 128,-210 0,-210"/>
<polygon fill="#666666" stroke="#666666" points="0,-146 0,-146 12,-146 12,-146 0,-146"/>
<polygon fill="#666666" stroke="#666666" points="12,-146 12,-146 128,-146 128,-146 12,-146"/>
<polygon fill="none" stroke="#666666" points="0,0 0,-228 128,-228 128,0 0,0"/>
</a>
</g>
</g>
<!-- Node2 -->
<g id="Node000002" class="node">
<title>Node2</title>
<g id="a_Node000002"><a xlink:href="classEngine_1_1Utils_1_1Vec2UInt.html" target="_top" xlink:title=" ">
<polygon fill="white" stroke="none" points="120,-440 8,-440 8,-276 120,-276 120,-440"/>
<text text-anchor="start" x="12.62" y="-426.5" font-family="Helvetica,sans-Serif" font-size="10.00">Engine::Utils::Vec2UInt</text>
<text text-anchor="start" x="22" y="-410.5" font-family="Helvetica,sans-Serif" font-size="10.00">+</text>
<text text-anchor="start" x="42" y="-410.5" font-family="Helvetica,sans-Serif" font-size="10.00">x</text>
<text text-anchor="start" x="22" y="-394.5" font-family="Helvetica,sans-Serif" font-size="10.00">+</text>
<text text-anchor="start" x="42" y="-394.5" font-family="Helvetica,sans-Serif" font-size="10.00">y</text>
<text text-anchor="start" x="22" y="-378.5" font-family="Helvetica,sans-Serif" font-size="10.00">+</text>
<text text-anchor="start" x="42" y="-378.5" font-family="Helvetica,sans-Serif" font-size="10.00">Vec2UInt()</text>
<text text-anchor="start" x="22" y="-362.5" font-family="Helvetica,sans-Serif" font-size="10.00">+</text>
<text text-anchor="start" x="42" y="-362.5" font-family="Helvetica,sans-Serif" font-size="10.00">Vec2UInt()</text>
<text text-anchor="start" x="22" y="-346.5" font-family="Helvetica,sans-Serif" font-size="10.00">+</text>
<text text-anchor="start" x="42" y="-346.5" font-family="Helvetica,sans-Serif" font-size="10.00">operator+()</text>
<text text-anchor="start" x="22" y="-330.5" font-family="Helvetica,sans-Serif" font-size="10.00">+</text>
<text text-anchor="start" x="42" y="-330.5" font-family="Helvetica,sans-Serif" font-size="10.00">operator+=()</text>
<text text-anchor="start" x="22" y="-314.5" font-family="Helvetica,sans-Serif" font-size="10.00">+</text>
<text text-anchor="start" x="42" y="-314.5" font-family="Helvetica,sans-Serif" font-size="10.00">operator&#45;()</text>
<text text-anchor="start" x="22" y="-298.5" font-family="Helvetica,sans-Serif" font-size="10.00">+</text>
<text text-anchor="start" x="42" y="-298.5" font-family="Helvetica,sans-Serif" font-size="10.00">operator&#45;=()</text>
<text text-anchor="start" x="22" y="-282.5" font-family="Helvetica,sans-Serif" font-size="10.00">+</text>
<text text-anchor="start" x="42" y="-282.5" font-family="Helvetica,sans-Serif" font-size="10.00">operator*()</text>
<polygon fill="#666666" stroke="#666666" points="8,-422 8,-422 120,-422 120,-422 8,-422"/>
<polygon fill="#666666" stroke="#666666" points="8,-390 8,-390 40,-390 40,-390 8,-390"/>
<polygon fill="#666666" stroke="#666666" points="40,-390 40,-390 120,-390 120,-390 40,-390"/>
<polygon fill="none" stroke="#666666" points="8,-276 8,-440 120,-440 120,-276 8,-276"/>
</a>
</g>
</g>
<!-- Node2&#45;&gt;Node1 -->
<g id="edge1_Node000001_Node000002" class="edge">
<title>Node2&#45;&gt;Node1</title>
<g id="a_edge1_Node000001_Node000002"><a xlink:title=" ">
<path fill="none" stroke="#63b8ff" d="M64,-276.08C64,-264.68 64,-252.74 64,-240.74"/>
<polygon fill="none" stroke="#63b8ff" points="64,-240.62 60,-234.62 64,-228.62 68,-234.62 64,-240.62"/>
</a>
</g>
<text text-anchor="middle" x="93.25" y="-248.5" font-family="Helvetica,sans-Serif" font-size="10.00" fill="grey"> &#45;windowSize</text>
</g>
</g>
</svg>
