<?xml version="1.0" encoding="UTF-8" standalone="no"?>
<!DOCTYPE svg PUBLIC "-//W3C//DTD SVG 1.1//EN"
 "http://www.w3.org/Graphics/SVG/1.1/DTD/svg11.dtd">
<!-- Generated by graphviz version 12.1.0 (20240811.2233)
 -->
<!-- Title: Engine::System Pages: 1 -->
<svg width="1273pt" height="308pt"
 viewBox="0.00 0.00 1273.00 308.00" xmlns="http://www.w3.org/2000/svg" xmlns:xlink="http://www.w3.org/1999/xlink">
<g id="graph0" class="graph" transform="scale(1 1) rotate(0) translate(4 304)">
<title>Engine::System</title>
<!-- Node1 -->
<g id="Node000001" class="node">
<title>Node1</title>
<g id="a_Node000001"><a xlink:title=" ">
<polygon fill="#999999" stroke="none" points="657.5,-300 578.5,-300 578.5,-248 657.5,-248 657.5,-300"/>
<text text-anchor="start" x="583.12" y="-286.5" font-family="Helvetica,sans-Serif" font-size="10.00">Engine::System</text>
<text text-anchor="start" x="590" y="-270.5" font-family="Helvetica,sans-Serif" font-size="10.00">+</text>
<text text-anchor="start" x="607.5" y="-270.5" font-family="Helvetica,sans-Serif" font-size="10.00">entities</text>
<text text-anchor="start" x="616.5" y="-254.5" font-family="Helvetica,sans-Serif" font-size="10.00"> </text>
<polygon fill="#666666" stroke="#666666" points="578.5,-282 578.5,-282 657.5,-282 657.5,-282 578.5,-282"/>
<polygon fill="#666666" stroke="#666666" points="578.5,-266 578.5,-266 605.5,-266 605.5,-266 578.5,-266"/>
<polygon fill="#666666" stroke="#666666" points="605.5,-266 605.5,-266 657.5,-266 657.5,-266 605.5,-266"/>
<polygon fill="none" stroke="#666666" points="578.5,-248 578.5,-300 657.5,-300 657.5,-248 578.5,-248"/>
</a>
</g>
</g>
<!-- Node2 -->
<g id="Node000002" class="node">
<title>Node2</title>
<g id="a_Node000002"><a xlink:href="classEngine_1_1Systems_1_1Collision.html" target="_top" xlink:title=" ">
<polygon fill="white" stroke="none" points="128,-140 0,-140 0,-72 128,-72 128,-140"/>
<text text-anchor="start" x="4.75" y="-126.5" font-family="Helvetica,sans-Serif" font-size="10.00">Engine::Systems::Collision</text>
<text text-anchor="start" x="15" y="-110.5" font-family="Helvetica,sans-Serif" font-size="10.00">&#45;</text>
<text text-anchor="start" x="33" y="-110.5" font-family="Helvetica,sans-Serif" font-size="10.00">active_collisions</text>
<text text-anchor="start" x="13.5" y="-94.5" font-family="Helvetica,sans-Serif" font-size="10.00">+</text>
<text text-anchor="start" x="33" y="-94.5" font-family="Helvetica,sans-Serif" font-size="10.00">update()</text>
<text text-anchor="start" x="15" y="-78.5" font-family="Helvetica,sans-Serif" font-size="10.00">&#45;</text>
<text text-anchor="start" x="33" y="-78.5" font-family="Helvetica,sans-Serif" font-size="10.00">checkCollision()</text>
<polygon fill="#666666" stroke="#666666" points="0,-122 0,-122 128,-122 128,-122 0,-122"/>
<polygon fill="#666666" stroke="#666666" points="0,-106 0,-106 31,-106 31,-106 0,-106"/>
<polygon fill="#666666" stroke="#666666" points="31,-106 31,-106 128,-106 128,-106 31,-106"/>
<polygon fill="none" stroke="#666666" points="0,-72 0,-140 128,-140 128,-72 0,-72"/>
</a>
</g>
</g>
<!-- Node1&#45;&gt;Node2 -->
<g id="edge1_Node000001_Node000002" class="edge">
<title>Node1&#45;&gt;Node2</title>
<g id="a_edge1_Node000001_Node000002"><a xlink:title=" ">
<path fill="none" stroke="#63b8ff" d="M567.34,-271.72C458.94,-268.16 208.55,-255.35 137,-212 109.47,-195.32 89.7,-163.85 77.74,-139.69"/>
<polygon fill="none" stroke="#63b8ff" points="566.99,-275.21 577.09,-272.02 567.21,-268.21 566.99,-275.21"/>
</a>
</g>
</g>
<!-- Node3 -->
<g id="Node000003" class="node">
<title>Node3</title>
<g id="a_Node000003"><a xlink:href="classEngine_1_1Systems_1_1DevConsole.html" target="_top" xlink:title=" ">
<polygon fill="white" stroke="none" points="291.5,-212 146.5,-212 146.5,0 291.5,0 291.5,-212"/>
<text text-anchor="start" x="151.5" y="-198.5" font-family="Helvetica,sans-Serif" font-size="10.00">Engine::Systems::DevConsole</text>
<text text-anchor="start" x="160.5" y="-182.5" font-family="Helvetica,sans-Serif" font-size="10.00">&#45;</text>
<text text-anchor="start" x="177.5" y="-182.5" font-family="Helvetica,sans-Serif" font-size="10.00">is_open</text>
<text text-anchor="start" x="160.5" y="-166.5" font-family="Helvetica,sans-Serif" font-size="10.00">&#45;</text>
<text text-anchor="start" x="177.5" y="-166.5" font-family="Helvetica,sans-Serif" font-size="10.00">old_std_out</text>
<text text-anchor="start" x="160.5" y="-150.5" font-family="Helvetica,sans-Serif" font-size="10.00">&#45;</text>
<text text-anchor="start" x="177.5" y="-150.5" font-family="Helvetica,sans-Serif" font-size="10.00">current_command</text>
<text text-anchor="start" x="160.5" y="-134.5" font-family="Helvetica,sans-Serif" font-size="10.00">&#45;</text>
<text text-anchor="start" x="177.5" y="-134.5" font-family="Helvetica,sans-Serif" font-size="10.00">command_to_parse</text>
<text text-anchor="start" x="160.5" y="-118.5" font-family="Helvetica,sans-Serif" font-size="10.00">&#45;</text>
<text text-anchor="start" x="177.5" y="-118.5" font-family="Helvetica,sans-Serif" font-size="10.00">cursor_pos</text>
<text text-anchor="start" x="160.5" y="-102.5" font-family="Helvetica,sans-Serif" font-size="10.00">&#45;</text>
<text text-anchor="start" x="177.5" y="-102.5" font-family="Helvetica,sans-Serif" font-size="10.00">console_vars</text>
<text text-anchor="start" x="159" y="-86.5" font-family="Helvetica,sans-Serif" font-size="10.00">+</text>
<text text-anchor="start" x="177.5" y="-86.5" font-family="Helvetica,sans-Serif" font-size="10.00">init()</text>
<text text-anchor="start" x="159" y="-70.5" font-family="Helvetica,sans-Serif" font-size="10.00">+</text>
<text text-anchor="start" x="177.5" y="-70.5" font-family="Helvetica,sans-Serif" font-size="10.00">update()</text>
<text text-anchor="start" x="159" y="-54.5" font-family="Helvetica,sans-Serif" font-size="10.00">+</text>
<text text-anchor="start" x="177.5" y="-54.5" font-family="Helvetica,sans-Serif" font-size="10.00">treatNewTextInput()</text>
<text text-anchor="start" x="160.5" y="-38.5" font-family="Helvetica,sans-Serif" font-size="10.00">&#45;</text>
<text text-anchor="start" x="177.5" y="-38.5" font-family="Helvetica,sans-Serif" font-size="10.00">parseCommand()</text>
<text text-anchor="start" x="160.5" y="-22.5" font-family="Helvetica,sans-Serif" font-size="10.00">&#45;</text>
<text text-anchor="start" x="177.5" y="-22.5" font-family="Helvetica,sans-Serif" font-size="10.00">reflectComponent()</text>
<text text-anchor="start" x="160.5" y="-6.5" font-family="Helvetica,sans-Serif" font-size="10.00">&#45;</text>
<text text-anchor="start" x="177.5" y="-6.5" font-family="Helvetica,sans-Serif" font-size="10.00">setComponentValue()</text>
<polygon fill="#666666" stroke="#666666" points="146.5,-194 146.5,-194 291.5,-194 291.5,-194 146.5,-194"/>
<polygon fill="#666666" stroke="#666666" points="146.5,-98 146.5,-98 175.5,-98 175.5,-98 146.5,-98"/>
<polygon fill="#666666" stroke="#666666" points="175.5,-98 175.5,-98 291.5,-98 291.5,-98 175.5,-98"/>
<polygon fill="none" stroke="#666666" points="146.5,0 146.5,-212 291.5,-212 291.5,0 146.5,0"/>
</a>
</g>
</g>
<!-- Node1&#45;&gt;Node3 -->
<g id="edge2_Node000001_Node000003" class="edge">
<title>Node1&#45;&gt;Node3</title>
<g id="a_edge2_Node000001_Node000003"><a xlink:title=" ">
<path fill="none" stroke="#63b8ff" d="M567.68,-267.73C489.73,-258.85 344.15,-239.17 300,-212 297.06,-210.19 294.18,-208.23 291.38,-206.15"/>
<polygon fill="none" stroke="#63b8ff" points="566.84,-271.16 577.17,-268.8 567.62,-264.2 566.84,-271.16"/>
</a>
</g>
</g>
<!-- Node4 -->
<g id="Node000004" class="node">
<title>Node4</title>
<g id="a_Node000004"><a xlink:href="classEngine_1_1Systems_1_1EnemySystem.html" target="_top" xlink:title=" ">
<polygon fill="white" stroke="none" points="464.5,-164 309.5,-164 309.5,-48 464.5,-48 464.5,-164"/>
<text text-anchor="start" x="314.25" y="-150.5" font-family="Helvetica,sans-Serif" font-size="10.00">Engine::Systems::EnemySystem</text>
<text text-anchor="start" x="385.5" y="-134.5" font-family="Helvetica,sans-Serif" font-size="10.00"> </text>
<text text-anchor="start" x="329" y="-118.5" font-family="Helvetica,sans-Serif" font-size="10.00">+</text>
<text text-anchor="start" x="354.5" y="-118.5" font-family="Helvetica,sans-Serif" font-size="10.00">init()</text>
<text text-anchor="start" x="329" y="-102.5" font-family="Helvetica,sans-Serif" font-size="10.00">+</text>
<text text-anchor="start" x="354.5" y="-102.5" font-family="Helvetica,sans-Serif" font-size="10.00">update()</text>
<text text-anchor="start" x="330.5" y="-86.5" font-family="Helvetica,sans-Serif" font-size="10.00">&#45;</text>
<text text-anchor="start" x="354.5" y="-86.5" font-family="Helvetica,sans-Serif" font-size="10.00">handleCollision()</text>
<text text-anchor="start" x="330.5" y="-70.5" font-family="Helvetica,sans-Serif" font-size="10.00">&#45;</text>
<text text-anchor="start" x="354.5" y="-70.5" font-family="Helvetica,sans-Serif" font-size="10.00">damageEnemy()</text>
<text text-anchor="start" x="330.5" y="-54.5" font-family="Helvetica,sans-Serif" font-size="10.00">&#45;</text>
<text text-anchor="start" x="354.5" y="-54.5" font-family="Helvetica,sans-Serif" font-size="10.00">updateEnemyAI()</text>
<polygon fill="#666666" stroke="#666666" points="309.5,-146 309.5,-146 464.5,-146 464.5,-146 309.5,-146"/>
<polygon fill="#666666" stroke="#666666" points="309.5,-130 309.5,-130 464.5,-130 464.5,-130 309.5,-130"/>
<polygon fill="none" stroke="#666666" points="309.5,-48 309.5,-164 464.5,-164 464.5,-48 309.5,-48"/>
</a>
</g>
</g>
<!-- Node1&#45;&gt;Node4 -->
<g id="edge3_Node000001_Node000004" class="edge">
<title>Node1&#45;&gt;Node4</title>
<g id="a_edge3_Node000001_Node000004"><a xlink:title=" ">
<path fill="none" stroke="#63b8ff" d="M567.9,-258.4C538.7,-248.35 502.2,-232.98 474,-212 456.15,-198.71 439.68,-181.03 425.98,-163.97"/>
<polygon fill="none" stroke="#63b8ff" points="566.67,-261.68 577.27,-261.52 568.88,-255.04 566.67,-261.68"/>
</a>
</g>
</g>
<!-- Node5 -->
<g id="Node000005" class="node">
<title>Node5</title>
<g id="a_Node000005"><a xlink:href="classEngine_1_1Systems_1_1PhysicsNoEngineSystem.html" target="_top" xlink:title=" ">
<polygon fill="white" stroke="none" points="609,-138 483,-138 483,-74 609,-74 609,-138"/>
<text text-anchor="start" x="487.88" y="-124.5" font-family="Helvetica,sans-Serif" font-size="10.00">Engine::Systems::Physics</text>
<text text-anchor="start" x="507.75" y="-112.5" font-family="Helvetica,sans-Serif" font-size="10.00">NoEngineSystem</text>
<text text-anchor="start" x="544.5" y="-96.5" font-family="Helvetica,sans-Serif" font-size="10.00"> </text>
<text text-anchor="start" x="505" y="-80.5" font-family="Helvetica,sans-Serif" font-size="10.00">+</text>
<text text-anchor="start" x="533" y="-80.5" font-family="Helvetica,sans-Serif" font-size="10.00">update()</text>
<polygon fill="#666666" stroke="#666666" points="483,-108 483,-108 609,-108 609,-108 483,-108"/>
<polygon fill="#666666" stroke="#666666" points="483,-92 483,-92 609,-92 609,-92 483,-92"/>
<polygon fill="none" stroke="#666666" points="483,-74 483,-138 609,-138 609,-74 483,-74"/>
</a>
</g>
</g>
<!-- Node1&#45;&gt;Node5 -->
<g id="edge4_Node000001_Node000005" class="edge">
<title>Node1&#45;&gt;Node5</title>
<g id="a_edge4_Node000001_Node000005"><a xlink:title=" ">
<path fill="none" stroke="#63b8ff" d="M602.75,-237.85C589.92,-208.25 571.73,-166.32 559.43,-137.97"/>
<polygon fill="none" stroke="#63b8ff" points="599.43,-238.98 606.62,-246.76 605.85,-236.19 599.43,-238.98"/>
</a>
</g>
</g>
<!-- Node6 -->
<g id="Node000006" class="node">
<title>Node6</title>
<g id="a_Node000006"><a xlink:href="classEngine_1_1Systems_1_1PhysicsUsingEngineSystem.html" target="_top" xlink:title=" ">
<polygon fill="white" stroke="none" points="753,-146 627,-146 627,-66 753,-66 753,-146"/>
<text text-anchor="start" x="631.88" y="-132.5" font-family="Helvetica,sans-Serif" font-size="10.00">Engine::Systems::Physics</text>
<text text-anchor="start" x="645.38" y="-120.5" font-family="Helvetica,sans-Serif" font-size="10.00">UsingEngineSystem</text>
<text text-anchor="start" x="642.5" y="-104.5" font-family="Helvetica,sans-Serif" font-size="10.00">&#45;</text>
<text text-anchor="start" x="661" y="-104.5" font-family="Helvetica,sans-Serif" font-size="10.00">physics_engine</text>
<text text-anchor="start" x="641" y="-88.5" font-family="Helvetica,sans-Serif" font-size="10.00">+</text>
<text text-anchor="start" x="661" y="-88.5" font-family="Helvetica,sans-Serif" font-size="10.00">init()</text>
<text text-anchor="start" x="641" y="-72.5" font-family="Helvetica,sans-Serif" font-size="10.00">+</text>
<text text-anchor="start" x="661" y="-72.5" font-family="Helvetica,sans-Serif" font-size="10.00">update()</text>
<polygon fill="#666666" stroke="#666666" points="627,-116 627,-116 753,-116 753,-116 627,-116"/>
<polygon fill="#666666" stroke="#666666" points="627,-100 627,-100 659,-100 659,-100 627,-100"/>
<polygon fill="#666666" stroke="#666666" points="659,-100 659,-100 753,-100 753,-100 659,-100"/>
<polygon fill="none" stroke="#666666" points="627,-66 627,-146 753,-146 753,-66 627,-66"/>
</a>
</g>
</g>
<!-- Node1&#45;&gt;Node6 -->
<g id="edge5_Node000001_Node000006" class="edge">
<title>Node1&#45;&gt;Node6</title>
<g id="a_edge5_Node000001_Node000006"><a xlink:title=" ">
<path fill="none" stroke="#63b8ff" d="M633.33,-237.65C645.01,-210.72 661.08,-173.68 673.12,-145.92"/>
<polygon fill="none" stroke="#63b8ff" points="630.15,-236.19 629.38,-246.76 636.57,-238.98 630.15,-236.19"/>
</a>
</g>
</g>
<!-- Node7 -->
<g id="Node000007" class="node">
<title>Node7</title>
<g id="a_Node000007"><a xlink:href="classEngine_1_1Systems_1_1PlayerControl.html" target="_top" xlink:title=" ">
<polygon fill="white" stroke="none" points="921,-156 771,-156 771,-56 921,-56 921,-156"/>
<text text-anchor="start" x="775.88" y="-142.5" font-family="Helvetica,sans-Serif" font-size="10.00">Engine::Systems::PlayerControl</text>
<text text-anchor="start" x="784.5" y="-126.5" font-family="Helvetica,sans-Serif" font-size="10.00">&#45;</text>
<text text-anchor="start" x="801" y="-126.5" font-family="Helvetica,sans-Serif" font-size="10.00">playerProjectileCreator</text>
<text text-anchor="start" x="784.5" y="-110.5" font-family="Helvetica,sans-Serif" font-size="10.00">&#45;</text>
<text text-anchor="start" x="801" y="-110.5" font-family="Helvetica,sans-Serif" font-size="10.00">player_id_to_buttons</text>
<text text-anchor="start" x="783" y="-94.5" font-family="Helvetica,sans-Serif" font-size="10.00">+</text>
<text text-anchor="start" x="801" y="-94.5" font-family="Helvetica,sans-Serif" font-size="10.00">init()</text>
<text text-anchor="start" x="783" y="-78.5" font-family="Helvetica,sans-Serif" font-size="10.00">+</text>
<text text-anchor="start" x="801" y="-78.5" font-family="Helvetica,sans-Serif" font-size="10.00">update()</text>
<text text-anchor="start" x="783" y="-62.5" font-family="Helvetica,sans-Serif" font-size="10.00">+</text>
<text text-anchor="start" x="801" y="-62.5" font-family="Helvetica,sans-Serif" font-size="10.00">inputListener()</text>
<polygon fill="#666666" stroke="#666666" points="771,-138 771,-138 921,-138 921,-138 771,-138"/>
<polygon fill="#666666" stroke="#666666" points="771,-106 771,-106 799,-106 799,-106 771,-106"/>
<polygon fill="#666666" stroke="#666666" points="799,-106 799,-106 921,-106 921,-106 799,-106"/>
<polygon fill="none" stroke="#666666" points="771,-56 771,-156 921,-156 921,-56 771,-56"/>
</a>
</g>
</g>
<!-- Node1&#45;&gt;Node7 -->
<g id="edge6_Node000001_Node000007" class="edge">
<title>Node1&#45;&gt;Node7</title>
<g id="a_edge6_Node000001_Node000007"><a xlink:title=" ">
<path fill="none" stroke="#63b8ff" d="M668.23,-258.58C697.48,-248.58 733.98,-233.23 762,-212 782.28,-196.63 800.52,-175.32 814.78,-155.9"/>
<polygon fill="none" stroke="#63b8ff" points="667.25,-255.22 658.85,-261.68 669.44,-261.87 667.25,-255.22"/>
</a>
</g>
</g>
<!-- Node8 -->
<g id="Node000008" class="node">
<title>Node8</title>
<g id="a_Node000008"><a xlink:href="classEngine_1_1Systems_1_1RenderSystem.html" target="_top" xlink:title=" ">
<polygon fill="white" stroke="none" points="1095,-164 939,-164 939,-48 1095,-48 1095,-164"/>
<text text-anchor="start" x="943.88" y="-150.5" font-family="Helvetica,sans-Serif" font-size="10.00">Engine::Systems::RenderSystem</text>
<text text-anchor="start" x="956.5" y="-134.5" font-family="Helvetica,sans-Serif" font-size="10.00">&#45;</text>
<text text-anchor="start" x="977" y="-134.5" font-family="Helvetica,sans-Serif" font-size="10.00">sprites</text>
<text text-anchor="start" x="956.5" y="-118.5" font-family="Helvetica,sans-Serif" font-size="10.00">&#45;</text>
<text text-anchor="start" x="977" y="-118.5" font-family="Helvetica,sans-Serif" font-size="10.00">spriteScrollPositions</text>
<text text-anchor="start" x="955" y="-102.5" font-family="Helvetica,sans-Serif" font-size="10.00">+</text>
<text text-anchor="start" x="977" y="-102.5" font-family="Helvetica,sans-Serif" font-size="10.00">addTexture()</text>
<text text-anchor="start" x="955" y="-86.5" font-family="Helvetica,sans-Serif" font-size="10.00">+</text>
<text text-anchor="start" x="977" y="-86.5" font-family="Helvetica,sans-Serif" font-size="10.00">addSprite()</text>
<text text-anchor="start" x="955" y="-70.5" font-family="Helvetica,sans-Serif" font-size="10.00">+</text>
<text text-anchor="start" x="977" y="-70.5" font-family="Helvetica,sans-Serif" font-size="10.00">drawSprite()</text>
<text text-anchor="start" x="955" y="-54.5" font-family="Helvetica,sans-Serif" font-size="10.00">+</text>
<text text-anchor="start" x="977" y="-54.5" font-family="Helvetica,sans-Serif" font-size="10.00">update()</text>
<polygon fill="#666666" stroke="#666666" points="939,-146 939,-146 1095,-146 1095,-146 939,-146"/>
<polygon fill="#666666" stroke="#666666" points="939,-114 939,-114 975,-114 975,-114 939,-114"/>
<polygon fill="#666666" stroke="#666666" points="975,-114 975,-114 1095,-114 1095,-114 975,-114"/>
<polygon fill="none" stroke="#666666" points="939,-48 939,-164 1095,-164 1095,-48 939,-48"/>
</a>
</g>
</g>
<!-- Node1&#45;&gt;Node8 -->
<g id="edge7_Node000001_Node000008" class="edge">
<title>Node1&#45;&gt;Node8</title>
<g id="a_edge7_Node000001_Node000008"><a xlink:title=" ">
<path fill="none" stroke="#63b8ff" d="M668.58,-273.32C733.52,-271.55 847.63,-260.92 930,-212 950.05,-200.09 967.55,-181.8 981.49,-163.81"/>
<polygon fill="none" stroke="#63b8ff" points="668.88,-269.81 658.95,-273.51 669.02,-276.81 668.88,-269.81"/>
</a>
</g>
</g>
<!-- Node9 -->
<g id="Node000009" class="node">
<title>Node9</title>
<g id="a_Node000009"><a xlink:href="classEngine_1_1Systems_1_1SoundSystem.html" target="_top" xlink:title=" ">
<polygon fill="white" stroke="none" points="1265,-140 1113,-140 1113,-72 1265,-72 1265,-140"/>
<text text-anchor="start" x="1117.75" y="-126.5" font-family="Helvetica,sans-Serif" font-size="10.00">Engine::Systems::SoundSystem</text>
<text text-anchor="start" x="1139.5" y="-110.5" font-family="Helvetica,sans-Serif" font-size="10.00">&#45;</text>
<text text-anchor="start" x="1169" y="-110.5" font-family="Helvetica,sans-Serif" font-size="10.00">sounds</text>
<text text-anchor="start" x="1138" y="-94.5" font-family="Helvetica,sans-Serif" font-size="10.00">+</text>
<text text-anchor="start" x="1169" y="-94.5" font-family="Helvetica,sans-Serif" font-size="10.00">addSound()</text>
<text text-anchor="start" x="1138" y="-78.5" font-family="Helvetica,sans-Serif" font-size="10.00">+</text>
<text text-anchor="start" x="1169" y="-78.5" font-family="Helvetica,sans-Serif" font-size="10.00">update()</text>
<polygon fill="#666666" stroke="#666666" points="1113,-122 1113,-122 1265,-122 1265,-122 1113,-122"/>
<polygon fill="#666666" stroke="#666666" points="1113,-106 1113,-106 1167,-106 1167,-106 1113,-106"/>
<polygon fill="#666666" stroke="#666666" points="1167,-106 1167,-106 1265,-106 1265,-106 1167,-106"/>
<polygon fill="none" stroke="#666666" points="1113,-72 1113,-140 1265,-140 1265,-72 1113,-72"/>
</a>
</g>
</g>
<!-- Node1&#45;&gt;Node9 -->
<g id="edge8_Node000001_Node000009" class="edge">
<title>Node1&#45;&gt;Node9</title>
<g id="a_edge8_Node000001_Node000009"><a xlink:title=" ">
<path fill="none" stroke="#63b8ff" d="M668.56,-271.39C777.4,-267.17 1030.06,-253.13 1104,-212 1133.72,-195.47 1157.04,-163.98 1171.68,-139.78"/>
<polygon fill="none" stroke="#63b8ff" points="668.62,-267.89 658.76,-271.76 668.88,-274.88 668.62,-267.89"/>
</a>
</g>
</g>
</g>
</svg>
