<?xml version="1.0" encoding="UTF-8" standalone="no"?>
<!DOCTYPE svg PUBLIC "-//W3C//DTD SVG 1.1//EN"
 "http://www.w3.org/Graphics/SVG/1.1/DTD/svg11.dtd">
<!-- Generated by graphviz version 12.1.0 (20240811.2233)
 -->
<!-- Title: Engine::Systems::Collision::update Pages: 1 -->
<svg width="475pt" height="78pt"
 viewBox="0.00 0.00 474.50 78.00" xmlns="http://www.w3.org/2000/svg" xmlns:xlink="http://www.w3.org/1999/xlink">
<g id="graph0" class="graph" transform="scale(1 1) rotate(0) translate(4 74)">
<title>Engine::Systems::Collision::update</title>
<!-- Node1 -->
<g id="Node000001" class="node">
<title>Node1</title>
<g id="a_Node000001"><a xlink:title=" ">
<polygon fill="#999999" stroke="#666666" points="134.5,-48 0,-48 0,-16 134.5,-16 134.5,-48"/>
<text text-anchor="start" x="8" y="-34.5" font-family="Helvetica,sans-Serif" font-size="10.00">Engine::Systems::Collision</text>
<text text-anchor="middle" x="67.25" y="-22.5" font-family="Helvetica,sans-Serif" font-size="10.00">::update</text>
</a>
</g>
</g>
<!-- Node2 -->
<g id="Node000002" class="node">
<title>Node2</title>
<g id="a_Node000002"><a xlink:href="classEngine_1_1Systems_1_1Collision.html#a5f50766268cf3c990d173a08b045c478" target="_top" xlink:title=" ">
<polygon fill="white" stroke="#666666" points="305,-48 170.5,-48 170.5,-16 305,-16 305,-48"/>
<text text-anchor="start" x="178.5" y="-34.5" font-family="Helvetica,sans-Serif" font-size="10.00">Engine::Systems::Collision</text>
<text text-anchor="middle" x="237.75" y="-22.5" font-family="Helvetica,sans-Serif" font-size="10.00">::checkCollision</text>
</a>
</g>
</g>
<!-- Node1&#45;&gt;Node2 -->
<g id="edge1_Node000001_Node000002" class="edge">
<title>Node1&#45;&gt;Node2</title>
<g id="a_edge1_Node000001_Node000002"><a xlink:title=" ">
<path fill="none" stroke="#63b8ff" d="M134.85,-32C142.72,-32 150.82,-32 158.83,-32"/>
<polygon fill="#63b8ff" stroke="#63b8ff" points="158.57,-35.5 168.57,-32 158.57,-28.5 158.57,-35.5"/>
</a>
</g>
</g>
<!-- Node3 -->
<g id="Node000003" class="node">
<title>Node3</title>
<g id="a_Node000003"><a xlink:href="classEngine_1_1Utils_1_1Rect.html#aea498b54eac92880d6c1f7774921619c" target="_top" xlink:title=" ">
<polygon fill="white" stroke="#666666" points="453.38,-70 354.12,-70 354.12,-38 453.38,-38 453.38,-70"/>
<text text-anchor="start" x="362.12" y="-56.5" font-family="Helvetica,sans-Serif" font-size="10.00">Engine::Utils::Rect</text>
<text text-anchor="middle" x="403.75" y="-44.5" font-family="Helvetica,sans-Serif" font-size="10.00">::intersects</text>
</a>
</g>
</g>
<!-- Node2&#45;&gt;Node3 -->
<g id="edge2_Node000002_Node000003" class="edge">
<title>Node2&#45;&gt;Node3</title>
<g id="a_edge2_Node000002_Node000003"><a xlink:title=" ">
<path fill="none" stroke="#63b8ff" d="M305.46,-40.95C317.69,-42.59 330.39,-44.29 342.42,-45.91"/>
<polygon fill="#63b8ff" stroke="#63b8ff" points="341.83,-49.36 352.21,-47.22 342.77,-42.42 341.83,-49.36"/>
</a>
</g>
</g>
<!-- Node4 -->
<g id="Node000004" class="node">
<title>Node4</title>
<g id="a_Node000004"><a xlink:href="classEngine_1_1Event.html#a096c333084c5fbac10f77048263b3066" target="_top" xlink:title=" ">
<polygon fill="white" stroke="#666666" points="466.5,-20 341,-20 341,0 466.5,0 466.5,-20"/>
<text text-anchor="middle" x="403.75" y="-6.5" font-family="Helvetica,sans-Serif" font-size="10.00">Engine::Event::setParam</text>
</a>
</g>
</g>
<!-- Node2&#45;&gt;Node4 -->
<g id="edge3_Node000002_Node000004" class="edge">
<title>Node2&#45;&gt;Node4</title>
<g id="a_edge3_Node000002_Node000004"><a xlink:title=" ">
<path fill="none" stroke="#63b8ff" d="M305.46,-23.05C313.35,-21.99 321.44,-20.91 329.42,-19.84"/>
<polygon fill="#63b8ff" stroke="#63b8ff" points="329.66,-23.34 339.1,-18.54 328.73,-16.4 329.66,-23.34"/>
</a>
</g>
</g>
</g>
</svg>
