<?xml version="1.0" encoding="UTF-8" standalone="no"?>
<!DOCTYPE svg PUBLIC "-//W3C//DTD SVG 1.1//EN"
 "http://www.w3.org/Graphics/SVG/1.1/DTD/svg11.dtd">
<!-- Generated by graphviz version 12.1.0 (20240811.2233)
 -->
<!-- Title: RtypeServer::Protocol::writeHeader Pages: 1 -->
<svg width="1012pt" height="653pt"
 viewBox="0.00 0.00 1011.50 652.67" xmlns="http://www.w3.org/2000/svg" xmlns:xlink="http://www.w3.org/1999/xlink">
<g id="graph0" class="graph" transform="scale(1 1) rotate(0) translate(4 648.67)">
<title>RtypeServer::Protocol::writeHeader</title>
<!-- Node1 -->
<g id="Node000001" class="node">
<title>Node1</title>
<g id="a_Node000001"><a xlink:title=" ">
<polygon fill="#999999" stroke="#666666" points="1003.5,-346 890.75,-346 890.75,-314 1003.5,-314 1003.5,-346"/>
<text text-anchor="start" x="898.75" y="-332.5" font-family="Helvetica,sans-Serif" font-size="10.00">RtypeServer::Protocol</text>
<text text-anchor="middle" x="947.12" y="-320.5" font-family="Helvetica,sans-Serif" font-size="10.00">::writeHeader</text>
</a>
</g>
</g>
<!-- Node2 -->
<g id="Node000002" class="node">
<title>Node2</title>
<g id="a_Node000002"><a xlink:href="classNetworkClient.html#afc8d05d54e88bce60554d9f31e9b0838" target="_top" xlink:title=" ">
<polygon fill="white" stroke="#666666" points="118.75,-617 0,-617 0,-597 118.75,-597 118.75,-617"/>
<text text-anchor="middle" x="59.38" y="-603.5" font-family="Helvetica,sans-Serif" font-size="10.00">NetworkClient::connect</text>
</a>
</g>
</g>
<!-- Node1&#45;&gt;Node2 -->
<g id="edge1_Node000001_Node000002" class="edge">
<title>Node1&#45;&gt;Node2</title>
<g id="a_edge1_Node000001_Node000002"><a xlink:title=" ">
<path fill="none" stroke="#63b8ff" d="M946.33,-357.54C945.12,-414.62 933.41,-545.61 854.75,-607 763.67,-678.08 711.03,-626 595.5,-626 595.5,-626 595.5,-626 403.88,-626 303.68,-626 187.3,-617.84 118.97,-612.22"/>
<polygon fill="#63b8ff" stroke="#63b8ff" points="949.83,-357.78 946.44,-347.74 942.83,-357.7 949.83,-357.78"/>
</a>
</g>
</g>
<!-- Node3 -->
<g id="Node000003" class="node">
<title>Node3</title>
<g id="a_Node000003"><a xlink:href="classNetworkClient.html#a529267d800eca8535bc84c1affcf2718" target="_top" xlink:title=" ">
<polygon fill="white" stroke="#666666" points="851,-560 713.5,-560 713.5,-540 851,-540 851,-560"/>
<text text-anchor="middle" x="782.25" y="-546.5" font-family="Helvetica,sans-Serif" font-size="10.00">NetworkClient::createRoom</text>
</a>
</g>
</g>
<!-- Node1&#45;&gt;Node3 -->
<g id="edge2_Node000001_Node000003" class="edge">
<title>Node1&#45;&gt;Node3</title>
<g id="a_edge2_Node000001_Node000003"><a xlink:title=" ">
<path fill="none" stroke="#63b8ff" d="M940.62,-357.33C930.75,-399.44 906.08,-480.14 854.75,-526 848.21,-531.85 840.19,-536.27 831.92,-539.63"/>
<polygon fill="#63b8ff" stroke="#63b8ff" points="944,-358.29 942.75,-347.77 937.16,-356.77 944,-358.29"/>
</a>
</g>
</g>
<!-- Node4 -->
<g id="Node000004" class="node">
<title>Node4</title>
<g id="a_Node000004"><a xlink:href="classRtypeServer_1_1UdpServer.html#ada88a91b0b6bead16ff8321837e8bd94" target="_top" xlink:title=" ">
<polygon fill="white" stroke="#666666" points="656.12,-489 532.88,-489 532.88,-457 656.12,-457 656.12,-489"/>
<text text-anchor="start" x="540.88" y="-475.5" font-family="Helvetica,sans-Serif" font-size="10.00">RtypeServer::UdpServer</text>
<text text-anchor="middle" x="594.5" y="-463.5" font-family="Helvetica,sans-Serif" font-size="10.00">::handle_message</text>
</a>
</g>
</g>
<!-- Node1&#45;&gt;Node4 -->
<g id="edge3_Node000001_Node000004" class="edge">
<title>Node1&#45;&gt;Node4</title>
<g id="a_edge3_Node000001_Node000004"><a xlink:title=" ">
<path fill="none" stroke="#63b8ff" d="M935.07,-356.64C921.15,-386.39 894.19,-433.23 854.75,-455 793.63,-488.74 711.67,-488.27 656.4,-482.62"/>
<polygon fill="#63b8ff" stroke="#63b8ff" points="938.25,-358.1 939.15,-347.54 931.86,-355.23 938.25,-358.1"/>
</a>
</g>
</g>
<!-- Node5 -->
<g id="Node000005" class="node">
<title>Node5</title>
<g id="a_Node000005"><a xlink:href="classNetworkClient.html#a3f2015048aa45b490f1ee8b47dc3b28f" target="_top" xlink:title=" ">
<polygon fill="white" stroke="#666666" points="845,-296 719.5,-296 719.5,-276 845,-276 845,-296"/>
<text text-anchor="middle" x="782.25" y="-282.5" font-family="Helvetica,sans-Serif" font-size="10.00">NetworkClient::joinRoom</text>
</a>
</g>
</g>
<!-- Node1&#45;&gt;Node5 -->
<g id="edge4_Node000001_Node000005" class="edge">
<title>Node1&#45;&gt;Node5</title>
<g id="a_edge4_Node000001_Node000005"><a xlink:title=" ">
<path fill="none" stroke="#63b8ff" d="M879.64,-311.75C871.27,-309.47 862.81,-307.17 854.75,-305 844.33,-302.19 833.05,-299.18 822.6,-296.4"/>
<polygon fill="#63b8ff" stroke="#63b8ff" points="878.54,-315.08 889.11,-314.33 880.39,-308.32 878.54,-315.08"/>
</a>
</g>
</g>
<!-- Node6 -->
<g id="Node000006" class="node">
<title>Node6</title>
<g id="a_Node000006"><a xlink:href="classNetworkClient.html#ad3d2accfc25509feb50638e5cec6dc76" target="_top" xlink:title=" ">
<polygon fill="white" stroke="#666666" points="849.12,-258 715.38,-258 715.38,-238 849.12,-238 849.12,-258"/>
<text text-anchor="middle" x="782.25" y="-244.5" font-family="Helvetica,sans-Serif" font-size="10.00">NetworkClient::leaveRoom</text>
</a>
</g>
</g>
<!-- Node1&#45;&gt;Node6 -->
<g id="edge5_Node000001_Node000006" class="edge">
<title>Node1&#45;&gt;Node6</title>
<g id="a_edge5_Node000001_Node000006"><a xlink:title=" ">
<path fill="none" stroke="#63b8ff" d="M917.68,-306.58C900.39,-293.34 877.34,-277.41 854.75,-267 847.52,-263.67 839.59,-260.84 831.74,-258.46"/>
<polygon fill="#63b8ff" stroke="#63b8ff" points="915.43,-309.26 925.46,-312.67 919.75,-303.75 915.43,-309.26"/>
</a>
</g>
</g>
<!-- Node7 -->
<g id="Node000007" class="node">
<title>Node7</title>
<g id="a_Node000007"><a xlink:href="classNetworkClient.html#a4c76dee697263665a9903aeb7149b81b" target="_top" xlink:title=" ">
<polygon fill="white" stroke="#666666" points="846.5,-598 718,-598 718,-578 846.5,-578 846.5,-598"/>
<text text-anchor="middle" x="782.25" y="-584.5" font-family="Helvetica,sans-Serif" font-size="10.00">NetworkClient::listRooms</text>
</a>
</g>
</g>
<!-- Node1&#45;&gt;Node7 -->
<g id="edge6_Node000001_Node000007" class="edge">
<title>Node1&#45;&gt;Node7</title>
<g id="a_edge6_Node000001_Node000007"><a xlink:title=" ">
<path fill="none" stroke="#63b8ff" d="M943.62,-357.6C937.6,-407.39 917.75,-512.32 854.75,-569 850.93,-572.44 846.56,-575.26 841.9,-577.59"/>
<polygon fill="#63b8ff" stroke="#63b8ff" points="947.07,-358.3 944.68,-347.97 940.11,-357.53 947.07,-358.3"/>
</a>
</g>
</g>
<!-- Node11 -->
<g id="Node000011" class="node">
<title>Node11</title>
<g id="a_Node000011"><a xlink:href="classRtypeServer_1_1UdpServer.html#ad5b8e37aeff4739ff56c64834ff489d4" target="_top" xlink:title=" ">
<polygon fill="white" stroke="#666666" points="843.88,-220 720.62,-220 720.62,-188 843.88,-188 843.88,-220"/>
<text text-anchor="start" x="728.62" y="-206.5" font-family="Helvetica,sans-Serif" font-size="10.00">RtypeServer::UdpServer</text>
<text text-anchor="middle" x="782.25" y="-194.5" font-family="Helvetica,sans-Serif" font-size="10.00">::send_ping</text>
</a>
</g>
</g>
<!-- Node1&#45;&gt;Node11 -->
<g id="edge12_Node000001_Node000011" class="edge">
<title>Node1&#45;&gt;Node11</title>
<g id="a_edge12_Node000001_Node000011"><a xlink:title=" ">
<path fill="none" stroke="#63b8ff" d="M928.68,-304.35C912.06,-281.67 885.13,-249.16 854.75,-229 849.93,-225.8 844.65,-222.96 839.22,-220.46"/>
<polygon fill="#63b8ff" stroke="#63b8ff" points="925.81,-306.36 934.47,-312.46 931.51,-302.29 925.81,-306.36"/>
</a>
</g>
</g>
<!-- Node14 -->
<g id="Node000014" class="node">
<title>Node14</title>
<g id="a_Node000014"><a xlink:href="classRtypeServer_1_1UdpServer.html#a7e9c2db44d31376da828df0be9c81d0a" target="_top" xlink:title=" ">
<polygon fill="white" stroke="#666666" points="843.88,-170 720.62,-170 720.62,-138 843.88,-138 843.88,-170"/>
<text text-anchor="start" x="728.62" y="-156.5" font-family="Helvetica,sans-Serif" font-size="10.00">RtypeServer::UdpServer</text>
<text text-anchor="middle" x="782.25" y="-144.5" font-family="Helvetica,sans-Serif" font-size="10.00">::send_pong</text>
</a>
</g>
</g>
<!-- Node1&#45;&gt;Node14 -->
<g id="edge16_Node000001_Node000014" class="edge">
<title>Node1&#45;&gt;Node14</title>
<g id="a_edge16_Node000001_Node000014"><a xlink:title=" ">
<path fill="none" stroke="#63b8ff" d="M936.61,-303.44C923.3,-269.88 896.01,-212.47 854.75,-179 850.77,-175.77 846.34,-172.94 841.69,-170.47"/>
<polygon fill="#63b8ff" stroke="#63b8ff" points="933.21,-304.33 940.05,-312.42 939.75,-301.83 933.21,-304.33"/>
</a>
</g>
</g>
<!-- Node15 -->
<g id="Node000015" class="node">
<title>Node15</title>
<g id="a_Node000015"><a xlink:href="classRtypeServer_1_1UdpServer.html#a1f4561ac6e917c681be96e80c6f72d31" target="_top" xlink:title=" ">
<polygon fill="white" stroke="#666666" points="656.12,-539 532.88,-539 532.88,-507 656.12,-507 656.12,-539"/>
<text text-anchor="start" x="540.88" y="-525.5" font-family="Helvetica,sans-Serif" font-size="10.00">RtypeServer::UdpServer</text>
<text text-anchor="middle" x="594.5" y="-513.5" font-family="Helvetica,sans-Serif" font-size="10.00">::send_room_created</text>
</a>
</g>
</g>
<!-- Node1&#45;&gt;Node15 -->
<g id="edge17_Node000001_Node000015" class="edge">
<title>Node1&#45;&gt;Node15</title>
<g id="a_edge17_Node000001_Node000015"><a xlink:title=" ">
<path fill="none" stroke="#63b8ff" d="M938.07,-357.26C926.07,-392.68 899.94,-453.59 854.75,-484 795.94,-523.58 712.73,-529.43 656.57,-527.95"/>
<polygon fill="#63b8ff" stroke="#63b8ff" points="941.4,-358.33 941.14,-347.74 934.74,-356.18 941.4,-358.33"/>
</a>
</g>
</g>
<!-- Node17 -->
<g id="Node000017" class="node">
<title>Node17</title>
<g id="a_Node000017"><a xlink:href="classRtypeServer_1_1UdpServer.html#ab6e480e2b78f9cbc75fb5ba9bbdc71f5" target="_top" xlink:title=" ">
<polygon fill="white" stroke="#666666" points="843.88,-446 720.62,-446 720.62,-414 843.88,-414 843.88,-446"/>
<text text-anchor="start" x="728.62" y="-432.5" font-family="Helvetica,sans-Serif" font-size="10.00">RtypeServer::UdpServer</text>
<text text-anchor="middle" x="782.25" y="-420.5" font-family="Helvetica,sans-Serif" font-size="10.00">::send_room_error</text>
</a>
</g>
</g>
<!-- Node1&#45;&gt;Node17 -->
<g id="edge19_Node000001_Node000017" class="edge">
<title>Node1&#45;&gt;Node17</title>
<g id="a_edge19_Node000001_Node000017"><a xlink:title=" ">
<path fill="none" stroke="#63b8ff" d="M921.98,-353.85C904.5,-370.05 879.66,-391.01 854.75,-405 849.13,-408.16 843.05,-411.02 836.88,-413.59"/>
<polygon fill="#63b8ff" stroke="#63b8ff" points="923.98,-356.78 928.84,-347.36 919.17,-351.69 923.98,-356.78"/>
</a>
</g>
</g>
<!-- Node20 -->
<g id="Node000020" class="node">
<title>Node20</title>
<g id="a_Node000020"><a xlink:href="classRtypeServer_1_1UdpServer.html#ae3593b22a1ed07c63ebf786f7667007c" target="_top" xlink:title=" ">
<polygon fill="white" stroke="#666666" points="843.88,-396 720.62,-396 720.62,-364 843.88,-364 843.88,-396"/>
<text text-anchor="start" x="728.62" y="-382.5" font-family="Helvetica,sans-Serif" font-size="10.00">RtypeServer::UdpServer</text>
<text text-anchor="middle" x="782.25" y="-370.5" font-family="Helvetica,sans-Serif" font-size="10.00">::send_room_joined</text>
</a>
</g>
</g>
<!-- Node1&#45;&gt;Node20 -->
<g id="edge25_Node000001_Node000020" class="edge">
<title>Node1&#45;&gt;Node20</title>
<g id="a_edge25_Node000001_Node000020"><a xlink:title=" ">
<path fill="none" stroke="#63b8ff" d="M882.1,-349.66C867.16,-354.24 851.41,-359.08 836.98,-363.51"/>
<polygon fill="#63b8ff" stroke="#63b8ff" points="882.81,-353.1 891.35,-346.82 880.76,-346.4 882.81,-353.1"/>
</a>
</g>
</g>
<!-- Node21 -->
<g id="Node000021" class="node">
<title>Node21</title>
<g id="a_Node000021"><a xlink:href="classRtypeServer_1_1UdpServer.html#a7583cf1fea483149a02b3f2b5fdd8cad" target="_top" xlink:title=" ">
<polygon fill="white" stroke="#666666" points="843.88,-346 720.62,-346 720.62,-314 843.88,-314 843.88,-346"/>
<text text-anchor="start" x="728.62" y="-332.5" font-family="Helvetica,sans-Serif" font-size="10.00">RtypeServer::UdpServer</text>
<text text-anchor="middle" x="782.25" y="-320.5" font-family="Helvetica,sans-Serif" font-size="10.00">::send_room_left</text>
</a>
</g>
</g>
<!-- Node1&#45;&gt;Node21 -->
<g id="edge27_Node000001_Node000021" class="edge">
<title>Node1&#45;&gt;Node21</title>
<g id="a_edge27_Node000001_Node000021"><a xlink:title=" ">
<path fill="none" stroke="#63b8ff" d="M879.13,-330C867.55,-330 855.58,-330 844.18,-330"/>
<polygon fill="#63b8ff" stroke="#63b8ff" points="879.01,-333.5 889.01,-330 879.01,-326.5 879.01,-333.5"/>
</a>
</g>
</g>
<!-- Node22 -->
<g id="Node000022" class="node">
<title>Node22</title>
<g id="a_Node000022"><a xlink:href="classRtypeServer_1_1UdpServer.html#ad76118bb574c0aebbd3f2fb0fb978ae2" target="_top" xlink:title=" ">
<polygon fill="white" stroke="#666666" points="843.88,-120 720.62,-120 720.62,-88 843.88,-88 843.88,-120"/>
<text text-anchor="start" x="728.62" y="-106.5" font-family="Helvetica,sans-Serif" font-size="10.00">RtypeServer::UdpServer</text>
<text text-anchor="middle" x="782.25" y="-94.5" font-family="Helvetica,sans-Serif" font-size="10.00">::send_room_list</text>
</a>
</g>
</g>
<!-- Node1&#45;&gt;Node22 -->
<g id="edge29_Node000001_Node000022" class="edge">
<title>Node1&#45;&gt;Node22</title>
<g id="a_edge29_Node000001_Node000022"><a xlink:title=" ">
<path fill="none" stroke="#63b8ff" d="M940.83,-302.39C931.19,-259.41 906.76,-176.52 854.75,-129 851.16,-125.72 847.11,-122.86 842.81,-120.38"/>
<polygon fill="#63b8ff" stroke="#63b8ff" points="937.4,-303.1 942.9,-312.15 944.25,-301.64 937.4,-303.1"/>
</a>
</g>
</g>
<!-- Node24 -->
<g id="Node000024" class="node">
<title>Node24</title>
<g id="a_Node000024"><a xlink:href="classRtypeServer_1_1UdpServer.html#a55310c56cfdff32be53565892e398547" target="_top" xlink:title=" ">
<polygon fill="white" stroke="#666666" points="843.88,-70 720.62,-70 720.62,-38 843.88,-38 843.88,-70"/>
<text text-anchor="start" x="728.62" y="-56.5" font-family="Helvetica,sans-Serif" font-size="10.00">RtypeServer::UdpServer</text>
<text text-anchor="middle" x="782.25" y="-44.5" font-family="Helvetica,sans-Serif" font-size="10.00">::send_welcome</text>
</a>
</g>
</g>
<!-- Node1&#45;&gt;Node24 -->
<g id="edge31_Node000001_Node000024" class="edge">
<title>Node1&#45;&gt;Node24</title>
<g id="a_edge31_Node000001_Node000024"><a xlink:title=" ">
<path fill="none" stroke="#63b8ff" d="M943.7,-302.27C937.77,-251.12 918.01,-141.46 854.75,-79 851.47,-75.77 847.76,-72.95 843.78,-70.5"/>
<polygon fill="#63b8ff" stroke="#63b8ff" points="940.21,-302.58 944.74,-312.16 947.17,-301.85 940.21,-302.58"/>
</a>
</g>
</g>
<!-- Node25 -->
<g id="Node000025" class="node">
<title>Node25</title>
<g id="a_Node000025"><a xlink:href="classNetworkClient.html#a7216687fbd6c8f6085d8a78c00204602" target="_top" xlink:title=" ">
<polygon fill="white" stroke="#666666" points="854.75,-20 709.75,-20 709.75,0 854.75,0 854.75,-20"/>
<text text-anchor="middle" x="782.25" y="-6.5" font-family="Helvetica,sans-Serif" font-size="10.00">NetworkClient::sendMessage</text>
</a>
</g>
</g>
<!-- Node1&#45;&gt;Node25 -->
<g id="edge32_Node000001_Node000025" class="edge">
<title>Node1&#45;&gt;Node25</title>
<g id="a_edge32_Node000001_Node000025"><a xlink:title=" ">
<path fill="none" stroke="#63b8ff" d="M946.16,-302.15C944.65,-242.98 932.51,-104.08 854.75,-29 851.24,-25.61 847.19,-22.81 842.85,-20.49"/>
<polygon fill="#63b8ff" stroke="#63b8ff" points="942.65,-302.05 946.31,-311.99 949.65,-301.94 942.65,-302.05"/>
</a>
</g>
</g>
<!-- Node8 -->
<g id="Node000008" class="node">
<title>Node8</title>
<g id="a_Node000008"><a xlink:href="classNetworkClient.html#a3db47d9224d5319ffca153c4a4784329" target="_top" xlink:title=" ">
<polygon fill="white" stroke="#666666" points="673.75,-598 515.25,-598 515.25,-578 673.75,-578 673.75,-598"/>
<text text-anchor="middle" x="594.5" y="-584.5" font-family="Helvetica,sans-Serif" font-size="10.00">NetworkClient::processMessage</text>
</a>
</g>
</g>
<!-- Node7&#45;&gt;Node8 -->
<g id="edge7_Node000007_Node000008" class="edge">
<title>Node7&#45;&gt;Node8</title>
<g id="a_edge7_Node000007_Node000008"><a xlink:title=" ">
<path fill="none" stroke="#63b8ff" d="M706.27,-588C695.71,-588 684.82,-588 674.19,-588"/>
<polygon fill="#63b8ff" stroke="#63b8ff" points="706.07,-591.5 716.07,-588 706.07,-584.5 706.07,-591.5"/>
</a>
</g>
</g>
<!-- Node9 -->
<g id="Node000009" class="node">
<title>Node9</title>
<g id="a_Node000009"><a xlink:href="classNetworkClient.html#ae2e39148013eaea326c8ae242ab341bc" target="_top" xlink:title=" ">
<polygon fill="white" stroke="#666666" points="479.25,-598 330.5,-598 330.5,-578 479.25,-578 479.25,-598"/>
<text text-anchor="middle" x="404.88" y="-584.5" font-family="Helvetica,sans-Serif" font-size="10.00">NetworkClient::handleReceive</text>
</a>
</g>
</g>
<!-- Node8&#45;&gt;Node9 -->
<g id="edge8_Node000008_Node000009" class="edge">
<title>Node8&#45;&gt;Node9</title>
<g id="a_edge8_Node000008_Node000009"><a xlink:title=" ">
<path fill="none" stroke="#63b8ff" d="M503.65,-588C495.58,-588 487.46,-588 479.55,-588"/>
<polygon fill="#63b8ff" stroke="#63b8ff" points="503.5,-591.5 513.5,-588 503.5,-584.5 503.5,-591.5"/>
</a>
</g>
</g>
<!-- Node10 -->
<g id="Node000010" class="node">
<title>Node10</title>
<g id="a_Node000010"><a xlink:href="classNetworkClient.html#a9202769a61813d85199c6249ac416705" target="_top" xlink:title=" ">
<polygon fill="white" stroke="#666666" points="294.5,-598 154.75,-598 154.75,-578 294.5,-578 294.5,-598"/>
<text text-anchor="middle" x="224.62" y="-584.5" font-family="Helvetica,sans-Serif" font-size="10.00">NetworkClient::startReceive</text>
</a>
</g>
</g>
<!-- Node9&#45;&gt;Node10 -->
<g id="edge9_Node000009_Node000010" class="edge">
<title>Node9&#45;&gt;Node10</title>
<g id="a_edge9_Node000009_Node000010"><a xlink:title=" ">
<path fill="none" stroke="#63b8ff" d="M318.77,-581.26C310.73,-581.23 302.65,-581.28 294.78,-581.4"/>
<polygon fill="#63b8ff" stroke="#63b8ff" points="318.55,-584.75 328.57,-581.33 318.6,-577.75 318.55,-584.75"/>
</a>
</g>
</g>
<!-- Node10&#45;&gt;Node2 -->
<g id="edge10_Node000010_Node000002" class="edge">
<title>Node10&#45;&gt;Node2</title>
<g id="a_edge10_Node000010_Node000002"><a xlink:title=" ">
<path fill="none" stroke="#63b8ff" d="M143.04,-597.38C134.99,-598.32 126.92,-599.26 119.15,-600.16"/>
<polygon fill="#63b8ff" stroke="#63b8ff" points="143.36,-600.87 152.89,-596.23 142.55,-593.91 143.36,-600.87"/>
</a>
</g>
</g>
<!-- Node10&#45;&gt;Node9 -->
<g id="edge11_Node000010_Node000009" class="edge">
<title>Node10&#45;&gt;Node9</title>
<g id="a_edge11_Node000010_Node000009"><a xlink:title=" ">
<path fill="none" stroke="#63b8ff" d="M306.02,-594.72C314.04,-594.77 322.15,-594.75 330.09,-594.66"/>
<polygon fill="#63b8ff" stroke="#63b8ff" points="306.33,-591.22 296.29,-594.61 306.26,-598.22 306.33,-591.22"/>
</a>
</g>
</g>
<!-- Node12 -->
<g id="Node000012" class="node">
<title>Node12</title>
<g id="a_Node000012"><a xlink:href="classRtypeServer_1_1UdpServer.html#a5a4df9d03e0632f28af7c03394112ee1" target="_top" xlink:title=" ">
<polygon fill="white" stroke="#666666" points="656.12,-220 532.88,-220 532.88,-188 656.12,-188 656.12,-220"/>
<text text-anchor="start" x="540.88" y="-206.5" font-family="Helvetica,sans-Serif" font-size="10.00">RtypeServer::UdpServer</text>
<text text-anchor="middle" x="594.5" y="-194.5" font-family="Helvetica,sans-Serif" font-size="10.00">::start_heartbeat</text>
</a>
</g>
</g>
<!-- Node11&#45;&gt;Node12 -->
<g id="edge13_Node000011_Node000012" class="edge">
<title>Node11&#45;&gt;Node12</title>
<g id="a_edge13_Node000011_Node000012"><a xlink:title=" ">
<path fill="none" stroke="#63b8ff" d="M708.97,-204C691.67,-204 673.36,-204 656.62,-204"/>
<polygon fill="#63b8ff" stroke="#63b8ff" points="708.66,-207.5 718.66,-204 708.66,-200.5 708.66,-207.5"/>
</a>
</g>
</g>
<!-- Node12&#45;&gt;Node12 -->
<g id="edge14_Node000012_Node000012" class="edge">
<title>Node12&#45;&gt;Node12</title>
<g id="a_edge14_Node000012_Node000012"><a xlink:title=" ">
<path fill="none" stroke="#63b8ff" d="M625.79,-231.71C620.57,-235.48 610.14,-238 594.5,-238 565.9,-238 554.72,-229.58 560.98,-220.44"/>
<polygon fill="#63b8ff" stroke="#63b8ff" points="629.22,-232.42 627.72,-221.93 622.35,-231.06 629.22,-232.42"/>
</a>
</g>
</g>
<!-- Node13 -->
<g id="Node000013" class="node">
<title>Node13</title>
<g id="a_Node000013"><a xlink:href="classRtypeServer_1_1UdpServer.html#a0ea43ddc4dab4340cd0ff10b6e51249c" target="_top" xlink:title=" ">
<polygon fill="white" stroke="#666666" points="466.5,-220 343.25,-220 343.25,-188 466.5,-188 466.5,-220"/>
<text text-anchor="start" x="351.25" y="-206.5" font-family="Helvetica,sans-Serif" font-size="10.00">RtypeServer::UdpServer</text>
<text text-anchor="middle" x="404.88" y="-194.5" font-family="Helvetica,sans-Serif" font-size="10.00">::UdpServer</text>
</a>
</g>
</g>
<!-- Node12&#45;&gt;Node13 -->
<g id="edge15_Node000012_Node000013" class="edge">
<title>Node12&#45;&gt;Node13</title>
<g id="a_edge15_Node000012_Node000013"><a xlink:title=" ">
<path fill="none" stroke="#63b8ff" d="M521.26,-204C503.28,-204 484.18,-204 466.81,-204"/>
<polygon fill="#63b8ff" stroke="#63b8ff" points="521.07,-207.5 531.07,-204 521.07,-200.5 521.07,-207.5"/>
</a>
</g>
</g>
<!-- Node16 -->
<g id="Node000016" class="node">
<title>Node16</title>
<g id="a_Node000016"><a xlink:href="classRtypeServer_1_1UdpServer.html#a8edbc5c835a5d23856953e06f7877b8d" target="_top" xlink:title=" ">
<polygon fill="white" stroke="#666666" points="466.5,-445 343.25,-445 343.25,-413 466.5,-413 466.5,-445"/>
<text text-anchor="start" x="351.25" y="-431.5" font-family="Helvetica,sans-Serif" font-size="10.00">RtypeServer::UdpServer</text>
<text text-anchor="middle" x="404.88" y="-419.5" font-family="Helvetica,sans-Serif" font-size="10.00">::handle_create_room</text>
</a>
</g>
</g>
<!-- Node15&#45;&gt;Node16 -->
<g id="edge18_Node000015_Node000016" class="edge">
<title>Node15&#45;&gt;Node16</title>
<g id="a_edge18_Node000015_Node000016"><a xlink:title=" ">
<path fill="none" stroke="#63b8ff" d="M525.98,-502.65C522.31,-501.17 518.72,-499.61 515.25,-498 483.3,-483.11 449.4,-460.53 427.96,-445.3"/>
<polygon fill="#63b8ff" stroke="#63b8ff" points="524.43,-505.8 535.02,-506.1 526.92,-499.26 524.43,-505.8"/>
</a>
</g>
</g>
<!-- Node17&#45;&gt;Node4 -->
<g id="edge24_Node000017_Node000004" class="edge">
<title>Node17&#45;&gt;Node4</title>
<g id="a_edge24_Node000017_Node000004"><a xlink:title=" ">
<path fill="none" stroke="#63b8ff" d="M708.97,-446.73C691.67,-450.74 673.36,-454.98 656.62,-458.85"/>
<polygon fill="#63b8ff" stroke="#63b8ff" points="709.74,-450.15 718.7,-444.48 708.16,-443.33 709.74,-450.15"/>
</a>
</g>
</g>
<!-- Node17&#45;&gt;Node16 -->
<g id="edge20_Node000017_Node000016" class="edge">
<title>Node17&#45;&gt;Node16</title>
<g id="a_edge20_Node000017_Node000016"><a xlink:title=" ">
<path fill="none" stroke="#63b8ff" d="M709.12,-429.81C638.8,-429.62 533.06,-429.34 466.83,-429.16"/>
<polygon fill="#63b8ff" stroke="#63b8ff" points="709,-433.31 719.01,-429.83 709.02,-426.31 709,-433.31"/>
</a>
</g>
</g>
<!-- Node18 -->
<g id="Node000018" class="node">
<title>Node18</title>
<g id="a_Node000018"><a xlink:href="classRtypeServer_1_1UdpServer.html#ad6474bca80e8ede6d6bbf8ff3524c05e" target="_top" xlink:title=" ">
<polygon fill="white" stroke="#666666" points="656.12,-401 532.88,-401 532.88,-369 656.12,-369 656.12,-401"/>
<text text-anchor="start" x="540.88" y="-387.5" font-family="Helvetica,sans-Serif" font-size="10.00">RtypeServer::UdpServer</text>
<text text-anchor="middle" x="594.5" y="-375.5" font-family="Helvetica,sans-Serif" font-size="10.00">::handle_join_room</text>
</a>
</g>
</g>
<!-- Node17&#45;&gt;Node18 -->
<g id="edge21_Node000017_Node000018" class="edge">
<title>Node17&#45;&gt;Node18</title>
<g id="a_edge21_Node000017_Node000018"><a xlink:title=" ">
<path fill="none" stroke="#63b8ff" d="M709.47,-412.61C692.02,-408.38 673.52,-403.9 656.62,-399.81"/>
<polygon fill="#63b8ff" stroke="#63b8ff" points="708.16,-415.89 718.7,-414.85 709.81,-409.09 708.16,-415.89"/>
</a>
</g>
</g>
<!-- Node19 -->
<g id="Node000019" class="node">
<title>Node19</title>
<g id="a_Node000019"><a xlink:href="classRtypeServer_1_1UdpServer.html#aabf9ebd666d71e6c525ec9553ab2191e" target="_top" xlink:title=" ">
<polygon fill="white" stroke="#666666" points="656.12,-349 532.88,-349 532.88,-317 656.12,-317 656.12,-349"/>
<text text-anchor="start" x="540.88" y="-335.5" font-family="Helvetica,sans-Serif" font-size="10.00">RtypeServer::UdpServer</text>
<text text-anchor="middle" x="594.5" y="-323.5" font-family="Helvetica,sans-Serif" font-size="10.00">::handle_leave_room</text>
</a>
</g>
</g>
<!-- Node17&#45;&gt;Node19 -->
<g id="edge23_Node000017_Node000019" class="edge">
<title>Node17&#45;&gt;Node19</title>
<g id="a_edge23_Node000017_Node000019"><a xlink:title=" ">
<path fill="none" stroke="#63b8ff" d="M714.66,-408.23C712.98,-407.2 711.34,-406.12 709.75,-405 688.85,-390.2 694.68,-374.76 673.75,-360 668,-355.94 661.58,-352.45 654.96,-349.45"/>
<polygon fill="#63b8ff" stroke="#63b8ff" points="712.92,-411.27 723.38,-412.95 716.25,-405.11 712.92,-411.27"/>
</a>
</g>
</g>
<!-- Node18&#45;&gt;Node16 -->
<g id="edge22_Node000018_Node000016" class="edge">
<title>Node18&#45;&gt;Node16</title>
<g id="a_edge22_Node000018_Node000016"><a xlink:title=" ">
<path fill="none" stroke="#63b8ff" d="M521.52,-401.88C503.46,-406.12 484.26,-410.62 466.81,-414.71"/>
<polygon fill="#63b8ff" stroke="#63b8ff" points="522.17,-405.32 531.11,-399.63 520.57,-398.51 522.17,-405.32"/>
</a>
</g>
</g>
<!-- Node20&#45;&gt;Node18 -->
<g id="edge26_Node000020_Node000018" class="edge">
<title>Node20&#45;&gt;Node18</title>
<g id="a_edge26_Node000020_Node000018"><a xlink:title=" ">
<path fill="none" stroke="#63b8ff" d="M708.97,-381.95C691.67,-382.41 673.36,-382.9 656.62,-383.35"/>
<polygon fill="#63b8ff" stroke="#63b8ff" points="708.76,-385.45 718.66,-381.68 708.57,-378.46 708.76,-385.45"/>
</a>
</g>
</g>
<!-- Node21&#45;&gt;Node19 -->
<g id="edge28_Node000021_Node000019" class="edge">
<title>Node21&#45;&gt;Node19</title>
<g id="a_edge28_Node000021_Node000019"><a xlink:title=" ">
<path fill="none" stroke="#63b8ff" d="M708.97,-331.17C691.67,-331.45 673.36,-331.74 656.62,-332.01"/>
<polygon fill="#63b8ff" stroke="#63b8ff" points="708.72,-334.67 718.66,-331.01 708.6,-327.67 708.72,-334.67"/>
</a>
</g>
</g>
<!-- Node23 -->
<g id="Node000023" class="node">
<title>Node23</title>
<g id="a_Node000023"><a xlink:href="classRtypeServer_1_1UdpServer.html#aea11fdab349503f7ef180f35895ad575" target="_top" xlink:title=" ">
<polygon fill="white" stroke="#666666" points="656.12,-120 532.88,-120 532.88,-88 656.12,-88 656.12,-120"/>
<text text-anchor="start" x="540.88" y="-106.5" font-family="Helvetica,sans-Serif" font-size="10.00">RtypeServer::UdpServer</text>
<text text-anchor="middle" x="594.5" y="-94.5" font-family="Helvetica,sans-Serif" font-size="10.00">::handle_list_rooms</text>
</a>
</g>
</g>
<!-- Node22&#45;&gt;Node23 -->
<g id="edge30_Node000022_Node000023" class="edge">
<title>Node22&#45;&gt;Node23</title>
<g id="a_edge30_Node000022_Node000023"><a xlink:title=" ">
<path fill="none" stroke="#63b8ff" d="M708.97,-104C691.67,-104 673.36,-104 656.62,-104"/>
<polygon fill="#63b8ff" stroke="#63b8ff" points="708.66,-107.5 718.66,-104 708.66,-100.5 708.66,-107.5"/>
</a>
</g>
</g>
</g>
</svg>
