<?xml version="1.0" encoding="UTF-8" standalone="no"?>
<!DOCTYPE svg PUBLIC "-//W3C//DTD SVG 1.1//EN"
 "http://www.w3.org/Graphics/SVG/1.1/DTD/svg11.dtd">
<!-- Generated by graphviz version 12.1.0 (20240811.2233)
 -->
<!-- Title: NetworkClient::handleReceive Pages: 1 -->
<svg width="689pt" height="450pt"
 viewBox="0.00 0.00 688.50 450.00" xmlns="http://www.w3.org/2000/svg" xmlns:xlink="http://www.w3.org/1999/xlink">
<g id="graph0" class="graph" transform="scale(1 1) rotate(0) translate(4 446)">
<title>NetworkClient::handleReceive</title>
<!-- Node1 -->
<g id="Node000001" class="node">
<title>Node1</title>
<g id="a_Node000001"><a xlink:title=" ">
<polygon fill="#999999" stroke="#666666" points="148.75,-188 0,-188 0,-168 148.75,-168 148.75,-188"/>
<text text-anchor="middle" x="74.38" y="-174.5" font-family="Helvetica,sans-Serif" font-size="10.00">NetworkClient::handleReceive</text>
</a>
</g>
</g>
<!-- Node2 -->
<g id="Node000002" class="node">
<title>Node2</title>
<g id="a_Node000002"><a xlink:href="classNetworkClient.html#a3db47d9224d5319ffca153c4a4784329" target="_top" xlink:title=" ">
<polygon fill="white" stroke="#666666" points="343.25,-226 184.75,-226 184.75,-206 343.25,-206 343.25,-226"/>
<text text-anchor="middle" x="264" y="-212.5" font-family="Helvetica,sans-Serif" font-size="10.00">NetworkClient::processMessage</text>
</a>
</g>
</g>
<!-- Node1&#45;&gt;Node2 -->
<g id="edge1_Node000001_Node000002" class="edge">
<title>Node1&#45;&gt;Node2</title>
<g id="a_edge1_Node000001_Node000002"><a xlink:title=" ">
<path fill="none" stroke="#63b8ff" d="M127.14,-188.48C149.8,-193.07 176.59,-198.5 200.36,-203.31"/>
<polygon fill="#63b8ff" stroke="#63b8ff" points="199.42,-206.69 209.92,-205.25 200.81,-199.83 199.42,-206.69"/>
</a>
</g>
</g>
<!-- Node14 -->
<g id="Node000014" class="node">
<title>Node14</title>
<g id="a_Node000014"><a xlink:href="classNetworkClient.html#a9202769a61813d85199c6249ac416705" target="_top" xlink:title=" ">
<polygon fill="white" stroke="#666666" points="333.88,-188 194.12,-188 194.12,-168 333.88,-168 333.88,-188"/>
<text text-anchor="middle" x="264" y="-174.5" font-family="Helvetica,sans-Serif" font-size="10.00">NetworkClient::startReceive</text>
</a>
</g>
</g>
<!-- Node1&#45;&gt;Node14 -->
<g id="edge13_Node000001_Node000014" class="edge">
<title>Node1&#45;&gt;Node14</title>
<g id="a_edge13_Node000001_Node000014"><a xlink:title=" ">
<path fill="none" stroke="#63b8ff" d="M148.99,-171.39C159.96,-171.24 171.32,-171.21 182.43,-171.31"/>
<polygon fill="#63b8ff" stroke="#63b8ff" points="182.33,-174.81 192.37,-171.44 182.42,-167.81 182.33,-174.81"/>
</a>
</g>
</g>
<!-- Node3 -->
<g id="Node000003" class="node">
<title>Node3</title>
<g id="a_Node000003"><a xlink:href="classNetworkClient.html#a4c76dee697263665a9903aeb7149b81b" target="_top" xlink:title=" ">
<polygon fill="white" stroke="#666666" points="508.12,-420 379.62,-420 379.62,-400 508.12,-400 508.12,-420"/>
<text text-anchor="middle" x="443.88" y="-406.5" font-family="Helvetica,sans-Serif" font-size="10.00">NetworkClient::listRooms</text>
</a>
</g>
</g>
<!-- Node2&#45;&gt;Node3 -->
<g id="edge2_Node000002_Node000003" class="edge">
<title>Node2&#45;&gt;Node3</title>
<g id="a_edge2_Node000002_Node000003"><a xlink:title=" ">
<path fill="none" stroke="#63b8ff" d="M268.66,-226.08C280.07,-256.01 317.9,-345.2 379.25,-391 380.98,-392.29 382.8,-393.5 384.69,-394.62"/>
<polygon fill="#63b8ff" stroke="#63b8ff" points="382.7,-397.54 393.2,-398.91 385.84,-391.29 382.7,-397.54"/>
</a>
</g>
</g>
<!-- Node6 -->
<g id="Node000006" class="node">
<title>Node6</title>
<g id="a_Node000006"><a xlink:href="classRtypeServer_1_1Protocol.html#a7ae416c1a86e67eb7500bd81868540cb" target="_top" xlink:title=" ">
<polygon fill="white" stroke="#666666" points="500.25,-382 387.5,-382 387.5,-350 500.25,-350 500.25,-382"/>
<text text-anchor="start" x="395.5" y="-368.5" font-family="Helvetica,sans-Serif" font-size="10.00">RtypeServer::Protocol</text>
<text text-anchor="middle" x="443.88" y="-356.5" font-family="Helvetica,sans-Serif" font-size="10.00">::readHeader</text>
</a>
</g>
</g>
<!-- Node2&#45;&gt;Node6 -->
<g id="edge5_Node000002_Node000006" class="edge">
<title>Node2&#45;&gt;Node6</title>
<g id="a_edge5_Node000002_Node000006"><a xlink:title=" ">
<path fill="none" stroke="#63b8ff" d="M271.81,-226.19C287.89,-249.55 330.56,-307.52 379.25,-341 380.83,-342.09 382.46,-343.14 384.14,-344.15"/>
<polygon fill="#63b8ff" stroke="#63b8ff" points="382.3,-347.13 392.76,-348.82 385.63,-340.98 382.3,-347.13"/>
</a>
</g>
</g>
<!-- Node7 -->
<g id="Node000007" class="node">
<title>Node7</title>
<g id="a_Node000007"><a xlink:href="classRtypeServer_1_1Protocol.html#aefe182e0b8207a9b0c5c9314fc9bcc24" target="_top" xlink:title=" ">
<polygon fill="white" stroke="#666666" points="505.88,-332 381.88,-332 381.88,-300 505.88,-300 505.88,-332"/>
<text text-anchor="start" x="389.88" y="-318.5" font-family="Helvetica,sans-Serif" font-size="10.00">RtypeServer::Protocol</text>
<text text-anchor="middle" x="443.88" y="-306.5" font-family="Helvetica,sans-Serif" font-size="10.00">::readRoomCreatedBody</text>
</a>
</g>
</g>
<!-- Node2&#45;&gt;Node7 -->
<g id="edge6_Node000002_Node000007" class="edge">
<title>Node2&#45;&gt;Node7</title>
<g id="a_edge6_Node000002_Node000007"><a xlink:title=" ">
<path fill="none" stroke="#63b8ff" d="M278.85,-226.46C299.79,-241.94 341.11,-271.26 379.25,-291 381.79,-292.31 384.41,-293.6 387.08,-294.85"/>
<polygon fill="#63b8ff" stroke="#63b8ff" points="385.58,-298.02 396.14,-298.9 388.43,-291.63 385.58,-298.02"/>
</a>
</g>
</g>
<!-- Node8 -->
<g id="Node000008" class="node">
<title>Node8</title>
<g id="a_Node000008"><a xlink:href="classRtypeServer_1_1Protocol.html#ad791c08d720fad6c97eb1281c0d3f793" target="_top" xlink:title=" ">
<polygon fill="white" stroke="#666666" points="500.25,-282 387.5,-282 387.5,-250 500.25,-250 500.25,-282"/>
<text text-anchor="start" x="395.5" y="-268.5" font-family="Helvetica,sans-Serif" font-size="10.00">RtypeServer::Protocol</text>
<text text-anchor="middle" x="443.88" y="-256.5" font-family="Helvetica,sans-Serif" font-size="10.00">::readRoomErrorBody</text>
</a>
</g>
</g>
<!-- Node2&#45;&gt;Node8 -->
<g id="edge7_Node000002_Node000008" class="edge">
<title>Node2&#45;&gt;Node8</title>
<g id="a_edge7_Node000002_Node000008"><a xlink:title=" ">
<path fill="none" stroke="#63b8ff" d="M302.29,-226.48C323.67,-232.49 351.16,-240.22 376.14,-247.24"/>
<polygon fill="#63b8ff" stroke="#63b8ff" points="375.01,-250.56 385.59,-249.9 376.91,-243.82 375.01,-250.56"/>
</a>
</g>
</g>
<!-- Node9 -->
<g id="Node000009" class="node">
<title>Node9</title>
<g id="a_Node000009"><a xlink:href="classRtypeServer_1_1Protocol.html#afe33d8c3050627d0039de4bf29dcb5a1" target="_top" xlink:title=" ">
<polygon fill="white" stroke="#666666" points="502.88,-232 384.88,-232 384.88,-200 502.88,-200 502.88,-232"/>
<text text-anchor="start" x="392.88" y="-218.5" font-family="Helvetica,sans-Serif" font-size="10.00">RtypeServer::Protocol</text>
<text text-anchor="middle" x="443.88" y="-206.5" font-family="Helvetica,sans-Serif" font-size="10.00">::readRoomJoinedBody</text>
</a>
</g>
</g>
<!-- Node2&#45;&gt;Node9 -->
<g id="edge8_Node000002_Node000009" class="edge">
<title>Node2&#45;&gt;Node9</title>
<g id="a_edge8_Node000002_Node000009"><a xlink:title=" ">
<path fill="none" stroke="#63b8ff" d="M343.54,-216C353.44,-216 363.51,-216 373.26,-216"/>
<polygon fill="#63b8ff" stroke="#63b8ff" points="373.01,-219.5 383.01,-216 373.01,-212.5 373.01,-219.5"/>
</a>
</g>
</g>
<!-- Node10 -->
<g id="Node000010" class="node">
<title>Node10</title>
<g id="a_Node000010"><a xlink:href="classRtypeServer_1_1Protocol.html#abde690c7dc5ee22f6e646cbbf7523b3b" target="_top" xlink:title=" ">
<polygon fill="white" stroke="#666666" points="500.25,-182 387.5,-182 387.5,-150 500.25,-150 500.25,-182"/>
<text text-anchor="start" x="395.5" y="-168.5" font-family="Helvetica,sans-Serif" font-size="10.00">RtypeServer::Protocol</text>
<text text-anchor="middle" x="443.88" y="-156.5" font-family="Helvetica,sans-Serif" font-size="10.00">::readRoomLeftBody</text>
</a>
</g>
</g>
<!-- Node2&#45;&gt;Node10 -->
<g id="edge9_Node000002_Node000010" class="edge">
<title>Node2&#45;&gt;Node10</title>
<g id="a_edge9_Node000002_Node000010"><a xlink:title=" ">
<path fill="none" stroke="#63b8ff" d="M310.23,-205.54C321.08,-202.88 332.61,-199.95 343.25,-197 355.6,-193.58 368.74,-189.68 381.29,-185.83"/>
<polygon fill="#63b8ff" stroke="#63b8ff" points="382.16,-189.23 390.68,-182.92 380.09,-182.54 382.16,-189.23"/>
</a>
</g>
</g>
<!-- Node11 -->
<g id="Node000011" class="node">
<title>Node11</title>
<g id="a_Node000011"><a xlink:href="classRtypeServer_1_1Protocol.html#ad9b727fe0be0c583db5a98d5b5b3a04b" target="_top" xlink:title=" ">
<polygon fill="white" stroke="#666666" points="500.25,-132 387.5,-132 387.5,-100 500.25,-100 500.25,-132"/>
<text text-anchor="start" x="395.5" y="-118.5" font-family="Helvetica,sans-Serif" font-size="10.00">RtypeServer::Protocol</text>
<text text-anchor="middle" x="443.88" y="-106.5" font-family="Helvetica,sans-Serif" font-size="10.00">::readRoomListBody</text>
</a>
</g>
</g>
<!-- Node2&#45;&gt;Node11 -->
<g id="edge10_Node000002_Node000011" class="edge">
<title>Node2&#45;&gt;Node11</title>
<g id="a_edge10_Node000002_Node000011"><a xlink:title=" ">
<path fill="none" stroke="#63b8ff" d="M327.6,-205.51C333.15,-203.21 338.47,-200.41 343.25,-197 367.35,-179.84 356.37,-159.76 379.25,-141 380.36,-140.09 381.51,-139.21 382.68,-138.36"/>
<polygon fill="#63b8ff" stroke="#63b8ff" points="384.32,-141.47 390.94,-133.2 380.61,-135.53 384.32,-141.47"/>
</a>
</g>
</g>
<!-- Node12 -->
<g id="Node000012" class="node">
<title>Node12</title>
<g id="a_Node000012"><a xlink:href="classRtypeServer_1_1Protocol.html#a1d59245eae226e073600c4c8157388c0" target="_top" xlink:title=" ">
<polygon fill="white" stroke="#666666" points="508.5,-82 379.25,-82 379.25,-50 508.5,-50 508.5,-82"/>
<text text-anchor="start" x="387.25" y="-68.5" font-family="Helvetica,sans-Serif" font-size="10.00">RtypeServer::Protocol</text>
<text text-anchor="middle" x="443.88" y="-56.5" font-family="Helvetica,sans-Serif" font-size="10.00">::readRoomMessageBody</text>
</a>
</g>
</g>
<!-- Node2&#45;&gt;Node12 -->
<g id="edge11_Node000002_Node000012" class="edge">
<title>Node2&#45;&gt;Node12</title>
<g id="a_edge11_Node000002_Node000012"><a xlink:title=" ">
<path fill="none" stroke="#63b8ff" d="M330.81,-205.55C335.32,-203.21 339.54,-200.4 343.25,-197 379.96,-163.42 344.9,-127 379.25,-91 379.74,-90.49 380.23,-89.99 380.74,-89.5"/>
<polygon fill="#63b8ff" stroke="#63b8ff" points="382.9,-92.26 388.62,-83.34 378.59,-86.75 382.9,-92.26"/>
</a>
</g>
</g>
<!-- Node13 -->
<g id="Node000013" class="node">
<title>Node13</title>
<g id="a_Node000013"><a xlink:href="classRtypeServer_1_1Protocol.html#ac5cd35b625c214fe377e3efead2f4f8d" target="_top" xlink:title=" ">
<polygon fill="white" stroke="#666666" points="500.25,-32 387.5,-32 387.5,0 500.25,0 500.25,-32"/>
<text text-anchor="start" x="395.5" y="-18.5" font-family="Helvetica,sans-Serif" font-size="10.00">RtypeServer::Protocol</text>
<text text-anchor="middle" x="443.88" y="-6.5" font-family="Helvetica,sans-Serif" font-size="10.00">::readWelcomeBody</text>
</a>
</g>
</g>
<!-- Node2&#45;&gt;Node13 -->
<g id="edge12_Node000002_Node000013" class="edge">
<title>Node2&#45;&gt;Node13</title>
<g id="a_edge12_Node000002_Node000013"><a xlink:title=" ">
<path fill="none" stroke="#63b8ff" d="M331.94,-205.54C336.07,-203.2 339.91,-200.38 343.25,-197 393.28,-146.4 332.78,-94.89 379.25,-41 379.6,-40.6 379.95,-40.2 380.32,-39.81"/>
<polygon fill="#63b8ff" stroke="#63b8ff" points="382.39,-42.64 387.7,-33.47 377.83,-37.33 382.39,-42.64"/>
</a>
</g>
</g>
<!-- Node4 -->
<g id="Node000004" class="node">
<title>Node4</title>
<g id="a_Node000004"><a xlink:href="classNetworkClient.html#ad307cf1f5e6ff844ef8c1e106df510f5" target="_top" xlink:title=" ">
<polygon fill="white" stroke="#666666" points="680.5,-442 544.5,-442 544.5,-422 680.5,-422 680.5,-442"/>
<text text-anchor="middle" x="612.5" y="-428.5" font-family="Helvetica,sans-Serif" font-size="10.00">NetworkClient::sendPacket</text>
</a>
</g>
</g>
<!-- Node3&#45;&gt;Node4 -->
<g id="edge3_Node000003_Node000004" class="edge">
<title>Node3&#45;&gt;Node4</title>
<g id="a_edge3_Node000003_Node000004"><a xlink:title=" ">
<path fill="none" stroke="#63b8ff" d="M508.34,-418.38C516.37,-419.44 524.67,-420.53 532.9,-421.62"/>
<polygon fill="#63b8ff" stroke="#63b8ff" points="532.18,-425.06 542.55,-422.9 533.09,-418.12 532.18,-425.06"/>
</a>
</g>
</g>
<!-- Node5 -->
<g id="Node000005" class="node">
<title>Node5</title>
<g id="a_Node000005"><a xlink:href="classRtypeServer_1_1Protocol.html#ad918184440d6fcb33f231a7173a67399" target="_top" xlink:title=" ">
<polygon fill="white" stroke="#666666" points="668.88,-404 556.12,-404 556.12,-372 668.88,-372 668.88,-404"/>
<text text-anchor="start" x="564.12" y="-390.5" font-family="Helvetica,sans-Serif" font-size="10.00">RtypeServer::Protocol</text>
<text text-anchor="middle" x="612.5" y="-378.5" font-family="Helvetica,sans-Serif" font-size="10.00">::writeHeader</text>
</a>
</g>
</g>
<!-- Node3&#45;&gt;Node5 -->
<g id="edge4_Node000003_Node000005" class="edge">
<title>Node3&#45;&gt;Node5</title>
<g id="a_edge4_Node000003_Node000005"><a xlink:title=" ">
<path fill="none" stroke="#63b8ff" d="M508.34,-401.62C520.19,-400.06 532.61,-398.42 544.56,-396.84"/>
<polygon fill="#63b8ff" stroke="#63b8ff" points="544.88,-400.33 554.34,-395.55 543.96,-393.39 544.88,-400.33"/>
</a>
</g>
</g>
<!-- Node14&#45;&gt;Node1 -->
<g id="edge14_Node000014_Node000001" class="edge">
<title>Node14&#45;&gt;Node1</title>
<g id="a_edge14_Node000014_Node000001"><a xlink:title=" ">
<path fill="none" stroke="#63b8ff" d="M193.88,-184.54C182.92,-184.73 171.46,-184.79 160.19,-184.72"/>
<polygon fill="#63b8ff" stroke="#63b8ff" points="160.54,-181.23 150.5,-184.62 160.47,-188.23 160.54,-181.23"/>
</a>
</g>
</g>
</g>
</svg>
