<?xml version="1.0" encoding="UTF-8" standalone="no"?>
<!DOCTYPE svg PUBLIC "-//W3C//DTD SVG 1.1//EN"
 "http://www.w3.org/Graphics/SVG/1.1/DTD/svg11.dtd">
<!-- Generated by graphviz version 12.1.0 (20240811.2233)
 -->
<!-- Title: GameManager::GameManager Pages: 1 -->
<svg width="737pt" height="370pt"
 viewBox="0.00 0.00 737.25 370.00" xmlns="http://www.w3.org/2000/svg" xmlns:xlink="http://www.w3.org/1999/xlink">
<g id="graph0" class="graph" transform="scale(1 1) rotate(0) translate(4 366)">
<title>GameManager::GameManager</title>
<!-- Node1 -->
<g id="Node000001" class="node">
<title>Node1</title>
<g id="a_Node000001"><a xlink:title=" ">
<polygon fill="#999999" stroke="#666666" points="149.5,-191 0,-191 0,-171 149.5,-171 149.5,-191"/>
<text text-anchor="middle" x="74.75" y="-177.5" font-family="Helvetica,sans-Serif" font-size="10.00">GameManager::GameManager</text>
</a>
</g>
</g>
<!-- Node2 -->
<g id="Node000002" class="node">
<title>Node2</title>
<g id="a_Node000002"><a xlink:href="classUsername.html#a5b98221d3b28e322b8b31e957d9cf9bf" target="_top" xlink:title=" ">
<polygon fill="white" stroke="#666666" points="312.12,-362 211.38,-362 211.38,-342 312.12,-342 312.12,-362"/>
<text text-anchor="middle" x="261.75" y="-348.5" font-family="Helvetica,sans-Serif" font-size="10.00">Username::loadFile</text>
</a>
</g>
</g>
<!-- Node1&#45;&gt;Node2 -->
<g id="edge1_Node000001_Node000002" class="edge">
<title>Node1&#45;&gt;Node2</title>
<g id="a_edge1_Node000001_Node000002"><a xlink:title=" ">
<path fill="none" stroke="#63b8ff" d="M80.15,-191.42C92.4,-219.13 129.75,-295.16 185.5,-333 190.19,-336.18 195.37,-338.83 200.75,-341.04"/>
<polygon fill="#63b8ff" stroke="#63b8ff" points="199.24,-344.22 209.84,-344.25 201.58,-337.62 199.24,-344.22"/>
</a>
</g>
</g>
<!-- Node3 -->
<g id="Node000003" class="node">
<title>Node3</title>
<g id="a_Node000003"><a xlink:href="classControlsConfig.html#a971fd58e74e4b77a02dd7d2b4c9a796e" target="_top" xlink:title=" ">
<polygon fill="white" stroke="#666666" points="338,-324 185.5,-324 185.5,-304 338,-304 338,-324"/>
<text text-anchor="middle" x="261.75" y="-310.5" font-family="Helvetica,sans-Serif" font-size="10.00">ControlsConfig::loadResources</text>
</a>
</g>
</g>
<!-- Node1&#45;&gt;Node3 -->
<g id="edge2_Node000001_Node000003" class="edge">
<title>Node1&#45;&gt;Node3</title>
<g id="a_edge2_Node000001_Node000003"><a xlink:title=" ">
<path fill="none" stroke="#63b8ff" d="M82.62,-191.36C98.13,-213.89 138.22,-267.56 185.5,-295 188.29,-296.62 191.21,-298.1 194.22,-299.45"/>
<polygon fill="#63b8ff" stroke="#63b8ff" points="192.71,-302.62 203.3,-303.04 195.28,-296.11 192.71,-302.62"/>
</a>
</g>
</g>
<!-- Node7 -->
<g id="Node000007" class="node">
<title>Node7</title>
<g id="a_Node000007"><a xlink:href="classErrorServer.html#aebdad5ffd89240d9cb4b1f2d12a8244a" target="_top" xlink:title=" ">
<polygon fill="white" stroke="#666666" points="330.12,-286 193.38,-286 193.38,-266 330.12,-266 330.12,-286"/>
<text text-anchor="middle" x="261.75" y="-272.5" font-family="Helvetica,sans-Serif" font-size="10.00">ErrorServer::loadResources</text>
</a>
</g>
</g>
<!-- Node1&#45;&gt;Node7 -->
<g id="edge6_Node000001_Node000007" class="edge">
<title>Node1&#45;&gt;Node7</title>
<g id="a_edge6_Node000001_Node000007"><a xlink:title=" ">
<path fill="none" stroke="#63b8ff" d="M87.7,-191.47C106.96,-207.82 146.68,-239.36 185.5,-257 189.53,-258.83 193.75,-260.5 198.07,-262.03"/>
<polygon fill="#63b8ff" stroke="#63b8ff" points="196.87,-265.32 207.47,-265.06 199.02,-258.66 196.87,-265.32"/>
</a>
</g>
</g>
<!-- Node9 -->
<g id="Node000009" class="node">
<title>Node9</title>
<g id="a_Node000009"><a xlink:href="classLaunch.html#aff7fe68fa2835467f3166801c00526ed" target="_top" xlink:title=" ">
<polygon fill="white" stroke="#666666" points="321.12,-248 202.38,-248 202.38,-228 321.12,-228 321.12,-248"/>
<text text-anchor="middle" x="261.75" y="-234.5" font-family="Helvetica,sans-Serif" font-size="10.00">Launch::loadResources</text>
</a>
</g>
</g>
<!-- Node1&#45;&gt;Node9 -->
<g id="edge8_Node000001_Node000009" class="edge">
<title>Node1&#45;&gt;Node9</title>
<g id="a_edge8_Node000001_Node000009"><a xlink:title=" ">
<path fill="none" stroke="#63b8ff" d="M103.5,-191.35C125.56,-199.4 157.29,-210.57 185.5,-219 192.11,-220.97 199.08,-222.92 206.01,-224.77"/>
<polygon fill="#63b8ff" stroke="#63b8ff" points="204.78,-228.06 215.34,-227.2 206.55,-221.29 204.78,-228.06"/>
</a>
</g>
</g>
<!-- Node11 -->
<g id="Node000011" class="node">
<title>Node11</title>
<g id="a_Node000011"><a xlink:href="classLeaderboard.html#aae704c36e1e66a58e8530792b4da6ef1" target="_top" xlink:title=" ">
<polygon fill="white" stroke="#666666" points="332,-210 191.5,-210 191.5,-190 332,-190 332,-210"/>
<text text-anchor="middle" x="261.75" y="-196.5" font-family="Helvetica,sans-Serif" font-size="10.00">Leaderboard::loadResources</text>
</a>
</g>
</g>
<!-- Node1&#45;&gt;Node11 -->
<g id="edge10_Node000001_Node000011" class="edge">
<title>Node1&#45;&gt;Node11</title>
<g id="a_edge10_Node000001_Node000011"><a xlink:title=" ">
<path fill="none" stroke="#63b8ff" d="M149.93,-188.62C159.79,-189.63 169.94,-190.67 179.91,-191.7"/>
<polygon fill="#63b8ff" stroke="#63b8ff" points="179.24,-195.15 189.55,-192.69 179.96,-188.18 179.24,-195.15"/>
</a>
</g>
</g>
<!-- Node13 -->
<g id="Node000013" class="node">
<title>Node13</title>
<g id="a_Node000013"><a xlink:href="classParameters.html#a8e74ddb8f408ad9e725e3784f8a873e7" target="_top" xlink:title=" ">
<polygon fill="white" stroke="#666666" points="330.5,-172 193,-172 193,-152 330.5,-152 330.5,-172"/>
<text text-anchor="middle" x="261.75" y="-158.5" font-family="Helvetica,sans-Serif" font-size="10.00">Parameters::loadResources</text>
</a>
</g>
</g>
<!-- Node1&#45;&gt;Node13 -->
<g id="edge12_Node000001_Node000013" class="edge">
<title>Node1&#45;&gt;Node13</title>
<g id="a_edge12_Node000001_Node000013"><a xlink:title=" ">
<path fill="none" stroke="#63b8ff" d="M149.93,-173.38C160.27,-172.32 170.92,-171.23 181.35,-170.16"/>
<polygon fill="#63b8ff" stroke="#63b8ff" points="181.45,-173.66 191.04,-169.16 180.73,-166.7 181.45,-173.66"/>
</a>
</g>
</g>
<!-- Node21 -->
<g id="Node000021" class="node">
<title>Node21</title>
<g id="a_Node000021"><a xlink:href="classPlayer.html#a603d7d308af08e4f8941908a5f247697" target="_top" xlink:title=" ">
<polygon fill="white" stroke="#666666" points="319.25,-134 204.25,-134 204.25,-114 319.25,-114 319.25,-134"/>
<text text-anchor="middle" x="261.75" y="-120.5" font-family="Helvetica,sans-Serif" font-size="10.00">Player::loadResources</text>
</a>
</g>
</g>
<!-- Node1&#45;&gt;Node21 -->
<g id="edge20_Node000001_Node000021" class="edge">
<title>Node1&#45;&gt;Node21</title>
<g id="a_edge20_Node000001_Node000021"><a xlink:title=" ">
<path fill="none" stroke="#63b8ff" d="M103.5,-170.65C125.56,-162.6 157.29,-151.43 185.5,-143 192.11,-141.03 199.08,-139.08 206.01,-137.23"/>
<polygon fill="#63b8ff" stroke="#63b8ff" points="206.55,-140.71 215.34,-134.8 204.78,-133.94 206.55,-140.71"/>
</a>
</g>
</g>
<!-- Node23 -->
<g id="Node000023" class="node">
<title>Node23</title>
<g id="a_Node000023"><a xlink:href="classButton.html#a1bc48ffb995c81fa2ac87aa011538afc" target="_top" xlink:title=" ">
<polygon fill="white" stroke="#666666" points="324.88,-96 198.62,-96 198.62,-76 324.88,-76 324.88,-96"/>
<text text-anchor="middle" x="261.75" y="-82.5" font-family="Helvetica,sans-Serif" font-size="10.00">Button::setCharacterSize</text>
</a>
</g>
</g>
<!-- Node1&#45;&gt;Node23 -->
<g id="edge22_Node000001_Node000023" class="edge">
<title>Node1&#45;&gt;Node23</title>
<g id="a_edge22_Node000001_Node000023"><a xlink:title=" ">
<path fill="none" stroke="#63b8ff" d="M87.7,-170.53C106.96,-154.18 146.68,-122.64 185.5,-105 189.53,-103.17 193.75,-101.5 198.07,-99.97"/>
<polygon fill="#63b8ff" stroke="#63b8ff" points="199.02,-103.34 207.47,-96.94 196.87,-96.68 199.02,-103.34"/>
</a>
</g>
</g>
<!-- Node24 -->
<g id="Node000024" class="node">
<title>Node24</title>
<g id="a_Node000024"><a xlink:href="classParticleSystem.html#a8965c33eb7b71a2f42957d05ffd68044" target="_top" xlink:title=" ">
<polygon fill="white" stroke="#666666" points="338,-58 185.5,-58 185.5,-38 338,-38 338,-58"/>
<text text-anchor="middle" x="261.75" y="-44.5" font-family="Helvetica,sans-Serif" font-size="10.00">ParticleSystem::setParameters</text>
</a>
</g>
</g>
<!-- Node1&#45;&gt;Node24 -->
<g id="edge23_Node000001_Node000024" class="edge">
<title>Node1&#45;&gt;Node24</title>
<g id="a_edge23_Node000001_Node000024"><a xlink:title=" ">
<path fill="none" stroke="#63b8ff" d="M82.62,-170.64C98.13,-148.11 138.22,-94.44 185.5,-67 188.29,-65.38 191.21,-63.9 194.22,-62.55"/>
<polygon fill="#63b8ff" stroke="#63b8ff" points="195.28,-65.89 203.3,-58.96 192.71,-59.38 195.28,-65.89"/>
</a>
</g>
</g>
<!-- Node25 -->
<g id="Node000025" class="node">
<title>Node25</title>
<g id="a_Node000025"><a xlink:href="classParamButton.html#a8d13151ad6cbd6c9e40af00f97782368" target="_top" xlink:title=" ">
<polygon fill="white" stroke="#666666" points="336.88,-20 186.62,-20 186.62,0 336.88,0 336.88,-20"/>
<text text-anchor="middle" x="261.75" y="-6.5" font-family="Helvetica,sans-Serif" font-size="10.00">ParamButton::setupVolumeBar</text>
</a>
</g>
</g>
<!-- Node1&#45;&gt;Node25 -->
<g id="edge24_Node000001_Node000025" class="edge">
<title>Node1&#45;&gt;Node25</title>
<g id="a_edge24_Node000001_Node000025"><a xlink:title=" ">
<path fill="none" stroke="#63b8ff" d="M80.15,-170.58C92.4,-142.87 129.75,-66.84 185.5,-29 187.58,-27.59 189.76,-26.28 192.02,-25.07"/>
<polygon fill="#63b8ff" stroke="#63b8ff" points="193.27,-28.34 200.89,-20.98 190.35,-21.98 193.27,-28.34"/>
</a>
</g>
</g>
<!-- Node4 -->
<g id="Node000004" class="node">
<title>Node4</title>
<g id="a_Node000004"><a xlink:href="classControlsConfig.html#a19d45c2752ac1653237de9314510ebc2" target="_top" xlink:title=" ">
<polygon fill="white" stroke="#666666" points="523.88,-336 381.12,-336 381.12,-304 523.88,-304 523.88,-336"/>
<text text-anchor="start" x="389.12" y="-322.5" font-family="Helvetica,sans-Serif" font-size="10.00">ControlsConfig::setupControl</text>
<text text-anchor="middle" x="452.5" y="-310.5" font-family="Helvetica,sans-Serif" font-size="10.00">Settings</text>
</a>
</g>
</g>
<!-- Node3&#45;&gt;Node4 -->
<g id="edge3_Node000003_Node000004" class="edge">
<title>Node3&#45;&gt;Node4</title>
<g id="a_edge3_Node000003_Node000004"><a xlink:title=" ">
<path fill="none" stroke="#63b8ff" d="M338.43,-316.41C348.57,-316.73 359,-317.06 369.24,-317.39"/>
<polygon fill="#63b8ff" stroke="#63b8ff" points="369.08,-320.88 379.18,-317.7 369.3,-313.89 369.08,-320.88"/>
</a>
</g>
</g>
<!-- Node5 -->
<g id="Node000005" class="node">
<title>Node5</title>
<g id="a_Node000005"><a xlink:href="classControlsConfig.html#a98c32bfcca7b184b230394e79bdac59e" target="_top" xlink:title=" ">
<polygon fill="white" stroke="#666666" points="720.25,-352 576,-352 576,-332 720.25,-332 720.25,-352"/>
<text text-anchor="middle" x="648.12" y="-338.5" font-family="Helvetica,sans-Serif" font-size="10.00">ControlsConfig::getKeyName</text>
</a>
</g>
</g>
<!-- Node4&#45;&gt;Node5 -->
<g id="edge4_Node000004_Node000005" class="edge">
<title>Node4&#45;&gt;Node5</title>
<g id="a_edge4_Node000004_Node000005"><a xlink:title=" ">
<path fill="none" stroke="#63b8ff" d="M524.22,-328.04C537.31,-329.52 551.08,-331.09 564.47,-332.61"/>
<polygon fill="#63b8ff" stroke="#63b8ff" points="563.78,-336.05 574.11,-333.7 564.57,-329.1 563.78,-336.05"/>
</a>
</g>
</g>
<!-- Node6 -->
<g id="Node000006" class="node">
<title>Node6</title>
<g id="a_Node000006"><a xlink:href="classControlsConfig.html#a5d7aa2d264ab4f3dfeb428e81e6c2f82" target="_top" xlink:title=" ">
<polygon fill="white" stroke="#666666" points="722.12,-314 574.12,-314 574.12,-282 722.12,-282 722.12,-314"/>
<text text-anchor="start" x="582.12" y="-300.5" font-family="Helvetica,sans-Serif" font-size="10.00">ControlsConfig::updateControl</text>
<text text-anchor="middle" x="648.12" y="-288.5" font-family="Helvetica,sans-Serif" font-size="10.00">SettingsPositions</text>
</a>
</g>
</g>
<!-- Node4&#45;&gt;Node6 -->
<g id="edge5_Node000004_Node000006" class="edge">
<title>Node4&#45;&gt;Node6</title>
<g id="a_edge5_Node000004_Node000006"><a xlink:title=" ">
<path fill="none" stroke="#63b8ff" d="M524.22,-311.96C536.67,-310.55 549.75,-309.06 562.53,-307.61"/>
<polygon fill="#63b8ff" stroke="#63b8ff" points="562.62,-311.12 572.16,-306.52 561.83,-304.17 562.62,-311.12"/>
</a>
</g>
</g>
<!-- Node8 -->
<g id="Node000008" class="node">
<title>Node8</title>
<g id="a_Node000008"><a xlink:href="classErrorServer.html#a404c80b1d4794111a3b3d5a75a67575e" target="_top" xlink:title=" ">
<polygon fill="white" stroke="#666666" points="512.25,-286 392.75,-286 392.75,-266 512.25,-266 512.25,-286"/>
<text text-anchor="middle" x="452.5" y="-272.5" font-family="Helvetica,sans-Serif" font-size="10.00">ErrorServer::centerLogo</text>
</a>
</g>
</g>
<!-- Node7&#45;&gt;Node8 -->
<g id="edge7_Node000007_Node000008" class="edge">
<title>Node7&#45;&gt;Node8</title>
<g id="a_edge7_Node000007_Node000008"><a xlink:title=" ">
<path fill="none" stroke="#63b8ff" d="M330.36,-276C346.86,-276 364.55,-276 381.18,-276"/>
<polygon fill="#63b8ff" stroke="#63b8ff" points="380.98,-279.5 390.98,-276 380.98,-272.5 380.98,-279.5"/>
</a>
</g>
</g>
<!-- Node10 -->
<g id="Node000010" class="node">
<title>Node10</title>
<g id="a_Node000010"><a xlink:href="classLaunch.html#ae9147199644338655660e8f6fd0be189" target="_top" xlink:title=" ">
<polygon fill="white" stroke="#666666" points="503.25,-248 401.75,-248 401.75,-228 503.25,-228 503.25,-248"/>
<text text-anchor="middle" x="452.5" y="-234.5" font-family="Helvetica,sans-Serif" font-size="10.00">Launch::centerLogo</text>
</a>
</g>
</g>
<!-- Node9&#45;&gt;Node10 -->
<g id="edge9_Node000009_Node000010" class="edge">
<title>Node9&#45;&gt;Node10</title>
<g id="a_edge9_Node000009_Node000010"><a xlink:title=" ">
<path fill="none" stroke="#63b8ff" d="M321.44,-238C343.28,-238 368.11,-238 390.18,-238"/>
<polygon fill="#63b8ff" stroke="#63b8ff" points="389.93,-241.5 399.93,-238 389.93,-234.5 389.93,-241.5"/>
</a>
</g>
</g>
<!-- Node12 -->
<g id="Node000012" class="node">
<title>Node12</title>
<g id="a_Node000012"><a xlink:href="classLeaderboard.html#a341519b6e85981513b6473256e3b8e53" target="_top" xlink:title=" ">
<polygon fill="white" stroke="#666666" points="517.12,-210 387.88,-210 387.88,-190 517.12,-190 517.12,-210"/>
<text text-anchor="middle" x="452.5" y="-196.5" font-family="Helvetica,sans-Serif" font-size="10.00">Leaderboard::centerImage</text>
</a>
</g>
</g>
<!-- Node11&#45;&gt;Node12 -->
<g id="edge11_Node000011_Node000012" class="edge">
<title>Node11&#45;&gt;Node12</title>
<g id="a_edge11_Node000011_Node000012"><a xlink:title=" ">
<path fill="none" stroke="#63b8ff" d="M332.5,-200C346.75,-200 361.81,-200 376.24,-200"/>
<polygon fill="#63b8ff" stroke="#63b8ff" points="376.15,-203.5 386.15,-200 376.15,-196.5 376.15,-203.5"/>
</a>
</g>
</g>
<!-- Node14 -->
<g id="Node000014" class="node">
<title>Node14</title>
<g id="a_Node000014"><a xlink:href="classParameters.html#a580c3fa59ac382709b50a0fddf1350e3" target="_top" xlink:title=" ">
<polygon fill="white" stroke="#666666" points="511.5,-172 393.5,-172 393.5,-152 511.5,-152 511.5,-172"/>
<text text-anchor="middle" x="452.5" y="-158.5" font-family="Helvetica,sans-Serif" font-size="10.00">Parameters::centerText</text>
</a>
</g>
</g>
<!-- Node13&#45;&gt;Node14 -->
<g id="edge13_Node000013_Node000014" class="edge">
<title>Node13&#45;&gt;Node14</title>
<g id="a_edge13_Node000013_Node000014"><a xlink:title=" ">
<path fill="none" stroke="#63b8ff" d="M330.89,-162C347.45,-162 365.18,-162 381.81,-162"/>
<polygon fill="#63b8ff" stroke="#63b8ff" points="381.61,-165.5 391.61,-162 381.61,-158.5 381.61,-165.5"/>
</a>
</g>
</g>
<!-- Node15 -->
<g id="Node000015" class="node">
<title>Node15</title>
<g id="a_Node000015"><a xlink:href="classParameters.html#a97f0af15da3b0a1a8b3702fc5b56556e" target="_top" xlink:title=" ">
<polygon fill="white" stroke="#666666" points="531,-134 374,-134 374,-114 531,-114 531,-134"/>
<text text-anchor="middle" x="452.5" y="-120.5" font-family="Helvetica,sans-Serif" font-size="10.00">Parameters::setupVideoSettings</text>
</a>
</g>
</g>
<!-- Node13&#45;&gt;Node15 -->
<g id="edge14_Node000013_Node000015" class="edge">
<title>Node13&#45;&gt;Node15</title>
<g id="a_edge14_Node000013_Node000015"><a xlink:title=" ">
<path fill="none" stroke="#63b8ff" d="M314.83,-151.52C337.62,-146.93 364.57,-141.5 388.49,-136.69"/>
<polygon fill="#63b8ff" stroke="#63b8ff" points="389,-140.15 398.11,-134.75 387.62,-133.29 389,-140.15"/>
</a>
</g>
</g>
<!-- Node16 -->
<g id="Node000016" class="node">
<title>Node16</title>
<g id="a_Node000016"><a xlink:href="classParameters.html#a30943fe99e7fa2007923912bdd56f59f" target="_top" xlink:title=" ">
<polygon fill="white" stroke="#666666" points="713.5,-240 582.75,-240 582.75,-208 713.5,-208 713.5,-240"/>
<text text-anchor="start" x="590.75" y="-226.5" font-family="Helvetica,sans-Serif" font-size="10.00">Parameters::getColorBlind</text>
<text text-anchor="middle" x="648.12" y="-214.5" font-family="Helvetica,sans-Serif" font-size="10.00">ModeString</text>
</a>
</g>
</g>
<!-- Node15&#45;&gt;Node16 -->
<g id="edge15_Node000015_Node000016" class="edge">
<title>Node15&#45;&gt;Node16</title>
<g id="a_edge15_Node000015_Node000016"><a xlink:title=" ">
<path fill="none" stroke="#63b8ff" d="M515.11,-134.38C520.75,-136.7 526.15,-139.54 531,-143 555.08,-160.19 543.46,-181.07 567,-199 568.78,-200.36 570.64,-201.64 572.56,-202.86"/>
<polygon fill="#63b8ff" stroke="#63b8ff" points="570.79,-205.88 581.24,-207.65 574.17,-199.75 570.79,-205.88"/>
</a>
</g>
</g>
<!-- Node17 -->
<g id="Node000017" class="node">
<title>Node17</title>
<g id="a_Node000017"><a xlink:href="classParameters.html#a461466b15c2fa714bb7c93b5a8b7e034" target="_top" xlink:title=" ">
<polygon fill="white" stroke="#666666" points="719.5,-190 576.75,-190 576.75,-158 719.5,-158 719.5,-190"/>
<text text-anchor="start" x="584.75" y="-176.5" font-family="Helvetica,sans-Serif" font-size="10.00">Parameters::getDisplayMode</text>
<text text-anchor="middle" x="648.12" y="-164.5" font-family="Helvetica,sans-Serif" font-size="10.00">String</text>
</a>
</g>
</g>
<!-- Node15&#45;&gt;Node17 -->
<g id="edge16_Node000015_Node000017" class="edge">
<title>Node15&#45;&gt;Node17</title>
<g id="a_edge16_Node000015_Node000017"><a xlink:title=" ">
<path fill="none" stroke="#63b8ff" d="M496.99,-134.5C508.09,-137.22 520,-140.18 531,-143 545.34,-146.67 560.64,-150.69 575.28,-154.58"/>
<polygon fill="#63b8ff" stroke="#63b8ff" points="574.29,-157.93 584.85,-157.13 576.09,-151.17 574.29,-157.93"/>
</a>
</g>
</g>
<!-- Node18 -->
<g id="Node000018" class="node">
<title>Node18</title>
<g id="a_Node000018"><a xlink:href="classParameters.html#a457a6ed2d096be7f5b648c7df1c7fafa" target="_top" xlink:title=" ">
<polygon fill="white" stroke="#666666" points="725.88,-140 570.38,-140 570.38,-108 725.88,-108 725.88,-140"/>
<text text-anchor="start" x="578.38" y="-126.5" font-family="Helvetica,sans-Serif" font-size="10.00">Parameters::getGraphicsQuality</text>
<text text-anchor="middle" x="648.12" y="-114.5" font-family="Helvetica,sans-Serif" font-size="10.00">String</text>
</a>
</g>
</g>
<!-- Node15&#45;&gt;Node18 -->
<g id="edge17_Node000015_Node000018" class="edge">
<title>Node15&#45;&gt;Node18</title>
<g id="a_edge17_Node000015_Node000018"><a xlink:title=" ">
<path fill="none" stroke="#63b8ff" d="M531.42,-124C540.36,-124 549.52,-124 558.59,-124"/>
<polygon fill="#63b8ff" stroke="#63b8ff" points="558.48,-127.5 568.48,-124 558.48,-120.5 558.48,-127.5"/>
</a>
</g>
</g>
<!-- Node19 -->
<g id="Node000019" class="node">
<title>Node19</title>
<g id="a_Node000019"><a xlink:href="classParameters.html#ab06f51d4f6cecc5d4ca32f6a770fca12" target="_top" xlink:title=" ">
<polygon fill="white" stroke="#666666" points="714.25,-90 582,-90 582,-58 714.25,-58 714.25,-90"/>
<text text-anchor="start" x="590" y="-76.5" font-family="Helvetica,sans-Serif" font-size="10.00">Parameters::getResolution</text>
<text text-anchor="middle" x="648.12" y="-64.5" font-family="Helvetica,sans-Serif" font-size="10.00">String</text>
</a>
</g>
</g>
<!-- Node15&#45;&gt;Node19 -->
<g id="edge18_Node000015_Node000019" class="edge">
<title>Node15&#45;&gt;Node19</title>
<g id="a_edge18_Node000015_Node000019"><a xlink:title=" ">
<path fill="none" stroke="#63b8ff" d="M496.99,-113.5C508.09,-110.78 520,-107.82 531,-105 545.34,-101.33 560.64,-97.31 575.28,-93.42"/>
<polygon fill="#63b8ff" stroke="#63b8ff" points="576.09,-96.83 584.85,-90.87 574.29,-90.07 576.09,-96.83"/>
</a>
</g>
</g>
<!-- Node20 -->
<g id="Node000020" class="node">
<title>Node20</title>
<g id="a_Node000020"><a xlink:href="classParameters.html#abeed7c94e97e5aa1339f807a23765a4b" target="_top" xlink:title=" ">
<polygon fill="white" stroke="#666666" points="729.25,-40 567,-40 567,-8 729.25,-8 729.25,-40"/>
<text text-anchor="start" x="575" y="-26.5" font-family="Helvetica,sans-Serif" font-size="10.00">Parameters::updateVideoSettings</text>
<text text-anchor="middle" x="648.12" y="-14.5" font-family="Helvetica,sans-Serif" font-size="10.00">Positions</text>
</a>
</g>
</g>
<!-- Node15&#45;&gt;Node20 -->
<g id="edge19_Node000015_Node000020" class="edge">
<title>Node15&#45;&gt;Node20</title>
<g id="a_edge19_Node000015_Node000020"><a xlink:title=" ">
<path fill="none" stroke="#63b8ff" d="M515.11,-113.62C520.75,-111.3 526.15,-108.46 531,-105 555.08,-87.81 543.46,-66.93 567,-49 568.34,-47.98 569.72,-47 571.14,-46.06"/>
<polygon fill="#63b8ff" stroke="#63b8ff" points="572.72,-49.19 579.64,-41.17 569.23,-43.12 572.72,-49.19"/>
</a>
</g>
</g>
<!-- Node22 -->
<g id="Node000022" class="node">
<title>Node22</title>
<g id="a_Node000022"><a xlink:href="classPlayer.html#a16e1b8e2e944502ce79e413606c965df" target="_top" xlink:title=" ">
<polygon fill="white" stroke="#666666" points="504.38,-96 400.62,-96 400.62,-76 504.38,-76 504.38,-96"/>
<text text-anchor="middle" x="452.5" y="-82.5" font-family="Helvetica,sans-Serif" font-size="10.00">Player::centerImage</text>
</a>
</g>
</g>
<!-- Node21&#45;&gt;Node22 -->
<g id="edge21_Node000021_Node000022" class="edge">
<title>Node21&#45;&gt;Node22</title>
<g id="a_edge21_Node000021_Node000022"><a xlink:title=" ">
<path fill="none" stroke="#63b8ff" d="M314.83,-113.52C337.81,-108.89 365.02,-103.41 389.08,-98.57"/>
<polygon fill="#63b8ff" stroke="#63b8ff" points="389.65,-102.02 398.76,-96.62 388.27,-95.16 389.65,-102.02"/>
</a>
</g>
</g>
</g>
</svg>
