<?xml version="1.0" encoding="UTF-8" standalone="no"?>
<!DOCTYPE svg PUBLIC "-//W3C//DTD SVG 1.1//EN"
 "http://www.w3.org/Graphics/SVG/1.1/DTD/svg11.dtd">
<!-- Generated by graphviz version 12.1.0 (20240811.2233)
 -->
<!-- Title: RtypeServer::UdpServer Pages: 1 -->
<svg width="266pt" height="672pt"
 viewBox="0.00 0.00 266.00 672.00" xmlns="http://www.w3.org/2000/svg" xmlns:xlink="http://www.w3.org/1999/xlink">
<g id="graph0" class="graph" transform="scale(1 1) rotate(0) translate(4 668)">
<title>RtypeServer::UdpServer</title>
<!-- Node1 -->
<g id="Node000001" class="node">
<title>Node1</title>
<g id="a_Node000001"><a xlink:title=" ">
<polygon fill="#999999" stroke="none" points="180.5,-340 63.5,-340 63.5,0 180.5,0 180.5,-340"/>
<text text-anchor="start" x="68.38" y="-326.5" font-family="Helvetica,sans-Serif" font-size="10.00">RtypeServer::UdpServer</text>
<text text-anchor="start" x="71" y="-310.5" font-family="Helvetica,sans-Serif" font-size="10.00">&#45;</text>
<text text-anchor="start" x="81.5" y="-310.5" font-family="Helvetica,sans-Serif" font-size="10.00">m_socket</text>
<text text-anchor="start" x="71" y="-294.5" font-family="Helvetica,sans-Serif" font-size="10.00">&#45;</text>
<text text-anchor="start" x="81.5" y="-294.5" font-family="Helvetica,sans-Serif" font-size="10.00">m_remote</text>
<text text-anchor="start" x="71" y="-278.5" font-family="Helvetica,sans-Serif" font-size="10.00">&#45;</text>
<text text-anchor="start" x="81.5" y="-278.5" font-family="Helvetica,sans-Serif" font-size="10.00">m_rxBuf</text>
<text text-anchor="start" x="71" y="-262.5" font-family="Helvetica,sans-Serif" font-size="10.00">&#45;</text>
<text text-anchor="start" x="81.5" y="-262.5" font-family="Helvetica,sans-Serif" font-size="10.00">m_timer</text>
<text text-anchor="start" x="71" y="-246.5" font-family="Helvetica,sans-Serif" font-size="10.00">&#45;</text>
<text text-anchor="start" x="81.5" y="-246.5" font-family="Helvetica,sans-Serif" font-size="10.00">m_nextPlayerId</text>
<text text-anchor="start" x="71" y="-230.5" font-family="Helvetica,sans-Serif" font-size="10.00">&#45;</text>
<text text-anchor="start" x="81.5" y="-230.5" font-family="Helvetica,sans-Serif" font-size="10.00">m_sessions</text>
<text text-anchor="start" x="69.5" y="-214.5" font-family="Helvetica,sans-Serif" font-size="10.00">+</text>
<text text-anchor="start" x="81.5" y="-214.5" font-family="Helvetica,sans-Serif" font-size="10.00">UdpServer()</text>
<text text-anchor="start" x="69.5" y="-198.5" font-family="Helvetica,sans-Serif" font-size="10.00">+</text>
<text text-anchor="start" x="81.5" y="-198.5" font-family="Helvetica,sans-Serif" font-size="10.00">~UdpServer()</text>
<text text-anchor="start" x="71" y="-182.5" font-family="Helvetica,sans-Serif" font-size="10.00">&#45;</text>
<text text-anchor="start" x="81.5" y="-182.5" font-family="Helvetica,sans-Serif" font-size="10.00">start_receive()</text>
<text text-anchor="start" x="71" y="-166.5" font-family="Helvetica,sans-Serif" font-size="10.00">&#45;</text>
<text text-anchor="start" x="81.5" y="-166.5" font-family="Helvetica,sans-Serif" font-size="10.00">handle_receive()</text>
<text text-anchor="start" x="71" y="-150.5" font-family="Helvetica,sans-Serif" font-size="10.00">&#45;</text>
<text text-anchor="start" x="81.5" y="-150.5" font-family="Helvetica,sans-Serif" font-size="10.00">send_pong()</text>
<text text-anchor="start" x="71" y="-134.5" font-family="Helvetica,sans-Serif" font-size="10.00">&#45;</text>
<text text-anchor="start" x="81.5" y="-134.5" font-family="Helvetica,sans-Serif" font-size="10.00">send_welcome()</text>
<text text-anchor="start" x="71" y="-118.5" font-family="Helvetica,sans-Serif" font-size="10.00">&#45;</text>
<text text-anchor="start" x="81.5" y="-118.5" font-family="Helvetica,sans-Serif" font-size="10.00">send_ping()</text>
<text text-anchor="start" x="71" y="-102.5" font-family="Helvetica,sans-Serif" font-size="10.00">&#45;</text>
<text text-anchor="start" x="81.5" y="-102.5" font-family="Helvetica,sans-Serif" font-size="10.00">start_heartbeat()</text>
<text text-anchor="start" x="71" y="-86.5" font-family="Helvetica,sans-Serif" font-size="10.00">&#45;</text>
<text text-anchor="start" x="81.5" y="-86.5" font-family="Helvetica,sans-Serif" font-size="10.00">send_room_created()</text>
<text text-anchor="start" x="71" y="-70.5" font-family="Helvetica,sans-Serif" font-size="10.00">&#45;</text>
<text text-anchor="start" x="81.5" y="-70.5" font-family="Helvetica,sans-Serif" font-size="10.00">send_room_joined()</text>
<text text-anchor="start" x="71" y="-54.5" font-family="Helvetica,sans-Serif" font-size="10.00">&#45;</text>
<text text-anchor="start" x="81.5" y="-54.5" font-family="Helvetica,sans-Serif" font-size="10.00">send_room_left()</text>
<text text-anchor="start" x="71" y="-38.5" font-family="Helvetica,sans-Serif" font-size="10.00">&#45;</text>
<text text-anchor="start" x="81.5" y="-38.5" font-family="Helvetica,sans-Serif" font-size="10.00">send_room_list()</text>
<text text-anchor="start" x="81.5" y="-22.5" font-family="Helvetica,sans-Serif" font-size="10.00">and 6 more...</text>
<text text-anchor="start" x="71" y="-6.5" font-family="Helvetica,sans-Serif" font-size="10.00">&#45;</text>
<text text-anchor="start" x="81.5" y="-6.5" font-family="Helvetica,sans-Serif" font-size="10.00">endpointKey()</text>
<polygon fill="#666666" stroke="#666666" points="63.5,-322 63.5,-322 180.5,-322 180.5,-322 63.5,-322"/>
<polygon fill="#666666" stroke="#666666" points="63.5,-226 63.5,-226 79.5,-226 79.5,-226 63.5,-226"/>
<polygon fill="#666666" stroke="#666666" points="79.5,-226 79.5,-226 180.5,-226 180.5,-226 79.5,-226"/>
<polygon fill="none" stroke="#666666" points="63.5,0 63.5,-340 180.5,-340 180.5,0 63.5,0"/>
</a>
</g>
</g>
<!-- Node2 -->
<g id="Node000002" class="node">
<title>Node2</title>
<g id="a_Node000002"><a xlink:href="classRtypeServer_1_1Protocol.html" target="_top" xlink:title=" ">
<polygon fill="white" stroke="none" points="106,-632 0,-632 0,-420 106,-420 106,-632"/>
<text text-anchor="start" x="4.62" y="-618.5" font-family="Helvetica,sans-Serif" font-size="10.00">RtypeServer::Protocol</text>
<text text-anchor="start" x="51.5" y="-602.5" font-family="Helvetica,sans-Serif" font-size="10.00"> </text>
<text text-anchor="start" x="8.5" y="-586.5" font-family="Helvetica,sans-Serif" font-size="10.00">+</text>
<text text-anchor="start" x="23" y="-586.5" font-family="Helvetica,sans-Serif" font-size="10.00">Protocol()</text>
<text text-anchor="start" x="8.5" y="-570.5" font-family="Helvetica,sans-Serif" font-size="10.00">+</text>
<text text-anchor="start" x="23" y="-570.5" font-family="Helvetica,sans-Serif" font-size="10.00">~Protocol()</text>
<text text-anchor="start" x="8.5" y="-554.5" font-family="Helvetica,sans-Serif" font-size="10.00">+</text>
<text text-anchor="start" x="23" y="-554.5" font-family="Helvetica,sans-Serif" font-size="10.00">writeHeader()</text>
<text text-anchor="start" x="8.5" y="-538.5" font-family="Helvetica,sans-Serif" font-size="10.00">+</text>
<text text-anchor="start" x="23" y="-538.5" font-family="Helvetica,sans-Serif" font-size="10.00">readHeader()</text>
<text text-anchor="start" x="8.5" y="-522.5" font-family="Helvetica,sans-Serif" font-size="10.00">+</text>
<text text-anchor="start" x="23" y="-522.5" font-family="Helvetica,sans-Serif" font-size="10.00">append_u8()</text>
<text text-anchor="start" x="8.5" y="-506.5" font-family="Helvetica,sans-Serif" font-size="10.00">+</text>
<text text-anchor="start" x="23" y="-506.5" font-family="Helvetica,sans-Serif" font-size="10.00">append_u16be()</text>
<text text-anchor="start" x="8.5" y="-490.5" font-family="Helvetica,sans-Serif" font-size="10.00">+</text>
<text text-anchor="start" x="23" y="-490.5" font-family="Helvetica,sans-Serif" font-size="10.00">append_u32be()</text>
<text text-anchor="start" x="8.5" y="-474.5" font-family="Helvetica,sans-Serif" font-size="10.00">+</text>
<text text-anchor="start" x="23" y="-474.5" font-family="Helvetica,sans-Serif" font-size="10.00">append_i16be()</text>
<text text-anchor="start" x="8.5" y="-458.5" font-family="Helvetica,sans-Serif" font-size="10.00">+</text>
<text text-anchor="start" x="23" y="-458.5" font-family="Helvetica,sans-Serif" font-size="10.00">read_u8()</text>
<text text-anchor="start" x="8.5" y="-442.5" font-family="Helvetica,sans-Serif" font-size="10.00">+</text>
<text text-anchor="start" x="23" y="-442.5" font-family="Helvetica,sans-Serif" font-size="10.00">read_u16be()</text>
<text text-anchor="start" x="23" y="-426.5" font-family="Helvetica,sans-Serif" font-size="10.00">and 62 more...</text>
<polygon fill="#666666" stroke="#666666" points="0,-614 0,-614 106,-614 106,-614 0,-614"/>
<polygon fill="#666666" stroke="#666666" points="0,-598 0,-598 106,-598 106,-598 0,-598"/>
<polygon fill="none" stroke="#666666" points="0,-420 0,-632 106,-632 106,-420 0,-420"/>
</a>
</g>
</g>
<!-- Node2&#45;&gt;Node1 -->
<g id="edge1_Node000001_Node000002" class="edge">
<title>Node2&#45;&gt;Node1</title>
<g id="a_edge1_Node000001_Node000002"><a xlink:title=" ">
<path fill="none" stroke="#63b8ff" d="M73.42,-420.23C77.6,-398.8 82.11,-375.66 86.64,-352.42"/>
<polygon fill="none" stroke="#63b8ff" points="86.61,-352.56 83.83,-345.9 88.91,-340.78 91.69,-347.44 86.61,-352.56"/>
</a>
</g>
<text text-anchor="middle" x="112.43" y="-360.5" font-family="Helvetica,sans-Serif" font-size="10.00" fill="grey"> &#45;m_protocol</text>
</g>
<!-- Node3 -->
<g id="Node000003" class="node">
<title>Node3</title>
<g id="a_Node000003"><a xlink:href="classRtypeServer_1_1RoomManager.html" target="_top" xlink:title=" ">
<polygon fill="white" stroke="none" points="258,-664 124,-664 124,-388 258,-388 258,-664"/>
<text text-anchor="start" x="128.75" y="-650.5" font-family="Helvetica,sans-Serif" font-size="10.00">RtypeServer::RoomManager</text>
<text text-anchor="start" x="139" y="-634.5" font-family="Helvetica,sans-Serif" font-size="10.00">&#45;</text>
<text text-anchor="start" x="157" y="-634.5" font-family="Helvetica,sans-Serif" font-size="10.00">m_mutex</text>
<text text-anchor="start" x="139" y="-618.5" font-family="Helvetica,sans-Serif" font-size="10.00">&#45;</text>
<text text-anchor="start" x="157" y="-618.5" font-family="Helvetica,sans-Serif" font-size="10.00">m_roomsByName</text>
<text text-anchor="start" x="139" y="-602.5" font-family="Helvetica,sans-Serif" font-size="10.00">&#45;</text>
<text text-anchor="start" x="157" y="-602.5" font-family="Helvetica,sans-Serif" font-size="10.00">m_roomsById</text>
<text text-anchor="start" x="139" y="-586.5" font-family="Helvetica,sans-Serif" font-size="10.00">&#45;</text>
<text text-anchor="start" x="157" y="-586.5" font-family="Helvetica,sans-Serif" font-size="10.00">m_nextRoomId</text>
<text text-anchor="start" x="139" y="-570.5" font-family="Helvetica,sans-Serif" font-size="10.00">&#45;</text>
<text text-anchor="start" x="157" y="-570.5" font-family="Helvetica,sans-Serif" font-size="10.00">m_socket</text>
<text text-anchor="start" x="137.5" y="-554.5" font-family="Helvetica,sans-Serif" font-size="10.00">+</text>
<text text-anchor="start" x="157" y="-554.5" font-family="Helvetica,sans-Serif" font-size="10.00">RoomManager()</text>
<text text-anchor="start" x="137.5" y="-538.5" font-family="Helvetica,sans-Serif" font-size="10.00">+</text>
<text text-anchor="start" x="157" y="-538.5" font-family="Helvetica,sans-Serif" font-size="10.00">~RoomManager()</text>
<text text-anchor="start" x="137.5" y="-522.5" font-family="Helvetica,sans-Serif" font-size="10.00">+</text>
<text text-anchor="start" x="157" y="-522.5" font-family="Helvetica,sans-Serif" font-size="10.00">createRoom()</text>
<text text-anchor="start" x="137.5" y="-506.5" font-family="Helvetica,sans-Serif" font-size="10.00">+</text>
<text text-anchor="start" x="157" y="-506.5" font-family="Helvetica,sans-Serif" font-size="10.00">getRoom()</text>
<text text-anchor="start" x="137.5" y="-490.5" font-family="Helvetica,sans-Serif" font-size="10.00">+</text>
<text text-anchor="start" x="157" y="-490.5" font-family="Helvetica,sans-Serif" font-size="10.00">getRoom()</text>
<text text-anchor="start" x="137.5" y="-474.5" font-family="Helvetica,sans-Serif" font-size="10.00">+</text>
<text text-anchor="start" x="157" y="-474.5" font-family="Helvetica,sans-Serif" font-size="10.00">removeRoom()</text>
<text text-anchor="start" x="137.5" y="-458.5" font-family="Helvetica,sans-Serif" font-size="10.00">+</text>
<text text-anchor="start" x="157" y="-458.5" font-family="Helvetica,sans-Serif" font-size="10.00">removeRoom()</text>
<text text-anchor="start" x="137.5" y="-442.5" font-family="Helvetica,sans-Serif" font-size="10.00">+</text>
<text text-anchor="start" x="157" y="-442.5" font-family="Helvetica,sans-Serif" font-size="10.00">listRooms()</text>
<text text-anchor="start" x="137.5" y="-426.5" font-family="Helvetica,sans-Serif" font-size="10.00">+</text>
<text text-anchor="start" x="157" y="-426.5" font-family="Helvetica,sans-Serif" font-size="10.00">getRoomCount()</text>
<text text-anchor="start" x="137.5" y="-410.5" font-family="Helvetica,sans-Serif" font-size="10.00">+</text>
<text text-anchor="start" x="157" y="-410.5" font-family="Helvetica,sans-Serif" font-size="10.00">cleanup()</text>
<text text-anchor="start" x="157" y="-394.5" font-family="Helvetica,sans-Serif" font-size="10.00">and 6 more...</text>
<polygon fill="#666666" stroke="#666666" points="124,-646 124,-646 258,-646 258,-646 124,-646"/>
<polygon fill="#666666" stroke="#666666" points="124,-566 124,-566 155,-566 155,-566 124,-566"/>
<polygon fill="#666666" stroke="#666666" points="155,-566 155,-566 258,-566 258,-566 155,-566"/>
<polygon fill="none" stroke="#666666" points="124,-388 124,-664 258,-664 258,-388 124,-388"/>
</a>
</g>
</g>
<!-- Node3&#45;&gt;Node1 -->
<g id="edge2_Node000001_Node000003" class="edge">
<title>Node3&#45;&gt;Node1</title>
<g id="a_edge2_Node000001_Node000003"><a xlink:title=" ">
<path fill="none" stroke="#63b8ff" d="M164.32,-388.13C162.03,-376.37 159.69,-364.35 157.34,-352.3"/>
<polygon fill="none" stroke="#63b8ff" points="157.36,-352.41 152.29,-347.29 155.06,-340.63 160.14,-345.76 157.36,-352.41"/>
</a>
</g>
<text text-anchor="middle" x="200.01" y="-360.5" font-family="Helvetica,sans-Serif" font-size="10.00" fill="grey"> &#45;m_roomManager</text>
</g>
</g>
</svg>
