<?xml version="1.0" encoding="UTF-8" standalone="no"?>
<!DOCTYPE svg PUBLIC "-//W3C//DTD SVG 1.1//EN"
 "http://www.w3.org/Graphics/SVG/1.1/DTD/svg11.dtd">
<!-- Generated by graphviz version 12.1.0 (20240811.2233)
 -->
<!-- Title: Menu::centerLogo Pages: 1 -->
<svg width="268pt" height="104pt"
 viewBox="0.00 0.00 268.00 104.00" xmlns="http://www.w3.org/2000/svg" xmlns:xlink="http://www.w3.org/1999/xlink">
<g id="graph0" class="graph" transform="scale(1 1) rotate(0) translate(4 100)">
<title>Menu::centerLogo</title>
<!-- Node1 -->
<g id="Node000001" class="node">
<title>Node1</title>
<g id="a_Node000001"><a xlink:title=" ">
<polygon fill="#999999" stroke="#666666" points="260,-58 166,-58 166,-38 260,-38 260,-58"/>
<text text-anchor="middle" x="213" y="-44.5" font-family="Helvetica,sans-Serif" font-size="10.00">Menu::centerLogo</text>
</a>
</g>
</g>
<!-- Node2 -->
<g id="Node000002" class="node">
<title>Node2</title>
<g id="a_Node000002"><a xlink:href="classMenu.html#ae81cc219733bb4da5f30e88f7f8120ce" target="_top" xlink:title=" ">
<polygon fill="white" stroke="#666666" points="115,-96 15,-96 15,-76 115,-76 115,-96"/>
<text text-anchor="middle" x="65" y="-82.5" font-family="Helvetica,sans-Serif" font-size="10.00">Menu::handleEvent</text>
</a>
</g>
</g>
<!-- Node1&#45;&gt;Node2 -->
<g id="edge1_Node000001_Node000002" class="edge">
<title>Node1&#45;&gt;Node2</title>
<g id="a_edge1_Node000001_Node000002"><a xlink:title=" ">
<path fill="none" stroke="#63b8ff" d="M160.59,-61.38C142.73,-66.03 122.97,-71.17 106.15,-75.55"/>
<polygon fill="#63b8ff" stroke="#63b8ff" points="161.46,-64.77 170.25,-58.87 159.69,-58 161.46,-64.77"/>
</a>
</g>
</g>
<!-- Node3 -->
<g id="Node000003" class="node">
<title>Node3</title>
<g id="a_Node000003"><a xlink:href="classMenu.html#a2d6ae66a9ed5b5cace935803272886a4" target="_top" xlink:title=" ">
<polygon fill="white" stroke="#666666" points="120.62,-58 9.38,-58 9.38,-38 120.62,-38 120.62,-58"/>
<text text-anchor="middle" x="65" y="-44.5" font-family="Helvetica,sans-Serif" font-size="10.00">Menu::loadResources</text>
</a>
</g>
</g>
<!-- Node1&#45;&gt;Node3 -->
<g id="edge2_Node000001_Node000003" class="edge">
<title>Node1&#45;&gt;Node3</title>
<g id="a_edge2_Node000001_Node000003"><a xlink:title=" ">
<path fill="none" stroke="#63b8ff" d="M154.55,-48C143.54,-48 132.03,-48 121.09,-48"/>
<polygon fill="#63b8ff" stroke="#63b8ff" points="154.29,-51.5 164.29,-48 154.29,-44.5 154.29,-51.5"/>
</a>
</g>
</g>
<!-- Node4 -->
<g id="Node000004" class="node">
<title>Node4</title>
<g id="a_Node000004"><a xlink:href="classMenu.html#a2dc45e38f262f10d4fa1b897dfcb5e77" target="_top" xlink:title=" ">
<polygon fill="white" stroke="#666666" points="130,-20 0,-20 0,0 130,0 130,-20"/>
<text text-anchor="middle" x="65" y="-6.5" font-family="Helvetica,sans-Serif" font-size="10.00">Menu::updateWindowSize</text>
</a>
</g>
</g>
<!-- Node1&#45;&gt;Node4 -->
<g id="edge3_Node000001_Node000004" class="edge">
<title>Node1&#45;&gt;Node4</title>
<g id="a_edge3_Node000001_Node000004"><a xlink:title=" ">
<path fill="none" stroke="#63b8ff" d="M160.59,-34.62C142.73,-29.97 122.97,-24.83 106.15,-20.45"/>
<polygon fill="#63b8ff" stroke="#63b8ff" points="159.69,-38 170.25,-37.13 161.46,-31.23 159.69,-38"/>
</a>
</g>
</g>
</g>
</svg>
