<?xml version="1.0" encoding="UTF-8" standalone="no"?>
<!DOCTYPE svg PUBLIC "-//W3C//DTD SVG 1.1//EN"
 "http://www.w3.org/Graphics/SVG/1.1/DTD/svg11.dtd">
<!-- Generated by graphviz version 12.1.0 (20240811.2233)
 -->
<!-- Title: Engine::ComponentManagerError Pages: 1 -->
<svg width="141pt" height="176pt"
 viewBox="0.00 0.00 141.00 176.00" xmlns="http://www.w3.org/2000/svg" xmlns:xlink="http://www.w3.org/1999/xlink">
<g id="graph0" class="graph" transform="scale(1 1) rotate(0) translate(4 172)">
<title>Engine::ComponentManagerError</title>
<!-- Node1 -->
<g id="Node000001" class="node">
<title>Node1</title>
<g id="a_Node000001"><a xlink:title=" ">
<polygon fill="#999999" stroke="none" points="133,-80 0,-80 0,0 133,0 133,-80"/>
<text text-anchor="start" x="4.62" y="-66.5" font-family="Helvetica,sans-Serif" font-size="10.00">Engine::ComponentManager</text>
<text text-anchor="start" x="56" y="-54.5" font-family="Helvetica,sans-Serif" font-size="10.00">Error</text>
<text text-anchor="start" x="5.5" y="-38.5" font-family="Helvetica,sans-Serif" font-size="10.00">&#45;</text>
<text text-anchor="start" x="14" y="-38.5" font-family="Helvetica,sans-Serif" font-size="10.00">message</text>
<text text-anchor="start" x="4" y="-22.5" font-family="Helvetica,sans-Serif" font-size="10.00">+</text>
<text text-anchor="start" x="14" y="-22.5" font-family="Helvetica,sans-Serif" font-size="10.00">ComponentManagerError()</text>
<text text-anchor="start" x="4" y="-6.5" font-family="Helvetica,sans-Serif" font-size="10.00">+</text>
<text text-anchor="start" x="14" y="-6.5" font-family="Helvetica,sans-Serif" font-size="10.00">what()</text>
<polygon fill="#666666" stroke="#666666" points="0,-50 0,-50 133,-50 133,-50 0,-50"/>
<polygon fill="#666666" stroke="#666666" points="0,-34 0,-34 12,-34 12,-34 0,-34"/>
<polygon fill="#666666" stroke="#666666" points="12,-34 12,-34 133,-34 133,-34 12,-34"/>
<polygon fill="none" stroke="#666666" points="0,0 0,-80 133,-80 133,0 0,0"/>
</a>
</g>
</g>
<!-- Node2 -->
<g id="Node000002" class="node">
<title>Node2</title>
<g id="a_Node000002"><a xlink:title=" ">
<polygon fill="white" stroke="none" points="102,-168 31,-168 31,-116 102,-116 102,-168"/>
<text text-anchor="start" x="35.75" y="-154.5" font-family="Helvetica,sans-Serif" font-size="10.00">std::exception</text>
<text text-anchor="start" x="65" y="-138.5" font-family="Helvetica,sans-Serif" font-size="10.00"> </text>
<text text-anchor="start" x="65" y="-122.5" font-family="Helvetica,sans-Serif" font-size="10.00"> </text>
<polygon fill="#666666" stroke="#666666" points="31,-150 31,-150 102,-150 102,-150 31,-150"/>
<polygon fill="#666666" stroke="#666666" points="31,-134 31,-134 102,-134 102,-134 31,-134"/>
<polygon fill="none" stroke="#666666" points="31,-116 31,-168 102,-168 102,-116 31,-116"/>
</a>
</g>
</g>
<!-- Node2&#45;&gt;Node1 -->
<g id="edge1_Node000001_Node000002" class="edge">
<title>Node2&#45;&gt;Node1</title>
<g id="a_edge1_Node000001_Node000002"><a xlink:title=" ">
<path fill="none" stroke="#63b8ff" d="M66.5,-104.61C66.5,-96.5 66.5,-87.86 66.5,-79.65"/>
<polygon fill="none" stroke="#63b8ff" points="63,-104.51 66.5,-114.51 70,-104.51 63,-104.51"/>
</a>
</g>
</g>
</g>
</svg>
