<?xml version="1.0" encoding="UTF-8" standalone="no"?>
<!DOCTYPE svg PUBLIC "-//W3C//DTD SVG 1.1//EN"
 "http://www.w3.org/Graphics/SVG/1.1/DTD/svg11.dtd">
<!-- Generated by graphviz version 12.1.0 (20240811.2233)
 -->
<!-- Title: Engine::Systems::DevConsole::parseCommand Pages: 1 -->
<svg width="346pt" height="90pt"
 viewBox="0.00 0.00 346.00 90.00" xmlns="http://www.w3.org/2000/svg" xmlns:xlink="http://www.w3.org/1999/xlink">
<g id="graph0" class="graph" transform="scale(1 1) rotate(0) translate(4 86)">
<title>Engine::Systems::DevConsole::parseCommand</title>
<!-- Node1 -->
<g id="Node000001" class="node">
<title>Node1</title>
<g id="a_Node000001"><a xlink:title=" ">
<polygon fill="#999999" stroke="#666666" points="151,-57 0,-57 0,-25 151,-25 151,-57"/>
<text text-anchor="start" x="8" y="-43.5" font-family="Helvetica,sans-Serif" font-size="10.00">Engine::Systems::DevConsole</text>
<text text-anchor="middle" x="75.5" y="-31.5" font-family="Helvetica,sans-Serif" font-size="10.00">::parseCommand</text>
</a>
</g>
</g>
<!-- Node2 -->
<g id="Node000002" class="node">
<title>Node2</title>
<g id="a_Node000002"><a xlink:href="classEngine_1_1Systems_1_1DevConsole.html#a269f1897d00fd83d444f51c1765d4170" target="_top" xlink:title=" ">
<polygon fill="white" stroke="#666666" points="338,-82 187,-82 187,-50 338,-50 338,-82"/>
<text text-anchor="start" x="195" y="-68.5" font-family="Helvetica,sans-Serif" font-size="10.00">Engine::Systems::DevConsole</text>
<text text-anchor="middle" x="262.5" y="-56.5" font-family="Helvetica,sans-Serif" font-size="10.00">::reflectComponent</text>
</a>
</g>
</g>
<!-- Node1&#45;&gt;Node2 -->
<g id="edge1_Node000001_Node000002" class="edge">
<title>Node1&#45;&gt;Node2</title>
<g id="a_edge1_Node000001_Node000002"><a xlink:title=" ">
<path fill="none" stroke="#63b8ff" d="M151.48,-51.13C159.38,-52.2 167.45,-53.29 175.46,-54.37"/>
<polygon fill="#63b8ff" stroke="#63b8ff" points="174.84,-57.82 185.21,-55.69 175.77,-50.88 174.84,-57.82"/>
</a>
</g>
</g>
<!-- Node3 -->
<g id="Node000003" class="node">
<title>Node3</title>
<g id="a_Node000003"><a xlink:href="classEngine_1_1Systems_1_1DevConsole.html#ac32df31f280826b3815a3c24bf7311a4" target="_top" xlink:title=" ">
<polygon fill="white" stroke="#666666" points="338,-32 187,-32 187,0 338,0 338,-32"/>
<text text-anchor="start" x="195" y="-18.5" font-family="Helvetica,sans-Serif" font-size="10.00">Engine::Systems::DevConsole</text>
<text text-anchor="middle" x="262.5" y="-6.5" font-family="Helvetica,sans-Serif" font-size="10.00">::setComponentValue</text>
</a>
</g>
</g>
<!-- Node1&#45;&gt;Node3 -->
<g id="edge2_Node000001_Node000003" class="edge">
<title>Node1&#45;&gt;Node3</title>
<g id="a_edge2_Node000001_Node000003"><a xlink:title=" ">
<path fill="none" stroke="#63b8ff" d="M151.48,-30.87C159.38,-29.8 167.45,-28.71 175.46,-27.63"/>
<polygon fill="#63b8ff" stroke="#63b8ff" points="175.77,-31.12 185.21,-26.31 174.84,-24.18 175.77,-31.12"/>
</a>
</g>
</g>
</g>
</svg>
