<?xml version="1.0" encoding="UTF-8" standalone="no"?>
<!DOCTYPE svg PUBLIC "-//W3C//DTD SVG 1.1//EN"
 "http://www.w3.org/Graphics/SVG/1.1/DTD/svg11.dtd">
<!-- Generated by graphviz version 12.1.0 (20240811.2233)
 -->
<!-- Title: GameManager::cycleDisplayMode Pages: 1 -->
<svg width="564pt" height="72pt"
 viewBox="0.00 0.00 563.75 72.00" xmlns="http://www.w3.org/2000/svg" xmlns:xlink="http://www.w3.org/1999/xlink">
<g id="graph0" class="graph" transform="scale(1 1) rotate(0) translate(4 68)">
<title>GameManager::cycleDisplayMode</title>
<!-- Node1 -->
<g id="Node000001" class="node">
<title>Node1</title>
<g id="a_Node000001"><a xlink:title=" ">
<polygon fill="#999999" stroke="#666666" points="166,-45 0,-45 0,-25 166,-25 166,-45"/>
<text text-anchor="middle" x="83" y="-31.5" font-family="Helvetica,sans-Serif" font-size="10.00">GameManager::cycleDisplayMode</text>
</a>
</g>
</g>
<!-- Node2 -->
<g id="Node000002" class="node">
<title>Node2</title>
<g id="a_Node000002"><a xlink:href="classParameters.html#a0cd03e2bf5323f95c2d64ca8472e019b" target="_top" xlink:title=" ">
<polygon fill="white" stroke="#666666" points="377,-64 202,-64 202,-44 377,-44 377,-64"/>
<text text-anchor="middle" x="289.5" y="-50.5" font-family="Helvetica,sans-Serif" font-size="10.00">Parameters::getCurrentDisplayMode</text>
</a>
</g>
</g>
<!-- Node1&#45;&gt;Node2 -->
<g id="edge1_Node000001_Node000002" class="edge">
<title>Node1&#45;&gt;Node2</title>
<g id="a_edge1_Node000001_Node000002"><a xlink:title=" ">
<path fill="none" stroke="#63b8ff" d="M166.29,-42.65C174.21,-43.38 182.3,-44.13 190.35,-44.88"/>
<polygon fill="#63b8ff" stroke="#63b8ff" points="189.91,-48.35 200.19,-45.8 190.56,-41.38 189.91,-48.35"/>
</a>
</g>
</g>
<!-- Node3 -->
<g id="Node000003" class="node">
<title>Node3</title>
<g id="a_Node000003"><a xlink:href="classParameters.html#a51dc69f2c06bb07b0e2ae9bc2594ce43" target="_top" xlink:title=" ">
<polygon fill="white" stroke="#666666" points="360.88,-26 218.12,-26 218.12,-6 360.88,-6 360.88,-26"/>
<text text-anchor="middle" x="289.5" y="-12.5" font-family="Helvetica,sans-Serif" font-size="10.00">Parameters::setDisplayMode</text>
</a>
</g>
</g>
<!-- Node1&#45;&gt;Node3 -->
<g id="edge2_Node000001_Node000003" class="edge">
<title>Node1&#45;&gt;Node3</title>
<g id="a_edge2_Node000001_Node000003"><a xlink:title=" ">
<path fill="none" stroke="#63b8ff" d="M166.29,-27.35C179.65,-26.11 193.47,-24.83 206.81,-23.59"/>
<polygon fill="#63b8ff" stroke="#63b8ff" points="206.74,-27.11 216.37,-22.7 206.09,-20.14 206.74,-27.11"/>
</a>
</g>
</g>
<!-- Node4 -->
<g id="Node000004" class="node">
<title>Node4</title>
<g id="a_Node000004"><a xlink:href="classParameters.html#a461466b15c2fa714bb7c93b5a8b7e034" target="_top" xlink:title=" ">
<polygon fill="white" stroke="#666666" points="555.75,-32 413,-32 413,0 555.75,0 555.75,-32"/>
<text text-anchor="start" x="421" y="-18.5" font-family="Helvetica,sans-Serif" font-size="10.00">Parameters::getDisplayMode</text>
<text text-anchor="middle" x="484.38" y="-6.5" font-family="Helvetica,sans-Serif" font-size="10.00">String</text>
</a>
</g>
</g>
<!-- Node3&#45;&gt;Node4 -->
<g id="edge3_Node000003_Node000004" class="edge">
<title>Node3&#45;&gt;Node4</title>
<g id="a_edge3_Node000003_Node000004"><a xlink:title=" ">
<path fill="none" stroke="#63b8ff" d="M361.22,-16C374.33,-16 388.11,-16 401.52,-16"/>
<polygon fill="#63b8ff" stroke="#63b8ff" points="401.15,-19.5 411.15,-16 401.15,-12.5 401.15,-19.5"/>
</a>
</g>
</g>
</g>
</svg>
