<?xml version="1.0" encoding="UTF-8" standalone="no"?>
<!DOCTYPE svg PUBLIC "-//W3C//DTD SVG 1.1//EN"
 "http://www.w3.org/Graphics/SVG/1.1/DTD/svg11.dtd">
<!-- Generated by graphviz version 12.1.0 (20240811.2233)
 -->
<!-- Title: Parameters::setupVideoSettings Pages: 1 -->
<svg width="363pt" height="240pt"
 viewBox="0.00 0.00 363.25 240.00" xmlns="http://www.w3.org/2000/svg" xmlns:xlink="http://www.w3.org/1999/xlink">
<g id="graph0" class="graph" transform="scale(1 1) rotate(0) translate(4 236)">
<title>Parameters::setupVideoSettings</title>
<!-- Node1 -->
<g id="Node000001" class="node">
<title>Node1</title>
<g id="a_Node000001"><a xlink:title=" ">
<polygon fill="#999999" stroke="#666666" points="157,-126 0,-126 0,-106 157,-106 157,-126"/>
<text text-anchor="middle" x="78.5" y="-112.5" font-family="Helvetica,sans-Serif" font-size="10.00">Parameters::setupVideoSettings</text>
</a>
</g>
</g>
<!-- Node2 -->
<g id="Node000002" class="node">
<title>Node2</title>
<g id="a_Node000002"><a xlink:href="classParameters.html#a30943fe99e7fa2007923912bdd56f59f" target="_top" xlink:title=" ">
<polygon fill="white" stroke="#666666" points="339.5,-232 208.75,-232 208.75,-200 339.5,-200 339.5,-232"/>
<text text-anchor="start" x="216.75" y="-218.5" font-family="Helvetica,sans-Serif" font-size="10.00">Parameters::getColorBlind</text>
<text text-anchor="middle" x="274.12" y="-206.5" font-family="Helvetica,sans-Serif" font-size="10.00">ModeString</text>
</a>
</g>
</g>
<!-- Node1&#45;&gt;Node2 -->
<g id="edge1_Node000001_Node000002" class="edge">
<title>Node1&#45;&gt;Node2</title>
<g id="a_edge1_Node000001_Node000002"><a xlink:title=" ">
<path fill="none" stroke="#63b8ff" d="M92.4,-126.3C112.73,-142.1 153.95,-172.47 193,-191 196.29,-192.56 199.7,-194.06 203.18,-195.48"/>
<polygon fill="#63b8ff" stroke="#63b8ff" points="201.76,-198.69 212.35,-199.01 204.27,-192.15 201.76,-198.69"/>
</a>
</g>
</g>
<!-- Node3 -->
<g id="Node000003" class="node">
<title>Node3</title>
<g id="a_Node000003"><a xlink:href="classParameters.html#a461466b15c2fa714bb7c93b5a8b7e034" target="_top" xlink:title=" ">
<polygon fill="white" stroke="#666666" points="345.5,-182 202.75,-182 202.75,-150 345.5,-150 345.5,-182"/>
<text text-anchor="start" x="210.75" y="-168.5" font-family="Helvetica,sans-Serif" font-size="10.00">Parameters::getDisplayMode</text>
<text text-anchor="middle" x="274.12" y="-156.5" font-family="Helvetica,sans-Serif" font-size="10.00">String</text>
</a>
</g>
</g>
<!-- Node1&#45;&gt;Node3 -->
<g id="edge2_Node000001_Node000003" class="edge">
<title>Node1&#45;&gt;Node3</title>
<g id="a_edge2_Node000001_Node000003"><a xlink:title=" ">
<path fill="none" stroke="#63b8ff" d="M120.09,-126.48C142.8,-132.35 171.82,-139.84 198.48,-146.72"/>
<polygon fill="#63b8ff" stroke="#63b8ff" points="197.32,-150.04 207.87,-149.15 199.07,-143.26 197.32,-150.04"/>
</a>
</g>
</g>
<!-- Node4 -->
<g id="Node000004" class="node">
<title>Node4</title>
<g id="a_Node000004"><a xlink:href="classParameters.html#a457a6ed2d096be7f5b648c7df1c7fafa" target="_top" xlink:title=" ">
<polygon fill="white" stroke="#666666" points="351.88,-132 196.38,-132 196.38,-100 351.88,-100 351.88,-132"/>
<text text-anchor="start" x="204.38" y="-118.5" font-family="Helvetica,sans-Serif" font-size="10.00">Parameters::getGraphicsQuality</text>
<text text-anchor="middle" x="274.12" y="-106.5" font-family="Helvetica,sans-Serif" font-size="10.00">String</text>
</a>
</g>
</g>
<!-- Node1&#45;&gt;Node4 -->
<g id="edge3_Node000001_Node000004" class="edge">
<title>Node1&#45;&gt;Node4</title>
<g id="a_edge3_Node000001_Node000004"><a xlink:title=" ">
<path fill="none" stroke="#63b8ff" d="M157.42,-116C166.36,-116 175.52,-116 184.59,-116"/>
<polygon fill="#63b8ff" stroke="#63b8ff" points="184.48,-119.5 194.48,-116 184.48,-112.5 184.48,-119.5"/>
</a>
</g>
</g>
<!-- Node5 -->
<g id="Node000005" class="node">
<title>Node5</title>
<g id="a_Node000005"><a xlink:href="classParameters.html#ab06f51d4f6cecc5d4ca32f6a770fca12" target="_top" xlink:title=" ">
<polygon fill="white" stroke="#666666" points="340.25,-82 208,-82 208,-50 340.25,-50 340.25,-82"/>
<text text-anchor="start" x="216" y="-68.5" font-family="Helvetica,sans-Serif" font-size="10.00">Parameters::getResolution</text>
<text text-anchor="middle" x="274.12" y="-56.5" font-family="Helvetica,sans-Serif" font-size="10.00">String</text>
</a>
</g>
</g>
<!-- Node1&#45;&gt;Node5 -->
<g id="edge4_Node000001_Node000005" class="edge">
<title>Node1&#45;&gt;Node5</title>
<g id="a_edge4_Node000001_Node000005"><a xlink:title=" ">
<path fill="none" stroke="#63b8ff" d="M120.09,-105.52C142.8,-99.65 171.82,-92.16 198.48,-85.28"/>
<polygon fill="#63b8ff" stroke="#63b8ff" points="199.07,-88.74 207.87,-82.85 197.32,-81.96 199.07,-88.74"/>
</a>
</g>
</g>
<!-- Node6 -->
<g id="Node000006" class="node">
<title>Node6</title>
<g id="a_Node000006"><a xlink:href="classParameters.html#abeed7c94e97e5aa1339f807a23765a4b" target="_top" xlink:title=" ">
<polygon fill="white" stroke="#666666" points="355.25,-32 193,-32 193,0 355.25,0 355.25,-32"/>
<text text-anchor="start" x="201" y="-18.5" font-family="Helvetica,sans-Serif" font-size="10.00">Parameters::updateVideoSettings</text>
<text text-anchor="middle" x="274.12" y="-6.5" font-family="Helvetica,sans-Serif" font-size="10.00">Positions</text>
</a>
</g>
</g>
<!-- Node1&#45;&gt;Node6 -->
<g id="edge5_Node000001_Node000006" class="edge">
<title>Node1&#45;&gt;Node6</title>
<g id="a_edge5_Node000001_Node000006"><a xlink:title=" ">
<path fill="none" stroke="#63b8ff" d="M92.4,-105.7C112.73,-89.9 153.95,-59.53 193,-41 196.29,-39.44 199.7,-37.94 203.18,-36.52"/>
<polygon fill="#63b8ff" stroke="#63b8ff" points="204.27,-39.85 212.35,-32.99 201.76,-33.31 204.27,-39.85"/>
</a>
</g>
</g>
</g>
</svg>
