<?xml version="1.0" encoding="UTF-8" standalone="no"?>
<!DOCTYPE svg PUBLIC "-//W3C//DTD SVG 1.1//EN"
 "http://www.w3.org/Graphics/SVG/1.1/DTD/svg11.dtd">
<!-- Generated by graphviz version 12.1.0 (20240811.2233)
 -->
<!-- Title: GameManager::initializeNetworking Pages: 1 -->
<svg width="571pt" height="256pt"
 viewBox="0.00 0.00 570.50 256.00" xmlns="http://www.w3.org/2000/svg" xmlns:xlink="http://www.w3.org/1999/xlink">
<g id="graph0" class="graph" transform="scale(1 1) rotate(0) translate(4 252)">
<title>GameManager::initializeNetworking</title>
<!-- Node1 -->
<g id="Node000001" class="node">
<title>Node1</title>
<g id="a_Node000001"><a xlink:title=" ">
<polygon fill="#999999" stroke="#666666" points="170.5,-134 0,-134 0,-114 170.5,-114 170.5,-134"/>
<text text-anchor="middle" x="85.25" y="-120.5" font-family="Helvetica,sans-Serif" font-size="10.00">GameManager::initializeNetworking</text>
</a>
</g>
</g>
<!-- Node2 -->
<g id="Node000002" class="node">
<title>Node2</title>
<g id="a_Node000002"><a xlink:href="classGameManager.html#ab7d648c8c27a581741269b09a5622776" target="_top" xlink:title=" ">
<polygon fill="white" stroke="#666666" points="359.38,-248 215.88,-248 215.88,-228 359.38,-228 359.38,-248"/>
<text text-anchor="middle" x="287.62" y="-234.5" font-family="Helvetica,sans-Serif" font-size="10.00">GameManager::onConnected</text>
</a>
</g>
</g>
<!-- Node1&#45;&gt;Node2 -->
<g id="edge1_Node000001_Node000002" class="edge">
<title>Node1&#45;&gt;Node2</title>
<g id="a_edge1_Node000001_Node000002"><a xlink:title=" ">
<path fill="none" stroke="#63b8ff" d="M96.12,-134.36C115.4,-153.99 160.28,-196.63 206.5,-219 210.26,-220.82 214.21,-222.47 218.25,-223.97"/>
<polygon fill="#63b8ff" stroke="#63b8ff" points="217.07,-227.27 227.66,-227.11 219.28,-220.63 217.07,-227.27"/>
</a>
</g>
</g>
<!-- Node4 -->
<g id="Node000004" class="node">
<title>Node4</title>
<g id="a_Node000004"><a xlink:href="classGameManager.html#ac4585cba1dc5e4a3b2febcdd1675a814" target="_top" xlink:title=" ">
<polygon fill="white" stroke="#666666" points="366.12,-210 209.12,-210 209.12,-190 366.12,-190 366.12,-210"/>
<text text-anchor="middle" x="287.62" y="-196.5" font-family="Helvetica,sans-Serif" font-size="10.00">GameManager::onRoomCreated</text>
</a>
</g>
</g>
<!-- Node1&#45;&gt;Node4 -->
<g id="edge3_Node000001_Node000004" class="edge">
<title>Node1&#45;&gt;Node4</title>
<g id="a_edge3_Node000001_Node000004"><a xlink:title=" ">
<path fill="none" stroke="#63b8ff" d="M104.89,-134.35C128.09,-146.87 169.23,-167.91 206.5,-181 212.23,-183.01 218.27,-184.88 224.35,-186.6"/>
<polygon fill="#63b8ff" stroke="#63b8ff" points="223.27,-189.93 233.83,-189.13 225.08,-183.17 223.27,-189.93"/>
</a>
</g>
</g>
<!-- Node5 -->
<g id="Node000005" class="node">
<title>Node5</title>
<g id="a_Node000005"><a xlink:href="classGameManager.html#a9a2668595f93dbf96a2753fccd5c044f" target="_top" xlink:title=" ">
<polygon fill="white" stroke="#666666" points="359.38,-172 215.88,-172 215.88,-152 359.38,-152 359.38,-172"/>
<text text-anchor="middle" x="287.62" y="-158.5" font-family="Helvetica,sans-Serif" font-size="10.00">GameManager::onRoomError</text>
</a>
</g>
</g>
<!-- Node1&#45;&gt;Node5 -->
<g id="edge4_Node000001_Node000005" class="edge">
<title>Node1&#45;&gt;Node5</title>
<g id="a_edge4_Node000001_Node000005"><a xlink:title=" ">
<path fill="none" stroke="#63b8ff" d="M141.53,-134.48C165.95,-139.12 194.86,-144.6 220.42,-149.44"/>
<polygon fill="#63b8ff" stroke="#63b8ff" points="219.56,-152.84 230.03,-151.27 220.86,-145.97 219.56,-152.84"/>
</a>
</g>
</g>
<!-- Node6 -->
<g id="Node000006" class="node">
<title>Node6</title>
<g id="a_Node000006"><a xlink:href="classGameManager.html#a4033d43700b3673e7a062590376451e2" target="_top" xlink:title=" ">
<polygon fill="white" stroke="#666666" points="363.12,-96 212.12,-96 212.12,-76 363.12,-76 363.12,-96"/>
<text text-anchor="middle" x="287.62" y="-82.5" font-family="Helvetica,sans-Serif" font-size="10.00">GameManager::onRoomJoined</text>
</a>
</g>
</g>
<!-- Node1&#45;&gt;Node6 -->
<g id="edge5_Node000001_Node000006" class="edge">
<title>Node1&#45;&gt;Node6</title>
<g id="a_edge5_Node000001_Node000006"><a xlink:title=" ">
<path fill="none" stroke="#63b8ff" d="M141.53,-113.52C165.95,-108.88 194.86,-103.4 220.42,-98.56"/>
<polygon fill="#63b8ff" stroke="#63b8ff" points="220.86,-102.03 230.03,-96.73 219.56,-95.16 220.86,-102.03"/>
</a>
</g>
</g>
<!-- Node8 -->
<g id="Node000008" class="node">
<title>Node8</title>
<g id="a_Node000008"><a xlink:href="classGameManager.html#a0ec8dae876f394af00216bcaa4082670" target="_top" xlink:title=" ">
<polygon fill="white" stroke="#666666" points="357.12,-134 218.12,-134 218.12,-114 357.12,-114 357.12,-134"/>
<text text-anchor="middle" x="287.62" y="-120.5" font-family="Helvetica,sans-Serif" font-size="10.00">GameManager::onRoomLeft</text>
</a>
</g>
</g>
<!-- Node1&#45;&gt;Node8 -->
<g id="edge8_Node000001_Node000008" class="edge">
<title>Node1&#45;&gt;Node8</title>
<g id="a_edge8_Node000001_Node000008"><a xlink:title=" ">
<path fill="none" stroke="#63b8ff" d="M170.94,-124C182.63,-124 194.62,-124 206.23,-124"/>
<polygon fill="#63b8ff" stroke="#63b8ff" points="206.19,-127.5 216.19,-124 206.19,-120.5 206.19,-127.5"/>
</a>
</g>
</g>
<!-- Node9 -->
<g id="Node000009" class="node">
<title>Node9</title>
<g id="a_Node000009"><a xlink:href="classGameManager.html#a436ef659f0f618e7b791c0b492a544ec" target="_top" xlink:title=" ">
<polygon fill="white" stroke="#666666" points="356.75,-58 218.5,-58 218.5,-38 356.75,-38 356.75,-58"/>
<text text-anchor="middle" x="287.62" y="-44.5" font-family="Helvetica,sans-Serif" font-size="10.00">GameManager::onRoomList</text>
</a>
</g>
</g>
<!-- Node1&#45;&gt;Node9 -->
<g id="edge10_Node000001_Node000009" class="edge">
<title>Node1&#45;&gt;Node9</title>
<g id="a_edge10_Node000001_Node000009"><a xlink:title=" ">
<path fill="none" stroke="#63b8ff" d="M104.89,-113.65C128.09,-101.13 169.23,-80.09 206.5,-67 212.23,-64.99 218.27,-63.12 224.35,-61.4"/>
<polygon fill="#63b8ff" stroke="#63b8ff" points="225.08,-64.83 233.83,-58.87 223.27,-58.07 225.08,-64.83"/>
</a>
</g>
</g>
<!-- Node12 -->
<g id="Node000012" class="node">
<title>Node12</title>
<g id="a_Node000012"><a xlink:href="classGameManager.html#aa828e77f2d247c046ff53aa7b7848d22" target="_top" xlink:title=" ">
<polygon fill="white" stroke="#666666" points="368.75,-20 206.5,-20 206.5,0 368.75,0 368.75,-20"/>
<text text-anchor="middle" x="287.62" y="-6.5" font-family="Helvetica,sans-Serif" font-size="10.00">GameManager::onRoomMessage</text>
</a>
</g>
</g>
<!-- Node1&#45;&gt;Node12 -->
<g id="edge14_Node000001_Node000012" class="edge">
<title>Node1&#45;&gt;Node12</title>
<g id="a_edge14_Node000001_Node000012"><a xlink:title=" ">
<path fill="none" stroke="#63b8ff" d="M96.12,-113.64C115.4,-94.01 160.28,-51.37 206.5,-29 210.26,-27.18 214.21,-25.53 218.25,-24.03"/>
<polygon fill="#63b8ff" stroke="#63b8ff" points="219.28,-27.37 227.66,-20.89 217.07,-20.73 219.28,-27.37"/>
</a>
</g>
</g>
<!-- Node3 -->
<g id="Node000003" class="node">
<title>Node3</title>
<g id="a_Node000003"><a xlink:href="classGameManager.html#a23ec271d95d996128b158d3e5e3fe333" target="_top" xlink:title=" ">
<polygon fill="white" stroke="#666666" points="562.5,-134 404.75,-134 404.75,-114 562.5,-114 562.5,-134"/>
<text text-anchor="middle" x="483.62" y="-120.5" font-family="Helvetica,sans-Serif" font-size="10.00">GameManager::refreshRoomList</text>
</a>
</g>
</g>
<!-- Node2&#45;&gt;Node3 -->
<g id="edge2_Node000002_Node000003" class="edge">
<title>Node2&#45;&gt;Node3</title>
<g id="a_edge2_Node000002_Node000003"><a xlink:title=" ">
<path fill="none" stroke="#63b8ff" d="M347.09,-227.5C354.57,-225.19 361.97,-222.39 368.75,-219 407.63,-199.54 444.77,-164.41 465.54,-142.76"/>
<polygon fill="#63b8ff" stroke="#63b8ff" points="468.07,-145.18 472.37,-135.49 462.97,-140.39 468.07,-145.18"/>
</a>
</g>
</g>
<!-- Node6&#45;&gt;Node3 -->
<g id="edge7_Node000006_Node000003" class="edge">
<title>Node6&#45;&gt;Node3</title>
<g id="a_edge7_Node000006_Node000003"><a xlink:title=" ">
<path fill="none" stroke="#63b8ff" d="M342.15,-96.48C365.69,-101.09 393.53,-106.55 418.19,-111.38"/>
<polygon fill="#63b8ff" stroke="#63b8ff" points="417.3,-114.77 427.79,-113.26 418.65,-107.9 417.3,-114.77"/>
</a>
</g>
</g>
<!-- Node7 -->
<g id="Node000007" class="node">
<title>Node7</title>
<g id="a_Node000007"><a xlink:href="GameTypes_8hpp.html#ae3c1e425aceb99f3cab2037f4b24ab1c" target="_top" xlink:title=" ">
<polygon fill="white" stroke="#666666" points="543.38,-96 423.88,-96 423.88,-76 543.38,-76 543.38,-96"/>
<text text-anchor="middle" x="483.62" y="-82.5" font-family="Helvetica,sans-Serif" font-size="10.00">getMaxPlayersForMode</text>
</a>
</g>
</g>
<!-- Node6&#45;&gt;Node7 -->
<g id="edge6_Node000006_Node000007" class="edge">
<title>Node6&#45;&gt;Node7</title>
<g id="a_edge6_Node000006_Node000007"><a xlink:title=" ">
<path fill="none" stroke="#63b8ff" d="M363.35,-86C379.41,-86 396.34,-86 412.23,-86"/>
<polygon fill="#63b8ff" stroke="#63b8ff" points="412.08,-89.5 422.08,-86 412.08,-82.5 412.08,-89.5"/>
</a>
</g>
</g>
<!-- Node8&#45;&gt;Node3 -->
<g id="edge9_Node000008_Node000003" class="edge">
<title>Node8&#45;&gt;Node3</title>
<g id="a_edge9_Node000008_Node000003"><a xlink:title=" ">
<path fill="none" stroke="#63b8ff" d="M357.57,-124C369.04,-124 381.09,-124 392.98,-124"/>
<polygon fill="#63b8ff" stroke="#63b8ff" points="392.8,-127.5 402.8,-124 392.8,-120.5 392.8,-127.5"/>
</a>
</g>
</g>
<!-- Node9&#45;&gt;Node7 -->
<g id="edge12_Node000009_Node000007" class="edge">
<title>Node9&#45;&gt;Node7</title>
<g id="a_edge12_Node000009_Node000007"><a xlink:title=" ">
<path fill="none" stroke="#63b8ff" d="M342.15,-58.48C365.69,-63.09 393.53,-68.55 418.19,-73.38"/>
<polygon fill="#63b8ff" stroke="#63b8ff" points="417.3,-76.77 427.79,-75.26 418.65,-69.9 417.3,-76.77"/>
</a>
</g>
</g>
<!-- Node10 -->
<g id="Node000010" class="node">
<title>Node10</title>
<g id="a_Node000010"><a xlink:href="classGameManager.html#af597fa0982e7be211f1400f929fabeaf" target="_top" xlink:title=" ">
<polygon fill="white" stroke="#666666" points="553.12,-58 414.12,-58 414.12,-38 553.12,-38 553.12,-58"/>
<text text-anchor="middle" x="483.62" y="-44.5" font-family="Helvetica,sans-Serif" font-size="10.00">GameManager::createRoom</text>
</a>
</g>
</g>
<!-- Node9&#45;&gt;Node10 -->
<g id="edge11_Node000009_Node000010" class="edge">
<title>Node9&#45;&gt;Node10</title>
<g id="a_edge11_Node000009_Node000010"><a xlink:title=" ">
<path fill="none" stroke="#63b8ff" d="M357.02,-48C371.71,-48 387.37,-48 402.46,-48"/>
<polygon fill="#63b8ff" stroke="#63b8ff" points="402.35,-51.5 412.35,-48 402.35,-44.5 402.35,-51.5"/>
</a>
</g>
</g>
<!-- Node11 -->
<g id="Node000011" class="node">
<title>Node11</title>
<g id="a_Node000011"><a xlink:href="classGameManager.html#aa4a2d722a376c7c2025a6172d39e5f16" target="_top" xlink:title=" ">
<polygon fill="white" stroke="#666666" points="547.12,-20 420.12,-20 420.12,0 547.12,0 547.12,-20"/>
<text text-anchor="middle" x="483.62" y="-6.5" font-family="Helvetica,sans-Serif" font-size="10.00">GameManager::joinRoom</text>
</a>
</g>
</g>
<!-- Node9&#45;&gt;Node11 -->
<g id="edge13_Node000009_Node000011" class="edge">
<title>Node9&#45;&gt;Node11</title>
<g id="a_edge13_Node000009_Node000011"><a xlink:title=" ">
<path fill="none" stroke="#63b8ff" d="M342.15,-37.52C365.69,-32.91 393.53,-27.45 418.19,-22.62"/>
<polygon fill="#63b8ff" stroke="#63b8ff" points="418.65,-26.1 427.79,-20.74 417.3,-19.23 418.65,-26.1"/>
</a>
</g>
</g>
</g>
</svg>
