<?xml version="1.0" encoding="UTF-8" standalone="no"?>
<!DOCTYPE svg PUBLIC "-//W3C//DTD SVG 1.1//EN"
 "http://www.w3.org/Graphics/SVG/1.1/DTD/svg11.dtd">
<!-- Generated by graphviz version 12.1.0 (20240811.2233)
 -->
<!-- Title: GameManager::GameManager Pages: 1 -->
<svg width="740pt" height="378pt"
 viewBox="0.00 0.00 739.50 378.00" xmlns="http://www.w3.org/2000/svg" xmlns:xlink="http://www.w3.org/1999/xlink">
<g id="graph0" class="graph" transform="scale(1 1) rotate(0) translate(4 374)">
<title>GameManager::GameManager</title>
<!-- Node1 -->
<g id="Node000001" class="node">
<title>Node1</title>
<g id="a_Node000001"><a xlink:title=" ">
<polygon fill="#999999" stroke="#666666" points="149.5,-172 0,-172 0,-152 149.5,-152 149.5,-172"/>
<text text-anchor="middle" x="74.75" y="-158.5" font-family="Helvetica,sans-Serif" font-size="10.00">GameManager::GameManager</text>
</a>
</g>
</g>
<!-- Node2 -->
<g id="Node000002" class="node">
<title>Node2</title>
<g id="a_Node000002"><a xlink:href="classControlsConfig.html#a971fd58e74e4b77a02dd7d2b4c9a796e" target="_top" xlink:title=" ">
<polygon fill="white" stroke="#666666" points="339.12,-327 186.62,-327 186.62,-307 339.12,-307 339.12,-327"/>
<text text-anchor="middle" x="262.88" y="-313.5" font-family="Helvetica,sans-Serif" font-size="10.00">ControlsConfig::loadResources</text>
</a>
</g>
</g>
<!-- Node1&#45;&gt;Node2 -->
<g id="edge1_Node000001_Node000002" class="edge">
<title>Node1&#45;&gt;Node2</title>
<g id="a_edge1_Node000001_Node000002"><a xlink:title=" ">
<path fill="none" stroke="#63b8ff" d="M81.38,-172.45C95.45,-197.57 134.69,-261.66 185.5,-295 189.77,-297.8 194.4,-300.25 199.2,-302.39"/>
<polygon fill="#63b8ff" stroke="#63b8ff" points="197.9,-305.65 208.49,-306.06 200.47,-299.13 197.9,-305.65"/>
</a>
</g>
</g>
<!-- Node6 -->
<g id="Node000006" class="node">
<title>Node6</title>
<g id="a_Node000006"><a xlink:href="classErrorServer.html#aebdad5ffd89240d9cb4b1f2d12a8244a" target="_top" xlink:title=" ">
<polygon fill="white" stroke="#666666" points="331.25,-286 194.5,-286 194.5,-266 331.25,-266 331.25,-286"/>
<text text-anchor="middle" x="262.88" y="-272.5" font-family="Helvetica,sans-Serif" font-size="10.00">ErrorServer::loadResources</text>
</a>
</g>
</g>
<!-- Node1&#45;&gt;Node6 -->
<g id="edge5_Node000001_Node000006" class="edge">
<title>Node1&#45;&gt;Node6</title>
<g id="a_edge5_Node000001_Node000006"><a xlink:title=" ">
<path fill="none" stroke="#63b8ff" d="M84.58,-172.36C101.87,-191.98 142.33,-234.6 185.5,-257 188.77,-258.7 192.21,-260.25 195.73,-261.67"/>
<polygon fill="#63b8ff" stroke="#63b8ff" points="194.47,-264.94 205.07,-265.02 196.84,-258.35 194.47,-264.94"/>
</a>
</g>
</g>
<!-- Node8 -->
<g id="Node000008" class="node">
<title>Node8</title>
<g id="a_Node000008"><a xlink:href="classLaunch.html#aff7fe68fa2835467f3166801c00526ed" target="_top" xlink:title=" ">
<polygon fill="white" stroke="#666666" points="322.25,-248 203.5,-248 203.5,-228 322.25,-228 322.25,-248"/>
<text text-anchor="middle" x="262.88" y="-234.5" font-family="Helvetica,sans-Serif" font-size="10.00">Launch::loadResources</text>
</a>
</g>
</g>
<!-- Node1&#45;&gt;Node8 -->
<g id="edge7_Node000001_Node000008" class="edge">
<title>Node1&#45;&gt;Node8</title>
<g id="a_edge7_Node000001_Node000008"><a xlink:title=" ">
<path fill="none" stroke="#63b8ff" d="M92.66,-172.39C113.73,-184.95 151.16,-206.02 185.5,-219 190.72,-220.97 196.21,-222.8 201.77,-224.48"/>
<polygon fill="#63b8ff" stroke="#63b8ff" points="200.43,-227.73 211,-227.1 202.34,-221 200.43,-227.73"/>
</a>
</g>
</g>
<!-- Node10 -->
<g id="Node000010" class="node">
<title>Node10</title>
<g id="a_Node000010"><a xlink:href="classParameters.html#a8e74ddb8f408ad9e725e3784f8a873e7" target="_top" xlink:title=" ">
<polygon fill="white" stroke="#666666" points="331.62,-210 194.12,-210 194.12,-190 331.62,-190 331.62,-210"/>
<text text-anchor="middle" x="262.88" y="-196.5" font-family="Helvetica,sans-Serif" font-size="10.00">Parameters::loadResources</text>
</a>
</g>
</g>
<!-- Node1&#45;&gt;Node10 -->
<g id="edge9_Node000001_Node000010" class="edge">
<title>Node1&#45;&gt;Node10</title>
<g id="a_edge9_Node000001_Node000010"><a xlink:title=" ">
<path fill="none" stroke="#63b8ff" d="M127.1,-172.48C149.48,-177.05 175.91,-182.45 199.42,-187.25"/>
<polygon fill="#63b8ff" stroke="#63b8ff" points="198.71,-190.68 209.21,-189.25 200.11,-183.82 198.71,-190.68"/>
</a>
</g>
</g>
<!-- Node18 -->
<g id="Node000018" class="node">
<title>Node18</title>
<g id="a_Node000018"><a xlink:href="classPlayer.html#a603d7d308af08e4f8941908a5f247697" target="_top" xlink:title=" ">
<polygon fill="white" stroke="#666666" points="320.38,-172 205.38,-172 205.38,-152 320.38,-152 320.38,-172"/>
<text text-anchor="middle" x="262.88" y="-158.5" font-family="Helvetica,sans-Serif" font-size="10.00">Player::loadResources</text>
</a>
</g>
</g>
<!-- Node1&#45;&gt;Node18 -->
<g id="edge17_Node000001_Node000018" class="edge">
<title>Node1&#45;&gt;Node18</title>
<g id="a_edge17_Node000001_Node000018"><a xlink:title=" ">
<path fill="none" stroke="#63b8ff" d="M149.85,-162C164.32,-162 179.44,-162 193.72,-162"/>
<polygon fill="#63b8ff" stroke="#63b8ff" points="193.44,-165.5 203.44,-162 193.44,-158.5 193.44,-165.5"/>
</a>
</g>
</g>
<!-- Node20 -->
<g id="Node000020" class="node">
<title>Node20</title>
<g id="a_Node000020"><a xlink:href="classButton.html#a1bc48ffb995c81fa2ac87aa011538afc" target="_top" xlink:title=" ">
<polygon fill="white" stroke="#666666" points="326,-134 199.75,-134 199.75,-114 326,-114 326,-134"/>
<text text-anchor="middle" x="262.88" y="-120.5" font-family="Helvetica,sans-Serif" font-size="10.00">Button::setCharacterSize</text>
</a>
</g>
</g>
<!-- Node1&#45;&gt;Node20 -->
<g id="edge19_Node000001_Node000020" class="edge">
<title>Node1&#45;&gt;Node20</title>
<g id="a_edge19_Node000001_Node000020"><a xlink:title=" ">
<path fill="none" stroke="#63b8ff" d="M127.1,-151.52C149.48,-146.95 175.91,-141.55 199.42,-136.75"/>
<polygon fill="#63b8ff" stroke="#63b8ff" points="200.11,-140.18 209.21,-134.75 198.71,-133.32 200.11,-140.18"/>
</a>
</g>
</g>
<!-- Node21 -->
<g id="Node000021" class="node">
<title>Node21</title>
<g id="a_Node000021"><a xlink:href="classParamButton.html#a9ff49d7ae4bb158a163b78ef2ff93aa3" target="_top" xlink:title=" ">
<polygon fill="white" stroke="#666666" points="340.25,-96 185.5,-96 185.5,-76 340.25,-76 340.25,-96"/>
<text text-anchor="middle" x="262.88" y="-82.5" font-family="Helvetica,sans-Serif" font-size="10.00">ParamButton::setCharacterSize</text>
</a>
</g>
</g>
<!-- Node1&#45;&gt;Node21 -->
<g id="edge20_Node000001_Node000021" class="edge">
<title>Node1&#45;&gt;Node21</title>
<g id="a_edge20_Node000001_Node000021"><a xlink:title=" ">
<path fill="none" stroke="#63b8ff" d="M92.66,-151.61C113.73,-139.05 151.16,-117.98 185.5,-105 190.72,-103.03 196.21,-101.2 201.77,-99.52"/>
<polygon fill="#63b8ff" stroke="#63b8ff" points="202.34,-103 211,-96.9 200.43,-96.27 202.34,-103"/>
</a>
</g>
</g>
<!-- Node22 -->
<g id="Node000022" class="node">
<title>Node22</title>
<g id="a_Node000022"><a xlink:href="classParticleSystem.html#a8965c33eb7b71a2f42957d05ffd68044" target="_top" xlink:title=" ">
<polygon fill="white" stroke="#666666" points="339.12,-58 186.62,-58 186.62,-38 339.12,-38 339.12,-58"/>
<text text-anchor="middle" x="262.88" y="-44.5" font-family="Helvetica,sans-Serif" font-size="10.00">ParticleSystem::setParameters</text>
</a>
</g>
</g>
<!-- Node1&#45;&gt;Node22 -->
<g id="edge21_Node000001_Node000022" class="edge">
<title>Node1&#45;&gt;Node22</title>
<g id="a_edge21_Node000001_Node000022"><a xlink:title=" ">
<path fill="none" stroke="#63b8ff" d="M84.58,-151.64C101.87,-132.02 142.33,-89.4 185.5,-67 188.77,-65.3 192.21,-63.75 195.73,-62.33"/>
<polygon fill="#63b8ff" stroke="#63b8ff" points="196.84,-65.65 205.07,-58.98 194.47,-59.06 196.84,-65.65"/>
</a>
</g>
</g>
<!-- Node23 -->
<g id="Node000023" class="node">
<title>Node23</title>
<g id="a_Node000023"><a xlink:href="classParamButton.html#a8d13151ad6cbd6c9e40af00f97782368" target="_top" xlink:title=" ">
<polygon fill="white" stroke="#666666" points="338,-20 187.75,-20 187.75,0 338,0 338,-20"/>
<text text-anchor="middle" x="262.88" y="-6.5" font-family="Helvetica,sans-Serif" font-size="10.00">ParamButton::setupVolumeBar</text>
</a>
</g>
</g>
<!-- Node1&#45;&gt;Node23 -->
<g id="edge22_Node000001_Node000023" class="edge">
<title>Node1&#45;&gt;Node23</title>
<g id="a_edge22_Node000001_Node000023"><a xlink:title=" ">
<path fill="none" stroke="#63b8ff" d="M81.1,-151.8C94.82,-126.68 133.83,-61.56 185.5,-29 187.79,-27.56 190.19,-26.22 192.66,-24.99"/>
<polygon fill="#63b8ff" stroke="#63b8ff" points="193.95,-28.24 201.75,-21.07 191.18,-21.81 193.95,-28.24"/>
</a>
</g>
</g>
<!-- Node3 -->
<g id="Node000003" class="node">
<title>Node3</title>
<g id="a_Node000003"><a xlink:href="classControlsConfig.html#a19d45c2752ac1653237de9314510ebc2" target="_top" xlink:title=" ">
<polygon fill="white" stroke="#666666" points="526.12,-336 383.38,-336 383.38,-304 526.12,-304 526.12,-336"/>
<text text-anchor="start" x="391.38" y="-322.5" font-family="Helvetica,sans-Serif" font-size="10.00">ControlsConfig::setupControl</text>
<text text-anchor="middle" x="454.75" y="-310.5" font-family="Helvetica,sans-Serif" font-size="10.00">Settings</text>
</a>
</g>
</g>
<!-- Node2&#45;&gt;Node3 -->
<g id="edge2_Node000002_Node000003" class="edge">
<title>Node2&#45;&gt;Node3</title>
<g id="a_edge2_Node000002_Node000003"><a xlink:title=" ">
<path fill="none" stroke="#63b8ff" d="M339.46,-318.19C350.02,-318.36 360.91,-318.53 371.58,-318.7"/>
<polygon fill="#63b8ff" stroke="#63b8ff" points="371.48,-322.2 381.54,-318.86 371.59,-315.2 371.48,-322.2"/>
</a>
</g>
</g>
<!-- Node4 -->
<g id="Node000004" class="node">
<title>Node4</title>
<g id="a_Node000004"><a xlink:href="classControlsConfig.html#a98c32bfcca7b184b230394e79bdac59e" target="_top" xlink:title=" ">
<polygon fill="white" stroke="#666666" points="722.5,-370 578.25,-370 578.25,-350 722.5,-350 722.5,-370"/>
<text text-anchor="middle" x="650.38" y="-356.5" font-family="Helvetica,sans-Serif" font-size="10.00">ControlsConfig::getKeyName</text>
</a>
</g>
</g>
<!-- Node3&#45;&gt;Node4 -->
<g id="edge3_Node000003_Node000004" class="edge">
<title>Node3&#45;&gt;Node4</title>
<g id="a_edge3_Node000003_Node000004"><a xlink:title=" ">
<path fill="none" stroke="#63b8ff" d="M526.47,-334.61C546.52,-338.75 568.18,-343.23 587.65,-347.25"/>
<polygon fill="#63b8ff" stroke="#63b8ff" points="586.85,-350.66 597.35,-349.25 588.27,-343.8 586.85,-350.66"/>
</a>
</g>
</g>
<!-- Node5 -->
<g id="Node000005" class="node">
<title>Node5</title>
<g id="a_Node000005"><a xlink:href="classControlsConfig.html#a5d7aa2d264ab4f3dfeb428e81e6c2f82" target="_top" xlink:title=" ">
<polygon fill="white" stroke="#666666" points="724.38,-332 576.38,-332 576.38,-300 724.38,-300 724.38,-332"/>
<text text-anchor="start" x="584.38" y="-318.5" font-family="Helvetica,sans-Serif" font-size="10.00">ControlsConfig::updateControl</text>
<text text-anchor="middle" x="650.38" y="-306.5" font-family="Helvetica,sans-Serif" font-size="10.00">SettingsPositions</text>
</a>
</g>
</g>
<!-- Node3&#45;&gt;Node5 -->
<g id="edge4_Node000003_Node000005" class="edge">
<title>Node3&#45;&gt;Node5</title>
<g id="a_edge4_Node000003_Node000005"><a xlink:title=" ">
<path fill="none" stroke="#63b8ff" d="M526.47,-318.54C538.92,-318.28 552,-318.01 564.78,-317.75"/>
<polygon fill="#63b8ff" stroke="#63b8ff" points="564.48,-321.25 574.4,-317.55 564.33,-314.26 564.48,-321.25"/>
</a>
</g>
</g>
<!-- Node7 -->
<g id="Node000007" class="node">
<title>Node7</title>
<g id="a_Node000007"><a xlink:href="classErrorServer.html#a404c80b1d4794111a3b3d5a75a67575e" target="_top" xlink:title=" ">
<polygon fill="white" stroke="#666666" points="514.5,-286 395,-286 395,-266 514.5,-266 514.5,-286"/>
<text text-anchor="middle" x="454.75" y="-272.5" font-family="Helvetica,sans-Serif" font-size="10.00">ErrorServer::centerLogo</text>
</a>
</g>
</g>
<!-- Node6&#45;&gt;Node7 -->
<g id="edge6_Node000006_Node000007" class="edge">
<title>Node6&#45;&gt;Node7</title>
<g id="a_edge6_Node000006_Node000007"><a xlink:title=" ">
<path fill="none" stroke="#63b8ff" d="M331.62,-276C348.32,-276 366.25,-276 383.08,-276"/>
<polygon fill="#63b8ff" stroke="#63b8ff" points="383.02,-279.5 393.02,-276 383.02,-272.5 383.02,-279.5"/>
</a>
</g>
</g>
<!-- Node9 -->
<g id="Node000009" class="node">
<title>Node9</title>
<g id="a_Node000009"><a xlink:href="classLaunch.html#ae9147199644338655660e8f6fd0be189" target="_top" xlink:title=" ">
<polygon fill="white" stroke="#666666" points="505.5,-248 404,-248 404,-228 505.5,-228 505.5,-248"/>
<text text-anchor="middle" x="454.75" y="-234.5" font-family="Helvetica,sans-Serif" font-size="10.00">Launch::centerLogo</text>
</a>
</g>
</g>
<!-- Node8&#45;&gt;Node9 -->
<g id="edge8_Node000008_Node000009" class="edge">
<title>Node8&#45;&gt;Node9</title>
<g id="a_edge8_Node000008_Node000009"><a xlink:title=" ">
<path fill="none" stroke="#63b8ff" d="M322.65,-238C344.73,-238 369.87,-238 392.19,-238"/>
<polygon fill="#63b8ff" stroke="#63b8ff" points="392.06,-241.5 402.06,-238 392.06,-234.5 392.06,-241.5"/>
</a>
</g>
</g>
<!-- Node11 -->
<g id="Node000011" class="node">
<title>Node11</title>
<g id="a_Node000011"><a xlink:href="classParameters.html#a580c3fa59ac382709b50a0fddf1350e3" target="_top" xlink:title=" ">
<polygon fill="white" stroke="#666666" points="513.75,-210 395.75,-210 395.75,-190 513.75,-190 513.75,-210"/>
<text text-anchor="middle" x="454.75" y="-196.5" font-family="Helvetica,sans-Serif" font-size="10.00">Parameters::centerText</text>
</a>
</g>
</g>
<!-- Node10&#45;&gt;Node11 -->
<g id="edge10_Node000010_Node000011" class="edge">
<title>Node10&#45;&gt;Node11</title>
<g id="a_edge10_Node000010_Node000011"><a xlink:title=" ">
<path fill="none" stroke="#63b8ff" d="M331.89,-200C348.91,-200 367.19,-200 384.28,-200"/>
<polygon fill="#63b8ff" stroke="#63b8ff" points="383.8,-203.5 393.8,-200 383.8,-196.5 383.8,-203.5"/>
</a>
</g>
</g>
<!-- Node12 -->
<g id="Node000012" class="node">
<title>Node12</title>
<g id="a_Node000012"><a xlink:href="classParameters.html#a97f0af15da3b0a1a8b3702fc5b56556e" target="_top" xlink:title=" ">
<polygon fill="white" stroke="#666666" points="533.25,-172 376.25,-172 376.25,-152 533.25,-152 533.25,-172"/>
<text text-anchor="middle" x="454.75" y="-158.5" font-family="Helvetica,sans-Serif" font-size="10.00">Parameters::setupVideoSettings</text>
</a>
</g>
</g>
<!-- Node10&#45;&gt;Node12 -->
<g id="edge11_Node000010_Node000012" class="edge">
<title>Node10&#45;&gt;Node12</title>
<g id="a_edge11_Node000010_Node000012"><a xlink:title=" ">
<path fill="none" stroke="#63b8ff" d="M316.26,-189.52C339.19,-184.93 366.3,-179.5 390.36,-174.69"/>
<polygon fill="#63b8ff" stroke="#63b8ff" points="390.93,-178.14 400.05,-172.75 389.56,-171.28 390.93,-178.14"/>
</a>
</g>
</g>
<!-- Node13 -->
<g id="Node000013" class="node">
<title>Node13</title>
<g id="a_Node000013"><a xlink:href="classParameters.html#a30943fe99e7fa2007923912bdd56f59f" target="_top" xlink:title=" ">
<polygon fill="white" stroke="#666666" points="715.75,-278 585,-278 585,-246 715.75,-246 715.75,-278"/>
<text text-anchor="start" x="593" y="-264.5" font-family="Helvetica,sans-Serif" font-size="10.00">Parameters::getColorBlind</text>
<text text-anchor="middle" x="650.38" y="-252.5" font-family="Helvetica,sans-Serif" font-size="10.00">ModeString</text>
</a>
</g>
</g>
<!-- Node12&#45;&gt;Node13 -->
<g id="edge12_Node000012_Node000013" class="edge">
<title>Node12&#45;&gt;Node13</title>
<g id="a_edge12_Node000012_Node000013"><a xlink:title=" ">
<path fill="none" stroke="#63b8ff" d="M517.36,-172.38C523,-174.7 528.4,-177.54 533.25,-181 557.33,-198.19 545.71,-219.07 569.25,-237 571.03,-238.36 572.89,-239.64 574.81,-240.86"/>
<polygon fill="#63b8ff" stroke="#63b8ff" points="573.04,-243.88 583.49,-245.65 576.42,-237.75 573.04,-243.88"/>
</a>
</g>
</g>
<!-- Node14 -->
<g id="Node000014" class="node">
<title>Node14</title>
<g id="a_Node000014"><a xlink:href="classParameters.html#a461466b15c2fa714bb7c93b5a8b7e034" target="_top" xlink:title=" ">
<polygon fill="white" stroke="#666666" points="721.75,-228 579,-228 579,-196 721.75,-196 721.75,-228"/>
<text text-anchor="start" x="587" y="-214.5" font-family="Helvetica,sans-Serif" font-size="10.00">Parameters::getDisplayMode</text>
<text text-anchor="middle" x="650.38" y="-202.5" font-family="Helvetica,sans-Serif" font-size="10.00">String</text>
</a>
</g>
</g>
<!-- Node12&#45;&gt;Node14 -->
<g id="edge13_Node000012_Node000014" class="edge">
<title>Node12&#45;&gt;Node14</title>
<g id="a_edge13_Node000012_Node000014"><a xlink:title=" ">
<path fill="none" stroke="#63b8ff" d="M499.24,-172.5C510.34,-175.22 522.25,-178.18 533.25,-181 547.59,-184.67 562.89,-188.69 577.53,-192.58"/>
<polygon fill="#63b8ff" stroke="#63b8ff" points="576.54,-195.93 587.1,-195.13 578.34,-189.17 576.54,-195.93"/>
</a>
</g>
</g>
<!-- Node15 -->
<g id="Node000015" class="node">
<title>Node15</title>
<g id="a_Node000015"><a xlink:href="classParameters.html#a457a6ed2d096be7f5b648c7df1c7fafa" target="_top" xlink:title=" ">
<polygon fill="white" stroke="#666666" points="728.12,-178 572.62,-178 572.62,-146 728.12,-146 728.12,-178"/>
<text text-anchor="start" x="580.62" y="-164.5" font-family="Helvetica,sans-Serif" font-size="10.00">Parameters::getGraphicsQuality</text>
<text text-anchor="middle" x="650.38" y="-152.5" font-family="Helvetica,sans-Serif" font-size="10.00">String</text>
</a>
</g>
</g>
<!-- Node12&#45;&gt;Node15 -->
<g id="edge14_Node000012_Node000015" class="edge">
<title>Node12&#45;&gt;Node15</title>
<g id="a_edge14_Node000012_Node000015"><a xlink:title=" ">
<path fill="none" stroke="#63b8ff" d="M533.67,-162C542.61,-162 551.77,-162 560.84,-162"/>
<polygon fill="#63b8ff" stroke="#63b8ff" points="560.73,-165.5 570.73,-162 560.73,-158.5 560.73,-165.5"/>
</a>
</g>
</g>
<!-- Node16 -->
<g id="Node000016" class="node">
<title>Node16</title>
<g id="a_Node000016"><a xlink:href="classParameters.html#ab06f51d4f6cecc5d4ca32f6a770fca12" target="_top" xlink:title=" ">
<polygon fill="white" stroke="#666666" points="716.5,-128 584.25,-128 584.25,-96 716.5,-96 716.5,-128"/>
<text text-anchor="start" x="592.25" y="-114.5" font-family="Helvetica,sans-Serif" font-size="10.00">Parameters::getResolution</text>
<text text-anchor="middle" x="650.38" y="-102.5" font-family="Helvetica,sans-Serif" font-size="10.00">String</text>
</a>
</g>
</g>
<!-- Node12&#45;&gt;Node16 -->
<g id="edge15_Node000012_Node000016" class="edge">
<title>Node12&#45;&gt;Node16</title>
<g id="a_edge15_Node000012_Node000016"><a xlink:title=" ">
<path fill="none" stroke="#63b8ff" d="M499.24,-151.5C510.34,-148.78 522.25,-145.82 533.25,-143 547.59,-139.33 562.89,-135.31 577.53,-131.42"/>
<polygon fill="#63b8ff" stroke="#63b8ff" points="578.34,-134.83 587.1,-128.87 576.54,-128.07 578.34,-134.83"/>
</a>
</g>
</g>
<!-- Node17 -->
<g id="Node000017" class="node">
<title>Node17</title>
<g id="a_Node000017"><a xlink:href="classParameters.html#abeed7c94e97e5aa1339f807a23765a4b" target="_top" xlink:title=" ">
<polygon fill="white" stroke="#666666" points="731.5,-78 569.25,-78 569.25,-46 731.5,-46 731.5,-78"/>
<text text-anchor="start" x="577.25" y="-64.5" font-family="Helvetica,sans-Serif" font-size="10.00">Parameters::updateVideoSettings</text>
<text text-anchor="middle" x="650.38" y="-52.5" font-family="Helvetica,sans-Serif" font-size="10.00">Positions</text>
</a>
</g>
</g>
<!-- Node12&#45;&gt;Node17 -->
<g id="edge16_Node000012_Node000017" class="edge">
<title>Node12&#45;&gt;Node17</title>
<g id="a_edge16_Node000012_Node000017"><a xlink:title=" ">
<path fill="none" stroke="#63b8ff" d="M517.36,-151.62C523,-149.3 528.4,-146.46 533.25,-143 557.33,-125.81 545.71,-104.93 569.25,-87 570.59,-85.98 571.97,-85 573.39,-84.06"/>
<polygon fill="#63b8ff" stroke="#63b8ff" points="574.97,-87.19 581.89,-79.17 571.48,-81.12 574.97,-87.19"/>
</a>
</g>
</g>
<!-- Node19 -->
<g id="Node000019" class="node">
<title>Node19</title>
<g id="a_Node000019"><a xlink:href="classPlayer.html#a16e1b8e2e944502ce79e413606c965df" target="_top" xlink:title=" ">
<polygon fill="white" stroke="#666666" points="506.62,-134 402.88,-134 402.88,-114 506.62,-114 506.62,-134"/>
<text text-anchor="middle" x="454.75" y="-120.5" font-family="Helvetica,sans-Serif" font-size="10.00">Player::centerImage</text>
</a>
</g>
</g>
<!-- Node18&#45;&gt;Node19 -->
<g id="edge18_Node000018_Node000019" class="edge">
<title>Node18&#45;&gt;Node19</title>
<g id="a_edge18_Node000018_Node000019"><a xlink:title=" ">
<path fill="none" stroke="#63b8ff" d="M316.26,-151.52C339.48,-146.87 366.98,-141.37 391.26,-136.51"/>
<polygon fill="#63b8ff" stroke="#63b8ff" points="391.92,-139.94 401.03,-134.55 390.54,-133.08 391.92,-139.94"/>
</a>
</g>
</g>
</g>
</svg>
