<?xml version="1.0" encoding="UTF-8" standalone="no"?>
<!DOCTYPE svg PUBLIC "-//W3C//DTD SVG 1.1//EN"
 "http://www.w3.org/Graphics/SVG/1.1/DTD/svg11.dtd">
<!-- Generated by graphviz version 12.1.0 (20240811.2233)
 -->
<!-- Title: GameManager::joinRoom Pages: 1 -->
<svg width="1145pt" height="97pt"
 viewBox="0.00 0.00 1144.50 97.00" xmlns="http://www.w3.org/2000/svg" xmlns:xlink="http://www.w3.org/1999/xlink">
<g id="graph0" class="graph" transform="scale(1 1) rotate(0) translate(4 93)">
<title>GameManager::joinRoom</title>
<!-- Node1 -->
<g id="Node000001" class="node">
<title>Node1</title>
<g id="a_Node000001"><a xlink:title=" ">
<polygon fill="#999999" stroke="#666666" points="1136.5,-89 1009.5,-89 1009.5,-69 1136.5,-69 1136.5,-89"/>
<text text-anchor="middle" x="1073" y="-75.5" font-family="Helvetica,sans-Serif" font-size="10.00">GameManager::joinRoom</text>
</a>
</g>
</g>
<!-- Node2 -->
<g id="Node000002" class="node">
<title>Node2</title>
<g id="a_Node000002"><a xlink:href="classGameManager.html#aeed1dd73db1c39b2e39d30d9d37c1f6c" target="_top" xlink:title=" ">
<polygon fill="white" stroke="#666666" points="397.5,-76 254,-76 254,-44 397.5,-44 397.5,-76"/>
<text text-anchor="start" x="262" y="-62.5" font-family="Helvetica,sans-Serif" font-size="10.00">GameManager::handleMouse</text>
<text text-anchor="middle" x="325.75" y="-50.5" font-family="Helvetica,sans-Serif" font-size="10.00">Click</text>
</a>
</g>
</g>
<!-- Node1&#45;&gt;Node2 -->
<g id="edge1_Node000001_Node000002" class="edge">
<title>Node1&#45;&gt;Node2</title>
<g id="a_edge1_Node000001_Node000002"><a xlink:title=" ">
<path fill="none" stroke="#63b8ff" d="M997.85,-81.79C878.68,-85.51 637.25,-89.93 433.5,-74 421.95,-73.1 409.73,-71.81 397.84,-70.38"/>
<polygon fill="#63b8ff" stroke="#63b8ff" points="997.94,-85.28 1007.83,-81.47 997.72,-78.29 997.94,-85.28"/>
</a>
</g>
</g>
<!-- Node5 -->
<g id="Node000005" class="node">
<title>Node5</title>
<g id="a_Node000005"><a xlink:href="classGameManager.html#a436ef659f0f618e7b791c0b492a544ec" target="_top" xlink:title=" ">
<polygon fill="white" stroke="#666666" points="973.5,-70 835.25,-70 835.25,-50 973.5,-50 973.5,-70"/>
<text text-anchor="middle" x="904.38" y="-56.5" font-family="Helvetica,sans-Serif" font-size="10.00">GameManager::onRoomList</text>
</a>
</g>
</g>
<!-- Node1&#45;&gt;Node5 -->
<g id="edge4_Node000001_Node000005" class="edge">
<title>Node1&#45;&gt;Node5</title>
<g id="a_edge4_Node000001_Node000005"><a xlink:title=" ">
<path fill="none" stroke="#63b8ff" d="M997.8,-70.54C989.79,-69.63 981.68,-68.7 973.75,-67.8"/>
<polygon fill="#63b8ff" stroke="#63b8ff" points="997.17,-73.99 1007.5,-71.65 997.96,-67.03 997.17,-73.99"/>
</a>
</g>
</g>
<!-- Node3 -->
<g id="Node000003" class="node">
<title>Node3</title>
<g id="a_Node000003"><a xlink:href="classGameManager.html#a6cea7fca5fecdd4f8a32912d4bfc233f" target="_top" xlink:title=" ">
<polygon fill="white" stroke="#666666" points="218,-70 73,-70 73,-50 218,-50 218,-70"/>
<text text-anchor="middle" x="145.5" y="-56.5" font-family="Helvetica,sans-Serif" font-size="10.00">GameManager::handleEvents</text>
</a>
</g>
</g>
<!-- Node2&#45;&gt;Node3 -->
<g id="edge2_Node000002_Node000003" class="edge">
<title>Node2&#45;&gt;Node3</title>
<g id="a_edge2_Node000002_Node000003"><a xlink:title=" ">
<path fill="none" stroke="#63b8ff" d="M242.07,-60C234.19,-60 226.24,-60 218.48,-60"/>
<polygon fill="#63b8ff" stroke="#63b8ff" points="242.02,-63.5 252.02,-60 242.02,-56.5 242.02,-63.5"/>
</a>
</g>
</g>
<!-- Node4 -->
<g id="Node000004" class="node">
<title>Node4</title>
<g id="a_Node000004"><a xlink:href="Client_2src_2main_8cpp.html#ae66f6b31b5ad750f1fe042a706a4e3d4" target="_top" xlink:title=" ">
<polygon fill="white" stroke="#666666" points="37,-70 0,-70 0,-50 37,-50 37,-70"/>
<text text-anchor="middle" x="18.5" y="-56.5" font-family="Helvetica,sans-Serif" font-size="10.00">main</text>
</a>
</g>
</g>
<!-- Node3&#45;&gt;Node4 -->
<g id="edge3_Node000003_Node000004" class="edge">
<title>Node3&#45;&gt;Node4</title>
<g id="a_edge3_Node000003_Node000004"><a xlink:title=" ">
<path fill="none" stroke="#63b8ff" d="M61.12,-60C52.34,-60 44.18,-60 37.46,-60"/>
<polygon fill="#63b8ff" stroke="#63b8ff" points="61,-63.5 71,-60 61,-56.5 61,-63.5"/>
</a>
</g>
</g>
<!-- Node6 -->
<g id="Node000006" class="node">
<title>Node6</title>
<g id="a_Node000006"><a xlink:href="classGameManager.html#a14d06b2592fdbf40f9bc38e2643635fd" target="_top" xlink:title=" ">
<polygon fill="white" stroke="#666666" points="799.25,-70 628.75,-70 628.75,-50 799.25,-50 799.25,-70"/>
<text text-anchor="middle" x="714" y="-56.5" font-family="Helvetica,sans-Serif" font-size="10.00">GameManager::initializeNetworking</text>
</a>
</g>
</g>
<!-- Node5&#45;&gt;Node6 -->
<g id="edge5_Node000005_Node000006" class="edge">
<title>Node5&#45;&gt;Node6</title>
<g id="a_edge5_Node000005_Node000006"><a xlink:title=" ">
<path fill="none" stroke="#63b8ff" d="M823.4,-60C815.5,-60 807.48,-60 799.54,-60"/>
<polygon fill="#63b8ff" stroke="#63b8ff" points="823.32,-63.5 833.32,-60 823.32,-56.5 823.32,-63.5"/>
</a>
</g>
</g>
<!-- Node6&#45;&gt;Node2 -->
<g id="edge8_Node000006_Node000002" class="edge">
<title>Node6&#45;&gt;Node2</title>
<g id="a_edge8_Node000006_Node000002"><a xlink:title=" ">
<path fill="none" stroke="#63b8ff" d="M617.57,-60C549.58,-60 459.66,-60 397.91,-60"/>
<polygon fill="#63b8ff" stroke="#63b8ff" points="617.2,-63.5 627.2,-60 617.2,-56.5 617.2,-63.5"/>
</a>
</g>
</g>
<!-- Node7 -->
<g id="Node000007" class="node">
<title>Node7</title>
<g id="a_Node000007"><a xlink:href="classGameManager.html#a946b57d62b25778f70deebaaf41f609d" target="_top" xlink:title=" ">
<polygon fill="white" stroke="#666666" points="592.75,-32 433.5,-32 433.5,0 592.75,0 592.75,-32"/>
<text text-anchor="start" x="441.5" y="-18.5" font-family="Helvetica,sans-Serif" font-size="10.00">GameManager::connectToServer</text>
<text text-anchor="middle" x="513.12" y="-6.5" font-family="Helvetica,sans-Serif" font-size="10.00">WithRooms</text>
</a>
</g>
</g>
<!-- Node6&#45;&gt;Node7 -->
<g id="edge6_Node000006_Node000007" class="edge">
<title>Node6&#45;&gt;Node7</title>
<g id="a_edge6_Node000006_Node000007"><a xlink:title=" ">
<path fill="none" stroke="#63b8ff" d="M654.44,-47.04C633.74,-42.46 610.17,-37.25 588.34,-32.42"/>
<polygon fill="#63b8ff" stroke="#63b8ff" points="653.62,-50.45 664.14,-49.19 655.13,-43.61 653.62,-50.45"/>
</a>
</g>
</g>
<!-- Node7&#45;&gt;Node2 -->
<g id="edge7_Node000007_Node000002" class="edge">
<title>Node7&#45;&gt;Node2</title>
<g id="a_edge7_Node000007_Node000002"><a xlink:title=" ">
<path fill="none" stroke="#63b8ff" d="M431.64,-35.1C419.86,-37.9 407.81,-40.76 396.27,-43.5"/>
<polygon fill="#63b8ff" stroke="#63b8ff" points="432.44,-38.51 441.36,-32.8 430.82,-31.7 432.44,-38.51"/>
</a>
</g>
</g>
</g>
</svg>
