<?xml version="1.0" encoding="UTF-8" standalone="no"?>
<!DOCTYPE svg PUBLIC "-//W3C//DTD SVG 1.1//EN"
 "http://www.w3.org/Graphics/SVG/1.1/DTD/svg11.dtd">
<!-- Generated by graphviz version 12.1.0 (20240811.2233)
 -->
<!-- Title: Launch::centerLogo Pages: 1 -->
<svg width="1079pt" height="116pt"
 viewBox="0.00 0.00 1079.25 116.00" xmlns="http://www.w3.org/2000/svg" xmlns:xlink="http://www.w3.org/1999/xlink">
<g id="graph0" class="graph" transform="scale(1 1) rotate(0) translate(4 112)">
<title>Launch::centerLogo</title>
<!-- Node1 -->
<g id="Node000001" class="node">
<title>Node1</title>
<g id="a_Node000001"><a xlink:title=" ">
<polygon fill="#999999" stroke="#666666" points="1071.25,-70 969.75,-70 969.75,-50 1071.25,-50 1071.25,-70"/>
<text text-anchor="middle" x="1020.5" y="-56.5" font-family="Helvetica,sans-Serif" font-size="10.00">Launch::centerLogo</text>
</a>
</g>
</g>
<!-- Node2 -->
<g id="Node000002" class="node">
<title>Node2</title>
<g id="a_Node000002"><a xlink:href="classLaunch.html#a65d91744f919df05b9fee893f51faaf3" target="_top" xlink:title=" ">
<polygon fill="white" stroke="#666666" points="557.88,-108 450.38,-108 450.38,-88 557.88,-88 557.88,-108"/>
<text text-anchor="middle" x="504.12" y="-94.5" font-family="Helvetica,sans-Serif" font-size="10.00">Launch::handleEvent</text>
</a>
</g>
</g>
<!-- Node1&#45;&gt;Node2 -->
<g id="edge1_Node000001_Node000002" class="edge">
<title>Node1&#45;&gt;Node2</title>
<g id="a_edge1_Node000001_Node000002"><a xlink:title=" ">
<path fill="none" stroke="#63b8ff" d="M968.18,-72.89C956.9,-75.3 944.97,-77.52 933.75,-79 799.35,-96.73 639.41,-98.85 558.17,-98.6"/>
<polygon fill="#63b8ff" stroke="#63b8ff" points="968.71,-76.36 977.71,-70.77 967.19,-69.53 968.71,-76.36"/>
</a>
</g>
</g>
<!-- Node5 -->
<g id="Node000005" class="node">
<title>Node5</title>
<g id="a_Node000005"><a xlink:href="classLaunch.html#aff7fe68fa2835467f3166801c00526ed" target="_top" xlink:title=" ">
<polygon fill="white" stroke="#666666" points="924.38,-70 805.62,-70 805.62,-50 924.38,-50 924.38,-70"/>
<text text-anchor="middle" x="865" y="-56.5" font-family="Helvetica,sans-Serif" font-size="10.00">Launch::loadResources</text>
</a>
</g>
</g>
<!-- Node1&#45;&gt;Node5 -->
<g id="edge4_Node000001_Node000005" class="edge">
<title>Node1&#45;&gt;Node5</title>
<g id="a_edge4_Node000001_Node000005"><a xlink:title=" ">
<path fill="none" stroke="#63b8ff" d="M958.31,-60C947.23,-60 935.69,-60 924.67,-60"/>
<polygon fill="#63b8ff" stroke="#63b8ff" points="958.15,-63.5 968.15,-60 958.15,-56.5 958.15,-63.5"/>
</a>
</g>
</g>
<!-- Node7 -->
<g id="Node000007" class="node">
<title>Node7</title>
<g id="a_Node000007"><a xlink:href="classLaunch.html#a51dac7ef34ef63731b82636b52817cb4" target="_top" xlink:title=" ">
<polygon fill="white" stroke="#666666" points="933.75,-29 796.25,-29 796.25,-9 933.75,-9 933.75,-29"/>
<text text-anchor="middle" x="865" y="-15.5" font-family="Helvetica,sans-Serif" font-size="10.00">Launch::updateWindowSize</text>
</a>
</g>
</g>
<!-- Node1&#45;&gt;Node7 -->
<g id="edge6_Node000001_Node000007" class="edge">
<title>Node1&#45;&gt;Node7</title>
<g id="a_edge6_Node000001_Node000007"><a xlink:title=" ">
<path fill="none" stroke="#63b8ff" d="M969.44,-46.63C948.54,-41.05 924.63,-34.66 905.06,-29.43"/>
<polygon fill="#63b8ff" stroke="#63b8ff" points="968.34,-49.96 978.91,-49.16 970.15,-43.2 968.34,-49.96"/>
</a>
</g>
</g>
<!-- Node3 -->
<g id="Node000003" class="node">
<title>Node3</title>
<g id="a_Node000003"><a xlink:href="classGameManager.html#a6cea7fca5fecdd4f8a32912d4bfc233f" target="_top" xlink:title=" ">
<polygon fill="white" stroke="#666666" points="218,-70 73,-70 73,-50 218,-50 218,-70"/>
<text text-anchor="middle" x="145.5" y="-56.5" font-family="Helvetica,sans-Serif" font-size="10.00">GameManager::handleEvents</text>
</a>
</g>
</g>
<!-- Node2&#45;&gt;Node3 -->
<g id="edge2_Node000002_Node000003" class="edge">
<title>Node2&#45;&gt;Node3</title>
<g id="a_edge2_Node000002_Node000003"><a xlink:title=" ">
<path fill="none" stroke="#63b8ff" d="M438.74,-92.39C388.4,-87.87 316.69,-81.1 254,-74 242.5,-72.7 230.32,-71.21 218.45,-69.71"/>
<polygon fill="#63b8ff" stroke="#63b8ff" points="438.32,-95.87 448.59,-93.27 438.94,-88.9 438.32,-95.87"/>
</a>
</g>
</g>
<!-- Node4 -->
<g id="Node000004" class="node">
<title>Node4</title>
<g id="a_Node000004"><a xlink:href="Client_2src_2main_8cpp.html#ae66f6b31b5ad750f1fe042a706a4e3d4" target="_top" xlink:title=" ">
<polygon fill="white" stroke="#666666" points="37,-70 0,-70 0,-50 37,-50 37,-70"/>
<text text-anchor="middle" x="18.5" y="-56.5" font-family="Helvetica,sans-Serif" font-size="10.00">main</text>
</a>
</g>
</g>
<!-- Node3&#45;&gt;Node4 -->
<g id="edge3_Node000003_Node000004" class="edge">
<title>Node3&#45;&gt;Node4</title>
<g id="a_edge3_Node000003_Node000004"><a xlink:title=" ">
<path fill="none" stroke="#63b8ff" d="M61.12,-60C52.34,-60 44.18,-60 37.46,-60"/>
<polygon fill="#63b8ff" stroke="#63b8ff" points="61,-63.5 71,-60 61,-56.5 61,-63.5"/>
</a>
</g>
</g>
<!-- Node6 -->
<g id="Node000006" class="node">
<title>Node6</title>
<g id="a_Node000006"><a xlink:href="classGameManager.html#a72e1318dfab6fad06bd4126d12f6a537" target="_top" xlink:title=" ">
<polygon fill="white" stroke="#666666" points="760.25,-70 610.75,-70 610.75,-50 760.25,-50 760.25,-70"/>
<text text-anchor="middle" x="685.5" y="-56.5" font-family="Helvetica,sans-Serif" font-size="10.00">GameManager::GameManager</text>
</a>
</g>
</g>
<!-- Node5&#45;&gt;Node6 -->
<g id="edge5_Node000005_Node000006" class="edge">
<title>Node5&#45;&gt;Node6</title>
<g id="a_edge5_Node000005_Node000006"><a xlink:title=" ">
<path fill="none" stroke="#63b8ff" d="M794.09,-60C783.08,-60 771.66,-60 760.56,-60"/>
<polygon fill="#63b8ff" stroke="#63b8ff" points="793.87,-63.5 803.87,-60 793.87,-56.5 793.87,-63.5"/>
</a>
</g>
</g>
<!-- Node8 -->
<g id="Node000008" class="node">
<title>Node8</title>
<g id="a_Node000008"><a xlink:href="classGameManager.html#a0a220f16a3e2d31baa08c03bec5c88b6" target="_top" xlink:title=" ">
<polygon fill="white" stroke="#666666" points="760.25,-32 610.75,-32 610.75,0 760.25,0 760.25,-32"/>
<text text-anchor="start" x="618.75" y="-18.5" font-family="Helvetica,sans-Serif" font-size="10.00">GameManager::handleWindow</text>
<text text-anchor="middle" x="685.5" y="-6.5" font-family="Helvetica,sans-Serif" font-size="10.00">Resize</text>
</a>
</g>
</g>
<!-- Node7&#45;&gt;Node8 -->
<g id="edge7_Node000007_Node000008" class="edge">
<title>Node7&#45;&gt;Node8</title>
<g id="a_edge7_Node000007_Node000008"><a xlink:title=" ">
<path fill="none" stroke="#63b8ff" d="M784.4,-17.65C776.49,-17.52 768.48,-17.39 760.64,-17.25"/>
<polygon fill="#63b8ff" stroke="#63b8ff" points="784.31,-21.15 794.37,-17.82 784.43,-14.15 784.31,-21.15"/>
</a>
</g>
</g>
<!-- Node8&#45;&gt;Node3 -->
<g id="edge11_Node000008_Node000003" class="edge">
<title>Node8&#45;&gt;Node3</title>
<g id="a_edge11_Node000008_Node000003"><a xlink:title=" ">
<path fill="none" stroke="#63b8ff" d="M609.92,-34.88C598.21,-37.29 586.2,-39.46 574.75,-41 450.29,-57.8 303.83,-60.71 218.46,-60.74"/>
<polygon fill="#63b8ff" stroke="#63b8ff" points="610.49,-38.33 619.54,-32.81 609.02,-31.49 610.49,-38.33"/>
</a>
</g>
</g>
<!-- Node9 -->
<g id="Node000009" class="node">
<title>Node9</title>
<g id="a_Node000009"><a xlink:href="classGameManager.html#a948792a1ef6f0a0c8c21fae779c4b525" target="_top" xlink:title=" ">
<polygon fill="white" stroke="#666666" points="574.75,-32 433.5,-32 433.5,0 574.75,0 574.75,-32"/>
<text text-anchor="start" x="441.5" y="-18.5" font-family="Helvetica,sans-Serif" font-size="10.00">GameManager::applyCurrent</text>
<text text-anchor="middle" x="504.12" y="-6.5" font-family="Helvetica,sans-Serif" font-size="10.00">Resolution</text>
</a>
</g>
</g>
<!-- Node8&#45;&gt;Node9 -->
<g id="edge8_Node000008_Node000009" class="edge">
<title>Node8&#45;&gt;Node9</title>
<g id="a_edge8_Node000008_Node000009"><a xlink:title=" ">
<path fill="none" stroke="#63b8ff" d="M599.2,-16C591.16,-16 583.07,-16 575.2,-16"/>
<polygon fill="#63b8ff" stroke="#63b8ff" points="598.99,-19.5 608.99,-16 598.99,-12.5 598.99,-19.5"/>
</a>
</g>
</g>
<!-- Node10 -->
<g id="Node000010" class="node">
<title>Node10</title>
<g id="a_Node000010"><a xlink:href="classGameManager.html#aeed1dd73db1c39b2e39d30d9d37c1f6c" target="_top" xlink:title=" ">
<polygon fill="white" stroke="#666666" points="397.5,-32 254,-32 254,0 397.5,0 397.5,-32"/>
<text text-anchor="start" x="262" y="-18.5" font-family="Helvetica,sans-Serif" font-size="10.00">GameManager::handleMouse</text>
<text text-anchor="middle" x="325.75" y="-6.5" font-family="Helvetica,sans-Serif" font-size="10.00">Click</text>
</a>
</g>
</g>
<!-- Node9&#45;&gt;Node10 -->
<g id="edge9_Node000009_Node000010" class="edge">
<title>Node9&#45;&gt;Node10</title>
<g id="a_edge9_Node000009_Node000010"><a xlink:title=" ">
<path fill="none" stroke="#63b8ff" d="M421.87,-16C413.83,-16 405.71,-16 397.78,-16"/>
<polygon fill="#63b8ff" stroke="#63b8ff" points="421.65,-19.5 431.65,-16 421.65,-12.5 421.65,-19.5"/>
</a>
</g>
</g>
<!-- Node10&#45;&gt;Node3 -->
<g id="edge10_Node000010_Node000003" class="edge">
<title>Node10&#45;&gt;Node3</title>
<g id="a_edge10_Node000010_Node000003"><a xlink:title=" ">
<path fill="none" stroke="#63b8ff" d="M247.14,-35.16C227.19,-40.08 206.45,-45.2 189.02,-49.5"/>
<polygon fill="#63b8ff" stroke="#63b8ff" points="247.78,-38.6 256.65,-32.81 246.11,-31.81 247.78,-38.6"/>
</a>
</g>
</g>
</g>
</svg>
