<?xml version="1.0" encoding="UTF-8" standalone="no"?>
<!DOCTYPE svg PUBLIC "-//W3C//DTD SVG 1.1//EN"
 "http://www.w3.org/Graphics/SVG/1.1/DTD/svg11.dtd">
<!-- Generated by graphviz version 12.1.0 (20240811.2233)
 -->
<!-- Title: Parameters::getCurrentDisplayMode Pages: 1 -->
<svg width="819pt" height="78pt"
 viewBox="0.00 0.00 818.50 78.00" xmlns="http://www.w3.org/2000/svg" xmlns:xlink="http://www.w3.org/1999/xlink">
<g id="graph0" class="graph" transform="scale(1 1) rotate(0) translate(4 74)">
<title>Parameters::getCurrentDisplayMode</title>
<!-- Node1 -->
<g id="Node000001" class="node">
<title>Node1</title>
<g id="a_Node000001"><a xlink:title=" ">
<polygon fill="#999999" stroke="#666666" points="810.5,-42 635.5,-42 635.5,-22 810.5,-22 810.5,-42"/>
<text text-anchor="middle" x="723" y="-28.5" font-family="Helvetica,sans-Serif" font-size="10.00">Parameters::getCurrentDisplayMode</text>
</a>
</g>
</g>
<!-- Node2 -->
<g id="Node000002" class="node">
<title>Node2</title>
<g id="a_Node000002"><a xlink:href="classGameManager.html#a948792a1ef6f0a0c8c21fae779c4b525" target="_top" xlink:title=" ">
<polygon fill="white" stroke="#666666" points="587.12,-70 445.88,-70 445.88,-38 587.12,-38 587.12,-70"/>
<text text-anchor="start" x="453.88" y="-56.5" font-family="Helvetica,sans-Serif" font-size="10.00">GameManager::applyCurrent</text>
<text text-anchor="middle" x="516.5" y="-44.5" font-family="Helvetica,sans-Serif" font-size="10.00">Resolution</text>
</a>
</g>
</g>
<!-- Node1&#45;&gt;Node2 -->
<g id="edge1_Node000001_Node000002" class="edge">
<title>Node1&#45;&gt;Node2</title>
<g id="a_edge1_Node000001_Node000002"><a xlink:title=" ">
<path fill="none" stroke="#63b8ff" d="M623.96,-42.55C611.59,-43.88 599.13,-45.22 587.33,-46.49"/>
<polygon fill="#63b8ff" stroke="#63b8ff" points="624.2,-46.04 633.77,-41.49 623.45,-39.08 624.2,-46.04"/>
</a>
</g>
</g>
<!-- Node6 -->
<g id="Node000006" class="node">
<title>Node6</title>
<g id="a_Node000006"><a xlink:href="classGameManager.html#a58db496b49ed75ce83edb44b9581ae64" target="_top" xlink:title=" ">
<polygon fill="white" stroke="#666666" points="599.5,-20 433.5,-20 433.5,0 599.5,0 599.5,-20"/>
<text text-anchor="middle" x="516.5" y="-6.5" font-family="Helvetica,sans-Serif" font-size="10.00">GameManager::cycleDisplayMode</text>
</a>
</g>
</g>
<!-- Node1&#45;&gt;Node6 -->
<g id="edge5_Node000001_Node000006" class="edge">
<title>Node1&#45;&gt;Node6</title>
<g id="a_edge5_Node000001_Node000006"><a xlink:title=" ">
<path fill="none" stroke="#63b8ff" d="M623.91,-21.45C615.84,-20.58 607.74,-19.71 599.8,-18.85"/>
<polygon fill="#63b8ff" stroke="#63b8ff" points="623.45,-24.92 633.77,-22.51 624.2,-17.96 623.45,-24.92"/>
</a>
</g>
</g>
<!-- Node3 -->
<g id="Node000003" class="node">
<title>Node3</title>
<g id="a_Node000003"><a xlink:href="classGameManager.html#aeed1dd73db1c39b2e39d30d9d37c1f6c" target="_top" xlink:title=" ">
<polygon fill="white" stroke="#666666" points="397.5,-48 254,-48 254,-16 397.5,-16 397.5,-48"/>
<text text-anchor="start" x="262" y="-34.5" font-family="Helvetica,sans-Serif" font-size="10.00">GameManager::handleMouse</text>
<text text-anchor="middle" x="325.75" y="-22.5" font-family="Helvetica,sans-Serif" font-size="10.00">Click</text>
</a>
</g>
</g>
<!-- Node2&#45;&gt;Node3 -->
<g id="edge2_Node000002_Node000003" class="edge">
<title>Node2&#45;&gt;Node3</title>
<g id="a_edge2_Node000002_Node000003"><a xlink:title=" ">
<path fill="none" stroke="#63b8ff" d="M434.06,-44.51C422.03,-43.11 409.71,-41.67 397.91,-40.29"/>
<polygon fill="#63b8ff" stroke="#63b8ff" points="433.64,-47.98 443.98,-45.66 434.45,-41.03 433.64,-47.98"/>
</a>
</g>
</g>
<!-- Node4 -->
<g id="Node000004" class="node">
<title>Node4</title>
<g id="a_Node000004"><a xlink:href="classGameManager.html#a6cea7fca5fecdd4f8a32912d4bfc233f" target="_top" xlink:title=" ">
<polygon fill="white" stroke="#666666" points="218,-42 73,-42 73,-22 218,-22 218,-42"/>
<text text-anchor="middle" x="145.5" y="-28.5" font-family="Helvetica,sans-Serif" font-size="10.00">GameManager::handleEvents</text>
</a>
</g>
</g>
<!-- Node3&#45;&gt;Node4 -->
<g id="edge3_Node000003_Node000004" class="edge">
<title>Node3&#45;&gt;Node4</title>
<g id="a_edge3_Node000003_Node000004"><a xlink:title=" ">
<path fill="none" stroke="#63b8ff" d="M242.07,-32C234.19,-32 226.24,-32 218.48,-32"/>
<polygon fill="#63b8ff" stroke="#63b8ff" points="242.02,-35.5 252.02,-32 242.02,-28.5 242.02,-35.5"/>
</a>
</g>
</g>
<!-- Node5 -->
<g id="Node000005" class="node">
<title>Node5</title>
<g id="a_Node000005"><a xlink:href="Client_2src_2main_8cpp.html#ae66f6b31b5ad750f1fe042a706a4e3d4" target="_top" xlink:title=" ">
<polygon fill="white" stroke="#666666" points="37,-42 0,-42 0,-22 37,-22 37,-42"/>
<text text-anchor="middle" x="18.5" y="-28.5" font-family="Helvetica,sans-Serif" font-size="10.00">main</text>
</a>
</g>
</g>
<!-- Node4&#45;&gt;Node5 -->
<g id="edge4_Node000004_Node000005" class="edge">
<title>Node4&#45;&gt;Node5</title>
<g id="a_edge4_Node000004_Node000005"><a xlink:title=" ">
<path fill="none" stroke="#63b8ff" d="M61.12,-32C52.34,-32 44.18,-32 37.46,-32"/>
<polygon fill="#63b8ff" stroke="#63b8ff" points="61,-35.5 71,-32 61,-28.5 61,-35.5"/>
</a>
</g>
</g>
<!-- Node6&#45;&gt;Node3 -->
<g id="edge6_Node000006_Node000003" class="edge">
<title>Node6&#45;&gt;Node3</title>
<g id="a_edge6_Node000006_Node000003"><a xlink:title=" ">
<path fill="none" stroke="#63b8ff" d="M421.85,-20.92C413.75,-21.86 405.65,-22.8 397.78,-23.72"/>
<polygon fill="#63b8ff" stroke="#63b8ff" points="422.23,-24.4 431.76,-19.76 421.42,-17.44 422.23,-24.4"/>
</a>
</g>
</g>
</g>
</svg>
