<?xml version="1.0" encoding="UTF-8" standalone="no"?>
<!DOCTYPE svg PUBLIC "-//W3C//DTD SVG 1.1//EN"
 "http://www.w3.org/Graphics/SVG/1.1/DTD/svg11.dtd">
<!-- Generated by graphviz version 12.1.0 (20240811.2233)
 -->
<!-- Title: Engine::Systems::EnemySystem::damageEnemy Pages: 1 -->
<svg width="1193pt" height="84pt"
 viewBox="0.00 0.00 1193.25 84.00" xmlns="http://www.w3.org/2000/svg" xmlns:xlink="http://www.w3.org/1999/xlink">
<g id="graph0" class="graph" transform="scale(1 1) rotate(0) translate(4 80)">
<title>Engine::Systems::EnemySystem::damageEnemy</title>
<!-- Node1 -->
<g id="Node000001" class="node">
<title>Node1</title>
<g id="a_Node000001"><a xlink:title=" ">
<polygon fill="#999999" stroke="#666666" points="1185.25,-54 1023.75,-54 1023.75,-22 1185.25,-22 1185.25,-54"/>
<text text-anchor="start" x="1031.75" y="-40.5" font-family="Helvetica,sans-Serif" font-size="10.00">Engine::Systems::EnemySystem</text>
<text text-anchor="middle" x="1104.5" y="-28.5" font-family="Helvetica,sans-Serif" font-size="10.00">::damageEnemy</text>
</a>
</g>
</g>
<!-- Node2 -->
<g id="Node000002" class="node">
<title>Node2</title>
<g id="a_Node000002"><a xlink:href="classEngine_1_1Systems_1_1EnemySystem.html#ad40dc42ba3526d22bbc4735fb4ca7dba" target="_top" xlink:title=" ">
<polygon fill="white" stroke="#666666" points="987.75,-54 826.25,-54 826.25,-22 987.75,-22 987.75,-54"/>
<text text-anchor="start" x="834.25" y="-40.5" font-family="Helvetica,sans-Serif" font-size="10.00">Engine::Systems::EnemySystem</text>
<text text-anchor="middle" x="907" y="-28.5" font-family="Helvetica,sans-Serif" font-size="10.00">::handleCollision</text>
</a>
</g>
</g>
<!-- Node1&#45;&gt;Node2 -->
<g id="edge1_Node000001_Node000002" class="edge">
<title>Node1&#45;&gt;Node2</title>
<g id="a_edge1_Node000001_Node000002"><a xlink:title=" ">
<path fill="none" stroke="#63b8ff" d="M1012.09,-38C1004.03,-38 995.91,-38 987.96,-38"/>
<polygon fill="#63b8ff" stroke="#63b8ff" points="1011.91,-41.5 1021.91,-38 1011.91,-34.5 1011.91,-41.5"/>
</a>
</g>
</g>
<!-- Node3 -->
<g id="Node000003" class="node">
<title>Node3</title>
<g id="a_Node000003"><a xlink:href="classEngine_1_1Systems_1_1EnemySystem.html#a3f56472b9d1cbd11d38ed305cd839c5a" target="_top" xlink:title=" ">
<polygon fill="white" stroke="#666666" points="790.25,-54 628.75,-54 628.75,-22 790.25,-22 790.25,-54"/>
<text text-anchor="start" x="636.75" y="-40.5" font-family="Helvetica,sans-Serif" font-size="10.00">Engine::Systems::EnemySystem</text>
<text text-anchor="middle" x="709.5" y="-28.5" font-family="Helvetica,sans-Serif" font-size="10.00">::init</text>
</a>
</g>
</g>
<!-- Node2&#45;&gt;Node3 -->
<g id="edge2_Node000002_Node000003" class="edge">
<title>Node2&#45;&gt;Node3</title>
<g id="a_edge2_Node000002_Node000003"><a xlink:title=" ">
<path fill="none" stroke="#63b8ff" d="M814.59,-38C806.53,-38 798.41,-38 790.46,-38"/>
<polygon fill="#63b8ff" stroke="#63b8ff" points="814.41,-41.5 824.41,-38 814.41,-34.5 814.41,-41.5"/>
</a>
</g>
</g>
<!-- Node4 -->
<g id="Node000004" class="node">
<title>Node4</title>
<g id="a_Node000004"><a xlink:href="classGameManager.html#accd6989268bea90e6d9ec2800b3b6a8f" target="_top" xlink:title=" ">
<polygon fill="white" stroke="#666666" points="592.75,-70 433.5,-70 433.5,-50 592.75,-50 592.75,-70"/>
<text text-anchor="middle" x="513.12" y="-56.5" font-family="Helvetica,sans-Serif" font-size="10.00">GameManager::connectToServer</text>
</a>
</g>
</g>
<!-- Node3&#45;&gt;Node4 -->
<g id="edge3_Node000003_Node000004" class="edge">
<title>Node3&#45;&gt;Node4</title>
<g id="a_edge3_Node000003_Node000004"><a xlink:title=" ">
<path fill="none" stroke="#63b8ff" d="M617.08,-48.35C609.1,-49.25 601.06,-50.16 593.18,-51.05"/>
<polygon fill="#63b8ff" stroke="#63b8ff" points="617.27,-51.85 626.81,-47.25 616.48,-44.89 617.27,-51.85"/>
</a>
</g>
</g>
<!-- Node8 -->
<g id="Node000008" class="node">
<title>Node8</title>
<g id="a_Node000008"><a xlink:href="classRTypeServer_1_1Server.html#aa7891cda56e1ba95a26d616de13cccc1" target="_top" xlink:title=" ">
<polygon fill="white" stroke="#666666" points="566.5,-32 459.75,-32 459.75,0 566.5,0 566.5,-32"/>
<text text-anchor="start" x="467.75" y="-18.5" font-family="Helvetica,sans-Serif" font-size="10.00">RTypeServer::Server</text>
<text text-anchor="middle" x="513.12" y="-6.5" font-family="Helvetica,sans-Serif" font-size="10.00">::initEngine</text>
</a>
</g>
</g>
<!-- Node3&#45;&gt;Node8 -->
<g id="edge7_Node000003_Node000008" class="edge">
<title>Node3&#45;&gt;Node8</title>
<g id="a_edge7_Node000003_Node000008"><a xlink:title=" ">
<path fill="none" stroke="#63b8ff" d="M617.08,-27.65C599.88,-25.71 582.44,-23.73 566.93,-21.98"/>
<polygon fill="#63b8ff" stroke="#63b8ff" points="616.48,-31.11 626.81,-28.75 617.27,-24.15 616.48,-31.11"/>
</a>
</g>
</g>
<!-- Node5 -->
<g id="Node000005" class="node">
<title>Node5</title>
<g id="a_Node000005"><a xlink:href="classGameManager.html#aeed1dd73db1c39b2e39d30d9d37c1f6c" target="_top" xlink:title=" ">
<polygon fill="white" stroke="#666666" points="397.5,-76 254,-76 254,-44 397.5,-44 397.5,-76"/>
<text text-anchor="start" x="262" y="-62.5" font-family="Helvetica,sans-Serif" font-size="10.00">GameManager::handleMouse</text>
<text text-anchor="middle" x="325.75" y="-50.5" font-family="Helvetica,sans-Serif" font-size="10.00">Click</text>
</a>
</g>
</g>
<!-- Node4&#45;&gt;Node5 -->
<g id="edge4_Node000004_Node000005" class="edge">
<title>Node4&#45;&gt;Node5</title>
<g id="a_edge4_Node000004_Node000005"><a xlink:title=" ">
<path fill="none" stroke="#63b8ff" d="M421.9,-60C413.86,-60 405.78,-60 397.93,-60"/>
<polygon fill="#63b8ff" stroke="#63b8ff" points="421.73,-63.5 431.73,-60 421.73,-56.5 421.73,-63.5"/>
</a>
</g>
</g>
<!-- Node6 -->
<g id="Node000006" class="node">
<title>Node6</title>
<g id="a_Node000006"><a xlink:href="classGameManager.html#a6cea7fca5fecdd4f8a32912d4bfc233f" target="_top" xlink:title=" ">
<polygon fill="white" stroke="#666666" points="218,-70 73,-70 73,-50 218,-50 218,-70"/>
<text text-anchor="middle" x="145.5" y="-56.5" font-family="Helvetica,sans-Serif" font-size="10.00">GameManager::handleEvents</text>
</a>
</g>
</g>
<!-- Node5&#45;&gt;Node6 -->
<g id="edge5_Node000005_Node000006" class="edge">
<title>Node5&#45;&gt;Node6</title>
<g id="a_edge5_Node000005_Node000006"><a xlink:title=" ">
<path fill="none" stroke="#63b8ff" d="M242.07,-60C234.19,-60 226.24,-60 218.48,-60"/>
<polygon fill="#63b8ff" stroke="#63b8ff" points="242.02,-63.5 252.02,-60 242.02,-56.5 242.02,-63.5"/>
</a>
</g>
</g>
<!-- Node7 -->
<g id="Node000007" class="node">
<title>Node7</title>
<g id="a_Node000007"><a xlink:href="Client_2src_2main_8cpp.html#ae66f6b31b5ad750f1fe042a706a4e3d4" target="_top" xlink:title=" ">
<polygon fill="white" stroke="#666666" points="37,-70 0,-70 0,-50 37,-50 37,-70"/>
<text text-anchor="middle" x="18.5" y="-56.5" font-family="Helvetica,sans-Serif" font-size="10.00">main</text>
</a>
</g>
</g>
<!-- Node6&#45;&gt;Node7 -->
<g id="edge6_Node000006_Node000007" class="edge">
<title>Node6&#45;&gt;Node7</title>
<g id="a_edge6_Node000006_Node000007"><a xlink:title=" ">
<path fill="none" stroke="#63b8ff" d="M61.12,-60C52.34,-60 44.18,-60 37.46,-60"/>
<polygon fill="#63b8ff" stroke="#63b8ff" points="61,-63.5 71,-60 61,-56.5 61,-63.5"/>
</a>
</g>
</g>
<!-- Node9 -->
<g id="Node000009" class="node">
<title>Node9</title>
<g id="a_Node000009"><a xlink:href="Server_2src_2main_8cpp.html#ad53223b8779f25caeddb70a3b9172967" target="_top" xlink:title=" ">
<polygon fill="white" stroke="#666666" points="344.25,-26 307.25,-26 307.25,-6 344.25,-6 344.25,-26"/>
<text text-anchor="middle" x="325.75" y="-12.5" font-family="Helvetica,sans-Serif" font-size="10.00">main</text>
</a>
</g>
</g>
<!-- Node8&#45;&gt;Node9 -->
<g id="edge8_Node000008_Node000009" class="edge">
<title>Node8&#45;&gt;Node9</title>
<g id="a_edge8_Node000008_Node000009"><a xlink:title=" ">
<path fill="none" stroke="#63b8ff" d="M448.39,-16C411.8,-16 368.53,-16 344.71,-16"/>
<polygon fill="#63b8ff" stroke="#63b8ff" points="447.99,-19.5 457.99,-16 447.99,-12.5 447.99,-19.5"/>
</a>
</g>
</g>
</g>
</svg>
