<?xml version="1.0" encoding="UTF-8" standalone="no"?>
<!DOCTYPE svg PUBLIC "-//W3C//DTD SVG 1.1//EN"
 "http://www.w3.org/Graphics/SVG/1.1/DTD/svg11.dtd">
<!-- Generated by graphviz version 12.1.0 (20240811.2233)
 -->
<!-- Title: ParticleSystem::renderParticle Pages: 1 -->
<svg width="530pt" height="28pt"
 viewBox="0.00 0.00 530.25 28.00" xmlns="http://www.w3.org/2000/svg" xmlns:xlink="http://www.w3.org/1999/xlink">
<g id="graph0" class="graph" transform="scale(1 1) rotate(0) translate(4 24)">
<title>ParticleSystem::renderParticle</title>
<!-- Node1 -->
<g id="Node000001" class="node">
<title>Node1</title>
<g id="a_Node000001"><a xlink:title=" ">
<polygon fill="#999999" stroke="#666666" points="522.25,-20 373.5,-20 373.5,0 522.25,0 522.25,-20"/>
<text text-anchor="middle" x="447.88" y="-6.5" font-family="Helvetica,sans-Serif" font-size="10.00">ParticleSystem::renderParticle</text>
</a>
</g>
</g>
<!-- Node2 -->
<g id="Node000002" class="node">
<title>Node2</title>
<g id="a_Node000002"><a xlink:href="classParticleSystem.html#abe33b51ab04720074de064406a3f20df" target="_top" xlink:title=" ">
<polygon fill="white" stroke="#666666" points="337.5,-20 221.75,-20 221.75,0 337.5,0 337.5,-20"/>
<text text-anchor="middle" x="279.62" y="-6.5" font-family="Helvetica,sans-Serif" font-size="10.00">ParticleSystem::render</text>
</a>
</g>
</g>
<!-- Node1&#45;&gt;Node2 -->
<g id="edge1_Node000001_Node000002" class="edge">
<title>Node1&#45;&gt;Node2</title>
<g id="a_edge1_Node000001_Node000002"><a xlink:title=" ">
<path fill="none" stroke="#63b8ff" d="M361.97,-10C353.82,-10 345.7,-10 337.91,-10"/>
<polygon fill="#63b8ff" stroke="#63b8ff" points="361.96,-13.5 371.96,-10 361.96,-6.5 361.96,-13.5"/>
</a>
</g>
</g>
<!-- Node3 -->
<g id="Node000003" class="node">
<title>Node3</title>
<g id="a_Node000003"><a xlink:href="classGameManager.html#a932e6df46aa4d397f8f5d61f3c137bbd" target="_top" xlink:title=" ">
<polygon fill="white" stroke="#666666" points="185.75,-20 73,-20 73,0 185.75,0 185.75,-20"/>
<text text-anchor="middle" x="129.38" y="-6.5" font-family="Helvetica,sans-Serif" font-size="10.00">GameManager::render</text>
</a>
</g>
</g>
<!-- Node2&#45;&gt;Node3 -->
<g id="edge2_Node000002_Node000003" class="edge">
<title>Node2&#45;&gt;Node3</title>
<g id="a_edge2_Node000002_Node000003"><a xlink:title=" ">
<path fill="none" stroke="#63b8ff" d="M210.05,-10C202.02,-10 193.9,-10 186.08,-10"/>
<polygon fill="#63b8ff" stroke="#63b8ff" points="209.79,-13.5 219.79,-10 209.79,-6.5 209.79,-13.5"/>
</a>
</g>
</g>
<!-- Node4 -->
<g id="Node000004" class="node">
<title>Node4</title>
<g id="a_Node000004"><a xlink:href="Client_2src_2main_8cpp.html#ae66f6b31b5ad750f1fe042a706a4e3d4" target="_top" xlink:title=" ">
<polygon fill="white" stroke="#666666" points="37,-20 0,-20 0,0 37,0 37,-20"/>
<text text-anchor="middle" x="18.5" y="-6.5" font-family="Helvetica,sans-Serif" font-size="10.00">main</text>
</a>
</g>
</g>
<!-- Node3&#45;&gt;Node4 -->
<g id="edge3_Node000003_Node000004" class="edge">
<title>Node3&#45;&gt;Node4</title>
<g id="a_edge3_Node000003_Node000004"><a xlink:title=" ">
<path fill="none" stroke="#63b8ff" d="M61.39,-10C52.63,-10 44.32,-10 37.46,-10"/>
<polygon fill="#63b8ff" stroke="#63b8ff" points="61.15,-13.5 71.15,-10 61.15,-6.5 61.15,-13.5"/>
</a>
</g>
</g>
</g>
</svg>
