<?xml version="1.0" encoding="UTF-8" standalone="no"?>
<!DOCTYPE svg PUBLIC "-//W3C//DTD SVG 1.1//EN"
 "http://www.w3.org/Graphics/SVG/1.1/DTD/svg11.dtd">
<!-- Generated by graphviz version 12.1.0 (20240811.2233)
 -->
<!-- Title: GameManager::onRoomJoined Pages: 1 -->
<svg width="353pt" height="66pt"
 viewBox="0.00 0.00 352.75 66.00" xmlns="http://www.w3.org/2000/svg" xmlns:xlink="http://www.w3.org/1999/xlink">
<g id="graph0" class="graph" transform="scale(1 1) rotate(0) translate(4 62)">
<title>GameManager::onRoomJoined</title>
<!-- Node1 -->
<g id="Node000001" class="node">
<title>Node1</title>
<g id="a_Node000001"><a xlink:title=" ">
<polygon fill="#999999" stroke="#666666" points="151,-39 0,-39 0,-19 151,-19 151,-39"/>
<text text-anchor="middle" x="75.5" y="-25.5" font-family="Helvetica,sans-Serif" font-size="10.00">GameManager::onRoomJoined</text>
</a>
</g>
</g>
<!-- Node2 -->
<g id="Node000002" class="node">
<title>Node2</title>
<g id="a_Node000002"><a xlink:href="GameTypes_8hpp.html#ae3c1e425aceb99f3cab2037f4b24ab1c" target="_top" xlink:title=" ">
<polygon fill="white" stroke="#666666" points="325.62,-58 206.12,-58 206.12,-38 325.62,-38 325.62,-58"/>
<text text-anchor="middle" x="265.88" y="-44.5" font-family="Helvetica,sans-Serif" font-size="10.00">getMaxPlayersForMode</text>
</a>
</g>
</g>
<!-- Node1&#45;&gt;Node2 -->
<g id="edge1_Node000001_Node000002" class="edge">
<title>Node1&#45;&gt;Node2</title>
<g id="a_edge1_Node000001_Node000002"><a xlink:title=" ">
<path fill="none" stroke="#63b8ff" d="M151.49,-36.56C165.74,-38 180.6,-39.5 194.69,-40.92"/>
<polygon fill="#63b8ff" stroke="#63b8ff" points="194,-44.37 204.3,-41.89 194.7,-37.4 194,-44.37"/>
</a>
</g>
</g>
<!-- Node3 -->
<g id="Node000003" class="node">
<title>Node3</title>
<g id="a_Node000003"><a xlink:href="classGameManager.html#a23ec271d95d996128b158d3e5e3fe333" target="_top" xlink:title=" ">
<polygon fill="white" stroke="#666666" points="344.75,-20 187,-20 187,0 344.75,0 344.75,-20"/>
<text text-anchor="middle" x="265.88" y="-6.5" font-family="Helvetica,sans-Serif" font-size="10.00">GameManager::refreshRoomList</text>
</a>
</g>
</g>
<!-- Node1&#45;&gt;Node3 -->
<g id="edge2_Node000001_Node000003" class="edge">
<title>Node1&#45;&gt;Node3</title>
<g id="a_edge2_Node000001_Node000003"><a xlink:title=" ">
<path fill="none" stroke="#63b8ff" d="M151.49,-21.44C159.37,-20.64 167.44,-19.83 175.46,-19.02"/>
<polygon fill="#63b8ff" stroke="#63b8ff" points="175.64,-22.52 185.24,-18.03 174.94,-15.55 175.64,-22.52"/>
</a>
</g>
</g>
</g>
</svg>
