<?xml version="1.0" encoding="UTF-8" standalone="no"?>
<!DOCTYPE svg PUBLIC "-//W3C//DTD SVG 1.1//EN"
 "http://www.w3.org/Graphics/SVG/1.1/DTD/svg11.dtd">
<!-- Generated by graphviz version 12.1.0 (20240811.2233)
 -->
<!-- Title: GameManager::refreshRoomList Pages: 1 -->
<svg width="1188pt" height="130pt"
 viewBox="0.00 0.00 1188.00 130.01" xmlns="http://www.w3.org/2000/svg" xmlns:xlink="http://www.w3.org/1999/xlink">
<g id="graph0" class="graph" transform="scale(1 1) rotate(0) translate(4 126.01)">
<title>GameManager::refreshRoomList</title>
<!-- Node1 -->
<g id="Node000001" class="node">
<title>Node1</title>
<g id="a_Node000001"><a xlink:title=" ">
<polygon fill="#999999" stroke="#666666" points="1180,-77 1022.25,-77 1022.25,-57 1180,-57 1180,-77"/>
<text text-anchor="middle" x="1101.12" y="-63.5" font-family="Helvetica,sans-Serif" font-size="10.00">GameManager::refreshRoomList</text>
</a>
</g>
</g>
<!-- Node2 -->
<g id="Node000002" class="node">
<title>Node2</title>
<g id="a_Node000002"><a xlink:href="classGameManager.html#aeed1dd73db1c39b2e39d30d9d37c1f6c" target="_top" xlink:title=" ">
<polygon fill="white" stroke="#666666" points="397.5,-102 254,-102 254,-70 397.5,-70 397.5,-102"/>
<text text-anchor="start" x="262" y="-88.5" font-family="Helvetica,sans-Serif" font-size="10.00">GameManager::handleMouse</text>
<text text-anchor="middle" x="325.75" y="-76.5" font-family="Helvetica,sans-Serif" font-size="10.00">Click</text>
</a>
</g>
</g>
<!-- Node1&#45;&gt;Node2 -->
<g id="edge1_Node000001_Node000002" class="edge">
<title>Node1&#45;&gt;Node2</title>
<g id="a_edge1_Node000001_Node000002"><a xlink:title=" ">
<path fill="none" stroke="#63b8ff" d="M1065.7,-81.72C1043.48,-90.4 1013.7,-100.54 986.25,-105 774.26,-139.44 519.02,-113.24 397.6,-96.75"/>
<polygon fill="#63b8ff" stroke="#63b8ff" points="1066.88,-85.02 1074.86,-78.04 1064.27,-78.52 1066.88,-85.02"/>
</a>
</g>
</g>
<!-- Node5 -->
<g id="Node000005" class="node">
<title>Node5</title>
<g id="a_Node000005"><a xlink:href="classGameManager.html#ab7d648c8c27a581741269b09a5622776" target="_top" xlink:title=" ">
<polygon fill="white" stroke="#666666" points="982.5,-96 839,-96 839,-76 982.5,-76 982.5,-96"/>
<text text-anchor="middle" x="910.75" y="-82.5" font-family="Helvetica,sans-Serif" font-size="10.00">GameManager::onConnected</text>
</a>
</g>
</g>
<!-- Node1&#45;&gt;Node5 -->
<g id="edge4_Node000001_Node000005" class="edge">
<title>Node1&#45;&gt;Node5</title>
<g id="a_edge4_Node000001_Node000005"><a xlink:title=" ">
<path fill="none" stroke="#63b8ff" d="M1010.57,-76.03C1001.27,-76.97 991.9,-77.92 982.83,-78.83"/>
<polygon fill="#63b8ff" stroke="#63b8ff" points="1010.77,-79.53 1020.37,-75.04 1010.07,-72.57 1010.77,-79.53"/>
</a>
</g>
</g>
<!-- Node8 -->
<g id="Node000008" class="node">
<title>Node8</title>
<g id="a_Node000008"><a xlink:href="classGameManager.html#a4033d43700b3673e7a062590376451e2" target="_top" xlink:title=" ">
<polygon fill="white" stroke="#666666" points="986.25,-58 835.25,-58 835.25,-38 986.25,-38 986.25,-58"/>
<text text-anchor="middle" x="910.75" y="-44.5" font-family="Helvetica,sans-Serif" font-size="10.00">GameManager::onRoomJoined</text>
</a>
</g>
</g>
<!-- Node1&#45;&gt;Node8 -->
<g id="edge9_Node000001_Node000008" class="edge">
<title>Node1&#45;&gt;Node8</title>
<g id="a_edge9_Node000001_Node000008"><a xlink:title=" ">
<path fill="none" stroke="#63b8ff" d="M1010.62,-57.97C1002.63,-57.17 994.59,-56.36 986.73,-55.56"/>
<polygon fill="#63b8ff" stroke="#63b8ff" points="1010.07,-61.43 1020.37,-58.96 1010.77,-54.47 1010.07,-61.43"/>
</a>
</g>
</g>
<!-- Node9 -->
<g id="Node000009" class="node">
<title>Node9</title>
<g id="a_Node000009"><a xlink:href="classGameManager.html#a0ec8dae876f394af00216bcaa4082670" target="_top" xlink:title=" ">
<polygon fill="white" stroke="#666666" points="980.25,-20 841.25,-20 841.25,0 980.25,0 980.25,-20"/>
<text text-anchor="middle" x="910.75" y="-6.5" font-family="Helvetica,sans-Serif" font-size="10.00">GameManager::onRoomLeft</text>
</a>
</g>
</g>
<!-- Node1&#45;&gt;Node9 -->
<g id="edge11_Node000001_Node000009" class="edge">
<title>Node1&#45;&gt;Node9</title>
<g id="a_edge11_Node000001_Node000009"><a xlink:title=" ">
<path fill="none" stroke="#63b8ff" d="M1060.02,-52.83C1038.3,-45.35 1010.94,-36.26 986.25,-29 976.13,-26.03 965.17,-23.08 954.84,-20.42"/>
<polygon fill="#63b8ff" stroke="#63b8ff" points="1058.79,-56.11 1069.39,-56.07 1061.08,-49.49 1058.79,-56.11"/>
</a>
</g>
</g>
<!-- Node3 -->
<g id="Node000003" class="node">
<title>Node3</title>
<g id="a_Node000003"><a xlink:href="classGameManager.html#a6cea7fca5fecdd4f8a32912d4bfc233f" target="_top" xlink:title=" ">
<polygon fill="white" stroke="#666666" points="218,-96 73,-96 73,-76 218,-76 218,-96"/>
<text text-anchor="middle" x="145.5" y="-82.5" font-family="Helvetica,sans-Serif" font-size="10.00">GameManager::handleEvents</text>
</a>
</g>
</g>
<!-- Node2&#45;&gt;Node3 -->
<g id="edge2_Node000002_Node000003" class="edge">
<title>Node2&#45;&gt;Node3</title>
<g id="a_edge2_Node000002_Node000003"><a xlink:title=" ">
<path fill="none" stroke="#63b8ff" d="M242.07,-86C234.19,-86 226.24,-86 218.48,-86"/>
<polygon fill="#63b8ff" stroke="#63b8ff" points="242.02,-89.5 252.02,-86 242.02,-82.5 242.02,-89.5"/>
</a>
</g>
</g>
<!-- Node4 -->
<g id="Node000004" class="node">
<title>Node4</title>
<g id="a_Node000004"><a xlink:href="Client_2src_2main_8cpp.html#ae66f6b31b5ad750f1fe042a706a4e3d4" target="_top" xlink:title=" ">
<polygon fill="white" stroke="#666666" points="37,-96 0,-96 0,-76 37,-76 37,-96"/>
<text text-anchor="middle" x="18.5" y="-82.5" font-family="Helvetica,sans-Serif" font-size="10.00">main</text>
</a>
</g>
</g>
<!-- Node3&#45;&gt;Node4 -->
<g id="edge3_Node000003_Node000004" class="edge">
<title>Node3&#45;&gt;Node4</title>
<g id="a_edge3_Node000003_Node000004"><a xlink:title=" ">
<path fill="none" stroke="#63b8ff" d="M61.12,-86C52.34,-86 44.18,-86 37.46,-86"/>
<polygon fill="#63b8ff" stroke="#63b8ff" points="61,-89.5 71,-86 61,-82.5 61,-89.5"/>
</a>
</g>
</g>
<!-- Node6 -->
<g id="Node000006" class="node">
<title>Node6</title>
<g id="a_Node000006"><a xlink:href="classGameManager.html#a14d06b2592fdbf40f9bc38e2643635fd" target="_top" xlink:title=" ">
<polygon fill="white" stroke="#666666" points="799.25,-58 628.75,-58 628.75,-38 799.25,-38 799.25,-58"/>
<text text-anchor="middle" x="714" y="-44.5" font-family="Helvetica,sans-Serif" font-size="10.00">GameManager::initializeNetworking</text>
</a>
</g>
</g>
<!-- Node5&#45;&gt;Node6 -->
<g id="edge5_Node000005_Node000006" class="edge">
<title>Node5&#45;&gt;Node6</title>
<g id="a_edge5_Node000005_Node000006"><a xlink:title=" ">
<path fill="none" stroke="#63b8ff" d="M844.89,-73.34C820.11,-68.51 792.16,-63.06 768.56,-58.45"/>
<polygon fill="#63b8ff" stroke="#63b8ff" points="844.05,-76.75 854.53,-75.23 845.39,-69.88 844.05,-76.75"/>
</a>
</g>
</g>
<!-- Node6&#45;&gt;Node2 -->
<g id="edge8_Node000006_Node000002" class="edge">
<title>Node6&#45;&gt;Node2</title>
<g id="a_edge8_Node000006_Node000002"><a xlink:title=" ">
<path fill="none" stroke="#63b8ff" d="M642.16,-60.22C625.96,-62.73 608.79,-65.16 592.75,-67 526.86,-74.54 451.42,-79.6 397.75,-82.58"/>
<polygon fill="#63b8ff" stroke="#63b8ff" points="642.37,-63.73 651.7,-58.72 641.28,-56.82 642.37,-63.73"/>
</a>
</g>
</g>
<!-- Node7 -->
<g id="Node000007" class="node">
<title>Node7</title>
<g id="a_Node000007"><a xlink:href="classGameManager.html#a946b57d62b25778f70deebaaf41f609d" target="_top" xlink:title=" ">
<polygon fill="white" stroke="#666666" points="592.75,-58 433.5,-58 433.5,-26 592.75,-26 592.75,-58"/>
<text text-anchor="start" x="441.5" y="-44.5" font-family="Helvetica,sans-Serif" font-size="10.00">GameManager::connectToServer</text>
<text text-anchor="middle" x="513.12" y="-32.5" font-family="Helvetica,sans-Serif" font-size="10.00">WithRooms</text>
</a>
</g>
</g>
<!-- Node6&#45;&gt;Node7 -->
<g id="edge6_Node000006_Node000007" class="edge">
<title>Node6&#45;&gt;Node7</title>
<g id="a_edge6_Node000006_Node000007"><a xlink:title=" ">
<path fill="none" stroke="#63b8ff" d="M617.03,-45.1C608.98,-44.86 600.9,-44.62 593,-44.38"/>
<polygon fill="#63b8ff" stroke="#63b8ff" points="616.76,-48.6 626.86,-45.4 616.97,-41.6 616.76,-48.6"/>
</a>
</g>
</g>
<!-- Node7&#45;&gt;Node2 -->
<g id="edge7_Node000007_Node000002" class="edge">
<title>Node7&#45;&gt;Node2</title>
<g id="a_edge7_Node000007_Node000002"><a xlink:title=" ">
<path fill="none" stroke="#63b8ff" d="M431.64,-61.1C419.86,-63.9 407.81,-66.76 396.27,-69.5"/>
<polygon fill="#63b8ff" stroke="#63b8ff" points="432.44,-64.51 441.36,-58.8 430.82,-57.7 432.44,-64.51"/>
</a>
</g>
</g>
<!-- Node8&#45;&gt;Node6 -->
<g id="edge10_Node000008_Node000006" class="edge">
<title>Node8&#45;&gt;Node6</title>
<g id="a_edge10_Node000008_Node000006"><a xlink:title=" ">
<path fill="none" stroke="#63b8ff" d="M823.76,-48C815.74,-48 807.62,-48 799.61,-48"/>
<polygon fill="#63b8ff" stroke="#63b8ff" points="823.5,-51.5 833.5,-48 823.5,-44.5 823.5,-51.5"/>
</a>
</g>
</g>
<!-- Node9&#45;&gt;Node6 -->
<g id="edge12_Node000009_Node000006" class="edge">
<title>Node9&#45;&gt;Node6</title>
<g id="a_edge12_Node000009_Node000006"><a xlink:title=" ">
<path fill="none" stroke="#63b8ff" d="M844.89,-22.66C820.11,-27.49 792.16,-32.94 768.56,-37.55"/>
<polygon fill="#63b8ff" stroke="#63b8ff" points="845.39,-26.12 854.53,-20.77 844.05,-19.25 845.39,-26.12"/>
</a>
</g>
</g>
</g>
</svg>
