<?xml version="1.0" encoding="UTF-8" standalone="no"?>
<!DOCTYPE svg PUBLIC "-//W3C//DTD SVG 1.1//EN"
 "http://www.w3.org/Graphics/SVG/1.1/DTD/svg11.dtd">
<!-- Generated by graphviz version 12.1.0 (20240811.2233)
 -->
<!-- Title: Parameters::getColorBlindModeString Pages: 1 -->
<svg width="985pt" height="78pt"
 viewBox="0.00 0.00 985.25 78.00" xmlns="http://www.w3.org/2000/svg" xmlns:xlink="http://www.w3.org/1999/xlink">
<g id="graph0" class="graph" transform="scale(1 1) rotate(0) translate(4 74)">
<title>Parameters::getColorBlindModeString</title>
<!-- Node1 -->
<g id="Node000001" class="node">
<title>Node1</title>
<g id="a_Node000001"><a xlink:title=" ">
<polygon fill="#999999" stroke="#666666" points="977.25,-49 846.5,-49 846.5,-17 977.25,-17 977.25,-49"/>
<text text-anchor="start" x="854.5" y="-35.5" font-family="Helvetica,sans-Serif" font-size="10.00">Parameters::getColorBlind</text>
<text text-anchor="middle" x="911.88" y="-23.5" font-family="Helvetica,sans-Serif" font-size="10.00">ModeString</text>
</a>
</g>
</g>
<!-- Node2 -->
<g id="Node000002" class="node">
<title>Node2</title>
<g id="a_Node000002"><a xlink:href="classParameters.html#aef99182406aa08d547716d348fab78de" target="_top" xlink:title=" ">
<polygon fill="white" stroke="#666666" points="809.38,-63 654.62,-63 654.62,-43 809.38,-43 809.38,-63"/>
<text text-anchor="middle" x="732" y="-49.5" font-family="Helvetica,sans-Serif" font-size="10.00">Parameters::setColorBlindMode</text>
</a>
</g>
</g>
<!-- Node1&#45;&gt;Node2 -->
<g id="edge1_Node000001_Node000002" class="edge">
<title>Node1&#45;&gt;Node2</title>
<g id="a_edge1_Node000001_Node000002"><a xlink:title=" ">
<path fill="none" stroke="#63b8ff" d="M834.92,-41.54C826.59,-42.48 818.1,-43.43 809.76,-44.37"/>
<polygon fill="#63b8ff" stroke="#63b8ff" points="835.1,-45.04 844.65,-40.45 834.32,-38.09 835.1,-45.04"/>
</a>
</g>
</g>
<!-- Node7 -->
<g id="Node000007" class="node">
<title>Node7</title>
<g id="a_Node000007"><a xlink:href="classParameters.html#a97f0af15da3b0a1a8b3702fc5b56556e" target="_top" xlink:title=" ">
<polygon fill="white" stroke="#666666" points="810.5,-24 653.5,-24 653.5,-4 810.5,-4 810.5,-24"/>
<text text-anchor="middle" x="732" y="-10.5" font-family="Helvetica,sans-Serif" font-size="10.00">Parameters::setupVideoSettings</text>
</a>
</g>
</g>
<!-- Node1&#45;&gt;Node7 -->
<g id="edge6_Node000001_Node000007" class="edge">
<title>Node1&#45;&gt;Node7</title>
<g id="a_edge6_Node000001_Node000007"><a xlink:title=" ">
<path fill="none" stroke="#63b8ff" d="M834.75,-24.87C826.88,-24.03 818.88,-23.17 810.99,-22.33"/>
<polygon fill="#63b8ff" stroke="#63b8ff" points="834.33,-28.34 844.65,-25.93 835.08,-21.38 834.33,-28.34"/>
</a>
</g>
</g>
<!-- Node3 -->
<g id="Node000003" class="node">
<title>Node3</title>
<g id="a_Node000003"><a xlink:href="classGameManager.html#ac2ac55880dc9315aa67b2f142647efbb" target="_top" xlink:title=" ">
<polygon fill="white" stroke="#666666" points="617.5,-63 439.5,-63 439.5,-43 617.5,-43 617.5,-63"/>
<text text-anchor="middle" x="528.5" y="-49.5" font-family="Helvetica,sans-Serif" font-size="10.00">GameManager::cycleColorBlindMode</text>
</a>
</g>
</g>
<!-- Node2&#45;&gt;Node3 -->
<g id="edge2_Node000002_Node000003" class="edge">
<title>Node2&#45;&gt;Node3</title>
<g id="a_edge2_Node000002_Node000003"><a xlink:title=" ">
<path fill="none" stroke="#63b8ff" d="M642.97,-53C634.64,-53 626.18,-53 617.84,-53"/>
<polygon fill="#63b8ff" stroke="#63b8ff" points="642.73,-56.5 652.73,-53 642.73,-49.5 642.73,-56.5"/>
</a>
</g>
</g>
<!-- Node4 -->
<g id="Node000004" class="node">
<title>Node4</title>
<g id="a_Node000004"><a xlink:href="classGameManager.html#aeed1dd73db1c39b2e39d30d9d37c1f6c" target="_top" xlink:title=" ">
<polygon fill="white" stroke="#666666" points="400.5,-70 257,-70 257,-38 400.5,-38 400.5,-70"/>
<text text-anchor="start" x="265" y="-56.5" font-family="Helvetica,sans-Serif" font-size="10.00">GameManager::handleMouse</text>
<text text-anchor="middle" x="328.75" y="-44.5" font-family="Helvetica,sans-Serif" font-size="10.00">Click</text>
</a>
</g>
</g>
<!-- Node3&#45;&gt;Node4 -->
<g id="edge3_Node000003_Node000004" class="edge">
<title>Node3&#45;&gt;Node4</title>
<g id="a_edge3_Node000003_Node000004"><a xlink:title=" ">
<path fill="none" stroke="#63b8ff" d="M427.64,-53.5C418.63,-53.55 409.63,-53.6 400.94,-53.64"/>
<polygon fill="#63b8ff" stroke="#63b8ff" points="427.54,-57.01 437.52,-53.46 427.5,-50.01 427.54,-57.01"/>
</a>
</g>
</g>
<!-- Node5 -->
<g id="Node000005" class="node">
<title>Node5</title>
<g id="a_Node000005"><a xlink:href="classGameManager.html#a6cea7fca5fecdd4f8a32912d4bfc233f" target="_top" xlink:title=" ">
<polygon fill="white" stroke="#666666" points="218,-64 73,-64 73,-44 218,-44 218,-64"/>
<text text-anchor="middle" x="145.5" y="-50.5" font-family="Helvetica,sans-Serif" font-size="10.00">GameManager::handleEvents</text>
</a>
</g>
</g>
<!-- Node4&#45;&gt;Node5 -->
<g id="edge4_Node000004_Node000005" class="edge">
<title>Node4&#45;&gt;Node5</title>
<g id="a_edge4_Node000004_Node000005"><a xlink:title=" ">
<path fill="none" stroke="#63b8ff" d="M245.31,-54C236.29,-54 227.17,-54 218.3,-54"/>
<polygon fill="#63b8ff" stroke="#63b8ff" points="245.12,-57.5 255.12,-54 245.12,-50.5 245.12,-57.5"/>
</a>
</g>
</g>
<!-- Node6 -->
<g id="Node000006" class="node">
<title>Node6</title>
<g id="a_Node000006"><a xlink:href="Client_2src_2main_8cpp.html#ae66f6b31b5ad750f1fe042a706a4e3d4" target="_top" xlink:title=" ">
<polygon fill="white" stroke="#666666" points="37,-64 0,-64 0,-44 37,-44 37,-64"/>
<text text-anchor="middle" x="18.5" y="-50.5" font-family="Helvetica,sans-Serif" font-size="10.00">main</text>
</a>
</g>
</g>
<!-- Node5&#45;&gt;Node6 -->
<g id="edge5_Node000005_Node000006" class="edge">
<title>Node5&#45;&gt;Node6</title>
<g id="a_edge5_Node000005_Node000006"><a xlink:title=" ">
<path fill="none" stroke="#63b8ff" d="M61.12,-54C52.34,-54 44.18,-54 37.46,-54"/>
<polygon fill="#63b8ff" stroke="#63b8ff" points="61,-57.5 71,-54 61,-50.5 61,-57.5"/>
</a>
</g>
</g>
<!-- Node8 -->
<g id="Node000008" class="node">
<title>Node8</title>
<g id="a_Node000008"><a xlink:href="classParameters.html#a8e74ddb8f408ad9e725e3784f8a873e7" target="_top" xlink:title=" ">
<polygon fill="white" stroke="#666666" points="597.25,-23 459.75,-23 459.75,-3 597.25,-3 597.25,-23"/>
<text text-anchor="middle" x="528.5" y="-9.5" font-family="Helvetica,sans-Serif" font-size="10.00">Parameters::loadResources</text>
</a>
</g>
</g>
<!-- Node7&#45;&gt;Node8 -->
<g id="edge7_Node000007_Node000008" class="edge">
<title>Node7&#45;&gt;Node8</title>
<g id="a_edge7_Node000007_Node000008"><a xlink:title=" ">
<path fill="none" stroke="#63b8ff" d="M641.85,-13.56C627.03,-13.48 611.87,-13.41 597.68,-13.34"/>
<polygon fill="#63b8ff" stroke="#63b8ff" points="641.56,-17.06 651.58,-13.61 641.6,-10.06 641.56,-17.06"/>
</a>
</g>
</g>
<!-- Node9 -->
<g id="Node000009" class="node">
<title>Node9</title>
<g id="a_Node000009"><a xlink:href="classGameManager.html#a72e1318dfab6fad06bd4126d12f6a537" target="_top" xlink:title=" ">
<polygon fill="white" stroke="#666666" points="403.5,-20 254,-20 254,0 403.5,0 403.5,-20"/>
<text text-anchor="middle" x="328.75" y="-6.5" font-family="Helvetica,sans-Serif" font-size="10.00">GameManager::GameManager</text>
</a>
</g>
</g>
<!-- Node8&#45;&gt;Node9 -->
<g id="edge8_Node000008_Node000009" class="edge">
<title>Node8&#45;&gt;Node9</title>
<g id="a_edge8_Node000008_Node000009"><a xlink:title=" ">
<path fill="none" stroke="#63b8ff" d="M448.32,-11.8C433.59,-11.58 418.25,-11.34 403.68,-11.12"/>
<polygon fill="#63b8ff" stroke="#63b8ff" points="447.88,-15.29 457.93,-11.94 447.99,-8.29 447.88,-15.29"/>
</a>
</g>
</g>
</g>
</svg>
