<?xml version="1.0" encoding="UTF-8" standalone="no"?>
<!DOCTYPE svg PUBLIC "-//W3C//DTD SVG 1.1//EN"
 "http://www.w3.org/Graphics/SVG/1.1/DTD/svg11.dtd">
<!-- Generated by graphviz version 12.1.0 (20240811.2233)
 -->
<!-- Title: Engine::AudioPlayer Pages: 1 -->
<svg width="111pt" height="336pt"
 viewBox="0.00 0.00 111.00 336.00" xmlns="http://www.w3.org/2000/svg" xmlns:xlink="http://www.w3.org/1999/xlink">
<g id="graph0" class="graph" transform="scale(1 1) rotate(0) translate(4 332)">
<title>Engine::AudioPlayer</title>
<!-- Node1 -->
<g id="Node000001" class="node">
<title>Node1</title>
<g id="a_Node000001"><a xlink:title=" ">
<polygon fill="#999999" stroke="none" points="100.5,-328 2.5,-328 2.5,-196 100.5,-196 100.5,-328"/>
<text text-anchor="start" x="7.25" y="-314.5" font-family="Helvetica,sans-Serif" font-size="10.00">Engine::AudioPlayer</text>
<text text-anchor="start" x="50" y="-298.5" font-family="Helvetica,sans-Serif" font-size="10.00"> </text>
<text text-anchor="start" x="10.5" y="-282.5" font-family="Helvetica,sans-Serif" font-size="10.00">+</text>
<text text-anchor="start" x="24.5" y="-282.5" font-family="Helvetica,sans-Serif" font-size="10.00">AudioPlayer()</text>
<text text-anchor="start" x="10.5" y="-266.5" font-family="Helvetica,sans-Serif" font-size="10.00">+</text>
<text text-anchor="start" x="24.5" y="-266.5" font-family="Helvetica,sans-Serif" font-size="10.00">~AudioPlayer()</text>
<text text-anchor="start" x="10.5" y="-250.5" font-family="Helvetica,sans-Serif" font-size="10.00">+</text>
<text text-anchor="start" x="24.5" y="-250.5" font-family="Helvetica,sans-Serif" font-size="10.00">loadAudio()</text>
<text text-anchor="start" x="10.5" y="-234.5" font-family="Helvetica,sans-Serif" font-size="10.00">+</text>
<text text-anchor="start" x="24.5" y="-234.5" font-family="Helvetica,sans-Serif" font-size="10.00">playAudio()</text>
<text text-anchor="start" x="10.5" y="-218.5" font-family="Helvetica,sans-Serif" font-size="10.00">+</text>
<text text-anchor="start" x="24.5" y="-218.5" font-family="Helvetica,sans-Serif" font-size="10.00">stopAudio()</text>
<text text-anchor="start" x="10.5" y="-202.5" font-family="Helvetica,sans-Serif" font-size="10.00">+</text>
<text text-anchor="start" x="24.5" y="-202.5" font-family="Helvetica,sans-Serif" font-size="10.00">unloadAudio()</text>
<polygon fill="#666666" stroke="#666666" points="2.5,-310 2.5,-310 100.5,-310 100.5,-310 2.5,-310"/>
<polygon fill="#666666" stroke="#666666" points="2.5,-294 2.5,-294 100.5,-294 100.5,-294 2.5,-294"/>
<polygon fill="none" stroke="#666666" points="2.5,-196 2.5,-328 100.5,-328 100.5,-196 2.5,-196"/>
</a>
</g>
</g>
<!-- Node2 -->
<g id="Node000002" class="node">
<title>Node2</title>
<g id="a_Node000002"><a xlink:href="classEngine_1_1AudioPlayers_1_1SFML.html" target="_top" xlink:title=" ">
<polygon fill="white" stroke="none" points="103,-160 0,-160 0,0 103,0 103,-160"/>
<text text-anchor="start" x="4.62" y="-146.5" font-family="Helvetica,sans-Serif" font-size="10.00">Engine::AudioPlayers</text>
<text text-anchor="start" x="35.38" y="-134.5" font-family="Helvetica,sans-Serif" font-size="10.00">::SFML</text>
<text text-anchor="start" x="12" y="-118.5" font-family="Helvetica,sans-Serif" font-size="10.00">&#45;</text>
<text text-anchor="start" x="27" y="-118.5" font-family="Helvetica,sans-Serif" font-size="10.00">soundBuffers</text>
<text text-anchor="start" x="12" y="-102.5" font-family="Helvetica,sans-Serif" font-size="10.00">&#45;</text>
<text text-anchor="start" x="27" y="-102.5" font-family="Helvetica,sans-Serif" font-size="10.00">sounds</text>
<text text-anchor="start" x="10.5" y="-86.5" font-family="Helvetica,sans-Serif" font-size="10.00">+</text>
<text text-anchor="start" x="27" y="-86.5" font-family="Helvetica,sans-Serif" font-size="10.00">SFML()</text>
<text text-anchor="start" x="10.5" y="-70.5" font-family="Helvetica,sans-Serif" font-size="10.00">+</text>
<text text-anchor="start" x="27" y="-70.5" font-family="Helvetica,sans-Serif" font-size="10.00">~SFML()</text>
<text text-anchor="start" x="10.5" y="-54.5" font-family="Helvetica,sans-Serif" font-size="10.00">+</text>
<text text-anchor="start" x="27" y="-54.5" font-family="Helvetica,sans-Serif" font-size="10.00">loadAudio()</text>
<text text-anchor="start" x="10.5" y="-38.5" font-family="Helvetica,sans-Serif" font-size="10.00">+</text>
<text text-anchor="start" x="27" y="-38.5" font-family="Helvetica,sans-Serif" font-size="10.00">playAudio()</text>
<text text-anchor="start" x="10.5" y="-22.5" font-family="Helvetica,sans-Serif" font-size="10.00">+</text>
<text text-anchor="start" x="27" y="-22.5" font-family="Helvetica,sans-Serif" font-size="10.00">stopAudio()</text>
<text text-anchor="start" x="10.5" y="-6.5" font-family="Helvetica,sans-Serif" font-size="10.00">+</text>
<text text-anchor="start" x="27" y="-6.5" font-family="Helvetica,sans-Serif" font-size="10.00">unloadAudio()</text>
<polygon fill="#666666" stroke="#666666" points="0,-130 0,-130 103,-130 103,-130 0,-130"/>
<polygon fill="#666666" stroke="#666666" points="0,-98 0,-98 25,-98 25,-98 0,-98"/>
<polygon fill="#666666" stroke="#666666" points="25,-98 25,-98 103,-98 103,-98 25,-98"/>
<polygon fill="none" stroke="#666666" points="0,0 0,-160 103,-160 103,0 0,0"/>
</a>
</g>
</g>
<!-- Node1&#45;&gt;Node2 -->
<g id="edge1_Node000001_Node000002" class="edge">
<title>Node1&#45;&gt;Node2</title>
<g id="a_edge1_Node000001_Node000002"><a xlink:title=" ">
<path fill="none" stroke="#63b8ff" d="M51.5,-184.53C51.5,-176.32 51.5,-167.95 51.5,-159.71"/>
<polygon fill="none" stroke="#63b8ff" points="48,-184.5 51.5,-194.5 55,-184.5 48,-184.5"/>
</a>
</g>
</g>
</g>
</svg>
