<?xml version="1.0" encoding="UTF-8" standalone="no"?>
<!DOCTYPE svg PUBLIC "-//W3C//DTD SVG 1.1//EN"
 "http://www.w3.org/Graphics/SVG/1.1/DTD/svg11.dtd">
<!-- Generated by graphviz version 12.1.0 (20240811.2233)
 -->
<!-- Title: Engine::Systems::EnemySystem::handleCollision Pages: 1 -->
<svg width="996pt" height="72pt"
 viewBox="0.00 0.00 995.75 72.00" xmlns="http://www.w3.org/2000/svg" xmlns:xlink="http://www.w3.org/1999/xlink">
<g id="graph0" class="graph" transform="scale(1 1) rotate(0) translate(4 68)">
<title>Engine::Systems::EnemySystem::handleCollision</title>
<!-- Node1 -->
<g id="Node000001" class="node">
<title>Node1</title>
<g id="a_Node000001"><a xlink:title=" ">
<polygon fill="#999999" stroke="#666666" points="987.75,-45 826.25,-45 826.25,-13 987.75,-13 987.75,-45"/>
<text text-anchor="start" x="834.25" y="-31.5" font-family="Helvetica,sans-Serif" font-size="10.00">Engine::Systems::EnemySystem</text>
<text text-anchor="middle" x="907" y="-19.5" font-family="Helvetica,sans-Serif" font-size="10.00">::handleCollision</text>
</a>
</g>
</g>
<!-- Node2 -->
<g id="Node000002" class="node">
<title>Node2</title>
<g id="a_Node000002"><a xlink:href="classEngine_1_1Systems_1_1EnemySystem.html#a3f56472b9d1cbd11d38ed305cd839c5a" target="_top" xlink:title=" ">
<polygon fill="white" stroke="#666666" points="790.25,-45 628.75,-45 628.75,-13 790.25,-13 790.25,-45"/>
<text text-anchor="start" x="636.75" y="-31.5" font-family="Helvetica,sans-Serif" font-size="10.00">Engine::Systems::EnemySystem</text>
<text text-anchor="middle" x="709.5" y="-19.5" font-family="Helvetica,sans-Serif" font-size="10.00">::init</text>
</a>
</g>
</g>
<!-- Node1&#45;&gt;Node2 -->
<g id="edge1_Node000001_Node000002" class="edge">
<title>Node1&#45;&gt;Node2</title>
<g id="a_edge1_Node000001_Node000002"><a xlink:title=" ">
<path fill="none" stroke="#63b8ff" d="M814.59,-29C806.53,-29 798.41,-29 790.46,-29"/>
<polygon fill="#63b8ff" stroke="#63b8ff" points="814.41,-32.5 824.41,-29 814.41,-25.5 814.41,-32.5"/>
</a>
</g>
</g>
<!-- Node3 -->
<g id="Node000003" class="node">
<title>Node3</title>
<g id="a_Node000003"><a xlink:href="classGameManager.html#accd6989268bea90e6d9ec2800b3b6a8f" target="_top" xlink:title=" ">
<polygon fill="white" stroke="#666666" points="592.75,-58 433.5,-58 433.5,-38 592.75,-38 592.75,-58"/>
<text text-anchor="middle" x="513.12" y="-44.5" font-family="Helvetica,sans-Serif" font-size="10.00">GameManager::connectToServer</text>
</a>
</g>
</g>
<!-- Node2&#45;&gt;Node3 -->
<g id="edge2_Node000002_Node000003" class="edge">
<title>Node2&#45;&gt;Node3</title>
<g id="a_edge2_Node000002_Node000003"><a xlink:title=" ">
<path fill="none" stroke="#63b8ff" d="M617.08,-37.94C609.1,-38.72 601.06,-39.5 593.18,-40.27"/>
<polygon fill="#63b8ff" stroke="#63b8ff" points="617.2,-41.44 626.81,-36.98 616.52,-34.47 617.2,-41.44"/>
</a>
</g>
</g>
<!-- Node7 -->
<g id="Node000007" class="node">
<title>Node7</title>
<g id="a_Node000007"><a xlink:href="Server_2src_2main_8cpp.html#ae66f6b31b5ad750f1fe042a706a4e3d4" target="_top" xlink:title=" ">
<polygon fill="white" stroke="#666666" points="531.62,-20 494.62,-20 494.62,0 531.62,0 531.62,-20"/>
<text text-anchor="middle" x="513.12" y="-6.5" font-family="Helvetica,sans-Serif" font-size="10.00">main</text>
</a>
</g>
</g>
<!-- Node2&#45;&gt;Node7 -->
<g id="edge6_Node000002_Node000007" class="edge">
<title>Node2&#45;&gt;Node7</title>
<g id="a_edge6_Node000002_Node000007"><a xlink:title=" ">
<path fill="none" stroke="#63b8ff" d="M616.99,-20.05C584.79,-16.91 551.75,-13.68 532.09,-11.76"/>
<polygon fill="#63b8ff" stroke="#63b8ff" points="616.52,-23.53 626.81,-21.02 617.2,-16.56 616.52,-23.53"/>
</a>
</g>
</g>
<!-- Node4 -->
<g id="Node000004" class="node">
<title>Node4</title>
<g id="a_Node000004"><a xlink:href="classGameManager.html#aeed1dd73db1c39b2e39d30d9d37c1f6c" target="_top" xlink:title=" ">
<polygon fill="white" stroke="#666666" points="397.5,-64 254,-64 254,-32 397.5,-32 397.5,-64"/>
<text text-anchor="start" x="262" y="-50.5" font-family="Helvetica,sans-Serif" font-size="10.00">GameManager::handleMouse</text>
<text text-anchor="middle" x="325.75" y="-38.5" font-family="Helvetica,sans-Serif" font-size="10.00">Click</text>
</a>
</g>
</g>
<!-- Node3&#45;&gt;Node4 -->
<g id="edge3_Node000003_Node000004" class="edge">
<title>Node3&#45;&gt;Node4</title>
<g id="a_edge3_Node000003_Node000004"><a xlink:title=" ">
<path fill="none" stroke="#63b8ff" d="M421.9,-48C413.86,-48 405.78,-48 397.93,-48"/>
<polygon fill="#63b8ff" stroke="#63b8ff" points="421.73,-51.5 431.73,-48 421.73,-44.5 421.73,-51.5"/>
</a>
</g>
</g>
<!-- Node5 -->
<g id="Node000005" class="node">
<title>Node5</title>
<g id="a_Node000005"><a xlink:href="classGameManager.html#a6cea7fca5fecdd4f8a32912d4bfc233f" target="_top" xlink:title=" ">
<polygon fill="white" stroke="#666666" points="218,-58 73,-58 73,-38 218,-38 218,-58"/>
<text text-anchor="middle" x="145.5" y="-44.5" font-family="Helvetica,sans-Serif" font-size="10.00">GameManager::handleEvents</text>
</a>
</g>
</g>
<!-- Node4&#45;&gt;Node5 -->
<g id="edge4_Node000004_Node000005" class="edge">
<title>Node4&#45;&gt;Node5</title>
<g id="a_edge4_Node000004_Node000005"><a xlink:title=" ">
<path fill="none" stroke="#63b8ff" d="M242.07,-48C234.19,-48 226.24,-48 218.48,-48"/>
<polygon fill="#63b8ff" stroke="#63b8ff" points="242.02,-51.5 252.02,-48 242.02,-44.5 242.02,-51.5"/>
</a>
</g>
</g>
<!-- Node6 -->
<g id="Node000006" class="node">
<title>Node6</title>
<g id="a_Node000006"><a xlink:href="Client_2src_2main_8cpp.html#ae66f6b31b5ad750f1fe042a706a4e3d4" target="_top" xlink:title=" ">
<polygon fill="white" stroke="#666666" points="37,-58 0,-58 0,-38 37,-38 37,-58"/>
<text text-anchor="middle" x="18.5" y="-44.5" font-family="Helvetica,sans-Serif" font-size="10.00">main</text>
</a>
</g>
</g>
<!-- Node5&#45;&gt;Node6 -->
<g id="edge5_Node000005_Node000006" class="edge">
<title>Node5&#45;&gt;Node6</title>
<g id="a_edge5_Node000005_Node000006"><a xlink:title=" ">
<path fill="none" stroke="#63b8ff" d="M61.12,-48C52.34,-48 44.18,-48 37.46,-48"/>
<polygon fill="#63b8ff" stroke="#63b8ff" points="61,-51.5 71,-48 61,-44.5 61,-51.5"/>
</a>
</g>
</g>
</g>
</svg>
