<?xml version="1.0" encoding="UTF-8" standalone="no"?>
<!DOCTYPE svg PUBLIC "-//W3C//DTD SVG 1.1//EN"
 "http://www.w3.org/Graphics/SVG/1.1/DTD/svg11.dtd">
<!-- Generated by graphviz version 12.1.0 (20240811.2233)
 -->
<!-- Title: NetworkClient::processMessage Pages: 1 -->
<svg width="682pt" height="28pt"
 viewBox="0.00 0.00 681.75 28.00" xmlns="http://www.w3.org/2000/svg" xmlns:xlink="http://www.w3.org/1999/xlink">
<g id="graph0" class="graph" transform="scale(1 1) rotate(0) translate(4 24)">
<title>NetworkClient::processMessage</title>
<!-- Node1 -->
<g id="Node000001" class="node">
<title>Node1</title>
<g id="a_Node000001"><a xlink:title=" ">
<polygon fill="#999999" stroke="#666666" points="673.75,-20 515.25,-20 515.25,0 673.75,0 673.75,-20"/>
<text text-anchor="middle" x="594.5" y="-6.5" font-family="Helvetica,sans-Serif" font-size="10.00">NetworkClient::processMessage</text>
</a>
</g>
</g>
<!-- Node2 -->
<g id="Node000002" class="node">
<title>Node2</title>
<g id="a_Node000002"><a xlink:href="classNetworkClient.html#ae2e39148013eaea326c8ae242ab341bc" target="_top" xlink:title=" ">
<polygon fill="white" stroke="#666666" points="479.25,-20 330.5,-20 330.5,0 479.25,0 479.25,-20"/>
<text text-anchor="middle" x="404.88" y="-6.5" font-family="Helvetica,sans-Serif" font-size="10.00">NetworkClient::handleReceive</text>
</a>
</g>
</g>
<!-- Node1&#45;&gt;Node2 -->
<g id="edge1_Node000001_Node000002" class="edge">
<title>Node1&#45;&gt;Node2</title>
<g id="a_edge1_Node000001_Node000002"><a xlink:title=" ">
<path fill="none" stroke="#63b8ff" d="M503.65,-10C495.58,-10 487.46,-10 479.55,-10"/>
<polygon fill="#63b8ff" stroke="#63b8ff" points="503.5,-13.5 513.5,-10 503.5,-6.5 503.5,-13.5"/>
</a>
</g>
</g>
<!-- Node3 -->
<g id="Node000003" class="node">
<title>Node3</title>
<g id="a_Node000003"><a xlink:href="classNetworkClient.html#a9202769a61813d85199c6249ac416705" target="_top" xlink:title=" ">
<polygon fill="white" stroke="#666666" points="294.5,-20 154.75,-20 154.75,0 294.5,0 294.5,-20"/>
<text text-anchor="middle" x="224.62" y="-6.5" font-family="Helvetica,sans-Serif" font-size="10.00">NetworkClient::startReceive</text>
</a>
</g>
</g>
<!-- Node2&#45;&gt;Node3 -->
<g id="edge2_Node000002_Node000003" class="edge">
<title>Node2&#45;&gt;Node3</title>
<g id="a_edge2_Node000002_Node000003"><a xlink:title=" ">
<path fill="none" stroke="#63b8ff" d="M318.77,-3.26C310.73,-3.23 302.65,-3.28 294.78,-3.4"/>
<polygon fill="#63b8ff" stroke="#63b8ff" points="318.55,-6.75 328.57,-3.33 318.6,0.25 318.55,-6.75"/>
</a>
</g>
</g>
<!-- Node3&#45;&gt;Node2 -->
<g id="edge4_Node000003_Node000002" class="edge">
<title>Node3&#45;&gt;Node2</title>
<g id="a_edge4_Node000003_Node000002"><a xlink:title=" ">
<path fill="none" stroke="#63b8ff" d="M306.02,-16.72C314.04,-16.77 322.15,-16.75 330.09,-16.66"/>
<polygon fill="#63b8ff" stroke="#63b8ff" points="306.33,-13.22 296.29,-16.61 306.26,-20.22 306.33,-13.22"/>
</a>
</g>
</g>
<!-- Node4 -->
<g id="Node000004" class="node">
<title>Node4</title>
<g id="a_Node000004"><a xlink:href="classNetworkClient.html#afc8d05d54e88bce60554d9f31e9b0838" target="_top" xlink:title=" ">
<polygon fill="white" stroke="#666666" points="118.75,-20 0,-20 0,0 118.75,0 118.75,-20"/>
<text text-anchor="middle" x="59.38" y="-6.5" font-family="Helvetica,sans-Serif" font-size="10.00">NetworkClient::connect</text>
</a>
</g>
</g>
<!-- Node3&#45;&gt;Node4 -->
<g id="edge3_Node000003_Node000004" class="edge">
<title>Node3&#45;&gt;Node4</title>
<g id="a_edge3_Node000003_Node000004"><a xlink:title=" ">
<path fill="none" stroke="#63b8ff" d="M143.04,-10C134.99,-10 126.92,-10 119.15,-10"/>
<polygon fill="#63b8ff" stroke="#63b8ff" points="142.88,-13.5 152.88,-10 142.88,-6.5 142.88,-13.5"/>
</a>
</g>
</g>
</g>
</svg>
