<?xml version="1.0" encoding="UTF-8" standalone="no"?>
<!DOCTYPE svg PUBLIC "-//W3C//DTD SVG 1.1//EN"
 "http://www.w3.org/Graphics/SVG/1.1/DTD/svg11.dtd">
<!-- Generated by graphviz version 12.1.0 (20240811.2233)
 -->
<!-- Title: Button::isClicked Pages: 1 -->
<svg width="557pt" height="78pt"
 viewBox="0.00 0.00 556.50 78.00" xmlns="http://www.w3.org/2000/svg" xmlns:xlink="http://www.w3.org/1999/xlink">
<g id="graph0" class="graph" transform="scale(1 1) rotate(0) translate(4 74)">
<title>Button::isClicked</title>
<!-- Node1 -->
<g id="Node000001" class="node">
<title>Node1</title>
<g id="a_Node000001"><a xlink:title=" ">
<polygon fill="#999999" stroke="#666666" points="548.5,-42 457.5,-42 457.5,-22 548.5,-22 548.5,-42"/>
<text text-anchor="middle" x="503" y="-28.5" font-family="Helvetica,sans-Serif" font-size="10.00">Button::isClicked</text>
</a>
</g>
</g>
<!-- Node2 -->
<g id="Node000002" class="node">
<title>Node2</title>
<g id="a_Node000002"><a xlink:href="classGameManager.html#aeed1dd73db1c39b2e39d30d9d37c1f6c" target="_top" xlink:title=" ">
<polygon fill="white" stroke="#666666" points="409.5,-70 266,-70 266,-38 409.5,-38 409.5,-70"/>
<text text-anchor="start" x="274" y="-56.5" font-family="Helvetica,sans-Serif" font-size="10.00">GameManager::handleMouse</text>
<text text-anchor="middle" x="337.75" y="-44.5" font-family="Helvetica,sans-Serif" font-size="10.00">Click</text>
</a>
</g>
</g>
<!-- Node1&#45;&gt;Node2 -->
<g id="edge1_Node000001_Node000002" class="edge">
<title>Node1&#45;&gt;Node2</title>
<g id="a_edge1_Node000001_Node000002"><a xlink:title=" ">
<path fill="none" stroke="#63b8ff" d="M446,-39.55C434.32,-41.12 421.85,-42.8 409.7,-44.44"/>
<polygon fill="#63b8ff" stroke="#63b8ff" points="446.45,-43.02 455.89,-38.21 445.51,-36.08 446.45,-43.02"/>
</a>
</g>
</g>
<!-- Node5 -->
<g id="Node000005" class="node">
<title>Node5</title>
<g id="a_Node000005"><a xlink:href="classGameManager.html#a5b552a66a8a65fe45e825cf49a736ab8" target="_top" xlink:title=" ">
<polygon fill="white" stroke="#666666" points="421.5,-20 254,-20 254,0 421.5,0 421.5,-20"/>
<text text-anchor="middle" x="337.75" y="-6.5" font-family="Helvetica,sans-Serif" font-size="10.00">GameManager::handleMouseMove</text>
</a>
</g>
</g>
<!-- Node1&#45;&gt;Node5 -->
<g id="edge4_Node000001_Node000005" class="edge">
<title>Node1&#45;&gt;Node5</title>
<g id="a_edge4_Node000001_Node000005"><a xlink:title=" ">
<path fill="none" stroke="#63b8ff" d="M446.08,-24.46C436.57,-23.18 426.54,-21.83 416.58,-20.49"/>
<polygon fill="#63b8ff" stroke="#63b8ff" points="445.51,-27.92 455.89,-25.79 446.45,-20.98 445.51,-27.92"/>
</a>
</g>
</g>
<!-- Node3 -->
<g id="Node000003" class="node">
<title>Node3</title>
<g id="a_Node000003"><a xlink:href="classGameManager.html#a6cea7fca5fecdd4f8a32912d4bfc233f" target="_top" xlink:title=" ">
<polygon fill="white" stroke="#666666" points="218,-42 73,-42 73,-22 218,-22 218,-42"/>
<text text-anchor="middle" x="145.5" y="-28.5" font-family="Helvetica,sans-Serif" font-size="10.00">GameManager::handleEvents</text>
</a>
</g>
</g>
<!-- Node2&#45;&gt;Node3 -->
<g id="edge2_Node000002_Node000003" class="edge">
<title>Node2&#45;&gt;Node3</title>
<g id="a_edge2_Node000002_Node000003"><a xlink:title=" ">
<path fill="none" stroke="#63b8ff" d="M254.31,-44.47C242.38,-43.09 230.18,-41.68 218.48,-40.32"/>
<polygon fill="#63b8ff" stroke="#63b8ff" points="253.8,-47.93 264.13,-45.6 254.6,-40.98 253.8,-47.93"/>
</a>
</g>
</g>
<!-- Node4 -->
<g id="Node000004" class="node">
<title>Node4</title>
<g id="a_Node000004"><a xlink:href="Client_2src_2main_8cpp.html#ae66f6b31b5ad750f1fe042a706a4e3d4" target="_top" xlink:title=" ">
<polygon fill="white" stroke="#666666" points="37,-42 0,-42 0,-22 37,-22 37,-42"/>
<text text-anchor="middle" x="18.5" y="-28.5" font-family="Helvetica,sans-Serif" font-size="10.00">main</text>
</a>
</g>
</g>
<!-- Node3&#45;&gt;Node4 -->
<g id="edge3_Node000003_Node000004" class="edge">
<title>Node3&#45;&gt;Node4</title>
<g id="a_edge3_Node000003_Node000004"><a xlink:title=" ">
<path fill="none" stroke="#63b8ff" d="M61.12,-32C52.34,-32 44.18,-32 37.46,-32"/>
<polygon fill="#63b8ff" stroke="#63b8ff" points="61,-35.5 71,-32 61,-28.5 61,-35.5"/>
</a>
</g>
</g>
<!-- Node5&#45;&gt;Node3 -->
<g id="edge5_Node000005_Node000003" class="edge">
<title>Node5&#45;&gt;Node3</title>
<g id="a_edge5_Node000005_Node000003"><a xlink:title=" ">
<path fill="none" stroke="#63b8ff" d="M242.29,-20.92C234.28,-21.85 226.27,-22.78 218.47,-23.68"/>
<polygon fill="#63b8ff" stroke="#63b8ff" points="242.55,-24.42 252.08,-19.79 241.74,-17.46 242.55,-24.42"/>
</a>
</g>
</g>
</g>
</svg>
