<?xml version="1.0" encoding="UTF-8" standalone="no"?>
<!DOCTYPE svg PUBLIC "-//W3C//DTD SVG 1.1//EN"
 "http://www.w3.org/Graphics/SVG/1.1/DTD/svg11.dtd">
<!-- Generated by graphviz version 12.1.0 (20240811.2233)
 -->
<!-- Title: ParticleSystem::render Pages: 1 -->
<svg width="485pt" height="40pt"
 viewBox="0.00 0.00 485.00 40.00" xmlns="http://www.w3.org/2000/svg" xmlns:xlink="http://www.w3.org/1999/xlink">
<g id="graph0" class="graph" transform="scale(1 1) rotate(0) translate(4 36)">
<title>ParticleSystem::render</title>
<!-- Node1 -->
<g id="Node000001" class="node">
<title>Node1</title>
<g id="a_Node000001"><a xlink:title=" ">
<polygon fill="#999999" stroke="#666666" points="115.75,-26 0,-26 0,-6 115.75,-6 115.75,-26"/>
<text text-anchor="middle" x="57.88" y="-12.5" font-family="Helvetica,sans-Serif" font-size="10.00">ParticleSystem::render</text>
</a>
</g>
</g>
<!-- Node2 -->
<g id="Node000002" class="node">
<title>Node2</title>
<g id="a_Node000002"><a xlink:href="classParticleSystem.html#abdef4bdd9875aef1b3224cfd3919111c" target="_top" xlink:title=" ">
<polygon fill="white" stroke="#666666" points="300.5,-26 151.75,-26 151.75,-6 300.5,-6 300.5,-26"/>
<text text-anchor="middle" x="226.12" y="-12.5" font-family="Helvetica,sans-Serif" font-size="10.00">ParticleSystem::renderParticle</text>
</a>
</g>
</g>
<!-- Node1&#45;&gt;Node2 -->
<g id="edge1_Node000001_Node000002" class="edge">
<title>Node1&#45;&gt;Node2</title>
<g id="a_edge1_Node000001_Node000002"><a xlink:title=" ">
<path fill="none" stroke="#63b8ff" d="M116.09,-16C123.81,-16 131.87,-16 139.95,-16"/>
<polygon fill="#63b8ff" stroke="#63b8ff" points="139.85,-19.5 149.85,-16 139.85,-12.5 139.85,-19.5"/>
</a>
</g>
</g>
<!-- Node3 -->
<g id="Node000003" class="node">
<title>Node3</title>
<g id="a_Node000003"><a xlink:href="classParameters.html#a11623d0313272ad8e9841469facbaa7a" target="_top" xlink:title=" ">
<polygon fill="white" stroke="#666666" points="477,-32 336.5,-32 336.5,0 477,0 477,-32"/>
<text text-anchor="start" x="344.5" y="-18.5" font-family="Helvetica,sans-Serif" font-size="10.00">Parameters::applyColorBlind</text>
<text text-anchor="middle" x="406.75" y="-6.5" font-family="Helvetica,sans-Serif" font-size="10.00">Filter</text>
</a>
</g>
</g>
<!-- Node2&#45;&gt;Node3 -->
<g id="edge2_Node000002_Node000003" class="edge">
<title>Node2&#45;&gt;Node3</title>
<g id="a_edge2_Node000002_Node000003"><a xlink:title=" ">
<path fill="none" stroke="#63b8ff" d="M300.81,-16C308.78,-16 316.92,-16 324.97,-16"/>
<polygon fill="#63b8ff" stroke="#63b8ff" points="324.74,-19.5 334.74,-16 324.74,-12.5 324.74,-19.5"/>
</a>
</g>
</g>
</g>
</svg>
