<?xml version="1.0" encoding="UTF-8" standalone="no"?>
<!DOCTYPE svg PUBLIC "-//W3C//DTD SVG 1.1//EN"
 "http://www.w3.org/Graphics/SVG/1.1/DTD/svg11.dtd">
<!-- Generated by graphviz version 12.1.0 (20240811.2233)
 -->
<!-- Title: Engine::Systems::RenderSystem Pages: 1 -->
<svg width="164pt" height="164pt"
 viewBox="0.00 0.00 164.00 164.00" xmlns="http://www.w3.org/2000/svg" xmlns:xlink="http://www.w3.org/1999/xlink">
<g id="graph0" class="graph" transform="scale(1 1) rotate(0) translate(4 160)">
<title>Engine::Systems::RenderSystem</title>
<!-- Node1 -->
<g id="Node000001" class="node">
<title>Node1</title>
<g id="a_Node000001"><a xlink:title=" ">
<polygon fill="#999999" stroke="none" points="156,-68 0,-68 0,0 156,0 156,-68"/>
<text text-anchor="start" x="4.88" y="-54.5" font-family="Helvetica,sans-Serif" font-size="10.00">Engine::Systems::RenderSystem</text>
<text text-anchor="start" x="28" y="-38.5" font-family="Helvetica,sans-Serif" font-size="10.00">&#45;</text>
<text text-anchor="start" x="59" y="-38.5" font-family="Helvetica,sans-Serif" font-size="10.00">sprites</text>
<text text-anchor="start" x="26.5" y="-22.5" font-family="Helvetica,sans-Serif" font-size="10.00">+</text>
<text text-anchor="start" x="59" y="-22.5" font-family="Helvetica,sans-Serif" font-size="10.00">addSprite()</text>
<text text-anchor="start" x="26.5" y="-6.5" font-family="Helvetica,sans-Serif" font-size="10.00">+</text>
<text text-anchor="start" x="59" y="-6.5" font-family="Helvetica,sans-Serif" font-size="10.00">update()</text>
<polygon fill="#666666" stroke="#666666" points="0,-50 0,-50 156,-50 156,-50 0,-50"/>
<polygon fill="#666666" stroke="#666666" points="0,-34 0,-34 57,-34 57,-34 0,-34"/>
<polygon fill="#666666" stroke="#666666" points="57,-34 57,-34 156,-34 156,-34 57,-34"/>
<polygon fill="none" stroke="#666666" points="0,0 0,-68 156,-68 156,0 0,0"/>
</a>
</g>
</g>
<!-- Node2 -->
<g id="Node000002" class="node">
<title>Node2</title>
<g id="a_Node000002"><a xlink:href="classEngine_1_1System.html" target="_top" xlink:title=" ">
<polygon fill="white" stroke="none" points="117.5,-156 38.5,-156 38.5,-104 117.5,-104 117.5,-156"/>
<text text-anchor="start" x="43.12" y="-142.5" font-family="Helvetica,sans-Serif" font-size="10.00">Engine::System</text>
<text text-anchor="start" x="50" y="-126.5" font-family="Helvetica,sans-Serif" font-size="10.00">+</text>
<text text-anchor="start" x="67.5" y="-126.5" font-family="Helvetica,sans-Serif" font-size="10.00">entities</text>
<text text-anchor="start" x="76.5" y="-110.5" font-family="Helvetica,sans-Serif" font-size="10.00"> </text>
<polygon fill="#666666" stroke="#666666" points="38.5,-138 38.5,-138 117.5,-138 117.5,-138 38.5,-138"/>
<polygon fill="#666666" stroke="#666666" points="38.5,-122 38.5,-122 65.5,-122 65.5,-122 38.5,-122"/>
<polygon fill="#666666" stroke="#666666" points="65.5,-122 65.5,-122 117.5,-122 117.5,-122 65.5,-122"/>
<polygon fill="none" stroke="#666666" points="38.5,-104 38.5,-156 117.5,-156 117.5,-104 38.5,-104"/>
</a>
</g>
</g>
<!-- Node2&#45;&gt;Node1 -->
<g id="edge1_Node000001_Node000002" class="edge">
<title>Node2&#45;&gt;Node1</title>
<g id="a_edge1_Node000001_Node000002"><a xlink:title=" ">
<path fill="none" stroke="#63b8ff" d="M78,-92.97C78,-84.65 78,-75.84 78,-67.67"/>
<polygon fill="none" stroke="#63b8ff" points="74.5,-92.79 78,-102.79 81.5,-92.79 74.5,-92.79"/>
</a>
</g>
</g>
</g>
</svg>
