<?xml version="1.0" encoding="UTF-8" standalone="no"?>
<!DOCTYPE svg PUBLIC "-//W3C//DTD SVG 1.1//EN"
 "http://www.w3.org/Graphics/SVG/1.1/DTD/svg11.dtd">
<!-- Generated by graphviz version 12.1.0 (20240811.2233)
 -->
<!-- Title: NetworkClient::leaveRoom Pages: 1 -->
<svg width="314pt" height="78pt"
 viewBox="0.00 0.00 313.75 78.00" xmlns="http://www.w3.org/2000/svg" xmlns:xlink="http://www.w3.org/1999/xlink">
<g id="graph0" class="graph" transform="scale(1 1) rotate(0) translate(4 74)">
<title>NetworkClient::leaveRoom</title>
<!-- Node1 -->
<g id="Node000001" class="node">
<title>Node1</title>
<g id="a_Node000001"><a xlink:title=" ">
<polygon fill="#999999" stroke="#666666" points="133.75,-48 0,-48 0,-28 133.75,-28 133.75,-48"/>
<text text-anchor="middle" x="66.88" y="-34.5" font-family="Helvetica,sans-Serif" font-size="10.00">NetworkClient::leaveRoom</text>
</a>
</g>
</g>
<!-- Node2 -->
<g id="Node000002" class="node">
<title>Node2</title>
<g id="a_Node000002"><a xlink:href="classNetworkClient.html#ad307cf1f5e6ff844ef8c1e106df510f5" target="_top" xlink:title=" ">
<polygon fill="white" stroke="#666666" points="305.75,-70 169.75,-70 169.75,-50 305.75,-50 305.75,-70"/>
<text text-anchor="middle" x="237.75" y="-56.5" font-family="Helvetica,sans-Serif" font-size="10.00">NetworkClient::sendPacket</text>
</a>
</g>
</g>
<!-- Node1&#45;&gt;Node2 -->
<g id="edge1_Node000001_Node000002" class="edge">
<title>Node1&#45;&gt;Node2</title>
<g id="a_edge1_Node000001_Node000002"><a xlink:title=" ">
<path fill="none" stroke="#63b8ff" d="M134.13,-46.63C141.98,-47.65 150.06,-48.71 158.06,-49.75"/>
<polygon fill="#63b8ff" stroke="#63b8ff" points="157.42,-53.2 167.79,-51.02 158.33,-46.25 157.42,-53.2"/>
</a>
</g>
</g>
<!-- Node3 -->
<g id="Node000003" class="node">
<title>Node3</title>
<g id="a_Node000003"><a xlink:href="classRtypeServer_1_1Protocol.html#ad918184440d6fcb33f231a7173a67399" target="_top" xlink:title=" ">
<polygon fill="white" stroke="#666666" points="294.12,-32 181.38,-32 181.38,0 294.12,0 294.12,-32"/>
<text text-anchor="start" x="189.38" y="-18.5" font-family="Helvetica,sans-Serif" font-size="10.00">RtypeServer::Protocol</text>
<text text-anchor="middle" x="237.75" y="-6.5" font-family="Helvetica,sans-Serif" font-size="10.00">::writeHeader</text>
</a>
</g>
</g>
<!-- Node1&#45;&gt;Node3 -->
<g id="edge2_Node000001_Node000003" class="edge">
<title>Node1&#45;&gt;Node3</title>
<g id="a_edge2_Node000001_Node000003"><a xlink:title=" ">
<path fill="none" stroke="#63b8ff" d="M134.13,-29.37C145.9,-27.84 158.16,-26.24 169.94,-24.7"/>
<polygon fill="#63b8ff" stroke="#63b8ff" points="170.09,-28.21 179.55,-23.45 169.18,-21.27 170.09,-28.21"/>
</a>
</g>
</g>
</g>
</svg>
