<?xml version="1.0" encoding="UTF-8" standalone="no"?>
<!DOCTYPE svg PUBLIC "-//W3C//DTD SVG 1.1//EN"
 "http://www.w3.org/Graphics/SVG/1.1/DTD/svg11.dtd">
<!-- Generated by graphviz version 12.1.0 (20240811.2233)
 -->
<!-- Title: NetworkClient Pages: 1 -->
<svg width="115pt" height="720pt"
 viewBox="0.00 0.00 115.00 720.00" xmlns="http://www.w3.org/2000/svg" xmlns:xlink="http://www.w3.org/1999/xlink">
<g id="graph0" class="graph" transform="scale(1 1) rotate(0) translate(4 716)">
<title>NetworkClient</title>
<!-- Node1 -->
<g id="Node000001" class="node">
<title>Node1</title>
<g id="a_Node000001"><a xlink:title=" ">
<polygon fill="#999999" stroke="none" points="102,-452 4,-452 4,0 102,0 102,-452"/>
<text text-anchor="start" x="21.88" y="-438.5" font-family="Helvetica,sans-Serif" font-size="10.00">NetworkClient</text>
<text text-anchor="start" x="9.5" y="-422.5" font-family="Helvetica,sans-Serif" font-size="10.00">&#45;</text>
<text text-anchor="start" x="18" y="-422.5" font-family="Helvetica,sans-Serif" font-size="10.00">m_io</text>
<text text-anchor="start" x="9.5" y="-406.5" font-family="Helvetica,sans-Serif" font-size="10.00">&#45;</text>
<text text-anchor="start" x="18" y="-406.5" font-family="Helvetica,sans-Serif" font-size="10.00">m_socket</text>
<text text-anchor="start" x="9.5" y="-390.5" font-family="Helvetica,sans-Serif" font-size="10.00">&#45;</text>
<text text-anchor="start" x="18" y="-390.5" font-family="Helvetica,sans-Serif" font-size="10.00">m_serverEndpoint</text>
<text text-anchor="start" x="9.5" y="-374.5" font-family="Helvetica,sans-Serif" font-size="10.00">&#45;</text>
<text text-anchor="start" x="18" y="-374.5" font-family="Helvetica,sans-Serif" font-size="10.00">m_rxBuffer</text>
<text text-anchor="start" x="9.5" y="-358.5" font-family="Helvetica,sans-Serif" font-size="10.00">&#45;</text>
<text text-anchor="start" x="18" y="-358.5" font-family="Helvetica,sans-Serif" font-size="10.00">m_connected</text>
<text text-anchor="start" x="9.5" y="-342.5" font-family="Helvetica,sans-Serif" font-size="10.00">&#45;</text>
<text text-anchor="start" x="18" y="-342.5" font-family="Helvetica,sans-Serif" font-size="10.00">m_running</text>
<text text-anchor="start" x="9.5" y="-326.5" font-family="Helvetica,sans-Serif" font-size="10.00">&#45;</text>
<text text-anchor="start" x="18" y="-326.5" font-family="Helvetica,sans-Serif" font-size="10.00">m_networkThread</text>
<text text-anchor="start" x="9.5" y="-310.5" font-family="Helvetica,sans-Serif" font-size="10.00">&#45;</text>
<text text-anchor="start" x="18" y="-310.5" font-family="Helvetica,sans-Serif" font-size="10.00">m_playerId</text>
<text text-anchor="start" x="9.5" y="-294.5" font-family="Helvetica,sans-Serif" font-size="10.00">&#45;</text>
<text text-anchor="start" x="18" y="-294.5" font-family="Helvetica,sans-Serif" font-size="10.00">m_playerName</text>
<text text-anchor="start" x="9.5" y="-278.5" font-family="Helvetica,sans-Serif" font-size="10.00">&#45;</text>
<text text-anchor="start" x="18" y="-278.5" font-family="Helvetica,sans-Serif" font-size="10.00">m_onConnected</text>
<text text-anchor="start" x="18" y="-262.5" font-family="Helvetica,sans-Serif" font-size="10.00">and 6 more...</text>
<text text-anchor="start" x="8" y="-246.5" font-family="Helvetica,sans-Serif" font-size="10.00">+</text>
<text text-anchor="start" x="18" y="-246.5" font-family="Helvetica,sans-Serif" font-size="10.00">NetworkClient()</text>
<text text-anchor="start" x="8" y="-230.5" font-family="Helvetica,sans-Serif" font-size="10.00">+</text>
<text text-anchor="start" x="18" y="-230.5" font-family="Helvetica,sans-Serif" font-size="10.00">~NetworkClient()</text>
<text text-anchor="start" x="8" y="-214.5" font-family="Helvetica,sans-Serif" font-size="10.00">+</text>
<text text-anchor="start" x="18" y="-214.5" font-family="Helvetica,sans-Serif" font-size="10.00">connect()</text>
<text text-anchor="start" x="8" y="-198.5" font-family="Helvetica,sans-Serif" font-size="10.00">+</text>
<text text-anchor="start" x="18" y="-198.5" font-family="Helvetica,sans-Serif" font-size="10.00">disconnect()</text>
<text text-anchor="start" x="8" y="-182.5" font-family="Helvetica,sans-Serif" font-size="10.00">+</text>
<text text-anchor="start" x="18" y="-182.5" font-family="Helvetica,sans-Serif" font-size="10.00">isConnected()</text>
<text text-anchor="start" x="8" y="-166.5" font-family="Helvetica,sans-Serif" font-size="10.00">+</text>
<text text-anchor="start" x="18" y="-166.5" font-family="Helvetica,sans-Serif" font-size="10.00">createRoom()</text>
<text text-anchor="start" x="8" y="-150.5" font-family="Helvetica,sans-Serif" font-size="10.00">+</text>
<text text-anchor="start" x="18" y="-150.5" font-family="Helvetica,sans-Serif" font-size="10.00">joinRoom()</text>
<text text-anchor="start" x="8" y="-134.5" font-family="Helvetica,sans-Serif" font-size="10.00">+</text>
<text text-anchor="start" x="18" y="-134.5" font-family="Helvetica,sans-Serif" font-size="10.00">leaveRoom()</text>
<text text-anchor="start" x="8" y="-118.5" font-family="Helvetica,sans-Serif" font-size="10.00">+</text>
<text text-anchor="start" x="18" y="-118.5" font-family="Helvetica,sans-Serif" font-size="10.00">listRooms()</text>
<text text-anchor="start" x="8" y="-102.5" font-family="Helvetica,sans-Serif" font-size="10.00">+</text>
<text text-anchor="start" x="18" y="-102.5" font-family="Helvetica,sans-Serif" font-size="10.00">sendMessage()</text>
<text text-anchor="start" x="18" y="-86.5" font-family="Helvetica,sans-Serif" font-size="10.00">and 9 more...</text>
<text text-anchor="start" x="9.5" y="-70.5" font-family="Helvetica,sans-Serif" font-size="10.00">&#45;</text>
<text text-anchor="start" x="18" y="-70.5" font-family="Helvetica,sans-Serif" font-size="10.00">networkThread()</text>
<text text-anchor="start" x="9.5" y="-54.5" font-family="Helvetica,sans-Serif" font-size="10.00">&#45;</text>
<text text-anchor="start" x="18" y="-54.5" font-family="Helvetica,sans-Serif" font-size="10.00">startReceive()</text>
<text text-anchor="start" x="9.5" y="-38.5" font-family="Helvetica,sans-Serif" font-size="10.00">&#45;</text>
<text text-anchor="start" x="18" y="-38.5" font-family="Helvetica,sans-Serif" font-size="10.00">handleReceive()</text>
<text text-anchor="start" x="9.5" y="-22.5" font-family="Helvetica,sans-Serif" font-size="10.00">&#45;</text>
<text text-anchor="start" x="18" y="-22.5" font-family="Helvetica,sans-Serif" font-size="10.00">sendPacket()</text>
<text text-anchor="start" x="9.5" y="-6.5" font-family="Helvetica,sans-Serif" font-size="10.00">&#45;</text>
<text text-anchor="start" x="18" y="-6.5" font-family="Helvetica,sans-Serif" font-size="10.00">processMessage()</text>
<polygon fill="#666666" stroke="#666666" points="4,-434 4,-434 102,-434 102,-434 4,-434"/>
<polygon fill="#666666" stroke="#666666" points="4,-258 4,-258 16,-258 16,-258 4,-258"/>
<polygon fill="#666666" stroke="#666666" points="16,-258 16,-258 102,-258 102,-258 16,-258"/>
<polygon fill="none" stroke="#666666" points="4,0 4,-452 102,-452 102,0 4,0"/>
</a>
</g>
</g>
<!-- Node2 -->
<g id="Node000002" class="node">
<title>Node2</title>
<g id="a_Node000002"><a xlink:href="classRtypeServer_1_1Protocol.html" target="_top" xlink:title=" ">
<polygon fill="white" stroke="none" points="106,-712 0,-712 0,-500 106,-500 106,-712"/>
<text text-anchor="start" x="4.62" y="-698.5" font-family="Helvetica,sans-Serif" font-size="10.00">RtypeServer::Protocol</text>
<text text-anchor="start" x="51.5" y="-682.5" font-family="Helvetica,sans-Serif" font-size="10.00"> </text>
<text text-anchor="start" x="8.5" y="-666.5" font-family="Helvetica,sans-Serif" font-size="10.00">+</text>
<text text-anchor="start" x="23" y="-666.5" font-family="Helvetica,sans-Serif" font-size="10.00">Protocol()</text>
<text text-anchor="start" x="8.5" y="-650.5" font-family="Helvetica,sans-Serif" font-size="10.00">+</text>
<text text-anchor="start" x="23" y="-650.5" font-family="Helvetica,sans-Serif" font-size="10.00">~Protocol()</text>
<text text-anchor="start" x="8.5" y="-634.5" font-family="Helvetica,sans-Serif" font-size="10.00">+</text>
<text text-anchor="start" x="23" y="-634.5" font-family="Helvetica,sans-Serif" font-size="10.00">writeHeader()</text>
<text text-anchor="start" x="8.5" y="-618.5" font-family="Helvetica,sans-Serif" font-size="10.00">+</text>
<text text-anchor="start" x="23" y="-618.5" font-family="Helvetica,sans-Serif" font-size="10.00">readHeader()</text>
<text text-anchor="start" x="8.5" y="-602.5" font-family="Helvetica,sans-Serif" font-size="10.00">+</text>
<text text-anchor="start" x="23" y="-602.5" font-family="Helvetica,sans-Serif" font-size="10.00">append_u8()</text>
<text text-anchor="start" x="8.5" y="-586.5" font-family="Helvetica,sans-Serif" font-size="10.00">+</text>
<text text-anchor="start" x="23" y="-586.5" font-family="Helvetica,sans-Serif" font-size="10.00">append_u16be()</text>
<text text-anchor="start" x="8.5" y="-570.5" font-family="Helvetica,sans-Serif" font-size="10.00">+</text>
<text text-anchor="start" x="23" y="-570.5" font-family="Helvetica,sans-Serif" font-size="10.00">append_u32be()</text>
<text text-anchor="start" x="8.5" y="-554.5" font-family="Helvetica,sans-Serif" font-size="10.00">+</text>
<text text-anchor="start" x="23" y="-554.5" font-family="Helvetica,sans-Serif" font-size="10.00">append_i16be()</text>
<text text-anchor="start" x="8.5" y="-538.5" font-family="Helvetica,sans-Serif" font-size="10.00">+</text>
<text text-anchor="start" x="23" y="-538.5" font-family="Helvetica,sans-Serif" font-size="10.00">read_u8()</text>
<text text-anchor="start" x="8.5" y="-522.5" font-family="Helvetica,sans-Serif" font-size="10.00">+</text>
<text text-anchor="start" x="23" y="-522.5" font-family="Helvetica,sans-Serif" font-size="10.00">read_u16be()</text>
<text text-anchor="start" x="23" y="-506.5" font-family="Helvetica,sans-Serif" font-size="10.00">and 62 more...</text>
<polygon fill="#666666" stroke="#666666" points="0,-694 0,-694 106,-694 106,-694 0,-694"/>
<polygon fill="#666666" stroke="#666666" points="0,-678 0,-678 106,-678 106,-678 0,-678"/>
<polygon fill="none" stroke="#666666" points="0,-500 0,-712 106,-712 106,-500 0,-500"/>
</a>
</g>
</g>
<!-- Node2&#45;&gt;Node1 -->
<g id="edge1_Node000001_Node000002" class="edge">
<title>Node2&#45;&gt;Node1</title>
<g id="a_edge1_Node000001_Node000002"><a xlink:title=" ">
<path fill="none" stroke="#63b8ff" d="M53,-500.21C53,-488.78 53,-476.83 53,-464.59"/>
<polygon fill="none" stroke="#63b8ff" points="53,-464.63 49,-458.63 53,-452.63 57,-458.63 53,-464.63"/>
</a>
</g>
<text text-anchor="middle" x="80" y="-472.5" font-family="Helvetica,sans-Serif" font-size="10.00" fill="grey"> &#45;m_protocol</text>
</g>
</g>
</svg>
