<?xml version="1.0" encoding="UTF-8" standalone="no"?>
<!DOCTYPE svg PUBLIC "-//W3C//DTD SVG 1.1//EN"
 "http://www.w3.org/Graphics/SVG/1.1/DTD/svg11.dtd">
<!-- Generated by graphviz version 12.1.0 (20240811.2233)
 -->
<!-- Title: GameManager::handleMouseClick Pages: 1 -->
<svg width="983pt" height="808pt"
 viewBox="0.00 0.00 982.75 808.00" xmlns="http://www.w3.org/2000/svg" xmlns:xlink="http://www.w3.org/1999/xlink">
<g id="graph0" class="graph" transform="scale(1 1) rotate(0) translate(4 804)">
<title>GameManager::handleMouseClick</title>
<!-- Node1 -->
<g id="Node000001" class="node">
<title>Node1</title>
<g id="a_Node000001"><a xlink:title=" ">
<polygon fill="#999999" stroke="#666666" points="143.5,-296 0,-296 0,-264 143.5,-264 143.5,-296"/>
<text text-anchor="start" x="8" y="-282.5" font-family="Helvetica,sans-Serif" font-size="10.00">GameManager::handleMouse</text>
<text text-anchor="middle" x="71.75" y="-270.5" font-family="Helvetica,sans-Serif" font-size="10.00">Click</text>
</a>
</g>
</g>
<!-- Node2 -->
<g id="Node000002" class="node">
<title>Node2</title>
<g id="a_Node000002"><a xlink:href="classGameManager.html#a948792a1ef6f0a0c8c21fae779c4b525" target="_top" xlink:title=" ">
<polygon fill="white" stroke="#666666" points="339.12,-602 197.88,-602 197.88,-570 339.12,-570 339.12,-602"/>
<text text-anchor="start" x="205.88" y="-588.5" font-family="Helvetica,sans-Serif" font-size="10.00">GameManager::applyCurrent</text>
<text text-anchor="middle" x="268.5" y="-576.5" font-family="Helvetica,sans-Serif" font-size="10.00">Resolution</text>
</a>
</g>
</g>
<!-- Node1&#45;&gt;Node2 -->
<g id="edge1_Node000001_Node000002" class="edge">
<title>Node1&#45;&gt;Node2</title>
<g id="a_edge1_Node000001_Node000002"><a xlink:title=" ">
<path fill="none" stroke="#63b8ff" d="M76.97,-296.28C88.16,-337.18 121.79,-446.16 179.5,-519 193.39,-536.52 212.84,-551.97 229.93,-563.6"/>
<polygon fill="#63b8ff" stroke="#63b8ff" points="227.59,-566.25 237.87,-568.82 231.44,-560.4 227.59,-566.25"/>
</a>
</g>
</g>
<!-- Node12 -->
<g id="Node000012" class="node">
<title>Node12</title>
<g id="a_Node000012"><a xlink:href="classGameManager.html#aa0ef44b3392b1d25e06302865070d283" target="_top" xlink:title=" ">
<polygon fill="white" stroke="#666666" points="762.62,-484 619.12,-484 619.12,-452 762.62,-452 762.62,-484"/>
<text text-anchor="start" x="627.12" y="-470.5" font-family="Helvetica,sans-Serif" font-size="10.00">GameManager::updateStatus</text>
<text text-anchor="middle" x="690.88" y="-458.5" font-family="Helvetica,sans-Serif" font-size="10.00">TextPosition</text>
</a>
</g>
</g>
<!-- Node1&#45;&gt;Node12 -->
<g id="edge49_Node000001_Node000012" class="edge">
<title>Node1&#45;&gt;Node12</title>
<g id="a_edge49_Node000001_Node000012"><a xlink:title=" ">
<path fill="none" stroke="#63b8ff" d="M84.56,-296.47C102.4,-320.14 138.54,-363.48 179.5,-387 314.62,-464.59 501.3,-474.18 607.4,-472.33"/>
<polygon fill="#63b8ff" stroke="#63b8ff" points="607.23,-475.83 617.15,-472.12 607.08,-468.84 607.23,-475.83"/>
</a>
</g>
</g>
<!-- Node20 -->
<g id="Node000020" class="node">
<title>Node20</title>
<g id="a_Node000020"><a xlink:href="classGameManager.html#accd6989268bea90e6d9ec2800b3b6a8f" target="_top" xlink:title=" ">
<polygon fill="white" stroke="#666666" points="348.12,-378 188.88,-378 188.88,-358 348.12,-358 348.12,-378"/>
<text text-anchor="middle" x="268.5" y="-364.5" font-family="Helvetica,sans-Serif" font-size="10.00">GameManager::connectToServer</text>
</a>
</g>
</g>
<!-- Node1&#45;&gt;Node20 -->
<g id="edge20_Node000001_Node000020" class="edge">
<title>Node1&#45;&gt;Node20</title>
<g id="a_edge20_Node000001_Node000020"><a xlink:title=" ">
<path fill="none" stroke="#63b8ff" d="M96.4,-296.36C117.44,-310.32 149.44,-330.11 179.5,-343 189.58,-347.32 200.62,-351.13 211.37,-354.38"/>
<polygon fill="#63b8ff" stroke="#63b8ff" points="210.38,-357.74 220.96,-357.16 212.33,-351.02 210.38,-357.74"/>
</a>
</g>
</g>
<!-- Node26 -->
<g id="Node000026" class="node">
<title>Node26</title>
<g id="a_Node000026"><a xlink:href="classGameManager.html#ac2ac55880dc9315aa67b2f142647efbb" target="_top" xlink:title=" ">
<polygon fill="white" stroke="#666666" points="357.5,-334 179.5,-334 179.5,-314 357.5,-314 357.5,-334"/>
<text text-anchor="middle" x="268.5" y="-320.5" font-family="Helvetica,sans-Serif" font-size="10.00">GameManager::cycleColorBlindMode</text>
</a>
</g>
</g>
<!-- Node1&#45;&gt;Node26 -->
<g id="edge26_Node000001_Node000026" class="edge">
<title>Node1&#45;&gt;Node26</title>
<g id="a_edge26_Node000001_Node000026"><a xlink:title=" ">
<path fill="none" stroke="#63b8ff" d="M142.19,-296.45C154.61,-299.34 167.43,-302.28 179.5,-305 188.5,-307.02 198.02,-309.13 207.35,-311.16"/>
<polygon fill="#63b8ff" stroke="#63b8ff" points="206.6,-314.58 217.11,-313.28 208.08,-307.74 206.6,-314.58"/>
</a>
</g>
</g>
<!-- Node30 -->
<g id="Node000030" class="node">
<title>Node30</title>
<g id="a_Node000030"><a xlink:href="classGameManager.html#a58db496b49ed75ce83edb44b9581ae64" target="_top" xlink:title=" ">
<polygon fill="white" stroke="#666666" points="351.5,-678 185.5,-678 185.5,-658 351.5,-658 351.5,-678"/>
<text text-anchor="middle" x="268.5" y="-664.5" font-family="Helvetica,sans-Serif" font-size="10.00">GameManager::cycleDisplayMode</text>
</a>
</g>
</g>
<!-- Node1&#45;&gt;Node30 -->
<g id="edge30_Node000001_Node000030" class="edge">
<title>Node1&#45;&gt;Node30</title>
<g id="a_edge30_Node000001_Node000030"><a xlink:title=" ">
<path fill="none" stroke="#63b8ff" d="M74.15,-296.24C79.32,-347.57 101.26,-508.93 179.5,-611 193.2,-628.87 214.21,-642.78 232.27,-652.39"/>
<polygon fill="#63b8ff" stroke="#63b8ff" points="230.62,-655.48 241.13,-656.86 233.78,-649.23 230.62,-655.48"/>
</a>
</g>
</g>
<!-- Node33 -->
<g id="Node000033" class="node">
<title>Node33</title>
<g id="a_Node000033"><a xlink:href="classGameManager.html#a47a393a719eaf10a709a0a0cc28899d7" target="_top" xlink:title=" ">
<polygon fill="white" stroke="#666666" points="342.5,-296 194.5,-296 194.5,-264 342.5,-264 342.5,-296"/>
<text text-anchor="start" x="202.5" y="-282.5" font-family="Helvetica,sans-Serif" font-size="10.00">GameManager::cycleGraphics</text>
<text text-anchor="middle" x="268.5" y="-270.5" font-family="Helvetica,sans-Serif" font-size="10.00">Quality</text>
</a>
</g>
</g>
<!-- Node1&#45;&gt;Node33 -->
<g id="edge34_Node000001_Node000033" class="edge">
<title>Node1&#45;&gt;Node33</title>
<g id="a_edge34_Node000001_Node000033"><a xlink:title=" ">
<path fill="none" stroke="#63b8ff" d="M143.89,-280C156.58,-280 169.91,-280 182.93,-280"/>
<polygon fill="#63b8ff" stroke="#63b8ff" points="182.76,-283.5 192.76,-280 182.76,-276.5 182.76,-283.5"/>
</a>
</g>
</g>
<!-- Node38 -->
<g id="Node000038" class="node">
<title>Node38</title>
<g id="a_Node000038"><a xlink:href="classGameManager.html#aadc216c110deaa25eb19de55f8a1056a" target="_top" xlink:title=" ">
<polygon fill="white" stroke="#666666" points="346.25,-510 190.75,-510 190.75,-490 346.25,-490 346.25,-510"/>
<text text-anchor="middle" x="268.5" y="-496.5" font-family="Helvetica,sans-Serif" font-size="10.00">GameManager::cycleResolution</text>
</a>
</g>
</g>
<!-- Node1&#45;&gt;Node38 -->
<g id="edge39_Node000001_Node000038" class="edge">
<title>Node1&#45;&gt;Node38</title>
<g id="a_edge39_Node000001_Node000038"><a xlink:title=" ">
<path fill="none" stroke="#63b8ff" d="M76.88,-296.28C87.29,-333.95 118.26,-427.57 179.5,-476 183.97,-479.53 188.91,-482.54 194.12,-485.12"/>
<polygon fill="#63b8ff" stroke="#63b8ff" points="192.43,-488.2 203,-488.94 195.19,-481.77 192.43,-488.2"/>
</a>
</g>
</g>
<!-- Node41 -->
<g id="Node000041" class="node">
<title>Node41</title>
<g id="a_Node000041"><a xlink:href="classGameManager.html#abaddb74d389261f0af8dfe96391319b0" target="_top" xlink:title=" ">
<polygon fill="white" stroke="#666666" points="350.75,-246 186.25,-246 186.25,-214 350.75,-214 350.75,-246"/>
<text text-anchor="start" x="194.25" y="-232.5" font-family="Helvetica,sans-Serif" font-size="10.00">GameManager::getWaitingPlayers</text>
<text text-anchor="middle" x="268.5" y="-220.5" font-family="Helvetica,sans-Serif" font-size="10.00">Count</text>
</a>
</g>
</g>
<!-- Node1&#45;&gt;Node41 -->
<g id="edge43_Node000001_Node000041" class="edge">
<title>Node1&#45;&gt;Node41</title>
<g id="a_edge43_Node000001_Node000041"><a xlink:title=" ">
<path fill="none" stroke="#63b8ff" d="M136.79,-263.56C154.59,-258.99 174.08,-253.98 192.46,-249.27"/>
<polygon fill="#63b8ff" stroke="#63b8ff" points="193.14,-252.7 201.96,-246.83 191.4,-245.92 193.14,-252.7"/>
</a>
</g>
</g>
<!-- Node42 -->
<g id="Node000042" class="node">
<title>Node42</title>
<g id="a_Node000042"><a xlink:href="classButton.html#aaeb4f984d04352c089537dc7ca4c9631" target="_top" xlink:title=" ">
<polygon fill="white" stroke="#666666" points="314,-196 223,-196 223,-176 314,-176 314,-196"/>
<text text-anchor="middle" x="268.5" y="-182.5" font-family="Helvetica,sans-Serif" font-size="10.00">Button::isClicked</text>
</a>
</g>
</g>
<!-- Node1&#45;&gt;Node42 -->
<g id="edge44_Node000001_Node000042" class="edge">
<title>Node1&#45;&gt;Node42</title>
<g id="a_edge44_Node000001_Node000042"><a xlink:title=" ">
<path fill="none" stroke="#63b8ff" d="M91.02,-263.67C111.23,-246.48 145.47,-219.89 179.5,-205 189.49,-200.63 200.57,-197.23 211.4,-194.59"/>
<polygon fill="#63b8ff" stroke="#63b8ff" points="212.07,-198.03 221.07,-192.45 210.55,-191.2 212.07,-198.03"/>
</a>
</g>
</g>
<!-- Node43 -->
<g id="Node000043" class="node">
<title>Node43</title>
<g id="a_Node000043"><a xlink:href="classParamButton.html#ad6c1a9d8474f6c27ac61fb6025e221fc" target="_top" xlink:title=" ">
<polygon fill="white" stroke="#666666" points="328.25,-158 208.75,-158 208.75,-138 328.25,-138 328.25,-158"/>
<text text-anchor="middle" x="268.5" y="-144.5" font-family="Helvetica,sans-Serif" font-size="10.00">ParamButton::isClicked</text>
</a>
</g>
</g>
<!-- Node1&#45;&gt;Node43 -->
<g id="edge45_Node000001_Node000043" class="edge">
<title>Node1&#45;&gt;Node43</title>
<g id="a_edge45_Node000001_Node000043"><a xlink:title=" ">
<path fill="none" stroke="#63b8ff" d="M83.34,-263.59C100.41,-238.57 136.48,-191.25 179.5,-167 185.17,-163.8 191.32,-161.15 197.65,-158.93"/>
<polygon fill="#63b8ff" stroke="#63b8ff" points="198.45,-162.35 206.97,-156.06 196.38,-155.66 198.45,-162.35"/>
</a>
</g>
</g>
<!-- Node44 -->
<g id="Node000044" class="node">
<title>Node44</title>
<g id="a_Node000044"><a xlink:href="classUsername.html#aa9e457c265174166f972744f5b6a9e96" target="_top" xlink:title=" ">
<polygon fill="white" stroke="#666666" points="322.25,-120 214.75,-120 214.75,-100 322.25,-100 322.25,-120"/>
<text text-anchor="middle" x="268.5" y="-106.5" font-family="Helvetica,sans-Serif" font-size="10.00">Username::isClicked</text>
</a>
</g>
</g>
<!-- Node1&#45;&gt;Node44 -->
<g id="edge46_Node000001_Node000044" class="edge">
<title>Node1&#45;&gt;Node44</title>
<g id="a_edge46_Node000001_Node000044"><a xlink:title=" ">
<path fill="none" stroke="#63b8ff" d="M79.36,-263.76C93.03,-232.35 127.54,-163.34 179.5,-129 186.83,-124.15 195.19,-120.52 203.78,-117.8"/>
<polygon fill="#63b8ff" stroke="#63b8ff" points="204.51,-121.22 213.24,-115.22 202.67,-114.47 204.51,-121.22"/>
</a>
</g>
</g>
<!-- Node45 -->
<g id="Node000045" class="node">
<title>Node45</title>
<g id="a_Node000045"><a xlink:href="classParamButton.html#a40d938e4e1048b6a85e73926f9eb258e" target="_top" xlink:title=" ">
<polygon fill="white" stroke="#666666" points="335.38,-82 201.62,-82 201.62,-50 335.38,-50 335.38,-82"/>
<text text-anchor="start" x="209.62" y="-68.5" font-family="Helvetica,sans-Serif" font-size="10.00">ParamButton::isVolumeBar</text>
<text text-anchor="middle" x="268.5" y="-56.5" font-family="Helvetica,sans-Serif" font-size="10.00">Clicked</text>
</a>
</g>
</g>
<!-- Node1&#45;&gt;Node45 -->
<g id="edge47_Node000001_Node000045" class="edge">
<title>Node1&#45;&gt;Node45</title>
<g id="a_edge47_Node000001_Node000045"><a xlink:title=" ">
<path fill="none" stroke="#63b8ff" d="M77.34,-263.52C88.43,-226.75 120.27,-137.61 179.5,-91 183.05,-88.21 186.9,-85.73 190.93,-83.52"/>
<polygon fill="#63b8ff" stroke="#63b8ff" points="192.39,-86.7 199.91,-79.25 189.38,-80.38 192.39,-86.7"/>
</a>
</g>
</g>
<!-- Node46 -->
<g id="Node000046" class="node">
<title>Node46</title>
<g id="a_Node000046"><a xlink:href="classParamButton.html#a016f47d14d74feeec0eac5d881c77d60" target="_top" xlink:title=" ">
<polygon fill="white" stroke="#666666" points="342.12,-32 194.88,-32 194.88,0 342.12,0 342.12,-32"/>
<text text-anchor="start" x="202.88" y="-18.5" font-family="Helvetica,sans-Serif" font-size="10.00">ParamButton::setVolumeFrom</text>
<text text-anchor="middle" x="268.5" y="-6.5" font-family="Helvetica,sans-Serif" font-size="10.00">Mouse</text>
</a>
</g>
</g>
<!-- Node1&#45;&gt;Node46 -->
<g id="edge48_Node000001_Node000046" class="edge">
<title>Node1&#45;&gt;Node46</title>
<g id="a_edge48_Node000001_Node000046"><a xlink:title=" ">
<path fill="none" stroke="#63b8ff" d="M75.22,-263.54C82.61,-220.27 108.56,-102.44 179.5,-41 181.21,-39.52 183,-38.12 184.86,-36.81"/>
<polygon fill="#63b8ff" stroke="#63b8ff" points="186.6,-39.85 193.37,-31.7 183,-33.85 186.6,-39.85"/>
</a>
</g>
</g>
<!-- Node3 -->
<g id="Node000003" class="node">
<title>Node3</title>
<g id="a_Node000003"><a xlink:href="classParameters.html#a0cd03e2bf5323f95c2d64ca8472e019b" target="_top" xlink:title=" ">
<polygon fill="white" stroke="#666666" points="568.5,-678 393.5,-678 393.5,-658 568.5,-658 568.5,-678"/>
<text text-anchor="middle" x="481" y="-664.5" font-family="Helvetica,sans-Serif" font-size="10.00">Parameters::getCurrentDisplayMode</text>
</a>
</g>
</g>
<!-- Node2&#45;&gt;Node3 -->
<g id="edge2_Node000002_Node000003" class="edge">
<title>Node2&#45;&gt;Node3</title>
<g id="a_edge2_Node000002_Node000003"><a xlink:title=" ">
<path fill="none" stroke="#63b8ff" d="M296.67,-602.35C321.21,-616.49 358.71,-636.57 393.5,-649 399.29,-651.07 405.39,-652.96 411.54,-654.67"/>
<polygon fill="#63b8ff" stroke="#63b8ff" points="410.63,-658.04 421.19,-657.17 412.39,-651.27 410.63,-658.04"/>
</a>
</g>
</g>
<!-- Node4 -->
<g id="Node000004" class="node">
<title>Node4</title>
<g id="a_Node000004"><a xlink:href="classParameters.html#a679561c2f5dfe92294135e7bcf71f531" target="_top" xlink:title=" ">
<polygon fill="white" stroke="#666666" points="563.25,-551 398.75,-551 398.75,-531 563.25,-531 563.25,-551"/>
<text text-anchor="middle" x="481" y="-537.5" font-family="Helvetica,sans-Serif" font-size="10.00">Parameters::getCurrentResolution</text>
</a>
</g>
</g>
<!-- Node2&#45;&gt;Node4 -->
<g id="edge3_Node000002_Node000004" class="edge">
<title>Node2&#45;&gt;Node4</title>
<g id="a_edge3_Node000002_Node000004"><a xlink:title=" ">
<path fill="none" stroke="#63b8ff" d="M339.59,-571.02C365.63,-565.45 394.9,-559.19 419.95,-553.84"/>
<polygon fill="#63b8ff" stroke="#63b8ff" points="420.62,-557.27 429.66,-551.76 419.15,-550.43 420.62,-557.27"/>
</a>
</g>
</g>
<!-- Node5 -->
<g id="Node000005" class="node">
<title>Node5</title>
<g id="a_Node000005"><a xlink:href="classParameters.html#aed7adcc0e919f1d76e4880fe49f99220" target="_top" xlink:title=" ">
<polygon fill="white" stroke="#666666" points="556.88,-640 405.12,-640 405.12,-620 556.88,-620 556.88,-640"/>
<text text-anchor="middle" x="481" y="-626.5" font-family="Helvetica,sans-Serif" font-size="10.00">Parameters::getResolutionSize</text>
</a>
</g>
</g>
<!-- Node2&#45;&gt;Node5 -->
<g id="edge4_Node000002_Node000005" class="edge">
<title>Node2&#45;&gt;Node5</title>
<g id="a_edge4_Node000002_Node000005"><a xlink:title=" ">
<path fill="none" stroke="#63b8ff" d="M339.59,-600.65C365.21,-606.01 393.97,-612.02 418.75,-617.2"/>
<polygon fill="#63b8ff" stroke="#63b8ff" points="417.85,-620.58 428.36,-619.2 419.28,-613.73 417.85,-620.58"/>
</a>
</g>
</g>
<!-- Node6 -->
<g id="Node000006" class="node">
<title>Node6</title>
<g id="a_Node000006"><a xlink:href="classGameManager.html#a0a220f16a3e2d31baa08c03bec5c88b6" target="_top" xlink:title=" ">
<polygon fill="white" stroke="#666666" points="555.75,-602 406.25,-602 406.25,-570 555.75,-570 555.75,-602"/>
<text text-anchor="start" x="414.25" y="-588.5" font-family="Helvetica,sans-Serif" font-size="10.00">GameManager::handleWindow</text>
<text text-anchor="middle" x="481" y="-576.5" font-family="Helvetica,sans-Serif" font-size="10.00">Resize</text>
</a>
</g>
</g>
<!-- Node2&#45;&gt;Node6 -->
<g id="edge5_Node000002_Node000006" class="edge">
<title>Node2&#45;&gt;Node6</title>
<g id="a_edge5_Node000002_Node000006"><a xlink:title=" ">
<path fill="none" stroke="#63b8ff" d="M339.59,-586C357.22,-586 376.34,-586 394.63,-586"/>
<polygon fill="#63b8ff" stroke="#63b8ff" points="394.37,-589.5 404.37,-586 394.37,-582.5 394.37,-589.5"/>
</a>
</g>
</g>
<!-- Node7 -->
<g id="Node000007" class="node">
<title>Node7</title>
<g id="a_Node000007"><a xlink:href="classParamButton.html#a8d13151ad6cbd6c9e40af00f97782368" target="_top" xlink:title=" ">
<polygon fill="white" stroke="#666666" points="766,-750 615.75,-750 615.75,-730 766,-730 766,-750"/>
<text text-anchor="middle" x="690.88" y="-736.5" font-family="Helvetica,sans-Serif" font-size="10.00">ParamButton::setupVolumeBar</text>
</a>
</g>
</g>
<!-- Node6&#45;&gt;Node7 -->
<g id="edge6_Node000006_Node000007" class="edge">
<title>Node6&#45;&gt;Node7</title>
<g id="a_edge6_Node000006_Node000007"><a xlink:title=" ">
<path fill="none" stroke="#63b8ff" d="M556.05,-601.76C560.55,-604.39 564.76,-607.44 568.5,-611 604.23,-645.02 568.65,-682.11 604.5,-716 607.96,-719.27 611.83,-722.1 615.97,-724.55"/>
<polygon fill="#63b8ff" stroke="#63b8ff" points="614.15,-727.56 624.66,-728.93 617.3,-721.31 614.15,-727.56"/>
</a>
</g>
</g>
<!-- Node8 -->
<g id="Node000008" class="node">
<title>Node8</title>
<g id="a_Node000008"><a xlink:href="classButton.html#ac28684e1eb644f7121492812f5e83471" target="_top" xlink:title=" ">
<polygon fill="white" stroke="#666666" points="969.88,-752 818.12,-752 818.12,-732 969.88,-732 969.88,-752"/>
<text text-anchor="middle" x="894" y="-738.5" font-family="Helvetica,sans-Serif" font-size="10.00">Button::updatePositionAndSize</text>
</a>
</g>
</g>
<!-- Node6&#45;&gt;Node8 -->
<g id="edge7_Node000006_Node000008" class="edge">
<title>Node6&#45;&gt;Node8</title>
<g id="a_edge7_Node000006_Node000008"><a xlink:title=" ">
<path fill="none" stroke="#63b8ff" d="M555.53,-602.35C560.16,-604.83 564.54,-607.7 568.5,-611 596,-633.89 576.11,-661.22 604.5,-683 613.26,-689.72 741.65,-714.25 824.17,-729.49"/>
<polygon fill="#63b8ff" stroke="#63b8ff" points="823.29,-732.88 833.76,-731.25 824.56,-726 823.29,-732.88"/>
</a>
</g>
</g>
<!-- Node9 -->
<g id="Node000009" class="node">
<title>Node9</title>
<g id="a_Node000009"><a xlink:href="classGameManager.html#a8e15c786c5c741751d7abf5433f29d75" target="_top" xlink:title=" ">
<polygon fill="white" stroke="#666666" points="768.62,-674 613.12,-674 613.12,-654 768.62,-654 768.62,-674"/>
<text text-anchor="middle" x="690.88" y="-660.5" font-family="Helvetica,sans-Serif" font-size="10.00">GameManager::updatePositions</text>
</a>
</g>
</g>
<!-- Node6&#45;&gt;Node9 -->
<g id="edge8_Node000006_Node000009" class="edge">
<title>Node6&#45;&gt;Node9</title>
<g id="a_edge8_Node000006_Node000009"><a xlink:title=" ">
<path fill="none" stroke="#63b8ff" d="M550.33,-602.37C556.64,-604.88 562.8,-607.74 568.5,-611 587.61,-621.92 585.06,-634.68 604.5,-645 607.72,-646.71 611.08,-648.26 614.54,-649.68"/>
<polygon fill="#63b8ff" stroke="#63b8ff" points="613.11,-652.88 623.71,-653 615.5,-646.3 613.11,-652.88"/>
</a>
</g>
</g>
<!-- Node6&#45;&gt;Node12 -->
<g id="edge12_Node000006_Node000012" class="edge">
<title>Node6&#45;&gt;Node12</title>
<g id="a_edge12_Node000006_Node000012"><a xlink:title=" ">
<path fill="none" stroke="#63b8ff" d="M553.74,-569.53C559,-566.82 564.01,-563.67 568.5,-560 594.68,-538.62 578.24,-514.29 604.5,-493 605.98,-491.8 607.53,-490.65 609.11,-489.56"/>
<polygon fill="#63b8ff" stroke="#63b8ff" points="610.54,-492.78 617.36,-484.67 606.97,-486.76 610.54,-492.78"/>
</a>
</g>
</g>
<!-- Node13 -->
<g id="Node000013" class="node">
<title>Node13</title>
<g id="a_Node000013"><a xlink:href="classErrorServer.html#a6a35750672d438e868b805841b1d091a" target="_top" xlink:title=" ">
<polygon fill="white" stroke="#666666" points="768.62,-636 613.12,-636 613.12,-616 768.62,-616 768.62,-636"/>
<text text-anchor="middle" x="690.88" y="-622.5" font-family="Helvetica,sans-Serif" font-size="10.00">ErrorServer::updateWindowSize</text>
</a>
</g>
</g>
<!-- Node6&#45;&gt;Node13 -->
<g id="edge13_Node000006_Node000013" class="edge">
<title>Node6&#45;&gt;Node13</title>
<g id="a_edge13_Node000006_Node000013"><a xlink:title=" ">
<path fill="none" stroke="#63b8ff" d="M556.17,-600.27C578.41,-604.55 602.64,-609.21 624.28,-613.38"/>
<polygon fill="#63b8ff" stroke="#63b8ff" points="623.38,-616.77 633.86,-615.22 624.7,-609.89 623.38,-616.77"/>
</a>
</g>
</g>
<!-- Node15 -->
<g id="Node000015" class="node">
<title>Node15</title>
<g id="a_Node000015"><a xlink:href="classLaunch.html#ad8cf1c5a7c0b277a26e9095b6a1c4a38" target="_top" xlink:title=" ">
<polygon fill="white" stroke="#666666" points="759.62,-598 622.12,-598 622.12,-578 759.62,-578 759.62,-598"/>
<text text-anchor="middle" x="690.88" y="-584.5" font-family="Helvetica,sans-Serif" font-size="10.00">Launch::updateWindowSize</text>
</a>
</g>
</g>
<!-- Node6&#45;&gt;Node15 -->
<g id="edge15_Node000006_Node000015" class="edge">
<title>Node6&#45;&gt;Node15</title>
<g id="a_edge15_Node000006_Node000015"><a xlink:title=" ">
<path fill="none" stroke="#63b8ff" d="M556.17,-586.71C573.67,-586.88 592.4,-587.06 610.14,-587.23"/>
<polygon fill="#63b8ff" stroke="#63b8ff" points="610.09,-590.73 620.12,-587.33 610.15,-583.73 610.09,-590.73"/>
</a>
</g>
</g>
<!-- Node17 -->
<g id="Node000017" class="node">
<title>Node17</title>
<g id="a_Node000017"><a xlink:href="classParticleSystem.html#a5cf1945d047b8a5c2f636b5af701cc25" target="_top" xlink:title=" ">
<polygon fill="white" stroke="#666666" points="777.25,-560 604.5,-560 604.5,-540 777.25,-540 777.25,-560"/>
<text text-anchor="middle" x="690.88" y="-546.5" font-family="Helvetica,sans-Serif" font-size="10.00">ParticleSystem::updateWindowSize</text>
</a>
</g>
</g>
<!-- Node6&#45;&gt;Node17 -->
<g id="edge17_Node000006_Node000017" class="edge">
<title>Node6&#45;&gt;Node17</title>
<g id="a_edge17_Node000006_Node000017"><a xlink:title=" ">
<path fill="none" stroke="#63b8ff" d="M556.17,-573.16C576.34,-569.66 598.15,-565.89 618.18,-562.42"/>
<polygon fill="#63b8ff" stroke="#63b8ff" points="618.68,-565.88 627.93,-560.73 617.48,-558.99 618.68,-565.88"/>
</a>
</g>
</g>
<!-- Node18 -->
<g id="Node000018" class="node">
<title>Node18</title>
<g id="a_Node000018"><a xlink:href="classPlayer.html#a20c7958b7c482892f0059848e12f7625" target="_top" xlink:title=" ">
<polygon fill="white" stroke="#666666" points="757.75,-522 624,-522 624,-502 757.75,-502 757.75,-522"/>
<text text-anchor="middle" x="690.88" y="-508.5" font-family="Helvetica,sans-Serif" font-size="10.00">Player::updateWindowSize</text>
</a>
</g>
</g>
<!-- Node6&#45;&gt;Node18 -->
<g id="edge18_Node000006_Node000018" class="edge">
<title>Node6&#45;&gt;Node18</title>
<g id="a_edge18_Node000006_Node000018"><a xlink:title=" ">
<path fill="none" stroke="#63b8ff" d="M546.87,-569.52C554.34,-566.75 561.7,-563.58 568.5,-560 586.68,-550.42 585.99,-539.91 604.5,-531 608.28,-529.18 612.24,-527.53 616.29,-526.04"/>
<polygon fill="#63b8ff" stroke="#63b8ff" points="617.35,-529.38 625.75,-522.92 615.16,-522.73 617.35,-529.38"/>
</a>
</g>
</g>
<!-- Node9&#45;&gt;Node8 -->
<g id="edge9_Node000009_Node000008" class="edge">
<title>Node9&#45;&gt;Node8</title>
<g id="a_edge9_Node000009_Node000008"><a xlink:title=" ">
<path fill="none" stroke="#63b8ff" d="M744.55,-674.38C755.77,-677.79 767.24,-682.24 777.25,-688 796.59,-699.14 793.69,-712.25 813.25,-723 816.27,-724.66 819.43,-726.18 822.68,-727.56"/>
<polygon fill="#63b8ff" stroke="#63b8ff" points="821.29,-730.78 831.89,-731.02 823.76,-724.22 821.29,-730.78"/>
</a>
</g>
</g>
<!-- Node10 -->
<g id="Node000010" class="node">
<title>Node10</title>
<g id="a_Node000010"><a xlink:href="classParamButton.html#a26d084094df8af9988e99861e713f561" target="_top" xlink:title=" ">
<polygon fill="white" stroke="#666666" points="965.75,-664 822.25,-664 822.25,-632 965.75,-632 965.75,-664"/>
<text text-anchor="start" x="830.25" y="-650.5" font-family="Helvetica,sans-Serif" font-size="10.00">ParamButton::updatePosition</text>
<text text-anchor="middle" x="894" y="-638.5" font-family="Helvetica,sans-Serif" font-size="10.00">AndSize</text>
</a>
</g>
</g>
<!-- Node9&#45;&gt;Node10 -->
<g id="edge10_Node000009_Node000010" class="edge">
<title>Node9&#45;&gt;Node10</title>
<g id="a_edge10_Node000009_Node000010"><a xlink:title=" ">
<path fill="none" stroke="#63b8ff" d="M769.06,-657.86C782.65,-656.78 796.84,-655.65 810.56,-654.56"/>
<polygon fill="#63b8ff" stroke="#63b8ff" points="810.76,-658.05 820.45,-653.77 810.2,-651.08 810.76,-658.05"/>
</a>
</g>
</g>
<!-- Node11 -->
<g id="Node000011" class="node">
<title>Node11</title>
<g id="a_Node000011"><a xlink:href="classUsername.html#ab81195cabb31c518dc87c3e18c5991d0" target="_top" xlink:title=" ">
<polygon fill="white" stroke="#666666" points="959.75,-714 828.25,-714 828.25,-682 959.75,-682 959.75,-714"/>
<text text-anchor="start" x="836.25" y="-700.5" font-family="Helvetica,sans-Serif" font-size="10.00">Username::updatePosition</text>
<text text-anchor="middle" x="894" y="-688.5" font-family="Helvetica,sans-Serif" font-size="10.00">AndSize</text>
</a>
</g>
</g>
<!-- Node9&#45;&gt;Node11 -->
<g id="edge11_Node000009_Node000011" class="edge">
<title>Node9&#45;&gt;Node11</title>
<g id="a_edge11_Node000009_Node000011"><a xlink:title=" ">
<path fill="none" stroke="#63b8ff" d="M753.86,-674.48C773.82,-677.85 796.17,-681.63 817.01,-685.15"/>
<polygon fill="#63b8ff" stroke="#63b8ff" points="816.15,-688.56 826.59,-686.77 817.32,-681.66 816.15,-688.56"/>
</a>
</g>
</g>
<!-- Node14 -->
<g id="Node000014" class="node">
<title>Node14</title>
<g id="a_Node000014"><a xlink:href="classErrorServer.html#a404c80b1d4794111a3b3d5a75a67575e" target="_top" xlink:title=" ">
<polygon fill="white" stroke="#666666" points="953.75,-614 834.25,-614 834.25,-594 953.75,-594 953.75,-614"/>
<text text-anchor="middle" x="894" y="-600.5" font-family="Helvetica,sans-Serif" font-size="10.00">ErrorServer::centerLogo</text>
</a>
</g>
</g>
<!-- Node13&#45;&gt;Node14 -->
<g id="edge14_Node000013_Node000014" class="edge">
<title>Node13&#45;&gt;Node14</title>
<g id="a_edge14_Node000013_Node000014"><a xlink:title=" ">
<path fill="none" stroke="#63b8ff" d="M769.06,-617.56C786.69,-615.63 805.33,-613.59 822.66,-611.69"/>
<polygon fill="#63b8ff" stroke="#63b8ff" points="822.76,-615.2 832.32,-610.64 822,-608.25 822.76,-615.2"/>
</a>
</g>
</g>
<!-- Node16 -->
<g id="Node000016" class="node">
<title>Node16</title>
<g id="a_Node000016"><a xlink:href="classLaunch.html#ae9147199644338655660e8f6fd0be189" target="_top" xlink:title=" ">
<polygon fill="white" stroke="#666666" points="944.75,-576 843.25,-576 843.25,-556 944.75,-556 944.75,-576"/>
<text text-anchor="middle" x="894" y="-562.5" font-family="Helvetica,sans-Serif" font-size="10.00">Launch::centerLogo</text>
</a>
</g>
</g>
<!-- Node15&#45;&gt;Node16 -->
<g id="edge16_Node000015_Node000016" class="edge">
<title>Node15&#45;&gt;Node16</title>
<g id="a_edge16_Node000015_Node000016"><a xlink:title=" ">
<path fill="none" stroke="#63b8ff" d="M759.97,-580.55C783.17,-578.01 808.96,-575.19 831.6,-572.72"/>
<polygon fill="#63b8ff" stroke="#63b8ff" points="831.72,-576.22 841.28,-571.66 830.96,-569.27 831.72,-576.22"/>
</a>
</g>
</g>
<!-- Node19 -->
<g id="Node000019" class="node">
<title>Node19</title>
<g id="a_Node000019"><a xlink:href="classPlayer.html#a16e1b8e2e944502ce79e413606c965df" target="_top" xlink:title=" ">
<polygon fill="white" stroke="#666666" points="945.88,-522 842.12,-522 842.12,-502 945.88,-502 945.88,-522"/>
<text text-anchor="middle" x="894" y="-508.5" font-family="Helvetica,sans-Serif" font-size="10.00">Player::centerImage</text>
</a>
</g>
</g>
<!-- Node18&#45;&gt;Node19 -->
<g id="edge19_Node000018_Node000019" class="edge">
<title>Node18&#45;&gt;Node19</title>
<g id="a_edge19_Node000018_Node000019"><a xlink:title=" ">
<path fill="none" stroke="#63b8ff" d="M758.01,-512C781.32,-512 807.44,-512 830.44,-512"/>
<polygon fill="#63b8ff" stroke="#63b8ff" points="830.3,-515.5 840.3,-512 830.3,-508.5 830.3,-515.5"/>
</a>
</g>
</g>
<!-- Node21 -->
<g id="Node000021" class="node">
<title>Node21</title>
<g id="a_Node000021"><a xlink:href="classEngine_1_1Systems_1_1EnemySystem.html#a3f56472b9d1cbd11d38ed305cd839c5a" target="_top" xlink:title=" ">
<polygon fill="white" stroke="#666666" points="561.75,-434 400.25,-434 400.25,-402 561.75,-402 561.75,-434"/>
<text text-anchor="start" x="408.25" y="-420.5" font-family="Helvetica,sans-Serif" font-size="10.00">Engine::Systems::EnemySystem</text>
<text text-anchor="middle" x="481" y="-408.5" font-family="Helvetica,sans-Serif" font-size="10.00">::init</text>
</a>
</g>
</g>
<!-- Node20&#45;&gt;Node21 -->
<g id="edge21_Node000020_Node000021" class="edge">
<title>Node20&#45;&gt;Node21</title>
<g id="a_edge21_Node000020_Node000021"><a xlink:title=" ">
<path fill="none" stroke="#63b8ff" d="M313.63,-378.48C338.54,-384.4 370.43,-391.97 399.62,-398.91"/>
<polygon fill="#63b8ff" stroke="#63b8ff" points="398.65,-402.27 409.18,-401.18 400.26,-395.46 398.65,-402.27"/>
</a>
</g>
</g>
<!-- Node24 -->
<g id="Node000024" class="node">
<title>Node24</title>
<g id="a_Node000024"><a xlink:href="classEngine_1_1Systems_1_1PlayerControl.html#ac934a66a980beab79c733e4f7785a017" target="_top" xlink:title=" ">
<polygon fill="white" stroke="#666666" points="559.12,-384 402.88,-384 402.88,-352 559.12,-352 559.12,-384"/>
<text text-anchor="start" x="410.88" y="-370.5" font-family="Helvetica,sans-Serif" font-size="10.00">Engine::Systems::PlayerControl</text>
<text text-anchor="middle" x="481" y="-358.5" font-family="Helvetica,sans-Serif" font-size="10.00">::init</text>
</a>
</g>
</g>
<!-- Node20&#45;&gt;Node24 -->
<g id="edge24_Node000020_Node000024" class="edge">
<title>Node20&#45;&gt;Node24</title>
<g id="a_edge24_Node000020_Node000024"><a xlink:title=" ">
<path fill="none" stroke="#63b8ff" d="M348.48,-368C362.47,-368 377.13,-368 391.36,-368"/>
<polygon fill="#63b8ff" stroke="#63b8ff" points="391.16,-371.5 401.16,-368 391.16,-364.5 391.16,-371.5"/>
</a>
</g>
</g>
<!-- Node22 -->
<g id="Node000022" class="node">
<title>Node22</title>
<g id="a_Node000022"><a xlink:href="classEngine_1_1Systems_1_1EnemySystem.html#ad40dc42ba3526d22bbc4735fb4ca7dba" target="_top" xlink:title=" ">
<polygon fill="white" stroke="#666666" points="771.62,-384 610.12,-384 610.12,-352 771.62,-352 771.62,-384"/>
<text text-anchor="start" x="618.12" y="-370.5" font-family="Helvetica,sans-Serif" font-size="10.00">Engine::Systems::EnemySystem</text>
<text text-anchor="middle" x="690.88" y="-358.5" font-family="Helvetica,sans-Serif" font-size="10.00">::handleCollision</text>
</a>
</g>
</g>
<!-- Node21&#45;&gt;Node22 -->
<g id="edge22_Node000021_Node000022" class="edge">
<title>Node21&#45;&gt;Node22</title>
<g id="a_edge22_Node000021_Node000022"><a xlink:title=" ">
<path fill="none" stroke="#63b8ff" d="M550.35,-401.56C569.53,-396.95 590.55,-391.89 610.33,-387.13"/>
<polygon fill="#63b8ff" stroke="#63b8ff" points="611.1,-390.55 620.01,-384.8 609.47,-383.74 611.1,-390.55"/>
</a>
</g>
</g>
<!-- Node23 -->
<g id="Node000023" class="node">
<title>Node23</title>
<g id="a_Node000023"><a xlink:href="classEngine_1_1Systems_1_1EnemySystem.html#a60a0336504ab065e4a49cb6e2980770e" target="_top" xlink:title=" ">
<polygon fill="white" stroke="#666666" points="974.75,-384 813.25,-384 813.25,-352 974.75,-352 974.75,-384"/>
<text text-anchor="start" x="821.25" y="-370.5" font-family="Helvetica,sans-Serif" font-size="10.00">Engine::Systems::EnemySystem</text>
<text text-anchor="middle" x="894" y="-358.5" font-family="Helvetica,sans-Serif" font-size="10.00">::damageEnemy</text>
</a>
</g>
</g>
<!-- Node22&#45;&gt;Node23 -->
<g id="edge23_Node000022_Node000023" class="edge">
<title>Node22&#45;&gt;Node23</title>
<g id="a_edge23_Node000022_Node000023"><a xlink:title=" ">
<path fill="none" stroke="#63b8ff" d="M771.94,-368C781.63,-368 791.58,-368 801.41,-368"/>
<polygon fill="#63b8ff" stroke="#63b8ff" points="801.37,-371.5 811.37,-368 801.37,-364.5 801.37,-371.5"/>
</a>
</g>
</g>
<!-- Node25 -->
<g id="Node000025" class="node">
<title>Node25</title>
<g id="a_Node000025"><a xlink:href="classEngine_1_1Systems_1_1PlayerControl.html#acdc125a87269bdcb52dbf899a1657a07" target="_top" xlink:title=" ">
<polygon fill="white" stroke="#666666" points="769,-334 612.75,-334 612.75,-302 769,-302 769,-334"/>
<text text-anchor="start" x="620.75" y="-320.5" font-family="Helvetica,sans-Serif" font-size="10.00">Engine::Systems::PlayerControl</text>
<text text-anchor="middle" x="690.88" y="-308.5" font-family="Helvetica,sans-Serif" font-size="10.00">::inputListener</text>
</a>
</g>
</g>
<!-- Node24&#45;&gt;Node25 -->
<g id="edge25_Node000024_Node000025" class="edge">
<title>Node24&#45;&gt;Node25</title>
<g id="a_edge25_Node000024_Node000025"><a xlink:title=" ">
<path fill="none" stroke="#63b8ff" d="M550.35,-351.56C569.53,-346.95 590.55,-341.89 610.33,-337.13"/>
<polygon fill="#63b8ff" stroke="#63b8ff" points="611.1,-340.55 620.01,-334.8 609.47,-333.74 611.1,-340.55"/>
</a>
</g>
</g>
<!-- Node27 -->
<g id="Node000027" class="node">
<title>Node27</title>
<g id="a_Node000027"><a xlink:href="classParameters.html#ade0e5f42198d5f294949bd87c6eec0fa" target="_top" xlink:title=" ">
<polygon fill="white" stroke="#666666" points="551.62,-334 410.38,-334 410.38,-302 551.62,-302 551.62,-334"/>
<text text-anchor="start" x="418.38" y="-320.5" font-family="Helvetica,sans-Serif" font-size="10.00">Parameters::getCurrentColor</text>
<text text-anchor="middle" x="481" y="-308.5" font-family="Helvetica,sans-Serif" font-size="10.00">BlindMode</text>
</a>
</g>
</g>
<!-- Node26&#45;&gt;Node27 -->
<g id="edge27_Node000026_Node000027" class="edge">
<title>Node26&#45;&gt;Node27</title>
<g id="a_edge27_Node000026_Node000027"><a xlink:title=" ">
<path fill="none" stroke="#63b8ff" d="M357.86,-321.48C371.48,-321.09 385.49,-320.69 398.95,-320.31"/>
<polygon fill="#63b8ff" stroke="#63b8ff" points="398.69,-323.82 408.58,-320.04 398.49,-316.82 398.69,-323.82"/>
</a>
</g>
</g>
<!-- Node28 -->
<g id="Node000028" class="node">
<title>Node28</title>
<g id="a_Node000028"><a xlink:href="classParameters.html#aef99182406aa08d547716d348fab78de" target="_top" xlink:title=" ">
<polygon fill="white" stroke="#666666" points="558.38,-284 403.62,-284 403.62,-264 558.38,-264 558.38,-284"/>
<text text-anchor="middle" x="481" y="-270.5" font-family="Helvetica,sans-Serif" font-size="10.00">Parameters::setColorBlindMode</text>
</a>
</g>
</g>
<!-- Node26&#45;&gt;Node28 -->
<g id="edge28_Node000026_Node000028" class="edge">
<title>Node26&#45;&gt;Node28</title>
<g id="a_edge28_Node000026_Node000028"><a xlink:title=" ">
<path fill="none" stroke="#63b8ff" d="M322.31,-313.58C333.96,-311.01 346.19,-308.1 357.5,-305 373.77,-300.55 377.24,-297.48 393.5,-293 401.06,-290.92 409.03,-288.91 416.96,-287.03"/>
<polygon fill="#63b8ff" stroke="#63b8ff" points="417.66,-290.46 426.62,-284.81 416.09,-283.64 417.66,-290.46"/>
</a>
</g>
</g>
<!-- Node29 -->
<g id="Node000029" class="node">
<title>Node29</title>
<g id="a_Node000029"><a xlink:href="classParameters.html#a30943fe99e7fa2007923912bdd56f59f" target="_top" xlink:title=" ">
<polygon fill="white" stroke="#666666" points="756.25,-284 625.5,-284 625.5,-252 756.25,-252 756.25,-284"/>
<text text-anchor="start" x="633.5" y="-270.5" font-family="Helvetica,sans-Serif" font-size="10.00">Parameters::getColorBlind</text>
<text text-anchor="middle" x="690.88" y="-258.5" font-family="Helvetica,sans-Serif" font-size="10.00">ModeString</text>
</a>
</g>
</g>
<!-- Node28&#45;&gt;Node29 -->
<g id="edge29_Node000028_Node000029" class="edge">
<title>Node28&#45;&gt;Node29</title>
<g id="a_edge29_Node000028_Node000029"><a xlink:title=" ">
<path fill="none" stroke="#63b8ff" d="M558.81,-271.78C576.83,-271.26 596.02,-270.71 613.99,-270.19"/>
<polygon fill="#63b8ff" stroke="#63b8ff" points="613.9,-273.69 623.79,-269.91 613.7,-266.7 613.9,-273.69"/>
</a>
</g>
</g>
<!-- Node30&#45;&gt;Node3 -->
<g id="edge31_Node000030_Node000003" class="edge">
<title>Node30&#45;&gt;Node3</title>
<g id="a_edge31_Node000030_Node000003"><a xlink:title=" ">
<path fill="none" stroke="#63b8ff" d="M351.79,-668C361.68,-668 371.85,-668 381.93,-668"/>
<polygon fill="#63b8ff" stroke="#63b8ff" points="381.74,-671.5 391.74,-668 381.74,-664.5 381.74,-671.5"/>
</a>
</g>
</g>
<!-- Node31 -->
<g id="Node000031" class="node">
<title>Node31</title>
<g id="a_Node000031"><a xlink:href="classParameters.html#a51dc69f2c06bb07b0e2ae9bc2594ce43" target="_top" xlink:title=" ">
<polygon fill="white" stroke="#666666" points="552.38,-755 409.62,-755 409.62,-735 552.38,-735 552.38,-755"/>
<text text-anchor="middle" x="481" y="-741.5" font-family="Helvetica,sans-Serif" font-size="10.00">Parameters::setDisplayMode</text>
</a>
</g>
</g>
<!-- Node30&#45;&gt;Node31 -->
<g id="edge32_Node000030_Node000031" class="edge">
<title>Node30&#45;&gt;Node31</title>
<g id="a_edge32_Node000030_Node000031"><a xlink:title=" ">
<path fill="none" stroke="#63b8ff" d="M297.89,-678.38C334.69,-691.85 399.06,-715.39 440.58,-730.58"/>
<polygon fill="#63b8ff" stroke="#63b8ff" points="439.37,-733.87 449.97,-734.01 441.78,-727.29 439.37,-733.87"/>
</a>
</g>
</g>
<!-- Node32 -->
<g id="Node000032" class="node">
<title>Node32</title>
<g id="a_Node000032"><a xlink:href="classParameters.html#a461466b15c2fa714bb7c93b5a8b7e034" target="_top" xlink:title=" ">
<polygon fill="white" stroke="#666666" points="762.25,-800 619.5,-800 619.5,-768 762.25,-768 762.25,-800"/>
<text text-anchor="start" x="627.5" y="-786.5" font-family="Helvetica,sans-Serif" font-size="10.00">Parameters::getDisplayMode</text>
<text text-anchor="middle" x="690.88" y="-774.5" font-family="Helvetica,sans-Serif" font-size="10.00">String</text>
</a>
</g>
</g>
<!-- Node31&#45;&gt;Node32 -->
<g id="edge33_Node000031_Node000032" class="edge">
<title>Node31&#45;&gt;Node32</title>
<g id="a_edge33_Node000031_Node000032"><a xlink:title=" ">
<path fill="none" stroke="#63b8ff" d="M537.71,-755.45C559.3,-759.5 584.47,-764.22 608.04,-768.65"/>
<polygon fill="#63b8ff" stroke="#63b8ff" points="607.14,-772.04 617.61,-770.44 608.43,-765.16 607.14,-772.04"/>
</a>
</g>
</g>
<!-- Node34 -->
<g id="Node000034" class="node">
<title>Node34</title>
<g id="a_Node000034"><a xlink:href="classParameters.html#ae06898aa199b69ba3b8b29ee880aabd6" target="_top" xlink:title=" ">
<polygon fill="white" stroke="#666666" points="559.5,-246 402.5,-246 402.5,-214 559.5,-214 559.5,-246"/>
<text text-anchor="start" x="410.5" y="-232.5" font-family="Helvetica,sans-Serif" font-size="10.00">Parameters::getCurrentGraphics</text>
<text text-anchor="middle" x="481" y="-220.5" font-family="Helvetica,sans-Serif" font-size="10.00">Quality</text>
</a>
</g>
</g>
<!-- Node33&#45;&gt;Node34 -->
<g id="edge35_Node000033_Node000034" class="edge">
<title>Node33&#45;&gt;Node34</title>
<g id="a_edge35_Node000033_Node000034"><a xlink:title=" ">
<path fill="none" stroke="#63b8ff" d="M338.72,-263.56C358.23,-258.92 379.62,-253.84 399.73,-249.07"/>
<polygon fill="#63b8ff" stroke="#63b8ff" points="400.35,-252.52 409.27,-246.8 398.73,-245.71 400.35,-252.52"/>
</a>
</g>
</g>
<!-- Node35 -->
<g id="Node000035" class="node">
<title>Node35</title>
<g id="a_Node000035"><a xlink:href="classParameters.html#a5fee9764416320845781343f62276521" target="_top" xlink:title=" ">
<polygon fill="white" stroke="#666666" points="558.75,-196 403.25,-196 403.25,-176 558.75,-176 558.75,-196"/>
<text text-anchor="middle" x="481" y="-182.5" font-family="Helvetica,sans-Serif" font-size="10.00">Parameters::setGraphicsQuality</text>
</a>
</g>
</g>
<!-- Node33&#45;&gt;Node35 -->
<g id="edge36_Node000033_Node000035" class="edge">
<title>Node33&#45;&gt;Node35</title>
<g id="a_edge36_Node000033_Node000035"><a xlink:title=" ">
<path fill="none" stroke="#63b8ff" d="M342.4,-263.62C347.71,-261.14 352.82,-258.28 357.5,-255 379.92,-239.27 370.62,-220.04 393.5,-205 395.64,-203.59 397.87,-202.29 400.16,-201.08"/>
<polygon fill="#63b8ff" stroke="#63b8ff" points="401.54,-204.3 409.21,-196.99 398.66,-197.92 401.54,-204.3"/>
</a>
</g>
</g>
<!-- Node37 -->
<g id="Node000037" class="node">
<title>Node37</title>
<g id="a_Node000037"><a xlink:href="classParticleSystem.html#aaa0bb2c4005e7d01b0fd23f685fd92fc" target="_top" xlink:title=" ">
<polygon fill="white" stroke="#666666" points="560.62,-158 401.38,-158 401.38,-138 560.62,-138 560.62,-158"/>
<text text-anchor="middle" x="481" y="-144.5" font-family="Helvetica,sans-Serif" font-size="10.00">ParticleSystem::setMaxParticles</text>
</a>
</g>
</g>
<!-- Node33&#45;&gt;Node37 -->
<g id="edge38_Node000033_Node000037" class="edge">
<title>Node33&#45;&gt;Node37</title>
<g id="a_edge38_Node000033_Node000037"><a xlink:title=" ">
<path fill="none" stroke="#63b8ff" d="M342.9,-265.02C348.17,-262.22 353.12,-258.92 357.5,-255 389,-226.83 361.16,-194.2 393.5,-167 394.63,-166.05 395.79,-165.15 396.98,-164.29"/>
<polygon fill="#63b8ff" stroke="#63b8ff" points="398.6,-167.4 405.4,-159.27 395.02,-161.39 398.6,-167.4"/>
</a>
</g>
</g>
<!-- Node36 -->
<g id="Node000036" class="node">
<title>Node36</title>
<g id="a_Node000036"><a xlink:href="classParameters.html#a457a6ed2d096be7f5b648c7df1c7fafa" target="_top" xlink:title=" ">
<polygon fill="white" stroke="#666666" points="768.62,-202 613.12,-202 613.12,-170 768.62,-170 768.62,-202"/>
<text text-anchor="start" x="621.12" y="-188.5" font-family="Helvetica,sans-Serif" font-size="10.00">Parameters::getGraphicsQuality</text>
<text text-anchor="middle" x="690.88" y="-176.5" font-family="Helvetica,sans-Serif" font-size="10.00">String</text>
</a>
</g>
</g>
<!-- Node35&#45;&gt;Node36 -->
<g id="edge37_Node000035_Node000036" class="edge">
<title>Node35&#45;&gt;Node36</title>
<g id="a_edge37_Node000035_Node000036"><a xlink:title=" ">
<path fill="none" stroke="#63b8ff" d="M559.11,-186C572.97,-186 587.51,-186 601.65,-186"/>
<polygon fill="#63b8ff" stroke="#63b8ff" points="601.38,-189.5 611.38,-186 601.38,-182.5 601.38,-189.5"/>
</a>
</g>
</g>
<!-- Node38&#45;&gt;Node4 -->
<g id="edge40_Node000038_Node000004" class="edge">
<title>Node38&#45;&gt;Node4</title>
<g id="a_edge40_Node000038_Node000004"><a xlink:title=" ">
<path fill="none" stroke="#63b8ff" d="M323.16,-510.45C351.25,-515.92 385.84,-522.66 415.38,-528.41"/>
<polygon fill="#63b8ff" stroke="#63b8ff" points="414.46,-531.8 424.95,-530.28 415.8,-524.93 414.46,-531.8"/>
</a>
</g>
</g>
<!-- Node39 -->
<g id="Node000039" class="node">
<title>Node39</title>
<g id="a_Node000039"><a xlink:href="classParameters.html#aa44f94f237faff1315187b2a31af3c11" target="_top" xlink:title=" ">
<polygon fill="white" stroke="#666666" points="547.12,-510 414.88,-510 414.88,-490 547.12,-490 547.12,-510"/>
<text text-anchor="middle" x="481" y="-496.5" font-family="Helvetica,sans-Serif" font-size="10.00">Parameters::setResolution</text>
</a>
</g>
</g>
<!-- Node38&#45;&gt;Node39 -->
<g id="edge41_Node000038_Node000039" class="edge">
<title>Node38&#45;&gt;Node39</title>
<g id="a_edge41_Node000038_Node000039"><a xlink:title=" ">
<path fill="none" stroke="#63b8ff" d="M346.69,-500C365.15,-500 384.85,-500 403.29,-500"/>
<polygon fill="#63b8ff" stroke="#63b8ff" points="403.08,-503.5 413.08,-500 403.08,-496.5 403.08,-503.5"/>
</a>
</g>
</g>
<!-- Node40 -->
<g id="Node000040" class="node">
<title>Node40</title>
<g id="a_Node000040"><a xlink:href="classParameters.html#ab06f51d4f6cecc5d4ca32f6a770fca12" target="_top" xlink:title=" ">
<polygon fill="white" stroke="#666666" points="757,-434 624.75,-434 624.75,-402 757,-402 757,-434"/>
<text text-anchor="start" x="632.75" y="-420.5" font-family="Helvetica,sans-Serif" font-size="10.00">Parameters::getResolution</text>
<text text-anchor="middle" x="690.88" y="-408.5" font-family="Helvetica,sans-Serif" font-size="10.00">String</text>
</a>
</g>
</g>
<!-- Node39&#45;&gt;Node40 -->
<g id="edge42_Node000039_Node000040" class="edge">
<title>Node39&#45;&gt;Node40</title>
<g id="a_edge42_Node000039_Node000040"><a xlink:title=" ">
<path fill="none" stroke="#63b8ff" d="M501.97,-489.57C525.9,-477.34 567.4,-456.97 604.5,-443 609.1,-441.27 613.87,-439.58 618.7,-437.96"/>
<polygon fill="#63b8ff" stroke="#63b8ff" points="619.46,-441.39 627.89,-434.97 617.3,-434.73 619.46,-441.39"/>
</a>
</g>
</g>
</g>
</svg>
