<?xml version="1.0" encoding="UTF-8" standalone="no"?>
<!DOCTYPE svg PUBLIC "-//W3C//DTD SVG 1.1//EN"
 "http://www.w3.org/Graphics/SVG/1.1/DTD/svg11.dtd">
<!-- Generated by graphviz version 12.1.0 (20240811.2233)
 -->
<!-- Title: Engine::Systems::DevConsole Pages: 1 -->
<svg width="153pt" height="308pt"
 viewBox="0.00 0.00 153.00 308.00" xmlns="http://www.w3.org/2000/svg" xmlns:xlink="http://www.w3.org/1999/xlink">
<g id="graph0" class="graph" transform="scale(1 1) rotate(0) translate(4 304)">
<title>Engine::Systems::DevConsole</title>
<!-- Node1 -->
<g id="Node000001" class="node">
<title>Node1</title>
<g id="a_Node000001"><a xlink:title=" ">
<polygon fill="#999999" stroke="none" points="145,-212 0,-212 0,0 145,0 145,-212"/>
<text text-anchor="start" x="5" y="-198.5" font-family="Helvetica,sans-Serif" font-size="10.00">Engine::Systems::DevConsole</text>
<text text-anchor="start" x="14" y="-182.5" font-family="Helvetica,sans-Serif" font-size="10.00">&#45;</text>
<text text-anchor="start" x="31" y="-182.5" font-family="Helvetica,sans-Serif" font-size="10.00">is_open</text>
<text text-anchor="start" x="14" y="-166.5" font-family="Helvetica,sans-Serif" font-size="10.00">&#45;</text>
<text text-anchor="start" x="31" y="-166.5" font-family="Helvetica,sans-Serif" font-size="10.00">old_std_out</text>
<text text-anchor="start" x="14" y="-150.5" font-family="Helvetica,sans-Serif" font-size="10.00">&#45;</text>
<text text-anchor="start" x="31" y="-150.5" font-family="Helvetica,sans-Serif" font-size="10.00">current_command</text>
<text text-anchor="start" x="14" y="-134.5" font-family="Helvetica,sans-Serif" font-size="10.00">&#45;</text>
<text text-anchor="start" x="31" y="-134.5" font-family="Helvetica,sans-Serif" font-size="10.00">command_to_parse</text>
<text text-anchor="start" x="14" y="-118.5" font-family="Helvetica,sans-Serif" font-size="10.00">&#45;</text>
<text text-anchor="start" x="31" y="-118.5" font-family="Helvetica,sans-Serif" font-size="10.00">cursor_pos</text>
<text text-anchor="start" x="14" y="-102.5" font-family="Helvetica,sans-Serif" font-size="10.00">&#45;</text>
<text text-anchor="start" x="31" y="-102.5" font-family="Helvetica,sans-Serif" font-size="10.00">console_vars</text>
<text text-anchor="start" x="12.5" y="-86.5" font-family="Helvetica,sans-Serif" font-size="10.00">+</text>
<text text-anchor="start" x="31" y="-86.5" font-family="Helvetica,sans-Serif" font-size="10.00">init()</text>
<text text-anchor="start" x="12.5" y="-70.5" font-family="Helvetica,sans-Serif" font-size="10.00">+</text>
<text text-anchor="start" x="31" y="-70.5" font-family="Helvetica,sans-Serif" font-size="10.00">update()</text>
<text text-anchor="start" x="12.5" y="-54.5" font-family="Helvetica,sans-Serif" font-size="10.00">+</text>
<text text-anchor="start" x="31" y="-54.5" font-family="Helvetica,sans-Serif" font-size="10.00">treatNewTextInput()</text>
<text text-anchor="start" x="14" y="-38.5" font-family="Helvetica,sans-Serif" font-size="10.00">&#45;</text>
<text text-anchor="start" x="31" y="-38.5" font-family="Helvetica,sans-Serif" font-size="10.00">parseCommand()</text>
<text text-anchor="start" x="14" y="-22.5" font-family="Helvetica,sans-Serif" font-size="10.00">&#45;</text>
<text text-anchor="start" x="31" y="-22.5" font-family="Helvetica,sans-Serif" font-size="10.00">reflectComponent()</text>
<text text-anchor="start" x="14" y="-6.5" font-family="Helvetica,sans-Serif" font-size="10.00">&#45;</text>
<text text-anchor="start" x="31" y="-6.5" font-family="Helvetica,sans-Serif" font-size="10.00">setComponentValue()</text>
<polygon fill="#666666" stroke="#666666" points="0,-194 0,-194 145,-194 145,-194 0,-194"/>
<polygon fill="#666666" stroke="#666666" points="0,-98 0,-98 29,-98 29,-98 0,-98"/>
<polygon fill="#666666" stroke="#666666" points="29,-98 29,-98 145,-98 145,-98 29,-98"/>
<polygon fill="none" stroke="#666666" points="0,0 0,-212 145,-212 145,0 0,0"/>
</a>
</g>
</g>
<!-- Node2 -->
<g id="Node000002" class="node">
<title>Node2</title>
<g id="a_Node000002"><a xlink:href="classEngine_1_1System.html" target="_top" xlink:title=" ">
<polygon fill="white" stroke="none" points="112,-300 33,-300 33,-248 112,-248 112,-300"/>
<text text-anchor="start" x="37.62" y="-286.5" font-family="Helvetica,sans-Serif" font-size="10.00">Engine::System</text>
<text text-anchor="start" x="44.5" y="-270.5" font-family="Helvetica,sans-Serif" font-size="10.00">+</text>
<text text-anchor="start" x="62" y="-270.5" font-family="Helvetica,sans-Serif" font-size="10.00">entities</text>
<text text-anchor="start" x="71" y="-254.5" font-family="Helvetica,sans-Serif" font-size="10.00"> </text>
<polygon fill="#666666" stroke="#666666" points="33,-282 33,-282 112,-282 112,-282 33,-282"/>
<polygon fill="#666666" stroke="#666666" points="33,-266 33,-266 60,-266 60,-266 33,-266"/>
<polygon fill="#666666" stroke="#666666" points="60,-266 60,-266 112,-266 112,-266 60,-266"/>
<polygon fill="none" stroke="#666666" points="33,-248 33,-300 112,-300 112,-248 33,-248"/>
</a>
</g>
</g>
<!-- Node2&#45;&gt;Node1 -->
<g id="edge1_Node000001_Node000002" class="edge">
<title>Node2&#45;&gt;Node1</title>
<g id="a_edge1_Node000001_Node000002"><a xlink:title=" ">
<path fill="none" stroke="#63b8ff" d="M72.5,-236.83C72.5,-229.18 72.5,-220.73 72.5,-211.94"/>
<polygon fill="none" stroke="#63b8ff" points="69,-236.63 72.5,-246.63 76,-236.63 69,-236.63"/>
</a>
</g>
</g>
</g>
</svg>
