<?xml version="1.0" encoding="UTF-8" standalone="no"?>
<!DOCTYPE svg PUBLIC "-//W3C//DTD SVG 1.1//EN"
 "http://www.w3.org/Graphics/SVG/1.1/DTD/svg11.dtd">
<!-- Generated by graphviz version 12.1.0 (20240811.2233)
 -->
<!-- Title: ControlsConfig::cancelKeyCapture Pages: 1 -->
<svg width="572pt" height="40pt"
 viewBox="0.00 0.00 572.25 40.00" xmlns="http://www.w3.org/2000/svg" xmlns:xlink="http://www.w3.org/1999/xlink">
<g id="graph0" class="graph" transform="scale(1 1) rotate(0) translate(4 36)">
<title>ControlsConfig::cancelKeyCapture</title>
<!-- Node1 -->
<g id="Node000001" class="node">
<title>Node1</title>
<g id="a_Node000001"><a xlink:title=" ">
<polygon fill="#999999" stroke="#666666" points="564.25,-32 431.25,-32 431.25,0 564.25,0 564.25,-32"/>
<text text-anchor="start" x="439.25" y="-18.5" font-family="Helvetica,sans-Serif" font-size="10.00">ControlsConfig::cancelKey</text>
<text text-anchor="middle" x="497.75" y="-6.5" font-family="Helvetica,sans-Serif" font-size="10.00">Capture</text>
</a>
</g>
</g>
<!-- Node2 -->
<g id="Node000002" class="node">
<title>Node2</title>
<g id="a_Node000002"><a xlink:href="classControlsConfig.html#a1744d263bd924fcefd9c35afb9344f5b" target="_top" xlink:title=" ">
<polygon fill="white" stroke="#666666" points="395.25,-26 254,-26 254,-6 395.25,-6 395.25,-26"/>
<text text-anchor="middle" x="324.62" y="-12.5" font-family="Helvetica,sans-Serif" font-size="10.00">ControlsConfig::handleEvent</text>
</a>
</g>
</g>
<!-- Node1&#45;&gt;Node2 -->
<g id="edge1_Node000001_Node000002" class="edge">
<title>Node1&#45;&gt;Node2</title>
<g id="a_edge1_Node000001_Node000002"><a xlink:title=" ">
<path fill="none" stroke="#63b8ff" d="M419.81,-16C411.77,-16 403.63,-16 395.67,-16"/>
<polygon fill="#63b8ff" stroke="#63b8ff" points="419.56,-19.5 429.56,-16 419.56,-12.5 419.56,-19.5"/>
</a>
</g>
</g>
<!-- Node3 -->
<g id="Node000003" class="node">
<title>Node3</title>
<g id="a_Node000003"><a xlink:href="classGameManager.html#a6cea7fca5fecdd4f8a32912d4bfc233f" target="_top" xlink:title=" ">
<polygon fill="white" stroke="#666666" points="218,-26 73,-26 73,-6 218,-6 218,-26"/>
<text text-anchor="middle" x="145.5" y="-12.5" font-family="Helvetica,sans-Serif" font-size="10.00">GameManager::handleEvents</text>
</a>
</g>
</g>
<!-- Node2&#45;&gt;Node3 -->
<g id="edge2_Node000002_Node000003" class="edge">
<title>Node2&#45;&gt;Node3</title>
<g id="a_edge2_Node000002_Node000003"><a xlink:title=" ">
<path fill="none" stroke="#63b8ff" d="M242.36,-16C234.34,-16 226.24,-16 218.32,-16"/>
<polygon fill="#63b8ff" stroke="#63b8ff" points="242.11,-19.5 252.11,-16 242.11,-12.5 242.11,-19.5"/>
</a>
</g>
</g>
<!-- Node4 -->
<g id="Node000004" class="node">
<title>Node4</title>
<g id="a_Node000004"><a xlink:href="Client_2src_2main_8cpp.html#ae66f6b31b5ad750f1fe042a706a4e3d4" target="_top" xlink:title=" ">
<polygon fill="white" stroke="#666666" points="37,-26 0,-26 0,-6 37,-6 37,-26"/>
<text text-anchor="middle" x="18.5" y="-12.5" font-family="Helvetica,sans-Serif" font-size="10.00">main</text>
</a>
</g>
</g>
<!-- Node3&#45;&gt;Node4 -->
<g id="edge3_Node000003_Node000004" class="edge">
<title>Node3&#45;&gt;Node4</title>
<g id="a_edge3_Node000003_Node000004"><a xlink:title=" ">
<path fill="none" stroke="#63b8ff" d="M61.12,-16C52.34,-16 44.18,-16 37.46,-16"/>
<polygon fill="#63b8ff" stroke="#63b8ff" points="61,-19.5 71,-16 61,-12.5 61,-19.5"/>
</a>
</g>
</g>
</g>
</svg>
