<?xml version="1.0" encoding="UTF-8" standalone="no"?>
<!DOCTYPE svg PUBLIC "-//W3C//DTD SVG 1.1//EN"
 "http://www.w3.org/Graphics/SVG/1.1/DTD/svg11.dtd">
<!-- Generated by graphviz version 12.1.0 (20240811.2233)
 -->
<!-- Title: Engine::System Pages: 1 -->
<svg width="476pt" height="180pt"
 viewBox="0.00 0.00 476.00 180.00" xmlns="http://www.w3.org/2000/svg" xmlns:xlink="http://www.w3.org/1999/xlink">
<g id="graph0" class="graph" transform="scale(1 1) rotate(0) translate(4 176)">
<title>Engine::System</title>
<!-- Node1 -->
<g id="Node000001" class="node">
<title>Node1</title>
<g id="a_Node000001"><a xlink:title=" ">
<polygon fill="#999999" stroke="none" points="258.5,-172 179.5,-172 179.5,-120 258.5,-120 258.5,-172"/>
<text text-anchor="start" x="184.12" y="-158.5" font-family="Helvetica,sans-Serif" font-size="10.00">Engine::System</text>
<text text-anchor="start" x="191" y="-142.5" font-family="Helvetica,sans-Serif" font-size="10.00">+</text>
<text text-anchor="start" x="208.5" y="-142.5" font-family="Helvetica,sans-Serif" font-size="10.00">entities</text>
<text text-anchor="start" x="217.5" y="-126.5" font-family="Helvetica,sans-Serif" font-size="10.00"> </text>
<polygon fill="#666666" stroke="#666666" points="179.5,-154 179.5,-154 258.5,-154 258.5,-154 179.5,-154"/>
<polygon fill="#666666" stroke="#666666" points="179.5,-138 179.5,-138 206.5,-138 206.5,-138 179.5,-138"/>
<polygon fill="#666666" stroke="#666666" points="206.5,-138 206.5,-138 258.5,-138 258.5,-138 206.5,-138"/>
<polygon fill="none" stroke="#666666" points="179.5,-120 179.5,-172 258.5,-172 258.5,-120 179.5,-120"/>
</a>
</g>
</g>
<!-- Node2 -->
<g id="Node000002" class="node">
<title>Node2</title>
<g id="a_Node000002"><a xlink:href="classEngine_1_1Systems_1_1PhysicsSystem.html" target="_top" xlink:title=" ">
<polygon fill="white" stroke="none" points="126,-74 0,-74 0,-10 126,-10 126,-74"/>
<text text-anchor="start" x="4.88" y="-60.5" font-family="Helvetica,sans-Serif" font-size="10.00">Engine::Systems::Physics</text>
<text text-anchor="start" x="46.12" y="-48.5" font-family="Helvetica,sans-Serif" font-size="10.00">System</text>
<text text-anchor="start" x="61.5" y="-32.5" font-family="Helvetica,sans-Serif" font-size="10.00"> </text>
<text text-anchor="start" x="22" y="-16.5" font-family="Helvetica,sans-Serif" font-size="10.00">+</text>
<text text-anchor="start" x="50" y="-16.5" font-family="Helvetica,sans-Serif" font-size="10.00">update()</text>
<polygon fill="#666666" stroke="#666666" points="0,-44 0,-44 126,-44 126,-44 0,-44"/>
<polygon fill="#666666" stroke="#666666" points="0,-28 0,-28 126,-28 126,-28 0,-28"/>
<polygon fill="none" stroke="#666666" points="0,-10 0,-74 126,-74 126,-10 0,-10"/>
</a>
</g>
</g>
<!-- Node1&#45;&gt;Node2 -->
<g id="edge1_Node000001_Node000002" class="edge">
<title>Node1&#45;&gt;Node2</title>
<g id="a_edge1_Node000001_Node000002"><a xlink:title=" ">
<path fill="none" stroke="#63b8ff" d="M171.3,-113.81C151.92,-101.14 129.58,-86.54 110.25,-73.9"/>
<polygon fill="none" stroke="#63b8ff" points="169.29,-116.68 179.57,-119.22 173.12,-110.82 169.29,-116.68"/>
</a>
</g>
</g>
<!-- Node3 -->
<g id="Node000003" class="node">
<title>Node3</title>
<g id="a_Node000003"><a xlink:href="classEngine_1_1Systems_1_1PlayerControl.html" target="_top" xlink:title=" ">
<polygon fill="white" stroke="none" points="294,-84 144,-84 144,0 294,0 294,-84"/>
<text text-anchor="start" x="148.88" y="-70.5" font-family="Helvetica,sans-Serif" font-size="10.00">Engine::Systems::PlayerControl</text>
<text text-anchor="start" x="167" y="-54.5" font-family="Helvetica,sans-Serif" font-size="10.00">&#45;</text>
<text text-anchor="start" x="193" y="-54.5" font-family="Helvetica,sans-Serif" font-size="10.00">buttons</text>
<text text-anchor="start" x="165.5" y="-38.5" font-family="Helvetica,sans-Serif" font-size="10.00">+</text>
<text text-anchor="start" x="193" y="-38.5" font-family="Helvetica,sans-Serif" font-size="10.00">init()</text>
<text text-anchor="start" x="165.5" y="-22.5" font-family="Helvetica,sans-Serif" font-size="10.00">+</text>
<text text-anchor="start" x="193" y="-22.5" font-family="Helvetica,sans-Serif" font-size="10.00">update()</text>
<text text-anchor="start" x="165.5" y="-6.5" font-family="Helvetica,sans-Serif" font-size="10.00">+</text>
<text text-anchor="start" x="193" y="-6.5" font-family="Helvetica,sans-Serif" font-size="10.00">inputListener()</text>
<polygon fill="#666666" stroke="#666666" points="144,-66 144,-66 294,-66 294,-66 144,-66"/>
<polygon fill="#666666" stroke="#666666" points="144,-50 144,-50 191,-50 191,-50 144,-50"/>
<polygon fill="#666666" stroke="#666666" points="191,-50 191,-50 294,-50 294,-50 191,-50"/>
<polygon fill="none" stroke="#666666" points="144,0 144,-84 294,-84 294,0 144,0"/>
</a>
</g>
</g>
<!-- Node1&#45;&gt;Node3 -->
<g id="edge2_Node000001_Node000003" class="edge">
<title>Node1&#45;&gt;Node3</title>
<g id="a_edge2_Node000001_Node000003"><a xlink:title=" ">
<path fill="none" stroke="#63b8ff" d="M219,-108.77C219,-100.75 219,-92.19 219,-83.99"/>
<polygon fill="none" stroke="#63b8ff" points="215.5,-108.53 219,-118.53 222.5,-108.53 215.5,-108.53"/>
</a>
</g>
</g>
<!-- Node4 -->
<g id="Node000004" class="node">
<title>Node4</title>
<g id="a_Node000004"><a xlink:href="classEngine_1_1Systems_1_1RenderSystem.html" target="_top" xlink:title=" ">
<polygon fill="white" stroke="none" points="468,-76 312,-76 312,-8 468,-8 468,-76"/>
<text text-anchor="start" x="316.88" y="-62.5" font-family="Helvetica,sans-Serif" font-size="10.00">Engine::Systems::RenderSystem</text>
<text text-anchor="start" x="340" y="-46.5" font-family="Helvetica,sans-Serif" font-size="10.00">&#45;</text>
<text text-anchor="start" x="371" y="-46.5" font-family="Helvetica,sans-Serif" font-size="10.00">sprites</text>
<text text-anchor="start" x="338.5" y="-30.5" font-family="Helvetica,sans-Serif" font-size="10.00">+</text>
<text text-anchor="start" x="371" y="-30.5" font-family="Helvetica,sans-Serif" font-size="10.00">addSprite()</text>
<text text-anchor="start" x="338.5" y="-14.5" font-family="Helvetica,sans-Serif" font-size="10.00">+</text>
<text text-anchor="start" x="371" y="-14.5" font-family="Helvetica,sans-Serif" font-size="10.00">update()</text>
<polygon fill="#666666" stroke="#666666" points="312,-58 312,-58 468,-58 468,-58 312,-58"/>
<polygon fill="#666666" stroke="#666666" points="312,-42 312,-42 369,-42 369,-42 312,-42"/>
<polygon fill="#666666" stroke="#666666" points="369,-42 369,-42 468,-42 468,-42 369,-42"/>
<polygon fill="none" stroke="#666666" points="312,-8 312,-76 468,-76 468,-8 312,-8"/>
</a>
</g>
</g>
<!-- Node1&#45;&gt;Node4 -->
<g id="edge3_Node000001_Node000004" class="edge">
<title>Node1&#45;&gt;Node4</title>
<g id="a_edge3_Node000001_Node000004"><a xlink:title=" ">
<path fill="none" stroke="#63b8ff" d="M267.86,-115.86C288.74,-103.4 313.21,-88.8 334.75,-75.95"/>
<polygon fill="none" stroke="#63b8ff" points="266.33,-112.7 259.53,-120.82 269.91,-118.71 266.33,-112.7"/>
</a>
</g>
</g>
</g>
</svg>
