<?xml version="1.0" encoding="UTF-8" standalone="no"?>
<!DOCTYPE svg PUBLIC "-//W3C//DTD SVG 1.1//EN"
 "http://www.w3.org/Graphics/SVG/1.1/DTD/svg11.dtd">
<!-- Generated by graphviz version 12.1.0 (20240811.2233)
 -->
<!-- Title: RtypeServer::UdpServer::handle_message Pages: 1 -->
<svg width="448pt" height="194pt"
 viewBox="0.00 0.00 447.50 194.00" xmlns="http://www.w3.org/2000/svg" xmlns:xlink="http://www.w3.org/1999/xlink">
<g id="graph0" class="graph" transform="scale(1 1) rotate(0) translate(4 190)">
<title>RtypeServer::UdpServer::handle_message</title>
<!-- Node1 -->
<g id="Node000001" class="node">
<title>Node1</title>
<g id="a_Node000001"><a xlink:title=" ">
<polygon fill="#999999" stroke="#666666" points="123.25,-98 0,-98 0,-66 123.25,-66 123.25,-98"/>
<text text-anchor="start" x="8" y="-84.5" font-family="Helvetica,sans-Serif" font-size="10.00">RtypeServer::UdpServer</text>
<text text-anchor="middle" x="61.62" y="-72.5" font-family="Helvetica,sans-Serif" font-size="10.00">::handle_message</text>
</a>
</g>
</g>
<!-- Node2 -->
<g id="Node000002" class="node">
<title>Node2</title>
<g id="a_Node000002"><a xlink:href="namespaceRtypeServer.html#a0945154a39091e84a43cedc8136b0abe" target="_top" xlink:title=" ">
<polygon fill="white" stroke="#666666" points="430.88,-186 335.38,-186 335.38,-166 430.88,-166 430.88,-186"/>
<text text-anchor="middle" x="383.12" y="-172.5" font-family="Helvetica,sans-Serif" font-size="10.00">RtypeServer::infof</text>
</a>
</g>
</g>
<!-- Node1&#45;&gt;Node2 -->
<g id="edge1_Node000001_Node000002" class="edge">
<title>Node1&#45;&gt;Node2</title>
<g id="a_edge1_Node000001_Node000002"><a xlink:title=" ">
<path fill="none" stroke="#63b8ff" d="M91.43,-98.33C110.24,-108.4 135.6,-120.89 159.25,-129 213.74,-147.68 278.37,-160.32 323.97,-167.74"/>
<polygon fill="#63b8ff" stroke="#63b8ff" points="323.21,-171.17 333.64,-169.28 324.31,-164.25 323.21,-171.17"/>
</a>
</g>
</g>
<!-- Node3 -->
<g id="Node000003" class="node">
<title>Node3</title>
<g id="a_Node000003"><a xlink:href="classRtypeServer_1_1UdpServer.html#ab6e480e2b78f9cbc75fb5ba9bbdc71f5" target="_top" xlink:title=" ">
<polygon fill="white" stroke="#666666" points="286.62,-120 163.38,-120 163.38,-88 286.62,-88 286.62,-120"/>
<text text-anchor="start" x="171.38" y="-106.5" font-family="Helvetica,sans-Serif" font-size="10.00">RtypeServer::UdpServer</text>
<text text-anchor="middle" x="225" y="-94.5" font-family="Helvetica,sans-Serif" font-size="10.00">::send_room_error</text>
</a>
</g>
</g>
<!-- Node1&#45;&gt;Node3 -->
<g id="edge2_Node000001_Node000003" class="edge">
<title>Node1&#45;&gt;Node3</title>
<g id="a_edge2_Node000001_Node000003"><a xlink:title=" ">
<path fill="none" stroke="#63b8ff" d="M123.63,-90.32C132.77,-91.56 142.27,-92.86 151.61,-94.13"/>
<polygon fill="#63b8ff" stroke="#63b8ff" points="151.02,-97.58 161.41,-95.47 151.97,-90.65 151.02,-97.58"/>
</a>
</g>
</g>
<!-- Node5 -->
<g id="Node000005" class="node">
<title>Node5</title>
<g id="a_Node000005"><a xlink:href="classRtypeServer_1_1Protocol.html#ad918184440d6fcb33f231a7173a67399" target="_top" xlink:title=" ">
<polygon fill="white" stroke="#666666" points="439.5,-60 326.75,-60 326.75,-28 439.5,-28 439.5,-60"/>
<text text-anchor="start" x="334.75" y="-46.5" font-family="Helvetica,sans-Serif" font-size="10.00">RtypeServer::Protocol</text>
<text text-anchor="middle" x="383.12" y="-34.5" font-family="Helvetica,sans-Serif" font-size="10.00">::writeHeader</text>
</a>
</g>
</g>
<!-- Node1&#45;&gt;Node5 -->
<g id="edge7_Node000001_Node000005" class="edge">
<title>Node1&#45;&gt;Node5</title>
<g id="a_edge7_Node000001_Node000005"><a xlink:title=" ">
<path fill="none" stroke="#63b8ff" d="M123.47,-74.76C178.18,-68.26 258.41,-58.71 314.98,-51.99"/>
<polygon fill="#63b8ff" stroke="#63b8ff" points="315.3,-55.47 324.81,-50.82 314.47,-48.52 315.3,-55.47"/>
</a>
</g>
</g>
<!-- Node7 -->
<g id="Node000007" class="node">
<title>Node7</title>
<g id="a_Node000007"><a xlink:href="classRtypeServer_1_1Protocol.html#ac420e1e8bc326fe2738ca26777cae3a5" target="_top" xlink:title=" ">
<polygon fill="white" stroke="#666666" points="290.75,-32 159.25,-32 159.25,0 290.75,0 290.75,-32"/>
<text text-anchor="start" x="167.25" y="-18.5" font-family="Helvetica,sans-Serif" font-size="10.00">RtypeServer::Protocol</text>
<text text-anchor="middle" x="225" y="-6.5" font-family="Helvetica,sans-Serif" font-size="10.00">::writeRoomMessageBody</text>
</a>
</g>
</g>
<!-- Node1&#45;&gt;Node7 -->
<g id="edge8_Node000001_Node000007" class="edge">
<title>Node1&#45;&gt;Node7</title>
<g id="a_edge8_Node000001_Node000007"><a xlink:title=" ">
<path fill="none" stroke="#63b8ff" d="M102.93,-65.52C124.29,-56.78 150.73,-45.97 173.45,-36.67"/>
<polygon fill="#63b8ff" stroke="#63b8ff" points="174.6,-39.99 182.53,-32.96 171.95,-33.51 174.6,-39.99"/>
</a>
</g>
</g>
<!-- Node3&#45;&gt;Node2 -->
<g id="edge3_Node000003_Node000002" class="edge">
<title>Node3&#45;&gt;Node2</title>
<g id="a_edge3_Node000003_Node000002"><a xlink:title=" ">
<path fill="none" stroke="#63b8ff" d="M254.09,-120.27C273.99,-131.43 301.53,-146.11 326.75,-157 330.52,-158.63 334.47,-160.21 338.47,-161.73"/>
<polygon fill="#63b8ff" stroke="#63b8ff" points="337,-164.92 347.59,-165.05 339.39,-158.34 337,-164.92"/>
</a>
</g>
</g>
<!-- Node4 -->
<g id="Node000004" class="node">
<title>Node4</title>
<g id="a_Node000004"><a xlink:href="namespaceRtypeServer.html#a29d016de4637084d2ec30b53700af223" target="_top" xlink:title=" ">
<polygon fill="white" stroke="#666666" points="433.5,-148 332.75,-148 332.75,-128 433.5,-128 433.5,-148"/>
<text text-anchor="middle" x="383.12" y="-134.5" font-family="Helvetica,sans-Serif" font-size="10.00">RtypeServer::warnf</text>
</a>
</g>
</g>
<!-- Node3&#45;&gt;Node4 -->
<g id="edge4_Node000003_Node000004" class="edge">
<title>Node3&#45;&gt;Node4</title>
<g id="a_edge4_Node000003_Node000004"><a xlink:title=" ">
<path fill="none" stroke="#63b8ff" d="M286.81,-117.24C298.75,-119.84 311.25,-122.57 323.13,-125.15"/>
<polygon fill="#63b8ff" stroke="#63b8ff" points="322.29,-128.55 332.81,-127.26 323.78,-121.71 322.29,-128.55"/>
</a>
</g>
</g>
<!-- Node3&#45;&gt;Node5 -->
<g id="edge5_Node000003_Node000005" class="edge">
<title>Node3&#45;&gt;Node5</title>
<g id="a_edge5_Node000003_Node000005"><a xlink:title=" ">
<path fill="none" stroke="#63b8ff" d="M268.66,-87.6C287.17,-80.49 309.05,-72.08 328.64,-64.56"/>
<polygon fill="#63b8ff" stroke="#63b8ff" points="329.75,-67.88 337.83,-61.02 327.24,-61.34 329.75,-67.88"/>
</a>
</g>
</g>
<!-- Node6 -->
<g id="Node000006" class="node">
<title>Node6</title>
<g id="a_Node000006"><a xlink:href="classRtypeServer_1_1Protocol.html#a5b46d0759af7c3a4f3925420298c171a" target="_top" xlink:title=" ">
<polygon fill="white" stroke="#666666" points="439.5,-110 326.75,-110 326.75,-78 439.5,-78 439.5,-110"/>
<text text-anchor="start" x="334.75" y="-96.5" font-family="Helvetica,sans-Serif" font-size="10.00">RtypeServer::Protocol</text>
<text text-anchor="middle" x="383.12" y="-84.5" font-family="Helvetica,sans-Serif" font-size="10.00">::writeRoomErrorBody</text>
</a>
</g>
</g>
<!-- Node3&#45;&gt;Node6 -->
<g id="edge6_Node000003_Node000006" class="edge">
<title>Node3&#45;&gt;Node6</title>
<g id="a_edge6_Node000003_Node000006"><a xlink:title=" ">
<path fill="none" stroke="#63b8ff" d="M286.81,-100.11C296.06,-99.51 305.65,-98.9 315.03,-98.3"/>
<polygon fill="#63b8ff" stroke="#63b8ff" points="315.06,-101.8 324.81,-97.67 314.61,-94.82 315.06,-101.8"/>
</a>
</g>
</g>
</g>
</svg>
