<?xml version="1.0" encoding="UTF-8" standalone="no"?>
<!DOCTYPE svg PUBLIC "-//W3C//DTD SVG 1.1//EN"
 "http://www.w3.org/Graphics/SVG/1.1/DTD/svg11.dtd">
<!-- Generated by graphviz version 12.1.0 (20240811.2233)
 -->
<!-- Title: GameManager::cycleResolution Pages: 1 -->
<svg width="532pt" height="72pt"
 viewBox="0.00 0.00 532.25 72.00" xmlns="http://www.w3.org/2000/svg" xmlns:xlink="http://www.w3.org/1999/xlink">
<g id="graph0" class="graph" transform="scale(1 1) rotate(0) translate(4 68)">
<title>GameManager::cycleResolution</title>
<!-- Node1 -->
<g id="Node000001" class="node">
<title>Node1</title>
<g id="a_Node000001"><a xlink:title=" ">
<polygon fill="#999999" stroke="#666666" points="155.5,-45 0,-45 0,-25 155.5,-25 155.5,-45"/>
<text text-anchor="middle" x="77.75" y="-31.5" font-family="Helvetica,sans-Serif" font-size="10.00">GameManager::cycleResolution</text>
</a>
</g>
</g>
<!-- Node2 -->
<g id="Node000002" class="node">
<title>Node2</title>
<g id="a_Node000002"><a xlink:href="classParameters.html#a679561c2f5dfe92294135e7bcf71f531" target="_top" xlink:title=" ">
<polygon fill="white" stroke="#666666" points="356,-64 191.5,-64 191.5,-44 356,-44 356,-64"/>
<text text-anchor="middle" x="273.75" y="-50.5" font-family="Helvetica,sans-Serif" font-size="10.00">Parameters::getCurrentResolution</text>
</a>
</g>
</g>
<!-- Node1&#45;&gt;Node2 -->
<g id="edge1_Node000001_Node000002" class="edge">
<title>Node1&#45;&gt;Node2</title>
<g id="a_edge1_Node000001_Node000002"><a xlink:title=" ">
<path fill="none" stroke="#63b8ff" d="M155.98,-42.56C163.81,-43.33 171.82,-44.11 179.79,-44.9"/>
<polygon fill="#63b8ff" stroke="#63b8ff" points="179.21,-48.36 189.51,-45.85 179.89,-41.39 179.21,-48.36"/>
</a>
</g>
</g>
<!-- Node3 -->
<g id="Node000003" class="node">
<title>Node3</title>
<g id="a_Node000003"><a xlink:href="classParameters.html#aa44f94f237faff1315187b2a31af3c11" target="_top" xlink:title=" ">
<polygon fill="white" stroke="#666666" points="339.88,-26 207.62,-26 207.62,-6 339.88,-6 339.88,-26"/>
<text text-anchor="middle" x="273.75" y="-12.5" font-family="Helvetica,sans-Serif" font-size="10.00">Parameters::setResolution</text>
</a>
</g>
</g>
<!-- Node1&#45;&gt;Node3 -->
<g id="edge2_Node000001_Node000003" class="edge">
<title>Node1&#45;&gt;Node3</title>
<g id="a_edge2_Node000001_Node000003"><a xlink:title=" ">
<path fill="none" stroke="#63b8ff" d="M155.98,-27.44C169.14,-26.15 182.8,-24.81 195.95,-23.52"/>
<polygon fill="#63b8ff" stroke="#63b8ff" points="196.23,-27.01 205.84,-22.55 195.54,-20.04 196.23,-27.01"/>
</a>
</g>
</g>
<!-- Node4 -->
<g id="Node000004" class="node">
<title>Node4</title>
<g id="a_Node000004"><a xlink:href="classParameters.html#ab06f51d4f6cecc5d4ca32f6a770fca12" target="_top" xlink:title=" ">
<polygon fill="white" stroke="#666666" points="524.25,-32 392,-32 392,0 524.25,0 524.25,-32"/>
<text text-anchor="start" x="400" y="-18.5" font-family="Helvetica,sans-Serif" font-size="10.00">Parameters::getResolution</text>
<text text-anchor="middle" x="458.12" y="-6.5" font-family="Helvetica,sans-Serif" font-size="10.00">String</text>
</a>
</g>
</g>
<!-- Node3&#45;&gt;Node4 -->
<g id="edge3_Node000003_Node000004" class="edge">
<title>Node3&#45;&gt;Node4</title>
<g id="a_edge3_Node000003_Node000004"><a xlink:title=" ">
<path fill="none" stroke="#63b8ff" d="M340.33,-16C353.21,-16 366.82,-16 380.03,-16"/>
<polygon fill="#63b8ff" stroke="#63b8ff" points="380,-19.5 390,-16 380,-12.5 380,-19.5"/>
</a>
</g>
</g>
</g>
</svg>
