<?xml version="1.0" encoding="UTF-8" standalone="no"?>
<!DOCTYPE svg PUBLIC "-//W3C//DTD SVG 1.1//EN"
 "http://www.w3.org/Graphics/SVG/1.1/DTD/svg11.dtd">
<!-- Generated by graphviz version 12.1.0 (20240811.2233)
 -->
<!-- Title: ParticleSystem::ParticleSystem Pages: 1 -->
<svg width="511pt" height="216pt"
 viewBox="0.00 0.00 510.50 216.00" xmlns="http://www.w3.org/2000/svg" xmlns:xlink="http://www.w3.org/1999/xlink">
<g id="graph0" class="graph" transform="scale(1 1) rotate(0) translate(4 212)">
<title>ParticleSystem::ParticleSystem</title>
<!-- Node1 -->
<g id="Node000001" class="node">
<title>Node1</title>
<g id="a_Node000001"><a xlink:title=" ">
<polygon fill="#999999" stroke="#666666" points="121.75,-120 0,-120 0,-88 121.75,-88 121.75,-120"/>
<text text-anchor="start" x="8" y="-106.5" font-family="Helvetica,sans-Serif" font-size="10.00">ParticleSystem::Particle</text>
<text text-anchor="middle" x="60.88" y="-94.5" font-family="Helvetica,sans-Serif" font-size="10.00">System</text>
</a>
</g>
</g>
<!-- Node2 -->
<g id="Node000002" class="node">
<title>Node2</title>
<g id="a_Node000002"><a xlink:href="classParticleSystem.html#aa446ccbbc59cb9dc98c3dce3b6aedd4a" target="_top" xlink:title=" ">
<polygon fill="white" stroke="#666666" points="308,-114 157.75,-114 157.75,-94 308,-94 308,-114"/>
<text text-anchor="middle" x="232.88" y="-100.5" font-family="Helvetica,sans-Serif" font-size="10.00">ParticleSystem::spawnParticle</text>
</a>
</g>
</g>
<!-- Node1&#45;&gt;Node2 -->
<g id="edge1_Node000001_Node000002" class="edge">
<title>Node1&#45;&gt;Node2</title>
<g id="a_edge1_Node000001_Node000002"><a xlink:title=" ">
<path fill="none" stroke="#63b8ff" d="M121.81,-104C129.61,-104 137.71,-104 145.83,-104"/>
<polygon fill="#63b8ff" stroke="#63b8ff" points="145.77,-107.5 155.77,-104 145.77,-100.5 145.77,-107.5"/>
</a>
</g>
</g>
<!-- Node3 -->
<g id="Node000003" class="node">
<title>Node3</title>
<g id="a_Node000003"><a xlink:href="classParticleSystem.html#a45c54539a80ca1de8f827e3c081f4dc0" target="_top" xlink:title=" ">
<polygon fill="white" stroke="#666666" points="492.75,-208 353.75,-208 353.75,-176 492.75,-176 492.75,-208"/>
<text text-anchor="start" x="361.75" y="-194.5" font-family="Helvetica,sans-Serif" font-size="10.00">ParticleSystem::getRandom</text>
<text text-anchor="middle" x="423.25" y="-182.5" font-family="Helvetica,sans-Serif" font-size="10.00">Color</text>
</a>
</g>
</g>
<!-- Node2&#45;&gt;Node3 -->
<g id="edge2_Node000002_Node000003" class="edge">
<title>Node2&#45;&gt;Node3</title>
<g id="a_edge2_Node000002_Node000003"><a xlink:title=" ">
<path fill="none" stroke="#63b8ff" d="M249.38,-114.27C270.21,-127.74 308.72,-151.48 344,-167 347.57,-168.57 351.27,-170.09 355.02,-171.55"/>
<polygon fill="#63b8ff" stroke="#63b8ff" points="353.71,-174.8 364.31,-174.99 356.14,-168.23 353.71,-174.8"/>
</a>
</g>
</g>
<!-- Node4 -->
<g id="Node000004" class="node">
<title>Node4</title>
<g id="a_Node000004"><a xlink:href="classParticleSystem.html#a0bfa46f2bc767edf8e857b6308708b31" target="_top" xlink:title=" ">
<polygon fill="white" stroke="#666666" points="500.62,-158 345.88,-158 345.88,-138 500.62,-138 500.62,-158"/>
<text text-anchor="middle" x="423.25" y="-144.5" font-family="Helvetica,sans-Serif" font-size="10.00">ParticleSystem::getRandomLife</text>
</a>
</g>
</g>
<!-- Node2&#45;&gt;Node4 -->
<g id="edge3_Node000002_Node000004" class="edge">
<title>Node2&#45;&gt;Node4</title>
<g id="a_edge3_Node000002_Node000004"><a xlink:title=" ">
<path fill="none" stroke="#63b8ff" d="M278.52,-114.43C304.93,-120.6 338.61,-128.46 366.73,-135.03"/>
<polygon fill="#63b8ff" stroke="#63b8ff" points="365.59,-138.36 376.13,-137.23 367.19,-131.54 365.59,-138.36"/>
</a>
</g>
</g>
<!-- Node5 -->
<g id="Node000005" class="node">
<title>Node5</title>
<g id="a_Node000005"><a xlink:href="classParticleSystem.html#ab46d7e29af8876dfa45f1e834e2dc2ee" target="_top" xlink:title=" ">
<polygon fill="white" stroke="#666666" points="492.75,-120 353.75,-120 353.75,-88 492.75,-88 492.75,-120"/>
<text text-anchor="start" x="361.75" y="-106.5" font-family="Helvetica,sans-Serif" font-size="10.00">ParticleSystem::getRandom</text>
<text text-anchor="middle" x="423.25" y="-94.5" font-family="Helvetica,sans-Serif" font-size="10.00">Position</text>
</a>
</g>
</g>
<!-- Node2&#45;&gt;Node5 -->
<g id="edge4_Node000002_Node000005" class="edge">
<title>Node2&#45;&gt;Node5</title>
<g id="a_edge4_Node000002_Node000005"><a xlink:title=" ">
<path fill="none" stroke="#63b8ff" d="M308.33,-104C319.51,-104 331.08,-104 342.37,-104"/>
<polygon fill="#63b8ff" stroke="#63b8ff" points="342.03,-107.5 352.03,-104 342.03,-100.5 342.03,-107.5"/>
</a>
</g>
</g>
<!-- Node6 -->
<g id="Node000006" class="node">
<title>Node6</title>
<g id="a_Node000006"><a xlink:href="classParticleSystem.html#a19c9832490b8c9b47ea11629b677663c" target="_top" xlink:title=" ">
<polygon fill="white" stroke="#666666" points="502.5,-70 344,-70 344,-50 502.5,-50 502.5,-70"/>
<text text-anchor="middle" x="423.25" y="-56.5" font-family="Helvetica,sans-Serif" font-size="10.00">ParticleSystem::getRandomSize</text>
</a>
</g>
</g>
<!-- Node2&#45;&gt;Node6 -->
<g id="edge5_Node000002_Node000006" class="edge">
<title>Node2&#45;&gt;Node6</title>
<g id="a_edge5_Node000002_Node000006"><a xlink:title=" ">
<path fill="none" stroke="#63b8ff" d="M278.52,-93.57C304.93,-87.4 338.61,-79.54 366.73,-72.97"/>
<polygon fill="#63b8ff" stroke="#63b8ff" points="367.19,-76.46 376.13,-70.77 365.59,-69.64 367.19,-76.46"/>
</a>
</g>
</g>
<!-- Node7 -->
<g id="Node000007" class="node">
<title>Node7</title>
<g id="a_Node000007"><a xlink:href="classParticleSystem.html#a37517ae9e46755a487c7e681ebaab64b" target="_top" xlink:title=" ">
<polygon fill="white" stroke="#666666" points="492.75,-32 353.75,-32 353.75,0 492.75,0 492.75,-32"/>
<text text-anchor="start" x="361.75" y="-18.5" font-family="Helvetica,sans-Serif" font-size="10.00">ParticleSystem::getRandom</text>
<text text-anchor="middle" x="423.25" y="-6.5" font-family="Helvetica,sans-Serif" font-size="10.00">Velocity</text>
</a>
</g>
</g>
<!-- Node2&#45;&gt;Node7 -->
<g id="edge6_Node000002_Node000007" class="edge">
<title>Node2&#45;&gt;Node7</title>
<g id="a_edge6_Node000002_Node000007"><a xlink:title=" ">
<path fill="none" stroke="#63b8ff" d="M249.38,-93.73C270.21,-80.26 308.72,-56.52 344,-41 347.57,-39.43 351.27,-37.91 355.02,-36.45"/>
<polygon fill="#63b8ff" stroke="#63b8ff" points="356.14,-39.77 364.31,-33.01 353.71,-33.2 356.14,-39.77"/>
</a>
</g>
</g>
</g>
</svg>
