<?xml version="1.0" encoding="UTF-8" standalone="no"?>
<!DOCTYPE svg PUBLIC "-//W3C//DTD SVG 1.1//EN"
 "http://www.w3.org/Graphics/SVG/1.1/DTD/svg11.dtd">
<!-- Generated by graphviz version 12.1.0 (20240811.2233)
 -->
<!-- Title: ParamButton::updatePositionAndSize Pages: 1 -->
<svg width="1139pt" height="99pt"
 viewBox="0.00 0.00 1139.25 99.09" xmlns="http://www.w3.org/2000/svg" xmlns:xlink="http://www.w3.org/1999/xlink">
<g id="graph0" class="graph" transform="scale(1 1) rotate(0) translate(4 95.09)">
<title>ParamButton::updatePositionAndSize</title>
<!-- Node1 -->
<g id="Node000001" class="node">
<title>Node1</title>
<g id="a_Node000001"><a xlink:title=" ">
<polygon fill="#999999" stroke="#666666" points="1131.25,-75.09 987.75,-75.09 987.75,-43.09 1131.25,-43.09 1131.25,-75.09"/>
<text text-anchor="start" x="995.75" y="-61.59" font-family="Helvetica,sans-Serif" font-size="10.00">ParamButton::updatePosition</text>
<text text-anchor="middle" x="1059.5" y="-49.59" font-family="Helvetica,sans-Serif" font-size="10.00">AndSize</text>
</a>
</g>
</g>
<!-- Node2 -->
<g id="Node000002" class="node">
<title>Node2</title>
<g id="a_Node000002"><a xlink:href="classGameManager.html#a932e6df46aa4d397f8f5d61f3c137bbd" target="_top" xlink:title=" ">
<polygon fill="white" stroke="#666666" points="741.88,-91.09 629.12,-91.09 629.12,-71.09 741.88,-71.09 741.88,-91.09"/>
<text text-anchor="middle" x="685.5" y="-77.59" font-family="Helvetica,sans-Serif" font-size="10.00">GameManager::render</text>
</a>
</g>
</g>
<!-- Node1&#45;&gt;Node2 -->
<g id="edge1_Node000001_Node000002" class="edge">
<title>Node1&#45;&gt;Node2</title>
<g id="a_edge1_Node000001_Node000002"><a xlink:title=" ">
<path fill="none" stroke="#63b8ff" d="M976.51,-63.94C905.37,-68.14 804.34,-74.12 742.23,-77.79"/>
<polygon fill="#63b8ff" stroke="#63b8ff" points="976.37,-67.45 986.14,-63.37 975.95,-60.46 976.37,-67.45"/>
</a>
</g>
</g>
<!-- Node4 -->
<g id="Node000004" class="node">
<title>Node4</title>
<g id="a_Node000004"><a xlink:href="classGameManager.html#aa6e344f27f1a762c8a60decd4dea71f2" target="_top" xlink:title=" ">
<polygon fill="white" stroke="#666666" points="951.75,-50.09 796.25,-50.09 796.25,-30.09 951.75,-30.09 951.75,-50.09"/>
<text text-anchor="middle" x="874" y="-36.59" font-family="Helvetica,sans-Serif" font-size="10.00">GameManager::updatePositions</text>
</a>
</g>
</g>
<!-- Node1&#45;&gt;Node4 -->
<g id="edge3_Node000001_Node000004" class="edge">
<title>Node1&#45;&gt;Node4</title>
<g id="a_edge3_Node000001_Node000004"><a xlink:title=" ">
<path fill="none" stroke="#63b8ff" d="M976.04,-50.55C968.02,-49.72 959.91,-48.88 951.94,-48.06"/>
<polygon fill="#63b8ff" stroke="#63b8ff" points="975.48,-54.01 985.79,-51.56 976.2,-47.05 975.48,-54.01"/>
</a>
</g>
</g>
<!-- Node3 -->
<g id="Node000003" class="node">
<title>Node3</title>
<g id="a_Node000003"><a xlink:href="Client_2src_2main_8cpp.html#ae66f6b31b5ad750f1fe042a706a4e3d4" target="_top" xlink:title=" ">
<polygon fill="white" stroke="#666666" points="37,-69.09 0,-69.09 0,-49.09 37,-49.09 37,-69.09"/>
<text text-anchor="middle" x="18.5" y="-55.59" font-family="Helvetica,sans-Serif" font-size="10.00">main</text>
</a>
</g>
</g>
<!-- Node2&#45;&gt;Node3 -->
<g id="edge2_Node000002_Node000003" class="edge">
<title>Node2&#45;&gt;Node3</title>
<g id="a_edge2_Node000002_Node000003"><a xlink:title=" ">
<path fill="none" stroke="#63b8ff" d="M617.5,-78.87C469.29,-73.97 120.25,-62.42 37.38,-59.68"/>
<polygon fill="#63b8ff" stroke="#63b8ff" points="617.04,-82.36 627.15,-79.19 617.27,-75.36 617.04,-82.36"/>
</a>
</g>
</g>
<!-- Node5 -->
<g id="Node000005" class="node">
<title>Node5</title>
<g id="a_Node000005"><a xlink:href="classGameManager.html#a0a220f16a3e2d31baa08c03bec5c88b6" target="_top" xlink:title=" ">
<polygon fill="white" stroke="#666666" points="760.25,-53.09 610.75,-53.09 610.75,-21.09 760.25,-21.09 760.25,-53.09"/>
<text text-anchor="start" x="618.75" y="-39.59" font-family="Helvetica,sans-Serif" font-size="10.00">GameManager::handleWindow</text>
<text text-anchor="middle" x="685.5" y="-27.59" font-family="Helvetica,sans-Serif" font-size="10.00">Resize</text>
</a>
</g>
</g>
<!-- Node4&#45;&gt;Node5 -->
<g id="edge4_Node000004_Node000005" class="edge">
<title>Node4&#45;&gt;Node5</title>
<g id="a_edge4_Node000004_Node000005"><a xlink:title=" ">
<path fill="none" stroke="#63b8ff" d="M784.55,-38.67C776.55,-38.54 768.5,-38.41 760.65,-38.28"/>
<polygon fill="#63b8ff" stroke="#63b8ff" points="784.23,-42.16 794.28,-38.82 784.34,-35.16 784.23,-42.16"/>
</a>
</g>
</g>
<!-- Node6 -->
<g id="Node000006" class="node">
<title>Node6</title>
<g id="a_Node000006"><a xlink:href="classGameManager.html#a948792a1ef6f0a0c8c21fae779c4b525" target="_top" xlink:title=" ">
<polygon fill="white" stroke="#666666" points="574.75,-53.09 433.5,-53.09 433.5,-21.09 574.75,-21.09 574.75,-53.09"/>
<text text-anchor="start" x="441.5" y="-39.59" font-family="Helvetica,sans-Serif" font-size="10.00">GameManager::applyCurrent</text>
<text text-anchor="middle" x="504.12" y="-27.59" font-family="Helvetica,sans-Serif" font-size="10.00">Resolution</text>
</a>
</g>
</g>
<!-- Node5&#45;&gt;Node6 -->
<g id="edge5_Node000005_Node000006" class="edge">
<title>Node5&#45;&gt;Node6</title>
<g id="a_edge5_Node000005_Node000006"><a xlink:title=" ">
<path fill="none" stroke="#63b8ff" d="M599.2,-37.09C591.16,-37.09 583.07,-37.09 575.2,-37.09"/>
<polygon fill="#63b8ff" stroke="#63b8ff" points="598.99,-40.59 608.99,-37.09 598.99,-33.59 598.99,-40.59"/>
</a>
</g>
</g>
<!-- Node8 -->
<g id="Node000008" class="node">
<title>Node8</title>
<g id="a_Node000008"><a xlink:href="classGameManager.html#a6cea7fca5fecdd4f8a32912d4bfc233f" target="_top" xlink:title=" ">
<polygon fill="white" stroke="#666666" points="218,-47.09 73,-47.09 73,-27.09 218,-27.09 218,-47.09"/>
<text text-anchor="middle" x="145.5" y="-33.59" font-family="Helvetica,sans-Serif" font-size="10.00">GameManager::handleEvents</text>
</a>
</g>
</g>
<!-- Node5&#45;&gt;Node8 -->
<g id="edge9_Node000005_Node000008" class="edge">
<title>Node5&#45;&gt;Node8</title>
<g id="a_edge9_Node000005_Node000008"><a xlink:title=" ">
<path fill="none" stroke="#63b8ff" d="M612.15,-18.2C599.75,-15.66 586.94,-13.46 574.75,-12.09 433.09,3.84 395.63,4.16 254,-12.09 229.63,-14.88 202.76,-21.13 181.98,-26.69"/>
<polygon fill="#63b8ff" stroke="#63b8ff" points="611.39,-21.62 621.91,-20.3 612.87,-14.78 611.39,-21.62"/>
</a>
</g>
</g>
<!-- Node7 -->
<g id="Node000007" class="node">
<title>Node7</title>
<g id="a_Node000007"><a xlink:href="classGameManager.html#aeed1dd73db1c39b2e39d30d9d37c1f6c" target="_top" xlink:title=" ">
<polygon fill="white" stroke="#666666" points="397.5,-53.09 254,-53.09 254,-21.09 397.5,-21.09 397.5,-53.09"/>
<text text-anchor="start" x="262" y="-39.59" font-family="Helvetica,sans-Serif" font-size="10.00">GameManager::handleMouse</text>
<text text-anchor="middle" x="325.75" y="-27.59" font-family="Helvetica,sans-Serif" font-size="10.00">Click</text>
</a>
</g>
</g>
<!-- Node6&#45;&gt;Node7 -->
<g id="edge6_Node000006_Node000007" class="edge">
<title>Node6&#45;&gt;Node7</title>
<g id="a_edge6_Node000006_Node000007"><a xlink:title=" ">
<path fill="none" stroke="#63b8ff" d="M421.87,-37.09C413.83,-37.09 405.71,-37.09 397.78,-37.09"/>
<polygon fill="#63b8ff" stroke="#63b8ff" points="421.65,-40.59 431.65,-37.09 421.65,-33.59 421.65,-40.59"/>
</a>
</g>
</g>
<!-- Node7&#45;&gt;Node8 -->
<g id="edge7_Node000007_Node000008" class="edge">
<title>Node7&#45;&gt;Node8</title>
<g id="a_edge7_Node000007_Node000008"><a xlink:title=" ">
<path fill="none" stroke="#63b8ff" d="M242.07,-37.09C234.19,-37.09 226.24,-37.09 218.48,-37.09"/>
<polygon fill="#63b8ff" stroke="#63b8ff" points="242.02,-40.59 252.02,-37.09 242.02,-33.59 242.02,-40.59"/>
</a>
</g>
</g>
<!-- Node8&#45;&gt;Node3 -->
<g id="edge8_Node000008_Node000003" class="edge">
<title>Node8&#45;&gt;Node3</title>
<g id="a_edge8_Node000008_Node000003"><a xlink:title=" ">
<path fill="none" stroke="#63b8ff" d="M73.96,-49.5C60.35,-51.9 47.26,-54.2 37.33,-55.95"/>
<polygon fill="#63b8ff" stroke="#63b8ff" points="74.2,-53.02 83.44,-47.84 72.98,-46.12 74.2,-53.02"/>
</a>
</g>
</g>
</g>
</svg>
