<?xml version="1.0" encoding="UTF-8" standalone="no"?>
<!DOCTYPE svg PUBLIC "-//W3C//DTD SVG 1.1//EN"
 "http://www.w3.org/Graphics/SVG/1.1/DTD/svg11.dtd">
<!-- Generated by graphviz version 12.1.0 (20240811.2233)
 -->
<!-- Title: GameManager::applyCurrentResolution Pages: 1 -->
<svg width="757pt" height="306pt"
 viewBox="0.00 0.00 756.75 306.00" xmlns="http://www.w3.org/2000/svg" xmlns:xlink="http://www.w3.org/1999/xlink">
<g id="graph0" class="graph" transform="scale(1 1) rotate(0) translate(4 302)">
<title>GameManager::applyCurrentResolution</title>
<!-- Node1 -->
<g id="Node000001" class="node">
<title>Node1</title>
<g id="a_Node000001"><a xlink:title=" ">
<polygon fill="#999999" stroke="#666666" points="141.25,-225 0,-225 0,-193 141.25,-193 141.25,-225"/>
<text text-anchor="start" x="8" y="-211.5" font-family="Helvetica,sans-Serif" font-size="10.00">GameManager::applyCurrent</text>
<text text-anchor="middle" x="70.62" y="-199.5" font-family="Helvetica,sans-Serif" font-size="10.00">Resolution</text>
</a>
</g>
</g>
<!-- Node2 -->
<g id="Node000002" class="node">
<title>Node2</title>
<g id="a_Node000002"><a xlink:href="classParameters.html#a0cd03e2bf5323f95c2d64ca8472e019b" target="_top" xlink:title=" ">
<polygon fill="white" stroke="#666666" points="352.25,-276 177.25,-276 177.25,-256 352.25,-256 352.25,-276"/>
<text text-anchor="middle" x="264.75" y="-262.5" font-family="Helvetica,sans-Serif" font-size="10.00">Parameters::getCurrentDisplayMode</text>
</a>
</g>
</g>
<!-- Node1&#45;&gt;Node2 -->
<g id="edge1_Node000001_Node000002" class="edge">
<title>Node1&#45;&gt;Node2</title>
<g id="a_edge1_Node000001_Node000002"><a xlink:title=" ">
<path fill="none" stroke="#63b8ff" d="M113.36,-225.42C132.62,-232.63 155.9,-240.84 177.25,-247 184.5,-249.09 192.14,-251.08 199.76,-252.92"/>
<polygon fill="#63b8ff" stroke="#63b8ff" points="198.86,-256.31 209.4,-255.18 200.46,-249.49 198.86,-256.31"/>
</a>
</g>
</g>
<!-- Node3 -->
<g id="Node000003" class="node">
<title>Node3</title>
<g id="a_Node000003"><a xlink:href="classParameters.html#a679561c2f5dfe92294135e7bcf71f531" target="_top" xlink:title=" ">
<polygon fill="white" stroke="#666666" points="347,-238 182.5,-238 182.5,-218 347,-218 347,-238"/>
<text text-anchor="middle" x="264.75" y="-224.5" font-family="Helvetica,sans-Serif" font-size="10.00">Parameters::getCurrentResolution</text>
</a>
</g>
</g>
<!-- Node1&#45;&gt;Node3 -->
<g id="edge2_Node000001_Node000003" class="edge">
<title>Node1&#45;&gt;Node3</title>
<g id="a_edge2_Node000001_Node000003"><a xlink:title=" ">
<path fill="none" stroke="#63b8ff" d="M141.53,-215.91C151.12,-216.86 161.08,-217.85 171,-218.83"/>
<polygon fill="#63b8ff" stroke="#63b8ff" points="170.35,-222.28 180.65,-219.78 171.04,-215.31 170.35,-222.28"/>
</a>
</g>
</g>
<!-- Node4 -->
<g id="Node000004" class="node">
<title>Node4</title>
<g id="a_Node000004"><a xlink:href="classParameters.html#aa9813f7dd967628e4a5fbb7188c8675b" target="_top" xlink:title=" ">
<polygon fill="white" stroke="#666666" points="340.62,-200 188.88,-200 188.88,-180 340.62,-180 340.62,-200"/>
<text text-anchor="middle" x="264.75" y="-186.5" font-family="Helvetica,sans-Serif" font-size="10.00">Parameters::getResolutionSize</text>
</a>
</g>
</g>
<!-- Node1&#45;&gt;Node4 -->
<g id="edge3_Node000001_Node000004" class="edge">
<title>Node1&#45;&gt;Node4</title>
<g id="a_edge3_Node000001_Node000004"><a xlink:title=" ">
<path fill="none" stroke="#63b8ff" d="M141.53,-202.09C153.08,-200.95 165.17,-199.75 177.06,-198.57"/>
<polygon fill="#63b8ff" stroke="#63b8ff" points="177.27,-202.07 186.88,-197.6 176.59,-195.1 177.27,-202.07"/>
</a>
</g>
</g>
<!-- Node5 -->
<g id="Node000005" class="node">
<title>Node5</title>
<g id="a_Node000005"><a xlink:href="classGameManager.html#a0a220f16a3e2d31baa08c03bec5c88b6" target="_top" xlink:title=" ">
<polygon fill="white" stroke="#666666" points="339.5,-162 190,-162 190,-130 339.5,-130 339.5,-162"/>
<text text-anchor="start" x="198" y="-148.5" font-family="Helvetica,sans-Serif" font-size="10.00">GameManager::handleWindow</text>
<text text-anchor="middle" x="264.75" y="-136.5" font-family="Helvetica,sans-Serif" font-size="10.00">Resize</text>
</a>
</g>
</g>
<!-- Node1&#45;&gt;Node5 -->
<g id="edge4_Node000001_Node000005" class="edge">
<title>Node1&#45;&gt;Node5</title>
<g id="a_edge4_Node000001_Node000005"><a xlink:title=" ">
<path fill="none" stroke="#63b8ff" d="M115.35,-192.56C134.28,-185.63 156.76,-177.64 177.25,-171 182.69,-169.24 188.34,-167.47 194.02,-165.73"/>
<polygon fill="#63b8ff" stroke="#63b8ff" points="194.95,-169.11 203.52,-162.88 192.93,-162.41 194.95,-169.11"/>
</a>
</g>
</g>
<!-- Node6 -->
<g id="Node000006" class="node">
<title>Node6</title>
<g id="a_Node000006"><a xlink:href="classParamButton.html#a8d13151ad6cbd6c9e40af00f97782368" target="_top" xlink:title=" ">
<polygon fill="white" stroke="#666666" points="549.75,-298 399.5,-298 399.5,-278 549.75,-278 549.75,-298"/>
<text text-anchor="middle" x="474.62" y="-284.5" font-family="Helvetica,sans-Serif" font-size="10.00">ParamButton::setupVolumeBar</text>
</a>
</g>
</g>
<!-- Node5&#45;&gt;Node6 -->
<g id="edge5_Node000005_Node000006" class="edge">
<title>Node5&#45;&gt;Node6</title>
<g id="a_edge5_Node000005_Node000006"><a xlink:title=" ">
<path fill="none" stroke="#63b8ff" d="M339.65,-161.93C344.18,-164.52 348.45,-167.52 352.25,-171 384.94,-200.93 355.45,-234.19 388.25,-264 391.84,-267.26 395.84,-270.08 400.09,-272.53"/>
<polygon fill="#63b8ff" stroke="#63b8ff" points="398.52,-275.66 409.04,-276.9 401.59,-269.36 398.52,-275.66"/>
</a>
</g>
</g>
<!-- Node7 -->
<g id="Node000007" class="node">
<title>Node7</title>
<g id="a_Node000007"><a xlink:href="classButton.html#ac28684e1eb644f7121492812f5e83471" target="_top" xlink:title=" ">
<polygon fill="white" stroke="#666666" points="748.75,-260 597,-260 597,-240 748.75,-240 748.75,-260"/>
<text text-anchor="middle" x="672.88" y="-246.5" font-family="Helvetica,sans-Serif" font-size="10.00">Button::updatePositionAndSize</text>
</a>
</g>
</g>
<!-- Node5&#45;&gt;Node7 -->
<g id="edge6_Node000005_Node000007" class="edge">
<title>Node5&#45;&gt;Node7</title>
<g id="a_edge6_Node000005_Node000007"><a xlink:title=" ">
<path fill="none" stroke="#63b8ff" d="M338.58,-162.48C343.42,-164.94 348.04,-167.76 352.25,-171 376.9,-189.97 361.72,-214.78 388.25,-231 453.82,-271.08 544.56,-269.43 605.59,-261.99"/>
<polygon fill="#63b8ff" stroke="#63b8ff" points="606.04,-265.46 615.5,-260.68 605.13,-258.52 606.04,-265.46"/>
</a>
</g>
</g>
<!-- Node8 -->
<g id="Node000008" class="node">
<title>Node8</title>
<g id="a_Node000008"><a xlink:href="classGameManager.html#aa6e344f27f1a762c8a60decd4dea71f2" target="_top" xlink:title=" ">
<polygon fill="white" stroke="#666666" points="552.38,-222 396.88,-222 396.88,-202 552.38,-202 552.38,-222"/>
<text text-anchor="middle" x="474.62" y="-208.5" font-family="Helvetica,sans-Serif" font-size="10.00">GameManager::updatePositions</text>
</a>
</g>
</g>
<!-- Node5&#45;&gt;Node8 -->
<g id="edge7_Node000005_Node000008" class="edge">
<title>Node5&#45;&gt;Node8</title>
<g id="a_edge7_Node000005_Node000008"><a xlink:title=" ">
<path fill="none" stroke="#63b8ff" d="M329.75,-162.39C337.44,-164.98 345.1,-167.85 352.25,-171 369.41,-178.56 370.86,-185.98 388.25,-193 393.18,-194.99 398.36,-196.79 403.63,-198.42"/>
<polygon fill="#63b8ff" stroke="#63b8ff" points="402.49,-201.74 413.07,-201.11 404.41,-195 402.49,-201.74"/>
</a>
</g>
</g>
<!-- Node10 -->
<g id="Node000010" class="node">
<title>Node10</title>
<g id="a_Node000010"><a xlink:href="classGameManager.html#aa0ef44b3392b1d25e06302865070d283" target="_top" xlink:title=" ">
<polygon fill="white" stroke="#666666" points="546.38,-184 402.88,-184 402.88,-152 546.38,-152 546.38,-184"/>
<text text-anchor="start" x="410.88" y="-170.5" font-family="Helvetica,sans-Serif" font-size="10.00">GameManager::updateStatus</text>
<text text-anchor="middle" x="474.62" y="-158.5" font-family="Helvetica,sans-Serif" font-size="10.00">TextPosition</text>
</a>
</g>
</g>
<!-- Node5&#45;&gt;Node10 -->
<g id="edge10_Node000005_Node000010" class="edge">
<title>Node5&#45;&gt;Node10</title>
<g id="a_edge10_Node000005_Node000010"><a xlink:title=" ">
<path fill="none" stroke="#63b8ff" d="M339.92,-153.85C356.66,-155.62 374.52,-157.51 391.56,-159.31"/>
<polygon fill="#63b8ff" stroke="#63b8ff" points="390.8,-162.75 401.12,-160.33 391.54,-155.79 390.8,-162.75"/>
</a>
</g>
</g>
<!-- Node11 -->
<g id="Node000011" class="node">
<title>Node11</title>
<g id="a_Node000011"><a xlink:href="classErrorServer.html#aa15372919d65fa1e10df53b84bb008e3" target="_top" xlink:title=" ">
<polygon fill="white" stroke="#666666" points="552.38,-134 396.88,-134 396.88,-114 552.38,-114 552.38,-134"/>
<text text-anchor="middle" x="474.62" y="-120.5" font-family="Helvetica,sans-Serif" font-size="10.00">ErrorServer::updateWindowSize</text>
</a>
</g>
</g>
<!-- Node5&#45;&gt;Node11 -->
<g id="edge11_Node000005_Node000011" class="edge">
<title>Node5&#45;&gt;Node11</title>
<g id="a_edge11_Node000005_Node000011"><a xlink:title=" ">
<path fill="none" stroke="#63b8ff" d="M339.92,-138.15C354.6,-136.6 370.14,-134.95 385.24,-133.35"/>
<polygon fill="#63b8ff" stroke="#63b8ff" points="385.6,-136.84 395.17,-132.3 384.86,-129.87 385.6,-136.84"/>
</a>
</g>
</g>
<!-- Node13 -->
<g id="Node000013" class="node">
<title>Node13</title>
<g id="a_Node000013"><a xlink:href="classLaunch.html#a51dac7ef34ef63731b82636b52817cb4" target="_top" xlink:title=" ">
<polygon fill="white" stroke="#666666" points="543.38,-96 405.88,-96 405.88,-76 543.38,-76 543.38,-96"/>
<text text-anchor="middle" x="474.62" y="-82.5" font-family="Helvetica,sans-Serif" font-size="10.00">Launch::updateWindowSize</text>
</a>
</g>
</g>
<!-- Node5&#45;&gt;Node13 -->
<g id="edge13_Node000005_Node000013" class="edge">
<title>Node5&#45;&gt;Node13</title>
<g id="a_edge13_Node000005_Node000013"><a xlink:title=" ">
<path fill="none" stroke="#63b8ff" d="M311.07,-129.58C334.02,-121.58 362.43,-112.17 388.25,-105 395.71,-102.93 403.58,-100.93 411.41,-99.05"/>
<polygon fill="#63b8ff" stroke="#63b8ff" points="411.98,-102.51 420.92,-96.84 410.39,-95.7 411.98,-102.51"/>
</a>
</g>
</g>
<!-- Node15 -->
<g id="Node000015" class="node">
<title>Node15</title>
<g id="a_Node000015"><a xlink:href="classParticleSystem.html#ab16846d63b08d7fda5cdc6e897913d03" target="_top" xlink:title=" ">
<polygon fill="white" stroke="#666666" points="561,-58 388.25,-58 388.25,-38 561,-38 561,-58"/>
<text text-anchor="middle" x="474.62" y="-44.5" font-family="Helvetica,sans-Serif" font-size="10.00">ParticleSystem::updateWindowSize</text>
</a>
</g>
</g>
<!-- Node5&#45;&gt;Node15 -->
<g id="edge15_Node000005_Node000015" class="edge">
<title>Node5&#45;&gt;Node15</title>
<g id="a_edge15_Node000005_Node000015"><a xlink:title=" ">
<path fill="none" stroke="#63b8ff" d="M286.15,-129.58C309.49,-111.61 349.49,-83.2 388.25,-67 393.07,-64.98 398.15,-63.17 403.31,-61.53"/>
<polygon fill="#63b8ff" stroke="#63b8ff" points="403.92,-65 412.54,-58.84 401.96,-58.28 403.92,-65"/>
</a>
</g>
</g>
<!-- Node16 -->
<g id="Node000016" class="node">
<title>Node16</title>
<g id="a_Node000016"><a xlink:href="classPlayer.html#a50451ee8e2220be61ddb24f2706f2290" target="_top" xlink:title=" ">
<polygon fill="white" stroke="#666666" points="541.5,-20 407.75,-20 407.75,0 541.5,0 541.5,-20"/>
<text text-anchor="middle" x="474.62" y="-6.5" font-family="Helvetica,sans-Serif" font-size="10.00">Player::updateWindowSize</text>
</a>
</g>
</g>
<!-- Node5&#45;&gt;Node16 -->
<g id="edge16_Node000005_Node000016" class="edge">
<title>Node5&#45;&gt;Node16</title>
<g id="a_edge16_Node000005_Node000016"><a xlink:title=" ">
<path fill="none" stroke="#63b8ff" d="M277.72,-129.91C297.66,-104.32 340.26,-54.64 388.25,-29 391.46,-27.28 394.83,-25.72 398.28,-24.3"/>
<polygon fill="#63b8ff" stroke="#63b8ff" points="399.24,-27.67 407.44,-20.96 396.84,-21.1 399.24,-27.67"/>
</a>
</g>
</g>
<!-- Node8&#45;&gt;Node7 -->
<g id="edge8_Node000008_Node000007" class="edge">
<title>Node8&#45;&gt;Node7</title>
<g id="a_edge8_Node000008_Node000007"><a xlink:title=" ">
<path fill="none" stroke="#63b8ff" d="M529.77,-222.48C553.58,-227.09 581.75,-232.55 606.7,-237.38"/>
<polygon fill="#63b8ff" stroke="#63b8ff" points="605.94,-240.8 616.42,-239.26 607.27,-233.92 605.94,-240.8"/>
</a>
</g>
</g>
<!-- Node9 -->
<g id="Node000009" class="node">
<title>Node9</title>
<g id="a_Node000009"><a xlink:href="classParamButton.html#a26d084094df8af9988e99861e713f561" target="_top" xlink:title=" ">
<polygon fill="white" stroke="#666666" points="744.62,-222 601.12,-222 601.12,-190 744.62,-190 744.62,-222"/>
<text text-anchor="start" x="609.12" y="-208.5" font-family="Helvetica,sans-Serif" font-size="10.00">ParamButton::updatePosition</text>
<text text-anchor="middle" x="672.88" y="-196.5" font-family="Helvetica,sans-Serif" font-size="10.00">AndSize</text>
</a>
</g>
</g>
<!-- Node8&#45;&gt;Node9 -->
<g id="edge9_Node000008_Node000009" class="edge">
<title>Node8&#45;&gt;Node9</title>
<g id="a_edge9_Node000008_Node000009"><a xlink:title=" ">
<path fill="none" stroke="#63b8ff" d="M552.62,-209.65C564.79,-209.27 577.42,-208.89 589.7,-208.51"/>
<polygon fill="#63b8ff" stroke="#63b8ff" points="589.45,-212.02 599.34,-208.22 589.24,-205.02 589.45,-212.02"/>
</a>
</g>
</g>
<!-- Node12 -->
<g id="Node000012" class="node">
<title>Node12</title>
<g id="a_Node000012"><a xlink:href="classErrorServer.html#a404c80b1d4794111a3b3d5a75a67575e" target="_top" xlink:title=" ">
<polygon fill="white" stroke="#666666" points="732.62,-134 613.12,-134 613.12,-114 732.62,-114 732.62,-134"/>
<text text-anchor="middle" x="672.88" y="-120.5" font-family="Helvetica,sans-Serif" font-size="10.00">ErrorServer::centerLogo</text>
</a>
</g>
</g>
<!-- Node11&#45;&gt;Node12 -->
<g id="edge12_Node000011_Node000012" class="edge">
<title>Node11&#45;&gt;Node12</title>
<g id="a_edge12_Node000011_Node000012"><a xlink:title=" ">
<path fill="none" stroke="#63b8ff" d="M552.62,-124C568.7,-124 585.56,-124 601.39,-124"/>
<polygon fill="#63b8ff" stroke="#63b8ff" points="601.18,-127.5 611.18,-124 601.18,-120.5 601.18,-127.5"/>
</a>
</g>
</g>
<!-- Node14 -->
<g id="Node000014" class="node">
<title>Node14</title>
<g id="a_Node000014"><a xlink:href="classLaunch.html#ae9147199644338655660e8f6fd0be189" target="_top" xlink:title=" ">
<polygon fill="white" stroke="#666666" points="723.62,-96 622.12,-96 622.12,-76 723.62,-76 723.62,-96"/>
<text text-anchor="middle" x="672.88" y="-82.5" font-family="Helvetica,sans-Serif" font-size="10.00">Launch::centerLogo</text>
</a>
</g>
</g>
<!-- Node13&#45;&gt;Node14 -->
<g id="edge14_Node000013_Node000014" class="edge">
<title>Node13&#45;&gt;Node14</title>
<g id="a_edge14_Node000013_Node000014"><a xlink:title=" ">
<path fill="none" stroke="#63b8ff" d="M543.71,-86C565.38,-86 589.22,-86 610.39,-86"/>
<polygon fill="#63b8ff" stroke="#63b8ff" points="610.34,-89.5 620.34,-86 610.34,-82.5 610.34,-89.5"/>
</a>
</g>
</g>
<!-- Node17 -->
<g id="Node000017" class="node">
<title>Node17</title>
<g id="a_Node000017"><a xlink:href="classPlayer.html#a16e1b8e2e944502ce79e413606c965df" target="_top" xlink:title=" ">
<polygon fill="white" stroke="#666666" points="724.75,-20 621,-20 621,0 724.75,0 724.75,-20"/>
<text text-anchor="middle" x="672.88" y="-6.5" font-family="Helvetica,sans-Serif" font-size="10.00">Player::centerImage</text>
</a>
</g>
</g>
<!-- Node16&#45;&gt;Node17 -->
<g id="edge17_Node000016_Node000017" class="edge">
<title>Node16&#45;&gt;Node17</title>
<g id="a_edge17_Node000016_Node000017"><a xlink:title=" ">
<path fill="none" stroke="#63b8ff" d="M541.79,-10C563.58,-10 587.73,-10 609.25,-10"/>
<polygon fill="#63b8ff" stroke="#63b8ff" points="609.05,-13.5 619.05,-10 609.05,-6.5 609.05,-13.5"/>
</a>
</g>
</g>
</g>
</svg>
