<?xml version="1.0" encoding="UTF-8" standalone="no"?>
<!DOCTYPE svg PUBLIC "-//W3C//DTD SVG 1.1//EN"
 "http://www.w3.org/Graphics/SVG/1.1/DTD/svg11.dtd">
<!-- Generated by graphviz version 12.1.0 (20240811.2233)
 -->
<!-- Title: Parameters::getCurrentResolution Pages: 1 -->
<svg width="798pt" height="78pt"
 viewBox="0.00 0.00 797.50 78.00" xmlns="http://www.w3.org/2000/svg" xmlns:xlink="http://www.w3.org/1999/xlink">
<g id="graph0" class="graph" transform="scale(1 1) rotate(0) translate(4 74)">
<title>Parameters::getCurrentResolution</title>
<!-- Node1 -->
<g id="Node000001" class="node">
<title>Node1</title>
<g id="a_Node000001"><a xlink:title=" ">
<polygon fill="#999999" stroke="#666666" points="789.5,-42 625,-42 625,-22 789.5,-22 789.5,-42"/>
<text text-anchor="middle" x="707.25" y="-28.5" font-family="Helvetica,sans-Serif" font-size="10.00">Parameters::getCurrentResolution</text>
</a>
</g>
</g>
<!-- Node2 -->
<g id="Node000002" class="node">
<title>Node2</title>
<g id="a_Node000002"><a xlink:href="classGameManager.html#a948792a1ef6f0a0c8c21fae779c4b525" target="_top" xlink:title=" ">
<polygon fill="white" stroke="#666666" points="581.88,-70 440.62,-70 440.62,-38 581.88,-38 581.88,-70"/>
<text text-anchor="start" x="448.62" y="-56.5" font-family="Helvetica,sans-Serif" font-size="10.00">GameManager::applyCurrent</text>
<text text-anchor="middle" x="511.25" y="-44.5" font-family="Helvetica,sans-Serif" font-size="10.00">Resolution</text>
</a>
</g>
</g>
<!-- Node1&#45;&gt;Node2 -->
<g id="edge1_Node000001_Node000002" class="edge">
<title>Node1&#45;&gt;Node2</title>
<g id="a_edge1_Node000001_Node000002"><a xlink:title=" ">
<path fill="none" stroke="#63b8ff" d="M613.25,-42.55C602.8,-43.73 592.28,-44.92 582.19,-46.07"/>
<polygon fill="#63b8ff" stroke="#63b8ff" points="613.49,-46.04 623.03,-41.44 612.7,-39.09 613.49,-46.04"/>
</a>
</g>
</g>
<!-- Node6 -->
<g id="Node000006" class="node">
<title>Node6</title>
<g id="a_Node000006"><a xlink:href="classGameManager.html#aadc216c110deaa25eb19de55f8a1056a" target="_top" xlink:title=" ">
<polygon fill="white" stroke="#666666" points="589,-20 433.5,-20 433.5,0 589,0 589,-20"/>
<text text-anchor="middle" x="511.25" y="-6.5" font-family="Helvetica,sans-Serif" font-size="10.00">GameManager::cycleResolution</text>
</a>
</g>
</g>
<!-- Node1&#45;&gt;Node6 -->
<g id="edge5_Node000001_Node000006" class="edge">
<title>Node1&#45;&gt;Node6</title>
<g id="a_edge5_Node000001_Node000006"><a xlink:title=" ">
<path fill="none" stroke="#63b8ff" d="M613.22,-21.45C605.19,-20.54 597.11,-19.62 589.23,-18.73"/>
<polygon fill="#63b8ff" stroke="#63b8ff" points="612.7,-24.91 623.03,-22.56 613.49,-17.96 612.7,-24.91"/>
</a>
</g>
</g>
<!-- Node3 -->
<g id="Node000003" class="node">
<title>Node3</title>
<g id="a_Node000003"><a xlink:href="classGameManager.html#aeed1dd73db1c39b2e39d30d9d37c1f6c" target="_top" xlink:title=" ">
<polygon fill="white" stroke="#666666" points="397.5,-48 254,-48 254,-16 397.5,-16 397.5,-48"/>
<text text-anchor="start" x="262" y="-34.5" font-family="Helvetica,sans-Serif" font-size="10.00">GameManager::handleMouse</text>
<text text-anchor="middle" x="325.75" y="-22.5" font-family="Helvetica,sans-Serif" font-size="10.00">Click</text>
</a>
</g>
</g>
<!-- Node2&#45;&gt;Node3 -->
<g id="edge2_Node000002_Node000003" class="edge">
<title>Node2&#45;&gt;Node3</title>
<g id="a_edge2_Node000002_Node000003"><a xlink:title=" ">
<path fill="none" stroke="#63b8ff" d="M429.17,-44.28C418.78,-43.03 408.2,-41.76 397.97,-40.54"/>
<polygon fill="#63b8ff" stroke="#63b8ff" points="428.5,-47.72 438.85,-45.44 429.34,-40.77 428.5,-47.72"/>
</a>
</g>
</g>
<!-- Node4 -->
<g id="Node000004" class="node">
<title>Node4</title>
<g id="a_Node000004"><a xlink:href="classGameManager.html#a6cea7fca5fecdd4f8a32912d4bfc233f" target="_top" xlink:title=" ">
<polygon fill="white" stroke="#666666" points="218,-42 73,-42 73,-22 218,-22 218,-42"/>
<text text-anchor="middle" x="145.5" y="-28.5" font-family="Helvetica,sans-Serif" font-size="10.00">GameManager::handleEvents</text>
</a>
</g>
</g>
<!-- Node3&#45;&gt;Node4 -->
<g id="edge3_Node000003_Node000004" class="edge">
<title>Node3&#45;&gt;Node4</title>
<g id="a_edge3_Node000003_Node000004"><a xlink:title=" ">
<path fill="none" stroke="#63b8ff" d="M242.07,-32C234.19,-32 226.24,-32 218.48,-32"/>
<polygon fill="#63b8ff" stroke="#63b8ff" points="242.02,-35.5 252.02,-32 242.02,-28.5 242.02,-35.5"/>
</a>
</g>
</g>
<!-- Node5 -->
<g id="Node000005" class="node">
<title>Node5</title>
<g id="a_Node000005"><a xlink:href="Client_2src_2main_8cpp.html#ae66f6b31b5ad750f1fe042a706a4e3d4" target="_top" xlink:title=" ">
<polygon fill="white" stroke="#666666" points="37,-42 0,-42 0,-22 37,-22 37,-42"/>
<text text-anchor="middle" x="18.5" y="-28.5" font-family="Helvetica,sans-Serif" font-size="10.00">main</text>
</a>
</g>
</g>
<!-- Node4&#45;&gt;Node5 -->
<g id="edge4_Node000004_Node000005" class="edge">
<title>Node4&#45;&gt;Node5</title>
<g id="a_edge4_Node000004_Node000005"><a xlink:title=" ">
<path fill="none" stroke="#63b8ff" d="M61.12,-32C52.34,-32 44.18,-32 37.46,-32"/>
<polygon fill="#63b8ff" stroke="#63b8ff" points="61,-35.5 71,-32 61,-28.5 61,-35.5"/>
</a>
</g>
</g>
<!-- Node6&#45;&gt;Node3 -->
<g id="edge6_Node000006_Node000003" class="edge">
<title>Node6&#45;&gt;Node3</title>
<g id="a_edge6_Node000006_Node000003"><a xlink:title=" ">
<path fill="none" stroke="#63b8ff" d="M421.84,-20.6C413.75,-21.57 405.63,-22.54 397.72,-23.49"/>
<polygon fill="#63b8ff" stroke="#63b8ff" points="422.21,-24.08 431.72,-19.41 421.38,-17.13 422.21,-24.08"/>
</a>
</g>
</g>
</g>
</svg>
