<?xml version="1.0" encoding="UTF-8" standalone="no"?>
<!DOCTYPE svg PUBLIC "-//W3C//DTD SVG 1.1//EN"
 "http://www.w3.org/Graphics/SVG/1.1/DTD/svg11.dtd">
<!-- Generated by graphviz version 12.1.0 (20240811.2233)
 -->
<!-- Title: Engine::Utils::Color Pages: 1 -->
<svg width="103pt" height="140pt"
 viewBox="0.00 0.00 103.00 140.00" xmlns="http://www.w3.org/2000/svg" xmlns:xlink="http://www.w3.org/1999/xlink">
<g id="graph0" class="graph" transform="scale(1 1) rotate(0) translate(4 136)">
<title>Engine::Utils::Color</title>
<!-- Node1 -->
<g id="Node000001" class="node">
<title>Node1</title>
<g id="a_Node000001"><a xlink:title=" ">
<polygon fill="#999999" stroke="none" points="95,-132 0,-132 0,0 95,0 95,-132"/>
<text text-anchor="start" x="4.75" y="-118.5" font-family="Helvetica,sans-Serif" font-size="10.00">Engine::Utils::Color</text>
<text text-anchor="start" x="12" y="-102.5" font-family="Helvetica,sans-Serif" font-size="10.00">+</text>
<text text-anchor="start" x="30" y="-102.5" font-family="Helvetica,sans-Serif" font-size="10.00">r</text>
<text text-anchor="start" x="12" y="-86.5" font-family="Helvetica,sans-Serif" font-size="10.00">+</text>
<text text-anchor="start" x="30" y="-86.5" font-family="Helvetica,sans-Serif" font-size="10.00">g</text>
<text text-anchor="start" x="12" y="-70.5" font-family="Helvetica,sans-Serif" font-size="10.00">+</text>
<text text-anchor="start" x="30" y="-70.5" font-family="Helvetica,sans-Serif" font-size="10.00">b</text>
<text text-anchor="start" x="12" y="-54.5" font-family="Helvetica,sans-Serif" font-size="10.00">+</text>
<text text-anchor="start" x="30" y="-54.5" font-family="Helvetica,sans-Serif" font-size="10.00">Color()</text>
<text text-anchor="start" x="12" y="-38.5" font-family="Helvetica,sans-Serif" font-size="10.00">+</text>
<text text-anchor="start" x="30" y="-38.5" font-family="Helvetica,sans-Serif" font-size="10.00">Color()</text>
<text text-anchor="start" x="12" y="-22.5" font-family="Helvetica,sans-Serif" font-size="10.00">+</text>
<text text-anchor="start" x="30" y="-22.5" font-family="Helvetica,sans-Serif" font-size="10.00">operator*()</text>
<text text-anchor="start" x="12" y="-6.5" font-family="Helvetica,sans-Serif" font-size="10.00">+</text>
<text text-anchor="start" x="30" y="-6.5" font-family="Helvetica,sans-Serif" font-size="10.00">toString()</text>
<polygon fill="#666666" stroke="#666666" points="0,-114 0,-114 95,-114 95,-114 0,-114"/>
<polygon fill="#666666" stroke="#666666" points="0,-66 0,-66 28,-66 28,-66 0,-66"/>
<polygon fill="#666666" stroke="#666666" points="28,-66 28,-66 95,-66 95,-66 28,-66"/>
<polygon fill="none" stroke="#666666" points="0,0 0,-132 95,-132 95,0 0,0"/>
</a>
</g>
</g>
</g>
</svg>
