<?xml version="1.0" encoding="UTF-8" standalone="no"?>
<!DOCTYPE svg PUBLIC "-//W3C//DTD SVG 1.1//EN"
 "http://www.w3.org/Graphics/SVG/1.1/DTD/svg11.dtd">
<!-- Generated by graphviz version 12.1.0 (20240811.2233)
 -->
<!-- Title: GameManager::render Pages: 1 -->
<svg width="665pt" height="648pt"
 viewBox="0.00 0.00 665.25 648.00" xmlns="http://www.w3.org/2000/svg" xmlns:xlink="http://www.w3.org/1999/xlink">
<g id="graph0" class="graph" transform="scale(1 1) rotate(0) translate(4 644)">
<title>GameManager::render</title>
<!-- Node1 -->
<g id="Node000001" class="node">
<title>Node1</title>
<g id="a_Node000001"><a xlink:title=" ">
<polygon fill="#999999" stroke="#666666" points="112.75,-336 0,-336 0,-316 112.75,-316 112.75,-336"/>
<text text-anchor="middle" x="56.38" y="-322.5" font-family="Helvetica,sans-Serif" font-size="10.00">GameManager::render</text>
</a>
</g>
</g>
<!-- Node2 -->
<g id="Node000002" class="node">
<title>Node2</title>
<g id="a_Node000002"><a xlink:href="classButton.html#adf65892636ea303a84e1391106ea7cb0" target="_top" xlink:title=" ">
<polygon fill="white" stroke="#666666" points="258.12,-640 186.62,-640 186.62,-620 258.12,-620 258.12,-640"/>
<text text-anchor="middle" x="222.38" y="-626.5" font-family="Helvetica,sans-Serif" font-size="10.00">Button::draw</text>
</a>
</g>
</g>
<!-- Node1&#45;&gt;Node2 -->
<g id="edge1_Node000001_Node000002" class="edge">
<title>Node1&#45;&gt;Node2</title>
<g id="a_edge1_Node000001_Node000002"><a xlink:title=" ">
<path fill="none" stroke="#63b8ff" d="M57.36,-336.38C57.89,-377.71 65.56,-532.22 148.75,-611 156.11,-617.97 165.69,-622.45 175.48,-625.33"/>
<polygon fill="#63b8ff" stroke="#63b8ff" points="174.49,-628.69 185.02,-627.58 176.1,-621.88 174.49,-628.69"/>
</a>
</g>
</g>
<!-- Node3 -->
<g id="Node000003" class="node">
<title>Node3</title>
<g id="a_Node000003"><a xlink:href="classControlsConfig.html#aee10925f5a8bef01c9f7f5bb594479cf" target="_top" xlink:title=" ">
<polygon fill="white" stroke="#666666" points="276.5,-602 168.25,-602 168.25,-582 276.5,-582 276.5,-602"/>
<text text-anchor="middle" x="222.38" y="-588.5" font-family="Helvetica,sans-Serif" font-size="10.00">ControlsConfig::draw</text>
</a>
</g>
</g>
<!-- Node1&#45;&gt;Node3 -->
<g id="edge2_Node000001_Node000003" class="edge">
<title>Node1&#45;&gt;Node3</title>
<g id="a_edge2_Node000001_Node000003"><a xlink:title=" ">
<path fill="none" stroke="#63b8ff" d="M57.93,-336.29C60.56,-374.02 74.89,-506.07 148.75,-573 151.5,-575.49 154.54,-577.67 157.77,-579.56"/>
<polygon fill="#63b8ff" stroke="#63b8ff" points="156.03,-582.61 166.56,-583.79 159.07,-576.3 156.03,-582.61"/>
</a>
</g>
</g>
<!-- Node4 -->
<g id="Node000004" class="node">
<title>Node4</title>
<g id="a_Node000004"><a xlink:href="classErrorServer.html#a0e977c4fb8bc4789e0c1bb1985af2bba" target="_top" xlink:title=" ">
<polygon fill="white" stroke="#666666" points="268.62,-564 176.12,-564 176.12,-544 268.62,-544 268.62,-564"/>
<text text-anchor="middle" x="222.38" y="-550.5" font-family="Helvetica,sans-Serif" font-size="10.00">ErrorServer::draw</text>
</a>
</g>
</g>
<!-- Node1&#45;&gt;Node4 -->
<g id="edge3_Node000001_Node000004" class="edge">
<title>Node1&#45;&gt;Node4</title>
<g id="a_edge3_Node000001_Node000004"><a xlink:title=" ">
<path fill="none" stroke="#63b8ff" d="M58.68,-336.11C63.57,-369.86 84.03,-479.68 148.75,-535 153.52,-539.08 159.06,-542.29 164.92,-544.82"/>
<polygon fill="#63b8ff" stroke="#63b8ff" points="163.68,-548.1 174.27,-548.18 166.04,-541.51 163.68,-548.1"/>
</a>
</g>
</g>
<!-- Node5 -->
<g id="Node000005" class="node">
<title>Node5</title>
<g id="a_Node000005"><a xlink:href="classLaunch.html#afa6b62100d64c138b9ad68b728fb3fd2" target="_top" xlink:title=" ">
<polygon fill="white" stroke="#666666" points="259.62,-526 185.12,-526 185.12,-506 259.62,-506 259.62,-526"/>
<text text-anchor="middle" x="222.38" y="-512.5" font-family="Helvetica,sans-Serif" font-size="10.00">Launch::draw</text>
</a>
</g>
</g>
<!-- Node1&#45;&gt;Node5 -->
<g id="edge4_Node000001_Node000005" class="edge">
<title>Node1&#45;&gt;Node5</title>
<g id="a_edge4_Node000001_Node000005"><a xlink:title=" ">
<path fill="none" stroke="#63b8ff" d="M59.79,-336.34C67.32,-366.2 93.26,-453.22 148.75,-497 156.02,-502.74 164.86,-506.76 173.83,-509.56"/>
<polygon fill="#63b8ff" stroke="#63b8ff" points="172.71,-512.89 183.27,-512.04 174.49,-506.12 172.71,-512.89"/>
</a>
</g>
</g>
<!-- Node6 -->
<g id="Node000006" class="node">
<title>Node6</title>
<g id="a_Node000006"><a xlink:href="classLeaderboard.html#aa3449b4264a01f9c000386149aef6490" target="_top" xlink:title=" ">
<polygon fill="white" stroke="#666666" points="270.5,-488 174.25,-488 174.25,-468 270.5,-468 270.5,-488"/>
<text text-anchor="middle" x="222.38" y="-474.5" font-family="Helvetica,sans-Serif" font-size="10.00">Leaderboard::draw</text>
</a>
</g>
</g>
<!-- Node1&#45;&gt;Node6 -->
<g id="edge5_Node000001_Node000006" class="edge">
<title>Node1&#45;&gt;Node6</title>
<g id="a_edge5_Node000001_Node000006"><a xlink:title=" ">
<path fill="none" stroke="#63b8ff" d="M61.37,-336.17C71.73,-361.2 101.98,-426.15 148.75,-459 153.18,-462.11 158.09,-464.72 163.2,-466.89"/>
<polygon fill="#63b8ff" stroke="#63b8ff" points="161.88,-470.14 172.47,-470.27 164.27,-463.56 161.88,-470.14"/>
</a>
</g>
</g>
<!-- Node8 -->
<g id="Node000008" class="node">
<title>Node8</title>
<g id="a_Node000008"><a xlink:href="classParamButton.html#a4d861d1ebb303222ed3df43964aff44f" target="_top" xlink:title=" ">
<polygon fill="white" stroke="#666666" points="272.38,-450 172.38,-450 172.38,-430 272.38,-430 272.38,-450"/>
<text text-anchor="middle" x="222.38" y="-436.5" font-family="Helvetica,sans-Serif" font-size="10.00">ParamButton::draw</text>
</a>
</g>
</g>
<!-- Node1&#45;&gt;Node8 -->
<g id="edge7_Node000001_Node000008" class="edge">
<title>Node1&#45;&gt;Node8</title>
<g id="a_edge7_Node000001_Node000008"><a xlink:title=" ">
<path fill="none" stroke="#63b8ff" d="M65.27,-336.46C79.8,-355.05 112.65,-393.94 148.75,-416 154.77,-419.68 161.43,-422.87 168.19,-425.61"/>
<polygon fill="#63b8ff" stroke="#63b8ff" points="166.82,-428.83 177.41,-429.02 169.25,-422.27 166.82,-428.83"/>
</a>
</g>
</g>
<!-- Node9 -->
<g id="Node000009" class="node">
<title>Node9</title>
<g id="a_Node000009"><a xlink:href="classParameters.html#a3861a3375a9e31e5ce06d0e71a0bf1ab" target="_top" xlink:title=" ">
<polygon fill="white" stroke="#666666" points="453,-279 359.75,-279 359.75,-259 453,-259 453,-279"/>
<text text-anchor="middle" x="406.38" y="-265.5" font-family="Helvetica,sans-Serif" font-size="10.00">Parameters::draw</text>
</a>
</g>
</g>
<!-- Node1&#45;&gt;Node9 -->
<g id="edge8_Node000001_Node000009" class="edge">
<title>Node1&#45;&gt;Node9</title>
<g id="a_edge8_Node000001_Node000009"><a xlink:title=" ">
<path fill="none" stroke="#63b8ff" d="M69.02,-336.33C85.43,-350.13 116.93,-373.89 148.75,-383 211.67,-401.01 235.8,-408.67 296,-383 340.99,-363.82 376.38,-316.04 393.7,-288.82"/>
<polygon fill="#63b8ff" stroke="#63b8ff" points="396.58,-290.82 398.84,-280.47 390.62,-287.15 396.58,-290.82"/>
</a>
</g>
</g>
<!-- Node11 -->
<g id="Node000011" class="node">
<title>Node11</title>
<g id="a_Node000011"><a xlink:href="classPlayer.html#a70bbe0afb8ef88207288c9134ae80b6e" target="_top" xlink:title=" ">
<polygon fill="white" stroke="#666666" points="257.75,-374 187,-374 187,-354 257.75,-354 257.75,-374"/>
<text text-anchor="middle" x="222.38" y="-360.5" font-family="Helvetica,sans-Serif" font-size="10.00">Player::draw</text>
</a>
</g>
</g>
<!-- Node1&#45;&gt;Node11 -->
<g id="edge10_Node000001_Node000011" class="edge">
<title>Node1&#45;&gt;Node11</title>
<g id="a_edge10_Node000001_Node000011"><a xlink:title=" ">
<path fill="none" stroke="#63b8ff" d="M102.62,-336.48C125.33,-341.75 152.79,-348.11 175.57,-353.39"/>
<polygon fill="#63b8ff" stroke="#63b8ff" points="174.67,-356.77 185.2,-355.62 176.25,-349.95 174.67,-356.77"/>
</a>
</g>
</g>
<!-- Node12 -->
<g id="Node000012" class="node">
<title>Node12</title>
<g id="a_Node000012"><a xlink:href="classUsername.html#aabea1843316d155b207bec229de41495" target="_top" xlink:title=" ">
<polygon fill="white" stroke="#666666" points="266.38,-336 178.38,-336 178.38,-316 266.38,-316 266.38,-336"/>
<text text-anchor="middle" x="222.38" y="-322.5" font-family="Helvetica,sans-Serif" font-size="10.00">Username::draw</text>
</a>
</g>
</g>
<!-- Node1&#45;&gt;Node12 -->
<g id="edge11_Node000001_Node000012" class="edge">
<title>Node1&#45;&gt;Node12</title>
<g id="a_edge11_Node000001_Node000012"><a xlink:title=" ">
<path fill="none" stroke="#63b8ff" d="M112.9,-326C130.35,-326 149.6,-326 166.98,-326"/>
<polygon fill="#63b8ff" stroke="#63b8ff" points="166.58,-329.5 176.58,-326 166.58,-322.5 166.58,-329.5"/>
</a>
</g>
</g>
<!-- Node13 -->
<g id="Node000013" class="node">
<title>Node13</title>
<g id="a_Node000013"><a xlink:href="classParamButton.html#a5905a3b1fb8a29813d96d9e962b21bb7" target="_top" xlink:title=" ">
<polygon fill="white" stroke="#666666" points="296,-298 148.75,-298 148.75,-278 296,-278 296,-298"/>
<text text-anchor="middle" x="222.38" y="-284.5" font-family="Helvetica,sans-Serif" font-size="10.00">ParamButton::drawVolumeBar</text>
</a>
</g>
</g>
<!-- Node1&#45;&gt;Node13 -->
<g id="edge12_Node000001_Node000013" class="edge">
<title>Node1&#45;&gt;Node13</title>
<g id="a_edge12_Node000001_Node000013"><a xlink:title=" ">
<path fill="none" stroke="#63b8ff" d="M102.62,-315.52C121.98,-311.03 144.79,-305.75 165.21,-301.01"/>
<polygon fill="#63b8ff" stroke="#63b8ff" points="165.85,-304.46 174.8,-298.79 164.27,-297.64 165.85,-304.46"/>
</a>
</g>
</g>
<!-- Node14 -->
<g id="Node000014" class="node">
<title>Node14</title>
<g id="a_Node000014"><a xlink:href="classGameManager.html#a5315da76c5b8b7338ec77022547ad03f" target="_top" xlink:title=" ">
<polygon fill="white" stroke="#666666" points="290.38,-260 154.38,-260 154.38,-240 290.38,-240 290.38,-260"/>
<text text-anchor="middle" x="222.38" y="-246.5" font-family="Helvetica,sans-Serif" font-size="10.00">GameManager::gameDemo</text>
</a>
</g>
</g>
<!-- Node1&#45;&gt;Node14 -->
<g id="edge13_Node000001_Node000014" class="edge">
<title>Node1&#45;&gt;Node14</title>
<g id="a_edge13_Node000001_Node000014"><a xlink:title=" ">
<path fill="none" stroke="#63b8ff" d="M71.2,-315.51C88.48,-302.83 119.39,-281.65 148.75,-269 153.06,-267.14 157.59,-265.43 162.2,-263.87"/>
<polygon fill="#63b8ff" stroke="#63b8ff" points="163.09,-267.25 171.58,-260.92 160.99,-260.58 163.09,-267.25"/>
</a>
</g>
</g>
<!-- Node15 -->
<g id="Node000015" class="node">
<title>Node15</title>
<g id="a_Node000015"><a xlink:href="classUsername.html#a26117f3106a1336585efb02ce1526521" target="_top" xlink:title=" ">
<polygon fill="white" stroke="#666666" points="274.25,-222 170.5,-222 170.5,-202 274.25,-202 274.25,-222"/>
<text text-anchor="middle" x="222.38" y="-208.5" font-family="Helvetica,sans-Serif" font-size="10.00">Username::getLabel</text>
</a>
</g>
</g>
<!-- Node1&#45;&gt;Node15 -->
<g id="edge14_Node000001_Node000015" class="edge">
<title>Node1&#45;&gt;Node15</title>
<g id="a_edge14_Node000001_Node000015"><a xlink:title=" ">
<path fill="none" stroke="#63b8ff" d="M64.33,-315.63C78.06,-295.99 110.65,-253.34 148.75,-231 152.27,-228.93 156.02,-227.09 159.89,-225.44"/>
<polygon fill="#63b8ff" stroke="#63b8ff" points="160.78,-228.85 168.91,-222.06 158.32,-222.29 160.78,-228.85"/>
</a>
</g>
</g>
<!-- Node16 -->
<g id="Node000016" class="node">
<title>Node16</title>
<g id="a_Node000016"><a xlink:href="classPlayer.html#a4f679a9d2fa60e76fe00d615dfe4d584" target="_top" xlink:title=" ">
<polygon fill="white" stroke="#666666" points="271.62,-184 173.12,-184 173.12,-164 271.62,-164 271.62,-184"/>
<text text-anchor="middle" x="222.38" y="-170.5" font-family="Helvetica,sans-Serif" font-size="10.00">Player::getPosition</text>
</a>
</g>
</g>
<!-- Node1&#45;&gt;Node16 -->
<g id="edge15_Node000001_Node000016" class="edge">
<title>Node1&#45;&gt;Node16</title>
<g id="a_edge15_Node000001_Node000016"><a xlink:title=" ">
<path fill="none" stroke="#63b8ff" d="M61.37,-315.83C71.73,-290.8 101.98,-225.85 148.75,-193 152.88,-190.1 157.42,-187.64 162.16,-185.56"/>
<polygon fill="#63b8ff" stroke="#63b8ff" points="163.21,-188.9 171.34,-182.1 160.75,-182.35 163.21,-188.9"/>
</a>
</g>
</g>
<!-- Node17 -->
<g id="Node000017" class="node">
<title>Node17</title>
<g id="a_Node000017"><a xlink:href="classPlayer.html#a724a411ebe41a71e0acbb9a26bd0a45d" target="_top" xlink:title=" ">
<polygon fill="white" stroke="#666666" points="263.75,-146 181,-146 181,-126 263.75,-126 263.75,-146"/>
<text text-anchor="middle" x="222.38" y="-132.5" font-family="Helvetica,sans-Serif" font-size="10.00">Player::getSize</text>
</a>
</g>
</g>
<!-- Node1&#45;&gt;Node17 -->
<g id="edge16_Node000001_Node000017" class="edge">
<title>Node1&#45;&gt;Node17</title>
<g id="a_edge16_Node000001_Node000017"><a xlink:title=" ">
<path fill="none" stroke="#63b8ff" d="M59.79,-315.66C67.32,-285.8 93.26,-198.78 148.75,-155 154.94,-150.12 162.26,-146.48 169.83,-143.77"/>
<polygon fill="#63b8ff" stroke="#63b8ff" points="170.59,-147.2 179.16,-140.97 168.57,-140.5 170.59,-147.2"/>
</a>
</g>
</g>
<!-- Node18 -->
<g id="Node000018" class="node">
<title>Node18</title>
<g id="a_Node000018"><a xlink:href="classParticleSystem.html#abe33b51ab04720074de064406a3f20df" target="_top" xlink:title=" ">
<polygon fill="white" stroke="#666666" points="280.25,-108 164.5,-108 164.5,-88 280.25,-88 280.25,-108"/>
<text text-anchor="middle" x="222.38" y="-94.5" font-family="Helvetica,sans-Serif" font-size="10.00">ParticleSystem::render</text>
</a>
</g>
</g>
<!-- Node1&#45;&gt;Node18 -->
<g id="edge17_Node000001_Node000018" class="edge">
<title>Node1&#45;&gt;Node18</title>
<g id="a_edge17_Node000001_Node000018"><a xlink:title=" ">
<path fill="none" stroke="#63b8ff" d="M58.68,-315.89C63.57,-282.14 84.03,-172.32 148.75,-117 150.46,-115.54 152.27,-114.19 154.15,-112.94"/>
<polygon fill="#63b8ff" stroke="#63b8ff" points="155.69,-116.09 162.81,-108.24 152.35,-109.94 155.69,-116.09"/>
</a>
</g>
</g>
<!-- Node20 -->
<g id="Node000020" class="node">
<title>Node20</title>
<g id="a_Node000020"><a xlink:href="classUsername.html#a7aa9e2650ed1281f896b580f6f93d909" target="_top" xlink:title=" ">
<polygon fill="white" stroke="#666666" points="293.75,-70 151,-70 151,-50 293.75,-50 293.75,-70"/>
<text text-anchor="middle" x="222.38" y="-56.5" font-family="Helvetica,sans-Serif" font-size="10.00">Username::setCharacterSize</text>
</a>
</g>
</g>
<!-- Node1&#45;&gt;Node20 -->
<g id="edge20_Node000001_Node000020" class="edge">
<title>Node1&#45;&gt;Node20</title>
<g id="a_edge20_Node000001_Node000020"><a xlink:title=" ">
<path fill="none" stroke="#63b8ff" d="M57.93,-315.71C60.56,-277.98 74.89,-145.93 148.75,-79 149.69,-78.15 150.67,-77.33 151.67,-76.55"/>
<polygon fill="#63b8ff" stroke="#63b8ff" points="153.51,-79.53 160.13,-71.26 149.8,-73.6 153.51,-79.53"/>
</a>
</g>
</g>
<!-- Node21 -->
<g id="Node000021" class="node">
<title>Node21</title>
<g id="a_Node000021"><a xlink:href="classParamButton.html#a26d084094df8af9988e99861e713f561" target="_top" xlink:title=" ">
<polygon fill="white" stroke="#666666" points="294.12,-32 150.62,-32 150.62,0 294.12,0 294.12,-32"/>
<text text-anchor="start" x="158.62" y="-18.5" font-family="Helvetica,sans-Serif" font-size="10.00">ParamButton::updatePosition</text>
<text text-anchor="middle" x="222.38" y="-6.5" font-family="Helvetica,sans-Serif" font-size="10.00">AndSize</text>
</a>
</g>
</g>
<!-- Node1&#45;&gt;Node21 -->
<g id="edge21_Node000001_Node000021" class="edge">
<title>Node1&#45;&gt;Node21</title>
<g id="a_edge21_Node000001_Node000021"><a xlink:title=" ">
<path fill="none" stroke="#63b8ff" d="M57.54,-315.52C58.78,-274.45 68.78,-122.69 148.75,-41 149.34,-40.39 149.95,-39.8 150.58,-39.22"/>
<polygon fill="#63b8ff" stroke="#63b8ff" points="152.38,-42.25 158.2,-33.4 148.13,-36.69 152.38,-42.25"/>
</a>
</g>
</g>
<!-- Node7 -->
<g id="Node000007" class="node">
<title>Node7</title>
<g id="a_Node000007"><a xlink:href="classLeaderboard.html#ae1e8dd1be4176e53618895908c123827" target="_top" xlink:title=" ">
<polygon fill="white" stroke="#666666" points="474,-494 338.75,-494 338.75,-462 474,-462 474,-494"/>
<text text-anchor="start" x="346.75" y="-480.5" font-family="Helvetica,sans-Serif" font-size="10.00">Leaderboard::drawRounded</text>
<text text-anchor="middle" x="406.38" y="-468.5" font-family="Helvetica,sans-Serif" font-size="10.00">Rectangle</text>
</a>
</g>
</g>
<!-- Node6&#45;&gt;Node7 -->
<g id="edge6_Node000006_Node000007" class="edge">
<title>Node6&#45;&gt;Node7</title>
<g id="a_edge6_Node000006_Node000007"><a xlink:title=" ">
<path fill="none" stroke="#63b8ff" d="M270.72,-478C287.89,-478 307.79,-478 326.93,-478"/>
<polygon fill="#63b8ff" stroke="#63b8ff" points="326.89,-481.5 336.89,-478 326.89,-474.5 326.89,-481.5"/>
</a>
</g>
</g>
<!-- Node10 -->
<g id="Node000010" class="node">
<title>Node10</title>
<g id="a_Node000010"><a xlink:href="classParameters.html#a11623d0313272ad8e9841469facbaa7a" target="_top" xlink:title=" ">
<polygon fill="white" stroke="#666666" points="657.25,-200 516.75,-200 516.75,-168 657.25,-168 657.25,-200"/>
<text text-anchor="start" x="524.75" y="-186.5" font-family="Helvetica,sans-Serif" font-size="10.00">Parameters::applyColorBlind</text>
<text text-anchor="middle" x="587" y="-174.5" font-family="Helvetica,sans-Serif" font-size="10.00">Filter</text>
</a>
</g>
</g>
<!-- Node9&#45;&gt;Node10 -->
<g id="edge9_Node000009_Node000010" class="edge">
<title>Node9&#45;&gt;Node10</title>
<g id="a_edge9_Node000009_Node000010"><a xlink:title=" ">
<path fill="none" stroke="#63b8ff" d="M429.28,-258.58C457,-245.38 505.45,-222.33 541.16,-205.34"/>
<polygon fill="#63b8ff" stroke="#63b8ff" points="542.44,-208.6 549.97,-201.15 539.43,-202.28 542.44,-208.6"/>
</a>
</g>
</g>
<!-- Node19 -->
<g id="Node000019" class="node">
<title>Node19</title>
<g id="a_Node000019"><a xlink:href="classParticleSystem.html#abdef4bdd9875aef1b3224cfd3919111c" target="_top" xlink:title=" ">
<polygon fill="white" stroke="#666666" points="480.75,-175 332,-175 332,-155 480.75,-155 480.75,-175"/>
<text text-anchor="middle" x="406.38" y="-161.5" font-family="Helvetica,sans-Serif" font-size="10.00">ParticleSystem::renderParticle</text>
</a>
</g>
</g>
<!-- Node18&#45;&gt;Node19 -->
<g id="edge18_Node000018_Node000019" class="edge">
<title>Node18&#45;&gt;Node19</title>
<g id="a_edge18_Node000018_Node000019"><a xlink:title=" ">
<path fill="none" stroke="#63b8ff" d="M267.88,-108.46C277.25,-110.99 287.01,-113.87 296,-117 322.98,-126.38 352.58,-139.56 374.18,-149.74"/>
<polygon fill="#63b8ff" stroke="#63b8ff" points="372.5,-152.81 383.03,-153.96 375.51,-146.49 372.5,-152.81"/>
</a>
</g>
</g>
<!-- Node19&#45;&gt;Node10 -->
<g id="edge19_Node000019_Node000010" class="edge">
<title>Node19&#45;&gt;Node10</title>
<g id="a_edge19_Node000019_Node000010"><a xlink:title=" ">
<path fill="none" stroke="#63b8ff" d="M481.06,-172.84C489.03,-173.69 497.17,-174.55 505.22,-175.41"/>
<polygon fill="#63b8ff" stroke="#63b8ff" points="504.68,-178.87 515,-176.45 505.42,-171.91 504.68,-178.87"/>
</a>
</g>
</g>
</g>
</svg>
