<?xml version="1.0" encoding="UTF-8" standalone="no"?>
<!DOCTYPE svg PUBLIC "-//W3C//DTD SVG 1.1//EN"
 "http://www.w3.org/Graphics/SVG/1.1/DTD/svg11.dtd">
<!-- Generated by graphviz version 12.1.0 (20240811.2233)
 -->
<!-- Title: Engine::Systems::DevConsole::update Pages: 1 -->
<svg width="533pt" height="90pt"
 viewBox="0.00 0.00 533.00 90.00" xmlns="http://www.w3.org/2000/svg" xmlns:xlink="http://www.w3.org/1999/xlink">
<g id="graph0" class="graph" transform="scale(1 1) rotate(0) translate(4 86)">
<title>Engine::Systems::DevConsole::update</title>
<!-- Node1 -->
<g id="Node000001" class="node">
<title>Node1</title>
<g id="a_Node000001"><a xlink:title=" ">
<polygon fill="#999999" stroke="#666666" points="151,-57 0,-57 0,-25 151,-25 151,-57"/>
<text text-anchor="start" x="8" y="-43.5" font-family="Helvetica,sans-Serif" font-size="10.00">Engine::Systems::DevConsole</text>
<text text-anchor="middle" x="75.5" y="-31.5" font-family="Helvetica,sans-Serif" font-size="10.00">::update</text>
</a>
</g>
</g>
<!-- Node2 -->
<g id="Node000002" class="node">
<title>Node2</title>
<g id="a_Node000002"><a xlink:href="classEngine_1_1Systems_1_1DevConsole.html#a4b2389e6ecae063d780438f968ef8858" target="_top" xlink:title=" ">
<polygon fill="white" stroke="#666666" points="338,-57 187,-57 187,-25 338,-25 338,-57"/>
<text text-anchor="start" x="195" y="-43.5" font-family="Helvetica,sans-Serif" font-size="10.00">Engine::Systems::DevConsole</text>
<text text-anchor="middle" x="262.5" y="-31.5" font-family="Helvetica,sans-Serif" font-size="10.00">::parseCommand</text>
</a>
</g>
</g>
<!-- Node1&#45;&gt;Node2 -->
<g id="edge1_Node000001_Node000002" class="edge">
<title>Node1&#45;&gt;Node2</title>
<g id="a_edge1_Node000001_Node000002"><a xlink:title=" ">
<path fill="none" stroke="#63b8ff" d="M151.48,-41C159.38,-41 167.45,-41 175.46,-41"/>
<polygon fill="#63b8ff" stroke="#63b8ff" points="175.2,-44.5 185.2,-41 175.2,-37.5 175.2,-44.5"/>
</a>
</g>
</g>
<!-- Node3 -->
<g id="Node000003" class="node">
<title>Node3</title>
<g id="a_Node000003"><a xlink:href="classEngine_1_1Systems_1_1DevConsole.html#a269f1897d00fd83d444f51c1765d4170" target="_top" xlink:title=" ">
<polygon fill="white" stroke="#666666" points="525,-82 374,-82 374,-50 525,-50 525,-82"/>
<text text-anchor="start" x="382" y="-68.5" font-family="Helvetica,sans-Serif" font-size="10.00">Engine::Systems::DevConsole</text>
<text text-anchor="middle" x="449.5" y="-56.5" font-family="Helvetica,sans-Serif" font-size="10.00">::reflectComponent</text>
</a>
</g>
</g>
<!-- Node2&#45;&gt;Node3 -->
<g id="edge2_Node000002_Node000003" class="edge">
<title>Node2&#45;&gt;Node3</title>
<g id="a_edge2_Node000002_Node000003"><a xlink:title=" ">
<path fill="none" stroke="#63b8ff" d="M338.48,-51.13C346.38,-52.2 354.45,-53.29 362.46,-54.37"/>
<polygon fill="#63b8ff" stroke="#63b8ff" points="361.84,-57.82 372.21,-55.69 362.77,-50.88 361.84,-57.82"/>
</a>
</g>
</g>
<!-- Node4 -->
<g id="Node000004" class="node">
<title>Node4</title>
<g id="a_Node000004"><a xlink:href="classEngine_1_1Systems_1_1DevConsole.html#ac32df31f280826b3815a3c24bf7311a4" target="_top" xlink:title=" ">
<polygon fill="white" stroke="#666666" points="525,-32 374,-32 374,0 525,0 525,-32"/>
<text text-anchor="start" x="382" y="-18.5" font-family="Helvetica,sans-Serif" font-size="10.00">Engine::Systems::DevConsole</text>
<text text-anchor="middle" x="449.5" y="-6.5" font-family="Helvetica,sans-Serif" font-size="10.00">::setComponentValue</text>
</a>
</g>
</g>
<!-- Node2&#45;&gt;Node4 -->
<g id="edge3_Node000002_Node000004" class="edge">
<title>Node2&#45;&gt;Node4</title>
<g id="a_edge3_Node000002_Node000004"><a xlink:title=" ">
<path fill="none" stroke="#63b8ff" d="M338.48,-30.87C346.38,-29.8 354.45,-28.71 362.46,-27.63"/>
<polygon fill="#63b8ff" stroke="#63b8ff" points="362.77,-31.12 372.21,-26.31 361.84,-24.18 362.77,-31.12"/>
</a>
</g>
</g>
</g>
</svg>
