<?xml version="1.0" encoding="UTF-8" standalone="no"?>
<!DOCTYPE svg PUBLIC "-//W3C//DTD SVG 1.1//EN"
 "http://www.w3.org/Graphics/SVG/1.1/DTD/svg11.dtd">
<!-- Generated by graphviz version 12.1.0 (20240811.2233)
 -->
<!-- Title: ControlsConfig::getKeyName Pages: 1 -->
<svg width="785pt" height="128pt"
 viewBox="0.00 0.00 784.75 128.00" xmlns="http://www.w3.org/2000/svg" xmlns:xlink="http://www.w3.org/1999/xlink">
<g id="graph0" class="graph" transform="scale(1 1) rotate(0) translate(4 124)">
<title>ControlsConfig::getKeyName</title>
<!-- Node1 -->
<g id="Node000001" class="node">
<title>Node1</title>
<g id="a_Node000001"><a xlink:title=" ">
<polygon fill="#999999" stroke="#666666" points="776.75,-70 632.5,-70 632.5,-50 776.75,-50 776.75,-70"/>
<text text-anchor="middle" x="704.62" y="-56.5" font-family="Helvetica,sans-Serif" font-size="10.00">ControlsConfig::getKeyName</text>
</a>
</g>
</g>
<!-- Node2 -->
<g id="Node000002" class="node">
<title>Node2</title>
<g id="a_Node000002"><a xlink:href="classControlsConfig.html#ad218bc10857ddae59029265b257a4eb9" target="_top" xlink:title=" ">
<polygon fill="white" stroke="#666666" points="588.25,-120 455.25,-120 455.25,-88 588.25,-88 588.25,-120"/>
<text text-anchor="start" x="463.25" y="-106.5" font-family="Helvetica,sans-Serif" font-size="10.00">ControlsConfig::cancelKey</text>
<text text-anchor="middle" x="521.75" y="-94.5" font-family="Helvetica,sans-Serif" font-size="10.00">Capture</text>
</a>
</g>
</g>
<!-- Node1&#45;&gt;Node2 -->
<g id="edge1_Node000001_Node000002" class="edge">
<title>Node1&#45;&gt;Node2</title>
<g id="a_edge1_Node000001_Node000002"><a xlink:title=" ">
<path fill="none" stroke="#63b8ff" d="M649.8,-73.09C630.6,-77.76 608.75,-83.08 588.65,-87.97"/>
<polygon fill="#63b8ff" stroke="#63b8ff" points="650.4,-76.55 659.29,-70.79 648.75,-69.75 650.4,-76.55"/>
</a>
</g>
</g>
<!-- Node6 -->
<g id="Node000006" class="node">
<title>Node6</title>
<g id="a_Node000006"><a xlink:href="classControlsConfig.html#aa2fe4477b60057141a0cf43e1a064805" target="_top" xlink:title=" ">
<polygon fill="white" stroke="#666666" points="596.5,-70 447,-70 447,-50 596.5,-50 596.5,-70"/>
<text text-anchor="middle" x="521.75" y="-56.5" font-family="Helvetica,sans-Serif" font-size="10.00">ControlsConfig::setControlKey</text>
</a>
</g>
</g>
<!-- Node1&#45;&gt;Node6 -->
<g id="edge5_Node000001_Node000006" class="edge">
<title>Node1&#45;&gt;Node6</title>
<g id="a_edge5_Node000001_Node000006"><a xlink:title=" ">
<path fill="none" stroke="#63b8ff" d="M620.65,-60C612.76,-60 604.79,-60 596.98,-60"/>
<polygon fill="#63b8ff" stroke="#63b8ff" points="620.62,-63.5 630.62,-60 620.62,-56.5 620.62,-63.5"/>
</a>
</g>
</g>
<!-- Node7 -->
<g id="Node000007" class="node">
<title>Node7</title>
<g id="a_Node000007"><a xlink:href="classControlsConfig.html#a19d45c2752ac1653237de9314510ebc2" target="_top" xlink:title=" ">
<polygon fill="white" stroke="#666666" points="593.12,-32 450.38,-32 450.38,0 593.12,0 593.12,-32"/>
<text text-anchor="start" x="458.38" y="-18.5" font-family="Helvetica,sans-Serif" font-size="10.00">ControlsConfig::setupControl</text>
<text text-anchor="middle" x="521.75" y="-6.5" font-family="Helvetica,sans-Serif" font-size="10.00">Settings</text>
</a>
</g>
</g>
<!-- Node1&#45;&gt;Node7 -->
<g id="edge7_Node000001_Node000007" class="edge">
<title>Node1&#45;&gt;Node7</title>
<g id="a_edge7_Node000001_Node000007"><a xlink:title=" ">
<path fill="none" stroke="#63b8ff" d="M649.81,-46.91C631.16,-42.37 610.02,-37.23 590.41,-32.46"/>
<polygon fill="#63b8ff" stroke="#63b8ff" points="648.75,-50.25 659.29,-49.21 650.4,-43.45 648.75,-50.25"/>
</a>
</g>
</g>
<!-- Node3 -->
<g id="Node000003" class="node">
<title>Node3</title>
<g id="a_Node000003"><a xlink:href="classControlsConfig.html#a1744d263bd924fcefd9c35afb9344f5b" target="_top" xlink:title=" ">
<polygon fill="white" stroke="#666666" points="405.38,-92 264.12,-92 264.12,-72 405.38,-72 405.38,-92"/>
<text text-anchor="middle" x="334.75" y="-78.5" font-family="Helvetica,sans-Serif" font-size="10.00">ControlsConfig::handleEvent</text>
</a>
</g>
</g>
<!-- Node2&#45;&gt;Node3 -->
<g id="edge2_Node000002_Node000003" class="edge">
<title>Node2&#45;&gt;Node3</title>
<g id="a_edge2_Node000002_Node000003"><a xlink:title=" ">
<path fill="none" stroke="#63b8ff" d="M443.59,-94.82C431.02,-93.33 418.06,-91.79 405.67,-90.31"/>
<polygon fill="#63b8ff" stroke="#63b8ff" points="443.16,-98.3 453.5,-96 443.99,-91.35 443.16,-98.3"/>
</a>
</g>
</g>
<!-- Node4 -->
<g id="Node000004" class="node">
<title>Node4</title>
<g id="a_Node000004"><a xlink:href="classGameManager.html#a6cea7fca5fecdd4f8a32912d4bfc233f" target="_top" xlink:title=" ">
<polygon fill="white" stroke="#666666" points="220.25,-92 75.25,-92 75.25,-72 220.25,-72 220.25,-92"/>
<text text-anchor="middle" x="147.75" y="-78.5" font-family="Helvetica,sans-Serif" font-size="10.00">GameManager::handleEvents</text>
</a>
</g>
</g>
<!-- Node3&#45;&gt;Node4 -->
<g id="edge3_Node000003_Node000004" class="edge">
<title>Node3&#45;&gt;Node4</title>
<g id="a_edge3_Node000003_Node000004"><a xlink:title=" ">
<path fill="none" stroke="#63b8ff" d="M252.43,-82C241.84,-82 231.05,-82 220.64,-82"/>
<polygon fill="#63b8ff" stroke="#63b8ff" points="252.3,-85.5 262.3,-82 252.3,-78.5 252.3,-85.5"/>
</a>
</g>
</g>
<!-- Node5 -->
<g id="Node000005" class="node">
<title>Node5</title>
<g id="a_Node000005"><a xlink:href="Client_2src_2main_8cpp.html#ae66f6b31b5ad750f1fe042a706a4e3d4" target="_top" xlink:title=" ">
<polygon fill="white" stroke="#666666" points="37,-92 0,-92 0,-72 37,-72 37,-92"/>
<text text-anchor="middle" x="18.5" y="-78.5" font-family="Helvetica,sans-Serif" font-size="10.00">main</text>
</a>
</g>
</g>
<!-- Node4&#45;&gt;Node5 -->
<g id="edge4_Node000004_Node000005" class="edge">
<title>Node4&#45;&gt;Node5</title>
<g id="a_edge4_Node000004_Node000005"><a xlink:title=" ">
<path fill="none" stroke="#63b8ff" d="M63.65,-82C53.86,-82 44.74,-82 37.37,-82"/>
<polygon fill="#63b8ff" stroke="#63b8ff" points="63.43,-85.5 73.43,-82 63.43,-78.5 63.43,-85.5"/>
</a>
</g>
</g>
<!-- Node6&#45;&gt;Node3 -->
<g id="edge6_Node000006_Node000003" class="edge">
<title>Node6&#45;&gt;Node3</title>
<g id="a_edge6_Node000006_Node000003"><a xlink:title=" ">
<path fill="none" stroke="#63b8ff" d="M435.42,-70.15C425.49,-71.33 415.44,-72.52 405.74,-73.68"/>
<polygon fill="#63b8ff" stroke="#63b8ff" points="435.55,-73.66 445.07,-69 434.72,-66.71 435.55,-73.66"/>
</a>
</g>
</g>
<!-- Node8 -->
<g id="Node000008" class="node">
<title>Node8</title>
<g id="a_Node000008"><a xlink:href="classControlsConfig.html#a971fd58e74e4b77a02dd7d2b4c9a796e" target="_top" xlink:title=" ">
<polygon fill="white" stroke="#666666" points="411,-26 258.5,-26 258.5,-6 411,-6 411,-26"/>
<text text-anchor="middle" x="334.75" y="-12.5" font-family="Helvetica,sans-Serif" font-size="10.00">ControlsConfig::loadResources</text>
</a>
</g>
</g>
<!-- Node7&#45;&gt;Node8 -->
<g id="edge8_Node000007_Node000008" class="edge">
<title>Node7&#45;&gt;Node8</title>
<g id="a_edge8_Node000007_Node000008"><a xlink:title=" ">
<path fill="none" stroke="#63b8ff" d="M438.63,-16C429.56,-16 420.35,-16 411.37,-16"/>
<polygon fill="#63b8ff" stroke="#63b8ff" points="438.5,-19.5 448.5,-16 438.5,-12.5 438.5,-19.5"/>
</a>
</g>
</g>
<!-- Node9 -->
<g id="Node000009" class="node">
<title>Node9</title>
<g id="a_Node000009"><a xlink:href="classGameManager.html#a72e1318dfab6fad06bd4126d12f6a537" target="_top" xlink:title=" ">
<polygon fill="white" stroke="#666666" points="222.5,-26 73,-26 73,-6 222.5,-6 222.5,-26"/>
<text text-anchor="middle" x="147.75" y="-12.5" font-family="Helvetica,sans-Serif" font-size="10.00">GameManager::GameManager</text>
</a>
</g>
</g>
<!-- Node8&#45;&gt;Node9 -->
<g id="edge9_Node000008_Node000009" class="edge">
<title>Node8&#45;&gt;Node9</title>
<g id="a_edge9_Node000008_Node000009"><a xlink:title=" ">
<path fill="none" stroke="#63b8ff" d="M246.91,-16C238.86,-16 230.75,-16 222.83,-16"/>
<polygon fill="#63b8ff" stroke="#63b8ff" points="246.72,-19.5 256.72,-16 246.72,-12.5 246.72,-19.5"/>
</a>
</g>
</g>
</g>
</svg>
