<?xml version="1.0" encoding="UTF-8" standalone="no"?>
<!DOCTYPE svg PUBLIC "-//W3C//DTD SVG 1.1//EN"
 "http://www.w3.org/Graphics/SVG/1.1/DTD/svg11.dtd">
<!-- Generated by graphviz version 12.1.0 (20240811.2233)
 -->
<!-- Title: Engine::Systems::Collision::checkCollision Pages: 1 -->
<svg width="304pt" height="78pt"
 viewBox="0.00 0.00 304.00 78.00" xmlns="http://www.w3.org/2000/svg" xmlns:xlink="http://www.w3.org/1999/xlink">
<g id="graph0" class="graph" transform="scale(1 1) rotate(0) translate(4 74)">
<title>Engine::Systems::Collision::checkCollision</title>
<!-- Node1 -->
<g id="Node000001" class="node">
<title>Node1</title>
<g id="a_Node000001"><a xlink:title=" ">
<polygon fill="#999999" stroke="#666666" points="134.5,-48 0,-48 0,-16 134.5,-16 134.5,-48"/>
<text text-anchor="start" x="8" y="-34.5" font-family="Helvetica,sans-Serif" font-size="10.00">Engine::Systems::Collision</text>
<text text-anchor="middle" x="67.25" y="-22.5" font-family="Helvetica,sans-Serif" font-size="10.00">::checkCollision</text>
</a>
</g>
</g>
<!-- Node2 -->
<g id="Node000002" class="node">
<title>Node2</title>
<g id="a_Node000002"><a xlink:href="classEngine_1_1Utils_1_1Rect.html#aea498b54eac92880d6c1f7774921619c" target="_top" xlink:title=" ">
<polygon fill="white" stroke="#666666" points="282.88,-70 183.62,-70 183.62,-38 282.88,-38 282.88,-70"/>
<text text-anchor="start" x="191.62" y="-56.5" font-family="Helvetica,sans-Serif" font-size="10.00">Engine::Utils::Rect</text>
<text text-anchor="middle" x="233.25" y="-44.5" font-family="Helvetica,sans-Serif" font-size="10.00">::intersects</text>
</a>
</g>
</g>
<!-- Node1&#45;&gt;Node2 -->
<g id="edge1_Node000001_Node000002" class="edge">
<title>Node1&#45;&gt;Node2</title>
<g id="a_edge1_Node000001_Node000002"><a xlink:title=" ">
<path fill="none" stroke="#63b8ff" d="M134.96,-40.95C147.19,-42.59 159.89,-44.29 171.92,-45.91"/>
<polygon fill="#63b8ff" stroke="#63b8ff" points="171.33,-49.36 181.71,-47.22 172.27,-42.42 171.33,-49.36"/>
</a>
</g>
</g>
<!-- Node3 -->
<g id="Node000003" class="node">
<title>Node3</title>
<g id="a_Node000003"><a xlink:href="classEngine_1_1Event.html#a096c333084c5fbac10f77048263b3066" target="_top" xlink:title=" ">
<polygon fill="white" stroke="#666666" points="296,-20 170.5,-20 170.5,0 296,0 296,-20"/>
<text text-anchor="middle" x="233.25" y="-6.5" font-family="Helvetica,sans-Serif" font-size="10.00">Engine::Event::setParam</text>
</a>
</g>
</g>
<!-- Node1&#45;&gt;Node3 -->
<g id="edge2_Node000001_Node000003" class="edge">
<title>Node1&#45;&gt;Node3</title>
<g id="a_edge2_Node000001_Node000003"><a xlink:title=" ">
<path fill="none" stroke="#63b8ff" d="M134.96,-23.05C142.85,-21.99 150.94,-20.91 158.92,-19.84"/>
<polygon fill="#63b8ff" stroke="#63b8ff" points="159.16,-23.34 168.6,-18.54 158.23,-16.4 159.16,-23.34"/>
</a>
</g>
</g>
</g>
</svg>
