<?xml version="1.0" encoding="UTF-8" standalone="no"?>
<!DOCTYPE svg PUBLIC "-//W3C//DTD SVG 1.1//EN"
 "http://www.w3.org/Graphics/SVG/1.1/DTD/svg11.dtd">
<!-- Generated by graphviz version 12.1.0 (20240811.2233)
 -->
<!-- Title: GameManager::onRoomMessage Pages: 1 -->
<svg width="1006pt" height="62pt"
 viewBox="0.00 0.00 1005.50 62.00" xmlns="http://www.w3.org/2000/svg" xmlns:xlink="http://www.w3.org/1999/xlink">
<g id="graph0" class="graph" transform="scale(1 1) rotate(0) translate(4 58)">
<title>GameManager::onRoomMessage</title>
<!-- Node1 -->
<g id="Node000001" class="node">
<title>Node1</title>
<g id="a_Node000001"><a xlink:title=" ">
<polygon fill="#999999" stroke="#666666" points="997.5,-26 835.25,-26 835.25,-6 997.5,-6 997.5,-26"/>
<text text-anchor="middle" x="916.38" y="-12.5" font-family="Helvetica,sans-Serif" font-size="10.00">GameManager::onRoomMessage</text>
</a>
</g>
</g>
<!-- Node2 -->
<g id="Node000002" class="node">
<title>Node2</title>
<g id="a_Node000002"><a xlink:href="classGameManager.html#a14d06b2592fdbf40f9bc38e2643635fd" target="_top" xlink:title=" ">
<polygon fill="white" stroke="#666666" points="799.25,-26 628.75,-26 628.75,-6 799.25,-6 799.25,-26"/>
<text text-anchor="middle" x="714" y="-12.5" font-family="Helvetica,sans-Serif" font-size="10.00">GameManager::initializeNetworking</text>
</a>
</g>
</g>
<!-- Node1&#45;&gt;Node2 -->
<g id="edge1_Node000001_Node000002" class="edge">
<title>Node1&#45;&gt;Node2</title>
<g id="a_edge1_Node000001_Node000002"><a xlink:title=" ">
<path fill="none" stroke="#63b8ff" d="M823.74,-16C815.71,-16 807.6,-16 799.63,-16"/>
<polygon fill="#63b8ff" stroke="#63b8ff" points="823.52,-19.5 833.52,-16 823.52,-12.5 823.52,-19.5"/>
</a>
</g>
</g>
<!-- Node3 -->
<g id="Node000003" class="node">
<title>Node3</title>
<g id="a_Node000003"><a xlink:href="classGameManager.html#a946b57d62b25778f70deebaaf41f609d" target="_top" xlink:title=" ">
<polygon fill="white" stroke="#666666" points="592.75,-54 433.5,-54 433.5,-22 592.75,-22 592.75,-54"/>
<text text-anchor="start" x="441.5" y="-40.5" font-family="Helvetica,sans-Serif" font-size="10.00">GameManager::connectToServer</text>
<text text-anchor="middle" x="513.12" y="-28.5" font-family="Helvetica,sans-Serif" font-size="10.00">WithRooms</text>
</a>
</g>
</g>
<!-- Node2&#45;&gt;Node3 -->
<g id="edge2_Node000002_Node000003" class="edge">
<title>Node2&#45;&gt;Node3</title>
<g id="a_edge2_Node000002_Node000003"><a xlink:title=" ">
<path fill="none" stroke="#63b8ff" d="M617.03,-26.62C608.98,-27.51 600.9,-28.4 593,-29.28"/>
<polygon fill="#63b8ff" stroke="#63b8ff" points="617.31,-30.11 626.87,-25.53 616.54,-23.15 617.31,-30.11"/>
</a>
</g>
</g>
<!-- Node4 -->
<g id="Node000004" class="node">
<title>Node4</title>
<g id="a_Node000004"><a xlink:href="classGameManager.html#aeed1dd73db1c39b2e39d30d9d37c1f6c" target="_top" xlink:title=" ">
<polygon fill="white" stroke="#666666" points="397.5,-32 254,-32 254,0 397.5,0 397.5,-32"/>
<text text-anchor="start" x="262" y="-18.5" font-family="Helvetica,sans-Serif" font-size="10.00">GameManager::handleMouse</text>
<text text-anchor="middle" x="325.75" y="-6.5" font-family="Helvetica,sans-Serif" font-size="10.00">Click</text>
</a>
</g>
</g>
<!-- Node2&#45;&gt;Node4 -->
<g id="edge6_Node000002_Node000004" class="edge">
<title>Node2&#45;&gt;Node4</title>
<g id="a_edge6_Node000002_Node000004"><a xlink:title=" ">
<path fill="none" stroke="#63b8ff" d="M616.77,-13.39C608.65,-13.23 600.56,-13.1 592.75,-13 521.98,-12.12 504.27,-12.01 433.5,-13 422.01,-13.16 409.82,-13.42 397.95,-13.72"/>
<polygon fill="#63b8ff" stroke="#63b8ff" points="616.67,-16.88 626.74,-13.59 616.82,-9.89 616.67,-16.88"/>
</a>
</g>
</g>
<!-- Node3&#45;&gt;Node4 -->
<g id="edge3_Node000003_Node000004" class="edge">
<title>Node3&#45;&gt;Node4</title>
<g id="a_edge3_Node000003_Node000004"><a xlink:title=" ">
<path fill="none" stroke="#63b8ff" d="M421.9,-27.29C413.86,-26.34 405.78,-25.38 397.93,-24.45"/>
<polygon fill="#63b8ff" stroke="#63b8ff" points="421.39,-30.76 431.74,-28.46 422.22,-23.81 421.39,-30.76"/>
</a>
</g>
</g>
<!-- Node5 -->
<g id="Node000005" class="node">
<title>Node5</title>
<g id="a_Node000005"><a xlink:href="classGameManager.html#a6cea7fca5fecdd4f8a32912d4bfc233f" target="_top" xlink:title=" ">
<polygon fill="white" stroke="#666666" points="218,-26 73,-26 73,-6 218,-6 218,-26"/>
<text text-anchor="middle" x="145.5" y="-12.5" font-family="Helvetica,sans-Serif" font-size="10.00">GameManager::handleEvents</text>
</a>
</g>
</g>
<!-- Node4&#45;&gt;Node5 -->
<g id="edge4_Node000004_Node000005" class="edge">
<title>Node4&#45;&gt;Node5</title>
<g id="a_edge4_Node000004_Node000005"><a xlink:title=" ">
<path fill="none" stroke="#63b8ff" d="M242.07,-16C234.19,-16 226.24,-16 218.48,-16"/>
<polygon fill="#63b8ff" stroke="#63b8ff" points="242.02,-19.5 252.02,-16 242.02,-12.5 242.02,-19.5"/>
</a>
</g>
</g>
<!-- Node6 -->
<g id="Node000006" class="node">
<title>Node6</title>
<g id="a_Node000006"><a xlink:href="Client_2src_2main_8cpp.html#ae66f6b31b5ad750f1fe042a706a4e3d4" target="_top" xlink:title=" ">
<polygon fill="white" stroke="#666666" points="37,-26 0,-26 0,-6 37,-6 37,-26"/>
<text text-anchor="middle" x="18.5" y="-12.5" font-family="Helvetica,sans-Serif" font-size="10.00">main</text>
</a>
</g>
</g>
<!-- Node5&#45;&gt;Node6 -->
<g id="edge5_Node000005_Node000006" class="edge">
<title>Node5&#45;&gt;Node6</title>
<g id="a_edge5_Node000005_Node000006"><a xlink:title=" ">
<path fill="none" stroke="#63b8ff" d="M61.12,-16C52.34,-16 44.18,-16 37.46,-16"/>
<polygon fill="#63b8ff" stroke="#63b8ff" points="61,-19.5 71,-16 61,-12.5 61,-19.5"/>
</a>
</g>
</g>
</g>
</svg>
