<?xml version="1.0" encoding="UTF-8" standalone="no"?>
<!DOCTYPE svg PUBLIC "-//W3C//DTD SVG 1.1//EN"
 "http://www.w3.org/Graphics/SVG/1.1/DTD/svg11.dtd">
<!-- Generated by graphviz version 12.1.0 (20240811.2233)
 -->
<!-- Title: Button::updatePositionAndSize Pages: 1 -->
<svg width="1148pt" height="75pt"
 viewBox="0.00 0.00 1147.50 75.00" xmlns="http://www.w3.org/2000/svg" xmlns:xlink="http://www.w3.org/1999/xlink">
<g id="graph0" class="graph" transform="scale(1 1) rotate(0) translate(4 71)">
<title>Button::updatePositionAndSize</title>
<!-- Node1 -->
<g id="Node000001" class="node">
<title>Node1</title>
<g id="a_Node000001"><a xlink:title=" ">
<polygon fill="#999999" stroke="#666666" points="1139.5,-39 987.75,-39 987.75,-19 1139.5,-19 1139.5,-39"/>
<text text-anchor="middle" x="1063.62" y="-25.5" font-family="Helvetica,sans-Serif" font-size="10.00">Button::updatePositionAndSize</text>
</a>
</g>
</g>
<!-- Node2 -->
<g id="Node000002" class="node">
<title>Node2</title>
<g id="a_Node000002"><a xlink:href="classGameManager.html#a0a220f16a3e2d31baa08c03bec5c88b6" target="_top" xlink:title=" ">
<polygon fill="white" stroke="#666666" points="760.25,-45 610.75,-45 610.75,-13 760.25,-13 760.25,-45"/>
<text text-anchor="start" x="618.75" y="-31.5" font-family="Helvetica,sans-Serif" font-size="10.00">GameManager::handleWindow</text>
<text text-anchor="middle" x="685.5" y="-19.5" font-family="Helvetica,sans-Serif" font-size="10.00">Resize</text>
</a>
</g>
</g>
<!-- Node1&#45;&gt;Node2 -->
<g id="edge1_Node000001_Node000002" class="edge">
<title>Node1&#45;&gt;Node2</title>
<g id="a_edge1_Node000001_Node000002"><a xlink:title=" ">
<path fill="none" stroke="#63b8ff" d="M975.94,-29C910.79,-29 822.5,-29 760.62,-29"/>
<polygon fill="#63b8ff" stroke="#63b8ff" points="975.9,-32.5 985.9,-29 975.9,-25.5 975.9,-32.5"/>
</a>
</g>
</g>
<!-- Node7 -->
<g id="Node000007" class="node">
<title>Node7</title>
<g id="a_Node000007"><a xlink:href="classGameManager.html#a8e15c786c5c741751d7abf5433f29d75" target="_top" xlink:title=" ">
<polygon fill="white" stroke="#666666" points="951.75,-20 796.25,-20 796.25,0 951.75,0 951.75,-20"/>
<text text-anchor="middle" x="874" y="-6.5" font-family="Helvetica,sans-Serif" font-size="10.00">GameManager::updatePositions</text>
</a>
</g>
</g>
<!-- Node1&#45;&gt;Node7 -->
<g id="edge7_Node000001_Node000007" class="edge">
<title>Node1&#45;&gt;Node7</title>
<g id="a_edge7_Node000001_Node000007"><a xlink:title=" ">
<path fill="none" stroke="#63b8ff" d="M976.13,-20.24C968.11,-19.43 960.02,-18.61 952.09,-17.81"/>
<polygon fill="#63b8ff" stroke="#63b8ff" points="975.58,-23.7 985.89,-21.23 976.29,-16.74 975.58,-23.7"/>
</a>
</g>
</g>
<!-- Node3 -->
<g id="Node000003" class="node">
<title>Node3</title>
<g id="a_Node000003"><a xlink:href="classGameManager.html#a948792a1ef6f0a0c8c21fae779c4b525" target="_top" xlink:title=" ">
<polygon fill="white" stroke="#666666" points="574.75,-67 433.5,-67 433.5,-35 574.75,-35 574.75,-67"/>
<text text-anchor="start" x="441.5" y="-53.5" font-family="Helvetica,sans-Serif" font-size="10.00">GameManager::applyCurrent</text>
<text text-anchor="middle" x="504.12" y="-41.5" font-family="Helvetica,sans-Serif" font-size="10.00">Resolution</text>
</a>
</g>
</g>
<!-- Node2&#45;&gt;Node3 -->
<g id="edge2_Node000002_Node000003" class="edge">
<title>Node2&#45;&gt;Node3</title>
<g id="a_edge2_Node000002_Node000003"><a xlink:title=" ">
<path fill="none" stroke="#63b8ff" d="M599.2,-39.46C591.16,-40.45 583.07,-41.44 575.2,-42.41"/>
<polygon fill="#63b8ff" stroke="#63b8ff" points="599.5,-42.95 609,-38.26 598.65,-36 599.5,-42.95"/>
</a>
</g>
</g>
<!-- Node5 -->
<g id="Node000005" class="node">
<title>Node5</title>
<g id="a_Node000005"><a xlink:href="classGameManager.html#a6cea7fca5fecdd4f8a32912d4bfc233f" target="_top" xlink:title=" ">
<polygon fill="white" stroke="#666666" points="218,-39 73,-39 73,-19 218,-19 218,-39"/>
<text text-anchor="middle" x="145.5" y="-25.5" font-family="Helvetica,sans-Serif" font-size="10.00">GameManager::handleEvents</text>
</a>
</g>
</g>
<!-- Node2&#45;&gt;Node5 -->
<g id="edge6_Node000002_Node000005" class="edge">
<title>Node2&#45;&gt;Node5</title>
<g id="a_edge6_Node000002_Node000005"><a xlink:title=" ">
<path fill="none" stroke="#63b8ff" d="M599.18,-26.44C590.93,-26.26 582.68,-26.11 574.75,-26 432.21,-24.05 396.54,-24.01 254,-26 242.52,-26.16 230.35,-26.42 218.49,-26.71"/>
<polygon fill="#63b8ff" stroke="#63b8ff" points="598.82,-29.93 608.9,-26.66 598.99,-22.93 598.82,-29.93"/>
</a>
</g>
</g>
<!-- Node4 -->
<g id="Node000004" class="node">
<title>Node4</title>
<g id="a_Node000004"><a xlink:href="classGameManager.html#aeed1dd73db1c39b2e39d30d9d37c1f6c" target="_top" xlink:title=" ">
<polygon fill="white" stroke="#666666" points="397.5,-67 254,-67 254,-35 397.5,-35 397.5,-67"/>
<text text-anchor="start" x="262" y="-53.5" font-family="Helvetica,sans-Serif" font-size="10.00">GameManager::handleMouse</text>
<text text-anchor="middle" x="325.75" y="-41.5" font-family="Helvetica,sans-Serif" font-size="10.00">Click</text>
</a>
</g>
</g>
<!-- Node3&#45;&gt;Node4 -->
<g id="edge3_Node000003_Node000004" class="edge">
<title>Node3&#45;&gt;Node4</title>
<g id="a_edge3_Node000003_Node000004"><a xlink:title=" ">
<path fill="none" stroke="#63b8ff" d="M421.87,-51C413.83,-51 405.71,-51 397.78,-51"/>
<polygon fill="#63b8ff" stroke="#63b8ff" points="421.65,-54.5 431.65,-51 421.65,-47.5 421.65,-54.5"/>
</a>
</g>
</g>
<!-- Node4&#45;&gt;Node5 -->
<g id="edge4_Node000004_Node000005" class="edge">
<title>Node4&#45;&gt;Node5</title>
<g id="a_edge4_Node000004_Node000005"><a xlink:title=" ">
<path fill="none" stroke="#63b8ff" d="M242.34,-40.83C234.37,-39.85 226.33,-38.85 218.48,-37.88"/>
<polygon fill="#63b8ff" stroke="#63b8ff" points="241.68,-44.27 252.03,-42.02 242.53,-37.33 241.68,-44.27"/>
</a>
</g>
</g>
<!-- Node6 -->
<g id="Node000006" class="node">
<title>Node6</title>
<g id="a_Node000006"><a xlink:href="Client_2src_2main_8cpp.html#ae66f6b31b5ad750f1fe042a706a4e3d4" target="_top" xlink:title=" ">
<polygon fill="white" stroke="#666666" points="37,-39 0,-39 0,-19 37,-19 37,-39"/>
<text text-anchor="middle" x="18.5" y="-25.5" font-family="Helvetica,sans-Serif" font-size="10.00">main</text>
</a>
</g>
</g>
<!-- Node5&#45;&gt;Node6 -->
<g id="edge5_Node000005_Node000006" class="edge">
<title>Node5&#45;&gt;Node6</title>
<g id="a_edge5_Node000005_Node000006"><a xlink:title=" ">
<path fill="none" stroke="#63b8ff" d="M61.12,-29C52.34,-29 44.18,-29 37.46,-29"/>
<polygon fill="#63b8ff" stroke="#63b8ff" points="61,-32.5 71,-29 61,-25.5 61,-32.5"/>
</a>
</g>
</g>
<!-- Node7&#45;&gt;Node2 -->
<g id="edge8_Node000007_Node000002" class="edge">
<title>Node7&#45;&gt;Node2</title>
<g id="a_edge8_Node000007_Node000002"><a xlink:title=" ">
<path fill="none" stroke="#63b8ff" d="M784.55,-19.01C776.55,-19.83 768.5,-20.65 760.65,-21.45"/>
<polygon fill="#63b8ff" stroke="#63b8ff" points="784.7,-22.51 794.29,-18.02 783.99,-15.55 784.7,-22.51"/>
</a>
</g>
</g>
</g>
</svg>
