<?xml version="1.0" encoding="UTF-8" standalone="no"?>
<!DOCTYPE svg PUBLIC "-//W3C//DTD SVG 1.1//EN"
 "http://www.w3.org/Graphics/SVG/1.1/DTD/svg11.dtd">
<!-- Generated by graphviz version 12.1.0 (20240811.2233)
 -->
<!-- Title: Engine::NetworkManager::NetworkManager Pages: 1 -->
<svg width="494pt" height="90pt"
 viewBox="0.00 0.00 494.00 90.00" xmlns="http://www.w3.org/2000/svg" xmlns:xlink="http://www.w3.org/1999/xlink">
<g id="graph0" class="graph" transform="scale(1 1) rotate(0) translate(4 86)">
<title>Engine::NetworkManager::NetworkManager</title>
<!-- Node1 -->
<g id="Node000001" class="node">
<title>Node1</title>
<g id="a_Node000001"><a xlink:title=" ">
<polygon fill="#999999" stroke="#666666" points="126.25,-57 0,-57 0,-25 126.25,-25 126.25,-57"/>
<text text-anchor="start" x="8" y="-43.5" font-family="Helvetica,sans-Serif" font-size="10.00">Engine::NetworkManager</text>
<text text-anchor="middle" x="63.12" y="-31.5" font-family="Helvetica,sans-Serif" font-size="10.00">::NetworkManager</text>
</a>
</g>
</g>
<!-- Node2 -->
<g id="Node000002" class="node">
<title>Node2</title>
<g id="a_Node000002"><a xlink:href="classEngine_1_1NetworkManager.html#a27602c1390dbc6865b4a1a6538b041e6" target="_top" xlink:title=" ">
<polygon fill="white" stroke="#666666" points="288.5,-82 162.25,-82 162.25,-50 288.5,-50 288.5,-82"/>
<text text-anchor="start" x="170.25" y="-68.5" font-family="Helvetica,sans-Serif" font-size="10.00">Engine::NetworkManager</text>
<text text-anchor="middle" x="225.38" y="-56.5" font-family="Helvetica,sans-Serif" font-size="10.00">::registerComponent</text>
</a>
</g>
</g>
<!-- Node1&#45;&gt;Node2 -->
<g id="edge1_Node000001_Node000002" class="edge">
<title>Node1&#45;&gt;Node2</title>
<g id="a_edge1_Node000001_Node000002"><a xlink:title=" ">
<path fill="none" stroke="#63b8ff" d="M126.54,-50.74C134.43,-51.97 142.55,-53.23 150.59,-54.49"/>
<polygon fill="#63b8ff" stroke="#63b8ff" points="149.95,-57.93 160.37,-56.01 151.03,-51.02 149.95,-57.93"/>
</a>
</g>
</g>
<!-- Node4 -->
<g id="Node000004" class="node">
<title>Node4</title>
<g id="a_Node000004"><a xlink:href="classEngine_1_1NetworkManager.html#ab5f69d16535c9ab42ddb085bdc7d246b" target="_top" xlink:title=" ">
<polygon fill="white" stroke="#666666" points="288.5,-32 162.25,-32 162.25,0 288.5,0 288.5,-32"/>
<text text-anchor="start" x="170.25" y="-18.5" font-family="Helvetica,sans-Serif" font-size="10.00">Engine::NetworkManager</text>
<text text-anchor="middle" x="225.38" y="-6.5" font-family="Helvetica,sans-Serif" font-size="10.00">::start_receive</text>
</a>
</g>
</g>
<!-- Node1&#45;&gt;Node4 -->
<g id="edge3_Node000001_Node000004" class="edge">
<title>Node1&#45;&gt;Node4</title>
<g id="a_edge3_Node000001_Node000004"><a xlink:title=" ">
<path fill="none" stroke="#63b8ff" d="M126.54,-31.26C134.43,-30.03 142.55,-28.77 150.59,-27.51"/>
<polygon fill="#63b8ff" stroke="#63b8ff" points="151.03,-30.98 160.37,-25.99 149.95,-24.07 151.03,-30.98"/>
</a>
</g>
</g>
<!-- Node3 -->
<g id="Node000003" class="node">
<title>Node3</title>
<g id="a_Node000003"><a xlink:href="classEngine_1_1Mediator.html#a6d4cb7470688ac166142717c6d2eddb7" target="_top" xlink:title=" ">
<polygon fill="white" stroke="#666666" points="486,-76 324.5,-76 324.5,-56 486,-56 486,-76"/>
<text text-anchor="middle" x="405.25" y="-62.5" font-family="Helvetica,sans-Serif" font-size="10.00">Engine::Mediator::addComponent</text>
</a>
</g>
</g>
<!-- Node2&#45;&gt;Node3 -->
<g id="edge2_Node000002_Node000003" class="edge">
<title>Node2&#45;&gt;Node3</title>
<g id="a_edge2_Node000002_Node000003"><a xlink:title=" ">
<path fill="none" stroke="#63b8ff" d="M288.84,-66C296.59,-66 304.65,-66 312.73,-66"/>
<polygon fill="#63b8ff" stroke="#63b8ff" points="312.63,-69.5 322.63,-66 312.63,-62.5 312.63,-69.5"/>
</a>
</g>
</g>
</g>
</svg>
