<?xml version="1.0" encoding="UTF-8" standalone="no"?>
<!DOCTYPE svg PUBLIC "-//W3C//DTD SVG 1.1//EN"
 "http://www.w3.org/Graphics/SVG/1.1/DTD/svg11.dtd">
<!-- Generated by graphviz version 12.1.0 (20240811.2233)
 -->
<!-- Title: ControlsConfig::updateControlSettingsPositions Pages: 1 -->
<svg width="737pt" height="116pt"
 viewBox="0.00 0.00 737.25 116.00" xmlns="http://www.w3.org/2000/svg" xmlns:xlink="http://www.w3.org/1999/xlink">
<g id="graph0" class="graph" transform="scale(1 1) rotate(0) translate(4 112)">
<title>ControlsConfig::updateControlSettingsPositions</title>
<!-- Node1 -->
<g id="Node000001" class="node">
<title>Node1</title>
<g id="a_Node000001"><a xlink:title=" ">
<polygon fill="#999999" stroke="#666666" points="729.25,-70 581.25,-70 581.25,-38 729.25,-38 729.25,-70"/>
<text text-anchor="start" x="589.25" y="-56.5" font-family="Helvetica,sans-Serif" font-size="10.00">ControlsConfig::updateControl</text>
<text text-anchor="middle" x="655.25" y="-44.5" font-family="Helvetica,sans-Serif" font-size="10.00">SettingsPositions</text>
</a>
</g>
</g>
<!-- Node2 -->
<g id="Node000002" class="node">
<title>Node2</title>
<g id="a_Node000002"><a xlink:href="classControlsConfig.html#a1744d263bd924fcefd9c35afb9344f5b" target="_top" xlink:title=" ">
<polygon fill="white" stroke="#666666" points="530.25,-108 389,-108 389,-88 530.25,-88 530.25,-108"/>
<text text-anchor="middle" x="459.62" y="-94.5" font-family="Helvetica,sans-Serif" font-size="10.00">ControlsConfig::handleEvent</text>
</a>
</g>
</g>
<!-- Node1&#45;&gt;Node2 -->
<g id="edge1_Node000001_Node000002" class="edge">
<title>Node1&#45;&gt;Node2</title>
<g id="a_edge1_Node000001_Node000002"><a xlink:title=" ">
<path fill="none" stroke="#63b8ff" d="M571.53,-73.01C562.66,-75.04 553.77,-77.07 545.25,-79 532.92,-81.8 519.56,-84.81 507.19,-87.59"/>
<polygon fill="#63b8ff" stroke="#63b8ff" points="572.29,-76.43 581.25,-70.79 570.73,-69.61 572.29,-76.43"/>
</a>
</g>
</g>
<!-- Node5 -->
<g id="Node000005" class="node">
<title>Node5</title>
<g id="a_Node000005"><a xlink:href="classControlsConfig.html#a19d45c2752ac1653237de9314510ebc2" target="_top" xlink:title=" ">
<polygon fill="white" stroke="#666666" points="531,-70 388.25,-70 388.25,-38 531,-38 531,-70"/>
<text text-anchor="start" x="396.25" y="-56.5" font-family="Helvetica,sans-Serif" font-size="10.00">ControlsConfig::setupControl</text>
<text text-anchor="middle" x="459.62" y="-44.5" font-family="Helvetica,sans-Serif" font-size="10.00">Settings</text>
</a>
</g>
</g>
<!-- Node1&#45;&gt;Node5 -->
<g id="edge4_Node000001_Node000005" class="edge">
<title>Node1&#45;&gt;Node5</title>
<g id="a_edge4_Node000001_Node000005"><a xlink:title=" ">
<path fill="none" stroke="#63b8ff" d="M569.29,-54C556.67,-54 543.78,-54 531.49,-54"/>
<polygon fill="#63b8ff" stroke="#63b8ff" points="569.26,-57.5 579.26,-54 569.26,-50.5 569.26,-57.5"/>
</a>
</g>
</g>
<!-- Node8 -->
<g id="Node000008" class="node">
<title>Node8</title>
<g id="a_Node000008"><a xlink:href="classControlsConfig.html#ab9310632253afc9ed37f86920dd58a43" target="_top" xlink:title=" ">
<polygon fill="white" stroke="#666666" points="545.25,-20 374,-20 374,0 545.25,0 545.25,-20"/>
<text text-anchor="middle" x="459.62" y="-6.5" font-family="Helvetica,sans-Serif" font-size="10.00">ControlsConfig::updateWindowSize</text>
</a>
</g>
</g>
<!-- Node1&#45;&gt;Node8 -->
<g id="edge7_Node000001_Node000008" class="edge">
<title>Node1&#45;&gt;Node8</title>
<g id="a_edge7_Node000001_Node000008"><a xlink:title=" ">
<path fill="none" stroke="#63b8ff" d="M571.53,-34.99C562.66,-32.96 553.77,-30.93 545.25,-29 532.92,-26.2 519.56,-23.19 507.19,-20.41"/>
<polygon fill="#63b8ff" stroke="#63b8ff" points="570.73,-38.39 581.25,-37.21 572.29,-31.57 570.73,-38.39"/>
</a>
</g>
</g>
<!-- Node3 -->
<g id="Node000003" class="node">
<title>Node3</title>
<g id="a_Node000003"><a xlink:href="classGameManager.html#a6cea7fca5fecdd4f8a32912d4bfc233f" target="_top" xlink:title=" ">
<polygon fill="white" stroke="#666666" points="334.25,-108 189.25,-108 189.25,-88 334.25,-88 334.25,-108"/>
<text text-anchor="middle" x="261.75" y="-94.5" font-family="Helvetica,sans-Serif" font-size="10.00">GameManager::handleEvents</text>
</a>
</g>
</g>
<!-- Node2&#45;&gt;Node3 -->
<g id="edge2_Node000002_Node000003" class="edge">
<title>Node2&#45;&gt;Node3</title>
<g id="a_edge2_Node000002_Node000003"><a xlink:title=" ">
<path fill="none" stroke="#63b8ff" d="M377.46,-98C363.24,-98 348.54,-98 334.59,-98"/>
<polygon fill="#63b8ff" stroke="#63b8ff" points="377.23,-101.5 387.23,-98 377.23,-94.5 377.23,-101.5"/>
</a>
</g>
</g>
<!-- Node4 -->
<g id="Node000004" class="node">
<title>Node4</title>
<g id="a_Node000004"><a xlink:href="Client_2src_2main_8cpp.html#ae66f6b31b5ad750f1fe042a706a4e3d4" target="_top" xlink:title=" ">
<polygon fill="white" stroke="#666666" points="93.25,-108 56.25,-108 56.25,-88 93.25,-88 93.25,-108"/>
<text text-anchor="middle" x="74.75" y="-94.5" font-family="Helvetica,sans-Serif" font-size="10.00">main</text>
</a>
</g>
</g>
<!-- Node3&#45;&gt;Node4 -->
<g id="edge3_Node000003_Node000004" class="edge">
<title>Node3&#45;&gt;Node4</title>
<g id="a_edge3_Node000003_Node000004"><a xlink:title=" ">
<path fill="none" stroke="#63b8ff" d="M177.86,-98C146.22,-98 113.06,-98 93.42,-98"/>
<polygon fill="#63b8ff" stroke="#63b8ff" points="177.45,-101.5 187.45,-98 177.45,-94.5 177.45,-101.5"/>
</a>
</g>
</g>
<!-- Node6 -->
<g id="Node000006" class="node">
<title>Node6</title>
<g id="a_Node000006"><a xlink:href="classControlsConfig.html#a971fd58e74e4b77a02dd7d2b4c9a796e" target="_top" xlink:title=" ">
<polygon fill="white" stroke="#666666" points="338,-64 185.5,-64 185.5,-44 338,-44 338,-64"/>
<text text-anchor="middle" x="261.75" y="-50.5" font-family="Helvetica,sans-Serif" font-size="10.00">ControlsConfig::loadResources</text>
</a>
</g>
</g>
<!-- Node5&#45;&gt;Node6 -->
<g id="edge5_Node000005_Node000006" class="edge">
<title>Node5&#45;&gt;Node6</title>
<g id="a_edge5_Node000005_Node000006"><a xlink:title=" ">
<path fill="none" stroke="#63b8ff" d="M376.43,-54C363.8,-54 350.8,-54 338.32,-54"/>
<polygon fill="#63b8ff" stroke="#63b8ff" points="376.4,-57.5 386.4,-54 376.4,-50.5 376.4,-57.5"/>
</a>
</g>
</g>
<!-- Node7 -->
<g id="Node000007" class="node">
<title>Node7</title>
<g id="a_Node000007"><a xlink:href="classGameManager.html#ae60f9a9c5dc48f158537ed98d2b6dbfe" target="_top" xlink:title=" ">
<polygon fill="white" stroke="#666666" points="149.5,-64 0,-64 0,-44 149.5,-44 149.5,-64"/>
<text text-anchor="middle" x="74.75" y="-50.5" font-family="Helvetica,sans-Serif" font-size="10.00">GameManager::GameManager</text>
</a>
</g>
</g>
<!-- Node6&#45;&gt;Node7 -->
<g id="edge6_Node000006_Node000007" class="edge">
<title>Node6&#45;&gt;Node7</title>
<g id="a_edge6_Node000006_Node000007"><a xlink:title=" ">
<path fill="none" stroke="#63b8ff" d="M173.91,-54C165.86,-54 157.75,-54 149.83,-54"/>
<polygon fill="#63b8ff" stroke="#63b8ff" points="173.72,-57.5 183.72,-54 173.72,-50.5 173.72,-57.5"/>
</a>
</g>
</g>
</g>
</svg>
