<?xml version="1.0" encoding="UTF-8" standalone="no"?>
<!DOCTYPE svg PUBLIC "-//W3C//DTD SVG 1.1//EN"
 "http://www.w3.org/Graphics/SVG/1.1/DTD/svg11.dtd">
<!-- Generated by graphviz version 12.1.0 (20240811.2233)
 -->
<!-- Title: Engine::SystemManagerError Pages: 1 -->
<svg width="146pt" height="164pt"
 viewBox="0.00 0.00 146.00 164.00" xmlns="http://www.w3.org/2000/svg" xmlns:xlink="http://www.w3.org/1999/xlink">
<g id="graph0" class="graph" transform="scale(1 1) rotate(0) translate(4 160)">
<title>Engine::SystemManagerError</title>
<!-- Node1 -->
<g id="Node000001" class="node">
<title>Node1</title>
<g id="a_Node000001"><a xlink:title=" ">
<polygon fill="#999999" stroke="none" points="138,-68 0,-68 0,0 138,0 138,-68"/>
<text text-anchor="start" x="4.88" y="-54.5" font-family="Helvetica,sans-Serif" font-size="10.00">Engine::SystemManagerError</text>
<text text-anchor="start" x="11" y="-38.5" font-family="Helvetica,sans-Serif" font-size="10.00">&#45;</text>
<text text-anchor="start" x="25" y="-38.5" font-family="Helvetica,sans-Serif" font-size="10.00">message</text>
<text text-anchor="start" x="9.5" y="-22.5" font-family="Helvetica,sans-Serif" font-size="10.00">+</text>
<text text-anchor="start" x="25" y="-22.5" font-family="Helvetica,sans-Serif" font-size="10.00">SystemManagerError()</text>
<text text-anchor="start" x="9.5" y="-6.5" font-family="Helvetica,sans-Serif" font-size="10.00">+</text>
<text text-anchor="start" x="25" y="-6.5" font-family="Helvetica,sans-Serif" font-size="10.00">what()</text>
<polygon fill="#666666" stroke="#666666" points="0,-50 0,-50 138,-50 138,-50 0,-50"/>
<polygon fill="#666666" stroke="#666666" points="0,-34 0,-34 23,-34 23,-34 0,-34"/>
<polygon fill="#666666" stroke="#666666" points="23,-34 23,-34 138,-34 138,-34 23,-34"/>
<polygon fill="none" stroke="#666666" points="0,0 0,-68 138,-68 138,0 0,0"/>
</a>
</g>
</g>
<!-- Node2 -->
<g id="Node000002" class="node">
<title>Node2</title>
<g id="a_Node000002"><a xlink:title=" ">
<polygon fill="white" stroke="none" points="104.5,-156 33.5,-156 33.5,-104 104.5,-104 104.5,-156"/>
<text text-anchor="start" x="38.25" y="-142.5" font-family="Helvetica,sans-Serif" font-size="10.00">std::exception</text>
<text text-anchor="start" x="67.5" y="-126.5" font-family="Helvetica,sans-Serif" font-size="10.00"> </text>
<text text-anchor="start" x="67.5" y="-110.5" font-family="Helvetica,sans-Serif" font-size="10.00"> </text>
<polygon fill="#666666" stroke="#666666" points="33.5,-138 33.5,-138 104.5,-138 104.5,-138 33.5,-138"/>
<polygon fill="#666666" stroke="#666666" points="33.5,-122 33.5,-122 104.5,-122 104.5,-122 33.5,-122"/>
<polygon fill="none" stroke="#666666" points="33.5,-104 33.5,-156 104.5,-156 104.5,-104 33.5,-104"/>
</a>
</g>
</g>
<!-- Node2&#45;&gt;Node1 -->
<g id="edge1_Node000001_Node000002" class="edge">
<title>Node2&#45;&gt;Node1</title>
<g id="a_edge1_Node000001_Node000002"><a xlink:title=" ">
<path fill="none" stroke="#63b8ff" d="M69,-92.97C69,-84.65 69,-75.84 69,-67.67"/>
<polygon fill="none" stroke="#63b8ff" points="65.5,-92.79 69,-102.79 72.5,-92.79 65.5,-92.79"/>
</a>
</g>
</g>
</g>
</svg>
