<?xml version="1.0" encoding="UTF-8" standalone="no"?>
<!DOCTYPE svg PUBLIC "-//W3C//DTD SVG 1.1//EN"
 "http://www.w3.org/Graphics/SVG/1.1/DTD/svg11.dtd">
<!-- Generated by graphviz version 12.1.0 (20240811.2233)
 -->
<!-- Title: ControlsConfig::setupControlSettings Pages: 1 -->
<svg width="525pt" height="40pt"
 viewBox="0.00 0.00 524.75 40.00" xmlns="http://www.w3.org/2000/svg" xmlns:xlink="http://www.w3.org/1999/xlink">
<g id="graph0" class="graph" transform="scale(1 1) rotate(0) translate(4 36)">
<title>ControlsConfig::setupControlSettings</title>
<!-- Node1 -->
<g id="Node000001" class="node">
<title>Node1</title>
<g id="a_Node000001"><a xlink:title=" ">
<polygon fill="#999999" stroke="#666666" points="516.75,-32 374,-32 374,0 516.75,0 516.75,-32"/>
<text text-anchor="start" x="382" y="-18.5" font-family="Helvetica,sans-Serif" font-size="10.00">ControlsConfig::setupControl</text>
<text text-anchor="middle" x="445.38" y="-6.5" font-family="Helvetica,sans-Serif" font-size="10.00">Settings</text>
</a>
</g>
</g>
<!-- Node2 -->
<g id="Node000002" class="node">
<title>Node2</title>
<g id="a_Node000002"><a xlink:href="classControlsConfig.html#a971fd58e74e4b77a02dd7d2b4c9a796e" target="_top" xlink:title=" ">
<polygon fill="white" stroke="#666666" points="338,-26 185.5,-26 185.5,-6 338,-6 338,-26"/>
<text text-anchor="middle" x="261.75" y="-12.5" font-family="Helvetica,sans-Serif" font-size="10.00">ControlsConfig::loadResources</text>
</a>
</g>
</g>
<!-- Node1&#45;&gt;Node2 -->
<g id="edge1_Node000001_Node000002" class="edge">
<title>Node1&#45;&gt;Node2</title>
<g id="a_edge1_Node000001_Node000002"><a xlink:title=" ">
<path fill="none" stroke="#63b8ff" d="M362.14,-16C354.24,-16 346.24,-16 338.4,-16"/>
<polygon fill="#63b8ff" stroke="#63b8ff" points="362.12,-19.5 372.12,-16 362.12,-12.5 362.12,-19.5"/>
</a>
</g>
</g>
<!-- Node3 -->
<g id="Node000003" class="node">
<title>Node3</title>
<g id="a_Node000003"><a xlink:href="classGameManager.html#a72e1318dfab6fad06bd4126d12f6a537" target="_top" xlink:title=" ">
<polygon fill="white" stroke="#666666" points="149.5,-26 0,-26 0,-6 149.5,-6 149.5,-26"/>
<text text-anchor="middle" x="74.75" y="-12.5" font-family="Helvetica,sans-Serif" font-size="10.00">GameManager::GameManager</text>
</a>
</g>
</g>
<!-- Node2&#45;&gt;Node3 -->
<g id="edge2_Node000002_Node000003" class="edge">
<title>Node2&#45;&gt;Node3</title>
<g id="a_edge2_Node000002_Node000003"><a xlink:title=" ">
<path fill="none" stroke="#63b8ff" d="M173.91,-16C165.86,-16 157.75,-16 149.83,-16"/>
<polygon fill="#63b8ff" stroke="#63b8ff" points="173.72,-19.5 183.72,-16 173.72,-12.5 173.72,-19.5"/>
</a>
</g>
</g>
</g>
</svg>
