<?xml version="1.0" encoding="UTF-8" standalone="no"?>
<!DOCTYPE svg PUBLIC "-//W3C//DTD SVG 1.1//EN"
 "http://www.w3.org/Graphics/SVG/1.1/DTD/svg11.dtd">
<!-- Generated by graphviz version 12.1.0 (20240811.2233)
 -->
<!-- Title: Parameters::getDisplayModeString Pages: 1 -->
<svg width="985pt" height="78pt"
 viewBox="0.00 0.00 985.25 78.00" xmlns="http://www.w3.org/2000/svg" xmlns:xlink="http://www.w3.org/1999/xlink">
<g id="graph0" class="graph" transform="scale(1 1) rotate(0) translate(4 74)">
<title>Parameters::getDisplayModeString</title>
<!-- Node1 -->
<g id="Node000001" class="node">
<title>Node1</title>
<g id="a_Node000001"><a xlink:title=" ">
<polygon fill="#999999" stroke="#666666" points="977.25,-49 834.5,-49 834.5,-17 977.25,-17 977.25,-49"/>
<text text-anchor="start" x="842.5" y="-35.5" font-family="Helvetica,sans-Serif" font-size="10.00">Parameters::getDisplayMode</text>
<text text-anchor="middle" x="905.88" y="-23.5" font-family="Helvetica,sans-Serif" font-size="10.00">String</text>
</a>
</g>
</g>
<!-- Node2 -->
<g id="Node000002" class="node">
<title>Node2</title>
<g id="a_Node000002"><a xlink:href="classParameters.html#a51dc69f2c06bb07b0e2ae9bc2594ce43" target="_top" xlink:title=" ">
<polygon fill="white" stroke="#666666" points="791.38,-63 648.62,-63 648.62,-43 791.38,-43 791.38,-63"/>
<text text-anchor="middle" x="720" y="-49.5" font-family="Helvetica,sans-Serif" font-size="10.00">Parameters::setDisplayMode</text>
</a>
</g>
</g>
<!-- Node1&#45;&gt;Node2 -->
<g id="edge1_Node000001_Node000002" class="edge">
<title>Node1&#45;&gt;Node2</title>
<g id="a_edge1_Node000001_Node000002"><a xlink:title=" ">
<path fill="none" stroke="#63b8ff" d="M822.88,-41.92C812.51,-43.05 801.97,-44.19 791.79,-45.3"/>
<polygon fill="#63b8ff" stroke="#63b8ff" points="822.98,-45.43 832.54,-40.87 822.22,-38.47 822.98,-45.43"/>
</a>
</g>
</g>
<!-- Node7 -->
<g id="Node000007" class="node">
<title>Node7</title>
<g id="a_Node000007"><a xlink:href="classParameters.html#a97f0af15da3b0a1a8b3702fc5b56556e" target="_top" xlink:title=" ">
<polygon fill="white" stroke="#666666" points="798.5,-24 641.5,-24 641.5,-4 798.5,-4 798.5,-24"/>
<text text-anchor="middle" x="720" y="-10.5" font-family="Helvetica,sans-Serif" font-size="10.00">Parameters::setupVideoSettings</text>
</a>
</g>
</g>
<!-- Node1&#45;&gt;Node7 -->
<g id="edge6_Node000001_Node000007" class="edge">
<title>Node1&#45;&gt;Node7</title>
<g id="a_edge6_Node000001_Node000007"><a xlink:title=" ">
<path fill="none" stroke="#63b8ff" d="M822.85,-24.52C814.86,-23.7 806.77,-22.86 798.82,-22.04"/>
<polygon fill="#63b8ff" stroke="#63b8ff" points="822.23,-27.98 832.54,-25.53 822.95,-21.02 822.23,-27.98"/>
</a>
</g>
</g>
<!-- Node3 -->
<g id="Node000003" class="node">
<title>Node3</title>
<g id="a_Node000003"><a xlink:href="classGameManager.html#a58db496b49ed75ce83edb44b9581ae64" target="_top" xlink:title=" ">
<polygon fill="white" stroke="#666666" points="605.5,-63 439.5,-63 439.5,-43 605.5,-43 605.5,-63"/>
<text text-anchor="middle" x="522.5" y="-49.5" font-family="Helvetica,sans-Serif" font-size="10.00">GameManager::cycleDisplayMode</text>
</a>
</g>
</g>
<!-- Node2&#45;&gt;Node3 -->
<g id="edge2_Node000002_Node000003" class="edge">
<title>Node2&#45;&gt;Node3</title>
<g id="a_edge2_Node000002_Node000003"><a xlink:title=" ">
<path fill="none" stroke="#63b8ff" d="M636.7,-53C626.46,-53 615.98,-53 605.74,-53"/>
<polygon fill="#63b8ff" stroke="#63b8ff" points="636.63,-56.5 646.63,-53 636.63,-49.5 636.63,-56.5"/>
</a>
</g>
</g>
<!-- Node4 -->
<g id="Node000004" class="node">
<title>Node4</title>
<g id="a_Node000004"><a xlink:href="classGameManager.html#aeed1dd73db1c39b2e39d30d9d37c1f6c" target="_top" xlink:title=" ">
<polygon fill="white" stroke="#666666" points="400.5,-70 257,-70 257,-38 400.5,-38 400.5,-70"/>
<text text-anchor="start" x="265" y="-56.5" font-family="Helvetica,sans-Serif" font-size="10.00">GameManager::handleMouse</text>
<text text-anchor="middle" x="328.75" y="-44.5" font-family="Helvetica,sans-Serif" font-size="10.00">Click</text>
</a>
</g>
</g>
<!-- Node3&#45;&gt;Node4 -->
<g id="edge3_Node000003_Node000004" class="edge">
<title>Node3&#45;&gt;Node4</title>
<g id="a_edge3_Node000003_Node000004"><a xlink:title=" ">
<path fill="none" stroke="#63b8ff" d="M427.71,-53.49C418.71,-53.54 409.68,-53.58 400.95,-53.63"/>
<polygon fill="#63b8ff" stroke="#63b8ff" points="427.57,-56.99 437.55,-53.44 427.54,-49.99 427.57,-56.99"/>
</a>
</g>
</g>
<!-- Node5 -->
<g id="Node000005" class="node">
<title>Node5</title>
<g id="a_Node000005"><a xlink:href="classGameManager.html#a6cea7fca5fecdd4f8a32912d4bfc233f" target="_top" xlink:title=" ">
<polygon fill="white" stroke="#666666" points="218,-64 73,-64 73,-44 218,-44 218,-64"/>
<text text-anchor="middle" x="145.5" y="-50.5" font-family="Helvetica,sans-Serif" font-size="10.00">GameManager::handleEvents</text>
</a>
</g>
</g>
<!-- Node4&#45;&gt;Node5 -->
<g id="edge4_Node000004_Node000005" class="edge">
<title>Node4&#45;&gt;Node5</title>
<g id="a_edge4_Node000004_Node000005"><a xlink:title=" ">
<path fill="none" stroke="#63b8ff" d="M245.31,-54C236.29,-54 227.17,-54 218.3,-54"/>
<polygon fill="#63b8ff" stroke="#63b8ff" points="245.12,-57.5 255.12,-54 245.12,-50.5 245.12,-57.5"/>
</a>
</g>
</g>
<!-- Node6 -->
<g id="Node000006" class="node">
<title>Node6</title>
<g id="a_Node000006"><a xlink:href="Client_2src_2main_8cpp.html#ae66f6b31b5ad750f1fe042a706a4e3d4" target="_top" xlink:title=" ">
<polygon fill="white" stroke="#666666" points="37,-64 0,-64 0,-44 37,-44 37,-64"/>
<text text-anchor="middle" x="18.5" y="-50.5" font-family="Helvetica,sans-Serif" font-size="10.00">main</text>
</a>
</g>
</g>
<!-- Node5&#45;&gt;Node6 -->
<g id="edge5_Node000005_Node000006" class="edge">
<title>Node5&#45;&gt;Node6</title>
<g id="a_edge5_Node000005_Node000006"><a xlink:title=" ">
<path fill="none" stroke="#63b8ff" d="M61.12,-54C52.34,-54 44.18,-54 37.46,-54"/>
<polygon fill="#63b8ff" stroke="#63b8ff" points="61,-57.5 71,-54 61,-50.5 61,-57.5"/>
</a>
</g>
</g>
<!-- Node8 -->
<g id="Node000008" class="node">
<title>Node8</title>
<g id="a_Node000008"><a xlink:href="classParameters.html#a8e74ddb8f408ad9e725e3784f8a873e7" target="_top" xlink:title=" ">
<polygon fill="white" stroke="#666666" points="591.25,-23 453.75,-23 453.75,-3 591.25,-3 591.25,-23"/>
<text text-anchor="middle" x="522.5" y="-9.5" font-family="Helvetica,sans-Serif" font-size="10.00">Parameters::loadResources</text>
</a>
</g>
</g>
<!-- Node7&#45;&gt;Node8 -->
<g id="edge7_Node000007_Node000008" class="edge">
<title>Node7&#45;&gt;Node8</title>
<g id="a_edge7_Node000007_Node000008"><a xlink:title=" ">
<path fill="none" stroke="#63b8ff" d="M629.93,-13.54C617.05,-13.48 603.97,-13.41 591.59,-13.35"/>
<polygon fill="#63b8ff" stroke="#63b8ff" points="629.64,-17.04 639.66,-13.59 629.68,-10.04 629.64,-17.04"/>
</a>
</g>
</g>
<!-- Node9 -->
<g id="Node000009" class="node">
<title>Node9</title>
<g id="a_Node000009"><a xlink:href="classGameManager.html#ae60f9a9c5dc48f158537ed98d2b6dbfe" target="_top" xlink:title=" ">
<polygon fill="white" stroke="#666666" points="403.5,-20 254,-20 254,0 403.5,0 403.5,-20"/>
<text text-anchor="middle" x="328.75" y="-6.5" font-family="Helvetica,sans-Serif" font-size="10.00">GameManager::GameManager</text>
</a>
</g>
</g>
<!-- Node8&#45;&gt;Node9 -->
<g id="edge8_Node000008_Node000009" class="edge">
<title>Node8&#45;&gt;Node9</title>
<g id="a_edge8_Node000008_Node000009"><a xlink:title=" ">
<path fill="none" stroke="#63b8ff" d="M441.92,-11.75C429.32,-11.56 416.33,-11.35 403.86,-11.16"/>
<polygon fill="#63b8ff" stroke="#63b8ff" points="441.79,-15.25 451.84,-11.91 441.9,-8.25 441.79,-15.25"/>
</a>
</g>
</g>
</g>
</svg>
