<?xml version="1.0" encoding="UTF-8" standalone="no"?>
<!DOCTYPE svg PUBLIC "-//W3C//DTD SVG 1.1//EN"
 "http://www.w3.org/Graphics/SVG/1.1/DTD/svg11.dtd">
<!-- Generated by graphviz version 12.1.0 (20240811.2233)
 -->
<!-- Title: Engine::Renderer Pages: 1 -->
<svg width="131pt" height="532pt"
 viewBox="0.00 0.00 131.00 532.00" xmlns="http://www.w3.org/2000/svg" xmlns:xlink="http://www.w3.org/1999/xlink">
<g id="graph0" class="graph" transform="scale(1 1) rotate(0) translate(4 528)">
<title>Engine::Renderer</title>
<!-- Node1 -->
<g id="Node000001" class="node">
<title>Node1</title>
<g id="a_Node000001"><a xlink:title=" ">
<polygon fill="#999999" stroke="none" points="112,-524 11,-524 11,-312 112,-312 112,-524"/>
<text text-anchor="start" x="23.62" y="-510.5" font-family="Helvetica,sans-Serif" font-size="10.00">Engine::Renderer</text>
<text text-anchor="start" x="60" y="-494.5" font-family="Helvetica,sans-Serif" font-size="10.00"> </text>
<text text-anchor="start" x="15" y="-478.5" font-family="Helvetica,sans-Serif" font-size="10.00">+</text>
<text text-anchor="start" x="25" y="-478.5" font-family="Helvetica,sans-Serif" font-size="10.00">Renderer()</text>
<text text-anchor="start" x="15" y="-462.5" font-family="Helvetica,sans-Serif" font-size="10.00">+</text>
<text text-anchor="start" x="25" y="-462.5" font-family="Helvetica,sans-Serif" font-size="10.00">~Renderer()</text>
<text text-anchor="start" x="15" y="-446.5" font-family="Helvetica,sans-Serif" font-size="10.00">+</text>
<text text-anchor="start" x="25" y="-446.5" font-family="Helvetica,sans-Serif" font-size="10.00">createWindow()</text>
<text text-anchor="start" x="15" y="-430.5" font-family="Helvetica,sans-Serif" font-size="10.00">+</text>
<text text-anchor="start" x="25" y="-430.5" font-family="Helvetica,sans-Serif" font-size="10.00">getWindowHeight()</text>
<text text-anchor="start" x="15" y="-414.5" font-family="Helvetica,sans-Serif" font-size="10.00">+</text>
<text text-anchor="start" x="25" y="-414.5" font-family="Helvetica,sans-Serif" font-size="10.00">getWindowWidth()</text>
<text text-anchor="start" x="15" y="-398.5" font-family="Helvetica,sans-Serif" font-size="10.00">+</text>
<text text-anchor="start" x="25" y="-398.5" font-family="Helvetica,sans-Serif" font-size="10.00">clearWindow()</text>
<text text-anchor="start" x="15" y="-382.5" font-family="Helvetica,sans-Serif" font-size="10.00">+</text>
<text text-anchor="start" x="25" y="-382.5" font-family="Helvetica,sans-Serif" font-size="10.00">displayWindow()</text>
<text text-anchor="start" x="15" y="-366.5" font-family="Helvetica,sans-Serif" font-size="10.00">+</text>
<text text-anchor="start" x="25" y="-366.5" font-family="Helvetica,sans-Serif" font-size="10.00">closeWindow()</text>
<text text-anchor="start" x="15" y="-350.5" font-family="Helvetica,sans-Serif" font-size="10.00">+</text>
<text text-anchor="start" x="25" y="-350.5" font-family="Helvetica,sans-Serif" font-size="10.00">isWindowOpen()</text>
<text text-anchor="start" x="15" y="-334.5" font-family="Helvetica,sans-Serif" font-size="10.00">+</text>
<text text-anchor="start" x="25" y="-334.5" font-family="Helvetica,sans-Serif" font-size="10.00">handleEvents()</text>
<text text-anchor="start" x="25" y="-318.5" font-family="Helvetica,sans-Serif" font-size="10.00">and 16 more...</text>
<polygon fill="#666666" stroke="#666666" points="11,-506 11,-506 112,-506 112,-506 11,-506"/>
<polygon fill="#666666" stroke="#666666" points="11,-490 11,-490 112,-490 112,-490 11,-490"/>
<polygon fill="none" stroke="#666666" points="11,-312 11,-524 112,-524 112,-312 11,-312"/>
</a>
</g>
</g>
<!-- Node2 -->
<g id="Node000002" class="node">
<title>Node2</title>
<g id="a_Node000002"><a xlink:href="classEngine_1_1Renderers_1_1SFML.html" target="_top" xlink:title=" ">
<polygon fill="white" stroke="none" points="123,-276 0,-276 0,0 123,0 123,-276"/>
<text text-anchor="start" x="4.88" y="-262.5" font-family="Helvetica,sans-Serif" font-size="10.00">Engine::Renderers::SFML</text>
<text text-anchor="start" x="11" y="-246.5" font-family="Helvetica,sans-Serif" font-size="10.00">&#45;</text>
<text text-anchor="start" x="25" y="-246.5" font-family="Helvetica,sans-Serif" font-size="10.00">is_console_open</text>
<text text-anchor="start" x="11" y="-230.5" font-family="Helvetica,sans-Serif" font-size="10.00">&#45;</text>
<text text-anchor="start" x="25" y="-230.5" font-family="Helvetica,sans-Serif" font-size="10.00">window</text>
<text text-anchor="start" x="11" y="-214.5" font-family="Helvetica,sans-Serif" font-size="10.00">&#45;</text>
<text text-anchor="start" x="25" y="-214.5" font-family="Helvetica,sans-Serif" font-size="10.00">textures</text>
<text text-anchor="start" x="11" y="-198.5" font-family="Helvetica,sans-Serif" font-size="10.00">&#45;</text>
<text text-anchor="start" x="25" y="-198.5" font-family="Helvetica,sans-Serif" font-size="10.00">sprites</text>
<text text-anchor="start" x="11" y="-182.5" font-family="Helvetica,sans-Serif" font-size="10.00">&#45;</text>
<text text-anchor="start" x="25" y="-182.5" font-family="Helvetica,sans-Serif" font-size="10.00">fonts</text>
<text text-anchor="start" x="9.5" y="-166.5" font-family="Helvetica,sans-Serif" font-size="10.00">+</text>
<text text-anchor="start" x="25" y="-166.5" font-family="Helvetica,sans-Serif" font-size="10.00">SFML()</text>
<text text-anchor="start" x="9.5" y="-150.5" font-family="Helvetica,sans-Serif" font-size="10.00">+</text>
<text text-anchor="start" x="25" y="-150.5" font-family="Helvetica,sans-Serif" font-size="10.00">~SFML()</text>
<text text-anchor="start" x="9.5" y="-134.5" font-family="Helvetica,sans-Serif" font-size="10.00">+</text>
<text text-anchor="start" x="25" y="-134.5" font-family="Helvetica,sans-Serif" font-size="10.00">createWindow()</text>
<text text-anchor="start" x="9.5" y="-118.5" font-family="Helvetica,sans-Serif" font-size="10.00">+</text>
<text text-anchor="start" x="25" y="-118.5" font-family="Helvetica,sans-Serif" font-size="10.00">getWindowHeight()</text>
<text text-anchor="start" x="9.5" y="-102.5" font-family="Helvetica,sans-Serif" font-size="10.00">+</text>
<text text-anchor="start" x="25" y="-102.5" font-family="Helvetica,sans-Serif" font-size="10.00">getWindowWidth()</text>
<text text-anchor="start" x="9.5" y="-86.5" font-family="Helvetica,sans-Serif" font-size="10.00">+</text>
<text text-anchor="start" x="25" y="-86.5" font-family="Helvetica,sans-Serif" font-size="10.00">clearWindow()</text>
<text text-anchor="start" x="9.5" y="-70.5" font-family="Helvetica,sans-Serif" font-size="10.00">+</text>
<text text-anchor="start" x="25" y="-70.5" font-family="Helvetica,sans-Serif" font-size="10.00">displayWindow()</text>
<text text-anchor="start" x="9.5" y="-54.5" font-family="Helvetica,sans-Serif" font-size="10.00">+</text>
<text text-anchor="start" x="25" y="-54.5" font-family="Helvetica,sans-Serif" font-size="10.00">closeWindow()</text>
<text text-anchor="start" x="9.5" y="-38.5" font-family="Helvetica,sans-Serif" font-size="10.00">+</text>
<text text-anchor="start" x="25" y="-38.5" font-family="Helvetica,sans-Serif" font-size="10.00">isWindowOpen()</text>
<text text-anchor="start" x="9.5" y="-22.5" font-family="Helvetica,sans-Serif" font-size="10.00">+</text>
<text text-anchor="start" x="25" y="-22.5" font-family="Helvetica,sans-Serif" font-size="10.00">handleEvents()</text>
<text text-anchor="start" x="25" y="-6.5" font-family="Helvetica,sans-Serif" font-size="10.00">and 16 more...</text>
<polygon fill="#666666" stroke="#666666" points="0,-258 0,-258 123,-258 123,-258 0,-258"/>
<polygon fill="#666666" stroke="#666666" points="0,-178 0,-178 23,-178 23,-178 0,-178"/>
<polygon fill="#666666" stroke="#666666" points="23,-178 23,-178 123,-178 123,-178 23,-178"/>
<polygon fill="none" stroke="#666666" points="0,0 0,-276 123,-276 123,0 0,0"/>
</a>
</g>
</g>
<!-- Node1&#45;&gt;Node2 -->
<g id="edge1_Node000001_Node000002" class="edge">
<title>Node1&#45;&gt;Node2</title>
<g id="a_edge1_Node000001_Node000002"><a xlink:title=" ">
<path fill="none" stroke="#63b8ff" d="M61.5,-300.95C61.5,-292.56 61.5,-284.06 61.5,-275.58"/>
<polygon fill="none" stroke="#63b8ff" points="58,-300.78 61.5,-310.78 65,-300.78 58,-300.78"/>
</a>
</g>
</g>
</g>
</svg>
