<?xml version="1.0" encoding="UTF-8" standalone="no"?>
<!DOCTYPE svg PUBLIC "-//W3C//DTD SVG 1.1//EN"
 "http://www.w3.org/Graphics/SVG/1.1/DTD/svg11.dtd">
<!-- Generated by graphviz version 12.1.0 (20240811.2233)
 -->
<!-- Title: RtypeServer::UdpServer::UdpServer Pages: 1 -->
<svg width="616pt" height="175pt"
 viewBox="0.00 0.00 615.75 175.16" xmlns="http://www.w3.org/2000/svg" xmlns:xlink="http://www.w3.org/1999/xlink">
<g id="graph0" class="graph" transform="scale(1 1) rotate(0) translate(4 171.16)">
<title>RtypeServer::UdpServer::UdpServer</title>
<!-- Node1 -->
<g id="Node000001" class="node">
<title>Node1</title>
<g id="a_Node000001"><a xlink:title=" ">
<polygon fill="#999999" stroke="#666666" points="123.25,-114 0,-114 0,-82 123.25,-82 123.25,-114"/>
<text text-anchor="start" x="8" y="-100.5" font-family="Helvetica,sans-Serif" font-size="10.00">RtypeServer::UdpServer</text>
<text text-anchor="middle" x="61.62" y="-88.5" font-family="Helvetica,sans-Serif" font-size="10.00">::UdpServer</text>
</a>
</g>
</g>
<!-- Node2 -->
<g id="Node000002" class="node">
<title>Node2</title>
<g id="a_Node000002"><a xlink:href="namespaceRtypeServer.html#a0945154a39091e84a43cedc8136b0abe" target="_top" xlink:title=" ">
<polygon fill="white" stroke="#666666" points="445.12,-153 349.62,-153 349.62,-133 445.12,-133 445.12,-153"/>
<text text-anchor="middle" x="397.38" y="-139.5" font-family="Helvetica,sans-Serif" font-size="10.00">RtypeServer::infof</text>
</a>
</g>
</g>
<!-- Node1&#45;&gt;Node2 -->
<g id="edge1_Node000001_Node000002" class="edge">
<title>Node1&#45;&gt;Node2</title>
<g id="a_edge1_Node000001_Node000002"><a xlink:title=" ">
<path fill="none" stroke="#63b8ff" d="M82.18,-114.45C100.69,-128.86 129.92,-148.75 159.25,-157 221,-174.36 295.24,-165.46 344.01,-155.8"/>
<polygon fill="#63b8ff" stroke="#63b8ff" points="344.66,-159.24 353.74,-153.78 343.24,-152.38 344.66,-159.24"/>
</a>
</g>
</g>
<!-- Node3 -->
<g id="Node000003" class="node">
<title>Node3</title>
<g id="a_Node000003"><a xlink:href="classRtypeServer_1_1RoomManager.html#a7fef86d53a48de40164819442fb796a4" target="_top" xlink:title=" ">
<polygon fill="white" stroke="#666666" points="299.75,-148 159.25,-148 159.25,-116 299.75,-116 299.75,-148"/>
<text text-anchor="start" x="167.25" y="-134.5" font-family="Helvetica,sans-Serif" font-size="10.00">RtypeServer::RoomManager</text>
<text text-anchor="middle" x="229.5" y="-122.5" font-family="Helvetica,sans-Serif" font-size="10.00">::setSocket</text>
</a>
</g>
</g>
<!-- Node1&#45;&gt;Node3 -->
<g id="edge2_Node000001_Node000003" class="edge">
<title>Node1&#45;&gt;Node3</title>
<g id="a_edge2_Node000001_Node000003"><a xlink:title=" ">
<path fill="none" stroke="#63b8ff" d="M123.45,-110.47C131.39,-112.1 139.63,-113.78 147.84,-115.47"/>
<polygon fill="#63b8ff" stroke="#63b8ff" points="147,-118.87 157.5,-117.45 148.41,-112.01 147,-118.87"/>
</a>
</g>
</g>
<!-- Node4 -->
<g id="Node000004" class="node">
<title>Node4</title>
<g id="a_Node000004"><a xlink:href="classRtypeServer_1_1UdpServer.html#a5a4df9d03e0632f28af7c03394112ee1" target="_top" xlink:title=" ">
<polygon fill="white" stroke="#666666" points="291.12,-80 167.88,-80 167.88,-48 291.12,-48 291.12,-80"/>
<text text-anchor="start" x="175.88" y="-66.5" font-family="Helvetica,sans-Serif" font-size="10.00">RtypeServer::UdpServer</text>
<text text-anchor="middle" x="229.5" y="-54.5" font-family="Helvetica,sans-Serif" font-size="10.00">::start_heartbeat</text>
</a>
</g>
</g>
<!-- Node1&#45;&gt;Node4 -->
<g id="edge3_Node000001_Node000004" class="edge">
<title>Node1&#45;&gt;Node4</title>
<g id="a_edge3_Node000001_Node000004"><a xlink:title=" ">
<path fill="none" stroke="#63b8ff" d="M123.45,-85.53C134.09,-83.35 145.25,-81.06 156.16,-78.83"/>
<polygon fill="#63b8ff" stroke="#63b8ff" points="156.83,-82.26 165.92,-76.83 155.42,-75.41 156.83,-82.26"/>
</a>
</g>
</g>
<!-- Node8 -->
<g id="Node000008" class="node">
<title>Node8</title>
<g id="a_Node000008"><a xlink:href="classRtypeServer_1_1UdpServer.html#a620cd373cc7635a0912be5cfb36cc822" target="_top" xlink:title=" ">
<polygon fill="white" stroke="#666666" points="459,-32 335.75,-32 335.75,0 459,0 459,-32"/>
<text text-anchor="start" x="343.75" y="-18.5" font-family="Helvetica,sans-Serif" font-size="10.00">RtypeServer::UdpServer</text>
<text text-anchor="middle" x="397.38" y="-6.5" font-family="Helvetica,sans-Serif" font-size="10.00">::start_receive</text>
</a>
</g>
</g>
<!-- Node1&#45;&gt;Node8 -->
<g id="edge9_Node000001_Node000008" class="edge">
<title>Node1&#45;&gt;Node8</title>
<g id="a_edge9_Node000001_Node000008"><a xlink:title=" ">
<path fill="none" stroke="#63b8ff" d="M83.11,-81.66C101.78,-67.74 130.73,-48.53 159.25,-39 212.52,-21.2 276.01,-15.81 323.87,-14.68"/>
<polygon fill="#63b8ff" stroke="#63b8ff" points="323.93,-18.18 333.87,-14.51 323.81,-11.18 323.93,-18.18"/>
</a>
</g>
</g>
<!-- Node4&#45;&gt;Node2 -->
<g id="edge4_Node000004_Node000002" class="edge">
<title>Node4&#45;&gt;Node2</title>
<g id="a_edge4_Node000004_Node000002"><a xlink:title=" ">
<path fill="none" stroke="#63b8ff" d="M264.87,-80.37C294.15,-94.31 335.91,-114.2 364.46,-127.8"/>
<polygon fill="#63b8ff" stroke="#63b8ff" points="362.81,-130.89 373.34,-132.03 365.82,-124.57 362.81,-130.89"/>
</a>
</g>
</g>
<!-- Node4&#45;&gt;Node4 -->
<g id="edge8_Node000004_Node000004" class="edge">
<title>Node4&#45;&gt;Node4</title>
<g id="a_edge8_Node000004_Node000004"><a xlink:title=" ">
<path fill="none" stroke="#63b8ff" d="M199.53,-80.44C193.94,-89.58 203.93,-98 229.5,-98 243.49,-98 252.81,-95.48 257.48,-91.71"/>
<polygon fill="#63b8ff" stroke="#63b8ff" points="260.91,-92.39 259.21,-81.93 254.02,-91.17 260.91,-92.39"/>
</a>
</g>
</g>
<!-- Node5 -->
<g id="Node000005" class="node">
<title>Node5</title>
<g id="a_Node000005"><a xlink:href="classRtypeServer_1_1UdpServer.html#ad5b8e37aeff4739ff56c64834ff489d4" target="_top" xlink:title=" ">
<polygon fill="white" stroke="#666666" points="459,-82 335.75,-82 335.75,-50 459,-50 459,-82"/>
<text text-anchor="start" x="343.75" y="-68.5" font-family="Helvetica,sans-Serif" font-size="10.00">RtypeServer::UdpServer</text>
<text text-anchor="middle" x="397.38" y="-56.5" font-family="Helvetica,sans-Serif" font-size="10.00">::send_ping</text>
</a>
</g>
</g>
<!-- Node4&#45;&gt;Node5 -->
<g id="edge5_Node000004_Node000005" class="edge">
<title>Node4&#45;&gt;Node5</title>
<g id="a_edge5_Node000004_Node000005"><a xlink:title=" ">
<path fill="none" stroke="#63b8ff" d="M291.32,-64.73C301.96,-64.86 313.12,-65 324.03,-65.13"/>
<polygon fill="#63b8ff" stroke="#63b8ff" points="323.73,-68.62 333.77,-65.25 323.81,-61.62 323.73,-68.62"/>
</a>
</g>
</g>
<!-- Node6 -->
<g id="Node000006" class="node">
<title>Node6</title>
<g id="a_Node000006"><a xlink:href="namespaceRtypeServer.html#a29d016de4637084d2ec30b53700af223" target="_top" xlink:title=" ">
<polygon fill="white" stroke="#666666" points="601.75,-29 501,-29 501,-9 601.75,-9 601.75,-29"/>
<text text-anchor="middle" x="551.38" y="-15.5" font-family="Helvetica,sans-Serif" font-size="10.00">RtypeServer::warnf</text>
</a>
</g>
</g>
<!-- Node5&#45;&gt;Node6 -->
<g id="edge6_Node000005_Node000006" class="edge">
<title>Node5&#45;&gt;Node6</title>
<g id="a_edge6_Node000005_Node000006"><a xlink:title=" ">
<path fill="none" stroke="#63b8ff" d="M451.54,-49.56C469.23,-44.09 488.75,-38.05 505.74,-32.8"/>
<polygon fill="#63b8ff" stroke="#63b8ff" points="506.52,-36.22 515.04,-29.93 504.45,-29.54 506.52,-36.22"/>
</a>
</g>
</g>
<!-- Node7 -->
<g id="Node000007" class="node">
<title>Node7</title>
<g id="a_Node000007"><a xlink:href="classRtypeServer_1_1Protocol.html#ad918184440d6fcb33f231a7173a67399" target="_top" xlink:title=" ">
<polygon fill="white" stroke="#666666" points="607.75,-82 495,-82 495,-50 607.75,-50 607.75,-82"/>
<text text-anchor="start" x="503" y="-68.5" font-family="Helvetica,sans-Serif" font-size="10.00">RtypeServer::Protocol</text>
<text text-anchor="middle" x="551.38" y="-56.5" font-family="Helvetica,sans-Serif" font-size="10.00">::writeHeader</text>
</a>
</g>
</g>
<!-- Node5&#45;&gt;Node7 -->
<g id="edge7_Node000005_Node000007" class="edge">
<title>Node5&#45;&gt;Node7</title>
<g id="a_edge7_Node000005_Node000007"><a xlink:title=" ">
<path fill="none" stroke="#63b8ff" d="M459.32,-66C467.29,-66 475.5,-66 483.56,-66"/>
<polygon fill="#63b8ff" stroke="#63b8ff" points="483.31,-69.5 493.31,-66 483.31,-62.5 483.31,-69.5"/>
</a>
</g>
</g>
<!-- Node8&#45;&gt;Node6 -->
<g id="edge10_Node000008_Node000006" class="edge">
<title>Node8&#45;&gt;Node6</title>
<g id="a_edge10_Node000008_Node000006"><a xlink:title=" ">
<path fill="none" stroke="#63b8ff" d="M459.32,-17.2C469.18,-17.4 479.38,-17.6 489.24,-17.79"/>
<polygon fill="#63b8ff" stroke="#63b8ff" points="489.03,-21.29 499.1,-17.99 489.17,-14.29 489.03,-21.29"/>
</a>
</g>
</g>
</g>
</svg>
