<?xml version="1.0" encoding="UTF-8" standalone="no"?>
<!DOCTYPE svg PUBLIC "-//W3C//DTD SVG 1.1//EN"
 "http://www.w3.org/Graphics/SVG/1.1/DTD/svg11.dtd">
<!-- Generated by graphviz version 12.1.0 (20240811.2233)
 -->
<!-- Title: RtypeServer::UdpServer::send_room_error Pages: 1 -->
<svg width="450pt" height="162pt"
 viewBox="0.00 0.00 449.75 162.00" xmlns="http://www.w3.org/2000/svg" xmlns:xlink="http://www.w3.org/1999/xlink">
<g id="graph0" class="graph" transform="scale(1 1) rotate(0) translate(4 158)">
<title>RtypeServer::UdpServer::send_room_error</title>
<!-- Node1 -->
<g id="Node000001" class="node">
<title>Node1</title>
<g id="a_Node000001"><a xlink:title=" ">
<polygon fill="#999999" stroke="#666666" points="441.75,-107 318.5,-107 318.5,-75 441.75,-75 441.75,-107"/>
<text text-anchor="start" x="326.5" y="-93.5" font-family="Helvetica,sans-Serif" font-size="10.00">RtypeServer::UdpServer</text>
<text text-anchor="middle" x="380.12" y="-81.5" font-family="Helvetica,sans-Serif" font-size="10.00">::send_room_error</text>
</a>
</g>
</g>
<!-- Node2 -->
<g id="Node000002" class="node">
<title>Node2</title>
<g id="a_Node000002"><a xlink:href="classRtypeServer_1_1UdpServer.html#a8edbc5c835a5d23856953e06f7877b8d" target="_top" xlink:title=" ">
<polygon fill="white" stroke="#666666" points="123.25,-154 0,-154 0,-122 123.25,-122 123.25,-154"/>
<text text-anchor="start" x="8" y="-140.5" font-family="Helvetica,sans-Serif" font-size="10.00">RtypeServer::UdpServer</text>
<text text-anchor="middle" x="61.62" y="-128.5" font-family="Helvetica,sans-Serif" font-size="10.00">::handle_create_room</text>
</a>
</g>
</g>
<!-- Node1&#45;&gt;Node2 -->
<g id="edge1_Node000001_Node000002" class="edge">
<title>Node1&#45;&gt;Node2</title>
<g id="a_edge1_Node000001_Node000002"><a xlink:title=" ">
<path fill="none" stroke="#63b8ff" d="M345.72,-113.34C327.8,-123.98 304.85,-135.56 282.5,-141 230.01,-153.78 168.37,-151.51 123.73,-146.93"/>
<polygon fill="#63b8ff" stroke="#63b8ff" points="347.41,-116.41 354.1,-108.19 343.75,-110.44 347.41,-116.41"/>
</a>
</g>
</g>
<!-- Node3 -->
<g id="Node000003" class="node">
<title>Node3</title>
<g id="a_Node000003"><a xlink:href="classRtypeServer_1_1UdpServer.html#ad6474bca80e8ede6d6bbf8ff3524c05e" target="_top" xlink:title=" ">
<polygon fill="white" stroke="#666666" points="282.5,-132 159.25,-132 159.25,-100 282.5,-100 282.5,-132"/>
<text text-anchor="start" x="167.25" y="-118.5" font-family="Helvetica,sans-Serif" font-size="10.00">RtypeServer::UdpServer</text>
<text text-anchor="middle" x="220.88" y="-106.5" font-family="Helvetica,sans-Serif" font-size="10.00">::handle_join_room</text>
</a>
</g>
</g>
<!-- Node1&#45;&gt;Node3 -->
<g id="edge2_Node000001_Node000003" class="edge">
<title>Node1&#45;&gt;Node3</title>
<g id="a_edge2_Node000001_Node000003"><a xlink:title=" ">
<path fill="none" stroke="#63b8ff" d="M306.98,-102.47C298.89,-103.76 290.7,-105.06 282.77,-106.32"/>
<polygon fill="#63b8ff" stroke="#63b8ff" points="307.51,-105.93 316.83,-100.9 306.41,-99.02 307.51,-105.93"/>
</a>
</g>
</g>
<!-- Node4 -->
<g id="Node000004" class="node">
<title>Node4</title>
<g id="a_Node000004"><a xlink:href="classRtypeServer_1_1UdpServer.html#aabf9ebd666d71e6c525ec9553ab2191e" target="_top" xlink:title=" ">
<polygon fill="white" stroke="#666666" points="282.5,-82 159.25,-82 159.25,-50 282.5,-50 282.5,-82"/>
<text text-anchor="start" x="167.25" y="-68.5" font-family="Helvetica,sans-Serif" font-size="10.00">RtypeServer::UdpServer</text>
<text text-anchor="middle" x="220.88" y="-56.5" font-family="Helvetica,sans-Serif" font-size="10.00">::handle_leave_room</text>
</a>
</g>
</g>
<!-- Node1&#45;&gt;Node4 -->
<g id="edge4_Node000001_Node000004" class="edge">
<title>Node1&#45;&gt;Node4</title>
<g id="a_edge4_Node000001_Node000004"><a xlink:title=" ">
<path fill="none" stroke="#63b8ff" d="M306.98,-79.53C298.89,-78.24 290.7,-76.94 282.77,-75.68"/>
<polygon fill="#63b8ff" stroke="#63b8ff" points="306.41,-82.98 316.83,-81.1 307.51,-76.07 306.41,-82.98"/>
</a>
</g>
</g>
<!-- Node5 -->
<g id="Node000005" class="node">
<title>Node5</title>
<g id="a_Node000005"><a xlink:href="classRtypeServer_1_1UdpServer.html#ada88a91b0b6bead16ff8321837e8bd94" target="_top" xlink:title=" ">
<polygon fill="white" stroke="#666666" points="282.5,-32 159.25,-32 159.25,0 282.5,0 282.5,-32"/>
<text text-anchor="start" x="167.25" y="-18.5" font-family="Helvetica,sans-Serif" font-size="10.00">RtypeServer::UdpServer</text>
<text text-anchor="middle" x="220.88" y="-6.5" font-family="Helvetica,sans-Serif" font-size="10.00">::handle_message</text>
</a>
</g>
</g>
<!-- Node1&#45;&gt;Node5 -->
<g id="edge5_Node000001_Node000005" class="edge">
<title>Node1&#45;&gt;Node5</title>
<g id="a_edge5_Node000001_Node000005"><a xlink:title=" ">
<path fill="none" stroke="#63b8ff" d="M339.24,-69.38C321.97,-60.27 301.41,-49.77 282.5,-41 276.3,-38.13 269.68,-35.23 263.17,-32.47"/>
<polygon fill="#63b8ff" stroke="#63b8ff" points="337.19,-72.25 347.66,-73.85 340.47,-66.07 337.19,-72.25"/>
</a>
</g>
</g>
<!-- Node3&#45;&gt;Node2 -->
<g id="edge3_Node000003_Node000002" class="edge">
<title>Node3&#45;&gt;Node2</title>
<g id="a_edge3_Node000003_Node000002"><a xlink:title=" ">
<path fill="none" stroke="#63b8ff" d="M147.73,-126.09C139.64,-127.23 131.45,-128.37 123.52,-129.48"/>
<polygon fill="#63b8ff" stroke="#63b8ff" points="148.16,-129.57 157.58,-124.72 147.19,-122.63 148.16,-129.57"/>
</a>
</g>
</g>
</g>
</svg>
