<?xml version="1.0" encoding="UTF-8" standalone="no"?>
<!DOCTYPE svg PUBLIC "-//W3C//DTD SVG 1.1//EN"
 "http://www.w3.org/Graphics/SVG/1.1/DTD/svg11.dtd">
<!-- Generated by graphviz version 12.1.0 (20240811.2233)
 -->
<!-- Title: GameManager::updateStatusTextPosition Pages: 1 -->
<svg width="964pt" height="134pt"
 viewBox="0.00 0.00 963.50 133.54" xmlns="http://www.w3.org/2000/svg" xmlns:xlink="http://www.w3.org/1999/xlink">
<g id="graph0" class="graph" transform="scale(1 1) rotate(0) translate(4 129.54)">
<title>GameManager::updateStatusTextPosition</title>
<!-- Node1 -->
<g id="Node000001" class="node">
<title>Node1</title>
<g id="a_Node000001"><a xlink:title=" ">
<polygon fill="#999999" stroke="#666666" points="955.5,-93.54 812,-93.54 812,-61.54 955.5,-61.54 955.5,-93.54"/>
<text text-anchor="start" x="820" y="-80.04" font-family="Helvetica,sans-Serif" font-size="10.00">GameManager::updateStatus</text>
<text text-anchor="middle" x="883.75" y="-68.04" font-family="Helvetica,sans-Serif" font-size="10.00">TextPosition</text>
</a>
</g>
</g>
<!-- Node2 -->
<g id="Node000002" class="node">
<title>Node2</title>
<g id="a_Node000002"><a xlink:href="classGameManager.html#af89fb192252f1f73f97aa531723fa535" target="_top" xlink:title=" ">
<polygon fill="white" stroke="#666666" points="590.5,-125.54 433.5,-125.54 433.5,-105.54 590.5,-105.54 590.5,-125.54"/>
<text text-anchor="middle" x="512" y="-112.04" font-family="Helvetica,sans-Serif" font-size="10.00">GameManager::handleKeyPress</text>
</a>
</g>
</g>
<!-- Node1&#45;&gt;Node2 -->
<g id="edge1_Node000001_Node000002" class="edge">
<title>Node1&#45;&gt;Node2</title>
<g id="a_edge1_Node000001_Node000002"><a xlink:title=" ">
<path fill="none" stroke="#63b8ff" d="M800.4,-88.67C792.16,-89.69 783.92,-90.66 776,-91.54 713.8,-98.46 643.16,-104.82 590.76,-109.26"/>
<polygon fill="#63b8ff" stroke="#63b8ff" points="800.61,-92.17 810.09,-87.46 799.74,-85.23 800.61,-92.17"/>
</a>
</g>
</g>
<!-- Node5 -->
<g id="Node000005" class="node">
<title>Node5</title>
<g id="a_Node000005"><a xlink:href="classGameManager.html#aeed1dd73db1c39b2e39d30d9d37c1f6c" target="_top" xlink:title=" ">
<polygon fill="white" stroke="#666666" points="397.5,-68.54 254,-68.54 254,-36.54 397.5,-36.54 397.5,-68.54"/>
<text text-anchor="start" x="262" y="-55.04" font-family="Helvetica,sans-Serif" font-size="10.00">GameManager::handleMouse</text>
<text text-anchor="middle" x="325.75" y="-43.04" font-family="Helvetica,sans-Serif" font-size="10.00">Click</text>
</a>
</g>
</g>
<!-- Node1&#45;&gt;Node5 -->
<g id="edge4_Node000001_Node000005" class="edge">
<title>Node1&#45;&gt;Node5</title>
<g id="a_edge4_Node000001_Node000005"><a xlink:title=" ">
<path fill="none" stroke="#63b8ff" d="M800.31,-74.4C710.19,-70.88 561.55,-64.85 433.5,-58.54 422.01,-57.98 409.82,-57.33 397.95,-56.68"/>
<polygon fill="#63b8ff" stroke="#63b8ff" points="799.9,-77.89 810.03,-74.78 800.17,-70.89 799.9,-77.89"/>
</a>
</g>
</g>
<!-- Node6 -->
<g id="Node000006" class="node">
<title>Node6</title>
<g id="a_Node000006"><a xlink:href="classGameManager.html#a0a220f16a3e2d31baa08c03bec5c88b6" target="_top" xlink:title=" ">
<polygon fill="white" stroke="#666666" points="776,-49.54 626.5,-49.54 626.5,-17.54 776,-17.54 776,-49.54"/>
<text text-anchor="start" x="634.5" y="-36.04" font-family="Helvetica,sans-Serif" font-size="10.00">GameManager::handleWindow</text>
<text text-anchor="middle" x="701.25" y="-24.04" font-family="Helvetica,sans-Serif" font-size="10.00">Resize</text>
</a>
</g>
</g>
<!-- Node1&#45;&gt;Node6 -->
<g id="edge6_Node000001_Node000006" class="edge">
<title>Node1&#45;&gt;Node6</title>
<g id="a_edge6_Node000001_Node000006"><a xlink:title=" ">
<path fill="none" stroke="#63b8ff" d="M804.38,-58.44C792.91,-55.64 781.17,-52.78 769.94,-50.04"/>
<polygon fill="#63b8ff" stroke="#63b8ff" points="803.27,-61.77 813.81,-60.74 804.92,-54.97 803.27,-61.77"/>
</a>
</g>
</g>
<!-- Node3 -->
<g id="Node000003" class="node">
<title>Node3</title>
<g id="a_Node000003"><a xlink:href="classGameManager.html#a6cea7fca5fecdd4f8a32912d4bfc233f" target="_top" xlink:title=" ">
<polygon fill="white" stroke="#666666" points="218,-62.54 73,-62.54 73,-42.54 218,-42.54 218,-62.54"/>
<text text-anchor="middle" x="145.5" y="-49.04" font-family="Helvetica,sans-Serif" font-size="10.00">GameManager::handleEvents</text>
</a>
</g>
</g>
<!-- Node2&#45;&gt;Node3 -->
<g id="edge2_Node000002_Node000003" class="edge">
<title>Node2&#45;&gt;Node3</title>
<g id="a_edge2_Node000002_Node000003"><a xlink:title=" ">
<path fill="none" stroke="#63b8ff" d="M421.79,-104.18C372.21,-97.4 309.5,-88.08 254,-77.54 232.07,-73.38 207.84,-67.83 187.94,-63.01"/>
<polygon fill="#63b8ff" stroke="#63b8ff" points="421.24,-107.64 431.62,-105.51 422.18,-100.7 421.24,-107.64"/>
</a>
</g>
</g>
<!-- Node4 -->
<g id="Node000004" class="node">
<title>Node4</title>
<g id="a_Node000004"><a xlink:href="Client_2src_2main_8cpp.html#ae66f6b31b5ad750f1fe042a706a4e3d4" target="_top" xlink:title=" ">
<polygon fill="white" stroke="#666666" points="37,-62.54 0,-62.54 0,-42.54 37,-42.54 37,-62.54"/>
<text text-anchor="middle" x="18.5" y="-49.04" font-family="Helvetica,sans-Serif" font-size="10.00">main</text>
</a>
</g>
</g>
<!-- Node3&#45;&gt;Node4 -->
<g id="edge3_Node000003_Node000004" class="edge">
<title>Node3&#45;&gt;Node4</title>
<g id="a_edge3_Node000003_Node000004"><a xlink:title=" ">
<path fill="none" stroke="#63b8ff" d="M61.12,-52.54C52.34,-52.54 44.18,-52.54 37.46,-52.54"/>
<polygon fill="#63b8ff" stroke="#63b8ff" points="61,-56.04 71,-52.54 61,-49.04 61,-56.04"/>
</a>
</g>
</g>
<!-- Node5&#45;&gt;Node3 -->
<g id="edge5_Node000005_Node000003" class="edge">
<title>Node5&#45;&gt;Node3</title>
<g id="a_edge5_Node000005_Node000003"><a xlink:title=" ">
<path fill="none" stroke="#63b8ff" d="M242.07,-52.54C234.19,-52.54 226.24,-52.54 218.48,-52.54"/>
<polygon fill="#63b8ff" stroke="#63b8ff" points="242.02,-56.04 252.02,-52.54 242.02,-49.04 242.02,-56.04"/>
</a>
</g>
</g>
<!-- Node6&#45;&gt;Node3 -->
<g id="edge9_Node000006_Node000003" class="edge">
<title>Node6&#45;&gt;Node3</title>
<g id="a_edge9_Node000006_Node000003"><a xlink:title=" ">
<path fill="none" stroke="#63b8ff" d="M627.9,-14.66C615.5,-12.12 602.69,-9.91 590.5,-8.54 441.64,8.2 401.71,-2.65 254,-27.54 231.42,-31.35 206.5,-37.05 186.34,-42.05"/>
<polygon fill="#63b8ff" stroke="#63b8ff" points="627.14,-18.08 637.66,-16.76 628.62,-11.23 627.14,-18.08"/>
</a>
</g>
</g>
<!-- Node7 -->
<g id="Node000007" class="node">
<title>Node7</title>
<g id="a_Node000007"><a xlink:href="classGameManager.html#a948792a1ef6f0a0c8c21fae779c4b525" target="_top" xlink:title=" ">
<polygon fill="white" stroke="#666666" points="582.62,-49.54 441.38,-49.54 441.38,-17.54 582.62,-17.54 582.62,-49.54"/>
<text text-anchor="start" x="449.38" y="-36.04" font-family="Helvetica,sans-Serif" font-size="10.00">GameManager::applyCurrent</text>
<text text-anchor="middle" x="512" y="-24.04" font-family="Helvetica,sans-Serif" font-size="10.00">Resolution</text>
</a>
</g>
</g>
<!-- Node6&#45;&gt;Node7 -->
<g id="edge7_Node000006_Node000007" class="edge">
<title>Node6&#45;&gt;Node7</title>
<g id="a_edge7_Node000006_Node000007"><a xlink:title=" ">
<path fill="none" stroke="#63b8ff" d="M614.81,-33.54C604.2,-33.54 593.45,-33.54 583.11,-33.54"/>
<polygon fill="#63b8ff" stroke="#63b8ff" points="614.73,-37.04 624.73,-33.54 614.73,-30.04 614.73,-37.04"/>
</a>
</g>
</g>
<!-- Node7&#45;&gt;Node5 -->
<g id="edge8_Node000007_Node000005" class="edge">
<title>Node7&#45;&gt;Node5</title>
<g id="a_edge8_Node000007_Node000005"><a xlink:title=" ">
<path fill="none" stroke="#63b8ff" d="M429.67,-41.93C419.07,-43.02 408.27,-44.14 397.85,-45.21"/>
<polygon fill="#63b8ff" stroke="#63b8ff" points="429.99,-45.42 439.57,-40.91 429.27,-38.45 429.99,-45.42"/>
</a>
</g>
</g>
</g>
</svg>
