<?xml version="1.0" encoding="UTF-8" standalone="no"?>
<!DOCTYPE svg PUBLIC "-//W3C//DTD SVG 1.1//EN"
 "http://www.w3.org/Graphics/SVG/1.1/DTD/svg11.dtd">
<!-- Generated by graphviz version 12.1.0 (20240811.2233)
 -->
<!-- Title: Parameters::loadResources Pages: 1 -->
<svg width="537pt" height="240pt"
 viewBox="0.00 0.00 536.75 240.00" xmlns="http://www.w3.org/2000/svg" xmlns:xlink="http://www.w3.org/1999/xlink">
<g id="graph0" class="graph" transform="scale(1 1) rotate(0) translate(4 236)">
<title>Parameters::loadResources</title>
<!-- Node1 -->
<g id="Node000001" class="node">
<title>Node1</title>
<g id="a_Node000001"><a xlink:title=" ">
<polygon fill="#999999" stroke="#666666" points="137.5,-145 0,-145 0,-125 137.5,-125 137.5,-145"/>
<text text-anchor="middle" x="68.75" y="-131.5" font-family="Helvetica,sans-Serif" font-size="10.00">Parameters::loadResources</text>
</a>
</g>
</g>
<!-- Node2 -->
<g id="Node000002" class="node">
<title>Node2</title>
<g id="a_Node000002"><a xlink:href="classParameters.html#a580c3fa59ac382709b50a0fddf1350e3" target="_top" xlink:title=" ">
<polygon fill="white" stroke="#666666" points="311,-164 193,-164 193,-144 311,-144 311,-164"/>
<text text-anchor="middle" x="252" y="-150.5" font-family="Helvetica,sans-Serif" font-size="10.00">Parameters::centerText</text>
</a>
</g>
</g>
<!-- Node1&#45;&gt;Node2 -->
<g id="edge1_Node000001_Node000002" class="edge">
<title>Node1&#45;&gt;Node2</title>
<g id="a_edge1_Node000001_Node000002"><a xlink:title=" ">
<path fill="none" stroke="#63b8ff" d="M137.76,-142.13C152.02,-143.62 167.09,-145.2 181.41,-146.71"/>
<polygon fill="#63b8ff" stroke="#63b8ff" points="180.9,-150.17 191.21,-147.73 181.63,-143.21 180.9,-150.17"/>
</a>
</g>
</g>
<!-- Node3 -->
<g id="Node000003" class="node">
<title>Node3</title>
<g id="a_Node000003"><a xlink:href="classParameters.html#a97f0af15da3b0a1a8b3702fc5b56556e" target="_top" xlink:title=" ">
<polygon fill="white" stroke="#666666" points="330.5,-126 173.5,-126 173.5,-106 330.5,-106 330.5,-126"/>
<text text-anchor="middle" x="252" y="-112.5" font-family="Helvetica,sans-Serif" font-size="10.00">Parameters::setupVideoSettings</text>
</a>
</g>
</g>
<!-- Node1&#45;&gt;Node3 -->
<g id="edge2_Node000001_Node000003" class="edge">
<title>Node1&#45;&gt;Node3</title>
<g id="a_edge2_Node000001_Node000003"><a xlink:title=" ">
<path fill="none" stroke="#63b8ff" d="M137.76,-127.87C145.61,-127.05 153.7,-126.2 161.78,-125.35"/>
<polygon fill="#63b8ff" stroke="#63b8ff" points="162.08,-128.84 171.66,-124.32 161.35,-121.88 162.08,-128.84"/>
</a>
</g>
</g>
<!-- Node4 -->
<g id="Node000004" class="node">
<title>Node4</title>
<g id="a_Node000004"><a xlink:href="classParameters.html#a30943fe99e7fa2007923912bdd56f59f" target="_top" xlink:title=" ">
<polygon fill="white" stroke="#666666" points="513,-232 382.25,-232 382.25,-200 513,-200 513,-232"/>
<text text-anchor="start" x="390.25" y="-218.5" font-family="Helvetica,sans-Serif" font-size="10.00">Parameters::getColorBlind</text>
<text text-anchor="middle" x="447.62" y="-206.5" font-family="Helvetica,sans-Serif" font-size="10.00">ModeString</text>
</a>
</g>
</g>
<!-- Node3&#45;&gt;Node4 -->
<g id="edge3_Node000003_Node000004" class="edge">
<title>Node3&#45;&gt;Node4</title>
<g id="a_edge3_Node000003_Node000004"><a xlink:title=" ">
<path fill="none" stroke="#63b8ff" d="M314.61,-126.38C320.25,-128.7 325.65,-131.54 330.5,-135 354.58,-152.19 342.96,-173.07 366.5,-191 368.28,-192.36 370.14,-193.64 372.06,-194.86"/>
<polygon fill="#63b8ff" stroke="#63b8ff" points="370.29,-197.88 380.74,-199.65 373.67,-191.75 370.29,-197.88"/>
</a>
</g>
</g>
<!-- Node5 -->
<g id="Node000005" class="node">
<title>Node5</title>
<g id="a_Node000005"><a xlink:href="classParameters.html#a461466b15c2fa714bb7c93b5a8b7e034" target="_top" xlink:title=" ">
<polygon fill="white" stroke="#666666" points="519,-182 376.25,-182 376.25,-150 519,-150 519,-182"/>
<text text-anchor="start" x="384.25" y="-168.5" font-family="Helvetica,sans-Serif" font-size="10.00">Parameters::getDisplayMode</text>
<text text-anchor="middle" x="447.62" y="-156.5" font-family="Helvetica,sans-Serif" font-size="10.00">String</text>
</a>
</g>
</g>
<!-- Node3&#45;&gt;Node5 -->
<g id="edge4_Node000003_Node000005" class="edge">
<title>Node3&#45;&gt;Node5</title>
<g id="a_edge4_Node000003_Node000005"><a xlink:title=" ">
<path fill="none" stroke="#63b8ff" d="M296.49,-126.5C307.59,-129.22 319.5,-132.18 330.5,-135 344.84,-138.67 360.14,-142.69 374.78,-146.58"/>
<polygon fill="#63b8ff" stroke="#63b8ff" points="373.79,-149.93 384.35,-149.13 375.59,-143.17 373.79,-149.93"/>
</a>
</g>
</g>
<!-- Node6 -->
<g id="Node000006" class="node">
<title>Node6</title>
<g id="a_Node000006"><a xlink:href="classParameters.html#a457a6ed2d096be7f5b648c7df1c7fafa" target="_top" xlink:title=" ">
<polygon fill="white" stroke="#666666" points="525.38,-132 369.88,-132 369.88,-100 525.38,-100 525.38,-132"/>
<text text-anchor="start" x="377.88" y="-118.5" font-family="Helvetica,sans-Serif" font-size="10.00">Parameters::getGraphicsQuality</text>
<text text-anchor="middle" x="447.62" y="-106.5" font-family="Helvetica,sans-Serif" font-size="10.00">String</text>
</a>
</g>
</g>
<!-- Node3&#45;&gt;Node6 -->
<g id="edge5_Node000003_Node000006" class="edge">
<title>Node3&#45;&gt;Node6</title>
<g id="a_edge5_Node000003_Node000006"><a xlink:title=" ">
<path fill="none" stroke="#63b8ff" d="M330.92,-116C339.86,-116 349.02,-116 358.09,-116"/>
<polygon fill="#63b8ff" stroke="#63b8ff" points="357.98,-119.5 367.98,-116 357.98,-112.5 357.98,-119.5"/>
</a>
</g>
</g>
<!-- Node7 -->
<g id="Node000007" class="node">
<title>Node7</title>
<g id="a_Node000007"><a xlink:href="classParameters.html#ab06f51d4f6cecc5d4ca32f6a770fca12" target="_top" xlink:title=" ">
<polygon fill="white" stroke="#666666" points="513.75,-82 381.5,-82 381.5,-50 513.75,-50 513.75,-82"/>
<text text-anchor="start" x="389.5" y="-68.5" font-family="Helvetica,sans-Serif" font-size="10.00">Parameters::getResolution</text>
<text text-anchor="middle" x="447.62" y="-56.5" font-family="Helvetica,sans-Serif" font-size="10.00">String</text>
</a>
</g>
</g>
<!-- Node3&#45;&gt;Node7 -->
<g id="edge6_Node000003_Node000007" class="edge">
<title>Node3&#45;&gt;Node7</title>
<g id="a_edge6_Node000003_Node000007"><a xlink:title=" ">
<path fill="none" stroke="#63b8ff" d="M293.59,-105.52C316.3,-99.65 345.32,-92.16 371.98,-85.28"/>
<polygon fill="#63b8ff" stroke="#63b8ff" points="372.57,-88.74 381.37,-82.85 370.82,-81.96 372.57,-88.74"/>
</a>
</g>
</g>
<!-- Node8 -->
<g id="Node000008" class="node">
<title>Node8</title>
<g id="a_Node000008"><a xlink:href="classParameters.html#abeed7c94e97e5aa1339f807a23765a4b" target="_top" xlink:title=" ">
<polygon fill="white" stroke="#666666" points="528.75,-32 366.5,-32 366.5,0 528.75,0 528.75,-32"/>
<text text-anchor="start" x="374.5" y="-18.5" font-family="Helvetica,sans-Serif" font-size="10.00">Parameters::updateVideoSettings</text>
<text text-anchor="middle" x="447.62" y="-6.5" font-family="Helvetica,sans-Serif" font-size="10.00">Positions</text>
</a>
</g>
</g>
<!-- Node3&#45;&gt;Node8 -->
<g id="edge7_Node000003_Node000008" class="edge">
<title>Node3&#45;&gt;Node8</title>
<g id="a_edge7_Node000003_Node000008"><a xlink:title=" ">
<path fill="none" stroke="#63b8ff" d="M265.9,-105.7C286.23,-89.9 327.45,-59.53 366.5,-41 369.79,-39.44 373.2,-37.94 376.68,-36.52"/>
<polygon fill="#63b8ff" stroke="#63b8ff" points="377.77,-39.85 385.85,-32.99 375.26,-33.31 377.77,-39.85"/>
</a>
</g>
</g>
</g>
</svg>
