<?xml version="1.0" encoding="UTF-8" standalone="no"?>
<!DOCTYPE svg PUBLIC "-//W3C//DTD SVG 1.1//EN"
 "http://www.w3.org/Graphics/SVG/1.1/DTD/svg11.dtd">
<!-- Generated by graphviz version 12.1.0 (20240811.2233)
 -->
<!-- Title: NetworkClient::processMessage Pages: 1 -->
<svg width="504pt" height="450pt"
 viewBox="0.00 0.00 503.75 450.00" xmlns="http://www.w3.org/2000/svg" xmlns:xlink="http://www.w3.org/1999/xlink">
<g id="graph0" class="graph" transform="scale(1 1) rotate(0) translate(4 446)">
<title>NetworkClient::processMessage</title>
<!-- Node1 -->
<g id="Node000001" class="node">
<title>Node1</title>
<g id="a_Node000001"><a xlink:title=" ">
<polygon fill="#999999" stroke="#666666" points="158.5,-226 0,-226 0,-206 158.5,-206 158.5,-226"/>
<text text-anchor="middle" x="79.25" y="-212.5" font-family="Helvetica,sans-Serif" font-size="10.00">NetworkClient::processMessage</text>
</a>
</g>
</g>
<!-- Node2 -->
<g id="Node000002" class="node">
<title>Node2</title>
<g id="a_Node000002"><a xlink:href="classNetworkClient.html#a4c76dee697263665a9903aeb7149b81b" target="_top" xlink:title=" ">
<polygon fill="white" stroke="#666666" points="323.38,-420 194.88,-420 194.88,-400 323.38,-400 323.38,-420"/>
<text text-anchor="middle" x="259.12" y="-406.5" font-family="Helvetica,sans-Serif" font-size="10.00">NetworkClient::listRooms</text>
</a>
</g>
</g>
<!-- Node1&#45;&gt;Node2 -->
<g id="edge1_Node000001_Node000002" class="edge">
<title>Node1&#45;&gt;Node2</title>
<g id="a_edge1_Node000001_Node000002"><a xlink:title=" ">
<path fill="none" stroke="#63b8ff" d="M83.91,-226.08C95.32,-256.01 133.15,-345.2 194.5,-391 196.23,-392.29 198.05,-393.5 199.94,-394.62"/>
<polygon fill="#63b8ff" stroke="#63b8ff" points="197.95,-397.54 208.45,-398.91 201.09,-391.29 197.95,-397.54"/>
</a>
</g>
</g>
<!-- Node5 -->
<g id="Node000005" class="node">
<title>Node5</title>
<g id="a_Node000005"><a xlink:href="classRtypeServer_1_1Protocol.html#a7ae416c1a86e67eb7500bd81868540cb" target="_top" xlink:title=" ">
<polygon fill="white" stroke="#666666" points="315.5,-382 202.75,-382 202.75,-350 315.5,-350 315.5,-382"/>
<text text-anchor="start" x="210.75" y="-368.5" font-family="Helvetica,sans-Serif" font-size="10.00">RtypeServer::Protocol</text>
<text text-anchor="middle" x="259.12" y="-356.5" font-family="Helvetica,sans-Serif" font-size="10.00">::readHeader</text>
</a>
</g>
</g>
<!-- Node1&#45;&gt;Node5 -->
<g id="edge4_Node000001_Node000005" class="edge">
<title>Node1&#45;&gt;Node5</title>
<g id="a_edge4_Node000001_Node000005"><a xlink:title=" ">
<path fill="none" stroke="#63b8ff" d="M87.06,-226.19C103.14,-249.55 145.81,-307.52 194.5,-341 196.08,-342.09 197.71,-343.14 199.39,-344.15"/>
<polygon fill="#63b8ff" stroke="#63b8ff" points="197.55,-347.13 208.01,-348.82 200.88,-340.98 197.55,-347.13"/>
</a>
</g>
</g>
<!-- Node6 -->
<g id="Node000006" class="node">
<title>Node6</title>
<g id="a_Node000006"><a xlink:href="classRtypeServer_1_1Protocol.html#aefe182e0b8207a9b0c5c9314fc9bcc24" target="_top" xlink:title=" ">
<polygon fill="white" stroke="#666666" points="321.12,-332 197.12,-332 197.12,-300 321.12,-300 321.12,-332"/>
<text text-anchor="start" x="205.12" y="-318.5" font-family="Helvetica,sans-Serif" font-size="10.00">RtypeServer::Protocol</text>
<text text-anchor="middle" x="259.12" y="-306.5" font-family="Helvetica,sans-Serif" font-size="10.00">::readRoomCreatedBody</text>
</a>
</g>
</g>
<!-- Node1&#45;&gt;Node6 -->
<g id="edge5_Node000001_Node000006" class="edge">
<title>Node1&#45;&gt;Node6</title>
<g id="a_edge5_Node000001_Node000006"><a xlink:title=" ">
<path fill="none" stroke="#63b8ff" d="M94.1,-226.46C115.04,-241.94 156.36,-271.26 194.5,-291 197.04,-292.31 199.66,-293.6 202.33,-294.85"/>
<polygon fill="#63b8ff" stroke="#63b8ff" points="200.83,-298.02 211.39,-298.9 203.68,-291.63 200.83,-298.02"/>
</a>
</g>
</g>
<!-- Node7 -->
<g id="Node000007" class="node">
<title>Node7</title>
<g id="a_Node000007"><a xlink:href="classRtypeServer_1_1Protocol.html#ad791c08d720fad6c97eb1281c0d3f793" target="_top" xlink:title=" ">
<polygon fill="white" stroke="#666666" points="315.5,-282 202.75,-282 202.75,-250 315.5,-250 315.5,-282"/>
<text text-anchor="start" x="210.75" y="-268.5" font-family="Helvetica,sans-Serif" font-size="10.00">RtypeServer::Protocol</text>
<text text-anchor="middle" x="259.12" y="-256.5" font-family="Helvetica,sans-Serif" font-size="10.00">::readRoomErrorBody</text>
</a>
</g>
</g>
<!-- Node1&#45;&gt;Node7 -->
<g id="edge6_Node000001_Node000007" class="edge">
<title>Node1&#45;&gt;Node7</title>
<g id="a_edge6_Node000001_Node000007"><a xlink:title=" ">
<path fill="none" stroke="#63b8ff" d="M117.54,-226.48C138.92,-232.49 166.41,-240.22 191.39,-247.24"/>
<polygon fill="#63b8ff" stroke="#63b8ff" points="190.26,-250.56 200.84,-249.9 192.16,-243.82 190.26,-250.56"/>
</a>
</g>
</g>
<!-- Node8 -->
<g id="Node000008" class="node">
<title>Node8</title>
<g id="a_Node000008"><a xlink:href="classRtypeServer_1_1Protocol.html#afe33d8c3050627d0039de4bf29dcb5a1" target="_top" xlink:title=" ">
<polygon fill="white" stroke="#666666" points="318.12,-232 200.12,-232 200.12,-200 318.12,-200 318.12,-232"/>
<text text-anchor="start" x="208.12" y="-218.5" font-family="Helvetica,sans-Serif" font-size="10.00">RtypeServer::Protocol</text>
<text text-anchor="middle" x="259.12" y="-206.5" font-family="Helvetica,sans-Serif" font-size="10.00">::readRoomJoinedBody</text>
</a>
</g>
</g>
<!-- Node1&#45;&gt;Node8 -->
<g id="edge7_Node000001_Node000008" class="edge">
<title>Node1&#45;&gt;Node8</title>
<g id="a_edge7_Node000001_Node000008"><a xlink:title=" ">
<path fill="none" stroke="#63b8ff" d="M158.79,-216C168.69,-216 178.76,-216 188.51,-216"/>
<polygon fill="#63b8ff" stroke="#63b8ff" points="188.26,-219.5 198.26,-216 188.26,-212.5 188.26,-219.5"/>
</a>
</g>
</g>
<!-- Node9 -->
<g id="Node000009" class="node">
<title>Node9</title>
<g id="a_Node000009"><a xlink:href="classRtypeServer_1_1Protocol.html#abde690c7dc5ee22f6e646cbbf7523b3b" target="_top" xlink:title=" ">
<polygon fill="white" stroke="#666666" points="315.5,-182 202.75,-182 202.75,-150 315.5,-150 315.5,-182"/>
<text text-anchor="start" x="210.75" y="-168.5" font-family="Helvetica,sans-Serif" font-size="10.00">RtypeServer::Protocol</text>
<text text-anchor="middle" x="259.12" y="-156.5" font-family="Helvetica,sans-Serif" font-size="10.00">::readRoomLeftBody</text>
</a>
</g>
</g>
<!-- Node1&#45;&gt;Node9 -->
<g id="edge8_Node000001_Node000009" class="edge">
<title>Node1&#45;&gt;Node9</title>
<g id="a_edge8_Node000001_Node000009"><a xlink:title=" ">
<path fill="none" stroke="#63b8ff" d="M117.54,-205.52C138.92,-199.51 166.41,-191.78 191.39,-184.76"/>
<polygon fill="#63b8ff" stroke="#63b8ff" points="192.16,-188.18 200.84,-182.1 190.26,-181.44 192.16,-188.18"/>
</a>
</g>
</g>
<!-- Node10 -->
<g id="Node000010" class="node">
<title>Node10</title>
<g id="a_Node000010"><a xlink:href="classRtypeServer_1_1Protocol.html#ad9b727fe0be0c583db5a98d5b5b3a04b" target="_top" xlink:title=" ">
<polygon fill="white" stroke="#666666" points="315.5,-132 202.75,-132 202.75,-100 315.5,-100 315.5,-132"/>
<text text-anchor="start" x="210.75" y="-118.5" font-family="Helvetica,sans-Serif" font-size="10.00">RtypeServer::Protocol</text>
<text text-anchor="middle" x="259.12" y="-106.5" font-family="Helvetica,sans-Serif" font-size="10.00">::readRoomListBody</text>
</a>
</g>
</g>
<!-- Node1&#45;&gt;Node10 -->
<g id="edge9_Node000001_Node000010" class="edge">
<title>Node1&#45;&gt;Node10</title>
<g id="a_edge9_Node000001_Node000010"><a xlink:title=" ">
<path fill="none" stroke="#63b8ff" d="M94.1,-205.54C115.04,-190.06 156.36,-160.74 194.5,-141 197.04,-139.69 199.66,-138.4 202.33,-137.15"/>
<polygon fill="#63b8ff" stroke="#63b8ff" points="203.68,-140.37 211.39,-133.1 200.83,-133.98 203.68,-140.37"/>
</a>
</g>
</g>
<!-- Node11 -->
<g id="Node000011" class="node">
<title>Node11</title>
<g id="a_Node000011"><a xlink:href="classRtypeServer_1_1Protocol.html#a1d59245eae226e073600c4c8157388c0" target="_top" xlink:title=" ">
<polygon fill="white" stroke="#666666" points="323.75,-82 194.5,-82 194.5,-50 323.75,-50 323.75,-82"/>
<text text-anchor="start" x="202.5" y="-68.5" font-family="Helvetica,sans-Serif" font-size="10.00">RtypeServer::Protocol</text>
<text text-anchor="middle" x="259.12" y="-56.5" font-family="Helvetica,sans-Serif" font-size="10.00">::readRoomMessageBody</text>
</a>
</g>
</g>
<!-- Node1&#45;&gt;Node11 -->
<g id="edge10_Node000001_Node000011" class="edge">
<title>Node1&#45;&gt;Node11</title>
<g id="a_edge10_Node000001_Node000011"><a xlink:title=" ">
<path fill="none" stroke="#63b8ff" d="M87.06,-205.81C103.14,-182.45 145.81,-124.48 194.5,-91 196.08,-89.91 197.71,-88.86 199.39,-87.85"/>
<polygon fill="#63b8ff" stroke="#63b8ff" points="200.88,-91.02 208.01,-83.18 197.55,-84.87 200.88,-91.02"/>
</a>
</g>
</g>
<!-- Node12 -->
<g id="Node000012" class="node">
<title>Node12</title>
<g id="a_Node000012"><a xlink:href="classRtypeServer_1_1Protocol.html#ac5cd35b625c214fe377e3efead2f4f8d" target="_top" xlink:title=" ">
<polygon fill="white" stroke="#666666" points="315.5,-32 202.75,-32 202.75,0 315.5,0 315.5,-32"/>
<text text-anchor="start" x="210.75" y="-18.5" font-family="Helvetica,sans-Serif" font-size="10.00">RtypeServer::Protocol</text>
<text text-anchor="middle" x="259.12" y="-6.5" font-family="Helvetica,sans-Serif" font-size="10.00">::readWelcomeBody</text>
</a>
</g>
</g>
<!-- Node1&#45;&gt;Node12 -->
<g id="edge11_Node000001_Node000012" class="edge">
<title>Node1&#45;&gt;Node12</title>
<g id="a_edge11_Node000001_Node000012"><a xlink:title=" ">
<path fill="none" stroke="#63b8ff" d="M84.27,-205.74C96.39,-176.05 135.42,-89.11 194.5,-41 195.61,-40.09 196.76,-39.22 197.94,-38.37"/>
<polygon fill="#63b8ff" stroke="#63b8ff" points="199.57,-41.48 206.22,-33.23 195.87,-35.53 199.57,-41.48"/>
</a>
</g>
</g>
<!-- Node3 -->
<g id="Node000003" class="node">
<title>Node3</title>
<g id="a_Node000003"><a xlink:href="classNetworkClient.html#ad307cf1f5e6ff844ef8c1e106df510f5" target="_top" xlink:title=" ">
<polygon fill="white" stroke="#666666" points="495.75,-442 359.75,-442 359.75,-422 495.75,-422 495.75,-442"/>
<text text-anchor="middle" x="427.75" y="-428.5" font-family="Helvetica,sans-Serif" font-size="10.00">NetworkClient::sendPacket</text>
</a>
</g>
</g>
<!-- Node2&#45;&gt;Node3 -->
<g id="edge2_Node000002_Node000003" class="edge">
<title>Node2&#45;&gt;Node3</title>
<g id="a_edge2_Node000002_Node000003"><a xlink:title=" ">
<path fill="none" stroke="#63b8ff" d="M323.59,-418.38C331.62,-419.44 339.92,-420.53 348.15,-421.62"/>
<polygon fill="#63b8ff" stroke="#63b8ff" points="347.43,-425.06 357.8,-422.9 348.34,-418.12 347.43,-425.06"/>
</a>
</g>
</g>
<!-- Node4 -->
<g id="Node000004" class="node">
<title>Node4</title>
<g id="a_Node000004"><a xlink:href="classRtypeServer_1_1Protocol.html#ad918184440d6fcb33f231a7173a67399" target="_top" xlink:title=" ">
<polygon fill="white" stroke="#666666" points="484.12,-404 371.38,-404 371.38,-372 484.12,-372 484.12,-404"/>
<text text-anchor="start" x="379.38" y="-390.5" font-family="Helvetica,sans-Serif" font-size="10.00">RtypeServer::Protocol</text>
<text text-anchor="middle" x="427.75" y="-378.5" font-family="Helvetica,sans-Serif" font-size="10.00">::writeHeader</text>
</a>
</g>
</g>
<!-- Node2&#45;&gt;Node4 -->
<g id="edge3_Node000002_Node000004" class="edge">
<title>Node2&#45;&gt;Node4</title>
<g id="a_edge3_Node000002_Node000004"><a xlink:title=" ">
<path fill="none" stroke="#63b8ff" d="M323.59,-401.62C335.44,-400.06 347.86,-398.42 359.81,-396.84"/>
<polygon fill="#63b8ff" stroke="#63b8ff" points="360.13,-400.33 369.59,-395.55 359.21,-393.39 360.13,-400.33"/>
</a>
</g>
</g>
</g>
</svg>
