<?xml version="1.0" encoding="UTF-8" standalone="no"?>
<!DOCTYPE svg PUBLIC "-//W3C//DTD SVG 1.1//EN"
 "http://www.w3.org/Graphics/SVG/1.1/DTD/svg11.dtd">
<!-- Generated by graphviz version 12.1.0 (20240811.2233)
 -->
<!-- Title: GameManager::cycleColorBlindMode Pages: 1 -->
<svg width="544pt" height="84pt"
 viewBox="0.00 0.00 543.50 84.00" xmlns="http://www.w3.org/2000/svg" xmlns:xlink="http://www.w3.org/1999/xlink">
<g id="graph0" class="graph" transform="scale(1 1) rotate(0) translate(4 80)">
<title>GameManager::cycleColorBlindMode</title>
<!-- Node1 -->
<g id="Node000001" class="node">
<title>Node1</title>
<g id="a_Node000001"><a xlink:title=" ">
<polygon fill="#999999" stroke="#666666" points="178,-48 0,-48 0,-28 178,-28 178,-48"/>
<text text-anchor="middle" x="89" y="-34.5" font-family="Helvetica,sans-Serif" font-size="10.00">GameManager::cycleColorBlindMode</text>
</a>
</g>
</g>
<!-- Node2 -->
<g id="Node000002" class="node">
<title>Node2</title>
<g id="a_Node000002"><a xlink:href="classParameters.html#ade0e5f42198d5f294949bd87c6eec0fa" target="_top" xlink:title=" ">
<polygon fill="white" stroke="#666666" points="362,-76 220.75,-76 220.75,-44 362,-44 362,-76"/>
<text text-anchor="start" x="228.75" y="-62.5" font-family="Helvetica,sans-Serif" font-size="10.00">Parameters::getCurrentColor</text>
<text text-anchor="middle" x="291.38" y="-50.5" font-family="Helvetica,sans-Serif" font-size="10.00">BlindMode</text>
</a>
</g>
</g>
<!-- Node1&#45;&gt;Node2 -->
<g id="edge1_Node000001_Node000002" class="edge">
<title>Node1&#45;&gt;Node2</title>
<g id="a_edge1_Node000001_Node000002"><a xlink:title=" ">
<path fill="none" stroke="#63b8ff" d="M178.47,-47.71C188.68,-48.83 199.05,-49.97 209.15,-51.08"/>
<polygon fill="#63b8ff" stroke="#63b8ff" points="208.6,-54.54 218.92,-52.15 209.36,-47.58 208.6,-54.54"/>
</a>
</g>
</g>
<!-- Node3 -->
<g id="Node000003" class="node">
<title>Node3</title>
<g id="a_Node000003"><a xlink:href="classParameters.html#aef99182406aa08d547716d348fab78de" target="_top" xlink:title=" ">
<polygon fill="white" stroke="#666666" points="368.75,-26 214,-26 214,-6 368.75,-6 368.75,-26"/>
<text text-anchor="middle" x="291.38" y="-12.5" font-family="Helvetica,sans-Serif" font-size="10.00">Parameters::setColorBlindMode</text>
</a>
</g>
</g>
<!-- Node1&#45;&gt;Node3 -->
<g id="edge2_Node000001_Node000003" class="edge">
<title>Node1&#45;&gt;Node3</title>
<g id="a_edge2_Node000001_Node000003"><a xlink:title=" ">
<path fill="none" stroke="#63b8ff" d="M178.47,-28.29C186.45,-27.41 194.53,-26.52 202.51,-25.65"/>
<polygon fill="#63b8ff" stroke="#63b8ff" points="202.63,-29.16 212.19,-24.58 201.87,-22.2 202.63,-29.16"/>
</a>
</g>
</g>
<!-- Node4 -->
<g id="Node000004" class="node">
<title>Node4</title>
<g id="a_Node000004"><a xlink:href="classParameters.html#a30943fe99e7fa2007923912bdd56f59f" target="_top" xlink:title=" ">
<polygon fill="white" stroke="#666666" points="535.5,-32 404.75,-32 404.75,0 535.5,0 535.5,-32"/>
<text text-anchor="start" x="412.75" y="-18.5" font-family="Helvetica,sans-Serif" font-size="10.00">Parameters::getColorBlind</text>
<text text-anchor="middle" x="470.12" y="-6.5" font-family="Helvetica,sans-Serif" font-size="10.00">ModeString</text>
</a>
</g>
</g>
<!-- Node3&#45;&gt;Node4 -->
<g id="edge3_Node000003_Node000004" class="edge">
<title>Node3&#45;&gt;Node4</title>
<g id="a_edge3_Node000003_Node000004"><a xlink:title=" ">
<path fill="none" stroke="#63b8ff" d="M369.13,-16C377.02,-16 385.03,-16 392.91,-16"/>
<polygon fill="#63b8ff" stroke="#63b8ff" points="392.82,-19.5 402.82,-16 392.82,-12.5 392.82,-19.5"/>
</a>
</g>
</g>
</g>
</svg>
