<?xml version="1.0" encoding="UTF-8" standalone="no"?>
<!DOCTYPE svg PUBLIC "-//W3C//DTD SVG 1.1//EN"
 "http://www.w3.org/Graphics/SVG/1.1/DTD/svg11.dtd">
<!-- Generated by graphviz version 12.1.0 (20240811.2233)
 -->
<!-- Title: RtypeServer::Room::join Pages: 1 -->
<svg width="277pt" height="116pt"
 viewBox="0.00 0.00 277.00 116.00" xmlns="http://www.w3.org/2000/svg" xmlns:xlink="http://www.w3.org/1999/xlink">
<g id="graph0" class="graph" transform="scale(1 1) rotate(0) translate(4 112)">
<title>RtypeServer::Room::join</title>
<!-- Node1 -->
<g id="Node000001" class="node">
<title>Node1</title>
<g id="a_Node000001"><a xlink:title=" ">
<polygon fill="#999999" stroke="#666666" points="124,-64 0,-64 0,-44 124,-44 124,-64"/>
<text text-anchor="middle" x="62" y="-50.5" font-family="Helvetica,sans-Serif" font-size="10.00">RtypeServer::Room::join</text>
</a>
</g>
</g>
<!-- Node2 -->
<g id="Node000002" class="node">
<title>Node2</title>
<g id="a_Node000002"><a xlink:href="namespaceRtypeServer.html#a0945154a39091e84a43cedc8136b0abe" target="_top" xlink:title=" ">
<polygon fill="white" stroke="#666666" points="262.25,-108 166.75,-108 166.75,-88 262.25,-88 262.25,-108"/>
<text text-anchor="middle" x="214.5" y="-94.5" font-family="Helvetica,sans-Serif" font-size="10.00">RtypeServer::infof</text>
</a>
</g>
</g>
<!-- Node1&#45;&gt;Node2 -->
<g id="edge1_Node000001_Node000002" class="edge">
<title>Node1&#45;&gt;Node2</title>
<g id="a_edge1_Node000001_Node000002"><a xlink:title=" ">
<path fill="none" stroke="#63b8ff" d="M98.67,-64.43C119.12,-70.41 145.02,-77.98 167.04,-84.42"/>
<polygon fill="#63b8ff" stroke="#63b8ff" points="165.8,-87.7 176.38,-87.15 167.76,-80.98 165.8,-87.7"/>
</a>
</g>
</g>
<!-- Node3 -->
<g id="Node000003" class="node">
<title>Node3</title>
<g id="a_Node000003"><a xlink:href="classRtypeServer_1_1Room.html#a1a353dec4f660f9ae6a7d439e66b7b07" target="_top" xlink:title=" ">
<polygon fill="white" stroke="#666666" points="269,-70 160,-70 160,-38 269,-38 269,-70"/>
<text text-anchor="start" x="168" y="-56.5" font-family="Helvetica,sans-Serif" font-size="10.00">RtypeServer::Room::</text>
<text text-anchor="middle" x="214.5" y="-44.5" font-family="Helvetica,sans-Serif" font-size="10.00">isFull</text>
</a>
</g>
</g>
<!-- Node1&#45;&gt;Node3 -->
<g id="edge2_Node000001_Node000003" class="edge">
<title>Node1&#45;&gt;Node3</title>
<g id="a_edge2_Node000001_Node000003"><a xlink:title=" ">
<path fill="none" stroke="#63b8ff" d="M124.21,-54C132.09,-54 140.17,-54 148.11,-54"/>
<polygon fill="#63b8ff" stroke="#63b8ff" points="148.08,-57.5 158.08,-54 148.08,-50.5 148.08,-57.5"/>
</a>
</g>
</g>
<!-- Node4 -->
<g id="Node000004" class="node">
<title>Node4</title>
<g id="a_Node000004"><a xlink:href="namespaceRtypeServer.html#a29d016de4637084d2ec30b53700af223" target="_top" xlink:title=" ">
<polygon fill="white" stroke="#666666" points="264.88,-20 164.12,-20 164.12,0 264.88,0 264.88,-20"/>
<text text-anchor="middle" x="214.5" y="-6.5" font-family="Helvetica,sans-Serif" font-size="10.00">RtypeServer::warnf</text>
</a>
</g>
</g>
<!-- Node1&#45;&gt;Node4 -->
<g id="edge3_Node000001_Node000004" class="edge">
<title>Node1&#45;&gt;Node4</title>
<g id="a_edge3_Node000001_Node000004"><a xlink:title=" ">
<path fill="none" stroke="#63b8ff" d="M98.67,-43.57C119.12,-37.59 145.02,-30.02 167.04,-23.58"/>
<polygon fill="#63b8ff" stroke="#63b8ff" points="167.76,-27.02 176.38,-20.85 165.8,-20.3 167.76,-27.02"/>
</a>
</g>
</g>
</g>
</svg>
