<?xml version="1.0" encoding="UTF-8" standalone="no"?>
<!DOCTYPE svg PUBLIC "-//W3C//DTD SVG 1.1//EN"
 "http://www.w3.org/Graphics/SVG/1.1/DTD/svg11.dtd">
<!-- Generated by graphviz version 12.1.0 (20240811.2233)
 -->
<!-- Title: GameManager::update Pages: 1 -->
<svg width="666pt" height="216pt"
 viewBox="0.00 0.00 666.00 216.00" xmlns="http://www.w3.org/2000/svg" xmlns:xlink="http://www.w3.org/1999/xlink">
<g id="graph0" class="graph" transform="scale(1 1) rotate(0) translate(4 212)">
<title>GameManager::update</title>
<!-- Node1 -->
<g id="Node000001" class="node">
<title>Node1</title>
<g id="a_Node000001"><a xlink:title=" ">
<polygon fill="#999999" stroke="#666666" points="115,-95 0,-95 0,-75 115,-75 115,-95"/>
<text text-anchor="middle" x="57.5" y="-81.5" font-family="Helvetica,sans-Serif" font-size="10.00">GameManager::update</text>
</a>
</g>
</g>
<!-- Node2 -->
<g id="Node000002" class="node">
<title>Node2</title>
<g id="a_Node000002"><a xlink:href="classErrorServer.html#a55d1613810231c93c22532f5e9732083" target="_top" xlink:title=" ">
<polygon fill="white" stroke="#666666" points="260.38,-152 159.62,-152 159.62,-132 260.38,-132 260.38,-152"/>
<text text-anchor="middle" x="210" y="-138.5" font-family="Helvetica,sans-Serif" font-size="10.00">ErrorServer::update</text>
</a>
</g>
</g>
<!-- Node1&#45;&gt;Node2 -->
<g id="edge1_Node000001_Node000002" class="edge">
<title>Node1&#45;&gt;Node2</title>
<g id="a_edge1_Node000001_Node000002"><a xlink:title=" ">
<path fill="none" stroke="#63b8ff" d="M82.65,-95.49C101.21,-103.41 127.54,-114.35 151,-123 155.47,-124.65 160.17,-126.31 164.86,-127.92"/>
<polygon fill="#63b8ff" stroke="#63b8ff" points="163.7,-131.22 174.3,-131.08 165.93,-124.58 163.7,-131.22"/>
</a>
</g>
</g>
<!-- Node3 -->
<g id="Node000003" class="node">
<title>Node3</title>
<g id="a_Node000003"><a xlink:href="classLaunch.html#aa779d3298b4674975a14e5e8bb494fa6" target="_top" xlink:title=" ">
<polygon fill="white" stroke="#666666" points="251.38,-114 168.62,-114 168.62,-94 251.38,-94 251.38,-114"/>
<text text-anchor="middle" x="210" y="-100.5" font-family="Helvetica,sans-Serif" font-size="10.00">Launch::update</text>
</a>
</g>
</g>
<!-- Node1&#45;&gt;Node3 -->
<g id="edge2_Node000001_Node000003" class="edge">
<title>Node1&#45;&gt;Node3</title>
<g id="a_edge2_Node000001_Node000003"><a xlink:title=" ">
<path fill="none" stroke="#63b8ff" d="M115.4,-92.18C129.18,-93.92 143.85,-95.77 157.37,-97.48"/>
<polygon fill="#63b8ff" stroke="#63b8ff" points="156.57,-100.91 166.93,-98.69 157.44,-93.96 156.57,-100.91"/>
</a>
</g>
</g>
<!-- Node4 -->
<g id="Node000004" class="node">
<title>Node4</title>
<g id="a_Node000004"><a xlink:href="classParticleSystem.html#a166fd86f020b6024d7d42723762d7cb2" target="_top" xlink:title=" ">
<polygon fill="white" stroke="#666666" points="269,-76 151,-76 151,-56 269,-56 269,-76"/>
<text text-anchor="middle" x="210" y="-62.5" font-family="Helvetica,sans-Serif" font-size="10.00">ParticleSystem::update</text>
</a>
</g>
</g>
<!-- Node1&#45;&gt;Node4 -->
<g id="edge3_Node000001_Node000004" class="edge">
<title>Node1&#45;&gt;Node4</title>
<g id="a_edge3_Node000001_Node000004"><a xlink:title=" ">
<path fill="none" stroke="#63b8ff" d="M115.4,-77.82C123.21,-76.83 131.29,-75.81 139.3,-74.8"/>
<polygon fill="#63b8ff" stroke="#63b8ff" points="139.54,-78.3 149.02,-73.57 138.66,-71.35 139.54,-78.3"/>
</a>
</g>
</g>
<!-- Node12 -->
<g id="Node000012" class="node">
<title>Node12</title>
<g id="a_Node000012"><a xlink:href="classPlayer.html#a82c3476f3e65a4e2ac6bcd040771bdd4" target="_top" xlink:title=" ">
<polygon fill="white" stroke="#666666" points="249.5,-38 170.5,-38 170.5,-18 249.5,-18 249.5,-38"/>
<text text-anchor="middle" x="210" y="-24.5" font-family="Helvetica,sans-Serif" font-size="10.00">Player::update</text>
</a>
</g>
</g>
<!-- Node1&#45;&gt;Node12 -->
<g id="edge11_Node000001_Node000012" class="edge">
<title>Node1&#45;&gt;Node12</title>
<g id="a_edge11_Node000001_Node000012"><a xlink:title=" ">
<path fill="none" stroke="#63b8ff" d="M82.65,-74.51C101.21,-66.59 127.54,-55.65 151,-47 155.47,-45.35 160.17,-43.69 164.86,-42.08"/>
<polygon fill="#63b8ff" stroke="#63b8ff" points="165.93,-45.42 174.3,-38.92 163.7,-38.78 165.93,-45.42"/>
</a>
</g>
</g>
<!-- Node5 -->
<g id="Node000005" class="node">
<title>Node5</title>
<g id="a_Node000005"><a xlink:href="classParticleSystem.html#aa446ccbbc59cb9dc98c3dce3b6aedd4a" target="_top" xlink:title=" ">
<polygon fill="white" stroke="#666666" points="459.38,-114 309.12,-114 309.12,-94 459.38,-94 459.38,-114"/>
<text text-anchor="middle" x="384.25" y="-100.5" font-family="Helvetica,sans-Serif" font-size="10.00">ParticleSystem::spawnParticle</text>
</a>
</g>
</g>
<!-- Node4&#45;&gt;Node5 -->
<g id="edge4_Node000004_Node000005" class="edge">
<title>Node4&#45;&gt;Node5</title>
<g id="a_edge4_Node000004_Node000005"><a xlink:title=" ">
<path fill="none" stroke="#63b8ff" d="M258.52,-76.48C279.05,-81.01 303.25,-86.35 324.86,-91.12"/>
<polygon fill="#63b8ff" stroke="#63b8ff" points="323.88,-94.49 334.4,-93.22 325.39,-87.65 323.88,-94.49"/>
</a>
</g>
</g>
<!-- Node11 -->
<g id="Node000011" class="node">
<title>Node11</title>
<g id="a_Node000011"><a xlink:href="classParticleSystem.html#ad0dcb05d87185411a342566a37b2eee1" target="_top" xlink:title=" ">
<polygon fill="white" stroke="#666666" points="459.75,-76 308.75,-76 308.75,-56 459.75,-56 459.75,-76"/>
<text text-anchor="middle" x="384.25" y="-62.5" font-family="Helvetica,sans-Serif" font-size="10.00">ParticleSystem::updateParticle</text>
</a>
</g>
</g>
<!-- Node4&#45;&gt;Node11 -->
<g id="edge10_Node000004_Node000011" class="edge">
<title>Node4&#45;&gt;Node11</title>
<g id="a_edge10_Node000004_Node000011"><a xlink:title=" ">
<path fill="none" stroke="#63b8ff" d="M269.32,-66C278.27,-66 287.67,-66 297.07,-66"/>
<polygon fill="#63b8ff" stroke="#63b8ff" points="296.99,-69.5 306.99,-66 296.99,-62.5 296.99,-69.5"/>
</a>
</g>
</g>
<!-- Node6 -->
<g id="Node000006" class="node">
<title>Node6</title>
<g id="a_Node000006"><a xlink:href="classParticleSystem.html#a45c54539a80ca1de8f827e3c081f4dc0" target="_top" xlink:title=" ">
<polygon fill="white" stroke="#666666" points="648.25,-208 509.25,-208 509.25,-176 648.25,-176 648.25,-208"/>
<text text-anchor="start" x="517.25" y="-194.5" font-family="Helvetica,sans-Serif" font-size="10.00">ParticleSystem::getRandom</text>
<text text-anchor="middle" x="578.75" y="-182.5" font-family="Helvetica,sans-Serif" font-size="10.00">Color</text>
</a>
</g>
</g>
<!-- Node5&#45;&gt;Node6 -->
<g id="edge5_Node000005_Node000006" class="edge">
<title>Node5&#45;&gt;Node6</title>
<g id="a_edge5_Node000005_Node000006"><a xlink:title=" ">
<path fill="none" stroke="#63b8ff" d="M401.76,-114.45C423.53,-127.91 463.3,-151.41 499.5,-167 503.26,-168.62 507.16,-170.19 511.12,-171.7"/>
<polygon fill="#63b8ff" stroke="#63b8ff" points="509.67,-174.9 520.27,-175.04 512.07,-168.32 509.67,-174.9"/>
</a>
</g>
</g>
<!-- Node7 -->
<g id="Node000007" class="node">
<title>Node7</title>
<g id="a_Node000007"><a xlink:href="classParticleSystem.html#a0bfa46f2bc767edf8e857b6308708b31" target="_top" xlink:title=" ">
<polygon fill="white" stroke="#666666" points="656.12,-158 501.38,-158 501.38,-138 656.12,-138 656.12,-158"/>
<text text-anchor="middle" x="578.75" y="-144.5" font-family="Helvetica,sans-Serif" font-size="10.00">ParticleSystem::getRandomLife</text>
</a>
</g>
</g>
<!-- Node5&#45;&gt;Node7 -->
<g id="edge6_Node000005_Node000007" class="edge">
<title>Node5&#45;&gt;Node7</title>
<g id="a_edge6_Node000005_Node000007"><a xlink:title=" ">
<path fill="none" stroke="#63b8ff" d="M430.87,-114.43C457.86,-120.6 492.28,-128.46 521.01,-135.03"/>
<polygon fill="#63b8ff" stroke="#63b8ff" points="520.12,-138.42 530.65,-137.23 521.68,-131.59 520.12,-138.42"/>
</a>
</g>
</g>
<!-- Node8 -->
<g id="Node000008" class="node">
<title>Node8</title>
<g id="a_Node000008"><a xlink:href="classParticleSystem.html#ab46d7e29af8876dfa45f1e834e2dc2ee" target="_top" xlink:title=" ">
<polygon fill="white" stroke="#666666" points="648.25,-120 509.25,-120 509.25,-88 648.25,-88 648.25,-120"/>
<text text-anchor="start" x="517.25" y="-106.5" font-family="Helvetica,sans-Serif" font-size="10.00">ParticleSystem::getRandom</text>
<text text-anchor="middle" x="578.75" y="-94.5" font-family="Helvetica,sans-Serif" font-size="10.00">Position</text>
</a>
</g>
</g>
<!-- Node5&#45;&gt;Node8 -->
<g id="edge7_Node000005_Node000008" class="edge">
<title>Node5&#45;&gt;Node8</title>
<g id="a_edge7_Node000005_Node000008"><a xlink:title=" ">
<path fill="none" stroke="#63b8ff" d="M459.68,-104C472.07,-104 484.97,-104 497.5,-104"/>
<polygon fill="#63b8ff" stroke="#63b8ff" points="497.37,-107.5 507.37,-104 497.37,-100.5 497.37,-107.5"/>
</a>
</g>
</g>
<!-- Node9 -->
<g id="Node000009" class="node">
<title>Node9</title>
<g id="a_Node000009"><a xlink:href="classParticleSystem.html#a19c9832490b8c9b47ea11629b677663c" target="_top" xlink:title=" ">
<polygon fill="white" stroke="#666666" points="658,-70 499.5,-70 499.5,-50 658,-50 658,-70"/>
<text text-anchor="middle" x="578.75" y="-56.5" font-family="Helvetica,sans-Serif" font-size="10.00">ParticleSystem::getRandomSize</text>
</a>
</g>
</g>
<!-- Node5&#45;&gt;Node9 -->
<g id="edge8_Node000005_Node000009" class="edge">
<title>Node5&#45;&gt;Node9</title>
<g id="a_edge8_Node000005_Node000009"><a xlink:title=" ">
<path fill="none" stroke="#63b8ff" d="M430.87,-93.57C457.86,-87.4 492.28,-79.54 521.01,-72.97"/>
<polygon fill="#63b8ff" stroke="#63b8ff" points="521.68,-76.41 530.65,-70.77 520.12,-69.58 521.68,-76.41"/>
</a>
</g>
</g>
<!-- Node10 -->
<g id="Node000010" class="node">
<title>Node10</title>
<g id="a_Node000010"><a xlink:href="classParticleSystem.html#a37517ae9e46755a487c7e681ebaab64b" target="_top" xlink:title=" ">
<polygon fill="white" stroke="#666666" points="648.25,-32 509.25,-32 509.25,0 648.25,0 648.25,-32"/>
<text text-anchor="start" x="517.25" y="-18.5" font-family="Helvetica,sans-Serif" font-size="10.00">ParticleSystem::getRandom</text>
<text text-anchor="middle" x="578.75" y="-6.5" font-family="Helvetica,sans-Serif" font-size="10.00">Velocity</text>
</a>
</g>
</g>
<!-- Node5&#45;&gt;Node10 -->
<g id="edge9_Node000005_Node000010" class="edge">
<title>Node5&#45;&gt;Node10</title>
<g id="a_edge9_Node000005_Node000010"><a xlink:title=" ">
<path fill="none" stroke="#63b8ff" d="M445.84,-93.53C452.04,-91.23 458.06,-88.42 463.5,-85 484.89,-71.54 478.61,-55.21 499.5,-41 501.31,-39.77 503.19,-38.59 505.12,-37.47"/>
<polygon fill="#63b8ff" stroke="#63b8ff" points="506.48,-40.71 513.76,-33.02 503.27,-34.49 506.48,-40.71"/>
</a>
</g>
</g>
<!-- Node13 -->
<g id="Node000013" class="node">
<title>Node13</title>
<g id="a_Node000013"><a xlink:href="classPlayer.html#ab6a7c45002402230a73bb1584bff30ba" target="_top" xlink:title=" ">
<polygon fill="white" stroke="#666666" points="463.5,-38 305,-38 305,-18 463.5,-18 463.5,-38"/>
<text text-anchor="middle" x="384.25" y="-24.5" font-family="Helvetica,sans-Serif" font-size="10.00">Player::updateAnimationStarship</text>
</a>
</g>
</g>
<!-- Node12&#45;&gt;Node13 -->
<g id="edge12_Node000012_Node000013" class="edge">
<title>Node12&#45;&gt;Node13</title>
<g id="a_edge12_Node000012_Node000013"><a xlink:title=" ">
<path fill="none" stroke="#63b8ff" d="M249.66,-28C262.75,-28 277.96,-28 293.34,-28"/>
<polygon fill="#63b8ff" stroke="#63b8ff" points="293.03,-31.5 303.03,-28 293.03,-24.5 293.03,-31.5"/>
</a>
</g>
</g>
</g>
</svg>
