<?xml version="1.0" encoding="UTF-8" standalone="no"?>
<!DOCTYPE svg PUBLIC "-//W3C//DTD SVG 1.1//EN"
 "http://www.w3.org/Graphics/SVG/1.1/DTD/svg11.dtd">
<!-- Generated by graphviz version 12.1.0 (20240811.2233)
 -->
<!-- Title: GameManager::gameDemo Pages: 1 -->
<svg width="342pt" height="128pt"
 viewBox="0.00 0.00 342.25 128.00" xmlns="http://www.w3.org/2000/svg" xmlns:xlink="http://www.w3.org/1999/xlink">
<g id="graph0" class="graph" transform="scale(1 1) rotate(0) translate(4 124)">
<title>GameManager::gameDemo</title>
<!-- Node1 -->
<g id="Node000001" class="node">
<title>Node1</title>
<g id="a_Node000001"><a xlink:title=" ">
<polygon fill="#999999" stroke="#666666" points="136,-76 0,-76 0,-56 136,-56 136,-76"/>
<text text-anchor="middle" x="68" y="-62.5" font-family="Helvetica,sans-Serif" font-size="10.00">GameManager::gameDemo</text>
</a>
</g>
</g>
<!-- Node2 -->
<g id="Node000002" class="node">
<title>Node2</title>
<g id="a_Node000002"><a xlink:href="classEngine_1_1Event.html#a096c333084c5fbac10f77048263b3066" target="_top" xlink:title=" ">
<polygon fill="white" stroke="#666666" points="315.88,-120 190.38,-120 190.38,-100 315.88,-100 315.88,-120"/>
<text text-anchor="middle" x="253.12" y="-106.5" font-family="Helvetica,sans-Serif" font-size="10.00">Engine::Event::setParam</text>
</a>
</g>
</g>
<!-- Node1&#45;&gt;Node2 -->
<g id="edge1_Node000001_Node000002" class="edge">
<title>Node1&#45;&gt;Node2</title>
<g id="a_edge1_Node000001_Node000002"><a xlink:title=" ">
<path fill="none" stroke="#63b8ff" d="M111.83,-76.45C130.33,-80.95 152.23,-86.26 172,-91 180.03,-92.93 188.51,-94.95 196.84,-96.93"/>
<polygon fill="#63b8ff" stroke="#63b8ff" points="196.02,-100.33 206.56,-99.24 197.64,-93.52 196.02,-100.33"/>
</a>
</g>
</g>
<!-- Node3 -->
<g id="Node000003" class="node">
<title>Node3</title>
<g id="a_Node000003"><a xlink:href="classEngine_1_1Systems_1_1PhysicsSystem.html#ae197e05c4ba008676c53675548236d2d" target="_top" xlink:title=" ">
<polygon fill="white" stroke="#666666" points="319.25,-82 187,-82 187,-50 319.25,-50 319.25,-82"/>
<text text-anchor="start" x="195" y="-68.5" font-family="Helvetica,sans-Serif" font-size="10.00">Engine::Systems::Physics</text>
<text text-anchor="middle" x="253.12" y="-56.5" font-family="Helvetica,sans-Serif" font-size="10.00">System::update</text>
</a>
</g>
</g>
<!-- Node1&#45;&gt;Node3 -->
<g id="edge2_Node000001_Node000003" class="edge">
<title>Node1&#45;&gt;Node3</title>
<g id="a_edge2_Node000001_Node000003"><a xlink:title=" ">
<path fill="none" stroke="#63b8ff" d="M136.41,-66C149.11,-66 162.47,-66 175.43,-66"/>
<polygon fill="#63b8ff" stroke="#63b8ff" points="175.18,-69.5 185.18,-66 175.18,-62.5 175.18,-69.5"/>
</a>
</g>
</g>
<!-- Node4 -->
<g id="Node000004" class="node">
<title>Node4</title>
<g id="a_Node000004"><a xlink:href="classEngine_1_1Systems_1_1RenderSystem.html#a85ca1f772ccfdaea708a4408216fdae7" target="_top" xlink:title=" ">
<polygon fill="white" stroke="#666666" points="334.25,-32 172,-32 172,0 334.25,0 334.25,-32"/>
<text text-anchor="start" x="180" y="-18.5" font-family="Helvetica,sans-Serif" font-size="10.00">Engine::Systems::RenderSystem</text>
<text text-anchor="middle" x="253.12" y="-6.5" font-family="Helvetica,sans-Serif" font-size="10.00">::update</text>
</a>
</g>
</g>
<!-- Node1&#45;&gt;Node4 -->
<g id="edge3_Node000001_Node000004" class="edge">
<title>Node1&#45;&gt;Node4</title>
<g id="a_edge3_Node000001_Node000004"><a xlink:title=" ">
<path fill="none" stroke="#63b8ff" d="M107.39,-55.52C128.68,-49.71 155.83,-42.29 180.86,-35.46"/>
<polygon fill="#63b8ff" stroke="#63b8ff" points="181.61,-38.88 190.34,-32.87 179.77,-32.13 181.61,-38.88"/>
</a>
</g>
</g>
</g>
</svg>
