<?xml version="1.0" encoding="UTF-8" standalone="no"?>
<!DOCTYPE svg PUBLIC "-//W3C//DTD SVG 1.1//EN"
 "http://www.w3.org/Graphics/SVG/1.1/DTD/svg11.dtd">
<!-- Generated by graphviz version 12.1.0 (20240811.2233)
 -->
<!-- Title: RtypeServer::Protocol::readRoomJoinedBody Pages: 1 -->
<svg width="836pt" height="40pt"
 viewBox="0.00 0.00 835.75 40.00" xmlns="http://www.w3.org/2000/svg" xmlns:xlink="http://www.w3.org/1999/xlink">
<g id="graph0" class="graph" transform="scale(1 1) rotate(0) translate(4 36)">
<title>RtypeServer::Protocol::readRoomJoinedBody</title>
<!-- Node1 -->
<g id="Node000001" class="node">
<title>Node1</title>
<g id="a_Node000001"><a xlink:title=" ">
<polygon fill="#999999" stroke="#666666" points="827.75,-32 709.75,-32 709.75,0 827.75,0 827.75,-32"/>
<text text-anchor="start" x="717.75" y="-18.5" font-family="Helvetica,sans-Serif" font-size="10.00">RtypeServer::Protocol</text>
<text text-anchor="middle" x="768.75" y="-6.5" font-family="Helvetica,sans-Serif" font-size="10.00">::readRoomJoinedBody</text>
</a>
</g>
</g>
<!-- Node2 -->
<g id="Node000002" class="node">
<title>Node2</title>
<g id="a_Node000002"><a xlink:href="classNetworkClient.html#a3db47d9224d5319ffca153c4a4784329" target="_top" xlink:title=" ">
<polygon fill="white" stroke="#666666" points="673.75,-26 515.25,-26 515.25,-6 673.75,-6 673.75,-26"/>
<text text-anchor="middle" x="594.5" y="-12.5" font-family="Helvetica,sans-Serif" font-size="10.00">NetworkClient::processMessage</text>
</a>
</g>
</g>
<!-- Node1&#45;&gt;Node2 -->
<g id="edge1_Node000001_Node000002" class="edge">
<title>Node1&#45;&gt;Node2</title>
<g id="a_edge1_Node000001_Node000002"><a xlink:title=" ">
<path fill="none" stroke="#63b8ff" d="M698.09,-16C690.23,-16 682.18,-16 674.22,-16"/>
<polygon fill="#63b8ff" stroke="#63b8ff" points="697.92,-19.5 707.92,-16 697.92,-12.5 697.92,-19.5"/>
</a>
</g>
</g>
<!-- Node3 -->
<g id="Node000003" class="node">
<title>Node3</title>
<g id="a_Node000003"><a xlink:href="classNetworkClient.html#ae2e39148013eaea326c8ae242ab341bc" target="_top" xlink:title=" ">
<polygon fill="white" stroke="#666666" points="479.25,-26 330.5,-26 330.5,-6 479.25,-6 479.25,-26"/>
<text text-anchor="middle" x="404.88" y="-12.5" font-family="Helvetica,sans-Serif" font-size="10.00">NetworkClient::handleReceive</text>
</a>
</g>
</g>
<!-- Node2&#45;&gt;Node3 -->
<g id="edge2_Node000002_Node000003" class="edge">
<title>Node2&#45;&gt;Node3</title>
<g id="a_edge2_Node000002_Node000003"><a xlink:title=" ">
<path fill="none" stroke="#63b8ff" d="M503.65,-16C495.58,-16 487.46,-16 479.55,-16"/>
<polygon fill="#63b8ff" stroke="#63b8ff" points="503.5,-19.5 513.5,-16 503.5,-12.5 503.5,-19.5"/>
</a>
</g>
</g>
<!-- Node4 -->
<g id="Node000004" class="node">
<title>Node4</title>
<g id="a_Node000004"><a xlink:href="classNetworkClient.html#a9202769a61813d85199c6249ac416705" target="_top" xlink:title=" ">
<polygon fill="white" stroke="#666666" points="294.5,-26 154.75,-26 154.75,-6 294.5,-6 294.5,-26"/>
<text text-anchor="middle" x="224.62" y="-12.5" font-family="Helvetica,sans-Serif" font-size="10.00">NetworkClient::startReceive</text>
</a>
</g>
</g>
<!-- Node3&#45;&gt;Node4 -->
<g id="edge3_Node000003_Node000004" class="edge">
<title>Node3&#45;&gt;Node4</title>
<g id="a_edge3_Node000003_Node000004"><a xlink:title=" ">
<path fill="none" stroke="#63b8ff" d="M318.77,-9.26C310.73,-9.23 302.65,-9.28 294.78,-9.4"/>
<polygon fill="#63b8ff" stroke="#63b8ff" points="318.55,-12.75 328.57,-9.33 318.6,-5.75 318.55,-12.75"/>
</a>
</g>
</g>
<!-- Node4&#45;&gt;Node3 -->
<g id="edge5_Node000004_Node000003" class="edge">
<title>Node4&#45;&gt;Node3</title>
<g id="a_edge5_Node000004_Node000003"><a xlink:title=" ">
<path fill="none" stroke="#63b8ff" d="M306.02,-22.72C314.04,-22.77 322.15,-22.75 330.09,-22.66"/>
<polygon fill="#63b8ff" stroke="#63b8ff" points="306.33,-19.22 296.29,-22.61 306.26,-26.22 306.33,-19.22"/>
</a>
</g>
</g>
<!-- Node5 -->
<g id="Node000005" class="node">
<title>Node5</title>
<g id="a_Node000005"><a xlink:href="classNetworkClient.html#afc8d05d54e88bce60554d9f31e9b0838" target="_top" xlink:title=" ">
<polygon fill="white" stroke="#666666" points="118.75,-26 0,-26 0,-6 118.75,-6 118.75,-26"/>
<text text-anchor="middle" x="59.38" y="-12.5" font-family="Helvetica,sans-Serif" font-size="10.00">NetworkClient::connect</text>
</a>
</g>
</g>
<!-- Node4&#45;&gt;Node5 -->
<g id="edge4_Node000004_Node000005" class="edge">
<title>Node4&#45;&gt;Node5</title>
<g id="a_edge4_Node000004_Node000005"><a xlink:title=" ">
<path fill="none" stroke="#63b8ff" d="M143.04,-16C134.99,-16 126.92,-16 119.15,-16"/>
<polygon fill="#63b8ff" stroke="#63b8ff" points="142.88,-19.5 152.88,-16 142.88,-12.5 142.88,-19.5"/>
</a>
</g>
</g>
</g>
</svg>
