<?xml version="1.0" encoding="UTF-8" standalone="no"?>
<!DOCTYPE svg PUBLIC "-//W3C//DTD SVG 1.1//EN"
 "http://www.w3.org/Graphics/SVG/1.1/DTD/svg11.dtd">
<!-- Generated by graphviz version 12.1.0 (20240811.2233)
 -->
<!-- Title: Engine::SystemManager Pages: 1 -->
<svg width="136pt" height="140pt"
 viewBox="0.00 0.00 136.00 140.00" xmlns="http://www.w3.org/2000/svg" xmlns:xlink="http://www.w3.org/1999/xlink">
<g id="graph0" class="graph" transform="scale(1 1) rotate(0) translate(4 136)">
<title>Engine::SystemManager</title>
<!-- Node1 -->
<g id="Node000001" class="node">
<title>Node1</title>
<g id="a_Node000001"><a xlink:title=" ">
<polygon fill="#999999" stroke="none" points="128,-132 0,-132 0,0 128,0 128,-132"/>
<text text-anchor="start" x="10.38" y="-118.5" font-family="Helvetica,sans-Serif" font-size="10.00">Engine::SystemManager</text>
<text text-anchor="start" x="5.5" y="-102.5" font-family="Helvetica,sans-Serif" font-size="10.00">&#45;</text>
<text text-anchor="start" x="14" y="-102.5" font-family="Helvetica,sans-Serif" font-size="10.00">signatures</text>
<text text-anchor="start" x="5.5" y="-86.5" font-family="Helvetica,sans-Serif" font-size="10.00">&#45;</text>
<text text-anchor="start" x="14" y="-86.5" font-family="Helvetica,sans-Serif" font-size="10.00">systems</text>
<text text-anchor="start" x="4" y="-70.5" font-family="Helvetica,sans-Serif" font-size="10.00">+</text>
<text text-anchor="start" x="14" y="-70.5" font-family="Helvetica,sans-Serif" font-size="10.00">registerSystem()</text>
<text text-anchor="start" x="4" y="-54.5" font-family="Helvetica,sans-Serif" font-size="10.00">+</text>
<text text-anchor="start" x="14" y="-54.5" font-family="Helvetica,sans-Serif" font-size="10.00">setSignature()</text>
<text text-anchor="start" x="4" y="-38.5" font-family="Helvetica,sans-Serif" font-size="10.00">+</text>
<text text-anchor="start" x="14" y="-38.5" font-family="Helvetica,sans-Serif" font-size="10.00">entityDestroyed()</text>
<text text-anchor="start" x="4" y="-22.5" font-family="Helvetica,sans-Serif" font-size="10.00">+</text>
<text text-anchor="start" x="14" y="-22.5" font-family="Helvetica,sans-Serif" font-size="10.00">entitySignatureChanged()</text>
<text text-anchor="start" x="4" y="-6.5" font-family="Helvetica,sans-Serif" font-size="10.00">+</text>
<text text-anchor="start" x="14" y="-6.5" font-family="Helvetica,sans-Serif" font-size="10.00">getSystemNames()</text>
<polygon fill="#666666" stroke="#666666" points="0,-114 0,-114 128,-114 128,-114 0,-114"/>
<polygon fill="#666666" stroke="#666666" points="0,-82 0,-82 12,-82 12,-82 0,-82"/>
<polygon fill="#666666" stroke="#666666" points="12,-82 12,-82 128,-82 128,-82 12,-82"/>
<polygon fill="none" stroke="#666666" points="0,0 0,-132 128,-132 128,0 0,0"/>
</a>
</g>
</g>
</g>
</svg>
