<?xml version="1.0" encoding="UTF-8" standalone="no"?>
<!DOCTYPE svg PUBLIC "-//W3C//DTD SVG 1.1//EN"
 "http://www.w3.org/Graphics/SVG/1.1/DTD/svg11.dtd">
<!-- Generated by graphviz version 12.1.0 (20240811.2233)
 -->
<!-- Title: Engine::ComponentArray&lt; T &gt; Pages: 1 -->
<svg width="150pt" height="260pt"
 viewBox="0.00 0.00 150.00 260.00" xmlns="http://www.w3.org/2000/svg" xmlns:xlink="http://www.w3.org/1999/xlink">
<g id="graph0" class="graph" transform="scale(1 1) rotate(0) translate(4 256)">
<title>Engine::ComponentArray&lt; T &gt;</title>
<!-- Node1 -->
<g id="Node000001" class="node">
<title>Node1</title>
<g id="a_Node000001"><a xlink:title=" ">
<polygon fill="#999999" stroke="none" points="142,-148 0,-148 0,0 142,0 142,-148"/>
<text text-anchor="start" x="4.62" y="-134.5" font-family="Helvetica,sans-Serif" font-size="10.00">Engine::ComponentArray&lt; T &gt;</text>
<text text-anchor="start" x="14" y="-118.5" font-family="Helvetica,sans-Serif" font-size="10.00">&#45;</text>
<text text-anchor="start" x="31" y="-118.5" font-family="Helvetica,sans-Serif" font-size="10.00">components</text>
<text text-anchor="start" x="14" y="-102.5" font-family="Helvetica,sans-Serif" font-size="10.00">&#45;</text>
<text text-anchor="start" x="31" y="-102.5" font-family="Helvetica,sans-Serif" font-size="10.00">entity_to_index_map</text>
<text text-anchor="start" x="14" y="-86.5" font-family="Helvetica,sans-Serif" font-size="10.00">&#45;</text>
<text text-anchor="start" x="31" y="-86.5" font-family="Helvetica,sans-Serif" font-size="10.00">index_to_entity_map</text>
<text text-anchor="start" x="14" y="-70.5" font-family="Helvetica,sans-Serif" font-size="10.00">&#45;</text>
<text text-anchor="start" x="31" y="-70.5" font-family="Helvetica,sans-Serif" font-size="10.00">size</text>
<text text-anchor="start" x="12.5" y="-54.5" font-family="Helvetica,sans-Serif" font-size="10.00">+</text>
<text text-anchor="start" x="31" y="-54.5" font-family="Helvetica,sans-Serif" font-size="10.00">insertEntity()</text>
<text text-anchor="start" x="12.5" y="-38.5" font-family="Helvetica,sans-Serif" font-size="10.00">+</text>
<text text-anchor="start" x="31" y="-38.5" font-family="Helvetica,sans-Serif" font-size="10.00">removeEntity()</text>
<text text-anchor="start" x="12.5" y="-22.5" font-family="Helvetica,sans-Serif" font-size="10.00">+</text>
<text text-anchor="start" x="31" y="-22.5" font-family="Helvetica,sans-Serif" font-size="10.00">getComponent()</text>
<text text-anchor="start" x="12.5" y="-6.5" font-family="Helvetica,sans-Serif" font-size="10.00">+</text>
<text text-anchor="start" x="31" y="-6.5" font-family="Helvetica,sans-Serif" font-size="10.00">entityDestroyed()</text>
<polygon fill="#666666" stroke="#666666" points="0,-130 0,-130 142,-130 142,-130 0,-130"/>
<polygon fill="#666666" stroke="#666666" points="0,-66 0,-66 29,-66 29,-66 0,-66"/>
<polygon fill="#666666" stroke="#666666" points="29,-66 29,-66 142,-66 142,-66 29,-66"/>
<polygon fill="none" stroke="#666666" points="0,0 0,-148 142,-148 142,0 0,0"/>
</a>
</g>
</g>
<!-- Node2 -->
<g id="Node000002" class="node">
<title>Node2</title>
<g id="a_Node000002"><a xlink:href="classEngine_1_1IComponentArray.html" target="_top" xlink:title=" ">
<polygon fill="white" stroke="none" points="132,-252 10,-252 10,-184 132,-184 132,-252"/>
<text text-anchor="start" x="14.75" y="-238.5" font-family="Helvetica,sans-Serif" font-size="10.00">Engine::IComponentArray</text>
<text text-anchor="start" x="69.5" y="-222.5" font-family="Helvetica,sans-Serif" font-size="10.00"> </text>
<text text-anchor="start" x="18" y="-206.5" font-family="Helvetica,sans-Serif" font-size="10.00">+</text>
<text text-anchor="start" x="32" y="-206.5" font-family="Helvetica,sans-Serif" font-size="10.00">~IComponentArray()</text>
<text text-anchor="start" x="18" y="-190.5" font-family="Helvetica,sans-Serif" font-size="10.00">+</text>
<text text-anchor="start" x="32" y="-190.5" font-family="Helvetica,sans-Serif" font-size="10.00">entityDestroyed()</text>
<polygon fill="#666666" stroke="#666666" points="10,-234 10,-234 132,-234 132,-234 10,-234"/>
<polygon fill="#666666" stroke="#666666" points="10,-218 10,-218 132,-218 132,-218 10,-218"/>
<polygon fill="none" stroke="#666666" points="10,-184 10,-252 132,-252 132,-184 10,-184"/>
</a>
</g>
</g>
<!-- Node2&#45;&gt;Node1 -->
<g id="edge1_Node000001_Node000002" class="edge">
<title>Node2&#45;&gt;Node1</title>
<g id="a_edge1_Node000001_Node000002"><a xlink:title=" ">
<path fill="none" stroke="#63b8ff" d="M71,-172.57C71,-164.7 71,-156.32 71,-147.9"/>
<polygon fill="none" stroke="#63b8ff" points="67.5,-172.55 71,-182.55 74.5,-172.55 67.5,-172.55"/>
</a>
</g>
</g>
</g>
</svg>
