<?xml version="1.0" encoding="UTF-8" standalone="no"?>
<!DOCTYPE svg PUBLIC "-//W3C//DTD SVG 1.1//EN"
 "http://www.w3.org/Graphics/SVG/1.1/DTD/svg11.dtd">
<!-- Generated by graphviz version 12.1.0 (20240811.2233)
 -->
<!-- Title: Button::setHovered Pages: 1 -->
<svg width="566pt" height="47pt"
 viewBox="0.00 0.00 566.25 47.00" xmlns="http://www.w3.org/2000/svg" xmlns:xlink="http://www.w3.org/1999/xlink">
<g id="graph0" class="graph" transform="scale(1 1) rotate(0) translate(4 43)">
<title>Button::setHovered</title>
<!-- Node1 -->
<g id="Node000001" class="node">
<title>Node1</title>
<g id="a_Node000001"><a xlink:title=" ">
<polygon fill="#999999" stroke="#666666" points="558.25,-39 457.5,-39 457.5,-19 558.25,-19 558.25,-39"/>
<text text-anchor="middle" x="507.88" y="-25.5" font-family="Helvetica,sans-Serif" font-size="10.00">Button::setHovered</text>
</a>
</g>
</g>
<!-- Node2 -->
<g id="Node000002" class="node">
<title>Node2</title>
<g id="a_Node000002"><a xlink:href="classGameManager.html#a6cea7fca5fecdd4f8a32912d4bfc233f" target="_top" xlink:title=" ">
<polygon fill="white" stroke="#666666" points="218,-39 73,-39 73,-19 218,-19 218,-39"/>
<text text-anchor="middle" x="145.5" y="-25.5" font-family="Helvetica,sans-Serif" font-size="10.00">GameManager::handleEvents</text>
</a>
</g>
</g>
<!-- Node1&#45;&gt;Node2 -->
<g id="edge1_Node000001_Node000002" class="edge">
<title>Node1&#45;&gt;Node2</title>
<g id="a_edge1_Node000001_Node000002"><a xlink:title=" ">
<path fill="none" stroke="#63b8ff" d="M445.83,-29C382.94,-29 284.98,-29 218.39,-29"/>
<polygon fill="#63b8ff" stroke="#63b8ff" points="445.63,-32.5 455.63,-29 445.63,-25.5 445.63,-32.5"/>
</a>
</g>
</g>
<!-- Node4 -->
<g id="Node000004" class="node">
<title>Node4</title>
<g id="a_Node000004"><a xlink:href="classGameManager.html#a5b552a66a8a65fe45e825cf49a736ab8" target="_top" xlink:title=" ">
<polygon fill="white" stroke="#666666" points="421.5,-20 254,-20 254,0 421.5,0 421.5,-20"/>
<text text-anchor="middle" x="337.75" y="-6.5" font-family="Helvetica,sans-Serif" font-size="10.00">GameManager::handleMouseMove</text>
</a>
</g>
</g>
<!-- Node1&#45;&gt;Node4 -->
<g id="edge3_Node000001_Node000004" class="edge">
<title>Node1&#45;&gt;Node4</title>
<g id="a_edge3_Node000001_Node000004"><a xlink:title=" ">
<path fill="none" stroke="#63b8ff" d="M446.1,-22.13C438.25,-21.24 430.12,-20.33 421.99,-19.41"/>
<polygon fill="#63b8ff" stroke="#63b8ff" points="445.51,-25.59 455.84,-23.23 446.29,-18.63 445.51,-25.59"/>
</a>
</g>
</g>
<!-- Node3 -->
<g id="Node000003" class="node">
<title>Node3</title>
<g id="a_Node000003"><a xlink:href="Client_2src_2main_8cpp.html#ae66f6b31b5ad750f1fe042a706a4e3d4" target="_top" xlink:title=" ">
<polygon fill="white" stroke="#666666" points="37,-39 0,-39 0,-19 37,-19 37,-39"/>
<text text-anchor="middle" x="18.5" y="-25.5" font-family="Helvetica,sans-Serif" font-size="10.00">main</text>
</a>
</g>
</g>
<!-- Node2&#45;&gt;Node3 -->
<g id="edge2_Node000002_Node000003" class="edge">
<title>Node2&#45;&gt;Node3</title>
<g id="a_edge2_Node000002_Node000003"><a xlink:title=" ">
<path fill="none" stroke="#63b8ff" d="M61.12,-29C52.34,-29 44.18,-29 37.46,-29"/>
<polygon fill="#63b8ff" stroke="#63b8ff" points="61,-32.5 71,-29 61,-25.5 61,-32.5"/>
</a>
</g>
</g>
<!-- Node4&#45;&gt;Node2 -->
<g id="edge4_Node000004_Node000002" class="edge">
<title>Node4&#45;&gt;Node2</title>
<g id="a_edge4_Node000004_Node000002"><a xlink:title=" ">
<path fill="none" stroke="#63b8ff" d="M242.29,-19.43C234.28,-20.23 226.27,-21.03 218.47,-21.81"/>
<polygon fill="#63b8ff" stroke="#63b8ff" points="242.47,-22.93 252.07,-18.46 241.78,-15.97 242.47,-22.93"/>
</a>
</g>
</g>
</g>
</svg>
