<?xml version="1.0" encoding="UTF-8" standalone="no"?>
<!DOCTYPE svg PUBLIC "-//W3C//DTD SVG 1.1//EN"
 "http://www.w3.org/Graphics/SVG/1.1/DTD/svg11.dtd">
<!-- Generated by graphviz version 12.1.0 (20240811.2233)
 -->
<!-- Title: Lobby::centerLogo Pages: 1 -->
<svg width="527pt" height="104pt"
 viewBox="0.00 0.00 526.50 104.00" xmlns="http://www.w3.org/2000/svg" xmlns:xlink="http://www.w3.org/1999/xlink">
<g id="graph0" class="graph" transform="scale(1 1) rotate(0) translate(4 100)">
<title>Lobby::centerLogo</title>
<!-- Node1 -->
<g id="Node000001" class="node">
<title>Node1</title>
<g id="a_Node000001"><a xlink:title=" ">
<polygon fill="#999999" stroke="#666666" points="518.5,-58 422.25,-58 422.25,-38 518.5,-38 518.5,-58"/>
<text text-anchor="middle" x="470.38" y="-44.5" font-family="Helvetica,sans-Serif" font-size="10.00">Lobby::centerLogo</text>
</a>
</g>
</g>
<!-- Node2 -->
<g id="Node000002" class="node">
<title>Node2</title>
<g id="a_Node000002"><a xlink:href="classLobby.html#a217b756fcf27fa04d6ec2b3fcb19247b" target="_top" xlink:title=" ">
<polygon fill="white" stroke="#666666" points="371.25,-96 269,-96 269,-76 371.25,-76 371.25,-96"/>
<text text-anchor="middle" x="320.12" y="-82.5" font-family="Helvetica,sans-Serif" font-size="10.00">Lobby::handleEvent</text>
</a>
</g>
</g>
<!-- Node1&#45;&gt;Node2 -->
<g id="edge1_Node000001_Node000002" class="edge">
<title>Node1&#45;&gt;Node2</title>
<g id="a_edge1_Node000001_Node000002"><a xlink:title=" ">
<path fill="none" stroke="#63b8ff" d="M417.43,-61.31C399.23,-65.98 379.05,-71.15 361.89,-75.55"/>
<polygon fill="#63b8ff" stroke="#63b8ff" points="418.19,-64.73 427.01,-58.86 416.45,-57.95 418.19,-64.73"/>
</a>
</g>
</g>
<!-- Node5 -->
<g id="Node000005" class="node">
<title>Node5</title>
<g id="a_Node000005"><a xlink:href="classLobby.html#a4ce4d0cf9a39ca35fb0edce98d231637" target="_top" xlink:title=" ">
<polygon fill="white" stroke="#666666" points="376.88,-58 263.38,-58 263.38,-38 376.88,-38 376.88,-58"/>
<text text-anchor="middle" x="320.12" y="-44.5" font-family="Helvetica,sans-Serif" font-size="10.00">Lobby::loadResources</text>
</a>
</g>
</g>
<!-- Node1&#45;&gt;Node5 -->
<g id="edge4_Node000001_Node000005" class="edge">
<title>Node1&#45;&gt;Node5</title>
<g id="a_edge4_Node000001_Node000005"><a xlink:title=" ">
<path fill="none" stroke="#63b8ff" d="M410.79,-48C399.76,-48 388.26,-48 377.31,-48"/>
<polygon fill="#63b8ff" stroke="#63b8ff" points="410.55,-51.5 420.55,-48 410.55,-44.5 410.55,-51.5"/>
</a>
</g>
</g>
<!-- Node6 -->
<g id="Node000006" class="node">
<title>Node6</title>
<g id="a_Node000006"><a xlink:href="classLobby.html#a84bbc8b09189dcf7ae97be42d6ef4351" target="_top" xlink:title=" ">
<polygon fill="white" stroke="#666666" points="386.25,-20 254,-20 254,0 386.25,0 386.25,-20"/>
<text text-anchor="middle" x="320.12" y="-6.5" font-family="Helvetica,sans-Serif" font-size="10.00">Lobby::updateWindowSize</text>
</a>
</g>
</g>
<!-- Node1&#45;&gt;Node6 -->
<g id="edge5_Node000001_Node000006" class="edge">
<title>Node1&#45;&gt;Node6</title>
<g id="a_edge5_Node000001_Node000006"><a xlink:title=" ">
<path fill="none" stroke="#63b8ff" d="M417.43,-34.69C399.23,-30.02 379.05,-24.85 361.89,-20.45"/>
<polygon fill="#63b8ff" stroke="#63b8ff" points="416.45,-38.05 427.01,-37.14 418.19,-31.27 416.45,-38.05"/>
</a>
</g>
</g>
<!-- Node3 -->
<g id="Node000003" class="node">
<title>Node3</title>
<g id="a_Node000003"><a xlink:href="classGameManager.html#a6cea7fca5fecdd4f8a32912d4bfc233f" target="_top" xlink:title=" ">
<polygon fill="white" stroke="#666666" points="218,-96 73,-96 73,-76 218,-76 218,-96"/>
<text text-anchor="middle" x="145.5" y="-82.5" font-family="Helvetica,sans-Serif" font-size="10.00">GameManager::handleEvents</text>
</a>
</g>
</g>
<!-- Node2&#45;&gt;Node3 -->
<g id="edge2_Node000002_Node000003" class="edge">
<title>Node2&#45;&gt;Node3</title>
<g id="a_edge2_Node000002_Node000003"><a xlink:title=" ">
<path fill="none" stroke="#63b8ff" d="M257.39,-86C244.77,-86 231.39,-86 218.44,-86"/>
<polygon fill="#63b8ff" stroke="#63b8ff" points="257.22,-89.5 267.22,-86 257.22,-82.5 257.22,-89.5"/>
</a>
</g>
</g>
<!-- Node4 -->
<g id="Node000004" class="node">
<title>Node4</title>
<g id="a_Node000004"><a xlink:href="Client_2src_2main_8cpp.html#ae66f6b31b5ad750f1fe042a706a4e3d4" target="_top" xlink:title=" ">
<polygon fill="white" stroke="#666666" points="37,-96 0,-96 0,-76 37,-76 37,-96"/>
<text text-anchor="middle" x="18.5" y="-82.5" font-family="Helvetica,sans-Serif" font-size="10.00">main</text>
</a>
</g>
</g>
<!-- Node3&#45;&gt;Node4 -->
<g id="edge3_Node000003_Node000004" class="edge">
<title>Node3&#45;&gt;Node4</title>
<g id="a_edge3_Node000003_Node000004"><a xlink:title=" ">
<path fill="none" stroke="#63b8ff" d="M61.12,-86C52.34,-86 44.18,-86 37.46,-86"/>
<polygon fill="#63b8ff" stroke="#63b8ff" points="61,-89.5 71,-86 61,-82.5 61,-89.5"/>
</a>
</g>
</g>
</g>
</svg>
