<?xml version="1.0" encoding="UTF-8" standalone="no"?>
<!DOCTYPE svg PUBLIC "-//W3C//DTD SVG 1.1//EN"
 "http://www.w3.org/Graphics/SVG/1.1/DTD/svg11.dtd">
<!-- Generated by graphviz version 12.1.0 (20240811.2233)
 -->
<!-- Title: Engine::Systems::SoundSystem Pages: 1 -->
<svg width="160pt" height="164pt"
 viewBox="0.00 0.00 160.00 164.00" xmlns="http://www.w3.org/2000/svg" xmlns:xlink="http://www.w3.org/1999/xlink">
<g id="graph0" class="graph" transform="scale(1 1) rotate(0) translate(4 160)">
<title>Engine::Systems::SoundSystem</title>
<!-- Node1 -->
<g id="Node000001" class="node">
<title>Node1</title>
<g id="a_Node000001"><a xlink:title=" ">
<polygon fill="#999999" stroke="none" points="152,-68 0,-68 0,0 152,0 152,-68"/>
<text text-anchor="start" x="4.75" y="-54.5" font-family="Helvetica,sans-Serif" font-size="10.00">Engine::Systems::SoundSystem</text>
<text text-anchor="start" x="26.5" y="-38.5" font-family="Helvetica,sans-Serif" font-size="10.00">&#45;</text>
<text text-anchor="start" x="56" y="-38.5" font-family="Helvetica,sans-Serif" font-size="10.00">sounds</text>
<text text-anchor="start" x="25" y="-22.5" font-family="Helvetica,sans-Serif" font-size="10.00">+</text>
<text text-anchor="start" x="56" y="-22.5" font-family="Helvetica,sans-Serif" font-size="10.00">addSound()</text>
<text text-anchor="start" x="25" y="-6.5" font-family="Helvetica,sans-Serif" font-size="10.00">+</text>
<text text-anchor="start" x="56" y="-6.5" font-family="Helvetica,sans-Serif" font-size="10.00">update()</text>
<polygon fill="#666666" stroke="#666666" points="0,-50 0,-50 152,-50 152,-50 0,-50"/>
<polygon fill="#666666" stroke="#666666" points="0,-34 0,-34 54,-34 54,-34 0,-34"/>
<polygon fill="#666666" stroke="#666666" points="54,-34 54,-34 152,-34 152,-34 54,-34"/>
<polygon fill="none" stroke="#666666" points="0,0 0,-68 152,-68 152,0 0,0"/>
</a>
</g>
</g>
<!-- Node2 -->
<g id="Node000002" class="node">
<title>Node2</title>
<g id="a_Node000002"><a xlink:href="classEngine_1_1System.html" target="_top" xlink:title=" ">
<polygon fill="white" stroke="none" points="115.5,-156 36.5,-156 36.5,-104 115.5,-104 115.5,-156"/>
<text text-anchor="start" x="41.12" y="-142.5" font-family="Helvetica,sans-Serif" font-size="10.00">Engine::System</text>
<text text-anchor="start" x="48" y="-126.5" font-family="Helvetica,sans-Serif" font-size="10.00">+</text>
<text text-anchor="start" x="65.5" y="-126.5" font-family="Helvetica,sans-Serif" font-size="10.00">entities</text>
<text text-anchor="start" x="74.5" y="-110.5" font-family="Helvetica,sans-Serif" font-size="10.00"> </text>
<polygon fill="#666666" stroke="#666666" points="36.5,-138 36.5,-138 115.5,-138 115.5,-138 36.5,-138"/>
<polygon fill="#666666" stroke="#666666" points="36.5,-122 36.5,-122 63.5,-122 63.5,-122 36.5,-122"/>
<polygon fill="#666666" stroke="#666666" points="63.5,-122 63.5,-122 115.5,-122 115.5,-122 63.5,-122"/>
<polygon fill="none" stroke="#666666" points="36.5,-104 36.5,-156 115.5,-156 115.5,-104 36.5,-104"/>
</a>
</g>
</g>
<!-- Node2&#45;&gt;Node1 -->
<g id="edge1_Node000001_Node000002" class="edge">
<title>Node2&#45;&gt;Node1</title>
<g id="a_edge1_Node000001_Node000002"><a xlink:title=" ">
<path fill="none" stroke="#63b8ff" d="M76,-92.97C76,-84.65 76,-75.84 76,-67.67"/>
<polygon fill="none" stroke="#63b8ff" points="72.5,-92.79 76,-102.79 79.5,-92.79 72.5,-92.79"/>
</a>
</g>
</g>
</g>
</svg>
