<?xml version="1.0" encoding="UTF-8" standalone="no"?>
<!DOCTYPE svg PUBLIC "-//W3C//DTD SVG 1.1//EN"
 "http://www.w3.org/Graphics/SVG/1.1/DTD/svg11.dtd">
<!-- Generated by graphviz version 12.1.0 (20240811.2233)
 -->
<!-- Title: Engine::Systems::RenderSystem Pages: 1 -->
<svg width="164pt" height="212pt"
 viewBox="0.00 0.00 164.00 212.00" xmlns="http://www.w3.org/2000/svg" xmlns:xlink="http://www.w3.org/1999/xlink">
<g id="graph0" class="graph" transform="scale(1 1) rotate(0) translate(4 208)">
<title>Engine::Systems::RenderSystem</title>
<!-- Node1 -->
<g id="Node000001" class="node">
<title>Node1</title>
<g id="a_Node000001"><a xlink:title=" ">
<polygon fill="#999999" stroke="none" points="156,-116 0,-116 0,0 156,0 156,-116"/>
<text text-anchor="start" x="4.88" y="-102.5" font-family="Helvetica,sans-Serif" font-size="10.00">Engine::Systems::RenderSystem</text>
<text text-anchor="start" x="17.5" y="-86.5" font-family="Helvetica,sans-Serif" font-size="10.00">&#45;</text>
<text text-anchor="start" x="38" y="-86.5" font-family="Helvetica,sans-Serif" font-size="10.00">sprites</text>
<text text-anchor="start" x="17.5" y="-70.5" font-family="Helvetica,sans-Serif" font-size="10.00">&#45;</text>
<text text-anchor="start" x="38" y="-70.5" font-family="Helvetica,sans-Serif" font-size="10.00">spriteScrollPositions</text>
<text text-anchor="start" x="16" y="-54.5" font-family="Helvetica,sans-Serif" font-size="10.00">+</text>
<text text-anchor="start" x="38" y="-54.5" font-family="Helvetica,sans-Serif" font-size="10.00">addTexture()</text>
<text text-anchor="start" x="16" y="-38.5" font-family="Helvetica,sans-Serif" font-size="10.00">+</text>
<text text-anchor="start" x="38" y="-38.5" font-family="Helvetica,sans-Serif" font-size="10.00">addSprite()</text>
<text text-anchor="start" x="16" y="-22.5" font-family="Helvetica,sans-Serif" font-size="10.00">+</text>
<text text-anchor="start" x="38" y="-22.5" font-family="Helvetica,sans-Serif" font-size="10.00">drawSprite()</text>
<text text-anchor="start" x="16" y="-6.5" font-family="Helvetica,sans-Serif" font-size="10.00">+</text>
<text text-anchor="start" x="38" y="-6.5" font-family="Helvetica,sans-Serif" font-size="10.00">update()</text>
<polygon fill="#666666" stroke="#666666" points="0,-98 0,-98 156,-98 156,-98 0,-98"/>
<polygon fill="#666666" stroke="#666666" points="0,-66 0,-66 36,-66 36,-66 0,-66"/>
<polygon fill="#666666" stroke="#666666" points="36,-66 36,-66 156,-66 156,-66 36,-66"/>
<polygon fill="none" stroke="#666666" points="0,0 0,-116 156,-116 156,0 0,0"/>
</a>
</g>
</g>
<!-- Node2 -->
<g id="Node000002" class="node">
<title>Node2</title>
<g id="a_Node000002"><a xlink:href="classEngine_1_1System.html" target="_top" xlink:title=" ">
<polygon fill="white" stroke="none" points="117.5,-204 38.5,-204 38.5,-152 117.5,-152 117.5,-204"/>
<text text-anchor="start" x="43.12" y="-190.5" font-family="Helvetica,sans-Serif" font-size="10.00">Engine::System</text>
<text text-anchor="start" x="50" y="-174.5" font-family="Helvetica,sans-Serif" font-size="10.00">+</text>
<text text-anchor="start" x="67.5" y="-174.5" font-family="Helvetica,sans-Serif" font-size="10.00">entities</text>
<text text-anchor="start" x="76.5" y="-158.5" font-family="Helvetica,sans-Serif" font-size="10.00"> </text>
<polygon fill="#666666" stroke="#666666" points="38.5,-186 38.5,-186 117.5,-186 117.5,-186 38.5,-186"/>
<polygon fill="#666666" stroke="#666666" points="38.5,-170 38.5,-170 65.5,-170 65.5,-170 38.5,-170"/>
<polygon fill="#666666" stroke="#666666" points="65.5,-170 65.5,-170 117.5,-170 117.5,-170 65.5,-170"/>
<polygon fill="none" stroke="#666666" points="38.5,-152 38.5,-204 117.5,-204 117.5,-152 38.5,-152"/>
</a>
</g>
</g>
<!-- Node2&#45;&gt;Node1 -->
<g id="edge1_Node000001_Node000002" class="edge">
<title>Node2&#45;&gt;Node1</title>
<g id="a_edge1_Node000001_Node000002"><a xlink:title=" ">
<path fill="none" stroke="#63b8ff" d="M78,-140.82C78,-132.89 78,-124.31 78,-115.79"/>
<polygon fill="none" stroke="#63b8ff" points="74.5,-140.75 78,-150.75 81.5,-140.75 74.5,-140.75"/>
</a>
</g>
</g>
</g>
</svg>
