<?xml version="1.0" encoding="UTF-8" standalone="no"?>
<!DOCTYPE svg PUBLIC "-//W3C//DTD SVG 1.1//EN"
 "http://www.w3.org/Graphics/SVG/1.1/DTD/svg11.dtd">
<!-- Generated by graphviz version 12.1.0 (20240811.2233)
 -->
<!-- Title: Locker::centerLogo Pages: 1 -->
<svg width="279pt" height="104pt"
 viewBox="0.00 0.00 278.50 104.00" xmlns="http://www.w3.org/2000/svg" xmlns:xlink="http://www.w3.org/1999/xlink">
<g id="graph0" class="graph" transform="scale(1 1) rotate(0) translate(4 100)">
<title>Locker::centerLogo</title>
<!-- Node1 -->
<g id="Node000001" class="node">
<title>Node1</title>
<g id="a_Node000001"><a xlink:title=" ">
<polygon fill="#999999" stroke="#666666" points="270.5,-58 171.25,-58 171.25,-38 270.5,-38 270.5,-58"/>
<text text-anchor="middle" x="220.88" y="-44.5" font-family="Helvetica,sans-Serif" font-size="10.00">Locker::centerLogo</text>
</a>
</g>
</g>
<!-- Node2 -->
<g id="Node000002" class="node">
<title>Node2</title>
<g id="a_Node000002"><a xlink:href="classLocker.html#a33e81af9b3981d06f3e7735b8d04bd45" target="_top" xlink:title=" ">
<polygon fill="white" stroke="#666666" points="120.25,-96 15,-96 15,-76 120.25,-76 120.25,-96"/>
<text text-anchor="middle" x="67.62" y="-82.5" font-family="Helvetica,sans-Serif" font-size="10.00">Locker::handleEvent</text>
</a>
</g>
</g>
<!-- Node1&#45;&gt;Node2 -->
<g id="edge1_Node000001_Node000002" class="edge">
<title>Node1&#45;&gt;Node2</title>
<g id="a_edge1_Node000001_Node000002"><a xlink:title=" ">
<path fill="none" stroke="#63b8ff" d="M167.15,-61.25C148.5,-65.93 127.81,-71.13 110.22,-75.55"/>
<polygon fill="#63b8ff" stroke="#63b8ff" points="167.83,-64.68 176.68,-58.85 166.13,-57.9 167.83,-64.68"/>
</a>
</g>
</g>
<!-- Node3 -->
<g id="Node000003" class="node">
<title>Node3</title>
<g id="a_Node000003"><a xlink:href="classLocker.html#a80b6ab84ceaf82eeb8bd87114fde0235" target="_top" xlink:title=" ">
<polygon fill="white" stroke="#666666" points="125.88,-58 9.38,-58 9.38,-38 125.88,-38 125.88,-58"/>
<text text-anchor="middle" x="67.62" y="-44.5" font-family="Helvetica,sans-Serif" font-size="10.00">Locker::loadResources</text>
</a>
</g>
</g>
<!-- Node1&#45;&gt;Node3 -->
<g id="edge2_Node000001_Node000003" class="edge">
<title>Node1&#45;&gt;Node3</title>
<g id="a_edge2_Node000001_Node000003"><a xlink:title=" ">
<path fill="none" stroke="#63b8ff" d="M159.52,-48C148.52,-48 137.08,-48 126.17,-48"/>
<polygon fill="#63b8ff" stroke="#63b8ff" points="159.25,-51.5 169.25,-48 159.25,-44.5 159.25,-51.5"/>
</a>
</g>
</g>
<!-- Node4 -->
<g id="Node000004" class="node">
<title>Node4</title>
<g id="a_Node000004"><a xlink:href="classLocker.html#a209be1baf1d8c5115ef6a2cf7f9cc322" target="_top" xlink:title=" ">
<polygon fill="white" stroke="#666666" points="135.25,-20 0,-20 0,0 135.25,0 135.25,-20"/>
<text text-anchor="middle" x="67.62" y="-6.5" font-family="Helvetica,sans-Serif" font-size="10.00">Locker::updateWindowSize</text>
</a>
</g>
</g>
<!-- Node1&#45;&gt;Node4 -->
<g id="edge3_Node000001_Node000004" class="edge">
<title>Node1&#45;&gt;Node4</title>
<g id="a_edge3_Node000001_Node000004"><a xlink:title=" ">
<path fill="none" stroke="#63b8ff" d="M167.15,-34.75C148.5,-30.07 127.81,-24.87 110.22,-20.45"/>
<polygon fill="#63b8ff" stroke="#63b8ff" points="166.13,-38.1 176.68,-37.15 167.83,-31.32 166.13,-38.1"/>
</a>
</g>
</g>
</g>
</svg>
