<?xml version="1.0" encoding="UTF-8" standalone="no"?>
<!DOCTYPE svg PUBLIC "-//W3C//DTD SVG 1.1//EN"
 "http://www.w3.org/Graphics/SVG/1.1/DTD/svg11.dtd">
<!-- Generated by graphviz version 12.1.0 (20240811.2233)
 -->
<!-- Title: Parameters::applyColorBlindFilter Pages: 1 -->
<svg width="707pt" height="66pt"
 viewBox="0.00 0.00 706.75 66.00" xmlns="http://www.w3.org/2000/svg" xmlns:xlink="http://www.w3.org/1999/xlink">
<g id="graph0" class="graph" transform="scale(1 1) rotate(0) translate(4 62)">
<title>Parameters::applyColorBlindFilter</title>
<!-- Node1 -->
<g id="Node000001" class="node">
<title>Node1</title>
<g id="a_Node000001"><a xlink:title=" ">
<polygon fill="#999999" stroke="#666666" points="698.75,-45 558.25,-45 558.25,-13 698.75,-13 698.75,-45"/>
<text text-anchor="start" x="566.25" y="-31.5" font-family="Helvetica,sans-Serif" font-size="10.00">Parameters::applyColorBlind</text>
<text text-anchor="middle" x="628.5" y="-19.5" font-family="Helvetica,sans-Serif" font-size="10.00">Filter</text>
</a>
</g>
</g>
<!-- Node2 -->
<g id="Node000002" class="node">
<title>Node2</title>
<g id="a_Node000002"><a xlink:href="classParameters.html#a3861a3375a9e31e5ce06d0e71a0bf1ab" target="_top" xlink:title=" ">
<polygon fill="white" stroke="#666666" points="326.25,-58 233,-58 233,-38 326.25,-38 326.25,-58"/>
<text text-anchor="middle" x="279.62" y="-44.5" font-family="Helvetica,sans-Serif" font-size="10.00">Parameters::draw</text>
</a>
</g>
</g>
<!-- Node1&#45;&gt;Node2 -->
<g id="edge1_Node000001_Node000002" class="edge">
<title>Node1&#45;&gt;Node2</title>
<g id="a_edge1_Node000001_Node000002"><a xlink:title=" ">
<path fill="none" stroke="#63b8ff" d="M546.98,-33.41C478.54,-37.16 382.73,-42.41 326.63,-45.48"/>
<polygon fill="#63b8ff" stroke="#63b8ff" points="546.83,-36.92 556.63,-32.88 546.45,-29.93 546.83,-36.92"/>
</a>
</g>
</g>
<!-- Node5 -->
<g id="Node000005" class="node">
<title>Node5</title>
<g id="a_Node000005"><a xlink:href="classParticleSystem.html#abdef4bdd9875aef1b3224cfd3919111c" target="_top" xlink:title=" ">
<polygon fill="white" stroke="#666666" points="522.25,-20 373.5,-20 373.5,0 522.25,0 522.25,-20"/>
<text text-anchor="middle" x="447.88" y="-6.5" font-family="Helvetica,sans-Serif" font-size="10.00">ParticleSystem::renderParticle</text>
</a>
</g>
</g>
<!-- Node1&#45;&gt;Node5 -->
<g id="edge4_Node000001_Node000005" class="edge">
<title>Node1&#45;&gt;Node5</title>
<g id="a_edge4_Node000001_Node000005"><a xlink:title=" ">
<path fill="none" stroke="#63b8ff" d="M546.7,-20.41C538.7,-19.55 530.61,-18.69 522.68,-17.85"/>
<polygon fill="#63b8ff" stroke="#63b8ff" points="546.11,-23.86 556.42,-21.44 546.85,-16.9 546.11,-23.86"/>
</a>
</g>
</g>
<!-- Node3 -->
<g id="Node000003" class="node">
<title>Node3</title>
<g id="a_Node000003"><a xlink:href="classGameManager.html#a932e6df46aa4d397f8f5d61f3c137bbd" target="_top" xlink:title=" ">
<polygon fill="white" stroke="#666666" points="185.75,-39 73,-39 73,-19 185.75,-19 185.75,-39"/>
<text text-anchor="middle" x="129.38" y="-25.5" font-family="Helvetica,sans-Serif" font-size="10.00">GameManager::render</text>
</a>
</g>
</g>
<!-- Node2&#45;&gt;Node3 -->
<g id="edge2_Node000002_Node000003" class="edge">
<title>Node2&#45;&gt;Node3</title>
<g id="a_edge2_Node000002_Node000003"><a xlink:title=" ">
<path fill="none" stroke="#63b8ff" d="M221.22,-40.64C209.68,-39.16 197.57,-37.61 186.08,-36.14"/>
<polygon fill="#63b8ff" stroke="#63b8ff" points="220.67,-44.1 231.03,-41.9 221.56,-37.16 220.67,-44.1"/>
</a>
</g>
</g>
<!-- Node4 -->
<g id="Node000004" class="node">
<title>Node4</title>
<g id="a_Node000004"><a xlink:href="Client_2src_2main_8cpp.html#ae66f6b31b5ad750f1fe042a706a4e3d4" target="_top" xlink:title=" ">
<polygon fill="white" stroke="#666666" points="37,-39 0,-39 0,-19 37,-19 37,-39"/>
<text text-anchor="middle" x="18.5" y="-25.5" font-family="Helvetica,sans-Serif" font-size="10.00">main</text>
</a>
</g>
</g>
<!-- Node3&#45;&gt;Node4 -->
<g id="edge3_Node000003_Node000004" class="edge">
<title>Node3&#45;&gt;Node4</title>
<g id="a_edge3_Node000003_Node000004"><a xlink:title=" ">
<path fill="none" stroke="#63b8ff" d="M61.39,-29C52.63,-29 44.32,-29 37.46,-29"/>
<polygon fill="#63b8ff" stroke="#63b8ff" points="61.15,-32.5 71.15,-29 61.15,-25.5 61.15,-32.5"/>
</a>
</g>
</g>
<!-- Node6 -->
<g id="Node000006" class="node">
<title>Node6</title>
<g id="a_Node000006"><a xlink:href="classParticleSystem.html#abe33b51ab04720074de064406a3f20df" target="_top" xlink:title=" ">
<polygon fill="white" stroke="#666666" points="337.5,-20 221.75,-20 221.75,0 337.5,0 337.5,-20"/>
<text text-anchor="middle" x="279.62" y="-6.5" font-family="Helvetica,sans-Serif" font-size="10.00">ParticleSystem::render</text>
</a>
</g>
</g>
<!-- Node5&#45;&gt;Node6 -->
<g id="edge5_Node000005_Node000006" class="edge">
<title>Node5&#45;&gt;Node6</title>
<g id="a_edge5_Node000005_Node000006"><a xlink:title=" ">
<path fill="none" stroke="#63b8ff" d="M361.97,-10C353.82,-10 345.7,-10 337.91,-10"/>
<polygon fill="#63b8ff" stroke="#63b8ff" points="361.96,-13.5 371.96,-10 361.96,-6.5 361.96,-13.5"/>
</a>
</g>
</g>
<!-- Node6&#45;&gt;Node3 -->
<g id="edge6_Node000006_Node000003" class="edge">
<title>Node6&#45;&gt;Node3</title>
<g id="a_edge6_Node000006_Node000003"><a xlink:title=" ">
<path fill="none" stroke="#63b8ff" d="M210.05,-18.79C202.02,-19.82 193.9,-20.86 186.08,-21.86"/>
<polygon fill="#63b8ff" stroke="#63b8ff" points="210.33,-22.28 219.81,-17.54 209.44,-15.34 210.33,-22.28"/>
</a>
</g>
</g>
</g>
</svg>
