<?xml version="1.0" encoding="UTF-8" standalone="no"?>
<!DOCTYPE svg PUBLIC "-//W3C//DTD SVG 1.1//EN"
 "http://www.w3.org/Graphics/SVG/1.1/DTD/svg11.dtd">
<!-- Generated by graphviz version 12.1.0 (20240811.2233)
 -->
<!-- Title: Leaderboard::drawRoundedRectangle Pages: 1 -->
<svg width="497pt" height="40pt"
 viewBox="0.00 0.00 497.25 40.00" xmlns="http://www.w3.org/2000/svg" xmlns:xlink="http://www.w3.org/1999/xlink">
<g id="graph0" class="graph" transform="scale(1 1) rotate(0) translate(4 36)">
<title>Leaderboard::drawRoundedRectangle</title>
<!-- Node1 -->
<g id="Node000001" class="node">
<title>Node1</title>
<g id="a_Node000001"><a xlink:title=" ">
<polygon fill="#999999" stroke="#666666" points="489.25,-32 354,-32 354,0 489.25,0 489.25,-32"/>
<text text-anchor="start" x="362" y="-18.5" font-family="Helvetica,sans-Serif" font-size="10.00">Leaderboard::drawRounded</text>
<text text-anchor="middle" x="421.62" y="-6.5" font-family="Helvetica,sans-Serif" font-size="10.00">Rectangle</text>
</a>
</g>
</g>
<!-- Node2 -->
<g id="Node000002" class="node">
<title>Node2</title>
<g id="a_Node000002"><a xlink:href="classLeaderboard.html#aa3449b4264a01f9c000386149aef6490" target="_top" xlink:title=" ">
<polygon fill="white" stroke="#666666" points="318,-26 221.75,-26 221.75,-6 318,-6 318,-26"/>
<text text-anchor="middle" x="269.88" y="-12.5" font-family="Helvetica,sans-Serif" font-size="10.00">Leaderboard::draw</text>
</a>
</g>
</g>
<!-- Node1&#45;&gt;Node2 -->
<g id="edge1_Node000001_Node000002" class="edge">
<title>Node1&#45;&gt;Node2</title>
<g id="a_edge1_Node000001_Node000002"><a xlink:title=" ">
<path fill="none" stroke="#63b8ff" d="M342.35,-16C334.07,-16 325.85,-16 318.09,-16"/>
<polygon fill="#63b8ff" stroke="#63b8ff" points="342.12,-19.5 352.12,-16 342.12,-12.5 342.12,-19.5"/>
</a>
</g>
</g>
<!-- Node3 -->
<g id="Node000003" class="node">
<title>Node3</title>
<g id="a_Node000003"><a xlink:href="classGameManager.html#a932e6df46aa4d397f8f5d61f3c137bbd" target="_top" xlink:title=" ">
<polygon fill="white" stroke="#666666" points="185.75,-26 73,-26 73,-6 185.75,-6 185.75,-26"/>
<text text-anchor="middle" x="129.38" y="-12.5" font-family="Helvetica,sans-Serif" font-size="10.00">GameManager::render</text>
</a>
</g>
</g>
<!-- Node2&#45;&gt;Node3 -->
<g id="edge2_Node000002_Node000003" class="edge">
<title>Node2&#45;&gt;Node3</title>
<g id="a_edge2_Node000002_Node000003"><a xlink:title=" ">
<path fill="none" stroke="#63b8ff" d="M210.1,-16C202.12,-16 193.96,-16 186.04,-16"/>
<polygon fill="#63b8ff" stroke="#63b8ff" points="210.09,-19.5 220.08,-16 210.08,-12.5 210.09,-19.5"/>
</a>
</g>
</g>
<!-- Node4 -->
<g id="Node000004" class="node">
<title>Node4</title>
<g id="a_Node000004"><a xlink:href="Client_2src_2main_8cpp.html#ae66f6b31b5ad750f1fe042a706a4e3d4" target="_top" xlink:title=" ">
<polygon fill="white" stroke="#666666" points="37,-26 0,-26 0,-6 37,-6 37,-26"/>
<text text-anchor="middle" x="18.5" y="-12.5" font-family="Helvetica,sans-Serif" font-size="10.00">main</text>
</a>
</g>
</g>
<!-- Node3&#45;&gt;Node4 -->
<g id="edge3_Node000003_Node000004" class="edge">
<title>Node3&#45;&gt;Node4</title>
<g id="a_edge3_Node000003_Node000004"><a xlink:title=" ">
<path fill="none" stroke="#63b8ff" d="M61.39,-16C52.63,-16 44.32,-16 37.46,-16"/>
<polygon fill="#63b8ff" stroke="#63b8ff" points="61.15,-19.5 71.15,-16 61.15,-12.5 61.15,-19.5"/>
</a>
</g>
</g>
</g>
</svg>
