<?xml version="1.0" encoding="UTF-8" standalone="no"?>
<!DOCTYPE svg PUBLIC "-//W3C//DTD SVG 1.1//EN"
 "http://www.w3.org/Graphics/SVG/1.1/DTD/svg11.dtd">
<!-- Generated by graphviz version 12.1.0 (20240811.2233)
 -->
<!-- Title: ClientSession.hpp Pages: 1 -->
<svg width="280pt" height="84pt"
 viewBox="0.00 0.00 279.50 84.00" xmlns="http://www.w3.org/2000/svg" xmlns:xlink="http://www.w3.org/1999/xlink">
<g id="graph0" class="graph" transform="scale(1 1) rotate(0) translate(4 80)">
<title>ClientSession.hpp</title>
<!-- Node1 -->
<g id="Node000001" class="node">
<title>Node1</title>
<g id="a_Node000001"><a xlink:title=" ">
<polygon fill="#999999" stroke="#666666" points="203.62,-76 108.12,-76 108.12,-56 203.62,-56 203.62,-76"/>
<text text-anchor="middle" x="155.88" y="-62.5" font-family="Helvetica,sans-Serif" font-size="10.00">ClientSession.hpp</text>
</a>
</g>
</g>
<!-- Node2 -->
<g id="Node000002" class="node">
<title>Node2</title>
<g id="a_Node000002"><a xlink:title=" ">
<polygon fill="#e0e0e0" stroke="#999999" points="79.75,-20 0,-20 0,0 79.75,0 79.75,-20"/>
<text text-anchor="middle" x="39.88" y="-6.5" font-family="Helvetica,sans-Serif" font-size="10.00">boost/asio.hpp</text>
</a>
</g>
</g>
<!-- Node1&#45;&gt;Node2 -->
<g id="edge1_Node000001_Node000002" class="edge">
<title>Node1&#45;&gt;Node2</title>
<g id="a_edge1_Node000001_Node000002"><a xlink:title=" ">
<path fill="none" stroke="#63b8ff" d="M135.67,-55.59C117.65,-47.21 91.01,-34.8 70.39,-25.21"/>
<polygon fill="#63b8ff" stroke="#63b8ff" points="72.15,-22.17 61.61,-21.12 69.2,-28.51 72.15,-22.17"/>
</a>
</g>
</g>
<!-- Node3 -->
<g id="Node000003" class="node">
<title>Node3</title>
<g id="a_Node000003"><a xlink:title=" ">
<polygon fill="#e0e0e0" stroke="#999999" points="149.5,-20 98.25,-20 98.25,0 149.5,0 149.5,-20"/>
<text text-anchor="middle" x="123.88" y="-6.5" font-family="Helvetica,sans-Serif" font-size="10.00">memory</text>
</a>
</g>
</g>
<!-- Node1&#45;&gt;Node3 -->
<g id="edge2_Node000001_Node000003" class="edge">
<title>Node1&#45;&gt;Node3</title>
<g id="a_edge2_Node000001_Node000003"><a xlink:title=" ">
<path fill="none" stroke="#63b8ff" d="M150.3,-55.59C146.13,-48.55 140.27,-38.67 135.13,-30"/>
<polygon fill="#63b8ff" stroke="#63b8ff" points="138.27,-28.42 130.16,-21.6 132.24,-31.99 138.27,-28.42"/>
</a>
</g>
</g>
<!-- Node4 -->
<g id="Node000004" class="node">
<title>Node4</title>
<g id="a_Node000004"><a xlink:title=" ">
<polygon fill="#e0e0e0" stroke="#999999" points="207.88,-20 167.88,-20 167.88,0 207.88,0 207.88,-20"/>
<text text-anchor="middle" x="187.88" y="-6.5" font-family="Helvetica,sans-Serif" font-size="10.00">string</text>
</a>
</g>
</g>
<!-- Node1&#45;&gt;Node4 -->
<g id="edge3_Node000001_Node000004" class="edge">
<title>Node1&#45;&gt;Node4</title>
<g id="a_edge3_Node000001_Node000004"><a xlink:title=" ">
<path fill="none" stroke="#63b8ff" d="M161.45,-55.59C165.62,-48.55 171.48,-38.67 176.62,-30"/>
<polygon fill="#63b8ff" stroke="#63b8ff" points="179.51,-31.99 181.59,-21.6 173.48,-28.42 179.51,-31.99"/>
</a>
</g>
</g>
<!-- Node5 -->
<g id="Node000005" class="node">
<title>Node5</title>
<g id="a_Node000005"><a xlink:title=" ">
<polygon fill="#e0e0e0" stroke="#999999" points="271.5,-20 226.25,-20 226.25,0 271.5,0 271.5,-20"/>
<text text-anchor="middle" x="248.88" y="-6.5" font-family="Helvetica,sans-Serif" font-size="10.00">chrono</text>
</a>
</g>
</g>
<!-- Node1&#45;&gt;Node5 -->
<g id="edge4_Node000001_Node000005" class="edge">
<title>Node1&#45;&gt;Node5</title>
<g id="a_edge4_Node000001_Node000005"><a xlink:title=" ">
<path fill="none" stroke="#63b8ff" d="M172.07,-55.59C186.12,-47.44 206.71,-35.48 223.03,-26"/>
<polygon fill="#63b8ff" stroke="#63b8ff" points="224.35,-29.29 231.24,-21.24 220.83,-23.23 224.35,-29.29"/>
</a>
</g>
</g>
</g>
</svg>
