<?xml version="1.0" encoding="UTF-8" standalone="no"?>
<!DOCTYPE svg PUBLIC "-//W3C//DTD SVG 1.1//EN"
 "http://www.w3.org/Graphics/SVG/1.1/DTD/svg11.dtd">
<!-- Generated by graphviz version 12.1.0 (20240811.2233)
 -->
<!-- Title: Protocol.hpp Pages: 1 -->
<svg width="255pt" height="196pt"
 viewBox="0.00 0.00 255.12 196.00" xmlns="http://www.w3.org/2000/svg" xmlns:xlink="http://www.w3.org/1999/xlink">
<g id="graph0" class="graph" transform="scale(1 1) rotate(0) translate(4 192)">
<title>Protocol.hpp</title>
<!-- Node1 -->
<g id="Node000001" class="node">
<title>Node1</title>
<g id="a_Node000001"><a xlink:title=" ">
<polygon fill="#999999" stroke="#666666" points="162,-188 91.25,-188 91.25,-168 162,-168 162,-188"/>
<text text-anchor="middle" x="126.62" y="-174.5" font-family="Helvetica,sans-Serif" font-size="10.00">Protocol.hpp</text>
</a>
</g>
</g>
<!-- Node2 -->
<g id="Node000002" class="node">
<title>Node2</title>
<g id="a_Node000002"><a xlink:href="GameTypes_8hpp.html" target="_top" xlink:title=" ">
<polygon fill="white" stroke="#666666" points="132.25,-76 45,-76 45,-56 132.25,-56 132.25,-76"/>
<text text-anchor="middle" x="88.62" y="-62.5" font-family="Helvetica,sans-Serif" font-size="10.00">GameTypes.hpp</text>
</a>
</g>
</g>
<!-- Node1&#45;&gt;Node2 -->
<g id="edge1_Node000001_Node000002" class="edge">
<title>Node1&#45;&gt;Node2</title>
<g id="a_edge1_Node000001_Node000002"><a xlink:title=" ">
<path fill="none" stroke="#63b8ff" d="M118.29,-157.18C115.12,-149.38 111.57,-140.32 108.62,-132 101.7,-112.41 94.85,-89.03 91.24,-76.34"/>
<polygon fill="#63b8ff" stroke="#63b8ff" points="115.04,-158.48 122.1,-166.38 121.51,-155.8 115.04,-158.48"/>
</a>
</g>
</g>
<!-- Node5 -->
<g id="Node000005" class="node">
<title>Node5</title>
<g id="a_Node000005"><a xlink:href="NetworkClient_8hpp.html" target="_top" xlink:title=" ">
<polygon fill="white" stroke="#666666" points="214.12,-132 117.12,-132 117.12,-112 214.12,-112 214.12,-132"/>
<text text-anchor="middle" x="165.62" y="-118.5" font-family="Helvetica,sans-Serif" font-size="10.00">NetworkClient.hpp</text>
</a>
</g>
</g>
<!-- Node1&#45;&gt;Node5 -->
<g id="edge4_Node000001_Node000005" class="edge">
<title>Node1&#45;&gt;Node5</title>
<g id="a_edge4_Node000001_Node000005"><a xlink:title=" ">
<path fill="none" stroke="#63b8ff" d="M140.03,-158.44C146.4,-149.62 153.73,-139.47 158.91,-132.3"/>
<polygon fill="#63b8ff" stroke="#63b8ff" points="137.32,-156.21 134.3,-166.37 143,-160.31 137.32,-156.21"/>
</a>
</g>
</g>
<!-- Node3 -->
<g id="Node000003" class="node">
<title>Node3</title>
<g id="a_Node000003"><a xlink:href="GameTypes_8cpp.html" target="_top" xlink:title=" ">
<polygon fill="white" stroke="#666666" points="87.25,-20 0,-20 0,0 87.25,0 87.25,-20"/>
<text text-anchor="middle" x="43.62" y="-6.5" font-family="Helvetica,sans-Serif" font-size="10.00">GameTypes.cpp</text>
</a>
</g>
</g>
<!-- Node2&#45;&gt;Node3 -->
<g id="edge2_Node000002_Node000003" class="edge">
<title>Node2&#45;&gt;Node3</title>
<g id="a_edge2_Node000002_Node000003"><a xlink:title=" ">
<path fill="none" stroke="#63b8ff" d="M73.63,-47C66.17,-38.06 57.48,-27.62 51.37,-20.3"/>
<polygon fill="#63b8ff" stroke="#63b8ff" points="70.73,-48.99 79.82,-54.43 76.1,-44.51 70.73,-48.99"/>
</a>
</g>
</g>
<!-- Node4 -->
<g id="Node000004" class="node">
<title>Node4</title>
<g id="a_Node000004"><a xlink:href="Client_2src_2main_8cpp.html" target="_top" xlink:title=" ">
<polygon fill="white" stroke="#666666" points="161.5,-20 105.75,-20 105.75,0 161.5,0 161.5,-20"/>
<text text-anchor="middle" x="133.62" y="-6.5" font-family="Helvetica,sans-Serif" font-size="10.00">main.cpp</text>
</a>
</g>
</g>
<!-- Node2&#45;&gt;Node4 -->
<g id="edge3_Node000002_Node000004" class="edge">
<title>Node2&#45;&gt;Node4</title>
<g id="a_edge3_Node000002_Node000004"><a xlink:title=" ">
<path fill="none" stroke="#63b8ff" d="M103.62,-47C111.08,-38.06 119.77,-27.62 125.88,-20.3"/>
<polygon fill="#63b8ff" stroke="#63b8ff" points="101.15,-44.51 97.43,-54.43 106.52,-48.99 101.15,-44.51"/>
</a>
</g>
</g>
<!-- Node5&#45;&gt;Node2 -->
<g id="edge5_Node000005_Node000002" class="edge">
<title>Node5&#45;&gt;Node2</title>
<g id="a_edge5_Node000005_Node000002"><a xlink:title=" ">
<path fill="none" stroke="#63b8ff" d="M142.81,-105C129.58,-95.72 113.37,-84.35 102.14,-76.48"/>
<polygon fill="#63b8ff" stroke="#63b8ff" points="140.78,-107.85 150.97,-110.72 144.8,-102.12 140.78,-107.85"/>
</a>
</g>
</g>
<!-- Node6 -->
<g id="Node000006" class="node">
<title>Node6</title>
<g id="a_Node000006"><a xlink:href="NetworkClient_8cpp.html" target="_top" xlink:title=" ">
<polygon fill="white" stroke="#666666" points="247.12,-76 150.12,-76 150.12,-56 247.12,-56 247.12,-76"/>
<text text-anchor="middle" x="198.62" y="-62.5" font-family="Helvetica,sans-Serif" font-size="10.00">NetworkClient.cpp</text>
</a>
</g>
</g>
<!-- Node5&#45;&gt;Node6 -->
<g id="edge6_Node000005_Node000006" class="edge">
<title>Node5&#45;&gt;Node6</title>
<g id="a_edge6_Node000005_Node000006"><a xlink:title=" ">
<path fill="none" stroke="#63b8ff" d="M177.32,-101.87C182.62,-93.19 188.65,-83.32 192.94,-76.3"/>
<polygon fill="#63b8ff" stroke="#63b8ff" points="174.39,-99.94 172.16,-110.3 180.36,-103.59 174.39,-99.94"/>
</a>
</g>
</g>
</g>
</svg>
