<?xml version="1.0" encoding="UTF-8" standalone="no"?>
<!DOCTYPE svg PUBLIC "-//W3C//DTD SVG 1.1//EN"
 "http://www.w3.org/Graphics/SVG/1.1/DTD/svg11.dtd">
<!-- Generated by graphviz version 12.1.0 (20240811.2233)
 -->
<!-- Title: ClientSession.hpp Pages: 1 -->
<svg width="361pt" height="252pt"
 viewBox="0.00 0.00 361.12 252.00" xmlns="http://www.w3.org/2000/svg" xmlns:xlink="http://www.w3.org/1999/xlink">
<g id="graph0" class="graph" transform="scale(1 1) rotate(0) translate(4 248)">
<title>ClientSession.hpp</title>
<!-- Node1 -->
<g id="Node000001" class="node">
<title>Node1</title>
<g id="a_Node000001"><a xlink:title=" ">
<polygon fill="#999999" stroke="#666666" points="234.25,-244 138.75,-244 138.75,-224 234.25,-224 234.25,-244"/>
<text text-anchor="middle" x="186.5" y="-230.5" font-family="Helvetica,sans-Serif" font-size="10.00">ClientSession.hpp</text>
</a>
</g>
</g>
<!-- Node2 -->
<g id="Node000002" class="node">
<title>Node2</title>
<g id="a_Node000002"><a xlink:href="Room_8hpp.html" target="_top" xlink:title=" ">
<polygon fill="white" stroke="#666666" points="142,-188 81,-188 81,-168 142,-168 142,-188"/>
<text text-anchor="middle" x="111.5" y="-174.5" font-family="Helvetica,sans-Serif" font-size="10.00">Room.hpp</text>
</a>
</g>
</g>
<!-- Node1&#45;&gt;Node2 -->
<g id="edge1_Node000001_Node000002" class="edge">
<title>Node1&#45;&gt;Node2</title>
<g id="a_edge1_Node000001_Node000002"><a xlink:title=" ">
<path fill="none" stroke="#63b8ff" d="M164.28,-217C151.39,-207.72 135.6,-196.35 124.67,-188.48"/>
<polygon fill="#63b8ff" stroke="#63b8ff" points="162.05,-219.71 172.21,-222.71 166.14,-214.03 162.05,-219.71"/>
</a>
</g>
</g>
<!-- Node7 -->
<g id="Node000007" class="node">
<title>Node7</title>
<g id="a_Node000007"><a xlink:href="UdpServer_8hpp.html" target="_top" xlink:title=" ">
<polygon fill="white" stroke="#666666" points="353.12,-76 271.88,-76 271.88,-56 353.12,-56 353.12,-76"/>
<text text-anchor="middle" x="312.5" y="-62.5" font-family="Helvetica,sans-Serif" font-size="10.00">UdpServer.hpp</text>
</a>
</g>
</g>
<!-- Node1&#45;&gt;Node7 -->
<g id="edge10_Node000001_Node000007" class="edge">
<title>Node1&#45;&gt;Node7</title>
<g id="a_edge10_Node000001_Node000007"><a xlink:title=" ">
<path fill="none" stroke="#63b8ff" d="M200.3,-214.82C227.09,-179.53 285.27,-102.88 305.44,-76.3"/>
<polygon fill="#63b8ff" stroke="#63b8ff" points="197.81,-212.31 194.55,-222.39 203.38,-216.54 197.81,-212.31"/>
</a>
</g>
</g>
<!-- Node3 -->
<g id="Node000003" class="node">
<title>Node3</title>
<g id="a_Node000003"><a xlink:href="Room_8cpp.html" target="_top" xlink:title=" ">
<polygon fill="white" stroke="#666666" points="61,-132 0,-132 0,-112 61,-112 61,-132"/>
<text text-anchor="middle" x="30.5" y="-118.5" font-family="Helvetica,sans-Serif" font-size="10.00">Room.cpp</text>
</a>
</g>
</g>
<!-- Node2&#45;&gt;Node3 -->
<g id="edge2_Node000002_Node000003" class="edge">
<title>Node2&#45;&gt;Node3</title>
<g id="a_edge2_Node000002_Node000003"><a xlink:title=" ">
<path fill="none" stroke="#63b8ff" d="M87.91,-161.27C73.91,-151.94 56.64,-140.43 44.72,-132.48"/>
<polygon fill="#63b8ff" stroke="#63b8ff" points="85.87,-164.12 96.13,-166.75 89.75,-158.3 85.87,-164.12"/>
</a>
</g>
</g>
<!-- Node4 -->
<g id="Node000004" class="node">
<title>Node4</title>
<g id="a_Node000004"><a xlink:href="RoomManager_8hpp.html" target="_top" xlink:title=" ">
<polygon fill="white" stroke="#666666" points="233.75,-132 135.25,-132 135.25,-112 233.75,-112 233.75,-132"/>
<text text-anchor="middle" x="184.5" y="-118.5" font-family="Helvetica,sans-Serif" font-size="10.00">RoomManager.hpp</text>
</a>
</g>
</g>
<!-- Node2&#45;&gt;Node4 -->
<g id="edge3_Node000002_Node000004" class="edge">
<title>Node2&#45;&gt;Node4</title>
<g id="a_edge3_Node000002_Node000004"><a xlink:title=" ">
<path fill="none" stroke="#63b8ff" d="M133.19,-160.95C145.82,-151.61 161.3,-140.16 171.93,-132.3"/>
<polygon fill="#63b8ff" stroke="#63b8ff" points="131.39,-157.93 125.43,-166.69 135.55,-163.56 131.39,-157.93"/>
</a>
</g>
</g>
<!-- Node6 -->
<g id="Node000006" class="node">
<title>Node6</title>
<g id="a_Node000006"><a xlink:href="UdpServer_8cpp.html" target="_top" xlink:title=" ">
<polygon fill="white" stroke="#666666" points="275.12,-20 193.88,-20 193.88,0 275.12,0 275.12,-20"/>
<text text-anchor="middle" x="234.5" y="-6.5" font-family="Helvetica,sans-Serif" font-size="10.00">UdpServer.cpp</text>
</a>
</g>
</g>
<!-- Node2&#45;&gt;Node6 -->
<g id="edge9_Node000002_Node000006" class="edge">
<title>Node2&#45;&gt;Node6</title>
<g id="a_edge9_Node000002_Node000006"><a xlink:title=" ">
<path fill="none" stroke="#63b8ff" d="M104.34,-157.08C96.43,-131.24 87.39,-85.95 108.5,-56 127.57,-28.94 164.45,-18.07 193.4,-13.74"/>
<polygon fill="#63b8ff" stroke="#63b8ff" points="100.94,-157.93 107.41,-166.32 107.58,-155.72 100.94,-157.93"/>
</a>
</g>
</g>
<!-- Node5 -->
<g id="Node000005" class="node">
<title>Node5</title>
<g id="a_Node000005"><a xlink:href="RoomManager_8cpp.html" target="_top" xlink:title=" ">
<polygon fill="white" stroke="#666666" points="215.75,-76 117.25,-76 117.25,-56 215.75,-56 215.75,-76"/>
<text text-anchor="middle" x="166.5" y="-62.5" font-family="Helvetica,sans-Serif" font-size="10.00">RoomManager.cpp</text>
</a>
</g>
</g>
<!-- Node4&#45;&gt;Node5 -->
<g id="edge4_Node000004_Node000005" class="edge">
<title>Node4&#45;&gt;Node5</title>
<g id="a_edge4_Node000004_Node000005"><a xlink:title=" ">
<path fill="none" stroke="#63b8ff" d="M177.74,-100.71C174.94,-92.32 171.84,-83.01 169.6,-76.3"/>
<polygon fill="#63b8ff" stroke="#63b8ff" points="174.4,-101.78 180.89,-110.16 181.04,-99.56 174.4,-101.78"/>
</a>
</g>
</g>
<!-- Node4&#45;&gt;Node6 -->
<g id="edge5_Node000004_Node000006" class="edge">
<title>Node4&#45;&gt;Node6</title>
<g id="a_edge5_Node000004_Node000006"><a xlink:title=" ">
<path fill="none" stroke="#63b8ff" d="M203.88,-103.97C211.51,-96.2 219.6,-86.42 224.5,-76 233.15,-57.61 234.61,-33.37 234.69,-20.3"/>
<polygon fill="#63b8ff" stroke="#63b8ff" points="201.87,-101.06 197.06,-110.5 206.7,-106.12 201.87,-101.06"/>
</a>
</g>
</g>
<!-- Node4&#45;&gt;Node7 -->
<g id="edge6_Node000004_Node000007" class="edge">
<title>Node4&#45;&gt;Node7</title>
<g id="a_edge6_Node000004_Node000007"><a xlink:title=" ">
<path fill="none" stroke="#63b8ff" d="M217.35,-107.14C240.14,-97.52 269.91,-84.97 290.03,-76.48"/>
<polygon fill="#63b8ff" stroke="#63b8ff" points="216.04,-103.89 208.19,-111.01 218.76,-110.34 216.04,-103.89"/>
</a>
</g>
</g>
<!-- Node7&#45;&gt;Node6 -->
<g id="edge7_Node000007_Node000006" class="edge">
<title>Node7&#45;&gt;Node6</title>
<g id="a_edge7_Node000007_Node000006"><a xlink:title=" ">
<path fill="none" stroke="#63b8ff" d="M289.78,-49.27C276.31,-39.94 259.67,-28.43 248.19,-20.48"/>
<polygon fill="#63b8ff" stroke="#63b8ff" points="287.45,-51.92 297.67,-54.73 291.44,-46.16 287.45,-51.92"/>
</a>
</g>
</g>
<!-- Node8 -->
<g id="Node000008" class="node">
<title>Node8</title>
<g id="a_Node000008"><a xlink:href="Server_2src_2main_8cpp.html" target="_top" xlink:title=" ">
<polygon fill="white" stroke="#666666" points="349.38,-20 293.62,-20 293.62,0 349.38,0 349.38,-20"/>
<text text-anchor="middle" x="321.5" y="-6.5" font-family="Helvetica,sans-Serif" font-size="10.00">main.cpp</text>
</a>
</g>
</g>
<!-- Node7&#45;&gt;Node8 -->
<g id="edge8_Node000007_Node000008" class="edge">
<title>Node7&#45;&gt;Node8</title>
<g id="a_edge8_Node000007_Node000008"><a xlink:title=" ">
<path fill="none" stroke="#63b8ff" d="M315.93,-44.43C317.32,-36.11 318.84,-26.93 319.95,-20.3"/>
<polygon fill="#63b8ff" stroke="#63b8ff" points="312.51,-43.66 314.32,-54.1 319.41,-44.81 312.51,-43.66"/>
</a>
</g>
</g>
</g>
</svg>
