<?xml version="1.0" encoding="UTF-8" standalone="no"?>
<!DOCTYPE svg PUBLIC "-//W3C//DTD SVG 1.1//EN"
 "http://www.w3.org/Graphics/SVG/1.1/DTD/svg11.dtd">
<!-- Generated by graphviz version 12.1.0 (20240811.2233)
 -->
<!-- Title: Collision.hpp Pages: 1 -->
<svg width="1546pt" height="420pt"
 viewBox="0.00 0.00 1545.50 420.00" xmlns="http://www.w3.org/2000/svg" xmlns:xlink="http://www.w3.org/1999/xlink">
<g id="graph0" class="graph" transform="scale(1 1) rotate(0) translate(4 416)">
<title>Collision.hpp</title>
<!-- Node1 -->
<g id="Node000001" class="node">
<title>Node1</title>
<g id="a_Node000001"><a xlink:title=" ">
<polygon fill="#999999" stroke="#666666" points="673,-412 600.75,-412 600.75,-392 673,-392 673,-412"/>
<text text-anchor="middle" x="636.88" y="-398.5" font-family="Helvetica,sans-Serif" font-size="10.00">Collision.hpp</text>
</a>
</g>
</g>
<!-- Node2 -->
<g id="Node000002" class="node">
<title>Node2</title>
<g id="a_Node000002"><a xlink:title=" ">
<polygon fill="#e0e0e0" stroke="#999999" points="637.5,-132 586.25,-132 586.25,-112 637.5,-112 637.5,-132"/>
<text text-anchor="middle" x="611.88" y="-118.5" font-family="Helvetica,sans-Serif" font-size="10.00">memory</text>
</a>
</g>
</g>
<!-- Node1&#45;&gt;Node2 -->
<g id="edge1_Node000001_Node000002" class="edge">
<title>Node1&#45;&gt;Node2</title>
<g id="a_edge1_Node000001_Node000002"><a xlink:title=" ">
<path fill="none" stroke="#63b8ff" d="M635.75,-391.54C633.65,-373.67 629.04,-333.72 625.88,-300 620.55,-243.37 615.63,-176.43 613.3,-143.45"/>
<polygon fill="#63b8ff" stroke="#63b8ff" points="616.8,-143.46 612.61,-133.73 609.82,-143.95 616.8,-143.46"/>
</a>
</g>
</g>
<!-- Node3 -->
<g id="Node000003" class="node">
<title>Node3</title>
<g id="a_Node000003"><a xlink:title=" ">
<polygon fill="#e0e0e0" stroke="#999999" points="1453.62,-76 1424.12,-76 1424.12,-56 1453.62,-56 1453.62,-76"/>
<text text-anchor="middle" x="1438.88" y="-62.5" font-family="Helvetica,sans-Serif" font-size="10.00">set</text>
</a>
</g>
</g>
<!-- Node1&#45;&gt;Node3 -->
<g id="edge2_Node000001_Node000003" class="edge">
<title>Node1&#45;&gt;Node3</title>
<g id="a_edge2_Node000001_Node000003"><a xlink:title=" ">
<path fill="none" stroke="#63b8ff" d="M673.17,-400.08C813.86,-396.32 1318.8,-381.19 1385.88,-356 1430.07,-339.4 1469.88,-338.21 1469.88,-291 1469.88,-291 1469.88,-291 1469.88,-177 1469.88,-144.52 1457.2,-108.61 1448.06,-86.93"/>
<polygon fill="#63b8ff" stroke="#63b8ff" points="1451.29,-85.58 1444.06,-77.84 1444.89,-88.41 1451.29,-85.58"/>
</a>
</g>
</g>
<!-- Node4 -->
<g id="Node000004" class="node">
<title>Node4</title>
<g id="a_Node000004"><a xlink:title=" ">
<polygon fill="#e0e0e0" stroke="#999999" points="1537.5,-356 1498.25,-356 1498.25,-336 1537.5,-336 1537.5,-356"/>
<text text-anchor="middle" x="1517.88" y="-342.5" font-family="Helvetica,sans-Serif" font-size="10.00">utility</text>
</a>
</g>
</g>
<!-- Node1&#45;&gt;Node4 -->
<g id="edge3_Node000001_Node000004" class="edge">
<title>Node1&#45;&gt;Node4</title>
<g id="a_edge3_Node000001_Node000004"><a xlink:title=" ">
<path fill="none" stroke="#63b8ff" d="M673.4,-400.06C814.5,-396.27 1324.04,-381.13 1483.88,-356 1484.88,-355.84 1485.89,-355.67 1486.92,-355.48"/>
<polygon fill="#63b8ff" stroke="#63b8ff" points="1487.41,-358.95 1496.41,-353.35 1485.88,-352.12 1487.41,-358.95"/>
</a>
</g>
</g>
<!-- Node5 -->
<g id="Node000005" class="node">
<title>Node5</title>
<g id="a_Node000005"><a xlink:href="Entity_8hpp.html" target="_top" xlink:title=" ">
<polygon fill="white" stroke="#666666" points="1242.62,-76 1183.12,-76 1183.12,-56 1242.62,-56 1242.62,-76"/>
<text text-anchor="middle" x="1212.88" y="-62.5" font-family="Helvetica,sans-Serif" font-size="10.00">Entity.hpp</text>
</a>
</g>
</g>
<!-- Node1&#45;&gt;Node5 -->
<g id="edge4_Node000001_Node000005" class="edge">
<title>Node1&#45;&gt;Node5</title>
<g id="a_edge4_Node000001_Node000005"><a xlink:title=" ">
<path fill="none" stroke="#63b8ff" d="M673.01,-399.25C817.49,-391.8 1345.88,-359.82 1345.88,-291 1345.88,-291 1345.88,-291 1345.88,-177 1345.88,-128.11 1291.85,-96.86 1252.66,-80.62"/>
<polygon fill="#63b8ff" stroke="#63b8ff" points="1254.06,-77.41 1243.47,-76.99 1251.49,-83.92 1254.06,-77.41"/>
</a>
</g>
</g>
<!-- Node8 -->
<g id="Node000008" class="node">
<title>Node8</title>
<g id="a_Node000008"><a xlink:href="NetworkManager_8hpp.html" target="_top" xlink:title=" ">
<polygon fill="white" stroke="#666666" points="946.38,-356 837.38,-356 837.38,-336 946.38,-336 946.38,-356"/>
<text text-anchor="middle" x="891.88" y="-342.5" font-family="Helvetica,sans-Serif" font-size="10.00">NetworkManager.hpp</text>
</a>
</g>
</g>
<!-- Node1&#45;&gt;Node8 -->
<g id="edge7_Node000001_Node000008" class="edge">
<title>Node1&#45;&gt;Node8</title>
<g id="a_edge7_Node000001_Node000008"><a xlink:title=" ">
<path fill="none" stroke="#63b8ff" d="M673.41,-393.26C715.96,-384.25 786.7,-369.27 836.12,-358.81"/>
<polygon fill="#63b8ff" stroke="#63b8ff" points="836.72,-362.26 845.77,-356.76 835.27,-355.41 836.72,-362.26"/>
</a>
</g>
</g>
<!-- Node24 -->
<g id="Node000024" class="node">
<title>Node24</title>
<g id="a_Node000024"><a xlink:href="System_8hpp.html" target="_top" xlink:title=" ">
<polygon fill="white" stroke="#666666" points="1442.12,-132 1373.62,-132 1373.62,-112 1442.12,-112 1442.12,-132"/>
<text text-anchor="middle" x="1407.88" y="-118.5" font-family="Helvetica,sans-Serif" font-size="10.00">System.hpp</text>
</a>
</g>
</g>
<!-- Node1&#45;&gt;Node24 -->
<g id="edge56_Node000001_Node000024" class="edge">
<title>Node1&#45;&gt;Node24</title>
<g id="a_edge56_Node000001_Node000024"><a xlink:title=" ">
<path fill="none" stroke="#63b8ff" d="M673.22,-400.76C811.71,-399.6 1301.54,-392.87 1359.88,-356 1387.79,-338.36 1395.88,-324.02 1395.88,-291 1395.88,-291 1395.88,-291 1395.88,-233 1395.88,-201.69 1400.74,-165.65 1404.28,-143.6"/>
<polygon fill="#63b8ff" stroke="#63b8ff" points="1407.7,-144.31 1405.91,-133.87 1400.8,-143.16 1407.7,-144.31"/>
</a>
</g>
</g>
<!-- Node26 -->
<g id="Node000026" class="node">
<title>Node26</title>
<g id="a_Node000026"><a xlink:href="Event_8hpp.html" target="_top" xlink:title=" ">
<polygon fill="white" stroke="#666666" points="408,-132 347.75,-132 347.75,-112 408,-112 408,-132"/>
<text text-anchor="middle" x="377.88" y="-118.5" font-family="Helvetica,sans-Serif" font-size="10.00">Event.hpp</text>
</a>
</g>
</g>
<!-- Node1&#45;&gt;Node26 -->
<g id="edge59_Node000001_Node000026" class="edge">
<title>Node1&#45;&gt;Node26</title>
<g id="a_edge59_Node000001_Node000026"><a xlink:title=" ">
<path fill="none" stroke="#63b8ff" d="M625.34,-391.71C590.85,-363.59 486.62,-275.85 416.88,-188 405.5,-173.67 394.97,-155.73 387.73,-142.33"/>
<polygon fill="#63b8ff" stroke="#63b8ff" points="390.93,-140.88 383.18,-133.66 384.73,-144.14 390.93,-140.88"/>
</a>
</g>
</g>
<!-- Node32 -->
<g id="Node000032" class="node">
<title>Node32</title>
<g id="a_Node000032"><a xlink:href="Utils_8hpp.html" target="_top" xlink:title=" ">
<polygon fill="white" stroke="#666666" points="275.38,-300 220.38,-300 220.38,-280 275.38,-280 275.38,-300"/>
<text text-anchor="middle" x="247.88" y="-286.5" font-family="Helvetica,sans-Serif" font-size="10.00">Utils.hpp</text>
</a>
</g>
</g>
<!-- Node1&#45;&gt;Node32 -->
<g id="edge57_Node000001_Node000032" class="edge">
<title>Node1&#45;&gt;Node32</title>
<g id="a_edge57_Node000001_Node000032"><a xlink:title=" ">
<path fill="none" stroke="#63b8ff" d="M600.72,-401.66C541.59,-401.46 421.6,-395.64 329.88,-356 304.23,-344.92 279.8,-323.69 264.38,-308.5"/>
<polygon fill="#63b8ff" stroke="#63b8ff" points="266.97,-306.15 257.46,-301.47 261.98,-311.05 266.97,-306.15"/>
</a>
</g>
</g>
<!-- Node33 -->
<g id="Node000033" class="node">
<title>Node33</title>
<g id="a_Node000033"><a xlink:href="Hitbox_8hpp.html" target="_top" xlink:title=" ">
<polygon fill="white" stroke="#666666" points="121.75,-356 0,-356 0,-336 121.75,-336 121.75,-356"/>
<text text-anchor="middle" x="60.88" y="-342.5" font-family="Helvetica,sans-Serif" font-size="10.00">Components/Hitbox.hpp</text>
</a>
</g>
</g>
<!-- Node1&#45;&gt;Node33 -->
<g id="edge60_Node000001_Node000033" class="edge">
<title>Node1&#45;&gt;Node33</title>
<g id="a_edge60_Node000001_Node000033"><a xlink:title=" ">
<path fill="none" stroke="#63b8ff" d="M600.32,-398.24C518.67,-391.98 315.03,-375.77 133.32,-356.23"/>
<polygon fill="#63b8ff" stroke="#63b8ff" points="133.76,-352.75 123.45,-355.16 133.01,-359.71 133.76,-352.75"/>
</a>
</g>
</g>
<!-- Node34 -->
<g id="Node000034" class="node">
<title>Node34</title>
<g id="a_Node000034"><a xlink:href="Transform_8hpp.html" target="_top" xlink:title=" ">
<polygon fill="white" stroke="#666666" points="277.62,-356 140.12,-356 140.12,-336 277.62,-336 277.62,-356"/>
<text text-anchor="middle" x="208.88" y="-342.5" font-family="Helvetica,sans-Serif" font-size="10.00">Components/Transform.hpp</text>
</a>
</g>
</g>
<!-- Node1&#45;&gt;Node34 -->
<g id="edge62_Node000001_Node000034" class="edge">
<title>Node1&#45;&gt;Node34</title>
<g id="a_edge62_Node000001_Node000034"><a xlink:title=" ">
<path fill="none" stroke="#63b8ff" d="M600.38,-396.4C531.88,-387.75 382.56,-368.91 289.4,-357.16"/>
<polygon fill="#63b8ff" stroke="#63b8ff" points="289.91,-353.7 279.55,-355.92 289.03,-360.64 289.91,-353.7"/>
</a>
</g>
</g>
<!-- Node6 -->
<g id="Node000006" class="node">
<title>Node6</title>
<g id="a_Node000006"><a xlink:title=" ">
<polygon fill="#e0e0e0" stroke="#999999" points="361.5,-20 316.25,-20 316.25,0 361.5,0 361.5,-20"/>
<text text-anchor="middle" x="338.88" y="-6.5" font-family="Helvetica,sans-Serif" font-size="10.00">cstdint</text>
</a>
</g>
</g>
<!-- Node5&#45;&gt;Node6 -->
<g id="edge5_Node000005_Node000006" class="edge">
<title>Node5&#45;&gt;Node6</title>
<g id="a_edge5_Node000005_Node000006"><a xlink:title=" ">
<path fill="none" stroke="#63b8ff" d="M1182.91,-60.47C1171.36,-58.85 1158.03,-57.15 1145.88,-56 847.3,-27.66 484.75,-15.28 373.18,-11.96"/>
<polygon fill="#63b8ff" stroke="#63b8ff" points="373.32,-8.46 363.22,-11.67 373.12,-15.46 373.32,-8.46"/>
</a>
</g>
</g>
<!-- Node7 -->
<g id="Node000007" class="node">
<title>Node7</title>
<g id="a_Node000007"><a xlink:title=" ">
<polygon fill="#e0e0e0" stroke="#999999" points="1232.88,-20 1192.88,-20 1192.88,0 1232.88,0 1232.88,-20"/>
<text text-anchor="middle" x="1212.88" y="-6.5" font-family="Helvetica,sans-Serif" font-size="10.00">bitset</text>
</a>
</g>
</g>
<!-- Node5&#45;&gt;Node7 -->
<g id="edge6_Node000005_Node000007" class="edge">
<title>Node5&#45;&gt;Node7</title>
<g id="a_edge6_Node000005_Node000007"><a xlink:title=" ">
<path fill="none" stroke="#63b8ff" d="M1212.88,-55.59C1212.88,-49.01 1212.88,-39.96 1212.88,-31.73"/>
<polygon fill="#63b8ff" stroke="#63b8ff" points="1216.38,-31.81 1212.88,-21.81 1209.38,-31.81 1216.38,-31.81"/>
</a>
</g>
</g>
<!-- Node8&#45;&gt;Node5 -->
<g id="edge12_Node000008_Node000005" class="edge">
<title>Node8&#45;&gt;Node5</title>
<g id="a_edge12_Node000008_Node000005"><a xlink:title=" ">
<path fill="none" stroke="#63b8ff" d="M946.69,-341.98C1059.65,-334.25 1307.88,-308.86 1307.88,-235 1307.88,-235 1307.88,-235 1307.88,-177 1307.88,-134.97 1267.67,-101.07 1239.57,-82.51"/>
<polygon fill="#63b8ff" stroke="#63b8ff" points="1241.46,-79.57 1231.14,-77.19 1237.73,-85.49 1241.46,-79.57"/>
</a>
</g>
</g>
<!-- Node8&#45;&gt;Node6 -->
<g id="edge8_Node000008_Node000006" class="edge">
<title>Node8&#45;&gt;Node6</title>
<g id="a_edge8_Node000008_Node000006"><a xlink:title=" ">
<path fill="none" stroke="#63b8ff" d="M837.11,-340.95C782.42,-335.71 696.55,-324.19 625.88,-300 526.17,-265.87 506.31,-243.74 416.88,-188 380.66,-165.43 358.36,-169.97 338.88,-132 322.47,-100.02 327.99,-56.74 333.46,-31.55"/>
<polygon fill="#63b8ff" stroke="#63b8ff" points="336.84,-32.48 335.77,-21.94 330.03,-30.85 336.84,-32.48"/>
</a>
</g>
</g>
<!-- Node9 -->
<g id="Node000009" class="node">
<title>Node9</title>
<g id="a_Node000009"><a xlink:title=" ">
<polygon fill="#e0e0e0" stroke="#999999" points="1049.75,-300 970,-300 970,-280 1049.75,-280 1049.75,-300"/>
<text text-anchor="middle" x="1009.88" y="-286.5" font-family="Helvetica,sans-Serif" font-size="10.00">boost/asio.hpp</text>
</a>
</g>
</g>
<!-- Node8&#45;&gt;Node9 -->
<g id="edge9_Node000008_Node000009" class="edge">
<title>Node8&#45;&gt;Node9</title>
<g id="a_edge9_Node000008_Node000009"><a xlink:title=" ">
<path fill="none" stroke="#63b8ff" d="M912.43,-335.59C930.76,-327.21 957.86,-314.8 978.83,-305.21"/>
<polygon fill="#63b8ff" stroke="#63b8ff" points="980.15,-308.45 987.78,-301.11 977.23,-302.09 980.15,-308.45"/>
</a>
</g>
</g>
<!-- Node10 -->
<g id="Node000010" class="node">
<title>Node10</title>
<g id="a_Node000010"><a xlink:title=" ">
<polygon fill="#e0e0e0" stroke="#999999" points="1067.75,-132 1030,-132 1030,-112 1067.75,-112 1067.75,-132"/>
<text text-anchor="middle" x="1048.88" y="-118.5" font-family="Helvetica,sans-Serif" font-size="10.00">array</text>
</a>
</g>
</g>
<!-- Node8&#45;&gt;Node10 -->
<g id="edge10_Node000008_Node000010" class="edge">
<title>Node8&#45;&gt;Node10</title>
<g id="a_edge10_Node000008_Node000010"><a xlink:title=" ">
<path fill="none" stroke="#63b8ff" d="M946.58,-337.51C989.83,-330.34 1045.13,-317.94 1058.88,-300 1068.2,-287.83 1056.94,-187.31 1051.5,-143.39"/>
<polygon fill="#63b8ff" stroke="#63b8ff" points="1055,-143.17 1050.27,-133.69 1048.05,-144.05 1055,-143.17"/>
</a>
</g>
</g>
<!-- Node11 -->
<g id="Node000011" class="node">
<title>Node11</title>
<g id="a_Node000011"><a xlink:title=" ">
<polygon fill="#e0e0e0" stroke="#999999" points="1149.38,-300 1106.38,-300 1106.38,-280 1149.38,-280 1149.38,-300"/>
<text text-anchor="middle" x="1127.88" y="-286.5" font-family="Helvetica,sans-Serif" font-size="10.00">thread</text>
</a>
</g>
</g>
<!-- Node8&#45;&gt;Node11 -->
<g id="edge11_Node000008_Node000011" class="edge">
<title>Node8&#45;&gt;Node11</title>
<g id="a_edge11_Node000008_Node000011"><a xlink:title=" ">
<path fill="none" stroke="#63b8ff" d="M935.25,-335.55C975.81,-326.64 1038.03,-312.79 1091.88,-300 1093.03,-299.72 1094.21,-299.44 1095.41,-299.15"/>
<polygon fill="#63b8ff" stroke="#63b8ff" points="1095.85,-302.65 1104.72,-296.87 1094.18,-295.85 1095.85,-302.65"/>
</a>
</g>
</g>
<!-- Node12 -->
<g id="Node000012" class="node">
<title>Node12</title>
<g id="a_Node000012"><a xlink:href="Mediator_8hpp.html" target="_top" xlink:title=" ">
<polygon fill="white" stroke="#666666" points="864,-244 791.75,-244 791.75,-224 864,-224 864,-244"/>
<text text-anchor="middle" x="827.88" y="-230.5" font-family="Helvetica,sans-Serif" font-size="10.00">Mediator.hpp</text>
</a>
</g>
</g>
<!-- Node8&#45;&gt;Node12 -->
<g id="edge13_Node000008_Node000012" class="edge">
<title>Node8&#45;&gt;Node12</title>
<g id="a_edge13_Node000008_Node000012"><a xlink:title=" ">
<path fill="none" stroke="#63b8ff" d="M865.65,-335.66C849.9,-328.52 831.15,-316.99 821.88,-300 814.4,-286.31 816.7,-268.54 820.42,-255.05"/>
<polygon fill="#63b8ff" stroke="#63b8ff" points="823.62,-256.53 823.38,-245.93 816.96,-254.36 823.62,-256.53"/>
</a>
</g>
</g>
<!-- Node30 -->
<g id="Node000030" class="node">
<title>Node30</title>
<g id="a_Node000030"><a xlink:href="ComponentRegistry_8hpp.html" target="_top" xlink:title=" ">
<polygon fill="white" stroke="#666666" points="952.38,-300 831.38,-300 831.38,-280 952.38,-280 952.38,-300"/>
<text text-anchor="middle" x="891.88" y="-286.5" font-family="Helvetica,sans-Serif" font-size="10.00">ComponentRegistry.hpp</text>
</a>
</g>
</g>
<!-- Node8&#45;&gt;Node30 -->
<g id="edge48_Node000008_Node000030" class="edge">
<title>Node8&#45;&gt;Node30</title>
<g id="a_edge48_Node000008_Node000030"><a xlink:title=" ">
<path fill="none" stroke="#63b8ff" d="M891.88,-335.59C891.88,-329.01 891.88,-319.96 891.88,-311.73"/>
<polygon fill="#63b8ff" stroke="#63b8ff" points="895.38,-311.81 891.88,-301.81 888.38,-311.81 895.38,-311.81"/>
</a>
</g>
</g>
<!-- Node31 -->
<g id="Node000031" class="node">
<title>Node31</title>
<g id="a_Node000031"><a xlink:href="EnemyInfo_8hpp.html" target="_top" xlink:title=" ">
<polygon fill="white" stroke="#666666" points="775.12,-300 634.62,-300 634.62,-280 775.12,-280 775.12,-300"/>
<text text-anchor="middle" x="704.88" y="-286.5" font-family="Helvetica,sans-Serif" font-size="10.00">Components/EnemyInfo.hpp</text>
</a>
</g>
</g>
<!-- Node8&#45;&gt;Node31 -->
<g id="edge55_Node000008_Node000031" class="edge">
<title>Node8&#45;&gt;Node31</title>
<g id="a_edge55_Node000008_Node000031"><a xlink:title=" ">
<path fill="none" stroke="#63b8ff" d="M859.3,-335.59C828.65,-326.74 782.53,-313.43 748.67,-303.65"/>
<polygon fill="#63b8ff" stroke="#63b8ff" points="749.73,-300.31 739.16,-300.9 747.79,-307.04 749.73,-300.31"/>
</a>
</g>
</g>
<!-- Node12&#45;&gt;Node2 -->
<g id="edge15_Node000012_Node000002" class="edge">
<title>Node12&#45;&gt;Node2</title>
<g id="a_edge15_Node000012_Node000002"><a xlink:title=" ">
<path fill="none" stroke="#63b8ff" d="M791.43,-230.73C754.55,-226.85 697.35,-216.37 656.88,-188 640.39,-176.45 628.03,-156.81 620.47,-142.13"/>
<polygon fill="#63b8ff" stroke="#63b8ff" points="623.79,-140.95 616.3,-133.46 617.48,-143.99 623.79,-140.95"/>
</a>
</g>
</g>
<!-- Node13 -->
<g id="Node000013" class="node">
<title>Node13</title>
<g id="a_Node000013"><a xlink:title=" ">
<polygon fill="#e0e0e0" stroke="#999999" points="1136.62,-76 1083.12,-76 1083.12,-56 1136.62,-56 1136.62,-76"/>
<text text-anchor="middle" x="1109.88" y="-62.5" font-family="Helvetica,sans-Serif" font-size="10.00">iostream</text>
</a>
</g>
</g>
<!-- Node12&#45;&gt;Node13 -->
<g id="edge14_Node000012_Node000013" class="edge">
<title>Node12&#45;&gt;Node13</title>
<g id="a_edge14_Node000012_Node000013"><a xlink:title=" ">
<path fill="none" stroke="#63b8ff" d="M864.35,-230.95C949.27,-225.81 1154.58,-211.1 1174.88,-188 1203.42,-155.51 1158.89,-108.32 1130.5,-83.57"/>
<polygon fill="#63b8ff" stroke="#63b8ff" points="1133.03,-81.12 1123.12,-77.35 1128.51,-86.47 1133.03,-81.12"/>
</a>
</g>
</g>
<!-- Node14 -->
<g id="Node000014" class="node">
<title>Node14</title>
<g id="a_Node000014"><a xlink:title=" ">
<polygon fill="#e0e0e0" stroke="#999999" points="849.38,-188 806.38,-188 806.38,-168 849.38,-168 849.38,-188"/>
<text text-anchor="middle" x="827.88" y="-174.5" font-family="Helvetica,sans-Serif" font-size="10.00">vector</text>
</a>
</g>
</g>
<!-- Node12&#45;&gt;Node14 -->
<g id="edge16_Node000012_Node000014" class="edge">
<title>Node12&#45;&gt;Node14</title>
<g id="a_edge16_Node000012_Node000014"><a xlink:title=" ">
<path fill="none" stroke="#63b8ff" d="M827.88,-223.59C827.88,-217.01 827.88,-207.96 827.88,-199.73"/>
<polygon fill="#63b8ff" stroke="#63b8ff" points="831.38,-199.81 827.88,-189.81 824.38,-199.81 831.38,-199.81"/>
</a>
</g>
</g>
<!-- Node15 -->
<g id="Node000015" class="node">
<title>Node15</title>
<g id="a_Node000015"><a xlink:href="EntityManager_8hpp.html" target="_top" xlink:title=" ">
<polygon fill="white" stroke="#666666" points="1165.75,-188 1068,-188 1068,-168 1165.75,-168 1165.75,-188"/>
<text text-anchor="middle" x="1116.88" y="-174.5" font-family="Helvetica,sans-Serif" font-size="10.00">EntityManager.hpp</text>
</a>
</g>
</g>
<!-- Node12&#45;&gt;Node15 -->
<g id="edge17_Node000012_Node000015" class="edge">
<title>Node12&#45;&gt;Node15</title>
<g id="a_edge17_Node000012_Node000015"><a xlink:title=" ">
<path fill="none" stroke="#63b8ff" d="M864.48,-226.16C912.75,-217.14 998.34,-201.15 1056.33,-190.31"/>
<polygon fill="#63b8ff" stroke="#63b8ff" points="1056.86,-193.77 1066.05,-188.5 1055.57,-186.89 1056.86,-193.77"/>
</a>
</g>
</g>
<!-- Node17 -->
<g id="Node000017" class="node">
<title>Node17</title>
<g id="a_Node000017"><a xlink:href="ComponentManager_8hpp.html" target="_top" xlink:title=" ">
<polygon fill="white" stroke="#666666" points="788.12,-188 665.62,-188 665.62,-168 788.12,-168 788.12,-188"/>
<text text-anchor="middle" x="726.88" y="-174.5" font-family="Helvetica,sans-Serif" font-size="10.00">ComponentManager.hpp</text>
</a>
</g>
</g>
<!-- Node12&#45;&gt;Node17 -->
<g id="edge21_Node000012_Node000017" class="edge">
<title>Node12&#45;&gt;Node17</title>
<g id="a_edge21_Node000012_Node000017"><a xlink:title=" ">
<path fill="none" stroke="#63b8ff" d="M810.28,-223.59C794.95,-215.4 772.46,-203.37 754.69,-193.87"/>
<polygon fill="#63b8ff" stroke="#63b8ff" points="756.41,-190.82 745.94,-189.19 753.11,-196.99 756.41,-190.82"/>
</a>
</g>
</g>
<!-- Node23 -->
<g id="Node000023" class="node">
<title>Node23</title>
<g id="a_Node000023"><a xlink:href="SystemManager_8hpp.html" target="_top" xlink:title=" ">
<polygon fill="white" stroke="#666666" points="973.88,-188 867.88,-188 867.88,-168 973.88,-168 973.88,-188"/>
<text text-anchor="middle" x="920.88" y="-174.5" font-family="Helvetica,sans-Serif" font-size="10.00">SystemManager.hpp</text>
</a>
</g>
</g>
<!-- Node12&#45;&gt;Node23 -->
<g id="edge33_Node000012_Node000023" class="edge">
<title>Node12&#45;&gt;Node23</title>
<g id="a_edge33_Node000012_Node000023"><a xlink:title=" ">
<path fill="none" stroke="#63b8ff" d="M844.07,-223.59C858.12,-215.44 878.71,-203.48 895.03,-194"/>
<polygon fill="#63b8ff" stroke="#63b8ff" points="896.35,-197.29 903.24,-189.24 892.83,-191.23 896.35,-197.29"/>
</a>
</g>
</g>
<!-- Node25 -->
<g id="Node000025" class="node">
<title>Node25</title>
<g id="a_Node000025"><a xlink:href="EventManager_8hpp.html" target="_top" xlink:title=" ">
<polygon fill="white" stroke="#666666" points="533.75,-188 436,-188 436,-168 533.75,-168 533.75,-188"/>
<text text-anchor="middle" x="484.88" y="-174.5" font-family="Helvetica,sans-Serif" font-size="10.00">EventManager.hpp</text>
</a>
</g>
</g>
<!-- Node12&#45;&gt;Node25 -->
<g id="edge41_Node000012_Node000025" class="edge">
<title>Node12&#45;&gt;Node25</title>
<g id="a_edge41_Node000012_Node000025"><a xlink:title=" ">
<path fill="none" stroke="#63b8ff" d="M791.49,-227.27C732.74,-218.02 616.37,-199.7 545.11,-188.48"/>
<polygon fill="#63b8ff" stroke="#63b8ff" points="545.99,-185.08 535.57,-186.98 544.9,-191.99 545.99,-185.08"/>
</a>
</g>
</g>
<!-- Node15&#45;&gt;Node5 -->
<g id="edge20_Node000015_Node000005" class="edge">
<title>Node15&#45;&gt;Node5</title>
<g id="a_edge20_Node000015_Node000005"><a xlink:title=" ">
<path fill="none" stroke="#63b8ff" d="M1125.06,-167.62C1141.07,-149.27 1176.77,-108.37 1197.38,-84.75"/>
<polygon fill="#63b8ff" stroke="#63b8ff" points="1199.78,-87.33 1203.72,-77.5 1194.5,-82.73 1199.78,-87.33"/>
</a>
</g>
</g>
<!-- Node15&#45;&gt;Node10 -->
<g id="edge19_Node000015_Node000010" class="edge">
<title>Node15&#45;&gt;Node10</title>
<g id="a_edge19_Node000015_Node000010"><a xlink:title=" ">
<path fill="none" stroke="#63b8ff" d="M1105.03,-167.59C1095.18,-159.77 1080.94,-148.46 1069.27,-139.19"/>
<polygon fill="#63b8ff" stroke="#63b8ff" points="1071.78,-136.72 1061.77,-133.24 1067.42,-142.2 1071.78,-136.72"/>
</a>
</g>
</g>
<!-- Node16 -->
<g id="Node000016" class="node">
<title>Node16</title>
<g id="a_Node000016"><a xlink:title=" ">
<polygon fill="#e0e0e0" stroke="#999999" points="1128,-132 1085.75,-132 1085.75,-112 1128,-112 1128,-132"/>
<text text-anchor="middle" x="1106.88" y="-118.5" font-family="Helvetica,sans-Serif" font-size="10.00">queue</text>
</a>
</g>
</g>
<!-- Node15&#45;&gt;Node16 -->
<g id="edge18_Node000015_Node000016" class="edge">
<title>Node15&#45;&gt;Node16</title>
<g id="a_edge18_Node000015_Node000016"><a xlink:title=" ">
<path fill="none" stroke="#63b8ff" d="M1115.13,-167.59C1113.9,-160.93 1112.2,-151.75 1110.66,-143.44"/>
<polygon fill="#63b8ff" stroke="#63b8ff" points="1114.13,-142.98 1108.87,-133.79 1107.25,-144.26 1114.13,-142.98"/>
</a>
</g>
</g>
<!-- Node17&#45;&gt;Node2 -->
<g id="edge24_Node000017_Node000002" class="edge">
<title>Node17&#45;&gt;Node2</title>
<g id="a_edge24_Node000017_Node000002"><a xlink:title=" ">
<path fill="none" stroke="#63b8ff" d="M706.84,-167.59C689.06,-159.24 662.81,-146.92 642.41,-137.34"/>
<polygon fill="#63b8ff" stroke="#63b8ff" points="643.97,-134.21 633.43,-133.12 641,-140.54 643.97,-134.21"/>
</a>
</g>
</g>
<!-- Node17&#45;&gt;Node5 -->
<g id="edge26_Node000017_Node000005" class="edge">
<title>Node17&#45;&gt;Node5</title>
<g id="a_edge26_Node000017_Node000005"><a xlink:title=" ">
<path fill="none" stroke="#63b8ff" d="M769.79,-167.53C802.48,-159.7 848.28,-147.39 886.88,-132 904.6,-124.93 906.76,-118 924.88,-112 947.88,-104.38 1097.63,-82.98 1171.63,-72.68"/>
<polygon fill="#63b8ff" stroke="#63b8ff" points="1171.9,-76.18 1181.32,-71.33 1170.94,-69.24 1171.9,-76.18"/>
</a>
</g>
</g>
<!-- Node18 -->
<g id="Node000018" class="node">
<title>Node18</title>
<g id="a_Node000018"><a xlink:title=" ">
<polygon fill="#e0e0e0" stroke="#999999" points="707.25,-76 624.5,-76 624.5,-56 707.25,-56 707.25,-76"/>
<text text-anchor="middle" x="665.88" y="-62.5" font-family="Helvetica,sans-Serif" font-size="10.00">unordered_map</text>
</a>
</g>
</g>
<!-- Node17&#45;&gt;Node18 -->
<g id="edge22_Node000017_Node000018" class="edge">
<title>Node17&#45;&gt;Node18</title>
<g id="a_edge22_Node000017_Node000018"><a xlink:title=" ">
<path fill="none" stroke="#63b8ff" d="M717.63,-167.7C709.44,-159.05 697.63,-145.51 689.88,-132 681.72,-117.78 675.44,-100.28 671.36,-87.02"/>
<polygon fill="#63b8ff" stroke="#63b8ff" points="674.8,-86.33 668.66,-77.71 668.08,-88.29 674.8,-86.33"/>
</a>
</g>
</g>
<!-- Node19 -->
<g id="Node000019" class="node">
<title>Node19</title>
<g id="a_Node000019"><a xlink:title=" ">
<polygon fill="#e0e0e0" stroke="#999999" points="973.88,-132 933.88,-132 933.88,-112 973.88,-112 973.88,-132"/>
<text text-anchor="middle" x="953.88" y="-118.5" font-family="Helvetica,sans-Serif" font-size="10.00">string</text>
</a>
</g>
</g>
<!-- Node17&#45;&gt;Node19 -->
<g id="edge23_Node000017_Node000019" class="edge">
<title>Node17&#45;&gt;Node19</title>
<g id="a_edge23_Node000017_Node000019"><a xlink:title=" ">
<path fill="none" stroke="#63b8ff" d="M769.13,-167.53C808.29,-158.66 868.12,-144.88 919.88,-132 920.7,-131.8 921.53,-131.59 922.37,-131.37"/>
<polygon fill="#63b8ff" stroke="#63b8ff" points="923.13,-134.79 931.94,-128.9 921.38,-128.02 923.13,-134.79"/>
</a>
</g>
</g>
<!-- Node20 -->
<g id="Node000020" class="node">
<title>Node20</title>
<g id="a_Node000020"><a xlink:title=" ">
<polygon fill="#e0e0e0" stroke="#999999" points="980.25,-76 921.5,-76 921.5,-56 980.25,-56 980.25,-76"/>
<text text-anchor="middle" x="950.88" y="-62.5" font-family="Helvetica,sans-Serif" font-size="10.00">stdexcept</text>
</a>
</g>
</g>
<!-- Node17&#45;&gt;Node20 -->
<g id="edge25_Node000017_Node000020" class="edge">
<title>Node17&#45;&gt;Node20</title>
<g id="a_edge25_Node000017_Node000020"><a xlink:title=" ">
<path fill="none" stroke="#63b8ff" d="M729.04,-167.88C732.9,-153.67 742.37,-126.38 760.88,-112 783.86,-94.14 861.51,-79.99 910.14,-72.61"/>
<polygon fill="#63b8ff" stroke="#63b8ff" points="910.35,-76.12 919.73,-71.19 909.33,-69.19 910.35,-76.12"/>
</a>
</g>
</g>
<!-- Node21 -->
<g id="Node000021" class="node">
<title>Node21</title>
<g id="a_Node000021"><a xlink:href="ComponentArray_8hpp.html" target="_top" xlink:title=" ">
<polygon fill="white" stroke="#666666" points="877.62,-132 770.12,-132 770.12,-112 877.62,-112 877.62,-132"/>
<text text-anchor="middle" x="823.88" y="-118.5" font-family="Helvetica,sans-Serif" font-size="10.00">ComponentArray.hpp</text>
</a>
</g>
</g>
<!-- Node17&#45;&gt;Node21 -->
<g id="edge27_Node000017_Node000021" class="edge">
<title>Node17&#45;&gt;Node21</title>
<g id="a_edge27_Node000017_Node000021"><a xlink:title=" ">
<path fill="none" stroke="#63b8ff" d="M743.77,-167.59C758.42,-159.44 779.9,-147.48 796.92,-138"/>
<polygon fill="#63b8ff" stroke="#63b8ff" points="798.49,-141.14 805.52,-133.22 795.08,-135.02 798.49,-141.14"/>
</a>
</g>
</g>
<!-- Node21&#45;&gt;Node5 -->
<g id="edge32_Node000021_Node000005" class="edge">
<title>Node21&#45;&gt;Node5</title>
<g id="a_edge32_Node000021_Node000005"><a xlink:title=" ">
<path fill="none" stroke="#63b8ff" d="M877.96,-113.49C956.67,-102.57 1101.06,-82.52 1171.72,-72.71"/>
<polygon fill="#63b8ff" stroke="#63b8ff" points="1171.89,-76.22 1181.32,-71.38 1170.93,-69.29 1171.89,-76.22"/>
</a>
</g>
</g>
<!-- Node21&#45;&gt;Node13 -->
<g id="edge31_Node000021_Node000013" class="edge">
<title>Node21&#45;&gt;Node13</title>
<g id="a_edge31_Node000021_Node000013"><a xlink:title=" ">
<path fill="none" stroke="#63b8ff" d="M874.02,-111.53C930.35,-100.9 1020.54,-83.87 1071.52,-74.24"/>
<polygon fill="#63b8ff" stroke="#63b8ff" points="1072.03,-77.71 1081.2,-72.41 1070.73,-70.83 1072.03,-77.71"/>
</a>
</g>
</g>
<!-- Node21&#45;&gt;Node18 -->
<g id="edge29_Node000021_Node000018" class="edge">
<title>Node21&#45;&gt;Node18</title>
<g id="a_edge29_Node000021_Node000018"><a xlink:title=" ">
<path fill="none" stroke="#63b8ff" d="M796.35,-111.59C770.91,-102.9 732.84,-89.89 704.38,-80.16"/>
<polygon fill="#63b8ff" stroke="#63b8ff" points="705.64,-76.89 695.04,-76.97 703.37,-83.52 705.64,-76.89"/>
</a>
</g>
</g>
<!-- Node21&#45;&gt;Node20 -->
<g id="edge30_Node000021_Node000020" class="edge">
<title>Node21&#45;&gt;Node20</title>
<g id="a_edge30_Node000021_Node000020"><a xlink:title=" ">
<path fill="none" stroke="#63b8ff" d="M846,-111.59C865.91,-103.13 895.43,-90.58 918.08,-80.94"/>
<polygon fill="#63b8ff" stroke="#63b8ff" points="919.35,-84.21 927.19,-77.07 916.62,-77.76 919.35,-84.21"/>
</a>
</g>
</g>
<!-- Node22 -->
<g id="Node000022" class="node">
<title>Node22</title>
<g id="a_Node000022"><a xlink:title=" ">
<polygon fill="#e0e0e0" stroke="#999999" points="852.88,-76 794.88,-76 794.88,-56 852.88,-56 852.88,-76"/>
<text text-anchor="middle" x="823.88" y="-62.5" font-family="Helvetica,sans-Serif" font-size="10.00">exception</text>
</a>
</g>
</g>
<!-- Node21&#45;&gt;Node22 -->
<g id="edge28_Node000021_Node000022" class="edge">
<title>Node21&#45;&gt;Node22</title>
<g id="a_edge28_Node000021_Node000022"><a xlink:title=" ">
<path fill="none" stroke="#63b8ff" d="M823.88,-111.59C823.88,-105.01 823.88,-95.96 823.88,-87.73"/>
<polygon fill="#63b8ff" stroke="#63b8ff" points="827.38,-87.81 823.88,-77.81 820.38,-87.81 827.38,-87.81"/>
</a>
</g>
</g>
<!-- Node23&#45;&gt;Node2 -->
<g id="edge36_Node000023_Node000002" class="edge">
<title>Node23&#45;&gt;Node2</title>
<g id="a_edge36_Node000023_Node000002"><a xlink:title=" ">
<path fill="none" stroke="#63b8ff" d="M867.4,-167.66C804.96,-156.74 703.32,-138.98 648.96,-129.48"/>
<polygon fill="#63b8ff" stroke="#63b8ff" points="649.73,-126.06 639.28,-127.79 648.53,-132.96 649.73,-126.06"/>
</a>
</g>
</g>
<!-- Node23&#45;&gt;Node18 -->
<g id="edge34_Node000023_Node000018" class="edge">
<title>Node23&#45;&gt;Node18</title>
<g id="a_edge34_Node000023_Node000018"><a xlink:title=" ">
<path fill="none" stroke="#63b8ff" d="M871.8,-167.56C839.36,-160.27 796.43,-148.61 760.88,-132 732.94,-118.95 704.18,-98.02 685.72,-83.45"/>
<polygon fill="#63b8ff" stroke="#63b8ff" points="688,-80.79 678.02,-77.24 683.61,-86.24 688,-80.79"/>
</a>
</g>
</g>
<!-- Node23&#45;&gt;Node19 -->
<g id="edge35_Node000023_Node000019" class="edge">
<title>Node23&#45;&gt;Node19</title>
<g id="a_edge35_Node000023_Node000019"><a xlink:title=" ">
<path fill="none" stroke="#63b8ff" d="M926.62,-167.59C930.93,-160.55 936.97,-150.67 942.26,-142"/>
<polygon fill="#63b8ff" stroke="#63b8ff" points="945.18,-143.95 947.4,-133.59 939.2,-140.3 945.18,-143.95"/>
</a>
</g>
</g>
<!-- Node23&#45;&gt;Node20 -->
<g id="edge37_Node000023_Node000020" class="edge">
<title>Node23&#45;&gt;Node20</title>
<g id="a_edge37_Node000023_Node000020"><a xlink:title=" ">
<path fill="none" stroke="#63b8ff" d="M942.94,-167.55C957.17,-160.15 974.54,-148.35 982.88,-132 991.04,-115.98 980.1,-97.57 968.85,-84.45"/>
<polygon fill="#63b8ff" stroke="#63b8ff" points="971.66,-82.33 962.28,-77.4 966.54,-87.1 971.66,-82.33"/>
</a>
</g>
</g>
<!-- Node23&#45;&gt;Node24 -->
<g id="edge38_Node000023_Node000024" class="edge">
<title>Node23&#45;&gt;Node24</title>
<g id="a_edge38_Node000023_Node000024"><a xlink:title=" ">
<path fill="none" stroke="#63b8ff" d="M973.92,-171.12C1070.04,-160.46 1271.43,-138.13 1362.01,-128.09"/>
<polygon fill="#63b8ff" stroke="#63b8ff" points="1362.21,-131.59 1371.76,-127 1361.44,-124.63 1362.21,-131.59"/>
</a>
</g>
</g>
<!-- Node24&#45;&gt;Node3 -->
<g id="edge39_Node000024_Node000003" class="edge">
<title>Node24&#45;&gt;Node3</title>
<g id="a_edge39_Node000024_Node000003"><a xlink:title=" ">
<path fill="none" stroke="#63b8ff" d="M1413.27,-111.59C1417.32,-104.55 1422.99,-94.67 1427.97,-86"/>
<polygon fill="#63b8ff" stroke="#63b8ff" points="1430.84,-88.03 1432.78,-77.61 1424.77,-84.54 1430.84,-88.03"/>
</a>
</g>
</g>
<!-- Node24&#45;&gt;Node5 -->
<g id="edge40_Node000024_Node000005" class="edge">
<title>Node24&#45;&gt;Node5</title>
<g id="a_edge40_Node000024_Node000005"><a xlink:title=" ">
<path fill="none" stroke="#63b8ff" d="M1373.91,-111.59C1340.53,-102.35 1289.55,-88.23 1253.92,-78.37"/>
<polygon fill="#63b8ff" stroke="#63b8ff" points="1254.97,-75.02 1244.4,-75.73 1253.1,-81.77 1254.97,-75.02"/>
</a>
</g>
</g>
<!-- Node25&#45;&gt;Node26 -->
<g id="edge42_Node000025_Node000026" class="edge">
<title>Node25&#45;&gt;Node26</title>
<g id="a_edge42_Node000025_Node000026"><a xlink:title=" ">
<path fill="none" stroke="#63b8ff" d="M466.24,-167.59C449.84,-159.32 425.72,-147.14 406.81,-137.6"/>
<polygon fill="#63b8ff" stroke="#63b8ff" points="408.51,-134.54 398.01,-133.16 405.36,-140.79 408.51,-134.54"/>
</a>
</g>
</g>
<!-- Node28 -->
<g id="Node000028" class="node">
<title>Node28</title>
<g id="a_Node000028"><a xlink:title=" ">
<polygon fill="#e0e0e0" stroke="#999999" points="567.88,-132 509.88,-132 509.88,-112 567.88,-112 567.88,-132"/>
<text text-anchor="middle" x="538.88" y="-118.5" font-family="Helvetica,sans-Serif" font-size="10.00">functional</text>
</a>
</g>
</g>
<!-- Node25&#45;&gt;Node28 -->
<g id="edge46_Node000025_Node000028" class="edge">
<title>Node25&#45;&gt;Node28</title>
<g id="a_edge46_Node000025_Node000028"><a xlink:title=" ">
<path fill="none" stroke="#63b8ff" d="M494.28,-167.59C501.79,-160.08 512.52,-149.35 521.57,-140.3"/>
<polygon fill="#63b8ff" stroke="#63b8ff" points="523.91,-142.91 528.51,-133.37 518.96,-137.96 523.91,-142.91"/>
</a>
</g>
</g>
<!-- Node29 -->
<g id="Node000029" class="node">
<title>Node29</title>
<g id="a_Node000029"><a xlink:title=" ">
<polygon fill="#e0e0e0" stroke="#999999" points="492.27,-132 463.48,-132 463.48,-112 492.27,-112 492.27,-132"/>
<text text-anchor="middle" x="477.88" y="-118.5" font-family="Helvetica,sans-Serif" font-size="10.00">list</text>
</a>
</g>
</g>
<!-- Node25&#45;&gt;Node29 -->
<g id="edge47_Node000025_Node000029" class="edge">
<title>Node25&#45;&gt;Node29</title>
<g id="a_edge47_Node000025_Node000029"><a xlink:title=" ">
<path fill="none" stroke="#63b8ff" d="M483.66,-167.59C482.79,-160.93 481.6,-151.75 480.52,-143.44"/>
<polygon fill="#63b8ff" stroke="#63b8ff" points="484.03,-143.27 479.27,-133.8 477.09,-144.17 484.03,-143.27"/>
</a>
</g>
</g>
<!-- Node26&#45;&gt;Node6 -->
<g id="edge43_Node000026_Node000006" class="edge">
<title>Node26&#45;&gt;Node6</title>
<g id="a_edge43_Node000026_Node000006"><a xlink:title=" ">
<path fill="none" stroke="#63b8ff" d="M374.55,-111.62C368.25,-93.84 354.43,-54.88 345.96,-31"/>
<polygon fill="#63b8ff" stroke="#63b8ff" points="349.34,-30.04 342.7,-21.78 342.74,-32.38 349.34,-30.04"/>
</a>
</g>
</g>
<!-- Node26&#45;&gt;Node18 -->
<g id="edge44_Node000026_Node000018" class="edge">
<title>Node26&#45;&gt;Node18</title>
<g id="a_edge44_Node000026_Node000018"><a xlink:title=" ">
<path fill="none" stroke="#63b8ff" d="M408.16,-114.73C412.75,-113.8 417.44,-112.86 421.88,-112 487.78,-99.18 563.88,-85.29 613.33,-76.39"/>
<polygon fill="#63b8ff" stroke="#63b8ff" points="613.67,-79.88 622.89,-74.67 612.43,-72.99 613.67,-79.88"/>
</a>
</g>
</g>
<!-- Node27 -->
<g id="Node000027" class="node">
<title>Node27</title>
<g id="a_Node000027"><a xlink:title=" ">
<polygon fill="#e0e0e0" stroke="#999999" points="417.75,-76 386,-76 386,-56 417.75,-56 417.75,-76"/>
<text text-anchor="middle" x="401.88" y="-62.5" font-family="Helvetica,sans-Serif" font-size="10.00">any</text>
</a>
</g>
</g>
<!-- Node26&#45;&gt;Node27 -->
<g id="edge45_Node000026_Node000027" class="edge">
<title>Node26&#45;&gt;Node27</title>
<g id="a_edge45_Node000026_Node000027"><a xlink:title=" ">
<path fill="none" stroke="#63b8ff" d="M382.06,-111.59C385.12,-104.7 389.39,-95.1 393.18,-86.57"/>
<polygon fill="#63b8ff" stroke="#63b8ff" points="396.26,-88.24 397.13,-77.68 389.87,-85.4 396.26,-88.24"/>
</a>
</g>
</g>
<!-- Node30&#45;&gt;Node5 -->
<g id="edge53_Node000030_Node000005" class="edge">
<title>Node30&#45;&gt;Node5</title>
<g id="a_edge53_Node000030_Node000005"><a xlink:title=" ">
<path fill="none" stroke="#63b8ff" d="M950.63,-279.52C1005.05,-270.26 1081.69,-255.87 1109.88,-244 1150.89,-226.73 1168.84,-225.45 1192.88,-188 1212.65,-157.19 1214.88,-113.18 1214.22,-87.6"/>
<polygon fill="#63b8ff" stroke="#63b8ff" points="1217.73,-87.71 1213.77,-77.88 1210.73,-88.03 1217.73,-87.71"/>
</a>
</g>
</g>
<!-- Node30&#45;&gt;Node12 -->
<g id="edge54_Node000030_Node000012" class="edge">
<title>Node30&#45;&gt;Node12</title>
<g id="a_edge54_Node000030_Node000012"><a xlink:title=" ">
<path fill="none" stroke="#63b8ff" d="M880.73,-279.59C871.55,-271.85 858.32,-260.69 847.39,-251.47"/>
<polygon fill="#63b8ff" stroke="#63b8ff" points="849.95,-249.05 840.05,-245.27 845.44,-254.4 849.95,-249.05"/>
</a>
</g>
</g>
<!-- Node30&#45;&gt;Node18 -->
<g id="edge50_Node000030_Node000018" class="edge">
<title>Node30&#45;&gt;Node18</title>
<g id="a_edge50_Node000030_Node000018"><a xlink:title=" ">
<path fill="none" stroke="#63b8ff" d="M830.95,-280.08C710.7,-261.87 452.25,-219.47 426.88,-188 407.86,-164.41 436.64,-126.11 454.88,-112 479.14,-93.22 558.78,-80.05 612.97,-72.99"/>
<polygon fill="#63b8ff" stroke="#63b8ff" points="613.13,-76.5 622.61,-71.77 612.25,-69.56 613.13,-76.5"/>
</a>
</g>
</g>
<!-- Node30&#45;&gt;Node19 -->
<g id="edge51_Node000030_Node000019" class="edge">
<title>Node30&#45;&gt;Node19</title>
<g id="a_edge51_Node000030_Node000019"><a xlink:title=" ">
<path fill="none" stroke="#63b8ff" d="M905.04,-279.67C926.23,-263.73 967.14,-228.98 982.88,-188 989.09,-171.82 979.79,-153.86 970.11,-140.93"/>
<polygon fill="#63b8ff" stroke="#63b8ff" points="972.9,-138.8 963.85,-133.3 967.49,-143.25 972.9,-138.8"/>
</a>
</g>
</g>
<!-- Node30&#45;&gt;Node20 -->
<g id="edge52_Node000030_Node000020" class="edge">
<title>Node30&#45;&gt;Node20</title>
<g id="a_edge52_Node000030_Node000020"><a xlink:title=" ">
<path fill="none" stroke="#63b8ff" d="M936.93,-279.5C1009.46,-263.19 1146.85,-227.76 1174.88,-188 1224.41,-117.73 1069.35,-84.39 992,-72.43"/>
<polygon fill="#63b8ff" stroke="#63b8ff" points="992.65,-68.98 982.24,-70.97 991.62,-75.91 992.65,-68.98"/>
</a>
</g>
</g>
<!-- Node30&#45;&gt;Node28 -->
<g id="edge49_Node000030_Node000028" class="edge">
<title>Node30&#45;&gt;Node28</title>
<g id="a_edge49_Node000030_Node000028"><a xlink:title=" ">
<path fill="none" stroke="#63b8ff" d="M860.95,-279.54C811.33,-263.8 711.51,-229.78 632.88,-188 606.14,-173.8 577.88,-153.43 559.41,-139.3"/>
<polygon fill="#63b8ff" stroke="#63b8ff" points="561.71,-136.65 551.67,-133.28 557.42,-142.18 561.71,-136.65"/>
</a>
</g>
</g>
<!-- Node32&#45;&gt;Node6 -->
<g id="edge58_Node000032_Node000006" class="edge">
<title>Node32&#45;&gt;Node6</title>
<g id="a_edge58_Node000032_Node000006"><a xlink:title=" ">
<path fill="none" stroke="#63b8ff" d="M251.17,-279.72C257.53,-260.95 270.88,-217.04 270.88,-179 270.88,-179 270.88,-179 270.88,-121 270.88,-83.65 299.6,-48.38 319.71,-28.27"/>
<polygon fill="#63b8ff" stroke="#63b8ff" points="322.05,-30.87 326.86,-21.43 317.21,-25.81 322.05,-30.87"/>
</a>
</g>
</g>
<!-- Node33&#45;&gt;Node32 -->
<g id="edge61_Node000033_Node000032" class="edge">
<title>Node33&#45;&gt;Node32</title>
<g id="a_edge61_Node000033_Node000032"><a xlink:title=" ">
<path fill="none" stroke="#63b8ff" d="M93.45,-335.59C125.6,-326.31 174.78,-312.11 208.97,-302.23"/>
<polygon fill="#63b8ff" stroke="#63b8ff" points="209.85,-305.62 218.49,-299.49 207.91,-298.9 209.85,-305.62"/>
</a>
</g>
</g>
<!-- Node34&#45;&gt;Node32 -->
<g id="edge63_Node000034_Node000032" class="edge">
<title>Node34&#45;&gt;Node32</title>
<g id="a_edge63_Node000034_Node000032"><a xlink:title=" ">
<path fill="none" stroke="#63b8ff" d="M215.67,-335.59C220.87,-328.39 228.21,-318.23 234.56,-309.43"/>
<polygon fill="#63b8ff" stroke="#63b8ff" points="237.26,-311.68 240.27,-301.53 231.58,-307.58 237.26,-311.68"/>
</a>
</g>
</g>
</g>
</svg>
