<?xml version="1.0" encoding="UTF-8" standalone="no"?>
<!DOCTYPE svg PUBLIC "-//W3C//DTD SVG 1.1//EN"
 "http://www.w3.org/Graphics/SVG/1.1/DTD/svg11.dtd">
<!-- Generated by graphviz version 12.1.0 (20240811.2233)
 -->
<!-- Title: Collision.hpp Pages: 1 -->
<svg width="1326pt" height="420pt"
 viewBox="0.00 0.00 1326.18 420.00" xmlns="http://www.w3.org/2000/svg" xmlns:xlink="http://www.w3.org/1999/xlink">
<g id="graph0" class="graph" transform="scale(1 1) rotate(0) translate(4 416)">
<title>Collision.hpp</title>
<!-- Node1 -->
<g id="Node000001" class="node">
<title>Node1</title>
<g id="a_Node000001"><a xlink:title=" ">
<polygon fill="#999999" stroke="#666666" points="357.12,-412 284.88,-412 284.88,-392 357.12,-392 357.12,-412"/>
<text text-anchor="middle" x="321" y="-398.5" font-family="Helvetica,sans-Serif" font-size="10.00">Collision.hpp</text>
</a>
</g>
</g>
<!-- Node2 -->
<g id="Node000002" class="node">
<title>Node2</title>
<g id="a_Node000002"><a xlink:title=" ">
<polygon fill="#e0e0e0" stroke="#999999" points="329.62,-132 278.38,-132 278.38,-112 329.62,-112 329.62,-132"/>
<text text-anchor="middle" x="304" y="-118.5" font-family="Helvetica,sans-Serif" font-size="10.00">memory</text>
</a>
</g>
</g>
<!-- Node1&#45;&gt;Node2 -->
<g id="edge1_Node000001_Node000002" class="edge">
<title>Node1&#45;&gt;Node2</title>
<g id="a_edge1_Node000001_Node000002"><a xlink:title=" ">
<path fill="none" stroke="#63b8ff" d="M307.7,-391.7C286.28,-375.82 244.93,-341.14 229,-300 206.08,-240.8 258.63,-171.85 287.15,-140.33"/>
<polygon fill="#63b8ff" stroke="#63b8ff" points="289.5,-142.94 293.77,-133.24 284.38,-138.16 289.5,-142.94"/>
</a>
</g>
</g>
<!-- Node3 -->
<g id="Node000003" class="node">
<title>Node3</title>
<g id="a_Node000003"><a xlink:title=" ">
<polygon fill="#e0e0e0" stroke="#999999" points="48.75,-76 19.25,-76 19.25,-56 48.75,-56 48.75,-76"/>
<text text-anchor="middle" x="34" y="-62.5" font-family="Helvetica,sans-Serif" font-size="10.00">set</text>
</a>
</g>
</g>
<!-- Node1&#45;&gt;Node3 -->
<g id="edge2_Node000001_Node000003" class="edge">
<title>Node1&#45;&gt;Node3</title>
<g id="a_edge2_Node000001_Node000003"><a xlink:title=" ">
<path fill="none" stroke="#63b8ff" d="M284.44,-399.04C217.26,-394.82 77.48,-382.99 38,-356 10.38,-337.11 0,-324.46 0,-291 0,-291 0,-291 0,-177 0,-144.13 14.03,-108.1 24.06,-86.53"/>
<polygon fill="#63b8ff" stroke="#63b8ff" points="27.1,-88.29 28.32,-77.77 20.8,-85.23 27.1,-88.29"/>
</a>
</g>
</g>
<!-- Node4 -->
<g id="Node000004" class="node">
<title>Node4</title>
<g id="a_Node000004"><a xlink:title=" ">
<polygon fill="#e0e0e0" stroke="#999999" points="105.62,-356 66.38,-356 66.38,-336 105.62,-336 105.62,-356"/>
<text text-anchor="middle" x="86" y="-342.5" font-family="Helvetica,sans-Serif" font-size="10.00">utility</text>
</a>
</g>
</g>
<!-- Node1&#45;&gt;Node4 -->
<g id="edge3_Node000001_Node000004" class="edge">
<title>Node1&#45;&gt;Node4</title>
<g id="a_edge3_Node000001_Node000004"><a xlink:title=" ">
<path fill="none" stroke="#63b8ff" d="M284.59,-393.29C244.25,-384.65 177.32,-370 120,-356 119.01,-355.76 118.01,-355.51 117,-355.26"/>
<polygon fill="#63b8ff" stroke="#63b8ff" points="118.13,-351.93 107.57,-352.84 116.38,-358.71 118.13,-351.93"/>
</a>
</g>
</g>
<!-- Node5 -->
<g id="Node000005" class="node">
<title>Node5</title>
<g id="a_Node000005"><a xlink:href="Entity_8hpp.html" target="_top" xlink:title=" ">
<polygon fill="white" stroke="#666666" points="282.75,-76 223.25,-76 223.25,-56 282.75,-56 282.75,-76"/>
<text text-anchor="middle" x="253" y="-62.5" font-family="Helvetica,sans-Serif" font-size="10.00">Entity.hpp</text>
</a>
</g>
</g>
<!-- Node1&#45;&gt;Node5 -->
<g id="edge4_Node000001_Node000005" class="edge">
<title>Node1&#45;&gt;Node5</title>
<g id="a_edge4_Node000001_Node000005"><a xlink:title=" ">
<path fill="none" stroke="#63b8ff" d="M297.86,-391.55C281.62,-383.95 260.32,-371.92 246,-356 227.65,-335.6 227.8,-326.31 220,-300 196.24,-219.89 182.33,-187.08 219,-112 223.71,-102.37 230.6,-92.74 236.96,-84.88"/>
<polygon fill="#63b8ff" stroke="#63b8ff" points="239.48,-87.33 243.28,-77.44 234.14,-82.8 239.48,-87.33"/>
</a>
</g>
</g>
<!-- Node8 -->
<g id="Node000008" class="node">
<title>Node8</title>
<g id="a_Node000008"><a xlink:href="NetworkManager_8hpp.html" target="_top" xlink:title=" ">
<polygon fill="white" stroke="#666666" points="552.5,-356 443.5,-356 443.5,-336 552.5,-336 552.5,-356"/>
<text text-anchor="middle" x="498" y="-342.5" font-family="Helvetica,sans-Serif" font-size="10.00">NetworkManager.hpp</text>
</a>
</g>
</g>
<!-- Node1&#45;&gt;Node8 -->
<g id="edge7_Node000001_Node000008" class="edge">
<title>Node1&#45;&gt;Node8</title>
<g id="a_edge7_Node000001_Node000008"><a xlink:title=" ">
<path fill="none" stroke="#63b8ff" d="M351.83,-391.59C380.71,-382.78 424.11,-369.54 456.12,-359.78"/>
<polygon fill="#63b8ff" stroke="#63b8ff" points="456.94,-363.19 465.48,-356.92 454.89,-356.49 456.94,-363.19"/>
</a>
</g>
</g>
<!-- Node25 -->
<g id="Node000025" class="node">
<title>Node25</title>
<g id="a_Node000025"><a xlink:href="System_8hpp.html" target="_top" xlink:title=" ">
<polygon fill="white" stroke="#666666" points="101.25,-132 32.75,-132 32.75,-112 101.25,-112 101.25,-132"/>
<text text-anchor="middle" x="67" y="-118.5" font-family="Helvetica,sans-Serif" font-size="10.00">System.hpp</text>
</a>
</g>
</g>
<!-- Node1&#45;&gt;Node25 -->
<g id="edge60_Node000001_Node000025" class="edge">
<title>Node1&#45;&gt;Node25</title>
<g id="a_edge60_Node000001_Node000025"><a xlink:title=" ">
<path fill="none" stroke="#63b8ff" d="M284.49,-399.45C220.11,-395.99 90.07,-385.45 57,-356 34.52,-335.98 38,-321.1 38,-291 38,-291 38,-291 38,-233 38,-200.67 49.86,-164.71 58.41,-142.98"/>
<polygon fill="#63b8ff" stroke="#63b8ff" points="61.58,-144.47 62.15,-133.89 55.11,-141.81 61.58,-144.47"/>
</a>
</g>
</g>
<!-- Node27 -->
<g id="Node000027" class="node">
<title>Node27</title>
<g id="a_Node000027"><a xlink:href="Event_8hpp.html" target="_top" xlink:title=" ">
<polygon fill="white" stroke="#666666" points="1267.12,-132 1206.88,-132 1206.88,-112 1267.12,-112 1267.12,-132"/>
<text text-anchor="middle" x="1237" y="-118.5" font-family="Helvetica,sans-Serif" font-size="10.00">Event.hpp</text>
</a>
</g>
</g>
<!-- Node1&#45;&gt;Node27 -->
<g id="edge66_Node000001_Node000027" class="edge">
<title>Node1&#45;&gt;Node27</title>
<g id="a_edge66_Node000001_Node000027"><a xlink:title=" ">
<path fill="none" stroke="#63b8ff" d="M357.59,-401.26C461,-401.43 763.95,-398.01 1011,-356 1102.42,-340.46 1138.09,-356.01 1212,-300 1235.21,-282.42 1238.15,-272.04 1246,-244 1255.62,-209.62 1248.56,-167.74 1242.69,-143.35"/>
<polygon fill="#63b8ff" stroke="#63b8ff" points="1246.11,-142.58 1240.2,-133.79 1239.33,-144.34 1246.11,-142.58"/>
</a>
</g>
</g>
<!-- Node32 -->
<g id="Node000032" class="node">
<title>Node32</title>
<g id="a_Node000032"><a xlink:href="Utils_8hpp.html" target="_top" xlink:title=" ">
<polygon fill="white" stroke="#666666" points="1202.5,-300 1147.5,-300 1147.5,-280 1202.5,-280 1202.5,-300"/>
<text text-anchor="middle" x="1175" y="-286.5" font-family="Helvetica,sans-Serif" font-size="10.00">Utils.hpp</text>
</a>
</g>
</g>
<!-- Node1&#45;&gt;Node32 -->
<g id="edge61_Node000001_Node000032" class="edge">
<title>Node1&#45;&gt;Node32</title>
<g id="a_edge61_Node000001_Node000032"><a xlink:title=" ">
<path fill="none" stroke="#63b8ff" d="M357.56,-401.2C455.54,-401.13 731.85,-397.02 957,-356 1022.63,-344.04 1096.55,-319.57 1139.26,-304.3"/>
<polygon fill="#63b8ff" stroke="#63b8ff" points="1140.29,-307.65 1148.51,-300.96 1137.92,-301.06 1140.29,-307.65"/>
</a>
</g>
</g>
<!-- Node34 -->
<g id="Node000034" class="node">
<title>Node34</title>
<g id="a_Node000034"><a xlink:href="Hitbox_8hpp.html" target="_top" xlink:title=" ">
<polygon fill="white" stroke="#666666" points="711.88,-356 590.12,-356 590.12,-336 711.88,-336 711.88,-356"/>
<text text-anchor="middle" x="651" y="-342.5" font-family="Helvetica,sans-Serif" font-size="10.00">Components/Hitbox.hpp</text>
</a>
</g>
</g>
<!-- Node1&#45;&gt;Node34 -->
<g id="edge67_Node000001_Node000034" class="edge">
<title>Node1&#45;&gt;Node34</title>
<g id="a_edge67_Node000001_Node000034"><a xlink:title=" ">
<path fill="none" stroke="#63b8ff" d="M357.58,-395.01C411.62,-386.17 513.78,-369.45 582.14,-358.27"/>
<polygon fill="#63b8ff" stroke="#63b8ff" points="582.43,-361.77 591.73,-356.7 581.3,-354.86 582.43,-361.77"/>
</a>
</g>
</g>
<!-- Node35 -->
<g id="Node000035" class="node">
<title>Node35</title>
<g id="a_Node000035"><a xlink:href="Transform_8hpp.html" target="_top" xlink:title=" ">
<polygon fill="white" stroke="#666666" points="947.75,-356 810.25,-356 810.25,-336 947.75,-336 947.75,-356"/>
<text text-anchor="middle" x="879" y="-342.5" font-family="Helvetica,sans-Serif" font-size="10.00">Components/Transform.hpp</text>
</a>
</g>
</g>
<!-- Node1&#45;&gt;Node35 -->
<g id="edge69_Node000001_Node000035" class="edge">
<title>Node1&#45;&gt;Node35</title>
<g id="a_edge69_Node000001_Node000035"><a xlink:title=" ">
<path fill="none" stroke="#63b8ff" d="M357.61,-397.46C446.61,-388.84 675.95,-366.65 798.69,-354.77"/>
<polygon fill="#63b8ff" stroke="#63b8ff" points="798.74,-358.28 808.35,-353.84 798.06,-351.32 798.74,-358.28"/>
</a>
</g>
</g>
<!-- Node6 -->
<g id="Node000006" class="node">
<title>Node6</title>
<g id="a_Node000006"><a xlink:title=" ">
<polygon fill="#e0e0e0" stroke="#999999" points="1273.62,-20 1228.38,-20 1228.38,0 1273.62,0 1273.62,-20"/>
<text text-anchor="middle" x="1251" y="-6.5" font-family="Helvetica,sans-Serif" font-size="10.00">cstdint</text>
</a>
</g>
</g>
<!-- Node5&#45;&gt;Node6 -->
<g id="edge5_Node000005_Node000006" class="edge">
<title>Node5&#45;&gt;Node6</title>
<g id="a_edge5_Node000005_Node000006"><a xlink:title=" ">
<path fill="none" stroke="#63b8ff" d="M283.2,-62.76C309.54,-60.84 348.79,-58.07 383,-56 707.4,-36.36 1100.34,-17.92 1216.87,-12.56"/>
<polygon fill="#63b8ff" stroke="#63b8ff" points="1216.85,-16.06 1226.68,-12.11 1216.53,-9.07 1216.85,-16.06"/>
</a>
</g>
</g>
<!-- Node7 -->
<g id="Node000007" class="node">
<title>Node7</title>
<g id="a_Node000007"><a xlink:title=" ">
<polygon fill="#e0e0e0" stroke="#999999" points="273,-20 233,-20 233,0 273,0 273,-20"/>
<text text-anchor="middle" x="253" y="-6.5" font-family="Helvetica,sans-Serif" font-size="10.00">bitset</text>
</a>
</g>
</g>
<!-- Node5&#45;&gt;Node7 -->
<g id="edge6_Node000005_Node000007" class="edge">
<title>Node5&#45;&gt;Node7</title>
<g id="a_edge6_Node000005_Node000007"><a xlink:title=" ">
<path fill="none" stroke="#63b8ff" d="M253,-55.59C253,-49.01 253,-39.96 253,-31.73"/>
<polygon fill="#63b8ff" stroke="#63b8ff" points="256.5,-31.81 253,-21.81 249.5,-31.81 256.5,-31.81"/>
</a>
</g>
</g>
<!-- Node8&#45;&gt;Node5 -->
<g id="edge15_Node000008_Node000005" class="edge">
<title>Node8&#45;&gt;Node5</title>
<g id="a_edge15_Node000008_Node000005"><a xlink:title=" ">
<path fill="none" stroke="#63b8ff" d="M443.2,-343.87C372.64,-341.12 255.89,-331.76 229,-300 176.42,-237.89 220.71,-130.51 242.55,-86.58"/>
<polygon fill="#63b8ff" stroke="#63b8ff" points="245.63,-88.24 247.09,-77.75 239.41,-85.04 245.63,-88.24"/>
</a>
</g>
</g>
<!-- Node8&#45;&gt;Node6 -->
<g id="edge9_Node000008_Node000006" class="edge">
<title>Node8&#45;&gt;Node6</title>
<g id="a_edge9_Node000008_Node000006"><a xlink:title=" ">
<path fill="none" stroke="#63b8ff" d="M552.89,-338.75C562.26,-337.76 571.9,-336.81 581,-336 696.16,-325.77 994.79,-347.91 1100,-300 1143.47,-280.2 1141.53,-257.07 1176,-224 1219.58,-182.19 1251.73,-187.3 1276,-132 1289.57,-101.07 1284.47,-88.7 1276,-56 1273.63,-46.84 1268.94,-37.56 1264.26,-29.83"/>
<polygon fill="#63b8ff" stroke="#63b8ff" points="1267.33,-28.12 1258.93,-21.66 1261.47,-31.95 1267.33,-28.12"/>
</a>
</g>
</g>
<!-- Node9 -->
<g id="Node000009" class="node">
<title>Node9</title>
<g id="a_Node000009"><a xlink:title=" ">
<polygon fill="#e0e0e0" stroke="#999999" points="1090.62,-300 1045.38,-300 1045.38,-280 1090.62,-280 1090.62,-300"/>
<text text-anchor="middle" x="1068" y="-286.5" font-family="Helvetica,sans-Serif" font-size="10.00">chrono</text>
</a>
</g>
</g>
<!-- Node8&#45;&gt;Node9 -->
<g id="edge8_Node000008_Node000009" class="edge">
<title>Node8&#45;&gt;Node9</title>
<g id="a_edge8_Node000008_Node000009"><a xlink:title=" ">
<path fill="none" stroke="#63b8ff" d="M552.89,-338.83C562.27,-337.84 571.91,-336.86 581,-336 780.75,-317.18 832.9,-331.81 1031,-300 1032,-299.84 1033.01,-299.67 1034.03,-299.48"/>
<polygon fill="#63b8ff" stroke="#63b8ff" points="1034.47,-302.97 1043.54,-297.5 1033.04,-296.11 1034.47,-302.97"/>
</a>
</g>
</g>
<!-- Node10 -->
<g id="Node000010" class="node">
<title>Node10</title>
<g id="a_Node000010"><a xlink:title=" ">
<polygon fill="#e0e0e0" stroke="#999999" points="317.88,-300 238.12,-300 238.12,-280 317.88,-280 317.88,-300"/>
<text text-anchor="middle" x="278" y="-286.5" font-family="Helvetica,sans-Serif" font-size="10.00">boost/asio.hpp</text>
</a>
</g>
</g>
<!-- Node8&#45;&gt;Node10 -->
<g id="edge10_Node000008_Node000010" class="edge">
<title>Node8&#45;&gt;Node10</title>
<g id="a_edge10_Node000008_Node000010"><a xlink:title=" ">
<path fill="none" stroke="#63b8ff" d="M459.43,-335.53C422.78,-326.54 367.51,-312.97 327.61,-303.18"/>
<polygon fill="#63b8ff" stroke="#63b8ff" points="328.54,-299.8 318,-300.82 326.88,-306.6 328.54,-299.8"/>
</a>
</g>
</g>
<!-- Node11 -->
<g id="Node000011" class="node">
<title>Node11</title>
<g id="a_Node000011"><a xlink:title=" ">
<polygon fill="#e0e0e0" stroke="#999999" points="956.88,-132 919.12,-132 919.12,-112 956.88,-112 956.88,-132"/>
<text text-anchor="middle" x="938" y="-118.5" font-family="Helvetica,sans-Serif" font-size="10.00">array</text>
</a>
</g>
</g>
<!-- Node8&#45;&gt;Node11 -->
<g id="edge11_Node000008_Node000011" class="edge">
<title>Node8&#45;&gt;Node11</title>
<g id="a_edge11_Node000008_Node000011"><a xlink:title=" ">
<path fill="none" stroke="#63b8ff" d="M552.76,-339.09C620.38,-331.24 731.1,-316.45 769,-300 845.59,-266.76 904.18,-180.25 927.28,-141.84"/>
<polygon fill="#63b8ff" stroke="#63b8ff" points="930.03,-144.07 932.07,-133.67 923.99,-140.53 930.03,-144.07"/>
</a>
</g>
</g>
<!-- Node12 -->
<g id="Node000012" class="node">
<title>Node12</title>
<g id="a_Node000012"><a xlink:title=" ">
<polygon fill="#e0e0e0" stroke="#999999" points="378.5,-300 335.5,-300 335.5,-280 378.5,-280 378.5,-300"/>
<text text-anchor="middle" x="357" y="-286.5" font-family="Helvetica,sans-Serif" font-size="10.00">thread</text>
</a>
</g>
</g>
<!-- Node8&#45;&gt;Node12 -->
<g id="edge12_Node000008_Node000012" class="edge">
<title>Node8&#45;&gt;Node12</title>
<g id="a_edge12_Node000008_Node000012"><a xlink:title=" ">
<path fill="none" stroke="#63b8ff" d="M473.44,-335.59C450.21,-326.7 415.19,-313.29 389.62,-303.49"/>
<polygon fill="#63b8ff" stroke="#63b8ff" points="390.97,-300.26 380.38,-299.95 388.46,-306.8 390.97,-300.26"/>
</a>
</g>
</g>
<!-- Node13 -->
<g id="Node000013" class="node">
<title>Node13</title>
<g id="a_Node000013"><a xlink:title=" ">
<polygon fill="#e0e0e0" stroke="#999999" points="1014.38,-76 931.62,-76 931.62,-56 1014.38,-56 1014.38,-76"/>
<text text-anchor="middle" x="973" y="-62.5" font-family="Helvetica,sans-Serif" font-size="10.00">unordered_map</text>
</a>
</g>
</g>
<!-- Node8&#45;&gt;Node13 -->
<g id="edge13_Node000008_Node000013" class="edge">
<title>Node8&#45;&gt;Node13</title>
<g id="a_edge13_Node000008_Node000013"><a xlink:title=" ">
<path fill="none" stroke="#63b8ff" d="M552.81,-338.88C613.78,-331.6 715.01,-318.12 801,-300 893,-280.61 916.11,-274.63 1005,-244 1066.02,-222.97 1101.8,-240.75 1139,-188 1158.48,-160.37 1162.6,-138.8 1142,-112 1127.79,-93.51 1069.77,-81 1025.64,-73.96"/>
<polygon fill="#63b8ff" stroke="#63b8ff" points="1026.39,-70.53 1015.97,-72.48 1025.32,-77.45 1026.39,-70.53"/>
</a>
</g>
</g>
<!-- Node14 -->
<g id="Node000014" class="node">
<title>Node14</title>
<g id="a_Node000014"><a xlink:title=" ">
<polygon fill="#e0e0e0" stroke="#999999" points="390.5,-132 347.5,-132 347.5,-112 390.5,-112 390.5,-132"/>
<text text-anchor="middle" x="369" y="-118.5" font-family="Helvetica,sans-Serif" font-size="10.00">vector</text>
</a>
</g>
</g>
<!-- Node8&#45;&gt;Node14 -->
<g id="edge14_Node000008_Node000014" class="edge">
<title>Node8&#45;&gt;Node14</title>
<g id="a_edge14_Node000008_Node000014"><a xlink:title=" ">
<path fill="none" stroke="#63b8ff" d="M490.65,-335.54C472.46,-311.78 424.57,-247.28 394,-188 386.45,-173.36 379.85,-155.88 375.33,-142.74"/>
<polygon fill="#63b8ff" stroke="#63b8ff" points="378.75,-141.92 372.28,-133.53 372.11,-144.13 378.75,-141.92"/>
</a>
</g>
</g>
<!-- Node15 -->
<g id="Node000015" class="node">
<title>Node15</title>
<g id="a_Node000015"><a xlink:href="Mediator_8hpp.html" target="_top" xlink:title=" ">
<polygon fill="white" stroke="#666666" points="534.12,-244 461.88,-244 461.88,-224 534.12,-224 534.12,-244"/>
<text text-anchor="middle" x="498" y="-230.5" font-family="Helvetica,sans-Serif" font-size="10.00">Mediator.hpp</text>
</a>
</g>
</g>
<!-- Node8&#45;&gt;Node15 -->
<g id="edge16_Node000008_Node000015" class="edge">
<title>Node8&#45;&gt;Node15</title>
<g id="a_edge16_Node000008_Node000015"><a xlink:title=" ">
<path fill="none" stroke="#63b8ff" d="M498,-335.62C498,-318.01 498,-279.59 498,-255.65"/>
<polygon fill="#63b8ff" stroke="#63b8ff" points="501.5,-255.87 498,-245.87 494.5,-255.87 501.5,-255.87"/>
</a>
</g>
</g>
<!-- Node31 -->
<g id="Node000031" class="node">
<title>Node31</title>
<g id="a_Node000031"><a xlink:href="ComponentRegistry_8hpp.html" target="_top" xlink:title=" ">
<polygon fill="white" stroke="#666666" points="759.5,-300 638.5,-300 638.5,-280 759.5,-280 759.5,-300"/>
<text text-anchor="middle" x="699" y="-286.5" font-family="Helvetica,sans-Serif" font-size="10.00">ComponentRegistry.hpp</text>
</a>
</g>
</g>
<!-- Node8&#45;&gt;Node31 -->
<g id="edge53_Node000008_Node000031" class="edge">
<title>Node8&#45;&gt;Node31</title>
<g id="a_edge53_Node000008_Node000031"><a xlink:title=" ">
<path fill="none" stroke="#63b8ff" d="M533.01,-335.59C566.24,-326.67 616.39,-313.19 652.87,-303.39"/>
<polygon fill="#63b8ff" stroke="#63b8ff" points="653.5,-306.85 662.25,-300.87 651.69,-300.09 653.5,-306.85"/>
</a>
</g>
</g>
<!-- Node15&#45;&gt;Node2 -->
<g id="edge18_Node000015_Node000002" class="edge">
<title>Node15&#45;&gt;Node2</title>
<g id="a_edge18_Node000015_Node000002"><a xlink:title=" ">
<path fill="none" stroke="#63b8ff" d="M472.04,-223.58C450.53,-215.35 419.48,-202.49 394,-188 368.69,-173.61 341.92,-153.58 324.22,-139.57"/>
<polygon fill="#63b8ff" stroke="#63b8ff" points="326.56,-136.95 316.57,-133.42 322.18,-142.41 326.56,-136.95"/>
</a>
</g>
</g>
<!-- Node15&#45;&gt;Node14 -->
<g id="edge19_Node000015_Node000014" class="edge">
<title>Node15&#45;&gt;Node14</title>
<g id="a_edge19_Node000015_Node000014"><a xlink:title=" ">
<path fill="none" stroke="#63b8ff" d="M474.71,-223.58C457.28,-215.78 433.53,-203.48 416,-188 401.03,-174.78 388.08,-155.97 379.58,-141.98"/>
<polygon fill="#63b8ff" stroke="#63b8ff" points="382.82,-140.58 374.76,-133.71 376.77,-144.11 382.82,-140.58"/>
</a>
</g>
</g>
<!-- Node16 -->
<g id="Node000016" class="node">
<title>Node16</title>
<g id="a_Node000016"><a xlink:title=" ">
<polygon fill="#e0e0e0" stroke="#999999" points="445.75,-76 392.25,-76 392.25,-56 445.75,-56 445.75,-76"/>
<text text-anchor="middle" x="419" y="-62.5" font-family="Helvetica,sans-Serif" font-size="10.00">iostream</text>
</a>
</g>
</g>
<!-- Node15&#45;&gt;Node16 -->
<g id="edge17_Node000015_Node000016" class="edge">
<title>Node15&#45;&gt;Node16</title>
<g id="a_edge17_Node000015_Node000016"><a xlink:title=" ">
<path fill="none" stroke="#63b8ff" d="M461.73,-229.95C407.49,-223.13 307.51,-201.32 269,-132 244.2,-87.37 328.33,-73.37 380.54,-68.98"/>
<polygon fill="#63b8ff" stroke="#63b8ff" points="380.55,-72.49 390.27,-68.26 380.03,-65.51 380.55,-72.49"/>
</a>
</g>
</g>
<!-- Node17 -->
<g id="Node000017" class="node">
<title>Node17</title>
<g id="a_Node000017"><a xlink:href="EntityManager_8hpp.html" target="_top" xlink:title=" ">
<polygon fill="white" stroke="#666666" points="862.88,-188 765.12,-188 765.12,-168 862.88,-168 862.88,-188"/>
<text text-anchor="middle" x="814" y="-174.5" font-family="Helvetica,sans-Serif" font-size="10.00">EntityManager.hpp</text>
</a>
</g>
</g>
<!-- Node15&#45;&gt;Node17 -->
<g id="edge20_Node000015_Node000017" class="edge">
<title>Node15&#45;&gt;Node17</title>
<g id="a_edge20_Node000015_Node000017"><a xlink:title=" ">
<path fill="none" stroke="#63b8ff" d="M534.56,-226.75C588.2,-217.59 688.87,-200.38 753.6,-189.32"/>
<polygon fill="#63b8ff" stroke="#63b8ff" points="754.09,-192.79 763.36,-187.65 752.92,-185.89 754.09,-192.79"/>
</a>
</g>
</g>
<!-- Node19 -->
<g id="Node000019" class="node">
<title>Node19</title>
<g id="a_Node000019"><a xlink:href="ComponentManager_8hpp.html" target="_top" xlink:title=" ">
<polygon fill="white" stroke="#666666" points="671.25,-188 548.75,-188 548.75,-168 671.25,-168 671.25,-188"/>
<text text-anchor="middle" x="610" y="-174.5" font-family="Helvetica,sans-Serif" font-size="10.00">ComponentManager.hpp</text>
</a>
</g>
</g>
<!-- Node15&#45;&gt;Node19 -->
<g id="edge24_Node000015_Node000019" class="edge">
<title>Node15&#45;&gt;Node19</title>
<g id="a_edge24_Node000015_Node000019"><a xlink:title=" ">
<path fill="none" stroke="#63b8ff" d="M517.51,-223.59C534.75,-215.28 560.16,-203.03 579.99,-193.47"/>
<polygon fill="#63b8ff" stroke="#63b8ff" points="581.49,-196.63 588.98,-189.14 578.45,-190.33 581.49,-196.63"/>
</a>
</g>
</g>
<!-- Node24 -->
<g id="Node000024" class="node">
<title>Node24</title>
<g id="a_Node000024"><a xlink:href="SystemManager_8hpp.html" target="_top" xlink:title=" ">
<polygon fill="white" stroke="#666666" points="531,-188 425,-188 425,-168 531,-168 531,-188"/>
<text text-anchor="middle" x="478" y="-174.5" font-family="Helvetica,sans-Serif" font-size="10.00">SystemManager.hpp</text>
</a>
</g>
</g>
<!-- Node15&#45;&gt;Node24 -->
<g id="edge37_Node000015_Node000024" class="edge">
<title>Node15&#45;&gt;Node24</title>
<g id="a_edge37_Node000015_Node000024"><a xlink:title=" ">
<path fill="none" stroke="#63b8ff" d="M494.52,-223.59C491.99,-216.78 488.49,-207.32 485.36,-198.86"/>
<polygon fill="#63b8ff" stroke="#63b8ff" points="488.72,-197.88 481.97,-189.72 482.16,-200.31 488.72,-197.88"/>
</a>
</g>
</g>
<!-- Node26 -->
<g id="Node000026" class="node">
<title>Node26</title>
<g id="a_Node000026"><a xlink:href="EventManager_8hpp.html" target="_top" xlink:title=" ">
<polygon fill="white" stroke="#666666" points="1092.88,-188 995.12,-188 995.12,-168 1092.88,-168 1092.88,-188"/>
<text text-anchor="middle" x="1044" y="-174.5" font-family="Helvetica,sans-Serif" font-size="10.00">EventManager.hpp</text>
</a>
</g>
</g>
<!-- Node15&#45;&gt;Node26 -->
<g id="edge46_Node000015_Node000026" class="edge">
<title>Node15&#45;&gt;Node26</title>
<g id="a_edge46_Node000015_Node000026"><a xlink:title=" ">
<path fill="none" stroke="#63b8ff" d="M534.25,-229.42C626.24,-220.32 869.52,-196.26 983.49,-184.98"/>
<polygon fill="#63b8ff" stroke="#63b8ff" points="983.65,-188.49 993.26,-184.02 982.96,-181.52 983.65,-188.49"/>
</a>
</g>
</g>
<!-- Node17&#45;&gt;Node5 -->
<g id="edge23_Node000017_Node000005" class="edge">
<title>Node17&#45;&gt;Node5</title>
<g id="a_edge23_Node000017_Node000005"><a xlink:title=" ">
<path fill="none" stroke="#63b8ff" d="M764.78,-172.47C684.46,-164.73 528.84,-148.23 476,-132 457,-126.16 454.65,-118.86 436,-112 388.55,-94.55 331.71,-81.77 294.11,-74.38"/>
<polygon fill="#63b8ff" stroke="#63b8ff" points="295.05,-71 284.57,-72.55 293.73,-77.87 295.05,-71"/>
</a>
</g>
</g>
<!-- Node17&#45;&gt;Node11 -->
<g id="edge22_Node000017_Node000011" class="edge">
<title>Node17&#45;&gt;Node11</title>
<g id="a_edge22_Node000017_Node000011"><a xlink:title=" ">
<path fill="none" stroke="#63b8ff" d="M835.6,-167.59C855.75,-158.82 886,-145.65 908.4,-135.89"/>
<polygon fill="#63b8ff" stroke="#63b8ff" points="909.53,-139.22 917.3,-132.02 906.73,-132.8 909.53,-139.22"/>
</a>
</g>
</g>
<!-- Node18 -->
<g id="Node000018" class="node">
<title>Node18</title>
<g id="a_Node000018"><a xlink:title=" ">
<polygon fill="#e0e0e0" stroke="#999999" points="863.12,-132 820.88,-132 820.88,-112 863.12,-112 863.12,-132"/>
<text text-anchor="middle" x="842" y="-118.5" font-family="Helvetica,sans-Serif" font-size="10.00">queue</text>
</a>
</g>
</g>
<!-- Node17&#45;&gt;Node18 -->
<g id="edge21_Node000017_Node000018" class="edge">
<title>Node17&#45;&gt;Node18</title>
<g id="a_edge21_Node000017_Node000018"><a xlink:title=" ">
<path fill="none" stroke="#63b8ff" d="M818.88,-167.59C822.49,-160.63 827.54,-150.89 832,-142.29"/>
<polygon fill="#63b8ff" stroke="#63b8ff" points="834.99,-144.13 836.48,-133.64 828.77,-140.91 834.99,-144.13"/>
</a>
</g>
</g>
<!-- Node19&#45;&gt;Node2 -->
<g id="edge27_Node000019_Node000002" class="edge">
<title>Node19&#45;&gt;Node2</title>
<g id="a_edge27_Node000019_Node000002"><a xlink:title=" ">
<path fill="none" stroke="#63b8ff" d="M548.37,-168.33C495.73,-160.57 417.78,-148.25 340.79,-132.22"/>
<polygon fill="#63b8ff" stroke="#63b8ff" points="341.92,-128.88 331.42,-130.25 340.48,-135.73 341.92,-128.88"/>
</a>
</g>
</g>
<!-- Node19&#45;&gt;Node5 -->
<g id="edge30_Node000019_Node000005" class="edge">
<title>Node19&#45;&gt;Node5</title>
<g id="a_edge30_Node000019_Node000005"><a xlink:title=" ">
<path fill="none" stroke="#63b8ff" d="M566.81,-167.52C532.72,-159.53 484.19,-147 443,-132 423.2,-124.79 419.68,-119.55 400,-112 364.76,-98.48 323.59,-86.17 293.8,-77.85"/>
<polygon fill="#63b8ff" stroke="#63b8ff" points="295,-74.55 284.43,-75.27 293.14,-81.3 295,-74.55"/>
</a>
</g>
</g>
<!-- Node19&#45;&gt;Node13 -->
<g id="edge25_Node000019_Node000013" class="edge">
<title>Node19&#45;&gt;Node13</title>
<g id="a_edge25_Node000019_Node000013"><a xlink:title=" ">
<path fill="none" stroke="#63b8ff" d="M627.24,-167.7C653.76,-153.75 706.51,-127.39 754,-112 809.54,-94.01 875.41,-81.62 920.31,-74.47"/>
<polygon fill="#63b8ff" stroke="#63b8ff" points="920.7,-77.95 930.04,-72.95 919.62,-71.03 920.7,-77.95"/>
</a>
</g>
</g>
<!-- Node19&#45;&gt;Node14 -->
<g id="edge29_Node000019_Node000014" class="edge">
<title>Node19&#45;&gt;Node14</title>
<g id="a_edge29_Node000019_Node000014"><a xlink:title=" ">
<path fill="none" stroke="#63b8ff" d="M565.13,-167.54C523.54,-158.68 459.98,-144.91 405,-132 403.84,-131.73 402.66,-131.45 401.47,-131.16"/>
<polygon fill="#63b8ff" stroke="#63b8ff" points="402.69,-127.86 392.15,-128.89 401.03,-134.66 402.69,-127.86"/>
</a>
</g>
</g>
<!-- Node20 -->
<g id="Node000020" class="node">
<title>Node20</title>
<g id="a_Node000020"><a xlink:title=" ">
<polygon fill="#e0e0e0" stroke="#999999" points="803,-132 763,-132 763,-112 803,-112 803,-132"/>
<text text-anchor="middle" x="783" y="-118.5" font-family="Helvetica,sans-Serif" font-size="10.00">string</text>
</a>
</g>
</g>
<!-- Node19&#45;&gt;Node20 -->
<g id="edge26_Node000019_Node000020" class="edge">
<title>Node19&#45;&gt;Node20</title>
<g id="a_edge26_Node000019_Node000020"><a xlink:title=" ">
<path fill="none" stroke="#63b8ff" d="M640.13,-167.59C671.43,-157.82 720.17,-142.61 751.84,-132.73"/>
<polygon fill="#63b8ff" stroke="#63b8ff" points="752.72,-136.12 761.23,-129.8 750.64,-129.43 752.72,-136.12"/>
</a>
</g>
</g>
<!-- Node21 -->
<g id="Node000021" class="node">
<title>Node21</title>
<g id="a_Node000021"><a xlink:title=" ">
<polygon fill="#e0e0e0" stroke="#999999" points="688.38,-76 629.62,-76 629.62,-56 688.38,-56 688.38,-76"/>
<text text-anchor="middle" x="659" y="-62.5" font-family="Helvetica,sans-Serif" font-size="10.00">stdexcept</text>
</a>
</g>
</g>
<!-- Node19&#45;&gt;Node21 -->
<g id="edge28_Node000019_Node000021" class="edge">
<title>Node19&#45;&gt;Node21</title>
<g id="a_edge28_Node000019_Node000021"><a xlink:title=" ">
<path fill="none" stroke="#63b8ff" d="M615.8,-167.57C621.17,-158.61 629.18,-144.67 635,-132 641.76,-117.27 648.06,-100.04 652.5,-87.02"/>
<polygon fill="#63b8ff" stroke="#63b8ff" points="655.71,-88.47 655.54,-77.87 649.06,-86.26 655.71,-88.47"/>
</a>
</g>
</g>
<!-- Node22 -->
<g id="Node000022" class="node">
<title>Node22</title>
<g id="a_Node000022"><a xlink:href="ComponentArray_8hpp.html" target="_top" xlink:title=" ">
<polygon fill="white" stroke="#666666" points="592.75,-132 485.25,-132 485.25,-112 592.75,-112 592.75,-132"/>
<text text-anchor="middle" x="539" y="-118.5" font-family="Helvetica,sans-Serif" font-size="10.00">ComponentArray.hpp</text>
</a>
</g>
</g>
<!-- Node19&#45;&gt;Node22 -->
<g id="edge31_Node000019_Node000022" class="edge">
<title>Node19&#45;&gt;Node22</title>
<g id="a_edge31_Node000019_Node000022"><a xlink:title=" ">
<path fill="none" stroke="#63b8ff" d="M597.63,-167.59C587.35,-159.77 572.48,-148.46 560.29,-139.19"/>
<polygon fill="#63b8ff" stroke="#63b8ff" points="562.51,-136.48 552.43,-133.21 558.27,-142.05 562.51,-136.48"/>
</a>
</g>
</g>
<!-- Node22&#45;&gt;Node5 -->
<g id="edge36_Node000022_Node000005" class="edge">
<title>Node22&#45;&gt;Node5</title>
<g id="a_edge36_Node000022_Node000005"><a xlink:title=" ">
<path fill="none" stroke="#63b8ff" d="M488.86,-111.53C433.45,-101.07 345.28,-84.42 293.89,-74.72"/>
<polygon fill="#63b8ff" stroke="#63b8ff" points="294.86,-71.34 284.38,-72.92 293.56,-78.22 294.86,-71.34"/>
</a>
</g>
</g>
<!-- Node22&#45;&gt;Node13 -->
<g id="edge33_Node000022_Node000013" class="edge">
<title>Node22&#45;&gt;Node13</title>
<g id="a_edge33_Node000022_Node000013"><a xlink:title=" ">
<path fill="none" stroke="#63b8ff" d="M593.09,-114.27C676.86,-103.85 836.96,-83.93 920.04,-73.59"/>
<polygon fill="#63b8ff" stroke="#63b8ff" points="920.24,-77.09 929.73,-72.38 919.38,-70.14 920.24,-77.09"/>
</a>
</g>
</g>
<!-- Node22&#45;&gt;Node16 -->
<g id="edge35_Node000022_Node000016" class="edge">
<title>Node22&#45;&gt;Node16</title>
<g id="a_edge35_Node000022_Node000016"><a xlink:title=" ">
<path fill="none" stroke="#63b8ff" d="M518.1,-111.59C499.37,-103.17 471.64,-90.69 450.28,-81.07"/>
<polygon fill="#63b8ff" stroke="#63b8ff" points="452,-78.01 441.45,-77.1 449.13,-84.4 452,-78.01"/>
</a>
</g>
</g>
<!-- Node22&#45;&gt;Node21 -->
<g id="edge34_Node000022_Node000021" class="edge">
<title>Node22&#45;&gt;Node21</title>
<g id="a_edge34_Node000022_Node000021"><a xlink:title=" ">
<path fill="none" stroke="#63b8ff" d="M559.9,-111.59C578.63,-103.17 606.36,-90.69 627.72,-81.07"/>
<polygon fill="#63b8ff" stroke="#63b8ff" points="628.87,-84.4 636.55,-77.1 626,-78.01 628.87,-84.4"/>
</a>
</g>
</g>
<!-- Node23 -->
<g id="Node000023" class="node">
<title>Node23</title>
<g id="a_Node000023"><a xlink:title=" ">
<polygon fill="#e0e0e0" stroke="#999999" points="568,-76 510,-76 510,-56 568,-56 568,-76"/>
<text text-anchor="middle" x="539" y="-62.5" font-family="Helvetica,sans-Serif" font-size="10.00">exception</text>
</a>
</g>
</g>
<!-- Node22&#45;&gt;Node23 -->
<g id="edge32_Node000022_Node000023" class="edge">
<title>Node22&#45;&gt;Node23</title>
<g id="a_edge32_Node000022_Node000023"><a xlink:title=" ">
<path fill="none" stroke="#63b8ff" d="M539,-111.59C539,-105.01 539,-95.96 539,-87.73"/>
<polygon fill="#63b8ff" stroke="#63b8ff" points="542.5,-87.81 539,-77.81 535.5,-87.81 542.5,-87.81"/>
</a>
</g>
</g>
<!-- Node24&#45;&gt;Node2 -->
<g id="edge41_Node000024_Node000002" class="edge">
<title>Node24&#45;&gt;Node2</title>
<g id="a_edge41_Node000024_Node000002"><a xlink:title=" ">
<path fill="none" stroke="#63b8ff" d="M447.69,-167.59C417.9,-158.35 372.41,-144.23 340.62,-134.36"/>
<polygon fill="#63b8ff" stroke="#63b8ff" points="342.02,-131.14 331.44,-131.51 339.95,-137.82 342.02,-131.14"/>
</a>
</g>
</g>
<!-- Node24&#45;&gt;Node13 -->
<g id="edge38_Node000024_Node000013" class="edge">
<title>Node24&#45;&gt;Node13</title>
<g id="a_edge38_Node000024_Node000013"><a xlink:title=" ">
<path fill="none" stroke="#63b8ff" d="M508.61,-167.59C560.55,-151.69 663.94,-120.43 701,-112 776.38,-94.84 864.91,-81.42 920,-73.85"/>
<polygon fill="#63b8ff" stroke="#63b8ff" points="920.29,-77.35 929.73,-72.53 919.35,-70.41 920.29,-77.35"/>
</a>
</g>
</g>
<!-- Node24&#45;&gt;Node14 -->
<g id="edge40_Node000024_Node000014" class="edge">
<title>Node24&#45;&gt;Node14</title>
<g id="a_edge40_Node000024_Node000014"><a xlink:title=" ">
<path fill="none" stroke="#63b8ff" d="M459.01,-167.59C442.24,-159.28 417.51,-147.03 398.21,-137.47"/>
<polygon fill="#63b8ff" stroke="#63b8ff" points="400.01,-134.45 389.49,-133.15 396.9,-140.73 400.01,-134.45"/>
</a>
</g>
</g>
<!-- Node24&#45;&gt;Node20 -->
<g id="edge39_Node000024_Node000020" class="edge">
<title>Node24&#45;&gt;Node20</title>
<g id="a_edge39_Node000024_Node000020"><a xlink:title=" ">
<path fill="none" stroke="#63b8ff" d="M531.48,-167.53C595.19,-156.25 699.54,-137.78 751.52,-128.57"/>
<polygon fill="#63b8ff" stroke="#63b8ff" points="751.94,-132.05 761.18,-126.86 750.72,-125.16 751.94,-132.05"/>
</a>
</g>
</g>
<!-- Node24&#45;&gt;Node21 -->
<g id="edge42_Node000024_Node000021" class="edge">
<title>Node24&#45;&gt;Node21</title>
<g id="a_edge42_Node000024_Node000021"><a xlink:title=" ">
<path fill="none" stroke="#63b8ff" d="M519.53,-167.56C544.85,-160.49 577.04,-149.06 602,-132 620.15,-119.6 636.19,-100.11 646.59,-85.71"/>
<polygon fill="#63b8ff" stroke="#63b8ff" points="649.44,-87.75 652.26,-77.53 643.68,-83.76 649.44,-87.75"/>
</a>
</g>
</g>
<!-- Node24&#45;&gt;Node25 -->
<g id="edge43_Node000024_Node000025" class="edge">
<title>Node24&#45;&gt;Node25</title>
<g id="a_edge43_Node000024_Node000025"><a xlink:title=" ">
<path fill="none" stroke="#63b8ff" d="M424.69,-170C343.29,-159.3 189.42,-139.08 112.78,-129.01"/>
<polygon fill="#63b8ff" stroke="#63b8ff" points="113.47,-125.58 103.1,-127.74 112.56,-132.52 113.47,-125.58"/>
</a>
</g>
</g>
<!-- Node25&#45;&gt;Node3 -->
<g id="edge44_Node000025_Node000003" class="edge">
<title>Node25&#45;&gt;Node3</title>
<g id="a_edge44_Node000025_Node000003"><a xlink:title=" ">
<path fill="none" stroke="#63b8ff" d="M61.25,-111.59C56.95,-104.55 50.91,-94.67 45.61,-86"/>
<polygon fill="#63b8ff" stroke="#63b8ff" points="48.67,-84.3 40.47,-77.59 42.7,-87.95 48.67,-84.3"/>
</a>
</g>
</g>
<!-- Node25&#45;&gt;Node5 -->
<g id="edge45_Node000025_Node000005" class="edge">
<title>Node25&#45;&gt;Node5</title>
<g id="a_edge45_Node000025_Node000005"><a xlink:title=" ">
<path fill="none" stroke="#63b8ff" d="M99.4,-111.59C130.63,-102.53 178.02,-88.77 211.89,-78.93"/>
<polygon fill="#63b8ff" stroke="#63b8ff" points="212.74,-82.33 221.37,-76.18 210.79,-75.61 212.74,-82.33"/>
</a>
</g>
</g>
<!-- Node26&#45;&gt;Node27 -->
<g id="edge47_Node000026_Node000027" class="edge">
<title>Node26&#45;&gt;Node27</title>
<g id="a_edge47_Node000026_Node000027"><a xlink:title=" ">
<path fill="none" stroke="#63b8ff" d="M1077.62,-167.59C1110.46,-158.41 1160.51,-144.4 1195.75,-134.54"/>
<polygon fill="#63b8ff" stroke="#63b8ff" points="1196.48,-137.97 1205.17,-131.91 1194.59,-131.23 1196.48,-137.97"/>
</a>
</g>
</g>
<!-- Node29 -->
<g id="Node000029" class="node">
<title>Node29</title>
<g id="a_Node000029"><a xlink:title=" ">
<polygon fill="#e0e0e0" stroke="#999999" points="1113,-132 1055,-132 1055,-112 1113,-112 1113,-132"/>
<text text-anchor="middle" x="1084" y="-118.5" font-family="Helvetica,sans-Serif" font-size="10.00">functional</text>
</a>
</g>
</g>
<!-- Node26&#45;&gt;Node29 -->
<g id="edge51_Node000026_Node000029" class="edge">
<title>Node26&#45;&gt;Node29</title>
<g id="a_edge51_Node000026_Node000029"><a xlink:title=" ">
<path fill="none" stroke="#63b8ff" d="M1050.97,-167.59C1056.3,-160.39 1063.83,-150.23 1070.35,-141.43"/>
<polygon fill="#63b8ff" stroke="#63b8ff" points="1073.07,-143.63 1076.21,-133.51 1067.45,-139.47 1073.07,-143.63"/>
</a>
</g>
</g>
<!-- Node30 -->
<g id="Node000030" class="node">
<title>Node30</title>
<g id="a_Node000030"><a xlink:title=" ">
<polygon fill="#e0e0e0" stroke="#999999" points="1037.4,-132 1008.6,-132 1008.6,-112 1037.4,-112 1037.4,-132"/>
<text text-anchor="middle" x="1023" y="-118.5" font-family="Helvetica,sans-Serif" font-size="10.00">list</text>
</a>
</g>
</g>
<!-- Node26&#45;&gt;Node30 -->
<g id="edge52_Node000026_Node000030" class="edge">
<title>Node26&#45;&gt;Node30</title>
<g id="a_edge52_Node000026_Node000030"><a xlink:title=" ">
<path fill="none" stroke="#63b8ff" d="M1040.34,-167.59C1037.69,-160.78 1034.01,-151.32 1030.72,-142.86"/>
<polygon fill="#63b8ff" stroke="#63b8ff" points="1034.05,-141.76 1027.16,-133.71 1027.53,-144.3 1034.05,-141.76"/>
</a>
</g>
</g>
<!-- Node27&#45;&gt;Node6 -->
<g id="edge48_Node000027_Node000006" class="edge">
<title>Node27&#45;&gt;Node6</title>
<g id="a_edge48_Node000027_Node000006"><a xlink:title=" ">
<path fill="none" stroke="#63b8ff" d="M1232.97,-111.64C1228.04,-98.91 1220.95,-75.5 1226,-56 1228.37,-46.84 1233.06,-37.56 1237.74,-29.83"/>
<polygon fill="#63b8ff" stroke="#63b8ff" points="1240.53,-31.95 1243.07,-21.66 1234.67,-28.12 1240.53,-31.95"/>
</a>
</g>
</g>
<!-- Node27&#45;&gt;Node13 -->
<g id="edge49_Node000027_Node000013" class="edge">
<title>Node27&#45;&gt;Node13</title>
<g id="a_edge49_Node000027_Node000013"><a xlink:title=" ">
<path fill="none" stroke="#63b8ff" d="M1206.46,-114.75C1162.23,-105.71 1079.75,-88.84 1025.61,-77.76"/>
<polygon fill="#63b8ff" stroke="#63b8ff" points="1026.5,-74.37 1016,-75.8 1025.09,-81.23 1026.5,-74.37"/>
</a>
</g>
</g>
<!-- Node28 -->
<g id="Node000028" class="node">
<title>Node28</title>
<g id="a_Node000028"><a xlink:title=" ">
<polygon fill="#e0e0e0" stroke="#999999" points="1266.88,-76 1235.12,-76 1235.12,-56 1266.88,-56 1266.88,-76"/>
<text text-anchor="middle" x="1251" y="-62.5" font-family="Helvetica,sans-Serif" font-size="10.00">any</text>
</a>
</g>
</g>
<!-- Node27&#45;&gt;Node28 -->
<g id="edge50_Node000027_Node000028" class="edge">
<title>Node27&#45;&gt;Node28</title>
<g id="a_edge50_Node000027_Node000028"><a xlink:title=" ">
<path fill="none" stroke="#63b8ff" d="M1239.44,-111.59C1241.17,-104.93 1243.55,-95.75 1245.7,-87.44"/>
<polygon fill="#63b8ff" stroke="#63b8ff" points="1249.09,-88.32 1248.21,-77.76 1242.31,-86.56 1249.09,-88.32"/>
</a>
</g>
</g>
<!-- Node31&#45;&gt;Node5 -->
<g id="edge58_Node000031_Node000005" class="edge">
<title>Node31&#45;&gt;Node5</title>
<g id="a_edge58_Node000031_Node000005"><a xlink:title=" ">
<path fill="none" stroke="#63b8ff" d="M638.23,-289.24C552.47,-286.46 395.25,-269.55 295,-188 272.41,-169.63 270.55,-159.51 261,-132 256.02,-117.66 254.06,-100.6 253.32,-87.56"/>
<polygon fill="#63b8ff" stroke="#63b8ff" points="256.82,-87.49 252.98,-77.61 249.83,-87.73 256.82,-87.49"/>
</a>
</g>
</g>
<!-- Node31&#45;&gt;Node13 -->
<g id="edge55_Node000031_Node000013" class="edge">
<title>Node31&#45;&gt;Node13</title>
<g id="a_edge55_Node000031_Node000013"><a xlink:title=" ">
<path fill="none" stroke="#63b8ff" d="M759.79,-281.2C812.45,-273.78 890.41,-261.2 957,-244 975.44,-239.24 1107.54,-203.21 1119,-188 1139.34,-161 1142.15,-139.14 1122,-112 1100.1,-82.5 1059.43,-71.64 1026.11,-67.95"/>
<polygon fill="#63b8ff" stroke="#63b8ff" points="1026.45,-64.46 1016.18,-67.05 1025.82,-71.44 1026.45,-64.46"/>
</a>
</g>
</g>
<!-- Node31&#45;&gt;Node15 -->
<g id="edge59_Node000031_Node000015" class="edge">
<title>Node31&#45;&gt;Node15</title>
<g id="a_edge59_Node000031_Node000015"><a xlink:title=" ">
<path fill="none" stroke="#63b8ff" d="M663.99,-279.59C630.76,-270.67 580.61,-257.19 544.13,-247.39"/>
<polygon fill="#63b8ff" stroke="#63b8ff" points="545.31,-244.09 534.75,-244.87 543.5,-250.85 545.31,-244.09"/>
</a>
</g>
</g>
<!-- Node31&#45;&gt;Node20 -->
<g id="edge56_Node000031_Node000020" class="edge">
<title>Node31&#45;&gt;Node20</title>
<g id="a_edge56_Node000031_Node000020"><a xlink:title=" ">
<path fill="none" stroke="#63b8ff" d="M698.67,-279.69C698.36,-258.25 700.08,-204.44 723,-168 730.67,-155.81 742.91,-145.75 754.34,-138.26"/>
<polygon fill="#63b8ff" stroke="#63b8ff" points="756.03,-141.33 762.75,-133.14 752.39,-135.35 756.03,-141.33"/>
</a>
</g>
</g>
<!-- Node31&#45;&gt;Node21 -->
<g id="edge57_Node000031_Node000021" class="edge">
<title>Node31&#45;&gt;Node21</title>
<g id="a_edge57_Node000031_Node000021"><a xlink:title=" ">
<path fill="none" stroke="#63b8ff" d="M735.22,-279.59C776.71,-266.66 842.74,-238.97 872,-188 888.82,-158.71 893.27,-138.24 872,-112 850.78,-85.83 755.78,-74.28 700.07,-69.69"/>
<polygon fill="#63b8ff" stroke="#63b8ff" points="700.58,-66.21 690.33,-68.93 700.03,-73.19 700.58,-66.21"/>
</a>
</g>
</g>
<!-- Node31&#45;&gt;Node29 -->
<g id="edge54_Node000031_Node000029" class="edge">
<title>Node31&#45;&gt;Node29</title>
<g id="a_edge54_Node000031_Node000029"><a xlink:title=" ">
<path fill="none" stroke="#63b8ff" d="M746.24,-279.55C788.12,-270.96 850.85,-257.6 905,-244 916.04,-241.23 1095.14,-197.08 1102,-188 1112.12,-174.6 1105.25,-155.81 1097.25,-141.88"/>
<polygon fill="#63b8ff" stroke="#63b8ff" points="1100.31,-140.17 1091.99,-133.61 1094.41,-143.93 1100.31,-140.17"/>
</a>
</g>
</g>
<!-- Node32&#45;&gt;Node6 -->
<g id="edge62_Node000032_Node000006" class="edge">
<title>Node32&#45;&gt;Node6</title>
<g id="a_edge62_Node000032_Node000006"><a xlink:title=" ">
<path fill="none" stroke="#63b8ff" d="M1195.25,-279.61C1210.59,-271.75 1231.44,-259.35 1246,-244 1285.31,-202.57 1294.53,-187.25 1309,-132 1317.56,-99.32 1323.86,-86.33 1309,-56 1302.93,-43.61 1291.62,-33.65 1280.58,-26.28"/>
<polygon fill="#63b8ff" stroke="#63b8ff" points="1282.75,-23.5 1272.39,-21.27 1279.09,-29.47 1282.75,-23.5"/>
</a>
</g>
</g>
<!-- Node32&#45;&gt;Node11 -->
<g id="edge65_Node000032_Node000011" class="edge">
<title>Node32&#45;&gt;Node11</title>
<g id="a_edge65_Node000032_Node000011"><a xlink:title=" ">
<path fill="none" stroke="#63b8ff" d="M1165.97,-279.77C1151.95,-265.89 1123.57,-239.63 1095,-224 1050.24,-199.51 1027.32,-217.93 986,-188 969.52,-176.07 956.31,-156.79 947.95,-142.32"/>
<polygon fill="#63b8ff" stroke="#63b8ff" points="951.12,-140.83 943.26,-133.73 944.98,-144.18 951.12,-140.83"/>
</a>
</g>
</g>
<!-- Node32&#45;&gt;Node20 -->
<g id="edge63_Node000032_Node000020" class="edge">
<title>Node32&#45;&gt;Node20</title>
<g id="a_edge63_Node000032_Node000020"><a xlink:title=" ">
<path fill="none" stroke="#63b8ff" d="M1147.18,-284.33C1057.57,-269.01 780.8,-219.49 756,-188 744.94,-173.96 755.33,-154.75 766.27,-140.86"/>
<polygon fill="#63b8ff" stroke="#63b8ff" points="768.84,-143.24 772.69,-133.37 763.53,-138.68 768.84,-143.24"/>
</a>
</g>
</g>
<!-- Node33 -->
<g id="Node000033" class="node">
<title>Node33</title>
<g id="a_Node000033"><a xlink:title=" ">
<polygon fill="#e0e0e0" stroke="#999999" points="1236.62,-244 1185.38,-244 1185.38,-224 1236.62,-224 1236.62,-244"/>
<text text-anchor="middle" x="1211" y="-230.5" font-family="Helvetica,sans-Serif" font-size="10.00">ostream</text>
</a>
</g>
</g>
<!-- Node32&#45;&gt;Node33 -->
<g id="edge64_Node000032_Node000033" class="edge">
<title>Node32&#45;&gt;Node33</title>
<g id="a_edge64_Node000032_Node000033"><a xlink:title=" ">
<path fill="none" stroke="#63b8ff" d="M1181.27,-279.59C1186.02,-272.47 1192.7,-262.45 1198.52,-253.72"/>
<polygon fill="#63b8ff" stroke="#63b8ff" points="1201.33,-255.82 1203.96,-245.56 1195.5,-251.94 1201.33,-255.82"/>
</a>
</g>
</g>
<!-- Node34&#45;&gt;Node32 -->
<g id="edge68_Node000034_Node000032" class="edge">
<title>Node34&#45;&gt;Node32</title>
<g id="a_edge68_Node000034_Node000032"><a xlink:title=" ">
<path fill="none" stroke="#63b8ff" d="M712.15,-341.61C803.95,-336 982.64,-323.05 1133,-300 1134,-299.85 1135.01,-299.68 1136.03,-299.51"/>
<polygon fill="#63b8ff" stroke="#63b8ff" points="1136.39,-303.01 1145.58,-297.74 1135.11,-296.13 1136.39,-303.01"/>
</a>
</g>
</g>
<!-- Node35&#45;&gt;Node32 -->
<g id="edge70_Node000035_Node000032" class="edge">
<title>Node35&#45;&gt;Node32</title>
<g id="a_edge70_Node000035_Node000032"><a xlink:title=" ">
<path fill="none" stroke="#63b8ff" d="M935.85,-335.53C987.4,-326.79 1065.43,-313.22 1133,-300 1133.99,-299.81 1135,-299.61 1136.01,-299.4"/>
<polygon fill="#63b8ff" stroke="#63b8ff" points="1136.44,-302.89 1145.53,-297.45 1135.03,-296.03 1136.44,-302.89"/>
</a>
</g>
</g>
</g>
</svg>
