<?xml version="1.0" encoding="UTF-8" standalone="no"?>
<!DOCTYPE svg PUBLIC "-//W3C//DTD SVG 1.1//EN"
 "http://www.w3.org/Graphics/SVG/1.1/DTD/svg11.dtd">
<!-- Generated by graphviz version 12.1.0 (20240811.2233)
 -->
<!-- Title: ComponentManager.cpp Pages: 1 -->
<svg width="481pt" height="252pt"
 viewBox="0.00 0.00 481.00 252.00" xmlns="http://www.w3.org/2000/svg" xmlns:xlink="http://www.w3.org/1999/xlink">
<g id="graph0" class="graph" transform="scale(1 1) rotate(0) translate(4 248)">
<title>ComponentManager.cpp</title>
<!-- Node1 -->
<g id="Node000001" class="node">
<title>Node1</title>
<g id="a_Node000001"><a xlink:title=" ">
<polygon fill="#999999" stroke="#666666" points="164.25,-244 41.75,-244 41.75,-224 164.25,-224 164.25,-244"/>
<text text-anchor="middle" x="103" y="-230.5" font-family="Helvetica,sans-Serif" font-size="10.00">ComponentManager.cpp</text>
</a>
</g>
</g>
<!-- Node2 -->
<g id="Node000002" class="node">
<title>Node2</title>
<g id="a_Node000002"><a xlink:title=" ">
<polygon fill="#e0e0e0" stroke="#999999" points="40,-132 0,-132 0,-112 40,-112 40,-132"/>
<text text-anchor="middle" x="20" y="-118.5" font-family="Helvetica,sans-Serif" font-size="10.00">string</text>
</a>
</g>
</g>
<!-- Node1&#45;&gt;Node2 -->
<g id="edge1_Node000001_Node000002" class="edge">
<title>Node1&#45;&gt;Node2</title>
<g id="a_edge1_Node000001_Node000002"><a xlink:title=" ">
<path fill="none" stroke="#63b8ff" d="M95.92,-223.62C82.2,-205.44 51.76,-165.09 33.87,-141.38"/>
<polygon fill="#63b8ff" stroke="#63b8ff" points="36.79,-139.44 27.97,-133.56 31.2,-143.65 36.79,-139.44"/>
</a>
</g>
</g>
<!-- Node3 -->
<g id="Node000003" class="node">
<title>Node3</title>
<g id="a_Node000003"><a xlink:href="ComponentManager_8hpp.html" target="_top" xlink:title=" ">
<polygon fill="white" stroke="#666666" points="215.25,-188 92.75,-188 92.75,-168 215.25,-168 215.25,-188"/>
<text text-anchor="middle" x="154" y="-174.5" font-family="Helvetica,sans-Serif" font-size="10.00">ComponentManager.hpp</text>
</a>
</g>
</g>
<!-- Node1&#45;&gt;Node3 -->
<g id="edge2_Node000001_Node000003" class="edge">
<title>Node1&#45;&gt;Node3</title>
<g id="a_edge2_Node000001_Node000003"><a xlink:title=" ">
<path fill="none" stroke="#63b8ff" d="M111.88,-223.59C118.9,-216.16 128.9,-205.58 137.39,-196.58"/>
<polygon fill="#63b8ff" stroke="#63b8ff" points="139.86,-199.07 144.18,-189.4 134.77,-194.27 139.86,-199.07"/>
</a>
</g>
</g>
<!-- Node3&#45;&gt;Node2 -->
<g id="edge4_Node000003_Node000002" class="edge">
<title>Node3&#45;&gt;Node2</title>
<g id="a_edge4_Node000003_Node000002"><a xlink:title=" ">
<path fill="none" stroke="#63b8ff" d="M130.66,-167.59C108.55,-158.68 75.21,-145.25 50.9,-135.45"/>
<polygon fill="#63b8ff" stroke="#63b8ff" points="52.43,-132.3 41.85,-131.8 49.81,-138.79 52.43,-132.3"/>
</a>
</g>
</g>
<!-- Node4 -->
<g id="Node000004" class="node">
<title>Node4</title>
<g id="a_Node000004"><a xlink:title=" ">
<polygon fill="#e0e0e0" stroke="#999999" points="142.38,-76 59.62,-76 59.62,-56 142.38,-56 142.38,-76"/>
<text text-anchor="middle" x="101" y="-62.5" font-family="Helvetica,sans-Serif" font-size="10.00">unordered_map</text>
</a>
</g>
</g>
<!-- Node3&#45;&gt;Node4 -->
<g id="edge3_Node000003_Node000004" class="edge">
<title>Node3&#45;&gt;Node4</title>
<g id="a_edge3_Node000003_Node000004"><a xlink:title=" ">
<path fill="none" stroke="#63b8ff" d="M129.21,-167.53C114.04,-160.29 95.9,-148.69 87,-132 79.45,-117.83 84.23,-99.88 90.18,-86.43"/>
<polygon fill="#63b8ff" stroke="#63b8ff" points="93.19,-88.24 94.53,-77.73 86.93,-85.11 93.19,-88.24"/>
</a>
</g>
</g>
<!-- Node5 -->
<g id="Node000005" class="node">
<title>Node5</title>
<g id="a_Node000005"><a xlink:title=" ">
<polygon fill="#e0e0e0" stroke="#999999" points="147.62,-132 96.38,-132 96.38,-112 147.62,-112 147.62,-132"/>
<text text-anchor="middle" x="122" y="-118.5" font-family="Helvetica,sans-Serif" font-size="10.00">memory</text>
</a>
</g>
</g>
<!-- Node3&#45;&gt;Node5 -->
<g id="edge5_Node000003_Node000005" class="edge">
<title>Node3&#45;&gt;Node5</title>
<g id="a_edge5_Node000003_Node000005"><a xlink:title=" ">
<path fill="none" stroke="#63b8ff" d="M148.43,-167.59C144.25,-160.55 138.4,-150.67 133.26,-142"/>
<polygon fill="#63b8ff" stroke="#63b8ff" points="136.39,-140.42 128.28,-133.6 130.37,-143.99 136.39,-140.42"/>
</a>
</g>
</g>
<!-- Node6 -->
<g id="Node000006" class="node">
<title>Node6</title>
<g id="a_Node000006"><a xlink:title=" ">
<polygon fill="#e0e0e0" stroke="#999999" points="375.38,-76 316.62,-76 316.62,-56 375.38,-56 375.38,-76"/>
<text text-anchor="middle" x="346" y="-62.5" font-family="Helvetica,sans-Serif" font-size="10.00">stdexcept</text>
</a>
</g>
</g>
<!-- Node3&#45;&gt;Node6 -->
<g id="edge6_Node000003_Node000006" class="edge">
<title>Node3&#45;&gt;Node6</title>
<g id="a_edge6_Node000003_Node000006"><a xlink:title=" ">
<path fill="none" stroke="#63b8ff" d="M215.59,-170.33C264.34,-163.67 326.81,-151.55 343,-132 353.14,-119.75 353.04,-101.32 350.89,-87.21"/>
<polygon fill="#63b8ff" stroke="#63b8ff" points="354.37,-86.79 348.98,-77.67 347.51,-88.16 354.37,-86.79"/>
</a>
</g>
</g>
<!-- Node7 -->
<g id="Node000007" class="node">
<title>Node7</title>
<g id="a_Node000007"><a xlink:title=" ">
<polygon fill="#e0e0e0" stroke="#999999" points="208.5,-132 165.5,-132 165.5,-112 208.5,-112 208.5,-132"/>
<text text-anchor="middle" x="187" y="-118.5" font-family="Helvetica,sans-Serif" font-size="10.00">vector</text>
</a>
</g>
</g>
<!-- Node3&#45;&gt;Node7 -->
<g id="edge7_Node000003_Node000007" class="edge">
<title>Node3&#45;&gt;Node7</title>
<g id="a_edge7_Node000003_Node000007"><a xlink:title=" ">
<path fill="none" stroke="#63b8ff" d="M159.75,-167.59C164.05,-160.55 170.09,-150.67 175.39,-142"/>
<polygon fill="#63b8ff" stroke="#63b8ff" points="178.3,-143.95 180.53,-133.59 172.33,-140.3 178.3,-143.95"/>
</a>
</g>
</g>
<!-- Node8 -->
<g id="Node000008" class="node">
<title>Node8</title>
<g id="a_Node000008"><a xlink:href="Entity_8hpp.html" target="_top" xlink:title=" ">
<polygon fill="white" stroke="#666666" points="452.75,-76 393.25,-76 393.25,-56 452.75,-56 452.75,-76"/>
<text text-anchor="middle" x="423" y="-62.5" font-family="Helvetica,sans-Serif" font-size="10.00">Entity.hpp</text>
</a>
</g>
</g>
<!-- Node3&#45;&gt;Node8 -->
<g id="edge8_Node000003_Node000008" class="edge">
<title>Node3&#45;&gt;Node8</title>
<g id="a_edge8_Node000003_Node000008"><a xlink:title=" ">
<path fill="none" stroke="#63b8ff" d="M215.33,-173.18C258.4,-168.3 316.1,-157.2 361,-132 381.33,-120.59 399.06,-100.34 410.29,-85.46"/>
<polygon fill="#63b8ff" stroke="#63b8ff" points="413.08,-87.58 416.1,-77.43 407.4,-83.48 413.08,-87.58"/>
</a>
</g>
</g>
<!-- Node11 -->
<g id="Node000011" class="node">
<title>Node11</title>
<g id="a_Node000011"><a xlink:href="ComponentArray_8hpp.html" target="_top" xlink:title=" ">
<polygon fill="white" stroke="#666666" points="333.75,-132 226.25,-132 226.25,-112 333.75,-112 333.75,-132"/>
<text text-anchor="middle" x="280" y="-118.5" font-family="Helvetica,sans-Serif" font-size="10.00">ComponentArray.hpp</text>
</a>
</g>
</g>
<!-- Node3&#45;&gt;Node11 -->
<g id="edge11_Node000003_Node000011" class="edge">
<title>Node3&#45;&gt;Node11</title>
<g id="a_edge11_Node000003_Node000011"><a xlink:title=" ">
<path fill="none" stroke="#63b8ff" d="M175.95,-167.59C195.7,-159.13 224.99,-146.58 247.47,-136.94"/>
<polygon fill="#63b8ff" stroke="#63b8ff" points="248.68,-140.23 256.49,-133.08 245.92,-133.8 248.68,-140.23"/>
</a>
</g>
</g>
<!-- Node9 -->
<g id="Node000009" class="node">
<title>Node9</title>
<g id="a_Node000009"><a xlink:title=" ">
<polygon fill="#e0e0e0" stroke="#999999" points="414.62,-20 369.38,-20 369.38,0 414.62,0 414.62,-20"/>
<text text-anchor="middle" x="392" y="-6.5" font-family="Helvetica,sans-Serif" font-size="10.00">cstdint</text>
</a>
</g>
</g>
<!-- Node8&#45;&gt;Node9 -->
<g id="edge9_Node000008_Node000009" class="edge">
<title>Node8&#45;&gt;Node9</title>
<g id="a_edge9_Node000008_Node000009"><a xlink:title=" ">
<path fill="none" stroke="#63b8ff" d="M417.6,-55.59C413.56,-48.55 407.88,-38.67 402.91,-30"/>
<polygon fill="#63b8ff" stroke="#63b8ff" points="406.11,-28.54 398.09,-21.61 400.03,-32.03 406.11,-28.54"/>
</a>
</g>
</g>
<!-- Node10 -->
<g id="Node000010" class="node">
<title>Node10</title>
<g id="a_Node000010"><a xlink:title=" ">
<polygon fill="#e0e0e0" stroke="#999999" points="473,-20 433,-20 433,0 473,0 473,-20"/>
<text text-anchor="middle" x="453" y="-6.5" font-family="Helvetica,sans-Serif" font-size="10.00">bitset</text>
</a>
</g>
</g>
<!-- Node8&#45;&gt;Node10 -->
<g id="edge10_Node000008_Node000010" class="edge">
<title>Node8&#45;&gt;Node10</title>
<g id="a_edge10_Node000008_Node000010"><a xlink:title=" ">
<path fill="none" stroke="#63b8ff" d="M428.23,-55.59C432.1,-48.63 437.51,-38.89 442.28,-30.29"/>
<polygon fill="#63b8ff" stroke="#63b8ff" points="445.3,-32.06 447.1,-21.62 439.18,-28.66 445.3,-32.06"/>
</a>
</g>
</g>
<!-- Node11&#45;&gt;Node4 -->
<g id="edge13_Node000011_Node000004" class="edge">
<title>Node11&#45;&gt;Node4</title>
<g id="a_edge13_Node000011_Node000004"><a xlink:title=" ">
<path fill="none" stroke="#63b8ff" d="M248.82,-111.59C219.61,-102.78 175.72,-89.54 143.35,-79.78"/>
<polygon fill="#63b8ff" stroke="#63b8ff" points="144.46,-76.45 133.87,-76.92 142.43,-83.16 144.46,-76.45"/>
</a>
</g>
</g>
<!-- Node11&#45;&gt;Node6 -->
<g id="edge14_Node000011_Node000006" class="edge">
<title>Node11&#45;&gt;Node6</title>
<g id="a_edge14_Node000011_Node000006"><a xlink:title=" ">
<path fill="none" stroke="#63b8ff" d="M291.5,-111.59C300.96,-103.85 314.6,-92.69 325.87,-83.47"/>
<polygon fill="#63b8ff" stroke="#63b8ff" points="327.94,-86.3 333.46,-77.26 323.51,-80.88 327.94,-86.3"/>
</a>
</g>
</g>
<!-- Node11&#45;&gt;Node8 -->
<g id="edge16_Node000011_Node000008" class="edge">
<title>Node11&#45;&gt;Node8</title>
<g id="a_edge16_Node000011_Node000008"><a xlink:title=" ">
<path fill="none" stroke="#63b8ff" d="M304.91,-111.59C327.73,-102.97 361.78,-90.12 387.46,-80.42"/>
<polygon fill="#63b8ff" stroke="#63b8ff" points="388.36,-83.82 396.48,-77.01 385.89,-77.27 388.36,-83.82"/>
</a>
</g>
</g>
<!-- Node12 -->
<g id="Node000012" class="node">
<title>Node12</title>
<g id="a_Node000012"><a xlink:title=" ">
<polygon fill="#e0e0e0" stroke="#999999" points="227,-76 169,-76 169,-56 227,-56 227,-76"/>
<text text-anchor="middle" x="198" y="-62.5" font-family="Helvetica,sans-Serif" font-size="10.00">exception</text>
</a>
</g>
</g>
<!-- Node11&#45;&gt;Node12 -->
<g id="edge12_Node000011_Node000012" class="edge">
<title>Node11&#45;&gt;Node12</title>
<g id="a_edge12_Node000011_Node000012"><a xlink:title=" ">
<path fill="none" stroke="#63b8ff" d="M265.72,-111.59C253.56,-103.59 235.86,-91.93 221.6,-82.54"/>
<polygon fill="#63b8ff" stroke="#63b8ff" points="223.94,-79.89 213.66,-77.31 220.09,-85.73 223.94,-79.89"/>
</a>
</g>
</g>
<!-- Node13 -->
<g id="Node000013" class="node">
<title>Node13</title>
<g id="a_Node000013"><a xlink:title=" ">
<polygon fill="#e0e0e0" stroke="#999999" points="298.75,-76 245.25,-76 245.25,-56 298.75,-56 298.75,-76"/>
<text text-anchor="middle" x="272" y="-62.5" font-family="Helvetica,sans-Serif" font-size="10.00">iostream</text>
</a>
</g>
</g>
<!-- Node11&#45;&gt;Node13 -->
<g id="edge15_Node000011_Node000013" class="edge">
<title>Node11&#45;&gt;Node13</title>
<g id="a_edge15_Node000011_Node000013"><a xlink:title=" ">
<path fill="none" stroke="#63b8ff" d="M278.61,-111.59C277.62,-104.93 276.26,-95.75 275.03,-87.44"/>
<polygon fill="#63b8ff" stroke="#63b8ff" points="278.53,-87.17 273.6,-77.8 271.6,-88.2 278.53,-87.17"/>
</a>
</g>
</g>
</g>
</svg>
