<?xml version="1.0" encoding="UTF-8" standalone="no"?>
<!DOCTYPE svg PUBLIC "-//W3C//DTD SVG 1.1//EN"
 "http://www.w3.org/Graphics/SVG/1.1/DTD/svg11.dtd">
<!-- Generated by graphviz version 12.1.0 (20240811.2233)
 -->
<!-- Title: ComponentManager.cpp Pages: 1 -->
<svg width="416pt" height="252pt"
 viewBox="0.00 0.00 416.00 252.00" xmlns="http://www.w3.org/2000/svg" xmlns:xlink="http://www.w3.org/1999/xlink">
<g id="graph0" class="graph" transform="scale(1 1) rotate(0) translate(4 248)">
<title>ComponentManager.cpp</title>
<!-- Node1 -->
<g id="Node000001" class="node">
<title>Node1</title>
<g id="a_Node000001"><a xlink:title=" ">
<polygon fill="#999999" stroke="#666666" points="147.88,-244 25.38,-244 25.38,-224 147.88,-224 147.88,-244"/>
<text text-anchor="middle" x="86.62" y="-230.5" font-family="Helvetica,sans-Serif" font-size="10.00">ComponentManager.cpp</text>
</a>
</g>
</g>
<!-- Node2 -->
<g id="Node000002" class="node">
<title>Node2</title>
<g id="a_Node000002"><a xlink:title=" ">
<polygon fill="#e0e0e0" stroke="#999999" points="41.62,-132 1.62,-132 1.62,-112 41.62,-112 41.62,-132"/>
<text text-anchor="middle" x="21.62" y="-118.5" font-family="Helvetica,sans-Serif" font-size="10.00">string</text>
</a>
</g>
</g>
<!-- Node1&#45;&gt;Node2 -->
<g id="edge1_Node000001_Node000002" class="edge">
<title>Node1&#45;&gt;Node2</title>
<g id="a_edge1_Node000001_Node000002"><a xlink:title=" ">
<path fill="none" stroke="#63b8ff" d="M81.08,-223.62C70.43,-205.6 46.92,-165.81 32.87,-142.02"/>
<polygon fill="#63b8ff" stroke="#63b8ff" points="36.02,-140.49 27.92,-133.66 30,-144.05 36.02,-140.49"/>
</a>
</g>
</g>
<!-- Node3 -->
<g id="Node000003" class="node">
<title>Node3</title>
<g id="a_Node000003"><a xlink:href="ComponentManager_8hpp.html" target="_top" xlink:title=" ">
<polygon fill="white" stroke="#666666" points="212.88,-188 90.38,-188 90.38,-168 212.88,-168 212.88,-188"/>
<text text-anchor="middle" x="151.62" y="-174.5" font-family="Helvetica,sans-Serif" font-size="10.00">ComponentManager.hpp</text>
</a>
</g>
</g>
<!-- Node1&#45;&gt;Node3 -->
<g id="edge2_Node000001_Node000003" class="edge">
<title>Node1&#45;&gt;Node3</title>
<g id="a_edge2_Node000001_Node000003"><a xlink:title=" ">
<path fill="none" stroke="#63b8ff" d="M97.95,-223.59C107.27,-215.85 120.7,-204.69 131.8,-195.47"/>
<polygon fill="#63b8ff" stroke="#63b8ff" points="133.81,-198.35 139.27,-189.27 129.34,-192.96 133.81,-198.35"/>
</a>
</g>
</g>
<!-- Node3&#45;&gt;Node2 -->
<g id="edge4_Node000003_Node000002" class="edge">
<title>Node3&#45;&gt;Node2</title>
<g id="a_edge4_Node000003_Node000002"><a xlink:title=" ">
<path fill="none" stroke="#63b8ff" d="M128.98,-167.59C107.75,-158.78 75.85,-145.53 52.34,-135.76"/>
<polygon fill="#63b8ff" stroke="#63b8ff" points="53.85,-132.6 43.27,-131.99 51.17,-139.06 53.85,-132.6"/>
</a>
</g>
</g>
<!-- Node4 -->
<g id="Node000004" class="node">
<title>Node4</title>
<g id="a_Node000004"><a xlink:title=" ">
<polygon fill="#e0e0e0" stroke="#999999" points="331,-76 248.25,-76 248.25,-56 331,-56 331,-76"/>
<text text-anchor="middle" x="289.62" y="-62.5" font-family="Helvetica,sans-Serif" font-size="10.00">unordered_map</text>
</a>
</g>
</g>
<!-- Node3&#45;&gt;Node4 -->
<g id="edge3_Node000003_Node000004" class="edge">
<title>Node3&#45;&gt;Node4</title>
<g id="a_edge3_Node000003_Node000004"><a xlink:title=" ">
<path fill="none" stroke="#63b8ff" d="M213.33,-170.68C238.99,-164.78 266.7,-153.49 283.62,-132 293.4,-119.59 294.31,-101.44 293.11,-87.46"/>
<polygon fill="#63b8ff" stroke="#63b8ff" points="296.59,-87.05 291.81,-77.59 289.65,-87.96 296.59,-87.05"/>
</a>
</g>
</g>
<!-- Node5 -->
<g id="Node000005" class="node">
<title>Node5</title>
<g id="a_Node000005"><a xlink:title=" ">
<polygon fill="#e0e0e0" stroke="#999999" points="274.25,-132 223,-132 223,-112 274.25,-112 274.25,-132"/>
<text text-anchor="middle" x="248.62" y="-118.5" font-family="Helvetica,sans-Serif" font-size="10.00">memory</text>
</a>
</g>
</g>
<!-- Node3&#45;&gt;Node5 -->
<g id="edge5_Node000003_Node000005" class="edge">
<title>Node3&#45;&gt;Node5</title>
<g id="a_edge5_Node000003_Node000005"><a xlink:title=" ">
<path fill="none" stroke="#63b8ff" d="M168.52,-167.59C183.17,-159.44 204.65,-147.48 221.67,-138"/>
<polygon fill="#63b8ff" stroke="#63b8ff" points="223.24,-141.14 230.27,-133.22 219.83,-135.02 223.24,-141.14"/>
</a>
</g>
</g>
<!-- Node6 -->
<g id="Node000006" class="node">
<title>Node6</title>
<g id="a_Node000006"><a xlink:title=" ">
<polygon fill="#e0e0e0" stroke="#999999" points="408,-76 349.25,-76 349.25,-56 408,-56 408,-76"/>
<text text-anchor="middle" x="378.62" y="-62.5" font-family="Helvetica,sans-Serif" font-size="10.00">stdexcept</text>
</a>
</g>
</g>
<!-- Node3&#45;&gt;Node6 -->
<g id="edge6_Node000003_Node000006" class="edge">
<title>Node3&#45;&gt;Node6</title>
<g id="a_edge6_Node000003_Node000006"><a xlink:title=" ">
<path fill="none" stroke="#63b8ff" d="M201.24,-167.5C231.47,-160.43 270.19,-149.02 301.62,-132 324.81,-119.45 347.39,-99.14 362.03,-84.57"/>
<polygon fill="#63b8ff" stroke="#63b8ff" points="364.52,-87.03 369,-77.44 359.51,-82.14 364.52,-87.03"/>
</a>
</g>
</g>
<!-- Node7 -->
<g id="Node000007" class="node">
<title>Node7</title>
<g id="a_Node000007"><a xlink:href="Entity_8hpp.html" target="_top" xlink:title=" ">
<polygon fill="white" stroke="#666666" points="82.38,-76 22.88,-76 22.88,-56 82.38,-56 82.38,-76"/>
<text text-anchor="middle" x="52.62" y="-62.5" font-family="Helvetica,sans-Serif" font-size="10.00">Entity.hpp</text>
</a>
</g>
</g>
<!-- Node3&#45;&gt;Node7 -->
<g id="edge7_Node000003_Node000007" class="edge">
<title>Node3&#45;&gt;Node7</title>
<g id="a_edge7_Node000003_Node000007"><a xlink:title=" ">
<path fill="none" stroke="#63b8ff" d="M134.52,-167.66C120.85,-159.57 101.86,-146.85 88.62,-132 76.55,-118.46 66.88,-100.18 60.61,-86.46"/>
<polygon fill="#63b8ff" stroke="#63b8ff" points="63.96,-85.38 56.78,-77.59 57.54,-88.16 63.96,-85.38"/>
</a>
</g>
</g>
<!-- Node10 -->
<g id="Node000010" class="node">
<title>Node10</title>
<g id="a_Node000010"><a xlink:href="ComponentArray_8hpp.html" target="_top" xlink:title=" ">
<polygon fill="white" stroke="#666666" points="205.38,-132 97.88,-132 97.88,-112 205.38,-112 205.38,-132"/>
<text text-anchor="middle" x="151.62" y="-118.5" font-family="Helvetica,sans-Serif" font-size="10.00">ComponentArray.hpp</text>
</a>
</g>
</g>
<!-- Node3&#45;&gt;Node10 -->
<g id="edge10_Node000003_Node000010" class="edge">
<title>Node3&#45;&gt;Node10</title>
<g id="a_edge10_Node000003_Node000010"><a xlink:title=" ">
<path fill="none" stroke="#63b8ff" d="M151.62,-167.59C151.62,-161.01 151.62,-151.96 151.62,-143.73"/>
<polygon fill="#63b8ff" stroke="#63b8ff" points="155.13,-143.81 151.63,-133.81 148.13,-143.81 155.13,-143.81"/>
</a>
</g>
</g>
<!-- Node8 -->
<g id="Node000008" class="node">
<title>Node8</title>
<g id="a_Node000008"><a xlink:title=" ">
<polygon fill="#e0e0e0" stroke="#999999" points="45.25,-20 0,-20 0,0 45.25,0 45.25,-20"/>
<text text-anchor="middle" x="22.62" y="-6.5" font-family="Helvetica,sans-Serif" font-size="10.00">cstdint</text>
</a>
</g>
</g>
<!-- Node7&#45;&gt;Node8 -->
<g id="edge8_Node000007_Node000008" class="edge">
<title>Node7&#45;&gt;Node8</title>
<g id="a_edge8_Node000007_Node000008"><a xlink:title=" ">
<path fill="none" stroke="#63b8ff" d="M47.4,-55.59C43.53,-48.63 38.12,-38.89 33.34,-30.29"/>
<polygon fill="#63b8ff" stroke="#63b8ff" points="36.44,-28.66 28.53,-21.62 30.32,-32.06 36.44,-28.66"/>
</a>
</g>
</g>
<!-- Node9 -->
<g id="Node000009" class="node">
<title>Node9</title>
<g id="a_Node000009"><a xlink:title=" ">
<polygon fill="#e0e0e0" stroke="#999999" points="103.62,-20 63.62,-20 63.62,0 103.62,0 103.62,-20"/>
<text text-anchor="middle" x="83.62" y="-6.5" font-family="Helvetica,sans-Serif" font-size="10.00">bitset</text>
</a>
</g>
</g>
<!-- Node7&#45;&gt;Node9 -->
<g id="edge9_Node000007_Node000009" class="edge">
<title>Node7&#45;&gt;Node9</title>
<g id="a_edge9_Node000007_Node000009"><a xlink:title=" ">
<path fill="none" stroke="#63b8ff" d="M58.02,-55.59C62.07,-48.55 67.74,-38.67 72.72,-30"/>
<polygon fill="#63b8ff" stroke="#63b8ff" points="75.59,-32.03 77.53,-21.61 69.52,-28.54 75.59,-32.03"/>
</a>
</g>
</g>
<!-- Node10&#45;&gt;Node4 -->
<g id="edge12_Node000010_Node000004" class="edge">
<title>Node10&#45;&gt;Node4</title>
<g id="a_edge12_Node000010_Node000004"><a xlink:title=" ">
<path fill="none" stroke="#63b8ff" d="M175.66,-111.59C197.59,-103.01 230.25,-90.23 255,-80.55"/>
<polygon fill="#63b8ff" stroke="#63b8ff" points="255.95,-83.93 263.99,-77.03 253.4,-77.42 255.95,-83.93"/>
</a>
</g>
</g>
<!-- Node10&#45;&gt;Node6 -->
<g id="edge13_Node000010_Node000006" class="edge">
<title>Node10&#45;&gt;Node6</title>
<g id="a_edge13_Node000010_Node000006"><a xlink:title=" ">
<path fill="none" stroke="#63b8ff" d="M191.43,-111.53C232.57,-101.74 296.48,-86.54 337.94,-76.68"/>
<polygon fill="#63b8ff" stroke="#63b8ff" points="338.62,-80.12 347.53,-74.4 337,-73.31 338.62,-80.12"/>
</a>
</g>
</g>
<!-- Node10&#45;&gt;Node7 -->
<g id="edge15_Node000010_Node000007" class="edge">
<title>Node10&#45;&gt;Node7</title>
<g id="a_edge15_Node000010_Node000007"><a xlink:title=" ">
<path fill="none" stroke="#63b8ff" d="M134.38,-111.59C119.28,-103.36 97.1,-91.26 79.64,-81.74"/>
<polygon fill="#63b8ff" stroke="#63b8ff" points="81.79,-78.92 71.33,-77.2 78.44,-85.07 81.79,-78.92"/>
</a>
</g>
</g>
<!-- Node11 -->
<g id="Node000011" class="node">
<title>Node11</title>
<g id="a_Node000011"><a xlink:title=" ">
<polygon fill="#e0e0e0" stroke="#999999" points="158.62,-76 100.62,-76 100.62,-56 158.62,-56 158.62,-76"/>
<text text-anchor="middle" x="129.62" y="-62.5" font-family="Helvetica,sans-Serif" font-size="10.00">exception</text>
</a>
</g>
</g>
<!-- Node10&#45;&gt;Node11 -->
<g id="edge11_Node000010_Node000011" class="edge">
<title>Node10&#45;&gt;Node11</title>
<g id="a_edge11_Node000010_Node000011"><a xlink:title=" ">
<path fill="none" stroke="#63b8ff" d="M147.79,-111.59C145.02,-104.78 141.16,-95.32 137.72,-86.86"/>
<polygon fill="#63b8ff" stroke="#63b8ff" points="141,-85.64 133.98,-77.7 134.52,-88.28 141,-85.64"/>
</a>
</g>
</g>
<!-- Node12 -->
<g id="Node000012" class="node">
<title>Node12</title>
<g id="a_Node000012"><a xlink:title=" ">
<polygon fill="#e0e0e0" stroke="#999999" points="230.38,-76 176.88,-76 176.88,-56 230.38,-56 230.38,-76"/>
<text text-anchor="middle" x="203.62" y="-62.5" font-family="Helvetica,sans-Serif" font-size="10.00">iostream</text>
</a>
</g>
</g>
<!-- Node10&#45;&gt;Node12 -->
<g id="edge14_Node000010_Node000012" class="edge">
<title>Node10&#45;&gt;Node12</title>
<g id="a_edge14_Node000010_Node000012"><a xlink:title=" ">
<path fill="none" stroke="#63b8ff" d="M160.68,-111.59C167.84,-104.16 178.03,-93.58 186.69,-84.58"/>
<polygon fill="#63b8ff" stroke="#63b8ff" points="189.21,-87.02 193.62,-77.39 184.16,-82.16 189.21,-87.02"/>
</a>
</g>
</g>
</g>
</svg>
