<?xml version="1.0" encoding="UTF-8" standalone="no"?>
<!DOCTYPE svg PUBLIC "-//W3C//DTD SVG 1.1//EN"
 "http://www.w3.org/Graphics/SVG/1.1/DTD/svg11.dtd">
<!-- Generated by graphviz version 12.1.0 (20240811.2233)
 -->
<!-- Title: ComponentRegistry.hpp Pages: 1 -->
<svg width="719pt" height="308pt"
 viewBox="0.00 0.00 718.62 308.00" xmlns="http://www.w3.org/2000/svg" xmlns:xlink="http://www.w3.org/1999/xlink">
<g id="graph0" class="graph" transform="scale(1 1) rotate(0) translate(4 304)">
<title>ComponentRegistry.hpp</title>
<!-- Node1 -->
<g id="Node000001" class="node">
<title>Node1</title>
<g id="a_Node000001"><a xlink:title=" ">
<polygon fill="#999999" stroke="#666666" points="318.62,-300 197.62,-300 197.62,-280 318.62,-280 318.62,-300"/>
<text text-anchor="middle" x="258.12" y="-286.5" font-family="Helvetica,sans-Serif" font-size="10.00">ComponentRegistry.hpp</text>
</a>
</g>
</g>
<!-- Node2 -->
<g id="Node000002" class="node">
<title>Node2</title>
<g id="a_Node000002"><a xlink:href="NetworkManager_8hpp.html" target="_top" xlink:title=" ">
<polygon fill="white" stroke="#666666" points="312.62,-244 203.62,-244 203.62,-224 312.62,-224 312.62,-244"/>
<text text-anchor="middle" x="258.12" y="-230.5" font-family="Helvetica,sans-Serif" font-size="10.00">NetworkManager.hpp</text>
</a>
</g>
</g>
<!-- Node1&#45;&gt;Node2 -->
<g id="edge1_Node000001_Node000002" class="edge">
<title>Node1&#45;&gt;Node2</title>
<g id="a_edge1_Node000001_Node000002"><a xlink:title=" ">
<path fill="none" stroke="#63b8ff" d="M258.12,-268.13C258.12,-259.9 258.12,-250.85 258.12,-244.3"/>
<polygon fill="#63b8ff" stroke="#63b8ff" points="254.63,-268.08 258.13,-278.08 261.63,-268.08 254.63,-268.08"/>
</a>
</g>
</g>
<!-- Node3 -->
<g id="Node000003" class="node">
<title>Node3</title>
<g id="a_Node000003"><a xlink:href="Collision_8hpp.html" target="_top" xlink:title=" ">
<polygon fill="white" stroke="#666666" points="72.25,-132 0,-132 0,-112 72.25,-112 72.25,-132"/>
<text text-anchor="middle" x="36.12" y="-118.5" font-family="Helvetica,sans-Serif" font-size="10.00">Collision.hpp</text>
</a>
</g>
</g>
<!-- Node2&#45;&gt;Node3 -->
<g id="edge2_Node000002_Node000003" class="edge">
<title>Node2&#45;&gt;Node3</title>
<g id="a_edge2_Node000002_Node000003"><a xlink:title=" ">
<path fill="none" stroke="#63b8ff" d="M221.57,-219.71C199.64,-211.36 171.38,-199.94 147.12,-188 111.26,-170.34 71.28,-145.6 50.48,-132.31"/>
<polygon fill="#63b8ff" stroke="#63b8ff" points="220.08,-222.89 230.67,-223.13 222.55,-216.34 220.08,-222.89"/>
</a>
</g>
</g>
<!-- Node5 -->
<g id="Node000005" class="node">
<title>Node5</title>
<g id="a_Node000005"><a xlink:href="GameTypes_8hpp.html" target="_top" xlink:title=" ">
<polygon fill="white" stroke="#666666" points="312.75,-76 225.5,-76 225.5,-56 312.75,-56 312.75,-76"/>
<text text-anchor="middle" x="269.12" y="-62.5" font-family="Helvetica,sans-Serif" font-size="10.00">GameTypes.hpp</text>
</a>
</g>
</g>
<!-- Node2&#45;&gt;Node5 -->
<g id="edge12_Node000002_Node000005" class="edge">
<title>Node2&#45;&gt;Node5</title>
<g id="a_edge12_Node000002_Node000005"><a xlink:title=" ">
<path fill="none" stroke="#63b8ff" d="M249.98,-213.04C241.25,-188.75 229.92,-146.68 240.12,-112 244.17,-98.27 253.84,-84.77 260.91,-76.2"/>
<polygon fill="#63b8ff" stroke="#63b8ff" points="246.68,-214.21 253.53,-222.29 253.22,-211.7 246.68,-214.21"/>
</a>
</g>
</g>
<!-- Node7 -->
<g id="Node000007" class="node">
<title>Node7</title>
<g id="a_Node000007"><a xlink:href="Server_2src_2main_8cpp.html" target="_top" xlink:title=" ">
<polygon fill="white" stroke="#666666" points="207,-76 151.25,-76 151.25,-56 207,-56 207,-76"/>
<text text-anchor="middle" x="179.12" y="-62.5" font-family="Helvetica,sans-Serif" font-size="10.00">main.cpp</text>
</a>
</g>
</g>
<!-- Node2&#45;&gt;Node7 -->
<g id="edge27_Node000002_Node000007" class="edge">
<title>Node2&#45;&gt;Node7</title>
<g id="a_edge27_Node000002_Node000007"><a xlink:title=" ">
<path fill="none" stroke="#63b8ff" d="M248.82,-213.44C231.75,-177.57 196.04,-102.53 183.55,-76.3"/>
<polygon fill="#63b8ff" stroke="#63b8ff" points="245.54,-214.71 253,-222.23 251.86,-211.7 245.54,-214.71"/>
</a>
</g>
</g>
<!-- Node8 -->
<g id="Node000008" class="node">
<title>Node8</title>
<g id="a_Node000008"><a xlink:href="Enemy_8hpp.html" target="_top" xlink:title=" ">
<polygon fill="white" stroke="#666666" points="155.5,-132 90.75,-132 90.75,-112 155.5,-112 155.5,-132"/>
<text text-anchor="middle" x="123.12" y="-118.5" font-family="Helvetica,sans-Serif" font-size="10.00">Enemy.hpp</text>
</a>
</g>
</g>
<!-- Node2&#45;&gt;Node8 -->
<g id="edge8_Node000002_Node000008" class="edge">
<title>Node2&#45;&gt;Node8</title>
<g id="a_edge8_Node000002_Node000008"><a xlink:title=" ">
<path fill="none" stroke="#63b8ff" d="M221.37,-219.26C204.3,-211.72 184.44,-201.2 169.12,-188 150.28,-171.75 135.19,-146.22 127.9,-132.49"/>
<polygon fill="#63b8ff" stroke="#63b8ff" points="219.61,-222.32 230.18,-222.98 222.33,-215.87 219.61,-222.32"/>
</a>
</g>
</g>
<!-- Node9 -->
<g id="Node000009" class="node">
<title>Node9</title>
<g id="a_Node000009"><a xlink:href="NetworkManager_8cpp.html" target="_top" xlink:title=" ">
<polygon fill="white" stroke="#666666" points="710.62,-188 601.62,-188 601.62,-168 710.62,-168 710.62,-188"/>
<text text-anchor="middle" x="656.12" y="-174.5" font-family="Helvetica,sans-Serif" font-size="10.00">NetworkManager.cpp</text>
</a>
</g>
</g>
<!-- Node2&#45;&gt;Node9 -->
<g id="edge13_Node000002_Node000009" class="edge">
<title>Node2&#45;&gt;Node9</title>
<g id="a_edge13_Node000002_Node000009"><a xlink:title=" ">
<path fill="none" stroke="#63b8ff" d="M324.11,-224.05C401.6,-213.53 528.73,-196.28 601.13,-186.46"/>
<polygon fill="#63b8ff" stroke="#63b8ff" points="323.99,-220.53 314.55,-225.34 324.93,-227.47 323.99,-220.53"/>
</a>
</g>
</g>
<!-- Node10 -->
<g id="Node000010" class="node">
<title>Node10</title>
<g id="a_Node000010"><a xlink:href="PlayerControl_8hpp.html" target="_top" xlink:title=" ">
<polygon fill="white" stroke="#666666" points="343.12,-132 249.12,-132 249.12,-112 343.12,-112 343.12,-132"/>
<text text-anchor="middle" x="296.12" y="-118.5" font-family="Helvetica,sans-Serif" font-size="10.00">PlayerControl.hpp</text>
</a>
</g>
</g>
<!-- Node2&#45;&gt;Node10 -->
<g id="edge14_Node000002_Node000010" class="edge">
<title>Node2&#45;&gt;Node10</title>
<g id="a_edge14_Node000002_Node000010"><a xlink:title=" ">
<path fill="none" stroke="#63b8ff" d="M265.04,-212.97C273.3,-189.07 286.76,-150.11 292.89,-132.35"/>
<polygon fill="#63b8ff" stroke="#63b8ff" points="261.82,-211.6 261.86,-222.19 268.43,-213.88 261.82,-211.6"/>
</a>
</g>
</g>
<!-- Node11 -->
<g id="Node000011" class="node">
<title>Node11</title>
<g id="a_Node000011"><a xlink:href="Renderer_8hpp.html" target="_top" xlink:title=" ">
<polygon fill="white" stroke="#666666" points="438.38,-188 363.88,-188 363.88,-168 438.38,-168 438.38,-188"/>
<text text-anchor="middle" x="401.12" y="-174.5" font-family="Helvetica,sans-Serif" font-size="10.00">Renderer.hpp</text>
</a>
</g>
</g>
<!-- Node2&#45;&gt;Node11 -->
<g id="edge18_Node000002_Node000011" class="edge">
<title>Node2&#45;&gt;Node11</title>
<g id="a_edge18_Node000002_Node000011"><a xlink:title=" ">
<path fill="none" stroke="#63b8ff" d="M293.79,-219.53C319.38,-209.87 353.23,-197.08 376.02,-188.48"/>
<polygon fill="#63b8ff" stroke="#63b8ff" points="292.57,-216.25 284.45,-223.06 295.04,-222.8 292.57,-216.25"/>
</a>
</g>
</g>
<!-- Node14 -->
<g id="Node000014" class="node">
<title>Node14</title>
<g id="a_Node000014"><a xlink:href="SFML_8cpp.html" target="_top" xlink:title=" ">
<polygon fill="white" stroke="#666666" points="565.62,-76 504.62,-76 504.62,-56 565.62,-56 565.62,-76"/>
<text text-anchor="middle" x="535.12" y="-62.5" font-family="Helvetica,sans-Serif" font-size="10.00">SFML.cpp</text>
</a>
</g>
</g>
<!-- Node2&#45;&gt;Node14 -->
<g id="edge26_Node000002_Node000014" class="edge">
<title>Node2&#45;&gt;Node14</title>
<g id="a_edge26_Node000002_Node000014"><a xlink:title=" ">
<path fill="none" stroke="#63b8ff" d="M324.08,-232.96C396.06,-228.82 507.28,-209.38 554.12,-132 564.96,-114.1 551.54,-89.67 542.36,-76.44"/>
<polygon fill="#63b8ff" stroke="#63b8ff" points="324.22,-229.45 314.4,-233.43 324.55,-236.44 324.22,-229.45"/>
</a>
</g>
</g>
<!-- Node4 -->
<g id="Node000004" class="node">
<title>Node4</title>
<g id="a_Node000004"><a xlink:href="GameTypes_8cpp.html" target="_top" xlink:title=" ">
<polygon fill="white" stroke="#666666" points="384.75,-20 297.5,-20 297.5,0 384.75,0 384.75,-20"/>
<text text-anchor="middle" x="341.12" y="-6.5" font-family="Helvetica,sans-Serif" font-size="10.00">GameTypes.cpp</text>
</a>
</g>
</g>
<!-- Node3&#45;&gt;Node4 -->
<g id="edge3_Node000003_Node000004" class="edge">
<title>Node3&#45;&gt;Node4</title>
<g id="a_edge3_Node000003_Node000004"><a xlink:title=" ">
<path fill="none" stroke="#63b8ff" d="M54.29,-104.08C71.32,-89.17 98.13,-68 125.12,-56 140.66,-49.1 238.49,-30.13 297.03,-19.15"/>
<polygon fill="#63b8ff" stroke="#63b8ff" points="52.12,-101.33 47.03,-110.61 56.8,-106.53 52.12,-101.33"/>
</a>
</g>
</g>
<!-- Node3&#45;&gt;Node5 -->
<g id="edge4_Node000003_Node000005" class="edge">
<title>Node3&#45;&gt;Node5</title>
<g id="a_edge4_Node000003_Node000005"><a xlink:title=" ">
<path fill="none" stroke="#63b8ff" d="M83.72,-109.97C126.26,-100.11 187.93,-85.82 228.27,-76.47"/>
<polygon fill="#63b8ff" stroke="#63b8ff" points="82.96,-106.55 74.01,-112.22 84.54,-113.37 82.96,-106.55"/>
</a>
</g>
</g>
<!-- Node3&#45;&gt;Node7 -->
<g id="edge7_Node000003_Node000007" class="edge">
<title>Node3&#45;&gt;Node7</title>
<g id="a_edge7_Node000003_Node000007"><a xlink:title=" ">
<path fill="none" stroke="#63b8ff" d="M71.79,-107.53C97.38,-97.87 131.23,-85.08 154.02,-76.48"/>
<polygon fill="#63b8ff" stroke="#63b8ff" points="70.57,-104.25 62.45,-111.06 73.04,-110.8 70.57,-104.25"/>
</a>
</g>
</g>
<!-- Node5&#45;&gt;Node4 -->
<g id="edge5_Node000005_Node000004" class="edge">
<title>Node5&#45;&gt;Node4</title>
<g id="a_edge5_Node000005_Node000004"><a xlink:title=" ">
<path fill="none" stroke="#63b8ff" d="M290.52,-48.95C302.97,-39.61 318.24,-28.16 328.73,-20.3"/>
<polygon fill="#63b8ff" stroke="#63b8ff" points="288.78,-45.89 282.88,-54.69 292.98,-51.49 288.78,-45.89"/>
</a>
</g>
</g>
<!-- Node6 -->
<g id="Node000006" class="node">
<title>Node6</title>
<g id="a_Node000006"><a xlink:href="Client_2src_2main_8cpp.html" target="_top" xlink:title=" ">
<polygon fill="white" stroke="#666666" points="279,-20 223.25,-20 223.25,0 279,0 279,-20"/>
<text text-anchor="middle" x="251.12" y="-6.5" font-family="Helvetica,sans-Serif" font-size="10.00">main.cpp</text>
</a>
</g>
</g>
<!-- Node5&#45;&gt;Node6 -->
<g id="edge6_Node000005_Node000006" class="edge">
<title>Node5&#45;&gt;Node6</title>
<g id="a_edge6_Node000005_Node000006"><a xlink:title=" ">
<path fill="none" stroke="#63b8ff" d="M262.36,-44.71C259.57,-36.32 256.46,-27.01 254.22,-20.3"/>
<polygon fill="#63b8ff" stroke="#63b8ff" points="259.03,-45.78 265.51,-54.16 265.67,-43.56 259.03,-45.78"/>
</a>
</g>
</g>
<!-- Node8&#45;&gt;Node4 -->
<g id="edge9_Node000008_Node000004" class="edge">
<title>Node8&#45;&gt;Node4</title>
<g id="a_edge9_Node000008_Node000004"><a xlink:title=" ">
<path fill="none" stroke="#63b8ff" d="M123.88,-100.24C125.52,-85.86 130.07,-67.33 142.12,-56 153.42,-45.39 242.26,-28.26 297.36,-18.48"/>
<polygon fill="#63b8ff" stroke="#63b8ff" points="120.4,-99.78 123.17,-110.01 127.38,-100.29 120.4,-99.78"/>
</a>
</g>
</g>
<!-- Node8&#45;&gt;Node5 -->
<g id="edge10_Node000008_Node000005" class="edge">
<title>Node8&#45;&gt;Node5</title>
<g id="a_edge10_Node000008_Node000005"><a xlink:title=" ">
<path fill="none" stroke="#63b8ff" d="M159.19,-107.66C185.36,-97.98 220.13,-85.12 243.5,-76.48"/>
<polygon fill="#63b8ff" stroke="#63b8ff" points="158.14,-104.32 149.98,-111.07 160.57,-110.88 158.14,-104.32"/>
</a>
</g>
</g>
<!-- Node8&#45;&gt;Node7 -->
<g id="edge11_Node000008_Node000007" class="edge">
<title>Node8&#45;&gt;Node7</title>
<g id="a_edge11_Node000008_Node000007"><a xlink:title=" ">
<path fill="none" stroke="#63b8ff" d="M140.91,-103.85C150.38,-94.72 161.65,-83.86 169.48,-76.3"/>
<polygon fill="#63b8ff" stroke="#63b8ff" points="138.74,-101.08 133.97,-110.54 143.6,-106.12 138.74,-101.08"/>
</a>
</g>
</g>
<!-- Node10&#45;&gt;Node4 -->
<g id="edge15_Node000010_Node000004" class="edge">
<title>Node10&#45;&gt;Node4</title>
<g id="a_edge15_Node000010_Node000004"><a xlink:title=" ">
<path fill="none" stroke="#63b8ff" d="M308.4,-102.09C313.14,-94.24 318.32,-84.9 322.12,-76 330.35,-56.76 336.33,-32.85 339.2,-20.07"/>
<polygon fill="#63b8ff" stroke="#63b8ff" points="305.54,-100.07 303.2,-110.41 311.47,-103.79 305.54,-100.07"/>
</a>
</g>
</g>
<!-- Node10&#45;&gt;Node5 -->
<g id="edge16_Node000010_Node000005" class="edge">
<title>Node10&#45;&gt;Node5</title>
<g id="a_edge16_Node000010_Node000005"><a xlink:title=" ">
<path fill="none" stroke="#63b8ff" d="M286.41,-101.58C282.11,-92.97 277.24,-83.24 273.77,-76.3"/>
<polygon fill="#63b8ff" stroke="#63b8ff" points="283.14,-102.86 290.75,-110.24 289.4,-99.73 283.14,-102.86"/>
</a>
</g>
</g>
<!-- Node10&#45;&gt;Node7 -->
<g id="edge17_Node000010_Node000007" class="edge">
<title>Node10&#45;&gt;Node7</title>
<g id="a_edge17_Node000010_Node000007"><a xlink:title=" ">
<path fill="none" stroke="#63b8ff" d="M265.53,-106.88C244.77,-97.3 217.89,-84.89 199.66,-76.48"/>
<polygon fill="#63b8ff" stroke="#63b8ff" points="263.82,-109.95 274.37,-110.96 266.76,-103.59 263.82,-109.95"/>
</a>
</g>
</g>
<!-- Node11&#45;&gt;Node5 -->
<g id="edge19_Node000011_Node000005" class="edge">
<title>Node11&#45;&gt;Node5</title>
<g id="a_edge19_Node000011_Node000005"><a xlink:title=" ">
<path fill="none" stroke="#63b8ff" d="M389.95,-158.02C381.02,-144.04 367.49,-125.23 352.12,-112 334.24,-96.6 310.21,-84.29 292.61,-76.46"/>
<polygon fill="#63b8ff" stroke="#63b8ff" points="386.82,-159.62 395.04,-166.31 392.79,-155.96 386.82,-159.62"/>
</a>
</g>
</g>
<!-- Node12 -->
<g id="Node000012" class="node">
<title>Node12</title>
<g id="a_Node000012"><a xlink:href="Render_8hpp.html" target="_top" xlink:title=" ">
<polygon fill="white" stroke="#666666" points="465.25,-132 399,-132 399,-112 465.25,-112 465.25,-132"/>
<text text-anchor="middle" x="432.12" y="-118.5" font-family="Helvetica,sans-Serif" font-size="10.00">Render.hpp</text>
</a>
</g>
</g>
<!-- Node11&#45;&gt;Node12 -->
<g id="edge20_Node000011_Node000012" class="edge">
<title>Node11&#45;&gt;Node12</title>
<g id="a_edge20_Node000011_Node000012"><a xlink:title=" ">
<path fill="none" stroke="#63b8ff" d="M412.11,-157.87C417.09,-149.19 422.76,-139.32 426.79,-132.3"/>
<polygon fill="#63b8ff" stroke="#63b8ff" points="409.22,-155.87 407.28,-166.28 415.29,-159.35 409.22,-155.87"/>
</a>
</g>
</g>
<!-- Node13 -->
<g id="Node000013" class="node">
<title>Node13</title>
<g id="a_Node000013"><a xlink:href="SFML_8hpp.html" target="_top" xlink:title=" ">
<polygon fill="white" stroke="#666666" points="544.62,-132 483.62,-132 483.62,-112 544.62,-112 544.62,-132"/>
<text text-anchor="middle" x="514.12" y="-118.5" font-family="Helvetica,sans-Serif" font-size="10.00">SFML.hpp</text>
</a>
</g>
</g>
<!-- Node11&#45;&gt;Node13 -->
<g id="edge23_Node000011_Node000013" class="edge">
<title>Node11&#45;&gt;Node13</title>
<g id="a_edge23_Node000011_Node000013"><a xlink:title=" ">
<path fill="none" stroke="#63b8ff" d="M430.95,-162.75C450.96,-153.18 476.77,-140.85 494.29,-132.48"/>
<polygon fill="#63b8ff" stroke="#63b8ff" points="429.69,-159.47 422.17,-166.94 432.71,-165.79 429.69,-159.47"/>
</a>
</g>
</g>
<!-- Node12&#45;&gt;Node4 -->
<g id="edge21_Node000012_Node000004" class="edge">
<title>Node12&#45;&gt;Node4</title>
<g id="a_edge21_Node000012_Node000004"><a xlink:title=" ">
<path fill="none" stroke="#63b8ff" d="M417.15,-102.9C397.56,-79.22 363.96,-38.6 348.86,-20.35"/>
<polygon fill="#63b8ff" stroke="#63b8ff" points="414.33,-104.98 423.4,-110.46 419.72,-100.52 414.33,-104.98"/>
</a>
</g>
</g>
<!-- Node12&#45;&gt;Node5 -->
<g id="edge22_Node000012_Node000005" class="edge">
<title>Node12&#45;&gt;Node5</title>
<g id="a_edge22_Node000012_Node000005"><a xlink:title=" ">
<path fill="none" stroke="#63b8ff" d="M393.03,-108.05C363.69,-98.33 324.18,-85.24 297.74,-76.48"/>
<polygon fill="#63b8ff" stroke="#63b8ff" points="391.7,-111.3 402.3,-111.12 393.9,-104.65 391.7,-111.3"/>
</a>
</g>
</g>
<!-- Node13&#45;&gt;Node4 -->
<g id="edge24_Node000013_Node000004" class="edge">
<title>Node13&#45;&gt;Node4</title>
<g id="a_edge24_Node000013_Node000004"><a xlink:title=" ">
<path fill="none" stroke="#63b8ff" d="M490,-105.66C453.59,-82.51 385.68,-39.33 355.84,-20.35"/>
<polygon fill="#63b8ff" stroke="#63b8ff" points="487.78,-108.4 498.1,-110.81 491.54,-102.49 487.78,-108.4"/>
</a>
</g>
</g>
<!-- Node13&#45;&gt;Node14 -->
<g id="edge25_Node000013_Node000014" class="edge">
<title>Node13&#45;&gt;Node14</title>
<g id="a_edge25_Node000013_Node000014"><a xlink:title=" ">
<path fill="none" stroke="#63b8ff" d="M521.9,-101C525.19,-92.54 528.87,-83.08 531.51,-76.3"/>
<polygon fill="#63b8ff" stroke="#63b8ff" points="518.69,-99.59 518.33,-110.18 525.22,-102.13 518.69,-99.59"/>
</a>
</g>
</g>
</g>
</svg>
