<?xml version="1.0" encoding="UTF-8" standalone="no"?>
<!DOCTYPE svg PUBLIC "-//W3C//DTD SVG 1.1//EN"
 "http://www.w3.org/Graphics/SVG/1.1/DTD/svg11.dtd">
<!-- Generated by graphviz version 12.1.0 (20240811.2233)
 -->
<!-- Title: ComponentRegistry.hpp Pages: 1 -->
<svg width="1012pt" height="308pt"
 viewBox="0.00 0.00 1011.67 308.00" xmlns="http://www.w3.org/2000/svg" xmlns:xlink="http://www.w3.org/1999/xlink">
<g id="graph0" class="graph" transform="scale(1 1) rotate(0) translate(4 304)">
<title>ComponentRegistry.hpp</title>
<!-- Node1 -->
<g id="Node000001" class="node">
<title>Node1</title>
<g id="a_Node000001"><a xlink:title=" ">
<polygon fill="#999999" stroke="#666666" points="359.62,-300 238.62,-300 238.62,-280 359.62,-280 359.62,-300"/>
<text text-anchor="middle" x="299.12" y="-286.5" font-family="Helvetica,sans-Serif" font-size="10.00">ComponentRegistry.hpp</text>
</a>
</g>
</g>
<!-- Node2 -->
<g id="Node000002" class="node">
<title>Node2</title>
<g id="a_Node000002"><a xlink:title=" ">
<polygon fill="#e0e0e0" stroke="#999999" points="174.12,-132 116.12,-132 116.12,-112 174.12,-112 174.12,-132"/>
<text text-anchor="middle" x="145.12" y="-118.5" font-family="Helvetica,sans-Serif" font-size="10.00">functional</text>
</a>
</g>
</g>
<!-- Node1&#45;&gt;Node2 -->
<g id="edge1_Node000001_Node000002" class="edge">
<title>Node1&#45;&gt;Node2</title>
<g id="a_edge1_Node000001_Node000002"><a xlink:title=" ">
<path fill="none" stroke="#63b8ff" d="M269.67,-279.5C232.85,-265.85 171.48,-236.81 145.12,-188 137.74,-174.32 138.3,-156.53 140.4,-143.02"/>
<polygon fill="#63b8ff" stroke="#63b8ff" points="143.77,-144.03 142.28,-133.54 136.9,-142.67 143.77,-144.03"/>
</a>
</g>
</g>
<!-- Node3 -->
<g id="Node000003" class="node">
<title>Node3</title>
<g id="a_Node000003"><a xlink:title=" ">
<polygon fill="#e0e0e0" stroke="#999999" points="385.5,-76 302.75,-76 302.75,-56 385.5,-56 385.5,-76"/>
<text text-anchor="middle" x="344.12" y="-62.5" font-family="Helvetica,sans-Serif" font-size="10.00">unordered_map</text>
</a>
</g>
</g>
<!-- Node1&#45;&gt;Node3 -->
<g id="edge2_Node000001_Node000003" class="edge">
<title>Node1&#45;&gt;Node3</title>
<g id="a_edge2_Node000001_Node000003"><a xlink:title=" ">
<path fill="none" stroke="#63b8ff" d="M250.26,-279.54C224.99,-272.81 194.79,-261.73 172.12,-244 120.61,-203.71 65.42,-162.37 107.12,-112 130.01,-84.36 228.42,-73.56 291.01,-69.44"/>
<polygon fill="#63b8ff" stroke="#63b8ff" points="290.98,-72.95 300.75,-68.84 290.55,-65.96 290.98,-72.95"/>
</a>
</g>
</g>
<!-- Node4 -->
<g id="Node000004" class="node">
<title>Node4</title>
<g id="a_Node000004"><a xlink:title=" ">
<polygon fill="#e0e0e0" stroke="#999999" points="316.12,-132 276.12,-132 276.12,-112 316.12,-112 316.12,-132"/>
<text text-anchor="middle" x="296.12" y="-118.5" font-family="Helvetica,sans-Serif" font-size="10.00">string</text>
</a>
</g>
</g>
<!-- Node1&#45;&gt;Node4 -->
<g id="edge3_Node000001_Node000004" class="edge">
<title>Node1&#45;&gt;Node4</title>
<g id="a_edge3_Node000001_Node000004"><a xlink:title=" ">
<path fill="none" stroke="#63b8ff" d="M298.96,-279.6C298.48,-253.46 297.15,-179.48 296.49,-143.36"/>
<polygon fill="#63b8ff" stroke="#63b8ff" points="300,-143.75 296.32,-133.81 293,-143.87 300,-143.75"/>
</a>
</g>
</g>
<!-- Node5 -->
<g id="Node000005" class="node">
<title>Node5</title>
<g id="a_Node000005"><a xlink:title=" ">
<polygon fill="#e0e0e0" stroke="#999999" points="475.5,-76 416.75,-76 416.75,-56 475.5,-56 475.5,-76"/>
<text text-anchor="middle" x="446.12" y="-62.5" font-family="Helvetica,sans-Serif" font-size="10.00">stdexcept</text>
</a>
</g>
</g>
<!-- Node1&#45;&gt;Node5 -->
<g id="edge4_Node000001_Node000005" class="edge">
<title>Node1&#45;&gt;Node5</title>
<g id="a_edge4_Node000001_Node000005"><a xlink:title=" ">
<path fill="none" stroke="#63b8ff" d="M295.67,-279.79C283.77,-247.32 246.29,-138.72 267.12,-112 275.69,-101.01 355.26,-84.18 405.39,-74.52"/>
<polygon fill="#63b8ff" stroke="#63b8ff" points="405.86,-77.99 415.03,-72.68 404.55,-71.11 405.86,-77.99"/>
</a>
</g>
</g>
<!-- Node6 -->
<g id="Node000006" class="node">
<title>Node6</title>
<g id="a_Node000006"><a xlink:href="Entity_8hpp.html" target="_top" xlink:title=" ">
<polygon fill="white" stroke="#666666" points="814.88,-76 755.38,-76 755.38,-56 814.88,-56 814.88,-76"/>
<text text-anchor="middle" x="785.12" y="-62.5" font-family="Helvetica,sans-Serif" font-size="10.00">Entity.hpp</text>
</a>
</g>
</g>
<!-- Node1&#45;&gt;Node6 -->
<g id="edge5_Node000001_Node000006" class="edge">
<title>Node1&#45;&gt;Node6</title>
<g id="a_edge5_Node000001_Node000006"><a xlink:title=" ">
<path fill="none" stroke="#63b8ff" d="M359.96,-289.28C511.27,-288.59 898.48,-277.89 982.12,-188 1005.26,-163.14 1011.41,-138.47 990.12,-112 969.97,-86.94 880.12,-75.04 826.28,-70.07"/>
<polygon fill="#63b8ff" stroke="#63b8ff" points="826.83,-66.61 816.56,-69.22 826.22,-73.58 826.83,-66.61"/>
</a>
</g>
</g>
<!-- Node9 -->
<g id="Node000009" class="node">
<title>Node9</title>
<g id="a_Node000009"><a xlink:href="Mediator_8hpp.html" target="_top" xlink:title=" ">
<polygon fill="white" stroke="#666666" points="715.25,-244 643,-244 643,-224 715.25,-224 715.25,-244"/>
<text text-anchor="middle" x="679.12" y="-230.5" font-family="Helvetica,sans-Serif" font-size="10.00">Mediator.hpp</text>
</a>
</g>
</g>
<!-- Node1&#45;&gt;Node9 -->
<g id="edge8_Node000001_Node000009" class="edge">
<title>Node1&#45;&gt;Node9</title>
<g id="a_edge8_Node000001_Node000009"><a xlink:title=" ">
<path fill="none" stroke="#63b8ff" d="M359.76,-280.38C435.13,-269.67 562.22,-251.61 631.16,-241.82"/>
<polygon fill="#63b8ff" stroke="#63b8ff" points="631.62,-245.29 641.03,-240.41 630.63,-238.36 631.62,-245.29"/>
</a>
</g>
</g>
<!-- Node7 -->
<g id="Node000007" class="node">
<title>Node7</title>
<g id="a_Node000007"><a xlink:title=" ">
<polygon fill="#e0e0e0" stroke="#999999" points="405.75,-20 360.5,-20 360.5,0 405.75,0 405.75,-20"/>
<text text-anchor="middle" x="383.12" y="-6.5" font-family="Helvetica,sans-Serif" font-size="10.00">cstdint</text>
</a>
</g>
</g>
<!-- Node6&#45;&gt;Node7 -->
<g id="edge6_Node000006_Node000007" class="edge">
<title>Node6&#45;&gt;Node7</title>
<g id="a_edge6_Node000006_Node000007"><a xlink:title=" ">
<path fill="none" stroke="#63b8ff" d="M754.91,-60.94C681.44,-51.07 493.85,-25.87 416.87,-15.53"/>
<polygon fill="#63b8ff" stroke="#63b8ff" points="417.8,-12.13 407.42,-14.26 416.86,-19.06 417.8,-12.13"/>
</a>
</g>
</g>
<!-- Node8 -->
<g id="Node000008" class="node">
<title>Node8</title>
<g id="a_Node000008"><a xlink:title=" ">
<polygon fill="#e0e0e0" stroke="#999999" points="805.12,-20 765.12,-20 765.12,0 805.12,0 805.12,-20"/>
<text text-anchor="middle" x="785.12" y="-6.5" font-family="Helvetica,sans-Serif" font-size="10.00">bitset</text>
</a>
</g>
</g>
<!-- Node6&#45;&gt;Node8 -->
<g id="edge7_Node000006_Node000008" class="edge">
<title>Node6&#45;&gt;Node8</title>
<g id="a_edge7_Node000006_Node000008"><a xlink:title=" ">
<path fill="none" stroke="#63b8ff" d="M785.12,-55.59C785.12,-49.01 785.12,-39.96 785.12,-31.73"/>
<polygon fill="#63b8ff" stroke="#63b8ff" points="788.63,-31.81 785.13,-21.81 781.63,-31.81 788.63,-31.81"/>
</a>
</g>
</g>
<!-- Node10 -->
<g id="Node000010" class="node">
<title>Node10</title>
<g id="a_Node000010"><a xlink:title=" ">
<polygon fill="#e0e0e0" stroke="#999999" points="623.88,-76 570.38,-76 570.38,-56 623.88,-56 623.88,-76"/>
<text text-anchor="middle" x="597.12" y="-62.5" font-family="Helvetica,sans-Serif" font-size="10.00">iostream</text>
</a>
</g>
</g>
<!-- Node9&#45;&gt;Node10 -->
<g id="edge9_Node000009_Node000010" class="edge">
<title>Node9&#45;&gt;Node10</title>
<g id="a_edge9_Node000009_Node000010"><a xlink:title=" ">
<path fill="none" stroke="#63b8ff" d="M715.5,-231.94C782.99,-229.22 923.9,-219.79 959.12,-188 984.68,-164.93 997.16,-137.59 974.12,-112 925.29,-57.74 725.93,-86.58 635.42,-75.84"/>
<polygon fill="#63b8ff" stroke="#63b8ff" points="636.06,-72.4 625.66,-74.41 635.05,-79.33 636.06,-72.4"/>
</a>
</g>
</g>
<!-- Node11 -->
<g id="Node000011" class="node">
<title>Node11</title>
<g id="a_Node000011"><a xlink:title=" ">
<polygon fill="#e0e0e0" stroke="#999999" points="749.75,-132 698.5,-132 698.5,-112 749.75,-112 749.75,-132"/>
<text text-anchor="middle" x="724.12" y="-118.5" font-family="Helvetica,sans-Serif" font-size="10.00">memory</text>
</a>
</g>
</g>
<!-- Node9&#45;&gt;Node11 -->
<g id="edge10_Node000009_Node000011" class="edge">
<title>Node9&#45;&gt;Node11</title>
<g id="a_edge10_Node000009_Node000011"><a xlink:title=" ">
<path fill="none" stroke="#63b8ff" d="M685.39,-223.69C691.15,-214.82 699.59,-200.94 705.12,-188 711.36,-173.42 716.3,-156.16 719.58,-143.09"/>
<polygon fill="#63b8ff" stroke="#63b8ff" points="722.94,-144.08 721.85,-133.54 716.13,-142.46 722.94,-144.08"/>
</a>
</g>
</g>
<!-- Node12 -->
<g id="Node000012" class="node">
<title>Node12</title>
<g id="a_Node000012"><a xlink:title=" ">
<polygon fill="#e0e0e0" stroke="#999999" points="810.62,-132 767.62,-132 767.62,-112 810.62,-112 810.62,-132"/>
<text text-anchor="middle" x="789.12" y="-118.5" font-family="Helvetica,sans-Serif" font-size="10.00">vector</text>
</a>
</g>
</g>
<!-- Node9&#45;&gt;Node12 -->
<g id="edge11_Node000009_Node000012" class="edge">
<title>Node9&#45;&gt;Node12</title>
<g id="a_edge11_Node000009_Node000012"><a xlink:title=" ">
<path fill="none" stroke="#63b8ff" d="M688.5,-223.62C706.93,-205.19 748.12,-164.01 771.68,-140.44"/>
<polygon fill="#63b8ff" stroke="#63b8ff" points="774.1,-142.97 778.7,-133.43 769.15,-138.02 774.1,-142.97"/>
</a>
</g>
</g>
<!-- Node13 -->
<g id="Node000013" class="node">
<title>Node13</title>
<g id="a_Node000013"><a xlink:href="EntityManager_8hpp.html" target="_top" xlink:title=" ">
<polygon fill="white" stroke="#666666" points="950,-188 852.25,-188 852.25,-168 950,-168 950,-188"/>
<text text-anchor="middle" x="901.12" y="-174.5" font-family="Helvetica,sans-Serif" font-size="10.00">EntityManager.hpp</text>
</a>
</g>
</g>
<!-- Node9&#45;&gt;Node13 -->
<g id="edge12_Node000009_Node000013" class="edge">
<title>Node9&#45;&gt;Node13</title>
<g id="a_edge12_Node000009_Node000013"><a xlink:title=" ">
<path fill="none" stroke="#63b8ff" d="M715.29,-224.2C752.24,-215.22 809.89,-201.19 851.18,-191.15"/>
<polygon fill="#63b8ff" stroke="#63b8ff" points="852.01,-194.55 860.89,-188.79 850.35,-187.75 852.01,-194.55"/>
</a>
</g>
</g>
<!-- Node16 -->
<g id="Node000016" class="node">
<title>Node16</title>
<g id="a_Node000016"><a xlink:href="ComponentManager_8hpp.html" target="_top" xlink:title=" ">
<polygon fill="white" stroke="#666666" points="696.38,-188 573.88,-188 573.88,-168 696.38,-168 696.38,-188"/>
<text text-anchor="middle" x="635.12" y="-174.5" font-family="Helvetica,sans-Serif" font-size="10.00">ComponentManager.hpp</text>
</a>
</g>
</g>
<!-- Node9&#45;&gt;Node16 -->
<g id="edge16_Node000009_Node000016" class="edge">
<title>Node9&#45;&gt;Node16</title>
<g id="a_edge16_Node000009_Node000016"><a xlink:title=" ">
<path fill="none" stroke="#63b8ff" d="M671.46,-223.59C665.53,-216.32 657.14,-206.02 649.91,-197.15"/>
<polygon fill="#63b8ff" stroke="#63b8ff" points="652.69,-195.01 643.66,-189.47 647.26,-199.43 652.69,-195.01"/>
</a>
</g>
</g>
<!-- Node19 -->
<g id="Node000019" class="node">
<title>Node19</title>
<g id="a_Node000019"><a xlink:href="SystemManager_8hpp.html" target="_top" xlink:title=" ">
<polygon fill="white" stroke="#666666" points="556.12,-188 450.12,-188 450.12,-168 556.12,-168 556.12,-188"/>
<text text-anchor="middle" x="503.12" y="-174.5" font-family="Helvetica,sans-Serif" font-size="10.00">SystemManager.hpp</text>
</a>
</g>
</g>
<!-- Node9&#45;&gt;Node19 -->
<g id="edge29_Node000009_Node000019" class="edge">
<title>Node9&#45;&gt;Node19</title>
<g id="a_edge29_Node000009_Node000019"><a xlink:title=" ">
<path fill="none" stroke="#63b8ff" d="M648.47,-223.59C619.75,-214.78 576.59,-201.54 544.76,-191.78"/>
<polygon fill="#63b8ff" stroke="#63b8ff" points="546.05,-188.51 535.47,-188.92 544,-195.2 546.05,-188.51"/>
</a>
</g>
</g>
<!-- Node22 -->
<g id="Node000022" class="node">
<title>Node22</title>
<g id="a_Node000022"><a xlink:href="EventManager_8hpp.html" target="_top" xlink:title=" ">
<polygon fill="white" stroke="#666666" points="252,-188 154.25,-188 154.25,-168 252,-168 252,-188"/>
<text text-anchor="middle" x="203.12" y="-174.5" font-family="Helvetica,sans-Serif" font-size="10.00">EventManager.hpp</text>
</a>
</g>
</g>
<!-- Node9&#45;&gt;Node22 -->
<g id="edge38_Node000009_Node000022" class="edge">
<title>Node9&#45;&gt;Node22</title>
<g id="a_edge38_Node000009_Node000022"><a xlink:title=" ">
<path fill="none" stroke="#63b8ff" d="M642.56,-228.85C561.11,-219.61 364,-197.25 263.8,-185.88"/>
<polygon fill="#63b8ff" stroke="#63b8ff" points="264.2,-182.41 253.87,-184.76 263.41,-189.36 264.2,-182.41"/>
</a>
</g>
</g>
<!-- Node13&#45;&gt;Node6 -->
<g id="edge15_Node000013_Node000006" class="edge">
<title>Node13&#45;&gt;Node6</title>
<g id="a_edge15_Node000013_Node000006"><a xlink:title=" ">
<path fill="none" stroke="#63b8ff" d="M926.36,-167.59C953.95,-155.87 992.01,-134.64 974.12,-112 956.08,-89.15 876.4,-76.65 826.44,-70.94"/>
<polygon fill="#63b8ff" stroke="#63b8ff" points="826.87,-67.46 816.55,-69.86 826.11,-74.42 826.87,-67.46"/>
</a>
</g>
</g>
<!-- Node14 -->
<g id="Node000014" class="node">
<title>Node14</title>
<g id="a_Node000014"><a xlink:title=" ">
<polygon fill="#e0e0e0" stroke="#999999" points="965.25,-132 923,-132 923,-112 965.25,-112 965.25,-132"/>
<text text-anchor="middle" x="944.12" y="-118.5" font-family="Helvetica,sans-Serif" font-size="10.00">queue</text>
</a>
</g>
</g>
<!-- Node13&#45;&gt;Node14 -->
<g id="edge13_Node000013_Node000014" class="edge">
<title>Node13&#45;&gt;Node14</title>
<g id="a_edge13_Node000013_Node000014"><a xlink:title=" ">
<path fill="none" stroke="#63b8ff" d="M908.62,-167.59C914.41,-160.32 922.61,-150.02 929.67,-141.15"/>
<polygon fill="#63b8ff" stroke="#63b8ff" points="932.29,-143.49 935.78,-133.48 926.81,-139.12 932.29,-143.49"/>
</a>
</g>
</g>
<!-- Node15 -->
<g id="Node000015" class="node">
<title>Node15</title>
<g id="a_Node000015"><a xlink:title=" ">
<polygon fill="#e0e0e0" stroke="#999999" points="905,-132 867.25,-132 867.25,-112 905,-112 905,-132"/>
<text text-anchor="middle" x="886.12" y="-118.5" font-family="Helvetica,sans-Serif" font-size="10.00">array</text>
</a>
</g>
</g>
<!-- Node13&#45;&gt;Node15 -->
<g id="edge14_Node000013_Node000015" class="edge">
<title>Node13&#45;&gt;Node15</title>
<g id="a_edge14_Node000013_Node000015"><a xlink:title=" ">
<path fill="none" stroke="#63b8ff" d="M898.51,-167.59C896.64,-160.86 894.05,-151.53 891.72,-143.15"/>
<polygon fill="#63b8ff" stroke="#63b8ff" points="895.16,-142.46 889.11,-133.76 888.42,-144.33 895.16,-142.46"/>
</a>
</g>
</g>
<!-- Node16&#45;&gt;Node3 -->
<g id="edge17_Node000016_Node000003" class="edge">
<title>Node16&#45;&gt;Node3</title>
<g id="a_edge17_Node000016_Node000003"><a xlink:title=" ">
<path fill="none" stroke="#63b8ff" d="M582.13,-167.58C546.08,-160.21 497.75,-148.45 457.12,-132 424.17,-118.65 389.1,-97.2 366.93,-82.63"/>
<polygon fill="#63b8ff" stroke="#63b8ff" points="368.94,-79.76 358.68,-77.12 365.05,-85.58 368.94,-79.76"/>
</a>
</g>
</g>
<!-- Node16&#45;&gt;Node4 -->
<g id="edge18_Node000016_Node000004" class="edge">
<title>Node16&#45;&gt;Node4</title>
<g id="a_edge18_Node000016_Node000004"><a xlink:title=" ">
<path fill="none" stroke="#63b8ff" d="M575.69,-167.53C503.36,-156.01 383.92,-136.98 327.5,-128"/>
<polygon fill="#63b8ff" stroke="#63b8ff" points="328.37,-124.59 317.95,-126.48 327.27,-131.51 328.37,-124.59"/>
</a>
</g>
</g>
<!-- Node16&#45;&gt;Node5 -->
<g id="edge20_Node000016_Node000005" class="edge">
<title>Node16&#45;&gt;Node5</title>
<g id="a_edge20_Node000016_Node000005"><a xlink:title=" ">
<path fill="none" stroke="#63b8ff" d="M585.49,-167.51C545.59,-159.06 493.57,-145.9 477.12,-132 463.55,-120.53 455.49,-101.75 451.01,-87.32"/>
<polygon fill="#63b8ff" stroke="#63b8ff" points="454.46,-86.65 448.44,-77.93 447.7,-88.5 454.46,-86.65"/>
</a>
</g>
</g>
<!-- Node16&#45;&gt;Node6 -->
<g id="edge22_Node000016_Node000006" class="edge">
<title>Node16&#45;&gt;Node6</title>
<g id="a_edge22_Node000016_Node000006"><a xlink:title=" ">
<path fill="none" stroke="#63b8ff" d="M696.61,-170.2C744.33,-163.51 804.86,-151.43 820.12,-132 831.8,-117.15 818.42,-97.85 804.98,-84.15"/>
<polygon fill="#63b8ff" stroke="#63b8ff" points="807.59,-81.8 797.92,-77.47 802.78,-86.88 807.59,-81.8"/>
</a>
</g>
</g>
<!-- Node16&#45;&gt;Node11 -->
<g id="edge19_Node000016_Node000011" class="edge">
<title>Node16&#45;&gt;Node11</title>
<g id="a_edge19_Node000016_Node000011"><a xlink:title=" ">
<path fill="none" stroke="#63b8ff" d="M650.63,-167.59C663.95,-159.51 683.4,-147.71 698.95,-138.27"/>
<polygon fill="#63b8ff" stroke="#63b8ff" points="700.47,-141.44 707.21,-133.26 696.84,-135.46 700.47,-141.44"/>
</a>
</g>
</g>
<!-- Node16&#45;&gt;Node12 -->
<g id="edge21_Node000016_Node000012" class="edge">
<title>Node16&#45;&gt;Node12</title>
<g id="a_edge21_Node000016_Node000012"><a xlink:title=" ">
<path fill="none" stroke="#63b8ff" d="M661.95,-167.59C688.42,-158.31 728.92,-144.11 757.07,-134.24"/>
<polygon fill="#63b8ff" stroke="#63b8ff" points="757.86,-137.67 766.14,-131.06 755.55,-131.07 757.86,-137.67"/>
</a>
</g>
</g>
<!-- Node17 -->
<g id="Node000017" class="node">
<title>Node17</title>
<g id="a_Node000017"><a xlink:href="ComponentArray_8hpp.html" target="_top" xlink:title=" ">
<polygon fill="white" stroke="#666666" points="593.88,-132 486.38,-132 486.38,-112 593.88,-112 593.88,-132"/>
<text text-anchor="middle" x="540.12" y="-118.5" font-family="Helvetica,sans-Serif" font-size="10.00">ComponentArray.hpp</text>
</a>
</g>
</g>
<!-- Node16&#45;&gt;Node17 -->
<g id="edge23_Node000016_Node000017" class="edge">
<title>Node16&#45;&gt;Node17</title>
<g id="a_edge23_Node000016_Node000017"><a xlink:title=" ">
<path fill="none" stroke="#63b8ff" d="M618.58,-167.59C604.23,-159.44 583.2,-147.48 566.52,-138"/>
<polygon fill="#63b8ff" stroke="#63b8ff" points="568.54,-135.13 558.12,-133.23 565.08,-141.21 568.54,-135.13"/>
</a>
</g>
</g>
<!-- Node17&#45;&gt;Node3 -->
<g id="edge25_Node000017_Node000003" class="edge">
<title>Node17&#45;&gt;Node3</title>
<g id="a_edge25_Node000017_Node000003"><a xlink:title=" ">
<path fill="none" stroke="#63b8ff" d="M505.98,-111.59C473.72,-102.71 425.1,-89.31 389.57,-79.52"/>
<polygon fill="#63b8ff" stroke="#63b8ff" points="390.56,-76.16 379.99,-76.88 388.7,-82.91 390.56,-76.16"/>
</a>
</g>
</g>
<!-- Node17&#45;&gt;Node5 -->
<g id="edge26_Node000017_Node000005" class="edge">
<title>Node17&#45;&gt;Node5</title>
<g id="a_edge26_Node000017_Node000005"><a xlink:title=" ">
<path fill="none" stroke="#63b8ff" d="M523.75,-111.59C509.55,-103.44 488.74,-91.48 472.24,-82"/>
<polygon fill="#63b8ff" stroke="#63b8ff" points="474.35,-79.18 463.94,-77.23 470.87,-85.25 474.35,-79.18"/>
</a>
</g>
</g>
<!-- Node17&#45;&gt;Node6 -->
<g id="edge28_Node000017_Node000006" class="edge">
<title>Node17&#45;&gt;Node6</title>
<g id="a_edge28_Node000017_Node000006"><a xlink:title=" ">
<path fill="none" stroke="#63b8ff" d="M583.08,-111.53C628.4,-101.54 699.32,-85.91 743.96,-76.07"/>
<polygon fill="#63b8ff" stroke="#63b8ff" points="744.49,-79.54 753.5,-73.97 742.98,-72.7 744.49,-79.54"/>
</a>
</g>
</g>
<!-- Node17&#45;&gt;Node10 -->
<g id="edge27_Node000017_Node000010" class="edge">
<title>Node17&#45;&gt;Node10</title>
<g id="a_edge27_Node000017_Node000010"><a xlink:title=" ">
<path fill="none" stroke="#63b8ff" d="M550.05,-111.59C558.06,-104.01 569.54,-93.13 579.16,-84.02"/>
<polygon fill="#63b8ff" stroke="#63b8ff" points="581.36,-86.76 586.21,-77.34 576.54,-81.68 581.36,-86.76"/>
</a>
</g>
</g>
<!-- Node18 -->
<g id="Node000018" class="node">
<title>Node18</title>
<g id="a_Node000018"><a xlink:title=" ">
<polygon fill="#e0e0e0" stroke="#999999" points="552.12,-76 494.12,-76 494.12,-56 552.12,-56 552.12,-76"/>
<text text-anchor="middle" x="523.12" y="-62.5" font-family="Helvetica,sans-Serif" font-size="10.00">exception</text>
</a>
</g>
</g>
<!-- Node17&#45;&gt;Node18 -->
<g id="edge24_Node000017_Node000018" class="edge">
<title>Node17&#45;&gt;Node18</title>
<g id="a_edge24_Node000017_Node000018"><a xlink:title=" ">
<path fill="none" stroke="#63b8ff" d="M537.16,-111.59C535.04,-104.86 532.11,-95.53 529.47,-87.15"/>
<polygon fill="#63b8ff" stroke="#63b8ff" points="532.85,-86.23 526.51,-77.74 526.17,-88.33 532.85,-86.23"/>
</a>
</g>
</g>
<!-- Node19&#45;&gt;Node3 -->
<g id="edge30_Node000019_Node000003" class="edge">
<title>Node19&#45;&gt;Node3</title>
<g id="a_edge30_Node000019_Node000003"><a xlink:title=" ">
<path fill="none" stroke="#63b8ff" d="M449.68,-170.37C422.23,-164.45 390.04,-153.23 368.12,-132 355.96,-120.22 349.92,-101.74 346.94,-87.49"/>
<polygon fill="#63b8ff" stroke="#63b8ff" points="350.43,-87.1 345.29,-77.83 343.52,-88.27 350.43,-87.1"/>
</a>
</g>
</g>
<!-- Node19&#45;&gt;Node4 -->
<g id="edge31_Node000019_Node000004" class="edge">
<title>Node19&#45;&gt;Node4</title>
<g id="a_edge31_Node000019_Node000004"><a xlink:title=" ">
<path fill="none" stroke="#63b8ff" d="M466.66,-167.56C431.64,-158.49 377.25,-144.37 330.12,-132 329.31,-131.78 328.48,-131.57 327.64,-131.35"/>
<polygon fill="#63b8ff" stroke="#63b8ff" points="328.64,-127.99 318.08,-128.83 326.86,-134.76 328.64,-127.99"/>
</a>
</g>
</g>
<!-- Node19&#45;&gt;Node5 -->
<g id="edge34_Node000019_Node000005" class="edge">
<title>Node19&#45;&gt;Node5</title>
<g id="a_edge34_Node000019_Node000005"><a xlink:title=" ">
<path fill="none" stroke="#63b8ff" d="M482.69,-167.61C469.02,-160.11 452.13,-148.16 444.12,-132 437.3,-118.21 438.31,-100.68 440.74,-87.3"/>
<polygon fill="#63b8ff" stroke="#63b8ff" points="444.08,-88.41 442.87,-77.89 437.25,-86.87 444.08,-88.41"/>
</a>
</g>
</g>
<!-- Node19&#45;&gt;Node11 -->
<g id="edge33_Node000019_Node000011" class="edge">
<title>Node19&#45;&gt;Node11</title>
<g id="a_edge33_Node000019_Node000011"><a xlink:title=" ">
<path fill="none" stroke="#63b8ff" d="M543.08,-167.51C578.41,-159.08 631.66,-146.27 687.04,-132.49"/>
<polygon fill="#63b8ff" stroke="#63b8ff" points="687.82,-135.91 696.67,-130.09 686.12,-129.12 687.82,-135.91"/>
</a>
</g>
</g>
<!-- Node19&#45;&gt;Node12 -->
<g id="edge32_Node000019_Node000012" class="edge">
<title>Node19&#45;&gt;Node12</title>
<g id="a_edge32_Node000019_Node000012"><a xlink:title=" ">
<path fill="none" stroke="#63b8ff" d="M556.36,-168.4C614.98,-158.81 706.62,-143.42 756.18,-132.44"/>
<polygon fill="#63b8ff" stroke="#63b8ff" points="756.82,-135.88 765.78,-130.23 755.24,-129.06 756.82,-135.88"/>
</a>
</g>
</g>
<!-- Node20 -->
<g id="Node000020" class="node">
<title>Node20</title>
<g id="a_Node000020"><a xlink:href="System_8hpp.html" target="_top" xlink:title=" ">
<polygon fill="white" stroke="#666666" points="680.38,-132 611.88,-132 611.88,-112 680.38,-112 680.38,-132"/>
<text text-anchor="middle" x="646.12" y="-118.5" font-family="Helvetica,sans-Serif" font-size="10.00">System.hpp</text>
</a>
</g>
</g>
<!-- Node19&#45;&gt;Node20 -->
<g id="edge35_Node000019_Node000020" class="edge">
<title>Node19&#45;&gt;Node20</title>
<g id="a_edge35_Node000019_Node000020"><a xlink:title=" ">
<path fill="none" stroke="#63b8ff" d="M528.03,-167.59C550.86,-158.97 584.91,-146.12 610.59,-136.42"/>
<polygon fill="#63b8ff" stroke="#63b8ff" points="611.49,-139.82 619.61,-133.01 609.01,-133.27 611.49,-139.82"/>
</a>
</g>
</g>
<!-- Node20&#45;&gt;Node6 -->
<g id="edge37_Node000020_Node000006" class="edge">
<title>Node20&#45;&gt;Node6</title>
<g id="a_edge37_Node000020_Node000006"><a xlink:title=" ">
<path fill="none" stroke="#63b8ff" d="M670.34,-111.59C692.43,-103.01 725.32,-90.23 750.25,-80.55"/>
<polygon fill="#63b8ff" stroke="#63b8ff" points="751.26,-83.91 759.31,-77.03 748.72,-77.39 751.26,-83.91"/>
</a>
</g>
</g>
<!-- Node21 -->
<g id="Node000021" class="node">
<title>Node21</title>
<g id="a_Node000021"><a xlink:title=" ">
<polygon fill="#e0e0e0" stroke="#999999" points="671.88,-76 642.38,-76 642.38,-56 671.88,-56 671.88,-76"/>
<text text-anchor="middle" x="657.12" y="-62.5" font-family="Helvetica,sans-Serif" font-size="10.00">set</text>
</a>
</g>
</g>
<!-- Node20&#45;&gt;Node21 -->
<g id="edge36_Node000020_Node000021" class="edge">
<title>Node20&#45;&gt;Node21</title>
<g id="a_edge36_Node000020_Node000021"><a xlink:title=" ">
<path fill="none" stroke="#63b8ff" d="M648.04,-111.59C649.4,-104.93 651.27,-95.75 652.96,-87.44"/>
<polygon fill="#63b8ff" stroke="#63b8ff" points="656.36,-88.28 654.93,-77.78 649.5,-86.88 656.36,-88.28"/>
</a>
</g>
</g>
<!-- Node22&#45;&gt;Node2 -->
<g id="edge43_Node000022_Node000002" class="edge">
<title>Node22&#45;&gt;Node2</title>
<g id="a_edge43_Node000022_Node000002"><a xlink:title=" ">
<path fill="none" stroke="#63b8ff" d="M193.02,-167.59C184.87,-160.01 173.19,-149.13 163.41,-140.02"/>
<polygon fill="#63b8ff" stroke="#63b8ff" points="165.92,-137.58 156.22,-133.33 161.15,-142.71 165.92,-137.58"/>
</a>
</g>
</g>
<!-- Node23 -->
<g id="Node000023" class="node">
<title>Node23</title>
<g id="a_Node000023"><a xlink:href="Event_8hpp.html" target="_top" xlink:title=" ">
<polygon fill="white" stroke="#666666" points="60.25,-132 0,-132 0,-112 60.25,-112 60.25,-132"/>
<text text-anchor="middle" x="30.12" y="-118.5" font-family="Helvetica,sans-Serif" font-size="10.00">Event.hpp</text>
</a>
</g>
</g>
<!-- Node22&#45;&gt;Node23 -->
<g id="edge39_Node000022_Node000023" class="edge">
<title>Node22&#45;&gt;Node23</title>
<g id="a_edge39_Node000022_Node000023"><a xlink:title=" ">
<path fill="none" stroke="#63b8ff" d="M172.99,-167.59C144.88,-158.82 102.71,-145.66 71.47,-135.9"/>
<polygon fill="#63b8ff" stroke="#63b8ff" points="72.53,-132.57 61.94,-132.93 70.44,-139.25 72.53,-132.57"/>
</a>
</g>
</g>
<!-- Node25 -->
<g id="Node000025" class="node">
<title>Node25</title>
<g id="a_Node000025"><a xlink:title=" ">
<polygon fill="#e0e0e0" stroke="#999999" points="220.53,-132 191.72,-132 191.72,-112 220.53,-112 220.53,-132"/>
<text text-anchor="middle" x="206.12" y="-118.5" font-family="Helvetica,sans-Serif" font-size="10.00">list</text>
</a>
</g>
</g>
<!-- Node22&#45;&gt;Node25 -->
<g id="edge44_Node000022_Node000025" class="edge">
<title>Node22&#45;&gt;Node25</title>
<g id="a_edge44_Node000022_Node000025"><a xlink:title=" ">
<path fill="none" stroke="#63b8ff" d="M203.65,-167.59C204.01,-161.01 204.52,-151.96 204.97,-143.73"/>
<polygon fill="#63b8ff" stroke="#63b8ff" points="208.46,-143.99 205.52,-133.81 201.48,-143.6 208.46,-143.99"/>
</a>
</g>
</g>
<!-- Node23&#45;&gt;Node3 -->
<g id="edge41_Node000023_Node000003" class="edge">
<title>Node23&#45;&gt;Node3</title>
<g id="a_edge41_Node000023_Node000003"><a xlink:title=" ">
<path fill="none" stroke="#63b8ff" d="M60.39,-114.66C64.99,-113.74 69.68,-112.82 74.12,-112 149.37,-98.04 236.8,-83.83 291.3,-75.22"/>
<polygon fill="#63b8ff" stroke="#63b8ff" points="291.59,-78.72 300.92,-73.7 290.5,-71.8 291.59,-78.72"/>
</a>
</g>
</g>
<!-- Node23&#45;&gt;Node7 -->
<g id="edge40_Node000023_Node000007" class="edge">
<title>Node23&#45;&gt;Node7</title>
<g id="a_edge40_Node000023_Node000007"><a xlink:title=" ">
<path fill="none" stroke="#63b8ff" d="M29.9,-111.81C30.08,-97.51 32.72,-70.1 49.12,-56 93.55,-17.8 272.9,-11.83 348.86,-11.04"/>
<polygon fill="#63b8ff" stroke="#63b8ff" points="348.64,-14.54 358.62,-10.96 348.59,-7.54 348.64,-14.54"/>
</a>
</g>
</g>
<!-- Node24 -->
<g id="Node000024" class="node">
<title>Node24</title>
<g id="a_Node000024"><a xlink:title=" ">
<polygon fill="#e0e0e0" stroke="#999999" points="90,-76 58.25,-76 58.25,-56 90,-56 90,-76"/>
<text text-anchor="middle" x="74.12" y="-62.5" font-family="Helvetica,sans-Serif" font-size="10.00">any</text>
</a>
</g>
</g>
<!-- Node23&#45;&gt;Node24 -->
<g id="edge42_Node000023_Node000024" class="edge">
<title>Node23&#45;&gt;Node24</title>
<g id="a_edge42_Node000023_Node000024"><a xlink:title=" ">
<path fill="none" stroke="#63b8ff" d="M37.79,-111.59C43.72,-104.32 52.11,-94.02 59.34,-85.15"/>
<polygon fill="#63b8ff" stroke="#63b8ff" points="61.99,-87.43 65.59,-77.47 56.56,-83.01 61.99,-87.43"/>
</a>
</g>
</g>
</g>
</svg>
