<?xml version="1.0" encoding="UTF-8" standalone="no"?>
<!DOCTYPE svg PUBLIC "-//W3C//DTD SVG 1.1//EN"
 "http://www.w3.org/Graphics/SVG/1.1/DTD/svg11.dtd">
<!-- Generated by graphviz version 12.1.0 (20240811.2233)
 -->
<!-- Title: ComponentManager.hpp Pages: 1 -->
<svg width="331pt" height="196pt"
 viewBox="0.00 0.00 330.62 196.00" xmlns="http://www.w3.org/2000/svg" xmlns:xlink="http://www.w3.org/1999/xlink">
<g id="graph0" class="graph" transform="scale(1 1) rotate(0) translate(4 192)">
<title>ComponentManager.hpp</title>
<!-- Node1 -->
<g id="Node000001" class="node">
<title>Node1</title>
<g id="a_Node000001"><a xlink:title=" ">
<polygon fill="#999999" stroke="#666666" points="157.87,-188 35.37,-188 35.37,-168 157.87,-168 157.87,-188"/>
<text text-anchor="middle" x="96.62" y="-174.5" font-family="Helvetica,sans-Serif" font-size="10.00">ComponentManager.hpp</text>
</a>
</g>
</g>
<!-- Node2 -->
<g id="Node000002" class="node">
<title>Node2</title>
<g id="a_Node000002"><a xlink:title=" ">
<polygon fill="#e0e0e0" stroke="#999999" points="86.99,-76 4.24,-76 4.24,-56 86.99,-56 86.99,-76"/>
<text text-anchor="middle" x="45.62" y="-62.5" font-family="Helvetica,sans-Serif" font-size="10.00">unordered_map</text>
</a>
</g>
</g>
<!-- Node1&#45;&gt;Node2 -->
<g id="edge1_Node000001_Node000002" class="edge">
<title>Node1&#45;&gt;Node2</title>
<g id="a_edge1_Node000001_Node000002"><a xlink:title=" ">
<path fill="none" stroke="#63b8ff" d="M54.48,-167.5C35.5,-160.89 14.86,-149.93 3.62,-132 -6.82,-115.35 8.38,-96.5 23.33,-83.41"/>
<polygon fill="#63b8ff" stroke="#63b8ff" points="25.2,-86.41 30.74,-77.38 20.77,-80.98 25.2,-86.41"/>
</a>
</g>
</g>
<!-- Node3 -->
<g id="Node000003" class="node">
<title>Node3</title>
<g id="a_Node000003"><a xlink:title=" ">
<polygon fill="#e0e0e0" stroke="#999999" points="52.62,-132 12.62,-132 12.62,-112 52.62,-112 52.62,-132"/>
<text text-anchor="middle" x="32.62" y="-118.5" font-family="Helvetica,sans-Serif" font-size="10.00">string</text>
</a>
</g>
</g>
<!-- Node1&#45;&gt;Node3 -->
<g id="edge2_Node000001_Node000003" class="edge">
<title>Node1&#45;&gt;Node3</title>
<g id="a_edge2_Node000001_Node000003"><a xlink:title=" ">
<path fill="none" stroke="#63b8ff" d="M85.47,-167.59C76.29,-159.85 63.06,-148.69 52.14,-139.47"/>
<polygon fill="#63b8ff" stroke="#63b8ff" points="54.69,-137.05 44.79,-133.27 50.18,-142.4 54.69,-137.05"/>
</a>
</g>
</g>
<!-- Node4 -->
<g id="Node000004" class="node">
<title>Node4</title>
<g id="a_Node000004"><a xlink:title=" ">
<polygon fill="#e0e0e0" stroke="#999999" points="122.24,-132 70.99,-132 70.99,-112 122.24,-112 122.24,-132"/>
<text text-anchor="middle" x="96.62" y="-118.5" font-family="Helvetica,sans-Serif" font-size="10.00">memory</text>
</a>
</g>
</g>
<!-- Node1&#45;&gt;Node4 -->
<g id="edge3_Node000001_Node000004" class="edge">
<title>Node1&#45;&gt;Node4</title>
<g id="a_edge3_Node000001_Node000004"><a xlink:title=" ">
<path fill="none" stroke="#63b8ff" d="M96.62,-167.59C96.62,-161.01 96.62,-151.96 96.62,-143.73"/>
<polygon fill="#63b8ff" stroke="#63b8ff" points="100.12,-143.81 96.62,-133.81 93.12,-143.81 100.12,-143.81"/>
</a>
</g>
</g>
<!-- Node5 -->
<g id="Node000005" class="node">
<title>Node5</title>
<g id="a_Node000005"><a xlink:href="Entity_8hpp.html" target="_top" xlink:title=" ">
<polygon fill="white" stroke="#666666" points="302.37,-76 242.87,-76 242.87,-56 302.37,-56 302.37,-76"/>
<text text-anchor="middle" x="272.62" y="-62.5" font-family="Helvetica,sans-Serif" font-size="10.00">Entity.hpp</text>
</a>
</g>
</g>
<!-- Node1&#45;&gt;Node5 -->
<g id="edge4_Node000001_Node000005" class="edge">
<title>Node1&#45;&gt;Node5</title>
<g id="a_edge4_Node000001_Node000005"><a xlink:title=" ">
<path fill="none" stroke="#63b8ff" d="M158.14,-174.3C191.56,-169.62 231.13,-158.33 256.62,-132 267.99,-120.24 271.7,-101.76 272.73,-87.51"/>
<polygon fill="#63b8ff" stroke="#63b8ff" points="276.21,-87.96 273.02,-77.86 269.22,-87.74 276.21,-87.96"/>
</a>
</g>
</g>
<!-- Node8 -->
<g id="Node000008" class="node">
<title>Node8</title>
<g id="a_Node000008"><a xlink:href="ComponentArray_8hpp.html" target="_top" xlink:title=" ">
<polygon fill="white" stroke="#666666" points="247.37,-132 139.87,-132 139.87,-112 247.37,-112 247.37,-132"/>
<text text-anchor="middle" x="193.62" y="-118.5" font-family="Helvetica,sans-Serif" font-size="10.00">ComponentArray.hpp</text>
</a>
</g>
</g>
<!-- Node1&#45;&gt;Node8 -->
<g id="edge7_Node000001_Node000008" class="edge">
<title>Node1&#45;&gt;Node8</title>
<g id="a_edge7_Node000001_Node000008"><a xlink:title=" ">
<path fill="none" stroke="#63b8ff" d="M113.51,-167.59C128.17,-159.44 149.64,-147.48 166.66,-138"/>
<polygon fill="#63b8ff" stroke="#63b8ff" points="168.23,-141.14 175.27,-133.22 164.83,-135.02 168.23,-141.14"/>
</a>
</g>
</g>
<!-- Node6 -->
<g id="Node000006" class="node">
<title>Node6</title>
<g id="a_Node000006"><a xlink:title=" ">
<polygon fill="#e0e0e0" stroke="#999999" points="264.24,-20 218.99,-20 218.99,0 264.24,0 264.24,-20"/>
<text text-anchor="middle" x="241.62" y="-6.5" font-family="Helvetica,sans-Serif" font-size="10.00">cstdint</text>
</a>
</g>
</g>
<!-- Node5&#45;&gt;Node6 -->
<g id="edge5_Node000005_Node000006" class="edge">
<title>Node5&#45;&gt;Node6</title>
<g id="a_edge5_Node000005_Node000006"><a xlink:title=" ">
<path fill="none" stroke="#63b8ff" d="M267.22,-55.59C263.17,-48.55 257.5,-38.67 252.53,-30"/>
<polygon fill="#63b8ff" stroke="#63b8ff" points="255.72,-28.54 247.71,-21.61 249.65,-32.03 255.72,-28.54"/>
</a>
</g>
</g>
<!-- Node7 -->
<g id="Node000007" class="node">
<title>Node7</title>
<g id="a_Node000007"><a xlink:title=" ">
<polygon fill="#e0e0e0" stroke="#999999" points="322.62,-20 282.62,-20 282.62,0 322.62,0 322.62,-20"/>
<text text-anchor="middle" x="302.62" y="-6.5" font-family="Helvetica,sans-Serif" font-size="10.00">bitset</text>
</a>
</g>
</g>
<!-- Node5&#45;&gt;Node7 -->
<g id="edge6_Node000005_Node000007" class="edge">
<title>Node5&#45;&gt;Node7</title>
<g id="a_edge6_Node000005_Node000007"><a xlink:title=" ">
<path fill="none" stroke="#63b8ff" d="M277.84,-55.59C281.71,-48.63 287.13,-38.89 291.9,-30.29"/>
<polygon fill="#63b8ff" stroke="#63b8ff" points="294.92,-32.06 296.72,-21.62 288.8,-28.66 294.92,-32.06"/>
</a>
</g>
</g>
<!-- Node8&#45;&gt;Node2 -->
<g id="edge9_Node000008_Node000002" class="edge">
<title>Node8&#45;&gt;Node2</title>
<g id="a_edge9_Node000008_Node000002"><a xlink:title=" ">
<path fill="none" stroke="#63b8ff" d="M167.84,-111.59C144.21,-102.97 108.98,-90.12 82.4,-80.42"/>
<polygon fill="#63b8ff" stroke="#63b8ff" points="83.61,-77.14 73.02,-77 81.21,-83.71 83.61,-77.14"/>
</a>
</g>
</g>
<!-- Node8&#45;&gt;Node5 -->
<g id="edge10_Node000008_Node000005" class="edge">
<title>Node8&#45;&gt;Node5</title>
<g id="a_edge10_Node000008_Node000005"><a xlink:title=" ">
<path fill="none" stroke="#63b8ff" d="M207.38,-111.59C218.98,-103.67 235.81,-92.16 249.48,-82.82"/>
<polygon fill="#63b8ff" stroke="#63b8ff" points="251.22,-85.87 257.5,-77.33 247.27,-80.09 251.22,-85.87"/>
</a>
</g>
</g>
<!-- Node9 -->
<g id="Node000009" class="node">
<title>Node9</title>
<g id="a_Node000009"><a xlink:title=" ">
<polygon fill="#e0e0e0" stroke="#999999" points="222.62,-76 164.62,-76 164.62,-56 222.62,-56 222.62,-76"/>
<text text-anchor="middle" x="193.62" y="-62.5" font-family="Helvetica,sans-Serif" font-size="10.00">exception</text>
</a>
</g>
</g>
<!-- Node8&#45;&gt;Node9 -->
<g id="edge8_Node000008_Node000009" class="edge">
<title>Node8&#45;&gt;Node9</title>
<g id="a_edge8_Node000008_Node000009"><a xlink:title=" ">
<path fill="none" stroke="#63b8ff" d="M193.62,-111.59C193.62,-105.01 193.62,-95.96 193.62,-87.73"/>
<polygon fill="#63b8ff" stroke="#63b8ff" points="197.12,-87.81 193.62,-77.81 190.12,-87.81 197.12,-87.81"/>
</a>
</g>
</g>
</g>
</svg>
