<?xml version="1.0" encoding="UTF-8" standalone="no"?>
<!DOCTYPE svg PUBLIC "-//W3C//DTD SVG 1.1//EN"
 "http://www.w3.org/Graphics/SVG/1.1/DTD/svg11.dtd">
<!-- Generated by graphviz version 12.1.0 (20240811.2233)
 -->
<!-- Title: ComponentArray.cpp Pages: 1 -->
<svg width="264pt" height="196pt"
 viewBox="0.00 0.00 264.00 196.00" xmlns="http://www.w3.org/2000/svg" xmlns:xlink="http://www.w3.org/1999/xlink">
<g id="graph0" class="graph" transform="scale(1 1) rotate(0) translate(4 192)">
<title>ComponentArray.cpp</title>
<!-- Node1 -->
<g id="Node000001" class="node">
<title>Node1</title>
<g id="a_Node000001"><a xlink:title=" ">
<polygon fill="#999999" stroke="#666666" points="170.75,-188 63.25,-188 63.25,-168 170.75,-168 170.75,-188"/>
<text text-anchor="middle" x="117" y="-174.5" font-family="Helvetica,sans-Serif" font-size="10.00">ComponentArray.cpp</text>
</a>
</g>
</g>
<!-- Node2 -->
<g id="Node000002" class="node">
<title>Node2</title>
<g id="a_Node000002"><a xlink:href="ComponentArray_8hpp.html" target="_top" xlink:title=" ">
<polygon fill="white" stroke="#666666" points="170.75,-132 63.25,-132 63.25,-112 170.75,-112 170.75,-132"/>
<text text-anchor="middle" x="117" y="-118.5" font-family="Helvetica,sans-Serif" font-size="10.00">ComponentArray.hpp</text>
</a>
</g>
</g>
<!-- Node1&#45;&gt;Node2 -->
<g id="edge1_Node000001_Node000002" class="edge">
<title>Node1&#45;&gt;Node2</title>
<g id="a_edge1_Node000001_Node000002"><a xlink:title=" ">
<path fill="none" stroke="#63b8ff" d="M117,-167.59C117,-161.01 117,-151.96 117,-143.73"/>
<polygon fill="#63b8ff" stroke="#63b8ff" points="120.5,-143.81 117,-133.81 113.5,-143.81 120.5,-143.81"/>
</a>
</g>
</g>
<!-- Node3 -->
<g id="Node000003" class="node">
<title>Node3</title>
<g id="a_Node000003"><a xlink:title=" ">
<polygon fill="#e0e0e0" stroke="#999999" points="58,-76 0,-76 0,-56 58,-56 58,-76"/>
<text text-anchor="middle" x="29" y="-62.5" font-family="Helvetica,sans-Serif" font-size="10.00">exception</text>
</a>
</g>
</g>
<!-- Node2&#45;&gt;Node3 -->
<g id="edge2_Node000002_Node000003" class="edge">
<title>Node2&#45;&gt;Node3</title>
<g id="a_edge2_Node000002_Node000003"><a xlink:title=" ">
<path fill="none" stroke="#63b8ff" d="M101.67,-111.59C88.5,-103.51 69.27,-91.71 53.89,-82.27"/>
<polygon fill="#63b8ff" stroke="#63b8ff" points="56.09,-79.52 45.74,-77.27 52.43,-85.48 56.09,-79.52"/>
</a>
</g>
</g>
<!-- Node4 -->
<g id="Node000004" class="node">
<title>Node4</title>
<g id="a_Node000004"><a xlink:title=" ">
<polygon fill="#e0e0e0" stroke="#999999" points="158.38,-76 75.62,-76 75.62,-56 158.38,-56 158.38,-76"/>
<text text-anchor="middle" x="117" y="-62.5" font-family="Helvetica,sans-Serif" font-size="10.00">unordered_map</text>
</a>
</g>
</g>
<!-- Node2&#45;&gt;Node4 -->
<g id="edge3_Node000002_Node000004" class="edge">
<title>Node2&#45;&gt;Node4</title>
<g id="a_edge3_Node000002_Node000004"><a xlink:title=" ">
<path fill="none" stroke="#63b8ff" d="M117,-111.59C117,-105.01 117,-95.96 117,-87.73"/>
<polygon fill="#63b8ff" stroke="#63b8ff" points="120.5,-87.81 117,-77.81 113.5,-87.81 120.5,-87.81"/>
</a>
</g>
</g>
<!-- Node5 -->
<g id="Node000005" class="node">
<title>Node5</title>
<g id="a_Node000005"><a xlink:href="Entity_8hpp.html" target="_top" xlink:title=" ">
<polygon fill="white" stroke="#666666" points="235.75,-76 176.25,-76 176.25,-56 235.75,-56 235.75,-76"/>
<text text-anchor="middle" x="206" y="-62.5" font-family="Helvetica,sans-Serif" font-size="10.00">Entity.hpp</text>
</a>
</g>
</g>
<!-- Node2&#45;&gt;Node5 -->
<g id="edge4_Node000002_Node000005" class="edge">
<title>Node2&#45;&gt;Node5</title>
<g id="a_edge4_Node000002_Node000005"><a xlink:title=" ">
<path fill="none" stroke="#63b8ff" d="M132.5,-111.59C145.82,-103.51 165.28,-91.71 180.83,-82.27"/>
<polygon fill="#63b8ff" stroke="#63b8ff" points="182.35,-85.44 189.08,-77.26 178.72,-79.46 182.35,-85.44"/>
</a>
</g>
</g>
<!-- Node6 -->
<g id="Node000006" class="node">
<title>Node6</title>
<g id="a_Node000006"><a xlink:title=" ">
<polygon fill="#e0e0e0" stroke="#999999" points="197.62,-20 152.38,-20 152.38,0 197.62,0 197.62,-20"/>
<text text-anchor="middle" x="175" y="-6.5" font-family="Helvetica,sans-Serif" font-size="10.00">cstdint</text>
</a>
</g>
</g>
<!-- Node5&#45;&gt;Node6 -->
<g id="edge5_Node000005_Node000006" class="edge">
<title>Node5&#45;&gt;Node6</title>
<g id="a_edge5_Node000005_Node000006"><a xlink:title=" ">
<path fill="none" stroke="#63b8ff" d="M200.6,-55.59C196.56,-48.55 190.88,-38.67 185.91,-30"/>
<polygon fill="#63b8ff" stroke="#63b8ff" points="189.11,-28.54 181.09,-21.61 183.03,-32.03 189.11,-28.54"/>
</a>
</g>
</g>
<!-- Node7 -->
<g id="Node000007" class="node">
<title>Node7</title>
<g id="a_Node000007"><a xlink:title=" ">
<polygon fill="#e0e0e0" stroke="#999999" points="256,-20 216,-20 216,0 256,0 256,-20"/>
<text text-anchor="middle" x="236" y="-6.5" font-family="Helvetica,sans-Serif" font-size="10.00">bitset</text>
</a>
</g>
</g>
<!-- Node5&#45;&gt;Node7 -->
<g id="edge6_Node000005_Node000007" class="edge">
<title>Node5&#45;&gt;Node7</title>
<g id="a_edge6_Node000005_Node000007"><a xlink:title=" ">
<path fill="none" stroke="#63b8ff" d="M211.23,-55.59C215.1,-48.63 220.51,-38.89 225.28,-30.29"/>
<polygon fill="#63b8ff" stroke="#63b8ff" points="228.3,-32.06 230.1,-21.62 222.18,-28.66 228.3,-32.06"/>
</a>
</g>
</g>
</g>
</svg>
