<?xml version="1.0" encoding="UTF-8" standalone="no"?>
<!DOCTYPE svg PUBLIC "-//W3C//DTD SVG 1.1//EN"
 "http://www.w3.org/Graphics/SVG/1.1/DTD/svg11.dtd">
<!-- Generated by graphviz version 12.1.0 (20240811.2233)
 -->
<!-- Title: ComponentManager.cpp Pages: 1 -->
<svg width="352pt" height="252pt"
 viewBox="0.00 0.00 352.38 252.00" xmlns="http://www.w3.org/2000/svg" xmlns:xlink="http://www.w3.org/1999/xlink">
<g id="graph0" class="graph" transform="scale(1 1) rotate(0) translate(4 248)">
<title>ComponentManager.cpp</title>
<!-- Node1 -->
<g id="Node000001" class="node">
<title>Node1</title>
<g id="a_Node000001"><a xlink:title=" ">
<polygon fill="#999999" stroke="#666666" points="139.25,-244 16.75,-244 16.75,-224 139.25,-224 139.25,-244"/>
<text text-anchor="middle" x="78" y="-230.5" font-family="Helvetica,sans-Serif" font-size="10.00">ComponentManager.cpp</text>
</a>
</g>
</g>
<!-- Node2 -->
<g id="Node000002" class="node">
<title>Node2</title>
<g id="a_Node000002"><a xlink:title=" ">
<polygon fill="#e0e0e0" stroke="#999999" points="40,-132 0,-132 0,-112 40,-112 40,-132"/>
<text text-anchor="middle" x="20" y="-118.5" font-family="Helvetica,sans-Serif" font-size="10.00">string</text>
</a>
</g>
</g>
<!-- Node1&#45;&gt;Node2 -->
<g id="edge1_Node000001_Node000002" class="edge">
<title>Node1&#45;&gt;Node2</title>
<g id="a_edge1_Node000001_Node000002"><a xlink:title=" ">
<path fill="none" stroke="#63b8ff" d="M73.05,-223.62C63.6,-205.68 42.76,-166.17 30.2,-142.35"/>
<polygon fill="#63b8ff" stroke="#63b8ff" points="33.4,-140.91 25.64,-133.69 27.21,-144.17 33.4,-140.91"/>
</a>
</g>
</g>
<!-- Node3 -->
<g id="Node000003" class="node">
<title>Node3</title>
<g id="a_Node000003"><a xlink:href="ComponentManager_8hpp.html" target="_top" xlink:title=" ">
<polygon fill="white" stroke="#666666" points="191.25,-188 68.75,-188 68.75,-168 191.25,-168 191.25,-188"/>
<text text-anchor="middle" x="130" y="-174.5" font-family="Helvetica,sans-Serif" font-size="10.00">ComponentManager.hpp</text>
</a>
</g>
</g>
<!-- Node1&#45;&gt;Node3 -->
<g id="edge2_Node000001_Node000003" class="edge">
<title>Node1&#45;&gt;Node3</title>
<g id="a_edge2_Node000001_Node000003"><a xlink:title=" ">
<path fill="none" stroke="#63b8ff" d="M87.06,-223.59C94.22,-216.16 104.41,-205.58 113.07,-196.58"/>
<polygon fill="#63b8ff" stroke="#63b8ff" points="115.58,-199.02 120,-189.39 110.54,-194.16 115.58,-199.02"/>
</a>
</g>
</g>
<!-- Node3&#45;&gt;Node2 -->
<g id="edge4_Node000003_Node000002" class="edge">
<title>Node3&#45;&gt;Node2</title>
<g id="a_edge4_Node000003_Node000002"><a xlink:title=" ">
<path fill="none" stroke="#63b8ff" d="M110.84,-167.59C93.91,-159.28 68.95,-147.03 49.48,-137.47"/>
<polygon fill="#63b8ff" stroke="#63b8ff" points="51.19,-134.41 40.67,-133.15 48.1,-140.7 51.19,-134.41"/>
</a>
</g>
</g>
<!-- Node4 -->
<g id="Node000004" class="node">
<title>Node4</title>
<g id="a_Node000004"><a xlink:title=" ">
<polygon fill="#e0e0e0" stroke="#999999" points="344.38,-76 261.62,-76 261.62,-56 344.38,-56 344.38,-76"/>
<text text-anchor="middle" x="303" y="-62.5" font-family="Helvetica,sans-Serif" font-size="10.00">unordered_map</text>
</a>
</g>
</g>
<!-- Node3&#45;&gt;Node4 -->
<g id="edge3_Node000003_Node000004" class="edge">
<title>Node3&#45;&gt;Node4</title>
<g id="a_edge3_Node000003_Node000004"><a xlink:title=" ">
<path fill="none" stroke="#63b8ff" d="M191.74,-172.49C222.8,-167.16 258.87,-155.83 283,-132 294.83,-120.32 299.69,-101.83 301.68,-87.56"/>
<polygon fill="#63b8ff" stroke="#63b8ff" points="305.14,-88.17 302.64,-77.87 298.17,-87.48 305.14,-88.17"/>
</a>
</g>
</g>
<!-- Node5 -->
<g id="Node000005" class="node">
<title>Node5</title>
<g id="a_Node000005"><a xlink:title=" ">
<polygon fill="#e0e0e0" stroke="#999999" points="109.62,-132 58.38,-132 58.38,-112 109.62,-112 109.62,-132"/>
<text text-anchor="middle" x="84" y="-118.5" font-family="Helvetica,sans-Serif" font-size="10.00">memory</text>
</a>
</g>
</g>
<!-- Node3&#45;&gt;Node5 -->
<g id="edge5_Node000003_Node000005" class="edge">
<title>Node3&#45;&gt;Node5</title>
<g id="a_edge5_Node000003_Node000005"><a xlink:title=" ">
<path fill="none" stroke="#63b8ff" d="M121.99,-167.59C115.72,-160.24 106.83,-149.8 99.22,-140.87"/>
<polygon fill="#63b8ff" stroke="#63b8ff" points="102.05,-138.79 92.9,-133.45 96.72,-143.33 102.05,-138.79"/>
</a>
</g>
</g>
<!-- Node6 -->
<g id="Node000006" class="node">
<title>Node6</title>
<g id="a_Node000006"><a xlink:href="Entity_8hpp.html" target="_top" xlink:title=" ">
<polygon fill="white" stroke="#666666" points="167.75,-76 108.25,-76 108.25,-56 167.75,-56 167.75,-76"/>
<text text-anchor="middle" x="138" y="-62.5" font-family="Helvetica,sans-Serif" font-size="10.00">Entity.hpp</text>
</a>
</g>
</g>
<!-- Node3&#45;&gt;Node6 -->
<g id="edge6_Node000003_Node000006" class="edge">
<title>Node3&#45;&gt;Node6</title>
<g id="a_edge6_Node000003_Node000006"><a xlink:title=" ">
<path fill="none" stroke="#63b8ff" d="M130.68,-167.62C131.96,-150.01 134.76,-111.59 136.5,-87.65"/>
<polygon fill="#63b8ff" stroke="#63b8ff" points="139.98,-88.09 137.21,-77.86 132.99,-87.58 139.98,-88.09"/>
</a>
</g>
</g>
<!-- Node9 -->
<g id="Node000009" class="node">
<title>Node9</title>
<g id="a_Node000009"><a xlink:href="ComponentArray_8hpp.html" target="_top" xlink:title=" ">
<polygon fill="white" stroke="#666666" points="273.75,-132 166.25,-132 166.25,-112 273.75,-112 273.75,-132"/>
<text text-anchor="middle" x="220" y="-118.5" font-family="Helvetica,sans-Serif" font-size="10.00">ComponentArray.hpp</text>
</a>
</g>
</g>
<!-- Node3&#45;&gt;Node9 -->
<g id="edge9_Node000003_Node000009" class="edge">
<title>Node3&#45;&gt;Node9</title>
<g id="a_edge9_Node000003_Node000009"><a xlink:title=" ">
<path fill="none" stroke="#63b8ff" d="M145.68,-167.59C159.14,-159.51 178.82,-147.71 194.54,-138.27"/>
<polygon fill="#63b8ff" stroke="#63b8ff" points="196.13,-141.4 202.9,-133.26 192.53,-135.4 196.13,-141.4"/>
</a>
</g>
</g>
<!-- Node7 -->
<g id="Node000007" class="node">
<title>Node7</title>
<g id="a_Node000007"><a xlink:title=" ">
<polygon fill="#e0e0e0" stroke="#999999" points="130.62,-20 85.38,-20 85.38,0 130.62,0 130.62,-20"/>
<text text-anchor="middle" x="108" y="-6.5" font-family="Helvetica,sans-Serif" font-size="10.00">cstdint</text>
</a>
</g>
</g>
<!-- Node6&#45;&gt;Node7 -->
<g id="edge7_Node000006_Node000007" class="edge">
<title>Node6&#45;&gt;Node7</title>
<g id="a_edge7_Node000006_Node000007"><a xlink:title=" ">
<path fill="none" stroke="#63b8ff" d="M132.77,-55.59C128.9,-48.63 123.49,-38.89 118.72,-30.29"/>
<polygon fill="#63b8ff" stroke="#63b8ff" points="121.82,-28.66 113.9,-21.62 115.7,-32.06 121.82,-28.66"/>
</a>
</g>
</g>
<!-- Node8 -->
<g id="Node000008" class="node">
<title>Node8</title>
<g id="a_Node000008"><a xlink:title=" ">
<polygon fill="#e0e0e0" stroke="#999999" points="189,-20 149,-20 149,0 189,0 189,-20"/>
<text text-anchor="middle" x="169" y="-6.5" font-family="Helvetica,sans-Serif" font-size="10.00">bitset</text>
</a>
</g>
</g>
<!-- Node6&#45;&gt;Node8 -->
<g id="edge8_Node000006_Node000008" class="edge">
<title>Node6&#45;&gt;Node8</title>
<g id="a_edge8_Node000006_Node000008"><a xlink:title=" ">
<path fill="none" stroke="#63b8ff" d="M143.4,-55.59C147.44,-48.55 153.12,-38.67 158.09,-30"/>
<polygon fill="#63b8ff" stroke="#63b8ff" points="160.97,-32.03 162.91,-21.61 154.89,-28.54 160.97,-32.03"/>
</a>
</g>
</g>
<!-- Node9&#45;&gt;Node4 -->
<g id="edge11_Node000009_Node000004" class="edge">
<title>Node9&#45;&gt;Node4</title>
<g id="a_edge11_Node000009_Node000004"><a xlink:title=" ">
<path fill="none" stroke="#63b8ff" d="M234.46,-111.59C246.76,-103.59 264.68,-91.93 279.11,-82.54"/>
<polygon fill="#63b8ff" stroke="#63b8ff" points="280.69,-85.69 287.16,-77.3 276.87,-79.82 280.69,-85.69"/>
</a>
</g>
</g>
<!-- Node9&#45;&gt;Node6 -->
<g id="edge12_Node000009_Node000006" class="edge">
<title>Node9&#45;&gt;Node6</title>
<g id="a_edge12_Node000009_Node000006"><a xlink:title=" ">
<path fill="none" stroke="#63b8ff" d="M205.72,-111.59C193.56,-103.59 175.86,-91.93 161.6,-82.54"/>
<polygon fill="#63b8ff" stroke="#63b8ff" points="163.94,-79.89 153.66,-77.31 160.09,-85.73 163.94,-79.89"/>
</a>
</g>
</g>
<!-- Node10 -->
<g id="Node000010" class="node">
<title>Node10</title>
<g id="a_Node000010"><a xlink:title=" ">
<polygon fill="#e0e0e0" stroke="#999999" points="244,-76 186,-76 186,-56 244,-56 244,-76"/>
<text text-anchor="middle" x="215" y="-62.5" font-family="Helvetica,sans-Serif" font-size="10.00">exception</text>
</a>
</g>
</g>
<!-- Node9&#45;&gt;Node10 -->
<g id="edge10_Node000009_Node000010" class="edge">
<title>Node9&#45;&gt;Node10</title>
<g id="a_edge10_Node000009_Node000010"><a xlink:title=" ">
<path fill="none" stroke="#63b8ff" d="M219.13,-111.59C218.52,-105.01 217.68,-95.96 216.92,-87.73"/>
<polygon fill="#63b8ff" stroke="#63b8ff" points="220.41,-87.44 216,-77.81 213.44,-88.09 220.41,-87.44"/>
</a>
</g>
</g>
</g>
</svg>
