<?xml version="1.0" encoding="UTF-8" standalone="no"?>
<!DOCTYPE svg PUBLIC "-//W3C//DTD SVG 1.1//EN"
 "http://www.w3.org/Graphics/SVG/1.1/DTD/svg11.dtd">
<!-- Generated by graphviz version 12.1.0 (20240811.2233)
 -->
<!-- Title: ComponentArray.cpp Pages: 1 -->
<svg width="413pt" height="196pt"
 viewBox="0.00 0.00 413.00 196.00" xmlns="http://www.w3.org/2000/svg" xmlns:xlink="http://www.w3.org/1999/xlink">
<g id="graph0" class="graph" transform="scale(1 1) rotate(0) translate(4 192)">
<title>ComponentArray.cpp</title>
<!-- Node1 -->
<g id="Node000001" class="node">
<title>Node1</title>
<g id="a_Node000001"><a xlink:title=" ">
<polygon fill="#999999" stroke="#666666" points="259.75,-188 152.25,-188 152.25,-168 259.75,-168 259.75,-188"/>
<text text-anchor="middle" x="206" y="-174.5" font-family="Helvetica,sans-Serif" font-size="10.00">ComponentArray.cpp</text>
</a>
</g>
</g>
<!-- Node2 -->
<g id="Node000002" class="node">
<title>Node2</title>
<g id="a_Node000002"><a xlink:href="ComponentArray_8hpp.html" target="_top" xlink:title=" ">
<polygon fill="white" stroke="#666666" points="259.75,-132 152.25,-132 152.25,-112 259.75,-112 259.75,-132"/>
<text text-anchor="middle" x="206" y="-118.5" font-family="Helvetica,sans-Serif" font-size="10.00">ComponentArray.hpp</text>
</a>
</g>
</g>
<!-- Node1&#45;&gt;Node2 -->
<g id="edge1_Node000001_Node000002" class="edge">
<title>Node1&#45;&gt;Node2</title>
<g id="a_edge1_Node000001_Node000002"><a xlink:title=" ">
<path fill="none" stroke="#63b8ff" d="M206,-167.59C206,-161.01 206,-151.96 206,-143.73"/>
<polygon fill="#63b8ff" stroke="#63b8ff" points="209.5,-143.81 206,-133.81 202.5,-143.81 209.5,-143.81"/>
</a>
</g>
</g>
<!-- Node3 -->
<g id="Node000003" class="node">
<title>Node3</title>
<g id="a_Node000003"><a xlink:title=" ">
<polygon fill="#e0e0e0" stroke="#999999" points="58,-76 0,-76 0,-56 58,-56 58,-76"/>
<text text-anchor="middle" x="29" y="-62.5" font-family="Helvetica,sans-Serif" font-size="10.00">exception</text>
</a>
</g>
</g>
<!-- Node2&#45;&gt;Node3 -->
<g id="edge2_Node000002_Node000003" class="edge">
<title>Node2&#45;&gt;Node3</title>
<g id="a_edge2_Node000002_Node000003"><a xlink:title=" ">
<path fill="none" stroke="#63b8ff" d="M175.17,-111.59C145.75,-102.62 101.28,-89.05 69.12,-79.24"/>
<polygon fill="#63b8ff" stroke="#63b8ff" points="70.34,-75.95 59.75,-76.38 68.29,-82.65 70.34,-75.95"/>
</a>
</g>
</g>
<!-- Node4 -->
<g id="Node000004" class="node">
<title>Node4</title>
<g id="a_Node000004"><a xlink:title=" ">
<polygon fill="#e0e0e0" stroke="#999999" points="158.38,-76 75.62,-76 75.62,-56 158.38,-56 158.38,-76"/>
<text text-anchor="middle" x="117" y="-62.5" font-family="Helvetica,sans-Serif" font-size="10.00">unordered_map</text>
</a>
</g>
</g>
<!-- Node2&#45;&gt;Node4 -->
<g id="edge3_Node000002_Node000004" class="edge">
<title>Node2&#45;&gt;Node4</title>
<g id="a_edge3_Node000002_Node000004"><a xlink:title=" ">
<path fill="none" stroke="#63b8ff" d="M190.5,-111.59C177.18,-103.51 157.72,-91.71 142.17,-82.27"/>
<polygon fill="#63b8ff" stroke="#63b8ff" points="144.28,-79.46 133.92,-77.26 140.65,-85.44 144.28,-79.46"/>
</a>
</g>
</g>
<!-- Node5 -->
<g id="Node000005" class="node">
<title>Node5</title>
<g id="a_Node000005"><a xlink:title=" ">
<polygon fill="#e0e0e0" stroke="#999999" points="235.38,-76 176.62,-76 176.62,-56 235.38,-56 235.38,-76"/>
<text text-anchor="middle" x="206" y="-62.5" font-family="Helvetica,sans-Serif" font-size="10.00">stdexcept</text>
</a>
</g>
</g>
<!-- Node2&#45;&gt;Node5 -->
<g id="edge4_Node000002_Node000005" class="edge">
<title>Node2&#45;&gt;Node5</title>
<g id="a_edge4_Node000002_Node000005"><a xlink:title=" ">
<path fill="none" stroke="#63b8ff" d="M206,-111.59C206,-105.01 206,-95.96 206,-87.73"/>
<polygon fill="#63b8ff" stroke="#63b8ff" points="209.5,-87.81 206,-77.81 202.5,-87.81 209.5,-87.81"/>
</a>
</g>
</g>
<!-- Node6 -->
<g id="Node000006" class="node">
<title>Node6</title>
<g id="a_Node000006"><a xlink:title=" ">
<polygon fill="#e0e0e0" stroke="#999999" points="306.75,-76 253.25,-76 253.25,-56 306.75,-56 306.75,-76"/>
<text text-anchor="middle" x="280" y="-62.5" font-family="Helvetica,sans-Serif" font-size="10.00">iostream</text>
</a>
</g>
</g>
<!-- Node2&#45;&gt;Node6 -->
<g id="edge5_Node000002_Node000006" class="edge">
<title>Node2&#45;&gt;Node6</title>
<g id="a_edge5_Node000002_Node000006"><a xlink:title=" ">
<path fill="none" stroke="#63b8ff" d="M218.89,-111.59C229.71,-103.7 245.41,-92.24 258.19,-82.92"/>
<polygon fill="#63b8ff" stroke="#63b8ff" points="260.02,-85.91 266.04,-77.19 255.89,-80.26 260.02,-85.91"/>
</a>
</g>
</g>
<!-- Node7 -->
<g id="Node000007" class="node">
<title>Node7</title>
<g id="a_Node000007"><a xlink:href="Entity_8hpp.html" target="_top" xlink:title=" ">
<polygon fill="white" stroke="#666666" points="384.75,-76 325.25,-76 325.25,-56 384.75,-56 384.75,-76"/>
<text text-anchor="middle" x="355" y="-62.5" font-family="Helvetica,sans-Serif" font-size="10.00">Entity.hpp</text>
</a>
</g>
</g>
<!-- Node2&#45;&gt;Node7 -->
<g id="edge6_Node000002_Node000007" class="edge">
<title>Node2&#45;&gt;Node7</title>
<g id="a_edge6_Node000002_Node000007"><a xlink:title=" ">
<path fill="none" stroke="#63b8ff" d="M231.95,-111.59C255.84,-102.94 291.53,-90 318.33,-80.29"/>
<polygon fill="#63b8ff" stroke="#63b8ff" points="319.21,-83.69 327.42,-77 316.83,-77.11 319.21,-83.69"/>
</a>
</g>
</g>
<!-- Node8 -->
<g id="Node000008" class="node">
<title>Node8</title>
<g id="a_Node000008"><a xlink:title=" ">
<polygon fill="#e0e0e0" stroke="#999999" points="346.62,-20 301.38,-20 301.38,0 346.62,0 346.62,-20"/>
<text text-anchor="middle" x="324" y="-6.5" font-family="Helvetica,sans-Serif" font-size="10.00">cstdint</text>
</a>
</g>
</g>
<!-- Node7&#45;&gt;Node8 -->
<g id="edge7_Node000007_Node000008" class="edge">
<title>Node7&#45;&gt;Node8</title>
<g id="a_edge7_Node000007_Node000008"><a xlink:title=" ">
<path fill="none" stroke="#63b8ff" d="M349.6,-55.59C345.56,-48.55 339.88,-38.67 334.91,-30"/>
<polygon fill="#63b8ff" stroke="#63b8ff" points="338.11,-28.54 330.09,-21.61 332.03,-32.03 338.11,-28.54"/>
</a>
</g>
</g>
<!-- Node9 -->
<g id="Node000009" class="node">
<title>Node9</title>
<g id="a_Node000009"><a xlink:title=" ">
<polygon fill="#e0e0e0" stroke="#999999" points="405,-20 365,-20 365,0 405,0 405,-20"/>
<text text-anchor="middle" x="385" y="-6.5" font-family="Helvetica,sans-Serif" font-size="10.00">bitset</text>
</a>
</g>
</g>
<!-- Node7&#45;&gt;Node9 -->
<g id="edge8_Node000007_Node000009" class="edge">
<title>Node7&#45;&gt;Node9</title>
<g id="a_edge8_Node000007_Node000009"><a xlink:title=" ">
<path fill="none" stroke="#63b8ff" d="M360.23,-55.59C364.1,-48.63 369.51,-38.89 374.28,-30.29"/>
<polygon fill="#63b8ff" stroke="#63b8ff" points="377.3,-32.06 379.1,-21.62 371.18,-28.66 377.3,-32.06"/>
</a>
</g>
</g>
</g>
</svg>
