<?xml version="1.0" encoding="UTF-8" standalone="no"?>
<!DOCTYPE svg PUBLIC "-//W3C//DTD SVG 1.1//EN"
 "http://www.w3.org/Graphics/SVG/1.1/DTD/svg11.dtd">
<!-- Generated by graphviz version 12.1.0 (20240811.2233)
 -->
<!-- Title: ComponentManager.hpp Pages: 1 -->
<svg width="415pt" height="196pt"
 viewBox="0.00 0.00 415.38 196.00" xmlns="http://www.w3.org/2000/svg" xmlns:xlink="http://www.w3.org/1999/xlink">
<g id="graph0" class="graph" transform="scale(1 1) rotate(0) translate(4 192)">
<title>ComponentManager.hpp</title>
<!-- Node1 -->
<g id="Node000001" class="node">
<title>Node1</title>
<g id="a_Node000001"><a xlink:title=" ">
<polygon fill="#999999" stroke="#666666" points="179.5,-188 57,-188 57,-168 179.5,-168 179.5,-188"/>
<text text-anchor="middle" x="118.25" y="-174.5" font-family="Helvetica,sans-Serif" font-size="10.00">ComponentManager.hpp</text>
</a>
</g>
</g>
<!-- Node2 -->
<g id="Node000002" class="node">
<title>Node2</title>
<g id="a_Node000002"><a xlink:href="ComponentManager_8cpp.html" target="_top" xlink:title=" ">
<polygon fill="white" stroke="#666666" points="122.5,-132 0,-132 0,-112 122.5,-112 122.5,-132"/>
<text text-anchor="middle" x="61.25" y="-118.5" font-family="Helvetica,sans-Serif" font-size="10.00">ComponentManager.cpp</text>
</a>
</g>
</g>
<!-- Node1&#45;&gt;Node2 -->
<g id="edge1_Node000001_Node000002" class="edge">
<title>Node1&#45;&gt;Node2</title>
<g id="a_edge1_Node000001_Node000002"><a xlink:title=" ">
<path fill="none" stroke="#63b8ff" d="M100.14,-159.85C90.51,-150.72 79.04,-139.86 71.06,-132.3"/>
<polygon fill="#63b8ff" stroke="#63b8ff" points="97.56,-162.22 107.22,-166.55 102.37,-157.13 97.56,-162.22"/>
</a>
</g>
</g>
<!-- Node3 -->
<g id="Node000003" class="node">
<title>Node3</title>
<g id="a_Node000003"><a xlink:href="Mediator_8hpp.html" target="_top" xlink:title=" ">
<polygon fill="white" stroke="#666666" points="212.38,-132 140.12,-132 140.12,-112 212.38,-112 212.38,-132"/>
<text text-anchor="middle" x="176.25" y="-118.5" font-family="Helvetica,sans-Serif" font-size="10.00">Mediator.hpp</text>
</a>
</g>
</g>
<!-- Node1&#45;&gt;Node3 -->
<g id="edge2_Node000001_Node000003" class="edge">
<title>Node1&#45;&gt;Node3</title>
<g id="a_edge2_Node000001_Node000003"><a xlink:title=" ">
<path fill="none" stroke="#63b8ff" d="M136.67,-159.85C146.48,-150.72 158.15,-139.86 166.26,-132.3"/>
<polygon fill="#63b8ff" stroke="#63b8ff" points="134.39,-157.19 129.46,-166.56 139.16,-162.31 134.39,-157.19"/>
</a>
</g>
</g>
<!-- Node4 -->
<g id="Node000004" class="node">
<title>Node4</title>
<g id="a_Node000004"><a xlink:href="GameTypes_8cpp.html" target="_top" xlink:title=" ">
<polygon fill="white" stroke="#666666" points="269.88,-20 182.62,-20 182.62,0 269.88,0 269.88,-20"/>
<text text-anchor="middle" x="226.25" y="-6.5" font-family="Helvetica,sans-Serif" font-size="10.00">GameTypes.cpp</text>
</a>
</g>
</g>
<!-- Node3&#45;&gt;Node4 -->
<g id="edge3_Node000003_Node000004" class="edge">
<title>Node3&#45;&gt;Node4</title>
<g id="a_edge3_Node000003_Node000004"><a xlink:title=" ">
<path fill="none" stroke="#63b8ff" d="M128.89,-111.23C94.67,-103.09 52.69,-90.52 42.25,-76 37.06,-68.78 36.76,-62.99 42.25,-56 59.36,-34.21 133.66,-21.61 182.45,-15.54"/>
<polygon fill="#63b8ff" stroke="#63b8ff" points="127.68,-114.54 138.21,-113.37 129.25,-107.72 127.68,-114.54"/>
</a>
</g>
</g>
<!-- Node5 -->
<g id="Node000005" class="node">
<title>Node5</title>
<g id="a_Node000005"><a xlink:href="Mediator_8cpp.html" target="_top" xlink:title=" ">
<polygon fill="white" stroke="#666666" points="123.38,-76 51.12,-76 51.12,-56 123.38,-56 123.38,-76"/>
<text text-anchor="middle" x="87.25" y="-62.5" font-family="Helvetica,sans-Serif" font-size="10.00">Mediator.cpp</text>
</a>
</g>
</g>
<!-- Node3&#45;&gt;Node5 -->
<g id="edge4_Node000003_Node000005" class="edge">
<title>Node3&#45;&gt;Node5</title>
<g id="a_edge4_Node000003_Node000005"><a xlink:title=" ">
<path fill="none" stroke="#63b8ff" d="M151.22,-105.81C135.69,-96.39 116.23,-84.58 102.87,-76.48"/>
<polygon fill="#63b8ff" stroke="#63b8ff" points="149.09,-108.61 159.45,-110.81 152.72,-102.63 149.09,-108.61"/>
</a>
</g>
</g>
<!-- Node6 -->
<g id="Node000006" class="node">
<title>Node6</title>
<g id="a_Node000006"><a xlink:href="Physics_8hpp.html" target="_top" xlink:title=" ">
<polygon fill="white" stroke="#666666" points="211.25,-76 141.25,-76 141.25,-56 211.25,-56 211.25,-76"/>
<text text-anchor="middle" x="176.25" y="-62.5" font-family="Helvetica,sans-Serif" font-size="10.00">Physics.hpp</text>
</a>
</g>
</g>
<!-- Node3&#45;&gt;Node6 -->
<g id="edge5_Node000003_Node000006" class="edge">
<title>Node3&#45;&gt;Node6</title>
<g id="a_edge5_Node000003_Node000006"><a xlink:title=" ">
<path fill="none" stroke="#63b8ff" d="M176.25,-100.13C176.25,-91.9 176.25,-82.85 176.25,-76.3"/>
<polygon fill="#63b8ff" stroke="#63b8ff" points="172.75,-100.08 176.25,-110.08 179.75,-100.08 172.75,-100.08"/>
</a>
</g>
</g>
<!-- Node7 -->
<g id="Node000007" class="node">
<title>Node7</title>
<g id="a_Node000007"><a xlink:href="PlayerControl_8hpp.html" target="_top" xlink:title=" ">
<polygon fill="white" stroke="#666666" points="323.25,-76 229.25,-76 229.25,-56 323.25,-56 323.25,-76"/>
<text text-anchor="middle" x="276.25" y="-62.5" font-family="Helvetica,sans-Serif" font-size="10.00">PlayerControl.hpp</text>
</a>
</g>
</g>
<!-- Node3&#45;&gt;Node7 -->
<g id="edge7_Node000003_Node000007" class="edge">
<title>Node3&#45;&gt;Node7</title>
<g id="a_edge7_Node000003_Node000007"><a xlink:title=" ">
<path fill="none" stroke="#63b8ff" d="M203.38,-106.35C220.99,-96.84 243.4,-84.74 258.7,-76.48"/>
<polygon fill="#63b8ff" stroke="#63b8ff" points="202.14,-103.04 195,-110.87 205.46,-109.2 202.14,-103.04"/>
</a>
</g>
</g>
<!-- Node8 -->
<g id="Node000008" class="node">
<title>Node8</title>
<g id="a_Node000008"><a xlink:href="Render_8hpp.html" target="_top" xlink:title=" ">
<polygon fill="white" stroke="#666666" points="407.38,-76 341.12,-76 341.12,-56 407.38,-56 407.38,-76"/>
<text text-anchor="middle" x="374.25" y="-62.5" font-family="Helvetica,sans-Serif" font-size="10.00">Render.hpp</text>
</a>
</g>
</g>
<!-- Node3&#45;&gt;Node8 -->
<g id="edge9_Node000003_Node000008" class="edge">
<title>Node3&#45;&gt;Node8</title>
<g id="a_edge9_Node000003_Node000008"><a xlink:title=" ">
<path fill="none" stroke="#63b8ff" d="M221.54,-108.65C257.87,-98.74 308.05,-85.05 340.82,-76.12"/>
<polygon fill="#63b8ff" stroke="#63b8ff" points="220.93,-105.19 212.2,-111.2 222.77,-111.94 220.93,-105.19"/>
</a>
</g>
</g>
<!-- Node6&#45;&gt;Node4 -->
<g id="edge6_Node000006_Node000004" class="edge">
<title>Node6&#45;&gt;Node4</title>
<g id="a_edge6_Node000006_Node000004"><a xlink:title=" ">
<path fill="none" stroke="#63b8ff" d="M192.65,-47.29C200.99,-38.28 210.79,-27.7 217.64,-20.3"/>
<polygon fill="#63b8ff" stroke="#63b8ff" points="190.21,-44.77 185.99,-54.48 195.35,-49.52 190.21,-44.77"/>
</a>
</g>
</g>
<!-- Node7&#45;&gt;Node4 -->
<g id="edge8_Node000007_Node000004" class="edge">
<title>Node7&#45;&gt;Node4</title>
<g id="a_edge8_Node000007_Node000004"><a xlink:title=" ">
<path fill="none" stroke="#63b8ff" d="M259.85,-47.29C251.51,-38.28 241.71,-27.7 234.86,-20.3"/>
<polygon fill="#63b8ff" stroke="#63b8ff" points="257.15,-49.52 266.51,-54.48 262.29,-44.77 257.15,-49.52"/>
</a>
</g>
</g>
<!-- Node8&#45;&gt;Node4 -->
<g id="edge10_Node000008_Node000004" class="edge">
<title>Node8&#45;&gt;Node4</title>
<g id="a_edge10_Node000008_Node000004"><a xlink:title=" ">
<path fill="none" stroke="#63b8ff" d="M337.69,-51.66C311.17,-41.98 275.92,-29.12 252.23,-20.48"/>
<polygon fill="#63b8ff" stroke="#63b8ff" points="336.45,-54.94 347.05,-55.08 338.85,-48.36 336.45,-54.94"/>
</a>
</g>
</g>
</g>
</svg>
