<?xml version="1.0" encoding="UTF-8" standalone="no"?>
<!DOCTYPE svg PUBLIC "-//W3C//DTD SVG 1.1//EN"
 "http://www.w3.org/Graphics/SVG/1.1/DTD/svg11.dtd">
<!-- Generated by graphviz version 12.1.0 (20240811.2233)
 -->
<!-- Title: ComponentArray.hpp Pages: 1 -->
<svg width="1148pt" height="476pt"
 viewBox="0.00 0.00 1147.92 476.00" xmlns="http://www.w3.org/2000/svg" xmlns:xlink="http://www.w3.org/1999/xlink">
<g id="graph0" class="graph" transform="scale(1 1) rotate(0) translate(4 472)">
<title>ComponentArray.hpp</title>
<!-- Node1 -->
<g id="Node000001" class="node">
<title>Node1</title>
<g id="a_Node000001"><a xlink:title=" ">
<polygon fill="#999999" stroke="#666666" points="715.67,-468 608.17,-468 608.17,-448 715.67,-448 715.67,-468"/>
<text text-anchor="middle" x="661.92" y="-454.5" font-family="Helvetica,sans-Serif" font-size="10.00">ComponentArray.hpp</text>
</a>
</g>
</g>
<!-- Node2 -->
<g id="Node000002" class="node">
<title>Node2</title>
<g id="a_Node000002"><a xlink:href="ComponentArray_8cpp.html" target="_top" xlink:title=" ">
<polygon fill="white" stroke="#666666" points="649.67,-412 542.17,-412 542.17,-392 649.67,-392 649.67,-412"/>
<text text-anchor="middle" x="595.92" y="-398.5" font-family="Helvetica,sans-Serif" font-size="10.00">ComponentArray.cpp</text>
</a>
</g>
</g>
<!-- Node1&#45;&gt;Node2 -->
<g id="edge1_Node000001_Node000002" class="edge">
<title>Node1&#45;&gt;Node2</title>
<g id="a_edge1_Node000001_Node000002"><a xlink:title=" ">
<path fill="none" stroke="#63b8ff" d="M641.63,-440.4C630.34,-431.17 616.71,-420.01 607.28,-412.3"/>
<polygon fill="#63b8ff" stroke="#63b8ff" points="639.29,-443.01 649.25,-446.64 643.73,-437.59 639.29,-443.01"/>
</a>
</g>
</g>
<!-- Node3 -->
<g id="Node000003" class="node">
<title>Node3</title>
<g id="a_Node000003"><a xlink:href="ComponentManager_8hpp.html" target="_top" xlink:title=" ">
<polygon fill="white" stroke="#666666" points="790.17,-412 667.67,-412 667.67,-392 790.17,-392 790.17,-412"/>
<text text-anchor="middle" x="728.92" y="-398.5" font-family="Helvetica,sans-Serif" font-size="10.00">ComponentManager.hpp</text>
</a>
</g>
</g>
<!-- Node1&#45;&gt;Node3 -->
<g id="edge2_Node000001_Node000003" class="edge">
<title>Node1&#45;&gt;Node3</title>
<g id="a_edge2_Node000001_Node000003"><a xlink:title=" ">
<path fill="none" stroke="#63b8ff" d="M682.51,-440.4C693.97,-431.17 707.81,-420.01 717.38,-412.3"/>
<polygon fill="#63b8ff" stroke="#63b8ff" points="680.36,-437.64 674.77,-446.64 684.75,-443.09 680.36,-437.64"/>
</a>
</g>
</g>
<!-- Node4 -->
<g id="Node000004" class="node">
<title>Node4</title>
<g id="a_Node000004"><a xlink:href="ComponentManager_8cpp.html" target="_top" xlink:title=" ">
<polygon fill="white" stroke="#666666" points="732.17,-356 609.67,-356 609.67,-336 732.17,-336 732.17,-356"/>
<text text-anchor="middle" x="670.92" y="-342.5" font-family="Helvetica,sans-Serif" font-size="10.00">ComponentManager.cpp</text>
</a>
</g>
</g>
<!-- Node3&#45;&gt;Node4 -->
<g id="edge3_Node000003_Node000004" class="edge">
<title>Node3&#45;&gt;Node4</title>
<g id="a_edge3_Node000003_Node000004"><a xlink:title=" ">
<path fill="none" stroke="#63b8ff" d="M710.49,-383.85C700.69,-374.72 689.02,-363.86 680.91,-356.3"/>
<polygon fill="#63b8ff" stroke="#63b8ff" points="708,-386.31 717.71,-390.56 712.77,-381.19 708,-386.31"/>
</a>
</g>
</g>
<!-- Node5 -->
<g id="Node000005" class="node">
<title>Node5</title>
<g id="a_Node000005"><a xlink:href="Mediator_8hpp.html" target="_top" xlink:title=" ">
<polygon fill="white" stroke="#666666" points="822.04,-356 749.79,-356 749.79,-336 822.04,-336 822.04,-356"/>
<text text-anchor="middle" x="785.92" y="-342.5" font-family="Helvetica,sans-Serif" font-size="10.00">Mediator.hpp</text>
</a>
</g>
</g>
<!-- Node3&#45;&gt;Node5 -->
<g id="edge4_Node000003_Node000005" class="edge">
<title>Node3&#45;&gt;Node5</title>
<g id="a_edge4_Node000003_Node000005"><a xlink:title=" ">
<path fill="none" stroke="#63b8ff" d="M747.02,-383.85C756.66,-374.72 768.13,-363.86 776.1,-356.3"/>
<polygon fill="#63b8ff" stroke="#63b8ff" points="744.8,-381.13 739.95,-390.55 749.61,-386.22 744.8,-381.13"/>
</a>
</g>
</g>
<!-- Node6 -->
<g id="Node000006" class="node">
<title>Node6</title>
<g id="a_Node000006"><a xlink:href="ComponentRegistry_8hpp.html" target="_top" xlink:title=" ">
<polygon fill="white" stroke="#666666" points="707.42,-300 586.42,-300 586.42,-280 707.42,-280 707.42,-300"/>
<text text-anchor="middle" x="646.92" y="-286.5" font-family="Helvetica,sans-Serif" font-size="10.00">ComponentRegistry.hpp</text>
</a>
</g>
</g>
<!-- Node5&#45;&gt;Node6 -->
<g id="edge5_Node000005_Node000006" class="edge">
<title>Node5&#45;&gt;Node6</title>
<g id="a_edge5_Node000005_Node000006"><a xlink:title=" ">
<path fill="none" stroke="#63b8ff" d="M751.25,-331.53C726.38,-321.87 693.47,-309.08 671.32,-300.48"/>
<polygon fill="#63b8ff" stroke="#63b8ff" points="749.71,-334.69 760.3,-335.05 752.24,-328.16 749.71,-334.69"/>
</a>
</g>
</g>
<!-- Node7 -->
<g id="Node000007" class="node">
<title>Node7</title>
<g id="a_Node000007"><a xlink:href="NetworkManager_8hpp.html" target="_top" xlink:title=" ">
<polygon fill="white" stroke="#666666" points="698.42,-244 589.42,-244 589.42,-224 698.42,-224 698.42,-244"/>
<text text-anchor="middle" x="643.92" y="-230.5" font-family="Helvetica,sans-Serif" font-size="10.00">NetworkManager.hpp</text>
</a>
</g>
</g>
<!-- Node5&#45;&gt;Node7 -->
<g id="edge46_Node000005_Node000007" class="edge">
<title>Node5&#45;&gt;Node7</title>
<g id="a_edge46_Node000005_Node000007"><a xlink:title=" ">
<path fill="none" stroke="#63b8ff" d="M769.21,-327.41C755.75,-313.71 735.99,-294.62 716.92,-280 698.96,-266.23 676.59,-252.95 661.38,-244.43"/>
<polygon fill="#63b8ff" stroke="#63b8ff" points="766.56,-329.7 776.03,-334.45 771.59,-324.83 766.56,-329.7"/>
</a>
</g>
</g>
<!-- Node9 -->
<g id="Node000009" class="node">
<title>Node9</title>
<g id="a_Node000009"><a xlink:href="GameTypes_8cpp.html" target="_top" xlink:title=" ">
<polygon fill="white" stroke="#666666" points="490.54,-20 403.29,-20 403.29,0 490.54,0 490.54,-20"/>
<text text-anchor="middle" x="446.92" y="-6.5" font-family="Helvetica,sans-Serif" font-size="10.00">GameTypes.cpp</text>
</a>
</g>
</g>
<!-- Node5&#45;&gt;Node9 -->
<g id="edge43_Node000005_Node000009" class="edge">
<title>Node5&#45;&gt;Node9</title>
<g id="a_edge43_Node000005_Node000009"><a xlink:title=" ">
<path fill="none" stroke="#63b8ff" d="M738.58,-335.77C605.37,-315.73 566.17,-333.6 438.92,-300 252.49,-250.78 145.65,-292.59 38.92,-132 -16.36,-48.82 -46.85,-120.49 194.92,-56 266.84,-36.81 352.53,-23.47 403.18,-16.54"/>
<polygon fill="#63b8ff" stroke="#63b8ff" points="737.7,-339.18 748.12,-337.25 738.77,-332.26 737.7,-339.18"/>
</a>
</g>
</g>
<!-- Node10 -->
<g id="Node000010" class="node">
<title>Node10</title>
<g id="a_Node000010"><a xlink:href="GameTypes_8hpp.html" target="_top" xlink:title=" ">
<polygon fill="white" stroke="#666666" points="373.54,-76 286.29,-76 286.29,-56 373.54,-56 373.54,-76"/>
<text text-anchor="middle" x="329.92" y="-62.5" font-family="Helvetica,sans-Serif" font-size="10.00">GameTypes.hpp</text>
</a>
</g>
</g>
<!-- Node5&#45;&gt;Node10 -->
<g id="edge44_Node000005_Node000010" class="edge">
<title>Node5&#45;&gt;Node10</title>
<g id="a_edge44_Node000005_Node000010"><a xlink:title=" ">
<path fill="none" stroke="#63b8ff" d="M738.29,-336.22C640.96,-329.29 227.5,-342.79 186.92,-300 129.42,-239.37 135.36,-179.28 184.92,-112 207.9,-80.81 252.3,-70.6 285.94,-67.56"/>
<polygon fill="#63b8ff" stroke="#63b8ff" points="737.84,-339.7 748.13,-337.17 738.51,-332.73 737.84,-339.7"/>
</a>
</g>
</g>
<!-- Node12 -->
<g id="Node000012" class="node">
<title>Node12</title>
<g id="a_Node000012"><a xlink:href="Server_8hpp.html" target="_top" xlink:title=" ">
<polygon fill="white" stroke="#666666" points="927.54,-132 864.29,-132 864.29,-112 927.54,-112 927.54,-132"/>
<text text-anchor="middle" x="895.92" y="-118.5" font-family="Helvetica,sans-Serif" font-size="10.00">Server.hpp</text>
</a>
</g>
</g>
<!-- Node5&#45;&gt;Node12 -->
<g id="edge57_Node000005_Node000012" class="edge">
<title>Node5&#45;&gt;Node12</title>
<g id="a_edge57_Node000005_Node000012"><a xlink:title=" ">
<path fill="none" stroke="#63b8ff" d="M800.67,-327.15C828.56,-292.94 887.12,-218.82 896.92,-188 903,-168.85 900.14,-144.91 897.84,-132.09"/>
<polygon fill="#63b8ff" stroke="#63b8ff" points="798.27,-324.55 794.64,-334.5 803.69,-328.99 798.27,-324.55"/>
</a>
</g>
</g>
<!-- Node13 -->
<g id="Node000013" class="node">
<title>Node13</title>
<g id="a_Node000013"><a xlink:href="Server_8cpp.html" target="_top" xlink:title=" ">
<polygon fill="white" stroke="#666666" points="1133.54,-76 1070.29,-76 1070.29,-56 1133.54,-56 1133.54,-76"/>
<text text-anchor="middle" x="1101.92" y="-62.5" font-family="Helvetica,sans-Serif" font-size="10.00">Server.cpp</text>
</a>
</g>
</g>
<!-- Node5&#45;&gt;Node13 -->
<g id="edge56_Node000005_Node000013" class="edge">
<title>Node5&#45;&gt;Node13</title>
<g id="a_edge56_Node000005_Node000013"><a xlink:title=" ">
<path fill="none" stroke="#63b8ff" d="M833.62,-344.3C914.11,-342.18 1072.33,-333.73 1114.92,-300 1139.18,-280.78 1139.92,-265.95 1139.92,-235 1139.92,-235 1139.92,-235 1139.92,-177 1139.92,-137.8 1118.1,-94.84 1107.53,-76.33"/>
<polygon fill="#63b8ff" stroke="#63b8ff" points="833.75,-340.79 823.84,-344.53 833.92,-347.79 833.75,-340.79"/>
</a>
</g>
</g>
<!-- Node18 -->
<g id="Node000018" class="node">
<title>Node18</title>
<g id="a_Node000018"><a xlink:href="PlayerControl_8hpp.html" target="_top" xlink:title=" ">
<polygon fill="white" stroke="#666666" points="398.92,-188 304.92,-188 304.92,-168 398.92,-168 398.92,-188"/>
<text text-anchor="middle" x="351.92" y="-174.5" font-family="Helvetica,sans-Serif" font-size="10.00">PlayerControl.hpp</text>
</a>
</g>
</g>
<!-- Node5&#45;&gt;Node18 -->
<g id="edge54_Node000005_Node000018" class="edge">
<title>Node5&#45;&gt;Node18</title>
<g id="a_edge54_Node000005_Node000018"><a xlink:title=" ">
<path fill="none" stroke="#63b8ff" d="M738.39,-335.44C681.74,-323.94 592.84,-305.49 577.92,-300 493.12,-268.82 400.7,-211.01 366.06,-188.4"/>
<polygon fill="#63b8ff" stroke="#63b8ff" points="737.62,-338.86 748.12,-337.41 739.01,-332 737.62,-338.86"/>
</a>
</g>
</g>
<!-- Node21 -->
<g id="Node000021" class="node">
<title>Node21</title>
<g id="a_Node000021"><a xlink:href="Render_8hpp.html" target="_top" xlink:title=" ">
<polygon fill="white" stroke="#666666" points="260.04,-132 193.79,-132 193.79,-112 260.04,-112 260.04,-132"/>
<text text-anchor="middle" x="226.92" y="-118.5" font-family="Helvetica,sans-Serif" font-size="10.00">Render.hpp</text>
</a>
</g>
</g>
<!-- Node5&#45;&gt;Node21 -->
<g id="edge55_Node000005_Node000021" class="edge">
<title>Node5&#45;&gt;Node21</title>
<g id="a_edge55_Node000005_Node000021"><a xlink:title=" ">
<path fill="none" stroke="#63b8ff" d="M738.46,-335.61C527.46,-297.77 449.91,-315.15 281.92,-188 260.47,-171.76 241.72,-145.76 232.67,-132.08"/>
<polygon fill="#63b8ff" stroke="#63b8ff" points="737.63,-339.02 748.1,-337.37 738.89,-332.13 737.63,-339.02"/>
</a>
</g>
</g>
<!-- Node24 -->
<g id="Node000024" class="node">
<title>Node24</title>
<g id="a_Node000024"><a xlink:href="Mediator_8cpp.html" target="_top" xlink:title=" ">
<polygon fill="white" stroke="#666666" points="950.04,-300 877.79,-300 877.79,-280 950.04,-280 950.04,-300"/>
<text text-anchor="middle" x="913.92" y="-286.5" font-family="Helvetica,sans-Serif" font-size="10.00">Mediator.cpp</text>
</a>
</g>
</g>
<!-- Node5&#45;&gt;Node24 -->
<g id="edge45_Node000005_Node000024" class="edge">
<title>Node5&#45;&gt;Node24</title>
<g id="a_edge45_Node000005_Node000024"><a xlink:title=" ">
<path fill="none" stroke="#63b8ff" d="M818.77,-331.14C841.56,-321.52 871.33,-308.97 891.45,-300.48"/>
<polygon fill="#63b8ff" stroke="#63b8ff" points="817.46,-327.89 809.61,-335.01 820.18,-334.34 817.46,-327.89"/>
</a>
</g>
</g>
<!-- Node25 -->
<g id="Node000025" class="node">
<title>Node25</title>
<g id="a_Node000025"><a xlink:href="PhysicsEngine_8hpp.html" target="_top" xlink:title=" ">
<polygon fill="white" stroke="#666666" points="1105.92,-300 1005.92,-300 1005.92,-280 1105.92,-280 1105.92,-300"/>
<text text-anchor="middle" x="1055.92" y="-286.5" font-family="Helvetica,sans-Serif" font-size="10.00">PhysicsEngine.hpp</text>
</a>
</g>
</g>
<!-- Node5&#45;&gt;Node25 -->
<g id="edge47_Node000005_Node000025" class="edge">
<title>Node5&#45;&gt;Node25</title>
<g id="a_edge47_Node000005_Node000025"><a xlink:title=" ">
<path fill="none" stroke="#63b8ff" d="M833.34,-335.52C882.69,-325.65 959.51,-310.28 1008.76,-300.43"/>
<polygon fill="#63b8ff" stroke="#63b8ff" points="832.94,-332.03 823.82,-337.42 834.31,-338.89 832.94,-332.03"/>
</a>
</g>
</g>
<!-- Node26 -->
<g id="Node000026" class="node">
<title>Node26</title>
<g id="a_Node000026"><a xlink:href="PhysicsUsingEngine_8hpp.html" target="_top" xlink:title=" ">
<polygon fill="white" stroke="#666666" points="1076.67,-244 951.17,-244 951.17,-224 1076.67,-224 1076.67,-244"/>
<text text-anchor="middle" x="1013.92" y="-230.5" font-family="Helvetica,sans-Serif" font-size="10.00">PhysicsUsingEngine.hpp</text>
</a>
</g>
</g>
<!-- Node5&#45;&gt;Node26 -->
<g id="edge53_Node000005_Node000026" class="edge">
<title>Node5&#45;&gt;Node26</title>
<g id="a_edge53_Node000005_Node000026"><a xlink:title=" ">
<path fill="none" stroke="#63b8ff" d="M833.59,-340.5C870.19,-335.26 920.76,-324.01 958.92,-300 981.94,-285.52 1000.28,-258.27 1008.78,-244.1"/>
<polygon fill="#63b8ff" stroke="#63b8ff" points="833.19,-337.02 823.74,-341.8 834.11,-343.96 833.19,-337.02"/>
</a>
</g>
</g>
<!-- Node27 -->
<g id="Node000027" class="node">
<title>Node27</title>
<g id="a_Node000027"><a xlink:href="PhysicsNoEngine_8hpp.html" target="_top" xlink:title=" ">
<polygon fill="white" stroke="#666666" points="1074.29,-188 961.54,-188 961.54,-168 1074.29,-168 1074.29,-188"/>
<text text-anchor="middle" x="1017.92" y="-174.5" font-family="Helvetica,sans-Serif" font-size="10.00">PhysicsNoEngine.hpp</text>
</a>
</g>
</g>
<!-- Node5&#45;&gt;Node27 -->
<g id="edge49_Node000005_Node000027" class="edge">
<title>Node5&#45;&gt;Node27</title>
<g id="a_edge49_Node000005_Node000027"><a xlink:title=" ">
<path fill="none" stroke="#63b8ff" d="M805.64,-328.35C834.64,-304.18 890.9,-258.49 941.92,-224 961.48,-210.77 985.01,-197.18 1000.65,-188.44"/>
<polygon fill="#63b8ff" stroke="#63b8ff" points="803.47,-325.6 798.05,-334.7 807.97,-330.96 803.47,-325.6"/>
</a>
</g>
</g>
<!-- Node6&#45;&gt;Node7 -->
<g id="edge6_Node000006_Node000007" class="edge">
<title>Node6&#45;&gt;Node7</title>
<g id="a_edge6_Node000006_Node000007"><a xlink:title=" ">
<path fill="none" stroke="#63b8ff" d="M645.76,-268.13C645.3,-259.9 644.8,-250.85 644.44,-244.3"/>
<polygon fill="#63b8ff" stroke="#63b8ff" points="642.26,-268.29 646.31,-278.08 649.25,-267.9 642.26,-268.29"/>
</a>
</g>
</g>
<!-- Node8 -->
<g id="Node000008" class="node">
<title>Node8</title>
<g id="a_Node000008"><a xlink:href="Collision_8hpp.html" target="_top" xlink:title=" ">
<polygon fill="white" stroke="#666666" points="785.04,-188 712.79,-188 712.79,-168 785.04,-168 785.04,-188"/>
<text text-anchor="middle" x="748.92" y="-174.5" font-family="Helvetica,sans-Serif" font-size="10.00">Collision.hpp</text>
</a>
</g>
</g>
<!-- Node7&#45;&gt;Node8 -->
<g id="edge7_Node000007_Node000008" class="edge">
<title>Node7&#45;&gt;Node8</title>
<g id="a_edge7_Node000007_Node000008"><a xlink:title=" ">
<path fill="none" stroke="#63b8ff" d="M672.41,-218.35C690.89,-208.84 714.43,-196.74 730.49,-188.48"/>
<polygon fill="#63b8ff" stroke="#63b8ff" points="670.85,-215.22 663.55,-222.9 674.05,-221.44 670.85,-215.22"/>
</a>
</g>
</g>
<!-- Node7&#45;&gt;Node10 -->
<g id="edge22_Node000007_Node000010" class="edge">
<title>Node7&#45;&gt;Node10</title>
<g id="a_edge22_Node000007_Node000010"><a xlink:title=" ">
<path fill="none" stroke="#63b8ff" d="M577.86,-229.1C482.13,-222.76 314.2,-208.8 295.92,-188 266.82,-154.89 304.81,-98.7 322.13,-76.46"/>
<polygon fill="#63b8ff" stroke="#63b8ff" points="577.44,-232.58 587.65,-229.73 577.9,-225.59 577.44,-232.58"/>
</a>
</g>
</g>
<!-- Node7&#45;&gt;Node12 -->
<g id="edge42_Node000007_Node000012" class="edge">
<title>Node7&#45;&gt;Node12</title>
<g id="a_edge42_Node000007_Node000012"><a xlink:title=" ">
<path fill="none" stroke="#63b8ff" d="M710.1,-227.85C770.17,-221.86 852.91,-209.86 876.92,-188 892.91,-173.44 895.73,-146.23 896.05,-132.08"/>
<polygon fill="#63b8ff" stroke="#63b8ff" points="709.91,-224.35 700.29,-228.79 710.58,-231.32 709.91,-224.35"/>
</a>
</g>
</g>
<!-- Node7&#45;&gt;Node13 -->
<g id="edge41_Node000007_Node000013" class="edge">
<title>Node7&#45;&gt;Node13</title>
<g id="a_edge41_Node000007_Node000013"><a xlink:title=" ">
<path fill="none" stroke="#63b8ff" d="M709.95,-230.61C825.91,-225.78 1056.41,-213.12 1082.92,-188 1114.4,-158.16 1107.77,-99.04 1103.78,-76.26"/>
<polygon fill="#63b8ff" stroke="#63b8ff" points="710.12,-227.1 700.27,-231.01 710.41,-234.1 710.12,-227.1"/>
</a>
</g>
</g>
<!-- Node15 -->
<g id="Node000015" class="node">
<title>Node15</title>
<g id="a_Node000015"><a xlink:href="DevConsole_8hpp.html" target="_top" xlink:title=" ">
<polygon fill="white" stroke="#666666" points="518.29,-132 429.54,-132 429.54,-112 518.29,-112 518.29,-132"/>
<text text-anchor="middle" x="473.92" y="-118.5" font-family="Helvetica,sans-Serif" font-size="10.00">DevConsole.hpp</text>
</a>
</g>
</g>
<!-- Node7&#45;&gt;Node15 -->
<g id="edge15_Node000007_Node000015" class="edge">
<title>Node7&#45;&gt;Node15</title>
<g id="a_edge15_Node000007_Node000015"><a xlink:title=" ">
<path fill="none" stroke="#63b8ff" d="M577.87,-226.77C526.87,-220.44 462.33,-208.55 445.92,-188 432.12,-170.71 451.57,-145.6 464.33,-132.21"/>
<polygon fill="#63b8ff" stroke="#63b8ff" points="577.34,-230.23 587.68,-227.94 578.16,-223.28 577.34,-230.23"/>
</a>
</g>
</g>
<!-- Node16 -->
<g id="Node000016" class="node">
<title>Node16</title>
<g id="a_Node000016"><a xlink:href="Enemy_8hpp.html" target="_top" xlink:title=" ">
<polygon fill="white" stroke="#666666" points="868.29,-188 803.54,-188 803.54,-168 868.29,-168 868.29,-188"/>
<text text-anchor="middle" x="835.92" y="-174.5" font-family="Helvetica,sans-Serif" font-size="10.00">Enemy.hpp</text>
</a>
</g>
</g>
<!-- Node7&#45;&gt;Node16 -->
<g id="edge18_Node000007_Node000016" class="edge">
<title>Node7&#45;&gt;Node16</title>
<g id="a_edge18_Node000007_Node000016"><a xlink:title=" ">
<path fill="none" stroke="#63b8ff" d="M688.25,-220.53C723.33,-210.66 771.53,-197.11 803.18,-188.21"/>
<polygon fill="#63b8ff" stroke="#63b8ff" points="687.5,-217.11 678.82,-223.18 689.39,-223.85 687.5,-217.11"/>
</a>
</g>
</g>
<!-- Node17 -->
<g id="Node000017" class="node">
<title>Node17</title>
<g id="a_Node000017"><a xlink:href="NetworkManager_8cpp.html" target="_top" xlink:title=" ">
<polygon fill="white" stroke="#666666" points="694.42,-188 585.42,-188 585.42,-168 694.42,-168 694.42,-188"/>
<text text-anchor="middle" x="639.92" y="-174.5" font-family="Helvetica,sans-Serif" font-size="10.00">NetworkManager.cpp</text>
</a>
</g>
</g>
<!-- Node7&#45;&gt;Node17 -->
<g id="edge23_Node000007_Node000017" class="edge">
<title>Node7&#45;&gt;Node17</title>
<g id="a_edge23_Node000007_Node000017"><a xlink:title=" ">
<path fill="none" stroke="#63b8ff" d="M642.37,-212.13C641.76,-203.9 641.09,-194.85 640.61,-188.3"/>
<polygon fill="#63b8ff" stroke="#63b8ff" points="638.88,-212.37 643.11,-222.08 645.86,-211.85 638.88,-212.37"/>
</a>
</g>
</g>
<!-- Node7&#45;&gt;Node18 -->
<g id="edge24_Node000007_Node000018" class="edge">
<title>Node7&#45;&gt;Node18</title>
<g id="a_edge24_Node000007_Node000018"><a xlink:title=" ">
<path fill="none" stroke="#63b8ff" d="M581.44,-221.45C526.84,-211.35 448.74,-196.9 399.19,-187.74"/>
<polygon fill="#63b8ff" stroke="#63b8ff" points="580.76,-224.88 591.23,-223.26 582.04,-218 580.76,-224.88"/>
</a>
</g>
</g>
<!-- Node20 -->
<g id="Node000020" class="node">
<title>Node20</title>
<g id="a_Node000020"><a xlink:href="Renderer_8hpp.html" target="_top" xlink:title=" ">
<polygon fill="white" stroke="#666666" points="529.17,-188 454.67,-188 454.67,-168 529.17,-168 529.17,-188"/>
<text text-anchor="middle" x="491.92" y="-174.5" font-family="Helvetica,sans-Serif" font-size="10.00">Renderer.hpp</text>
</a>
</g>
</g>
<!-- Node7&#45;&gt;Node20 -->
<g id="edge31_Node000007_Node000020" class="edge">
<title>Node7&#45;&gt;Node20</title>
<g id="a_edge31_Node000007_Node000020"><a xlink:title=" ">
<path fill="none" stroke="#63b8ff" d="M606.74,-219.79C579.45,-210.1 543.04,-197.16 518.6,-188.48"/>
<polygon fill="#63b8ff" stroke="#63b8ff" points="605.42,-223.04 616.02,-223.09 607.76,-216.44 605.42,-223.04"/>
</a>
</g>
</g>
<!-- Node23 -->
<g id="Node000023" class="node">
<title>Node23</title>
<g id="a_Node000023"><a xlink:href="Renderers_2SFML_2SFML_8cpp.html" target="_top" xlink:title=" ">
<polygon fill="white" stroke="#666666" points="695.42,-76 634.42,-76 634.42,-56 695.42,-56 695.42,-76"/>
<text text-anchor="middle" x="664.92" y="-62.5" font-family="Helvetica,sans-Serif" font-size="10.00">SFML.cpp</text>
</a>
</g>
</g>
<!-- Node7&#45;&gt;Node23 -->
<g id="edge40_Node000007_Node000023" class="edge">
<title>Node7&#45;&gt;Node23</title>
<g id="a_edge40_Node000007_Node000023"><a xlink:title=" ">
<path fill="none" stroke="#63b8ff" d="M610.79,-218.49C587.55,-206.2 562.94,-187.51 576.92,-168 605.9,-127.56 653.94,-172.44 682.92,-132 695.19,-114.87 681.31,-89.69 671.98,-76.25"/>
<polygon fill="#63b8ff" stroke="#63b8ff" points="609.01,-221.51 619.53,-222.83 612.13,-215.25 609.01,-221.51"/>
</a>
</g>
</g>
<!-- Node8&#45;&gt;Node9 -->
<g id="edge8_Node000008_Node000009" class="edge">
<title>Node8&#45;&gt;Node9</title>
<g id="a_edge8_Node000008_Node000009"><a xlink:title=" ">
<path fill="none" stroke="#63b8ff" d="M747.55,-156.39C744.57,-129.04 735.09,-81.28 704.92,-56 673.16,-29.39 555.86,-17.86 490.91,-13.43"/>
<polygon fill="#63b8ff" stroke="#63b8ff" points="744.05,-156.51 748.41,-166.17 751.02,-155.9 744.05,-156.51"/>
</a>
</g>
</g>
<!-- Node8&#45;&gt;Node10 -->
<g id="edge9_Node000008_Node000010" class="edge">
<title>Node8&#45;&gt;Node10</title>
<g id="a_edge9_Node000008_Node000010"><a xlink:title=" ">
<path fill="none" stroke="#63b8ff" d="M708,-164.22C663.61,-150.54 590.56,-128.57 526.92,-112 474.63,-98.39 413.97,-84.87 373.92,-76.26"/>
<polygon fill="#63b8ff" stroke="#63b8ff" points="706.88,-167.53 717.47,-167.14 708.95,-160.85 706.88,-167.53"/>
</a>
</g>
</g>
<!-- Node8&#45;&gt;Node12 -->
<g id="edge12_Node000008_Node000012" class="edge">
<title>Node8&#45;&gt;Node12</title>
<g id="a_edge12_Node000008_Node000012"><a xlink:title=" ">
<path fill="none" stroke="#63b8ff" d="M785.23,-163.66C811.58,-153.98 846.58,-141.12 870.11,-132.48"/>
<polygon fill="#63b8ff" stroke="#63b8ff" points="784.12,-160.34 775.94,-167.07 786.54,-166.91 784.12,-160.34"/>
</a>
</g>
</g>
<!-- Node10&#45;&gt;Node9 -->
<g id="edge10_Node000010_Node000009" class="edge">
<title>Node10&#45;&gt;Node9</title>
<g id="a_edge10_Node000010_Node000009"><a xlink:title=" ">
<path fill="none" stroke="#63b8ff" d="M360.52,-50.88C381.28,-41.3 408.15,-28.89 426.38,-20.48"/>
<polygon fill="#63b8ff" stroke="#63b8ff" points="359.29,-47.59 351.67,-54.96 362.22,-53.95 359.29,-47.59"/>
</a>
</g>
</g>
<!-- Node11 -->
<g id="Node000011" class="node">
<title>Node11</title>
<g id="a_Node000011"><a xlink:href="Client_2src_2main_8cpp.html" target="_top" xlink:title=" ">
<polygon fill="white" stroke="#666666" points="357.79,-20 302.04,-20 302.04,0 357.79,0 357.79,-20"/>
<text text-anchor="middle" x="329.92" y="-6.5" font-family="Helvetica,sans-Serif" font-size="10.00">main.cpp</text>
</a>
</g>
</g>
<!-- Node10&#45;&gt;Node11 -->
<g id="edge11_Node000010_Node000011" class="edge">
<title>Node10&#45;&gt;Node11</title>
<g id="a_edge11_Node000010_Node000011"><a xlink:title=" ">
<path fill="none" stroke="#63b8ff" d="M329.92,-44.13C329.92,-35.9 329.92,-26.85 329.92,-20.3"/>
<polygon fill="#63b8ff" stroke="#63b8ff" points="326.42,-44.08 329.92,-54.08 333.42,-44.08 326.42,-44.08"/>
</a>
</g>
</g>
<!-- Node12&#45;&gt;Node13 -->
<g id="edge13_Node000012_Node000013" class="edge">
<title>Node12&#45;&gt;Node13</title>
<g id="a_edge13_Node000012_Node000013"><a xlink:title=" ">
<path fill="none" stroke="#63b8ff" d="M938.65,-109.8C977.68,-99.57 1034.52,-84.67 1069.81,-75.42"/>
<polygon fill="#63b8ff" stroke="#63b8ff" points="937.9,-106.38 929.12,-112.3 939.68,-113.15 937.9,-106.38"/>
</a>
</g>
</g>
<!-- Node14 -->
<g id="Node000014" class="node">
<title>Node14</title>
<g id="a_Node000014"><a xlink:href="Server_2src_2main_8cpp.html" target="_top" xlink:title=" ">
<polygon fill="white" stroke="#666666" points="923.79,-76 868.04,-76 868.04,-56 923.79,-56 923.79,-76"/>
<text text-anchor="middle" x="895.92" y="-62.5" font-family="Helvetica,sans-Serif" font-size="10.00">main.cpp</text>
</a>
</g>
</g>
<!-- Node12&#45;&gt;Node14 -->
<g id="edge14_Node000012_Node000014" class="edge">
<title>Node12&#45;&gt;Node14</title>
<g id="a_edge14_Node000012_Node000014"><a xlink:title=" ">
<path fill="none" stroke="#63b8ff" d="M895.92,-100.13C895.92,-91.9 895.92,-82.85 895.92,-76.3"/>
<polygon fill="#63b8ff" stroke="#63b8ff" points="892.42,-100.08 895.92,-110.08 899.42,-100.08 892.42,-100.08"/>
</a>
</g>
</g>
<!-- Node15&#45;&gt;Node9 -->
<g id="edge16_Node000015_Node000009" class="edge">
<title>Node15&#45;&gt;Node9</title>
<g id="a_edge16_Node000015_Node000009"><a xlink:title=" ">
<path fill="none" stroke="#63b8ff" d="M468.92,-100.64C463.05,-76.72 453.55,-38.03 449.21,-20.35"/>
<polygon fill="#63b8ff" stroke="#63b8ff" points="465.47,-101.27 471.26,-110.15 472.27,-99.61 465.47,-101.27"/>
</a>
</g>
</g>
<!-- Node15&#45;&gt;Node10 -->
<g id="edge17_Node000015_Node000010" class="edge">
<title>Node15&#45;&gt;Node10</title>
<g id="a_edge17_Node000015_Node000010"><a xlink:title=" ">
<path fill="none" stroke="#63b8ff" d="M438.35,-107.66C412.54,-97.98 378.25,-85.12 355.2,-76.48"/>
<polygon fill="#63b8ff" stroke="#63b8ff" points="436.83,-110.83 447.42,-111.06 439.28,-104.27 436.83,-110.83"/>
</a>
</g>
</g>
<!-- Node16&#45;&gt;Node9 -->
<g id="edge19_Node000016_Node000009" class="edge">
<title>Node16&#45;&gt;Node9</title>
<g id="a_edge19_Node000016_Node000009"><a xlink:title=" ">
<path fill="none" stroke="#63b8ff" d="M824.9,-158.22C807.73,-130.81 771.86,-80.46 726.92,-56 687.03,-34.29 559.2,-20.5 490.91,-14.49"/>
<polygon fill="#63b8ff" stroke="#63b8ff" points="821.76,-159.78 829.94,-166.51 827.74,-156.15 821.76,-159.78"/>
</a>
</g>
</g>
<!-- Node16&#45;&gt;Node10 -->
<g id="edge20_Node000016_Node000010" class="edge">
<title>Node16&#45;&gt;Node10</title>
<g id="a_edge20_Node000016_Node000010"><a xlink:title=" ">
<path fill="none" stroke="#63b8ff" d="M807.98,-162.36C777.93,-147.27 728.32,-124.29 682.92,-112 574.23,-82.59 441.39,-72.25 373.87,-68.73"/>
<polygon fill="#63b8ff" stroke="#63b8ff" points="806.28,-165.42 816.78,-166.84 809.45,-159.18 806.28,-165.42"/>
</a>
</g>
</g>
<!-- Node16&#45;&gt;Node12 -->
<g id="edge21_Node000016_Node000012" class="edge">
<title>Node16&#45;&gt;Node12</title>
<g id="a_edge21_Node000016_Node000012"><a xlink:title=" ">
<path fill="none" stroke="#63b8ff" d="M854.67,-160.13C864.87,-150.94 877.1,-139.93 885.59,-132.3"/>
<polygon fill="#63b8ff" stroke="#63b8ff" points="852.59,-157.29 847.49,-166.58 857.27,-162.49 852.59,-157.29"/>
</a>
</g>
</g>
<!-- Node18&#45;&gt;Node9 -->
<g id="edge25_Node000018_Node000009" class="edge">
<title>Node18&#45;&gt;Node9</title>
<g id="a_edge25_Node000018_Node000009"><a xlink:title=" ">
<path fill="none" stroke="#63b8ff" d="M362.85,-157.9C383.27,-122.22 426.52,-46.65 441.6,-20.3"/>
<polygon fill="#63b8ff" stroke="#63b8ff" points="359.98,-155.87 358.05,-166.29 366.05,-159.35 359.98,-155.87"/>
</a>
</g>
</g>
<!-- Node18&#45;&gt;Node10 -->
<g id="edge26_Node000018_Node000010" class="edge">
<title>Node18&#45;&gt;Node10</title>
<g id="a_edge26_Node000018_Node000010"><a xlink:title=" ">
<path fill="none" stroke="#63b8ff" d="M347.85,-156.64C343.06,-132.72 335.33,-94.03 331.79,-76.35"/>
<polygon fill="#63b8ff" stroke="#63b8ff" points="344.35,-157.02 349.75,-166.14 351.22,-155.65 344.35,-157.02"/>
</a>
</g>
</g>
<!-- Node18&#45;&gt;Node12 -->
<g id="edge27_Node000018_Node000012" class="edge">
<title>Node18&#45;&gt;Node12</title>
<g id="a_edge27_Node000018_Node000012"><a xlink:title=" ">
<path fill="none" stroke="#63b8ff" d="M410.56,-171.18C525.2,-159.8 775.52,-134.95 864.09,-126.16"/>
<polygon fill="#63b8ff" stroke="#63b8ff" points="410.35,-167.68 400.75,-172.15 411.05,-174.65 410.35,-167.68"/>
</a>
</g>
</g>
<!-- Node19 -->
<g id="Node000019" class="node">
<title>Node19</title>
<g id="a_Node000019"><a xlink:href="SoundPlayer_8hpp.html" target="_top" xlink:title=" ">
<polygon fill="white" stroke="#666666" points="138.04,-132 47.79,-132 47.79,-112 138.04,-112 138.04,-132"/>
<text text-anchor="middle" x="92.92" y="-118.5" font-family="Helvetica,sans-Serif" font-size="10.00">SoundPlayer.hpp</text>
</a>
</g>
</g>
<!-- Node18&#45;&gt;Node19 -->
<g id="edge28_Node000018_Node000019" class="edge">
<title>Node18&#45;&gt;Node19</title>
<g id="a_edge28_Node000018_Node000019"><a xlink:title=" ">
<path fill="none" stroke="#63b8ff" d="M295.26,-165.19C248.14,-155.36 181.95,-141.56 138.28,-132.46"/>
<polygon fill="#63b8ff" stroke="#63b8ff" points="294.52,-168.61 305.03,-167.22 295.95,-161.76 294.52,-168.61"/>
</a>
</g>
</g>
<!-- Node19&#45;&gt;Node9 -->
<g id="edge29_Node000019_Node000009" class="edge">
<title>Node19&#45;&gt;Node9</title>
<g id="a_edge29_Node000019_Node000009"><a xlink:title=" ">
<path fill="none" stroke="#63b8ff" d="M123.44,-106.8C155.06,-92.5 206.15,-70.53 251.92,-56 302.92,-39.81 363.12,-26.81 403,-19.03"/>
<polygon fill="#63b8ff" stroke="#63b8ff" points="122.13,-103.55 114.49,-110.88 125.04,-109.91 122.13,-103.55"/>
</a>
</g>
</g>
<!-- Node19&#45;&gt;Node10 -->
<g id="edge30_Node000019_Node000010" class="edge">
<title>Node19&#45;&gt;Node10</title>
<g id="a_edge30_Node000019_Node000010"><a xlink:title=" ">
<path fill="none" stroke="#63b8ff" d="M145.58,-109C188.65,-99.19 248.7,-85.51 288.41,-76.46"/>
<polygon fill="#63b8ff" stroke="#63b8ff" points="144.92,-105.56 135.95,-111.2 146.48,-112.39 144.92,-105.56"/>
</a>
</g>
</g>
<!-- Node20&#45;&gt;Node9 -->
<g id="edge33_Node000020_Node000009" class="edge">
<title>Node20&#45;&gt;Node9</title>
<g id="a_edge33_Node000020_Node000009"><a xlink:title=" ">
<path fill="none" stroke="#63b8ff" d="M510.59,-159.5C521.79,-146.8 532.82,-128.95 526.92,-112 513.17,-72.49 476.82,-36.81 458.22,-20.45"/>
<polygon fill="#63b8ff" stroke="#63b8ff" points="508.12,-157.03 503.7,-166.66 513.16,-161.88 508.12,-157.03"/>
</a>
</g>
</g>
<!-- Node20&#45;&gt;Node10 -->
<g id="edge34_Node000020_Node000010" class="edge">
<title>Node20&#45;&gt;Node10</title>
<g id="a_edge34_Node000020_Node000010"><a xlink:title=" ">
<path fill="none" stroke="#63b8ff" d="M466.83,-161.57C453.14,-153.04 435.97,-142.13 420.92,-132 392.57,-112.92 360.19,-89.35 342.72,-76.48"/>
<polygon fill="#63b8ff" stroke="#63b8ff" points="464.9,-164.49 475.24,-166.79 468.59,-158.54 464.9,-164.49"/>
</a>
</g>
</g>
<!-- Node20&#45;&gt;Node15 -->
<g id="edge32_Node000020_Node000015" class="edge">
<title>Node20&#45;&gt;Node15</title>
<g id="a_edge32_Node000020_Node000015"><a xlink:title=" ">
<path fill="none" stroke="#63b8ff" d="M485.16,-156.71C482.36,-148.32 479.25,-139.01 477.02,-132.3"/>
<polygon fill="#63b8ff" stroke="#63b8ff" points="481.82,-157.78 488.3,-166.16 488.46,-155.56 481.82,-157.78"/>
</a>
</g>
</g>
<!-- Node20&#45;&gt;Node21 -->
<g id="edge35_Node000020_Node000021" class="edge">
<title>Node20&#45;&gt;Node21</title>
<g id="a_edge35_Node000020_Node000021"><a xlink:title=" ">
<path fill="none" stroke="#63b8ff" d="M443.05,-167.04C389.91,-156.21 306.4,-139.2 260.29,-129.8"/>
<polygon fill="#63b8ff" stroke="#63b8ff" points="442.25,-170.45 452.75,-169.02 443.65,-163.59 442.25,-170.45"/>
</a>
</g>
</g>
<!-- Node22 -->
<g id="Node000022" class="node">
<title>Node22</title>
<g id="a_Node000022"><a xlink:href="Renderers_2SFML_2SFML_8hpp.html" target="_top" xlink:title=" ">
<polygon fill="white" stroke="#666666" points="673.42,-132 612.42,-132 612.42,-112 673.42,-112 673.42,-132"/>
<text text-anchor="middle" x="642.92" y="-118.5" font-family="Helvetica,sans-Serif" font-size="10.00">SFML.hpp</text>
</a>
</g>
</g>
<!-- Node20&#45;&gt;Node22 -->
<g id="edge38_Node000020_Node000022" class="edge">
<title>Node20&#45;&gt;Node22</title>
<g id="a_edge38_Node000020_Node000022"><a xlink:title=" ">
<path fill="none" stroke="#63b8ff" d="M528.85,-163.79C555.96,-154.1 592.13,-141.16 616.41,-132.48"/>
<polygon fill="#63b8ff" stroke="#63b8ff" points="527.88,-160.42 519.65,-167.08 530.24,-167.01 527.88,-160.42"/>
</a>
</g>
</g>
<!-- Node21&#45;&gt;Node9 -->
<g id="edge36_Node000021_Node000009" class="edge">
<title>Node21&#45;&gt;Node9</title>
<g id="a_edge36_Node000021_Node000009"><a xlink:title=" ">
<path fill="none" stroke="#63b8ff" d="M236.98,-101.87C245.66,-87.2 259.54,-67.56 276.92,-56 314.92,-30.72 366.52,-19.62 402.87,-14.76"/>
<polygon fill="#63b8ff" stroke="#63b8ff" points="233.94,-100.15 232.12,-110.59 240.05,-103.56 233.94,-100.15"/>
</a>
</g>
</g>
<!-- Node21&#45;&gt;Node10 -->
<g id="edge37_Node000021_Node000010" class="edge">
<title>Node21&#45;&gt;Node10</title>
<g id="a_edge37_Node000021_Node000010"><a xlink:title=" ">
<path fill="none" stroke="#63b8ff" d="M254.87,-106.35C273,-96.84 296.09,-84.74 311.84,-76.48"/>
<polygon fill="#63b8ff" stroke="#63b8ff" points="253.43,-103.15 246.2,-110.89 256.68,-109.35 253.43,-103.15"/>
</a>
</g>
</g>
<!-- Node22&#45;&gt;Node23 -->
<g id="edge39_Node000022_Node000023" class="edge">
<title>Node22&#45;&gt;Node23</title>
<g id="a_edge39_Node000022_Node000023"><a xlink:title=" ">
<path fill="none" stroke="#63b8ff" d="M651.07,-101C654.51,-92.54 658.37,-83.08 661.13,-76.3"/>
<polygon fill="#63b8ff" stroke="#63b8ff" points="647.85,-99.61 647.32,-110.19 654.34,-102.25 647.85,-99.61"/>
</a>
</g>
</g>
<!-- Node25&#45;&gt;Node26 -->
<g id="edge48_Node000025_Node000026" class="edge">
<title>Node25&#45;&gt;Node26</title>
<g id="a_edge48_Node000025_Node000026"><a xlink:title=" ">
<path fill="none" stroke="#63b8ff" d="M1041.7,-270.72C1034.79,-261.84 1026.79,-251.55 1021.15,-244.3"/>
<polygon fill="#63b8ff" stroke="#63b8ff" points="1038.77,-272.65 1047.67,-278.4 1044.3,-268.36 1038.77,-272.65"/>
</a>
</g>
</g>
<!-- Node27&#45;&gt;Node9 -->
<g id="edge50_Node000027_Node000009" class="edge">
<title>Node27&#45;&gt;Node9</title>
<g id="a_edge50_Node000027_Node000009"><a xlink:title=" ">
<path fill="none" stroke="#63b8ff" d="M1010.34,-157.18C998.5,-129.23 972.76,-79.1 932.92,-56 858.42,-12.81 595.87,-9.84 490.83,-10.44"/>
<polygon fill="#63b8ff" stroke="#63b8ff" points="1007.01,-158.28 1014,-166.25 1013.5,-155.66 1007.01,-158.28"/>
</a>
</g>
</g>
<!-- Node27&#45;&gt;Node10 -->
<g id="edge51_Node000027_Node000010" class="edge">
<title>Node27&#45;&gt;Node10</title>
<g id="a_edge51_Node000027_Node000010"><a xlink:title=" ">
<path fill="none" stroke="#63b8ff" d="M1002.33,-159.56C987.28,-144.04 963,-122.27 936.92,-112 884.93,-91.53 504.53,-74.17 373.85,-68.75"/>
<polygon fill="#63b8ff" stroke="#63b8ff" points="999.64,-161.81 1009.03,-166.73 1004.76,-157.03 999.64,-161.81"/>
</a>
</g>
</g>
<!-- Node27&#45;&gt;Node12 -->
<g id="edge52_Node000027_Node000012" class="edge">
<title>Node27&#45;&gt;Node12</title>
<g id="a_edge52_Node000027_Node000012"><a xlink:title=" ">
<path fill="none" stroke="#63b8ff" d="M986.31,-163.01C964.62,-153.41 936.43,-140.93 917.34,-132.48"/>
<polygon fill="#63b8ff" stroke="#63b8ff" points="984.72,-166.13 995.28,-166.98 987.56,-159.73 984.72,-166.13"/>
</a>
</g>
</g>
</g>
</svg>
