<?xml version="1.0" encoding="UTF-8" standalone="no"?>
<!DOCTYPE svg PUBLIC "-//W3C//DTD SVG 1.1//EN"
 "http://www.w3.org/Graphics/SVG/1.1/DTD/svg11.dtd">
<!-- Generated by graphviz version 12.1.0 (20240811.2233)
 -->
<!-- Title: ComponentManager.hpp Pages: 1 -->
<svg width="497pt" height="196pt"
 viewBox="0.00 0.00 496.88 196.00" xmlns="http://www.w3.org/2000/svg" xmlns:xlink="http://www.w3.org/1999/xlink">
<g id="graph0" class="graph" transform="scale(1 1) rotate(0) translate(4 192)">
<title>ComponentManager.hpp</title>
<!-- Node1 -->
<g id="Node000001" class="node">
<title>Node1</title>
<g id="a_Node000001"><a xlink:title=" ">
<polygon fill="#999999" stroke="#666666" points="351.62,-188 229.12,-188 229.12,-168 351.62,-168 351.62,-188"/>
<text text-anchor="middle" x="290.38" y="-174.5" font-family="Helvetica,sans-Serif" font-size="10.00">ComponentManager.hpp</text>
</a>
</g>
</g>
<!-- Node2 -->
<g id="Node000002" class="node">
<title>Node2</title>
<g id="a_Node000002"><a xlink:title=" ">
<polygon fill="#e0e0e0" stroke="#999999" points="82.75,-76 0,-76 0,-56 82.75,-56 82.75,-76"/>
<text text-anchor="middle" x="41.38" y="-62.5" font-family="Helvetica,sans-Serif" font-size="10.00">unordered_map</text>
</a>
</g>
</g>
<!-- Node1&#45;&gt;Node2 -->
<g id="edge1_Node000001_Node000002" class="edge">
<title>Node1&#45;&gt;Node2</title>
<g id="a_edge1_Node000001_Node000002"><a xlink:title=" ">
<path fill="none" stroke="#63b8ff" d="M239.33,-167.52C207.04,-160.36 165.02,-148.84 130.38,-132 103.95,-119.15 77.2,-98.33 60.03,-83.72"/>
<polygon fill="#63b8ff" stroke="#63b8ff" points="62.52,-81.25 52.68,-77.33 57.93,-86.53 62.52,-81.25"/>
</a>
</g>
</g>
<!-- Node3 -->
<g id="Node000003" class="node">
<title>Node3</title>
<g id="a_Node000003"><a xlink:title=" ">
<polygon fill="#e0e0e0" stroke="#999999" points="358.38,-132 318.38,-132 318.38,-112 358.38,-112 358.38,-132"/>
<text text-anchor="middle" x="338.38" y="-118.5" font-family="Helvetica,sans-Serif" font-size="10.00">string</text>
</a>
</g>
</g>
<!-- Node1&#45;&gt;Node3 -->
<g id="edge2_Node000001_Node000003" class="edge">
<title>Node1&#45;&gt;Node3</title>
<g id="a_edge2_Node000001_Node000003"><a xlink:title=" ">
<path fill="none" stroke="#63b8ff" d="M298.74,-167.59C305.27,-160.24 314.56,-149.8 322.49,-140.87"/>
<polygon fill="#63b8ff" stroke="#63b8ff" points="325.08,-143.23 329.1,-133.43 319.84,-138.58 325.08,-143.23"/>
</a>
</g>
</g>
<!-- Node4 -->
<g id="Node000004" class="node">
<title>Node4</title>
<g id="a_Node000004"><a xlink:title=" ">
<polygon fill="#e0e0e0" stroke="#999999" points="428,-132 376.75,-132 376.75,-112 428,-112 428,-132"/>
<text text-anchor="middle" x="402.38" y="-118.5" font-family="Helvetica,sans-Serif" font-size="10.00">memory</text>
</a>
</g>
</g>
<!-- Node1&#45;&gt;Node4 -->
<g id="edge3_Node000001_Node000004" class="edge">
<title>Node1&#45;&gt;Node4</title>
<g id="a_edge3_Node000001_Node000004"><a xlink:title=" ">
<path fill="none" stroke="#63b8ff" d="M309.88,-167.59C327.12,-159.28 352.53,-147.03 372.36,-137.47"/>
<polygon fill="#63b8ff" stroke="#63b8ff" points="373.86,-140.63 381.35,-133.14 370.82,-134.33 373.86,-140.63"/>
</a>
</g>
</g>
<!-- Node5 -->
<g id="Node000005" class="node">
<title>Node5</title>
<g id="a_Node000005"><a xlink:title=" ">
<polygon fill="#e0e0e0" stroke="#999999" points="159.75,-76 101,-76 101,-56 159.75,-56 159.75,-76"/>
<text text-anchor="middle" x="130.38" y="-62.5" font-family="Helvetica,sans-Serif" font-size="10.00">stdexcept</text>
</a>
</g>
</g>
<!-- Node1&#45;&gt;Node5 -->
<g id="edge4_Node000001_Node000005" class="edge">
<title>Node1&#45;&gt;Node5</title>
<g id="a_edge4_Node000001_Node000005"><a xlink:title=" ">
<path fill="none" stroke="#63b8ff" d="M228.94,-171.95C199.83,-166.42 166.81,-155.08 145.38,-132 134.28,-120.05 130.85,-101.59 130.01,-87.39"/>
<polygon fill="#63b8ff" stroke="#63b8ff" points="133.52,-87.73 129.84,-77.8 126.52,-87.86 133.52,-87.73"/>
</a>
</g>
</g>
<!-- Node6 -->
<g id="Node000006" class="node">
<title>Node6</title>
<g id="a_Node000006"><a xlink:title=" ">
<polygon fill="#e0e0e0" stroke="#999999" points="488.88,-132 445.88,-132 445.88,-112 488.88,-112 488.88,-132"/>
<text text-anchor="middle" x="467.38" y="-118.5" font-family="Helvetica,sans-Serif" font-size="10.00">vector</text>
</a>
</g>
</g>
<!-- Node1&#45;&gt;Node6 -->
<g id="edge5_Node000001_Node000006" class="edge">
<title>Node1&#45;&gt;Node6</title>
<g id="a_edge5_Node000001_Node000006"><a xlink:title=" ">
<path fill="none" stroke="#63b8ff" d="M321.21,-167.59C353.01,-157.89 402.42,-142.82 434.84,-132.93"/>
<polygon fill="#63b8ff" stroke="#63b8ff" points="435.55,-136.37 444.1,-130.1 433.51,-129.67 435.55,-136.37"/>
</a>
</g>
</g>
<!-- Node7 -->
<g id="Node000007" class="node">
<title>Node7</title>
<g id="a_Node000007"><a xlink:href="Entity_8hpp.html" target="_top" xlink:title=" ">
<polygon fill="white" stroke="#666666" points="385.12,-76 325.62,-76 325.62,-56 385.12,-56 385.12,-76"/>
<text text-anchor="middle" x="355.38" y="-62.5" font-family="Helvetica,sans-Serif" font-size="10.00">Entity.hpp</text>
</a>
</g>
</g>
<!-- Node1&#45;&gt;Node7 -->
<g id="edge6_Node000001_Node000007" class="edge">
<title>Node1&#45;&gt;Node7</title>
<g id="a_edge6_Node000001_Node000007"><a xlink:title=" ">
<path fill="none" stroke="#63b8ff" d="M291.59,-167.57C293.63,-154.36 298.61,-129.95 309.38,-112 315.77,-101.33 325.31,-91.44 334.04,-83.65"/>
<polygon fill="#63b8ff" stroke="#63b8ff" points="336.13,-86.46 341.52,-77.34 331.62,-81.11 336.13,-86.46"/>
</a>
</g>
</g>
<!-- Node10 -->
<g id="Node000010" class="node">
<title>Node10</title>
<g id="a_Node000010"><a xlink:href="ComponentArray_8hpp.html" target="_top" xlink:title=" ">
<polygon fill="white" stroke="#666666" points="262.12,-132 154.62,-132 154.62,-112 262.12,-112 262.12,-132"/>
<text text-anchor="middle" x="208.38" y="-118.5" font-family="Helvetica,sans-Serif" font-size="10.00">ComponentArray.hpp</text>
</a>
</g>
</g>
<!-- Node1&#45;&gt;Node10 -->
<g id="edge9_Node000001_Node000010" class="edge">
<title>Node1&#45;&gt;Node10</title>
<g id="a_edge9_Node000001_Node000010"><a xlink:title=" ">
<path fill="none" stroke="#63b8ff" d="M276.09,-167.59C263.94,-159.59 246.24,-147.93 231.98,-138.54"/>
<polygon fill="#63b8ff" stroke="#63b8ff" points="234.31,-135.89 224.03,-133.31 230.46,-141.73 234.31,-135.89"/>
</a>
</g>
</g>
<!-- Node8 -->
<g id="Node000008" class="node">
<title>Node8</title>
<g id="a_Node000008"><a xlink:title=" ">
<polygon fill="#e0e0e0" stroke="#999999" points="347,-20 301.75,-20 301.75,0 347,0 347,-20"/>
<text text-anchor="middle" x="324.38" y="-6.5" font-family="Helvetica,sans-Serif" font-size="10.00">cstdint</text>
</a>
</g>
</g>
<!-- Node7&#45;&gt;Node8 -->
<g id="edge7_Node000007_Node000008" class="edge">
<title>Node7&#45;&gt;Node8</title>
<g id="a_edge7_Node000007_Node000008"><a xlink:title=" ">
<path fill="none" stroke="#63b8ff" d="M349.98,-55.59C345.93,-48.55 340.26,-38.67 335.28,-30"/>
<polygon fill="#63b8ff" stroke="#63b8ff" points="338.48,-28.54 330.47,-21.61 332.41,-32.03 338.48,-28.54"/>
</a>
</g>
</g>
<!-- Node9 -->
<g id="Node000009" class="node">
<title>Node9</title>
<g id="a_Node000009"><a xlink:title=" ">
<polygon fill="#e0e0e0" stroke="#999999" points="405.38,-20 365.38,-20 365.38,0 405.38,0 405.38,-20"/>
<text text-anchor="middle" x="385.38" y="-6.5" font-family="Helvetica,sans-Serif" font-size="10.00">bitset</text>
</a>
</g>
</g>
<!-- Node7&#45;&gt;Node9 -->
<g id="edge8_Node000007_Node000009" class="edge">
<title>Node7&#45;&gt;Node9</title>
<g id="a_edge8_Node000007_Node000009"><a xlink:title=" ">
<path fill="none" stroke="#63b8ff" d="M360.6,-55.59C364.47,-48.63 369.88,-38.89 374.66,-30.29"/>
<polygon fill="#63b8ff" stroke="#63b8ff" points="377.68,-32.06 379.47,-21.62 371.56,-28.66 377.68,-32.06"/>
</a>
</g>
</g>
<!-- Node10&#45;&gt;Node2 -->
<g id="edge11_Node000010_Node000002" class="edge">
<title>Node10&#45;&gt;Node2</title>
<g id="a_edge11_Node000010_Node000002"><a xlink:title=" ">
<path fill="none" stroke="#63b8ff" d="M179.29,-111.59C152.15,-102.82 111.44,-89.66 81.28,-79.9"/>
<polygon fill="#63b8ff" stroke="#63b8ff" points="82.72,-76.69 72.13,-76.95 80.57,-83.35 82.72,-76.69"/>
</a>
</g>
</g>
<!-- Node10&#45;&gt;Node5 -->
<g id="edge12_Node000010_Node000005" class="edge">
<title>Node10&#45;&gt;Node5</title>
<g id="a_edge12_Node000010_Node000005"><a xlink:title=" ">
<path fill="none" stroke="#63b8ff" d="M194.79,-111.59C183.34,-103.67 166.71,-92.16 153.22,-82.82"/>
<polygon fill="#63b8ff" stroke="#63b8ff" points="155.53,-80.16 145.31,-77.34 151.54,-85.91 155.53,-80.16"/>
</a>
</g>
</g>
<!-- Node10&#45;&gt;Node7 -->
<g id="edge14_Node000010_Node000007" class="edge">
<title>Node10&#45;&gt;Node7</title>
<g id="a_edge14_Node000010_Node000007"><a xlink:title=" ">
<path fill="none" stroke="#63b8ff" d="M233.98,-111.59C257.44,-102.97 292.44,-90.12 318.84,-80.42"/>
<polygon fill="#63b8ff" stroke="#63b8ff" points="319.97,-83.73 328.15,-77 317.56,-77.16 319.97,-83.73"/>
</a>
</g>
</g>
<!-- Node11 -->
<g id="Node000011" class="node">
<title>Node11</title>
<g id="a_Node000011"><a xlink:title=" ">
<polygon fill="#e0e0e0" stroke="#999999" points="307.38,-76 249.38,-76 249.38,-56 307.38,-56 307.38,-76"/>
<text text-anchor="middle" x="278.38" y="-62.5" font-family="Helvetica,sans-Serif" font-size="10.00">exception</text>
</a>
</g>
</g>
<!-- Node10&#45;&gt;Node11 -->
<g id="edge10_Node000010_Node000011" class="edge">
<title>Node10&#45;&gt;Node11</title>
<g id="a_edge10_Node000010_Node000011"><a xlink:title=" ">
<path fill="none" stroke="#63b8ff" d="M220.57,-111.59C230.71,-103.77 245.37,-92.46 257.39,-83.19"/>
<polygon fill="#63b8ff" stroke="#63b8ff" points="259.34,-86.1 265.12,-77.22 255.07,-80.56 259.34,-86.1"/>
</a>
</g>
</g>
<!-- Node12 -->
<g id="Node000012" class="node">
<title>Node12</title>
<g id="a_Node000012"><a xlink:title=" ">
<polygon fill="#e0e0e0" stroke="#999999" points="231.12,-76 177.62,-76 177.62,-56 231.12,-56 231.12,-76"/>
<text text-anchor="middle" x="204.38" y="-62.5" font-family="Helvetica,sans-Serif" font-size="10.00">iostream</text>
</a>
</g>
</g>
<!-- Node10&#45;&gt;Node12 -->
<g id="edge13_Node000010_Node000012" class="edge">
<title>Node10&#45;&gt;Node12</title>
<g id="a_edge13_Node000010_Node000012"><a xlink:title=" ">
<path fill="none" stroke="#63b8ff" d="M207.68,-111.59C207.19,-105.01 206.52,-95.96 205.91,-87.73"/>
<polygon fill="#63b8ff" stroke="#63b8ff" points="209.4,-87.52 205.18,-77.81 202.42,-88.04 209.4,-87.52"/>
</a>
</g>
</g>
</g>
</svg>
