<?xml version="1.0" encoding="UTF-8" standalone="no"?>
<!DOCTYPE svg PUBLIC "-//W3C//DTD SVG 1.1//EN"
 "http://www.w3.org/Graphics/SVG/1.1/DTD/svg11.dtd">
<!-- Generated by graphviz version 12.1.0 (20240811.2233)
 -->
<!-- Title: ComponentArray.hpp Pages: 1 -->
<svg width="483pt" height="252pt"
 viewBox="0.00 0.00 482.88 252.00" xmlns="http://www.w3.org/2000/svg" xmlns:xlink="http://www.w3.org/1999/xlink">
<g id="graph0" class="graph" transform="scale(1 1) rotate(0) translate(4 248)">
<title>ComponentArray.hpp</title>
<!-- Node1 -->
<g id="Node000001" class="node">
<title>Node1</title>
<g id="a_Node000001"><a xlink:title=" ">
<polygon fill="#999999" stroke="#666666" points="173.5,-244 66,-244 66,-224 173.5,-224 173.5,-244"/>
<text text-anchor="middle" x="119.75" y="-230.5" font-family="Helvetica,sans-Serif" font-size="10.00">ComponentArray.hpp</text>
</a>
</g>
</g>
<!-- Node2 -->
<g id="Node000002" class="node">
<title>Node2</title>
<g id="a_Node000002"><a xlink:href="ComponentArray_8cpp.html" target="_top" xlink:title=" ">
<polygon fill="white" stroke="#666666" points="107.5,-188 0,-188 0,-168 107.5,-168 107.5,-188"/>
<text text-anchor="middle" x="53.75" y="-174.5" font-family="Helvetica,sans-Serif" font-size="10.00">ComponentArray.cpp</text>
</a>
</g>
</g>
<!-- Node1&#45;&gt;Node2 -->
<g id="edge1_Node000001_Node000002" class="edge">
<title>Node1&#45;&gt;Node2</title>
<g id="a_edge1_Node000001_Node000002"><a xlink:title=" ">
<path fill="none" stroke="#63b8ff" d="M99.46,-216.4C88.17,-207.17 74.54,-196.01 65.11,-188.3"/>
<polygon fill="#63b8ff" stroke="#63b8ff" points="97.13,-219.01 107.08,-222.64 101.56,-213.59 97.13,-219.01"/>
</a>
</g>
</g>
<!-- Node3 -->
<g id="Node000003" class="node">
<title>Node3</title>
<g id="a_Node000003"><a xlink:href="ComponentManager_8hpp.html" target="_top" xlink:title=" ">
<polygon fill="white" stroke="#666666" points="248,-188 125.5,-188 125.5,-168 248,-168 248,-188"/>
<text text-anchor="middle" x="186.75" y="-174.5" font-family="Helvetica,sans-Serif" font-size="10.00">ComponentManager.hpp</text>
</a>
</g>
</g>
<!-- Node1&#45;&gt;Node3 -->
<g id="edge2_Node000001_Node000003" class="edge">
<title>Node1&#45;&gt;Node3</title>
<g id="a_edge2_Node000001_Node000003"><a xlink:title=" ">
<path fill="none" stroke="#63b8ff" d="M140.34,-216.4C151.8,-207.17 165.65,-196.01 175.21,-188.3"/>
<polygon fill="#63b8ff" stroke="#63b8ff" points="138.19,-213.64 132.6,-222.64 142.58,-219.09 138.19,-213.64"/>
</a>
</g>
</g>
<!-- Node4 -->
<g id="Node000004" class="node">
<title>Node4</title>
<g id="a_Node000004"><a xlink:href="ComponentManager_8cpp.html" target="_top" xlink:title=" ">
<polygon fill="white" stroke="#666666" points="190,-132 67.5,-132 67.5,-112 190,-112 190,-132"/>
<text text-anchor="middle" x="128.75" y="-118.5" font-family="Helvetica,sans-Serif" font-size="10.00">ComponentManager.cpp</text>
</a>
</g>
</g>
<!-- Node3&#45;&gt;Node4 -->
<g id="edge3_Node000003_Node000004" class="edge">
<title>Node3&#45;&gt;Node4</title>
<g id="a_edge3_Node000003_Node000004"><a xlink:title=" ">
<path fill="none" stroke="#63b8ff" d="M168.33,-159.85C158.52,-150.72 146.85,-139.86 138.74,-132.3"/>
<polygon fill="#63b8ff" stroke="#63b8ff" points="165.84,-162.31 175.54,-166.56 170.61,-157.19 165.84,-162.31"/>
</a>
</g>
</g>
<!-- Node5 -->
<g id="Node000005" class="node">
<title>Node5</title>
<g id="a_Node000005"><a xlink:href="Mediator_8hpp.html" target="_top" xlink:title=" ">
<polygon fill="white" stroke="#666666" points="279.88,-132 207.62,-132 207.62,-112 279.88,-112 279.88,-132"/>
<text text-anchor="middle" x="243.75" y="-118.5" font-family="Helvetica,sans-Serif" font-size="10.00">Mediator.hpp</text>
</a>
</g>
</g>
<!-- Node3&#45;&gt;Node5 -->
<g id="edge4_Node000003_Node000005" class="edge">
<title>Node3&#45;&gt;Node5</title>
<g id="a_edge4_Node000003_Node000005"><a xlink:title=" ">
<path fill="none" stroke="#63b8ff" d="M204.86,-159.85C214.49,-150.72 225.96,-139.86 233.94,-132.3"/>
<polygon fill="#63b8ff" stroke="#63b8ff" points="202.63,-157.13 197.78,-166.55 207.44,-162.22 202.63,-157.13"/>
</a>
</g>
</g>
<!-- Node6 -->
<g id="Node000006" class="node">
<title>Node6</title>
<g id="a_Node000006"><a xlink:href="GameTypes_8cpp.html" target="_top" xlink:title=" ">
<polygon fill="white" stroke="#666666" points="337.38,-20 250.12,-20 250.12,0 337.38,0 337.38,-20"/>
<text text-anchor="middle" x="293.75" y="-6.5" font-family="Helvetica,sans-Serif" font-size="10.00">GameTypes.cpp</text>
</a>
</g>
</g>
<!-- Node5&#45;&gt;Node6 -->
<g id="edge5_Node000005_Node000006" class="edge">
<title>Node5&#45;&gt;Node6</title>
<g id="a_edge5_Node000005_Node000006"><a xlink:title=" ">
<path fill="none" stroke="#63b8ff" d="M196.39,-111.23C162.17,-103.09 120.19,-90.52 109.75,-76 104.56,-68.78 104.26,-62.99 109.75,-56 126.86,-34.21 201.16,-21.61 249.95,-15.54"/>
<polygon fill="#63b8ff" stroke="#63b8ff" points="195.18,-114.54 205.71,-113.37 196.75,-107.72 195.18,-114.54"/>
</a>
</g>
</g>
<!-- Node7 -->
<g id="Node000007" class="node">
<title>Node7</title>
<g id="a_Node000007"><a xlink:href="Mediator_8cpp.html" target="_top" xlink:title=" ">
<polygon fill="white" stroke="#666666" points="190.88,-76 118.62,-76 118.62,-56 190.88,-56 190.88,-76"/>
<text text-anchor="middle" x="154.75" y="-62.5" font-family="Helvetica,sans-Serif" font-size="10.00">Mediator.cpp</text>
</a>
</g>
</g>
<!-- Node5&#45;&gt;Node7 -->
<g id="edge6_Node000005_Node000007" class="edge">
<title>Node5&#45;&gt;Node7</title>
<g id="a_edge6_Node000005_Node000007"><a xlink:title=" ">
<path fill="none" stroke="#63b8ff" d="M218.72,-105.81C203.19,-96.39 183.73,-84.58 170.37,-76.48"/>
<polygon fill="#63b8ff" stroke="#63b8ff" points="216.59,-108.61 226.95,-110.81 220.22,-102.63 216.59,-108.61"/>
</a>
</g>
</g>
<!-- Node8 -->
<g id="Node000008" class="node">
<title>Node8</title>
<g id="a_Node000008"><a xlink:href="Physics_8hpp.html" target="_top" xlink:title=" ">
<polygon fill="white" stroke="#666666" points="278.75,-76 208.75,-76 208.75,-56 278.75,-56 278.75,-76"/>
<text text-anchor="middle" x="243.75" y="-62.5" font-family="Helvetica,sans-Serif" font-size="10.00">Physics.hpp</text>
</a>
</g>
</g>
<!-- Node5&#45;&gt;Node8 -->
<g id="edge7_Node000005_Node000008" class="edge">
<title>Node5&#45;&gt;Node8</title>
<g id="a_edge7_Node000005_Node000008"><a xlink:title=" ">
<path fill="none" stroke="#63b8ff" d="M243.75,-100.13C243.75,-91.9 243.75,-82.85 243.75,-76.3"/>
<polygon fill="#63b8ff" stroke="#63b8ff" points="240.25,-100.08 243.75,-110.08 247.25,-100.08 240.25,-100.08"/>
</a>
</g>
</g>
<!-- Node9 -->
<g id="Node000009" class="node">
<title>Node9</title>
<g id="a_Node000009"><a xlink:href="PlayerControl_8hpp.html" target="_top" xlink:title=" ">
<polygon fill="white" stroke="#666666" points="390.75,-76 296.75,-76 296.75,-56 390.75,-56 390.75,-76"/>
<text text-anchor="middle" x="343.75" y="-62.5" font-family="Helvetica,sans-Serif" font-size="10.00">PlayerControl.hpp</text>
</a>
</g>
</g>
<!-- Node5&#45;&gt;Node9 -->
<g id="edge9_Node000005_Node000009" class="edge">
<title>Node5&#45;&gt;Node9</title>
<g id="a_edge9_Node000005_Node000009"><a xlink:title=" ">
<path fill="none" stroke="#63b8ff" d="M270.88,-106.35C288.49,-96.84 310.9,-84.74 326.2,-76.48"/>
<polygon fill="#63b8ff" stroke="#63b8ff" points="269.64,-103.04 262.5,-110.87 272.96,-109.2 269.64,-103.04"/>
</a>
</g>
</g>
<!-- Node10 -->
<g id="Node000010" class="node">
<title>Node10</title>
<g id="a_Node000010"><a xlink:href="Render_8hpp.html" target="_top" xlink:title=" ">
<polygon fill="white" stroke="#666666" points="474.88,-76 408.62,-76 408.62,-56 474.88,-56 474.88,-76"/>
<text text-anchor="middle" x="441.75" y="-62.5" font-family="Helvetica,sans-Serif" font-size="10.00">Render.hpp</text>
</a>
</g>
</g>
<!-- Node5&#45;&gt;Node10 -->
<g id="edge11_Node000005_Node000010" class="edge">
<title>Node5&#45;&gt;Node10</title>
<g id="a_edge11_Node000005_Node000010"><a xlink:title=" ">
<path fill="none" stroke="#63b8ff" d="M289.04,-108.65C325.37,-98.74 375.55,-85.05 408.32,-76.12"/>
<polygon fill="#63b8ff" stroke="#63b8ff" points="288.43,-105.19 279.7,-111.2 290.27,-111.94 288.43,-105.19"/>
</a>
</g>
</g>
<!-- Node8&#45;&gt;Node6 -->
<g id="edge8_Node000008_Node000006" class="edge">
<title>Node8&#45;&gt;Node6</title>
<g id="a_edge8_Node000008_Node000006"><a xlink:title=" ">
<path fill="none" stroke="#63b8ff" d="M260.15,-47.29C268.49,-38.28 278.29,-27.7 285.14,-20.3"/>
<polygon fill="#63b8ff" stroke="#63b8ff" points="257.71,-44.77 253.49,-54.48 262.85,-49.52 257.71,-44.77"/>
</a>
</g>
</g>
<!-- Node9&#45;&gt;Node6 -->
<g id="edge10_Node000009_Node000006" class="edge">
<title>Node9&#45;&gt;Node6</title>
<g id="a_edge10_Node000009_Node000006"><a xlink:title=" ">
<path fill="none" stroke="#63b8ff" d="M327.35,-47.29C319.01,-38.28 309.21,-27.7 302.36,-20.3"/>
<polygon fill="#63b8ff" stroke="#63b8ff" points="324.65,-49.52 334.01,-54.48 329.79,-44.77 324.65,-49.52"/>
</a>
</g>
</g>
<!-- Node10&#45;&gt;Node6 -->
<g id="edge12_Node000010_Node000006" class="edge">
<title>Node10&#45;&gt;Node6</title>
<g id="a_edge12_Node000010_Node000006"><a xlink:title=" ">
<path fill="none" stroke="#63b8ff" d="M405.19,-51.66C378.67,-41.98 343.42,-29.12 319.73,-20.48"/>
<polygon fill="#63b8ff" stroke="#63b8ff" points="403.95,-54.94 414.55,-55.08 406.35,-48.36 403.95,-54.94"/>
</a>
</g>
</g>
</g>
</svg>
