<?xml version="1.0" encoding="UTF-8" standalone="no"?>
<!DOCTYPE svg PUBLIC "-//W3C//DTD SVG 1.1//EN"
 "http://www.w3.org/Graphics/SVG/1.1/DTD/svg11.dtd">
<!-- Generated by graphviz version 12.1.0 (20240811.2233)
 -->
<!-- Title: ComponentManager.hpp Pages: 1 -->
<svg width="436pt" height="196pt"
 viewBox="0.00 0.00 436.00 196.00" xmlns="http://www.w3.org/2000/svg" xmlns:xlink="http://www.w3.org/1999/xlink">
<g id="graph0" class="graph" transform="scale(1 1) rotate(0) translate(4 192)">
<title>ComponentManager.hpp</title>
<!-- Node1 -->
<g id="Node000001" class="node">
<title>Node1</title>
<g id="a_Node000001"><a xlink:title=" ">
<polygon fill="#999999" stroke="#666666" points="310.62,-188 188.12,-188 188.12,-168 310.62,-168 310.62,-188"/>
<text text-anchor="middle" x="249.38" y="-174.5" font-family="Helvetica,sans-Serif" font-size="10.00">ComponentManager.hpp</text>
</a>
</g>
</g>
<!-- Node2 -->
<g id="Node000002" class="node">
<title>Node2</title>
<g id="a_Node000002"><a xlink:title=" ">
<polygon fill="#e0e0e0" stroke="#999999" points="82.75,-76 0,-76 0,-56 82.75,-56 82.75,-76"/>
<text text-anchor="middle" x="41.38" y="-62.5" font-family="Helvetica,sans-Serif" font-size="10.00">unordered_map</text>
</a>
</g>
</g>
<!-- Node1&#45;&gt;Node2 -->
<g id="edge1_Node000001_Node000002" class="edge">
<title>Node1&#45;&gt;Node2</title>
<g id="a_edge1_Node000001_Node000002"><a xlink:title=" ">
<path fill="none" stroke="#63b8ff" d="M218.09,-167.55C193.73,-159.62 159.45,-147.15 131.38,-132 105.61,-118.1 78.74,-97.81 61.15,-83.61"/>
<polygon fill="#63b8ff" stroke="#63b8ff" points="63.51,-81.03 53.56,-77.39 59.07,-86.44 63.51,-81.03"/>
</a>
</g>
</g>
<!-- Node3 -->
<g id="Node000003" class="node">
<title>Node3</title>
<g id="a_Node000003"><a xlink:title=" ">
<polygon fill="#e0e0e0" stroke="#999999" points="358.38,-132 318.38,-132 318.38,-112 358.38,-112 358.38,-132"/>
<text text-anchor="middle" x="338.38" y="-118.5" font-family="Helvetica,sans-Serif" font-size="10.00">string</text>
</a>
</g>
</g>
<!-- Node1&#45;&gt;Node3 -->
<g id="edge2_Node000001_Node000003" class="edge">
<title>Node1&#45;&gt;Node3</title>
<g id="a_edge2_Node000001_Node000003"><a xlink:title=" ">
<path fill="none" stroke="#63b8ff" d="M264.88,-167.59C278.2,-159.51 297.65,-147.71 313.2,-138.27"/>
<polygon fill="#63b8ff" stroke="#63b8ff" points="314.72,-141.44 321.46,-133.26 311.09,-135.46 314.72,-141.44"/>
</a>
</g>
</g>
<!-- Node4 -->
<g id="Node000004" class="node">
<title>Node4</title>
<g id="a_Node000004"><a xlink:title=" ">
<polygon fill="#e0e0e0" stroke="#999999" points="428,-132 376.75,-132 376.75,-112 428,-112 428,-132"/>
<text text-anchor="middle" x="402.38" y="-118.5" font-family="Helvetica,sans-Serif" font-size="10.00">memory</text>
</a>
</g>
</g>
<!-- Node1&#45;&gt;Node4 -->
<g id="edge3_Node000001_Node000004" class="edge">
<title>Node1&#45;&gt;Node4</title>
<g id="a_edge3_Node000001_Node000004"><a xlink:title=" ">
<path fill="none" stroke="#63b8ff" d="M276.03,-167.59C300.78,-158.86 337.88,-145.76 365.48,-136.02"/>
<polygon fill="#63b8ff" stroke="#63b8ff" points="366.59,-139.34 374.86,-132.71 364.26,-132.74 366.59,-139.34"/>
</a>
</g>
</g>
<!-- Node5 -->
<g id="Node000005" class="node">
<title>Node5</title>
<g id="a_Node000005"><a xlink:title=" ">
<polygon fill="#e0e0e0" stroke="#999999" points="159.75,-76 101,-76 101,-56 159.75,-56 159.75,-76"/>
<text text-anchor="middle" x="130.38" y="-62.5" font-family="Helvetica,sans-Serif" font-size="10.00">stdexcept</text>
</a>
</g>
</g>
<!-- Node1&#45;&gt;Node5 -->
<g id="edge4_Node000001_Node000005" class="edge">
<title>Node1&#45;&gt;Node5</title>
<g id="a_edge4_Node000001_Node000005"><a xlink:title=" ">
<path fill="none" stroke="#63b8ff" d="M204.51,-167.5C183.69,-160.88 160.3,-149.91 145.38,-132 135.05,-119.6 131.52,-101.44 130.45,-87.47"/>
<polygon fill="#63b8ff" stroke="#63b8ff" points="133.95,-87.47 130.08,-77.61 126.95,-87.73 133.95,-87.47"/>
</a>
</g>
</g>
<!-- Node6 -->
<g id="Node000006" class="node">
<title>Node6</title>
<g id="a_Node000006"><a xlink:href="Entity_8hpp.html" target="_top" xlink:title=" ">
<polygon fill="white" stroke="#666666" points="385.12,-76 325.62,-76 325.62,-56 385.12,-56 385.12,-76"/>
<text text-anchor="middle" x="355.38" y="-62.5" font-family="Helvetica,sans-Serif" font-size="10.00">Entity.hpp</text>
</a>
</g>
</g>
<!-- Node1&#45;&gt;Node6 -->
<g id="edge5_Node000001_Node000006" class="edge">
<title>Node1&#45;&gt;Node6</title>
<g id="a_edge5_Node000001_Node000006"><a xlink:title=" ">
<path fill="none" stroke="#63b8ff" d="M257.77,-167.6C269.24,-154.84 290.54,-131.39 309.38,-112 318.5,-102.6 328.92,-92.37 337.53,-84.04"/>
<polygon fill="#63b8ff" stroke="#63b8ff" points="339.85,-86.67 344.63,-77.22 335,-81.63 339.85,-86.67"/>
</a>
</g>
</g>
<!-- Node9 -->
<g id="Node000009" class="node">
<title>Node9</title>
<g id="a_Node000009"><a xlink:href="ComponentArray_8hpp.html" target="_top" xlink:title=" ">
<polygon fill="white" stroke="#666666" points="262.12,-132 154.62,-132 154.62,-112 262.12,-112 262.12,-132"/>
<text text-anchor="middle" x="208.38" y="-118.5" font-family="Helvetica,sans-Serif" font-size="10.00">ComponentArray.hpp</text>
</a>
</g>
</g>
<!-- Node1&#45;&gt;Node9 -->
<g id="edge8_Node000001_Node000009" class="edge">
<title>Node1&#45;&gt;Node9</title>
<g id="a_edge8_Node000001_Node000009"><a xlink:title=" ">
<path fill="none" stroke="#63b8ff" d="M242.23,-167.59C236.77,-160.39 229.05,-150.23 222.37,-141.43"/>
<polygon fill="#63b8ff" stroke="#63b8ff" points="225.18,-139.35 216.35,-133.5 219.61,-143.58 225.18,-139.35"/>
</a>
</g>
</g>
<!-- Node7 -->
<g id="Node000007" class="node">
<title>Node7</title>
<g id="a_Node000007"><a xlink:title=" ">
<polygon fill="#e0e0e0" stroke="#999999" points="347,-20 301.75,-20 301.75,0 347,0 347,-20"/>
<text text-anchor="middle" x="324.38" y="-6.5" font-family="Helvetica,sans-Serif" font-size="10.00">cstdint</text>
</a>
</g>
</g>
<!-- Node6&#45;&gt;Node7 -->
<g id="edge6_Node000006_Node000007" class="edge">
<title>Node6&#45;&gt;Node7</title>
<g id="a_edge6_Node000006_Node000007"><a xlink:title=" ">
<path fill="none" stroke="#63b8ff" d="M349.98,-55.59C345.93,-48.55 340.26,-38.67 335.28,-30"/>
<polygon fill="#63b8ff" stroke="#63b8ff" points="338.48,-28.54 330.47,-21.61 332.41,-32.03 338.48,-28.54"/>
</a>
</g>
</g>
<!-- Node8 -->
<g id="Node000008" class="node">
<title>Node8</title>
<g id="a_Node000008"><a xlink:title=" ">
<polygon fill="#e0e0e0" stroke="#999999" points="405.38,-20 365.38,-20 365.38,0 405.38,0 405.38,-20"/>
<text text-anchor="middle" x="385.38" y="-6.5" font-family="Helvetica,sans-Serif" font-size="10.00">bitset</text>
</a>
</g>
</g>
<!-- Node6&#45;&gt;Node8 -->
<g id="edge7_Node000006_Node000008" class="edge">
<title>Node6&#45;&gt;Node8</title>
<g id="a_edge7_Node000006_Node000008"><a xlink:title=" ">
<path fill="none" stroke="#63b8ff" d="M360.6,-55.59C364.47,-48.63 369.88,-38.89 374.66,-30.29"/>
<polygon fill="#63b8ff" stroke="#63b8ff" points="377.68,-32.06 379.47,-21.62 371.56,-28.66 377.68,-32.06"/>
</a>
</g>
</g>
<!-- Node9&#45;&gt;Node2 -->
<g id="edge10_Node000009_Node000002" class="edge">
<title>Node9&#45;&gt;Node2</title>
<g id="a_edge10_Node000009_Node000002"><a xlink:title=" ">
<path fill="none" stroke="#63b8ff" d="M179.29,-111.59C152.15,-102.82 111.44,-89.66 81.28,-79.9"/>
<polygon fill="#63b8ff" stroke="#63b8ff" points="82.72,-76.69 72.13,-76.95 80.57,-83.35 82.72,-76.69"/>
</a>
</g>
</g>
<!-- Node9&#45;&gt;Node5 -->
<g id="edge11_Node000009_Node000005" class="edge">
<title>Node9&#45;&gt;Node5</title>
<g id="a_edge11_Node000009_Node000005"><a xlink:title=" ">
<path fill="none" stroke="#63b8ff" d="M194.79,-111.59C183.34,-103.67 166.71,-92.16 153.22,-82.82"/>
<polygon fill="#63b8ff" stroke="#63b8ff" points="155.53,-80.16 145.31,-77.34 151.54,-85.91 155.53,-80.16"/>
</a>
</g>
</g>
<!-- Node9&#45;&gt;Node6 -->
<g id="edge13_Node000009_Node000006" class="edge">
<title>Node9&#45;&gt;Node6</title>
<g id="a_edge13_Node000009_Node000006"><a xlink:title=" ">
<path fill="none" stroke="#63b8ff" d="M233.98,-111.59C257.44,-102.97 292.44,-90.12 318.84,-80.42"/>
<polygon fill="#63b8ff" stroke="#63b8ff" points="319.97,-83.73 328.15,-77 317.56,-77.16 319.97,-83.73"/>
</a>
</g>
</g>
<!-- Node10 -->
<g id="Node000010" class="node">
<title>Node10</title>
<g id="a_Node000010"><a xlink:title=" ">
<polygon fill="#e0e0e0" stroke="#999999" points="307.38,-76 249.38,-76 249.38,-56 307.38,-56 307.38,-76"/>
<text text-anchor="middle" x="278.38" y="-62.5" font-family="Helvetica,sans-Serif" font-size="10.00">exception</text>
</a>
</g>
</g>
<!-- Node9&#45;&gt;Node10 -->
<g id="edge9_Node000009_Node000010" class="edge">
<title>Node9&#45;&gt;Node10</title>
<g id="a_edge9_Node000009_Node000010"><a xlink:title=" ">
<path fill="none" stroke="#63b8ff" d="M220.57,-111.59C230.71,-103.77 245.37,-92.46 257.39,-83.19"/>
<polygon fill="#63b8ff" stroke="#63b8ff" points="259.34,-86.1 265.12,-77.22 255.07,-80.56 259.34,-86.1"/>
</a>
</g>
</g>
<!-- Node11 -->
<g id="Node000011" class="node">
<title>Node11</title>
<g id="a_Node000011"><a xlink:title=" ">
<polygon fill="#e0e0e0" stroke="#999999" points="231.12,-76 177.62,-76 177.62,-56 231.12,-56 231.12,-76"/>
<text text-anchor="middle" x="204.38" y="-62.5" font-family="Helvetica,sans-Serif" font-size="10.00">iostream</text>
</a>
</g>
</g>
<!-- Node9&#45;&gt;Node11 -->
<g id="edge12_Node000009_Node000011" class="edge">
<title>Node9&#45;&gt;Node11</title>
<g id="a_edge12_Node000009_Node000011"><a xlink:title=" ">
<path fill="none" stroke="#63b8ff" d="M207.68,-111.59C207.19,-105.01 206.52,-95.96 205.91,-87.73"/>
<polygon fill="#63b8ff" stroke="#63b8ff" points="209.4,-87.52 205.18,-77.81 202.42,-88.04 209.4,-87.52"/>
</a>
</g>
</g>
</g>
</svg>
