<?xml version="1.0" encoding="UTF-8" standalone="no"?>
<!DOCTYPE svg PUBLIC "-//W3C//DTD SVG 1.1//EN"
 "http://www.w3.org/Graphics/SVG/1.1/DTD/svg11.dtd">
<!-- Generated by graphviz version 12.1.0 (20240811.2233)
 -->
<!-- Title: ComponentRegistry.hpp Pages: 1 -->
<svg width="1037pt" height="308pt"
 viewBox="0.00 0.00 1037.06 308.00" xmlns="http://www.w3.org/2000/svg" xmlns:xlink="http://www.w3.org/1999/xlink">
<g id="graph0" class="graph" transform="scale(1 1) rotate(0) translate(4 304)">
<title>ComponentRegistry.hpp</title>
<!-- Node1 -->
<g id="Node000001" class="node">
<title>Node1</title>
<g id="a_Node000001"><a xlink:title=" ">
<polygon fill="#999999" stroke="#666666" points="359.62,-300 238.62,-300 238.62,-280 359.62,-280 359.62,-300"/>
<text text-anchor="middle" x="299.12" y="-286.5" font-family="Helvetica,sans-Serif" font-size="10.00">ComponentRegistry.hpp</text>
</a>
</g>
</g>
<!-- Node2 -->
<g id="Node000002" class="node">
<title>Node2</title>
<g id="a_Node000002"><a xlink:title=" ">
<polygon fill="#e0e0e0" stroke="#999999" points="174.12,-132 116.12,-132 116.12,-112 174.12,-112 174.12,-132"/>
<text text-anchor="middle" x="145.12" y="-118.5" font-family="Helvetica,sans-Serif" font-size="10.00">functional</text>
</a>
</g>
</g>
<!-- Node1&#45;&gt;Node2 -->
<g id="edge1_Node000001_Node000002" class="edge">
<title>Node1&#45;&gt;Node2</title>
<g id="a_edge1_Node000001_Node000002"><a xlink:title=" ">
<path fill="none" stroke="#63b8ff" d="M269.67,-279.5C232.85,-265.85 171.48,-236.81 145.12,-188 137.74,-174.32 138.3,-156.53 140.4,-143.02"/>
<polygon fill="#63b8ff" stroke="#63b8ff" points="143.77,-144.03 142.28,-133.54 136.9,-142.67 143.77,-144.03"/>
</a>
</g>
</g>
<!-- Node3 -->
<g id="Node000003" class="node">
<title>Node3</title>
<g id="a_Node000003"><a xlink:title=" ">
<polygon fill="#e0e0e0" stroke="#999999" points="359.5,-76 276.75,-76 276.75,-56 359.5,-56 359.5,-76"/>
<text text-anchor="middle" x="318.12" y="-62.5" font-family="Helvetica,sans-Serif" font-size="10.00">unordered_map</text>
</a>
</g>
</g>
<!-- Node1&#45;&gt;Node3 -->
<g id="edge2_Node000001_Node000003" class="edge">
<title>Node1&#45;&gt;Node3</title>
<g id="a_edge2_Node000001_Node000003"><a xlink:title=" ">
<path fill="none" stroke="#63b8ff" d="M250.26,-279.54C224.99,-272.81 194.79,-261.73 172.12,-244 120.61,-203.71 65.99,-162.83 107.12,-112 126.69,-87.82 209.65,-76.08 265.54,-70.81"/>
<polygon fill="#63b8ff" stroke="#63b8ff" points="265.52,-74.32 275.16,-69.94 264.89,-67.35 265.52,-74.32"/>
</a>
</g>
</g>
<!-- Node4 -->
<g id="Node000004" class="node">
<title>Node4</title>
<g id="a_Node000004"><a xlink:title=" ">
<polygon fill="#e0e0e0" stroke="#999999" points="386.12,-132 346.12,-132 346.12,-112 386.12,-112 386.12,-132"/>
<text text-anchor="middle" x="366.12" y="-118.5" font-family="Helvetica,sans-Serif" font-size="10.00">string</text>
</a>
</g>
</g>
<!-- Node1&#45;&gt;Node4 -->
<g id="edge3_Node000001_Node000004" class="edge">
<title>Node1&#45;&gt;Node4</title>
<g id="a_edge3_Node000001_Node000004"><a xlink:title=" ">
<path fill="none" stroke="#63b8ff" d="M301.17,-279.58C305.88,-258.78 318.53,-207.67 337.12,-168 341.4,-158.87 347.26,-149.4 352.6,-141.52"/>
<polygon fill="#63b8ff" stroke="#63b8ff" points="355.37,-143.66 358.25,-133.46 349.64,-139.63 355.37,-143.66"/>
</a>
</g>
</g>
<!-- Node5 -->
<g id="Node000005" class="node">
<title>Node5</title>
<g id="a_Node000005"><a xlink:title=" ">
<polygon fill="#e0e0e0" stroke="#999999" points="516.5,-76 457.75,-76 457.75,-56 516.5,-56 516.5,-76"/>
<text text-anchor="middle" x="487.12" y="-62.5" font-family="Helvetica,sans-Serif" font-size="10.00">stdexcept</text>
</a>
</g>
</g>
<!-- Node1&#45;&gt;Node5 -->
<g id="edge4_Node000001_Node000005" class="edge">
<title>Node1&#45;&gt;Node5</title>
<g id="a_edge4_Node000001_Node000005"><a xlink:title=" ">
<path fill="none" stroke="#63b8ff" d="M298.02,-279.75C295.09,-250.6 290.3,-159.84 337.12,-112 365.71,-82.8 412.42,-72.38 446.13,-68.75"/>
<polygon fill="#63b8ff" stroke="#63b8ff" points="446.31,-72.24 455.96,-67.86 445.68,-65.27 446.31,-72.24"/>
</a>
</g>
</g>
<!-- Node6 -->
<g id="Node000006" class="node">
<title>Node6</title>
<g id="a_Node000006"><a xlink:href="Entity_8hpp.html" target="_top" xlink:title=" ">
<polygon fill="white" stroke="#666666" points="877.88,-76 818.38,-76 818.38,-56 877.88,-56 877.88,-76"/>
<text text-anchor="middle" x="848.12" y="-62.5" font-family="Helvetica,sans-Serif" font-size="10.00">Entity.hpp</text>
</a>
</g>
</g>
<!-- Node1&#45;&gt;Node6 -->
<g id="edge5_Node000001_Node000006" class="edge">
<title>Node1&#45;&gt;Node6</title>
<g id="a_edge5_Node000001_Node000006"><a xlink:title=" ">
<path fill="none" stroke="#63b8ff" d="M360.1,-284.79C504.17,-274.05 861.48,-242.57 967.12,-188 1003.94,-168.98 1046.47,-144.78 1021.12,-112 1005.15,-91.33 935.37,-78.39 889.46,-71.95"/>
<polygon fill="#63b8ff" stroke="#63b8ff" points="889.95,-68.48 879.57,-70.61 889.01,-75.42 889.95,-68.48"/>
</a>
</g>
</g>
<!-- Node9 -->
<g id="Node000009" class="node">
<title>Node9</title>
<g id="a_Node000009"><a xlink:href="Mediator_8hpp.html" target="_top" xlink:title=" ">
<polygon fill="white" stroke="#666666" points="537.25,-244 465,-244 465,-224 537.25,-224 537.25,-244"/>
<text text-anchor="middle" x="501.12" y="-230.5" font-family="Helvetica,sans-Serif" font-size="10.00">Mediator.hpp</text>
</a>
</g>
</g>
<!-- Node1&#45;&gt;Node9 -->
<g id="edge8_Node000001_Node000009" class="edge">
<title>Node1&#45;&gt;Node9</title>
<g id="a_edge8_Node000001_Node000009"><a xlink:title=" ">
<path fill="none" stroke="#63b8ff" d="M334.31,-279.59C367.71,-270.67 418.1,-257.19 454.76,-247.39"/>
<polygon fill="#63b8ff" stroke="#63b8ff" points="455.45,-250.83 464.2,-244.87 453.64,-244.07 455.45,-250.83"/>
</a>
</g>
</g>
<!-- Node7 -->
<g id="Node000007" class="node">
<title>Node7</title>
<g id="a_Node000007"><a xlink:title=" ">
<polygon fill="#e0e0e0" stroke="#999999" points="431.75,-20 386.5,-20 386.5,0 431.75,0 431.75,-20"/>
<text text-anchor="middle" x="409.12" y="-6.5" font-family="Helvetica,sans-Serif" font-size="10.00">cstdint</text>
</a>
</g>
</g>
<!-- Node6&#45;&gt;Node7 -->
<g id="edge6_Node000006_Node000007" class="edge">
<title>Node6&#45;&gt;Node7</title>
<g id="a_edge6_Node000006_Node000007"><a xlink:title=" ">
<path fill="none" stroke="#63b8ff" d="M817.96,-57.68C814.98,-57.06 812,-56.49 809.12,-56 674.62,-32.99 512.57,-18.9 443.26,-13.51"/>
<polygon fill="#63b8ff" stroke="#63b8ff" points="443.55,-10.02 433.32,-12.75 443.02,-17 443.55,-10.02"/>
</a>
</g>
</g>
<!-- Node8 -->
<g id="Node000008" class="node">
<title>Node8</title>
<g id="a_Node000008"><a xlink:title=" ">
<polygon fill="#e0e0e0" stroke="#999999" points="868.12,-20 828.12,-20 828.12,0 868.12,0 868.12,-20"/>
<text text-anchor="middle" x="848.12" y="-6.5" font-family="Helvetica,sans-Serif" font-size="10.00">bitset</text>
</a>
</g>
</g>
<!-- Node6&#45;&gt;Node8 -->
<g id="edge7_Node000006_Node000008" class="edge">
<title>Node6&#45;&gt;Node8</title>
<g id="a_edge7_Node000006_Node000008"><a xlink:title=" ">
<path fill="none" stroke="#63b8ff" d="M848.12,-55.59C848.12,-49.01 848.12,-39.96 848.12,-31.73"/>
<polygon fill="#63b8ff" stroke="#63b8ff" points="851.63,-31.81 848.13,-21.81 844.63,-31.81 851.63,-31.81"/>
</a>
</g>
</g>
<!-- Node10 -->
<g id="Node000010" class="node">
<title>Node10</title>
<g id="a_Node000010"><a xlink:title=" ">
<polygon fill="#e0e0e0" stroke="#999999" points="746.88,-76 693.38,-76 693.38,-56 746.88,-56 746.88,-76"/>
<text text-anchor="middle" x="720.12" y="-62.5" font-family="Helvetica,sans-Serif" font-size="10.00">iostream</text>
</a>
</g>
</g>
<!-- Node9&#45;&gt;Node10 -->
<g id="edge9_Node000009_Node000010" class="edge">
<title>Node9&#45;&gt;Node10</title>
<g id="a_edge9_Node000009_Node000010"><a xlink:title=" ">
<path fill="none" stroke="#63b8ff" d="M537.32,-229.68C588.75,-224.2 679.17,-211.44 701.12,-188 726.48,-160.92 726.1,-114.56 723.29,-87.77"/>
<polygon fill="#63b8ff" stroke="#63b8ff" points="726.76,-87.33 722.01,-77.86 719.82,-88.23 726.76,-87.33"/>
</a>
</g>
</g>
<!-- Node11 -->
<g id="Node000011" class="node">
<title>Node11</title>
<g id="a_Node000011"><a xlink:title=" ">
<polygon fill="#e0e0e0" stroke="#999999" points="493.75,-132 442.5,-132 442.5,-112 493.75,-112 493.75,-132"/>
<text text-anchor="middle" x="468.12" y="-118.5" font-family="Helvetica,sans-Serif" font-size="10.00">memory</text>
</a>
</g>
</g>
<!-- Node9&#45;&gt;Node11 -->
<g id="edge10_Node000009_Node000011" class="edge">
<title>Node9&#45;&gt;Node11</title>
<g id="a_edge10_Node000009_Node000011"><a xlink:title=" ">
<path fill="none" stroke="#63b8ff" d="M508.54,-223.91C518.02,-211.1 532.21,-187.16 523.12,-168 517.38,-155.88 506.6,-145.94 496.09,-138.51"/>
<polygon fill="#63b8ff" stroke="#63b8ff" points="498.23,-135.73 487.94,-133.23 494.43,-141.6 498.23,-135.73"/>
</a>
</g>
</g>
<!-- Node12 -->
<g id="Node000012" class="node">
<title>Node12</title>
<g id="a_Node000012"><a xlink:title=" ">
<polygon fill="#e0e0e0" stroke="#999999" points="389.62,-188 346.62,-188 346.62,-168 389.62,-168 389.62,-188"/>
<text text-anchor="middle" x="368.12" y="-174.5" font-family="Helvetica,sans-Serif" font-size="10.00">vector</text>
</a>
</g>
</g>
<!-- Node9&#45;&gt;Node12 -->
<g id="edge11_Node000009_Node000012" class="edge">
<title>Node9&#45;&gt;Node12</title>
<g id="a_edge11_Node000009_Node000012"><a xlink:title=" ">
<path fill="none" stroke="#63b8ff" d="M477.96,-223.59C456.4,-214.84 424.09,-201.72 400.08,-191.97"/>
<polygon fill="#63b8ff" stroke="#63b8ff" points="401.69,-188.85 391.11,-188.33 399.06,-195.34 401.69,-188.85"/>
</a>
</g>
</g>
<!-- Node13 -->
<g id="Node000013" class="node">
<title>Node13</title>
<g id="a_Node000013"><a xlink:href="EntityManager_8hpp.html" target="_top" xlink:title=" ">
<polygon fill="white" stroke="#666666" points="958,-188 860.25,-188 860.25,-168 958,-168 958,-188"/>
<text text-anchor="middle" x="909.12" y="-174.5" font-family="Helvetica,sans-Serif" font-size="10.00">EntityManager.hpp</text>
</a>
</g>
</g>
<!-- Node9&#45;&gt;Node13 -->
<g id="edge12_Node000009_Node000013" class="edge">
<title>Node9&#45;&gt;Node13</title>
<g id="a_edge12_Node000009_Node000013"><a xlink:title=" ">
<path fill="none" stroke="#63b8ff" d="M537.69,-228.16C608,-218.85 762.68,-198.38 848.6,-187.01"/>
<polygon fill="#63b8ff" stroke="#63b8ff" points="849.04,-190.48 858.49,-185.7 848.12,-183.54 849.04,-190.48"/>
</a>
</g>
</g>
<!-- Node16 -->
<g id="Node000016" class="node">
<title>Node16</title>
<g id="a_Node000016"><a xlink:href="ComponentManager_8hpp.html" target="_top" xlink:title=" ">
<polygon fill="white" stroke="#666666" points="692.38,-188 569.88,-188 569.88,-168 692.38,-168 692.38,-188"/>
<text text-anchor="middle" x="631.12" y="-174.5" font-family="Helvetica,sans-Serif" font-size="10.00">ComponentManager.hpp</text>
</a>
</g>
</g>
<!-- Node9&#45;&gt;Node16 -->
<g id="edge16_Node000009_Node000016" class="edge">
<title>Node9&#45;&gt;Node16</title>
<g id="a_edge16_Node000009_Node000016"><a xlink:title=" ">
<path fill="none" stroke="#63b8ff" d="M523.77,-223.59C544.24,-215.09 574.64,-202.46 597.87,-192.81"/>
<polygon fill="#63b8ff" stroke="#63b8ff" points="599.01,-196.13 606.91,-189.06 596.33,-189.66 599.01,-196.13"/>
</a>
</g>
</g>
<!-- Node19 -->
<g id="Node000019" class="node">
<title>Node19</title>
<g id="a_Node000019"><a xlink:href="SystemManager_8hpp.html" target="_top" xlink:title=" ">
<polygon fill="white" stroke="#666666" points="514.12,-188 408.12,-188 408.12,-168 514.12,-168 514.12,-188"/>
<text text-anchor="middle" x="461.12" y="-174.5" font-family="Helvetica,sans-Serif" font-size="10.00">SystemManager.hpp</text>
</a>
</g>
</g>
<!-- Node9&#45;&gt;Node19 -->
<g id="edge28_Node000009_Node000019" class="edge">
<title>Node9&#45;&gt;Node19</title>
<g id="a_edge28_Node000009_Node000019"><a xlink:title=" ">
<path fill="none" stroke="#63b8ff" d="M494.16,-223.59C488.82,-216.39 481.3,-206.23 474.78,-197.43"/>
<polygon fill="#63b8ff" stroke="#63b8ff" points="477.68,-195.47 468.91,-189.51 472.05,-199.63 477.68,-195.47"/>
</a>
</g>
</g>
<!-- Node22 -->
<g id="Node000022" class="node">
<title>Node22</title>
<g id="a_Node000022"><a xlink:href="EventManager_8hpp.html" target="_top" xlink:title=" ">
<polygon fill="white" stroke="#666666" points="252,-188 154.25,-188 154.25,-168 252,-168 252,-188"/>
<text text-anchor="middle" x="203.12" y="-174.5" font-family="Helvetica,sans-Serif" font-size="10.00">EventManager.hpp</text>
</a>
</g>
</g>
<!-- Node9&#45;&gt;Node22 -->
<g id="edge36_Node000009_Node000022" class="edge">
<title>Node9&#45;&gt;Node22</title>
<g id="a_edge36_Node000009_Node000022"><a xlink:title=" ">
<path fill="none" stroke="#63b8ff" d="M464.58,-226.38C414.5,-217.3 323.9,-200.88 263.61,-189.96"/>
<polygon fill="#63b8ff" stroke="#63b8ff" points="264.31,-186.53 253.84,-188.19 263.06,-193.42 264.31,-186.53"/>
</a>
</g>
</g>
<!-- Node13&#45;&gt;Node6 -->
<g id="edge15_Node000013_Node000006" class="edge">
<title>Node13&#45;&gt;Node6</title>
<g id="a_edge15_Node000013_Node000006"><a xlink:title=" ">
<path fill="none" stroke="#63b8ff" d="M903.92,-167.62C893.98,-149.68 872.06,-110.17 858.85,-86.35"/>
<polygon fill="#63b8ff" stroke="#63b8ff" points="861.96,-84.73 854.05,-77.68 855.84,-88.12 861.96,-84.73"/>
</a>
</g>
</g>
<!-- Node14 -->
<g id="Node000014" class="node">
<title>Node14</title>
<g id="a_Node000014"><a xlink:title=" ">
<polygon fill="#e0e0e0" stroke="#999999" points="1012.25,-132 970,-132 970,-112 1012.25,-112 1012.25,-132"/>
<text text-anchor="middle" x="991.12" y="-118.5" font-family="Helvetica,sans-Serif" font-size="10.00">queue</text>
</a>
</g>
</g>
<!-- Node13&#45;&gt;Node14 -->
<g id="edge13_Node000013_Node000014" class="edge">
<title>Node13&#45;&gt;Node14</title>
<g id="a_edge13_Node000013_Node000014"><a xlink:title=" ">
<path fill="none" stroke="#63b8ff" d="M923.41,-167.59C935.56,-159.59 953.26,-147.93 967.52,-138.54"/>
<polygon fill="#63b8ff" stroke="#63b8ff" points="969.04,-141.73 975.47,-133.31 965.19,-135.89 969.04,-141.73"/>
</a>
</g>
</g>
<!-- Node15 -->
<g id="Node000015" class="node">
<title>Node15</title>
<g id="a_Node000015"><a xlink:title=" ">
<polygon fill="#e0e0e0" stroke="#999999" points="952,-132 914.25,-132 914.25,-112 952,-112 952,-132"/>
<text text-anchor="middle" x="933.12" y="-118.5" font-family="Helvetica,sans-Serif" font-size="10.00">array</text>
</a>
</g>
</g>
<!-- Node13&#45;&gt;Node15 -->
<g id="edge14_Node000013_Node000015" class="edge">
<title>Node13&#45;&gt;Node15</title>
<g id="a_edge14_Node000013_Node000015"><a xlink:title=" ">
<path fill="none" stroke="#63b8ff" d="M913.31,-167.59C916.37,-160.7 920.64,-151.1 924.43,-142.57"/>
<polygon fill="#63b8ff" stroke="#63b8ff" points="927.51,-144.24 928.38,-133.68 921.12,-141.4 927.51,-144.24"/>
</a>
</g>
</g>
<!-- Node16&#45;&gt;Node3 -->
<g id="edge17_Node000016_Node000003" class="edge">
<title>Node16&#45;&gt;Node3</title>
<g id="a_edge17_Node000016_Node000003"><a xlink:title=" ">
<path fill="none" stroke="#63b8ff" d="M612.36,-167.55C594.33,-158.47 566.35,-144.33 542.12,-132 524.77,-123.16 521.38,-118.79 503.12,-112 459.75,-95.86 408.48,-83.91 370.93,-76.4"/>
<polygon fill="#63b8ff" stroke="#63b8ff" points="371.71,-72.99 361.22,-74.5 370.37,-79.86 371.71,-72.99"/>
</a>
</g>
</g>
<!-- Node16&#45;&gt;Node4 -->
<g id="edge18_Node000016_Node000004" class="edge">
<title>Node16&#45;&gt;Node4</title>
<g id="a_edge18_Node000016_Node000004"><a xlink:title=" ">
<path fill="none" stroke="#63b8ff" d="M584.66,-167.53C531,-156.6 444.16,-138.9 397.75,-129.44"/>
<polygon fill="#63b8ff" stroke="#63b8ff" points="398.58,-126.04 388.08,-127.47 397.18,-132.9 398.58,-126.04"/>
</a>
</g>
</g>
<!-- Node16&#45;&gt;Node5 -->
<g id="edge20_Node000016_Node000005" class="edge">
<title>Node16&#45;&gt;Node5</title>
<g id="a_edge20_Node000016_Node000005"><a xlink:title=" ">
<path fill="none" stroke="#63b8ff" d="M618.85,-167.62C594.3,-148.87 538.9,-106.55 508.35,-83.21"/>
<polygon fill="#63b8ff" stroke="#63b8ff" points="510.65,-80.56 500.57,-77.27 506.4,-86.13 510.65,-80.56"/>
</a>
</g>
</g>
<!-- Node16&#45;&gt;Node6 -->
<g id="edge21_Node000016_Node000006" class="edge">
<title>Node16&#45;&gt;Node6</title>
<g id="a_edge21_Node000016_Node000006"><a xlink:title=" ">
<path fill="none" stroke="#63b8ff" d="M692.45,-169.91C743.03,-162.86 809.55,-150.42 829.12,-132 841.18,-120.66 845.72,-102.14 847.37,-87.76"/>
<polygon fill="#63b8ff" stroke="#63b8ff" points="850.84,-88.21 848.08,-77.99 843.86,-87.71 850.84,-88.21"/>
</a>
</g>
</g>
<!-- Node16&#45;&gt;Node11 -->
<g id="edge19_Node000016_Node000011" class="edge">
<title>Node16&#45;&gt;Node11</title>
<g id="a_edge19_Node000016_Node000011"><a xlink:title=" ">
<path fill="none" stroke="#63b8ff" d="M602.73,-167.59C575.56,-158.59 534.43,-144.97 504.79,-135.15"/>
<polygon fill="#63b8ff" stroke="#63b8ff" points="506.07,-131.88 495.48,-132.06 503.87,-138.53 506.07,-131.88"/>
</a>
</g>
</g>
<!-- Node17 -->
<g id="Node000017" class="node">
<title>Node17</title>
<g id="a_Node000017"><a xlink:href="ComponentArray_8hpp.html" target="_top" xlink:title=" ">
<polygon fill="white" stroke="#666666" points="695.88,-132 588.38,-132 588.38,-112 695.88,-112 695.88,-132"/>
<text text-anchor="middle" x="642.12" y="-118.5" font-family="Helvetica,sans-Serif" font-size="10.00">ComponentArray.hpp</text>
</a>
</g>
</g>
<!-- Node16&#45;&gt;Node17 -->
<g id="edge22_Node000016_Node000017" class="edge">
<title>Node16&#45;&gt;Node17</title>
<g id="a_edge22_Node000016_Node000017"><a xlink:title=" ">
<path fill="none" stroke="#63b8ff" d="M633.04,-167.59C634.4,-160.93 636.27,-151.75 637.96,-143.44"/>
<polygon fill="#63b8ff" stroke="#63b8ff" points="641.36,-144.28 639.93,-133.78 634.5,-142.88 641.36,-144.28"/>
</a>
</g>
</g>
<!-- Node17&#45;&gt;Node3 -->
<g id="edge24_Node000017_Node000003" class="edge">
<title>Node17&#45;&gt;Node3</title>
<g id="a_edge24_Node000017_Node000003"><a xlink:title=" ">
<path fill="none" stroke="#63b8ff" d="M587.89,-111.96C527.48,-101.89 430.46,-85.72 370.71,-75.76"/>
<polygon fill="#63b8ff" stroke="#63b8ff" points="371.58,-72.36 361.14,-74.17 370.43,-79.27 371.58,-72.36"/>
</a>
</g>
</g>
<!-- Node17&#45;&gt;Node5 -->
<g id="edge25_Node000017_Node000005" class="edge">
<title>Node17&#45;&gt;Node5</title>
<g id="a_edge25_Node000017_Node000005"><a xlink:title=" ">
<path fill="none" stroke="#63b8ff" d="M615.13,-111.59C590.16,-102.9 552.82,-89.89 524.9,-80.16"/>
<polygon fill="#63b8ff" stroke="#63b8ff" points="526.36,-76.96 515.76,-76.98 524.06,-83.57 526.36,-76.96"/>
</a>
</g>
</g>
<!-- Node17&#45;&gt;Node6 -->
<g id="edge27_Node000017_Node000006" class="edge">
<title>Node17&#45;&gt;Node6</title>
<g id="a_edge27_Node000017_Node000006"><a xlink:title=" ">
<path fill="none" stroke="#63b8ff" d="M678.01,-111.59C713.94,-102.17 769.19,-87.69 806.9,-77.81"/>
<polygon fill="#63b8ff" stroke="#63b8ff" points="807.76,-81.2 816.54,-75.28 805.98,-74.43 807.76,-81.2"/>
</a>
</g>
</g>
<!-- Node17&#45;&gt;Node10 -->
<g id="edge26_Node000017_Node000010" class="edge">
<title>Node17&#45;&gt;Node10</title>
<g id="a_edge26_Node000017_Node000010"><a xlink:title=" ">
<path fill="none" stroke="#63b8ff" d="M655.71,-111.59C667.16,-103.67 683.79,-92.16 697.28,-82.82"/>
<polygon fill="#63b8ff" stroke="#63b8ff" points="698.96,-85.91 705.19,-77.34 694.97,-80.16 698.96,-85.91"/>
</a>
</g>
</g>
<!-- Node18 -->
<g id="Node000018" class="node">
<title>Node18</title>
<g id="a_Node000018"><a xlink:title=" ">
<polygon fill="#e0e0e0" stroke="#999999" points="671.12,-76 613.12,-76 613.12,-56 671.12,-56 671.12,-76"/>
<text text-anchor="middle" x="642.12" y="-62.5" font-family="Helvetica,sans-Serif" font-size="10.00">exception</text>
</a>
</g>
</g>
<!-- Node17&#45;&gt;Node18 -->
<g id="edge23_Node000017_Node000018" class="edge">
<title>Node17&#45;&gt;Node18</title>
<g id="a_edge23_Node000017_Node000018"><a xlink:title=" ">
<path fill="none" stroke="#63b8ff" d="M642.12,-111.59C642.12,-105.01 642.12,-95.96 642.12,-87.73"/>
<polygon fill="#63b8ff" stroke="#63b8ff" points="645.63,-87.81 642.13,-77.81 638.63,-87.81 645.63,-87.81"/>
</a>
</g>
</g>
<!-- Node19&#45;&gt;Node3 -->
<g id="edge29_Node000019_Node000003" class="edge">
<title>Node19&#45;&gt;Node3</title>
<g id="a_edge29_Node000019_Node000003"><a xlink:title=" ">
<path fill="none" stroke="#63b8ff" d="M407.68,-168.97C383.17,-162.71 355.54,-151.62 337.12,-132 325.8,-119.93 321.19,-101.48 319.33,-87.32"/>
<polygon fill="#63b8ff" stroke="#63b8ff" points="322.85,-87.38 318.44,-77.75 315.88,-88.03 322.85,-87.38"/>
</a>
</g>
</g>
<!-- Node19&#45;&gt;Node4 -->
<g id="edge30_Node000019_Node000004" class="edge">
<title>Node19&#45;&gt;Node4</title>
<g id="a_edge30_Node000019_Node000004"><a xlink:title=" ">
<path fill="none" stroke="#63b8ff" d="M444.58,-167.59C430.23,-159.44 409.2,-147.48 392.52,-138"/>
<polygon fill="#63b8ff" stroke="#63b8ff" points="394.54,-135.13 384.12,-133.23 391.08,-141.21 394.54,-135.13"/>
</a>
</g>
</g>
<!-- Node19&#45;&gt;Node5 -->
<g id="edge32_Node000019_Node000005" class="edge">
<title>Node19&#45;&gt;Node5</title>
<g id="a_edge32_Node000019_Node000005"><a xlink:title=" ">
<path fill="none" stroke="#63b8ff" d="M451.94,-167.66C440.63,-154.96 423.95,-131.58 433.12,-112 438.7,-100.11 449.12,-90.26 459.34,-82.84"/>
<polygon fill="#63b8ff" stroke="#63b8ff" points="461.26,-85.77 467.65,-77.32 457.38,-79.94 461.26,-85.77"/>
</a>
</g>
</g>
<!-- Node19&#45;&gt;Node11 -->
<g id="edge31_Node000019_Node000011" class="edge">
<title>Node19&#45;&gt;Node11</title>
<g id="a_edge31_Node000019_Node000011"><a xlink:title=" ">
<path fill="none" stroke="#63b8ff" d="M462.34,-167.59C463.21,-160.93 464.4,-151.75 465.48,-143.44"/>
<polygon fill="#63b8ff" stroke="#63b8ff" points="468.91,-144.17 466.73,-133.8 461.97,-143.27 468.91,-144.17"/>
</a>
</g>
</g>
<!-- Node20 -->
<g id="Node000020" class="node">
<title>Node20</title>
<g id="a_Node000020"><a xlink:href="System_8hpp.html" target="_top" xlink:title=" ">
<polygon fill="white" stroke="#666666" points="820.38,-132 751.88,-132 751.88,-112 820.38,-112 820.38,-132"/>
<text text-anchor="middle" x="786.12" y="-118.5" font-family="Helvetica,sans-Serif" font-size="10.00">System.hpp</text>
</a>
</g>
</g>
<!-- Node19&#45;&gt;Node20 -->
<g id="edge33_Node000019_Node000020" class="edge">
<title>Node19&#45;&gt;Node20</title>
<g id="a_edge33_Node000019_Node000020"><a xlink:title=" ">
<path fill="none" stroke="#63b8ff" d="M514.43,-168.14C577.4,-157.68 681.09,-140.45 740.51,-130.58"/>
<polygon fill="#63b8ff" stroke="#63b8ff" points="740.99,-134.05 750.28,-128.96 739.84,-127.14 740.99,-134.05"/>
</a>
</g>
</g>
<!-- Node20&#45;&gt;Node6 -->
<g id="edge35_Node000020_Node000006" class="edge">
<title>Node20&#45;&gt;Node6</title>
<g id="a_edge35_Node000020_Node000006"><a xlink:title=" ">
<path fill="none" stroke="#63b8ff" d="M796.92,-111.59C805.73,-103.93 818.38,-92.91 828.9,-83.75"/>
<polygon fill="#63b8ff" stroke="#63b8ff" points="831.07,-86.5 836.31,-77.29 826.47,-81.22 831.07,-86.5"/>
</a>
</g>
</g>
<!-- Node21 -->
<g id="Node000021" class="node">
<title>Node21</title>
<g id="a_Node000021"><a xlink:title=" ">
<polygon fill="#e0e0e0" stroke="#999999" points="799.88,-76 770.38,-76 770.38,-56 799.88,-56 799.88,-76"/>
<text text-anchor="middle" x="785.12" y="-62.5" font-family="Helvetica,sans-Serif" font-size="10.00">set</text>
</a>
</g>
</g>
<!-- Node20&#45;&gt;Node21 -->
<g id="edge34_Node000020_Node000021" class="edge">
<title>Node20&#45;&gt;Node21</title>
<g id="a_edge34_Node000020_Node000021"><a xlink:title=" ">
<path fill="none" stroke="#63b8ff" d="M785.95,-111.59C785.83,-105.01 785.66,-95.96 785.51,-87.73"/>
<polygon fill="#63b8ff" stroke="#63b8ff" points="789.01,-87.75 785.33,-77.81 782.01,-87.87 789.01,-87.75"/>
</a>
</g>
</g>
<!-- Node22&#45;&gt;Node2 -->
<g id="edge41_Node000022_Node000002" class="edge">
<title>Node22&#45;&gt;Node2</title>
<g id="a_edge41_Node000022_Node000002"><a xlink:title=" ">
<path fill="none" stroke="#63b8ff" d="M193.02,-167.59C184.87,-160.01 173.19,-149.13 163.41,-140.02"/>
<polygon fill="#63b8ff" stroke="#63b8ff" points="165.92,-137.58 156.22,-133.33 161.15,-142.71 165.92,-137.58"/>
</a>
</g>
</g>
<!-- Node23 -->
<g id="Node000023" class="node">
<title>Node23</title>
<g id="a_Node000023"><a xlink:href="Event_8hpp.html" target="_top" xlink:title=" ">
<polygon fill="white" stroke="#666666" points="60.25,-132 0,-132 0,-112 60.25,-112 60.25,-132"/>
<text text-anchor="middle" x="30.12" y="-118.5" font-family="Helvetica,sans-Serif" font-size="10.00">Event.hpp</text>
</a>
</g>
</g>
<!-- Node22&#45;&gt;Node23 -->
<g id="edge37_Node000022_Node000023" class="edge">
<title>Node22&#45;&gt;Node23</title>
<g id="a_edge37_Node000022_Node000023"><a xlink:title=" ">
<path fill="none" stroke="#63b8ff" d="M172.99,-167.59C144.88,-158.82 102.71,-145.66 71.47,-135.9"/>
<polygon fill="#63b8ff" stroke="#63b8ff" points="72.53,-132.57 61.94,-132.93 70.44,-139.25 72.53,-132.57"/>
</a>
</g>
</g>
<!-- Node25 -->
<g id="Node000025" class="node">
<title>Node25</title>
<g id="a_Node000025"><a xlink:title=" ">
<polygon fill="#e0e0e0" stroke="#999999" points="220.53,-132 191.72,-132 191.72,-112 220.53,-112 220.53,-132"/>
<text text-anchor="middle" x="206.12" y="-118.5" font-family="Helvetica,sans-Serif" font-size="10.00">list</text>
</a>
</g>
</g>
<!-- Node22&#45;&gt;Node25 -->
<g id="edge42_Node000022_Node000025" class="edge">
<title>Node22&#45;&gt;Node25</title>
<g id="a_edge42_Node000022_Node000025"><a xlink:title=" ">
<path fill="none" stroke="#63b8ff" d="M203.65,-167.59C204.01,-161.01 204.52,-151.96 204.97,-143.73"/>
<polygon fill="#63b8ff" stroke="#63b8ff" points="208.46,-143.99 205.52,-133.81 201.48,-143.6 208.46,-143.99"/>
</a>
</g>
</g>
<!-- Node23&#45;&gt;Node3 -->
<g id="edge39_Node000023_Node000003" class="edge">
<title>Node23&#45;&gt;Node3</title>
<g id="a_edge39_Node000023_Node000003"><a xlink:title=" ">
<path fill="none" stroke="#63b8ff" d="M60.41,-114.73C65,-113.8 69.69,-112.86 74.12,-112 140.03,-99.18 216.13,-85.29 265.58,-76.39"/>
<polygon fill="#63b8ff" stroke="#63b8ff" points="265.92,-79.88 275.14,-74.67 264.68,-72.99 265.92,-79.88"/>
</a>
</g>
</g>
<!-- Node23&#45;&gt;Node7 -->
<g id="edge38_Node000023_Node000007" class="edge">
<title>Node23&#45;&gt;Node7</title>
<g id="a_edge38_Node000023_Node000007"><a xlink:title=" ">
<path fill="none" stroke="#63b8ff" d="M29.88,-111.8C30.04,-97.47 32.65,-70.03 49.12,-56 97.65,-14.68 294.4,-10.57 374.73,-10.66"/>
<polygon fill="#63b8ff" stroke="#63b8ff" points="374.61,-14.16 384.63,-10.69 374.64,-7.16 374.61,-14.16"/>
</a>
</g>
</g>
<!-- Node24 -->
<g id="Node000024" class="node">
<title>Node24</title>
<g id="a_Node000024"><a xlink:title=" ">
<polygon fill="#e0e0e0" stroke="#999999" points="90,-76 58.25,-76 58.25,-56 90,-56 90,-76"/>
<text text-anchor="middle" x="74.12" y="-62.5" font-family="Helvetica,sans-Serif" font-size="10.00">any</text>
</a>
</g>
</g>
<!-- Node23&#45;&gt;Node24 -->
<g id="edge40_Node000023_Node000024" class="edge">
<title>Node23&#45;&gt;Node24</title>
<g id="a_edge40_Node000023_Node000024"><a xlink:title=" ">
<path fill="none" stroke="#63b8ff" d="M37.79,-111.59C43.72,-104.32 52.11,-94.02 59.34,-85.15"/>
<polygon fill="#63b8ff" stroke="#63b8ff" points="61.99,-87.43 65.59,-77.47 56.56,-83.01 61.99,-87.43"/>
</a>
</g>
</g>
</g>
</svg>
