<?xml version="1.0" encoding="UTF-8" standalone="no"?>
<!DOCTYPE svg PUBLIC "-//W3C//DTD SVG 1.1//EN"
 "http://www.w3.org/Graphics/SVG/1.1/DTD/svg11.dtd">
<!-- Generated by graphviz version 12.1.0 (20240811.2233)
 -->
<!-- Title: ControlsConfig.hpp Pages: 1 -->
<svg width="295pt" height="140pt"
 viewBox="0.00 0.00 295.00 140.00" xmlns="http://www.w3.org/2000/svg" xmlns:xlink="http://www.w3.org/1999/xlink">
<g id="graph0" class="graph" transform="scale(1 1) rotate(0) translate(4 136)">
<title>ControlsConfig.hpp</title>
<!-- Node1 -->
<g id="Node000001" class="node">
<title>Node1</title>
<g id="a_Node000001"><a xlink:title=" ">
<polygon fill="#999999" stroke="#666666" points="218.5,-132 118.5,-132 118.5,-112 218.5,-112 218.5,-132"/>
<text text-anchor="middle" x="168.5" y="-118.5" font-family="Helvetica,sans-Serif" font-size="10.00">ControlsConfig.hpp</text>
</a>
</g>
</g>
<!-- Node2 -->
<g id="Node000002" class="node">
<title>Node2</title>
<g id="a_Node000002"><a xlink:title=" ">
<polygon fill="#e0e0e0" stroke="#999999" points="103,-76 0,-76 0,-56 103,-56 103,-76"/>
<text text-anchor="middle" x="51.5" y="-62.5" font-family="Helvetica,sans-Serif" font-size="10.00">SFML/Graphics.hpp</text>
</a>
</g>
</g>
<!-- Node1&#45;&gt;Node2 -->
<g id="edge1_Node000001_Node000002" class="edge">
<title>Node1&#45;&gt;Node2</title>
<g id="a_edge1_Node000001_Node000002"><a xlink:title=" ">
<path fill="none" stroke="#63b8ff" d="M148.12,-111.59C129.94,-103.21 103.07,-90.8 82.28,-81.21"/>
<polygon fill="#63b8ff" stroke="#63b8ff" points="83.96,-78.13 73.41,-77.11 81.03,-84.48 83.96,-78.13"/>
</a>
</g>
</g>
<!-- Node3 -->
<g id="Node000003" class="node">
<title>Node3</title>
<g id="a_Node000003"><a xlink:title=" ">
<polygon fill="#e0e0e0" stroke="#999999" points="161.5,-76 121.5,-76 121.5,-56 161.5,-56 161.5,-76"/>
<text text-anchor="middle" x="141.5" y="-62.5" font-family="Helvetica,sans-Serif" font-size="10.00">string</text>
</a>
</g>
</g>
<!-- Node1&#45;&gt;Node3 -->
<g id="edge2_Node000001_Node000003" class="edge">
<title>Node1&#45;&gt;Node3</title>
<g id="a_edge2_Node000001_Node000003"><a xlink:title=" ">
<path fill="none" stroke="#63b8ff" d="M163.8,-111.59C160.35,-104.7 155.55,-95.1 151.29,-86.57"/>
<polygon fill="#63b8ff" stroke="#63b8ff" points="154.43,-85.03 146.83,-77.65 148.17,-88.16 154.43,-85.03"/>
</a>
</g>
</g>
<!-- Node4 -->
<g id="Node000004" class="node">
<title>Node4</title>
<g id="a_Node000004"><a xlink:title=" ">
<polygon fill="#e0e0e0" stroke="#999999" points="213.88,-76 179.12,-76 179.12,-56 213.88,-56 213.88,-76"/>
<text text-anchor="middle" x="196.5" y="-62.5" font-family="Helvetica,sans-Serif" font-size="10.00">map</text>
</a>
</g>
</g>
<!-- Node1&#45;&gt;Node4 -->
<g id="edge3_Node000001_Node000004" class="edge">
<title>Node1&#45;&gt;Node4</title>
<g id="a_edge3_Node000001_Node000004"><a xlink:title=" ">
<path fill="none" stroke="#63b8ff" d="M173.38,-111.59C176.99,-104.63 182.04,-94.89 186.5,-86.29"/>
<polygon fill="#63b8ff" stroke="#63b8ff" points="189.49,-88.13 190.98,-77.64 183.27,-84.91 189.49,-88.13"/>
</a>
</g>
</g>
<!-- Node5 -->
<g id="Node000005" class="node">
<title>Node5</title>
<g id="a_Node000005"><a xlink:href="Utils_8hpp.html" target="_top" xlink:title=" ">
<polygon fill="white" stroke="#666666" points="287,-76 232,-76 232,-56 287,-56 287,-76"/>
<text text-anchor="middle" x="259.5" y="-62.5" font-family="Helvetica,sans-Serif" font-size="10.00">Utils.hpp</text>
</a>
</g>
</g>
<!-- Node1&#45;&gt;Node5 -->
<g id="edge4_Node000001_Node000005" class="edge">
<title>Node1&#45;&gt;Node5</title>
<g id="a_edge4_Node000001_Node000005"><a xlink:title=" ">
<path fill="none" stroke="#63b8ff" d="M184.35,-111.59C197.97,-103.51 217.86,-91.71 233.76,-82.27"/>
<polygon fill="#63b8ff" stroke="#63b8ff" points="235.41,-85.37 242.22,-77.25 231.84,-79.35 235.41,-85.37"/>
</a>
</g>
</g>
<!-- Node6 -->
<g id="Node000006" class="node">
<title>Node6</title>
<g id="a_Node000006"><a xlink:title=" ">
<polygon fill="#e0e0e0" stroke="#999999" points="282.12,-20 236.88,-20 236.88,0 282.12,0 282.12,-20"/>
<text text-anchor="middle" x="259.5" y="-6.5" font-family="Helvetica,sans-Serif" font-size="10.00">cstdint</text>
</a>
</g>
</g>
<!-- Node5&#45;&gt;Node6 -->
<g id="edge5_Node000005_Node000006" class="edge">
<title>Node5&#45;&gt;Node6</title>
<g id="a_edge5_Node000005_Node000006"><a xlink:title=" ">
<path fill="none" stroke="#63b8ff" d="M259.5,-55.59C259.5,-49.01 259.5,-39.96 259.5,-31.73"/>
<polygon fill="#63b8ff" stroke="#63b8ff" points="263,-31.81 259.5,-21.81 256,-31.81 263,-31.81"/>
</a>
</g>
</g>
</g>
</svg>
