<?xml version="1.0" encoding="UTF-8" standalone="no"?>
<!DOCTYPE svg PUBLIC "-//W3C//DTD SVG 1.1//EN"
 "http://www.w3.org/Graphics/SVG/1.1/DTD/svg11.dtd">
<!-- Generated by graphviz version 12.1.0 (20240811.2233)
 -->
<!-- Title: ControlsConfig.hpp Pages: 1 -->
<svg width="348pt" height="140pt"
 viewBox="0.00 0.00 348.38 140.00" xmlns="http://www.w3.org/2000/svg" xmlns:xlink="http://www.w3.org/1999/xlink">
<g id="graph0" class="graph" transform="scale(1 1) rotate(0) translate(4 136)">
<title>ControlsConfig.hpp</title>
<!-- Node1 -->
<g id="Node000001" class="node">
<title>Node1</title>
<g id="a_Node000001"><a xlink:title=" ">
<polygon fill="#999999" stroke="#666666" points="203.5,-132 103.5,-132 103.5,-112 203.5,-112 203.5,-132"/>
<text text-anchor="middle" x="153.5" y="-118.5" font-family="Helvetica,sans-Serif" font-size="10.00">ControlsConfig.hpp</text>
</a>
</g>
</g>
<!-- Node2 -->
<g id="Node000002" class="node">
<title>Node2</title>
<g id="a_Node000002"><a xlink:title=" ">
<polygon fill="#e0e0e0" stroke="#999999" points="103,-76 0,-76 0,-56 103,-56 103,-76"/>
<text text-anchor="middle" x="51.5" y="-62.5" font-family="Helvetica,sans-Serif" font-size="10.00">SFML/Graphics.hpp</text>
</a>
</g>
</g>
<!-- Node1&#45;&gt;Node2 -->
<g id="edge1_Node000001_Node000002" class="edge">
<title>Node1&#45;&gt;Node2</title>
<g id="a_edge1_Node000001_Node000002"><a xlink:title=" ">
<path fill="none" stroke="#63b8ff" d="M135.73,-111.59C120.18,-103.36 97.32,-91.26 79.34,-81.74"/>
<polygon fill="#63b8ff" stroke="#63b8ff" points="81.22,-78.77 70.74,-77.19 77.94,-84.96 81.22,-78.77"/>
</a>
</g>
</g>
<!-- Node3 -->
<g id="Node000003" class="node">
<title>Node3</title>
<g id="a_Node000003"><a xlink:title=" ">
<polygon fill="#e0e0e0" stroke="#999999" points="151.5,-20 111.5,-20 111.5,0 151.5,0 151.5,-20"/>
<text text-anchor="middle" x="131.5" y="-6.5" font-family="Helvetica,sans-Serif" font-size="10.00">string</text>
</a>
</g>
</g>
<!-- Node1&#45;&gt;Node3 -->
<g id="edge2_Node000001_Node000003" class="edge">
<title>Node1&#45;&gt;Node3</title>
<g id="a_edge2_Node000001_Node000003"><a xlink:title=" ">
<path fill="none" stroke="#63b8ff" d="M151.62,-111.62C148.08,-93.92 140.35,-55.24 135.56,-31.32"/>
<polygon fill="#63b8ff" stroke="#63b8ff" points="139.06,-30.96 133.67,-21.84 132.2,-32.33 139.06,-30.96"/>
</a>
</g>
</g>
<!-- Node4 -->
<g id="Node000004" class="node">
<title>Node4</title>
<g id="a_Node000004"><a xlink:title=" ">
<polygon fill="#e0e0e0" stroke="#999999" points="193.88,-76 159.12,-76 159.12,-56 193.88,-56 193.88,-76"/>
<text text-anchor="middle" x="176.5" y="-62.5" font-family="Helvetica,sans-Serif" font-size="10.00">map</text>
</a>
</g>
</g>
<!-- Node1&#45;&gt;Node4 -->
<g id="edge3_Node000001_Node000004" class="edge">
<title>Node1&#45;&gt;Node4</title>
<g id="a_edge3_Node000001_Node000004"><a xlink:title=" ">
<path fill="none" stroke="#63b8ff" d="M157.51,-111.59C160.41,-104.78 164.44,-95.32 168.04,-86.86"/>
<polygon fill="#63b8ff" stroke="#63b8ff" points="171.25,-88.26 171.95,-77.69 164.81,-85.52 171.25,-88.26"/>
</a>
</g>
</g>
<!-- Node5 -->
<g id="Node000005" class="node">
<title>Node5</title>
<g id="a_Node000005"><a xlink:href="Utils_8hpp.html" target="_top" xlink:title=" ">
<polygon fill="white" stroke="#666666" points="267,-76 212,-76 212,-56 267,-56 267,-76"/>
<text text-anchor="middle" x="239.5" y="-62.5" font-family="Helvetica,sans-Serif" font-size="10.00">Utils.hpp</text>
</a>
</g>
</g>
<!-- Node1&#45;&gt;Node5 -->
<g id="edge4_Node000001_Node000005" class="edge">
<title>Node1&#45;&gt;Node5</title>
<g id="a_edge4_Node000001_Node000005"><a xlink:title=" ">
<path fill="none" stroke="#63b8ff" d="M168.48,-111.59C181.23,-103.59 199.79,-91.93 214.74,-82.54"/>
<polygon fill="#63b8ff" stroke="#63b8ff" points="216.51,-85.57 223.12,-77.28 212.79,-79.64 216.51,-85.57"/>
</a>
</g>
</g>
<!-- Node5&#45;&gt;Node3 -->
<g id="edge6_Node000005_Node000003" class="edge">
<title>Node5&#45;&gt;Node3</title>
<g id="a_edge6_Node000005_Node000003"><a xlink:title=" ">
<path fill="none" stroke="#63b8ff" d="M220.69,-55.59C204.14,-47.32 179.79,-35.14 160.71,-25.6"/>
<polygon fill="#63b8ff" stroke="#63b8ff" points="162.32,-22.5 151.81,-21.16 159.19,-28.76 162.32,-22.5"/>
</a>
</g>
</g>
<!-- Node6 -->
<g id="Node000006" class="node">
<title>Node6</title>
<g id="a_Node000006"><a xlink:title=" ">
<polygon fill="#e0e0e0" stroke="#999999" points="215.12,-20 169.88,-20 169.88,0 215.12,0 215.12,-20"/>
<text text-anchor="middle" x="192.5" y="-6.5" font-family="Helvetica,sans-Serif" font-size="10.00">cstdint</text>
</a>
</g>
</g>
<!-- Node5&#45;&gt;Node6 -->
<g id="edge5_Node000005_Node000006" class="edge">
<title>Node5&#45;&gt;Node6</title>
<g id="a_edge5_Node000005_Node000006"><a xlink:title=" ">
<path fill="none" stroke="#63b8ff" d="M231.31,-55.59C224.91,-48.24 215.82,-37.8 208.05,-28.87"/>
<polygon fill="#63b8ff" stroke="#63b8ff" points="210.79,-26.69 201.59,-21.44 205.51,-31.28 210.79,-26.69"/>
</a>
</g>
</g>
<!-- Node7 -->
<g id="Node000007" class="node">
<title>Node7</title>
<g id="a_Node000007"><a xlink:title=" ">
<polygon fill="#e0e0e0" stroke="#999999" points="284.12,-20 232.88,-20 232.88,0 284.12,0 284.12,-20"/>
<text text-anchor="middle" x="258.5" y="-6.5" font-family="Helvetica,sans-Serif" font-size="10.00">ostream</text>
</a>
</g>
</g>
<!-- Node5&#45;&gt;Node7 -->
<g id="edge7_Node000005_Node000007" class="edge">
<title>Node5&#45;&gt;Node7</title>
<g id="a_edge7_Node000005_Node000007"><a xlink:title=" ">
<path fill="none" stroke="#63b8ff" d="M242.81,-55.59C245.18,-48.86 248.46,-39.53 251.41,-31.15"/>
<polygon fill="#63b8ff" stroke="#63b8ff" points="254.71,-32.32 254.73,-21.73 248.11,-30 254.71,-32.32"/>
</a>
</g>
</g>
<!-- Node8 -->
<g id="Node000008" class="node">
<title>Node8</title>
<g id="a_Node000008"><a xlink:title=" ">
<polygon fill="#e0e0e0" stroke="#999999" points="340.38,-20 302.62,-20 302.62,0 340.38,0 340.38,-20"/>
<text text-anchor="middle" x="321.5" y="-6.5" font-family="Helvetica,sans-Serif" font-size="10.00">array</text>
</a>
</g>
</g>
<!-- Node5&#45;&gt;Node8 -->
<g id="edge8_Node000005_Node000008" class="edge">
<title>Node5&#45;&gt;Node8</title>
<g id="a_edge8_Node000005_Node000008"><a xlink:title=" ">
<path fill="none" stroke="#63b8ff" d="M253.78,-55.59C265.94,-47.59 283.64,-35.93 297.9,-26.54"/>
<polygon fill="#63b8ff" stroke="#63b8ff" points="299.41,-29.73 305.84,-21.31 295.56,-23.89 299.41,-29.73"/>
</a>
</g>
</g>
</g>
</svg>
