<?xml version="1.0" encoding="UTF-8" standalone="no"?>
<!DOCTYPE svg PUBLIC "-//W3C//DTD SVG 1.1//EN"
 "http://www.w3.org/Graphics/SVG/1.1/DTD/svg11.dtd">
<!-- Generated by graphviz version 12.1.0 (20240811.2233)
 -->
<!-- Title: ControlsConfig.hpp Pages: 1 -->
<svg width="243pt" height="140pt"
 viewBox="0.00 0.00 242.88 140.00" xmlns="http://www.w3.org/2000/svg" xmlns:xlink="http://www.w3.org/1999/xlink">
<g id="graph0" class="graph" transform="scale(1 1) rotate(0) translate(4 136)">
<title>ControlsConfig.hpp</title>
<!-- Node1 -->
<g id="Node000001" class="node">
<title>Node1</title>
<g id="a_Node000001"><a xlink:title=" ">
<polygon fill="#999999" stroke="#666666" points="156,-132 56,-132 56,-112 156,-112 156,-132"/>
<text text-anchor="middle" x="106" y="-118.5" font-family="Helvetica,sans-Serif" font-size="10.00">ControlsConfig.hpp</text>
</a>
</g>
</g>
<!-- Node2 -->
<g id="Node000002" class="node">
<title>Node2</title>
<g id="a_Node000002"><a xlink:href="ControlsConfig_8cpp.html" target="_top" xlink:title=" ">
<polygon fill="white" stroke="#666666" points="100,-76 0,-76 0,-56 100,-56 100,-76"/>
<text text-anchor="middle" x="50" y="-62.5" font-family="Helvetica,sans-Serif" font-size="10.00">ControlsConfig.cpp</text>
</a>
</g>
</g>
<!-- Node1&#45;&gt;Node2 -->
<g id="edge1_Node000001_Node000002" class="edge">
<title>Node1&#45;&gt;Node2</title>
<g id="a_edge1_Node000001_Node000002"><a xlink:title=" ">
<path fill="none" stroke="#63b8ff" d="M88.21,-103.85C78.75,-94.72 67.48,-83.86 59.64,-76.3"/>
<polygon fill="#63b8ff" stroke="#63b8ff" points="85.53,-106.12 95.16,-110.54 90.39,-101.08 85.53,-106.12"/>
</a>
</g>
</g>
<!-- Node3 -->
<g id="Node000003" class="node">
<title>Node3</title>
<g id="a_Node000003"><a xlink:href="GameTypes_8hpp.html" target="_top" xlink:title=" ">
<polygon fill="white" stroke="#666666" points="205.62,-76 118.38,-76 118.38,-56 205.62,-56 205.62,-76"/>
<text text-anchor="middle" x="162" y="-62.5" font-family="Helvetica,sans-Serif" font-size="10.00">GameTypes.hpp</text>
</a>
</g>
</g>
<!-- Node1&#45;&gt;Node3 -->
<g id="edge2_Node000001_Node000003" class="edge">
<title>Node1&#45;&gt;Node3</title>
<g id="a_edge2_Node000001_Node000003"><a xlink:title=" ">
<path fill="none" stroke="#63b8ff" d="M123.79,-103.85C133.25,-94.72 144.52,-83.86 152.36,-76.3"/>
<polygon fill="#63b8ff" stroke="#63b8ff" points="121.61,-101.08 116.84,-110.54 126.47,-106.12 121.61,-101.08"/>
</a>
</g>
</g>
<!-- Node4 -->
<g id="Node000004" class="node">
<title>Node4</title>
<g id="a_Node000004"><a xlink:href="GameTypes_8cpp.html" target="_top" xlink:title=" ">
<polygon fill="white" stroke="#666666" points="160.62,-20 73.38,-20 73.38,0 160.62,0 160.62,-20"/>
<text text-anchor="middle" x="117" y="-6.5" font-family="Helvetica,sans-Serif" font-size="10.00">GameTypes.cpp</text>
</a>
</g>
</g>
<!-- Node3&#45;&gt;Node4 -->
<g id="edge3_Node000003_Node000004" class="edge">
<title>Node3&#45;&gt;Node4</title>
<g id="a_edge3_Node000003_Node000004"><a xlink:title=" ">
<path fill="none" stroke="#63b8ff" d="M147,-47C139.55,-38.06 130.85,-27.62 124.75,-20.3"/>
<polygon fill="#63b8ff" stroke="#63b8ff" points="144.1,-48.99 153.19,-54.43 149.48,-44.51 144.1,-48.99"/>
</a>
</g>
</g>
<!-- Node5 -->
<g id="Node000005" class="node">
<title>Node5</title>
<g id="a_Node000005"><a xlink:href="Client_2src_2main_8cpp.html" target="_top" xlink:title=" ">
<polygon fill="white" stroke="#666666" points="234.88,-20 179.12,-20 179.12,0 234.88,0 234.88,-20"/>
<text text-anchor="middle" x="207" y="-6.5" font-family="Helvetica,sans-Serif" font-size="10.00">main.cpp</text>
</a>
</g>
</g>
<!-- Node3&#45;&gt;Node5 -->
<g id="edge4_Node000003_Node000005" class="edge">
<title>Node3&#45;&gt;Node5</title>
<g id="a_edge4_Node000003_Node000005"><a xlink:title=" ">
<path fill="none" stroke="#63b8ff" d="M177,-47C184.45,-38.06 193.15,-27.62 199.25,-20.3"/>
<polygon fill="#63b8ff" stroke="#63b8ff" points="174.52,-44.51 170.81,-54.43 179.9,-48.99 174.52,-44.51"/>
</a>
</g>
</g>
</g>
</svg>
