<?xml version="1.0" encoding="UTF-8" standalone="no"?>
<!DOCTYPE svg PUBLIC "-//W3C//DTD SVG 1.1//EN"
 "http://www.w3.org/Graphics/SVG/1.1/DTD/svg11.dtd">
<!-- Generated by graphviz version 12.1.0 (20240811.2233)
 -->
<!-- Title: DevConsole.hpp Pages: 1 -->
<svg width="170pt" height="140pt"
 viewBox="0.00 0.00 169.50 140.00" xmlns="http://www.w3.org/2000/svg" xmlns:xlink="http://www.w3.org/1999/xlink">
<g id="graph0" class="graph" transform="scale(1 1) rotate(0) translate(4 136)">
<title>DevConsole.hpp</title>
<!-- Node1 -->
<g id="Node000001" class="node">
<title>Node1</title>
<g id="a_Node000001"><a xlink:title=" ">
<polygon fill="#999999" stroke="#666666" points="124,-132 35.25,-132 35.25,-112 124,-112 124,-132"/>
<text text-anchor="middle" x="79.62" y="-118.5" font-family="Helvetica,sans-Serif" font-size="10.00">DevConsole.hpp</text>
</a>
</g>
</g>
<!-- Node2 -->
<g id="Node000002" class="node">
<title>Node2</title>
<g id="a_Node000002"><a xlink:href="GameTypes_8cpp.html" target="_top" xlink:title=" ">
<polygon fill="white" stroke="#666666" points="87.25,-20 0,-20 0,0 87.25,0 87.25,-20"/>
<text text-anchor="middle" x="43.62" y="-6.5" font-family="Helvetica,sans-Serif" font-size="10.00">GameTypes.cpp</text>
</a>
</g>
</g>
<!-- Node1&#45;&gt;Node2 -->
<g id="edge1_Node000001_Node000002" class="edge">
<title>Node1&#45;&gt;Node2</title>
<g id="a_edge1_Node000001_Node000002"><a xlink:title=" ">
<path fill="none" stroke="#63b8ff" d="M71.76,-101.16C68.76,-93.37 65.4,-84.31 62.62,-76 56.06,-56.38 49.54,-33.01 46.11,-20.33"/>
<polygon fill="#63b8ff" stroke="#63b8ff" points="68.45,-102.32 75.35,-110.36 74.97,-99.77 68.45,-102.32"/>
</a>
</g>
</g>
<!-- Node3 -->
<g id="Node000003" class="node">
<title>Node3</title>
<g id="a_Node000003"><a xlink:href="GameTypes_8hpp.html" target="_top" xlink:title=" ">
<polygon fill="white" stroke="#666666" points="159.25,-76 72,-76 72,-56 159.25,-56 159.25,-76"/>
<text text-anchor="middle" x="115.62" y="-62.5" font-family="Helvetica,sans-Serif" font-size="10.00">GameTypes.hpp</text>
</a>
</g>
</g>
<!-- Node1&#45;&gt;Node3 -->
<g id="edge2_Node000001_Node000003" class="edge">
<title>Node1&#45;&gt;Node3</title>
<g id="a_edge2_Node000001_Node000003"><a xlink:title=" ">
<path fill="none" stroke="#63b8ff" d="M92.19,-102.15C98.02,-93.4 104.7,-83.39 109.43,-76.3"/>
<polygon fill="#63b8ff" stroke="#63b8ff" points="89.37,-100.07 86.74,-110.33 95.19,-103.96 89.37,-100.07"/>
</a>
</g>
</g>
<!-- Node3&#45;&gt;Node2 -->
<g id="edge3_Node000003_Node000002" class="edge">
<title>Node3&#45;&gt;Node2</title>
<g id="a_edge3_Node000003_Node000002"><a xlink:title=" ">
<path fill="none" stroke="#63b8ff" d="M94.23,-48.95C81.78,-39.61 66.51,-28.16 56.02,-20.3"/>
<polygon fill="#63b8ff" stroke="#63b8ff" points="91.77,-51.49 101.87,-54.69 95.97,-45.89 91.77,-51.49"/>
</a>
</g>
</g>
<!-- Node4 -->
<g id="Node000004" class="node">
<title>Node4</title>
<g id="a_Node000004"><a xlink:href="Client_2src_2main_8cpp.html" target="_top" xlink:title=" ">
<polygon fill="white" stroke="#666666" points="161.5,-20 105.75,-20 105.75,0 161.5,0 161.5,-20"/>
<text text-anchor="middle" x="133.62" y="-6.5" font-family="Helvetica,sans-Serif" font-size="10.00">main.cpp</text>
</a>
</g>
</g>
<!-- Node3&#45;&gt;Node4 -->
<g id="edge4_Node000003_Node000004" class="edge">
<title>Node3&#45;&gt;Node4</title>
<g id="a_edge4_Node000003_Node000004"><a xlink:title=" ">
<path fill="none" stroke="#63b8ff" d="M122.39,-44.71C125.18,-36.32 128.29,-27.01 130.53,-20.3"/>
<polygon fill="#63b8ff" stroke="#63b8ff" points="119.08,-43.56 119.24,-54.16 125.72,-45.78 119.08,-43.56"/>
</a>
</g>
</g>
</g>
</svg>
