<?xml version="1.0" encoding="UTF-8" standalone="no"?>
<!DOCTYPE svg PUBLIC "-//W3C//DTD SVG 1.1//EN"
 "http://www.w3.org/Graphics/SVG/1.1/DTD/svg11.dtd">
<!-- Generated by graphviz version 12.1.0 (20240811.2233)
 -->
<!-- Title: dlfcn_compat.hpp Pages: 1 -->
<svg width="360pt" height="140pt"
 viewBox="0.00 0.00 359.50 140.00" xmlns="http://www.w3.org/2000/svg" xmlns:xlink="http://www.w3.org/1999/xlink">
<g id="graph0" class="graph" transform="scale(1 1) rotate(0) translate(4 136)">
<title>dlfcn_compat.hpp</title>
<!-- Node1 -->
<g id="Node000001" class="node">
<title>Node1</title>
<g id="a_Node000001"><a xlink:title=" ">
<polygon fill="#999999" stroke="#666666" points="314.25,-132 221,-132 221,-112 314.25,-112 314.25,-132"/>
<text text-anchor="middle" x="267.62" y="-118.5" font-family="Helvetica,sans-Serif" font-size="10.00">dlfcn_compat.hpp</text>
</a>
</g>
</g>
<!-- Node2 -->
<g id="Node000002" class="node">
<title>Node2</title>
<g id="a_Node000002"><a xlink:href="DLLoader_8hpp.html" target="_top" xlink:title=" ">
<polygon fill="white" stroke="#666666" points="229,-76 152.25,-76 152.25,-56 229,-56 229,-76"/>
<text text-anchor="middle" x="190.62" y="-62.5" font-family="Helvetica,sans-Serif" font-size="10.00">DLLoader.hpp</text>
</a>
</g>
</g>
<!-- Node1&#45;&gt;Node2 -->
<g id="edge1_Node000001_Node000002" class="edge">
<title>Node1&#45;&gt;Node2</title>
<g id="a_edge1_Node000001_Node000002"><a xlink:title=" ">
<path fill="none" stroke="#63b8ff" d="M244.81,-105C231.58,-95.72 215.37,-84.35 204.14,-76.48"/>
<polygon fill="#63b8ff" stroke="#63b8ff" points="242.78,-107.85 252.97,-110.72 246.8,-102.12 242.78,-107.85"/>
</a>
</g>
</g>
<!-- Node5 -->
<g id="Node000005" class="node">
<title>Node5</title>
<g id="a_Node000005"><a xlink:href="Server_8cpp.html" target="_top" xlink:title=" ">
<polygon fill="white" stroke="#666666" points="311.25,-20 248,-20 248,0 311.25,0 311.25,-20"/>
<text text-anchor="middle" x="279.62" y="-6.5" font-family="Helvetica,sans-Serif" font-size="10.00">Server.cpp</text>
</a>
</g>
</g>
<!-- Node1&#45;&gt;Node5 -->
<g id="edge5_Node000001_Node000005" class="edge">
<title>Node1&#45;&gt;Node5</title>
<g id="a_edge5_Node000001_Node000005"><a xlink:title=" ">
<path fill="none" stroke="#63b8ff" d="M269.88,-100.31C272.49,-76.36 276.68,-37.95 278.6,-20.35"/>
<polygon fill="#63b8ff" stroke="#63b8ff" points="266.42,-99.8 268.81,-110.12 273.38,-100.56 266.42,-99.8"/>
</a>
</g>
</g>
<!-- Node6 -->
<g id="Node000006" class="node">
<title>Node6</title>
<g id="a_Node000006"><a xlink:href="Client_2src_2main_8cpp.html" target="_top" xlink:title=" ">
<polygon fill="white" stroke="#666666" points="351.5,-76 295.75,-76 295.75,-56 351.5,-56 351.5,-76"/>
<text text-anchor="middle" x="323.62" y="-62.5" font-family="Helvetica,sans-Serif" font-size="10.00">main.cpp</text>
</a>
</g>
</g>
<!-- Node1&#45;&gt;Node6 -->
<g id="edge6_Node000001_Node000006" class="edge">
<title>Node1&#45;&gt;Node6</title>
<g id="a_edge6_Node000001_Node000006"><a xlink:title=" ">
<path fill="none" stroke="#63b8ff" d="M285.41,-103.85C294.88,-94.72 306.15,-83.86 313.98,-76.3"/>
<polygon fill="#63b8ff" stroke="#63b8ff" points="283.24,-101.08 278.47,-110.54 288.1,-106.12 283.24,-101.08"/>
</a>
</g>
</g>
<!-- Node3 -->
<g id="Node000003" class="node">
<title>Node3</title>
<g id="a_Node000003"><a xlink:href="GameTypes_8cpp.html" target="_top" xlink:title=" ">
<polygon fill="white" stroke="#666666" points="87.25,-20 0,-20 0,0 87.25,0 87.25,-20"/>
<text text-anchor="middle" x="43.62" y="-6.5" font-family="Helvetica,sans-Serif" font-size="10.00">GameTypes.cpp</text>
</a>
</g>
</g>
<!-- Node2&#45;&gt;Node3 -->
<g id="edge2_Node000002_Node000003" class="edge">
<title>Node2&#45;&gt;Node3</title>
<g id="a_edge2_Node000002_Node000003"><a xlink:title=" ">
<path fill="none" stroke="#63b8ff" d="M154.32,-51.66C127.97,-41.98 92.96,-29.12 69.43,-20.48"/>
<polygon fill="#63b8ff" stroke="#63b8ff" points="153.01,-54.91 163.6,-55.07 155.42,-48.34 153.01,-54.91"/>
</a>
</g>
</g>
<!-- Node4 -->
<g id="Node000004" class="node">
<title>Node4</title>
<g id="a_Node000004"><a xlink:href="PhysicsUsingEngine_8hpp.html" target="_top" xlink:title=" ">
<polygon fill="white" stroke="#666666" points="230.38,-20 104.88,-20 104.88,0 230.38,0 230.38,-20"/>
<text text-anchor="middle" x="167.62" y="-6.5" font-family="Helvetica,sans-Serif" font-size="10.00">PhysicsUsingEngine.hpp</text>
</a>
</g>
</g>
<!-- Node2&#45;&gt;Node4 -->
<g id="edge3_Node000002_Node000004" class="edge">
<title>Node2&#45;&gt;Node4</title>
<g id="a_edge3_Node000002_Node000004"><a xlink:title=" ">
<path fill="none" stroke="#63b8ff" d="M182.11,-45C178.5,-36.54 174.48,-27.08 171.59,-20.3"/>
<polygon fill="#63b8ff" stroke="#63b8ff" points="178.89,-46.37 186.03,-54.2 185.33,-43.63 178.89,-46.37"/>
</a>
</g>
</g>
<!-- Node2&#45;&gt;Node5 -->
<g id="edge4_Node000002_Node000005" class="edge">
<title>Node2&#45;&gt;Node5</title>
<g id="a_edge4_Node000002_Node000005"><a xlink:title=" ">
<path fill="none" stroke="#63b8ff" d="M215.66,-49.81C231.18,-40.39 250.65,-28.58 264,-20.48"/>
<polygon fill="#63b8ff" stroke="#63b8ff" points="214.16,-46.63 207.42,-54.81 217.79,-52.61 214.16,-46.63"/>
</a>
</g>
</g>
</g>
</svg>
