<?xml version="1.0" encoding="UTF-8" standalone="no"?>
<!DOCTYPE svg PUBLIC "-//W3C//DTD SVG 1.1//EN"
 "http://www.w3.org/Graphics/SVG/1.1/DTD/svg11.dtd">
<!-- Generated by graphviz version 12.1.0 (20240811.2233)
 -->
<!-- Title: DLLoader.hpp Pages: 1 -->
<svg width="377pt" height="140pt"
 viewBox="0.00 0.00 376.62 140.00" xmlns="http://www.w3.org/2000/svg" xmlns:xlink="http://www.w3.org/1999/xlink">
<g id="graph0" class="graph" transform="scale(1 1) rotate(0) translate(4 136)">
<title>DLLoader.hpp</title>
<!-- Node1 -->
<g id="Node000001" class="node">
<title>Node1</title>
<g id="a_Node000001"><a xlink:title=" ">
<polygon fill="#999999" stroke="#666666" points="193.38,-132 116.62,-132 116.62,-112 193.38,-112 193.38,-132"/>
<text text-anchor="middle" x="155" y="-118.5" font-family="Helvetica,sans-Serif" font-size="10.00">DLLoader.hpp</text>
</a>
</g>
</g>
<!-- Node2 -->
<g id="Node000002" class="node">
<title>Node2</title>
<g id="a_Node000002"><a xlink:title=" ">
<polygon fill="#e0e0e0" stroke="#999999" points="40,-76 0,-76 0,-56 40,-56 40,-76"/>
<text text-anchor="middle" x="20" y="-62.5" font-family="Helvetica,sans-Serif" font-size="10.00">string</text>
</a>
</g>
</g>
<!-- Node1&#45;&gt;Node2 -->
<g id="edge1_Node000001_Node000002" class="edge">
<title>Node1&#45;&gt;Node2</title>
<g id="a_edge1_Node000001_Node000002"><a xlink:title=" ">
<path fill="none" stroke="#63b8ff" d="M131.48,-111.59C109.08,-102.63 75.22,-89.09 50.7,-79.28"/>
<polygon fill="#63b8ff" stroke="#63b8ff" points="52.16,-76.09 41.57,-75.63 49.56,-82.59 52.16,-76.09"/>
</a>
</g>
</g>
<!-- Node3 -->
<g id="Node000003" class="node">
<title>Node3</title>
<g id="a_Node000003"><a xlink:title=" ">
<polygon fill="#e0e0e0" stroke="#999999" points="111.75,-76 58.25,-76 58.25,-56 111.75,-56 111.75,-76"/>
<text text-anchor="middle" x="85" y="-62.5" font-family="Helvetica,sans-Serif" font-size="10.00">iostream</text>
</a>
</g>
</g>
<!-- Node1&#45;&gt;Node3 -->
<g id="edge2_Node000001_Node000003" class="edge">
<title>Node1&#45;&gt;Node3</title>
<g id="a_edge2_Node000001_Node000003"><a xlink:title=" ">
<path fill="none" stroke="#63b8ff" d="M142.81,-111.59C132.67,-103.77 118.01,-92.46 105.99,-83.19"/>
<polygon fill="#63b8ff" stroke="#63b8ff" points="108.31,-80.56 98.25,-77.22 104.03,-86.1 108.31,-80.56"/>
</a>
</g>
</g>
<!-- Node4 -->
<g id="Node000004" class="node">
<title>Node4</title>
<g id="a_Node000004"><a xlink:title=" ">
<polygon fill="#e0e0e0" stroke="#999999" points="180.62,-76 129.38,-76 129.38,-56 180.62,-56 180.62,-76"/>
<text text-anchor="middle" x="155" y="-62.5" font-family="Helvetica,sans-Serif" font-size="10.00">memory</text>
</a>
</g>
</g>
<!-- Node1&#45;&gt;Node4 -->
<g id="edge3_Node000001_Node000004" class="edge">
<title>Node1&#45;&gt;Node4</title>
<g id="a_edge3_Node000001_Node000004"><a xlink:title=" ">
<path fill="none" stroke="#63b8ff" d="M155,-111.59C155,-105.01 155,-95.96 155,-87.73"/>
<polygon fill="#63b8ff" stroke="#63b8ff" points="158.5,-87.81 155,-77.81 151.5,-87.81 158.5,-87.81"/>
</a>
</g>
</g>
<!-- Node5 -->
<g id="Node000005" class="node">
<title>Node5</title>
<g id="a_Node000005"><a xlink:title=" ">
<polygon fill="#e0e0e0" stroke="#999999" points="257.38,-76 198.62,-76 198.62,-56 257.38,-56 257.38,-76"/>
<text text-anchor="middle" x="228" y="-62.5" font-family="Helvetica,sans-Serif" font-size="10.00">stdexcept</text>
</a>
</g>
</g>
<!-- Node1&#45;&gt;Node5 -->
<g id="edge4_Node000001_Node000005" class="edge">
<title>Node1&#45;&gt;Node5</title>
<g id="a_edge4_Node000001_Node000005"><a xlink:title=" ">
<path fill="none" stroke="#63b8ff" d="M167.72,-111.59C178.39,-103.7 193.88,-92.24 206.48,-82.92"/>
<polygon fill="#63b8ff" stroke="#63b8ff" points="208.26,-85.96 214.21,-77.2 204.09,-80.33 208.26,-85.96"/>
</a>
</g>
</g>
<!-- Node6 -->
<g id="Node000006" class="node">
<title>Node6</title>
<g id="a_Node000006"><a xlink:href="dlfcn__compat_8hpp.html" target="_top" xlink:title=" ">
<polygon fill="white" stroke="#666666" points="368.62,-76 275.38,-76 275.38,-56 368.62,-56 368.62,-76"/>
<text text-anchor="middle" x="322" y="-62.5" font-family="Helvetica,sans-Serif" font-size="10.00">dlfcn_compat.hpp</text>
</a>
</g>
</g>
<!-- Node1&#45;&gt;Node6 -->
<g id="edge5_Node000001_Node000006" class="edge">
<title>Node1&#45;&gt;Node6</title>
<g id="a_edge5_Node000001_Node000006"><a xlink:title=" ">
<path fill="none" stroke="#63b8ff" d="M184.09,-111.59C211.22,-102.82 251.93,-89.66 282.09,-79.9"/>
<polygon fill="#63b8ff" stroke="#63b8ff" points="282.81,-83.35 291.24,-76.95 280.65,-76.69 282.81,-83.35"/>
</a>
</g>
</g>
<!-- Node7 -->
<g id="Node000007" class="node">
<title>Node7</title>
<g id="a_Node000007"><a xlink:title=" ">
<polygon fill="#e0e0e0" stroke="#999999" points="344.62,-20 299.38,-20 299.38,0 344.62,0 344.62,-20"/>
<text text-anchor="middle" x="322" y="-6.5" font-family="Helvetica,sans-Serif" font-size="10.00">dlfcn.h</text>
</a>
</g>
</g>
<!-- Node6&#45;&gt;Node7 -->
<g id="edge6_Node000006_Node000007" class="edge">
<title>Node6&#45;&gt;Node7</title>
<g id="a_edge6_Node000006_Node000007"><a xlink:title=" ">
<path fill="none" stroke="#63b8ff" d="M322,-55.59C322,-49.01 322,-39.96 322,-31.73"/>
<polygon fill="#63b8ff" stroke="#63b8ff" points="325.5,-31.81 322,-21.81 318.5,-31.81 325.5,-31.81"/>
</a>
</g>
</g>
</g>
</svg>
