<?xml version="1.0" encoding="UTF-8" standalone="no"?>
<!DOCTYPE svg PUBLIC "-//W3C//DTD SVG 1.1//EN"
 "http://www.w3.org/Graphics/SVG/1.1/DTD/svg11.dtd">
<!-- Generated by graphviz version 12.1.0 (20240811.2233)
 -->
<!-- Title: Enemy.hpp Pages: 1 -->
<svg width="1344pt" height="420pt"
 viewBox="0.00 0.00 1344.25 420.00" xmlns="http://www.w3.org/2000/svg" xmlns:xlink="http://www.w3.org/1999/xlink">
<g id="graph0" class="graph" transform="scale(1 1) rotate(0) translate(4 416)">
<title>Enemy.hpp</title>
<!-- Node1 -->
<g id="Node000001" class="node">
<title>Node1</title>
<g id="a_Node000001"><a xlink:title=" ">
<polygon fill="#999999" stroke="#666666" points="528.38,-412 463.62,-412 463.62,-392 528.38,-392 528.38,-412"/>
<text text-anchor="middle" x="496" y="-398.5" font-family="Helvetica,sans-Serif" font-size="10.00">Enemy.hpp</text>
</a>
</g>
</g>
<!-- Node2 -->
<g id="Node000002" class="node">
<title>Node2</title>
<g id="a_Node000002"><a xlink:title=" ">
<polygon fill="#e0e0e0" stroke="#999999" points="681.62,-132 630.38,-132 630.38,-112 681.62,-112 681.62,-132"/>
<text text-anchor="middle" x="656" y="-118.5" font-family="Helvetica,sans-Serif" font-size="10.00">memory</text>
</a>
</g>
</g>
<!-- Node1&#45;&gt;Node2 -->
<g id="edge1_Node000001_Node000002" class="edge">
<title>Node1&#45;&gt;Node2</title>
<g id="a_edge1_Node000001_Node000002"><a xlink:title=" ">
<path fill="none" stroke="#63b8ff" d="M528.75,-400.1C563.05,-397.39 616.24,-387.87 648,-356 669.25,-334.68 667,-321.1 667,-291 667,-291 667,-291 667,-233 667,-201.71 662.54,-165.67 659.3,-143.61"/>
<polygon fill="#63b8ff" stroke="#63b8ff" points="662.78,-143.23 657.81,-133.88 655.86,-144.3 662.78,-143.23"/>
</a>
</g>
</g>
<!-- Node3 -->
<g id="Node000003" class="node">
<title>Node3</title>
<g id="a_Node000003"><a xlink:href="EnemyInfo_8hpp.html" target="_top" xlink:title=" ">
<polygon fill="white" stroke="#666666" points="187.25,-356 46.75,-356 46.75,-336 187.25,-336 187.25,-356"/>
<text text-anchor="middle" x="117" y="-342.5" font-family="Helvetica,sans-Serif" font-size="10.00">Components/EnemyInfo.hpp</text>
</a>
</g>
</g>
<!-- Node1&#45;&gt;Node3 -->
<g id="edge2_Node000001_Node000003" class="edge">
<title>Node1&#45;&gt;Node3</title>
<g id="a_edge2_Node000001_Node000003"><a xlink:title=" ">
<path fill="none" stroke="#63b8ff" d="M463.36,-396.35C404.11,-387.91 277.36,-369.85 194.74,-358.08"/>
<polygon fill="#63b8ff" stroke="#63b8ff" points="195.27,-354.62 184.88,-356.67 194.29,-361.55 195.27,-354.62"/>
</a>
</g>
</g>
<!-- Node4 -->
<g id="Node000004" class="node">
<title>Node4</title>
<g id="a_Node000004"><a xlink:href="Hitbox_8hpp.html" target="_top" xlink:title=" ">
<polygon fill="white" stroke="#666666" points="482.88,-356 361.12,-356 361.12,-336 482.88,-336 482.88,-356"/>
<text text-anchor="middle" x="422" y="-342.5" font-family="Helvetica,sans-Serif" font-size="10.00">Components/Hitbox.hpp</text>
</a>
</g>
</g>
<!-- Node1&#45;&gt;Node4 -->
<g id="edge3_Node000001_Node000004" class="edge">
<title>Node1&#45;&gt;Node4</title>
<g id="a_edge3_Node000001_Node000004"><a xlink:title=" ">
<path fill="none" stroke="#63b8ff" d="M483.11,-391.59C472.29,-383.7 456.59,-372.24 443.81,-362.92"/>
<polygon fill="#63b8ff" stroke="#63b8ff" points="446.11,-360.26 435.96,-357.19 441.98,-365.91 446.11,-360.26"/>
</a>
</g>
</g>
<!-- Node10 -->
<g id="Node000010" class="node">
<title>Node10</title>
<g id="a_Node000010"><a xlink:href="RigidBody_8hpp.html" target="_top" xlink:title=" ">
<polygon fill="white" stroke="#666666" points="638.75,-356 501.25,-356 501.25,-336 638.75,-336 638.75,-356"/>
<text text-anchor="middle" x="570" y="-342.5" font-family="Helvetica,sans-Serif" font-size="10.00">Components/RigidBody.hpp</text>
</a>
</g>
</g>
<!-- Node1&#45;&gt;Node10 -->
<g id="edge9_Node000001_Node000010" class="edge">
<title>Node1&#45;&gt;Node10</title>
<g id="a_edge9_Node000001_Node000010"><a xlink:title=" ">
<path fill="none" stroke="#63b8ff" d="M508.89,-391.59C519.71,-383.7 535.41,-372.24 548.19,-362.92"/>
<polygon fill="#63b8ff" stroke="#63b8ff" points="550.02,-365.91 556.04,-357.19 545.89,-360.26 550.02,-365.91"/>
</a>
</g>
</g>
<!-- Node11 -->
<g id="Node000011" class="node">
<title>Node11</title>
<g id="a_Node000011"><a xlink:href="Transform_8hpp.html" target="_top" xlink:title=" ">
<polygon fill="white" stroke="#666666" points="342.75,-356 205.25,-356 205.25,-336 342.75,-336 342.75,-356"/>
<text text-anchor="middle" x="274" y="-342.5" font-family="Helvetica,sans-Serif" font-size="10.00">Components/Transform.hpp</text>
</a>
</g>
</g>
<!-- Node1&#45;&gt;Node11 -->
<g id="edge11_Node000001_Node000011" class="edge">
<title>Node1&#45;&gt;Node11</title>
<g id="a_edge11_Node000001_Node000011"><a xlink:title=" ">
<path fill="none" stroke="#63b8ff" d="M463.24,-393.03C426.48,-384.09 366.43,-369.48 323.85,-359.12"/>
<polygon fill="#63b8ff" stroke="#63b8ff" points="324.89,-355.78 314.35,-356.81 323.24,-362.58 324.89,-355.78"/>
</a>
</g>
</g>
<!-- Node12 -->
<g id="Node000012" class="node">
<title>Node12</title>
<g id="a_Node000012"><a xlink:href="Event_8hpp.html" target="_top" xlink:title=" ">
<polygon fill="white" stroke="#666666" points="141.12,-132 80.88,-132 80.88,-112 141.12,-112 141.12,-132"/>
<text text-anchor="middle" x="111" y="-118.5" font-family="Helvetica,sans-Serif" font-size="10.00">Event.hpp</text>
</a>
</g>
</g>
<!-- Node1&#45;&gt;Node12 -->
<g id="edge13_Node000001_Node000012" class="edge">
<title>Node1&#45;&gt;Node12</title>
<g id="a_edge13_Node000001_Node000012"><a xlink:title=" ">
<path fill="none" stroke="#63b8ff" d="M463.29,-400.27C363.26,-397.69 66.51,-387.45 38,-356 -19.58,-292.48 59.38,-183.9 95.08,-141.1"/>
<polygon fill="#63b8ff" stroke="#63b8ff" points="97.74,-143.38 101.57,-133.5 92.41,-138.84 97.74,-143.38"/>
</a>
</g>
</g>
<!-- Node15 -->
<g id="Node000015" class="node">
<title>Node15</title>
<g id="a_Node000015"><a xlink:href="System_8hpp.html" target="_top" xlink:title=" ">
<polygon fill="white" stroke="#666666" points="1336.25,-132 1267.75,-132 1267.75,-112 1336.25,-112 1336.25,-132"/>
<text text-anchor="middle" x="1302" y="-118.5" font-family="Helvetica,sans-Serif" font-size="10.00">System.hpp</text>
</a>
</g>
</g>
<!-- Node1&#45;&gt;Node15 -->
<g id="edge17_Node000001_Node000015" class="edge">
<title>Node1&#45;&gt;Node15</title>
<g id="a_edge17_Node000001_Node000015"><a xlink:title=" ">
<path fill="none" stroke="#63b8ff" d="M528.86,-399.97C678.7,-394.85 1290,-369.15 1290,-291 1290,-291 1290,-291 1290,-233 1290,-201.69 1294.87,-165.65 1298.4,-143.6"/>
<polygon fill="#63b8ff" stroke="#63b8ff" points="1301.83,-144.31 1300.03,-133.87 1294.93,-143.16 1301.83,-144.31"/>
</a>
</g>
</g>
<!-- Node19 -->
<g id="Node000019" class="node">
<title>Node19</title>
<g id="a_Node000019"><a xlink:href="NetworkManager_8hpp.html" target="_top" xlink:title=" ">
<polygon fill="white" stroke="#666666" points="853.5,-356 744.5,-356 744.5,-336 853.5,-336 853.5,-356"/>
<text text-anchor="middle" x="799" y="-342.5" font-family="Helvetica,sans-Serif" font-size="10.00">NetworkManager.hpp</text>
</a>
</g>
</g>
<!-- Node1&#45;&gt;Node19 -->
<g id="edge22_Node000001_Node000019" class="edge">
<title>Node1&#45;&gt;Node19</title>
<g id="a_edge22_Node000001_Node000019"><a xlink:title=" ">
<path fill="none" stroke="#63b8ff" d="M528.71,-395.17C577.87,-386.41 671.73,-369.68 734.86,-358.43"/>
<polygon fill="#63b8ff" stroke="#63b8ff" points="735.16,-361.93 744.39,-356.73 733.93,-355.04 735.16,-361.93"/>
</a>
</g>
</g>
<!-- Node5 -->
<g id="Node000005" class="node">
<title>Node5</title>
<g id="a_Node000005"><a xlink:href="Utils_8hpp.html" target="_top" xlink:title=" ">
<polygon fill="white" stroke="#666666" points="124.5,-300 69.5,-300 69.5,-280 124.5,-280 124.5,-300"/>
<text text-anchor="middle" x="97" y="-286.5" font-family="Helvetica,sans-Serif" font-size="10.00">Utils.hpp</text>
</a>
</g>
</g>
<!-- Node4&#45;&gt;Node5 -->
<g id="edge4_Node000004_Node000005" class="edge">
<title>Node4&#45;&gt;Node5</title>
<g id="a_edge4_Node000004_Node000005"><a xlink:title=" ">
<path fill="none" stroke="#63b8ff" d="M360.84,-336.24C303.41,-327.78 215.17,-314.21 139,-300 138.01,-299.81 137,-299.62 135.98,-299.43"/>
<polygon fill="#63b8ff" stroke="#63b8ff" points="136.95,-296.05 126.46,-297.51 135.57,-302.91 136.95,-296.05"/>
</a>
</g>
</g>
<!-- Node6 -->
<g id="Node000006" class="node">
<title>Node6</title>
<g id="a_Node000006"><a xlink:title=" ">
<polygon fill="#e0e0e0" stroke="#999999" points="94.62,-20 49.38,-20 49.38,0 94.62,0 94.62,-20"/>
<text text-anchor="middle" x="72" y="-6.5" font-family="Helvetica,sans-Serif" font-size="10.00">cstdint</text>
</a>
</g>
</g>
<!-- Node5&#45;&gt;Node6 -->
<g id="edge5_Node000005_Node000006" class="edge">
<title>Node5&#45;&gt;Node6</title>
<g id="a_edge5_Node000005_Node000006"><a xlink:title=" ">
<path fill="none" stroke="#63b8ff" d="M79.66,-279.71C51.76,-263.36 0,-226.61 0,-179 0,-179 0,-179 0,-121 0,-82.85 30.69,-47.63 51.99,-27.78"/>
<polygon fill="#63b8ff" stroke="#63b8ff" points="54.17,-30.52 59.3,-21.25 49.51,-25.3 54.17,-30.52"/>
</a>
</g>
</g>
<!-- Node7 -->
<g id="Node000007" class="node">
<title>Node7</title>
<g id="a_Node000007"><a xlink:title=" ">
<polygon fill="#e0e0e0" stroke="#999999" points="612,-132 572,-132 572,-112 612,-112 612,-132"/>
<text text-anchor="middle" x="592" y="-118.5" font-family="Helvetica,sans-Serif" font-size="10.00">string</text>
</a>
</g>
</g>
<!-- Node5&#45;&gt;Node7 -->
<g id="edge6_Node000005_Node000007" class="edge">
<title>Node5&#45;&gt;Node7</title>
<g id="a_edge6_Node000005_Node000007"><a xlink:title=" ">
<path fill="none" stroke="#63b8ff" d="M124.82,-286.74C216.22,-278.76 505.2,-249.1 572,-188 584.4,-176.66 589.19,-157.84 591.01,-143.36"/>
<polygon fill="#63b8ff" stroke="#63b8ff" points="594.48,-143.82 591.82,-133.56 587.5,-143.24 594.48,-143.82"/>
</a>
</g>
</g>
<!-- Node8 -->
<g id="Node000008" class="node">
<title>Node8</title>
<g id="a_Node000008"><a xlink:title=" ">
<polygon fill="#e0e0e0" stroke="#999999" points="117.62,-244 66.38,-244 66.38,-224 117.62,-224 117.62,-244"/>
<text text-anchor="middle" x="92" y="-230.5" font-family="Helvetica,sans-Serif" font-size="10.00">ostream</text>
</a>
</g>
</g>
<!-- Node5&#45;&gt;Node8 -->
<g id="edge7_Node000005_Node000008" class="edge">
<title>Node5&#45;&gt;Node8</title>
<g id="a_edge7_Node000005_Node000008"><a xlink:title=" ">
<path fill="none" stroke="#63b8ff" d="M96.13,-279.59C95.52,-273.01 94.68,-263.96 93.92,-255.73"/>
<polygon fill="#63b8ff" stroke="#63b8ff" points="97.41,-255.44 93,-245.81 90.44,-256.09 97.41,-255.44"/>
</a>
</g>
</g>
<!-- Node9 -->
<g id="Node000009" class="node">
<title>Node9</title>
<g id="a_Node000009"><a xlink:title=" ">
<polygon fill="#e0e0e0" stroke="#999999" points="408.88,-132 371.12,-132 371.12,-112 408.88,-112 408.88,-132"/>
<text text-anchor="middle" x="390" y="-118.5" font-family="Helvetica,sans-Serif" font-size="10.00">array</text>
</a>
</g>
</g>
<!-- Node5&#45;&gt;Node9 -->
<g id="edge8_Node000005_Node000009" class="edge">
<title>Node5&#45;&gt;Node9</title>
<g id="a_edge8_Node000005_Node000009"><a xlink:title=" ">
<path fill="none" stroke="#63b8ff" d="M124.86,-282.77C173.12,-270.9 273.64,-241.37 342,-188 358.04,-175.48 371.31,-156.28 379.8,-141.99"/>
<polygon fill="#63b8ff" stroke="#63b8ff" points="382.71,-143.96 384.59,-133.53 376.62,-140.51 382.71,-143.96"/>
</a>
</g>
</g>
<!-- Node10&#45;&gt;Node5 -->
<g id="edge10_Node000010_Node000005" class="edge">
<title>Node10&#45;&gt;Node5</title>
<g id="a_edge10_Node000010_Node000005"><a xlink:title=" ">
<path fill="none" stroke="#63b8ff" d="M501.1,-337C498.03,-336.66 494.98,-336.32 492,-336 335.22,-318.96 294.78,-324.56 139,-300 138,-299.84 136.99,-299.68 135.97,-299.5"/>
<polygon fill="#63b8ff" stroke="#63b8ff" points="136.9,-296.12 126.42,-297.71 135.6,-303 136.9,-296.12"/>
</a>
</g>
</g>
<!-- Node11&#45;&gt;Node5 -->
<g id="edge12_Node000011_Node000005" class="edge">
<title>Node11&#45;&gt;Node5</title>
<g id="a_edge12_Node000011_Node000005"><a xlink:title=" ">
<path fill="none" stroke="#63b8ff" d="M243.17,-335.59C213.31,-326.48 167.94,-312.64 135.68,-302.8"/>
<polygon fill="#63b8ff" stroke="#63b8ff" points="136.89,-299.51 126.3,-299.94 134.85,-306.21 136.89,-299.51"/>
</a>
</g>
</g>
<!-- Node12&#45;&gt;Node6 -->
<g id="edge14_Node000012_Node000006" class="edge">
<title>Node12&#45;&gt;Node6</title>
<g id="a_edge14_Node000012_Node000006"><a xlink:title=" ">
<path fill="none" stroke="#63b8ff" d="M107.67,-111.62C101.37,-93.84 87.56,-54.88 79.09,-31"/>
<polygon fill="#63b8ff" stroke="#63b8ff" points="82.46,-30.04 75.82,-21.78 75.87,-32.38 82.46,-30.04"/>
</a>
</g>
</g>
<!-- Node13 -->
<g id="Node000013" class="node">
<title>Node13</title>
<g id="a_Node000013"><a xlink:title=" ">
<polygon fill="#e0e0e0" stroke="#999999" points="853.38,-76 770.62,-76 770.62,-56 853.38,-56 853.38,-76"/>
<text text-anchor="middle" x="812" y="-62.5" font-family="Helvetica,sans-Serif" font-size="10.00">unordered_map</text>
</a>
</g>
</g>
<!-- Node12&#45;&gt;Node13 -->
<g id="edge15_Node000012_Node000013" class="edge">
<title>Node12&#45;&gt;Node13</title>
<g id="a_edge15_Node000012_Node000013"><a xlink:title=" ">
<path fill="none" stroke="#63b8ff" d="M141.32,-117.08C155.48,-115.35 172.58,-113.39 188,-112 439.05,-89.36 503.42,-103.35 754,-76 755.65,-75.82 757.32,-75.63 759,-75.42"/>
<polygon fill="#63b8ff" stroke="#63b8ff" points="759.28,-78.92 768.74,-74.14 758.37,-71.98 759.28,-78.92"/>
</a>
</g>
</g>
<!-- Node14 -->
<g id="Node000014" class="node">
<title>Node14</title>
<g id="a_Node000014"><a xlink:title=" ">
<polygon fill="#e0e0e0" stroke="#999999" points="150.88,-76 119.12,-76 119.12,-56 150.88,-56 150.88,-76"/>
<text text-anchor="middle" x="135" y="-62.5" font-family="Helvetica,sans-Serif" font-size="10.00">any</text>
</a>
</g>
</g>
<!-- Node12&#45;&gt;Node14 -->
<g id="edge16_Node000012_Node000014" class="edge">
<title>Node12&#45;&gt;Node14</title>
<g id="a_edge16_Node000012_Node000014"><a xlink:title=" ">
<path fill="none" stroke="#63b8ff" d="M115.18,-111.59C118.24,-104.7 122.51,-95.1 126.3,-86.57"/>
<polygon fill="#63b8ff" stroke="#63b8ff" points="129.39,-88.24 130.25,-77.68 122.99,-85.4 129.39,-88.24"/>
</a>
</g>
</g>
<!-- Node16 -->
<g id="Node000016" class="node">
<title>Node16</title>
<g id="a_Node000016"><a xlink:title=" ">
<polygon fill="#e0e0e0" stroke="#999999" points="1316.75,-76 1287.25,-76 1287.25,-56 1316.75,-56 1316.75,-76"/>
<text text-anchor="middle" x="1302" y="-62.5" font-family="Helvetica,sans-Serif" font-size="10.00">set</text>
</a>
</g>
</g>
<!-- Node15&#45;&gt;Node16 -->
<g id="edge18_Node000015_Node000016" class="edge">
<title>Node15&#45;&gt;Node16</title>
<g id="a_edge18_Node000015_Node000016"><a xlink:title=" ">
<path fill="none" stroke="#63b8ff" d="M1302,-111.59C1302,-105.01 1302,-95.96 1302,-87.73"/>
<polygon fill="#63b8ff" stroke="#63b8ff" points="1305.5,-87.81 1302,-77.81 1298.5,-87.81 1305.5,-87.81"/>
</a>
</g>
</g>
<!-- Node17 -->
<g id="Node000017" class="node">
<title>Node17</title>
<g id="a_Node000017"><a xlink:href="Entity_8hpp.html" target="_top" xlink:title=" ">
<polygon fill="white" stroke="#666666" points="1193.75,-76 1134.25,-76 1134.25,-56 1193.75,-56 1193.75,-76"/>
<text text-anchor="middle" x="1164" y="-62.5" font-family="Helvetica,sans-Serif" font-size="10.00">Entity.hpp</text>
</a>
</g>
</g>
<!-- Node15&#45;&gt;Node17 -->
<g id="edge19_Node000015_Node000017" class="edge">
<title>Node15&#45;&gt;Node17</title>
<g id="a_edge19_Node000015_Node000017"><a xlink:title=" ">
<path fill="none" stroke="#63b8ff" d="M1277.96,-111.59C1256.03,-103.01 1223.37,-90.23 1198.63,-80.55"/>
<polygon fill="#63b8ff" stroke="#63b8ff" points="1200.22,-77.42 1189.63,-77.03 1197.67,-83.93 1200.22,-77.42"/>
</a>
</g>
</g>
<!-- Node17&#45;&gt;Node6 -->
<g id="edge20_Node000017_Node000006" class="edge">
<title>Node17&#45;&gt;Node6</title>
<g id="a_edge20_Node000017_Node000006"><a xlink:title=" ">
<path fill="none" stroke="#63b8ff" d="M1134.03,-58.08C1129.68,-57.26 1125.24,-56.53 1121,-56 917.84,-30.55 263.45,-15.11 106.21,-11.71"/>
<polygon fill="#63b8ff" stroke="#63b8ff" points="106.53,-8.22 96.46,-11.51 106.38,-15.22 106.53,-8.22"/>
</a>
</g>
</g>
<!-- Node18 -->
<g id="Node000018" class="node">
<title>Node18</title>
<g id="a_Node000018"><a xlink:title=" ">
<polygon fill="#e0e0e0" stroke="#999999" points="1184,-20 1144,-20 1144,0 1184,0 1184,-20"/>
<text text-anchor="middle" x="1164" y="-6.5" font-family="Helvetica,sans-Serif" font-size="10.00">bitset</text>
</a>
</g>
</g>
<!-- Node17&#45;&gt;Node18 -->
<g id="edge21_Node000017_Node000018" class="edge">
<title>Node17&#45;&gt;Node18</title>
<g id="a_edge21_Node000017_Node000018"><a xlink:title=" ">
<path fill="none" stroke="#63b8ff" d="M1164,-55.59C1164,-49.01 1164,-39.96 1164,-31.73"/>
<polygon fill="#63b8ff" stroke="#63b8ff" points="1167.5,-31.81 1164,-21.81 1160.5,-31.81 1167.5,-31.81"/>
</a>
</g>
</g>
<!-- Node19&#45;&gt;Node6 -->
<g id="edge24_Node000019_Node000006" class="edge">
<title>Node19&#45;&gt;Node6</title>
<g id="a_edge24_Node000019_Node000006"><a xlink:title=" ">
<path fill="none" stroke="#63b8ff" d="M744.26,-338.38C621.9,-323.05 329.85,-283.44 239,-244 157.02,-208.41 114.06,-210.85 72,-132 55,-100.13 60.84,-56.48 66.5,-31.26"/>
<polygon fill="#63b8ff" stroke="#63b8ff" points="69.87,-32.21 68.88,-21.67 63.08,-30.53 69.87,-32.21"/>
</a>
</g>
</g>
<!-- Node19&#45;&gt;Node9 -->
<g id="edge26_Node000019_Node000009" class="edge">
<title>Node19&#45;&gt;Node9</title>
<g id="a_edge26_Node000019_Node000009"><a xlink:title=" ">
<path fill="none" stroke="#63b8ff" d="M744.06,-341.7C671.12,-336.45 547.05,-324.2 509,-300 448.66,-261.63 411.64,-180.44 397.09,-142.86"/>
<polygon fill="#63b8ff" stroke="#63b8ff" points="400.46,-141.86 393.69,-133.71 393.9,-144.31 400.46,-141.86"/>
</a>
</g>
</g>
<!-- Node19&#45;&gt;Node13 -->
<g id="edge28_Node000019_Node000013" class="edge">
<title>Node19&#45;&gt;Node13</title>
<g id="a_edge28_Node000019_Node000013"><a xlink:title=" ">
<path fill="none" stroke="#63b8ff" d="M853.82,-345.42C934.95,-344.74 1080.97,-338.08 1114,-300 1157.76,-249.55 1208.87,-313.06 1020,-168 990.04,-144.99 976.84,-148.8 943,-132 925.91,-123.51 922.04,-120.6 905,-112 884.22,-101.51 860.6,-90.09 842.37,-81.38"/>
<polygon fill="#63b8ff" stroke="#63b8ff" points="843.95,-78.25 833.42,-77.11 840.94,-84.57 843.95,-78.25"/>
</a>
</g>
</g>
<!-- Node19&#45;&gt;Node17 -->
<g id="edge30_Node000019_Node000017" class="edge">
<title>Node19&#45;&gt;Node17</title>
<g id="a_edge30_Node000019_Node000017"><a xlink:title=" ">
<path fill="none" stroke="#63b8ff" d="M853.96,-342.79C972.18,-336.55 1240,-313.71 1240,-235 1240,-235 1240,-235 1240,-177 1240,-138.24 1207.66,-103.24 1185.17,-83.59"/>
<polygon fill="#63b8ff" stroke="#63b8ff" points="1187.63,-81.08 1177.71,-77.34 1183.13,-86.44 1187.63,-81.08"/>
</a>
</g>
</g>
<!-- Node20 -->
<g id="Node000020" class="node">
<title>Node20</title>
<g id="a_Node000020"><a xlink:title=" ">
<polygon fill="#e0e0e0" stroke="#999999" points="740.62,-300 695.38,-300 695.38,-280 740.62,-280 740.62,-300"/>
<text text-anchor="middle" x="718" y="-286.5" font-family="Helvetica,sans-Serif" font-size="10.00">chrono</text>
</a>
</g>
</g>
<!-- Node19&#45;&gt;Node20 -->
<g id="edge23_Node000019_Node000020" class="edge">
<title>Node19&#45;&gt;Node20</title>
<g id="a_edge23_Node000019_Node000020"><a xlink:title=" ">
<path fill="none" stroke="#63b8ff" d="M784.89,-335.59C773,-327.67 755.73,-316.16 741.72,-306.82"/>
<polygon fill="#63b8ff" stroke="#63b8ff" points="743.74,-303.95 733.48,-301.32 739.86,-309.78 743.74,-303.95"/>
</a>
</g>
</g>
<!-- Node21 -->
<g id="Node000021" class="node">
<title>Node21</title>
<g id="a_Node000021"><a xlink:title=" ">
<polygon fill="#e0e0e0" stroke="#999999" points="838.88,-300 759.12,-300 759.12,-280 838.88,-280 838.88,-300"/>
<text text-anchor="middle" x="799" y="-286.5" font-family="Helvetica,sans-Serif" font-size="10.00">boost/asio.hpp</text>
</a>
</g>
</g>
<!-- Node19&#45;&gt;Node21 -->
<g id="edge25_Node000019_Node000021" class="edge">
<title>Node19&#45;&gt;Node21</title>
<g id="a_edge25_Node000019_Node000021"><a xlink:title=" ">
<path fill="none" stroke="#63b8ff" d="M799,-335.59C799,-329.01 799,-319.96 799,-311.73"/>
<polygon fill="#63b8ff" stroke="#63b8ff" points="802.5,-311.81 799,-301.81 795.5,-311.81 802.5,-311.81"/>
</a>
</g>
</g>
<!-- Node22 -->
<g id="Node000022" class="node">
<title>Node22</title>
<g id="a_Node000022"><a xlink:title=" ">
<polygon fill="#e0e0e0" stroke="#999999" points="1104.5,-300 1061.5,-300 1061.5,-280 1104.5,-280 1104.5,-300"/>
<text text-anchor="middle" x="1083" y="-286.5" font-family="Helvetica,sans-Serif" font-size="10.00">thread</text>
</a>
</g>
</g>
<!-- Node19&#45;&gt;Node22 -->
<g id="edge27_Node000019_Node000022" class="edge">
<title>Node19&#45;&gt;Node22</title>
<g id="a_edge27_Node000019_Node000022"><a xlink:title=" ">
<path fill="none" stroke="#63b8ff" d="M853.87,-336.1C904.26,-327.68 980.91,-314.24 1047,-300 1048.17,-299.75 1049.35,-299.49 1050.55,-299.22"/>
<polygon fill="#63b8ff" stroke="#63b8ff" points="1050.96,-302.72 1059.88,-297.01 1049.34,-295.91 1050.96,-302.72"/>
</a>
</g>
</g>
<!-- Node23 -->
<g id="Node000023" class="node">
<title>Node23</title>
<g id="a_Node000023"><a xlink:title=" ">
<polygon fill="#e0e0e0" stroke="#999999" points="895.5,-132 852.5,-132 852.5,-112 895.5,-112 895.5,-132"/>
<text text-anchor="middle" x="874" y="-118.5" font-family="Helvetica,sans-Serif" font-size="10.00">vector</text>
</a>
</g>
</g>
<!-- Node19&#45;&gt;Node23 -->
<g id="edge29_Node000019_Node000023" class="edge">
<title>Node19&#45;&gt;Node23</title>
<g id="a_edge29_Node000019_Node000023"><a xlink:title=" ">
<path fill="none" stroke="#63b8ff" d="M822.6,-335.62C867.96,-316.1 966.19,-266.32 1004,-188 1007.86,-180 1009.16,-175.24 1004,-168 998.13,-159.76 943.06,-142.71 906.51,-132.12"/>
<polygon fill="#63b8ff" stroke="#63b8ff" points="907.86,-128.87 897.28,-129.48 905.93,-135.6 907.86,-128.87"/>
</a>
</g>
</g>
<!-- Node24 -->
<g id="Node000024" class="node">
<title>Node24</title>
<g id="a_Node000024"><a xlink:href="Mediator_8hpp.html" target="_top" xlink:title=" ">
<polygon fill="white" stroke="#666666" points="822.12,-244 749.88,-244 749.88,-224 822.12,-224 822.12,-244"/>
<text text-anchor="middle" x="786" y="-230.5" font-family="Helvetica,sans-Serif" font-size="10.00">Mediator.hpp</text>
</a>
</g>
</g>
<!-- Node19&#45;&gt;Node24 -->
<g id="edge31_Node000019_Node000024" class="edge">
<title>Node19&#45;&gt;Node24</title>
<g id="a_edge31_Node000019_Node000024"><a xlink:title=" ">
<path fill="none" stroke="#63b8ff" d="M814.93,-335.59C833.13,-323.55 859.04,-301.66 848,-280 841.49,-267.23 829.46,-257.23 817.73,-249.94"/>
<polygon fill="#63b8ff" stroke="#63b8ff" points="819.8,-247.09 809.38,-245.19 816.34,-253.18 819.8,-247.09"/>
</a>
</g>
</g>
<!-- Node36 -->
<g id="Node000036" class="node">
<title>Node36</title>
<g id="a_Node000036"><a xlink:href="ComponentRegistry_8hpp.html" target="_top" xlink:title=" ">
<polygon fill="white" stroke="#666666" points="638.5,-300 517.5,-300 517.5,-280 638.5,-280 638.5,-300"/>
<text text-anchor="middle" x="578" y="-286.5" font-family="Helvetica,sans-Serif" font-size="10.00">ComponentRegistry.hpp</text>
</a>
</g>
</g>
<!-- Node19&#45;&gt;Node36 -->
<g id="edge63_Node000019_Node000036" class="edge">
<title>Node19&#45;&gt;Node36</title>
<g id="a_edge63_Node000019_Node000036"><a xlink:title=" ">
<path fill="none" stroke="#63b8ff" d="M760.25,-335.53C723.44,-326.54 667.92,-312.97 627.83,-303.18"/>
<polygon fill="#63b8ff" stroke="#63b8ff" points="628.72,-299.79 618.17,-300.82 627.06,-306.59 628.72,-299.79"/>
</a>
</g>
</g>
<!-- Node24&#45;&gt;Node2 -->
<g id="edge33_Node000024_Node000002" class="edge">
<title>Node24&#45;&gt;Node2</title>
<g id="a_edge33_Node000024_Node000002"><a xlink:title=" ">
<path fill="none" stroke="#63b8ff" d="M771.81,-223.51C758.97,-214.74 739.73,-201.12 724,-188 705.69,-172.72 686.14,-153.73 672.73,-140.22"/>
<polygon fill="#63b8ff" stroke="#63b8ff" points="675.44,-137.99 665.94,-133.32 670.45,-142.9 675.44,-137.99"/>
</a>
</g>
</g>
<!-- Node24&#45;&gt;Node23 -->
<g id="edge34_Node000024_Node000023" class="edge">
<title>Node24&#45;&gt;Node23</title>
<g id="a_edge34_Node000024_Node000023"><a xlink:title=" ">
<path fill="none" stroke="#63b8ff" d="M822.62,-230.21C875.1,-225.36 967.66,-213.37 988,-188 993.56,-181.06 993,-175.35 988,-168 978.5,-154.04 936.96,-140.09 906.76,-131.51"/>
<polygon fill="#63b8ff" stroke="#63b8ff" points="907.86,-128.18 897.29,-128.89 906,-134.93 907.86,-128.18"/>
</a>
</g>
</g>
<!-- Node25 -->
<g id="Node000025" class="node">
<title>Node25</title>
<g id="a_Node000025"><a xlink:title=" ">
<polygon fill="#e0e0e0" stroke="#999999" points="1111.75,-76 1058.25,-76 1058.25,-56 1111.75,-56 1111.75,-76"/>
<text text-anchor="middle" x="1085" y="-62.5" font-family="Helvetica,sans-Serif" font-size="10.00">iostream</text>
</a>
</g>
</g>
<!-- Node24&#45;&gt;Node25 -->
<g id="edge32_Node000024_Node000025" class="edge">
<title>Node24&#45;&gt;Node25</title>
<g id="a_edge32_Node000024_Node000025"><a xlink:title=" ">
<path fill="none" stroke="#63b8ff" d="M822.53,-231.06C867.36,-227.46 944.71,-217.18 1004,-188 1038.21,-171.16 1049.05,-164.5 1069,-132 1077.29,-118.49 1081.29,-100.92 1083.22,-87.46"/>
<polygon fill="#63b8ff" stroke="#63b8ff" points="1086.69,-87.9 1084.33,-77.57 1079.73,-87.12 1086.69,-87.9"/>
</a>
</g>
</g>
<!-- Node26 -->
<g id="Node000026" class="node">
<title>Node26</title>
<g id="a_Node000026"><a xlink:href="EntityManager_8hpp.html" target="_top" xlink:title=" ">
<polygon fill="white" stroke="#666666" points="562.88,-188 465.12,-188 465.12,-168 562.88,-168 562.88,-188"/>
<text text-anchor="middle" x="514" y="-174.5" font-family="Helvetica,sans-Serif" font-size="10.00">EntityManager.hpp</text>
</a>
</g>
</g>
<!-- Node24&#45;&gt;Node26 -->
<g id="edge35_Node000024_Node000026" class="edge">
<title>Node24&#45;&gt;Node26</title>
<g id="a_edge35_Node000024_Node000026"><a xlink:title=" ">
<path fill="none" stroke="#63b8ff" d="M749.6,-225.77C704.32,-216.79 626.45,-201.32 572.7,-190.65"/>
<polygon fill="#63b8ff" stroke="#63b8ff" points="573.59,-187.26 563.1,-188.75 572.23,-194.13 573.59,-187.26"/>
</a>
</g>
</g>
<!-- Node28 -->
<g id="Node000028" class="node">
<title>Node28</title>
<g id="a_Node000028"><a xlink:href="ComponentManager_8hpp.html" target="_top" xlink:title=" ">
<polygon fill="white" stroke="#666666" points="979.25,-188 856.75,-188 856.75,-168 979.25,-168 979.25,-188"/>
<text text-anchor="middle" x="918" y="-174.5" font-family="Helvetica,sans-Serif" font-size="10.00">ComponentManager.hpp</text>
</a>
</g>
</g>
<!-- Node24&#45;&gt;Node28 -->
<g id="edge39_Node000024_Node000028" class="edge">
<title>Node24&#45;&gt;Node28</title>
<g id="a_edge39_Node000024_Node000028"><a xlink:title=" ">
<path fill="none" stroke="#63b8ff" d="M808.99,-223.59C829.78,-215.09 860.65,-202.46 884.24,-192.81"/>
<polygon fill="#63b8ff" stroke="#63b8ff" points="885.5,-196.08 893.43,-189.05 882.85,-189.6 885.5,-196.08"/>
</a>
</g>
</g>
<!-- Node32 -->
<g id="Node000032" class="node">
<title>Node32</title>
<g id="a_Node000032"><a xlink:href="SystemManager_8hpp.html" target="_top" xlink:title=" ">
<polygon fill="white" stroke="#666666" points="839,-188 733,-188 733,-168 839,-168 839,-188"/>
<text text-anchor="middle" x="786" y="-174.5" font-family="Helvetica,sans-Serif" font-size="10.00">SystemManager.hpp</text>
</a>
</g>
</g>
<!-- Node24&#45;&gt;Node32 -->
<g id="edge52_Node000024_Node000032" class="edge">
<title>Node24&#45;&gt;Node32</title>
<g id="a_edge52_Node000024_Node000032"><a xlink:title=" ">
<path fill="none" stroke="#63b8ff" d="M786,-223.59C786,-217.01 786,-207.96 786,-199.73"/>
<polygon fill="#63b8ff" stroke="#63b8ff" points="789.5,-199.81 786,-189.81 782.5,-199.81 789.5,-199.81"/>
</a>
</g>
</g>
<!-- Node33 -->
<g id="Node000033" class="node">
<title>Node33</title>
<g id="a_Node000033"><a xlink:href="EventManager_8hpp.html" target="_top" xlink:title=" ">
<polygon fill="white" stroke="#666666" points="332.88,-188 235.12,-188 235.12,-168 332.88,-168 332.88,-188"/>
<text text-anchor="middle" x="284" y="-174.5" font-family="Helvetica,sans-Serif" font-size="10.00">EventManager.hpp</text>
</a>
</g>
</g>
<!-- Node24&#45;&gt;Node33 -->
<g id="edge59_Node000024_Node000033" class="edge">
<title>Node24&#45;&gt;Node33</title>
<g id="a_edge59_Node000024_Node000033"><a xlink:title=" ">
<path fill="none" stroke="#63b8ff" d="M749.49,-229.07C663.92,-219.87 449.68,-196.82 344.37,-185.49"/>
<polygon fill="#63b8ff" stroke="#63b8ff" points="344.82,-182.02 334.5,-184.43 344.07,-188.98 344.82,-182.02"/>
</a>
</g>
</g>
<!-- Node26&#45;&gt;Node9 -->
<g id="edge37_Node000026_Node000009" class="edge">
<title>Node26&#45;&gt;Node9</title>
<g id="a_edge37_Node000026_Node000009"><a xlink:title=" ">
<path fill="none" stroke="#63b8ff" d="M492.4,-167.59C472.25,-158.82 442,-145.65 419.6,-135.89"/>
<polygon fill="#63b8ff" stroke="#63b8ff" points="421.27,-132.8 410.7,-132.02 418.47,-139.22 421.27,-132.8"/>
</a>
</g>
</g>
<!-- Node26&#45;&gt;Node17 -->
<g id="edge38_Node000026_Node000017" class="edge">
<title>Node26&#45;&gt;Node17</title>
<g id="a_edge38_Node000026_Node000017"><a xlink:title=" ">
<path fill="none" stroke="#63b8ff" d="M562.95,-174.47C689.69,-167.72 1021.96,-148.67 1069,-132 1077.02,-129.16 1116.45,-101.31 1141.92,-82.99"/>
<polygon fill="#63b8ff" stroke="#63b8ff" points="1143.93,-85.86 1150,-77.17 1139.84,-80.18 1143.93,-85.86"/>
</a>
</g>
</g>
<!-- Node27 -->
<g id="Node000027" class="node">
<title>Node27</title>
<g id="a_Node000027"><a xlink:title=" ">
<polygon fill="#e0e0e0" stroke="#999999" points="535.12,-132 492.88,-132 492.88,-112 535.12,-112 535.12,-132"/>
<text text-anchor="middle" x="514" y="-118.5" font-family="Helvetica,sans-Serif" font-size="10.00">queue</text>
</a>
</g>
</g>
<!-- Node26&#45;&gt;Node27 -->
<g id="edge36_Node000026_Node000027" class="edge">
<title>Node26&#45;&gt;Node27</title>
<g id="a_edge36_Node000026_Node000027"><a xlink:title=" ">
<path fill="none" stroke="#63b8ff" d="M514,-167.59C514,-161.01 514,-151.96 514,-143.73"/>
<polygon fill="#63b8ff" stroke="#63b8ff" points="517.5,-143.81 514,-133.81 510.5,-143.81 517.5,-143.81"/>
</a>
</g>
</g>
<!-- Node28&#45;&gt;Node2 -->
<g id="edge42_Node000028_Node000002" class="edge">
<title>Node28&#45;&gt;Node2</title>
<g id="a_edge42_Node000028_Node000002"><a xlink:title=" ">
<path fill="none" stroke="#63b8ff" d="M872.06,-167.53C821.19,-157.05 740.17,-140.35 693.14,-130.66"/>
<polygon fill="#63b8ff" stroke="#63b8ff" points="693.94,-127.25 683.44,-128.66 692.53,-134.1 693.94,-127.25"/>
</a>
</g>
</g>
<!-- Node28&#45;&gt;Node7 -->
<g id="edge41_Node000028_Node000007" class="edge">
<title>Node28&#45;&gt;Node7</title>
<g id="a_edge41_Node000028_Node000007"><a xlink:title=" ">
<path fill="none" stroke="#63b8ff" d="M856.53,-168.8C787.94,-159.46 680.12,-144.21 623.71,-132.27"/>
<polygon fill="#63b8ff" stroke="#63b8ff" points="624.49,-128.86 613.97,-130.11 622.97,-135.69 624.49,-128.86"/>
</a>
</g>
</g>
<!-- Node28&#45;&gt;Node13 -->
<g id="edge40_Node000028_Node000013" class="edge">
<title>Node28&#45;&gt;Node13</title>
<g id="a_edge40_Node000028_Node000013"><a xlink:title=" ">
<path fill="none" stroke="#63b8ff" d="M895.62,-167.55C879.6,-159.88 858.41,-147.75 844,-132 832.18,-119.08 823.75,-100.99 818.52,-87.17"/>
<polygon fill="#63b8ff" stroke="#63b8ff" points="821.85,-86.08 815.25,-77.8 815.24,-88.39 821.85,-86.08"/>
</a>
</g>
</g>
<!-- Node28&#45;&gt;Node17 -->
<g id="edge45_Node000028_Node000017" class="edge">
<title>Node28&#45;&gt;Node17</title>
<g id="a_edge45_Node000028_Node000017"><a xlink:title=" ">
<path fill="none" stroke="#63b8ff" d="M979.67,-170.79C1017.04,-164.94 1064.57,-153.65 1102,-132 1122.18,-120.33 1139.94,-100.12 1151.22,-85.33"/>
<polygon fill="#63b8ff" stroke="#63b8ff" points="1153.97,-87.48 1157.05,-77.35 1148.32,-83.35 1153.97,-87.48"/>
</a>
</g>
</g>
<!-- Node28&#45;&gt;Node23 -->
<g id="edge44_Node000028_Node000023" class="edge">
<title>Node28&#45;&gt;Node23</title>
<g id="a_edge44_Node000028_Node000023"><a xlink:title=" ">
<path fill="none" stroke="#63b8ff" d="M910.34,-167.59C904.41,-160.32 896.01,-150.02 888.79,-141.15"/>
<polygon fill="#63b8ff" stroke="#63b8ff" points="891.56,-139.01 882.53,-133.47 886.14,-143.43 891.56,-139.01"/>
</a>
</g>
</g>
<!-- Node29 -->
<g id="Node000029" class="node">
<title>Node29</title>
<g id="a_Node000029"><a xlink:title=" ">
<polygon fill="#e0e0e0" stroke="#999999" points="745.38,-76 686.62,-76 686.62,-56 745.38,-56 745.38,-76"/>
<text text-anchor="middle" x="716" y="-62.5" font-family="Helvetica,sans-Serif" font-size="10.00">stdexcept</text>
</a>
</g>
</g>
<!-- Node28&#45;&gt;Node29 -->
<g id="edge43_Node000028_Node000029" class="edge">
<title>Node28&#45;&gt;Node29</title>
<g id="a_edge43_Node000028_Node000029"><a xlink:title=" ">
<path fill="none" stroke="#63b8ff" d="M897.67,-167.62C878.87,-158.81 850.26,-145.08 826,-132 796.16,-115.92 762.75,-95.88 740.67,-82.33"/>
<polygon fill="#63b8ff" stroke="#63b8ff" points="742.72,-79.49 732.38,-77.22 739.05,-85.45 742.72,-79.49"/>
</a>
</g>
</g>
<!-- Node30 -->
<g id="Node000030" class="node">
<title>Node30</title>
<g id="a_Node000030"><a xlink:href="ComponentArray_8hpp.html" target="_top" xlink:title=" ">
<polygon fill="white" stroke="#666666" points="1059.75,-132 952.25,-132 952.25,-112 1059.75,-112 1059.75,-132"/>
<text text-anchor="middle" x="1006" y="-118.5" font-family="Helvetica,sans-Serif" font-size="10.00">ComponentArray.hpp</text>
</a>
</g>
</g>
<!-- Node28&#45;&gt;Node30 -->
<g id="edge46_Node000028_Node000030" class="edge">
<title>Node28&#45;&gt;Node30</title>
<g id="a_edge46_Node000028_Node000030"><a xlink:title=" ">
<path fill="none" stroke="#63b8ff" d="M933.33,-167.59C946.5,-159.51 965.73,-147.71 981.11,-138.27"/>
<polygon fill="#63b8ff" stroke="#63b8ff" points="982.57,-141.48 989.26,-133.27 978.91,-135.52 982.57,-141.48"/>
</a>
</g>
</g>
<!-- Node30&#45;&gt;Node13 -->
<g id="edge48_Node000030_Node000013" class="edge">
<title>Node30&#45;&gt;Node13</title>
<g id="a_edge48_Node000030_Node000013"><a xlink:title=" ">
<path fill="none" stroke="#63b8ff" d="M972.21,-111.59C940.27,-102.71 892.15,-89.31 856.98,-79.52"/>
<polygon fill="#63b8ff" stroke="#63b8ff" points="858.09,-76.2 847.51,-76.89 856.21,-82.94 858.09,-76.2"/>
</a>
</g>
</g>
<!-- Node30&#45;&gt;Node17 -->
<g id="edge51_Node000030_Node000017" class="edge">
<title>Node30&#45;&gt;Node17</title>
<g id="a_edge51_Node000030_Node000017"><a xlink:title=" ">
<path fill="none" stroke="#63b8ff" d="M1033.52,-111.59C1058.97,-102.9 1097.03,-89.89 1125.49,-80.16"/>
<polygon fill="#63b8ff" stroke="#63b8ff" points="1126.5,-83.52 1134.83,-76.97 1124.24,-76.89 1126.5,-83.52"/>
</a>
</g>
</g>
<!-- Node30&#45;&gt;Node25 -->
<g id="edge50_Node000030_Node000025" class="edge">
<title>Node30&#45;&gt;Node25</title>
<g id="a_edge50_Node000030_Node000025"><a xlink:title=" ">
<path fill="none" stroke="#63b8ff" d="M1019.76,-111.59C1031.36,-103.67 1048.2,-92.16 1061.86,-82.82"/>
<polygon fill="#63b8ff" stroke="#63b8ff" points="1063.6,-85.87 1069.88,-77.33 1059.65,-80.09 1063.6,-85.87"/>
</a>
</g>
</g>
<!-- Node30&#45;&gt;Node29 -->
<g id="edge49_Node000030_Node000029" class="edge">
<title>Node30&#45;&gt;Node29</title>
<g id="a_edge49_Node000030_Node000029"><a xlink:title=" ">
<path fill="none" stroke="#63b8ff" d="M953.61,-111.51C904.18,-102.51 828.02,-88.55 762,-76 760.35,-75.69 758.67,-75.37 756.97,-75.04"/>
<polygon fill="#63b8ff" stroke="#63b8ff" points="757.65,-71.61 747.17,-73.14 756.32,-78.48 757.65,-71.61"/>
</a>
</g>
</g>
<!-- Node31 -->
<g id="Node000031" class="node">
<title>Node31</title>
<g id="a_Node000031"><a xlink:title=" ">
<polygon fill="#e0e0e0" stroke="#999999" points="1035,-76 977,-76 977,-56 1035,-56 1035,-76"/>
<text text-anchor="middle" x="1006" y="-62.5" font-family="Helvetica,sans-Serif" font-size="10.00">exception</text>
</a>
</g>
</g>
<!-- Node30&#45;&gt;Node31 -->
<g id="edge47_Node000030_Node000031" class="edge">
<title>Node30&#45;&gt;Node31</title>
<g id="a_edge47_Node000030_Node000031"><a xlink:title=" ">
<path fill="none" stroke="#63b8ff" d="M1006,-111.59C1006,-105.01 1006,-95.96 1006,-87.73"/>
<polygon fill="#63b8ff" stroke="#63b8ff" points="1009.5,-87.81 1006,-77.81 1002.5,-87.81 1009.5,-87.81"/>
</a>
</g>
</g>
<!-- Node32&#45;&gt;Node2 -->
<g id="edge56_Node000032_Node000002" class="edge">
<title>Node32&#45;&gt;Node2</title>
<g id="a_edge56_Node000032_Node000002"><a xlink:title=" ">
<path fill="none" stroke="#63b8ff" d="M763.36,-167.59C742.88,-159.09 712.48,-146.46 689.25,-136.81"/>
<polygon fill="#63b8ff" stroke="#63b8ff" points="690.8,-133.66 680.22,-133.06 688.11,-140.13 690.8,-133.66"/>
</a>
</g>
</g>
<!-- Node32&#45;&gt;Node7 -->
<g id="edge54_Node000032_Node000007" class="edge">
<title>Node32&#45;&gt;Node7</title>
<g id="a_edge54_Node000032_Node000007"><a xlink:title=" ">
<path fill="none" stroke="#63b8ff" d="M749.85,-167.53C718.64,-159.26 672.1,-146.74 623.08,-132.54"/>
<polygon fill="#63b8ff" stroke="#63b8ff" points="624.29,-129.24 613.71,-129.81 622.33,-135.96 624.29,-129.24"/>
</a>
</g>
</g>
<!-- Node32&#45;&gt;Node13 -->
<g id="edge53_Node000032_Node000013" class="edge">
<title>Node32&#45;&gt;Node13</title>
<g id="a_edge53_Node000032_Node000013"><a xlink:title=" ">
<path fill="none" stroke="#63b8ff" d="M788.22,-167.62C792.4,-149.92 801.54,-111.24 807.2,-87.32"/>
<polygon fill="#63b8ff" stroke="#63b8ff" points="810.55,-88.36 809.44,-77.83 803.73,-86.75 810.55,-88.36"/>
</a>
</g>
</g>
<!-- Node32&#45;&gt;Node15 -->
<g id="edge58_Node000032_Node000015" class="edge">
<title>Node32&#45;&gt;Node15</title>
<g id="a_edge58_Node000032_Node000015"><a xlink:title=" ">
<path fill="none" stroke="#63b8ff" d="M839.41,-169.09C842.32,-168.71 845.19,-168.34 848,-168 996.94,-149.82 1174.05,-133.9 1256.08,-126.86"/>
<polygon fill="#63b8ff" stroke="#63b8ff" points="1256.31,-130.35 1265.98,-126.01 1255.71,-123.38 1256.31,-130.35"/>
</a>
</g>
</g>
<!-- Node32&#45;&gt;Node23 -->
<g id="edge55_Node000032_Node000023" class="edge">
<title>Node32&#45;&gt;Node23</title>
<g id="a_edge55_Node000032_Node000023"><a xlink:title=" ">
<path fill="none" stroke="#63b8ff" d="M801.33,-167.59C814.5,-159.51 833.73,-147.71 849.11,-138.27"/>
<polygon fill="#63b8ff" stroke="#63b8ff" points="850.57,-141.48 857.26,-133.27 846.91,-135.52 850.57,-141.48"/>
</a>
</g>
</g>
<!-- Node32&#45;&gt;Node29 -->
<g id="edge57_Node000032_Node000029" class="edge">
<title>Node32&#45;&gt;Node29</title>
<g id="a_edge57_Node000032_Node000029"><a xlink:title=" ">
<path fill="none" stroke="#63b8ff" d="M771.09,-167.7C759.35,-159.64 743.44,-146.93 734,-132 725.38,-118.36 720.82,-100.57 718.45,-87.05"/>
<polygon fill="#63b8ff" stroke="#63b8ff" points="721.98,-86.96 717.06,-77.57 715.05,-87.97 721.98,-86.96"/>
</a>
</g>
</g>
<!-- Node33&#45;&gt;Node12 -->
<g id="edge60_Node000033_Node000012" class="edge">
<title>Node33&#45;&gt;Node12</title>
<g id="a_edge60_Node000033_Node000012"><a xlink:title=" ">
<path fill="none" stroke="#63b8ff" d="M253.87,-167.59C225.76,-158.82 183.59,-145.66 152.34,-135.9"/>
<polygon fill="#63b8ff" stroke="#63b8ff" points="153.4,-132.57 142.81,-132.93 151.32,-139.25 153.4,-132.57"/>
</a>
</g>
</g>
<!-- Node34 -->
<g id="Node000034" class="node">
<title>Node34</title>
<g id="a_Node000034"><a xlink:title=" ">
<polygon fill="#e0e0e0" stroke="#999999" points="255,-132 197,-132 197,-112 255,-112 255,-132"/>
<text text-anchor="middle" x="226" y="-118.5" font-family="Helvetica,sans-Serif" font-size="10.00">functional</text>
</a>
</g>
</g>
<!-- Node33&#45;&gt;Node34 -->
<g id="edge61_Node000033_Node000034" class="edge">
<title>Node33&#45;&gt;Node34</title>
<g id="a_edge61_Node000033_Node000034"><a xlink:title=" ">
<path fill="none" stroke="#63b8ff" d="M273.9,-167.59C265.75,-160.01 254.07,-149.13 244.28,-140.02"/>
<polygon fill="#63b8ff" stroke="#63b8ff" points="246.8,-137.58 237.09,-133.33 242.03,-142.71 246.8,-137.58"/>
</a>
</g>
</g>
<!-- Node35 -->
<g id="Node000035" class="node">
<title>Node35</title>
<g id="a_Node000035"><a xlink:title=" ">
<polygon fill="#e0e0e0" stroke="#999999" points="301.4,-132 272.6,-132 272.6,-112 301.4,-112 301.4,-132"/>
<text text-anchor="middle" x="287" y="-118.5" font-family="Helvetica,sans-Serif" font-size="10.00">list</text>
</a>
</g>
</g>
<!-- Node33&#45;&gt;Node35 -->
<g id="edge62_Node000033_Node000035" class="edge">
<title>Node33&#45;&gt;Node35</title>
<g id="a_edge62_Node000033_Node000035"><a xlink:title=" ">
<path fill="none" stroke="#63b8ff" d="M284.52,-167.59C284.89,-161.01 285.39,-151.96 285.85,-143.73"/>
<polygon fill="#63b8ff" stroke="#63b8ff" points="289.34,-143.99 286.4,-133.81 282.35,-143.6 289.34,-143.99"/>
</a>
</g>
</g>
<!-- Node36&#45;&gt;Node7 -->
<g id="edge66_Node000036_Node000007" class="edge">
<title>Node36&#45;&gt;Node7</title>
<g id="a_edge66_Node000036_Node000007"><a xlink:title=" ">
<path fill="none" stroke="#63b8ff" d="M582.45,-279.68C591.55,-259.5 610.97,-210.2 605,-168 603.83,-159.76 601.52,-150.91 599.17,-143.26"/>
<polygon fill="#63b8ff" stroke="#63b8ff" points="602.54,-142.31 596.06,-133.92 595.89,-144.52 602.54,-142.31"/>
</a>
</g>
</g>
<!-- Node36&#45;&gt;Node13 -->
<g id="edge65_Node000036_Node000013" class="edge">
<title>Node36&#45;&gt;Node13</title>
<g id="a_edge65_Node000036_Node000013"><a xlink:title=" ">
<path fill="none" stroke="#63b8ff" d="M558.18,-279.67C529.4,-264.88 477.18,-233.04 456,-188 442.79,-159.91 483.95,-112.04 484,-112 533.27,-76.84 694.09,-84.64 754,-76 755.64,-75.76 757.3,-75.52 758.98,-75.27"/>
<polygon fill="#63b8ff" stroke="#63b8ff" points="759.33,-78.76 768.7,-73.82 758.29,-71.84 759.33,-78.76"/>
</a>
</g>
</g>
<!-- Node36&#45;&gt;Node17 -->
<g id="edge68_Node000036_Node000017" class="edge">
<title>Node36&#45;&gt;Node17</title>
<g id="a_edge68_Node000036_Node000017"><a xlink:title=" ">
<path fill="none" stroke="#63b8ff" d="M638.96,-282.78C728.69,-272.03 900.25,-245.39 1035,-188 1079.74,-168.95 1095.37,-167.12 1129,-132 1141.47,-118.98 1150.8,-100.65 1156.68,-86.77"/>
<polygon fill="#63b8ff" stroke="#63b8ff" points="1159.81,-88.37 1160.24,-77.79 1153.3,-85.79 1159.81,-88.37"/>
</a>
</g>
</g>
<!-- Node36&#45;&gt;Node24 -->
<g id="edge69_Node000036_Node000024" class="edge">
<title>Node36&#45;&gt;Node24</title>
<g id="a_edge69_Node000036_Node000024"><a xlink:title=" ">
<path fill="none" stroke="#63b8ff" d="M614.23,-279.59C648.77,-270.63 700.96,-257.08 738.75,-247.27"/>
<polygon fill="#63b8ff" stroke="#63b8ff" points="739.22,-250.76 748.02,-244.86 737.46,-243.99 739.22,-250.76"/>
</a>
</g>
</g>
<!-- Node36&#45;&gt;Node29 -->
<g id="edge67_Node000036_Node000029" class="edge">
<title>Node36&#45;&gt;Node29</title>
<g id="a_edge67_Node000036_Node000029"><a xlink:title=" ">
<path fill="none" stroke="#63b8ff" d="M517.17,-289.05C455.6,-286.99 358.92,-277.92 283,-244 217.01,-214.52 139.11,-165.24 188,-112 220.75,-76.34 556.7,-68.9 675.03,-67.38"/>
<polygon fill="#63b8ff" stroke="#63b8ff" points="674.96,-70.88 684.92,-67.26 674.87,-63.88 674.96,-70.88"/>
</a>
</g>
</g>
<!-- Node36&#45;&gt;Node34 -->
<g id="edge64_Node000036_Node000034" class="edge">
<title>Node36&#45;&gt;Node34</title>
<g id="a_edge64_Node000036_Node000034"><a xlink:title=" ">
<path fill="none" stroke="#63b8ff" d="M517.37,-280.44C426.29,-266.2 261.05,-234.53 226,-188 216.55,-175.45 217.37,-157.33 220.1,-143.4"/>
<polygon fill="#63b8ff" stroke="#63b8ff" points="223.43,-144.51 222.41,-133.97 216.63,-142.85 223.43,-144.51"/>
</a>
</g>
</g>
</g>
</svg>
