<?xml version="1.0" encoding="UTF-8" standalone="no"?>
<!DOCTYPE svg PUBLIC "-//W3C//DTD SVG 1.1//EN"
 "http://www.w3.org/Graphics/SVG/1.1/DTD/svg11.dtd">
<!-- Generated by graphviz version 12.1.0 (20240811.2233)
 -->
<!-- Title: EnemyInfo.hpp Pages: 1 -->
<svg width="699pt" height="308pt"
 viewBox="0.00 0.00 698.88 308.00" xmlns="http://www.w3.org/2000/svg" xmlns:xlink="http://www.w3.org/1999/xlink">
<g id="graph0" class="graph" transform="scale(1 1) rotate(0) translate(4 304)">
<title>EnemyInfo.hpp</title>
<!-- Node1 -->
<g id="Node000001" class="node">
<title>Node1</title>
<g id="a_Node000001"><a xlink:title=" ">
<polygon fill="#999999" stroke="#666666" points="174.38,-300 92.38,-300 92.38,-280 174.38,-280 174.38,-300"/>
<text text-anchor="middle" x="133.38" y="-286.5" font-family="Helvetica,sans-Serif" font-size="10.00">EnemyInfo.hpp</text>
</a>
</g>
</g>
<!-- Node2 -->
<g id="Node000002" class="node">
<title>Node2</title>
<g id="a_Node000002"><a xlink:href="Enemy_8hpp.html" target="_top" xlink:title=" ">
<polygon fill="white" stroke="#666666" points="64.75,-188 0,-188 0,-168 64.75,-168 64.75,-188"/>
<text text-anchor="middle" x="32.38" y="-174.5" font-family="Helvetica,sans-Serif" font-size="10.00">Enemy.hpp</text>
</a>
</g>
</g>
<!-- Node1&#45;&gt;Node2 -->
<g id="edge1_Node000001_Node000002" class="edge">
<title>Node1&#45;&gt;Node2</title>
<g id="a_edge1_Node000001_Node000002"><a xlink:title=" ">
<path fill="none" stroke="#63b8ff" d="M110.88,-272.81C100.42,-264.75 88.17,-254.5 78.38,-244 61.59,-226 45.91,-201.61 37.91,-188.41"/>
<polygon fill="#63b8ff" stroke="#63b8ff" points="108.54,-275.44 118.64,-278.64 112.74,-269.84 108.54,-275.44"/>
</a>
</g>
</g>
<!-- Node6 -->
<g id="Node000006" class="node">
<title>Node6</title>
<g id="a_Node000006"><a xlink:href="Server_2src_2main_8cpp.html" target="_top" xlink:title=" ">
<polygon fill="white" stroke="#666666" points="268.25,-132 212.5,-132 212.5,-112 268.25,-112 268.25,-132"/>
<text text-anchor="middle" x="240.38" y="-118.5" font-family="Helvetica,sans-Serif" font-size="10.00">main.cpp</text>
</a>
</g>
</g>
<!-- Node1&#45;&gt;Node6 -->
<g id="edge30_Node000001_Node000006" class="edge">
<title>Node1&#45;&gt;Node6</title>
<g id="a_edge30_Node000001_Node000006"><a xlink:title=" ">
<path fill="none" stroke="#63b8ff" d="M121.89,-269.89C108.17,-244.32 89.62,-198.63 111.38,-168 123.26,-151.27 177.99,-136.6 212.23,-128.85"/>
<polygon fill="#63b8ff" stroke="#63b8ff" points="118.79,-271.53 126.77,-278.5 124.88,-268.07 118.79,-271.53"/>
</a>
</g>
</g>
<!-- Node7 -->
<g id="Node000007" class="node">
<title>Node7</title>
<g id="a_Node000007"><a xlink:href="NetworkManager_8cpp.html" target="_top" xlink:title=" ">
<polygon fill="white" stroke="#666666" points="229.88,-188 120.88,-188 120.88,-168 229.88,-168 229.88,-188"/>
<text text-anchor="middle" x="175.38" y="-174.5" font-family="Helvetica,sans-Serif" font-size="10.00">NetworkManager.cpp</text>
</a>
</g>
</g>
<!-- Node1&#45;&gt;Node7 -->
<g id="edge7_Node000001_Node000007" class="edge">
<title>Node1&#45;&gt;Node7</title>
<g id="a_edge7_Node000001_Node000007"><a xlink:title=" ">
<path fill="none" stroke="#63b8ff" d="M141.02,-268.97C150.15,-245.07 165.02,-206.11 171.8,-188.35"/>
<polygon fill="#63b8ff" stroke="#63b8ff" points="137.79,-267.62 137.5,-278.21 144.33,-270.11 137.79,-267.62"/>
</a>
</g>
</g>
<!-- Node8 -->
<g id="Node000008" class="node">
<title>Node8</title>
<g id="a_Node000008"><a xlink:href="NetworkManager_8hpp.html" target="_top" xlink:title=" ">
<polygon fill="white" stroke="#666666" points="350.88,-244 241.88,-244 241.88,-224 350.88,-224 350.88,-244"/>
<text text-anchor="middle" x="296.38" y="-230.5" font-family="Helvetica,sans-Serif" font-size="10.00">NetworkManager.hpp</text>
</a>
</g>
</g>
<!-- Node1&#45;&gt;Node8 -->
<g id="edge8_Node000001_Node000008" class="edge">
<title>Node1&#45;&gt;Node8</title>
<g id="a_edge8_Node000001_Node000008"><a xlink:title=" ">
<path fill="none" stroke="#63b8ff" d="M172.47,-276.05C201.81,-266.33 241.32,-253.24 267.76,-244.48"/>
<polygon fill="#63b8ff" stroke="#63b8ff" points="171.6,-272.65 163.2,-279.12 173.8,-279.3 171.6,-272.65"/>
</a>
</g>
</g>
<!-- Node3 -->
<g id="Node000003" class="node">
<title>Node3</title>
<g id="a_Node000003"><a xlink:href="GameTypes_8cpp.html" target="_top" xlink:title=" ">
<polygon fill="white" stroke="#666666" points="522,-20 434.75,-20 434.75,0 522,0 522,-20"/>
<text text-anchor="middle" x="478.38" y="-6.5" font-family="Helvetica,sans-Serif" font-size="10.00">GameTypes.cpp</text>
</a>
</g>
</g>
<!-- Node2&#45;&gt;Node3 -->
<g id="edge2_Node000002_Node000003" class="edge">
<title>Node2&#45;&gt;Node3</title>
<g id="a_edge2_Node000002_Node000003"><a xlink:title=" ">
<path fill="none" stroke="#63b8ff" d="M55,-161.42C76.65,-147.05 110.63,-125.91 142.38,-112 243.5,-67.7 369.86,-35.5 435.03,-20.47"/>
<polygon fill="#63b8ff" stroke="#63b8ff" points="53.3,-158.35 46.95,-166.83 57.2,-164.16 53.3,-158.35"/>
</a>
</g>
</g>
<!-- Node4 -->
<g id="Node000004" class="node">
<title>Node4</title>
<g id="a_Node000004"><a xlink:href="GameTypes_8hpp.html" target="_top" xlink:title=" ">
<polygon fill="white" stroke="#666666" points="450,-76 362.75,-76 362.75,-56 450,-56 450,-76"/>
<text text-anchor="middle" x="406.38" y="-62.5" font-family="Helvetica,sans-Serif" font-size="10.00">GameTypes.hpp</text>
</a>
</g>
</g>
<!-- Node2&#45;&gt;Node4 -->
<g id="edge3_Node000002_Node000004" class="edge">
<title>Node2&#45;&gt;Node4</title>
<g id="a_edge3_Node000002_Node000004"><a xlink:title=" ">
<path fill="none" stroke="#63b8ff" d="M64.41,-163.22C98.41,-148.97 153.95,-126.79 203.38,-112 257.33,-95.86 320.91,-82.68 362.35,-74.85"/>
<polygon fill="#63b8ff" stroke="#63b8ff" points="63.4,-159.84 55.55,-166.96 66.13,-166.29 63.4,-159.84"/>
</a>
</g>
</g>
<!-- Node2&#45;&gt;Node6 -->
<g id="edge6_Node000002_Node000006" class="edge">
<title>Node2&#45;&gt;Node6</title>
<g id="a_edge6_Node000002_Node000006"><a xlink:title=" ">
<path fill="none" stroke="#63b8ff" d="M75.89,-165.7C116.86,-155.07 177.03,-139.44 212.11,-130.34"/>
<polygon fill="#63b8ff" stroke="#63b8ff" points="75.14,-162.28 66.34,-168.18 76.9,-169.06 75.14,-162.28"/>
</a>
</g>
</g>
<!-- Node4&#45;&gt;Node3 -->
<g id="edge4_Node000004_Node000003" class="edge">
<title>Node4&#45;&gt;Node3</title>
<g id="a_edge4_Node000004_Node000003"><a xlink:title=" ">
<path fill="none" stroke="#63b8ff" d="M427.77,-48.95C440.22,-39.61 455.49,-28.16 465.98,-20.3"/>
<polygon fill="#63b8ff" stroke="#63b8ff" points="426.03,-45.89 420.13,-54.69 430.23,-51.49 426.03,-45.89"/>
</a>
</g>
</g>
<!-- Node5 -->
<g id="Node000005" class="node">
<title>Node5</title>
<g id="a_Node000005"><a xlink:href="Client_2src_2main_8cpp.html" target="_top" xlink:title=" ">
<polygon fill="white" stroke="#666666" points="416.25,-20 360.5,-20 360.5,0 416.25,0 416.25,-20"/>
<text text-anchor="middle" x="388.38" y="-6.5" font-family="Helvetica,sans-Serif" font-size="10.00">main.cpp</text>
</a>
</g>
</g>
<!-- Node4&#45;&gt;Node5 -->
<g id="edge5_Node000004_Node000005" class="edge">
<title>Node4&#45;&gt;Node5</title>
<g id="a_edge5_Node000004_Node000005"><a xlink:title=" ">
<path fill="none" stroke="#63b8ff" d="M399.61,-44.71C396.82,-36.32 393.71,-27.01 391.47,-20.3"/>
<polygon fill="#63b8ff" stroke="#63b8ff" points="396.28,-45.78 402.76,-54.16 402.92,-43.56 396.28,-45.78"/>
</a>
</g>
</g>
<!-- Node8&#45;&gt;Node2 -->
<g id="edge13_Node000008_Node000002" class="edge">
<title>Node8&#45;&gt;Node2</title>
<g id="a_edge13_Node000008_Node000002"><a xlink:title=" ">
<path fill="none" stroke="#63b8ff" d="M239.13,-221.29C185.98,-210.42 108.71,-194.61 65.25,-185.72"/>
<polygon fill="#63b8ff" stroke="#63b8ff" points="238.11,-224.65 248.6,-223.23 239.51,-217.8 238.11,-224.65"/>
</a>
</g>
</g>
<!-- Node8&#45;&gt;Node4 -->
<g id="edge14_Node000008_Node000004" class="edge">
<title>Node8&#45;&gt;Node4</title>
<g id="a_edge14_Node000008_Node000004"><a xlink:title=" ">
<path fill="none" stroke="#63b8ff" d="M299.92,-212.42C302.79,-199.15 307.65,-181.85 315.38,-168 336.99,-129.25 375.94,-92.94 395.1,-76.39"/>
<polygon fill="#63b8ff" stroke="#63b8ff" points="296.5,-211.7 298.04,-222.18 303.37,-213.02 296.5,-211.7"/>
</a>
</g>
</g>
<!-- Node8&#45;&gt;Node6 -->
<g id="edge29_Node000008_Node000006" class="edge">
<title>Node8&#45;&gt;Node6</title>
<g id="a_edge29_Node000008_Node000006"><a xlink:title=" ">
<path fill="none" stroke="#63b8ff" d="M286.51,-213.62C274.37,-189.78 254.26,-150.28 245.14,-132.35"/>
<polygon fill="#63b8ff" stroke="#63b8ff" points="283.26,-214.95 290.91,-222.27 289.5,-211.77 283.26,-214.95"/>
</a>
</g>
</g>
<!-- Node8&#45;&gt;Node7 -->
<g id="edge15_Node000008_Node000007" class="edge">
<title>Node8&#45;&gt;Node7</title>
<g id="a_edge15_Node000008_Node000007"><a xlink:title=" ">
<path fill="none" stroke="#63b8ff" d="M265.03,-219.01C243.52,-209.41 215.55,-196.93 196.62,-188.48"/>
<polygon fill="#63b8ff" stroke="#63b8ff" points="263.36,-222.1 273.92,-222.98 266.21,-215.71 263.36,-222.1"/>
</a>
</g>
</g>
<!-- Node9 -->
<g id="Node000009" class="node">
<title>Node9</title>
<g id="a_Node000009"><a xlink:href="Collision_8hpp.html" target="_top" xlink:title=" ">
<polygon fill="white" stroke="#666666" points="396.5,-188 324.25,-188 324.25,-168 396.5,-168 396.5,-188"/>
<text text-anchor="middle" x="360.38" y="-174.5" font-family="Helvetica,sans-Serif" font-size="10.00">Collision.hpp</text>
</a>
</g>
</g>
<!-- Node8&#45;&gt;Node9 -->
<g id="edge9_Node000008_Node000009" class="edge">
<title>Node8&#45;&gt;Node9</title>
<g id="a_edge9_Node000008_Node000009"><a xlink:title=" ">
<path fill="none" stroke="#63b8ff" d="M316.05,-216.4C326.99,-207.17 340.22,-196.01 349.35,-188.3"/>
<polygon fill="#63b8ff" stroke="#63b8ff" points="314.07,-213.49 308.68,-222.62 318.58,-218.84 314.07,-213.49"/>
</a>
</g>
</g>
<!-- Node10 -->
<g id="Node000010" class="node">
<title>Node10</title>
<g id="a_Node000010"><a xlink:href="PlayerControl_8hpp.html" target="_top" xlink:title=" ">
<polygon fill="white" stroke="#666666" points="508.38,-188 414.38,-188 414.38,-168 508.38,-168 508.38,-188"/>
<text text-anchor="middle" x="461.38" y="-174.5" font-family="Helvetica,sans-Serif" font-size="10.00">PlayerControl.hpp</text>
</a>
</g>
</g>
<!-- Node8&#45;&gt;Node10 -->
<g id="edge16_Node000008_Node000010" class="edge">
<title>Node8&#45;&gt;Node10</title>
<g id="a_edge16_Node000008_Node000010"><a xlink:title=" ">
<path fill="none" stroke="#63b8ff" d="M335.95,-220.05C365.65,-210.33 405.65,-197.24 432.41,-188.48"/>
<polygon fill="#63b8ff" stroke="#63b8ff" points="334.97,-216.69 326.55,-223.12 337.15,-223.34 334.97,-216.69"/>
</a>
</g>
</g>
<!-- Node11 -->
<g id="Node000011" class="node">
<title>Node11</title>
<g id="a_Node000011"><a xlink:href="Renderer_8hpp.html" target="_top" xlink:title=" ">
<polygon fill="white" stroke="#666666" points="600.62,-188 526.12,-188 526.12,-168 600.62,-168 600.62,-188"/>
<text text-anchor="middle" x="563.38" y="-174.5" font-family="Helvetica,sans-Serif" font-size="10.00">Renderer.hpp</text>
</a>
</g>
</g>
<!-- Node8&#45;&gt;Node11 -->
<g id="edge20_Node000008_Node000011" class="edge">
<title>Node8&#45;&gt;Node11</title>
<g id="a_edge20_Node000008_Node000011"><a xlink:title=" ">
<path fill="none" stroke="#63b8ff" d="M354.24,-221.3C406.23,-210.78 481.05,-195.65 525.68,-186.62"/>
<polygon fill="#63b8ff" stroke="#63b8ff" points="353.78,-217.82 344.67,-223.23 355.17,-224.68 353.78,-217.82"/>
</a>
</g>
</g>
<!-- Node14 -->
<g id="Node000014" class="node">
<title>Node14</title>
<g id="a_Node000014"><a xlink:href="SFML_8cpp.html" target="_top" xlink:title=" ">
<polygon fill="white" stroke="#666666" points="690.88,-76 629.88,-76 629.88,-56 690.88,-56 690.88,-76"/>
<text text-anchor="middle" x="660.38" y="-62.5" font-family="Helvetica,sans-Serif" font-size="10.00">SFML.cpp</text>
</a>
</g>
</g>
<!-- Node8&#45;&gt;Node14 -->
<g id="edge28_Node000008_Node000014" class="edge">
<title>Node8&#45;&gt;Node14</title>
<g id="a_edge28_Node000008_Node000014"><a xlink:title=" ">
<path fill="none" stroke="#63b8ff" d="M362.54,-233.1C427.73,-231.03 528.95,-221.87 609.38,-188 647.06,-172.13 664.29,-168.67 682.38,-132 691.76,-112.98 677.46,-88.99 667.87,-76.13"/>
<polygon fill="#63b8ff" stroke="#63b8ff" points="362.61,-229.6 352.71,-233.36 362.8,-236.6 362.61,-229.6"/>
</a>
</g>
</g>
<!-- Node9&#45;&gt;Node3 -->
<g id="edge10_Node000009_Node000003" class="edge">
<title>Node9&#45;&gt;Node3</title>
<g id="a_edge10_Node000009_Node000003"><a xlink:title=" ">
<path fill="none" stroke="#63b8ff" d="M352.26,-157.1C343.17,-131.29 332.28,-86.02 353.38,-56 363.32,-41.85 404.53,-28.83 436.95,-20.48"/>
<polygon fill="#63b8ff" stroke="#63b8ff" points="348.95,-158.24 355.77,-166.35 355.49,-155.76 348.95,-158.24"/>
</a>
</g>
</g>
<!-- Node9&#45;&gt;Node4 -->
<g id="edge11_Node000009_Node000004" class="edge">
<title>Node9&#45;&gt;Node4</title>
<g id="a_edge11_Node000009_Node000004"><a xlink:title=" ">
<path fill="none" stroke="#63b8ff" d="M368.61,-157.3C378.6,-133.43 395,-94.2 402.46,-76.35"/>
<polygon fill="#63b8ff" stroke="#63b8ff" points="365.51,-155.65 364.88,-166.23 371.97,-158.35 365.51,-155.65"/>
</a>
</g>
</g>
<!-- Node9&#45;&gt;Node6 -->
<g id="edge12_Node000009_Node000006" class="edge">
<title>Node9&#45;&gt;Node6</title>
<g id="a_edge12_Node000009_Node000006"><a xlink:title=" ">
<path fill="none" stroke="#63b8ff" d="M328.99,-162.88C307.7,-153.3 280.13,-140.89 261.44,-132.48"/>
<polygon fill="#63b8ff" stroke="#63b8ff" points="327.54,-166.06 338.09,-166.97 330.41,-159.68 327.54,-166.06"/>
</a>
</g>
</g>
<!-- Node10&#45;&gt;Node3 -->
<g id="edge17_Node000010_Node000003" class="edge">
<title>Node10&#45;&gt;Node3</title>
<g id="a_edge17_Node000010_Node000003"><a xlink:title=" ">
<path fill="none" stroke="#63b8ff" d="M463.47,-156.5C467.18,-120.27 474.76,-46.31 477.42,-20.3"/>
<polygon fill="#63b8ff" stroke="#63b8ff" points="460.03,-155.79 462.49,-166.09 466.99,-156.5 460.03,-155.79"/>
</a>
</g>
</g>
<!-- Node10&#45;&gt;Node4 -->
<g id="edge18_Node000010_Node000004" class="edge">
<title>Node10&#45;&gt;Node4</title>
<g id="a_edge18_Node000010_Node000004"><a xlink:title=" ">
<path fill="none" stroke="#63b8ff" d="M451.69,-157.62C439.77,-133.78 420.01,-94.28 411.05,-76.35"/>
<polygon fill="#63b8ff" stroke="#63b8ff" points="448.41,-158.89 456.01,-166.27 454.67,-155.76 448.41,-158.89"/>
</a>
</g>
</g>
<!-- Node10&#45;&gt;Node6 -->
<g id="edge19_Node000010_Node000006" class="edge">
<title>Node10&#45;&gt;Node6</title>
<g id="a_edge19_Node000010_Node000006"><a xlink:title=" ">
<path fill="none" stroke="#63b8ff" d="M411.55,-164.83C367.41,-154.04 304.53,-138.68 268.55,-129.88"/>
<polygon fill="#63b8ff" stroke="#63b8ff" points="410.61,-168.2 421.16,-167.17 412.27,-161.4 410.61,-168.2"/>
</a>
</g>
</g>
<!-- Node11&#45;&gt;Node4 -->
<g id="edge21_Node000011_Node000004" class="edge">
<title>Node11&#45;&gt;Node4</title>
<g id="a_edge21_Node000011_Node000004"><a xlink:title=" ">
<path fill="none" stroke="#63b8ff" d="M540.63,-161.06C507.38,-137.77 446.58,-95.17 419.73,-76.35"/>
<polygon fill="#63b8ff" stroke="#63b8ff" points="538.55,-163.88 548.75,-166.75 542.57,-158.15 538.55,-163.88"/>
</a>
</g>
</g>
<!-- Node12 -->
<g id="Node000012" class="node">
<title>Node12</title>
<g id="a_Node000012"><a xlink:href="Render_8hpp.html" target="_top" xlink:title=" ">
<polygon fill="white" stroke="#666666" points="593.5,-132 527.25,-132 527.25,-112 593.5,-112 593.5,-132"/>
<text text-anchor="middle" x="560.38" y="-118.5" font-family="Helvetica,sans-Serif" font-size="10.00">Render.hpp</text>
</a>
</g>
</g>
<!-- Node11&#45;&gt;Node12 -->
<g id="edge22_Node000011_Node000012" class="edge">
<title>Node11&#45;&gt;Node12</title>
<g id="a_edge22_Node000011_Node000012"><a xlink:title=" ">
<path fill="none" stroke="#63b8ff" d="M562.22,-156.13C561.76,-147.9 561.26,-138.85 560.89,-132.3"/>
<polygon fill="#63b8ff" stroke="#63b8ff" points="558.72,-156.29 562.77,-166.08 565.71,-155.9 558.72,-156.29"/>
</a>
</g>
</g>
<!-- Node13 -->
<g id="Node000013" class="node">
<title>Node13</title>
<g id="a_Node000013"><a xlink:href="SFML_8hpp.html" target="_top" xlink:title=" ">
<polygon fill="white" stroke="#666666" points="672.88,-132 611.88,-132 611.88,-112 672.88,-112 672.88,-132"/>
<text text-anchor="middle" x="642.38" y="-118.5" font-family="Helvetica,sans-Serif" font-size="10.00">SFML.hpp</text>
</a>
</g>
</g>
<!-- Node11&#45;&gt;Node13 -->
<g id="edge25_Node000011_Node000013" class="edge">
<title>Node11&#45;&gt;Node13</title>
<g id="a_edge25_Node000011_Node000013"><a xlink:title=" ">
<path fill="none" stroke="#63b8ff" d="M586.39,-161.27C600.03,-151.94 616.88,-140.43 628.51,-132.48"/>
<polygon fill="#63b8ff" stroke="#63b8ff" points="584.67,-158.21 578.39,-166.74 588.62,-163.99 584.67,-158.21"/>
</a>
</g>
</g>
<!-- Node12&#45;&gt;Node3 -->
<g id="edge23_Node000012_Node000003" class="edge">
<title>Node12&#45;&gt;Node3</title>
<g id="a_edge23_Node000012_Node000003"><a xlink:title=" ">
<path fill="none" stroke="#63b8ff" d="M546.65,-102.58C528.96,-78.86 498.89,-38.52 485.35,-20.35"/>
<polygon fill="#63b8ff" stroke="#63b8ff" points="543.7,-104.48 552.48,-110.41 549.31,-100.3 543.7,-104.48"/>
</a>
</g>
</g>
<!-- Node12&#45;&gt;Node4 -->
<g id="edge24_Node000012_Node000004" class="edge">
<title>Node12&#45;&gt;Node4</title>
<g id="a_edge24_Node000012_Node000004"><a xlink:title=" ">
<path fill="none" stroke="#63b8ff" d="M522.71,-107.79C495.06,-98.1 458.17,-85.16 433.41,-76.48"/>
<polygon fill="#63b8ff" stroke="#63b8ff" points="521.53,-111.09 532.12,-111.09 523.84,-104.48 521.53,-111.09"/>
</a>
</g>
</g>
<!-- Node13&#45;&gt;Node3 -->
<g id="edge26_Node000013_Node000003" class="edge">
<title>Node13&#45;&gt;Node3</title>
<g id="a_edge26_Node000013_Node000003"><a xlink:title=" ">
<path fill="none" stroke="#63b8ff" d="M619.06,-105.36C584.44,-82.14 520.49,-39.25 492.32,-20.35"/>
<polygon fill="#63b8ff" stroke="#63b8ff" points="616.88,-108.11 627.14,-110.78 620.78,-102.3 616.88,-108.11"/>
</a>
</g>
</g>
<!-- Node13&#45;&gt;Node14 -->
<g id="edge27_Node000013_Node000014" class="edge">
<title>Node13&#45;&gt;Node14</title>
<g id="a_edge27_Node000013_Node000014"><a xlink:title=" ">
<path fill="none" stroke="#63b8ff" d="M649.14,-100.71C651.93,-92.32 655.04,-83.01 657.28,-76.3"/>
<polygon fill="#63b8ff" stroke="#63b8ff" points="645.83,-99.56 645.99,-110.16 652.47,-101.78 645.83,-99.56"/>
</a>
</g>
</g>
</g>
</svg>
