<?xml version="1.0" encoding="UTF-8" standalone="no"?>
<!DOCTYPE svg PUBLIC "-//W3C//DTD SVG 1.1//EN"
 "http://www.w3.org/Graphics/SVG/1.1/DTD/svg11.dtd">
<!-- Generated by graphviz version 12.1.0 (20240811.2233)
 -->
<!-- Title: EnemyInfo.hpp Pages: 1 -->
<svg width="443pt" height="196pt"
 viewBox="0.00 0.00 443.38 196.00" xmlns="http://www.w3.org/2000/svg" xmlns:xlink="http://www.w3.org/1999/xlink">
<g id="graph0" class="graph" transform="scale(1 1) rotate(0) translate(4 192)">
<title>EnemyInfo.hpp</title>
<!-- Node1 -->
<g id="Node000001" class="node">
<title>Node1</title>
<g id="a_Node000001"><a xlink:title=" ">
<polygon fill="#999999" stroke="#666666" points="290.88,-188 208.88,-188 208.88,-168 290.88,-168 290.88,-188"/>
<text text-anchor="middle" x="249.88" y="-174.5" font-family="Helvetica,sans-Serif" font-size="10.00">EnemyInfo.hpp</text>
</a>
</g>
</g>
<!-- Node2 -->
<g id="Node000002" class="node">
<title>Node2</title>
<g id="a_Node000002"><a xlink:href="DevConsole_8hpp.html" target="_top" xlink:title=" ">
<polygon fill="white" stroke="#666666" points="150.25,-132 61.5,-132 61.5,-112 150.25,-112 150.25,-132"/>
<text text-anchor="middle" x="105.88" y="-118.5" font-family="Helvetica,sans-Serif" font-size="10.00">DevConsole.hpp</text>
</a>
</g>
</g>
<!-- Node1&#45;&gt;Node2 -->
<g id="edge1_Node000001_Node000002" class="edge">
<title>Node1&#45;&gt;Node2</title>
<g id="a_edge1_Node000001_Node000002"><a xlink:title=" ">
<path fill="none" stroke="#63b8ff" d="M214.31,-163.66C188.5,-153.98 154.2,-141.12 131.15,-132.48"/>
<polygon fill="#63b8ff" stroke="#63b8ff" points="212.78,-166.83 223.37,-167.06 215.24,-160.27 212.78,-166.83"/>
</a>
</g>
</g>
<!-- Node6 -->
<g id="Node000006" class="node">
<title>Node6</title>
<g id="a_Node000006"><a xlink:href="Enemy_8hpp.html" target="_top" xlink:title=" ">
<polygon fill="white" stroke="#666666" points="252.25,-132 187.5,-132 187.5,-112 252.25,-112 252.25,-132"/>
<text text-anchor="middle" x="219.88" y="-118.5" font-family="Helvetica,sans-Serif" font-size="10.00">Enemy.hpp</text>
</a>
</g>
</g>
<!-- Node1&#45;&gt;Node6 -->
<g id="edge6_Node000001_Node000006" class="edge">
<title>Node1&#45;&gt;Node6</title>
<g id="a_edge6_Node000001_Node000006"><a xlink:title=" ">
<path fill="none" stroke="#63b8ff" d="M239.09,-157.58C234.3,-148.97 228.9,-139.24 225.04,-132.3"/>
<polygon fill="#63b8ff" stroke="#63b8ff" points="236,-159.23 243.91,-166.27 242.12,-155.83 236,-159.23"/>
</a>
</g>
</g>
<!-- Node8 -->
<g id="Node000008" class="node">
<title>Node8</title>
<g id="a_Node000008"><a xlink:href="Server_8cpp.html" target="_top" xlink:title=" ">
<polygon fill="white" stroke="#666666" points="329.5,-20 266.25,-20 266.25,0 329.5,0 329.5,-20"/>
<text text-anchor="middle" x="297.88" y="-6.5" font-family="Helvetica,sans-Serif" font-size="10.00">Server.cpp</text>
</a>
</g>
</g>
<!-- Node1&#45;&gt;Node8 -->
<g id="edge13_Node000001_Node000008" class="edge">
<title>Node1&#45;&gt;Node8</title>
<g id="a_edge13_Node000001_Node000008"><a xlink:title=" ">
<path fill="none" stroke="#63b8ff" d="M255.67,-156.97C266.09,-120.92 287.63,-46.42 295.19,-20.3"/>
<polygon fill="#63b8ff" stroke="#63b8ff" points="252.43,-155.57 253.01,-166.15 259.15,-157.51 252.43,-155.57"/>
</a>
</g>
</g>
<!-- Node10 -->
<g id="Node000010" class="node">
<title>Node10</title>
<g id="a_Node000010"><a xlink:href="NetworkManager_8cpp.html" target="_top" xlink:title=" ">
<polygon fill="white" stroke="#666666" points="435.38,-132 326.38,-132 326.38,-112 435.38,-112 435.38,-132"/>
<text text-anchor="middle" x="380.88" y="-118.5" font-family="Helvetica,sans-Serif" font-size="10.00">NetworkManager.cpp</text>
</a>
</g>
</g>
<!-- Node1&#45;&gt;Node10 -->
<g id="edge12_Node000001_Node000010" class="edge">
<title>Node1&#45;&gt;Node10</title>
<g id="a_edge12_Node000001_Node000010"><a xlink:title=" ">
<path fill="none" stroke="#63b8ff" d="M283.18,-163.27C306.55,-153.64 337.19,-141.01 357.88,-132.48"/>
<polygon fill="#63b8ff" stroke="#63b8ff" points="282,-159.97 274.09,-167.02 284.67,-166.44 282,-159.97"/>
</a>
</g>
</g>
<!-- Node3 -->
<g id="Node000003" class="node">
<title>Node3</title>
<g id="a_Node000003"><a xlink:href="GameTypes_8cpp.html" target="_top" xlink:title=" ">
<polygon fill="white" stroke="#666666" points="161.5,-20 74.25,-20 74.25,0 161.5,0 161.5,-20"/>
<text text-anchor="middle" x="117.88" y="-6.5" font-family="Helvetica,sans-Serif" font-size="10.00">GameTypes.cpp</text>
</a>
</g>
</g>
<!-- Node2&#45;&gt;Node3 -->
<g id="edge2_Node000002_Node000003" class="edge">
<title>Node2&#45;&gt;Node3</title>
<g id="a_edge2_Node000002_Node000003"><a xlink:title=" ">
<path fill="none" stroke="#63b8ff" d="M78.83,-105.3C61.2,-92.89 43.12,-74.61 52.88,-56 61.54,-39.47 79.34,-27.8 94.13,-20.49"/>
<polygon fill="#63b8ff" stroke="#63b8ff" points="76.85,-108.19 87.14,-110.73 80.68,-102.33 76.85,-108.19"/>
</a>
</g>
</g>
<!-- Node4 -->
<g id="Node000004" class="node">
<title>Node4</title>
<g id="a_Node000004"><a xlink:href="GameTypes_8hpp.html" target="_top" xlink:title=" ">
<polygon fill="white" stroke="#666666" points="149.5,-76 62.25,-76 62.25,-56 149.5,-56 149.5,-76"/>
<text text-anchor="middle" x="105.88" y="-62.5" font-family="Helvetica,sans-Serif" font-size="10.00">GameTypes.hpp</text>
</a>
</g>
</g>
<!-- Node2&#45;&gt;Node4 -->
<g id="edge3_Node000002_Node000004" class="edge">
<title>Node2&#45;&gt;Node4</title>
<g id="a_edge3_Node000002_Node000004"><a xlink:title=" ">
<path fill="none" stroke="#63b8ff" d="M105.88,-100.13C105.88,-91.9 105.88,-82.85 105.88,-76.3"/>
<polygon fill="#63b8ff" stroke="#63b8ff" points="102.38,-100.08 105.88,-110.08 109.38,-100.08 102.38,-100.08"/>
</a>
</g>
</g>
<!-- Node4&#45;&gt;Node3 -->
<g id="edge4_Node000004_Node000003" class="edge">
<title>Node4&#45;&gt;Node3</title>
<g id="a_edge4_Node000004_Node000003"><a xlink:title=" ">
<path fill="none" stroke="#63b8ff" d="M110.45,-44.43C112.3,-36.11 114.33,-26.93 115.81,-20.3"/>
<polygon fill="#63b8ff" stroke="#63b8ff" points="107.05,-43.6 108.29,-54.12 113.88,-45.11 107.05,-43.6"/>
</a>
</g>
</g>
<!-- Node5 -->
<g id="Node000005" class="node">
<title>Node5</title>
<g id="a_Node000005"><a xlink:href="Client_2src_2main_8cpp.html" target="_top" xlink:title=" ">
<polygon fill="white" stroke="#666666" points="55.75,-20 0,-20 0,0 55.75,0 55.75,-20"/>
<text text-anchor="middle" x="27.88" y="-6.5" font-family="Helvetica,sans-Serif" font-size="10.00">main.cpp</text>
</a>
</g>
</g>
<!-- Node4&#45;&gt;Node5 -->
<g id="edge5_Node000004_Node000005" class="edge">
<title>Node4&#45;&gt;Node5</title>
<g id="a_edge5_Node000004_Node000005"><a xlink:title=" ">
<path fill="none" stroke="#63b8ff" d="M83.16,-49.27C69.68,-39.94 53.05,-28.43 41.57,-20.48"/>
<polygon fill="#63b8ff" stroke="#63b8ff" points="80.83,-51.92 91.04,-54.73 84.81,-46.16 80.83,-51.92"/>
</a>
</g>
</g>
<!-- Node6&#45;&gt;Node3 -->
<g id="edge7_Node000006_Node000003" class="edge">
<title>Node6&#45;&gt;Node3</title>
<g id="a_edge7_Node000006_Node000003"><a xlink:title=" ">
<path fill="none" stroke="#63b8ff" d="M203.38,-103.22C181.47,-79.58 143.54,-38.68 126.55,-20.35"/>
<polygon fill="#63b8ff" stroke="#63b8ff" points="200.78,-105.56 210.15,-110.51 205.92,-100.8 200.78,-105.56"/>
</a>
</g>
</g>
<!-- Node6&#45;&gt;Node4 -->
<g id="edge8_Node000006_Node000004" class="edge">
<title>Node6&#45;&gt;Node4</title>
<g id="a_edge8_Node000006_Node000004"><a xlink:title=" ">
<path fill="none" stroke="#63b8ff" d="M189.78,-106.75C169.59,-97.18 143.56,-84.85 125.89,-76.48"/>
<polygon fill="#63b8ff" stroke="#63b8ff" points="188.11,-109.83 198.65,-110.95 191.11,-103.5 188.11,-109.83"/>
</a>
</g>
</g>
<!-- Node7 -->
<g id="Node000007" class="node">
<title>Node7</title>
<g id="a_Node000007"><a xlink:href="Server_8hpp.html" target="_top" xlink:title=" ">
<polygon fill="white" stroke="#666666" points="269.5,-76 206.25,-76 206.25,-56 269.5,-56 269.5,-76"/>
<text text-anchor="middle" x="237.88" y="-62.5" font-family="Helvetica,sans-Serif" font-size="10.00">Server.hpp</text>
</a>
</g>
</g>
<!-- Node6&#45;&gt;Node7 -->
<g id="edge9_Node000006_Node000007" class="edge">
<title>Node6&#45;&gt;Node7</title>
<g id="a_edge9_Node000006_Node000007"><a xlink:title=" ">
<path fill="none" stroke="#63b8ff" d="M226.64,-100.71C229.43,-92.32 232.54,-83.01 234.78,-76.3"/>
<polygon fill="#63b8ff" stroke="#63b8ff" points="223.33,-99.56 223.49,-110.16 229.97,-101.78 223.33,-99.56"/>
</a>
</g>
</g>
<!-- Node7&#45;&gt;Node8 -->
<g id="edge10_Node000007_Node000008" class="edge">
<title>Node7&#45;&gt;Node8</title>
<g id="a_edge10_Node000007_Node000008"><a xlink:title=" ">
<path fill="none" stroke="#63b8ff" d="M256.62,-48.13C266.83,-38.94 279.06,-27.93 287.54,-20.3"/>
<polygon fill="#63b8ff" stroke="#63b8ff" points="254.54,-45.29 249.45,-54.58 259.23,-50.49 254.54,-45.29"/>
</a>
</g>
</g>
<!-- Node9 -->
<g id="Node000009" class="node">
<title>Node9</title>
<g id="a_Node000009"><a xlink:href="Server_2src_2main_8cpp.html" target="_top" xlink:title=" ">
<polygon fill="white" stroke="#666666" points="247.75,-20 192,-20 192,0 247.75,0 247.75,-20"/>
<text text-anchor="middle" x="219.88" y="-6.5" font-family="Helvetica,sans-Serif" font-size="10.00">main.cpp</text>
</a>
</g>
</g>
<!-- Node7&#45;&gt;Node9 -->
<g id="edge11_Node000007_Node000009" class="edge">
<title>Node7&#45;&gt;Node9</title>
<g id="a_edge11_Node000007_Node000009"><a xlink:title=" ">
<path fill="none" stroke="#63b8ff" d="M231.11,-44.71C228.32,-36.32 225.21,-27.01 222.97,-20.3"/>
<polygon fill="#63b8ff" stroke="#63b8ff" points="227.78,-45.78 234.26,-54.16 234.42,-43.56 227.78,-45.78"/>
</a>
</g>
</g>
</g>
</svg>
