<?xml version="1.0" encoding="UTF-8" standalone="no"?>
<!DOCTYPE svg PUBLIC "-//W3C//DTD SVG 1.1//EN"
 "http://www.w3.org/Graphics/SVG/1.1/DTD/svg11.dtd">
<!-- Generated by graphviz version 12.1.0 (20240811.2233)
 -->
<!-- Title: Enemy.hpp Pages: 1 -->
<svg width="1468pt" height="420pt"
 viewBox="0.00 0.00 1468.12 420.00" xmlns="http://www.w3.org/2000/svg" xmlns:xlink="http://www.w3.org/1999/xlink">
<g id="graph0" class="graph" transform="scale(1 1) rotate(0) translate(4 416)">
<title>Enemy.hpp</title>
<!-- Node1 -->
<g id="Node000001" class="node">
<title>Node1</title>
<g id="a_Node000001"><a xlink:title=" ">
<polygon fill="#999999" stroke="#666666" points="513.25,-412 448.5,-412 448.5,-392 513.25,-392 513.25,-412"/>
<text text-anchor="middle" x="480.88" y="-398.5" font-family="Helvetica,sans-Serif" font-size="10.00">Enemy.hpp</text>
</a>
</g>
</g>
<!-- Node2 -->
<g id="Node000002" class="node">
<title>Node2</title>
<g id="a_Node000002"><a xlink:title=" ">
<polygon fill="#e0e0e0" stroke="#999999" points="693.5,-132 642.25,-132 642.25,-112 693.5,-112 693.5,-132"/>
<text text-anchor="middle" x="667.88" y="-118.5" font-family="Helvetica,sans-Serif" font-size="10.00">memory</text>
</a>
</g>
</g>
<!-- Node1&#45;&gt;Node2 -->
<g id="edge1_Node000001_Node000002" class="edge">
<title>Node1&#45;&gt;Node2</title>
<g id="a_edge1_Node000001_Node000002"><a xlink:title=" ">
<path fill="none" stroke="#63b8ff" d="M482.33,-391.61C485.91,-370.46 496.55,-317.96 518.88,-280 553.91,-220.45 615.47,-165.46 647.39,-139.19"/>
<polygon fill="#63b8ff" stroke="#63b8ff" points="649.18,-142.25 654.74,-133.23 644.77,-136.81 649.18,-142.25"/>
</a>
</g>
</g>
<!-- Node3 -->
<g id="Node000003" class="node">
<title>Node3</title>
<g id="a_Node000003"><a xlink:href="EnemyInfo_8hpp.html" target="_top" xlink:title=" ">
<polygon fill="white" stroke="#666666" points="668.12,-300 527.62,-300 527.62,-280 668.12,-280 668.12,-300"/>
<text text-anchor="middle" x="597.88" y="-286.5" font-family="Helvetica,sans-Serif" font-size="10.00">Components/EnemyInfo.hpp</text>
</a>
</g>
</g>
<!-- Node1&#45;&gt;Node3 -->
<g id="edge2_Node000001_Node000003" class="edge">
<title>Node1&#45;&gt;Node3</title>
<g id="a_edge2_Node000001_Node000003"><a xlink:title=" ">
<path fill="none" stroke="#63b8ff" d="M490.85,-391.62C510.54,-373.11 554.64,-331.65 579.65,-308.13"/>
<polygon fill="#63b8ff" stroke="#63b8ff" points="581.93,-310.79 586.82,-301.39 577.14,-305.69 581.93,-310.79"/>
</a>
</g>
</g>
<!-- Node4 -->
<g id="Node000004" class="node">
<title>Node4</title>
<g id="a_Node000004"><a xlink:href="Hitbox_8hpp.html" target="_top" xlink:title=" ">
<polygon fill="white" stroke="#666666" points="121.75,-356 0,-356 0,-336 121.75,-336 121.75,-356"/>
<text text-anchor="middle" x="60.88" y="-342.5" font-family="Helvetica,sans-Serif" font-size="10.00">Components/Hitbox.hpp</text>
</a>
</g>
</g>
<!-- Node1&#45;&gt;Node4 -->
<g id="edge3_Node000001_Node000004" class="edge">
<title>Node1&#45;&gt;Node4</title>
<g id="a_edge3_Node000001_Node000004"><a xlink:title=" ">
<path fill="none" stroke="#63b8ff" d="M448.27,-396.81C381.01,-388.16 225.49,-368.16 133.26,-356.31"/>
<polygon fill="#63b8ff" stroke="#63b8ff" points="133.92,-352.86 123.56,-355.06 133.03,-359.81 133.92,-352.86"/>
</a>
</g>
</g>
<!-- Node7 -->
<g id="Node000007" class="node">
<title>Node7</title>
<g id="a_Node000007"><a xlink:href="RigidBody_8hpp.html" target="_top" xlink:title=" ">
<polygon fill="white" stroke="#666666" points="277.62,-356 140.12,-356 140.12,-336 277.62,-336 277.62,-356"/>
<text text-anchor="middle" x="208.88" y="-342.5" font-family="Helvetica,sans-Serif" font-size="10.00">Components/RigidBody.hpp</text>
</a>
</g>
</g>
<!-- Node1&#45;&gt;Node7 -->
<g id="edge6_Node000001_Node000007" class="edge">
<title>Node1&#45;&gt;Node7</title>
<g id="a_edge6_Node000001_Node000007"><a xlink:title=" ">
<path fill="none" stroke="#63b8ff" d="M448.07,-394.49C403.39,-385.62 322.66,-369.59 267.45,-358.63"/>
<polygon fill="#63b8ff" stroke="#63b8ff" points="268.4,-355.25 257.91,-356.74 267.04,-362.12 268.4,-355.25"/>
</a>
</g>
</g>
<!-- Node8 -->
<g id="Node000008" class="node">
<title>Node8</title>
<g id="a_Node000008"><a xlink:href="Transform_8hpp.html" target="_top" xlink:title=" ">
<polygon fill="white" stroke="#666666" points="433.62,-356 296.12,-356 296.12,-336 433.62,-336 433.62,-356"/>
<text text-anchor="middle" x="364.88" y="-342.5" font-family="Helvetica,sans-Serif" font-size="10.00">Components/Transform.hpp</text>
</a>
</g>
</g>
<!-- Node1&#45;&gt;Node8 -->
<g id="edge8_Node000001_Node000008" class="edge">
<title>Node1&#45;&gt;Node8</title>
<g id="a_edge8_Node000001_Node000008"><a xlink:title=" ">
<path fill="none" stroke="#63b8ff" d="M460.67,-391.59C442.65,-383.21 416.01,-370.8 395.39,-361.21"/>
<polygon fill="#63b8ff" stroke="#63b8ff" points="397.15,-358.17 386.61,-357.12 394.2,-364.51 397.15,-358.17"/>
</a>
</g>
</g>
<!-- Node9 -->
<g id="Node000009" class="node">
<title>Node9</title>
<g id="a_Node000009"><a xlink:href="Event_8hpp.html" target="_top" xlink:title=" ">
<polygon fill="white" stroke="#666666" points="394,-132 333.75,-132 333.75,-112 394,-112 394,-132"/>
<text text-anchor="middle" x="363.88" y="-118.5" font-family="Helvetica,sans-Serif" font-size="10.00">Event.hpp</text>
</a>
</g>
</g>
<!-- Node1&#45;&gt;Node9 -->
<g id="edge10_Node000001_Node000009" class="edge">
<title>Node1&#45;&gt;Node9</title>
<g id="a_edge10_Node000001_Node000009"><a xlink:title=" ">
<path fill="none" stroke="#63b8ff" d="M476.98,-391.75C460.4,-352.34 395.41,-197.94 372.19,-142.75"/>
<polygon fill="#63b8ff" stroke="#63b8ff" points="375.47,-141.54 368.37,-133.68 369.02,-144.25 375.47,-141.54"/>
</a>
</g>
</g>
<!-- Node12 -->
<g id="Node000012" class="node">
<title>Node12</title>
<g id="a_Node000012"><a xlink:href="System_8hpp.html" target="_top" xlink:title=" ">
<polygon fill="white" stroke="#666666" points="1460.12,-132 1391.62,-132 1391.62,-112 1460.12,-112 1460.12,-132"/>
<text text-anchor="middle" x="1425.88" y="-118.5" font-family="Helvetica,sans-Serif" font-size="10.00">System.hpp</text>
</a>
</g>
</g>
<!-- Node1&#45;&gt;Node12 -->
<g id="edge14_Node000001_Node000012" class="edge">
<title>Node1&#45;&gt;Node12</title>
<g id="a_edge14_Node000001_Node000012"><a xlink:title=" ">
<path fill="none" stroke="#63b8ff" d="M513.65,-400.6C677.72,-398.19 1401.88,-382.39 1401.88,-291 1401.88,-291 1401.88,-291 1401.88,-233 1401.88,-200.99 1411.7,-164.92 1418.77,-143.08"/>
<polygon fill="#63b8ff" stroke="#63b8ff" points="1422.06,-144.3 1421.95,-133.7 1415.43,-142.05 1422.06,-144.3"/>
</a>
</g>
</g>
<!-- Node16 -->
<g id="Node000016" class="node">
<title>Node16</title>
<g id="a_Node000016"><a xlink:href="NetworkManager_8hpp.html" target="_top" xlink:title=" ">
<polygon fill="white" stroke="#666666" points="879.38,-356 770.38,-356 770.38,-336 879.38,-336 879.38,-356"/>
<text text-anchor="middle" x="824.88" y="-342.5" font-family="Helvetica,sans-Serif" font-size="10.00">NetworkManager.hpp</text>
</a>
</g>
</g>
<!-- Node1&#45;&gt;Node16 -->
<g id="edge19_Node000001_Node000016" class="edge">
<title>Node1&#45;&gt;Node16</title>
<g id="a_edge19_Node000001_Node000016"><a xlink:title=" ">
<path fill="none" stroke="#63b8ff" d="M513.55,-395.87C569.7,-387.06 685.54,-368.87 759,-357.34"/>
<polygon fill="#63b8ff" stroke="#63b8ff" points="759.13,-360.86 768.47,-355.85 758.05,-353.95 759.13,-360.86"/>
</a>
</g>
</g>
<!-- Node5 -->
<g id="Node000005" class="node">
<title>Node5</title>
<g id="a_Node000005"><a xlink:href="Utils_8hpp.html" target="_top" xlink:title=" ">
<polygon fill="white" stroke="#666666" points="279.38,-300 224.38,-300 224.38,-280 279.38,-280 279.38,-300"/>
<text text-anchor="middle" x="251.88" y="-286.5" font-family="Helvetica,sans-Serif" font-size="10.00">Utils.hpp</text>
</a>
</g>
</g>
<!-- Node4&#45;&gt;Node5 -->
<g id="edge4_Node000004_Node000005" class="edge">
<title>Node4&#45;&gt;Node5</title>
<g id="a_edge4_Node000004_Node000005"><a xlink:title=" ">
<path fill="none" stroke="#63b8ff" d="M94.14,-335.59C127.32,-326.21 178.24,-311.82 213.2,-301.93"/>
<polygon fill="#63b8ff" stroke="#63b8ff" points="213.82,-305.4 222.49,-299.31 211.92,-298.66 213.82,-305.4"/>
</a>
</g>
</g>
<!-- Node6 -->
<g id="Node000006" class="node">
<title>Node6</title>
<g id="a_Node000006"><a xlink:title=" ">
<polygon fill="#e0e0e0" stroke="#999999" points="400.5,-20 355.25,-20 355.25,0 400.5,0 400.5,-20"/>
<text text-anchor="middle" x="377.88" y="-6.5" font-family="Helvetica,sans-Serif" font-size="10.00">cstdint</text>
</a>
</g>
</g>
<!-- Node5&#45;&gt;Node6 -->
<g id="edge5_Node000005_Node000006" class="edge">
<title>Node5&#45;&gt;Node6</title>
<g id="a_edge5_Node000005_Node000006"><a xlink:title=" ">
<path fill="none" stroke="#63b8ff" d="M255.03,-279.71C261.11,-260.92 273.88,-216.98 273.88,-179 273.88,-179 273.88,-179 273.88,-121 273.88,-77.32 317.72,-43.99 348.47,-25.98"/>
<polygon fill="#63b8ff" stroke="#63b8ff" points="349.98,-29.15 356.99,-21.21 346.56,-23.04 349.98,-29.15"/>
</a>
</g>
</g>
<!-- Node7&#45;&gt;Node5 -->
<g id="edge7_Node000007_Node000005" class="edge">
<title>Node7&#45;&gt;Node5</title>
<g id="a_edge7_Node000007_Node000005"><a xlink:title=" ">
<path fill="none" stroke="#63b8ff" d="M216.37,-335.59C222.16,-328.32 230.36,-318.02 237.42,-309.15"/>
<polygon fill="#63b8ff" stroke="#63b8ff" points="240.04,-311.49 243.53,-301.48 234.56,-307.12 240.04,-311.49"/>
</a>
</g>
</g>
<!-- Node8&#45;&gt;Node5 -->
<g id="edge9_Node000008_Node000005" class="edge">
<title>Node8&#45;&gt;Node5</title>
<g id="a_edge9_Node000008_Node000005"><a xlink:title=" ">
<path fill="none" stroke="#63b8ff" d="M345.19,-335.59C327.72,-327.24 301.92,-314.92 281.88,-305.34"/>
<polygon fill="#63b8ff" stroke="#63b8ff" points="283.61,-302.29 273.08,-301.13 280.59,-308.6 283.61,-302.29"/>
</a>
</g>
</g>
<!-- Node9&#45;&gt;Node6 -->
<g id="edge11_Node000009_Node000006" class="edge">
<title>Node9&#45;&gt;Node6</title>
<g id="a_edge11_Node000009_Node000006"><a xlink:title=" ">
<path fill="none" stroke="#63b8ff" d="M359.84,-111.64C354.92,-98.91 347.82,-75.5 352.88,-56 355.25,-46.84 359.93,-37.56 364.62,-29.83"/>
<polygon fill="#63b8ff" stroke="#63b8ff" points="367.41,-31.95 369.95,-21.66 361.55,-28.12 367.41,-31.95"/>
</a>
</g>
</g>
<!-- Node10 -->
<g id="Node000010" class="node">
<title>Node10</title>
<g id="a_Node000010"><a xlink:title=" ">
<polygon fill="#e0e0e0" stroke="#999999" points="763.25,-76 680.5,-76 680.5,-56 763.25,-56 763.25,-76"/>
<text text-anchor="middle" x="721.88" y="-62.5" font-family="Helvetica,sans-Serif" font-size="10.00">unordered_map</text>
</a>
</g>
</g>
<!-- Node9&#45;&gt;Node10 -->
<g id="edge12_Node000009_Node000010" class="edge">
<title>Node9&#45;&gt;Node10</title>
<g id="a_edge12_Node000009_Node000010"><a xlink:title=" ">
<path fill="none" stroke="#63b8ff" d="M394.4,-116.4C455.35,-107.2 592.82,-86.47 668.83,-75"/>
<polygon fill="#63b8ff" stroke="#63b8ff" points="669.17,-78.49 678.54,-73.54 668.13,-71.57 669.17,-78.49"/>
</a>
</g>
</g>
<!-- Node11 -->
<g id="Node000011" class="node">
<title>Node11</title>
<g id="a_Node000011"><a xlink:title=" ">
<polygon fill="#e0e0e0" stroke="#999999" points="393.75,-76 362,-76 362,-56 393.75,-56 393.75,-76"/>
<text text-anchor="middle" x="377.88" y="-62.5" font-family="Helvetica,sans-Serif" font-size="10.00">any</text>
</a>
</g>
</g>
<!-- Node9&#45;&gt;Node11 -->
<g id="edge13_Node000009_Node000011" class="edge">
<title>Node9&#45;&gt;Node11</title>
<g id="a_edge13_Node000009_Node000011"><a xlink:title=" ">
<path fill="none" stroke="#63b8ff" d="M366.31,-111.59C368.04,-104.93 370.42,-95.75 372.58,-87.44"/>
<polygon fill="#63b8ff" stroke="#63b8ff" points="375.96,-88.32 375.08,-77.76 369.19,-86.56 375.96,-88.32"/>
</a>
</g>
</g>
<!-- Node13 -->
<g id="Node000013" class="node">
<title>Node13</title>
<g id="a_Node000013"><a xlink:title=" ">
<polygon fill="#e0e0e0" stroke="#999999" points="1440.62,-76 1411.12,-76 1411.12,-56 1440.62,-56 1440.62,-76"/>
<text text-anchor="middle" x="1425.88" y="-62.5" font-family="Helvetica,sans-Serif" font-size="10.00">set</text>
</a>
</g>
</g>
<!-- Node12&#45;&gt;Node13 -->
<g id="edge15_Node000012_Node000013" class="edge">
<title>Node12&#45;&gt;Node13</title>
<g id="a_edge15_Node000012_Node000013"><a xlink:title=" ">
<path fill="none" stroke="#63b8ff" d="M1425.88,-111.59C1425.88,-105.01 1425.88,-95.96 1425.88,-87.73"/>
<polygon fill="#63b8ff" stroke="#63b8ff" points="1429.38,-87.81 1425.88,-77.81 1422.38,-87.81 1429.38,-87.81"/>
</a>
</g>
</g>
<!-- Node14 -->
<g id="Node000014" class="node">
<title>Node14</title>
<g id="a_Node000014"><a xlink:href="Entity_8hpp.html" target="_top" xlink:title=" ">
<polygon fill="white" stroke="#666666" points="1261.62,-76 1202.12,-76 1202.12,-56 1261.62,-56 1261.62,-76"/>
<text text-anchor="middle" x="1231.88" y="-62.5" font-family="Helvetica,sans-Serif" font-size="10.00">Entity.hpp</text>
</a>
</g>
</g>
<!-- Node12&#45;&gt;Node14 -->
<g id="edge16_Node000012_Node000014" class="edge">
<title>Node12&#45;&gt;Node14</title>
<g id="a_edge16_Node000012_Node000014"><a xlink:title=" ">
<path fill="none" stroke="#63b8ff" d="M1392.08,-111.59C1358.97,-102.38 1308.46,-88.32 1273.03,-78.45"/>
<polygon fill="#63b8ff" stroke="#63b8ff" points="1274.12,-75.13 1263.55,-75.82 1272.25,-81.87 1274.12,-75.13"/>
</a>
</g>
</g>
<!-- Node14&#45;&gt;Node6 -->
<g id="edge17_Node000014_Node000006" class="edge">
<title>Node14&#45;&gt;Node6</title>
<g id="a_edge17_Node000014_Node000006"><a xlink:title=" ">
<path fill="none" stroke="#63b8ff" d="M1201.85,-62.19C1181.09,-60.3 1152.82,-57.83 1127.88,-56 851.98,-35.79 518.48,-18.18 412.17,-12.73"/>
<polygon fill="#63b8ff" stroke="#63b8ff" points="412.58,-9.25 402.42,-12.24 412.23,-16.24 412.58,-9.25"/>
</a>
</g>
</g>
<!-- Node15 -->
<g id="Node000015" class="node">
<title>Node15</title>
<g id="a_Node000015"><a xlink:title=" ">
<polygon fill="#e0e0e0" stroke="#999999" points="1251.88,-20 1211.88,-20 1211.88,0 1251.88,0 1251.88,-20"/>
<text text-anchor="middle" x="1231.88" y="-6.5" font-family="Helvetica,sans-Serif" font-size="10.00">bitset</text>
</a>
</g>
</g>
<!-- Node14&#45;&gt;Node15 -->
<g id="edge18_Node000014_Node000015" class="edge">
<title>Node14&#45;&gt;Node15</title>
<g id="a_edge18_Node000014_Node000015"><a xlink:title=" ">
<path fill="none" stroke="#63b8ff" d="M1231.88,-55.59C1231.88,-49.01 1231.88,-39.96 1231.88,-31.73"/>
<polygon fill="#63b8ff" stroke="#63b8ff" points="1235.38,-31.81 1231.88,-21.81 1228.38,-31.81 1235.38,-31.81"/>
</a>
</g>
</g>
<!-- Node16&#45;&gt;Node3 -->
<g id="edge62_Node000016_Node000003" class="edge">
<title>Node16&#45;&gt;Node3</title>
<g id="a_edge62_Node000016_Node000003"><a xlink:title=" ">
<path fill="none" stroke="#63b8ff" d="M785.07,-335.53C747.19,-326.52 689.99,-312.91 648.79,-303.11"/>
<polygon fill="#63b8ff" stroke="#63b8ff" points="649.64,-299.72 639.1,-300.81 648.02,-306.53 649.64,-299.72"/>
</a>
</g>
</g>
<!-- Node16&#45;&gt;Node6 -->
<g id="edge20_Node000016_Node000006" class="edge">
<title>Node16&#45;&gt;Node6</title>
<g id="a_edge20_Node000016_Node000006"><a xlink:title=" ">
<path fill="none" stroke="#63b8ff" d="M804.45,-335.57C776.04,-322.57 722.92,-298.64 676.88,-280 572.52,-237.76 516.29,-271.58 440.88,-188 399.98,-142.67 426.29,-112.38 402.88,-56 399.2,-47.15 394.21,-37.82 389.66,-29.96"/>
<polygon fill="#63b8ff" stroke="#63b8ff" points="392.82,-28.41 384.67,-21.64 386.82,-32.01 392.82,-28.41"/>
</a>
</g>
</g>
<!-- Node16&#45;&gt;Node14 -->
<g id="edge24_Node000016_Node000014" class="edge">
<title>Node16&#45;&gt;Node14</title>
<g id="a_edge24_Node000016_Node000014"><a xlink:title=" ">
<path fill="none" stroke="#63b8ff" d="M879.87,-342.21C977.01,-334.31 1179.5,-304.04 1293.88,-188 1319.37,-162.14 1343.1,-142.81 1323.88,-112 1312.62,-93.97 1291.82,-82.96 1272.84,-76.36"/>
<polygon fill="#63b8ff" stroke="#63b8ff" points="1273.99,-73.05 1263.4,-73.41 1271.9,-79.73 1273.99,-73.05"/>
</a>
</g>
</g>
<!-- Node17 -->
<g id="Node000017" class="node">
<title>Node17</title>
<g id="a_Node000017"><a xlink:title=" ">
<polygon fill="#e0e0e0" stroke="#999999" points="1258.75,-300 1179,-300 1179,-280 1258.75,-280 1258.75,-300"/>
<text text-anchor="middle" x="1218.88" y="-286.5" font-family="Helvetica,sans-Serif" font-size="10.00">boost/asio.hpp</text>
</a>
</g>
</g>
<!-- Node16&#45;&gt;Node17 -->
<g id="edge21_Node000016_Node000017" class="edge">
<title>Node16&#45;&gt;Node17</title>
<g id="a_edge21_Node000016_Node000017"><a xlink:title=" ">
<path fill="none" stroke="#63b8ff" d="M879.72,-338.32C946.99,-329.99 1064.47,-315.01 1164.88,-300 1165.7,-299.88 1166.54,-299.75 1167.38,-299.62"/>
<polygon fill="#63b8ff" stroke="#63b8ff" points="1167.67,-303.12 1177.01,-298.12 1166.58,-296.2 1167.67,-303.12"/>
</a>
</g>
</g>
<!-- Node18 -->
<g id="Node000018" class="node">
<title>Node18</title>
<g id="a_Node000018"><a xlink:title=" ">
<polygon fill="#e0e0e0" stroke="#999999" points="1297.75,-132 1260,-132 1260,-112 1297.75,-112 1297.75,-132"/>
<text text-anchor="middle" x="1278.88" y="-118.5" font-family="Helvetica,sans-Serif" font-size="10.00">array</text>
</a>
</g>
</g>
<!-- Node16&#45;&gt;Node18 -->
<g id="edge22_Node000016_Node000018" class="edge">
<title>Node16&#45;&gt;Node18</title>
<g id="a_edge22_Node000016_Node000018"><a xlink:title=" ">
<path fill="none" stroke="#63b8ff" d="M879.56,-343.33C992.12,-339.36 1241.42,-327.51 1267.88,-300 1308.71,-257.53 1294.64,-179.65 1284.93,-143.03"/>
<polygon fill="#63b8ff" stroke="#63b8ff" points="1288.4,-142.43 1282.31,-133.76 1281.67,-144.33 1288.4,-142.43"/>
</a>
</g>
</g>
<!-- Node19 -->
<g id="Node000019" class="node">
<title>Node19</title>
<g id="a_Node000019"><a xlink:title=" ">
<polygon fill="#e0e0e0" stroke="#999999" points="796.38,-300 753.38,-300 753.38,-280 796.38,-280 796.38,-300"/>
<text text-anchor="middle" x="774.88" y="-286.5" font-family="Helvetica,sans-Serif" font-size="10.00">thread</text>
</a>
</g>
</g>
<!-- Node16&#45;&gt;Node19 -->
<g id="edge23_Node000016_Node000019" class="edge">
<title>Node16&#45;&gt;Node19</title>
<g id="a_edge23_Node000016_Node000019"><a xlink:title=" ">
<path fill="none" stroke="#63b8ff" d="M816.17,-335.59C809.28,-328.16 799.48,-317.58 791.16,-308.58"/>
<polygon fill="#63b8ff" stroke="#63b8ff" points="793.88,-306.37 784.51,-301.41 788.74,-311.12 793.88,-306.37"/>
</a>
</g>
</g>
<!-- Node20 -->
<g id="Node000020" class="node">
<title>Node20</title>
<g id="a_Node000020"><a xlink:href="Mediator_8hpp.html" target="_top" xlink:title=" ">
<polygon fill="white" stroke="#666666" points="869,-244 796.75,-244 796.75,-224 869,-224 869,-244"/>
<text text-anchor="middle" x="832.88" y="-230.5" font-family="Helvetica,sans-Serif" font-size="10.00">Mediator.hpp</text>
</a>
</g>
</g>
<!-- Node16&#45;&gt;Node20 -->
<g id="edge25_Node000016_Node000020" class="edge">
<title>Node16&#45;&gt;Node20</title>
<g id="a_edge25_Node000016_Node000020"><a xlink:title=" ">
<path fill="none" stroke="#63b8ff" d="M825.56,-335.62C826.84,-318.01 829.63,-279.59 831.37,-255.65"/>
<polygon fill="#63b8ff" stroke="#63b8ff" points="834.85,-256.09 832.08,-245.86 827.87,-255.58 834.85,-256.09"/>
</a>
</g>
</g>
<!-- Node34 -->
<g id="Node000034" class="node">
<title>Node34</title>
<g id="a_Node000034"><a xlink:href="ComponentRegistry_8hpp.html" target="_top" xlink:title=" ">
<polygon fill="white" stroke="#666666" points="974.38,-300 853.38,-300 853.38,-280 974.38,-280 974.38,-300"/>
<text text-anchor="middle" x="913.88" y="-286.5" font-family="Helvetica,sans-Serif" font-size="10.00">ComponentRegistry.hpp</text>
</a>
</g>
</g>
<!-- Node16&#45;&gt;Node34 -->
<g id="edge55_Node000016_Node000034" class="edge">
<title>Node16&#45;&gt;Node34</title>
<g id="a_edge55_Node000016_Node000034"><a xlink:title=" ">
<path fill="none" stroke="#63b8ff" d="M840.38,-335.59C853.7,-327.51 873.15,-315.71 888.7,-306.27"/>
<polygon fill="#63b8ff" stroke="#63b8ff" points="890.22,-309.44 896.96,-301.26 886.59,-303.46 890.22,-309.44"/>
</a>
</g>
</g>
<!-- Node20&#45;&gt;Node2 -->
<g id="edge27_Node000020_Node000002" class="edge">
<title>Node20&#45;&gt;Node2</title>
<g id="a_edge27_Node000020_Node000002"><a xlink:title=" ">
<path fill="none" stroke="#63b8ff" d="M796.43,-226.16C770.19,-219.79 735.1,-208.15 709.88,-188 694.8,-175.96 683.42,-156.97 676.34,-142.62"/>
<polygon fill="#63b8ff" stroke="#63b8ff" points="679.59,-141.32 672.22,-133.7 673.23,-144.25 679.59,-141.32"/>
</a>
</g>
</g>
<!-- Node21 -->
<g id="Node000021" class="node">
<title>Node21</title>
<g id="a_Node000021"><a xlink:title=" ">
<polygon fill="#e0e0e0" stroke="#999999" points="1118.62,-76 1065.12,-76 1065.12,-56 1118.62,-56 1118.62,-76"/>
<text text-anchor="middle" x="1091.88" y="-62.5" font-family="Helvetica,sans-Serif" font-size="10.00">iostream</text>
</a>
</g>
</g>
<!-- Node20&#45;&gt;Node21 -->
<g id="edge26_Node000020_Node000021" class="edge">
<title>Node20&#45;&gt;Node21</title>
<g id="a_edge26_Node000020_Node000021"><a xlink:title=" ">
<path fill="none" stroke="#63b8ff" d="M869.28,-231.18C929.31,-227.4 1045.19,-216.52 1072.88,-188 1098.83,-161.26 1098.16,-114.43 1095.14,-87.54"/>
<polygon fill="#63b8ff" stroke="#63b8ff" points="1098.65,-87.37 1093.84,-77.93 1091.72,-88.31 1098.65,-87.37"/>
</a>
</g>
</g>
<!-- Node22 -->
<g id="Node000022" class="node">
<title>Node22</title>
<g id="a_Node000022"><a xlink:title=" ">
<polygon fill="#e0e0e0" stroke="#999999" points="761.38,-188 718.38,-188 718.38,-168 761.38,-168 761.38,-188"/>
<text text-anchor="middle" x="739.88" y="-174.5" font-family="Helvetica,sans-Serif" font-size="10.00">vector</text>
</a>
</g>
</g>
<!-- Node20&#45;&gt;Node22 -->
<g id="edge28_Node000020_Node000022" class="edge">
<title>Node20&#45;&gt;Node22</title>
<g id="a_edge28_Node000020_Node000022"><a xlink:title=" ">
<path fill="none" stroke="#63b8ff" d="M816.68,-223.59C802.63,-215.44 782.04,-203.48 765.72,-194"/>
<polygon fill="#63b8ff" stroke="#63b8ff" points="767.92,-191.23 757.51,-189.24 764.4,-197.29 767.92,-191.23"/>
</a>
</g>
</g>
<!-- Node23 -->
<g id="Node000023" class="node">
<title>Node23</title>
<g id="a_Node000023"><a xlink:href="EntityManager_8hpp.html" target="_top" xlink:title=" ">
<polygon fill="white" stroke="#666666" points="1257.75,-188 1160,-188 1160,-168 1257.75,-168 1257.75,-188"/>
<text text-anchor="middle" x="1208.88" y="-174.5" font-family="Helvetica,sans-Serif" font-size="10.00">EntityManager.hpp</text>
</a>
</g>
</g>
<!-- Node20&#45;&gt;Node23 -->
<g id="edge29_Node000020_Node000023" class="edge">
<title>Node20&#45;&gt;Node23</title>
<g id="a_edge29_Node000020_Node000023"><a xlink:title=" ">
<path fill="none" stroke="#63b8ff" d="M869.27,-227.77C934,-218.48 1069.73,-198.98 1148.59,-187.66"/>
<polygon fill="#63b8ff" stroke="#63b8ff" points="1148.9,-191.15 1158.3,-186.26 1147.91,-184.22 1148.9,-191.15"/>
</a>
</g>
</g>
<!-- Node25 -->
<g id="Node000025" class="node">
<title>Node25</title>
<g id="a_Node000025"><a xlink:href="ComponentManager_8hpp.html" target="_top" xlink:title=" ">
<polygon fill="white" stroke="#666666" points="1064.12,-188 941.62,-188 941.62,-168 1064.12,-168 1064.12,-188"/>
<text text-anchor="middle" x="1002.88" y="-174.5" font-family="Helvetica,sans-Serif" font-size="10.00">ComponentManager.hpp</text>
</a>
</g>
</g>
<!-- Node20&#45;&gt;Node25 -->
<g id="edge33_Node000020_Node000025" class="edge">
<title>Node20&#45;&gt;Node25</title>
<g id="a_edge33_Node000020_Node000025"><a xlink:title=" ">
<path fill="none" stroke="#63b8ff" d="M862.49,-223.59C890.11,-214.82 931.55,-201.66 962.25,-191.9"/>
<polygon fill="#63b8ff" stroke="#63b8ff" points="963.12,-195.3 971.59,-188.94 961,-188.63 963.12,-195.3"/>
</a>
</g>
</g>
<!-- Node30 -->
<g id="Node000030" class="node">
<title>Node30</title>
<g id="a_Node000030"><a xlink:href="SystemManager_8hpp.html" target="_top" xlink:title=" ">
<polygon fill="white" stroke="#666666" points="885.88,-188 779.88,-188 779.88,-168 885.88,-168 885.88,-188"/>
<text text-anchor="middle" x="832.88" y="-174.5" font-family="Helvetica,sans-Serif" font-size="10.00">SystemManager.hpp</text>
</a>
</g>
</g>
<!-- Node20&#45;&gt;Node30 -->
<g id="edge45_Node000020_Node000030" class="edge">
<title>Node20&#45;&gt;Node30</title>
<g id="a_edge45_Node000020_Node000030"><a xlink:title=" ">
<path fill="none" stroke="#63b8ff" d="M832.88,-223.59C832.88,-217.01 832.88,-207.96 832.88,-199.73"/>
<polygon fill="#63b8ff" stroke="#63b8ff" points="836.38,-199.81 832.88,-189.81 829.38,-199.81 836.38,-199.81"/>
</a>
</g>
</g>
<!-- Node31 -->
<g id="Node000031" class="node">
<title>Node31</title>
<g id="a_Node000031"><a xlink:href="EventManager_8hpp.html" target="_top" xlink:title=" ">
<polygon fill="white" stroke="#666666" points="547.75,-188 450,-188 450,-168 547.75,-168 547.75,-188"/>
<text text-anchor="middle" x="498.88" y="-174.5" font-family="Helvetica,sans-Serif" font-size="10.00">EventManager.hpp</text>
</a>
</g>
</g>
<!-- Node20&#45;&gt;Node31 -->
<g id="edge51_Node000020_Node000031" class="edge">
<title>Node20&#45;&gt;Node31</title>
<g id="a_edge51_Node000020_Node000031"><a xlink:title=" ">
<path fill="none" stroke="#63b8ff" d="M796.5,-227.12C739.48,-217.9 628.46,-199.95 559.31,-188.77"/>
<polygon fill="#63b8ff" stroke="#63b8ff" points="560.09,-185.35 549.66,-187.21 558.97,-192.26 560.09,-185.35"/>
</a>
</g>
</g>
<!-- Node23&#45;&gt;Node14 -->
<g id="edge32_Node000023_Node000014" class="edge">
<title>Node23&#45;&gt;Node14</title>
<g id="a_edge32_Node000023_Node000014"><a xlink:title=" ">
<path fill="none" stroke="#63b8ff" d="M1210.84,-167.62C1214.54,-149.92 1222.63,-111.24 1227.63,-87.32"/>
<polygon fill="#63b8ff" stroke="#63b8ff" points="1230.99,-88.34 1229.61,-77.84 1224.14,-86.91 1230.99,-88.34"/>
</a>
</g>
</g>
<!-- Node23&#45;&gt;Node18 -->
<g id="edge31_Node000023_Node000018" class="edge">
<title>Node23&#45;&gt;Node18</title>
<g id="a_edge31_Node000023_Node000018"><a xlink:title=" ">
<path fill="none" stroke="#63b8ff" d="M1221.07,-167.59C1231.21,-159.77 1245.87,-148.46 1257.89,-139.19"/>
<polygon fill="#63b8ff" stroke="#63b8ff" points="1259.84,-142.1 1265.62,-133.22 1255.57,-136.56 1259.84,-142.1"/>
</a>
</g>
</g>
<!-- Node24 -->
<g id="Node000024" class="node">
<title>Node24</title>
<g id="a_Node000024"><a xlink:title=" ">
<polygon fill="#e0e0e0" stroke="#999999" points="1204,-132 1161.75,-132 1161.75,-112 1204,-112 1204,-132"/>
<text text-anchor="middle" x="1182.88" y="-118.5" font-family="Helvetica,sans-Serif" font-size="10.00">queue</text>
</a>
</g>
</g>
<!-- Node23&#45;&gt;Node24 -->
<g id="edge30_Node000023_Node000024" class="edge">
<title>Node23&#45;&gt;Node24</title>
<g id="a_edge30_Node000023_Node000024"><a xlink:title=" ">
<path fill="none" stroke="#63b8ff" d="M1204.35,-167.59C1201.03,-160.7 1196.41,-151.1 1192.3,-142.57"/>
<polygon fill="#63b8ff" stroke="#63b8ff" points="1195.5,-141.15 1188.01,-133.66 1189.19,-144.19 1195.5,-141.15"/>
</a>
</g>
</g>
<!-- Node25&#45;&gt;Node2 -->
<g id="edge36_Node000025_Node000002" class="edge">
<title>Node25&#45;&gt;Node2</title>
<g id="a_edge36_Node000025_Node000002"><a xlink:title=" ">
<path fill="none" stroke="#63b8ff" d="M944.14,-167.53C875.15,-156.41 762.78,-138.3 704.91,-128.97"/>
<polygon fill="#63b8ff" stroke="#63b8ff" points="705.68,-125.55 695.25,-127.41 704.57,-132.46 705.68,-125.55"/>
</a>
</g>
</g>
<!-- Node25&#45;&gt;Node10 -->
<g id="edge34_Node000025_Node000010" class="edge">
<title>Node25&#45;&gt;Node10</title>
<g id="a_edge34_Node000025_Node000010"><a xlink:title=" ">
<path fill="none" stroke="#63b8ff" d="M978.68,-167.53C946.36,-154.87 887.31,-131.74 836.88,-112 809.94,-101.46 779.45,-89.53 756.64,-80.6"/>
<polygon fill="#63b8ff" stroke="#63b8ff" points="758.1,-77.42 747.52,-77.03 755.55,-83.93 758.1,-77.42"/>
</a>
</g>
</g>
<!-- Node25&#45;&gt;Node14 -->
<g id="edge38_Node000025_Node000014" class="edge">
<title>Node25&#45;&gt;Node14</title>
<g id="a_edge38_Node000025_Node000014"><a xlink:title=" ">
<path fill="none" stroke="#63b8ff" d="M1022.4,-167.62C1062.54,-148.34 1154.53,-104.15 1202.13,-81.29"/>
<polygon fill="#63b8ff" stroke="#63b8ff" points="1203.54,-84.49 1211.04,-77.01 1200.51,-78.19 1203.54,-84.49"/>
</a>
</g>
</g>
<!-- Node26 -->
<g id="Node000026" class="node">
<title>Node26</title>
<g id="a_Node000026"><a xlink:title=" ">
<polygon fill="#e0e0e0" stroke="#999999" points="827.88,-132 787.88,-132 787.88,-112 827.88,-112 827.88,-132"/>
<text text-anchor="middle" x="807.88" y="-118.5" font-family="Helvetica,sans-Serif" font-size="10.00">string</text>
</a>
</g>
</g>
<!-- Node25&#45;&gt;Node26 -->
<g id="edge35_Node000025_Node000026" class="edge">
<title>Node25&#45;&gt;Node26</title>
<g id="a_edge35_Node000025_Node000026"><a xlink:title=" ">
<path fill="none" stroke="#63b8ff" d="M968.91,-167.59C932.28,-157.45 874.46,-141.44 838.99,-131.62"/>
<polygon fill="#63b8ff" stroke="#63b8ff" points="840.34,-128.36 829.76,-129.06 838.47,-135.1 840.34,-128.36"/>
</a>
</g>
</g>
<!-- Node27 -->
<g id="Node000027" class="node">
<title>Node27</title>
<g id="a_Node000027"><a xlink:title=" ">
<polygon fill="#e0e0e0" stroke="#999999" points="942.25,-76 883.5,-76 883.5,-56 942.25,-56 942.25,-76"/>
<text text-anchor="middle" x="912.88" y="-62.5" font-family="Helvetica,sans-Serif" font-size="10.00">stdexcept</text>
</a>
</g>
</g>
<!-- Node25&#45;&gt;Node27 -->
<g id="edge37_Node000025_Node000027" class="edge">
<title>Node25&#45;&gt;Node27</title>
<g id="a_edge37_Node000025_Node000027"><a xlink:title=" ">
<path fill="none" stroke="#63b8ff" d="M968.3,-167.58C950.18,-160.77 929.41,-149.59 917.88,-132 909.32,-118.96 908.53,-101.12 909.62,-87.43"/>
<polygon fill="#63b8ff" stroke="#63b8ff" points="913.06,-88.13 910.8,-77.78 906.11,-87.28 913.06,-88.13"/>
</a>
</g>
</g>
<!-- Node28 -->
<g id="Node000028" class="node">
<title>Node28</title>
<g id="a_Node000028"><a xlink:href="ComponentArray_8hpp.html" target="_top" xlink:title=" ">
<polygon fill="white" stroke="#666666" points="1067.62,-132 960.12,-132 960.12,-112 1067.62,-112 1067.62,-132"/>
<text text-anchor="middle" x="1013.88" y="-118.5" font-family="Helvetica,sans-Serif" font-size="10.00">ComponentArray.hpp</text>
</a>
</g>
</g>
<!-- Node25&#45;&gt;Node28 -->
<g id="edge39_Node000025_Node000028" class="edge">
<title>Node25&#45;&gt;Node28</title>
<g id="a_edge39_Node000025_Node000028"><a xlink:title=" ">
<path fill="none" stroke="#63b8ff" d="M1004.79,-167.59C1006.15,-160.93 1008.02,-151.75 1009.71,-143.44"/>
<polygon fill="#63b8ff" stroke="#63b8ff" points="1013.11,-144.28 1011.68,-133.78 1006.25,-142.88 1013.11,-144.28"/>
</a>
</g>
</g>
<!-- Node28&#45;&gt;Node10 -->
<g id="edge41_Node000028_Node000010" class="edge">
<title>Node28&#45;&gt;Node10</title>
<g id="a_edge41_Node000028_Node000010"><a xlink:title=" ">
<path fill="none" stroke="#63b8ff" d="M962.68,-111.53C909.95,-101.78 828.17,-86.66 774.82,-76.79"/>
<polygon fill="#63b8ff" stroke="#63b8ff" points="775.51,-73.36 765.04,-74.98 774.24,-80.24 775.51,-73.36"/>
</a>
</g>
</g>
<!-- Node28&#45;&gt;Node14 -->
<g id="edge44_Node000028_Node000014" class="edge">
<title>Node28&#45;&gt;Node14</title>
<g id="a_edge44_Node000028_Node000014"><a xlink:title=" ">
<path fill="none" stroke="#63b8ff" d="M1052.1,-111.53C1090.97,-101.9 1151,-87.03 1190.85,-77.16"/>
<polygon fill="#63b8ff" stroke="#63b8ff" points="1191.44,-80.62 1200.3,-74.82 1189.75,-73.83 1191.44,-80.62"/>
</a>
</g>
</g>
<!-- Node28&#45;&gt;Node21 -->
<g id="edge43_Node000028_Node000021" class="edge">
<title>Node28&#45;&gt;Node21</title>
<g id="a_edge43_Node000028_Node000021"><a xlink:title=" ">
<path fill="none" stroke="#63b8ff" d="M1027.46,-111.59C1038.91,-103.67 1055.54,-92.16 1069.03,-82.82"/>
<polygon fill="#63b8ff" stroke="#63b8ff" points="1070.71,-85.91 1076.94,-77.34 1066.72,-80.16 1070.71,-85.91"/>
</a>
</g>
</g>
<!-- Node28&#45;&gt;Node27 -->
<g id="edge42_Node000028_Node000027" class="edge">
<title>Node28&#45;&gt;Node27</title>
<g id="a_edge42_Node000028_Node000027"><a xlink:title=" ">
<path fill="none" stroke="#63b8ff" d="M996.28,-111.59C980.95,-103.4 958.46,-91.37 940.69,-81.87"/>
<polygon fill="#63b8ff" stroke="#63b8ff" points="942.41,-78.82 931.94,-77.19 939.11,-84.99 942.41,-78.82"/>
</a>
</g>
</g>
<!-- Node29 -->
<g id="Node000029" class="node">
<title>Node29</title>
<g id="a_Node000029"><a xlink:title=" ">
<polygon fill="#e0e0e0" stroke="#999999" points="1042.88,-76 984.88,-76 984.88,-56 1042.88,-56 1042.88,-76"/>
<text text-anchor="middle" x="1013.88" y="-62.5" font-family="Helvetica,sans-Serif" font-size="10.00">exception</text>
</a>
</g>
</g>
<!-- Node28&#45;&gt;Node29 -->
<g id="edge40_Node000028_Node000029" class="edge">
<title>Node28&#45;&gt;Node29</title>
<g id="a_edge40_Node000028_Node000029"><a xlink:title=" ">
<path fill="none" stroke="#63b8ff" d="M1013.88,-111.59C1013.88,-105.01 1013.88,-95.96 1013.88,-87.73"/>
<polygon fill="#63b8ff" stroke="#63b8ff" points="1017.38,-87.81 1013.88,-77.81 1010.38,-87.81 1017.38,-87.81"/>
</a>
</g>
</g>
<!-- Node30&#45;&gt;Node2 -->
<g id="edge48_Node000030_Node000002" class="edge">
<title>Node30&#45;&gt;Node2</title>
<g id="a_edge48_Node000030_Node000002"><a xlink:title=" ">
<path fill="none" stroke="#63b8ff" d="M804.13,-167.59C776.54,-158.56 734.74,-144.88 704.72,-135.06"/>
<polygon fill="#63b8ff" stroke="#63b8ff" points="705.87,-131.75 695.28,-131.97 703.7,-138.41 705.87,-131.75"/>
</a>
</g>
</g>
<!-- Node30&#45;&gt;Node10 -->
<g id="edge46_Node000030_Node000010" class="edge">
<title>Node30&#45;&gt;Node10</title>
<g id="a_edge46_Node000030_Node000010"><a xlink:title=" ">
<path fill="none" stroke="#63b8ff" d="M817.37,-167.6C804.2,-159.2 785.2,-146.07 770.88,-132 756.41,-117.8 742.77,-99.1 733.58,-85.41"/>
<polygon fill="#63b8ff" stroke="#63b8ff" points="736.7,-83.79 728.3,-77.34 730.84,-87.62 736.7,-83.79"/>
</a>
</g>
</g>
<!-- Node30&#45;&gt;Node12 -->
<g id="edge50_Node000030_Node000012" class="edge">
<title>Node30&#45;&gt;Node12</title>
<g id="a_edge50_Node000030_Node000012"><a xlink:title=" ">
<path fill="none" stroke="#63b8ff" d="M886.28,-172.14C1001.53,-161.64 1271.87,-137.02 1379.99,-127.18"/>
<polygon fill="#63b8ff" stroke="#63b8ff" points="1380.3,-130.66 1389.94,-126.27 1379.67,-123.69 1380.3,-130.66"/>
</a>
</g>
</g>
<!-- Node30&#45;&gt;Node26 -->
<g id="edge47_Node000030_Node000026" class="edge">
<title>Node30&#45;&gt;Node26</title>
<g id="a_edge47_Node000030_Node000026"><a xlink:title=" ">
<path fill="none" stroke="#63b8ff" d="M828.52,-167.59C825.33,-160.7 820.89,-151.1 816.94,-142.57"/>
<polygon fill="#63b8ff" stroke="#63b8ff" points="820.19,-141.28 812.82,-133.67 813.84,-144.22 820.19,-141.28"/>
</a>
</g>
</g>
<!-- Node30&#45;&gt;Node27 -->
<g id="edge49_Node000030_Node000027" class="edge">
<title>Node30&#45;&gt;Node27</title>
<g id="a_edge49_Node000030_Node000027"><a xlink:title=" ">
<path fill="none" stroke="#63b8ff" d="M815.22,-167.64C794.27,-155.31 763.97,-132.73 778.88,-112 799.84,-82.85 840.61,-72.32 871.7,-68.65"/>
<polygon fill="#63b8ff" stroke="#63b8ff" points="871.95,-72.14 881.57,-67.7 871.28,-65.17 871.95,-72.14"/>
</a>
</g>
</g>
<!-- Node31&#45;&gt;Node9 -->
<g id="edge52_Node000031_Node000009" class="edge">
<title>Node31&#45;&gt;Node9</title>
<g id="a_edge52_Node000031_Node000009"><a xlink:title=" ">
<path fill="none" stroke="#63b8ff" d="M475.36,-167.59C454,-159.05 422.24,-146.35 398.08,-136.68"/>
<polygon fill="#63b8ff" stroke="#63b8ff" points="399.56,-133.51 388.98,-133.04 396.96,-140.01 399.56,-133.51"/>
</a>
</g>
</g>
<!-- Node32 -->
<g id="Node000032" class="node">
<title>Node32</title>
<g id="a_Node000032"><a xlink:title=" ">
<polygon fill="#e0e0e0" stroke="#999999" points="585.88,-132 527.88,-132 527.88,-112 585.88,-112 585.88,-132"/>
<text text-anchor="middle" x="556.88" y="-118.5" font-family="Helvetica,sans-Serif" font-size="10.00">functional</text>
</a>
</g>
</g>
<!-- Node31&#45;&gt;Node32 -->
<g id="edge53_Node000031_Node000032" class="edge">
<title>Node31&#45;&gt;Node32</title>
<g id="a_edge53_Node000031_Node000032"><a xlink:title=" ">
<path fill="none" stroke="#63b8ff" d="M508.98,-167.59C517.13,-160.01 528.81,-149.13 538.59,-140.02"/>
<polygon fill="#63b8ff" stroke="#63b8ff" points="540.85,-142.71 545.78,-133.33 536.08,-137.58 540.85,-142.71"/>
</a>
</g>
</g>
<!-- Node33 -->
<g id="Node000033" class="node">
<title>Node33</title>
<g id="a_Node000033"><a xlink:title=" ">
<polygon fill="#e0e0e0" stroke="#999999" points="510.27,-132 481.48,-132 481.48,-112 510.27,-112 510.27,-132"/>
<text text-anchor="middle" x="495.88" y="-118.5" font-family="Helvetica,sans-Serif" font-size="10.00">list</text>
</a>
</g>
</g>
<!-- Node31&#45;&gt;Node33 -->
<g id="edge54_Node000031_Node000033" class="edge">
<title>Node31&#45;&gt;Node33</title>
<g id="a_edge54_Node000031_Node000033"><a xlink:title=" ">
<path fill="none" stroke="#63b8ff" d="M498.35,-167.59C497.99,-161.01 497.48,-151.96 497.03,-143.73"/>
<polygon fill="#63b8ff" stroke="#63b8ff" points="500.52,-143.6 496.48,-133.81 493.54,-143.99 500.52,-143.6"/>
</a>
</g>
</g>
<!-- Node34&#45;&gt;Node10 -->
<g id="edge57_Node000034_Node000010" class="edge">
<title>Node34&#45;&gt;Node10</title>
<g id="a_edge57_Node000034_Node000010"><a xlink:title=" ">
<path fill="none" stroke="#63b8ff" d="M861.22,-279.55C790.91,-263.57 670.78,-223.51 632.88,-132 622.82,-107.73 649.14,-90.8 675.72,-80.32"/>
<polygon fill="#63b8ff" stroke="#63b8ff" points="676.62,-83.71 684.81,-77 674.22,-77.14 676.62,-83.71"/>
</a>
</g>
</g>
<!-- Node34&#45;&gt;Node14 -->
<g id="edge60_Node000034_Node000014" class="edge">
<title>Node34&#45;&gt;Node14</title>
<g id="a_edge60_Node000034_Node000014"><a xlink:title=" ">
<path fill="none" stroke="#63b8ff" d="M974.67,-283.86C1049.49,-274.94 1177.56,-251.04 1266.88,-188 1298.06,-165.99 1325.68,-145.22 1306.88,-112 1299.12,-98.31 1285.37,-88.33 1271.73,-81.3"/>
<polygon fill="#63b8ff" stroke="#63b8ff" points="1273.34,-78.19 1262.8,-77.13 1270.38,-84.53 1273.34,-78.19"/>
</a>
</g>
</g>
<!-- Node34&#45;&gt;Node20 -->
<g id="edge61_Node000034_Node000020" class="edge">
<title>Node34&#45;&gt;Node20</title>
<g id="a_edge61_Node000034_Node000020"><a xlink:title=" ">
<path fill="none" stroke="#63b8ff" d="M899.77,-279.59C887.88,-271.67 870.61,-260.16 856.6,-250.82"/>
<polygon fill="#63b8ff" stroke="#63b8ff" points="858.62,-247.95 848.35,-245.32 854.73,-253.78 858.62,-247.95"/>
</a>
</g>
</g>
<!-- Node34&#45;&gt;Node26 -->
<g id="edge58_Node000034_Node000026" class="edge">
<title>Node34&#45;&gt;Node26</title>
<g id="a_edge58_Node000034_Node000026"><a xlink:title=" ">
<path fill="none" stroke="#63b8ff" d="M915.05,-279.77C917.3,-258.04 919.99,-202.84 894.88,-168 887.69,-158.03 860.87,-144.97 838.89,-135.49"/>
<polygon fill="#63b8ff" stroke="#63b8ff" points="840.25,-132.26 829.67,-131.61 837.53,-138.71 840.25,-132.26"/>
</a>
</g>
</g>
<!-- Node34&#45;&gt;Node27 -->
<g id="edge59_Node000034_Node000027" class="edge">
<title>Node34&#45;&gt;Node27</title>
<g id="a_edge59_Node000034_Node000027"><a xlink:title=" ">
<path fill="none" stroke="#63b8ff" d="M948,-279.55C1005.64,-261.87 1112.34,-220.79 1072.88,-168 1039.03,-122.72 995.38,-166.86 950.88,-132 936.1,-120.43 925.94,-101.38 919.87,-86.89"/>
<polygon fill="#63b8ff" stroke="#63b8ff" points="923.27,-85.97 916.41,-77.89 916.73,-88.48 923.27,-85.97"/>
</a>
</g>
</g>
<!-- Node34&#45;&gt;Node32 -->
<g id="edge56_Node000034_Node000032" class="edge">
<title>Node34&#45;&gt;Node32</title>
<g id="a_edge56_Node000034_Node000032"><a xlink:title=" ">
<path fill="none" stroke="#63b8ff" d="M853.07,-283.67C767.32,-275.65 619.11,-259.74 599.88,-244 569.49,-219.13 560.56,-171.22 557.95,-143.73"/>
<polygon fill="#63b8ff" stroke="#63b8ff" points="561.45,-143.61 557.23,-133.89 554.47,-144.12 561.45,-143.61"/>
</a>
</g>
</g>
</g>
</svg>
