<?xml version="1.0" encoding="UTF-8" standalone="no"?>
<!DOCTYPE svg PUBLIC "-//W3C//DTD SVG 1.1//EN"
 "http://www.w3.org/Graphics/SVG/1.1/DTD/svg11.dtd">
<!-- Generated by graphviz version 12.1.0 (20240811.2233)
 -->
<!-- Title: Entity.hpp Pages: 1 -->
<svg width="964pt" height="532pt"
 viewBox="0.00 0.00 964.33 532.00" xmlns="http://www.w3.org/2000/svg" xmlns:xlink="http://www.w3.org/1999/xlink">
<g id="graph0" class="graph" transform="scale(1 1) rotate(0) translate(4 528)">
<title>Entity.hpp</title>
<!-- Node1 -->
<g id="Node000001" class="node">
<title>Node1</title>
<g id="a_Node000001"><a xlink:title=" ">
<polygon fill="#999999" stroke="#666666" points="494.25,-524 434.75,-524 434.75,-504 494.25,-504 494.25,-524"/>
<text text-anchor="middle" x="464.5" y="-510.5" font-family="Helvetica,sans-Serif" font-size="10.00">Entity.hpp</text>
</a>
</g>
</g>
<!-- Node2 -->
<g id="Node000002" class="node">
<title>Node2</title>
<g id="a_Node000002"><a xlink:href="Collision_8hpp.html" target="_top" xlink:title=" ">
<polygon fill="white" stroke="#666666" points="927.62,-188 855.38,-188 855.38,-168 927.62,-168 927.62,-188"/>
<text text-anchor="middle" x="891.5" y="-174.5" font-family="Helvetica,sans-Serif" font-size="10.00">Collision.hpp</text>
</a>
</g>
</g>
<!-- Node1&#45;&gt;Node2 -->
<g id="edge1_Node000001_Node000002" class="edge">
<title>Node1&#45;&gt;Node2</title>
<g id="a_edge1_Node000001_Node000002"><a xlink:title=" ">
<path fill="none" stroke="#63b8ff" d="M506.04,-511.74C617.97,-507.21 917.5,-487.24 917.5,-403 917.5,-403 917.5,-403 917.5,-289 917.5,-250.73 902.41,-206.94 895.23,-188.24"/>
<polygon fill="#63b8ff" stroke="#63b8ff" points="505.95,-508.24 496.09,-512.11 506.21,-515.23 505.95,-508.24"/>
</a>
</g>
</g>
<!-- Node6 -->
<g id="Node000006" class="node">
<title>Node6</title>
<g id="a_Node000006"><a xlink:href="Server_2src_2main_8cpp.html" target="_top" xlink:title=" ">
<polygon fill="white" stroke="#666666" points="720.38,-132 664.62,-132 664.62,-112 720.38,-112 720.38,-132"/>
<text text-anchor="middle" x="692.5" y="-118.5" font-family="Helvetica,sans-Serif" font-size="10.00">main.cpp</text>
</a>
</g>
</g>
<!-- Node1&#45;&gt;Node6 -->
<g id="edge61_Node000001_Node000006" class="edge">
<title>Node1&#45;&gt;Node6</title>
<g id="a_edge61_Node000001_Node000006"><a xlink:title=" ">
<path fill="none" stroke="#63b8ff" d="M505.89,-512.52C624.22,-510.02 955.5,-494.85 955.5,-403 955.5,-403 955.5,-403 955.5,-233 955.5,-202.9 958.84,-188.17 936.5,-168 905.09,-139.64 778.14,-128.3 720.82,-124.57"/>
<polygon fill="#63b8ff" stroke="#63b8ff" points="505.92,-509.01 495.99,-512.7 506.05,-516.01 505.92,-509.01"/>
</a>
</g>
</g>
<!-- Node7 -->
<g id="Node000007" class="node">
<title>Node7</title>
<g id="a_Node000007"><a xlink:href="ComponentArray_8hpp.html" target="_top" xlink:title=" ">
<polygon fill="white" stroke="#666666" points="398.25,-468 290.75,-468 290.75,-448 398.25,-448 398.25,-468"/>
<text text-anchor="middle" x="344.5" y="-454.5" font-family="Helvetica,sans-Serif" font-size="10.00">ComponentArray.hpp</text>
</a>
</g>
</g>
<!-- Node1&#45;&gt;Node7 -->
<g id="edge7_Node000001_Node000007" class="edge">
<title>Node1&#45;&gt;Node7</title>
<g id="a_edge7_Node000001_Node000007"><a xlink:title=" ">
<path fill="none" stroke="#63b8ff" d="M433.12,-498.88C411.83,-489.3 384.26,-476.89 365.57,-468.48"/>
<polygon fill="#63b8ff" stroke="#63b8ff" points="431.66,-502.06 442.22,-502.97 434.53,-495.68 431.66,-502.06"/>
</a>
</g>
</g>
<!-- Node9 -->
<g id="Node000009" class="node">
<title>Node9</title>
<g id="a_Node000009"><a xlink:href="ComponentManager_8hpp.html" target="_top" xlink:title=" ">
<polygon fill="white" stroke="#666666" points="421.75,-412 299.25,-412 299.25,-392 421.75,-392 421.75,-412"/>
<text text-anchor="middle" x="360.5" y="-398.5" font-family="Helvetica,sans-Serif" font-size="10.00">ComponentManager.hpp</text>
</a>
</g>
</g>
<!-- Node1&#45;&gt;Node9 -->
<g id="edge46_Node000001_Node000009" class="edge">
<title>Node1&#45;&gt;Node9</title>
<g id="a_edge46_Node000001_Node000009"><a xlink:title=" ">
<path fill="none" stroke="#63b8ff" d="M449.34,-494.87C438.08,-481.61 422.2,-463.36 407.5,-448 395.31,-435.27 380.53,-421.34 370.83,-412.41"/>
<polygon fill="#63b8ff" stroke="#63b8ff" points="446.53,-496.97 455.66,-502.36 451.88,-492.46 446.53,-496.97"/>
</a>
</g>
</g>
<!-- Node12 -->
<g id="Node000012" class="node">
<title>Node12</title>
<g id="a_Node000012"><a xlink:href="ComponentRegistry_8hpp.html" target="_top" xlink:title=" ">
<polygon fill="white" stroke="#666666" points="257,-300 136,-300 136,-280 257,-280 257,-300"/>
<text text-anchor="middle" x="196.5" y="-286.5" font-family="Helvetica,sans-Serif" font-size="10.00">ComponentRegistry.hpp</text>
</a>
</g>
</g>
<!-- Node1&#45;&gt;Node12 -->
<g id="edge47_Node000001_Node000012" class="edge">
<title>Node1&#45;&gt;Node12</title>
<g id="a_edge47_Node000001_Node000012"><a xlink:title=" ">
<path fill="none" stroke="#63b8ff" d="M423.51,-513.9C355.04,-512.86 219.47,-499.25 164.5,-412 141.22,-375.05 174.22,-321.53 189.48,-300.24"/>
<polygon fill="#63b8ff" stroke="#63b8ff" points="423.16,-517.4 433.18,-513.96 423.2,-510.4 423.16,-517.4"/>
</a>
</g>
</g>
<!-- Node13 -->
<g id="Node000013" class="node">
<title>Node13</title>
<g id="a_Node000013"><a xlink:href="NetworkManager_8hpp.html" target="_top" xlink:title=" ">
<polygon fill="white" stroke="#666666" points="486,-244 377,-244 377,-224 486,-224 486,-244"/>
<text text-anchor="middle" x="431.5" y="-230.5" font-family="Helvetica,sans-Serif" font-size="10.00">NetworkManager.hpp</text>
</a>
</g>
</g>
<!-- Node1&#45;&gt;Node13 -->
<g id="edge51_Node000001_Node000013" class="edge">
<title>Node1&#45;&gt;Node13</title>
<g id="a_edge51_Node000001_Node000013"><a xlink:title=" ">
<path fill="none" stroke="#63b8ff" d="M423.19,-512.13C368.72,-509.65 270.85,-500.59 194.5,-468 150.11,-449.05 107.5,-451.27 107.5,-403 107.5,-403 107.5,-403 107.5,-345 107.5,-314.9 103.8,-299.77 126.5,-280 162.88,-248.32 299.24,-238.94 376.75,-236.17"/>
<polygon fill="#63b8ff" stroke="#63b8ff" points="422.81,-515.61 432.94,-512.51 423.09,-508.62 422.81,-515.61"/>
</a>
</g>
</g>
<!-- Node23 -->
<g id="Node000023" class="node">
<title>Node23</title>
<g id="a_Node000023"><a xlink:href="EntityManager_8hpp.html" target="_top" xlink:title=" ">
<polygon fill="white" stroke="#666666" points="552.38,-468 454.62,-468 454.62,-448 552.38,-448 552.38,-468"/>
<text text-anchor="middle" x="503.5" y="-454.5" font-family="Helvetica,sans-Serif" font-size="10.00">EntityManager.hpp</text>
</a>
</g>
</g>
<!-- Node1&#45;&gt;Node23 -->
<g id="edge48_Node000001_Node000023" class="edge">
<title>Node1&#45;&gt;Node23</title>
<g id="a_edge48_Node000001_Node000023"><a xlink:title=" ">
<path fill="none" stroke="#63b8ff" d="M477.91,-494.44C484.27,-485.62 491.61,-475.47 496.78,-468.3"/>
<polygon fill="#63b8ff" stroke="#63b8ff" points="475.2,-492.21 472.18,-502.37 480.87,-496.31 475.2,-492.21"/>
</a>
</g>
</g>
<!-- Node25 -->
<g id="Node000025" class="node">
<title>Node25</title>
<g id="a_Node000025"><a xlink:href="System_8hpp.html" target="_top" xlink:title=" ">
<polygon fill="white" stroke="#666666" points="799.75,-468 731.25,-468 731.25,-448 799.75,-448 799.75,-468"/>
<text text-anchor="middle" x="765.5" y="-454.5" font-family="Helvetica,sans-Serif" font-size="10.00">System.hpp</text>
</a>
</g>
</g>
<!-- Node1&#45;&gt;Node25 -->
<g id="edge52_Node000001_Node000025" class="edge">
<title>Node1&#45;&gt;Node25</title>
<g id="a_edge52_Node000001_Node000025"><a xlink:title=" ">
<path fill="none" stroke="#63b8ff" d="M506.03,-505.55C565.94,-494.8 675.53,-475.14 731.15,-465.16"/>
<polygon fill="#63b8ff" stroke="#63b8ff" points="505.45,-502.1 496.23,-507.31 506.69,-508.99 505.45,-502.1"/>
</a>
</g>
</g>
<!-- Node3 -->
<g id="Node000003" class="node">
<title>Node3</title>
<g id="a_Node000003"><a xlink:href="GameTypes_8cpp.html" target="_top" xlink:title=" ">
<polygon fill="white" stroke="#666666" points="399.12,-20 311.88,-20 311.88,0 399.12,0 399.12,-20"/>
<text text-anchor="middle" x="355.5" y="-6.5" font-family="Helvetica,sans-Serif" font-size="10.00">GameTypes.cpp</text>
</a>
</g>
</g>
<!-- Node2&#45;&gt;Node3 -->
<g id="edge2_Node000002_Node000003" class="edge">
<title>Node2&#45;&gt;Node3</title>
<g id="a_edge2_Node000002_Node000003"><a xlink:title=" ">
<path fill="none" stroke="#63b8ff" d="M869.53,-161.08C831.73,-134.57 751.06,-81.75 674.5,-56 579.87,-24.18 462.11,-14.85 399.49,-12.13"/>
<polygon fill="#63b8ff" stroke="#63b8ff" points="867.19,-163.71 877.37,-166.65 871.24,-158 867.19,-163.71"/>
</a>
</g>
</g>
<!-- Node4 -->
<g id="Node000004" class="node">
<title>Node4</title>
<g id="a_Node000004"><a xlink:href="GameTypes_8hpp.html" target="_top" xlink:title=" ">
<polygon fill="white" stroke="#666666" points="588.12,-76 500.88,-76 500.88,-56 588.12,-56 588.12,-76"/>
<text text-anchor="middle" x="544.5" y="-62.5" font-family="Helvetica,sans-Serif" font-size="10.00">GameTypes.hpp</text>
</a>
</g>
</g>
<!-- Node2&#45;&gt;Node4 -->
<g id="edge3_Node000002_Node000004" class="edge">
<title>Node2&#45;&gt;Node4</title>
<g id="a_edge3_Node000002_Node000004"><a xlink:title=" ">
<path fill="none" stroke="#63b8ff" d="M872.94,-159.89C855.55,-144.85 828.14,-123.59 800.5,-112 729.96,-82.42 640.61,-72.28 588.27,-68.81"/>
<polygon fill="#63b8ff" stroke="#63b8ff" points="870.58,-162.48 880.38,-166.5 875.23,-157.25 870.58,-162.48"/>
</a>
</g>
</g>
<!-- Node2&#45;&gt;Node6 -->
<g id="edge6_Node000002_Node000006" class="edge">
<title>Node2&#45;&gt;Node6</title>
<g id="a_edge6_Node000002_Node000006"><a xlink:title=" ">
<path fill="none" stroke="#63b8ff" d="M845.9,-164.63C807.31,-154.15 753.23,-139.48 720.66,-130.64"/>
<polygon fill="#63b8ff" stroke="#63b8ff" points="844.81,-167.96 855.38,-167.2 846.64,-161.2 844.81,-167.96"/>
</a>
</g>
</g>
<!-- Node4&#45;&gt;Node3 -->
<g id="edge4_Node000004_Node000003" class="edge">
<title>Node4&#45;&gt;Node3</title>
<g id="a_edge4_Node000004_Node000003"><a xlink:title=" ">
<path fill="none" stroke="#63b8ff" d="M500.51,-52.43C466.36,-42.67 419.74,-29.35 388.68,-20.48"/>
<polygon fill="#63b8ff" stroke="#63b8ff" points="499.55,-55.8 510.12,-55.18 501.47,-49.07 499.55,-55.8"/>
</a>
</g>
</g>
<!-- Node5 -->
<g id="Node000005" class="node">
<title>Node5</title>
<g id="a_Node000005"><a xlink:href="Client_2src_2main_8cpp.html" target="_top" xlink:title=" ">
<polygon fill="white" stroke="#666666" points="572.38,-20 516.62,-20 516.62,0 572.38,0 572.38,-20"/>
<text text-anchor="middle" x="544.5" y="-6.5" font-family="Helvetica,sans-Serif" font-size="10.00">main.cpp</text>
</a>
</g>
</g>
<!-- Node4&#45;&gt;Node5 -->
<g id="edge5_Node000004_Node000005" class="edge">
<title>Node4&#45;&gt;Node5</title>
<g id="a_edge5_Node000004_Node000005"><a xlink:title=" ">
<path fill="none" stroke="#63b8ff" d="M544.5,-44.13C544.5,-35.9 544.5,-26.85 544.5,-20.3"/>
<polygon fill="#63b8ff" stroke="#63b8ff" points="541,-44.08 544.5,-54.08 548,-44.08 541,-44.08"/>
</a>
</g>
</g>
<!-- Node8 -->
<g id="Node000008" class="node">
<title>Node8</title>
<g id="a_Node000008"><a xlink:href="ComponentArray_8cpp.html" target="_top" xlink:title=" ">
<polygon fill="white" stroke="#666666" points="281.25,-412 173.75,-412 173.75,-392 281.25,-392 281.25,-412"/>
<text text-anchor="middle" x="227.5" y="-398.5" font-family="Helvetica,sans-Serif" font-size="10.00">ComponentArray.cpp</text>
</a>
</g>
</g>
<!-- Node7&#45;&gt;Node8 -->
<g id="edge8_Node000007_Node000008" class="edge">
<title>Node7&#45;&gt;Node8</title>
<g id="a_edge8_Node000007_Node000008"><a xlink:title=" ">
<path fill="none" stroke="#63b8ff" d="M313.9,-442.88C293.14,-433.3 266.26,-420.89 248.04,-412.48"/>
<polygon fill="#63b8ff" stroke="#63b8ff" points="312.2,-445.95 322.75,-446.96 315.13,-439.59 312.2,-445.95"/>
</a>
</g>
</g>
<!-- Node7&#45;&gt;Node9 -->
<g id="edge9_Node000007_Node000009" class="edge">
<title>Node7&#45;&gt;Node9</title>
<g id="a_edge9_Node000007_Node000009"><a xlink:title=" ">
<path fill="none" stroke="#63b8ff" d="M350.51,-436.71C353,-428.32 355.76,-419.01 357.74,-412.3"/>
<polygon fill="#63b8ff" stroke="#63b8ff" points="347.2,-435.56 347.72,-446.14 353.91,-437.55 347.2,-435.56"/>
</a>
</g>
</g>
<!-- Node10 -->
<g id="Node000010" class="node">
<title>Node10</title>
<g id="a_Node000010"><a xlink:href="ComponentManager_8cpp.html" target="_top" xlink:title=" ">
<polygon fill="white" stroke="#666666" points="421.75,-356 299.25,-356 299.25,-336 421.75,-336 421.75,-356"/>
<text text-anchor="middle" x="360.5" y="-342.5" font-family="Helvetica,sans-Serif" font-size="10.00">ComponentManager.cpp</text>
</a>
</g>
</g>
<!-- Node9&#45;&gt;Node10 -->
<g id="edge10_Node000009_Node000010" class="edge">
<title>Node9&#45;&gt;Node10</title>
<g id="a_edge10_Node000009_Node000010"><a xlink:title=" ">
<path fill="none" stroke="#63b8ff" d="M360.5,-380.13C360.5,-371.9 360.5,-362.85 360.5,-356.3"/>
<polygon fill="#63b8ff" stroke="#63b8ff" points="357,-380.08 360.5,-390.08 364,-380.08 357,-380.08"/>
</a>
</g>
</g>
<!-- Node11 -->
<g id="Node000011" class="node">
<title>Node11</title>
<g id="a_Node000011"><a xlink:href="Mediator_8hpp.html" target="_top" xlink:title=" ">
<polygon fill="white" stroke="#666666" points="572.62,-356 500.38,-356 500.38,-336 572.62,-336 572.62,-356"/>
<text text-anchor="middle" x="536.5" y="-342.5" font-family="Helvetica,sans-Serif" font-size="10.00">Mediator.hpp</text>
</a>
</g>
</g>
<!-- Node9&#45;&gt;Node11 -->
<g id="edge11_Node000009_Node000011" class="edge">
<title>Node9&#45;&gt;Node11</title>
<g id="a_edge11_Node000009_Node000011"><a xlink:title=" ">
<path fill="none" stroke="#63b8ff" d="M401.88,-388.31C433.64,-378.56 476.8,-365.32 505.6,-356.48"/>
<polygon fill="#63b8ff" stroke="#63b8ff" points="401.14,-384.87 392.6,-391.15 403.19,-391.56 401.14,-384.87"/>
</a>
</g>
</g>
<!-- Node11&#45;&gt;Node3 -->
<g id="edge35_Node000011_Node000003" class="edge">
<title>Node11&#45;&gt;Node3</title>
<g id="a_edge35_Node000011_Node000003"><a xlink:title=" ">
<path fill="none" stroke="#63b8ff" d="M488.86,-336.7C449.92,-329.21 393.79,-316.79 346.5,-300 292.55,-280.85 275.31,-279.63 230.5,-244 205.51,-224.13 196.1,-218.12 185.5,-188 178.26,-167.45 192.23,-118.43 196.5,-112 228.22,-64.17 291.18,-34.45 327.63,-20.49"/>
<polygon fill="#63b8ff" stroke="#63b8ff" points="488.15,-340.13 498.62,-338.54 489.44,-333.25 488.15,-340.13"/>
</a>
</g>
</g>
<!-- Node11&#45;&gt;Node4 -->
<g id="edge36_Node000011_Node000004" class="edge">
<title>Node11&#45;&gt;Node4</title>
<g id="a_edge36_Node000011_Node000004"><a xlink:title=" ">
<path fill="none" stroke="#63b8ff" d="M584.08,-336.62C672.78,-318.47 850.77,-268.79 808.5,-168 773.81,-85.3 654.11,-69.2 588.45,-66.76"/>
<polygon fill="#63b8ff" stroke="#63b8ff" points="583.57,-333.15 574.44,-338.53 584.93,-340.02 583.57,-333.15"/>
</a>
</g>
</g>
<!-- Node11&#45;&gt;Node6 -->
<g id="edge45_Node000011_Node000006" class="edge">
<title>Node11&#45;&gt;Node6</title>
<g id="a_edge45_Node000011_Node000006"><a xlink:title=" ">
<path fill="none" stroke="#63b8ff" d="M558.14,-328.91C591.01,-303.16 652.83,-249.29 682.5,-188 691.36,-169.71 692.73,-145.43 692.75,-132.33"/>
<polygon fill="#63b8ff" stroke="#63b8ff" points="556.3,-325.91 550.51,-334.78 560.57,-331.46 556.3,-325.91"/>
</a>
</g>
</g>
<!-- Node11&#45;&gt;Node12 -->
<g id="edge12_Node000011_Node000012" class="edge">
<title>Node11&#45;&gt;Node12</title>
<g id="a_edge12_Node000011_Node000012"><a xlink:title=" ">
<path fill="none" stroke="#63b8ff" d="M488.92,-337.44C428.02,-327.77 322.49,-311.01 256.24,-300.49"/>
<polygon fill="#63b8ff" stroke="#63b8ff" points="488.19,-340.87 498.62,-338.98 489.29,-333.96 488.19,-340.87"/>
</a>
</g>
</g>
<!-- Node11&#45;&gt;Node13 -->
<g id="edge38_Node000011_Node000013" class="edge">
<title>Node11&#45;&gt;Node13</title>
<g id="a_edge38_Node000011_Node000013"><a xlink:title=" ">
<path fill="none" stroke="#63b8ff" d="M524.28,-326.34C514.99,-312.79 501.45,-294.39 487.5,-280 474.13,-266.21 456.58,-252.73 444.72,-244.17"/>
<polygon fill="#63b8ff" stroke="#63b8ff" points="521.18,-327.99 529.66,-334.35 526.99,-324.09 521.18,-327.99"/>
</a>
</g>
</g>
<!-- Node16 -->
<g id="Node000016" class="node">
<title>Node16</title>
<g id="a_Node000016"><a xlink:href="PlayerControl_8hpp.html" target="_top" xlink:title=" ">
<polygon fill="white" stroke="#666666" points="591.5,-188 497.5,-188 497.5,-168 591.5,-168 591.5,-188"/>
<text text-anchor="middle" x="544.5" y="-174.5" font-family="Helvetica,sans-Serif" font-size="10.00">PlayerControl.hpp</text>
</a>
</g>
</g>
<!-- Node11&#45;&gt;Node16 -->
<g id="edge43_Node000011_Node000016" class="edge">
<title>Node11&#45;&gt;Node16</title>
<g id="a_edge43_Node000011_Node000016"><a xlink:title=" ">
<path fill="none" stroke="#63b8ff" d="M537.49,-324.5C539.23,-288.27 542.8,-214.31 544.05,-188.3"/>
<polygon fill="#63b8ff" stroke="#63b8ff" points="534.01,-323.93 537.03,-334.09 541,-324.27 534.01,-323.93"/>
</a>
</g>
</g>
<!-- Node18 -->
<g id="Node000018" class="node">
<title>Node18</title>
<g id="a_Node000018"><a xlink:href="Render_8hpp.html" target="_top" xlink:title=" ">
<polygon fill="white" stroke="#666666" points="271.62,-132 205.38,-132 205.38,-112 271.62,-112 271.62,-132"/>
<text text-anchor="middle" x="238.5" y="-118.5" font-family="Helvetica,sans-Serif" font-size="10.00">Render.hpp</text>
</a>
</g>
</g>
<!-- Node11&#45;&gt;Node18 -->
<g id="edge44_Node000011_Node000018" class="edge">
<title>Node11&#45;&gt;Node18</title>
<g id="a_edge44_Node000011_Node000018"><a xlink:title=" ">
<path fill="none" stroke="#63b8ff" d="M490.41,-332.44C462.96,-324.38 427.7,-313 397.5,-300 349.82,-279.47 218.98,-232.65 192.5,-188 180.23,-167.31 205.89,-144.72 223.59,-132.37"/>
<polygon fill="#63b8ff" stroke="#63b8ff" points="489.24,-335.74 499.82,-335.15 491.19,-329.02 489.24,-335.74"/>
</a>
</g>
</g>
<!-- Node21 -->
<g id="Node000021" class="node">
<title>Node21</title>
<g id="a_Node000021"><a xlink:href="Mediator_8cpp.html" target="_top" xlink:title=" ">
<polygon fill="white" stroke="#666666" points="478.62,-300 406.38,-300 406.38,-280 478.62,-280 478.62,-300"/>
<text text-anchor="middle" x="442.5" y="-286.5" font-family="Helvetica,sans-Serif" font-size="10.00">Mediator.cpp</text>
</a>
</g>
</g>
<!-- Node11&#45;&gt;Node21 -->
<g id="edge37_Node000011_Node000021" class="edge">
<title>Node11&#45;&gt;Node21</title>
<g id="a_edge37_Node000011_Node000021"><a xlink:title=" ">
<path fill="none" stroke="#63b8ff" d="M510.53,-330.08C494.06,-320.62 473.24,-308.66 459,-300.48"/>
<polygon fill="#63b8ff" stroke="#63b8ff" points="508.4,-332.89 518.81,-334.84 511.89,-326.82 508.4,-332.89"/>
</a>
</g>
</g>
<!-- Node22 -->
<g id="Node000022" class="node">
<title>Node22</title>
<g id="a_Node000022"><a xlink:href="Physics_8hpp.html" target="_top" xlink:title=" ">
<polygon fill="white" stroke="#666666" points="799.5,-188 729.5,-188 729.5,-168 799.5,-168 799.5,-188"/>
<text text-anchor="middle" x="764.5" y="-174.5" font-family="Helvetica,sans-Serif" font-size="10.00">Physics.hpp</text>
</a>
</g>
</g>
<!-- Node11&#45;&gt;Node22 -->
<g id="edge39_Node000011_Node000022" class="edge">
<title>Node11&#45;&gt;Node22</title>
<g id="a_edge39_Node000011_Node000022"><a xlink:title=" ">
<path fill="none" stroke="#63b8ff" d="M584.22,-336.41C610.33,-329.84 642.05,-318.64 665.5,-300 696.78,-275.14 687.59,-254.41 713.5,-224 725.14,-210.34 740.94,-197.03 751.85,-188.48"/>
<polygon fill="#63b8ff" stroke="#63b8ff" points="583.45,-332.99 574.51,-338.68 585.05,-339.81 583.45,-332.99"/>
</a>
</g>
</g>
<!-- Node12&#45;&gt;Node13 -->
<g id="edge13_Node000012_Node000013" class="edge">
<title>Node12&#45;&gt;Node13</title>
<g id="a_edge13_Node000012_Node000013"><a xlink:title=" ">
<path fill="none" stroke="#63b8ff" d="M248.72,-277C291.42,-267.19 350.97,-253.51 390.34,-244.46"/>
<polygon fill="#63b8ff" stroke="#63b8ff" points="248.14,-273.54 239.18,-279.19 249.71,-280.36 248.14,-273.54"/>
</a>
</g>
</g>
<!-- Node13&#45;&gt;Node2 -->
<g id="edge14_Node000013_Node000002" class="edge">
<title>Node13&#45;&gt;Node2</title>
<g id="a_edge14_Node000013_Node000002"><a xlink:title=" ">
<path fill="none" stroke="#63b8ff" d="M497.35,-225.27C595.73,-213.72 777.75,-192.35 855.15,-183.27"/>
<polygon fill="#63b8ff" stroke="#63b8ff" points="497.1,-221.77 487.58,-226.42 497.92,-228.73 497.1,-221.77"/>
</a>
</g>
</g>
<!-- Node13&#45;&gt;Node4 -->
<g id="edge19_Node000013_Node000004" class="edge">
<title>Node13&#45;&gt;Node4</title>
<g id="a_edge19_Node000013_Node000004"><a xlink:title=" ">
<path fill="none" stroke="#63b8ff" d="M438.76,-213.03C443.96,-199.79 451.6,-182.3 460.5,-168 483.4,-131.21 518.58,-93.4 535.19,-76.34"/>
<polygon fill="#63b8ff" stroke="#63b8ff" points="435.49,-211.77 435.23,-222.36 442.04,-214.24 435.49,-211.77"/>
</a>
</g>
</g>
<!-- Node13&#45;&gt;Node6 -->
<g id="edge34_Node000013_Node000006" class="edge">
<title>Node13&#45;&gt;Node6</title>
<g id="a_edge34_Node000013_Node000006"><a xlink:title=" ">
<path fill="none" stroke="#63b8ff" d="M442.86,-214.54C452.99,-199.67 469.19,-179.42 488.5,-168 544.85,-134.68 623.15,-125.98 664.44,-123.74"/>
<polygon fill="#63b8ff" stroke="#63b8ff" points="440.18,-212.24 437.67,-222.53 446.05,-216.05 440.18,-212.24"/>
</a>
</g>
</g>
<!-- Node14 -->
<g id="Node000014" class="node">
<title>Node14</title>
<g id="a_Node000014"><a xlink:href="Enemy_8hpp.html" target="_top" xlink:title=" ">
<polygon fill="white" stroke="#666666" points="673.88,-188 609.12,-188 609.12,-168 673.88,-168 673.88,-188"/>
<text text-anchor="middle" x="641.5" y="-174.5" font-family="Helvetica,sans-Serif" font-size="10.00">Enemy.hpp</text>
</a>
</g>
</g>
<!-- Node13&#45;&gt;Node14 -->
<g id="edge15_Node000013_Node000014" class="edge">
<title>Node13&#45;&gt;Node14</title>
<g id="a_edge15_Node000013_Node000014"><a xlink:title=" ">
<path fill="none" stroke="#63b8ff" d="M479.06,-220.77C518.66,-210.59 574.01,-196.36 608.79,-187.41"/>
<polygon fill="#63b8ff" stroke="#63b8ff" points="478.36,-217.34 469.55,-223.22 480.1,-224.12 478.36,-217.34"/>
</a>
</g>
</g>
<!-- Node15 -->
<g id="Node000015" class="node">
<title>Node15</title>
<g id="a_Node000015"><a xlink:href="NetworkManager_8cpp.html" target="_top" xlink:title=" ">
<polygon fill="white" stroke="#666666" points="403,-188 294,-188 294,-168 403,-168 403,-188"/>
<text text-anchor="middle" x="348.5" y="-174.5" font-family="Helvetica,sans-Serif" font-size="10.00">NetworkManager.cpp</text>
</a>
</g>
</g>
<!-- Node13&#45;&gt;Node15 -->
<g id="edge20_Node000013_Node000015" class="edge">
<title>Node13&#45;&gt;Node15</title>
<g id="a_edge20_Node000013_Node000015"><a xlink:title=" ">
<path fill="none" stroke="#63b8ff" d="M407.74,-217.54C393.33,-208.17 375.41,-196.51 363.07,-188.48"/>
<polygon fill="#63b8ff" stroke="#63b8ff" points="405.48,-220.25 415.77,-222.77 409.3,-214.38 405.48,-220.25"/>
</a>
</g>
</g>
<!-- Node13&#45;&gt;Node16 -->
<g id="edge21_Node000013_Node000016" class="edge">
<title>Node13&#45;&gt;Node16</title>
<g id="a_edge21_Node000013_Node000016"><a xlink:title=" ">
<path fill="none" stroke="#63b8ff" d="M461.33,-218.75C481.34,-209.18 507.14,-196.85 524.66,-188.48"/>
<polygon fill="#63b8ff" stroke="#63b8ff" points="460.06,-215.47 452.55,-222.94 463.08,-221.79 460.06,-215.47"/>
</a>
</g>
</g>
<!-- Node17 -->
<g id="Node000017" class="node">
<title>Node17</title>
<g id="a_Node000017"><a xlink:href="Renderer_8hpp.html" target="_top" xlink:title=" ">
<polygon fill="white" stroke="#666666" points="275.75,-188 201.25,-188 201.25,-168 275.75,-168 275.75,-188"/>
<text text-anchor="middle" x="238.5" y="-174.5" font-family="Helvetica,sans-Serif" font-size="10.00">Renderer.hpp</text>
</a>
</g>
</g>
<!-- Node13&#45;&gt;Node17 -->
<g id="edge25_Node000013_Node000017" class="edge">
<title>Node13&#45;&gt;Node17</title>
<g id="a_edge25_Node000013_Node000017"><a xlink:title=" ">
<path fill="none" stroke="#63b8ff" d="M387.04,-220.56C352.12,-210.79 304.24,-197.39 272.38,-188.48"/>
<polygon fill="#63b8ff" stroke="#63b8ff" points="385.85,-223.86 396.42,-223.19 387.74,-217.12 385.85,-223.86"/>
</a>
</g>
</g>
<!-- Node20 -->
<g id="Node000020" class="node">
<title>Node20</title>
<g id="a_Node000020"><a xlink:href="SFML_8cpp.html" target="_top" xlink:title=" ">
<polygon fill="white" stroke="#666666" points="61,-76 0,-76 0,-56 61,-56 61,-76"/>
<text text-anchor="middle" x="30.5" y="-62.5" font-family="Helvetica,sans-Serif" font-size="10.00">SFML.cpp</text>
</a>
</g>
</g>
<!-- Node13&#45;&gt;Node20 -->
<g id="edge33_Node000013_Node000020" class="edge">
<title>Node13&#45;&gt;Node20</title>
<g id="a_edge33_Node000013_Node000020"><a xlink:title=" ">
<path fill="none" stroke="#63b8ff" d="M365.61,-224.98C266.14,-211.44 84.84,-180.65 43.5,-132 29.94,-116.04 29.09,-89.92 29.73,-76.15"/>
<polygon fill="#63b8ff" stroke="#63b8ff" points="364.85,-228.41 375.23,-226.27 365.78,-221.47 364.85,-228.41"/>
</a>
</g>
</g>
<!-- Node14&#45;&gt;Node3 -->
<g id="edge16_Node000014_Node000003" class="edge">
<title>Node14&#45;&gt;Node3</title>
<g id="a_edge16_Node000014_Node000003"><a xlink:title=" ">
<path fill="none" stroke="#63b8ff" d="M615.44,-161.87C557.35,-128.16 418.68,-47.67 371.52,-20.3"/>
<polygon fill="#63b8ff" stroke="#63b8ff" points="613.59,-164.85 623.99,-166.84 617.1,-158.79 613.59,-164.85"/>
</a>
</g>
</g>
<!-- Node14&#45;&gt;Node4 -->
<g id="edge17_Node000014_Node000004" class="edge">
<title>Node14&#45;&gt;Node4</title>
<g id="a_edge17_Node000014_Node000004"><a xlink:title=" ">
<path fill="none" stroke="#63b8ff" d="M625.82,-159.22C604.98,-135.58 568.91,-94.68 552.75,-76.35"/>
<polygon fill="#63b8ff" stroke="#63b8ff" points="622.99,-161.3 632.23,-166.49 628.24,-156.67 622.99,-161.3"/>
</a>
</g>
</g>
<!-- Node14&#45;&gt;Node6 -->
<g id="edge18_Node000014_Node000006" class="edge">
<title>Node14&#45;&gt;Node6</title>
<g id="a_edge18_Node000014_Node000006"><a xlink:title=" ">
<path fill="none" stroke="#63b8ff" d="M658.23,-159.29C666.74,-150.28 676.73,-139.7 683.72,-132.3"/>
<polygon fill="#63b8ff" stroke="#63b8ff" points="655.74,-156.82 651.42,-166.49 660.83,-161.63 655.74,-156.82"/>
</a>
</g>
</g>
<!-- Node16&#45;&gt;Node3 -->
<g id="edge22_Node000016_Node000003" class="edge">
<title>Node16&#45;&gt;Node3</title>
<g id="a_edge22_Node000016_Node000003"><a xlink:title=" ">
<path fill="none" stroke="#63b8ff" d="M485.92,-175.87C450.27,-172 406.53,-161.01 379.5,-132 349.86,-100.2 352.14,-42.75 354.35,-20.32"/>
<polygon fill="#63b8ff" stroke="#63b8ff" points="485.39,-179.34 495.67,-176.76 486.03,-172.37 485.39,-179.34"/>
</a>
</g>
</g>
<!-- Node16&#45;&gt;Node4 -->
<g id="edge23_Node000016_Node000004" class="edge">
<title>Node16&#45;&gt;Node4</title>
<g id="a_edge23_Node000016_Node000004"><a xlink:title=" ">
<path fill="none" stroke="#63b8ff" d="M544.5,-156.31C544.5,-132.36 544.5,-93.95 544.5,-76.35"/>
<polygon fill="#63b8ff" stroke="#63b8ff" points="541,-156.11 544.5,-166.11 548,-156.11 541,-156.11"/>
</a>
</g>
</g>
<!-- Node16&#45;&gt;Node6 -->
<g id="edge24_Node000016_Node000006" class="edge">
<title>Node16&#45;&gt;Node6</title>
<g id="a_edge24_Node000016_Node000006"><a xlink:title=" ">
<path fill="none" stroke="#63b8ff" d="M581.06,-163.66C607.58,-153.98 642.83,-141.12 666.52,-132.48"/>
<polygon fill="#63b8ff" stroke="#63b8ff" points="579.9,-160.36 571.7,-167.08 582.3,-166.94 579.9,-160.36"/>
</a>
</g>
</g>
<!-- Node17&#45;&gt;Node4 -->
<g id="edge26_Node000017_Node000004" class="edge">
<title>Node17&#45;&gt;Node4</title>
<g id="a_edge26_Node000017_Node000004"><a xlink:title=" ">
<path fill="none" stroke="#63b8ff" d="M274.78,-163.73C310.92,-150.54 368,-129.76 417.5,-112 452.07,-99.6 492,-85.48 517.72,-76.42"/>
<polygon fill="#63b8ff" stroke="#63b8ff" points="273.88,-160.33 265.69,-167.05 276.28,-166.91 273.88,-160.33"/>
</a>
</g>
</g>
<!-- Node17&#45;&gt;Node18 -->
<g id="edge27_Node000017_Node000018" class="edge">
<title>Node17&#45;&gt;Node18</title>
<g id="a_edge27_Node000017_Node000018"><a xlink:title=" ">
<path fill="none" stroke="#63b8ff" d="M238.5,-156.13C238.5,-147.9 238.5,-138.85 238.5,-132.3"/>
<polygon fill="#63b8ff" stroke="#63b8ff" points="235,-156.08 238.5,-166.08 242,-156.08 235,-156.08"/>
</a>
</g>
</g>
<!-- Node19 -->
<g id="Node000019" class="node">
<title>Node19</title>
<g id="a_Node000019"><a xlink:href="SFML_8hpp.html" target="_top" xlink:title=" ">
<polygon fill="white" stroke="#666666" points="114,-132 53,-132 53,-112 114,-112 114,-132"/>
<text text-anchor="middle" x="83.5" y="-118.5" font-family="Helvetica,sans-Serif" font-size="10.00">SFML.hpp</text>
</a>
</g>
</g>
<!-- Node17&#45;&gt;Node19 -->
<g id="edge30_Node000017_Node000019" class="edge">
<title>Node17&#45;&gt;Node19</title>
<g id="a_edge30_Node000017_Node000019"><a xlink:title=" ">
<path fill="none" stroke="#63b8ff" d="M200.96,-163.92C173.09,-154.21 135.74,-141.2 110.71,-132.48"/>
<polygon fill="#63b8ff" stroke="#63b8ff" points="199.48,-167.11 210.07,-167.1 201.78,-160.5 199.48,-167.11"/>
</a>
</g>
</g>
<!-- Node18&#45;&gt;Node3 -->
<g id="edge28_Node000018_Node000003" class="edge">
<title>Node18&#45;&gt;Node3</title>
<g id="a_edge28_Node000018_Node000003"><a xlink:title=" ">
<path fill="none" stroke="#63b8ff" d="M255.55,-103.27C268.47,-90.01 286.79,-71.55 303.5,-56 317.14,-43.31 333.46,-29.38 344.14,-20.43"/>
<polygon fill="#63b8ff" stroke="#63b8ff" points="253.05,-100.82 248.6,-110.44 258.08,-105.69 253.05,-100.82"/>
</a>
</g>
</g>
<!-- Node18&#45;&gt;Node4 -->
<g id="edge29_Node000018_Node000004" class="edge">
<title>Node18&#45;&gt;Node4</title>
<g id="a_edge29_Node000018_Node000004"><a xlink:title=" ">
<path fill="none" stroke="#63b8ff" d="M283.17,-113.12C341.39,-102.84 442.59,-84.98 500.48,-74.77"/>
<polygon fill="#63b8ff" stroke="#63b8ff" points="282.85,-109.62 273.61,-114.8 284.07,-116.51 282.85,-109.62"/>
</a>
</g>
</g>
<!-- Node19&#45;&gt;Node3 -->
<g id="edge31_Node000019_Node000003" class="edge">
<title>Node19&#45;&gt;Node3</title>
<g id="a_edge31_Node000019_Node000003"><a xlink:title=" ">
<path fill="none" stroke="#63b8ff" d="M91.91,-101.59C99.36,-86.75 111.67,-67.04 128.5,-56 184.27,-19.42 263.16,-11.36 311.74,-10.21"/>
<polygon fill="#63b8ff" stroke="#63b8ff" points="88.86,-99.84 87.81,-110.38 95.2,-102.8 88.86,-99.84"/>
</a>
</g>
</g>
<!-- Node19&#45;&gt;Node20 -->
<g id="edge32_Node000019_Node000020" class="edge">
<title>Node19&#45;&gt;Node20</title>
<g id="a_edge32_Node000019_Node000020"><a xlink:title=" ">
<path fill="none" stroke="#63b8ff" d="M66.39,-103.57C57.49,-94.5 46.97,-83.78 39.63,-76.3"/>
<polygon fill="#63b8ff" stroke="#63b8ff" points="63.71,-105.83 73.21,-110.51 68.7,-100.93 63.71,-105.83"/>
</a>
</g>
</g>
<!-- Node22&#45;&gt;Node3 -->
<g id="edge40_Node000022_Node000003" class="edge">
<title>Node22&#45;&gt;Node3</title>
<g id="a_edge40_Node000022_Node000003"><a xlink:title=" ">
<path fill="none" stroke="#63b8ff" d="M765.37,-156.39C764.87,-142.34 761.95,-124.16 751.5,-112 705.61,-58.58 492.8,-27.28 399.51,-15.91"/>
<polygon fill="#63b8ff" stroke="#63b8ff" points="761.87,-156.29 765.3,-166.32 768.87,-156.34 761.87,-156.29"/>
</a>
</g>
</g>
<!-- Node22&#45;&gt;Node4 -->
<g id="edge41_Node000022_Node000004" class="edge">
<title>Node22&#45;&gt;Node4</title>
<g id="a_edge41_Node000022_Node000004"><a xlink:title=" ">
<path fill="none" stroke="#63b8ff" d="M758.62,-156.96C753.32,-142.37 744.08,-123.26 729.5,-112 688.69,-80.48 628.92,-70.66 588.45,-67.8"/>
<polygon fill="#63b8ff" stroke="#63b8ff" points="755.29,-158.02 761.71,-166.45 761.94,-155.86 755.29,-158.02"/>
</a>
</g>
</g>
<!-- Node22&#45;&gt;Node6 -->
<g id="edge42_Node000022_Node000006" class="edge">
<title>Node22&#45;&gt;Node6</title>
<g id="a_edge42_Node000022_Node000006"><a xlink:title=" ">
<path fill="none" stroke="#63b8ff" d="M743.11,-160.95C730.65,-151.61 715.39,-140.16 704.9,-132.3"/>
<polygon fill="#63b8ff" stroke="#63b8ff" points="740.65,-163.49 750.75,-166.69 744.85,-157.89 740.65,-163.49"/>
</a>
</g>
</g>
<!-- Node23&#45;&gt;Node11 -->
<g id="edge50_Node000023_Node000011" class="edge">
<title>Node23&#45;&gt;Node11</title>
<g id="a_edge50_Node000023_Node000011"><a xlink:title=" ">
<path fill="none" stroke="#63b8ff" d="M525.49,-440.28C533.72,-432.66 542.13,-422.9 546.5,-412 554.06,-393.14 546.27,-369.08 540.83,-356.17"/>
<polygon fill="#63b8ff" stroke="#63b8ff" points="523.32,-437.53 517.98,-446.67 527.86,-442.85 523.32,-437.53"/>
</a>
</g>
</g>
<!-- Node24 -->
<g id="Node000024" class="node">
<title>Node24</title>
<g id="a_Node000024"><a xlink:href="EntityManager_8cpp.html" target="_top" xlink:title=" ">
<polygon fill="white" stroke="#666666" points="537.38,-412 439.62,-412 439.62,-392 537.38,-392 537.38,-412"/>
<text text-anchor="middle" x="488.5" y="-398.5" font-family="Helvetica,sans-Serif" font-size="10.00">EntityManager.cpp</text>
</a>
</g>
</g>
<!-- Node23&#45;&gt;Node24 -->
<g id="edge49_Node000023_Node000024" class="edge">
<title>Node23&#45;&gt;Node24</title>
<g id="a_edge49_Node000023_Node000024"><a xlink:title=" ">
<path fill="none" stroke="#63b8ff" d="M497.87,-436.71C495.53,-428.32 492.95,-419.01 491.08,-412.3"/>
<polygon fill="#63b8ff" stroke="#63b8ff" points="494.43,-437.44 500.48,-446.14 501.18,-435.56 494.43,-437.44"/>
</a>
</g>
</g>
<!-- Node25&#45;&gt;Node2 -->
<g id="edge53_Node000025_Node000002" class="edge">
<title>Node25&#45;&gt;Node2</title>
<g id="a_edge53_Node000025_Node000002"><a xlink:title=" ">
<path fill="none" stroke="#63b8ff" d="M797.96,-442.65C831.66,-425.29 879.5,-392.61 879.5,-347 879.5,-347 879.5,-347 879.5,-289 879.5,-251.54 886.46,-207.32 889.78,-188.38"/>
<polygon fill="#63b8ff" stroke="#63b8ff" points="796.81,-439.32 789.38,-446.88 799.9,-445.6 796.81,-439.32"/>
</a>
</g>
</g>
<!-- Node25&#45;&gt;Node14 -->
<g id="edge54_Node000025_Node000014" class="edge">
<title>Node25&#45;&gt;Node14</title>
<g id="a_edge54_Node000025_Node000014"><a xlink:title=" ">
<path fill="none" stroke="#63b8ff" d="M776.6,-437.6C787.82,-416.15 803.5,-380.23 803.5,-347 803.5,-347 803.5,-347 803.5,-289 803.5,-258.2 801.69,-245.35 779.5,-224 750.9,-196.48 705.26,-185.79 674.37,-181.64"/>
<polygon fill="#63b8ff" stroke="#63b8ff" points="773.56,-435.88 771.83,-446.34 779.7,-439.24 773.56,-435.88"/>
</a>
</g>
</g>
<!-- Node25&#45;&gt;Node16 -->
<g id="edge56_Node000025_Node000016" class="edge">
<title>Node25&#45;&gt;Node16</title>
<g id="a_edge56_Node000025_Node000016"><a xlink:title=" ">
<path fill="none" stroke="#63b8ff" d="M765.5,-436.32C765.5,-414.22 765.5,-378.13 765.5,-347 765.5,-347 765.5,-347 765.5,-289 765.5,-247.86 641.19,-206.55 579.03,-188.47"/>
<polygon fill="#63b8ff" stroke="#63b8ff" points="762,-436.07 765.5,-446.07 769,-436.07 762,-436.07"/>
</a>
</g>
</g>
<!-- Node25&#45;&gt;Node18 -->
<g id="edge57_Node000025_Node000018" class="edge">
<title>Node25&#45;&gt;Node18</title>
<g id="a_edge57_Node000025_Node000018"><a xlink:title=" ">
<path fill="none" stroke="#63b8ff" d="M722.38,-444.31C693.86,-435.71 655.74,-423.79 622.5,-412 579.25,-396.66 474.99,-347.24 430.5,-336 364.54,-319.34 171.69,-350.85 126.5,-300 75.66,-242.78 184.15,-159.99 224.33,-132.36"/>
<polygon fill="#63b8ff" stroke="#63b8ff" points="721.16,-447.6 731.74,-447.12 723.17,-440.9 721.16,-447.6"/>
</a>
</g>
</g>
<!-- Node25&#45;&gt;Node22 -->
<g id="edge55_Node000025_Node000022" class="edge">
<title>Node25&#45;&gt;Node22</title>
<g id="a_edge55_Node000025_Node000022"><a xlink:title=" ">
<path fill="none" stroke="#63b8ff" d="M788.68,-441.08C798.66,-433.28 809.77,-423.16 817.5,-412 835.03,-386.68 841.5,-377.8 841.5,-347 841.5,-347 841.5,-347 841.5,-289 841.5,-258.2 835.15,-249.24 817.5,-224 807.26,-209.36 791.15,-196.61 779.37,-188.45"/>
<polygon fill="#63b8ff" stroke="#63b8ff" points="786.78,-438.14 780.83,-446.91 790.95,-443.76 786.78,-438.14"/>
</a>
</g>
</g>
<!-- Node26 -->
<g id="Node000026" class="node">
<title>Node26</title>
<g id="a_Node000026"><a xlink:href="SystemManager_8hpp.html" target="_top" xlink:title=" ">
<polygon fill="white" stroke="#666666" points="737.5,-412 631.5,-412 631.5,-392 737.5,-392 737.5,-412"/>
<text text-anchor="middle" x="684.5" y="-398.5" font-family="Helvetica,sans-Serif" font-size="10.00">SystemManager.hpp</text>
</a>
</g>
</g>
<!-- Node25&#45;&gt;Node26 -->
<g id="edge58_Node000025_Node000026" class="edge">
<title>Node25&#45;&gt;Node26</title>
<g id="a_edge58_Node000025_Node000026"><a xlink:title=" ">
<path fill="none" stroke="#63b8ff" d="M741.91,-441.27C727.91,-431.94 710.64,-420.43 698.72,-412.48"/>
<polygon fill="#63b8ff" stroke="#63b8ff" points="739.87,-444.12 750.13,-446.75 743.75,-438.3 739.87,-444.12"/>
</a>
</g>
</g>
<!-- Node26&#45;&gt;Node11 -->
<g id="edge59_Node000026_Node000011" class="edge">
<title>Node26&#45;&gt;Node11</title>
<g id="a_edge59_Node000026_Node000011"><a xlink:title=" ">
<path fill="none" stroke="#63b8ff" d="M647.94,-387.66C621.42,-377.98 586.17,-365.12 562.48,-356.48"/>
<polygon fill="#63b8ff" stroke="#63b8ff" points="646.7,-390.94 657.3,-391.08 649.1,-384.36 646.7,-390.94"/>
</a>
</g>
</g>
<!-- Node27 -->
<g id="Node000027" class="node">
<title>Node27</title>
<g id="a_Node000027"><a xlink:href="SystemManager_8cpp.html" target="_top" xlink:title=" ">
<polygon fill="white" stroke="#666666" points="737.5,-356 631.5,-356 631.5,-336 737.5,-336 737.5,-356"/>
<text text-anchor="middle" x="684.5" y="-342.5" font-family="Helvetica,sans-Serif" font-size="10.00">SystemManager.cpp</text>
</a>
</g>
</g>
<!-- Node26&#45;&gt;Node27 -->
<g id="edge60_Node000026_Node000027" class="edge">
<title>Node26&#45;&gt;Node27</title>
<g id="a_edge60_Node000026_Node000027"><a xlink:title=" ">
<path fill="none" stroke="#63b8ff" d="M684.5,-380.13C684.5,-371.9 684.5,-362.85 684.5,-356.3"/>
<polygon fill="#63b8ff" stroke="#63b8ff" points="681,-380.08 684.5,-390.08 688,-380.08 681,-380.08"/>
</a>
</g>
</g>
</g>
</svg>
