<?xml version="1.0" encoding="UTF-8" standalone="no"?>
<!DOCTYPE svg PUBLIC "-//W3C//DTD SVG 1.1//EN"
 "http://www.w3.org/Graphics/SVG/1.1/DTD/svg11.dtd">
<!-- Generated by graphviz version 12.1.0 (20240811.2233)
 -->
<!-- Title: Entity.hpp Pages: 1 -->
<svg width="1202pt" height="532pt"
 viewBox="0.00 0.00 1202.12 532.00" xmlns="http://www.w3.org/2000/svg" xmlns:xlink="http://www.w3.org/1999/xlink">
<g id="graph0" class="graph" transform="scale(1 1) rotate(0) translate(4 528)">
<title>Entity.hpp</title>
<!-- Node1 -->
<g id="Node000001" class="node">
<title>Node1</title>
<g id="a_Node000001"><a xlink:title=" ">
<polygon fill="#999999" stroke="#666666" points="433.75,-524 374.25,-524 374.25,-504 433.75,-504 433.75,-524"/>
<text text-anchor="middle" x="404" y="-510.5" font-family="Helvetica,sans-Serif" font-size="10.00">Entity.hpp</text>
</a>
</g>
</g>
<!-- Node2 -->
<g id="Node000002" class="node">
<title>Node2</title>
<g id="a_Node000002"><a xlink:href="Collision_8hpp.html" target="_top" xlink:title=" ">
<polygon fill="white" stroke="#666666" points="1194.12,-188 1121.88,-188 1121.88,-168 1194.12,-168 1194.12,-188"/>
<text text-anchor="middle" x="1158" y="-174.5" font-family="Helvetica,sans-Serif" font-size="10.00">Collision.hpp</text>
</a>
</g>
</g>
<!-- Node1&#45;&gt;Node2 -->
<g id="edge1_Node000001_Node000002" class="edge">
<title>Node1&#45;&gt;Node2</title>
<g id="a_edge1_Node000001_Node000002"><a xlink:title=" ">
<path fill="none" stroke="#63b8ff" d="M445.55,-511.49C563.25,-506.98 897.29,-492.32 1004,-468 1081.25,-450.4 1170,-482.23 1170,-403 1170,-403 1170,-403 1170,-289 1170,-251.54 1163.04,-207.32 1159.72,-188.38"/>
<polygon fill="#63b8ff" stroke="#63b8ff" points="445.58,-507.99 435.72,-511.87 445.84,-514.99 445.58,-507.99"/>
</a>
</g>
</g>
<!-- Node3 -->
<g id="Node000003" class="node">
<title>Node3</title>
<g id="a_Node000003"><a xlink:href="GameTypes_8cpp.html" target="_top" xlink:title=" ">
<polygon fill="white" stroke="#666666" points="783.62,-20 696.38,-20 696.38,0 783.62,0 783.62,-20"/>
<text text-anchor="middle" x="740" y="-6.5" font-family="Helvetica,sans-Serif" font-size="10.00">GameTypes.cpp</text>
</a>
</g>
</g>
<!-- Node1&#45;&gt;Node3 -->
<g id="edge65_Node000001_Node000003" class="edge">
<title>Node1&#45;&gt;Node3</title>
<g id="a_edge65_Node000001_Node000003"><a xlink:title=" ">
<path fill="none" stroke="#63b8ff" d="M362.59,-513.56C300.38,-513 180.17,-506.44 87,-468 42.38,-449.59 0,-451.27 0,-403 0,-403 0,-403 0,-121 0,-53.61 71.85,-73.24 137,-56 242.67,-28.03 575.45,-15.79 695.92,-12.19"/>
<polygon fill="#63b8ff" stroke="#63b8ff" points="362.35,-517.06 372.36,-513.59 362.37,-510.06 362.35,-517.06"/>
</a>
</g>
</g>
<!-- Node7 -->
<g id="Node000007" class="node">
<title>Node7</title>
<g id="a_Node000007"><a xlink:href="Server_8cpp.html" target="_top" xlink:title=" ">
<polygon fill="white" stroke="#666666" points="292.62,-76 229.38,-76 229.38,-56 292.62,-56 292.62,-76"/>
<text text-anchor="middle" x="261" y="-62.5" font-family="Helvetica,sans-Serif" font-size="10.00">Server.cpp</text>
</a>
</g>
</g>
<!-- Node1&#45;&gt;Node7 -->
<g id="edge69_Node000001_Node000007" class="edge">
<title>Node1&#45;&gt;Node7</title>
<g id="a_edge69_Node000001_Node000007"><a xlink:title=" ">
<path fill="none" stroke="#63b8ff" d="M362.57,-512.52C308.87,-510.46 213.41,-501.83 140,-468 99.02,-449.12 62,-448.13 62,-403 62,-403 62,-403 62,-345 62,-264.98 49.54,-233.85 95,-168 128.45,-119.56 193.42,-90.23 231.41,-76.46"/>
<polygon fill="#63b8ff" stroke="#63b8ff" points="362.39,-516.02 372.5,-512.84 362.61,-509.02 362.39,-516.02"/>
</a>
</g>
</g>
<!-- Node9 -->
<g id="Node000009" class="node">
<title>Node9</title>
<g id="a_Node000009"><a xlink:href="ComponentArray_8hpp.html" target="_top" xlink:title=" ">
<polygon fill="white" stroke="#666666" points="337.75,-468 230.25,-468 230.25,-448 337.75,-448 337.75,-468"/>
<text text-anchor="middle" x="284" y="-454.5" font-family="Helvetica,sans-Serif" font-size="10.00">ComponentArray.hpp</text>
</a>
</g>
</g>
<!-- Node1&#45;&gt;Node9 -->
<g id="edge9_Node000001_Node000009" class="edge">
<title>Node1&#45;&gt;Node9</title>
<g id="a_edge9_Node000001_Node000009"><a xlink:title=" ">
<path fill="none" stroke="#63b8ff" d="M372.62,-498.88C351.33,-489.3 323.76,-476.89 305.07,-468.48"/>
<polygon fill="#63b8ff" stroke="#63b8ff" points="371.16,-502.06 381.72,-502.97 374.03,-495.68 371.16,-502.06"/>
</a>
</g>
</g>
<!-- Node11 -->
<g id="Node000011" class="node">
<title>Node11</title>
<g id="a_Node000011"><a xlink:href="ComponentManager_8hpp.html" target="_top" xlink:title=" ">
<polygon fill="white" stroke="#666666" points="376.25,-412 253.75,-412 253.75,-392 376.25,-392 376.25,-412"/>
<text text-anchor="middle" x="315" y="-398.5" font-family="Helvetica,sans-Serif" font-size="10.00">ComponentManager.hpp</text>
</a>
</g>
</g>
<!-- Node1&#45;&gt;Node11 -->
<g id="edge60_Node000001_Node000011" class="edge">
<title>Node1&#45;&gt;Node11</title>
<g id="a_edge60_Node000001_Node000011"><a xlink:title=" ">
<path fill="none" stroke="#63b8ff" d="M389.36,-494.9C370.2,-471.22 337.33,-430.6 322.57,-412.35"/>
<polygon fill="#63b8ff" stroke="#63b8ff" points="386.45,-496.87 395.46,-502.44 391.89,-492.47 386.45,-496.87"/>
</a>
</g>
</g>
<!-- Node14 -->
<g id="Node000014" class="node">
<title>Node14</title>
<g id="a_Node000014"><a xlink:href="ComponentRegistry_8hpp.html" target="_top" xlink:title=" ">
<polygon fill="white" stroke="#666666" points="249.5,-300 128.5,-300 128.5,-280 249.5,-280 249.5,-300"/>
<text text-anchor="middle" x="189" y="-286.5" font-family="Helvetica,sans-Serif" font-size="10.00">ComponentRegistry.hpp</text>
</a>
</g>
</g>
<!-- Node1&#45;&gt;Node14 -->
<g id="edge61_Node000001_Node000014" class="edge">
<title>Node1&#45;&gt;Node14</title>
<g id="a_edge61_Node000001_Node000014"><a xlink:title=" ">
<path fill="none" stroke="#63b8ff" d="M408.58,-492.83C415.52,-456.57 424.09,-380.04 385,-336 375.61,-325.43 299.62,-310.21 245.07,-300.47"/>
<polygon fill="#63b8ff" stroke="#63b8ff" points="405.2,-491.88 406.58,-502.38 412.05,-493.31 405.2,-491.88"/>
</a>
</g>
</g>
<!-- Node15 -->
<g id="Node000015" class="node">
<title>Node15</title>
<g id="a_Node000015"><a xlink:href="NetworkManager_8hpp.html" target="_top" xlink:title=" ">
<polygon fill="white" stroke="#666666" points="484.5,-244 375.5,-244 375.5,-224 484.5,-224 484.5,-244"/>
<text text-anchor="middle" x="430" y="-230.5" font-family="Helvetica,sans-Serif" font-size="10.00">NetworkManager.hpp</text>
</a>
</g>
</g>
<!-- Node1&#45;&gt;Node15 -->
<g id="edge67_Node000001_Node000015" class="edge">
<title>Node1&#45;&gt;Node15</title>
<g id="a_edge67_Node000001_Node000015"><a xlink:title=" ">
<path fill="none" stroke="#63b8ff" d="M445.35,-511.36C511.56,-506.27 634,-485.68 634,-403 634,-403 634,-403 634,-345 634,-277.1 545.36,-250.92 484.94,-240.96"/>
<polygon fill="#63b8ff" stroke="#63b8ff" points="445.32,-507.85 435.58,-512.01 445.79,-514.83 445.32,-507.85"/>
</a>
</g>
</g>
<!-- Node18 -->
<g id="Node000018" class="node">
<title>Node18</title>
<g id="a_Node000018"><a xlink:href="NetworkManager_8cpp.html" target="_top" xlink:title=" ">
<polygon fill="white" stroke="#666666" points="213.5,-188 104.5,-188 104.5,-168 213.5,-168 213.5,-188"/>
<text text-anchor="middle" x="159" y="-174.5" font-family="Helvetica,sans-Serif" font-size="10.00">NetworkManager.cpp</text>
</a>
</g>
</g>
<!-- Node1&#45;&gt;Node18 -->
<g id="edge66_Node000001_Node000018" class="edge">
<title>Node1&#45;&gt;Node18</title>
<g id="a_edge66_Node000001_Node000018"><a xlink:title=" ">
<path fill="none" stroke="#63b8ff" d="M362.73,-506.93C279.63,-493.54 100,-458.22 100,-403 100,-403 100,-403 100,-345 100,-281.99 138.2,-212.9 153.13,-188.31"/>
<polygon fill="#63b8ff" stroke="#63b8ff" points="362.1,-510.37 372.52,-508.47 363.19,-503.46 362.1,-510.37"/>
</a>
</g>
</g>
<!-- Node26 -->
<g id="Node000026" class="node">
<title>Node26</title>
<g id="a_Node000026"><a xlink:href="PhysicsEngine_8hpp.html" target="_top" xlink:title=" ">
<polygon fill="white" stroke="#666666" points="838,-300 738,-300 738,-280 838,-280 838,-300"/>
<text text-anchor="middle" x="788" y="-286.5" font-family="Helvetica,sans-Serif" font-size="10.00">PhysicsEngine.hpp</text>
</a>
</g>
</g>
<!-- Node1&#45;&gt;Node26 -->
<g id="edge68_Node000001_Node000026" class="edge">
<title>Node1&#45;&gt;Node26</title>
<g id="a_edge68_Node000001_Node000026"><a xlink:title=" ">
<path fill="none" stroke="#63b8ff" d="M445.4,-509.99C506.55,-504.79 617.15,-492.27 648,-468 698.51,-428.28 663.57,-383.37 707,-336 722,-319.64 744.37,-307.84 761.8,-300.44"/>
<polygon fill="#63b8ff" stroke="#63b8ff" points="445.41,-506.48 435.73,-510.78 445.98,-513.45 445.41,-506.48"/>
</a>
</g>
</g>
<!-- Node29 -->
<g id="Node000029" class="node">
<title>Node29</title>
<g id="a_Node000029"><a xlink:href="EntityManager_8hpp.html" target="_top" xlink:title=" ">
<polygon fill="white" stroke="#666666" points="529.88,-468 432.12,-468 432.12,-448 529.88,-448 529.88,-468"/>
<text text-anchor="middle" x="481" y="-454.5" font-family="Helvetica,sans-Serif" font-size="10.00">EntityManager.hpp</text>
</a>
</g>
</g>
<!-- Node1&#45;&gt;Node29 -->
<g id="edge62_Node000001_Node000029" class="edge">
<title>Node1&#45;&gt;Node29</title>
<g id="a_edge62_Node000001_Node000029"><a xlink:title=" ">
<path fill="none" stroke="#63b8ff" d="M426.82,-497C440.05,-487.72 456.26,-476.35 467.48,-468.48"/>
<polygon fill="#63b8ff" stroke="#63b8ff" points="424.83,-494.12 418.65,-502.72 428.85,-499.85 424.83,-494.12"/>
</a>
</g>
</g>
<!-- Node31 -->
<g id="Node000031" class="node">
<title>Node31</title>
<g id="a_Node000031"><a xlink:href="System_8hpp.html" target="_top" xlink:title=" ">
<polygon fill="white" stroke="#666666" points="995.25,-468 926.75,-468 926.75,-448 995.25,-448 995.25,-468"/>
<text text-anchor="middle" x="961" y="-454.5" font-family="Helvetica,sans-Serif" font-size="10.00">System.hpp</text>
</a>
</g>
</g>
<!-- Node1&#45;&gt;Node31 -->
<g id="edge70_Node000001_Node000031" class="edge">
<title>Node1&#45;&gt;Node31</title>
<g id="a_edge70_Node000001_Node000031"><a xlink:title=" ">
<path fill="none" stroke="#63b8ff" d="M445.36,-508.99C550.87,-498.76 828.58,-471.84 926.35,-462.36"/>
<polygon fill="#63b8ff" stroke="#63b8ff" points="445.07,-505.5 435.45,-509.95 445.74,-512.47 445.07,-505.5"/>
</a>
</g>
</g>
<!-- Node2&#45;&gt;Node3 -->
<g id="edge2_Node000002_Node000003" class="edge">
<title>Node2&#45;&gt;Node3</title>
<g id="a_edge2_Node000002_Node000003"><a xlink:title=" ">
<path fill="none" stroke="#63b8ff" d="M1161.55,-156.91C1162.91,-143.37 1162.62,-125.57 1155,-112 1133.21,-73.2 1113.58,-71.85 1072,-56 1020.23,-36.27 861.66,-20.98 783.91,-14.46"/>
<polygon fill="#63b8ff" stroke="#63b8ff" points="1158.14,-156.01 1160.21,-166.4 1165.07,-156.99 1158.14,-156.01"/>
</a>
</g>
</g>
<!-- Node4 -->
<g id="Node000004" class="node">
<title>Node4</title>
<g id="a_Node000004"><a xlink:href="GameTypes_8hpp.html" target="_top" xlink:title=" ">
<polygon fill="white" stroke="#666666" points="935.62,-76 848.38,-76 848.38,-56 935.62,-56 935.62,-76"/>
<text text-anchor="middle" x="892" y="-62.5" font-family="Helvetica,sans-Serif" font-size="10.00">GameTypes.hpp</text>
</a>
</g>
</g>
<!-- Node2&#45;&gt;Node4 -->
<g id="edge3_Node000002_Node000004" class="edge">
<title>Node2&#45;&gt;Node4</title>
<g id="a_edge3_Node000002_Node000004"><a xlink:title=" ">
<path fill="none" stroke="#63b8ff" d="M1157.44,-156.55C1155.91,-142.03 1151.43,-123.2 1139,-112 1109.73,-85.63 998.66,-74.07 935.89,-69.54"/>
<polygon fill="#63b8ff" stroke="#63b8ff" points="1153.94,-156.63 1158.06,-166.39 1160.93,-156.19 1153.94,-156.63"/>
</a>
</g>
</g>
<!-- Node6 -->
<g id="Node000006" class="node">
<title>Node6</title>
<g id="a_Node000006"><a xlink:href="Server_8hpp.html" target="_top" xlink:title=" ">
<polygon fill="white" stroke="#666666" points="869.62,-132 806.38,-132 806.38,-112 869.62,-112 869.62,-132"/>
<text text-anchor="middle" x="838" y="-118.5" font-family="Helvetica,sans-Serif" font-size="10.00">Server.hpp</text>
</a>
</g>
</g>
<!-- Node2&#45;&gt;Node6 -->
<g id="edge6_Node000002_Node000006" class="edge">
<title>Node2&#45;&gt;Node6</title>
<g id="a_edge6_Node000002_Node000006"><a xlink:title=" ">
<path fill="none" stroke="#63b8ff" d="M1110.28,-168.95C1044.19,-157.79 926.56,-137.95 870.05,-128.41"/>
<polygon fill="#63b8ff" stroke="#63b8ff" points="1109.67,-172.39 1120.11,-170.61 1110.83,-165.49 1109.67,-172.39"/>
</a>
</g>
</g>
<!-- Node4&#45;&gt;Node3 -->
<g id="edge4_Node000004_Node000003" class="edge">
<title>Node4&#45;&gt;Node3</title>
<g id="a_edge4_Node000004_Node000003"><a xlink:title=" ">
<path fill="none" stroke="#63b8ff" d="M854.82,-51.79C827.53,-42.1 791.12,-29.16 766.68,-20.48"/>
<polygon fill="#63b8ff" stroke="#63b8ff" points="853.5,-55.04 864.1,-55.09 855.85,-48.44 853.5,-55.04"/>
</a>
</g>
</g>
<!-- Node5 -->
<g id="Node000005" class="node">
<title>Node5</title>
<g id="a_Node000005"><a xlink:href="Client_2src_2main_8cpp.html" target="_top" xlink:title=" ">
<polygon fill="white" stroke="#666666" points="919.88,-20 864.12,-20 864.12,0 919.88,0 919.88,-20"/>
<text text-anchor="middle" x="892" y="-6.5" font-family="Helvetica,sans-Serif" font-size="10.00">main.cpp</text>
</a>
</g>
</g>
<!-- Node4&#45;&gt;Node5 -->
<g id="edge5_Node000004_Node000005" class="edge">
<title>Node4&#45;&gt;Node5</title>
<g id="a_edge5_Node000004_Node000005"><a xlink:title=" ">
<path fill="none" stroke="#63b8ff" d="M892,-44.13C892,-35.9 892,-26.85 892,-20.3"/>
<polygon fill="#63b8ff" stroke="#63b8ff" points="888.5,-44.08 892,-54.08 895.5,-44.08 888.5,-44.08"/>
</a>
</g>
</g>
<!-- Node6&#45;&gt;Node7 -->
<g id="edge7_Node000006_Node000007" class="edge">
<title>Node6&#45;&gt;Node7</title>
<g id="a_edge7_Node000006_Node000007"><a xlink:title=" ">
<path fill="none" stroke="#63b8ff" d="M794.82,-117.78C707.12,-111.11 501.87,-94.81 330,-76 317.87,-74.67 304.57,-72.99 292.91,-71.44"/>
<polygon fill="#63b8ff" stroke="#63b8ff" points="794.41,-121.26 804.65,-118.52 794.94,-114.28 794.41,-121.26"/>
</a>
</g>
</g>
<!-- Node8 -->
<g id="Node000008" class="node">
<title>Node8</title>
<g id="a_Node000008"><a xlink:href="Server_2src_2main_8cpp.html" target="_top" xlink:title=" ">
<polygon fill="white" stroke="#666666" points="829.88,-76 774.12,-76 774.12,-56 829.88,-56 829.88,-76"/>
<text text-anchor="middle" x="802" y="-62.5" font-family="Helvetica,sans-Serif" font-size="10.00">main.cpp</text>
</a>
</g>
</g>
<!-- Node6&#45;&gt;Node8 -->
<g id="edge8_Node000006_Node000008" class="edge">
<title>Node6&#45;&gt;Node8</title>
<g id="a_edge8_Node000006_Node000008"><a xlink:title=" ">
<path fill="none" stroke="#63b8ff" d="M825.43,-102.15C819.6,-93.4 812.93,-83.39 808.2,-76.3"/>
<polygon fill="#63b8ff" stroke="#63b8ff" points="822.43,-103.96 830.89,-110.33 828.25,-100.07 822.43,-103.96"/>
</a>
</g>
</g>
<!-- Node10 -->
<g id="Node000010" class="node">
<title>Node10</title>
<g id="a_Node000010"><a xlink:href="ComponentArray_8cpp.html" target="_top" xlink:title=" ">
<polygon fill="white" stroke="#666666" points="235.75,-412 128.25,-412 128.25,-392 235.75,-392 235.75,-412"/>
<text text-anchor="middle" x="182" y="-398.5" font-family="Helvetica,sans-Serif" font-size="10.00">ComponentArray.cpp</text>
</a>
</g>
</g>
<!-- Node9&#45;&gt;Node10 -->
<g id="edge10_Node000009_Node000010" class="edge">
<title>Node9&#45;&gt;Node10</title>
<g id="a_edge10_Node000009_Node000010"><a xlink:title=" ">
<path fill="none" stroke="#63b8ff" d="M256.07,-442.21C238.16,-432.73 215.43,-420.7 199.91,-412.48"/>
<polygon fill="#63b8ff" stroke="#63b8ff" points="254.42,-445.3 264.9,-446.89 257.7,-439.11 254.42,-445.3"/>
</a>
</g>
</g>
<!-- Node9&#45;&gt;Node11 -->
<g id="edge11_Node000009_Node000011" class="edge">
<title>Node9&#45;&gt;Node11</title>
<g id="a_edge11_Node000009_Node000011"><a xlink:title=" ">
<path fill="none" stroke="#63b8ff" d="M294.98,-437.87C299.97,-429.19 305.63,-419.32 309.66,-412.3"/>
<polygon fill="#63b8ff" stroke="#63b8ff" points="292.1,-435.87 290.15,-446.28 298.17,-439.35 292.1,-435.87"/>
</a>
</g>
</g>
<!-- Node12 -->
<g id="Node000012" class="node">
<title>Node12</title>
<g id="a_Node000012"><a xlink:href="ComponentManager_8cpp.html" target="_top" xlink:title=" ">
<polygon fill="white" stroke="#666666" points="376.25,-356 253.75,-356 253.75,-336 376.25,-336 376.25,-356"/>
<text text-anchor="middle" x="315" y="-342.5" font-family="Helvetica,sans-Serif" font-size="10.00">ComponentManager.cpp</text>
</a>
</g>
</g>
<!-- Node11&#45;&gt;Node12 -->
<g id="edge12_Node000011_Node000012" class="edge">
<title>Node11&#45;&gt;Node12</title>
<g id="a_edge12_Node000011_Node000012"><a xlink:title=" ">
<path fill="none" stroke="#63b8ff" d="M315,-380.13C315,-371.9 315,-362.85 315,-356.3"/>
<polygon fill="#63b8ff" stroke="#63b8ff" points="311.5,-380.08 315,-390.08 318.5,-380.08 311.5,-380.08"/>
</a>
</g>
</g>
<!-- Node13 -->
<g id="Node000013" class="node">
<title>Node13</title>
<g id="a_Node000013"><a xlink:href="Mediator_8hpp.html" target="_top" xlink:title=" ">
<polygon fill="white" stroke="#666666" points="504.12,-356 431.88,-356 431.88,-336 504.12,-336 504.12,-356"/>
<text text-anchor="middle" x="468" y="-342.5" font-family="Helvetica,sans-Serif" font-size="10.00">Mediator.hpp</text>
</a>
</g>
</g>
<!-- Node11&#45;&gt;Node13 -->
<g id="edge13_Node000011_Node000013" class="edge">
<title>Node11&#45;&gt;Node13</title>
<g id="a_edge13_Node000011_Node000013"><a xlink:title=" ">
<path fill="none" stroke="#63b8ff" d="M352.42,-387.79C379.89,-378.1 416.54,-365.16 441.14,-356.48"/>
<polygon fill="#63b8ff" stroke="#63b8ff" points="351.34,-384.46 343.08,-391.09 353.67,-391.06 351.34,-384.46"/>
</a>
</g>
</g>
<!-- Node13&#45;&gt;Node3 -->
<g id="edge45_Node000013_Node000003" class="edge">
<title>Node13&#45;&gt;Node3</title>
<g id="a_edge45_Node000013_Node000003"><a xlink:title=" ">
<path fill="none" stroke="#63b8ff" d="M428.57,-331.96C322.32,-296.54 38,-199.82 38,-179 38,-179 38,-179 38,-121 38,-115.28 -2.04,-104.13 220,-56 393.35,-18.42 605.64,-12 695.95,-11.06"/>
<polygon fill="#63b8ff" stroke="#63b8ff" points="427.42,-335.27 438.02,-335.1 429.63,-328.62 427.42,-335.27"/>
</a>
</g>
</g>
<!-- Node13&#45;&gt;Node4 -->
<g id="edge46_Node000013_Node000004" class="edge">
<title>Node13&#45;&gt;Node4</title>
<g id="a_edge46_Node000013_Node000004"><a xlink:title=" ">
<path fill="none" stroke="#63b8ff" d="M515.57,-332.77C542.27,-325.05 575.79,-313.9 604,-300 657.96,-273.41 659.98,-245.91 716,-224 766.02,-204.43 919.96,-228.71 955,-188 971.07,-169.33 919.44,-101.12 899.51,-76.2"/>
<polygon fill="#63b8ff" stroke="#63b8ff" points="514.71,-329.37 506.04,-335.46 516.61,-336.11 514.71,-329.37"/>
</a>
</g>
</g>
<!-- Node13&#45;&gt;Node6 -->
<g id="edge59_Node000013_Node000006" class="edge">
<title>Node13&#45;&gt;Node6</title>
<g id="a_edge59_Node000013_Node000006"><a xlink:title=" ">
<path fill="none" stroke="#63b8ff" d="M469.24,-324.72C471.12,-310.58 475.75,-292.13 487,-280 535.11,-228.13 568.23,-244.3 636,-224 705.41,-203.21 735.39,-229.18 795,-188 815.48,-173.85 828.74,-146.46 834.57,-132.17"/>
<polygon fill="#63b8ff" stroke="#63b8ff" points="465.8,-323.99 468.34,-334.27 472.77,-324.65 465.8,-323.99"/>
</a>
</g>
</g>
<!-- Node13&#45;&gt;Node7 -->
<g id="edge58_Node000013_Node000007" class="edge">
<title>Node13&#45;&gt;Node7</title>
<g id="a_edge58_Node000013_Node000007"><a xlink:title=" ">
<path fill="none" stroke="#63b8ff" d="M428.64,-331.47C411.57,-324.15 392.27,-313.75 378,-300 306.93,-231.54 272.06,-110.71 263.27,-76.35"/>
<polygon fill="#63b8ff" stroke="#63b8ff" points="426.93,-334.55 437.51,-335.06 429.55,-328.07 426.93,-334.55"/>
</a>
</g>
</g>
<!-- Node13&#45;&gt;Node14 -->
<g id="edge14_Node000013_Node000014" class="edge">
<title>Node13&#45;&gt;Node14</title>
<g id="a_edge14_Node000013_Node000014"><a xlink:title=" ">
<path fill="none" stroke="#63b8ff" d="M420.5,-335.81C369.56,-325.95 289.07,-310.37 237.68,-300.42"/>
<polygon fill="#63b8ff" stroke="#63b8ff" points="419.56,-339.19 430.04,-337.65 420.89,-332.32 419.56,-339.19"/>
</a>
</g>
</g>
<!-- Node13&#45;&gt;Node15 -->
<g id="edge48_Node000013_Node000015" class="edge">
<title>Node13&#45;&gt;Node15</title>
<g id="a_edge48_Node000013_Node000015"><a xlink:title=" ">
<path fill="none" stroke="#63b8ff" d="M441.43,-329.1C431.52,-321.64 421.38,-311.77 416,-300 407.46,-281.31 417.56,-257.19 424.51,-244.22"/>
<polygon fill="#63b8ff" stroke="#63b8ff" points="439.24,-331.84 449.45,-334.65 443.22,-326.09 439.24,-331.84"/>
</a>
</g>
</g>
<!-- Node19 -->
<g id="Node000019" class="node">
<title>Node19</title>
<g id="a_Node000019"><a xlink:href="PlayerControl_8hpp.html" target="_top" xlink:title=" ">
<polygon fill="white" stroke="#666666" points="946,-188 852,-188 852,-168 946,-168 946,-188"/>
<text text-anchor="middle" x="899" y="-174.5" font-family="Helvetica,sans-Serif" font-size="10.00">PlayerControl.hpp</text>
</a>
</g>
</g>
<!-- Node13&#45;&gt;Node19 -->
<g id="edge56_Node000013_Node000019" class="edge">
<title>Node13&#45;&gt;Node19</title>
<g id="a_edge56_Node000013_Node000019"><a xlink:title=" ">
<path fill="none" stroke="#63b8ff" d="M507.94,-331.73C529.17,-323.89 555.3,-312.96 577,-300 622.83,-272.63 621.7,-246.72 670,-224 686.22,-216.37 789.49,-197.78 851.67,-187.03"/>
<polygon fill="#63b8ff" stroke="#63b8ff" points="506.98,-328.35 498.76,-335.03 509.35,-334.94 506.98,-328.35"/>
</a>
</g>
</g>
<!-- Node22 -->
<g id="Node000022" class="node">
<title>Node22</title>
<g id="a_Node000022"><a xlink:href="Render_8hpp.html" target="_top" xlink:title=" ">
<polygon fill="white" stroke="#666666" points="530.12,-132 463.88,-132 463.88,-112 530.12,-112 530.12,-132"/>
<text text-anchor="middle" x="497" y="-118.5" font-family="Helvetica,sans-Serif" font-size="10.00">Render.hpp</text>
</a>
</g>
</g>
<!-- Node13&#45;&gt;Node22 -->
<g id="edge57_Node000013_Node000022" class="edge">
<title>Node13&#45;&gt;Node22</title>
<g id="a_edge57_Node000013_Node000022"><a xlink:title=" ">
<path fill="none" stroke="#63b8ff" d="M440.13,-329.86C406.82,-309.48 356.76,-270.37 367,-224 372.92,-197.2 373.34,-187.15 393,-168 412.45,-149.06 441.15,-137.46 463.48,-130.79"/>
<polygon fill="#63b8ff" stroke="#63b8ff" points="438.15,-332.75 448.54,-334.8 441.69,-326.72 438.15,-332.75"/>
</a>
</g>
</g>
<!-- Node25 -->
<g id="Node000025" class="node">
<title>Node25</title>
<g id="a_Node000025"><a xlink:href="Mediator_8cpp.html" target="_top" xlink:title=" ">
<polygon fill="white" stroke="#666666" points="568.12,-300 495.88,-300 495.88,-280 568.12,-280 568.12,-300"/>
<text text-anchor="middle" x="532" y="-286.5" font-family="Helvetica,sans-Serif" font-size="10.00">Mediator.cpp</text>
</a>
</g>
</g>
<!-- Node13&#45;&gt;Node25 -->
<g id="edge47_Node000013_Node000025" class="edge">
<title>Node13&#45;&gt;Node25</title>
<g id="a_edge47_Node000013_Node000025"><a xlink:title=" ">
<path fill="none" stroke="#63b8ff" d="M487.67,-328.4C498.62,-319.17 511.84,-308.01 520.98,-300.3"/>
<polygon fill="#63b8ff" stroke="#63b8ff" points="485.69,-325.49 480.3,-334.62 490.2,-330.84 485.69,-325.49"/>
</a>
</g>
</g>
<!-- Node13&#45;&gt;Node26 -->
<g id="edge49_Node000013_Node000026" class="edge">
<title>Node13&#45;&gt;Node26</title>
<g id="a_edge49_Node000013_Node000026"><a xlink:title=" ">
<path fill="none" stroke="#63b8ff" d="M515.74,-336.94C575.37,-326.88 676.94,-309.74 737.73,-299.48"/>
<polygon fill="#63b8ff" stroke="#63b8ff" points="515.17,-333.49 505.89,-338.61 516.33,-340.39 515.17,-333.49"/>
</a>
</g>
</g>
<!-- Node27 -->
<g id="Node000027" class="node">
<title>Node27</title>
<g id="a_Node000027"><a xlink:href="PhysicsUsingEngine_8hpp.html" target="_top" xlink:title=" ">
<polygon fill="white" stroke="#666666" points="850.75,-244 725.25,-244 725.25,-224 850.75,-224 850.75,-244"/>
<text text-anchor="middle" x="788" y="-230.5" font-family="Helvetica,sans-Serif" font-size="10.00">PhysicsUsingEngine.hpp</text>
</a>
</g>
</g>
<!-- Node13&#45;&gt;Node27 -->
<g id="edge55_Node000013_Node000027" class="edge">
<title>Node13&#45;&gt;Node27</title>
<g id="a_edge55_Node000013_Node000027"><a xlink:title=" ">
<path fill="none" stroke="#63b8ff" d="M515.5,-340.23C560.66,-334.55 629.83,-322.79 686,-300 721.61,-285.55 758.43,-258.54 776.53,-244.32"/>
<polygon fill="#63b8ff" stroke="#63b8ff" points="515.29,-336.73 505.78,-341.4 516.13,-343.68 515.29,-336.73"/>
</a>
</g>
</g>
<!-- Node28 -->
<g id="Node000028" class="node">
<title>Node28</title>
<g id="a_Node000028"><a xlink:href="PhysicsNoEngine_8hpp.html" target="_top" xlink:title=" ">
<polygon fill="white" stroke="#666666" points="758.38,-188 645.62,-188 645.62,-168 758.38,-168 758.38,-188"/>
<text text-anchor="middle" x="702" y="-174.5" font-family="Helvetica,sans-Serif" font-size="10.00">PhysicsNoEngine.hpp</text>
</a>
</g>
</g>
<!-- Node13&#45;&gt;Node28 -->
<g id="edge51_Node000013_Node000028" class="edge">
<title>Node13&#45;&gt;Node28</title>
<g id="a_edge51_Node000013_Node000028"><a xlink:title=" ">
<path fill="none" stroke="#63b8ff" d="M457.12,-325.54C451.14,-312.07 446.35,-294.11 454,-280 464.87,-259.95 519.21,-233.38 540,-224 576.45,-207.55 620.28,-195.81 653.16,-188.46"/>
<polygon fill="#63b8ff" stroke="#63b8ff" points="453.88,-326.88 461.49,-334.25 460.13,-323.74 453.88,-326.88"/>
</a>
</g>
</g>
<!-- Node14&#45;&gt;Node15 -->
<g id="edge15_Node000014_Node000015" class="edge">
<title>Node14&#45;&gt;Node15</title>
<g id="a_edge15_Node000014_Node000015"><a xlink:title=" ">
<path fill="none" stroke="#63b8ff" d="M242.27,-277.06C286.08,-267.25 347.33,-253.52 387.79,-244.46"/>
<polygon fill="#63b8ff" stroke="#63b8ff" points="241.72,-273.6 232.73,-279.2 243.26,-280.43 241.72,-273.6"/>
</a>
</g>
</g>
<!-- Node15&#45;&gt;Node2 -->
<g id="edge16_Node000015_Node000002" class="edge">
<title>Node15&#45;&gt;Node2</title>
<g id="a_edge16_Node000015_Node000002"><a xlink:title=" ">
<path fill="none" stroke="#63b8ff" d="M496.07,-229.23C612.94,-222.37 863.73,-206.82 1075,-188 1090.3,-186.64 1107.16,-184.86 1121.67,-183.24"/>
<polygon fill="#63b8ff" stroke="#63b8ff" points="496.14,-225.72 486.36,-229.8 496.55,-232.71 496.14,-225.72"/>
</a>
</g>
</g>
<!-- Node15&#45;&gt;Node4 -->
<g id="edge24_Node000015_Node000004" class="edge">
<title>Node15&#45;&gt;Node4</title>
<g id="a_edge24_Node000015_Node000004"><a xlink:title=" ">
<path fill="none" stroke="#63b8ff" d="M466.05,-219.73C527.08,-197.3 654.72,-150.56 763,-112 798.08,-99.51 838.65,-85.41 864.78,-76.38"/>
<polygon fill="#63b8ff" stroke="#63b8ff" points="465.04,-216.37 456.86,-223.11 467.46,-222.94 465.04,-216.37"/>
</a>
</g>
</g>
<!-- Node15&#45;&gt;Node6 -->
<g id="edge44_Node000015_Node000006" class="edge">
<title>Node15&#45;&gt;Node6</title>
<g id="a_edge44_Node000015_Node000006"><a xlink:title=" ">
<path fill="none" stroke="#63b8ff" d="M496.12,-226.32C587.27,-216.79 743.02,-199.2 767,-188 794.86,-174.99 819.35,-147.1 830.92,-132.44"/>
<polygon fill="#63b8ff" stroke="#63b8ff" points="495.89,-222.83 486.31,-227.34 496.61,-229.79 495.89,-222.83"/>
</a>
</g>
</g>
<!-- Node15&#45;&gt;Node7 -->
<g id="edge43_Node000015_Node000007" class="edge">
<title>Node15&#45;&gt;Node7</title>
<g id="a_edge43_Node000015_Node000007"><a xlink:title=" ">
<path fill="none" stroke="#63b8ff" d="M399.91,-218.29C385.47,-210.43 368.44,-199.92 355,-188 314.99,-152.53 279.86,-98.17 266.61,-76.44"/>
<polygon fill="#63b8ff" stroke="#63b8ff" points="398.05,-221.27 408.53,-222.82 401.31,-215.07 398.05,-221.27"/>
</a>
</g>
</g>
<!-- Node16 -->
<g id="Node000016" class="node">
<title>Node16</title>
<g id="a_Node000016"><a xlink:href="DevConsole_8hpp.html" target="_top" xlink:title=" ">
<polygon fill="white" stroke="#666666" points="674.38,-132 585.62,-132 585.62,-112 674.38,-112 674.38,-132"/>
<text text-anchor="middle" x="630" y="-118.5" font-family="Helvetica,sans-Serif" font-size="10.00">DevConsole.hpp</text>
</a>
</g>
</g>
<!-- Node15&#45;&gt;Node16 -->
<g id="edge17_Node000015_Node000016" class="edge">
<title>Node15&#45;&gt;Node16</title>
<g id="a_edge17_Node000015_Node000016"><a xlink:title=" ">
<path fill="none" stroke="#63b8ff" d="M457.09,-218.1C498.98,-195.06 578.27,-151.45 612.99,-132.35"/>
<polygon fill="#63b8ff" stroke="#63b8ff" points="455.45,-215.01 448.38,-222.89 458.83,-221.14 455.45,-215.01"/>
</a>
</g>
</g>
<!-- Node17 -->
<g id="Node000017" class="node">
<title>Node17</title>
<g id="a_Node000017"><a xlink:href="Enemy_8hpp.html" target="_top" xlink:title=" ">
<polygon fill="white" stroke="#666666" points="1066.38,-188 1001.62,-188 1001.62,-168 1066.38,-168 1066.38,-188"/>
<text text-anchor="middle" x="1034" y="-174.5" font-family="Helvetica,sans-Serif" font-size="10.00">Enemy.hpp</text>
</a>
</g>
</g>
<!-- Node15&#45;&gt;Node17 -->
<g id="edge20_Node000015_Node000017" class="edge">
<title>Node15&#45;&gt;Node17</title>
<g id="a_edge20_Node000015_Node000017"><a xlink:title=" ">
<path fill="none" stroke="#63b8ff" d="M496.22,-227.92C595.84,-220.14 790.17,-204.45 955,-188 970.25,-186.48 987.12,-184.58 1001.35,-182.93"/>
<polygon fill="#63b8ff" stroke="#63b8ff" points="496.05,-224.42 486.35,-228.69 496.59,-231.4 496.05,-224.42"/>
</a>
</g>
</g>
<!-- Node15&#45;&gt;Node18 -->
<g id="edge25_Node000015_Node000018" class="edge">
<title>Node15&#45;&gt;Node18</title>
<g id="a_edge25_Node000015_Node000018"><a xlink:title=" ">
<path fill="none" stroke="#63b8ff" d="M371.35,-221.31C322,-211.48 252.35,-197.6 206.46,-188.46"/>
<polygon fill="#63b8ff" stroke="#63b8ff" points="370.51,-224.71 381,-223.24 371.88,-217.85 370.51,-224.71"/>
</a>
</g>
</g>
<!-- Node15&#45;&gt;Node19 -->
<g id="edge26_Node000015_Node000019" class="edge">
<title>Node15&#45;&gt;Node19</title>
<g id="a_edge26_Node000015_Node000019"><a xlink:title=" ">
<path fill="none" stroke="#63b8ff" d="M496.01,-225.4C591.94,-214.35 767.56,-194.13 851.67,-184.45"/>
<polygon fill="#63b8ff" stroke="#63b8ff" points="495.76,-221.91 486.22,-226.53 496.56,-228.86 495.76,-221.91"/>
</a>
</g>
</g>
<!-- Node21 -->
<g id="Node000021" class="node">
<title>Node21</title>
<g id="a_Node000021"><a xlink:href="Renderer_8hpp.html" target="_top" xlink:title=" ">
<polygon fill="white" stroke="#666666" points="476.25,-188 401.75,-188 401.75,-168 476.25,-168 476.25,-188"/>
<text text-anchor="middle" x="439" y="-174.5" font-family="Helvetica,sans-Serif" font-size="10.00">Renderer.hpp</text>
</a>
</g>
</g>
<!-- Node15&#45;&gt;Node21 -->
<g id="edge33_Node000015_Node000021" class="edge">
<title>Node15&#45;&gt;Node21</title>
<g id="a_edge33_Node000015_Node000021"><a xlink:title=" ">
<path fill="none" stroke="#63b8ff" d="M433.43,-212.43C434.82,-204.11 436.34,-194.93 437.45,-188.3"/>
<polygon fill="#63b8ff" stroke="#63b8ff" points="430.01,-211.66 431.82,-222.1 436.91,-212.81 430.01,-211.66"/>
</a>
</g>
</g>
<!-- Node24 -->
<g id="Node000024" class="node">
<title>Node24</title>
<g id="a_Node000024"><a xlink:href="Renderers_2SFML_2SFML_8cpp.html" target="_top" xlink:title=" ">
<polygon fill="white" stroke="#666666" points="399.5,-76 338.5,-76 338.5,-56 399.5,-56 399.5,-76"/>
<text text-anchor="middle" x="369" y="-62.5" font-family="Helvetica,sans-Serif" font-size="10.00">SFML.cpp</text>
</a>
</g>
</g>
<!-- Node15&#45;&gt;Node24 -->
<g id="edge42_Node000015_Node000024" class="edge">
<title>Node15&#45;&gt;Node24</title>
<g id="a_edge42_Node000015_Node000024"><a xlink:title=" ">
<path fill="none" stroke="#63b8ff" d="M407.82,-216.89C385.34,-199.05 351.94,-168 338,-132 330.15,-111.71 347.29,-88.98 359.08,-76.49"/>
<polygon fill="#63b8ff" stroke="#63b8ff" points="405.43,-219.47 415.5,-222.78 409.7,-213.92 405.43,-219.47"/>
</a>
</g>
</g>
<!-- Node16&#45;&gt;Node3 -->
<g id="edge18_Node000016_Node000003" class="edge">
<title>Node16&#45;&gt;Node3</title>
<g id="a_edge18_Node000016_Node000003"><a xlink:title=" ">
<path fill="none" stroke="#63b8ff" d="M647.47,-103.53C671.05,-79.95 712.24,-38.76 730.65,-20.35"/>
<polygon fill="#63b8ff" stroke="#63b8ff" points="645.04,-101.01 640.45,-110.55 649.99,-105.96 645.04,-101.01"/>
</a>
</g>
</g>
<!-- Node16&#45;&gt;Node4 -->
<g id="edge19_Node000016_Node000004" class="edge">
<title>Node16&#45;&gt;Node4</title>
<g id="a_edge19_Node000016_Node000004"><a xlink:title=" ">
<path fill="none" stroke="#63b8ff" d="M685.96,-109.47C734.34,-99.5 803.32,-85.28 847.88,-76.09"/>
<polygon fill="#63b8ff" stroke="#63b8ff" points="685.31,-106.03 676.22,-111.47 686.72,-112.88 685.31,-106.03"/>
</a>
</g>
</g>
<!-- Node17&#45;&gt;Node3 -->
<g id="edge21_Node000017_Node000003" class="edge">
<title>Node17&#45;&gt;Node3</title>
<g id="a_edge21_Node000017_Node000003"><a xlink:title=" ">
<path fill="none" stroke="#63b8ff" d="M1077.52,-167.98C1113.83,-158.27 1156.96,-140.3 1139,-112 1100.76,-51.74 879.27,-24.03 783.79,-14.76"/>
<polygon fill="#63b8ff" stroke="#63b8ff" points="1076.87,-164.54 1068.02,-170.36 1078.57,-171.33 1076.87,-164.54"/>
</a>
</g>
</g>
<!-- Node17&#45;&gt;Node4 -->
<g id="edge22_Node000017_Node000004" class="edge">
<title>Node17&#45;&gt;Node4</title>
<g id="a_edge22_Node000017_Node000004"><a xlink:title=" ">
<path fill="none" stroke="#63b8ff" d="M1013.03,-160.76C982.88,-137.4 928.26,-95.09 904.08,-76.35"/>
<polygon fill="#63b8ff" stroke="#63b8ff" points="1010.65,-163.34 1020.7,-166.69 1014.93,-157.8 1010.65,-163.34"/>
</a>
</g>
</g>
<!-- Node17&#45;&gt;Node6 -->
<g id="edge23_Node000017_Node000006" class="edge">
<title>Node17&#45;&gt;Node6</title>
<g id="a_edge23_Node000017_Node000006"><a xlink:title=" ">
<path fill="none" stroke="#63b8ff" d="M990.38,-164.98C953.9,-154.93 902.7,-140.83 869.94,-131.8"/>
<polygon fill="#63b8ff" stroke="#63b8ff" points="989.16,-168.28 999.73,-167.56 991.02,-161.53 989.16,-168.28"/>
</a>
</g>
</g>
<!-- Node19&#45;&gt;Node3 -->
<g id="edge27_Node000019_Node000003" class="edge">
<title>Node19&#45;&gt;Node3</title>
<g id="a_edge27_Node000019_Node000003"><a xlink:title=" ">
<path fill="none" stroke="#63b8ff" d="M915.82,-159.26C937.67,-134.02 970.21,-87.35 945,-56 925.19,-31.37 838.07,-19.45 783.98,-14.33"/>
<polygon fill="#63b8ff" stroke="#63b8ff" points="913.48,-156.62 909.39,-166.39 918.68,-161.31 913.48,-156.62"/>
</a>
</g>
</g>
<!-- Node19&#45;&gt;Node4 -->
<g id="edge28_Node000019_Node000004" class="edge">
<title>Node19&#45;&gt;Node4</title>
<g id="a_edge28_Node000019_Node000004"><a xlink:title=" ">
<path fill="none" stroke="#63b8ff" d="M897.68,-156.31C896.16,-132.36 893.72,-93.95 892.6,-76.35"/>
<polygon fill="#63b8ff" stroke="#63b8ff" points="894.18,-156.35 898.31,-166.11 901.16,-155.91 894.18,-156.35"/>
</a>
</g>
</g>
<!-- Node19&#45;&gt;Node6 -->
<g id="edge29_Node000019_Node000006" class="edge">
<title>Node19&#45;&gt;Node6</title>
<g id="a_edge29_Node000019_Node000006"><a xlink:title=" ">
<path fill="none" stroke="#63b8ff" d="M879.94,-160.13C869.56,-150.94 857.13,-139.93 848.5,-132.3"/>
<polygon fill="#63b8ff" stroke="#63b8ff" points="877.43,-162.58 887.24,-166.59 882.07,-157.34 877.43,-162.58"/>
</a>
</g>
</g>
<!-- Node20 -->
<g id="Node000020" class="node">
<title>Node20</title>
<g id="a_Node000020"><a xlink:href="SoundPlayer_8hpp.html" target="_top" xlink:title=" ">
<polygon fill="white" stroke="#666666" points="1130.12,-132 1039.88,-132 1039.88,-112 1130.12,-112 1130.12,-132"/>
<text text-anchor="middle" x="1085" y="-118.5" font-family="Helvetica,sans-Serif" font-size="10.00">SoundPlayer.hpp</text>
</a>
</g>
</g>
<!-- Node19&#45;&gt;Node20 -->
<g id="edge30_Node000019_Node000020" class="edge">
<title>Node19&#45;&gt;Node20</title>
<g id="a_edge30_Node000019_Node000020"><a xlink:title=" ">
<path fill="none" stroke="#63b8ff" d="M942.29,-164.43C975.9,-154.67 1021.78,-141.35 1052.35,-132.48"/>
<polygon fill="#63b8ff" stroke="#63b8ff" points="941.48,-161.02 932.85,-167.17 943.43,-167.74 941.48,-161.02"/>
</a>
</g>
</g>
<!-- Node20&#45;&gt;Node3 -->
<g id="edge31_Node000020_Node000003" class="edge">
<title>Node20&#45;&gt;Node3</title>
<g id="a_edge31_Node000020_Node000003"><a xlink:title=" ">
<path fill="none" stroke="#63b8ff" d="M1065.52,-104.38C1046.86,-89.37 1017.28,-67.86 988,-56 920.07,-28.48 834.86,-17.71 784.07,-13.55"/>
<polygon fill="#63b8ff" stroke="#63b8ff" points="1063.11,-106.93 1073.06,-110.59 1067.56,-101.53 1063.11,-106.93"/>
</a>
</g>
</g>
<!-- Node20&#45;&gt;Node4 -->
<g id="edge32_Node000020_Node000004" class="edge">
<title>Node20&#45;&gt;Node4</title>
<g id="a_edge32_Node000020_Node000004"><a xlink:title=" ">
<path fill="none" stroke="#63b8ff" d="M1040.54,-108.56C1005.62,-98.79 957.74,-85.39 925.88,-76.48"/>
<polygon fill="#63b8ff" stroke="#63b8ff" points="1039.35,-111.86 1049.92,-111.19 1041.24,-105.12 1039.35,-111.86"/>
</a>
</g>
</g>
<!-- Node21&#45;&gt;Node3 -->
<g id="edge35_Node000021_Node000003" class="edge">
<title>Node21&#45;&gt;Node3</title>
<g id="a_edge35_Node000021_Node000003"><a xlink:title=" ">
<path fill="none" stroke="#63b8ff" d="M439.34,-156.44C440.6,-142.42 444.4,-124.25 455,-112 516.83,-40.55 632.61,-19.64 695.91,-13.53"/>
<polygon fill="#63b8ff" stroke="#63b8ff" points="435.85,-156.18 438.84,-166.34 442.84,-156.53 435.85,-156.18"/>
</a>
</g>
</g>
<!-- Node21&#45;&gt;Node4 -->
<g id="edge36_Node000021_Node000004" class="edge">
<title>Node21&#45;&gt;Node4</title>
<g id="a_edge36_Node000021_Node000004"><a xlink:title=" ">
<path fill="none" stroke="#63b8ff" d="M471.31,-163.07C491.01,-154.42 516.62,-142.91 539,-132 556.15,-123.64 558.83,-117.83 577,-112 688.92,-76.09 722.82,-93.84 839,-76 841.95,-75.55 844.99,-75.07 848.06,-74.57"/>
<polygon fill="#63b8ff" stroke="#63b8ff" points="470.18,-159.74 462.42,-166.95 472.98,-166.15 470.18,-159.74"/>
</a>
</g>
</g>
<!-- Node21&#45;&gt;Node16 -->
<g id="edge34_Node000021_Node000016" class="edge">
<title>Node21&#45;&gt;Node16</title>
<g id="a_edge34_Node000021_Node000016"><a xlink:title=" ">
<path fill="none" stroke="#63b8ff" d="M483,-164.56C517.56,-154.79 564.94,-141.39 596.47,-132.48"/>
<polygon fill="#63b8ff" stroke="#63b8ff" points="482.4,-161.09 473.73,-167.18 484.3,-167.83 482.4,-161.09"/>
</a>
</g>
</g>
<!-- Node21&#45;&gt;Node22 -->
<g id="edge37_Node000021_Node000022" class="edge">
<title>Node21&#45;&gt;Node22</title>
<g id="a_edge37_Node000021_Node000022"><a xlink:title=" ">
<path fill="none" stroke="#63b8ff" d="M457.42,-159.85C467.23,-150.72 478.9,-139.86 487.01,-132.3"/>
<polygon fill="#63b8ff" stroke="#63b8ff" points="455.14,-157.19 450.21,-166.56 459.91,-162.31 455.14,-157.19"/>
</a>
</g>
</g>
<!-- Node23 -->
<g id="Node000023" class="node">
<title>Node23</title>
<g id="a_Node000023"><a xlink:href="Renderers_2SFML_2SFML_8hpp.html" target="_top" xlink:title=" ">
<polygon fill="white" stroke="#666666" points="407.5,-132 346.5,-132 346.5,-112 407.5,-112 407.5,-132"/>
<text text-anchor="middle" x="377" y="-118.5" font-family="Helvetica,sans-Serif" font-size="10.00">SFML.hpp</text>
</a>
</g>
</g>
<!-- Node21&#45;&gt;Node23 -->
<g id="edge40_Node000021_Node000023" class="edge">
<title>Node21&#45;&gt;Node23</title>
<g id="a_edge40_Node000021_Node000023"><a xlink:title=" ">
<path fill="none" stroke="#63b8ff" d="M419.63,-160.13C409.08,-150.94 396.44,-139.93 387.68,-132.3"/>
<polygon fill="#63b8ff" stroke="#63b8ff" points="417.22,-162.67 427.06,-166.6 421.82,-157.39 417.22,-162.67"/>
</a>
</g>
</g>
<!-- Node22&#45;&gt;Node3 -->
<g id="edge38_Node000022_Node000003" class="edge">
<title>Node22&#45;&gt;Node3</title>
<g id="a_edge38_Node000022_Node000003"><a xlink:title=" ">
<path fill="none" stroke="#63b8ff" d="M527.99,-106.97C578.35,-84.18 676.61,-39.7 719.33,-20.35"/>
<polygon fill="#63b8ff" stroke="#63b8ff" points="526.76,-103.68 519.1,-111 529.65,-110.06 526.76,-103.68"/>
</a>
</g>
</g>
<!-- Node22&#45;&gt;Node4 -->
<g id="edge39_Node000022_Node000004" class="edge">
<title>Node22&#45;&gt;Node4</title>
<g id="a_edge39_Node000022_Node000004"><a xlink:title=" ">
<path fill="none" stroke="#63b8ff" d="M541.53,-112.39C542.36,-112.26 543.18,-112.13 544,-112 674.49,-91.57 708.3,-95.06 839,-76 841.96,-75.57 845,-75.11 848.07,-74.62"/>
<polygon fill="#63b8ff" stroke="#63b8ff" points="541.34,-108.88 532.08,-114.03 542.53,-115.77 541.34,-108.88"/>
</a>
</g>
</g>
<!-- Node23&#45;&gt;Node24 -->
<g id="edge41_Node000023_Node000024" class="edge">
<title>Node23&#45;&gt;Node24</title>
<g id="a_edge41_Node000023_Node000024"><a xlink:title=" ">
<path fill="none" stroke="#63b8ff" d="M373.95,-100.43C372.72,-92.11 371.36,-82.93 370.38,-76.3"/>
<polygon fill="#63b8ff" stroke="#63b8ff" points="370.46,-100.72 375.38,-110.1 377.38,-99.69 370.46,-100.72"/>
</a>
</g>
</g>
<!-- Node26&#45;&gt;Node27 -->
<g id="edge50_Node000026_Node000027" class="edge">
<title>Node26&#45;&gt;Node27</title>
<g id="a_edge50_Node000026_Node000027"><a xlink:title=" ">
<path fill="none" stroke="#63b8ff" d="M788,-268.13C788,-259.9 788,-250.85 788,-244.3"/>
<polygon fill="#63b8ff" stroke="#63b8ff" points="784.5,-268.08 788,-278.08 791.5,-268.08 784.5,-268.08"/>
</a>
</g>
</g>
<!-- Node28&#45;&gt;Node3 -->
<g id="edge52_Node000028_Node000003" class="edge">
<title>Node28&#45;&gt;Node3</title>
<g id="a_edge52_Node000028_Node000003"><a xlink:title=" ">
<path fill="none" stroke="#63b8ff" d="M706.69,-156.5C714.99,-120.27 731.92,-46.31 737.87,-20.3"/>
<polygon fill="#63b8ff" stroke="#63b8ff" points="703.31,-155.6 704.49,-166.12 710.13,-157.16 703.31,-155.6"/>
</a>
</g>
</g>
<!-- Node28&#45;&gt;Node4 -->
<g id="edge53_Node000028_Node000004" class="edge">
<title>Node28&#45;&gt;Node4</title>
<g id="a_edge53_Node000028_Node000004"><a xlink:title=" ">
<path fill="none" stroke="#63b8ff" d="M723.67,-160.72C742.53,-146.91 770.85,-127.01 797,-112 821.06,-98.19 850.04,-84.91 869.61,-76.41"/>
<polygon fill="#63b8ff" stroke="#63b8ff" points="721.67,-157.85 715.71,-166.61 725.83,-163.47 721.67,-157.85"/>
</a>
</g>
</g>
<!-- Node28&#45;&gt;Node6 -->
<g id="edge54_Node000028_Node000006" class="edge">
<title>Node28&#45;&gt;Node6</title>
<g id="a_edge54_Node000028_Node000006"><a xlink:title=" ">
<path fill="none" stroke="#63b8ff" d="M736.25,-163.4C760.55,-153.75 792.55,-141.05 814.13,-132.48"/>
<polygon fill="#63b8ff" stroke="#63b8ff" points="735.1,-160.09 727.1,-167.04 737.68,-166.6 735.1,-160.09"/>
</a>
</g>
</g>
<!-- Node29&#45;&gt;Node13 -->
<g id="edge64_Node000029_Node000013" class="edge">
<title>Node29&#45;&gt;Node13</title>
<g id="a_edge64_Node000029_Node000013"><a xlink:title=" ">
<path fill="none" stroke="#63b8ff" d="M510.31,-441.71C529.62,-429.46 549.55,-411.18 539,-392 529.64,-374.99 510.85,-363.51 494.94,-356.4"/>
<polygon fill="#63b8ff" stroke="#63b8ff" points="508.57,-438.68 501.74,-446.78 512.13,-444.71 508.57,-438.68"/>
</a>
</g>
</g>
<!-- Node30 -->
<g id="Node000030" class="node">
<title>Node30</title>
<g id="a_Node000030"><a xlink:href="EntityManager_8cpp.html" target="_top" xlink:title=" ">
<polygon fill="white" stroke="#666666" points="529.88,-412 432.12,-412 432.12,-392 529.88,-392 529.88,-412"/>
<text text-anchor="middle" x="481" y="-398.5" font-family="Helvetica,sans-Serif" font-size="10.00">EntityManager.cpp</text>
</a>
</g>
</g>
<!-- Node29&#45;&gt;Node30 -->
<g id="edge63_Node000029_Node000030" class="edge">
<title>Node29&#45;&gt;Node30</title>
<g id="a_edge63_Node000029_Node000030"><a xlink:title=" ">
<path fill="none" stroke="#63b8ff" d="M481,-436.13C481,-427.9 481,-418.85 481,-412.3"/>
<polygon fill="#63b8ff" stroke="#63b8ff" points="477.5,-436.08 481,-446.08 484.5,-436.08 477.5,-436.08"/>
</a>
</g>
</g>
<!-- Node31&#45;&gt;Node2 -->
<g id="edge71_Node000031_Node000002" class="edge">
<title>Node31&#45;&gt;Node2</title>
<g id="a_edge71_Node000031_Node000002"><a xlink:title=" ">
<path fill="none" stroke="#63b8ff" d="M1006.97,-453.53C1039,-448.83 1080.7,-437.79 1108,-412 1130.38,-390.85 1132,-377.8 1132,-347 1132,-347 1132,-347 1132,-289 1132,-250.73 1147.09,-206.94 1154.27,-188.24"/>
<polygon fill="#63b8ff" stroke="#63b8ff" points="1006.63,-450.05 997.16,-454.8 1007.53,-456.99 1006.63,-450.05"/>
</a>
</g>
</g>
<!-- Node31&#45;&gt;Node16 -->
<g id="edge72_Node000031_Node000016" class="edge">
<title>Node31&#45;&gt;Node16</title>
<g id="a_edge72_Node000031_Node000016"><a xlink:title=" ">
<path fill="none" stroke="#63b8ff" d="M955.38,-436.81C949.78,-414.89 942,-378.74 942,-347 942,-347 942,-347 942,-289 942,-255.98 933.27,-242.62 906,-224 806.38,-155.99 721.19,-274.38 637,-188 622.58,-173.21 625.13,-146.59 627.8,-132.45"/>
<polygon fill="#63b8ff" stroke="#63b8ff" points="951.93,-437.46 957.89,-446.21 958.69,-435.65 951.93,-437.46"/>
</a>
</g>
</g>
<!-- Node31&#45;&gt;Node17 -->
<g id="edge73_Node000031_Node000017" class="edge">
<title>Node31&#45;&gt;Node17</title>
<g id="a_edge73_Node000031_Node000017"><a xlink:title=" ">
<path fill="none" stroke="#63b8ff" d="M987.69,-441.49C1015.79,-422.93 1056,-389.03 1056,-347 1056,-347 1056,-347 1056,-289 1056,-251.02 1043.24,-207.08 1037.15,-188.29"/>
<polygon fill="#63b8ff" stroke="#63b8ff" points="985.85,-438.51 979.26,-446.81 989.59,-444.43 985.85,-438.51"/>
</a>
</g>
</g>
<!-- Node31&#45;&gt;Node19 -->
<g id="edge76_Node000031_Node000019" class="edge">
<title>Node31&#45;&gt;Node19</title>
<g id="a_edge76_Node000031_Node000019"><a xlink:title=" ">
<path fill="none" stroke="#63b8ff" d="M977.26,-438.92C994.11,-418.25 1018,-382.65 1018,-347 1018,-347 1018,-347 1018,-289 1018,-258.2 1014.79,-246.72 994,-224 978.11,-206.63 954.11,-195.34 934.21,-188.41"/>
<polygon fill="#63b8ff" stroke="#63b8ff" points="974.7,-436.52 970.89,-446.4 980.03,-441.06 974.7,-436.52"/>
</a>
</g>
</g>
<!-- Node31&#45;&gt;Node20 -->
<g id="edge78_Node000031_Node000020" class="edge">
<title>Node31&#45;&gt;Node20</title>
<g id="a_edge78_Node000031_Node000020"><a xlink:title=" ">
<path fill="none" stroke="#63b8ff" d="M1000.79,-443.38C1039.97,-427.14 1094,-395.89 1094,-347 1094,-347 1094,-347 1094,-233 1094,-195.64 1088.78,-151.37 1086.29,-132.4"/>
<polygon fill="#63b8ff" stroke="#63b8ff" points="999.61,-440.08 991.6,-447.01 1002.18,-446.59 999.61,-440.08"/>
</a>
</g>
</g>
<!-- Node31&#45;&gt;Node22 -->
<g id="edge77_Node000031_Node000022" class="edge">
<title>Node31&#45;&gt;Node22</title>
<g id="a_edge77_Node000031_Node000022"><a xlink:title=" ">
<path fill="none" stroke="#63b8ff" d="M952.63,-437.35C928.83,-381.51 862.29,-225.77 860,-224 775.59,-158.99 724.35,-220.86 623,-188 580.15,-174.11 534.18,-146.86 511.44,-132.45"/>
<polygon fill="#63b8ff" stroke="#63b8ff" points="949.29,-438.44 956.43,-446.27 955.73,-435.7 949.29,-438.44"/>
</a>
</g>
</g>
<!-- Node31&#45;&gt;Node27 -->
<g id="edge75_Node000031_Node000027" class="edge">
<title>Node31&#45;&gt;Node27</title>
<g id="a_edge75_Node000031_Node000027"><a xlink:title=" ">
<path fill="none" stroke="#63b8ff" d="M928.24,-442.47C914.75,-435.06 899.99,-424.86 890,-412 852.15,-363.27 882.7,-330.32 847,-280 836.19,-264.77 818.7,-252.35 805.56,-244.45"/>
<polygon fill="#63b8ff" stroke="#63b8ff" points="926.36,-445.44 936.85,-446.9 929.56,-439.21 926.36,-445.44"/>
</a>
</g>
</g>
<!-- Node31&#45;&gt;Node28 -->
<g id="edge74_Node000031_Node000028" class="edge">
<title>Node31&#45;&gt;Node28</title>
<g id="a_edge74_Node000031_Node000028"><a xlink:title=" ">
<path fill="none" stroke="#63b8ff" d="M966.62,-436.81C972.22,-414.89 980,-378.74 980,-347 980,-347 980,-347 980,-289 980,-258.2 979.63,-243.75 956,-224 926.79,-199.59 824.37,-187.75 758.85,-182.56"/>
<polygon fill="#63b8ff" stroke="#63b8ff" points="963.31,-435.65 964.11,-446.21 970.07,-437.46 963.31,-435.65"/>
</a>
</g>
</g>
<!-- Node32 -->
<g id="Node000032" class="node">
<title>Node32</title>
<g id="a_Node000032"><a xlink:href="SystemManager_8hpp.html" target="_top" xlink:title=" ">
<polygon fill="white" stroke="#666666" points="822,-412 716,-412 716,-392 822,-392 822,-412"/>
<text text-anchor="middle" x="769" y="-398.5" font-family="Helvetica,sans-Serif" font-size="10.00">SystemManager.hpp</text>
</a>
</g>
</g>
<!-- Node31&#45;&gt;Node32 -->
<g id="edge79_Node000031_Node000032" class="edge">
<title>Node31&#45;&gt;Node32</title>
<g id="a_edge79_Node000031_Node000032"><a xlink:title=" ">
<path fill="none" stroke="#63b8ff" d="M916.77,-444.56C882.03,-434.79 834.4,-421.39 802.7,-412.48"/>
<polygon fill="#63b8ff" stroke="#63b8ff" points="915.52,-447.85 926.1,-447.18 917.42,-441.11 915.52,-447.85"/>
</a>
</g>
</g>
<!-- Node32&#45;&gt;Node13 -->
<g id="edge80_Node000032_Node000013" class="edge">
<title>Node32&#45;&gt;Node13</title>
<g id="a_edge80_Node000032_Node000013"><a xlink:title=" ">
<path fill="none" stroke="#63b8ff" d="M705.19,-389.55C644.19,-378.61 554.37,-362.49 504.59,-353.56"/>
<polygon fill="#63b8ff" stroke="#63b8ff" points="704.27,-392.94 714.74,-391.26 705.51,-386.05 704.27,-392.94"/>
</a>
</g>
</g>
<!-- Node33 -->
<g id="Node000033" class="node">
<title>Node33</title>
<g id="a_Node000033"><a xlink:href="SystemManager_8cpp.html" target="_top" xlink:title=" ">
<polygon fill="white" stroke="#666666" points="822,-356 716,-356 716,-336 822,-336 822,-356"/>
<text text-anchor="middle" x="769" y="-342.5" font-family="Helvetica,sans-Serif" font-size="10.00">SystemManager.cpp</text>
</a>
</g>
</g>
<!-- Node32&#45;&gt;Node33 -->
<g id="edge81_Node000032_Node000033" class="edge">
<title>Node32&#45;&gt;Node33</title>
<g id="a_edge81_Node000032_Node000033"><a xlink:title=" ">
<path fill="none" stroke="#63b8ff" d="M769,-380.13C769,-371.9 769,-362.85 769,-356.3"/>
<polygon fill="#63b8ff" stroke="#63b8ff" points="765.5,-380.08 769,-390.08 772.5,-380.08 765.5,-380.08"/>
</a>
</g>
</g>
</g>
</svg>
