<?xml version="1.0" encoding="UTF-8" standalone="no"?>
<!DOCTYPE svg PUBLIC "-//W3C//DTD SVG 1.1//EN"
 "http://www.w3.org/Graphics/SVG/1.1/DTD/svg11.dtd">
<!-- Generated by graphviz version 12.1.0 (20240811.2233)
 -->
<!-- Title: EntityManager.hpp Pages: 1 -->
<svg width="391pt" height="196pt"
 viewBox="0.00 0.00 391.00 196.00" xmlns="http://www.w3.org/2000/svg" xmlns:xlink="http://www.w3.org/1999/xlink">
<g id="graph0" class="graph" transform="scale(1 1) rotate(0) translate(4 192)">
<title>EntityManager.hpp</title>
<!-- Node1 -->
<g id="Node000001" class="node">
<title>Node1</title>
<g id="a_Node000001"><a xlink:title=" ">
<polygon fill="#999999" stroke="#666666" points="148.75,-188 51,-188 51,-168 148.75,-168 148.75,-188"/>
<text text-anchor="middle" x="99.88" y="-174.5" font-family="Helvetica,sans-Serif" font-size="10.00">EntityManager.hpp</text>
</a>
</g>
</g>
<!-- Node2 -->
<g id="Node000002" class="node">
<title>Node2</title>
<g id="a_Node000002"><a xlink:href="EntityManager_8cpp.html" target="_top" xlink:title=" ">
<polygon fill="white" stroke="#666666" points="97.75,-132 0,-132 0,-112 97.75,-112 97.75,-132"/>
<text text-anchor="middle" x="48.88" y="-118.5" font-family="Helvetica,sans-Serif" font-size="10.00">EntityManager.cpp</text>
</a>
</g>
</g>
<!-- Node1&#45;&gt;Node2 -->
<g id="edge1_Node000001_Node000002" class="edge">
<title>Node1&#45;&gt;Node2</title>
<g id="a_edge1_Node000001_Node000002"><a xlink:title=" ">
<path fill="none" stroke="#63b8ff" d="M83.14,-159.29C74.64,-150.28 64.65,-139.7 57.66,-132.3"/>
<polygon fill="#63b8ff" stroke="#63b8ff" points="80.54,-161.63 89.95,-166.49 85.63,-156.82 80.54,-161.63"/>
</a>
</g>
</g>
<!-- Node3 -->
<g id="Node000003" class="node">
<title>Node3</title>
<g id="a_Node000003"><a xlink:href="Mediator_8hpp.html" target="_top" xlink:title=" ">
<polygon fill="white" stroke="#666666" points="188,-132 115.75,-132 115.75,-112 188,-112 188,-132"/>
<text text-anchor="middle" x="151.88" y="-118.5" font-family="Helvetica,sans-Serif" font-size="10.00">Mediator.hpp</text>
</a>
</g>
</g>
<!-- Node1&#45;&gt;Node3 -->
<g id="edge2_Node000001_Node000003" class="edge">
<title>Node1&#45;&gt;Node3</title>
<g id="a_edge2_Node000001_Node000003"><a xlink:title=" ">
<path fill="none" stroke="#63b8ff" d="M116.66,-159.57C125.39,-150.5 135.72,-139.78 142.92,-132.3"/>
<polygon fill="#63b8ff" stroke="#63b8ff" points="114.4,-156.87 109.98,-166.5 119.44,-161.73 114.4,-156.87"/>
</a>
</g>
</g>
<!-- Node4 -->
<g id="Node000004" class="node">
<title>Node4</title>
<g id="a_Node000004"><a xlink:href="GameTypes_8cpp.html" target="_top" xlink:title=" ">
<polygon fill="white" stroke="#666666" points="245.5,-20 158.25,-20 158.25,0 245.5,0 245.5,-20"/>
<text text-anchor="middle" x="201.88" y="-6.5" font-family="Helvetica,sans-Serif" font-size="10.00">GameTypes.cpp</text>
</a>
</g>
</g>
<!-- Node3&#45;&gt;Node4 -->
<g id="edge3_Node000003_Node000004" class="edge">
<title>Node3&#45;&gt;Node4</title>
<g id="a_edge3_Node000003_Node000004"><a xlink:title=" ">
<path fill="none" stroke="#63b8ff" d="M104.52,-111.23C70.29,-103.09 28.31,-90.52 17.88,-76 12.69,-68.78 12.39,-62.99 17.88,-56 34.98,-34.21 109.28,-21.61 158.08,-15.54"/>
<polygon fill="#63b8ff" stroke="#63b8ff" points="103.3,-114.54 113.83,-113.37 104.87,-107.72 103.3,-114.54"/>
</a>
</g>
</g>
<!-- Node5 -->
<g id="Node000005" class="node">
<title>Node5</title>
<g id="a_Node000005"><a xlink:href="Mediator_8cpp.html" target="_top" xlink:title=" ">
<polygon fill="white" stroke="#666666" points="99,-76 26.75,-76 26.75,-56 99,-56 99,-76"/>
<text text-anchor="middle" x="62.88" y="-62.5" font-family="Helvetica,sans-Serif" font-size="10.00">Mediator.cpp</text>
</a>
</g>
</g>
<!-- Node3&#45;&gt;Node5 -->
<g id="edge4_Node000003_Node000005" class="edge">
<title>Node3&#45;&gt;Node5</title>
<g id="a_edge4_Node000003_Node000005"><a xlink:title=" ">
<path fill="none" stroke="#63b8ff" d="M126.84,-105.81C111.32,-96.39 91.85,-84.58 78.5,-76.48"/>
<polygon fill="#63b8ff" stroke="#63b8ff" points="124.71,-108.61 135.08,-110.81 128.34,-102.63 124.71,-108.61"/>
</a>
</g>
</g>
<!-- Node6 -->
<g id="Node000006" class="node">
<title>Node6</title>
<g id="a_Node000006"><a xlink:href="Physics_8hpp.html" target="_top" xlink:title=" ">
<polygon fill="white" stroke="#666666" points="186.88,-76 116.88,-76 116.88,-56 186.88,-56 186.88,-76"/>
<text text-anchor="middle" x="151.88" y="-62.5" font-family="Helvetica,sans-Serif" font-size="10.00">Physics.hpp</text>
</a>
</g>
</g>
<!-- Node3&#45;&gt;Node6 -->
<g id="edge5_Node000003_Node000006" class="edge">
<title>Node3&#45;&gt;Node6</title>
<g id="a_edge5_Node000003_Node000006"><a xlink:title=" ">
<path fill="none" stroke="#63b8ff" d="M151.88,-100.13C151.88,-91.9 151.88,-82.85 151.88,-76.3"/>
<polygon fill="#63b8ff" stroke="#63b8ff" points="148.38,-100.08 151.88,-110.08 155.38,-100.08 148.38,-100.08"/>
</a>
</g>
</g>
<!-- Node7 -->
<g id="Node000007" class="node">
<title>Node7</title>
<g id="a_Node000007"><a xlink:href="PlayerControl_8hpp.html" target="_top" xlink:title=" ">
<polygon fill="white" stroke="#666666" points="298.88,-76 204.88,-76 204.88,-56 298.88,-56 298.88,-76"/>
<text text-anchor="middle" x="251.88" y="-62.5" font-family="Helvetica,sans-Serif" font-size="10.00">PlayerControl.hpp</text>
</a>
</g>
</g>
<!-- Node3&#45;&gt;Node7 -->
<g id="edge7_Node000003_Node000007" class="edge">
<title>Node3&#45;&gt;Node7</title>
<g id="a_edge7_Node000003_Node000007"><a xlink:title=" ">
<path fill="none" stroke="#63b8ff" d="M179.01,-106.35C196.61,-96.84 219.03,-84.74 234.32,-76.48"/>
<polygon fill="#63b8ff" stroke="#63b8ff" points="177.76,-103.04 170.63,-110.87 181.09,-109.2 177.76,-103.04"/>
</a>
</g>
</g>
<!-- Node8 -->
<g id="Node000008" class="node">
<title>Node8</title>
<g id="a_Node000008"><a xlink:href="Render_8hpp.html" target="_top" xlink:title=" ">
<polygon fill="white" stroke="#666666" points="383,-76 316.75,-76 316.75,-56 383,-56 383,-76"/>
<text text-anchor="middle" x="349.88" y="-62.5" font-family="Helvetica,sans-Serif" font-size="10.00">Render.hpp</text>
</a>
</g>
</g>
<!-- Node3&#45;&gt;Node8 -->
<g id="edge9_Node000003_Node000008" class="edge">
<title>Node3&#45;&gt;Node8</title>
<g id="a_edge9_Node000003_Node000008"><a xlink:title=" ">
<path fill="none" stroke="#63b8ff" d="M197.16,-108.65C233.5,-98.74 283.67,-85.05 316.44,-76.12"/>
<polygon fill="#63b8ff" stroke="#63b8ff" points="196.55,-105.19 187.82,-111.2 198.39,-111.94 196.55,-105.19"/>
</a>
</g>
</g>
<!-- Node6&#45;&gt;Node4 -->
<g id="edge6_Node000006_Node000004" class="edge">
<title>Node6&#45;&gt;Node4</title>
<g id="a_edge6_Node000006_Node000004"><a xlink:title=" ">
<path fill="none" stroke="#63b8ff" d="M168.28,-47.29C176.62,-38.28 186.41,-27.7 193.27,-20.3"/>
<polygon fill="#63b8ff" stroke="#63b8ff" points="165.84,-44.77 161.61,-54.48 170.97,-49.52 165.84,-44.77"/>
</a>
</g>
</g>
<!-- Node7&#45;&gt;Node4 -->
<g id="edge8_Node000007_Node000004" class="edge">
<title>Node7&#45;&gt;Node4</title>
<g id="a_edge8_Node000007_Node000004"><a xlink:title=" ">
<path fill="none" stroke="#63b8ff" d="M235.47,-47.29C227.13,-38.28 217.34,-27.7 210.48,-20.3"/>
<polygon fill="#63b8ff" stroke="#63b8ff" points="232.78,-49.52 242.14,-54.48 237.91,-44.77 232.78,-49.52"/>
</a>
</g>
</g>
<!-- Node8&#45;&gt;Node4 -->
<g id="edge10_Node000008_Node000004" class="edge">
<title>Node8&#45;&gt;Node4</title>
<g id="a_edge10_Node000008_Node000004"><a xlink:title=" ">
<path fill="none" stroke="#63b8ff" d="M313.32,-51.66C286.79,-41.98 251.55,-29.12 227.86,-20.48"/>
<polygon fill="#63b8ff" stroke="#63b8ff" points="312.08,-54.94 322.67,-55.08 314.48,-48.36 312.08,-54.94"/>
</a>
</g>
</g>
</g>
</svg>
