<?xml version="1.0" encoding="UTF-8" standalone="no"?>
<!DOCTYPE svg PUBLIC "-//W3C//DTD SVG 1.1//EN"
 "http://www.w3.org/Graphics/SVG/1.1/DTD/svg11.dtd">
<!-- Generated by graphviz version 12.1.0 (20240811.2233)
 -->
<!-- Title: EntityManager.hpp Pages: 1 -->
<svg width="204pt" height="140pt"
 viewBox="0.00 0.00 204.12 140.00" xmlns="http://www.w3.org/2000/svg" xmlns:xlink="http://www.w3.org/1999/xlink">
<g id="graph0" class="graph" transform="scale(1 1) rotate(0) translate(4 136)">
<title>EntityManager.hpp</title>
<!-- Node1 -->
<g id="Node000001" class="node">
<title>Node1</title>
<g id="a_Node000001"><a xlink:title=" ">
<polygon fill="#999999" stroke="#666666" points="128,-132 30.25,-132 30.25,-112 128,-112 128,-132"/>
<text text-anchor="middle" x="79.12" y="-118.5" font-family="Helvetica,sans-Serif" font-size="10.00">EntityManager.hpp</text>
</a>
</g>
</g>
<!-- Node2 -->
<g id="Node000002" class="node">
<title>Node2</title>
<g id="a_Node000002"><a xlink:title=" ">
<polygon fill="#e0e0e0" stroke="#999999" points="42.25,-76 0,-76 0,-56 42.25,-56 42.25,-76"/>
<text text-anchor="middle" x="21.12" y="-62.5" font-family="Helvetica,sans-Serif" font-size="10.00">queue</text>
</a>
</g>
</g>
<!-- Node1&#45;&gt;Node2 -->
<g id="edge1_Node000001_Node000002" class="edge">
<title>Node1&#45;&gt;Node2</title>
<g id="a_edge1_Node000001_Node000002"><a xlink:title=" ">
<path fill="none" stroke="#63b8ff" d="M69.02,-111.59C60.87,-104.01 49.19,-93.13 39.41,-84.02"/>
<polygon fill="#63b8ff" stroke="#63b8ff" points="41.92,-81.58 32.22,-77.33 37.15,-86.71 41.92,-81.58"/>
</a>
</g>
</g>
<!-- Node3 -->
<g id="Node000003" class="node">
<title>Node3</title>
<g id="a_Node000003"><a xlink:title=" ">
<polygon fill="#e0e0e0" stroke="#999999" points="98,-76 60.25,-76 60.25,-56 98,-56 98,-76"/>
<text text-anchor="middle" x="79.12" y="-62.5" font-family="Helvetica,sans-Serif" font-size="10.00">array</text>
</a>
</g>
</g>
<!-- Node1&#45;&gt;Node3 -->
<g id="edge2_Node000001_Node000003" class="edge">
<title>Node1&#45;&gt;Node3</title>
<g id="a_edge2_Node000001_Node000003"><a xlink:title=" ">
<path fill="none" stroke="#63b8ff" d="M79.12,-111.59C79.12,-105.01 79.12,-95.96 79.12,-87.73"/>
<polygon fill="#63b8ff" stroke="#63b8ff" points="82.63,-87.81 79.13,-77.81 75.63,-87.81 82.63,-87.81"/>
</a>
</g>
</g>
<!-- Node4 -->
<g id="Node000004" class="node">
<title>Node4</title>
<g id="a_Node000004"><a xlink:href="Entity_8hpp.html" target="_top" xlink:title=" ">
<polygon fill="white" stroke="#666666" points="175.88,-76 116.38,-76 116.38,-56 175.88,-56 175.88,-76"/>
<text text-anchor="middle" x="146.12" y="-62.5" font-family="Helvetica,sans-Serif" font-size="10.00">Entity.hpp</text>
</a>
</g>
</g>
<!-- Node1&#45;&gt;Node4 -->
<g id="edge3_Node000001_Node000004" class="edge">
<title>Node1&#45;&gt;Node4</title>
<g id="a_edge3_Node000001_Node000004"><a xlink:title=" ">
<path fill="none" stroke="#63b8ff" d="M90.8,-111.59C100.4,-103.85 114.25,-92.69 125.69,-83.47"/>
<polygon fill="#63b8ff" stroke="#63b8ff" points="127.82,-86.25 133.41,-77.25 123.43,-80.8 127.82,-86.25"/>
</a>
</g>
</g>
<!-- Node5 -->
<g id="Node000005" class="node">
<title>Node5</title>
<g id="a_Node000005"><a xlink:title=" ">
<polygon fill="#e0e0e0" stroke="#999999" points="137.75,-20 92.5,-20 92.5,0 137.75,0 137.75,-20"/>
<text text-anchor="middle" x="115.12" y="-6.5" font-family="Helvetica,sans-Serif" font-size="10.00">cstdint</text>
</a>
</g>
</g>
<!-- Node4&#45;&gt;Node5 -->
<g id="edge4_Node000004_Node000005" class="edge">
<title>Node4&#45;&gt;Node5</title>
<g id="a_edge4_Node000004_Node000005"><a xlink:title=" ">
<path fill="none" stroke="#63b8ff" d="M140.73,-55.59C136.68,-48.55 131.01,-38.67 126.03,-30"/>
<polygon fill="#63b8ff" stroke="#63b8ff" points="129.23,-28.54 121.22,-21.61 123.16,-32.03 129.23,-28.54"/>
</a>
</g>
</g>
<!-- Node6 -->
<g id="Node000006" class="node">
<title>Node6</title>
<g id="a_Node000006"><a xlink:title=" ">
<polygon fill="#e0e0e0" stroke="#999999" points="196.12,-20 156.12,-20 156.12,0 196.12,0 196.12,-20"/>
<text text-anchor="middle" x="176.12" y="-6.5" font-family="Helvetica,sans-Serif" font-size="10.00">bitset</text>
</a>
</g>
</g>
<!-- Node4&#45;&gt;Node6 -->
<g id="edge5_Node000004_Node000006" class="edge">
<title>Node4&#45;&gt;Node6</title>
<g id="a_edge5_Node000004_Node000006"><a xlink:title=" ">
<path fill="none" stroke="#63b8ff" d="M151.35,-55.59C155.22,-48.63 160.63,-38.89 165.41,-30.29"/>
<polygon fill="#63b8ff" stroke="#63b8ff" points="168.43,-32.06 170.22,-21.62 162.31,-28.66 168.43,-32.06"/>
</a>
</g>
</g>
</g>
</svg>
