<?xml version="1.0" encoding="UTF-8" standalone="no"?>
<!DOCTYPE svg PUBLIC "-//W3C//DTD SVG 1.1//EN"
 "http://www.w3.org/Graphics/SVG/1.1/DTD/svg11.dtd">
<!-- Generated by graphviz version 12.1.0 (20240811.2233)
 -->
<!-- Title: Entity.hpp Pages: 1 -->
<svg width="669pt" height="308pt"
 viewBox="0.00 0.00 668.88 308.00" xmlns="http://www.w3.org/2000/svg" xmlns:xlink="http://www.w3.org/1999/xlink">
<g id="graph0" class="graph" transform="scale(1 1) rotate(0) translate(4 304)">
<title>Entity.hpp</title>
<!-- Node1 -->
<g id="Node000001" class="node">
<title>Node1</title>
<g id="a_Node000001"><a xlink:title=" ">
<polygon fill="#999999" stroke="#666666" points="320.5,-300 261,-300 261,-280 320.5,-280 320.5,-300"/>
<text text-anchor="middle" x="290.75" y="-286.5" font-family="Helvetica,sans-Serif" font-size="10.00">Entity.hpp</text>
</a>
</g>
</g>
<!-- Node2 -->
<g id="Node000002" class="node">
<title>Node2</title>
<g id="a_Node000002"><a xlink:href="ComponentArray_8hpp.html" target="_top" xlink:title=" ">
<polygon fill="white" stroke="#666666" points="224.5,-244 117,-244 117,-224 224.5,-224 224.5,-244"/>
<text text-anchor="middle" x="170.75" y="-230.5" font-family="Helvetica,sans-Serif" font-size="10.00">ComponentArray.hpp</text>
</a>
</g>
</g>
<!-- Node1&#45;&gt;Node2 -->
<g id="edge1_Node000001_Node000002" class="edge">
<title>Node1&#45;&gt;Node2</title>
<g id="a_edge1_Node000001_Node000002"><a xlink:title=" ">
<path fill="none" stroke="#63b8ff" d="M259.37,-274.88C238.08,-265.3 210.51,-252.89 191.82,-244.48"/>
<polygon fill="#63b8ff" stroke="#63b8ff" points="257.91,-278.06 268.47,-278.97 260.78,-271.68 257.91,-278.06"/>
</a>
</g>
</g>
<!-- Node4 -->
<g id="Node000004" class="node">
<title>Node4</title>
<g id="a_Node000004"><a xlink:href="ComponentManager_8hpp.html" target="_top" xlink:title=" ">
<polygon fill="white" stroke="#666666" points="248,-188 125.5,-188 125.5,-168 248,-168 248,-188"/>
<text text-anchor="middle" x="186.75" y="-174.5" font-family="Helvetica,sans-Serif" font-size="10.00">ComponentManager.hpp</text>
</a>
</g>
</g>
<!-- Node1&#45;&gt;Node4 -->
<g id="edge14_Node000001_Node000004" class="edge">
<title>Node1&#45;&gt;Node4</title>
<g id="a_edge14_Node000001_Node000004"><a xlink:title=" ">
<path fill="none" stroke="#63b8ff" d="M275.59,-270.87C264.33,-257.61 248.45,-239.36 233.75,-224 221.56,-211.27 206.78,-197.34 197.08,-188.41"/>
<polygon fill="#63b8ff" stroke="#63b8ff" points="272.78,-272.97 281.91,-278.36 278.13,-268.46 272.78,-272.97"/>
</a>
</g>
</g>
<!-- Node12 -->
<g id="Node000012" class="node">
<title>Node12</title>
<g id="a_Node000012"><a xlink:href="EntityManager_8hpp.html" target="_top" xlink:title=" ">
<polygon fill="white" stroke="#666666" points="378.62,-244 280.88,-244 280.88,-224 378.62,-224 378.62,-244"/>
<text text-anchor="middle" x="329.75" y="-230.5" font-family="Helvetica,sans-Serif" font-size="10.00">EntityManager.hpp</text>
</a>
</g>
</g>
<!-- Node1&#45;&gt;Node12 -->
<g id="edge15_Node000001_Node000012" class="edge">
<title>Node1&#45;&gt;Node12</title>
<g id="a_edge15_Node000001_Node000012"><a xlink:title=" ">
<path fill="none" stroke="#63b8ff" d="M304.16,-270.44C310.52,-261.62 317.86,-251.47 323.03,-244.3"/>
<polygon fill="#63b8ff" stroke="#63b8ff" points="301.45,-268.21 298.43,-278.37 307.12,-272.31 301.45,-268.21"/>
</a>
</g>
</g>
<!-- Node14 -->
<g id="Node000014" class="node">
<title>Node14</title>
<g id="a_Node000014"><a xlink:href="System_8hpp.html" target="_top" xlink:title=" ">
<polygon fill="white" stroke="#666666" points="588,-244 519.5,-244 519.5,-224 588,-224 588,-244"/>
<text text-anchor="middle" x="553.75" y="-230.5" font-family="Helvetica,sans-Serif" font-size="10.00">System.hpp</text>
</a>
</g>
</g>
<!-- Node1&#45;&gt;Node14 -->
<g id="edge18_Node000001_Node000014" class="edge">
<title>Node1&#45;&gt;Node14</title>
<g id="a_edge18_Node000001_Node000014"><a xlink:title=" ">
<path fill="none" stroke="#63b8ff" d="M331.99,-280.53C383.63,-269.93 471.17,-251.96 519.37,-242.06"/>
<polygon fill="#63b8ff" stroke="#63b8ff" points="331.49,-277.06 322.4,-282.5 332.9,-283.92 331.49,-277.06"/>
</a>
</g>
</g>
<!-- Node3 -->
<g id="Node000003" class="node">
<title>Node3</title>
<g id="a_Node000003"><a xlink:href="ComponentArray_8cpp.html" target="_top" xlink:title=" ">
<polygon fill="white" stroke="#666666" points="107.5,-188 0,-188 0,-168 107.5,-168 107.5,-188"/>
<text text-anchor="middle" x="53.75" y="-174.5" font-family="Helvetica,sans-Serif" font-size="10.00">ComponentArray.cpp</text>
</a>
</g>
</g>
<!-- Node2&#45;&gt;Node3 -->
<g id="edge2_Node000002_Node000003" class="edge">
<title>Node2&#45;&gt;Node3</title>
<g id="a_edge2_Node000002_Node000003"><a xlink:title=" ">
<path fill="none" stroke="#63b8ff" d="M140.15,-218.88C119.39,-209.3 92.51,-196.89 74.29,-188.48"/>
<polygon fill="#63b8ff" stroke="#63b8ff" points="138.45,-221.95 149,-222.96 141.38,-215.59 138.45,-221.95"/>
</a>
</g>
</g>
<!-- Node2&#45;&gt;Node4 -->
<g id="edge3_Node000002_Node000004" class="edge">
<title>Node2&#45;&gt;Node4</title>
<g id="a_edge3_Node000002_Node000004"><a xlink:title=" ">
<path fill="none" stroke="#63b8ff" d="M176.76,-212.71C179.25,-204.32 182.01,-195.01 183.99,-188.3"/>
<polygon fill="#63b8ff" stroke="#63b8ff" points="173.45,-211.56 173.97,-222.14 180.16,-213.55 173.45,-211.56"/>
</a>
</g>
</g>
<!-- Node5 -->
<g id="Node000005" class="node">
<title>Node5</title>
<g id="a_Node000005"><a xlink:href="ComponentManager_8cpp.html" target="_top" xlink:title=" ">
<polygon fill="white" stroke="#666666" points="248,-132 125.5,-132 125.5,-112 248,-112 248,-132"/>
<text text-anchor="middle" x="186.75" y="-118.5" font-family="Helvetica,sans-Serif" font-size="10.00">ComponentManager.cpp</text>
</a>
</g>
</g>
<!-- Node4&#45;&gt;Node5 -->
<g id="edge4_Node000004_Node000005" class="edge">
<title>Node4&#45;&gt;Node5</title>
<g id="a_edge4_Node000004_Node000005"><a xlink:title=" ">
<path fill="none" stroke="#63b8ff" d="M186.75,-156.13C186.75,-147.9 186.75,-138.85 186.75,-132.3"/>
<polygon fill="#63b8ff" stroke="#63b8ff" points="183.25,-156.08 186.75,-166.08 190.25,-156.08 183.25,-156.08"/>
</a>
</g>
</g>
<!-- Node6 -->
<g id="Node000006" class="node">
<title>Node6</title>
<g id="a_Node000006"><a xlink:href="Mediator_8hpp.html" target="_top" xlink:title=" ">
<polygon fill="white" stroke="#666666" points="401.88,-132 329.62,-132 329.62,-112 401.88,-112 401.88,-132"/>
<text text-anchor="middle" x="365.75" y="-118.5" font-family="Helvetica,sans-Serif" font-size="10.00">Mediator.hpp</text>
</a>
</g>
</g>
<!-- Node4&#45;&gt;Node6 -->
<g id="edge5_Node000004_Node000006" class="edge">
<title>Node4&#45;&gt;Node6</title>
<g id="a_edge5_Node000004_Node000006"><a xlink:title=" ">
<path fill="none" stroke="#63b8ff" d="M228.83,-164.31C261.14,-154.56 305.04,-141.32 334.33,-132.48"/>
<polygon fill="#63b8ff" stroke="#63b8ff" points="227.94,-160.92 219.38,-167.16 229.96,-167.62 227.94,-160.92"/>
</a>
</g>
</g>
<!-- Node7 -->
<g id="Node000007" class="node">
<title>Node7</title>
<g id="a_Node000007"><a xlink:href="GameTypes_8cpp.html" target="_top" xlink:title=" ">
<polygon fill="white" stroke="#666666" points="523.38,-20 436.12,-20 436.12,0 523.38,0 523.38,-20"/>
<text text-anchor="middle" x="479.75" y="-6.5" font-family="Helvetica,sans-Serif" font-size="10.00">GameTypes.cpp</text>
</a>
</g>
</g>
<!-- Node6&#45;&gt;Node7 -->
<g id="edge6_Node000006_Node000007" class="edge">
<title>Node6&#45;&gt;Node7</title>
<g id="a_edge6_Node000006_Node000007"><a xlink:title=" ">
<path fill="none" stroke="#63b8ff" d="M367.73,-100.57C370.03,-86.62 375.01,-68.46 385.75,-56 400.87,-38.46 424.37,-27.21 444.09,-20.34"/>
<polygon fill="#63b8ff" stroke="#63b8ff" points="364.27,-100.06 366.47,-110.42 371.21,-100.95 364.27,-100.06"/>
</a>
</g>
</g>
<!-- Node8 -->
<g id="Node000008" class="node">
<title>Node8</title>
<g id="a_Node000008"><a xlink:href="Mediator_8cpp.html" target="_top" xlink:title=" ">
<polygon fill="white" stroke="#666666" points="338.88,-76 266.62,-76 266.62,-56 338.88,-56 338.88,-76"/>
<text text-anchor="middle" x="302.75" y="-62.5" font-family="Helvetica,sans-Serif" font-size="10.00">Mediator.cpp</text>
</a>
</g>
</g>
<!-- Node6&#45;&gt;Node8 -->
<g id="edge7_Node000006_Node000008" class="edge">
<title>Node6&#45;&gt;Node8</title>
<g id="a_edge7_Node000006_Node000008"><a xlink:title=" ">
<path fill="none" stroke="#63b8ff" d="M346.06,-104.13C335.35,-94.94 322.5,-83.93 313.6,-76.3"/>
<polygon fill="#63b8ff" stroke="#63b8ff" points="343.76,-106.76 353.63,-110.61 348.31,-101.44 343.76,-106.76"/>
</a>
</g>
</g>
<!-- Node9 -->
<g id="Node000009" class="node">
<title>Node9</title>
<g id="a_Node000009"><a xlink:href="Physics_8hpp.html" target="_top" xlink:title=" ">
<polygon fill="white" stroke="#666666" points="464.75,-76 394.75,-76 394.75,-56 464.75,-56 464.75,-76"/>
<text text-anchor="middle" x="429.75" y="-62.5" font-family="Helvetica,sans-Serif" font-size="10.00">Physics.hpp</text>
</a>
</g>
</g>
<!-- Node6&#45;&gt;Node9 -->
<g id="edge8_Node000006_Node000009" class="edge">
<title>Node6&#45;&gt;Node9</title>
<g id="a_edge8_Node000006_Node000009"><a xlink:title=" ">
<path fill="none" stroke="#63b8ff" d="M385.42,-104.4C396.37,-95.17 409.59,-84.01 418.73,-76.3"/>
<polygon fill="#63b8ff" stroke="#63b8ff" points="383.44,-101.49 378.05,-110.62 387.95,-106.84 383.44,-101.49"/>
</a>
</g>
</g>
<!-- Node10 -->
<g id="Node000010" class="node">
<title>Node10</title>
<g id="a_Node000010"><a xlink:href="PlayerControl_8hpp.html" target="_top" xlink:title=" ">
<polygon fill="white" stroke="#666666" points="576.75,-76 482.75,-76 482.75,-56 576.75,-56 576.75,-76"/>
<text text-anchor="middle" x="529.75" y="-62.5" font-family="Helvetica,sans-Serif" font-size="10.00">PlayerControl.hpp</text>
</a>
</g>
</g>
<!-- Node6&#45;&gt;Node10 -->
<g id="edge10_Node000006_Node000010" class="edge">
<title>Node6&#45;&gt;Node10</title>
<g id="a_edge10_Node000006_Node000010"><a xlink:title=" ">
<path fill="none" stroke="#63b8ff" d="M405.08,-108.05C434.61,-98.33 474.36,-85.24 500.96,-76.48"/>
<polygon fill="#63b8ff" stroke="#63b8ff" points="404.16,-104.67 395.75,-111.12 406.35,-111.32 404.16,-104.67"/>
</a>
</g>
</g>
<!-- Node11 -->
<g id="Node000011" class="node">
<title>Node11</title>
<g id="a_Node000011"><a xlink:href="Render_8hpp.html" target="_top" xlink:title=" ">
<polygon fill="white" stroke="#666666" points="660.88,-76 594.62,-76 594.62,-56 660.88,-56 660.88,-76"/>
<text text-anchor="middle" x="627.75" y="-62.5" font-family="Helvetica,sans-Serif" font-size="10.00">Render.hpp</text>
</a>
</g>
</g>
<!-- Node6&#45;&gt;Node11 -->
<g id="edge12_Node000006_Node000011" class="edge">
<title>Node6&#45;&gt;Node11</title>
<g id="a_edge12_Node000006_Node000011"><a xlink:title=" ">
<path fill="none" stroke="#63b8ff" d="M413.44,-111.38C458.02,-102.35 526.43,-88.42 585.75,-76 588.52,-75.42 591.4,-74.81 594.29,-74.2"/>
<polygon fill="#63b8ff" stroke="#63b8ff" points="412.95,-107.91 403.85,-113.32 414.34,-114.77 412.95,-107.91"/>
</a>
</g>
</g>
<!-- Node9&#45;&gt;Node7 -->
<g id="edge9_Node000009_Node000007" class="edge">
<title>Node9&#45;&gt;Node7</title>
<g id="a_edge9_Node000009_Node000007"><a xlink:title=" ">
<path fill="none" stroke="#63b8ff" d="M446.15,-47.29C454.49,-38.28 464.29,-27.7 471.14,-20.3"/>
<polygon fill="#63b8ff" stroke="#63b8ff" points="443.71,-44.77 439.49,-54.48 448.85,-49.52 443.71,-44.77"/>
</a>
</g>
</g>
<!-- Node10&#45;&gt;Node7 -->
<g id="edge11_Node000010_Node000007" class="edge">
<title>Node10&#45;&gt;Node7</title>
<g id="a_edge11_Node000010_Node000007"><a xlink:title=" ">
<path fill="none" stroke="#63b8ff" d="M513.35,-47.29C505.01,-38.28 495.21,-27.7 488.36,-20.3"/>
<polygon fill="#63b8ff" stroke="#63b8ff" points="510.65,-49.52 520.01,-54.48 515.79,-44.77 510.65,-49.52"/>
</a>
</g>
</g>
<!-- Node11&#45;&gt;Node7 -->
<g id="edge13_Node000011_Node000007" class="edge">
<title>Node11&#45;&gt;Node7</title>
<g id="a_edge13_Node000011_Node000007"><a xlink:title=" ">
<path fill="none" stroke="#63b8ff" d="M591.19,-51.66C564.67,-41.98 529.42,-29.12 505.73,-20.48"/>
<polygon fill="#63b8ff" stroke="#63b8ff" points="589.95,-54.94 600.55,-55.08 592.35,-48.36 589.95,-54.94"/>
</a>
</g>
</g>
<!-- Node12&#45;&gt;Node6 -->
<g id="edge17_Node000012_Node000006" class="edge">
<title>Node12&#45;&gt;Node6</title>
<g id="a_edge17_Node000012_Node000006"><a xlink:title=" ">
<path fill="none" stroke="#63b8ff" d="M351.74,-216.28C359.97,-208.66 368.38,-198.9 372.75,-188 380.27,-169.25 373.95,-145.15 369.4,-132.2"/>
<polygon fill="#63b8ff" stroke="#63b8ff" points="349.57,-213.53 344.23,-222.67 354.11,-218.85 349.57,-213.53"/>
</a>
</g>
</g>
<!-- Node13 -->
<g id="Node000013" class="node">
<title>Node13</title>
<g id="a_Node000013"><a xlink:href="EntityManager_8cpp.html" target="_top" xlink:title=" ">
<polygon fill="white" stroke="#666666" points="363.62,-188 265.88,-188 265.88,-168 363.62,-168 363.62,-188"/>
<text text-anchor="middle" x="314.75" y="-174.5" font-family="Helvetica,sans-Serif" font-size="10.00">EntityManager.cpp</text>
</a>
</g>
</g>
<!-- Node12&#45;&gt;Node13 -->
<g id="edge16_Node000012_Node000013" class="edge">
<title>Node12&#45;&gt;Node13</title>
<g id="a_edge16_Node000012_Node000013"><a xlink:title=" ">
<path fill="none" stroke="#63b8ff" d="M324.12,-212.71C321.78,-204.32 319.2,-195.01 317.33,-188.3"/>
<polygon fill="#63b8ff" stroke="#63b8ff" points="320.68,-213.44 326.73,-222.14 327.43,-211.56 320.68,-213.44"/>
</a>
</g>
</g>
<!-- Node14&#45;&gt;Node9 -->
<g id="edge19_Node000014_Node000009" class="edge">
<title>Node14&#45;&gt;Node9</title>
<g id="a_edge19_Node000014_Node000009"><a xlink:title=" ">
<path fill="none" stroke="#63b8ff" d="M556.15,-212.52C558.07,-186.4 557.41,-141.14 534.75,-112 525.19,-99.71 487.87,-85.57 460.43,-76.47"/>
<polygon fill="#63b8ff" stroke="#63b8ff" points="552.7,-211.85 555.23,-222.14 559.67,-212.52 552.7,-211.85"/>
</a>
</g>
</g>
<!-- Node14&#45;&gt;Node10 -->
<g id="edge20_Node000014_Node000010" class="edge">
<title>Node14&#45;&gt;Node10</title>
<g id="a_edge20_Node000014_Node000010"><a xlink:title=" ">
<path fill="none" stroke="#63b8ff" d="M561.57,-212.74C569.84,-188.16 580.12,-145.81 567.75,-112 562.48,-97.6 550.34,-84.62 541.19,-76.35"/>
<polygon fill="#63b8ff" stroke="#63b8ff" points="558.29,-211.54 558.19,-222.13 564.87,-213.91 558.29,-211.54"/>
</a>
</g>
</g>
<!-- Node14&#45;&gt;Node11 -->
<g id="edge21_Node000014_Node000011" class="edge">
<title>Node14&#45;&gt;Node11</title>
<g id="a_edge21_Node000014_Node000011"><a xlink:title=" ">
<path fill="none" stroke="#63b8ff" d="M567.91,-214.79C573.65,-206.85 580.02,-197.27 584.75,-188 604.93,-148.49 619.72,-97.29 625.31,-76.45"/>
<polygon fill="#63b8ff" stroke="#63b8ff" points="565.26,-212.48 562.07,-222.59 570.87,-216.68 565.26,-212.48"/>
</a>
</g>
</g>
<!-- Node15 -->
<g id="Node000015" class="node">
<title>Node15</title>
<g id="a_Node000015"><a xlink:href="SystemManager_8hpp.html" target="_top" xlink:title=" ">
<polygon fill="white" stroke="#666666" points="525.75,-188 419.75,-188 419.75,-168 525.75,-168 525.75,-188"/>
<text text-anchor="middle" x="472.75" y="-174.5" font-family="Helvetica,sans-Serif" font-size="10.00">SystemManager.hpp</text>
</a>
</g>
</g>
<!-- Node14&#45;&gt;Node15 -->
<g id="edge22_Node000014_Node000015" class="edge">
<title>Node14&#45;&gt;Node15</title>
<g id="a_edge22_Node000014_Node000015"><a xlink:title=" ">
<path fill="none" stroke="#63b8ff" d="M530.16,-217.27C516.16,-207.94 498.89,-196.43 486.97,-188.48"/>
<polygon fill="#63b8ff" stroke="#63b8ff" points="528.12,-220.12 538.38,-222.75 532,-214.3 528.12,-220.12"/>
</a>
</g>
</g>
<!-- Node15&#45;&gt;Node6 -->
<g id="edge23_Node000015_Node000006" class="edge">
<title>Node15&#45;&gt;Node6</title>
<g id="a_edge23_Node000015_Node000006"><a xlink:title=" ">
<path fill="none" stroke="#63b8ff" d="M443.98,-162.48C425.11,-152.96 400.97,-140.78 384.53,-132.48"/>
<polygon fill="#63b8ff" stroke="#63b8ff" points="442.26,-165.53 452.76,-166.91 445.41,-159.28 442.26,-165.53"/>
</a>
</g>
</g>
<!-- Node16 -->
<g id="Node000016" class="node">
<title>Node16</title>
<g id="a_Node000016"><a xlink:href="SystemManager_8cpp.html" target="_top" xlink:title=" ">
<polygon fill="white" stroke="#666666" points="525.75,-132 419.75,-132 419.75,-112 525.75,-112 525.75,-132"/>
<text text-anchor="middle" x="472.75" y="-118.5" font-family="Helvetica,sans-Serif" font-size="10.00">SystemManager.cpp</text>
</a>
</g>
</g>
<!-- Node15&#45;&gt;Node16 -->
<g id="edge24_Node000015_Node000016" class="edge">
<title>Node15&#45;&gt;Node16</title>
<g id="a_edge24_Node000015_Node000016"><a xlink:title=" ">
<path fill="none" stroke="#63b8ff" d="M472.75,-156.13C472.75,-147.9 472.75,-138.85 472.75,-132.3"/>
<polygon fill="#63b8ff" stroke="#63b8ff" points="469.25,-156.08 472.75,-166.08 476.25,-156.08 469.25,-156.08"/>
</a>
</g>
</g>
</g>
</svg>
