<?xml version="1.0" encoding="UTF-8" standalone="no"?>
<!DOCTYPE svg PUBLIC "-//W3C//DTD SVG 1.1//EN"
 "http://www.w3.org/Graphics/SVG/1.1/DTD/svg11.dtd">
<!-- Generated by graphviz version 12.1.0 (20240811.2233)
 -->
<!-- Title: EntityManager.hpp Pages: 1 -->
<svg width="1148pt" height="420pt"
 viewBox="0.00 0.00 1147.92 420.00" xmlns="http://www.w3.org/2000/svg" xmlns:xlink="http://www.w3.org/1999/xlink">
<g id="graph0" class="graph" transform="scale(1 1) rotate(0) translate(4 416)">
<title>EntityManager.hpp</title>
<!-- Node1 -->
<g id="Node000001" class="node">
<title>Node1</title>
<g id="a_Node000001"><a xlink:title=" ">
<polygon fill="#999999" stroke="#666666" points="781.79,-412 684.04,-412 684.04,-392 781.79,-392 781.79,-412"/>
<text text-anchor="middle" x="732.92" y="-398.5" font-family="Helvetica,sans-Serif" font-size="10.00">EntityManager.hpp</text>
</a>
</g>
</g>
<!-- Node2 -->
<g id="Node000002" class="node">
<title>Node2</title>
<g id="a_Node000002"><a xlink:href="EntityManager_8cpp.html" target="_top" xlink:title=" ">
<polygon fill="white" stroke="#666666" points="730.79,-356 633.04,-356 633.04,-336 730.79,-336 730.79,-356"/>
<text text-anchor="middle" x="681.92" y="-342.5" font-family="Helvetica,sans-Serif" font-size="10.00">EntityManager.cpp</text>
</a>
</g>
</g>
<!-- Node1&#45;&gt;Node2 -->
<g id="edge1_Node000001_Node000002" class="edge">
<title>Node1&#45;&gt;Node2</title>
<g id="a_edge1_Node000001_Node000002"><a xlink:title=" ">
<path fill="none" stroke="#63b8ff" d="M716.19,-383.29C707.68,-374.28 697.69,-363.7 690.7,-356.3"/>
<polygon fill="#63b8ff" stroke="#63b8ff" points="713.58,-385.63 723,-390.49 718.67,-380.82 713.58,-385.63"/>
</a>
</g>
</g>
<!-- Node3 -->
<g id="Node000003" class="node">
<title>Node3</title>
<g id="a_Node000003"><a xlink:href="Mediator_8hpp.html" target="_top" xlink:title=" ">
<polygon fill="white" stroke="#666666" points="821.04,-356 748.79,-356 748.79,-336 821.04,-336 821.04,-356"/>
<text text-anchor="middle" x="784.92" y="-342.5" font-family="Helvetica,sans-Serif" font-size="10.00">Mediator.hpp</text>
</a>
</g>
</g>
<!-- Node1&#45;&gt;Node3 -->
<g id="edge2_Node000001_Node000003" class="edge">
<title>Node1&#45;&gt;Node3</title>
<g id="a_edge2_Node000001_Node000003"><a xlink:title=" ">
<path fill="none" stroke="#63b8ff" d="M749.71,-383.57C758.44,-374.5 768.76,-363.78 775.96,-356.3"/>
<polygon fill="#63b8ff" stroke="#63b8ff" points="747.44,-380.87 743.03,-390.5 752.48,-385.73 747.44,-380.87"/>
</a>
</g>
</g>
<!-- Node4 -->
<g id="Node000004" class="node">
<title>Node4</title>
<g id="a_Node000004"><a xlink:href="ComponentRegistry_8hpp.html" target="_top" xlink:title=" ">
<polygon fill="white" stroke="#666666" points="709.42,-300 588.42,-300 588.42,-280 709.42,-280 709.42,-300"/>
<text text-anchor="middle" x="648.92" y="-286.5" font-family="Helvetica,sans-Serif" font-size="10.00">ComponentRegistry.hpp</text>
</a>
</g>
</g>
<!-- Node3&#45;&gt;Node4 -->
<g id="edge3_Node000003_Node000004" class="edge">
<title>Node3&#45;&gt;Node4</title>
<g id="a_edge3_Node000003_Node000004"><a xlink:title=" ">
<path fill="none" stroke="#63b8ff" d="M750.67,-331.4C726.37,-321.75 694.37,-309.05 672.79,-300.48"/>
<polygon fill="#63b8ff" stroke="#63b8ff" points="749.24,-334.6 759.82,-335.04 751.82,-328.09 749.24,-334.6"/>
</a>
</g>
</g>
<!-- Node5 -->
<g id="Node000005" class="node">
<title>Node5</title>
<g id="a_Node000005"><a xlink:href="NetworkManager_8hpp.html" target="_top" xlink:title=" ">
<polygon fill="white" stroke="#666666" points="697.42,-244 588.42,-244 588.42,-224 697.42,-224 697.42,-244"/>
<text text-anchor="middle" x="642.92" y="-230.5" font-family="Helvetica,sans-Serif" font-size="10.00">NetworkManager.hpp</text>
</a>
</g>
</g>
<!-- Node3&#45;&gt;Node5 -->
<g id="edge44_Node000003_Node000005" class="edge">
<title>Node3&#45;&gt;Node5</title>
<g id="a_edge44_Node000003_Node000005"><a xlink:title=" ">
<path fill="none" stroke="#63b8ff" d="M769.57,-327.71C756.8,-313.89 737.73,-294.49 718.92,-280 700.57,-265.87 677.43,-252.76 661.53,-244.37"/>
<polygon fill="#63b8ff" stroke="#63b8ff" points="766.66,-329.71 775.97,-334.76 771.84,-325.01 766.66,-329.71"/>
</a>
</g>
</g>
<!-- Node7 -->
<g id="Node000007" class="node">
<title>Node7</title>
<g id="a_Node000007"><a xlink:href="GameTypes_8cpp.html" target="_top" xlink:title=" ">
<polygon fill="white" stroke="#666666" points="490.54,-20 403.29,-20 403.29,0 490.54,0 490.54,-20"/>
<text text-anchor="middle" x="446.92" y="-6.5" font-family="Helvetica,sans-Serif" font-size="10.00">GameTypes.cpp</text>
</a>
</g>
</g>
<!-- Node3&#45;&gt;Node7 -->
<g id="edge41_Node000003_Node000007" class="edge">
<title>Node3&#45;&gt;Node7</title>
<g id="a_edge41_Node000003_Node000007"><a xlink:title=" ">
<path fill="none" stroke="#63b8ff" d="M737.61,-335.78C604.82,-315.77 565.74,-333.51 438.92,-300 252.5,-250.74 145.65,-292.59 38.92,-132 -16.36,-48.82 -46.85,-120.49 194.92,-56 266.84,-36.81 352.53,-23.47 403.18,-16.54"/>
<polygon fill="#63b8ff" stroke="#63b8ff" points="736.7,-339.17 747.12,-337.25 737.77,-332.26 736.7,-339.17"/>
</a>
</g>
</g>
<!-- Node8 -->
<g id="Node000008" class="node">
<title>Node8</title>
<g id="a_Node000008"><a xlink:href="GameTypes_8hpp.html" target="_top" xlink:title=" ">
<polygon fill="white" stroke="#666666" points="373.54,-76 286.29,-76 286.29,-56 373.54,-56 373.54,-76"/>
<text text-anchor="middle" x="329.92" y="-62.5" font-family="Helvetica,sans-Serif" font-size="10.00">GameTypes.hpp</text>
</a>
</g>
</g>
<!-- Node3&#45;&gt;Node8 -->
<g id="edge42_Node000003_Node000008" class="edge">
<title>Node3&#45;&gt;Node8</title>
<g id="a_edge42_Node000003_Node000008"><a xlink:title=" ">
<path fill="none" stroke="#63b8ff" d="M737.31,-336.22C640.15,-329.3 227.43,-342.72 186.92,-300 129.42,-239.37 135.36,-179.28 184.92,-112 207.9,-80.81 252.3,-70.6 285.94,-67.56"/>
<polygon fill="#63b8ff" stroke="#63b8ff" points="736.84,-339.69 747.13,-337.17 737.51,-332.73 736.84,-339.69"/>
</a>
</g>
</g>
<!-- Node10 -->
<g id="Node000010" class="node">
<title>Node10</title>
<g id="a_Node000010"><a xlink:href="Server_8hpp.html" target="_top" xlink:title=" ">
<polygon fill="white" stroke="#666666" points="927.54,-132 864.29,-132 864.29,-112 927.54,-112 927.54,-132"/>
<text text-anchor="middle" x="895.92" y="-118.5" font-family="Helvetica,sans-Serif" font-size="10.00">Server.hpp</text>
</a>
</g>
</g>
<!-- Node3&#45;&gt;Node10 -->
<g id="edge55_Node000003_Node000010" class="edge">
<title>Node3&#45;&gt;Node10</title>
<g id="a_edge55_Node000003_Node000010"><a xlink:title=" ">
<path fill="none" stroke="#63b8ff" d="M799.06,-326.54C828.04,-288.52 891.88,-203.73 896.92,-188 903.04,-168.87 900.17,-144.92 897.85,-132.1"/>
<polygon fill="#63b8ff" stroke="#63b8ff" points="796.4,-324.25 793.11,-334.32 801.97,-328.5 796.4,-324.25"/>
</a>
</g>
</g>
<!-- Node11 -->
<g id="Node000011" class="node">
<title>Node11</title>
<g id="a_Node000011"><a xlink:href="Server_8cpp.html" target="_top" xlink:title=" ">
<polygon fill="white" stroke="#666666" points="1133.54,-76 1070.29,-76 1070.29,-56 1133.54,-56 1133.54,-76"/>
<text text-anchor="middle" x="1101.92" y="-62.5" font-family="Helvetica,sans-Serif" font-size="10.00">Server.cpp</text>
</a>
</g>
</g>
<!-- Node3&#45;&gt;Node11 -->
<g id="edge54_Node000003_Node000011" class="edge">
<title>Node3&#45;&gt;Node11</title>
<g id="a_edge54_Node000003_Node000011"><a xlink:title=" ">
<path fill="none" stroke="#63b8ff" d="M832.35,-343.75C911.19,-340.81 1064.84,-331.14 1107.92,-300 1134.02,-281.14 1139.92,-267.2 1139.92,-235 1139.92,-235 1139.92,-235 1139.92,-177 1139.92,-137.8 1118.1,-94.84 1107.53,-76.33"/>
<polygon fill="#63b8ff" stroke="#63b8ff" points="832.66,-340.24 822.79,-344.08 832.91,-347.23 832.66,-340.24"/>
</a>
</g>
</g>
<!-- Node16 -->
<g id="Node000016" class="node">
<title>Node16</title>
<g id="a_Node000016"><a xlink:href="PlayerControl_8hpp.html" target="_top" xlink:title=" ">
<polygon fill="white" stroke="#666666" points="398.92,-188 304.92,-188 304.92,-168 398.92,-168 398.92,-188"/>
<text text-anchor="middle" x="351.92" y="-174.5" font-family="Helvetica,sans-Serif" font-size="10.00">PlayerControl.hpp</text>
</a>
</g>
</g>
<!-- Node3&#45;&gt;Node16 -->
<g id="edge52_Node000003_Node000016" class="edge">
<title>Node3&#45;&gt;Node16</title>
<g id="a_edge52_Node000003_Node000016"><a xlink:title=" ">
<path fill="none" stroke="#63b8ff" d="M737.62,-335.32C681.78,-323.79 594.6,-305.39 579.92,-300 494.53,-268.64 401.19,-210.93 366.21,-188.38"/>
<polygon fill="#63b8ff" stroke="#63b8ff" points="736.7,-338.71 747.2,-337.3 738.11,-331.85 736.7,-338.71"/>
</a>
</g>
</g>
<!-- Node19 -->
<g id="Node000019" class="node">
<title>Node19</title>
<g id="a_Node000019"><a xlink:href="Render_8hpp.html" target="_top" xlink:title=" ">
<polygon fill="white" stroke="#666666" points="260.04,-132 193.79,-132 193.79,-112 260.04,-112 260.04,-132"/>
<text text-anchor="middle" x="226.92" y="-118.5" font-family="Helvetica,sans-Serif" font-size="10.00">Render.hpp</text>
</a>
</g>
</g>
<!-- Node3&#45;&gt;Node19 -->
<g id="edge53_Node000003_Node000019" class="edge">
<title>Node3&#45;&gt;Node19</title>
<g id="a_edge53_Node000003_Node000019"><a xlink:title=" ">
<path fill="none" stroke="#63b8ff" d="M737.48,-335.61C526.92,-297.67 449.67,-314.77 281.92,-188 260.45,-171.78 241.71,-145.77 232.67,-132.09"/>
<polygon fill="#63b8ff" stroke="#63b8ff" points="736.63,-339.01 747.1,-337.37 737.89,-332.13 736.63,-339.01"/>
</a>
</g>
</g>
<!-- Node22 -->
<g id="Node000022" class="node">
<title>Node22</title>
<g id="a_Node000022"><a xlink:href="Mediator_8cpp.html" target="_top" xlink:title=" ">
<polygon fill="white" stroke="#666666" points="943.04,-300 870.79,-300 870.79,-280 943.04,-280 943.04,-300"/>
<text text-anchor="middle" x="906.92" y="-286.5" font-family="Helvetica,sans-Serif" font-size="10.00">Mediator.cpp</text>
</a>
</g>
</g>
<!-- Node3&#45;&gt;Node22 -->
<g id="edge43_Node000003_Node000022" class="edge">
<title>Node3&#45;&gt;Node22</title>
<g id="a_edge43_Node000003_Node000022"><a xlink:title=" ">
<path fill="none" stroke="#63b8ff" d="M816.53,-331.01C838.21,-321.41 866.41,-308.93 885.5,-300.48"/>
<polygon fill="#63b8ff" stroke="#63b8ff" points="815.28,-327.73 807.55,-334.98 818.11,-334.13 815.28,-327.73"/>
</a>
</g>
</g>
<!-- Node23 -->
<g id="Node000023" class="node">
<title>Node23</title>
<g id="a_Node000023"><a xlink:href="PhysicsEngine_8hpp.html" target="_top" xlink:title=" ">
<polygon fill="white" stroke="#666666" points="1098.92,-300 998.92,-300 998.92,-280 1098.92,-280 1098.92,-300"/>
<text text-anchor="middle" x="1048.92" y="-286.5" font-family="Helvetica,sans-Serif" font-size="10.00">PhysicsEngine.hpp</text>
</a>
</g>
</g>
<!-- Node3&#45;&gt;Node23 -->
<g id="edge45_Node000003_Node000023" class="edge">
<title>Node3&#45;&gt;Node23</title>
<g id="a_edge45_Node000003_Node000023"><a xlink:title=" ">
<path fill="none" stroke="#63b8ff" d="M832.42,-335.28C880.66,-325.42 954.87,-310.24 1002.66,-300.46"/>
<polygon fill="#63b8ff" stroke="#63b8ff" points="831.93,-331.81 822.83,-337.24 833.33,-338.67 831.93,-331.81"/>
</a>
</g>
</g>
<!-- Node24 -->
<g id="Node000024" class="node">
<title>Node24</title>
<g id="a_Node000024"><a xlink:href="PhysicsUsingEngine_8hpp.html" target="_top" xlink:title=" ">
<polygon fill="white" stroke="#666666" points="1072.67,-244 947.17,-244 947.17,-224 1072.67,-224 1072.67,-244"/>
<text text-anchor="middle" x="1009.92" y="-230.5" font-family="Helvetica,sans-Serif" font-size="10.00">PhysicsUsingEngine.hpp</text>
</a>
</g>
</g>
<!-- Node3&#45;&gt;Node24 -->
<g id="edge51_Node000003_Node000024" class="edge">
<title>Node3&#45;&gt;Node24</title>
<g id="a_edge51_Node000003_Node000024"><a xlink:title=" ">
<path fill="none" stroke="#63b8ff" d="M832.89,-339.54C867.95,-333.85 915.53,-322.45 951.92,-300 975.6,-285.39 995.2,-258.2 1004.36,-244.07"/>
<polygon fill="#63b8ff" stroke="#63b8ff" points="832.37,-336.08 823.01,-341.04 833.42,-343 832.37,-336.08"/>
</a>
</g>
</g>
<!-- Node25 -->
<g id="Node000025" class="node">
<title>Node25</title>
<g id="a_Node000025"><a xlink:href="PhysicsNoEngine_8hpp.html" target="_top" xlink:title=" ">
<polygon fill="white" stroke="#666666" points="1074.29,-188 961.54,-188 961.54,-168 1074.29,-168 1074.29,-188"/>
<text text-anchor="middle" x="1017.92" y="-174.5" font-family="Helvetica,sans-Serif" font-size="10.00">PhysicsNoEngine.hpp</text>
</a>
</g>
</g>
<!-- Node3&#45;&gt;Node25 -->
<g id="edge47_Node000003_Node000025" class="edge">
<title>Node3&#45;&gt;Node25</title>
<g id="a_edge47_Node000003_Node000025"><a xlink:title=" ">
<path fill="none" stroke="#63b8ff" d="M803.56,-328.33C831.52,-303.77 886.55,-257.19 937.92,-224 958.53,-210.68 983.29,-197.1 999.75,-188.4"/>
<polygon fill="#63b8ff" stroke="#63b8ff" points="801.46,-325.51 796.29,-334.76 806.1,-330.75 801.46,-325.51"/>
</a>
</g>
</g>
<!-- Node4&#45;&gt;Node5 -->
<g id="edge4_Node000004_Node000005" class="edge">
<title>Node4&#45;&gt;Node5</title>
<g id="a_edge4_Node000004_Node000005"><a xlink:title=" ">
<path fill="none" stroke="#63b8ff" d="M646.63,-268.43C645.71,-260.11 644.69,-250.93 643.95,-244.3"/>
<polygon fill="#63b8ff" stroke="#63b8ff" points="643.12,-268.54 647.71,-278.09 650.08,-267.76 643.12,-268.54"/>
</a>
</g>
</g>
<!-- Node6 -->
<g id="Node000006" class="node">
<title>Node6</title>
<g id="a_Node000006"><a xlink:href="Collision_8hpp.html" target="_top" xlink:title=" ">
<polygon fill="white" stroke="#666666" points="785.04,-188 712.79,-188 712.79,-168 785.04,-168 785.04,-188"/>
<text text-anchor="middle" x="748.92" y="-174.5" font-family="Helvetica,sans-Serif" font-size="10.00">Collision.hpp</text>
</a>
</g>
</g>
<!-- Node5&#45;&gt;Node6 -->
<g id="edge5_Node000005_Node000006" class="edge">
<title>Node5&#45;&gt;Node6</title>
<g id="a_edge5_Node000005_Node000006"><a xlink:title=" ">
<path fill="none" stroke="#63b8ff" d="M671.42,-218.48C690.12,-208.96 714.03,-196.78 730.31,-188.48"/>
<polygon fill="#63b8ff" stroke="#63b8ff" points="670.05,-215.25 662.73,-222.91 673.23,-221.49 670.05,-215.25"/>
</a>
</g>
</g>
<!-- Node5&#45;&gt;Node8 -->
<g id="edge20_Node000005_Node000008" class="edge">
<title>Node5&#45;&gt;Node8</title>
<g id="a_edge20_Node000005_Node000008"><a xlink:title=" ">
<path fill="none" stroke="#63b8ff" d="M576.67,-229.06C481.15,-222.69 314.12,-208.72 295.92,-188 266.82,-154.89 304.81,-98.69 322.13,-76.46"/>
<polygon fill="#63b8ff" stroke="#63b8ff" points="576.23,-232.54 586.44,-229.7 576.69,-225.55 576.23,-232.54"/>
</a>
</g>
</g>
<!-- Node5&#45;&gt;Node10 -->
<g id="edge40_Node000005_Node000010" class="edge">
<title>Node5&#45;&gt;Node10</title>
<g id="a_edge40_Node000005_Node000010"><a xlink:title=" ">
<path fill="none" stroke="#63b8ff" d="M709.11,-227.91C769.46,-221.95 852.77,-209.97 876.92,-188 892.92,-173.44 895.73,-146.23 896.05,-132.08"/>
<polygon fill="#63b8ff" stroke="#63b8ff" points="708.88,-224.42 699.25,-228.85 709.54,-231.39 708.88,-224.42"/>
</a>
</g>
</g>
<!-- Node5&#45;&gt;Node11 -->
<g id="edge39_Node000005_Node000011" class="edge">
<title>Node5&#45;&gt;Node11</title>
<g id="a_edge39_Node000005_Node000011"><a xlink:title=" ">
<path fill="none" stroke="#63b8ff" d="M709.1,-230.62C825.32,-225.81 1056.35,-213.17 1082.92,-188 1114.41,-158.16 1107.78,-99.04 1103.78,-76.26"/>
<polygon fill="#63b8ff" stroke="#63b8ff" points="709.25,-227.11 699.4,-231.01 709.53,-234.11 709.25,-227.11"/>
</a>
</g>
</g>
<!-- Node13 -->
<g id="Node000013" class="node">
<title>Node13</title>
<g id="a_Node000013"><a xlink:href="DevConsole_8hpp.html" target="_top" xlink:title=" ">
<polygon fill="white" stroke="#666666" points="518.29,-132 429.54,-132 429.54,-112 518.29,-112 518.29,-132"/>
<text text-anchor="middle" x="473.92" y="-118.5" font-family="Helvetica,sans-Serif" font-size="10.00">DevConsole.hpp</text>
</a>
</g>
</g>
<!-- Node5&#45;&gt;Node13 -->
<g id="edge13_Node000005_Node000013" class="edge">
<title>Node5&#45;&gt;Node13</title>
<g id="a_edge13_Node000005_Node000013"><a xlink:title=" ">
<path fill="none" stroke="#63b8ff" d="M576.73,-226.67C526.06,-220.29 462.19,-208.4 445.92,-188 432.13,-170.71 451.57,-145.6 464.33,-132.21"/>
<polygon fill="#63b8ff" stroke="#63b8ff" points="576.12,-230.12 586.47,-227.84 576.96,-223.17 576.12,-230.12"/>
</a>
</g>
</g>
<!-- Node14 -->
<g id="Node000014" class="node">
<title>Node14</title>
<g id="a_Node000014"><a xlink:href="Enemy_8hpp.html" target="_top" xlink:title=" ">
<polygon fill="white" stroke="#666666" points="868.29,-188 803.54,-188 803.54,-168 868.29,-168 868.29,-188"/>
<text text-anchor="middle" x="835.92" y="-174.5" font-family="Helvetica,sans-Serif" font-size="10.00">Enemy.hpp</text>
</a>
</g>
</g>
<!-- Node5&#45;&gt;Node14 -->
<g id="edge16_Node000005_Node000014" class="edge">
<title>Node5&#45;&gt;Node14</title>
<g id="a_edge16_Node000005_Node000014"><a xlink:title=" ">
<path fill="none" stroke="#63b8ff" d="M687.52,-220.52C722.9,-210.62 771.53,-197.02 803.33,-188.12"/>
<polygon fill="#63b8ff" stroke="#63b8ff" points="686.68,-217.12 677.99,-223.19 688.57,-223.86 686.68,-217.12"/>
</a>
</g>
</g>
<!-- Node15 -->
<g id="Node000015" class="node">
<title>Node15</title>
<g id="a_Node000015"><a xlink:href="NetworkManager_8cpp.html" target="_top" xlink:title=" ">
<polygon fill="white" stroke="#666666" points="694.42,-188 585.42,-188 585.42,-168 694.42,-168 694.42,-188"/>
<text text-anchor="middle" x="639.92" y="-174.5" font-family="Helvetica,sans-Serif" font-size="10.00">NetworkManager.cpp</text>
</a>
</g>
</g>
<!-- Node5&#45;&gt;Node15 -->
<g id="edge21_Node000005_Node000015" class="edge">
<title>Node5&#45;&gt;Node15</title>
<g id="a_edge21_Node000005_Node000015"><a xlink:title=" ">
<path fill="none" stroke="#63b8ff" d="M641.76,-212.13C641.3,-203.9 640.8,-194.85 640.44,-188.3"/>
<polygon fill="#63b8ff" stroke="#63b8ff" points="638.26,-212.29 642.31,-222.08 645.25,-211.9 638.26,-212.29"/>
</a>
</g>
</g>
<!-- Node5&#45;&gt;Node16 -->
<g id="edge22_Node000005_Node000016" class="edge">
<title>Node5&#45;&gt;Node16</title>
<g id="a_edge22_Node000005_Node000016"><a xlink:title=" ">
<path fill="none" stroke="#63b8ff" d="M580.66,-221.45C526.24,-211.35 448.41,-196.9 399.03,-187.74"/>
<polygon fill="#63b8ff" stroke="#63b8ff" points="579.94,-224.87 590.41,-223.26 581.22,-217.99 579.94,-224.87"/>
</a>
</g>
</g>
<!-- Node18 -->
<g id="Node000018" class="node">
<title>Node18</title>
<g id="a_Node000018"><a xlink:href="Renderer_8hpp.html" target="_top" xlink:title=" ">
<polygon fill="white" stroke="#666666" points="529.17,-188 454.67,-188 454.67,-168 529.17,-168 529.17,-188"/>
<text text-anchor="middle" x="491.92" y="-174.5" font-family="Helvetica,sans-Serif" font-size="10.00">Renderer.hpp</text>
</a>
</g>
</g>
<!-- Node5&#45;&gt;Node18 -->
<g id="edge29_Node000005_Node000018" class="edge">
<title>Node5&#45;&gt;Node18</title>
<g id="a_edge29_Node000005_Node000018"><a xlink:title=" ">
<path fill="none" stroke="#63b8ff" d="M605.98,-219.79C578.88,-210.1 542.7,-197.16 518.43,-188.48"/>
<polygon fill="#63b8ff" stroke="#63b8ff" points="604.6,-223.01 615.19,-223.08 606.95,-216.42 604.6,-223.01"/>
</a>
</g>
</g>
<!-- Node21 -->
<g id="Node000021" class="node">
<title>Node21</title>
<g id="a_Node000021"><a xlink:href="Renderers_2SFML_2SFML_8cpp.html" target="_top" xlink:title=" ">
<polygon fill="white" stroke="#666666" points="698.42,-76 637.42,-76 637.42,-56 698.42,-56 698.42,-76"/>
<text text-anchor="middle" x="667.92" y="-62.5" font-family="Helvetica,sans-Serif" font-size="10.00">SFML.cpp</text>
</a>
</g>
</g>
<!-- Node5&#45;&gt;Node21 -->
<g id="edge38_Node000005_Node000021" class="edge">
<title>Node5&#45;&gt;Node21</title>
<g id="a_edge38_Node000005_Node000021"><a xlink:title=" ">
<path fill="none" stroke="#63b8ff" d="M610.63,-218.62C587.6,-206.29 562.97,-187.47 576.92,-168 605.9,-127.56 653.94,-172.44 682.92,-132 695.06,-115.05 682.71,-89.8 674.31,-76.3"/>
<polygon fill="#63b8ff" stroke="#63b8ff" points="608.77,-221.6 619.27,-222.97 611.91,-215.35 608.77,-221.6"/>
</a>
</g>
</g>
<!-- Node6&#45;&gt;Node7 -->
<g id="edge6_Node000006_Node000007" class="edge">
<title>Node6&#45;&gt;Node7</title>
<g id="a_edge6_Node000006_Node000007"><a xlink:title=" ">
<path fill="none" stroke="#63b8ff" d="M748.11,-156.42C745.85,-129.11 737.61,-81.38 707.92,-56 675.99,-28.7 556.64,-17.44 490.95,-13.24"/>
<polygon fill="#63b8ff" stroke="#63b8ff" points="744.6,-156.41 748.7,-166.18 751.59,-155.99 744.6,-156.41"/>
</a>
</g>
</g>
<!-- Node6&#45;&gt;Node8 -->
<g id="edge7_Node000006_Node000008" class="edge">
<title>Node6&#45;&gt;Node8</title>
<g id="a_edge7_Node000006_Node000008"><a xlink:title=" ">
<path fill="none" stroke="#63b8ff" d="M708,-164.22C663.61,-150.54 590.56,-128.57 526.92,-112 474.63,-98.39 413.97,-84.87 373.92,-76.26"/>
<polygon fill="#63b8ff" stroke="#63b8ff" points="706.88,-167.53 717.47,-167.14 708.95,-160.85 706.88,-167.53"/>
</a>
</g>
</g>
<!-- Node6&#45;&gt;Node10 -->
<g id="edge10_Node000006_Node000010" class="edge">
<title>Node6&#45;&gt;Node10</title>
<g id="a_edge10_Node000006_Node000010"><a xlink:title=" ">
<path fill="none" stroke="#63b8ff" d="M785.23,-163.66C811.58,-153.98 846.58,-141.12 870.11,-132.48"/>
<polygon fill="#63b8ff" stroke="#63b8ff" points="784.12,-160.34 775.94,-167.07 786.54,-166.91 784.12,-160.34"/>
</a>
</g>
</g>
<!-- Node8&#45;&gt;Node7 -->
<g id="edge8_Node000008_Node000007" class="edge">
<title>Node8&#45;&gt;Node7</title>
<g id="a_edge8_Node000008_Node000007"><a xlink:title=" ">
<path fill="none" stroke="#63b8ff" d="M360.52,-50.88C381.28,-41.3 408.15,-28.89 426.38,-20.48"/>
<polygon fill="#63b8ff" stroke="#63b8ff" points="359.29,-47.59 351.67,-54.96 362.22,-53.95 359.29,-47.59"/>
</a>
</g>
</g>
<!-- Node9 -->
<g id="Node000009" class="node">
<title>Node9</title>
<g id="a_Node000009"><a xlink:href="Client_2src_2main_8cpp.html" target="_top" xlink:title=" ">
<polygon fill="white" stroke="#666666" points="357.79,-20 302.04,-20 302.04,0 357.79,0 357.79,-20"/>
<text text-anchor="middle" x="329.92" y="-6.5" font-family="Helvetica,sans-Serif" font-size="10.00">main.cpp</text>
</a>
</g>
</g>
<!-- Node8&#45;&gt;Node9 -->
<g id="edge9_Node000008_Node000009" class="edge">
<title>Node8&#45;&gt;Node9</title>
<g id="a_edge9_Node000008_Node000009"><a xlink:title=" ">
<path fill="none" stroke="#63b8ff" d="M329.92,-44.13C329.92,-35.9 329.92,-26.85 329.92,-20.3"/>
<polygon fill="#63b8ff" stroke="#63b8ff" points="326.42,-44.08 329.92,-54.08 333.42,-44.08 326.42,-44.08"/>
</a>
</g>
</g>
<!-- Node10&#45;&gt;Node11 -->
<g id="edge11_Node000010_Node000011" class="edge">
<title>Node10&#45;&gt;Node11</title>
<g id="a_edge11_Node000010_Node000011"><a xlink:title=" ">
<path fill="none" stroke="#63b8ff" d="M938.65,-109.8C977.68,-99.57 1034.52,-84.67 1069.81,-75.42"/>
<polygon fill="#63b8ff" stroke="#63b8ff" points="937.9,-106.38 929.12,-112.3 939.68,-113.15 937.9,-106.38"/>
</a>
</g>
</g>
<!-- Node12 -->
<g id="Node000012" class="node">
<title>Node12</title>
<g id="a_Node000012"><a xlink:href="Server_2src_2main_8cpp.html" target="_top" xlink:title=" ">
<polygon fill="white" stroke="#666666" points="923.79,-76 868.04,-76 868.04,-56 923.79,-56 923.79,-76"/>
<text text-anchor="middle" x="895.92" y="-62.5" font-family="Helvetica,sans-Serif" font-size="10.00">main.cpp</text>
</a>
</g>
</g>
<!-- Node10&#45;&gt;Node12 -->
<g id="edge12_Node000010_Node000012" class="edge">
<title>Node10&#45;&gt;Node12</title>
<g id="a_edge12_Node000010_Node000012"><a xlink:title=" ">
<path fill="none" stroke="#63b8ff" d="M895.92,-100.13C895.92,-91.9 895.92,-82.85 895.92,-76.3"/>
<polygon fill="#63b8ff" stroke="#63b8ff" points="892.42,-100.08 895.92,-110.08 899.42,-100.08 892.42,-100.08"/>
</a>
</g>
</g>
<!-- Node13&#45;&gt;Node7 -->
<g id="edge14_Node000013_Node000007" class="edge">
<title>Node13&#45;&gt;Node7</title>
<g id="a_edge14_Node000013_Node000007"><a xlink:title=" ">
<path fill="none" stroke="#63b8ff" d="M468.92,-100.64C463.05,-76.72 453.55,-38.03 449.21,-20.35"/>
<polygon fill="#63b8ff" stroke="#63b8ff" points="465.47,-101.27 471.26,-110.15 472.27,-99.61 465.47,-101.27"/>
</a>
</g>
</g>
<!-- Node13&#45;&gt;Node8 -->
<g id="edge15_Node000013_Node000008" class="edge">
<title>Node13&#45;&gt;Node8</title>
<g id="a_edge15_Node000013_Node000008"><a xlink:title=" ">
<path fill="none" stroke="#63b8ff" d="M438.35,-107.66C412.54,-97.98 378.25,-85.12 355.2,-76.48"/>
<polygon fill="#63b8ff" stroke="#63b8ff" points="436.83,-110.83 447.42,-111.06 439.28,-104.27 436.83,-110.83"/>
</a>
</g>
</g>
<!-- Node14&#45;&gt;Node7 -->
<g id="edge17_Node000014_Node000007" class="edge">
<title>Node14&#45;&gt;Node7</title>
<g id="a_edge17_Node000014_Node000007"><a xlink:title=" ">
<path fill="none" stroke="#63b8ff" d="M825.34,-158.21C808.83,-130.79 774.16,-80.43 729.92,-56 689.63,-33.75 559.78,-20.16 490.85,-14.33"/>
<polygon fill="#63b8ff" stroke="#63b8ff" points="822.11,-159.62 830.18,-166.49 828.16,-156.09 822.11,-159.62"/>
</a>
</g>
</g>
<!-- Node14&#45;&gt;Node8 -->
<g id="edge18_Node000014_Node000008" class="edge">
<title>Node14&#45;&gt;Node8</title>
<g id="a_edge18_Node000014_Node000008"><a xlink:title=" ">
<path fill="none" stroke="#63b8ff" d="M807.98,-162.36C777.93,-147.27 728.32,-124.29 682.92,-112 574.23,-82.59 441.39,-72.25 373.87,-68.73"/>
<polygon fill="#63b8ff" stroke="#63b8ff" points="806.28,-165.42 816.78,-166.84 809.45,-159.18 806.28,-165.42"/>
</a>
</g>
</g>
<!-- Node14&#45;&gt;Node10 -->
<g id="edge19_Node000014_Node000010" class="edge">
<title>Node14&#45;&gt;Node10</title>
<g id="a_edge19_Node000014_Node000010"><a xlink:title=" ">
<path fill="none" stroke="#63b8ff" d="M854.67,-160.13C864.87,-150.94 877.1,-139.93 885.59,-132.3"/>
<polygon fill="#63b8ff" stroke="#63b8ff" points="852.59,-157.29 847.49,-166.58 857.27,-162.49 852.59,-157.29"/>
</a>
</g>
</g>
<!-- Node16&#45;&gt;Node7 -->
<g id="edge23_Node000016_Node000007" class="edge">
<title>Node16&#45;&gt;Node7</title>
<g id="a_edge23_Node000016_Node000007"><a xlink:title=" ">
<path fill="none" stroke="#63b8ff" d="M362.85,-157.9C383.27,-122.22 426.52,-46.65 441.6,-20.3"/>
<polygon fill="#63b8ff" stroke="#63b8ff" points="359.98,-155.87 358.05,-166.29 366.05,-159.35 359.98,-155.87"/>
</a>
</g>
</g>
<!-- Node16&#45;&gt;Node8 -->
<g id="edge24_Node000016_Node000008" class="edge">
<title>Node16&#45;&gt;Node8</title>
<g id="a_edge24_Node000016_Node000008"><a xlink:title=" ">
<path fill="none" stroke="#63b8ff" d="M347.85,-156.64C343.06,-132.72 335.33,-94.03 331.79,-76.35"/>
<polygon fill="#63b8ff" stroke="#63b8ff" points="344.35,-157.02 349.75,-166.14 351.22,-155.65 344.35,-157.02"/>
</a>
</g>
</g>
<!-- Node16&#45;&gt;Node10 -->
<g id="edge25_Node000016_Node000010" class="edge">
<title>Node16&#45;&gt;Node10</title>
<g id="a_edge25_Node000016_Node000010"><a xlink:title=" ">
<path fill="none" stroke="#63b8ff" d="M410.56,-171.18C525.2,-159.8 775.52,-134.95 864.09,-126.16"/>
<polygon fill="#63b8ff" stroke="#63b8ff" points="410.35,-167.68 400.75,-172.15 411.05,-174.65 410.35,-167.68"/>
</a>
</g>
</g>
<!-- Node17 -->
<g id="Node000017" class="node">
<title>Node17</title>
<g id="a_Node000017"><a xlink:href="SoundPlayer_8hpp.html" target="_top" xlink:title=" ">
<polygon fill="white" stroke="#666666" points="138.04,-132 47.79,-132 47.79,-112 138.04,-112 138.04,-132"/>
<text text-anchor="middle" x="92.92" y="-118.5" font-family="Helvetica,sans-Serif" font-size="10.00">SoundPlayer.hpp</text>
</a>
</g>
</g>
<!-- Node16&#45;&gt;Node17 -->
<g id="edge26_Node000016_Node000017" class="edge">
<title>Node16&#45;&gt;Node17</title>
<g id="a_edge26_Node000016_Node000017"><a xlink:title=" ">
<path fill="none" stroke="#63b8ff" d="M295.26,-165.19C248.14,-155.36 181.95,-141.56 138.28,-132.46"/>
<polygon fill="#63b8ff" stroke="#63b8ff" points="294.52,-168.61 305.03,-167.22 295.95,-161.76 294.52,-168.61"/>
</a>
</g>
</g>
<!-- Node17&#45;&gt;Node7 -->
<g id="edge27_Node000017_Node000007" class="edge">
<title>Node17&#45;&gt;Node7</title>
<g id="a_edge27_Node000017_Node000007"><a xlink:title=" ">
<path fill="none" stroke="#63b8ff" d="M123.44,-106.8C155.06,-92.5 206.15,-70.53 251.92,-56 302.92,-39.81 363.12,-26.81 403,-19.03"/>
<polygon fill="#63b8ff" stroke="#63b8ff" points="122.13,-103.55 114.49,-110.88 125.04,-109.91 122.13,-103.55"/>
</a>
</g>
</g>
<!-- Node17&#45;&gt;Node8 -->
<g id="edge28_Node000017_Node000008" class="edge">
<title>Node17&#45;&gt;Node8</title>
<g id="a_edge28_Node000017_Node000008"><a xlink:title=" ">
<path fill="none" stroke="#63b8ff" d="M145.58,-109C188.65,-99.19 248.7,-85.51 288.41,-76.46"/>
<polygon fill="#63b8ff" stroke="#63b8ff" points="144.92,-105.56 135.95,-111.2 146.48,-112.39 144.92,-105.56"/>
</a>
</g>
</g>
<!-- Node18&#45;&gt;Node7 -->
<g id="edge31_Node000018_Node000007" class="edge">
<title>Node18&#45;&gt;Node7</title>
<g id="a_edge31_Node000018_Node000007"><a xlink:title=" ">
<path fill="none" stroke="#63b8ff" d="M510.59,-159.5C521.79,-146.8 532.82,-128.95 526.92,-112 513.17,-72.49 476.82,-36.81 458.22,-20.45"/>
<polygon fill="#63b8ff" stroke="#63b8ff" points="508.12,-157.03 503.7,-166.66 513.16,-161.88 508.12,-157.03"/>
</a>
</g>
</g>
<!-- Node18&#45;&gt;Node8 -->
<g id="edge32_Node000018_Node000008" class="edge">
<title>Node18&#45;&gt;Node8</title>
<g id="a_edge32_Node000018_Node000008"><a xlink:title=" ">
<path fill="none" stroke="#63b8ff" d="M466.83,-161.57C453.14,-153.04 435.97,-142.13 420.92,-132 392.57,-112.92 360.19,-89.35 342.72,-76.48"/>
<polygon fill="#63b8ff" stroke="#63b8ff" points="464.9,-164.49 475.24,-166.79 468.59,-158.54 464.9,-164.49"/>
</a>
</g>
</g>
<!-- Node18&#45;&gt;Node13 -->
<g id="edge30_Node000018_Node000013" class="edge">
<title>Node18&#45;&gt;Node13</title>
<g id="a_edge30_Node000018_Node000013"><a xlink:title=" ">
<path fill="none" stroke="#63b8ff" d="M485.16,-156.71C482.36,-148.32 479.25,-139.01 477.02,-132.3"/>
<polygon fill="#63b8ff" stroke="#63b8ff" points="481.82,-157.78 488.3,-166.16 488.46,-155.56 481.82,-157.78"/>
</a>
</g>
</g>
<!-- Node18&#45;&gt;Node19 -->
<g id="edge33_Node000018_Node000019" class="edge">
<title>Node18&#45;&gt;Node19</title>
<g id="a_edge33_Node000018_Node000019"><a xlink:title=" ">
<path fill="none" stroke="#63b8ff" d="M443.05,-167.04C389.91,-156.21 306.4,-139.2 260.29,-129.8"/>
<polygon fill="#63b8ff" stroke="#63b8ff" points="442.25,-170.45 452.75,-169.02 443.65,-163.59 442.25,-170.45"/>
</a>
</g>
</g>
<!-- Node20 -->
<g id="Node000020" class="node">
<title>Node20</title>
<g id="a_Node000020"><a xlink:href="Renderers_2SFML_2SFML_8hpp.html" target="_top" xlink:title=" ">
<polygon fill="white" stroke="#666666" points="673.42,-132 612.42,-132 612.42,-112 673.42,-112 673.42,-132"/>
<text text-anchor="middle" x="642.92" y="-118.5" font-family="Helvetica,sans-Serif" font-size="10.00">SFML.hpp</text>
</a>
</g>
</g>
<!-- Node18&#45;&gt;Node20 -->
<g id="edge36_Node000018_Node000020" class="edge">
<title>Node18&#45;&gt;Node20</title>
<g id="a_edge36_Node000018_Node000020"><a xlink:title=" ">
<path fill="none" stroke="#63b8ff" d="M528.85,-163.79C555.96,-154.1 592.13,-141.16 616.41,-132.48"/>
<polygon fill="#63b8ff" stroke="#63b8ff" points="527.88,-160.42 519.65,-167.08 530.24,-167.01 527.88,-160.42"/>
</a>
</g>
</g>
<!-- Node19&#45;&gt;Node7 -->
<g id="edge34_Node000019_Node000007" class="edge">
<title>Node19&#45;&gt;Node7</title>
<g id="a_edge34_Node000019_Node000007"><a xlink:title=" ">
<path fill="none" stroke="#63b8ff" d="M236.98,-101.87C245.66,-87.2 259.54,-67.56 276.92,-56 314.92,-30.72 366.52,-19.62 402.87,-14.76"/>
<polygon fill="#63b8ff" stroke="#63b8ff" points="233.94,-100.15 232.12,-110.59 240.05,-103.56 233.94,-100.15"/>
</a>
</g>
</g>
<!-- Node19&#45;&gt;Node8 -->
<g id="edge35_Node000019_Node000008" class="edge">
<title>Node19&#45;&gt;Node8</title>
<g id="a_edge35_Node000019_Node000008"><a xlink:title=" ">
<path fill="none" stroke="#63b8ff" d="M254.87,-106.35C273,-96.84 296.09,-84.74 311.84,-76.48"/>
<polygon fill="#63b8ff" stroke="#63b8ff" points="253.43,-103.15 246.2,-110.89 256.68,-109.35 253.43,-103.15"/>
</a>
</g>
</g>
<!-- Node20&#45;&gt;Node21 -->
<g id="edge37_Node000020_Node000021" class="edge">
<title>Node20&#45;&gt;Node21</title>
<g id="a_edge37_Node000020_Node000021"><a xlink:title=" ">
<path fill="none" stroke="#63b8ff" d="M652.04,-101.29C656,-92.75 660.44,-83.16 663.61,-76.3"/>
<polygon fill="#63b8ff" stroke="#63b8ff" points="648.93,-99.68 647.91,-110.22 655.29,-102.62 648.93,-99.68"/>
</a>
</g>
</g>
<!-- Node23&#45;&gt;Node24 -->
<g id="edge46_Node000023_Node000024" class="edge">
<title>Node23&#45;&gt;Node24</title>
<g id="a_edge46_Node000023_Node000024"><a xlink:title=" ">
<path fill="none" stroke="#63b8ff" d="M1035.51,-270.44C1029.14,-261.62 1021.81,-251.47 1016.63,-244.3"/>
<polygon fill="#63b8ff" stroke="#63b8ff" points="1032.55,-272.31 1041.24,-278.37 1038.22,-268.21 1032.55,-272.31"/>
</a>
</g>
</g>
<!-- Node25&#45;&gt;Node7 -->
<g id="edge48_Node000025_Node000007" class="edge">
<title>Node25&#45;&gt;Node7</title>
<g id="a_edge48_Node000025_Node000007"><a xlink:title=" ">
<path fill="none" stroke="#63b8ff" d="M1010.34,-157.18C998.5,-129.23 972.76,-79.1 932.92,-56 858.42,-12.81 595.87,-9.84 490.83,-10.44"/>
<polygon fill="#63b8ff" stroke="#63b8ff" points="1007.01,-158.28 1014,-166.25 1013.5,-155.66 1007.01,-158.28"/>
</a>
</g>
</g>
<!-- Node25&#45;&gt;Node8 -->
<g id="edge49_Node000025_Node000008" class="edge">
<title>Node25&#45;&gt;Node8</title>
<g id="a_edge49_Node000025_Node000008"><a xlink:title=" ">
<path fill="none" stroke="#63b8ff" d="M1002.33,-159.56C987.28,-144.04 963,-122.27 936.92,-112 884.93,-91.53 504.53,-74.17 373.85,-68.75"/>
<polygon fill="#63b8ff" stroke="#63b8ff" points="999.64,-161.81 1009.03,-166.73 1004.76,-157.03 999.64,-161.81"/>
</a>
</g>
</g>
<!-- Node25&#45;&gt;Node10 -->
<g id="edge50_Node000025_Node000010" class="edge">
<title>Node25&#45;&gt;Node10</title>
<g id="a_edge50_Node000025_Node000010"><a xlink:title=" ">
<path fill="none" stroke="#63b8ff" d="M986.31,-163.01C964.62,-153.41 936.43,-140.93 917.34,-132.48"/>
<polygon fill="#63b8ff" stroke="#63b8ff" points="984.72,-166.13 995.28,-166.98 987.56,-159.73 984.72,-166.13"/>
</a>
</g>
</g>
</g>
</svg>
