<?xml version="1.0" encoding="UTF-8" standalone="no"?>
<!DOCTYPE svg PUBLIC "-//W3C//DTD SVG 1.1//EN"
 "http://www.w3.org/Graphics/SVG/1.1/DTD/svg11.dtd">
<!-- Generated by graphviz version 12.1.0 (20240811.2233)
 -->
<!-- Title: EntityManager.cpp Pages: 1 -->
<svg width="322pt" height="196pt"
 viewBox="0.00 0.00 322.38 196.00" xmlns="http://www.w3.org/2000/svg" xmlns:xlink="http://www.w3.org/1999/xlink">
<g id="graph0" class="graph" transform="scale(1 1) rotate(0) translate(4 192)">
<title>EntityManager.cpp</title>
<!-- Node1 -->
<g id="Node000001" class="node">
<title>Node1</title>
<g id="a_Node000001"><a xlink:title=" ">
<polygon fill="#999999" stroke="#666666" points="152.25,-188 54.5,-188 54.5,-168 152.25,-168 152.25,-188"/>
<text text-anchor="middle" x="103.38" y="-174.5" font-family="Helvetica,sans-Serif" font-size="10.00">EntityManager.cpp</text>
</a>
</g>
</g>
<!-- Node2 -->
<g id="Node000002" class="node">
<title>Node2</title>
<g id="a_Node000002"><a xlink:title=" ">
<polygon fill="#e0e0e0" stroke="#999999" points="58.75,-132 0,-132 0,-112 58.75,-112 58.75,-132"/>
<text text-anchor="middle" x="29.38" y="-118.5" font-family="Helvetica,sans-Serif" font-size="10.00">stdexcept</text>
</a>
</g>
</g>
<!-- Node1&#45;&gt;Node2 -->
<g id="edge1_Node000001_Node000002" class="edge">
<title>Node1&#45;&gt;Node2</title>
<g id="a_edge1_Node000001_Node000002"><a xlink:title=" ">
<path fill="none" stroke="#63b8ff" d="M90.49,-167.59C79.66,-159.7 63.96,-148.24 51.19,-138.92"/>
<polygon fill="#63b8ff" stroke="#63b8ff" points="53.48,-136.26 43.34,-133.19 49.35,-141.91 53.48,-136.26"/>
</a>
</g>
</g>
<!-- Node3 -->
<g id="Node000003" class="node">
<title>Node3</title>
<g id="a_Node000003"><a xlink:title=" ">
<polygon fill="#e0e0e0" stroke="#999999" points="130.12,-132 76.62,-132 76.62,-112 130.12,-112 130.12,-132"/>
<text text-anchor="middle" x="103.38" y="-118.5" font-family="Helvetica,sans-Serif" font-size="10.00">iostream</text>
</a>
</g>
</g>
<!-- Node1&#45;&gt;Node3 -->
<g id="edge2_Node000001_Node000003" class="edge">
<title>Node1&#45;&gt;Node3</title>
<g id="a_edge2_Node000001_Node000003"><a xlink:title=" ">
<path fill="none" stroke="#63b8ff" d="M103.38,-167.59C103.38,-161.01 103.38,-151.96 103.38,-143.73"/>
<polygon fill="#63b8ff" stroke="#63b8ff" points="106.88,-143.81 103.38,-133.81 99.88,-143.81 106.88,-143.81"/>
</a>
</g>
</g>
<!-- Node4 -->
<g id="Node000004" class="node">
<title>Node4</title>
<g id="a_Node000004"><a xlink:href="EntityManager_8hpp.html" target="_top" xlink:title=" ">
<polygon fill="white" stroke="#666666" points="246.25,-132 148.5,-132 148.5,-112 246.25,-112 246.25,-132"/>
<text text-anchor="middle" x="197.38" y="-118.5" font-family="Helvetica,sans-Serif" font-size="10.00">EntityManager.hpp</text>
</a>
</g>
</g>
<!-- Node1&#45;&gt;Node4 -->
<g id="edge3_Node000001_Node000004" class="edge">
<title>Node1&#45;&gt;Node4</title>
<g id="a_edge3_Node000001_Node000004"><a xlink:title=" ">
<path fill="none" stroke="#63b8ff" d="M119.75,-167.59C133.95,-159.44 154.76,-147.48 171.26,-138"/>
<polygon fill="#63b8ff" stroke="#63b8ff" points="172.63,-141.25 179.56,-133.23 169.15,-135.18 172.63,-141.25"/>
</a>
</g>
</g>
<!-- Node5 -->
<g id="Node000005" class="node">
<title>Node5</title>
<g id="a_Node000005"><a xlink:title=" ">
<polygon fill="#e0e0e0" stroke="#999999" points="160.5,-76 118.25,-76 118.25,-56 160.5,-56 160.5,-76"/>
<text text-anchor="middle" x="139.38" y="-62.5" font-family="Helvetica,sans-Serif" font-size="10.00">queue</text>
</a>
</g>
</g>
<!-- Node4&#45;&gt;Node5 -->
<g id="edge4_Node000004_Node000005" class="edge">
<title>Node4&#45;&gt;Node5</title>
<g id="a_edge4_Node000004_Node000005"><a xlink:title=" ">
<path fill="none" stroke="#63b8ff" d="M187.27,-111.59C179.12,-104.01 167.44,-93.13 157.66,-84.02"/>
<polygon fill="#63b8ff" stroke="#63b8ff" points="160.17,-81.58 150.47,-77.33 155.4,-86.71 160.17,-81.58"/>
</a>
</g>
</g>
<!-- Node6 -->
<g id="Node000006" class="node">
<title>Node6</title>
<g id="a_Node000006"><a xlink:title=" ">
<polygon fill="#e0e0e0" stroke="#999999" points="216.25,-76 178.5,-76 178.5,-56 216.25,-56 216.25,-76"/>
<text text-anchor="middle" x="197.38" y="-62.5" font-family="Helvetica,sans-Serif" font-size="10.00">array</text>
</a>
</g>
</g>
<!-- Node4&#45;&gt;Node6 -->
<g id="edge5_Node000004_Node000006" class="edge">
<title>Node4&#45;&gt;Node6</title>
<g id="a_edge5_Node000004_Node000006"><a xlink:title=" ">
<path fill="none" stroke="#63b8ff" d="M197.38,-111.59C197.38,-105.01 197.38,-95.96 197.38,-87.73"/>
<polygon fill="#63b8ff" stroke="#63b8ff" points="200.88,-87.81 197.38,-77.81 193.88,-87.81 200.88,-87.81"/>
</a>
</g>
</g>
<!-- Node7 -->
<g id="Node000007" class="node">
<title>Node7</title>
<g id="a_Node000007"><a xlink:href="Entity_8hpp.html" target="_top" xlink:title=" ">
<polygon fill="white" stroke="#666666" points="294.12,-76 234.62,-76 234.62,-56 294.12,-56 294.12,-76"/>
<text text-anchor="middle" x="264.38" y="-62.5" font-family="Helvetica,sans-Serif" font-size="10.00">Entity.hpp</text>
</a>
</g>
</g>
<!-- Node4&#45;&gt;Node7 -->
<g id="edge6_Node000004_Node000007" class="edge">
<title>Node4&#45;&gt;Node7</title>
<g id="a_edge6_Node000004_Node000007"><a xlink:title=" ">
<path fill="none" stroke="#63b8ff" d="M209.05,-111.59C218.65,-103.85 232.5,-92.69 243.94,-83.47"/>
<polygon fill="#63b8ff" stroke="#63b8ff" points="246.07,-86.25 251.66,-77.25 241.68,-80.8 246.07,-86.25"/>
</a>
</g>
</g>
<!-- Node8 -->
<g id="Node000008" class="node">
<title>Node8</title>
<g id="a_Node000008"><a xlink:title=" ">
<polygon fill="#e0e0e0" stroke="#999999" points="256,-20 210.75,-20 210.75,0 256,0 256,-20"/>
<text text-anchor="middle" x="233.38" y="-6.5" font-family="Helvetica,sans-Serif" font-size="10.00">cstdint</text>
</a>
</g>
</g>
<!-- Node7&#45;&gt;Node8 -->
<g id="edge7_Node000007_Node000008" class="edge">
<title>Node7&#45;&gt;Node8</title>
<g id="a_edge7_Node000007_Node000008"><a xlink:title=" ">
<path fill="none" stroke="#63b8ff" d="M258.98,-55.59C254.93,-48.55 249.26,-38.67 244.28,-30"/>
<polygon fill="#63b8ff" stroke="#63b8ff" points="247.48,-28.54 239.47,-21.61 241.41,-32.03 247.48,-28.54"/>
</a>
</g>
</g>
<!-- Node9 -->
<g id="Node000009" class="node">
<title>Node9</title>
<g id="a_Node000009"><a xlink:title=" ">
<polygon fill="#e0e0e0" stroke="#999999" points="314.38,-20 274.38,-20 274.38,0 314.38,0 314.38,-20"/>
<text text-anchor="middle" x="294.38" y="-6.5" font-family="Helvetica,sans-Serif" font-size="10.00">bitset</text>
</a>
</g>
</g>
<!-- Node7&#45;&gt;Node9 -->
<g id="edge8_Node000007_Node000009" class="edge">
<title>Node7&#45;&gt;Node9</title>
<g id="a_edge8_Node000007_Node000009"><a xlink:title=" ">
<path fill="none" stroke="#63b8ff" d="M269.6,-55.59C273.47,-48.63 278.88,-38.89 283.66,-30.29"/>
<polygon fill="#63b8ff" stroke="#63b8ff" points="286.68,-32.06 288.47,-21.62 280.56,-28.66 286.68,-32.06"/>
</a>
</g>
</g>
</g>
</svg>
