<?xml version="1.0" encoding="UTF-8" standalone="no"?>
<!DOCTYPE svg PUBLIC "-//W3C//DTD SVG 1.1//EN"
 "http://www.w3.org/Graphics/SVG/1.1/DTD/svg11.dtd">
<!-- Generated by graphviz version 12.1.0 (20240811.2233)
 -->
<!-- Title: ErrorServer.cpp Pages: 1 -->
<svg width="270pt" height="196pt"
 viewBox="0.00 0.00 270.38 196.00" xmlns="http://www.w3.org/2000/svg" xmlns:xlink="http://www.w3.org/1999/xlink">
<g id="graph0" class="graph" transform="scale(1 1) rotate(0) translate(4 192)">
<title>ErrorServer.cpp</title>
<!-- Node1 -->
<g id="Node000001" class="node">
<title>Node1</title>
<g id="a_Node000001"><a xlink:title=" ">
<polygon fill="#999999" stroke="#666666" points="184.62,-188 100.38,-188 100.38,-168 184.62,-168 184.62,-188"/>
<text text-anchor="middle" x="142.5" y="-174.5" font-family="Helvetica,sans-Serif" font-size="10.00">ErrorServer.cpp</text>
</a>
</g>
</g>
<!-- Node2 -->
<g id="Node000002" class="node">
<title>Node2</title>
<g id="a_Node000002"><a xlink:href="ErrorServer_8hpp.html" target="_top" xlink:title=" ">
<polygon fill="white" stroke="#666666" points="141.62,-132 57.38,-132 57.38,-112 141.62,-112 141.62,-132"/>
<text text-anchor="middle" x="99.5" y="-118.5" font-family="Helvetica,sans-Serif" font-size="10.00">ErrorServer.hpp</text>
</a>
</g>
</g>
<!-- Node1&#45;&gt;Node2 -->
<g id="edge1_Node000001_Node000002" class="edge">
<title>Node1&#45;&gt;Node2</title>
<g id="a_edge1_Node000001_Node000002"><a xlink:title=" ">
<path fill="none" stroke="#63b8ff" d="M135.01,-167.59C129.21,-160.32 121.01,-150.02 113.95,-141.15"/>
<polygon fill="#63b8ff" stroke="#63b8ff" points="116.81,-139.12 107.85,-133.48 111.34,-143.49 116.81,-139.12"/>
</a>
</g>
</g>
<!-- Node9 -->
<g id="Node000009" class="node">
<title>Node9</title>
<g id="a_Node000009"><a xlink:title=" ">
<polygon fill="#e0e0e0" stroke="#999999" points="213.25,-132 159.75,-132 159.75,-112 213.25,-112 213.25,-132"/>
<text text-anchor="middle" x="186.5" y="-118.5" font-family="Helvetica,sans-Serif" font-size="10.00">iostream</text>
</a>
</g>
</g>
<!-- Node1&#45;&gt;Node9 -->
<g id="edge8_Node000001_Node000009" class="edge">
<title>Node1&#45;&gt;Node9</title>
<g id="a_edge8_Node000001_Node000009"><a xlink:title=" ">
<path fill="none" stroke="#63b8ff" d="M150.16,-167.59C156.09,-160.32 164.49,-150.02 171.71,-141.15"/>
<polygon fill="#63b8ff" stroke="#63b8ff" points="174.36,-143.43 177.97,-133.47 168.94,-139.01 174.36,-143.43"/>
</a>
</g>
</g>
<!-- Node3 -->
<g id="Node000003" class="node">
<title>Node3</title>
<g id="a_Node000003"><a xlink:title=" ">
<polygon fill="#e0e0e0" stroke="#999999" points="103,-76 0,-76 0,-56 103,-56 103,-76"/>
<text text-anchor="middle" x="51.5" y="-62.5" font-family="Helvetica,sans-Serif" font-size="10.00">SFML/Graphics.hpp</text>
</a>
</g>
</g>
<!-- Node2&#45;&gt;Node3 -->
<g id="edge2_Node000002_Node000003" class="edge">
<title>Node2&#45;&gt;Node3</title>
<g id="a_edge2_Node000002_Node000003"><a xlink:title=" ">
<path fill="none" stroke="#63b8ff" d="M91.14,-111.59C84.6,-104.24 75.32,-93.8 67.38,-84.87"/>
<polygon fill="#63b8ff" stroke="#63b8ff" points="70.03,-82.58 60.77,-77.43 64.8,-87.23 70.03,-82.58"/>
</a>
</g>
</g>
<!-- Node4 -->
<g id="Node000004" class="node">
<title>Node4</title>
<g id="a_Node000004"><a xlink:href="Utils_8hpp.html" target="_top" xlink:title=" ">
<polygon fill="white" stroke="#666666" points="176,-76 121,-76 121,-56 176,-56 176,-76"/>
<text text-anchor="middle" x="148.5" y="-62.5" font-family="Helvetica,sans-Serif" font-size="10.00">Utils.hpp</text>
</a>
</g>
</g>
<!-- Node2&#45;&gt;Node4 -->
<g id="edge3_Node000002_Node000004" class="edge">
<title>Node2&#45;&gt;Node4</title>
<g id="a_edge3_Node000002_Node000004"><a xlink:title=" ">
<path fill="none" stroke="#63b8ff" d="M108.04,-111.59C114.78,-104.16 124.39,-93.58 132.54,-84.58"/>
<polygon fill="#63b8ff" stroke="#63b8ff" points="134.92,-87.18 139.05,-77.42 129.73,-82.47 134.92,-87.18"/>
</a>
</g>
</g>
<!-- Node5 -->
<g id="Node000005" class="node">
<title>Node5</title>
<g id="a_Node000005"><a xlink:title=" ">
<polygon fill="#e0e0e0" stroke="#999999" points="78.12,-20 32.88,-20 32.88,0 78.12,0 78.12,-20"/>
<text text-anchor="middle" x="55.5" y="-6.5" font-family="Helvetica,sans-Serif" font-size="10.00">cstdint</text>
</a>
</g>
</g>
<!-- Node4&#45;&gt;Node5 -->
<g id="edge4_Node000004_Node000005" class="edge">
<title>Node4&#45;&gt;Node5</title>
<g id="a_edge4_Node000004_Node000005"><a xlink:title=" ">
<path fill="none" stroke="#63b8ff" d="M132.3,-55.59C118.25,-47.44 97.67,-35.48 81.34,-26"/>
<polygon fill="#63b8ff" stroke="#63b8ff" points="83.54,-23.23 73.13,-21.24 80.03,-29.29 83.54,-23.23"/>
</a>
</g>
</g>
<!-- Node6 -->
<g id="Node000006" class="node">
<title>Node6</title>
<g id="a_Node000006"><a xlink:title=" ">
<polygon fill="#e0e0e0" stroke="#999999" points="136.5,-20 96.5,-20 96.5,0 136.5,0 136.5,-20"/>
<text text-anchor="middle" x="116.5" y="-6.5" font-family="Helvetica,sans-Serif" font-size="10.00">string</text>
</a>
</g>
</g>
<!-- Node4&#45;&gt;Node6 -->
<g id="edge5_Node000004_Node000006" class="edge">
<title>Node4&#45;&gt;Node6</title>
<g id="a_edge5_Node000004_Node000006"><a xlink:title=" ">
<path fill="none" stroke="#63b8ff" d="M142.93,-55.59C138.75,-48.55 132.9,-38.67 127.76,-30"/>
<polygon fill="#63b8ff" stroke="#63b8ff" points="130.89,-28.42 122.78,-21.6 124.87,-31.99 130.89,-28.42"/>
</a>
</g>
</g>
<!-- Node7 -->
<g id="Node000007" class="node">
<title>Node7</title>
<g id="a_Node000007"><a xlink:title=" ">
<polygon fill="#e0e0e0" stroke="#999999" points="206.12,-20 154.88,-20 154.88,0 206.12,0 206.12,-20"/>
<text text-anchor="middle" x="180.5" y="-6.5" font-family="Helvetica,sans-Serif" font-size="10.00">ostream</text>
</a>
</g>
</g>
<!-- Node4&#45;&gt;Node7 -->
<g id="edge6_Node000004_Node000007" class="edge">
<title>Node4&#45;&gt;Node7</title>
<g id="a_edge6_Node000004_Node000007"><a xlink:title=" ">
<path fill="none" stroke="#63b8ff" d="M154.07,-55.59C158.25,-48.55 164.1,-38.67 169.24,-30"/>
<polygon fill="#63b8ff" stroke="#63b8ff" points="172.13,-31.99 174.22,-21.6 166.11,-28.42 172.13,-31.99"/>
</a>
</g>
</g>
<!-- Node8 -->
<g id="Node000008" class="node">
<title>Node8</title>
<g id="a_Node000008"><a xlink:title=" ">
<polygon fill="#e0e0e0" stroke="#999999" points="262.38,-20 224.62,-20 224.62,0 262.38,0 262.38,-20"/>
<text text-anchor="middle" x="243.5" y="-6.5" font-family="Helvetica,sans-Serif" font-size="10.00">array</text>
</a>
</g>
</g>
<!-- Node4&#45;&gt;Node8 -->
<g id="edge7_Node000004_Node000008" class="edge">
<title>Node4&#45;&gt;Node8</title>
<g id="a_edge7_Node000004_Node000008"><a xlink:title=" ">
<path fill="none" stroke="#63b8ff" d="M165.05,-55.59C179.4,-47.44 200.43,-35.48 217.1,-26"/>
<polygon fill="#63b8ff" stroke="#63b8ff" points="218.54,-29.21 225.51,-21.23 215.08,-23.13 218.54,-29.21"/>
</a>
</g>
</g>
</g>
</svg>
