<?xml version="1.0" encoding="UTF-8" standalone="no"?>
<!DOCTYPE svg PUBLIC "-//W3C//DTD SVG 1.1//EN"
 "http://www.w3.org/Graphics/SVG/1.1/DTD/svg11.dtd">
<!-- Generated by graphviz version 12.1.0 (20240811.2233)
 -->
<!-- Title: ErrorServer.hpp Pages: 1 -->
<svg width="227pt" height="140pt"
 viewBox="0.00 0.00 227.00 140.00" xmlns="http://www.w3.org/2000/svg" xmlns:xlink="http://www.w3.org/1999/xlink">
<g id="graph0" class="graph" transform="scale(1 1) rotate(0) translate(4 136)">
<title>ErrorServer.hpp</title>
<!-- Node1 -->
<g id="Node000001" class="node">
<title>Node1</title>
<g id="a_Node000001"><a xlink:title=" ">
<polygon fill="#999999" stroke="#666666" points="136.25,-132 52,-132 52,-112 136.25,-112 136.25,-132"/>
<text text-anchor="middle" x="94.12" y="-118.5" font-family="Helvetica,sans-Serif" font-size="10.00">ErrorServer.hpp</text>
</a>
</g>
</g>
<!-- Node2 -->
<g id="Node000002" class="node">
<title>Node2</title>
<g id="a_Node000002"><a xlink:href="ErrorServer_8cpp.html" target="_top" xlink:title=" ">
<polygon fill="white" stroke="#666666" points="84.25,-76 0,-76 0,-56 84.25,-56 84.25,-76"/>
<text text-anchor="middle" x="42.12" y="-62.5" font-family="Helvetica,sans-Serif" font-size="10.00">ErrorServer.cpp</text>
</a>
</g>
</g>
<!-- Node1&#45;&gt;Node2 -->
<g id="edge1_Node000001_Node000002" class="edge">
<title>Node1&#45;&gt;Node2</title>
<g id="a_edge1_Node000001_Node000002"><a xlink:title=" ">
<path fill="none" stroke="#63b8ff" d="M77.34,-103.57C68.61,-94.5 58.28,-83.78 51.08,-76.3"/>
<polygon fill="#63b8ff" stroke="#63b8ff" points="74.56,-105.73 84.02,-110.5 79.6,-100.87 74.56,-105.73"/>
</a>
</g>
</g>
<!-- Node3 -->
<g id="Node000003" class="node">
<title>Node3</title>
<g id="a_Node000003"><a xlink:href="GameTypes_8hpp.html" target="_top" xlink:title=" ">
<polygon fill="white" stroke="#666666" points="189.75,-76 102.5,-76 102.5,-56 189.75,-56 189.75,-76"/>
<text text-anchor="middle" x="146.12" y="-62.5" font-family="Helvetica,sans-Serif" font-size="10.00">GameTypes.hpp</text>
</a>
</g>
</g>
<!-- Node1&#45;&gt;Node3 -->
<g id="edge2_Node000001_Node000003" class="edge">
<title>Node1&#45;&gt;Node3</title>
<g id="a_edge2_Node000001_Node000003"><a xlink:title=" ">
<path fill="none" stroke="#63b8ff" d="M110.91,-103.57C119.64,-94.5 129.97,-83.78 137.17,-76.3"/>
<polygon fill="#63b8ff" stroke="#63b8ff" points="108.65,-100.87 104.23,-110.5 113.69,-105.73 108.65,-100.87"/>
</a>
</g>
</g>
<!-- Node4 -->
<g id="Node000004" class="node">
<title>Node4</title>
<g id="a_Node000004"><a xlink:href="GameTypes_8cpp.html" target="_top" xlink:title=" ">
<polygon fill="white" stroke="#666666" points="144.75,-20 57.5,-20 57.5,0 144.75,0 144.75,-20"/>
<text text-anchor="middle" x="101.12" y="-6.5" font-family="Helvetica,sans-Serif" font-size="10.00">GameTypes.cpp</text>
</a>
</g>
</g>
<!-- Node3&#45;&gt;Node4 -->
<g id="edge3_Node000003_Node000004" class="edge">
<title>Node3&#45;&gt;Node4</title>
<g id="a_edge3_Node000003_Node000004"><a xlink:title=" ">
<path fill="none" stroke="#63b8ff" d="M131.13,-47C123.67,-38.06 114.98,-27.62 108.87,-20.3"/>
<polygon fill="#63b8ff" stroke="#63b8ff" points="128.23,-48.99 137.32,-54.43 133.6,-44.51 128.23,-48.99"/>
</a>
</g>
</g>
<!-- Node5 -->
<g id="Node000005" class="node">
<title>Node5</title>
<g id="a_Node000005"><a xlink:href="Client_2src_2main_8cpp.html" target="_top" xlink:title=" ">
<polygon fill="white" stroke="#666666" points="219,-20 163.25,-20 163.25,0 219,0 219,-20"/>
<text text-anchor="middle" x="191.12" y="-6.5" font-family="Helvetica,sans-Serif" font-size="10.00">main.cpp</text>
</a>
</g>
</g>
<!-- Node3&#45;&gt;Node5 -->
<g id="edge4_Node000003_Node000005" class="edge">
<title>Node3&#45;&gt;Node5</title>
<g id="a_edge4_Node000003_Node000005"><a xlink:title=" ">
<path fill="none" stroke="#63b8ff" d="M161.12,-47C168.58,-38.06 177.27,-27.62 183.38,-20.3"/>
<polygon fill="#63b8ff" stroke="#63b8ff" points="158.65,-44.51 154.93,-54.43 164.02,-48.99 158.65,-44.51"/>
</a>
</g>
</g>
</g>
</svg>
