<?xml version="1.0" encoding="UTF-8" standalone="no"?>
<!DOCTYPE svg PUBLIC "-//W3C//DTD SVG 1.1//EN"
 "http://www.w3.org/Graphics/SVG/1.1/DTD/svg11.dtd">
<!-- Generated by graphviz version 12.1.0 (20240811.2233)
 -->
<!-- Title: Event.hpp Pages: 1 -->
<svg width="380pt" height="252pt"
 viewBox="0.00 0.00 379.96 252.00" xmlns="http://www.w3.org/2000/svg" xmlns:xlink="http://www.w3.org/1999/xlink">
<g id="graph0" class="graph" transform="scale(1 1) rotate(0) translate(4 248)">
<title>Event.hpp</title>
<!-- Node1 -->
<g id="Node000001" class="node">
<title>Node1</title>
<g id="a_Node000001"><a xlink:title=" ">
<polygon fill="#999999" stroke="#666666" points="275.08,-244 214.83,-244 214.83,-224 275.08,-224 275.08,-244"/>
<text text-anchor="middle" x="244.96" y="-230.5" font-family="Helvetica,sans-Serif" font-size="10.00">Event.hpp</text>
</a>
</g>
</g>
<!-- Node2 -->
<g id="Node000002" class="node">
<title>Node2</title>
<g id="a_Node000002"><a xlink:href="EventManager_8hpp.html" target="_top" xlink:title=" ">
<polygon fill="white" stroke="#666666" points="255.83,-188 158.08,-188 158.08,-168 255.83,-168 255.83,-188"/>
<text text-anchor="middle" x="206.96" y="-174.5" font-family="Helvetica,sans-Serif" font-size="10.00">EventManager.hpp</text>
</a>
</g>
</g>
<!-- Node1&#45;&gt;Node2 -->
<g id="edge1_Node000001_Node000002" class="edge">
<title>Node1&#45;&gt;Node2</title>
<g id="a_edge1_Node000001_Node000002"><a xlink:title=" ">
<path fill="none" stroke="#63b8ff" d="M231.9,-214.44C225.69,-205.62 218.55,-195.47 213.5,-188.3"/>
<polygon fill="#63b8ff" stroke="#63b8ff" points="228.85,-216.19 237.47,-222.36 234.58,-212.16 228.85,-216.19"/>
</a>
</g>
</g>
<!-- Node7 -->
<g id="Node000007" class="node">
<title>Node7</title>
<g id="a_Node000007"><a xlink:href="PlayerControl_8hpp.html" target="_top" xlink:title=" ">
<polygon fill="white" stroke="#666666" points="371.96,-76 277.96,-76 277.96,-56 371.96,-56 371.96,-76"/>
<text text-anchor="middle" x="324.96" y="-62.5" font-family="Helvetica,sans-Serif" font-size="10.00">PlayerControl.hpp</text>
</a>
</g>
</g>
<!-- Node1&#45;&gt;Node7 -->
<g id="edge11_Node000001_Node000007" class="edge">
<title>Node1&#45;&gt;Node7</title>
<g id="a_edge11_Node000001_Node000007"><a xlink:title=" ">
<path fill="none" stroke="#63b8ff" d="M254.39,-213.44C271.67,-177.57 307.83,-102.53 320.48,-76.3"/>
<polygon fill="#63b8ff" stroke="#63b8ff" points="251.34,-211.71 250.15,-222.24 257.64,-214.75 251.34,-211.71"/>
</a>
</g>
</g>
<!-- Node3 -->
<g id="Node000003" class="node">
<title>Node3</title>
<g id="a_Node000003"><a xlink:href="Mediator_8hpp.html" target="_top" xlink:title=" ">
<polygon fill="white" stroke="#666666" points="190.08,-132 117.83,-132 117.83,-112 190.08,-112 190.08,-132"/>
<text text-anchor="middle" x="153.96" y="-118.5" font-family="Helvetica,sans-Serif" font-size="10.00">Mediator.hpp</text>
</a>
</g>
</g>
<!-- Node2&#45;&gt;Node3 -->
<g id="edge2_Node000002_Node000003" class="edge">
<title>Node2&#45;&gt;Node3</title>
<g id="a_edge2_Node000002_Node000003"><a xlink:title=" ">
<path fill="none" stroke="#63b8ff" d="M189.85,-159.57C180.95,-150.5 170.43,-139.78 163.09,-132.3"/>
<polygon fill="#63b8ff" stroke="#63b8ff" points="187.16,-161.83 196.67,-166.51 192.16,-156.93 187.16,-161.83"/>
</a>
</g>
</g>
<!-- Node4 -->
<g id="Node000004" class="node">
<title>Node4</title>
<g id="a_Node000004"><a xlink:href="GameTypes_8cpp.html" target="_top" xlink:title=" ">
<polygon fill="white" stroke="#666666" points="227.58,-20 140.33,-20 140.33,0 227.58,0 227.58,-20"/>
<text text-anchor="middle" x="183.96" y="-6.5" font-family="Helvetica,sans-Serif" font-size="10.00">GameTypes.cpp</text>
</a>
</g>
</g>
<!-- Node3&#45;&gt;Node4 -->
<g id="edge3_Node000003_Node000004" class="edge">
<title>Node3&#45;&gt;Node4</title>
<g id="a_edge3_Node000003_Node000004"><a xlink:title=" ">
<path fill="none" stroke="#63b8ff" d="M106.37,-116.71C53.06,-110.01 -22.32,-93.66 6.96,-56 23.16,-35.16 93.16,-22.39 140.13,-16.01"/>
<polygon fill="#63b8ff" stroke="#63b8ff" points="105.86,-120.18 116.2,-117.86 106.68,-113.23 105.86,-120.18"/>
</a>
</g>
</g>
<!-- Node5 -->
<g id="Node000005" class="node">
<title>Node5</title>
<g id="a_Node000005"><a xlink:href="Mediator_8cpp.html" target="_top" xlink:title=" ">
<polygon fill="white" stroke="#666666" points="88.08,-76 15.83,-76 15.83,-56 88.08,-56 88.08,-76"/>
<text text-anchor="middle" x="51.96" y="-62.5" font-family="Helvetica,sans-Serif" font-size="10.00">Mediator.cpp</text>
</a>
</g>
</g>
<!-- Node3&#45;&gt;Node5 -->
<g id="edge4_Node000003_Node000005" class="edge">
<title>Node3&#45;&gt;Node5</title>
<g id="a_edge4_Node000003_Node000005"><a xlink:title=" ">
<path fill="none" stroke="#63b8ff" d="M126.03,-106.21C108.12,-96.73 85.39,-84.7 69.87,-76.48"/>
<polygon fill="#63b8ff" stroke="#63b8ff" points="124.38,-109.3 134.85,-110.89 127.65,-103.11 124.38,-109.3"/>
</a>
</g>
</g>
<!-- Node6 -->
<g id="Node000006" class="node">
<title>Node6</title>
<g id="a_Node000006"><a xlink:href="Physics_8hpp.html" target="_top" xlink:title=" ">
<polygon fill="white" stroke="#666666" points="175.96,-76 105.96,-76 105.96,-56 175.96,-56 175.96,-76"/>
<text text-anchor="middle" x="140.96" y="-62.5" font-family="Helvetica,sans-Serif" font-size="10.00">Physics.hpp</text>
</a>
</g>
</g>
<!-- Node3&#45;&gt;Node6 -->
<g id="edge5_Node000003_Node000006" class="edge">
<title>Node3&#45;&gt;Node6</title>
<g id="a_edge5_Node000003_Node000006"><a xlink:title=" ">
<path fill="none" stroke="#63b8ff" d="M149.01,-100.43C147,-92.11 144.79,-82.93 143.2,-76.3"/>
<polygon fill="#63b8ff" stroke="#63b8ff" points="145.6,-101.22 151.34,-110.12 152.4,-99.58 145.6,-101.22"/>
</a>
</g>
</g>
<!-- Node3&#45;&gt;Node7 -->
<g id="edge7_Node000003_Node000007" class="edge">
<title>Node3&#45;&gt;Node7</title>
<g id="a_edge7_Node000003_Node000007"><a xlink:title=" ">
<path fill="none" stroke="#63b8ff" d="M194.56,-108.18C225.39,-98.44 267.08,-85.28 294.94,-76.48"/>
<polygon fill="#63b8ff" stroke="#63b8ff" points="193.67,-104.79 185.19,-111.14 195.78,-111.46 193.67,-104.79"/>
</a>
</g>
</g>
<!-- Node8 -->
<g id="Node000008" class="node">
<title>Node8</title>
<g id="a_Node000008"><a xlink:href="Render_8hpp.html" target="_top" xlink:title=" ">
<polygon fill="white" stroke="#666666" points="260.08,-76 193.83,-76 193.83,-56 260.08,-56 260.08,-76"/>
<text text-anchor="middle" x="226.96" y="-62.5" font-family="Helvetica,sans-Serif" font-size="10.00">Render.hpp</text>
</a>
</g>
</g>
<!-- Node3&#45;&gt;Node8 -->
<g id="edge9_Node000003_Node000008" class="edge">
<title>Node3&#45;&gt;Node8</title>
<g id="a_edge9_Node000003_Node000008"><a xlink:title=" ">
<path fill="none" stroke="#63b8ff" d="M175.65,-104.95C188.28,-95.61 203.76,-84.16 214.39,-76.3"/>
<polygon fill="#63b8ff" stroke="#63b8ff" points="173.85,-101.93 167.89,-110.69 178.01,-107.56 173.85,-101.93"/>
</a>
</g>
</g>
<!-- Node6&#45;&gt;Node4 -->
<g id="edge6_Node000006_Node000004" class="edge">
<title>Node6&#45;&gt;Node4</title>
<g id="a_edge6_Node000006_Node000004"><a xlink:title=" ">
<path fill="none" stroke="#63b8ff" d="M155.52,-46.72C162.59,-37.84 170.78,-27.55 176.56,-20.3"/>
<polygon fill="#63b8ff" stroke="#63b8ff" points="152.88,-44.41 149.39,-54.41 158.36,-48.77 152.88,-44.41"/>
</a>
</g>
</g>
<!-- Node7&#45;&gt;Node4 -->
<g id="edge8_Node000007_Node000004" class="edge">
<title>Node7&#45;&gt;Node4</title>
<g id="a_edge8_Node000007_Node000004"><a xlink:title=" ">
<path fill="none" stroke="#63b8ff" d="M289.79,-51.53C264.56,-41.87 231.18,-29.08 208.71,-20.48"/>
<polygon fill="#63b8ff" stroke="#63b8ff" points="288.4,-54.74 298.99,-55.05 290.9,-48.21 288.4,-54.74"/>
</a>
</g>
</g>
<!-- Node8&#45;&gt;Node4 -->
<g id="edge10_Node000008_Node000004" class="edge">
<title>Node8&#45;&gt;Node4</title>
<g id="a_edge10_Node000008_Node000004"><a xlink:title=" ">
<path fill="none" stroke="#63b8ff" d="M212.4,-46.72C205.33,-37.84 197.14,-27.55 191.36,-20.3"/>
<polygon fill="#63b8ff" stroke="#63b8ff" points="209.56,-48.77 218.53,-54.41 215.04,-44.41 209.56,-48.77"/>
</a>
</g>
</g>
</g>
</svg>
