<?xml version="1.0" encoding="UTF-8" standalone="no"?>
<!DOCTYPE svg PUBLIC "-//W3C//DTD SVG 1.1//EN"
 "http://www.w3.org/Graphics/SVG/1.1/DTD/svg11.dtd">
<!-- Generated by graphviz version 12.1.0 (20240811.2233)
 -->
<!-- Title: Event.hpp Pages: 1 -->
<svg width="1144pt" height="476pt"
 viewBox="0.00 0.00 1143.62 476.00" xmlns="http://www.w3.org/2000/svg" xmlns:xlink="http://www.w3.org/1999/xlink">
<g id="graph0" class="graph" transform="scale(1 1) rotate(0) translate(4 472)">
<title>Event.hpp</title>
<!-- Node1 -->
<g id="Node000001" class="node">
<title>Node1</title>
<g id="a_Node000001"><a xlink:title=" ">
<polygon fill="#999999" stroke="#666666" points="352.12,-468 291.88,-468 291.88,-448 352.12,-448 352.12,-468"/>
<text text-anchor="middle" x="322" y="-454.5" font-family="Helvetica,sans-Serif" font-size="10.00">Event.hpp</text>
</a>
</g>
</g>
<!-- Node2 -->
<g id="Node000002" class="node">
<title>Node2</title>
<g id="a_Node000002"><a xlink:href="Collision_8hpp.html" target="_top" xlink:title=" ">
<polygon fill="white" stroke="#666666" points="1076.12,-188 1003.88,-188 1003.88,-168 1076.12,-168 1076.12,-188"/>
<text text-anchor="middle" x="1040" y="-174.5" font-family="Helvetica,sans-Serif" font-size="10.00">Collision.hpp</text>
</a>
</g>
</g>
<!-- Node1&#45;&gt;Node2 -->
<g id="edge1_Node000001_Node000002" class="edge">
<title>Node1&#45;&gt;Node2</title>
<g id="a_edge1_Node000001_Node000002"><a xlink:title=" ">
<path fill="none" stroke="#63b8ff" d="M363.65,-455.14C518.2,-447.67 1050,-416.92 1050,-347 1050,-347 1050,-347 1050,-289 1050,-251.61 1044.2,-207.36 1041.43,-188.39"/>
<polygon fill="#63b8ff" stroke="#63b8ff" points="363.69,-451.63 353.87,-455.6 364.02,-458.62 363.69,-451.63"/>
</a>
</g>
</g>
<!-- Node9 -->
<g id="Node000009" class="node">
<title>Node9</title>
<g id="a_Node000009"><a xlink:href="DevConsole_8hpp.html" target="_top" xlink:title=" ">
<polygon fill="white" stroke="#666666" points="432.38,-132 343.62,-132 343.62,-112 432.38,-112 432.38,-132"/>
<text text-anchor="middle" x="388" y="-118.5" font-family="Helvetica,sans-Serif" font-size="10.00">DevConsole.hpp</text>
</a>
</g>
</g>
<!-- Node1&#45;&gt;Node9 -->
<g id="edge9_Node000001_Node000009" class="edge">
<title>Node1&#45;&gt;Node9</title>
<g id="a_edge9_Node000001_Node000009"><a xlink:title=" ">
<path fill="none" stroke="#63b8ff" d="M323.64,-436.43C324.8,-423.61 326.59,-406.79 329,-392 345.77,-289.13 376.76,-166.39 385.59,-132.22"/>
<polygon fill="#63b8ff" stroke="#63b8ff" points="320.17,-435.93 322.81,-446.19 327.14,-436.52 320.17,-435.93"/>
</a>
</g>
</g>
<!-- Node10 -->
<g id="Node000010" class="node">
<title>Node10</title>
<g id="a_Node000010"><a xlink:href="Enemy_8hpp.html" target="_top" xlink:title=" ">
<polygon fill="white" stroke="#666666" points="910.38,-188 845.62,-188 845.62,-168 910.38,-168 910.38,-188"/>
<text text-anchor="middle" x="878" y="-174.5" font-family="Helvetica,sans-Serif" font-size="10.00">Enemy.hpp</text>
</a>
</g>
</g>
<!-- Node1&#45;&gt;Node10 -->
<g id="edge12_Node000001_Node000010" class="edge">
<title>Node1&#45;&gt;Node10</title>
<g id="a_edge12_Node000001_Node000010"><a xlink:title=" ">
<path fill="none" stroke="#63b8ff" d="M363.92,-452.23C485.25,-437.44 832.19,-388.04 896,-300 921.18,-265.26 895.41,-210.01 883.43,-188.24"/>
<polygon fill="#63b8ff" stroke="#63b8ff" points="363.58,-448.74 354.07,-453.41 364.42,-455.69 363.58,-448.74"/>
</a>
</g>
</g>
<!-- Node11 -->
<g id="Node000011" class="node">
<title>Node11</title>
<g id="a_Node000011"><a xlink:href="EventManager_8hpp.html" target="_top" xlink:title=" ">
<polygon fill="white" stroke="#666666" points="544.88,-412 447.12,-412 447.12,-392 544.88,-392 544.88,-412"/>
<text text-anchor="middle" x="496" y="-398.5" font-family="Helvetica,sans-Serif" font-size="10.00">EventManager.hpp</text>
</a>
</g>
</g>
<!-- Node1&#45;&gt;Node11 -->
<g id="edge16_Node000001_Node000011" class="edge">
<title>Node1&#45;&gt;Node11</title>
<g id="a_edge16_Node000001_Node000011"><a xlink:title=" ">
<path fill="none" stroke="#63b8ff" d="M362.91,-444.31C394.31,-434.56 436.98,-421.32 465.46,-412.48"/>
<polygon fill="#63b8ff" stroke="#63b8ff" points="362.27,-440.84 353.75,-447.15 364.34,-447.52 362.27,-440.84"/>
</a>
</g>
</g>
<!-- Node16 -->
<g id="Node000016" class="node">
<title>Node16</title>
<g id="a_Node000016"><a xlink:href="PlayerControl_8hpp.html" target="_top" xlink:title=" ">
<polygon fill="white" stroke="#666666" points="570,-188 476,-188 476,-168 570,-168 570,-188"/>
<text text-anchor="middle" x="523" y="-174.5" font-family="Helvetica,sans-Serif" font-size="10.00">PlayerControl.hpp</text>
</a>
</g>
</g>
<!-- Node1&#45;&gt;Node16 -->
<g id="edge59_Node000001_Node000016" class="edge">
<title>Node1&#45;&gt;Node16</title>
<g id="a_edge59_Node000001_Node000016"><a xlink:title=" ">
<path fill="none" stroke="#63b8ff" d="M326.4,-436.49C336.85,-392.29 367.05,-286.95 429,-224 445.75,-206.98 470.22,-195.55 489.99,-188.46"/>
<polygon fill="#63b8ff" stroke="#63b8ff" points="322.99,-435.69 324.21,-446.22 329.82,-437.23 322.99,-435.69"/>
</a>
</g>
</g>
<!-- Node18 -->
<g id="Node000018" class="node">
<title>Node18</title>
<g id="a_Node000018"><a xlink:href="Renderer_8hpp.html" target="_top" xlink:title=" ">
<polygon fill="white" stroke="#666666" points="306.25,-188 231.75,-188 231.75,-168 306.25,-168 306.25,-188"/>
<text text-anchor="middle" x="269" y="-174.5" font-family="Helvetica,sans-Serif" font-size="10.00">Renderer.hpp</text>
</a>
</g>
</g>
<!-- Node1&#45;&gt;Node18 -->
<g id="edge60_Node000001_Node000018" class="edge">
<title>Node1&#45;&gt;Node18</title>
<g id="a_edge60_Node000001_Node000018"><a xlink:title=" ">
<path fill="none" stroke="#63b8ff" d="M281.28,-444.26C264.12,-437.13 245.13,-426.66 232,-412 211.45,-389.06 208,-377.8 208,-347 208,-347 208,-347 208,-289 208,-247.07 242.31,-206.16 259.47,-188.33"/>
<polygon fill="#63b8ff" stroke="#63b8ff" points="279.66,-447.38 290.25,-447.73 282.19,-440.85 279.66,-447.38"/>
</a>
</g>
</g>
<!-- Node21 -->
<g id="Node000021" class="node">
<title>Node21</title>
<g id="a_Node000021"><a xlink:href="Renderers_2SFML_2SFML_8cpp.html" target="_top" xlink:title=" ">
<polygon fill="white" stroke="#666666" points="68.5,-76 7.5,-76 7.5,-56 68.5,-56 68.5,-76"/>
<text text-anchor="middle" x="38" y="-62.5" font-family="Helvetica,sans-Serif" font-size="10.00">SFML.cpp</text>
</a>
</g>
</g>
<!-- Node1&#45;&gt;Node21 -->
<g id="edge61_Node000001_Node000021" class="edge">
<title>Node1&#45;&gt;Node21</title>
<g id="a_edge61_Node000001_Node000021"><a xlink:title=" ">
<path fill="none" stroke="#63b8ff" d="M280.09,-451.65C192.9,-439.35 0,-405.53 0,-347 0,-347 0,-347 0,-177 0,-137.8 21.82,-94.84 32.39,-76.33"/>
<polygon fill="#63b8ff" stroke="#63b8ff" points="279.53,-455.11 289.92,-453.01 280.49,-448.17 279.53,-455.11"/>
</a>
</g>
</g>
<!-- Node3 -->
<g id="Node000003" class="node">
<title>Node3</title>
<g id="a_Node000003"><a xlink:href="GameTypes_8cpp.html" target="_top" xlink:title=" ">
<polygon fill="white" stroke="#666666" points="659.62,-20 572.38,-20 572.38,0 659.62,0 659.62,-20"/>
<text text-anchor="middle" x="616" y="-6.5" font-family="Helvetica,sans-Serif" font-size="10.00">GameTypes.cpp</text>
</a>
</g>
</g>
<!-- Node2&#45;&gt;Node3 -->
<g id="edge2_Node000002_Node000003" class="edge">
<title>Node2&#45;&gt;Node3</title>
<g id="a_edge2_Node000002_Node000003"><a xlink:title=" ">
<path fill="none" stroke="#63b8ff" d="M1035.34,-156.67C1027.8,-128.87 1010.11,-79.76 975,-56 924.54,-21.85 744.39,-13.62 660.09,-11.63"/>
<polygon fill="#63b8ff" stroke="#63b8ff" points="1031.92,-157.45 1037.74,-166.3 1038.71,-155.75 1031.92,-157.45"/>
</a>
</g>
</g>
<!-- Node4 -->
<g id="Node000004" class="node">
<title>Node4</title>
<g id="a_Node000004"><a xlink:href="GameTypes_8hpp.html" target="_top" xlink:title=" ">
<polygon fill="white" stroke="#666666" points="541.62,-76 454.38,-76 454.38,-56 541.62,-56 541.62,-76"/>
<text text-anchor="middle" x="498" y="-62.5" font-family="Helvetica,sans-Serif" font-size="10.00">GameTypes.hpp</text>
</a>
</g>
</g>
<!-- Node2&#45;&gt;Node4 -->
<g id="edge3_Node000002_Node000004" class="edge">
<title>Node2&#45;&gt;Node4</title>
<g id="a_edge3_Node000002_Node000004"><a xlink:title=" ">
<path fill="none" stroke="#63b8ff" d="M1028.25,-158.39C1017.47,-143.08 1000.01,-122.28 979,-112 902.63,-74.62 645.52,-68.22 541.86,-67.18"/>
<polygon fill="#63b8ff" stroke="#63b8ff" points="1025.31,-160.28 1033.77,-166.66 1031.13,-156.4 1025.31,-160.28"/>
</a>
</g>
</g>
<!-- Node6 -->
<g id="Node000006" class="node">
<title>Node6</title>
<g id="a_Node000006"><a xlink:href="Server_8hpp.html" target="_top" xlink:title=" ">
<polygon fill="white" stroke="#666666" points="969.62,-132 906.38,-132 906.38,-112 969.62,-112 969.62,-132"/>
<text text-anchor="middle" x="938" y="-118.5" font-family="Helvetica,sans-Serif" font-size="10.00">Server.hpp</text>
</a>
</g>
</g>
<!-- Node2&#45;&gt;Node6 -->
<g id="edge6_Node000002_Node000006" class="edge">
<title>Node2&#45;&gt;Node6</title>
<g id="a_edge6_Node000002_Node000006"><a xlink:title=" ">
<path fill="none" stroke="#63b8ff" d="M1012.07,-162.21C994.16,-152.73 971.43,-140.7 955.91,-132.48"/>
<polygon fill="#63b8ff" stroke="#63b8ff" points="1010.42,-165.3 1020.9,-166.89 1013.7,-159.11 1010.42,-165.3"/>
</a>
</g>
</g>
<!-- Node4&#45;&gt;Node3 -->
<g id="edge4_Node000004_Node000003" class="edge">
<title>Node4&#45;&gt;Node3</title>
<g id="a_edge4_Node000004_Node000003"><a xlink:title=" ">
<path fill="none" stroke="#63b8ff" d="M528.86,-50.88C549.8,-41.3 576.9,-28.89 595.29,-20.48"/>
<polygon fill="#63b8ff" stroke="#63b8ff" points="527.57,-47.62 519.93,-54.96 530.48,-53.99 527.57,-47.62"/>
</a>
</g>
</g>
<!-- Node5 -->
<g id="Node000005" class="node">
<title>Node5</title>
<g id="a_Node000005"><a xlink:href="Client_2src_2main_8cpp.html" target="_top" xlink:title=" ">
<polygon fill="white" stroke="#666666" points="525.88,-20 470.12,-20 470.12,0 525.88,0 525.88,-20"/>
<text text-anchor="middle" x="498" y="-6.5" font-family="Helvetica,sans-Serif" font-size="10.00">main.cpp</text>
</a>
</g>
</g>
<!-- Node4&#45;&gt;Node5 -->
<g id="edge5_Node000004_Node000005" class="edge">
<title>Node4&#45;&gt;Node5</title>
<g id="a_edge5_Node000004_Node000005"><a xlink:title=" ">
<path fill="none" stroke="#63b8ff" d="M498,-44.13C498,-35.9 498,-26.85 498,-20.3"/>
<polygon fill="#63b8ff" stroke="#63b8ff" points="494.5,-44.08 498,-54.08 501.5,-44.08 494.5,-44.08"/>
</a>
</g>
</g>
<!-- Node7 -->
<g id="Node000007" class="node">
<title>Node7</title>
<g id="a_Node000007"><a xlink:href="Server_8cpp.html" target="_top" xlink:title=" ">
<polygon fill="white" stroke="#666666" points="1135.62,-76 1072.38,-76 1072.38,-56 1135.62,-56 1135.62,-76"/>
<text text-anchor="middle" x="1104" y="-62.5" font-family="Helvetica,sans-Serif" font-size="10.00">Server.cpp</text>
</a>
</g>
</g>
<!-- Node6&#45;&gt;Node7 -->
<g id="edge7_Node000006_Node000007" class="edge">
<title>Node6&#45;&gt;Node7</title>
<g id="a_edge7_Node000006_Node000007"><a xlink:title=" ">
<path fill="none" stroke="#63b8ff" d="M977.81,-108.05C1007.7,-98.33 1047.93,-85.24 1074.86,-76.48"/>
<polygon fill="#63b8ff" stroke="#63b8ff" points="976.78,-104.7 968.35,-111.13 978.95,-111.36 976.78,-104.7"/>
</a>
</g>
</g>
<!-- Node8 -->
<g id="Node000008" class="node">
<title>Node8</title>
<g id="a_Node000008"><a xlink:href="Server_2src_2main_8cpp.html" target="_top" xlink:title=" ">
<polygon fill="white" stroke="#666666" points="965.88,-76 910.12,-76 910.12,-56 965.88,-56 965.88,-76"/>
<text text-anchor="middle" x="938" y="-62.5" font-family="Helvetica,sans-Serif" font-size="10.00">main.cpp</text>
</a>
</g>
</g>
<!-- Node6&#45;&gt;Node8 -->
<g id="edge8_Node000006_Node000008" class="edge">
<title>Node6&#45;&gt;Node8</title>
<g id="a_edge8_Node000006_Node000008"><a xlink:title=" ">
<path fill="none" stroke="#63b8ff" d="M938,-100.13C938,-91.9 938,-82.85 938,-76.3"/>
<polygon fill="#63b8ff" stroke="#63b8ff" points="934.5,-100.08 938,-110.08 941.5,-100.08 934.5,-100.08"/>
</a>
</g>
</g>
<!-- Node9&#45;&gt;Node3 -->
<g id="edge10_Node000009_Node000003" class="edge">
<title>Node9&#45;&gt;Node3</title>
<g id="a_edge10_Node000009_Node000003"><a xlink:title=" ">
<path fill="none" stroke="#63b8ff" d="M399.48,-102.74C409.68,-87.99 425.92,-67.81 445,-56 484.03,-31.85 535.79,-20.56 572.1,-15.35"/>
<polygon fill="#63b8ff" stroke="#63b8ff" points="396.84,-100.38 394.25,-110.65 402.68,-104.24 396.84,-100.38"/>
</a>
</g>
</g>
<!-- Node9&#45;&gt;Node4 -->
<g id="edge11_Node000009_Node000004" class="edge">
<title>Node9&#45;&gt;Node4</title>
<g id="a_edge11_Node000009_Node000004"><a xlink:title=" ">
<path fill="none" stroke="#63b8ff" d="M417.31,-106.61C436.75,-97.07 461.71,-84.81 478.69,-76.48"/>
<polygon fill="#63b8ff" stroke="#63b8ff" points="415.95,-103.38 408.52,-110.93 419.04,-109.66 415.95,-103.38"/>
</a>
</g>
</g>
<!-- Node10&#45;&gt;Node3 -->
<g id="edge13_Node000010_Node000003" class="edge">
<title>Node10&#45;&gt;Node3</title>
<g id="a_edge13_Node000010_Node000003"><a xlink:title=" ">
<path fill="none" stroke="#63b8ff" d="M869.55,-157.6C856.77,-130.59 829.93,-82.04 792,-56 752.48,-28.87 697.84,-18.09 659.97,-13.81"/>
<polygon fill="#63b8ff" stroke="#63b8ff" points="866.21,-158.7 873.54,-166.36 872.58,-155.8 866.21,-158.7"/>
</a>
</g>
</g>
<!-- Node10&#45;&gt;Node4 -->
<g id="edge14_Node000010_Node000004" class="edge">
<title>Node10&#45;&gt;Node4</title>
<g id="a_edge14_Node000010_Node000004"><a xlink:title=" ">
<path fill="none" stroke="#63b8ff" d="M834.54,-164.42C757.65,-142.16 599.3,-96.32 530.78,-76.49"/>
<polygon fill="#63b8ff" stroke="#63b8ff" points="833.24,-167.69 843.82,-167.11 835.19,-160.96 833.24,-167.69"/>
</a>
</g>
</g>
<!-- Node10&#45;&gt;Node6 -->
<g id="edge15_Node000010_Node000006" class="edge">
<title>Node10&#45;&gt;Node6</title>
<g id="a_edge15_Node000010_Node000006"><a xlink:title=" ">
<path fill="none" stroke="#63b8ff" d="M896.75,-160.13C906.95,-150.94 919.19,-139.93 927.67,-132.3"/>
<polygon fill="#63b8ff" stroke="#63b8ff" points="894.67,-157.29 889.58,-166.58 899.35,-162.49 894.67,-157.29"/>
</a>
</g>
</g>
<!-- Node12 -->
<g id="Node000012" class="node">
<title>Node12</title>
<g id="a_Node000012"><a xlink:href="Mediator_8hpp.html" target="_top" xlink:title=" ">
<polygon fill="white" stroke="#666666" points="628.12,-356 555.88,-356 555.88,-336 628.12,-336 628.12,-356"/>
<text text-anchor="middle" x="592" y="-342.5" font-family="Helvetica,sans-Serif" font-size="10.00">Mediator.hpp</text>
</a>
</g>
</g>
<!-- Node11&#45;&gt;Node12 -->
<g id="edge17_Node000011_Node000012" class="edge">
<title>Node11&#45;&gt;Node12</title>
<g id="a_edge17_Node000011_Node000012"><a xlink:title=" ">
<path fill="none" stroke="#63b8ff" d="M522.52,-386.08C539.35,-376.62 560.6,-364.66 575.15,-356.48"/>
<polygon fill="#63b8ff" stroke="#63b8ff" points="521.04,-382.9 514.04,-390.85 524.47,-389 521.04,-382.9"/>
</a>
</g>
</g>
<!-- Node12&#45;&gt;Node3 -->
<g id="edge44_Node000012_Node000003" class="edge">
<title>Node12&#45;&gt;Node3</title>
<g id="a_edge44_Node000012_Node000003"><a xlink:title=" ">
<path fill="none" stroke="#63b8ff" d="M544.26,-339.29C497.97,-332.66 432.51,-320 417,-300 411.55,-292.98 416.06,-288.84 417,-280 422.74,-225.79 421.99,-198.75 467,-168 526.47,-127.37 580.08,-188.3 625,-132 651.54,-98.74 630.59,-42.63 620.57,-20.44"/>
<polygon fill="#63b8ff" stroke="#63b8ff" points="543.7,-342.75 554.08,-340.64 544.65,-335.81 543.7,-342.75"/>
</a>
</g>
</g>
<!-- Node12&#45;&gt;Node4 -->
<g id="edge45_Node000012_Node000004" class="edge">
<title>Node12&#45;&gt;Node4</title>
<g id="a_edge45_Node000012_Node000004"><a xlink:title=" ">
<path fill="none" stroke="#63b8ff" d="M544.16,-342.68C437.72,-334.52 183.7,-297.74 95,-132 90.81,-124.16 89.07,-118.62 95,-112 118.64,-85.57 354.74,-72.87 454.2,-68.66"/>
<polygon fill="#63b8ff" stroke="#63b8ff" points="543.76,-346.16 553.99,-343.37 544.26,-339.17 543.76,-346.16"/>
</a>
</g>
</g>
<!-- Node12&#45;&gt;Node6 -->
<g id="edge58_Node000012_Node000006" class="edge">
<title>Node12&#45;&gt;Node6</title>
<g id="a_edge58_Node000012_Node000006"><a xlink:title=" ">
<path fill="none" stroke="#63b8ff" d="M639.42,-343.69C714.78,-340.69 857.34,-330.98 896,-300 948.74,-257.73 942.65,-162.45 939.24,-132.32"/>
<polygon fill="#63b8ff" stroke="#63b8ff" points="639.74,-340.18 629.88,-344.05 640,-347.17 639.74,-340.18"/>
</a>
</g>
</g>
<!-- Node12&#45;&gt;Node7 -->
<g id="edge57_Node000012_Node000007" class="edge">
<title>Node12&#45;&gt;Node7</title>
<g id="a_edge57_Node000012_Node000007"><a xlink:title=" ">
<path fill="none" stroke="#63b8ff" d="M639.92,-344.37C704.92,-342.19 823.83,-333.47 919,-300 1010.39,-267.86 1046.38,-264.36 1106,-188 1127.3,-160.72 1129.87,-145.92 1123,-112 1120.37,-99.03 1113.89,-85.16 1109.23,-76.3"/>
<polygon fill="#63b8ff" stroke="#63b8ff" points="639.84,-340.87 629.94,-344.66 640.04,-347.87 639.84,-340.87"/>
</a>
</g>
</g>
<!-- Node13 -->
<g id="Node000013" class="node">
<title>Node13</title>
<g id="a_Node000013"><a xlink:href="ComponentRegistry_8hpp.html" target="_top" xlink:title=" ">
<polygon fill="white" stroke="#666666" points="779.5,-300 658.5,-300 658.5,-280 779.5,-280 779.5,-300"/>
<text text-anchor="middle" x="719" y="-286.5" font-family="Helvetica,sans-Serif" font-size="10.00">ComponentRegistry.hpp</text>
</a>
</g>
</g>
<!-- Node12&#45;&gt;Node13 -->
<g id="edge18_Node000012_Node000013" class="edge">
<title>Node12&#45;&gt;Node13</title>
<g id="a_edge18_Node000012_Node000013"><a xlink:title=" ">
<path fill="none" stroke="#63b8ff" d="M624.6,-331.14C647.21,-321.52 676.74,-308.97 696.71,-300.48"/>
<polygon fill="#63b8ff" stroke="#63b8ff" points="623.35,-327.87 615.51,-335 626.09,-334.31 623.35,-327.87"/>
</a>
</g>
</g>
<!-- Node14 -->
<g id="Node000014" class="node">
<title>Node14</title>
<g id="a_Node000014"><a xlink:href="NetworkManager_8hpp.html" target="_top" xlink:title=" ">
<polygon fill="white" stroke="#666666" points="800.5,-244 691.5,-244 691.5,-224 800.5,-224 800.5,-244"/>
<text text-anchor="middle" x="746" y="-230.5" font-family="Helvetica,sans-Serif" font-size="10.00">NetworkManager.hpp</text>
</a>
</g>
</g>
<!-- Node12&#45;&gt;Node14 -->
<g id="edge47_Node000012_Node000014" class="edge">
<title>Node12&#45;&gt;Node14</title>
<g id="a_edge47_Node000012_Node000014"><a xlink:title=" ">
<path fill="none" stroke="#63b8ff" d="M639.72,-344.7C713.2,-343.11 848.77,-335.33 879,-300 905.48,-269.05 848.19,-251.5 800.7,-242.63"/>
<polygon fill="#63b8ff" stroke="#63b8ff" points="639.93,-341.2 629.99,-344.88 640.06,-348.2 639.93,-341.2"/>
</a>
</g>
</g>
<!-- Node12&#45;&gt;Node16 -->
<g id="edge55_Node000012_Node000016" class="edge">
<title>Node12&#45;&gt;Node16</title>
<g id="a_edge55_Node000012_Node000016"><a xlink:title=" ">
<path fill="none" stroke="#63b8ff" d="M592.84,-324.11C592.97,-298.87 590.26,-255.84 573,-224 564.87,-209.01 549.75,-196.48 538.26,-188.48"/>
<polygon fill="#63b8ff" stroke="#63b8ff" points="589.34,-323.94 592.61,-334.02 596.34,-324.1 589.34,-323.94"/>
</a>
</g>
</g>
<!-- Node19 -->
<g id="Node000019" class="node">
<title>Node19</title>
<g id="a_Node000019"><a xlink:href="Render_8hpp.html" target="_top" xlink:title=" ">
<polygon fill="white" stroke="#666666" points="288.12,-132 221.88,-132 221.88,-112 288.12,-112 288.12,-132"/>
<text text-anchor="middle" x="255" y="-118.5" font-family="Helvetica,sans-Serif" font-size="10.00">Render.hpp</text>
</a>
</g>
</g>
<!-- Node12&#45;&gt;Node19 -->
<g id="edge56_Node000012_Node000019" class="edge">
<title>Node12&#45;&gt;Node19</title>
<g id="a_edge56_Node000012_Node000019"><a xlink:title=" ">
<path fill="none" stroke="#63b8ff" d="M544.39,-340.11C501.14,-334.43 436.29,-322.75 384,-300 364.02,-291.31 233.09,-207.31 223,-188 212.75,-168.38 231.72,-145.01 244.57,-132.33"/>
<polygon fill="#63b8ff" stroke="#63b8ff" points="543.86,-343.57 554.22,-341.34 544.73,-336.63 543.86,-343.57"/>
</a>
</g>
</g>
<!-- Node22 -->
<g id="Node000022" class="node">
<title>Node22</title>
<g id="a_Node000022"><a xlink:href="Mediator_8cpp.html" target="_top" xlink:title=" ">
<polygon fill="white" stroke="#666666" points="870.12,-300 797.88,-300 797.88,-280 870.12,-280 870.12,-300"/>
<text text-anchor="middle" x="834" y="-286.5" font-family="Helvetica,sans-Serif" font-size="10.00">Mediator.cpp</text>
</a>
</g>
</g>
<!-- Node12&#45;&gt;Node22 -->
<g id="edge46_Node000012_Node000022" class="edge">
<title>Node12&#45;&gt;Node22</title>
<g id="a_edge46_Node000012_Node000022"><a xlink:title=" ">
<path fill="none" stroke="#63b8ff" d="M639.46,-334.41C685.84,-324.06 755.44,-308.53 797.61,-299.12"/>
<polygon fill="#63b8ff" stroke="#63b8ff" points="638.97,-330.93 629.97,-336.53 640.49,-337.77 638.97,-330.93"/>
</a>
</g>
</g>
<!-- Node23 -->
<g id="Node000023" class="node">
<title>Node23</title>
<g id="a_Node000023"><a xlink:href="PhysicsEngine_8hpp.html" target="_top" xlink:title=" ">
<polygon fill="white" stroke="#666666" points="526,-300 426,-300 426,-280 526,-280 526,-300"/>
<text text-anchor="middle" x="476" y="-286.5" font-family="Helvetica,sans-Serif" font-size="10.00">PhysicsEngine.hpp</text>
</a>
</g>
</g>
<!-- Node12&#45;&gt;Node23 -->
<g id="edge48_Node000012_Node000023" class="edge">
<title>Node12&#45;&gt;Node23</title>
<g id="a_edge48_Node000012_Node000023"><a xlink:title=" ">
<path fill="none" stroke="#63b8ff" d="M561.38,-330.75C540.84,-321.18 514.35,-308.85 496.36,-300.48"/>
<polygon fill="#63b8ff" stroke="#63b8ff" points="559.88,-333.91 570.42,-334.96 562.83,-327.56 559.88,-333.91"/>
</a>
</g>
</g>
<!-- Node24 -->
<g id="Node000024" class="node">
<title>Node24</title>
<g id="a_Node000024"><a xlink:href="PhysicsUsingEngine_8hpp.html" target="_top" xlink:title=" ">
<polygon fill="white" stroke="#666666" points="563.75,-244 438.25,-244 438.25,-224 563.75,-224 563.75,-244"/>
<text text-anchor="middle" x="501" y="-230.5" font-family="Helvetica,sans-Serif" font-size="10.00">PhysicsUsingEngine.hpp</text>
</a>
</g>
</g>
<!-- Node12&#45;&gt;Node24 -->
<g id="edge54_Node000012_Node000024" class="edge">
<title>Node12&#45;&gt;Node24</title>
<g id="a_edge54_Node000012_Node000024"><a xlink:title=" ">
<path fill="none" stroke="#63b8ff" d="M577.03,-326.9C557.44,-303.22 523.83,-262.6 508.74,-244.35"/>
<polygon fill="#63b8ff" stroke="#63b8ff" points="574.21,-328.98 583.28,-334.46 579.6,-324.52 574.21,-328.98"/>
</a>
</g>
</g>
<!-- Node25 -->
<g id="Node000025" class="node">
<title>Node25</title>
<g id="a_Node000025"><a xlink:href="PhysicsNoEngine_8hpp.html" target="_top" xlink:title=" ">
<polygon fill="white" stroke="#666666" points="700.38,-188 587.62,-188 587.62,-168 700.38,-168 700.38,-188"/>
<text text-anchor="middle" x="644" y="-174.5" font-family="Helvetica,sans-Serif" font-size="10.00">PhysicsNoEngine.hpp</text>
</a>
</g>
</g>
<!-- Node12&#45;&gt;Node25 -->
<g id="edge50_Node000012_Node000025" class="edge">
<title>Node12&#45;&gt;Node25</title>
<g id="a_edge50_Node000012_Node000025"><a xlink:title=" ">
<path fill="none" stroke="#63b8ff" d="M598.27,-324.97C609.57,-288.92 632.9,-214.42 641.09,-188.3"/>
<polygon fill="#63b8ff" stroke="#63b8ff" points="595.05,-323.57 595.4,-334.16 601.73,-325.66 595.05,-323.57"/>
</a>
</g>
</g>
<!-- Node13&#45;&gt;Node14 -->
<g id="edge19_Node000013_Node000014" class="edge">
<title>Node13&#45;&gt;Node14</title>
<g id="a_edge19_Node000013_Node000014"><a xlink:title=" ">
<path fill="none" stroke="#63b8ff" d="M728.71,-269.58C733.02,-260.97 737.88,-251.24 741.35,-244.3"/>
<polygon fill="#63b8ff" stroke="#63b8ff" points="725.72,-267.73 724.38,-278.24 731.98,-270.86 725.72,-267.73"/>
</a>
</g>
</g>
<!-- Node14&#45;&gt;Node2 -->
<g id="edge20_Node000014_Node000002" class="edge">
<title>Node14&#45;&gt;Node2</title>
<g id="a_edge20_Node000014_Node000002"><a xlink:title=" ">
<path fill="none" stroke="#63b8ff" d="M808.64,-221.5C867.86,-210.62 954.69,-194.67 1003.39,-185.72"/>
<polygon fill="#63b8ff" stroke="#63b8ff" points="808.24,-218.01 799.04,-223.26 809.5,-224.89 808.24,-218.01"/>
</a>
</g>
</g>
<!-- Node14&#45;&gt;Node4 -->
<g id="edge23_Node000014_Node000004" class="edge">
<title>Node14&#45;&gt;Node4</title>
<g id="a_edge23_Node000014_Node000004"><a xlink:title=" ">
<path fill="none" stroke="#63b8ff" d="M679.56,-231.84C605.86,-228.98 493.76,-219.42 467,-188 438.6,-154.65 474.32,-98.59 490.65,-76.43"/>
<polygon fill="#63b8ff" stroke="#63b8ff" points="679.41,-235.34 689.53,-232.19 679.66,-228.34 679.41,-235.34"/>
</a>
</g>
</g>
<!-- Node14&#45;&gt;Node6 -->
<g id="edge43_Node000014_Node000006" class="edge">
<title>Node14&#45;&gt;Node6</title>
<g id="a_edge43_Node000014_Node000006"><a xlink:title=" ">
<path fill="none" stroke="#63b8ff" d="M812.16,-231.12C848.07,-226.7 890.77,-215.4 919,-188 934.35,-173.1 937.48,-146.53 938,-132.42"/>
<polygon fill="#63b8ff" stroke="#63b8ff" points="811.84,-227.64 802.27,-232.17 812.58,-234.6 811.84,-227.64"/>
</a>
</g>
</g>
<!-- Node14&#45;&gt;Node7 -->
<g id="edge42_Node000014_Node000007" class="edge">
<title>Node14&#45;&gt;Node7</title>
<g id="a_edge42_Node000014_Node000007"><a xlink:title=" ">
<path fill="none" stroke="#63b8ff" d="M812.11,-233.28C899.66,-232.17 1047.4,-224.72 1085,-188 1116.04,-157.69 1109.67,-98.85 1105.81,-76.2"/>
<polygon fill="#63b8ff" stroke="#63b8ff" points="812.17,-229.78 802.21,-233.37 812.24,-236.78 812.17,-229.78"/>
</a>
</g>
</g>
<!-- Node14&#45;&gt;Node9 -->
<g id="edge21_Node000014_Node000009" class="edge">
<title>Node14&#45;&gt;Node9</title>
<g id="a_edge21_Node000014_Node000009"><a xlink:title=" ">
<path fill="none" stroke="#63b8ff" d="M679.96,-229.56C600.89,-224.41 474.1,-212.54 434,-188 412.3,-174.72 398.03,-146.95 391.72,-132.38"/>
<polygon fill="#63b8ff" stroke="#63b8ff" points="679.55,-233.04 689.75,-230.18 679.99,-226.06 679.55,-233.04"/>
</a>
</g>
</g>
<!-- Node14&#45;&gt;Node10 -->
<g id="edge22_Node000014_Node000010" class="edge">
<title>Node14&#45;&gt;Node10</title>
<g id="a_edge22_Node000014_Node000010"><a xlink:title=" ">
<path fill="none" stroke="#63b8ff" d="M779.56,-219.27C803.1,-209.64 833.98,-197.01 854.83,-188.48"/>
<polygon fill="#63b8ff" stroke="#63b8ff" points="778.32,-216 770.39,-223.02 780.97,-222.47 778.32,-216"/>
</a>
</g>
</g>
<!-- Node15 -->
<g id="Node000015" class="node">
<title>Node15</title>
<g id="a_Node000015"><a xlink:href="NetworkManager_8cpp.html" target="_top" xlink:title=" ">
<polygon fill="white" stroke="#666666" points="827.5,-188 718.5,-188 718.5,-168 827.5,-168 827.5,-188"/>
<text text-anchor="middle" x="773" y="-174.5" font-family="Helvetica,sans-Serif" font-size="10.00">NetworkManager.cpp</text>
</a>
</g>
</g>
<!-- Node14&#45;&gt;Node15 -->
<g id="edge24_Node000014_Node000015" class="edge">
<title>Node14&#45;&gt;Node15</title>
<g id="a_edge24_Node000014_Node000015"><a xlink:title=" ">
<path fill="none" stroke="#63b8ff" d="M755.71,-213.58C760.02,-204.97 764.88,-195.24 768.35,-188.3"/>
<polygon fill="#63b8ff" stroke="#63b8ff" points="752.72,-211.73 751.38,-222.24 758.98,-214.86 752.72,-211.73"/>
</a>
</g>
</g>
<!-- Node14&#45;&gt;Node16 -->
<g id="edge25_Node000014_Node000016" class="edge">
<title>Node14&#45;&gt;Node16</title>
<g id="a_edge25_Node000014_Node000016"><a xlink:title=" ">
<path fill="none" stroke="#63b8ff" d="M695.93,-220.88C655.45,-211.07 599.26,-197.47 562.05,-188.46"/>
<polygon fill="#63b8ff" stroke="#63b8ff" points="694.89,-224.22 705.43,-223.18 696.53,-217.42 694.89,-224.22"/>
</a>
</g>
</g>
<!-- Node14&#45;&gt;Node18 -->
<g id="edge32_Node000014_Node000018" class="edge">
<title>Node14&#45;&gt;Node18</title>
<g id="a_edge32_Node000014_Node000018"><a xlink:title=" ">
<path fill="none" stroke="#63b8ff" d="M679.96,-225.52C578.52,-214.04 387.6,-192.43 306.73,-183.27"/>
<polygon fill="#63b8ff" stroke="#63b8ff" points="679.45,-228.99 689.78,-226.64 680.24,-222.03 679.45,-228.99"/>
</a>
</g>
</g>
<!-- Node14&#45;&gt;Node21 -->
<g id="edge41_Node000014_Node000021" class="edge">
<title>Node14&#45;&gt;Node21</title>
<g id="a_edge41_Node000014_Node000021"><a xlink:title=" ">
<path fill="none" stroke="#63b8ff" d="M679.6,-228.5C548.69,-219.45 266.19,-198.99 223,-188 162.82,-172.69 145.11,-168.67 95,-132 72.95,-115.87 53.45,-89.82 44.01,-76.11"/>
<polygon fill="#63b8ff" stroke="#63b8ff" points="679.3,-231.99 689.52,-229.18 679.79,-225.01 679.3,-231.99"/>
</a>
</g>
</g>
<!-- Node16&#45;&gt;Node3 -->
<g id="edge26_Node000016_Node000003" class="edge">
<title>Node16&#45;&gt;Node3</title>
<g id="a_edge26_Node000016_Node000003"><a xlink:title=" ">
<path fill="none" stroke="#63b8ff" d="M581.18,-165.52C628.56,-155.58 688.75,-141.38 696,-132 716.66,-105.28 713.05,-85.16 696,-56 685.78,-38.53 666.01,-27.32 648.69,-20.46"/>
<polygon fill="#63b8ff" stroke="#63b8ff" points="580.63,-162.06 571.55,-167.52 582.05,-168.91 580.63,-162.06"/>
</a>
</g>
</g>
<!-- Node16&#45;&gt;Node4 -->
<g id="edge27_Node000016_Node000004" class="edge">
<title>Node16&#45;&gt;Node4</title>
<g id="a_edge27_Node000016_Node000004"><a xlink:title=" ">
<path fill="none" stroke="#63b8ff" d="M518.37,-156.64C512.94,-132.72 504.14,-94.03 500.13,-76.35"/>
<polygon fill="#63b8ff" stroke="#63b8ff" points="514.9,-157.17 520.53,-166.15 521.73,-155.62 514.9,-157.17"/>
</a>
</g>
</g>
<!-- Node16&#45;&gt;Node6 -->
<g id="edge28_Node000016_Node000006" class="edge">
<title>Node16&#45;&gt;Node6</title>
<g id="a_edge28_Node000016_Node000006"><a xlink:title=" ">
<path fill="none" stroke="#63b8ff" d="M581.36,-167.7C707.72,-149.8 845.37,-133.6 906.26,-126.6"/>
<polygon fill="#63b8ff" stroke="#63b8ff" points="581.24,-164.18 571.84,-169.06 582.23,-171.11 581.24,-164.18"/>
</a>
</g>
</g>
<!-- Node17 -->
<g id="Node000017" class="node">
<title>Node17</title>
<g id="a_Node000017"><a xlink:href="SoundPlayer_8hpp.html" target="_top" xlink:title=" ">
<polygon fill="white" stroke="#666666" points="616.12,-132 525.88,-132 525.88,-112 616.12,-112 616.12,-132"/>
<text text-anchor="middle" x="571" y="-118.5" font-family="Helvetica,sans-Serif" font-size="10.00">SoundPlayer.hpp</text>
</a>
</g>
</g>
<!-- Node16&#45;&gt;Node17 -->
<g id="edge29_Node000016_Node000017" class="edge">
<title>Node16&#45;&gt;Node17</title>
<g id="a_edge29_Node000016_Node000017"><a xlink:title=" ">
<path fill="none" stroke="#63b8ff" d="M539,-159C546.95,-150.06 556.22,-139.62 562.73,-132.3"/>
<polygon fill="#63b8ff" stroke="#63b8ff" points="536.39,-156.66 532.37,-166.46 541.63,-161.31 536.39,-156.66"/>
</a>
</g>
</g>
<!-- Node17&#45;&gt;Node3 -->
<g id="edge30_Node000017_Node000003" class="edge">
<title>Node17&#45;&gt;Node3</title>
<g id="a_edge30_Node000017_Node000003"><a xlink:title=" ">
<path fill="none" stroke="#63b8ff" d="M579.19,-100.97C588.97,-77.07 604.91,-38.11 612.17,-20.35"/>
<polygon fill="#63b8ff" stroke="#63b8ff" points="575.96,-99.64 575.41,-110.22 582.44,-102.29 575.96,-99.64"/>
</a>
</g>
</g>
<!-- Node17&#45;&gt;Node4 -->
<g id="edge31_Node000017_Node000004" class="edge">
<title>Node17&#45;&gt;Node4</title>
<g id="a_edge31_Node000017_Node000004"><a xlink:title=" ">
<path fill="none" stroke="#63b8ff" d="M549.31,-104.95C536.68,-95.61 521.2,-84.16 510.57,-76.3"/>
<polygon fill="#63b8ff" stroke="#63b8ff" points="546.95,-107.56 557.07,-110.69 551.11,-101.93 546.95,-107.56"/>
</a>
</g>
</g>
<!-- Node18&#45;&gt;Node3 -->
<g id="edge34_Node000018_Node000003" class="edge">
<title>Node18&#45;&gt;Node3</title>
<g id="a_edge34_Node000018_Node000003"><a xlink:title=" ">
<path fill="none" stroke="#63b8ff" d="M240.84,-161.75C221.18,-149.05 200.51,-130.17 213,-112 252.37,-54.73 292.02,-74.52 359,-56 432.56,-35.66 520.63,-22.6 572.23,-16.05"/>
<polygon fill="#63b8ff" stroke="#63b8ff" points="238.89,-164.67 249.26,-166.85 242.51,-158.68 238.89,-164.67"/>
</a>
</g>
</g>
<!-- Node18&#45;&gt;Node4 -->
<g id="edge35_Node000018_Node000004" class="edge">
<title>Node18&#45;&gt;Node4</title>
<g id="a_edge35_Node000018_Node000004"><a xlink:title=" ">
<path fill="none" stroke="#63b8ff" d="M283,-158.79C295.22,-144.11 314.21,-124 335,-112 372.12,-90.57 419.92,-78.95 454.14,-72.92"/>
<polygon fill="#63b8ff" stroke="#63b8ff" points="280.48,-156.34 276.95,-166.33 285.94,-160.73 280.48,-156.34"/>
</a>
</g>
</g>
<!-- Node18&#45;&gt;Node9 -->
<g id="edge33_Node000018_Node000009" class="edge">
<title>Node18&#45;&gt;Node9</title>
<g id="a_edge33_Node000018_Node000009"><a xlink:title=" ">
<path fill="none" stroke="#63b8ff" d="M300.12,-162.88C321.23,-153.3 348.57,-140.89 367.11,-132.48"/>
<polygon fill="#63b8ff" stroke="#63b8ff" points="298.77,-159.65 291.11,-166.97 301.66,-166.02 298.77,-159.65"/>
</a>
</g>
</g>
<!-- Node18&#45;&gt;Node19 -->
<g id="edge36_Node000018_Node000019" class="edge">
<title>Node18&#45;&gt;Node19</title>
<g id="a_edge36_Node000018_Node000019"><a xlink:title=" ">
<path fill="none" stroke="#63b8ff" d="M263.74,-156.71C261.57,-148.32 259.15,-139.01 257.41,-132.3"/>
<polygon fill="#63b8ff" stroke="#63b8ff" points="260.28,-157.33 266.18,-166.13 267.06,-155.57 260.28,-157.33"/>
</a>
</g>
</g>
<!-- Node20 -->
<g id="Node000020" class="node">
<title>Node20</title>
<g id="a_Node000020"><a xlink:href="Renderers_2SFML_2SFML_8hpp.html" target="_top" xlink:title=" ">
<polygon fill="white" stroke="#666666" points="165.5,-132 104.5,-132 104.5,-112 165.5,-112 165.5,-132"/>
<text text-anchor="middle" x="135" y="-118.5" font-family="Helvetica,sans-Serif" font-size="10.00">SFML.hpp</text>
</a>
</g>
</g>
<!-- Node18&#45;&gt;Node20 -->
<g id="edge39_Node000018_Node000020" class="edge">
<title>Node18&#45;&gt;Node20</title>
<g id="a_edge39_Node000018_Node000020"><a xlink:title=" ">
<path fill="none" stroke="#63b8ff" d="M235.26,-163.4C211.31,-153.75 179.78,-141.05 158.52,-132.48"/>
<polygon fill="#63b8ff" stroke="#63b8ff" points="233.67,-166.54 244.26,-167.03 236.29,-160.04 233.67,-166.54"/>
</a>
</g>
</g>
<!-- Node19&#45;&gt;Node3 -->
<g id="edge37_Node000019_Node000003" class="edge">
<title>Node19&#45;&gt;Node3</title>
<g id="a_edge37_Node000019_Node000003"><a xlink:title=" ">
<path fill="none" stroke="#63b8ff" d="M285.69,-106.98C317.89,-92.67 370.21,-70.58 417,-56 469.42,-39.67 531.31,-26.62 571.99,-18.86"/>
<polygon fill="#63b8ff" stroke="#63b8ff" points="284.66,-103.6 276.97,-110.89 287.52,-109.99 284.66,-103.6"/>
</a>
</g>
</g>
<!-- Node19&#45;&gt;Node4 -->
<g id="edge38_Node000019_Node000004" class="edge">
<title>Node19&#45;&gt;Node4</title>
<g id="a_edge38_Node000019_Node000004"><a xlink:title=" ">
<path fill="none" stroke="#63b8ff" d="M299.57,-111.1C343.99,-101.22 411.71,-86.17 455.42,-76.46"/>
<polygon fill="#63b8ff" stroke="#63b8ff" points="299.01,-107.63 290.01,-113.22 300.53,-114.47 299.01,-107.63"/>
</a>
</g>
</g>
<!-- Node20&#45;&gt;Node21 -->
<g id="edge40_Node000020_Node000021" class="edge">
<title>Node20&#45;&gt;Node21</title>
<g id="a_edge40_Node000020_Node000021"><a xlink:title=" ">
<path fill="none" stroke="#63b8ff" d="M108.2,-106.08C91.2,-96.62 69.72,-84.66 55.03,-76.48"/>
<polygon fill="#63b8ff" stroke="#63b8ff" points="106.34,-109.05 116.78,-110.86 109.75,-102.94 106.34,-109.05"/>
</a>
</g>
</g>
<!-- Node23&#45;&gt;Node24 -->
<g id="edge49_Node000023_Node000024" class="edge">
<title>Node23&#45;&gt;Node24</title>
<g id="a_edge49_Node000023_Node000024"><a xlink:title=" ">
<path fill="none" stroke="#63b8ff" d="M485.12,-269.29C489.08,-260.75 493.52,-251.16 496.7,-244.3"/>
<polygon fill="#63b8ff" stroke="#63b8ff" points="482.02,-267.68 480.99,-278.22 488.37,-270.62 482.02,-267.68"/>
</a>
</g>
</g>
<!-- Node25&#45;&gt;Node3 -->
<g id="edge51_Node000025_Node000003" class="edge">
<title>Node25&#45;&gt;Node3</title>
<g id="a_edge51_Node000025_Node000003"><a xlink:title=" ">
<path fill="none" stroke="#63b8ff" d="M697.88,-164.7C728.67,-156.45 762.93,-144.8 772,-132 791.53,-104.44 792.31,-82.99 772,-56 758.49,-38.04 701.25,-24.99 660.03,-17.7"/>
<polygon fill="#63b8ff" stroke="#63b8ff" points="697.01,-161.31 688.21,-167.2 698.76,-168.08 697.01,-161.31"/>
</a>
</g>
</g>
<!-- Node25&#45;&gt;Node4 -->
<g id="edge52_Node000025_Node000004" class="edge">
<title>Node25&#45;&gt;Node4</title>
<g id="a_edge52_Node000025_Node000004"><a xlink:title=" ">
<path fill="none" stroke="#63b8ff" d="M642.83,-156.66C640.98,-142.48 636.37,-124.03 625,-112 603.39,-89.14 569.43,-77.88 542.06,-72.34"/>
<polygon fill="#63b8ff" stroke="#63b8ff" points="639.31,-156.6 643.7,-166.24 646.28,-155.96 639.31,-156.6"/>
</a>
</g>
</g>
<!-- Node25&#45;&gt;Node6 -->
<g id="edge53_Node000025_Node000006" class="edge">
<title>Node25&#45;&gt;Node6</title>
<g id="a_edge53_Node000025_Node000006"><a xlink:title=" ">
<path fill="none" stroke="#63b8ff" d="M706.61,-165.5C767.76,-154.27 858.39,-137.62 906.05,-128.87"/>
<polygon fill="#63b8ff" stroke="#63b8ff" points="706.24,-162.01 697.04,-167.26 707.5,-168.89 706.24,-162.01"/>
</a>
</g>
</g>
</g>
</svg>
