<?xml version="1.0" encoding="UTF-8" standalone="no"?>
<!DOCTYPE svg PUBLIC "-//W3C//DTD SVG 1.1//EN"
 "http://www.w3.org/Graphics/SVG/1.1/DTD/svg11.dtd">
<!-- Generated by graphviz version 12.1.0 (20240811.2233)
 -->
<!-- Title: Event.hpp Pages: 1 -->
<svg width="866pt" height="476pt"
 viewBox="0.00 0.00 866.00 476.00" xmlns="http://www.w3.org/2000/svg" xmlns:xlink="http://www.w3.org/1999/xlink">
<g id="graph0" class="graph" transform="scale(1 1) rotate(0) translate(4 472)">
<title>Event.hpp</title>
<!-- Node1 -->
<g id="Node000001" class="node">
<title>Node1</title>
<g id="a_Node000001"><a xlink:title=" ">
<polygon fill="#999999" stroke="#666666" points="433.12,-468 372.88,-468 372.88,-448 433.12,-448 433.12,-468"/>
<text text-anchor="middle" x="403" y="-454.5" font-family="Helvetica,sans-Serif" font-size="10.00">Event.hpp</text>
</a>
</g>
</g>
<!-- Node2 -->
<g id="Node000002" class="node">
<title>Node2</title>
<g id="a_Node000002"><a xlink:href="Collision_8hpp.html" target="_top" xlink:title=" ">
<polygon fill="white" stroke="#666666" points="306.12,-188 233.88,-188 233.88,-168 306.12,-168 306.12,-188"/>
<text text-anchor="middle" x="270" y="-174.5" font-family="Helvetica,sans-Serif" font-size="10.00">Collision.hpp</text>
</a>
</g>
</g>
<!-- Node1&#45;&gt;Node2 -->
<g id="edge1_Node000001_Node000002" class="edge">
<title>Node1&#45;&gt;Node2</title>
<g id="a_edge1_Node000001_Node000002"><a xlink:title=" ">
<path fill="none" stroke="#63b8ff" d="M372.62,-442.4C340.68,-424.68 295,-391.56 295,-347 295,-347 295,-347 295,-289 295,-250.81 280.49,-206.98 273.58,-188.26"/>
<polygon fill="#63b8ff" stroke="#63b8ff" points="370.62,-445.3 381.09,-446.9 373.9,-439.12 370.62,-445.3"/>
</a>
</g>
</g>
<!-- Node7 -->
<g id="Node000007" class="node">
<title>Node7</title>
<g id="a_Node000007"><a xlink:href="Enemy_8hpp.html" target="_top" xlink:title=" ">
<polygon fill="white" stroke="#666666" points="830.38,-188 765.62,-188 765.62,-168 830.38,-168 830.38,-188"/>
<text text-anchor="middle" x="798" y="-174.5" font-family="Helvetica,sans-Serif" font-size="10.00">Enemy.hpp</text>
</a>
</g>
</g>
<!-- Node1&#45;&gt;Node7 -->
<g id="edge7_Node000001_Node000007" class="edge">
<title>Node1&#45;&gt;Node7</title>
<g id="a_edge7_Node000001_Node000007"><a xlink:title=" ">
<path fill="none" stroke="#63b8ff" d="M444.7,-454.17C545.67,-446.18 795,-419.16 795,-347 795,-347 795,-347 795,-289 795,-251.75 796.74,-207.42 797.57,-188.41"/>
<polygon fill="#63b8ff" stroke="#63b8ff" points="444.65,-450.67 434.94,-454.92 445.18,-457.65 444.65,-450.67"/>
</a>
</g>
</g>
<!-- Node8 -->
<g id="Node000008" class="node">
<title>Node8</title>
<g id="a_Node000008"><a xlink:href="EventManager_8hpp.html" target="_top" xlink:title=" ">
<polygon fill="white" stroke="#666666" points="469.88,-412 372.12,-412 372.12,-392 469.88,-392 469.88,-412"/>
<text text-anchor="middle" x="421" y="-398.5" font-family="Helvetica,sans-Serif" font-size="10.00">EventManager.hpp</text>
</a>
</g>
</g>
<!-- Node1&#45;&gt;Node8 -->
<g id="edge11_Node000001_Node000008" class="edge">
<title>Node1&#45;&gt;Node8</title>
<g id="a_edge11_Node000001_Node000008"><a xlink:title=" ">
<path fill="none" stroke="#63b8ff" d="M409.76,-436.71C412.56,-428.32 415.66,-419.01 417.9,-412.3"/>
<polygon fill="#63b8ff" stroke="#63b8ff" points="406.46,-435.56 406.61,-446.16 413.1,-437.78 406.46,-435.56"/>
</a>
</g>
</g>
<!-- Node13 -->
<g id="Node000013" class="node">
<title>Node13</title>
<g id="a_Node000013"><a xlink:href="PlayerControl_8hpp.html" target="_top" xlink:title=" ">
<polygon fill="white" stroke="#666666" points="748,-188 654,-188 654,-168 748,-168 748,-188"/>
<text text-anchor="middle" x="701" y="-174.5" font-family="Helvetica,sans-Serif" font-size="10.00">PlayerControl.hpp</text>
</a>
</g>
</g>
<!-- Node1&#45;&gt;Node13 -->
<g id="edge44_Node000001_Node000013" class="edge">
<title>Node1&#45;&gt;Node13</title>
<g id="a_edge44_Node000001_Node000013"><a xlink:title=" ">
<path fill="none" stroke="#63b8ff" d="M445,-452.57C536.96,-441.71 748,-409.94 748,-347 748,-347 748,-347 748,-289 748,-248.92 721.29,-206.75 708.14,-188.42"/>
<polygon fill="#63b8ff" stroke="#63b8ff" points="444.65,-449.09 435.12,-453.71 445.45,-456.04 444.65,-449.09"/>
</a>
</g>
</g>
<!-- Node14 -->
<g id="Node000014" class="node">
<title>Node14</title>
<g id="a_Node000014"><a xlink:href="Renderer_8hpp.html" target="_top" xlink:title=" ">
<polygon fill="white" stroke="#666666" points="216.25,-188 141.75,-188 141.75,-168 216.25,-168 216.25,-188"/>
<text text-anchor="middle" x="179" y="-174.5" font-family="Helvetica,sans-Serif" font-size="10.00">Renderer.hpp</text>
</a>
</g>
</g>
<!-- Node1&#45;&gt;Node14 -->
<g id="edge45_Node000001_Node000014" class="edge">
<title>Node1&#45;&gt;Node14</title>
<g id="a_edge45_Node000001_Node000014"><a xlink:title=" ">
<path fill="none" stroke="#63b8ff" d="M361.94,-443.75C344.12,-436.49 323.96,-426.05 309,-412 235.4,-342.86 192.88,-222.51 181.88,-188.31"/>
<polygon fill="#63b8ff" stroke="#63b8ff" points="360.66,-447.01 371.25,-447.33 363.17,-440.48 360.66,-447.01"/>
</a>
</g>
</g>
<!-- Node17 -->
<g id="Node000017" class="node">
<title>Node17</title>
<g id="a_Node000017"><a xlink:href="SFML_8cpp.html" target="_top" xlink:title=" ">
<polygon fill="white" stroke="#666666" points="135.5,-76 74.5,-76 74.5,-56 135.5,-56 135.5,-76"/>
<text text-anchor="middle" x="105" y="-62.5" font-family="Helvetica,sans-Serif" font-size="10.00">SFML.cpp</text>
</a>
</g>
</g>
<!-- Node1&#45;&gt;Node17 -->
<g id="edge46_Node000001_Node000017" class="edge">
<title>Node1&#45;&gt;Node17</title>
<g id="a_edge46_Node000001_Node000017"><a xlink:title=" ">
<path fill="none" stroke="#63b8ff" d="M361.17,-454.48C258.06,-447.12 0,-421.29 0,-347 0,-347 0,-347 0,-177 0,-128.16 54.83,-92.46 85.25,-76.42"/>
<polygon fill="#63b8ff" stroke="#63b8ff" points="360.65,-457.95 370.87,-455.14 361.13,-450.97 360.65,-457.95"/>
</a>
</g>
</g>
<!-- Node3 -->
<g id="Node000003" class="node">
<title>Node3</title>
<g id="a_Node000003"><a xlink:href="GameTypes_8cpp.html" target="_top" xlink:title=" ">
<polygon fill="white" stroke="#666666" points="398.62,-20 311.38,-20 311.38,0 398.62,0 398.62,-20"/>
<text text-anchor="middle" x="355" y="-6.5" font-family="Helvetica,sans-Serif" font-size="10.00">GameTypes.cpp</text>
</a>
</g>
</g>
<!-- Node2&#45;&gt;Node3 -->
<g id="edge2_Node000002_Node000003" class="edge">
<title>Node2&#45;&gt;Node3</title>
<g id="a_edge2_Node000002_Node000003"><a xlink:title=" ">
<path fill="none" stroke="#63b8ff" d="M280.02,-157.44C298.38,-121.57 336.8,-46.53 350.24,-20.3"/>
<polygon fill="#63b8ff" stroke="#63b8ff" points="276.95,-155.76 275.5,-166.25 283.18,-158.95 276.95,-155.76"/>
</a>
</g>
</g>
<!-- Node4 -->
<g id="Node000004" class="node">
<title>Node4</title>
<g id="a_Node000004"><a xlink:href="GameTypes_8hpp.html" target="_top" xlink:title=" ">
<polygon fill="white" stroke="#666666" points="536.62,-76 449.38,-76 449.38,-56 536.62,-56 536.62,-76"/>
<text text-anchor="middle" x="493" y="-62.5" font-family="Helvetica,sans-Serif" font-size="10.00">GameTypes.hpp</text>
</a>
</g>
</g>
<!-- Node2&#45;&gt;Node4 -->
<g id="edge3_Node000002_Node000004" class="edge">
<title>Node2&#45;&gt;Node4</title>
<g id="a_edge3_Node000002_Node000004"><a xlink:title=" ">
<path fill="none" stroke="#63b8ff" d="M299.32,-162.54C345.78,-139.62 435.07,-95.57 474.04,-76.35"/>
<polygon fill="#63b8ff" stroke="#63b8ff" points="297.79,-159.39 290.37,-166.95 300.89,-165.67 297.79,-159.39"/>
</a>
</g>
</g>
<!-- Node6 -->
<g id="Node000006" class="node">
<title>Node6</title>
<g id="a_Node000006"><a xlink:href="Server_2src_2main_8cpp.html" target="_top" xlink:title=" ">
<polygon fill="white" stroke="#666666" points="542.88,-132 487.12,-132 487.12,-112 542.88,-112 542.88,-132"/>
<text text-anchor="middle" x="515" y="-118.5" font-family="Helvetica,sans-Serif" font-size="10.00">main.cpp</text>
</a>
</g>
</g>
<!-- Node2&#45;&gt;Node6 -->
<g id="edge6_Node000002_Node000006" class="edge">
<title>Node2&#45;&gt;Node6</title>
<g id="a_edge6_Node000002_Node000006"><a xlink:title=" ">
<path fill="none" stroke="#63b8ff" d="M317.63,-166.5C367.9,-155.42 445.45,-138.33 486.79,-129.22"/>
<polygon fill="#63b8ff" stroke="#63b8ff" points="316.9,-163.08 307.89,-168.65 318.41,-169.91 316.9,-163.08"/>
</a>
</g>
</g>
<!-- Node4&#45;&gt;Node3 -->
<g id="edge4_Node000004_Node000003" class="edge">
<title>Node4&#45;&gt;Node3</title>
<g id="a_edge4_Node000004_Node000003"><a xlink:title=" ">
<path fill="none" stroke="#63b8ff" d="M458.25,-51.4C433.59,-41.75 401.12,-29.05 379.23,-20.48"/>
<polygon fill="#63b8ff" stroke="#63b8ff" points="456.96,-54.66 467.55,-55.04 459.52,-48.14 456.96,-54.66"/>
</a>
</g>
</g>
<!-- Node5 -->
<g id="Node000005" class="node">
<title>Node5</title>
<g id="a_Node000005"><a xlink:href="Client_2src_2main_8cpp.html" target="_top" xlink:title=" ">
<polygon fill="white" stroke="#666666" points="520.88,-20 465.12,-20 465.12,0 520.88,0 520.88,-20"/>
<text text-anchor="middle" x="493" y="-6.5" font-family="Helvetica,sans-Serif" font-size="10.00">main.cpp</text>
</a>
</g>
</g>
<!-- Node4&#45;&gt;Node5 -->
<g id="edge5_Node000004_Node000005" class="edge">
<title>Node4&#45;&gt;Node5</title>
<g id="a_edge5_Node000004_Node000005"><a xlink:title=" ">
<path fill="none" stroke="#63b8ff" d="M493,-44.13C493,-35.9 493,-26.85 493,-20.3"/>
<polygon fill="#63b8ff" stroke="#63b8ff" points="489.5,-44.08 493,-54.08 496.5,-44.08 489.5,-44.08"/>
</a>
</g>
</g>
<!-- Node7&#45;&gt;Node3 -->
<g id="edge8_Node000007_Node000003" class="edge">
<title>Node7&#45;&gt;Node3</title>
<g id="a_edge8_Node000007_Node000003"><a xlink:title=" ">
<path fill="none" stroke="#63b8ff" d="M778.79,-160.55C746.73,-134.02 679.28,-82.16 613,-56 574.78,-40.91 461.91,-24.7 398.86,-16.47"/>
<polygon fill="#63b8ff" stroke="#63b8ff" points="776.14,-162.89 786.06,-166.64 780.64,-157.53 776.14,-162.89"/>
</a>
</g>
</g>
<!-- Node7&#45;&gt;Node4 -->
<g id="edge9_Node000007_Node000004" class="edge">
<title>Node7&#45;&gt;Node4</title>
<g id="a_edge9_Node000007_Node000004"><a xlink:title=" ">
<path fill="none" stroke="#63b8ff" d="M771.94,-162.2C745.81,-147.82 704.09,-126.16 666,-112 623.1,-96.05 572.2,-83.54 536.77,-75.8"/>
<polygon fill="#63b8ff" stroke="#63b8ff" points="770.05,-165.14 780.49,-166.95 773.45,-159.03 770.05,-165.14"/>
</a>
</g>
</g>
<!-- Node7&#45;&gt;Node6 -->
<g id="edge10_Node000007_Node000006" class="edge">
<title>Node7&#45;&gt;Node6</title>
<g id="a_edge10_Node000007_Node000006"><a xlink:title=" ">
<path fill="none" stroke="#63b8ff" d="M754.31,-167.5C672.17,-150.99 586.69,-135.62 543.37,-127.97"/>
<polygon fill="#63b8ff" stroke="#63b8ff" points="753.37,-170.88 763.86,-169.43 754.75,-164.02 753.37,-170.88"/>
</a>
</g>
</g>
<!-- Node9 -->
<g id="Node000009" class="node">
<title>Node9</title>
<g id="a_Node000009"><a xlink:href="Mediator_8hpp.html" target="_top" xlink:title=" ">
<polygon fill="white" stroke="#666666" points="513.12,-356 440.88,-356 440.88,-336 513.12,-336 513.12,-356"/>
<text text-anchor="middle" x="477" y="-342.5" font-family="Helvetica,sans-Serif" font-size="10.00">Mediator.hpp</text>
</a>
</g>
</g>
<!-- Node8&#45;&gt;Node9 -->
<g id="edge12_Node000008_Node000009" class="edge">
<title>Node8&#45;&gt;Node9</title>
<g id="a_edge12_Node000008_Node000009"><a xlink:title=" ">
<path fill="none" stroke="#63b8ff" d="M438.79,-383.85C448.25,-374.72 459.52,-363.86 467.36,-356.3"/>
<polygon fill="#63b8ff" stroke="#63b8ff" points="436.61,-381.08 431.84,-390.54 441.47,-386.12 436.61,-381.08"/>
</a>
</g>
</g>
<!-- Node9&#45;&gt;Node3 -->
<g id="edge33_Node000009_Node000003" class="edge">
<title>Node9&#45;&gt;Node3</title>
<g id="a_edge33_Node000009_Node000003"><a xlink:title=" ">
<path fill="none" stroke="#63b8ff" d="M429.42,-341.09C380.19,-335.89 301.71,-324.35 238,-300 140.96,-262.91 38,-282.89 38,-179 38,-179 38,-179 38,-121 38,-89.72 40.39,-75.32 65,-56 102.42,-26.62 239.57,-16.16 311.03,-12.65"/>
<polygon fill="#63b8ff" stroke="#63b8ff" points="428.87,-344.55 439.17,-342.07 429.57,-337.59 428.87,-344.55"/>
</a>
</g>
</g>
<!-- Node9&#45;&gt;Node4 -->
<g id="edge34_Node000009_Node000004" class="edge">
<title>Node9&#45;&gt;Node4</title>
<g id="a_edge34_Node000009_Node000004"><a xlink:title=" ">
<path fill="none" stroke="#63b8ff" d="M524.76,-341.3C627.04,-332.07 858,-303.61 858,-235 858,-235 858,-235 858,-177 858,-110.65 634.11,-80.76 537.03,-70.91"/>
<polygon fill="#63b8ff" stroke="#63b8ff" points="524.7,-337.79 515.04,-342.15 525.31,-344.77 524.7,-337.79"/>
</a>
</g>
</g>
<!-- Node9&#45;&gt;Node6 -->
<g id="edge43_Node000009_Node000006" class="edge">
<title>Node9&#45;&gt;Node6</title>
<g id="a_edge43_Node000009_Node000006"><a xlink:title=" ">
<path fill="none" stroke="#63b8ff" d="M449.22,-329.16C439,-321.74 428.57,-311.89 423,-300 419.23,-291.95 421.91,-288.82 423,-280 429.66,-225.9 439.53,-211.03 473,-168 483.24,-154.84 496.59,-141.01 505.47,-132.21"/>
<polygon fill="#63b8ff" stroke="#63b8ff" points="447.26,-332.06 457.52,-334.68 451.13,-326.23 447.26,-332.06"/>
</a>
</g>
</g>
<!-- Node10 -->
<g id="Node000010" class="node">
<title>Node10</title>
<g id="a_Node000010"><a xlink:href="ComponentRegistry_8hpp.html" target="_top" xlink:title=" ">
<polygon fill="white" stroke="#666666" points="553.5,-300 432.5,-300 432.5,-280 553.5,-280 553.5,-300"/>
<text text-anchor="middle" x="493" y="-286.5" font-family="Helvetica,sans-Serif" font-size="10.00">ComponentRegistry.hpp</text>
</a>
</g>
</g>
<!-- Node9&#45;&gt;Node10 -->
<g id="edge13_Node000009_Node000010" class="edge">
<title>Node9&#45;&gt;Node10</title>
<g id="a_edge13_Node000009_Node000010"><a xlink:title=" ">
<path fill="none" stroke="#63b8ff" d="M483.01,-324.71C485.5,-316.32 488.26,-307.01 490.24,-300.3"/>
<polygon fill="#63b8ff" stroke="#63b8ff" points="479.7,-323.56 480.22,-334.14 486.41,-325.55 479.7,-323.56"/>
</a>
</g>
</g>
<!-- Node11 -->
<g id="Node000011" class="node">
<title>Node11</title>
<g id="a_Node000011"><a xlink:href="NetworkManager_8hpp.html" target="_top" xlink:title=" ">
<polygon fill="white" stroke="#666666" points="555.5,-244 446.5,-244 446.5,-224 555.5,-224 555.5,-244"/>
<text text-anchor="middle" x="501" y="-230.5" font-family="Helvetica,sans-Serif" font-size="10.00">NetworkManager.hpp</text>
</a>
</g>
</g>
<!-- Node9&#45;&gt;Node11 -->
<g id="edge36_Node000009_Node000011" class="edge">
<title>Node9&#45;&gt;Node11</title>
<g id="a_edge36_Node000009_Node000011"><a xlink:title=" ">
<path fill="none" stroke="#63b8ff" d="M523.82,-331.45C539.02,-324.59 554.21,-314.52 563,-300 576.73,-277.32 544.88,-256.1 521.94,-244.4"/>
<polygon fill="#63b8ff" stroke="#63b8ff" points="522.72,-328.12 514.79,-335.13 525.37,-334.6 522.72,-328.12"/>
</a>
</g>
</g>
<!-- Node9&#45;&gt;Node13 -->
<g id="edge41_Node000009_Node000013" class="edge">
<title>Node9&#45;&gt;Node13</title>
<g id="a_edge41_Node000009_Node000013"><a xlink:title=" ">
<path fill="none" stroke="#63b8ff" d="M516.48,-331.49C536.16,-323.81 559.79,-313.09 579,-300 628.79,-266.06 675.96,-210.34 693.65,-188.35"/>
<polygon fill="#63b8ff" stroke="#63b8ff" points="515.25,-328.21 507.13,-335.02 517.72,-334.76 515.25,-328.21"/>
</a>
</g>
</g>
<!-- Node15 -->
<g id="Node000015" class="node">
<title>Node15</title>
<g id="a_Node000015"><a xlink:href="Render_8hpp.html" target="_top" xlink:title=" ">
<polygon fill="white" stroke="#666666" points="279.12,-132 212.88,-132 212.88,-112 279.12,-112 279.12,-132"/>
<text text-anchor="middle" x="246" y="-118.5" font-family="Helvetica,sans-Serif" font-size="10.00">Render.hpp</text>
</a>
</g>
</g>
<!-- Node9&#45;&gt;Node15 -->
<g id="edge42_Node000009_Node000015" class="edge">
<title>Node9&#45;&gt;Node15</title>
<g id="a_edge42_Node000009_Node000015"><a xlink:title=" ">
<path fill="none" stroke="#63b8ff" d="M429.66,-339.45C351.84,-327.49 198.96,-291.39 133,-188 128.22,-180.51 128.01,-175.36 133,-168 142.3,-154.28 182.7,-140.46 212.55,-131.83"/>
<polygon fill="#63b8ff" stroke="#63b8ff" points="428.67,-342.84 439.08,-340.83 429.69,-335.92 428.67,-342.84"/>
</a>
</g>
</g>
<!-- Node18 -->
<g id="Node000018" class="node">
<title>Node18</title>
<g id="a_Node000018"><a xlink:href="Mediator_8cpp.html" target="_top" xlink:title=" ">
<polygon fill="white" stroke="#666666" points="720.12,-300 647.88,-300 647.88,-280 720.12,-280 720.12,-300"/>
<text text-anchor="middle" x="684" y="-286.5" font-family="Helvetica,sans-Serif" font-size="10.00">Mediator.cpp</text>
</a>
</g>
</g>
<!-- Node9&#45;&gt;Node18 -->
<g id="edge35_Node000009_Node000018" class="edge">
<title>Node9&#45;&gt;Node18</title>
<g id="a_edge35_Node000009_Node000018"><a xlink:title=" ">
<path fill="none" stroke="#63b8ff" d="M523.72,-332.81C561.25,-323.02 613.2,-309.47 647.66,-300.48"/>
<polygon fill="#63b8ff" stroke="#63b8ff" points="523.31,-329.3 514.52,-335.21 525.08,-336.07 523.31,-329.3"/>
</a>
</g>
</g>
<!-- Node19 -->
<g id="Node000019" class="node">
<title>Node19</title>
<g id="a_Node000019"><a xlink:href="Physics_8hpp.html" target="_top" xlink:title=" ">
<polygon fill="white" stroke="#666666" points="394,-188 324,-188 324,-168 394,-168 394,-188"/>
<text text-anchor="middle" x="359" y="-174.5" font-family="Helvetica,sans-Serif" font-size="10.00">Physics.hpp</text>
</a>
</g>
</g>
<!-- Node9&#45;&gt;Node19 -->
<g id="edge37_Node000009_Node000019" class="edge">
<title>Node9&#45;&gt;Node19</title>
<g id="a_edge37_Node000009_Node000019"><a xlink:title=" ">
<path fill="none" stroke="#63b8ff" d="M434.24,-331.41C418.27,-324.37 401.29,-314.19 390,-300 362.73,-265.72 359.19,-210.2 358.92,-188.3"/>
<polygon fill="#63b8ff" stroke="#63b8ff" points="432.54,-334.5 443.12,-335.03 435.18,-328.01 432.54,-334.5"/>
</a>
</g>
</g>
<!-- Node10&#45;&gt;Node11 -->
<g id="edge14_Node000010_Node000011" class="edge">
<title>Node10&#45;&gt;Node11</title>
<g id="a_edge14_Node000010_Node000011"><a xlink:title=" ">
<path fill="none" stroke="#63b8ff" d="M496.05,-268.43C497.28,-260.11 498.64,-250.93 499.62,-244.3"/>
<polygon fill="#63b8ff" stroke="#63b8ff" points="492.62,-267.69 494.62,-278.1 499.54,-268.72 492.62,-267.69"/>
</a>
</g>
</g>
<!-- Node11&#45;&gt;Node2 -->
<g id="edge15_Node000011_Node000002" class="edge">
<title>Node11&#45;&gt;Node2</title>
<g id="a_edge15_Node000011_Node000002"><a xlink:title=" ">
<path fill="none" stroke="#63b8ff" d="M449.29,-220.91C405.8,-210.74 344.72,-196.47 306.27,-187.48"/>
<polygon fill="#63b8ff" stroke="#63b8ff" points="448.49,-224.32 459.02,-223.19 450.08,-217.5 448.49,-224.32"/>
</a>
</g>
</g>
<!-- Node11&#45;&gt;Node4 -->
<g id="edge17_Node000011_Node000004" class="edge">
<title>Node11&#45;&gt;Node4</title>
<g id="a_edge17_Node000011_Node000004"><a xlink:title=" ">
<path fill="none" stroke="#63b8ff" d="M560.15,-220.25C589.92,-210.45 617.66,-194.07 607,-168 588.78,-123.46 538.85,-91.2 511.5,-76.27"/>
<polygon fill="#63b8ff" stroke="#63b8ff" points="559.17,-216.89 550.61,-223.13 561.19,-223.59 559.17,-216.89"/>
</a>
</g>
</g>
<!-- Node11&#45;&gt;Node6 -->
<g id="edge32_Node000011_Node000006" class="edge">
<title>Node11&#45;&gt;Node6</title>
<g id="a_edge32_Node000011_Node000006"><a xlink:title=" ">
<path fill="none" stroke="#63b8ff" d="M487.74,-214.05C480.33,-201.06 473.58,-183.46 479,-168 483.97,-153.84 495.47,-140.82 504.15,-132.47"/>
<polygon fill="#63b8ff" stroke="#63b8ff" points="484.75,-215.87 493.05,-222.44 490.66,-212.12 484.75,-215.87"/>
</a>
</g>
</g>
<!-- Node11&#45;&gt;Node7 -->
<g id="edge16_Node000011_Node000007" class="edge">
<title>Node11&#45;&gt;Node7</title>
<g id="a_edge16_Node000011_Node000007"><a xlink:title=" ">
<path fill="none" stroke="#63b8ff" d="M566.59,-222.25C618.39,-213.57 692.45,-200.75 757,-188 759.72,-187.46 762.53,-186.89 765.35,-186.3"/>
<polygon fill="#63b8ff" stroke="#63b8ff" points="566.34,-218.75 557.05,-223.84 567.49,-225.65 566.34,-218.75"/>
</a>
</g>
</g>
<!-- Node12 -->
<g id="Node000012" class="node">
<title>Node12</title>
<g id="a_Node000012"><a xlink:href="NetworkManager_8cpp.html" target="_top" xlink:title=" ">
<polygon fill="white" stroke="#666666" points="597.5,-188 488.5,-188 488.5,-168 597.5,-168 597.5,-188"/>
<text text-anchor="middle" x="543" y="-174.5" font-family="Helvetica,sans-Serif" font-size="10.00">NetworkManager.cpp</text>
</a>
</g>
</g>
<!-- Node11&#45;&gt;Node12 -->
<g id="edge18_Node000011_Node000012" class="edge">
<title>Node11&#45;&gt;Node12</title>
<g id="a_edge18_Node000011_Node000012"><a xlink:title=" ">
<path fill="none" stroke="#63b8ff" d="M515.22,-214.72C522.13,-205.84 530.13,-195.55 535.77,-188.3"/>
<polygon fill="#63b8ff" stroke="#63b8ff" points="512.62,-212.36 509.25,-222.4 518.15,-216.65 512.62,-212.36"/>
</a>
</g>
</g>
<!-- Node11&#45;&gt;Node13 -->
<g id="edge19_Node000011_Node000013" class="edge">
<title>Node11&#45;&gt;Node13</title>
<g id="a_edge19_Node000011_Node000013"><a xlink:title=" ">
<path fill="none" stroke="#63b8ff" d="M546.61,-220.69C582.83,-210.91 632.73,-197.43 665.89,-188.48"/>
<polygon fill="#63b8ff" stroke="#63b8ff" points="546.04,-217.21 537.3,-223.2 547.87,-223.97 546.04,-217.21"/>
</a>
</g>
</g>
<!-- Node11&#45;&gt;Node14 -->
<g id="edge23_Node000011_Node000014" class="edge">
<title>Node11&#45;&gt;Node14</title>
<g id="a_edge23_Node000011_Node000014"><a xlink:title=" ">
<path fill="none" stroke="#63b8ff" d="M435.01,-222.84C379.03,-214.08 296.64,-200.85 225,-188 222.28,-187.51 219.47,-186.99 216.64,-186.46"/>
<polygon fill="#63b8ff" stroke="#63b8ff" points="434.27,-226.27 444.69,-224.35 435.35,-219.35 434.27,-226.27"/>
</a>
</g>
</g>
<!-- Node11&#45;&gt;Node17 -->
<g id="edge31_Node000011_Node000017" class="edge">
<title>Node11&#45;&gt;Node17</title>
<g id="a_edge31_Node000011_Node000017"><a xlink:title=" ">
<path fill="none" stroke="#63b8ff" d="M434.71,-233.7C340.93,-233.27 176.12,-226.79 133,-188 100.3,-158.58 101.93,-99.21 103.95,-76.31"/>
<polygon fill="#63b8ff" stroke="#63b8ff" points="434.54,-237.2 444.54,-233.72 434.55,-230.2 434.54,-237.2"/>
</a>
</g>
</g>
<!-- Node13&#45;&gt;Node3 -->
<g id="edge20_Node000013_Node000003" class="edge">
<title>Node13&#45;&gt;Node3</title>
<g id="a_edge20_Node000013_Node000003"><a xlink:title=" ">
<path fill="none" stroke="#63b8ff" d="M694.25,-157.3C688.58,-143.18 679.25,-124.51 666,-112 590.88,-41.07 465.38,-19.94 399.1,-13.66"/>
<polygon fill="#63b8ff" stroke="#63b8ff" points="690.89,-158.28 697.64,-166.44 697.45,-155.85 690.89,-158.28"/>
</a>
</g>
</g>
<!-- Node13&#45;&gt;Node4 -->
<g id="edge21_Node000013_Node000004" class="edge">
<title>Node13&#45;&gt;Node4</title>
<g id="a_edge21_Node000013_Node000004"><a xlink:title=" ">
<path fill="none" stroke="#63b8ff" d="M687.94,-158.48C676.76,-143.91 659.42,-124.1 640,-112 608.4,-92.31 567.59,-80.72 536.99,-74.25"/>
<polygon fill="#63b8ff" stroke="#63b8ff" points="685,-160.39 693.75,-166.36 690.63,-156.24 685,-160.39"/>
</a>
</g>
</g>
<!-- Node13&#45;&gt;Node6 -->
<g id="edge22_Node000013_Node000006" class="edge">
<title>Node13&#45;&gt;Node6</title>
<g id="a_edge22_Node000013_Node000006"><a xlink:title=" ">
<path fill="none" stroke="#63b8ff" d="M657.65,-164.41C622.32,-154.16 573.47,-139.98 543.08,-131.15"/>
<polygon fill="#63b8ff" stroke="#63b8ff" points="656.57,-167.74 667.15,-167.17 658.52,-161.02 656.57,-167.74"/>
</a>
</g>
</g>
<!-- Node14&#45;&gt;Node4 -->
<g id="edge24_Node000014_Node000004" class="edge">
<title>Node14&#45;&gt;Node4</title>
<g id="a_edge24_Node000014_Node000004"><a xlink:title=" ">
<path fill="none" stroke="#63b8ff" d="M215.12,-163.69C251.4,-150.38 308.96,-129.44 359,-112 395.15,-99.4 437,-85.45 464.18,-76.47"/>
<polygon fill="#63b8ff" stroke="#63b8ff" points="214.17,-160.31 205.99,-167.04 216.58,-166.88 214.17,-160.31"/>
</a>
</g>
</g>
<!-- Node14&#45;&gt;Node15 -->
<g id="edge25_Node000014_Node000015" class="edge">
<title>Node14&#45;&gt;Node15</title>
<g id="a_edge25_Node000014_Node000015"><a xlink:title=" ">
<path fill="none" stroke="#63b8ff" d="M199.59,-160.4C211.05,-151.17 224.9,-140.01 234.46,-132.3"/>
<polygon fill="#63b8ff" stroke="#63b8ff" points="197.44,-157.64 191.85,-166.64 201.83,-163.09 197.44,-157.64"/>
</a>
</g>
</g>
<!-- Node16 -->
<g id="Node000016" class="node">
<title>Node16</title>
<g id="a_Node000016"><a xlink:href="SFML_8hpp.html" target="_top" xlink:title=" ">
<polygon fill="white" stroke="#666666" points="194.5,-132 133.5,-132 133.5,-112 194.5,-112 194.5,-132"/>
<text text-anchor="middle" x="164" y="-118.5" font-family="Helvetica,sans-Serif" font-size="10.00">SFML.hpp</text>
</a>
</g>
</g>
<!-- Node14&#45;&gt;Node16 -->
<g id="edge28_Node000014_Node000016" class="edge">
<title>Node14&#45;&gt;Node16</title>
<g id="a_edge28_Node000014_Node000016"><a xlink:title=" ">
<path fill="none" stroke="#63b8ff" d="M173.37,-156.71C171.03,-148.32 168.45,-139.01 166.58,-132.3"/>
<polygon fill="#63b8ff" stroke="#63b8ff" points="169.93,-157.44 175.98,-166.14 176.68,-155.56 169.93,-157.44"/>
</a>
</g>
</g>
<!-- Node15&#45;&gt;Node3 -->
<g id="edge26_Node000015_Node000003" class="edge">
<title>Node15&#45;&gt;Node3</title>
<g id="a_edge26_Node000015_Node000003"><a xlink:title=" ">
<path fill="none" stroke="#63b8ff" d="M257.34,-102.15C266.09,-88.47 279.03,-70 293,-56 307.09,-41.88 325.96,-28.86 339.16,-20.49"/>
<polygon fill="#63b8ff" stroke="#63b8ff" points="254.38,-100.28 252.08,-110.62 260.33,-103.97 254.38,-100.28"/>
</a>
</g>
</g>
<!-- Node15&#45;&gt;Node4 -->
<g id="edge27_Node000015_Node000004" class="edge">
<title>Node15&#45;&gt;Node4</title>
<g id="a_edge27_Node000015_Node000004"><a xlink:title=" ">
<path fill="none" stroke="#63b8ff" d="M290.8,-111.21C336.02,-101.32 405.37,-86.16 449.96,-76.41"/>
<polygon fill="#63b8ff" stroke="#63b8ff" points="290.07,-107.78 281.05,-113.34 291.56,-114.62 290.07,-107.78"/>
</a>
</g>
</g>
<!-- Node16&#45;&gt;Node3 -->
<g id="edge29_Node000016_Node000003" class="edge">
<title>Node16&#45;&gt;Node3</title>
<g id="a_edge29_Node000016_Node000003"><a xlink:title=" ">
<path fill="none" stroke="#63b8ff" d="M189.02,-105.51C210.78,-92.13 243.26,-72.43 272,-56 294.2,-43.31 320.16,-29.38 337.06,-20.43"/>
<polygon fill="#63b8ff" stroke="#63b8ff" points="187.22,-102.5 180.54,-110.73 190.89,-108.46 187.22,-102.5"/>
</a>
</g>
</g>
<!-- Node16&#45;&gt;Node17 -->
<g id="edge30_Node000016_Node000017" class="edge">
<title>Node16&#45;&gt;Node17</title>
<g id="a_edge30_Node000016_Node000017"><a xlink:title=" ">
<path fill="none" stroke="#63b8ff" d="M145.26,-103.85C135.29,-94.72 123.42,-83.86 115.16,-76.3"/>
<polygon fill="#63b8ff" stroke="#63b8ff" points="142.87,-106.4 152.61,-110.57 147.59,-101.24 142.87,-106.4"/>
</a>
</g>
</g>
<!-- Node19&#45;&gt;Node3 -->
<g id="edge38_Node000019_Node000003" class="edge">
<title>Node19&#45;&gt;Node3</title>
<g id="a_edge38_Node000019_Node000003"><a xlink:title=" ">
<path fill="none" stroke="#63b8ff" d="M358.51,-156.5C357.63,-120.27 355.85,-46.31 355.22,-20.3"/>
<polygon fill="#63b8ff" stroke="#63b8ff" points="355,-156.17 358.74,-166.09 362,-156 355,-156.17"/>
</a>
</g>
</g>
<!-- Node19&#45;&gt;Node4 -->
<g id="edge39_Node000019_Node000004" class="edge">
<title>Node19&#45;&gt;Node4</title>
<g id="a_edge39_Node000019_Node000004"><a xlink:title=" ">
<path fill="none" stroke="#63b8ff" d="M388.56,-162.27C403.23,-154.29 420.8,-143.68 435,-132 456.02,-114.7 476.16,-89.6 486.26,-76.21"/>
<polygon fill="#63b8ff" stroke="#63b8ff" points="387.03,-159.12 379.82,-166.89 390.3,-165.31 387.03,-159.12"/>
</a>
</g>
</g>
<!-- Node19&#45;&gt;Node6 -->
<g id="edge40_Node000019_Node000006" class="edge">
<title>Node19&#45;&gt;Node6</title>
<g id="a_edge40_Node000019_Node000006"><a xlink:title=" ">
<path fill="none" stroke="#63b8ff" d="M396.79,-163.92C424.83,-154.21 462.42,-141.2 487.61,-132.48"/>
<polygon fill="#63b8ff" stroke="#63b8ff" points="395.91,-160.52 387.6,-167.1 398.2,-167.14 395.91,-160.52"/>
</a>
</g>
</g>
</g>
</svg>
