<?xml version="1.0" encoding="UTF-8" standalone="no"?>
<!DOCTYPE svg PUBLIC "-//W3C//DTD SVG 1.1//EN"
 "http://www.w3.org/Graphics/SVG/1.1/DTD/svg11.dtd">
<!-- Generated by graphviz version 12.1.0 (20240811.2233)
 -->
<!-- Title: GameTypes.hpp Pages: 1 -->
<svg width="1535pt" height="196pt"
 viewBox="0.00 0.00 1535.38 196.00" xmlns="http://www.w3.org/2000/svg" xmlns:xlink="http://www.w3.org/1999/xlink">
<g id="graph0" class="graph" transform="scale(1 1) rotate(0) translate(4 192)">
<title>GameTypes.hpp</title>
<!-- Node1 -->
<g id="Node000001" class="node">
<title>Node1</title>
<g id="a_Node000001"><a xlink:title=" ">
<polygon fill="#999999" stroke="#666666" points="602.5,-188 515.25,-188 515.25,-168 602.5,-168 602.5,-188"/>
<text text-anchor="middle" x="558.88" y="-174.5" font-family="Helvetica,sans-Serif" font-size="10.00">GameTypes.hpp</text>
</a>
</g>
</g>
<!-- Node2 -->
<g id="Node000002" class="node">
<title>Node2</title>
<g id="a_Node000002"><a xlink:title=" ">
<polygon fill="#e0e0e0" stroke="#999999" points="556.38,-76 453.38,-76 453.38,-56 556.38,-56 556.38,-76"/>
<text text-anchor="middle" x="504.88" y="-62.5" font-family="Helvetica,sans-Serif" font-size="10.00">SFML/Graphics.hpp</text>
</a>
</g>
</g>
<!-- Node1&#45;&gt;Node2 -->
<g id="edge1_Node000001_Node000002" class="edge">
<title>Node1&#45;&gt;Node2</title>
<g id="a_edge1_Node000001_Node000002"><a xlink:title=" ">
<path fill="none" stroke="#63b8ff" d="M547.99,-167.77C538.82,-159.38 526.06,-146.17 518.88,-132 511.83,-118.11 508.32,-100.81 506.58,-87.55"/>
<polygon fill="#63b8ff" stroke="#63b8ff" points="510.08,-87.4 505.55,-77.83 503.12,-88.14 510.08,-87.4"/>
</a>
</g>
</g>
<!-- Node3 -->
<g id="Node000003" class="node">
<title>Node3</title>
<g id="a_Node000003"><a xlink:href="Button_8hpp.html" target="_top" xlink:title=" ">
<polygon fill="white" stroke="#666666" points="291.5,-132 228.25,-132 228.25,-112 291.5,-112 291.5,-132"/>
<text text-anchor="middle" x="259.88" y="-118.5" font-family="Helvetica,sans-Serif" font-size="10.00">Button.hpp</text>
</a>
</g>
</g>
<!-- Node1&#45;&gt;Node3 -->
<g id="edge2_Node000001_Node000003" class="edge">
<title>Node1&#45;&gt;Node3</title>
<g id="a_edge2_Node000001_Node000003"><a xlink:title=" ">
<path fill="none" stroke="#63b8ff" d="M514.94,-169.93C465.72,-161.89 383.29,-148.01 302.5,-132.25"/>
<polygon fill="#63b8ff" stroke="#63b8ff" points="303.6,-128.9 293.12,-130.4 302.25,-135.77 303.6,-128.9"/>
</a>
</g>
</g>
<!-- Node5 -->
<g id="Node000005" class="node">
<title>Node5</title>
<g id="a_Node000005"><a xlink:href="Menu_8hpp.html" target="_top" xlink:title=" ">
<polygon fill="white" stroke="#666666" points="751.25,-132 692.5,-132 692.5,-112 751.25,-112 751.25,-132"/>
<text text-anchor="middle" x="721.88" y="-118.5" font-family="Helvetica,sans-Serif" font-size="10.00">Menu.hpp</text>
</a>
</g>
</g>
<!-- Node1&#45;&gt;Node5 -->
<g id="edge5_Node000001_Node000005" class="edge">
<title>Node1&#45;&gt;Node5</title>
<g id="a_edge5_Node000001_Node000005"><a xlink:title=" ">
<path fill="none" stroke="#63b8ff" d="M587.27,-167.59C613.63,-158.86 653.14,-145.77 682.54,-136.03"/>
<polygon fill="#63b8ff" stroke="#63b8ff" points="683.43,-139.42 691.82,-132.96 681.23,-132.78 683.43,-139.42"/>
</a>
</g>
</g>
<!-- Node6 -->
<g id="Node000006" class="node">
<title>Node6</title>
<g id="a_Node000006"><a xlink:href="Parameters_8hpp.html" target="_top" xlink:title=" ">
<polygon fill="white" stroke="#666666" points="854.38,-132 769.38,-132 769.38,-112 854.38,-112 854.38,-132"/>
<text text-anchor="middle" x="811.88" y="-118.5" font-family="Helvetica,sans-Serif" font-size="10.00">Parameters.hpp</text>
</a>
</g>
</g>
<!-- Node1&#45;&gt;Node6 -->
<g id="edge8_Node000001_Node000006" class="edge">
<title>Node1&#45;&gt;Node6</title>
<g id="a_edge8_Node000001_Node000006"><a xlink:title=" ">
<path fill="none" stroke="#63b8ff" d="M602.94,-167.59C646.11,-158.38 711.94,-144.33 758.15,-134.47"/>
<polygon fill="#63b8ff" stroke="#63b8ff" points="758.62,-137.94 767.67,-132.43 757.16,-131.1 758.62,-137.94"/>
</a>
</g>
</g>
<!-- Node8 -->
<g id="Node000008" class="node">
<title>Node8</title>
<g id="a_Node000008"><a xlink:href="ParamButton_8hpp.html" target="_top" xlink:title=" ">
<polygon fill="white" stroke="#666666" points="91.75,-132 0,-132 0,-112 91.75,-112 91.75,-132"/>
<text text-anchor="middle" x="45.88" y="-118.5" font-family="Helvetica,sans-Serif" font-size="10.00">ParamButton.hpp</text>
</a>
</g>
</g>
<!-- Node1&#45;&gt;Node8 -->
<g id="edge12_Node000001_Node000008" class="edge">
<title>Node1&#45;&gt;Node8</title>
<g id="a_edge12_Node000001_Node000008"><a xlink:title=" ">
<path fill="none" stroke="#63b8ff" d="M514.88,-173.62C435.05,-167.29 260.81,-152.53 103.36,-132.25"/>
<polygon fill="#63b8ff" stroke="#63b8ff" points="103.93,-128.79 93.56,-130.97 103.02,-135.73 103.93,-128.79"/>
</a>
</g>
</g>
<!-- Node9 -->
<g id="Node000009" class="node">
<title>Node9</title>
<g id="a_Node000009"><a xlink:href="ParticleSystem_8hpp.html" target="_top" xlink:title=" ">
<polygon fill="white" stroke="#666666" points="973.62,-132 872.12,-132 872.12,-112 973.62,-112 973.62,-132"/>
<text text-anchor="middle" x="922.88" y="-118.5" font-family="Helvetica,sans-Serif" font-size="10.00">ParticleSystem.hpp</text>
</a>
</g>
</g>
<!-- Node1&#45;&gt;Node9 -->
<g id="edge15_Node000001_Node000009" class="edge">
<title>Node1&#45;&gt;Node9</title>
<g id="a_edge15_Node000001_Node000009"><a xlink:title=" ">
<path fill="none" stroke="#63b8ff" d="M602.83,-170.58C659.91,-162.24 762.97,-147.11 860.47,-132.51"/>
<polygon fill="#63b8ff" stroke="#63b8ff" points="860.84,-135.99 870.21,-131.04 859.81,-129.07 860.84,-135.99"/>
</a>
</g>
</g>
<!-- Node11 -->
<g id="Node000011" class="node">
<title>Node11</title>
<g id="a_Node000011"><a xlink:href="Lobby_8hpp.html" target="_top" xlink:title=" ">
<polygon fill="white" stroke="#666666" points="370,-132 309.75,-132 309.75,-112 370,-112 370,-132"/>
<text text-anchor="middle" x="339.88" y="-118.5" font-family="Helvetica,sans-Serif" font-size="10.00">Lobby.hpp</text>
</a>
</g>
</g>
<!-- Node1&#45;&gt;Node11 -->
<g id="edge19_Node000001_Node000011" class="edge">
<title>Node1&#45;&gt;Node11</title>
<g id="a_edge19_Node000001_Node000011"><a xlink:title=" ">
<path fill="none" stroke="#63b8ff" d="M520.48,-167.53C481.54,-157.93 421.47,-143.12 381.43,-133.25"/>
<polygon fill="#63b8ff" stroke="#63b8ff" points="382.47,-129.9 371.92,-130.9 380.79,-136.69 382.47,-129.9"/>
</a>
</g>
</g>
<!-- Node12 -->
<g id="Node000012" class="node">
<title>Node12</title>
<g id="a_Node000012"><a xlink:href="ErrorServer_8hpp.html" target="_top" xlink:title=" ">
<polygon fill="white" stroke="#666666" points="472,-132 387.75,-132 387.75,-112 472,-112 472,-132"/>
<text text-anchor="middle" x="429.88" y="-118.5" font-family="Helvetica,sans-Serif" font-size="10.00">ErrorServer.hpp</text>
</a>
</g>
</g>
<!-- Node1&#45;&gt;Node12 -->
<g id="edge22_Node000001_Node000012" class="edge">
<title>Node1&#45;&gt;Node12</title>
<g id="a_edge22_Node000001_Node000012"><a xlink:title=" ">
<path fill="none" stroke="#63b8ff" d="M536.4,-167.59C516.09,-159.09 485.92,-146.46 462.87,-136.81"/>
<polygon fill="#63b8ff" stroke="#63b8ff" points="464.49,-133.7 453.92,-133.06 461.79,-140.15 464.49,-133.7"/>
</a>
</g>
</g>
<!-- Node13 -->
<g id="Node000013" class="node">
<title>Node13</title>
<g id="a_Node000013"><a xlink:href="Player_8hpp.html" target="_top" xlink:title=" ">
<polygon fill="white" stroke="#666666" points="590.12,-132 527.62,-132 527.62,-112 590.12,-112 590.12,-132"/>
<text text-anchor="middle" x="558.88" y="-118.5" font-family="Helvetica,sans-Serif" font-size="10.00">Player.hpp</text>
</a>
</g>
</g>
<!-- Node1&#45;&gt;Node13 -->
<g id="edge25_Node000001_Node000013" class="edge">
<title>Node1&#45;&gt;Node13</title>
<g id="a_edge25_Node000001_Node000013"><a xlink:title=" ">
<path fill="none" stroke="#63b8ff" d="M558.88,-167.59C558.88,-161.01 558.88,-151.96 558.88,-143.73"/>
<polygon fill="#63b8ff" stroke="#63b8ff" points="562.38,-143.81 558.88,-133.81 555.38,-143.81 562.38,-143.81"/>
</a>
</g>
</g>
<!-- Node14 -->
<g id="Node000014" class="node">
<title>Node14</title>
<g id="a_Node000014"><a xlink:href="Launch_8hpp.html" target="_top" xlink:title=" ">
<polygon fill="white" stroke="#666666" points="674,-132 607.75,-132 607.75,-112 674,-112 674,-132"/>
<text text-anchor="middle" x="640.88" y="-118.5" font-family="Helvetica,sans-Serif" font-size="10.00">Launch.hpp</text>
</a>
</g>
</g>
<!-- Node1&#45;&gt;Node14 -->
<g id="edge28_Node000001_Node000014" class="edge">
<title>Node1&#45;&gt;Node14</title>
<g id="a_edge28_Node000001_Node000014"><a xlink:title=" ">
<path fill="none" stroke="#63b8ff" d="M573.16,-167.59C585.31,-159.59 603.01,-147.93 617.27,-138.54"/>
<polygon fill="#63b8ff" stroke="#63b8ff" points="618.79,-141.73 625.22,-133.31 614.94,-135.89 618.79,-141.73"/>
</a>
</g>
</g>
<!-- Node15 -->
<g id="Node000015" class="node">
<title>Node15</title>
<g id="a_Node000015"><a xlink:href="ControlsConfig_8hpp.html" target="_top" xlink:title=" ">
<polygon fill="white" stroke="#666666" points="209.88,-132 109.88,-132 109.88,-112 209.88,-112 209.88,-132"/>
<text text-anchor="middle" x="159.88" y="-118.5" font-family="Helvetica,sans-Serif" font-size="10.00">ControlsConfig.hpp</text>
</a>
</g>
</g>
<!-- Node1&#45;&gt;Node15 -->
<g id="edge31_Node000001_Node000015" class="edge">
<title>Node1&#45;&gt;Node15</title>
<g id="a_edge31_Node000001_Node000015"><a xlink:title=" ">
<path fill="none" stroke="#63b8ff" d="M514.82,-171.45C452.06,-163.49 332.97,-148.14 221.21,-132.31"/>
<polygon fill="#63b8ff" stroke="#63b8ff" points="221.97,-128.88 211.58,-130.94 220.98,-135.81 221.97,-128.88"/>
</a>
</g>
</g>
<!-- Node17 -->
<g id="Node000017" class="node">
<title>Node17</title>
<g id="a_Node000017"><a xlink:href="NetworkClient_8hpp.html" target="_top" xlink:title=" ">
<polygon fill="white" stroke="#666666" points="1227.62,-132 1114.12,-132 1114.12,-112 1227.62,-112 1227.62,-132"/>
<text text-anchor="middle" x="1170.88" y="-118.5" font-family="Helvetica,sans-Serif" font-size="10.00">net/NetworkClient.hpp</text>
</a>
</g>
</g>
<!-- Node1&#45;&gt;Node17 -->
<g id="edge35_Node000001_Node000017" class="edge">
<title>Node1&#45;&gt;Node17</title>
<g id="a_edge35_Node000001_Node000017"><a xlink:title=" ">
<path fill="none" stroke="#63b8ff" d="M602.89,-173.12C708.27,-163.82 975.69,-140.22 1102.35,-129.05"/>
<polygon fill="#63b8ff" stroke="#63b8ff" points="1102.63,-132.54 1112.29,-128.17 1102.02,-125.56 1102.63,-132.54"/>
</a>
</g>
</g>
<!-- Node25 -->
<g id="Node000025" class="node">
<title>Node25</title>
<g id="a_Node000025"><a xlink:href="Client_2include_2net_2Protocol_8hpp.html" target="_top" xlink:title=" ">
<polygon fill="white" stroke="#666666" points="1037.25,-76 966.5,-76 966.5,-56 1037.25,-56 1037.25,-76"/>
<text text-anchor="middle" x="1001.88" y="-62.5" font-family="Helvetica,sans-Serif" font-size="10.00">Protocol.hpp</text>
</a>
</g>
</g>
<!-- Node1&#45;&gt;Node25 -->
<g id="edge49_Node000001_Node000025" class="edge">
<title>Node1&#45;&gt;Node25</title>
<g id="a_edge49_Node000001_Node000025"><a xlink:title=" ">
<path fill="none" stroke="#63b8ff" d="M602.92,-175.07C705.56,-170.2 954.12,-156.03 982.88,-132 995.71,-121.27 1000.15,-102.38 1001.56,-87.72"/>
<polygon fill="#63b8ff" stroke="#63b8ff" points="1005.05,-87.92 1002.07,-77.75 998.06,-87.56 1005.05,-87.92"/>
</a>
</g>
</g>
<!-- Node3&#45;&gt;Node2 -->
<g id="edge3_Node000003_Node000002" class="edge">
<title>Node3&#45;&gt;Node2</title>
<g id="a_edge3_Node000003_Node000002"><a xlink:title=" ">
<path fill="none" stroke="#63b8ff" d="M291.9,-113.94C332.34,-105.03 402.48,-89.57 451.17,-78.84"/>
<polygon fill="#63b8ff" stroke="#63b8ff" points="451.64,-82.32 460.65,-76.75 450.13,-75.48 451.64,-82.32"/>
</a>
</g>
</g>
<!-- Node4 -->
<g id="Node000004" class="node">
<title>Node4</title>
<g id="a_Node000004"><a xlink:title=" ">
<polygon fill="#e0e0e0" stroke="#999999" points="604.88,-20 564.88,-20 564.88,0 604.88,0 604.88,-20"/>
<text text-anchor="middle" x="584.88" y="-6.5" font-family="Helvetica,sans-Serif" font-size="10.00">string</text>
</a>
</g>
</g>
<!-- Node3&#45;&gt;Node4 -->
<g id="edge4_Node000003_Node000004" class="edge">
<title>Node3&#45;&gt;Node4</title>
<g id="a_edge4_Node000003_Node000004"><a xlink:title=" ">
<path fill="none" stroke="#63b8ff" d="M276.29,-111.57C301.05,-97.68 349.78,-71.67 393.88,-56 448.45,-36.6 514.77,-23.12 553.17,-16.26"/>
<polygon fill="#63b8ff" stroke="#63b8ff" points="553.64,-19.73 562.89,-14.56 552.44,-12.83 553.64,-19.73"/>
</a>
</g>
</g>
<!-- Node5&#45;&gt;Node2 -->
<g id="edge6_Node000005_Node000002" class="edge">
<title>Node5&#45;&gt;Node2</title>
<g id="a_edge6_Node000005_Node000002"><a xlink:title=" ">
<path fill="none" stroke="#63b8ff" d="M692.16,-113.6C656.57,-104.75 596.44,-89.79 553.93,-79.21"/>
<polygon fill="#63b8ff" stroke="#63b8ff" points="555,-75.87 544.45,-76.85 553.31,-82.66 555,-75.87"/>
</a>
</g>
</g>
<!-- Node5&#45;&gt;Node4 -->
<g id="edge7_Node000005_Node000004" class="edge">
<title>Node5&#45;&gt;Node4</title>
<g id="a_edge7_Node000005_Node000004"><a xlink:title=" ">
<path fill="none" stroke="#63b8ff" d="M710.19,-111.62C686.94,-92.95 634.59,-50.92 605.44,-27.52"/>
<polygon fill="#63b8ff" stroke="#63b8ff" points="607.7,-24.83 597.71,-21.3 603.31,-30.29 607.7,-24.83"/>
</a>
</g>
</g>
<!-- Node6&#45;&gt;Node2 -->
<g id="edge9_Node000006_Node000002" class="edge">
<title>Node6&#45;&gt;Node2</title>
<g id="a_edge9_Node000006_Node000002"><a xlink:title=" ">
<path fill="none" stroke="#63b8ff" d="M769.19,-113.49C716.95,-104.3 628.05,-88.67 567.93,-78.09"/>
<polygon fill="#63b8ff" stroke="#63b8ff" points="568.62,-74.66 558.17,-76.37 567.41,-81.55 568.62,-74.66"/>
</a>
</g>
</g>
<!-- Node6&#45;&gt;Node4 -->
<g id="edge10_Node000006_Node000004" class="edge">
<title>Node6&#45;&gt;Node4</title>
<g id="a_edge10_Node000006_Node000004"><a xlink:title=" ">
<path fill="none" stroke="#63b8ff" d="M792.52,-111.62C752.73,-92.34 661.54,-48.15 614.36,-25.29"/>
<polygon fill="#63b8ff" stroke="#63b8ff" points="616.07,-22.23 605.54,-21.01 613.01,-28.53 616.07,-22.23"/>
</a>
</g>
</g>
<!-- Node7 -->
<g id="Node000007" class="node">
<title>Node7</title>
<g id="a_Node000007"><a xlink:title=" ">
<polygon fill="#e0e0e0" stroke="#999999" points="922.38,-20 879.38,-20 879.38,0 922.38,0 922.38,-20"/>
<text text-anchor="middle" x="900.88" y="-6.5" font-family="Helvetica,sans-Serif" font-size="10.00">vector</text>
</a>
</g>
</g>
<!-- Node6&#45;&gt;Node7 -->
<g id="edge11_Node000006_Node000007" class="edge">
<title>Node6&#45;&gt;Node7</title>
<g id="a_edge11_Node000006_Node000007"><a xlink:title=" ">
<path fill="none" stroke="#63b8ff" d="M809.81,-111.74C807.35,-98.29 804.85,-73.1 815.88,-56 827.69,-37.67 849.58,-26.33 868.19,-19.62"/>
<polygon fill="#63b8ff" stroke="#63b8ff" points="869.09,-23 877.51,-16.57 866.91,-16.35 869.09,-23"/>
</a>
</g>
</g>
<!-- Node8&#45;&gt;Node2 -->
<g id="edge13_Node000008_Node000002" class="edge">
<title>Node8&#45;&gt;Node2</title>
<g id="a_edge13_Node000008_Node000002"><a xlink:title=" ">
<path fill="none" stroke="#63b8ff" d="M92.06,-113.27C95.04,-112.82 98,-112.4 100.88,-112 221.16,-95.47 362.23,-80.83 441.83,-73.01"/>
<polygon fill="#63b8ff" stroke="#63b8ff" points="441.99,-76.51 451.61,-72.06 441.31,-69.55 441.99,-76.51"/>
</a>
</g>
</g>
<!-- Node8&#45;&gt;Node4 -->
<g id="edge14_Node000008_Node000004" class="edge">
<title>Node8&#45;&gt;Node4</title>
<g id="a_edge14_Node000008_Node000004"><a xlink:title=" ">
<path fill="none" stroke="#63b8ff" d="M58.64,-111.53C79.18,-96.83 121.4,-68.89 161.88,-56 234.97,-32.72 468.02,-17.59 553.26,-12.71"/>
<polygon fill="#63b8ff" stroke="#63b8ff" points="553.2,-16.22 562.99,-12.16 552.81,-9.23 553.2,-16.22"/>
</a>
</g>
</g>
<!-- Node9&#45;&gt;Node2 -->
<g id="edge16_Node000009_Node000002" class="edge">
<title>Node9&#45;&gt;Node2</title>
<g id="a_edge16_Node000009_Node000002"><a xlink:title=" ">
<path fill="none" stroke="#63b8ff" d="M871.72,-113.11C869.07,-112.73 866.44,-112.36 863.88,-112 760.23,-97.6 639.46,-82.89 567.73,-74.36"/>
<polygon fill="#63b8ff" stroke="#63b8ff" points="568.5,-70.93 558.16,-73.23 567.68,-77.88 568.5,-70.93"/>
</a>
</g>
</g>
<!-- Node9&#45;&gt;Node7 -->
<g id="edge17_Node000009_Node000007" class="edge">
<title>Node9&#45;&gt;Node7</title>
<g id="a_edge17_Node000009_Node000007"><a xlink:title=" ">
<path fill="none" stroke="#63b8ff" d="M921,-111.62C917.46,-93.92 909.72,-55.24 904.94,-31.32"/>
<polygon fill="#63b8ff" stroke="#63b8ff" points="908.44,-30.96 903.04,-21.84 901.57,-32.33 908.44,-30.96"/>
</a>
</g>
</g>
<!-- Node10 -->
<g id="Node000010" class="node">
<title>Node10</title>
<g id="a_Node000010"><a xlink:title=" ">
<polygon fill="#e0e0e0" stroke="#999999" points="873,-76 824.75,-76 824.75,-56 873,-56 873,-76"/>
<text text-anchor="middle" x="848.88" y="-62.5" font-family="Helvetica,sans-Serif" font-size="10.00">random</text>
</a>
</g>
</g>
<!-- Node9&#45;&gt;Node10 -->
<g id="edge18_Node000009_Node000010" class="edge">
<title>Node9&#45;&gt;Node10</title>
<g id="a_edge18_Node000009_Node000010"><a xlink:title=" ">
<path fill="none" stroke="#63b8ff" d="M909.99,-111.59C899.16,-103.7 883.46,-92.24 870.69,-82.92"/>
<polygon fill="#63b8ff" stroke="#63b8ff" points="872.98,-80.26 862.84,-77.19 868.85,-85.91 872.98,-80.26"/>
</a>
</g>
</g>
<!-- Node11&#45;&gt;Node2 -->
<g id="edge20_Node000011_Node000002" class="edge">
<title>Node11&#45;&gt;Node2</title>
<g id="a_edge20_Node000011_Node000002"><a xlink:title=" ">
<path fill="none" stroke="#63b8ff" d="M368.62,-111.59C395.31,-102.86 435.29,-89.77 465.05,-80.03"/>
<polygon fill="#63b8ff" stroke="#63b8ff" points="466.06,-83.39 474.47,-76.95 463.88,-76.73 466.06,-83.39"/>
</a>
</g>
</g>
<!-- Node11&#45;&gt;Node4 -->
<g id="edge21_Node000011_Node000004" class="edge">
<title>Node11&#45;&gt;Node4</title>
<g id="a_edge21_Node000011_Node000004"><a xlink:title=" ">
<path fill="none" stroke="#63b8ff" d="M350.19,-111.7C366.16,-97.75 398.35,-71.38 429.88,-56 470.47,-36.19 521.4,-23.48 553.55,-16.79"/>
<polygon fill="#63b8ff" stroke="#63b8ff" points="553.9,-20.29 563.01,-14.89 552.52,-13.43 553.9,-20.29"/>
</a>
</g>
</g>
<!-- Node12&#45;&gt;Node2 -->
<g id="edge23_Node000012_Node000002" class="edge">
<title>Node12&#45;&gt;Node2</title>
<g id="a_edge23_Node000012_Node000002"><a xlink:title=" ">
<path fill="none" stroke="#63b8ff" d="M442.94,-111.59C453.84,-103.74 469.63,-92.38 482.53,-83.09"/>
<polygon fill="#63b8ff" stroke="#63b8ff" points="484.41,-86.05 490.48,-77.36 480.32,-80.37 484.41,-86.05"/>
</a>
</g>
</g>
<!-- Node12&#45;&gt;Node4 -->
<g id="edge24_Node000012_Node000004" class="edge">
<title>Node12&#45;&gt;Node4</title>
<g id="a_edge24_Node000012_Node000004"><a xlink:title=" ">
<path fill="none" stroke="#63b8ff" d="M429.33,-111.74C429.05,-97.82 430.61,-71.52 444.88,-56 472.76,-25.67 521.12,-15.69 553.06,-12.47"/>
<polygon fill="#63b8ff" stroke="#63b8ff" points="553.24,-15.96 562.92,-11.66 552.66,-8.99 553.24,-15.96"/>
</a>
</g>
</g>
<!-- Node13&#45;&gt;Node2 -->
<g id="edge26_Node000013_Node000002" class="edge">
<title>Node13&#45;&gt;Node2</title>
<g id="a_edge26_Node000013_Node000002"><a xlink:title=" ">
<path fill="none" stroke="#63b8ff" d="M549.47,-111.59C541.96,-104.08 531.23,-93.35 522.18,-84.3"/>
<polygon fill="#63b8ff" stroke="#63b8ff" points="524.79,-81.96 515.24,-77.37 519.84,-86.91 524.79,-81.96"/>
</a>
</g>
</g>
<!-- Node13&#45;&gt;Node4 -->
<g id="edge27_Node000013_Node000004" class="edge">
<title>Node13&#45;&gt;Node4</title>
<g id="a_edge27_Node000013_Node000004"><a xlink:title=" ">
<path fill="none" stroke="#63b8ff" d="M561.09,-111.62C565.27,-93.92 574.42,-55.24 580.07,-31.32"/>
<polygon fill="#63b8ff" stroke="#63b8ff" points="583.42,-32.36 582.32,-21.83 576.61,-30.75 583.42,-32.36"/>
</a>
</g>
</g>
<!-- Node14&#45;&gt;Node2 -->
<g id="edge29_Node000014_Node000002" class="edge">
<title>Node14&#45;&gt;Node2</title>
<g id="a_edge29_Node000014_Node000002"><a xlink:title=" ">
<path fill="none" stroke="#63b8ff" d="M617.19,-111.59C595.67,-103.05 563.67,-90.35 539.33,-80.68"/>
<polygon fill="#63b8ff" stroke="#63b8ff" points="540.74,-77.48 530.16,-77.04 538.16,-83.98 540.74,-77.48"/>
</a>
</g>
</g>
<!-- Node14&#45;&gt;Node4 -->
<g id="edge30_Node000014_Node000004" class="edge">
<title>Node14&#45;&gt;Node4</title>
<g id="a_edge30_Node000014_Node000004"><a xlink:title=" ">
<path fill="none" stroke="#63b8ff" d="M636.1,-111.62C626.97,-93.68 606.85,-54.17 594.72,-30.35"/>
<polygon fill="#63b8ff" stroke="#63b8ff" points="597.98,-29.03 590.32,-21.7 591.74,-32.2 597.98,-29.03"/>
</a>
</g>
</g>
<!-- Node15&#45;&gt;Node2 -->
<g id="edge32_Node000015_Node000002" class="edge">
<title>Node15&#45;&gt;Node2</title>
<g id="a_edge32_Node000015_Node000002"><a xlink:title=" ">
<path fill="none" stroke="#63b8ff" d="M210.04,-113.15C271.34,-103.55 375.11,-87.31 441.77,-76.88"/>
<polygon fill="#63b8ff" stroke="#63b8ff" points="442.12,-80.37 451.46,-75.36 441.04,-73.45 442.12,-80.37"/>
</a>
</g>
</g>
<!-- Node15&#45;&gt;Node4 -->
<g id="edge33_Node000015_Node000004" class="edge">
<title>Node15&#45;&gt;Node4</title>
<g id="a_edge33_Node000015_Node000004"><a xlink:title=" ">
<path fill="none" stroke="#63b8ff" d="M159.61,-111.77C159.74,-97.4 162.31,-69.91 178.88,-56 207.4,-32.05 462.55,-17.1 553.14,-12.51"/>
<polygon fill="#63b8ff" stroke="#63b8ff" points="553.23,-16.01 563.04,-12.02 552.88,-9.02 553.23,-16.01"/>
</a>
</g>
</g>
<!-- Node16 -->
<g id="Node000016" class="node">
<title>Node16</title>
<g id="a_Node000016"><a xlink:title=" ">
<polygon fill="#e0e0e0" stroke="#999999" points="222.25,-76 187.5,-76 187.5,-56 222.25,-56 222.25,-76"/>
<text text-anchor="middle" x="204.88" y="-62.5" font-family="Helvetica,sans-Serif" font-size="10.00">map</text>
</a>
</g>
</g>
<!-- Node15&#45;&gt;Node16 -->
<g id="edge34_Node000015_Node000016" class="edge">
<title>Node15&#45;&gt;Node16</title>
<g id="a_edge34_Node000015_Node000016"><a xlink:title=" ">
<path fill="none" stroke="#63b8ff" d="M167.71,-111.59C173.84,-104.24 182.55,-93.8 189.99,-84.87"/>
<polygon fill="#63b8ff" stroke="#63b8ff" points="192.44,-87.38 196.16,-77.46 187.07,-82.9 192.44,-87.38"/>
</a>
</g>
</g>
<!-- Node17&#45;&gt;Node4 -->
<g id="edge38_Node000017_Node000004" class="edge">
<title>Node17&#45;&gt;Node4</title>
<g id="a_edge38_Node000017_Node000004"><a xlink:title=" ">
<path fill="none" stroke="#63b8ff" d="M1122.93,-111.57C1079.66,-102.9 1014.33,-89.38 957.88,-76 923.89,-67.94 916.08,-63.07 881.88,-56 785.96,-36.17 670.94,-21.22 616.46,-14.66"/>
<polygon fill="#63b8ff" stroke="#63b8ff" points="617.02,-11.2 606.68,-13.49 616.19,-18.15 617.02,-11.2"/>
</a>
</g>
</g>
<!-- Node18 -->
<g id="Node000018" class="node">
<title>Node18</title>
<g id="a_Node000018"><a xlink:title=" ">
<polygon fill="#e0e0e0" stroke="#999999" points="1319.75,-76 1240,-76 1240,-56 1319.75,-56 1319.75,-76"/>
<text text-anchor="middle" x="1279.88" y="-62.5" font-family="Helvetica,sans-Serif" font-size="10.00">boost/asio.hpp</text>
</a>
</g>
</g>
<!-- Node17&#45;&gt;Node18 -->
<g id="edge36_Node000017_Node000018" class="edge">
<title>Node17&#45;&gt;Node18</title>
<g id="a_edge36_Node000017_Node000018"><a xlink:title=" ">
<path fill="none" stroke="#63b8ff" d="M1189.86,-111.59C1206.64,-103.28 1231.37,-91.03 1250.66,-81.47"/>
<polygon fill="#63b8ff" stroke="#63b8ff" points="1251.98,-84.73 1259.38,-77.15 1248.87,-78.45 1251.98,-84.73"/>
</a>
</g>
</g>
<!-- Node19 -->
<g id="Node000019" class="node">
<title>Node19</title>
<g id="a_Node000019"><a xlink:title=" ">
<polygon fill="#e0e0e0" stroke="#999999" points="1389.5,-76 1338.25,-76 1338.25,-56 1389.5,-56 1389.5,-76"/>
<text text-anchor="middle" x="1363.88" y="-62.5" font-family="Helvetica,sans-Serif" font-size="10.00">memory</text>
</a>
</g>
</g>
<!-- Node17&#45;&gt;Node19 -->
<g id="edge37_Node000017_Node000019" class="edge">
<title>Node17&#45;&gt;Node19</title>
<g id="a_edge37_Node000017_Node000019"><a xlink:title=" ">
<path fill="none" stroke="#63b8ff" d="M1204.49,-111.59C1238.7,-102.02 1291.58,-87.23 1326.93,-77.34"/>
<polygon fill="#63b8ff" stroke="#63b8ff" points="1327.61,-80.78 1336.29,-74.72 1325.72,-74.04 1327.61,-80.78"/>
</a>
</g>
</g>
<!-- Node20 -->
<g id="Node000020" class="node">
<title>Node20</title>
<g id="a_Node000020"><a xlink:title=" ">
<polygon fill="#e0e0e0" stroke="#999999" points="1465.88,-76 1407.88,-76 1407.88,-56 1465.88,-56 1465.88,-76"/>
<text text-anchor="middle" x="1436.88" y="-62.5" font-family="Helvetica,sans-Serif" font-size="10.00">functional</text>
</a>
</g>
</g>
<!-- Node17&#45;&gt;Node20 -->
<g id="edge39_Node000017_Node000020" class="edge">
<title>Node17&#45;&gt;Node20</title>
<g id="a_edge39_Node000017_Node000020"><a xlink:title=" ">
<path fill="none" stroke="#63b8ff" d="M1221.7,-111.54C1265.54,-103.25 1330.82,-90.6 1396.48,-76.46"/>
<polygon fill="#63b8ff" stroke="#63b8ff" points="1396.93,-79.94 1405.96,-74.41 1395.45,-73.1 1396.93,-79.94"/>
</a>
</g>
</g>
<!-- Node21 -->
<g id="Node000021" class="node">
<title>Node21</title>
<g id="a_Node000021"><a xlink:title=" ">
<polygon fill="#e0e0e0" stroke="#999999" points="1527.38,-76 1484.38,-76 1484.38,-56 1527.38,-56 1527.38,-76"/>
<text text-anchor="middle" x="1505.88" y="-62.5" font-family="Helvetica,sans-Serif" font-size="10.00">thread</text>
</a>
</g>
</g>
<!-- Node17&#45;&gt;Node21 -->
<g id="edge40_Node000017_Node000021" class="edge">
<title>Node17&#45;&gt;Node21</title>
<g id="a_edge40_Node000017_Node000021"><a xlink:title=" ">
<path fill="none" stroke="#63b8ff" d="M1227.88,-114.9C1286.88,-108.07 1381.87,-95.61 1472.88,-76.17"/>
<polygon fill="#63b8ff" stroke="#63b8ff" points="1473.45,-79.63 1482.47,-74.08 1471.96,-72.79 1473.45,-79.63"/>
</a>
</g>
</g>
<!-- Node22 -->
<g id="Node000022" class="node">
<title>Node22</title>
<g id="a_Node000022"><a xlink:title=" ">
<polygon fill="#e0e0e0" stroke="#999999" points="1100.5,-76 1055.25,-76 1055.25,-56 1100.5,-56 1100.5,-76"/>
<text text-anchor="middle" x="1077.88" y="-62.5" font-family="Helvetica,sans-Serif" font-size="10.00">atomic</text>
</a>
</g>
</g>
<!-- Node17&#45;&gt;Node22 -->
<g id="edge41_Node000017_Node000022" class="edge">
<title>Node17&#45;&gt;Node22</title>
<g id="a_edge41_Node000017_Node000022"><a xlink:title=" ">
<path fill="none" stroke="#63b8ff" d="M1154.68,-111.59C1140.63,-103.44 1120.04,-91.48 1103.72,-82"/>
<polygon fill="#63b8ff" stroke="#63b8ff" points="1105.92,-79.23 1095.51,-77.24 1102.4,-85.29 1105.92,-79.23"/>
</a>
</g>
</g>
<!-- Node23 -->
<g id="Node000023" class="node">
<title>Node23</title>
<g id="a_Node000023"><a xlink:title=" ">
<polygon fill="#e0e0e0" stroke="#999999" points="1161,-76 1118.75,-76 1118.75,-56 1161,-56 1161,-76"/>
<text text-anchor="middle" x="1139.88" y="-62.5" font-family="Helvetica,sans-Serif" font-size="10.00">queue</text>
</a>
</g>
</g>
<!-- Node17&#45;&gt;Node23 -->
<g id="edge42_Node000017_Node000023" class="edge">
<title>Node17&#45;&gt;Node23</title>
<g id="a_edge42_Node000017_Node000023"><a xlink:title=" ">
<path fill="none" stroke="#63b8ff" d="M1165.48,-111.59C1161.43,-104.55 1155.76,-94.67 1150.78,-86"/>
<polygon fill="#63b8ff" stroke="#63b8ff" points="1153.98,-84.54 1145.97,-77.61 1147.91,-88.03 1153.98,-84.54"/>
</a>
</g>
</g>
<!-- Node24 -->
<g id="Node000024" class="node">
<title>Node24</title>
<g id="a_Node000024"><a xlink:title=" ">
<polygon fill="#e0e0e0" stroke="#999999" points="1222.38,-76 1179.38,-76 1179.38,-56 1222.38,-56 1222.38,-76"/>
<text text-anchor="middle" x="1200.88" y="-62.5" font-family="Helvetica,sans-Serif" font-size="10.00">mutex</text>
</a>
</g>
</g>
<!-- Node17&#45;&gt;Node24 -->
<g id="edge43_Node000017_Node000024" class="edge">
<title>Node17&#45;&gt;Node24</title>
<g id="a_edge43_Node000017_Node000024"><a xlink:title=" ">
<path fill="none" stroke="#63b8ff" d="M1176.1,-111.59C1179.97,-104.63 1185.38,-94.89 1190.16,-86.29"/>
<polygon fill="#63b8ff" stroke="#63b8ff" points="1193.18,-88.06 1194.97,-77.62 1187.06,-84.66 1193.18,-88.06"/>
</a>
</g>
</g>
<!-- Node17&#45;&gt;Node25 -->
<g id="edge44_Node000017_Node000025" class="edge">
<title>Node17&#45;&gt;Node25</title>
<g id="a_edge44_Node000017_Node000025"><a xlink:title=" ">
<path fill="none" stroke="#63b8ff" d="M1141.44,-111.59C1113.98,-102.82 1072.78,-89.66 1042.26,-79.9"/>
<polygon fill="#63b8ff" stroke="#63b8ff" points="1043.57,-76.65 1032.98,-76.94 1041.44,-83.32 1043.57,-76.65"/>
</a>
</g>
</g>
<!-- Node25&#45;&gt;Node4 -->
<g id="edge48_Node000025_Node000004" class="edge">
<title>Node25&#45;&gt;Node4</title>
<g id="a_edge48_Node000025_Node000004"><a xlink:title=" ">
<path fill="none" stroke="#63b8ff" d="M966.06,-58.17C961.62,-57.39 957.15,-56.65 952.88,-56 828.84,-37.04 680.33,-20.86 616.53,-14.22"/>
<polygon fill="#63b8ff" stroke="#63b8ff" points="617.09,-10.76 606.79,-13.22 616.37,-17.73 617.09,-10.76"/>
</a>
</g>
</g>
<!-- Node25&#45;&gt;Node7 -->
<g id="edge47_Node000025_Node000007" class="edge">
<title>Node25&#45;&gt;Node7</title>
<g id="a_edge47_Node000025_Node000007"><a xlink:title=" ">
<path fill="none" stroke="#63b8ff" d="M984.28,-55.59C968.95,-47.4 946.46,-35.37 928.69,-25.87"/>
<polygon fill="#63b8ff" stroke="#63b8ff" points="930.41,-22.82 919.94,-21.19 927.11,-28.99 930.41,-22.82"/>
</a>
</g>
</g>
<!-- Node26 -->
<g id="Node000026" class="node">
<title>Node26</title>
<g id="a_Node000026"><a xlink:title=" ">
<polygon fill="#e0e0e0" stroke="#999999" points="1004.5,-20 959.25,-20 959.25,0 1004.5,0 1004.5,-20"/>
<text text-anchor="middle" x="981.88" y="-6.5" font-family="Helvetica,sans-Serif" font-size="10.00">cstdint</text>
</a>
</g>
</g>
<!-- Node25&#45;&gt;Node26 -->
<g id="edge45_Node000025_Node000026" class="edge">
<title>Node25&#45;&gt;Node26</title>
<g id="a_edge45_Node000025_Node000026"><a xlink:title=" ">
<path fill="none" stroke="#63b8ff" d="M998.39,-55.59C995.87,-48.78 992.36,-39.32 989.23,-30.86"/>
<polygon fill="#63b8ff" stroke="#63b8ff" points="992.6,-29.88 985.84,-21.72 986.04,-32.31 992.6,-29.88"/>
</a>
</g>
</g>
<!-- Node27 -->
<g id="Node000027" class="node">
<title>Node27</title>
<g id="a_Node000027"><a xlink:title=" ">
<polygon fill="#e0e0e0" stroke="#999999" points="1071,-20 1022.75,-20 1022.75,0 1071,0 1071,-20"/>
<text text-anchor="middle" x="1046.88" y="-6.5" font-family="Helvetica,sans-Serif" font-size="10.00">cstddef</text>
</a>
</g>
</g>
<!-- Node25&#45;&gt;Node27 -->
<g id="edge46_Node000025_Node000027" class="edge">
<title>Node25&#45;&gt;Node27</title>
<g id="a_edge46_Node000025_Node000027"><a xlink:title=" ">
<path fill="none" stroke="#63b8ff" d="M1009.71,-55.59C1015.84,-48.24 1024.55,-37.8 1031.99,-28.87"/>
<polygon fill="#63b8ff" stroke="#63b8ff" points="1034.44,-31.38 1038.16,-21.46 1029.07,-26.9 1034.44,-31.38"/>
</a>
</g>
</g>
</g>
</svg>
