<?xml version="1.0" encoding="UTF-8" standalone="no"?>
<!DOCTYPE svg PUBLIC "-//W3C//DTD SVG 1.1//EN"
 "http://www.w3.org/Graphics/SVG/1.1/DTD/svg11.dtd">
<!-- Generated by graphviz version 12.1.0 (20240811.2233)
 -->
<!-- Title: getMaxPlayersForMode Pages: 1 -->
<svg width="1150pt" height="75pt"
 viewBox="0.00 0.00 1149.75 75.00" xmlns="http://www.w3.org/2000/svg" xmlns:xlink="http://www.w3.org/1999/xlink">
<g id="graph0" class="graph" transform="scale(1 1) rotate(0) translate(4 71)">
<title>getMaxPlayersForMode</title>
<!-- Node1 -->
<g id="Node000001" class="node">
<title>Node1</title>
<g id="a_Node000001"><a xlink:title=" ">
<polygon fill="#999999" stroke="#666666" points="1141.75,-39 1022.25,-39 1022.25,-19 1141.75,-19 1141.75,-39"/>
<text text-anchor="middle" x="1082" y="-25.5" font-family="Helvetica,sans-Serif" font-size="10.00">getMaxPlayersForMode</text>
</a>
</g>
</g>
<!-- Node2 -->
<g id="Node000002" class="node">
<title>Node2</title>
<g id="a_Node000002"><a xlink:href="classGameManager.html#a4033d43700b3673e7a062590376451e2" target="_top" xlink:title=" ">
<polygon fill="white" stroke="#666666" points="986.25,-58 835.25,-58 835.25,-38 986.25,-38 986.25,-58"/>
<text text-anchor="middle" x="910.75" y="-44.5" font-family="Helvetica,sans-Serif" font-size="10.00">GameManager::onRoomJoined</text>
</a>
</g>
</g>
<!-- Node1&#45;&gt;Node2 -->
<g id="edge1_Node000001_Node000002" class="edge">
<title>Node1&#45;&gt;Node2</title>
<g id="a_edge1_Node000001_Node000002"><a xlink:title=" ">
<path fill="none" stroke="#63b8ff" d="M1010.45,-36.92C1002.6,-37.8 994.59,-38.7 986.68,-39.59"/>
<polygon fill="#63b8ff" stroke="#63b8ff" points="1010.75,-40.41 1020.3,-35.81 1009.97,-33.45 1010.75,-40.41"/>
</a>
</g>
</g>
<!-- Node8 -->
<g id="Node000008" class="node">
<title>Node8</title>
<g id="a_Node000008"><a xlink:href="classGameManager.html#a436ef659f0f618e7b791c0b492a544ec" target="_top" xlink:title=" ">
<polygon fill="white" stroke="#666666" points="979.88,-20 841.62,-20 841.62,0 979.88,0 979.88,-20"/>
<text text-anchor="middle" x="910.75" y="-6.5" font-family="Helvetica,sans-Serif" font-size="10.00">GameManager::onRoomList</text>
</a>
</g>
</g>
<!-- Node1&#45;&gt;Node8 -->
<g id="edge8_Node000001_Node000008" class="edge">
<title>Node1&#45;&gt;Node8</title>
<g id="a_edge8_Node000001_Node000008"><a xlink:title=" ">
<path fill="none" stroke="#63b8ff" d="M1010.6,-21.1C1000.54,-19.97 990.21,-18.81 980.19,-17.68"/>
<polygon fill="#63b8ff" stroke="#63b8ff" points="1009.97,-24.55 1020.3,-22.19 1010.75,-17.59 1009.97,-24.55"/>
</a>
</g>
</g>
<!-- Node3 -->
<g id="Node000003" class="node">
<title>Node3</title>
<g id="a_Node000003"><a xlink:href="classGameManager.html#a14d06b2592fdbf40f9bc38e2643635fd" target="_top" xlink:title=" ">
<polygon fill="white" stroke="#666666" points="799.25,-39 628.75,-39 628.75,-19 799.25,-19 799.25,-39"/>
<text text-anchor="middle" x="714" y="-25.5" font-family="Helvetica,sans-Serif" font-size="10.00">GameManager::initializeNetworking</text>
</a>
</g>
</g>
<!-- Node2&#45;&gt;Node3 -->
<g id="edge2_Node000002_Node000003" class="edge">
<title>Node2&#45;&gt;Node3</title>
<g id="a_edge2_Node000002_Node000003"><a xlink:title=" ">
<path fill="none" stroke="#63b8ff" d="M823.76,-39.61C815.74,-38.83 807.62,-38.04 799.61,-37.25"/>
<polygon fill="#63b8ff" stroke="#63b8ff" points="823.21,-43.07 833.51,-40.56 823.89,-36.11 823.21,-43.07"/>
</a>
</g>
</g>
<!-- Node4 -->
<g id="Node000004" class="node">
<title>Node4</title>
<g id="a_Node000004"><a xlink:href="classGameManager.html#a946b57d62b25778f70deebaaf41f609d" target="_top" xlink:title=" ">
<polygon fill="white" stroke="#666666" points="592.75,-67 433.5,-67 433.5,-35 592.75,-35 592.75,-67"/>
<text text-anchor="start" x="441.5" y="-53.5" font-family="Helvetica,sans-Serif" font-size="10.00">GameManager::connectToServer</text>
<text text-anchor="middle" x="513.12" y="-41.5" font-family="Helvetica,sans-Serif" font-size="10.00">WithRooms</text>
</a>
</g>
</g>
<!-- Node3&#45;&gt;Node4 -->
<g id="edge3_Node000003_Node000004" class="edge">
<title>Node3&#45;&gt;Node4</title>
<g id="a_edge3_Node000003_Node000004"><a xlink:title=" ">
<path fill="none" stroke="#63b8ff" d="M617.03,-39.62C608.98,-40.51 600.9,-41.4 593,-42.28"/>
<polygon fill="#63b8ff" stroke="#63b8ff" points="617.31,-43.11 626.87,-38.53 616.54,-36.15 617.31,-43.11"/>
</a>
</g>
</g>
<!-- Node5 -->
<g id="Node000005" class="node">
<title>Node5</title>
<g id="a_Node000005"><a xlink:href="classGameManager.html#aeed1dd73db1c39b2e39d30d9d37c1f6c" target="_top" xlink:title=" ">
<polygon fill="white" stroke="#666666" points="397.5,-45 254,-45 254,-13 397.5,-13 397.5,-45"/>
<text text-anchor="start" x="262" y="-31.5" font-family="Helvetica,sans-Serif" font-size="10.00">GameManager::handleMouse</text>
<text text-anchor="middle" x="325.75" y="-19.5" font-family="Helvetica,sans-Serif" font-size="10.00">Click</text>
</a>
</g>
</g>
<!-- Node3&#45;&gt;Node5 -->
<g id="edge7_Node000003_Node000005" class="edge">
<title>Node3&#45;&gt;Node5</title>
<g id="a_edge7_Node000003_Node000005"><a xlink:title=" ">
<path fill="none" stroke="#63b8ff" d="M616.77,-26.39C608.65,-26.23 600.56,-26.1 592.75,-26 521.98,-25.12 504.27,-25.01 433.5,-26 422.01,-26.16 409.82,-26.42 397.95,-26.72"/>
<polygon fill="#63b8ff" stroke="#63b8ff" points="616.67,-29.88 626.74,-26.59 616.82,-22.89 616.67,-29.88"/>
</a>
</g>
</g>
<!-- Node4&#45;&gt;Node5 -->
<g id="edge4_Node000004_Node000005" class="edge">
<title>Node4&#45;&gt;Node5</title>
<g id="a_edge4_Node000004_Node000005"><a xlink:title=" ">
<path fill="none" stroke="#63b8ff" d="M421.9,-40.29C413.86,-39.34 405.78,-38.38 397.93,-37.45"/>
<polygon fill="#63b8ff" stroke="#63b8ff" points="421.39,-43.76 431.74,-41.46 422.22,-36.81 421.39,-43.76"/>
</a>
</g>
</g>
<!-- Node6 -->
<g id="Node000006" class="node">
<title>Node6</title>
<g id="a_Node000006"><a xlink:href="classGameManager.html#a6cea7fca5fecdd4f8a32912d4bfc233f" target="_top" xlink:title=" ">
<polygon fill="white" stroke="#666666" points="218,-39 73,-39 73,-19 218,-19 218,-39"/>
<text text-anchor="middle" x="145.5" y="-25.5" font-family="Helvetica,sans-Serif" font-size="10.00">GameManager::handleEvents</text>
</a>
</g>
</g>
<!-- Node5&#45;&gt;Node6 -->
<g id="edge5_Node000005_Node000006" class="edge">
<title>Node5&#45;&gt;Node6</title>
<g id="a_edge5_Node000005_Node000006"><a xlink:title=" ">
<path fill="none" stroke="#63b8ff" d="M242.07,-29C234.19,-29 226.24,-29 218.48,-29"/>
<polygon fill="#63b8ff" stroke="#63b8ff" points="242.02,-32.5 252.02,-29 242.02,-25.5 242.02,-32.5"/>
</a>
</g>
</g>
<!-- Node7 -->
<g id="Node000007" class="node">
<title>Node7</title>
<g id="a_Node000007"><a xlink:href="Client_2src_2main_8cpp.html#ae66f6b31b5ad750f1fe042a706a4e3d4" target="_top" xlink:title=" ">
<polygon fill="white" stroke="#666666" points="37,-39 0,-39 0,-19 37,-19 37,-39"/>
<text text-anchor="middle" x="18.5" y="-25.5" font-family="Helvetica,sans-Serif" font-size="10.00">main</text>
</a>
</g>
</g>
<!-- Node6&#45;&gt;Node7 -->
<g id="edge6_Node000006_Node000007" class="edge">
<title>Node6&#45;&gt;Node7</title>
<g id="a_edge6_Node000006_Node000007"><a xlink:title=" ">
<path fill="none" stroke="#63b8ff" d="M61.12,-29C52.34,-29 44.18,-29 37.46,-29"/>
<polygon fill="#63b8ff" stroke="#63b8ff" points="61,-32.5 71,-29 61,-25.5 61,-32.5"/>
</a>
</g>
</g>
<!-- Node8&#45;&gt;Node3 -->
<g id="edge9_Node000008_Node000003" class="edge">
<title>Node8&#45;&gt;Node3</title>
<g id="a_edge9_Node000008_Node000003"><a xlink:title=" ">
<path fill="none" stroke="#63b8ff" d="M830.14,-17.77C820.09,-18.75 809.77,-19.75 799.64,-20.74"/>
<polygon fill="#63b8ff" stroke="#63b8ff" points="830.24,-21.27 839.86,-16.82 829.56,-14.31 830.24,-21.27"/>
</a>
</g>
</g>
</g>
</svg>
