<?xml version="1.0" encoding="UTF-8" standalone="no"?>
<!DOCTYPE svg PUBLIC "-//W3C//DTD SVG 1.1//EN"
 "http://www.w3.org/Graphics/SVG/1.1/DTD/svg11.dtd">
<!-- Generated by graphviz version 12.1.0 (20240811.2233)
 -->
<!-- Title: Gravity.hpp Pages: 1 -->
<svg width="288pt" height="196pt"
 viewBox="0.00 0.00 288.38 196.00" xmlns="http://www.w3.org/2000/svg" xmlns:xlink="http://www.w3.org/1999/xlink">
<g id="graph0" class="graph" transform="scale(1 1) rotate(0) translate(4 192)">
<title>Gravity.hpp</title>
<!-- Node1 -->
<g id="Node000001" class="node">
<title>Node1</title>
<g id="a_Node000001"><a xlink:title=" ">
<polygon fill="#999999" stroke="#666666" points="141.25,-188 75.75,-188 75.75,-168 141.25,-168 141.25,-188"/>
<text text-anchor="middle" x="108.5" y="-174.5" font-family="Helvetica,sans-Serif" font-size="10.00">Gravity.hpp</text>
</a>
</g>
</g>
<!-- Node2 -->
<g id="Node000002" class="node">
<title>Node2</title>
<g id="a_Node000002"><a xlink:href="NetworkManager_8cpp.html" target="_top" xlink:title=" ">
<polygon fill="white" stroke="#666666" points="109,-132 0,-132 0,-112 109,-112 109,-132"/>
<text text-anchor="middle" x="54.5" y="-118.5" font-family="Helvetica,sans-Serif" font-size="10.00">NetworkManager.cpp</text>
</a>
</g>
</g>
<!-- Node1&#45;&gt;Node2 -->
<g id="edge1_Node000001_Node000002" class="edge">
<title>Node1&#45;&gt;Node2</title>
<g id="a_edge1_Node000001_Node000002"><a xlink:title=" ">
<path fill="none" stroke="#63b8ff" d="M91.07,-159.57C82,-150.5 71.28,-139.78 63.8,-132.3"/>
<polygon fill="#63b8ff" stroke="#63b8ff" points="88.48,-161.93 98.02,-166.52 93.43,-156.98 88.48,-161.93"/>
</a>
</g>
</g>
<!-- Node3 -->
<g id="Node000003" class="node">
<title>Node3</title>
<g id="a_Node000003"><a xlink:href="Physics_8hpp.html" target="_top" xlink:title=" ">
<polygon fill="white" stroke="#666666" points="197.5,-132 127.5,-132 127.5,-112 197.5,-112 197.5,-132"/>
<text text-anchor="middle" x="162.5" y="-118.5" font-family="Helvetica,sans-Serif" font-size="10.00">Physics.hpp</text>
</a>
</g>
</g>
<!-- Node1&#45;&gt;Node3 -->
<g id="edge2_Node000001_Node000003" class="edge">
<title>Node1&#45;&gt;Node3</title>
<g id="a_edge2_Node000001_Node000003"><a xlink:title=" ">
<path fill="none" stroke="#63b8ff" d="M125.93,-159.57C135,-150.5 145.72,-139.78 153.2,-132.3"/>
<polygon fill="#63b8ff" stroke="#63b8ff" points="123.57,-156.98 118.98,-166.52 128.52,-161.93 123.57,-156.98"/>
</a>
</g>
</g>
<!-- Node4 -->
<g id="Node000004" class="node">
<title>Node4</title>
<g id="a_Node000004"><a xlink:href="GameTypes_8cpp.html" target="_top" xlink:title=" ">
<polygon fill="white" stroke="#666666" points="134.12,-20 46.88,-20 46.88,0 134.12,0 134.12,-20"/>
<text text-anchor="middle" x="90.5" y="-6.5" font-family="Helvetica,sans-Serif" font-size="10.00">GameTypes.cpp</text>
</a>
</g>
</g>
<!-- Node3&#45;&gt;Node4 -->
<g id="edge3_Node000003_Node000004" class="edge">
<title>Node3&#45;&gt;Node4</title>
<g id="a_edge3_Node000003_Node000004"><a xlink:title=" ">
<path fill="none" stroke="#63b8ff" d="M138.08,-105.1C127.95,-97.4 116.87,-87.36 109.5,-76 97.98,-58.25 93.27,-33.32 91.48,-20.09"/>
<polygon fill="#63b8ff" stroke="#63b8ff" points="135.95,-107.88 146.12,-110.85 140.03,-102.19 135.95,-107.88"/>
</a>
</g>
</g>
<!-- Node5 -->
<g id="Node000005" class="node">
<title>Node5</title>
<g id="a_Node000005"><a xlink:href="GameTypes_8hpp.html" target="_top" xlink:title=" ">
<polygon fill="white" stroke="#666666" points="206.12,-76 118.88,-76 118.88,-56 206.12,-56 206.12,-76"/>
<text text-anchor="middle" x="162.5" y="-62.5" font-family="Helvetica,sans-Serif" font-size="10.00">GameTypes.hpp</text>
</a>
</g>
</g>
<!-- Node3&#45;&gt;Node5 -->
<g id="edge4_Node000003_Node000005" class="edge">
<title>Node3&#45;&gt;Node5</title>
<g id="a_edge4_Node000003_Node000005"><a xlink:title=" ">
<path fill="none" stroke="#63b8ff" d="M162.5,-100.13C162.5,-91.9 162.5,-82.85 162.5,-76.3"/>
<polygon fill="#63b8ff" stroke="#63b8ff" points="159,-100.08 162.5,-110.08 166,-100.08 159,-100.08"/>
</a>
</g>
</g>
<!-- Node7 -->
<g id="Node000007" class="node">
<title>Node7</title>
<g id="a_Node000007"><a xlink:href="Server_2src_2main_8cpp.html" target="_top" xlink:title=" ">
<polygon fill="white" stroke="#666666" points="280.38,-76 224.62,-76 224.62,-56 280.38,-56 280.38,-76"/>
<text text-anchor="middle" x="252.5" y="-62.5" font-family="Helvetica,sans-Serif" font-size="10.00">main.cpp</text>
</a>
</g>
</g>
<!-- Node3&#45;&gt;Node7 -->
<g id="edge7_Node000003_Node000007" class="edge">
<title>Node3&#45;&gt;Node7</title>
<g id="a_edge7_Node000003_Node000007"><a xlink:title=" ">
<path fill="none" stroke="#63b8ff" d="M187.81,-105.81C203.51,-96.39 223.2,-84.58 236.7,-76.48"/>
<polygon fill="#63b8ff" stroke="#63b8ff" points="186.25,-102.67 179.47,-110.82 189.85,-108.67 186.25,-102.67"/>
</a>
</g>
</g>
<!-- Node5&#45;&gt;Node4 -->
<g id="edge5_Node000005_Node000004" class="edge">
<title>Node5&#45;&gt;Node4</title>
<g id="a_edge5_Node000005_Node000004"><a xlink:title=" ">
<path fill="none" stroke="#63b8ff" d="M141.11,-48.95C128.65,-39.61 113.39,-28.16 102.9,-20.3"/>
<polygon fill="#63b8ff" stroke="#63b8ff" points="138.65,-51.49 148.75,-54.69 142.85,-45.89 138.65,-51.49"/>
</a>
</g>
</g>
<!-- Node6 -->
<g id="Node000006" class="node">
<title>Node6</title>
<g id="a_Node000006"><a xlink:href="Client_2src_2main_8cpp.html" target="_top" xlink:title=" ">
<polygon fill="white" stroke="#666666" points="208.38,-20 152.62,-20 152.62,0 208.38,0 208.38,-20"/>
<text text-anchor="middle" x="180.5" y="-6.5" font-family="Helvetica,sans-Serif" font-size="10.00">main.cpp</text>
</a>
</g>
</g>
<!-- Node5&#45;&gt;Node6 -->
<g id="edge6_Node000005_Node000006" class="edge">
<title>Node5&#45;&gt;Node6</title>
<g id="a_edge6_Node000005_Node000006"><a xlink:title=" ">
<path fill="none" stroke="#63b8ff" d="M169.26,-44.71C172.06,-36.32 175.16,-27.01 177.4,-20.3"/>
<polygon fill="#63b8ff" stroke="#63b8ff" points="165.96,-43.56 166.11,-54.16 172.6,-45.78 165.96,-43.56"/>
</a>
</g>
</g>
</g>
</svg>
