<?xml version="1.0" encoding="UTF-8" standalone="no"?>
<!DOCTYPE svg PUBLIC "-//W3C//DTD SVG 1.1//EN"
 "http://www.w3.org/Graphics/SVG/1.1/DTD/svg11.dtd">
<!-- Generated by graphviz version 12.1.0 (20240811.2233)
 -->
<!-- Title: Gravity.hpp Pages: 1 -->
<svg width="483pt" height="196pt"
 viewBox="0.00 0.00 483.25 196.00" xmlns="http://www.w3.org/2000/svg" xmlns:xlink="http://www.w3.org/1999/xlink">
<g id="graph0" class="graph" transform="scale(1 1) rotate(0) translate(4 192)">
<title>Gravity.hpp</title>
<!-- Node1 -->
<g id="Node000001" class="node">
<title>Node1</title>
<g id="a_Node000001"><a xlink:title=" ">
<polygon fill="#999999" stroke="#666666" points="296.38,-188 230.88,-188 230.88,-168 296.38,-168 296.38,-188"/>
<text text-anchor="middle" x="263.62" y="-174.5" font-family="Helvetica,sans-Serif" font-size="10.00">Gravity.hpp</text>
</a>
</g>
</g>
<!-- Node2 -->
<g id="Node000002" class="node">
<title>Node2</title>
<g id="a_Node000002"><a xlink:href="DevConsole_8hpp.html" target="_top" xlink:title=" ">
<polygon fill="white" stroke="#666666" points="124,-132 35.25,-132 35.25,-112 124,-112 124,-132"/>
<text text-anchor="middle" x="79.62" y="-118.5" font-family="Helvetica,sans-Serif" font-size="10.00">DevConsole.hpp</text>
</a>
</g>
</g>
<!-- Node1&#45;&gt;Node2 -->
<g id="edge1_Node000001_Node000002" class="edge">
<title>Node1&#45;&gt;Node2</title>
<g id="a_edge1_Node000001_Node000002"><a xlink:title=" ">
<path fill="none" stroke="#63b8ff" d="M220.8,-164.43C187.55,-154.67 142.17,-141.35 111.93,-132.48"/>
<polygon fill="#63b8ff" stroke="#63b8ff" points="219.54,-167.71 230.12,-167.17 221.51,-160.99 219.54,-167.71"/>
</a>
</g>
</g>
<!-- Node6 -->
<g id="Node000006" class="node">
<title>Node6</title>
<g id="a_Node000006"><a xlink:href="NetworkManager_8cpp.html" target="_top" xlink:title=" ">
<polygon fill="white" stroke="#666666" points="251.12,-132 142.12,-132 142.12,-112 251.12,-112 251.12,-132"/>
<text text-anchor="middle" x="196.62" y="-118.5" font-family="Helvetica,sans-Serif" font-size="10.00">NetworkManager.cpp</text>
</a>
</g>
</g>
<!-- Node1&#45;&gt;Node6 -->
<g id="edge6_Node000001_Node000006" class="edge">
<title>Node1&#45;&gt;Node6</title>
<g id="a_edge6_Node000001_Node000006"><a xlink:title=" ">
<path fill="none" stroke="#63b8ff" d="M243.03,-160.4C231.57,-151.17 217.73,-140.01 208.16,-132.3"/>
<polygon fill="#63b8ff" stroke="#63b8ff" points="240.79,-163.09 250.78,-166.64 245.19,-157.64 240.79,-163.09"/>
</a>
</g>
</g>
<!-- Node7 -->
<g id="Node000007" class="node">
<title>Node7</title>
<g id="a_Node000007"><a xlink:href="PhysicsUsingEngine_8hpp.html" target="_top" xlink:title=" ">
<polygon fill="white" stroke="#666666" points="394.38,-132 268.88,-132 268.88,-112 394.38,-112 394.38,-132"/>
<text text-anchor="middle" x="331.62" y="-118.5" font-family="Helvetica,sans-Serif" font-size="10.00">PhysicsUsingEngine.hpp</text>
</a>
</g>
</g>
<!-- Node1&#45;&gt;Node7 -->
<g id="edge7_Node000001_Node000007" class="edge">
<title>Node1&#45;&gt;Node7</title>
<g id="a_edge7_Node000001_Node000007"><a xlink:title=" ">
<path fill="none" stroke="#63b8ff" d="M284.18,-160.68C295.88,-151.39 310.11,-140.09 319.92,-132.3"/>
<polygon fill="#63b8ff" stroke="#63b8ff" points="282.31,-157.69 276.65,-166.65 286.66,-163.17 282.31,-157.69"/>
</a>
</g>
</g>
<!-- Node8 -->
<g id="Node000008" class="node">
<title>Node8</title>
<g id="a_Node000008"><a xlink:href="Server_8cpp.html" target="_top" xlink:title=" ">
<polygon fill="white" stroke="#666666" points="475.25,-132 412,-132 412,-112 475.25,-112 475.25,-132"/>
<text text-anchor="middle" x="443.62" y="-118.5" font-family="Helvetica,sans-Serif" font-size="10.00">Server.cpp</text>
</a>
</g>
</g>
<!-- Node1&#45;&gt;Node8 -->
<g id="edge8_Node000001_Node000008" class="edge">
<title>Node1&#45;&gt;Node8</title>
<g id="a_edge8_Node000001_Node000008"><a xlink:title=" ">
<path fill="none" stroke="#63b8ff" d="M305.94,-164.31C338.43,-154.56 382.57,-141.32 412.03,-132.48"/>
<polygon fill="#63b8ff" stroke="#63b8ff" points="305,-160.93 296.43,-167.16 307.01,-167.64 305,-160.93"/>
</a>
</g>
</g>
<!-- Node3 -->
<g id="Node000003" class="node">
<title>Node3</title>
<g id="a_Node000003"><a xlink:href="GameTypes_8cpp.html" target="_top" xlink:title=" ">
<polygon fill="white" stroke="#666666" points="87.25,-20 0,-20 0,0 87.25,0 87.25,-20"/>
<text text-anchor="middle" x="43.62" y="-6.5" font-family="Helvetica,sans-Serif" font-size="10.00">GameTypes.cpp</text>
</a>
</g>
</g>
<!-- Node2&#45;&gt;Node3 -->
<g id="edge2_Node000002_Node000003" class="edge">
<title>Node2&#45;&gt;Node3</title>
<g id="a_edge2_Node000002_Node000003"><a xlink:title=" ">
<path fill="none" stroke="#63b8ff" d="M71.76,-101.16C68.76,-93.37 65.4,-84.31 62.62,-76 56.06,-56.38 49.54,-33.01 46.11,-20.33"/>
<polygon fill="#63b8ff" stroke="#63b8ff" points="68.45,-102.32 75.35,-110.36 74.97,-99.77 68.45,-102.32"/>
</a>
</g>
</g>
<!-- Node4 -->
<g id="Node000004" class="node">
<title>Node4</title>
<g id="a_Node000004"><a xlink:href="GameTypes_8hpp.html" target="_top" xlink:title=" ">
<polygon fill="white" stroke="#666666" points="159.25,-76 72,-76 72,-56 159.25,-56 159.25,-76"/>
<text text-anchor="middle" x="115.62" y="-62.5" font-family="Helvetica,sans-Serif" font-size="10.00">GameTypes.hpp</text>
</a>
</g>
</g>
<!-- Node2&#45;&gt;Node4 -->
<g id="edge3_Node000002_Node000004" class="edge">
<title>Node2&#45;&gt;Node4</title>
<g id="a_edge3_Node000002_Node000004"><a xlink:title=" ">
<path fill="none" stroke="#63b8ff" d="M92.19,-102.15C98.02,-93.4 104.7,-83.39 109.43,-76.3"/>
<polygon fill="#63b8ff" stroke="#63b8ff" points="89.37,-100.07 86.74,-110.33 95.19,-103.96 89.37,-100.07"/>
</a>
</g>
</g>
<!-- Node4&#45;&gt;Node3 -->
<g id="edge4_Node000004_Node000003" class="edge">
<title>Node4&#45;&gt;Node3</title>
<g id="a_edge4_Node000004_Node000003"><a xlink:title=" ">
<path fill="none" stroke="#63b8ff" d="M94.23,-48.95C81.78,-39.61 66.51,-28.16 56.02,-20.3"/>
<polygon fill="#63b8ff" stroke="#63b8ff" points="91.77,-51.49 101.87,-54.69 95.97,-45.89 91.77,-51.49"/>
</a>
</g>
</g>
<!-- Node5 -->
<g id="Node000005" class="node">
<title>Node5</title>
<g id="a_Node000005"><a xlink:href="Client_2src_2main_8cpp.html" target="_top" xlink:title=" ">
<polygon fill="white" stroke="#666666" points="161.5,-20 105.75,-20 105.75,0 161.5,0 161.5,-20"/>
<text text-anchor="middle" x="133.62" y="-6.5" font-family="Helvetica,sans-Serif" font-size="10.00">main.cpp</text>
</a>
</g>
</g>
<!-- Node4&#45;&gt;Node5 -->
<g id="edge5_Node000004_Node000005" class="edge">
<title>Node4&#45;&gt;Node5</title>
<g id="a_edge5_Node000004_Node000005"><a xlink:title=" ">
<path fill="none" stroke="#63b8ff" d="M122.39,-44.71C125.18,-36.32 128.29,-27.01 130.53,-20.3"/>
<polygon fill="#63b8ff" stroke="#63b8ff" points="119.08,-43.56 119.24,-54.16 125.72,-45.78 119.08,-43.56"/>
</a>
</g>
</g>
</g>
</svg>
