<?xml version="1.0" encoding="UTF-8" standalone="no"?>
<!DOCTYPE svg PUBLIC "-//W3C//DTD SVG 1.1//EN"
 "http://www.w3.org/Graphics/SVG/1.1/DTD/svg11.dtd">
<!-- Generated by graphviz version 12.1.0 (20240811.2233)
 -->
<!-- Title: Hitbox.hpp Pages: 1 -->
<svg width="71pt" height="140pt"
 viewBox="0.00 0.00 71.25 140.00" xmlns="http://www.w3.org/2000/svg" xmlns:xlink="http://www.w3.org/1999/xlink">
<g id="graph0" class="graph" transform="scale(1 1) rotate(0) translate(4 136)">
<title>Hitbox.hpp</title>
<!-- Node1 -->
<g id="Node000001" class="node">
<title>Node1</title>
<g id="a_Node000001"><a xlink:title=" ">
<polygon fill="#999999" stroke="#666666" points="63.25,-132 0,-132 0,-112 63.25,-112 63.25,-132"/>
<text text-anchor="middle" x="31.62" y="-118.5" font-family="Helvetica,sans-Serif" font-size="10.00">Hitbox.hpp</text>
</a>
</g>
</g>
<!-- Node2 -->
<g id="Node000002" class="node">
<title>Node2</title>
<g id="a_Node000002"><a xlink:href="Utils_8hpp.html" target="_top" xlink:title=" ">
<polygon fill="white" stroke="#666666" points="59.12,-76 4.12,-76 4.12,-56 59.12,-56 59.12,-76"/>
<text text-anchor="middle" x="31.62" y="-62.5" font-family="Helvetica,sans-Serif" font-size="10.00">Utils.hpp</text>
</a>
</g>
</g>
<!-- Node1&#45;&gt;Node2 -->
<g id="edge1_Node000001_Node000002" class="edge">
<title>Node1&#45;&gt;Node2</title>
<g id="a_edge1_Node000001_Node000002"><a xlink:title=" ">
<path fill="none" stroke="#63b8ff" d="M31.62,-111.59C31.62,-105.01 31.62,-95.96 31.62,-87.73"/>
<polygon fill="#63b8ff" stroke="#63b8ff" points="35.13,-87.81 31.63,-77.81 28.13,-87.81 35.13,-87.81"/>
</a>
</g>
</g>
<!-- Node3 -->
<g id="Node000003" class="node">
<title>Node3</title>
<g id="a_Node000003"><a xlink:title=" ">
<polygon fill="#e0e0e0" stroke="#999999" points="54.25,-20 9,-20 9,0 54.25,0 54.25,-20"/>
<text text-anchor="middle" x="31.62" y="-6.5" font-family="Helvetica,sans-Serif" font-size="10.00">cstdint</text>
</a>
</g>
</g>
<!-- Node2&#45;&gt;Node3 -->
<g id="edge2_Node000002_Node000003" class="edge">
<title>Node2&#45;&gt;Node3</title>
<g id="a_edge2_Node000002_Node000003"><a xlink:title=" ">
<path fill="none" stroke="#63b8ff" d="M31.62,-55.59C31.62,-49.01 31.62,-39.96 31.62,-31.73"/>
<polygon fill="#63b8ff" stroke="#63b8ff" points="35.13,-31.81 31.63,-21.81 28.13,-31.81 35.13,-31.81"/>
</a>
</g>
</g>
</g>
</svg>
