<?xml version="1.0" encoding="UTF-8" standalone="no"?>
<!DOCTYPE svg PUBLIC "-//W3C//DTD SVG 1.1//EN"
 "http://www.w3.org/Graphics/SVG/1.1/DTD/svg11.dtd">
<!-- Generated by graphviz version 12.1.0 (20240811.2233)
 -->
<!-- Title: Hitbox.hpp Pages: 1 -->
<svg width="457pt" height="196pt"
 viewBox="0.00 0.00 456.88 196.00" xmlns="http://www.w3.org/2000/svg" xmlns:xlink="http://www.w3.org/1999/xlink">
<g id="graph0" class="graph" transform="scale(1 1) rotate(0) translate(4 192)">
<title>Hitbox.hpp</title>
<!-- Node1 -->
<g id="Node000001" class="node">
<title>Node1</title>
<g id="a_Node000001"><a xlink:title=" ">
<polygon fill="#999999" stroke="#666666" points="258,-188 194.75,-188 194.75,-168 258,-168 258,-188"/>
<text text-anchor="middle" x="226.38" y="-174.5" font-family="Helvetica,sans-Serif" font-size="10.00">Hitbox.hpp</text>
</a>
</g>
</g>
<!-- Node2 -->
<g id="Node000002" class="node">
<title>Node2</title>
<g id="a_Node000002"><a xlink:href="Collision_8hpp.html" target="_top" xlink:title=" ">
<polygon fill="white" stroke="#666666" points="262.5,-132 190.25,-132 190.25,-112 262.5,-112 262.5,-132"/>
<text text-anchor="middle" x="226.38" y="-118.5" font-family="Helvetica,sans-Serif" font-size="10.00">Collision.hpp</text>
</a>
</g>
</g>
<!-- Node1&#45;&gt;Node2 -->
<g id="edge1_Node000001_Node000002" class="edge">
<title>Node1&#45;&gt;Node2</title>
<g id="a_edge1_Node000001_Node000002"><a xlink:title=" ">
<path fill="none" stroke="#63b8ff" d="M226.38,-156.13C226.38,-147.9 226.38,-138.85 226.38,-132.3"/>
<polygon fill="#63b8ff" stroke="#63b8ff" points="222.88,-156.08 226.38,-166.08 229.88,-156.08 222.88,-156.08"/>
</a>
</g>
</g>
<!-- Node7 -->
<g id="Node000007" class="node">
<title>Node7</title>
<g id="a_Node000007"><a xlink:href="Server_8cpp.html" target="_top" xlink:title=" ">
<polygon fill="white" stroke="#666666" points="343,-20 279.75,-20 279.75,0 343,0 343,-20"/>
<text text-anchor="middle" x="311.38" y="-6.5" font-family="Helvetica,sans-Serif" font-size="10.00">Server.cpp</text>
</a>
</g>
</g>
<!-- Node1&#45;&gt;Node7 -->
<g id="edge17_Node000001_Node000007" class="edge">
<title>Node1&#45;&gt;Node7</title>
<g id="a_edge17_Node000001_Node000007"><a xlink:title=" ">
<path fill="none" stroke="#63b8ff" d="M246.53,-160.35C255.09,-152.46 264.63,-142.48 271.38,-132 295.33,-94.8 306.27,-41.87 309.91,-20.5"/>
<polygon fill="#63b8ff" stroke="#63b8ff" points="244.45,-157.51 239.26,-166.75 249.08,-162.77 244.45,-157.51"/>
</a>
</g>
</g>
<!-- Node9 -->
<g id="Node000009" class="node">
<title>Node9</title>
<g id="a_Node000009"><a xlink:href="DevConsole_8hpp.html" target="_top" xlink:title=" ">
<polygon fill="white" stroke="#666666" points="88.75,-132 0,-132 0,-112 88.75,-112 88.75,-132"/>
<text text-anchor="middle" x="44.38" y="-118.5" font-family="Helvetica,sans-Serif" font-size="10.00">DevConsole.hpp</text>
</a>
</g>
</g>
<!-- Node1&#45;&gt;Node9 -->
<g id="edge9_Node000001_Node000009" class="edge">
<title>Node1&#45;&gt;Node9</title>
<g id="a_edge9_Node000001_Node000009"><a xlink:title=" ">
<path fill="none" stroke="#63b8ff" d="M184.02,-164.43C151.13,-154.67 106.24,-141.35 76.32,-132.48"/>
<polygon fill="#63b8ff" stroke="#63b8ff" points="182.64,-167.67 193.22,-167.16 184.63,-160.96 182.64,-167.67"/>
</a>
</g>
</g>
<!-- Node10 -->
<g id="Node000010" class="node">
<title>Node10</title>
<g id="a_Node000010"><a xlink:href="Enemy_8hpp.html" target="_top" xlink:title=" ">
<polygon fill="white" stroke="#666666" points="171.75,-132 107,-132 107,-112 171.75,-112 171.75,-132"/>
<text text-anchor="middle" x="139.38" y="-118.5" font-family="Helvetica,sans-Serif" font-size="10.00">Enemy.hpp</text>
</a>
</g>
</g>
<!-- Node1&#45;&gt;Node10 -->
<g id="edge12_Node000001_Node000010" class="edge">
<title>Node1&#45;&gt;Node10</title>
<g id="a_edge12_Node000001_Node000010"><a xlink:title=" ">
<path fill="none" stroke="#63b8ff" d="M201.47,-161.54C186.37,-152.17 167.58,-140.51 154.65,-132.48"/>
<polygon fill="#63b8ff" stroke="#63b8ff" points="199.59,-164.5 209.93,-166.8 203.28,-158.55 199.59,-164.5"/>
</a>
</g>
</g>
<!-- Node11 -->
<g id="Node000011" class="node">
<title>Node11</title>
<g id="a_Node000011"><a xlink:href="NetworkManager_8cpp.html" target="_top" xlink:title=" ">
<polygon fill="white" stroke="#666666" points="448.88,-132 339.88,-132 339.88,-112 448.88,-112 448.88,-132"/>
<text text-anchor="middle" x="394.38" y="-118.5" font-family="Helvetica,sans-Serif" font-size="10.00">NetworkManager.cpp</text>
</a>
</g>
</g>
<!-- Node1&#45;&gt;Node11 -->
<g id="edge16_Node000001_Node000011" class="edge">
<title>Node1&#45;&gt;Node11</title>
<g id="a_edge16_Node000001_Node000011"><a xlink:title=" ">
<path fill="none" stroke="#63b8ff" d="M266.27,-164.18C296.55,-154.44 337.51,-141.28 364.88,-132.48"/>
<polygon fill="#63b8ff" stroke="#63b8ff" points="265.53,-160.74 257.08,-167.13 267.67,-167.4 265.53,-160.74"/>
</a>
</g>
</g>
<!-- Node3 -->
<g id="Node000003" class="node">
<title>Node3</title>
<g id="a_Node000003"><a xlink:href="GameTypes_8cpp.html" target="_top" xlink:title=" ">
<polygon fill="white" stroke="#666666" points="91,-20 3.75,-20 3.75,0 91,0 91,-20"/>
<text text-anchor="middle" x="47.38" y="-6.5" font-family="Helvetica,sans-Serif" font-size="10.00">GameTypes.cpp</text>
</a>
</g>
</g>
<!-- Node2&#45;&gt;Node3 -->
<g id="edge2_Node000002_Node000003" class="edge">
<title>Node2&#45;&gt;Node3</title>
<g id="a_edge2_Node000002_Node000003"><a xlink:title=" ">
<path fill="none" stroke="#63b8ff" d="M214.84,-102.26C205.1,-87.83 189.97,-68.34 172.38,-56 147.83,-38.78 115.97,-27.45 90.57,-20.46"/>
<polygon fill="#63b8ff" stroke="#63b8ff" points="211.74,-103.91 220.11,-110.42 217.62,-100.12 211.74,-103.91"/>
</a>
</g>
</g>
<!-- Node4 -->
<g id="Node000004" class="node">
<title>Node4</title>
<g id="a_Node000004"><a xlink:href="GameTypes_8hpp.html" target="_top" xlink:title=" ">
<polygon fill="white" stroke="#666666" points="163,-76 75.75,-76 75.75,-56 163,-56 163,-76"/>
<text text-anchor="middle" x="119.38" y="-62.5" font-family="Helvetica,sans-Serif" font-size="10.00">GameTypes.hpp</text>
</a>
</g>
</g>
<!-- Node2&#45;&gt;Node4 -->
<g id="edge3_Node000002_Node000004" class="edge">
<title>Node2&#45;&gt;Node4</title>
<g id="a_edge3_Node000002_Node000004"><a xlink:title=" ">
<path fill="none" stroke="#63b8ff" d="M197.6,-106.48C178.73,-96.96 154.6,-84.78 138.16,-76.48"/>
<polygon fill="#63b8ff" stroke="#63b8ff" points="195.88,-109.53 206.39,-110.91 199.04,-103.28 195.88,-109.53"/>
</a>
</g>
</g>
<!-- Node6 -->
<g id="Node000006" class="node">
<title>Node6</title>
<g id="a_Node000006"><a xlink:href="Server_8hpp.html" target="_top" xlink:title=" ">
<polygon fill="white" stroke="#666666" points="283,-76 219.75,-76 219.75,-56 283,-56 283,-76"/>
<text text-anchor="middle" x="251.38" y="-62.5" font-family="Helvetica,sans-Serif" font-size="10.00">Server.hpp</text>
</a>
</g>
</g>
<!-- Node2&#45;&gt;Node6 -->
<g id="edge6_Node000002_Node000006" class="edge">
<title>Node2&#45;&gt;Node6</title>
<g id="a_edge6_Node000002_Node000006"><a xlink:title=" ">
<path fill="none" stroke="#63b8ff" d="M235.5,-101.29C239.45,-92.75 243.89,-83.16 247.07,-76.3"/>
<polygon fill="#63b8ff" stroke="#63b8ff" points="232.39,-99.68 231.37,-110.22 238.74,-102.62 232.39,-99.68"/>
</a>
</g>
</g>
<!-- Node4&#45;&gt;Node3 -->
<g id="edge4_Node000004_Node000003" class="edge">
<title>Node4&#45;&gt;Node3</title>
<g id="a_edge4_Node000004_Node000003"><a xlink:title=" ">
<path fill="none" stroke="#63b8ff" d="M97.98,-48.95C85.53,-39.61 70.26,-28.16 59.77,-20.3"/>
<polygon fill="#63b8ff" stroke="#63b8ff" points="95.52,-51.49 105.62,-54.69 99.72,-45.89 95.52,-51.49"/>
</a>
</g>
</g>
<!-- Node5 -->
<g id="Node000005" class="node">
<title>Node5</title>
<g id="a_Node000005"><a xlink:href="Client_2src_2main_8cpp.html" target="_top" xlink:title=" ">
<polygon fill="white" stroke="#666666" points="165.25,-20 109.5,-20 109.5,0 165.25,0 165.25,-20"/>
<text text-anchor="middle" x="137.38" y="-6.5" font-family="Helvetica,sans-Serif" font-size="10.00">main.cpp</text>
</a>
</g>
</g>
<!-- Node4&#45;&gt;Node5 -->
<g id="edge5_Node000004_Node000005" class="edge">
<title>Node4&#45;&gt;Node5</title>
<g id="a_edge5_Node000004_Node000005"><a xlink:title=" ">
<path fill="none" stroke="#63b8ff" d="M126.14,-44.71C128.93,-36.32 132.04,-27.01 134.28,-20.3"/>
<polygon fill="#63b8ff" stroke="#63b8ff" points="122.83,-43.56 122.99,-54.16 129.47,-45.78 122.83,-43.56"/>
</a>
</g>
</g>
<!-- Node6&#45;&gt;Node7 -->
<g id="edge7_Node000006_Node000007" class="edge">
<title>Node6&#45;&gt;Node7</title>
<g id="a_edge7_Node000006_Node000007"><a xlink:title=" ">
<path fill="none" stroke="#63b8ff" d="M270.12,-48.13C280.33,-38.94 292.56,-27.93 301.04,-20.3"/>
<polygon fill="#63b8ff" stroke="#63b8ff" points="268.04,-45.29 262.95,-54.58 272.73,-50.49 268.04,-45.29"/>
</a>
</g>
</g>
<!-- Node8 -->
<g id="Node000008" class="node">
<title>Node8</title>
<g id="a_Node000008"><a xlink:href="Server_2src_2main_8cpp.html" target="_top" xlink:title=" ">
<polygon fill="white" stroke="#666666" points="261.25,-20 205.5,-20 205.5,0 261.25,0 261.25,-20"/>
<text text-anchor="middle" x="233.38" y="-6.5" font-family="Helvetica,sans-Serif" font-size="10.00">main.cpp</text>
</a>
</g>
</g>
<!-- Node6&#45;&gt;Node8 -->
<g id="edge8_Node000006_Node000008" class="edge">
<title>Node6&#45;&gt;Node8</title>
<g id="a_edge8_Node000006_Node000008"><a xlink:title=" ">
<path fill="none" stroke="#63b8ff" d="M244.61,-44.71C241.82,-36.32 238.71,-27.01 236.47,-20.3"/>
<polygon fill="#63b8ff" stroke="#63b8ff" points="241.28,-45.78 247.76,-54.16 247.92,-43.56 241.28,-45.78"/>
</a>
</g>
</g>
<!-- Node9&#45;&gt;Node3 -->
<g id="edge10_Node000009_Node000003" class="edge">
<title>Node9&#45;&gt;Node3</title>
<g id="a_edge10_Node000009_Node000003"><a xlink:title=" ">
<path fill="none" stroke="#63b8ff" d="M37.64,-100.93C34.16,-88.1 31.08,-71.09 33.38,-56 35.29,-43.38 40.07,-29.43 43.51,-20.46"/>
<polygon fill="#63b8ff" stroke="#63b8ff" points="34.24,-101.76 40.5,-110.31 40.93,-99.72 34.24,-101.76"/>
</a>
</g>
</g>
<!-- Node9&#45;&gt;Node4 -->
<g id="edge11_Node000009_Node000004" class="edge">
<title>Node9&#45;&gt;Node4</title>
<g id="a_edge11_Node000009_Node000004"><a xlink:title=" ">
<path fill="none" stroke="#63b8ff" d="M66.6,-105C79.49,-95.72 95.28,-84.35 106.21,-76.48"/>
<polygon fill="#63b8ff" stroke="#63b8ff" points="64.74,-102.03 58.67,-110.71 68.83,-107.71 64.74,-102.03"/>
</a>
</g>
</g>
<!-- Node10&#45;&gt;Node3 -->
<g id="edge13_Node000010_Node000003" class="edge">
<title>Node10&#45;&gt;Node3</title>
<g id="a_edge13_Node000010_Node000003"><a xlink:title=" ">
<path fill="none" stroke="#63b8ff" d="M104.9,-106.49C91.17,-99.16 76.3,-89.02 66.38,-76 53.54,-59.17 49.36,-33.87 48.01,-20.34"/>
<polygon fill="#63b8ff" stroke="#63b8ff" points="103.22,-109.56 113.73,-110.87 106.33,-103.29 103.22,-109.56"/>
</a>
</g>
</g>
<!-- Node10&#45;&gt;Node4 -->
<g id="edge14_Node000010_Node000004" class="edge">
<title>Node10&#45;&gt;Node4</title>
<g id="a_edge14_Node000010_Node000004"><a xlink:title=" ">
<path fill="none" stroke="#63b8ff" d="M131.97,-101C128.83,-92.54 125.33,-83.08 122.82,-76.3"/>
<polygon fill="#63b8ff" stroke="#63b8ff" points="128.61,-102.01 135.37,-110.17 135.17,-99.58 128.61,-102.01"/>
</a>
</g>
</g>
<!-- Node10&#45;&gt;Node6 -->
<g id="edge15_Node000010_Node000006" class="edge">
<title>Node10&#45;&gt;Node6</title>
<g id="a_edge15_Node000010_Node000006"><a xlink:title=" ">
<path fill="none" stroke="#63b8ff" d="M169.21,-106.61C189.01,-97.07 214.43,-84.81 231.71,-76.48"/>
<polygon fill="#63b8ff" stroke="#63b8ff" points="167.73,-103.44 160.25,-110.94 170.78,-109.75 167.73,-103.44"/>
</a>
</g>
</g>
</g>
</svg>
