<?xml version="1.0" encoding="UTF-8" standalone="no"?>
<!DOCTYPE svg PUBLIC "-//W3C//DTD SVG 1.1//EN"
 "http://www.w3.org/Graphics/SVG/1.1/DTD/svg11.dtd">
<!-- Generated by graphviz version 12.1.0 (20240811.2233)
 -->
<!-- Title: Hitbox.hpp Pages: 1 -->
<svg width="365pt" height="196pt"
 viewBox="0.00 0.00 365.38 196.00" xmlns="http://www.w3.org/2000/svg" xmlns:xlink="http://www.w3.org/1999/xlink">
<g id="graph0" class="graph" transform="scale(1 1) rotate(0) translate(4 192)">
<title>Hitbox.hpp</title>
<!-- Node1 -->
<g id="Node000001" class="node">
<title>Node1</title>
<g id="a_Node000001"><a xlink:title=" ">
<polygon fill="#999999" stroke="#666666" points="221.5,-188 158.25,-188 158.25,-168 221.5,-168 221.5,-188"/>
<text text-anchor="middle" x="189.88" y="-174.5" font-family="Helvetica,sans-Serif" font-size="10.00">Hitbox.hpp</text>
</a>
</g>
</g>
<!-- Node2 -->
<g id="Node000002" class="node">
<title>Node2</title>
<g id="a_Node000002"><a xlink:href="Collision_8hpp.html" target="_top" xlink:title=" ">
<polygon fill="white" stroke="#666666" points="109,-132 36.75,-132 36.75,-112 109,-112 109,-132"/>
<text text-anchor="middle" x="72.88" y="-118.5" font-family="Helvetica,sans-Serif" font-size="10.00">Collision.hpp</text>
</a>
</g>
</g>
<!-- Node1&#45;&gt;Node2 -->
<g id="edge1_Node000001_Node000002" class="edge">
<title>Node1&#45;&gt;Node2</title>
<g id="a_edge1_Node000001_Node000002"><a xlink:title=" ">
<path fill="none" stroke="#63b8ff" d="M159.28,-162.88C138.52,-153.3 111.64,-140.89 93.41,-132.48"/>
<polygon fill="#63b8ff" stroke="#63b8ff" points="157.57,-165.95 168.12,-166.96 160.51,-159.59 157.57,-165.95"/>
</a>
</g>
</g>
<!-- Node6 -->
<g id="Node000006" class="node">
<title>Node6</title>
<g id="a_Node000006"><a xlink:href="Server_2src_2main_8cpp.html" target="_top" xlink:title=" ">
<polygon fill="white" stroke="#666666" points="190.75,-76 135,-76 135,-56 190.75,-56 190.75,-76"/>
<text text-anchor="middle" x="162.88" y="-62.5" font-family="Helvetica,sans-Serif" font-size="10.00">main.cpp</text>
</a>
</g>
</g>
<!-- Node1&#45;&gt;Node6 -->
<g id="edge12_Node000001_Node000006" class="edge">
<title>Node1&#45;&gt;Node6</title>
<g id="a_edge12_Node000001_Node000006"><a xlink:title=" ">
<path fill="none" stroke="#63b8ff" d="M198.36,-157.26C202.77,-144.12 206.23,-126.65 200.88,-112 195.61,-97.6 183.47,-84.62 174.31,-76.35"/>
<polygon fill="#63b8ff" stroke="#63b8ff" points="195.13,-155.9 194.81,-166.49 201.66,-158.41 195.13,-155.9"/>
</a>
</g>
</g>
<!-- Node7 -->
<g id="Node000007" class="node">
<title>Node7</title>
<g id="a_Node000007"><a xlink:href="Enemy_8hpp.html" target="_top" xlink:title=" ">
<polygon fill="white" stroke="#666666" points="192.25,-132 127.5,-132 127.5,-112 192.25,-112 192.25,-132"/>
<text text-anchor="middle" x="159.88" y="-118.5" font-family="Helvetica,sans-Serif" font-size="10.00">Enemy.hpp</text>
</a>
</g>
</g>
<!-- Node1&#45;&gt;Node7 -->
<g id="edge7_Node000001_Node000007" class="edge">
<title>Node1&#45;&gt;Node7</title>
<g id="a_edge7_Node000001_Node000007"><a xlink:title=" ">
<path fill="none" stroke="#63b8ff" d="M179.09,-157.58C174.3,-148.97 168.9,-139.24 165.04,-132.3"/>
<polygon fill="#63b8ff" stroke="#63b8ff" points="176,-159.23 183.91,-166.27 182.12,-155.83 176,-159.23"/>
</a>
</g>
</g>
<!-- Node8 -->
<g id="Node000008" class="node">
<title>Node8</title>
<g id="a_Node000008"><a xlink:href="NetworkManager_8cpp.html" target="_top" xlink:title=" ">
<polygon fill="white" stroke="#666666" points="357.38,-132 248.38,-132 248.38,-112 357.38,-112 357.38,-132"/>
<text text-anchor="middle" x="302.88" y="-118.5" font-family="Helvetica,sans-Serif" font-size="10.00">NetworkManager.cpp</text>
</a>
</g>
</g>
<!-- Node1&#45;&gt;Node8 -->
<g id="edge11_Node000001_Node000008" class="edge">
<title>Node1&#45;&gt;Node8</title>
<g id="a_edge11_Node000001_Node000008"><a xlink:title=" ">
<path fill="none" stroke="#63b8ff" d="M219.7,-162.75C239.71,-153.18 265.52,-140.85 283.04,-132.48"/>
<polygon fill="#63b8ff" stroke="#63b8ff" points="218.44,-159.47 210.92,-166.94 221.46,-165.79 218.44,-159.47"/>
</a>
</g>
</g>
<!-- Node3 -->
<g id="Node000003" class="node">
<title>Node3</title>
<g id="a_Node000003"><a xlink:href="GameTypes_8cpp.html" target="_top" xlink:title=" ">
<polygon fill="white" stroke="#666666" points="161.5,-20 74.25,-20 74.25,0 161.5,0 161.5,-20"/>
<text text-anchor="middle" x="117.88" y="-6.5" font-family="Helvetica,sans-Serif" font-size="10.00">GameTypes.cpp</text>
</a>
</g>
</g>
<!-- Node2&#45;&gt;Node3 -->
<g id="edge2_Node000002_Node000003" class="edge">
<title>Node2&#45;&gt;Node3</title>
<g id="a_edge2_Node000002_Node000003"><a xlink:title=" ">
<path fill="none" stroke="#63b8ff" d="M45.81,-105.39C27.42,-92.69 8.35,-73.97 19.88,-56 31.85,-37.32 53.74,-26.3 73.79,-19.84"/>
<polygon fill="#63b8ff" stroke="#63b8ff" points="43.91,-108.33 54.21,-110.8 47.7,-102.44 43.91,-108.33"/>
</a>
</g>
</g>
<!-- Node4 -->
<g id="Node000004" class="node">
<title>Node4</title>
<g id="a_Node000004"><a xlink:href="GameTypes_8hpp.html" target="_top" xlink:title=" ">
<polygon fill="white" stroke="#666666" points="116.5,-76 29.25,-76 29.25,-56 116.5,-56 116.5,-76"/>
<text text-anchor="middle" x="72.88" y="-62.5" font-family="Helvetica,sans-Serif" font-size="10.00">GameTypes.hpp</text>
</a>
</g>
</g>
<!-- Node2&#45;&gt;Node4 -->
<g id="edge3_Node000002_Node000004" class="edge">
<title>Node2&#45;&gt;Node4</title>
<g id="a_edge3_Node000002_Node000004"><a xlink:title=" ">
<path fill="none" stroke="#63b8ff" d="M72.88,-100.13C72.88,-91.9 72.88,-82.85 72.88,-76.3"/>
<polygon fill="#63b8ff" stroke="#63b8ff" points="69.38,-100.08 72.88,-110.08 76.38,-100.08 69.38,-100.08"/>
</a>
</g>
</g>
<!-- Node2&#45;&gt;Node6 -->
<g id="edge6_Node000002_Node000006" class="edge">
<title>Node2&#45;&gt;Node6</title>
<g id="a_edge6_Node000002_Node000006"><a xlink:title=" ">
<path fill="none" stroke="#63b8ff" d="M98.19,-105.81C113.89,-96.39 133.57,-84.58 147.08,-76.48"/>
<polygon fill="#63b8ff" stroke="#63b8ff" points="96.62,-102.67 89.85,-110.82 100.23,-108.67 96.62,-102.67"/>
</a>
</g>
</g>
<!-- Node4&#45;&gt;Node3 -->
<g id="edge4_Node000004_Node000003" class="edge">
<title>Node4&#45;&gt;Node3</title>
<g id="a_edge4_Node000004_Node000003"><a xlink:title=" ">
<path fill="none" stroke="#63b8ff" d="M87.87,-47C95.33,-38.06 104.02,-27.62 110.13,-20.3"/>
<polygon fill="#63b8ff" stroke="#63b8ff" points="85.4,-44.51 81.68,-54.43 90.77,-48.99 85.4,-44.51"/>
</a>
</g>
</g>
<!-- Node5 -->
<g id="Node000005" class="node">
<title>Node5</title>
<g id="a_Node000005"><a xlink:href="Client_2src_2main_8cpp.html" target="_top" xlink:title=" ">
<polygon fill="white" stroke="#666666" points="55.75,-20 0,-20 0,0 55.75,0 55.75,-20"/>
<text text-anchor="middle" x="27.88" y="-6.5" font-family="Helvetica,sans-Serif" font-size="10.00">main.cpp</text>
</a>
</g>
</g>
<!-- Node4&#45;&gt;Node5 -->
<g id="edge5_Node000004_Node000005" class="edge">
<title>Node4&#45;&gt;Node5</title>
<g id="a_edge5_Node000004_Node000005"><a xlink:title=" ">
<path fill="none" stroke="#63b8ff" d="M57.88,-47C50.42,-38.06 41.73,-27.62 35.62,-20.3"/>
<polygon fill="#63b8ff" stroke="#63b8ff" points="54.98,-48.99 64.07,-54.43 60.35,-44.51 54.98,-48.99"/>
</a>
</g>
</g>
<!-- Node7&#45;&gt;Node3 -->
<g id="edge8_Node000007_Node000003" class="edge">
<title>Node7&#45;&gt;Node3</title>
<g id="a_edge8_Node000007_Node000003"><a xlink:title=" ">
<path fill="none" stroke="#63b8ff" d="M181.46,-104.24C195.54,-91.17 209.66,-72.52 199.88,-56 189.45,-38.39 169.43,-27.22 151.77,-20.41"/>
<polygon fill="#63b8ff" stroke="#63b8ff" points="179.35,-101.43 174.05,-110.6 183.92,-106.74 179.35,-101.43"/>
</a>
</g>
</g>
<!-- Node7&#45;&gt;Node4 -->
<g id="edge9_Node000007_Node000004" class="edge">
<title>Node7&#45;&gt;Node4</title>
<g id="a_edge9_Node000007_Node000004"><a xlink:title=" ">
<path fill="none" stroke="#63b8ff" d="M134.97,-105.54C119.87,-96.17 101.08,-84.51 88.15,-76.48"/>
<polygon fill="#63b8ff" stroke="#63b8ff" points="133.09,-108.5 143.43,-110.8 136.78,-102.55 133.09,-108.5"/>
</a>
</g>
</g>
<!-- Node7&#45;&gt;Node6 -->
<g id="edge10_Node000007_Node000006" class="edge">
<title>Node7&#45;&gt;Node6</title>
<g id="a_edge10_Node000007_Node000006"><a xlink:title=" ">
<path fill="none" stroke="#63b8ff" d="M161.03,-100.13C161.49,-91.9 161.99,-82.85 162.36,-76.3"/>
<polygon fill="#63b8ff" stroke="#63b8ff" points="157.54,-99.9 160.48,-110.08 164.53,-100.29 157.54,-99.9"/>
</a>
</g>
</g>
</g>
</svg>
