<?xml version="1.0" encoding="UTF-8" standalone="no"?>
<!DOCTYPE svg PUBLIC "-//W3C//DTD SVG 1.1//EN"
 "http://www.w3.org/Graphics/SVG/1.1/DTD/svg11.dtd">
<!-- Generated by graphviz version 12.1.0 (20240811.2233)
 -->
<!-- Title: Graphical Class Hierarchy Pages: 1 -->
<svg width="292pt" height="318pt"
 viewBox="0.00 0.00 292.00 318.00" xmlns="http://www.w3.org/2000/svg" xmlns:xlink="http://www.w3.org/1999/xlink">
<g id="graph0" class="graph" transform="scale(1 1) rotate(0) translate(4 314)">
<title>Graphical Class Hierarchy</title>
<!-- Node0 -->
<g id="Node000000" class="node">
<title>Node0</title>
<g id="a_Node000000"><a xlink:href="classEngine_1_1System.html" target="_top" xlink:title=" ">
<polygon fill="white" stroke="#666666" points="85.75,-165 0,-165 0,-145 85.75,-145 85.75,-165"/>
<text text-anchor="middle" x="42.88" y="-151.5" font-family="Helvetica,sans-Serif" font-size="10.00">Engine::System</text>
</a>
</g>
</g>
<!-- Node1 -->
<g id="Node000001" class="node">
<title>Node1</title>
<g id="a_Node000001"><a xlink:href="classEngine_1_1Systems_1_1Collision.html" target="_top" xlink:title=" ">
<polygon fill="white" stroke="#666666" points="270.12,-310 135.62,-310 135.62,-290 270.12,-290 270.12,-310"/>
<text text-anchor="middle" x="202.88" y="-296.5" font-family="Helvetica,sans-Serif" font-size="10.00">Engine::Systems::Collision</text>
</a>
</g>
</g>
<!-- Node0&#45;&gt;Node1 -->
<g id="edge4_Node000000_Node000001" class="edge">
<title>Node0&#45;&gt;Node1</title>
<g id="a_edge4_Node000000_Node000001"><a xlink:title=" ">
<path fill="none" stroke="#63b8ff" d="M51.05,-176.1C61.81,-204.47 84.89,-254.41 121.75,-281 126.5,-284.43 131.79,-287.25 137.32,-289.56"/>
<polygon fill="#63b8ff" stroke="#63b8ff" points="54.38,-175.04 47.7,-166.82 47.8,-177.41 54.38,-175.04"/>
</a>
</g>
</g>
<!-- Node2 -->
<g id="Node000002" class="node">
<title>Node2</title>
<g id="a_Node000002"><a xlink:href="classEngine_1_1Systems_1_1DevConsole.html" target="_top" xlink:title=" ">
<polygon fill="white" stroke="#666666" points="278.38,-272 127.38,-272 127.38,-252 278.38,-252 278.38,-272"/>
<text text-anchor="middle" x="202.88" y="-258.5" font-family="Helvetica,sans-Serif" font-size="10.00">Engine::Systems::DevConsole</text>
</a>
</g>
</g>
<!-- Node0&#45;&gt;Node2 -->
<g id="edge5_Node000000_Node000002" class="edge">
<title>Node0&#45;&gt;Node2</title>
<g id="a_edge5_Node000000_Node000002"><a xlink:title=" ">
<path fill="none" stroke="#63b8ff" d="M56.03,-174.77C69.55,-195.04 93.28,-225.95 121.75,-243 127.51,-246.45 133.86,-249.28 140.39,-251.59"/>
<polygon fill="#63b8ff" stroke="#63b8ff" points="59.09,-173.06 50.74,-166.54 53.21,-176.84 59.09,-173.06"/>
</a>
</g>
</g>
<!-- Node3 -->
<g id="Node000003" class="node">
<title>Node3</title>
<g id="a_Node000003"><a xlink:href="classEngine_1_1Systems_1_1EnemySystem.html" target="_top" xlink:title=" ">
<polygon fill="white" stroke="#666666" points="283.62,-234 122.12,-234 122.12,-214 283.62,-214 283.62,-234"/>
<text text-anchor="middle" x="202.88" y="-220.5" font-family="Helvetica,sans-Serif" font-size="10.00">Engine::Systems::EnemySystem</text>
</a>
</g>
</g>
<!-- Node0&#45;&gt;Node3 -->
<g id="edge6_Node000000_Node000003" class="edge">
<title>Node0&#45;&gt;Node3</title>
<g id="a_edge6_Node000000_Node000003"><a xlink:title=" ">
<path fill="none" stroke="#63b8ff" d="M65.85,-171.99C80.87,-182.84 101.61,-196.44 121.75,-205 129.64,-208.35 138.24,-211.18 146.77,-213.54"/>
<polygon fill="#63b8ff" stroke="#63b8ff" points="68.21,-169.38 58.1,-166.23 64.04,-175 68.21,-169.38"/>
</a>
</g>
</g>
<!-- Node4 -->
<g id="Node000004" class="node">
<title>Node4</title>
<g id="a_Node000004"><a xlink:href="classEngine_1_1Systems_1_1PhysicsNoEngineSystem.html" target="_top" xlink:title=" ">
<polygon fill="white" stroke="#666666" points="269,-196 136.75,-196 136.75,-164 269,-164 269,-196"/>
<text text-anchor="start" x="144.75" y="-182.5" font-family="Helvetica,sans-Serif" font-size="10.00">Engine::Systems::Physics</text>
<text text-anchor="middle" x="202.88" y="-170.5" font-family="Helvetica,sans-Serif" font-size="10.00">NoEngineSystem</text>
</a>
</g>
</g>
<!-- Node0&#45;&gt;Node4 -->
<g id="edge7_Node000000_Node000004" class="edge">
<title>Node0&#45;&gt;Node4</title>
<g id="a_edge7_Node000000_Node000004"><a xlink:title=" ">
<path fill="none" stroke="#63b8ff" d="M97.43,-163.47C109.98,-165.46 123.5,-167.6 136.5,-169.66"/>
<polygon fill="#63b8ff" stroke="#63b8ff" points="98.14,-160.04 87.71,-161.94 97.04,-166.96 98.14,-160.04"/>
</a>
</g>
</g>
<!-- Node5 -->
<g id="Node000005" class="node">
<title>Node5</title>
<g id="a_Node000005"><a xlink:href="classEngine_1_1Systems_1_1PhysicsUsingEngineSystem.html" target="_top" xlink:title=" ">
<polygon fill="white" stroke="#666666" points="269,-146 136.75,-146 136.75,-114 269,-114 269,-146"/>
<text text-anchor="start" x="144.75" y="-132.5" font-family="Helvetica,sans-Serif" font-size="10.00">Engine::Systems::Physics</text>
<text text-anchor="middle" x="202.88" y="-120.5" font-family="Helvetica,sans-Serif" font-size="10.00">UsingEngineSystem</text>
</a>
</g>
</g>
<!-- Node0&#45;&gt;Node5 -->
<g id="edge8_Node000000_Node000005" class="edge">
<title>Node0&#45;&gt;Node5</title>
<g id="a_edge8_Node000000_Node000005"><a xlink:title=" ">
<path fill="none" stroke="#63b8ff" d="M97.43,-146.53C109.98,-144.54 123.5,-142.4 136.5,-140.34"/>
<polygon fill="#63b8ff" stroke="#63b8ff" points="97.04,-143.04 87.71,-148.06 98.14,-149.96 97.04,-143.04"/>
</a>
</g>
</g>
<!-- Node6 -->
<g id="Node000006" class="node">
<title>Node6</title>
<g id="a_Node000006"><a xlink:href="classEngine_1_1Systems_1_1PlayerControl.html" target="_top" xlink:title=" ">
<polygon fill="white" stroke="#666666" points="281,-96 124.75,-96 124.75,-76 281,-76 281,-96"/>
<text text-anchor="middle" x="202.88" y="-82.5" font-family="Helvetica,sans-Serif" font-size="10.00">Engine::Systems::PlayerControl</text>
</a>
</g>
</g>
<!-- Node0&#45;&gt;Node6 -->
<g id="edge9_Node000000_Node000006" class="edge">
<title>Node0&#45;&gt;Node6</title>
<g id="a_edge9_Node000000_Node000006"><a xlink:title=" ">
<path fill="none" stroke="#63b8ff" d="M65.85,-138.01C80.87,-127.16 101.61,-113.56 121.75,-105 129.64,-101.65 138.24,-98.82 146.77,-96.46"/>
<polygon fill="#63b8ff" stroke="#63b8ff" points="64.04,-135 58.1,-143.77 68.21,-140.62 64.04,-135"/>
</a>
</g>
</g>
<!-- Node7 -->
<g id="Node000007" class="node">
<title>Node7</title>
<g id="a_Node000007"><a xlink:href="classEngine_1_1Systems_1_1RenderSystem.html" target="_top" xlink:title=" ">
<polygon fill="white" stroke="#666666" points="284,-58 121.75,-58 121.75,-38 284,-38 284,-58"/>
<text text-anchor="middle" x="202.88" y="-44.5" font-family="Helvetica,sans-Serif" font-size="10.00">Engine::Systems::RenderSystem</text>
</a>
</g>
</g>
<!-- Node0&#45;&gt;Node7 -->
<g id="edge10_Node000000_Node000007" class="edge">
<title>Node0&#45;&gt;Node7</title>
<g id="a_edge10_Node000000_Node000007"><a xlink:title=" ">
<path fill="none" stroke="#63b8ff" d="M56.03,-135.23C69.55,-114.96 93.28,-84.05 121.75,-67 127.51,-63.55 133.86,-60.72 140.39,-58.41"/>
<polygon fill="#63b8ff" stroke="#63b8ff" points="53.21,-133.16 50.74,-143.46 59.09,-136.94 53.21,-133.16"/>
</a>
</g>
</g>
<!-- Node8 -->
<g id="Node000008" class="node">
<title>Node8</title>
<g id="a_Node000008"><a xlink:href="classEngine_1_1Systems_1_1SoundSystem.html" target="_top" xlink:title=" ">
<polygon fill="white" stroke="#666666" points="282.12,-20 123.62,-20 123.62,0 282.12,0 282.12,-20"/>
<text text-anchor="middle" x="202.88" y="-6.5" font-family="Helvetica,sans-Serif" font-size="10.00">Engine::Systems::SoundSystem</text>
</a>
</g>
</g>
<!-- Node0&#45;&gt;Node8 -->
<g id="edge11_Node000000_Node000008" class="edge">
<title>Node0&#45;&gt;Node8</title>
<g id="a_edge11_Node000000_Node000008"><a xlink:title=" ">
<path fill="none" stroke="#63b8ff" d="M51.05,-133.9C61.81,-105.53 84.89,-55.59 121.75,-29 126.5,-25.57 131.79,-22.75 137.32,-20.44"/>
<polygon fill="#63b8ff" stroke="#63b8ff" points="47.8,-132.59 47.7,-143.18 54.38,-134.96 47.8,-132.59"/>
</a>
</g>
</g>
</g>
</svg>
