<?xml version="1.0" encoding="UTF-8" standalone="no"?>
<!DOCTYPE svg PUBLIC "-//W3C//DTD SVG 1.1//EN"
 "http://www.w3.org/Graphics/SVG/1.1/DTD/svg11.dtd">
<!-- Generated by graphviz version 12.1.0 (20240811.2233)
 -->
<!-- Title: Graphical Class Hierarchy Pages: 1 -->
<svg width="268pt" height="192pt"
 viewBox="0.00 0.00 268.00 192.00" xmlns="http://www.w3.org/2000/svg" xmlns:xlink="http://www.w3.org/1999/xlink">
<g id="graph0" class="graph" transform="scale(1 1) rotate(0) translate(4 188)">
<title>Graphical Class Hierarchy</title>
<!-- Node0 -->
<g id="Node000000" class="node">
<title>Node0</title>
<g id="a_Node000000"><a xlink:title=" ">
<polygon fill="#e0e0e0" stroke="#999999" points="77.5,-96 0,-96 0,-76 77.5,-76 77.5,-96"/>
<text text-anchor="middle" x="38.75" y="-82.5" font-family="Helvetica,sans-Serif" font-size="10.00">std::exception</text>
</a>
</g>
</g>
<!-- Node1 -->
<g id="Node000001" class="node">
<title>Node1</title>
<g id="a_Node000001"><a xlink:href="classEngine_1_1ComponentArrayError.html" target="_top" xlink:title=" ">
<polygon fill="white" stroke="#666666" points="260,-184 113.5,-184 113.5,-164 260,-164 260,-184"/>
<text text-anchor="middle" x="186.75" y="-170.5" font-family="Helvetica,sans-Serif" font-size="10.00">Engine::ComponentArrayError</text>
</a>
</g>
</g>
<!-- Node0&#45;&gt;Node1 -->
<g id="edge8_Node000000_Node000001" class="edge">
<title>Node0&#45;&gt;Node1</title>
<g id="a_edge8_Node000000_Node000001"><a xlink:title=" ">
<path fill="none" stroke="#63b8ff" d="M55.01,-104.75C68.74,-120.41 90.28,-142.17 113.5,-155 119.63,-158.39 126.39,-161.19 133.24,-163.5"/>
<polygon fill="#63b8ff" stroke="#63b8ff" points="58,-102.85 48.86,-97.5 52.66,-107.39 58,-102.85"/>
</a>
</g>
</g>
<!-- Node2 -->
<g id="Node000002" class="node">
<title>Node2</title>
<g id="a_Node000002"><a xlink:href="classEngine_1_1ComponentManagerError.html" target="_top" xlink:title=" ">
<polygon fill="white" stroke="#666666" points="256.62,-146 116.88,-146 116.88,-114 256.62,-114 256.62,-146"/>
<text text-anchor="start" x="124.88" y="-132.5" font-family="Helvetica,sans-Serif" font-size="10.00">Engine::ComponentManager</text>
<text text-anchor="middle" x="186.75" y="-120.5" font-family="Helvetica,sans-Serif" font-size="10.00">Error</text>
</a>
</g>
</g>
<!-- Node0&#45;&gt;Node2 -->
<g id="edge9_Node000000_Node000002" class="edge">
<title>Node0&#45;&gt;Node2</title>
<g id="a_edge9_Node000000_Node000002"><a xlink:title=" ">
<path fill="none" stroke="#63b8ff" d="M85.11,-99.67C99.68,-104.06 115.97,-108.97 131.14,-113.54"/>
<polygon fill="#63b8ff" stroke="#63b8ff" points="86.38,-96.4 75.8,-96.86 84.36,-103.1 86.38,-96.4"/>
</a>
</g>
</g>
<!-- Node3 -->
<g id="Node000003" class="node">
<title>Node3</title>
<g id="a_Node000003"><a xlink:href="classEngine_1_1EntityManagerError.html" target="_top" xlink:title=" ">
<polygon fill="white" stroke="#666666" points="254.75,-96 118.75,-96 118.75,-76 254.75,-76 254.75,-96"/>
<text text-anchor="middle" x="186.75" y="-82.5" font-family="Helvetica,sans-Serif" font-size="10.00">Engine::EntityManagerError</text>
</a>
</g>
</g>
<!-- Node0&#45;&gt;Node3 -->
<g id="edge10_Node000000_Node000003" class="edge">
<title>Node0&#45;&gt;Node3</title>
<g id="a_edge10_Node000000_Node000003"><a xlink:title=" ">
<path fill="none" stroke="#63b8ff" d="M89.21,-86C98.55,-86 108.47,-86 118.26,-86"/>
<polygon fill="#63b8ff" stroke="#63b8ff" points="89.24,-82.5 79.24,-86 89.24,-89.5 89.24,-82.5"/>
</a>
</g>
</g>
<!-- Node4 -->
<g id="Node000004" class="node">
<title>Node4</title>
<g id="a_Node000004"><a xlink:href="classEngine_1_1SystemManagerError.html" target="_top" xlink:title=" ">
<polygon fill="white" stroke="#666666" points="258.88,-58 114.62,-58 114.62,-38 258.88,-38 258.88,-58"/>
<text text-anchor="middle" x="186.75" y="-44.5" font-family="Helvetica,sans-Serif" font-size="10.00">Engine::SystemManagerError</text>
</a>
</g>
</g>
<!-- Node0&#45;&gt;Node4 -->
<g id="edge11_Node000000_Node000004" class="edge">
<title>Node0&#45;&gt;Node4</title>
<g id="a_edge11_Node000000_Node000004"><a xlink:title=" ">
<path fill="none" stroke="#63b8ff" d="M88.62,-73.28C107.16,-68.46 128.03,-63.02 145.66,-58.43"/>
<polygon fill="#63b8ff" stroke="#63b8ff" points="87.99,-69.83 79.19,-75.73 89.75,-76.6 87.99,-69.83"/>
</a>
</g>
</g>
<!-- Node5 -->
<g id="Node000005" class="node">
<title>Node5</title>
<g id="a_Node000005"><a xlink:href="classEngine_1_1Systems_1_1SpriteError.html" target="_top" xlink:title=" ">
<polygon fill="white" stroke="#666666" points="258.5,-20 115,-20 115,0 258.5,0 258.5,-20"/>
<text text-anchor="middle" x="186.75" y="-6.5" font-family="Helvetica,sans-Serif" font-size="10.00">Engine::Systems::SpriteError</text>
</a>
</g>
</g>
<!-- Node0&#45;&gt;Node5 -->
<g id="edge12_Node000000_Node000005" class="edge">
<title>Node0&#45;&gt;Node5</title>
<g id="a_edge12_Node000000_Node000005"><a xlink:title=" ">
<path fill="none" stroke="#63b8ff" d="M58.61,-67.95C72.71,-55.37 93.02,-39.09 113.5,-29 120.37,-25.62 127.9,-22.79 135.44,-20.43"/>
<polygon fill="#63b8ff" stroke="#63b8ff" points="56.41,-65.22 51.41,-74.56 61.14,-70.38 56.41,-65.22"/>
</a>
</g>
</g>
</g>
</svg>
