<?xml version="1.0" encoding="UTF-8" standalone="no"?>
<!DOCTYPE svg PUBLIC "-//W3C//DTD SVG 1.1//EN"
 "http://www.w3.org/Graphics/SVG/1.1/DTD/svg11.dtd">
<!-- Generated by graphviz version 12.1.0 (20240811.2233)
 -->
<!-- Title: Graphical Class Hierarchy Pages: 1 -->
<svg width="292pt" height="116pt"
 viewBox="0.00 0.00 292.00 116.00" xmlns="http://www.w3.org/2000/svg" xmlns:xlink="http://www.w3.org/1999/xlink">
<g id="graph0" class="graph" transform="scale(1 1) rotate(0) translate(4 112)">
<title>Graphical Class Hierarchy</title>
<!-- Node0 -->
<g id="Node000000" class="node">
<title>Node0</title>
<g id="a_Node000000"><a xlink:href="classEngine_1_1System.html" target="_top" xlink:title=" ">
<polygon fill="white" stroke="#666666" points="85.75,-58 0,-58 0,-38 85.75,-38 85.75,-58"/>
<text text-anchor="middle" x="42.88" y="-44.5" font-family="Helvetica,sans-Serif" font-size="10.00">Engine::System</text>
</a>
</g>
</g>
<!-- Node1 -->
<g id="Node000001" class="node">
<title>Node1</title>
<g id="a_Node000001"><a xlink:href="classEngine_1_1Systems_1_1PhysicsSystem.html" target="_top" xlink:title=" ">
<polygon fill="white" stroke="#666666" points="269,-108 136.75,-108 136.75,-76 269,-76 269,-108"/>
<text text-anchor="start" x="144.75" y="-94.5" font-family="Helvetica,sans-Serif" font-size="10.00">Engine::Systems::Physics</text>
<text text-anchor="middle" x="202.88" y="-82.5" font-family="Helvetica,sans-Serif" font-size="10.00">System</text>
</a>
</g>
</g>
<!-- Node0&#45;&gt;Node1 -->
<g id="edge2_Node000000_Node000001" class="edge">
<title>Node0&#45;&gt;Node1</title>
<g id="a_edge2_Node000000_Node000001"><a xlink:title=" ">
<path fill="none" stroke="#63b8ff" d="M92.04,-61.41C108.04,-65.87 126.04,-70.88 142.77,-75.54"/>
<polygon fill="#63b8ff" stroke="#63b8ff" points="93.35,-58.14 82.78,-58.83 91.47,-64.89 93.35,-58.14"/>
</a>
</g>
</g>
<!-- Node2 -->
<g id="Node000002" class="node">
<title>Node2</title>
<g id="a_Node000002"><a xlink:href="classEngine_1_1Systems_1_1PlayerControl.html" target="_top" xlink:title=" ">
<polygon fill="white" stroke="#666666" points="281,-58 124.75,-58 124.75,-38 281,-38 281,-58"/>
<text text-anchor="middle" x="202.88" y="-44.5" font-family="Helvetica,sans-Serif" font-size="10.00">Engine::Systems::PlayerControl</text>
</a>
</g>
</g>
<!-- Node0&#45;&gt;Node2 -->
<g id="edge3_Node000000_Node000002" class="edge">
<title>Node0&#45;&gt;Node2</title>
<g id="a_edge3_Node000000_Node000002"><a xlink:title=" ">
<path fill="none" stroke="#63b8ff" d="M97.64,-48C106.25,-48 115.31,-48 124.34,-48"/>
<polygon fill="#63b8ff" stroke="#63b8ff" points="97.73,-44.5 87.73,-48 97.73,-51.5 97.73,-44.5"/>
</a>
</g>
</g>
<!-- Node3 -->
<g id="Node000003" class="node">
<title>Node3</title>
<g id="a_Node000003"><a xlink:href="classEngine_1_1Systems_1_1RenderSystem.html" target="_top" xlink:title=" ">
<polygon fill="white" stroke="#666666" points="284,-20 121.75,-20 121.75,0 284,0 284,-20"/>
<text text-anchor="middle" x="202.88" y="-6.5" font-family="Helvetica,sans-Serif" font-size="10.00">Engine::Systems::RenderSystem</text>
</a>
</g>
</g>
<!-- Node0&#45;&gt;Node3 -->
<g id="edge4_Node000000_Node000003" class="edge">
<title>Node0&#45;&gt;Node3</title>
<g id="a_edge4_Node000000_Node000003"><a xlink:title=" ">
<path fill="none" stroke="#63b8ff" d="M97.01,-34.99C105.29,-32.97 113.75,-30.92 121.75,-29 133.43,-26.19 146.07,-23.18 157.78,-20.4"/>
<polygon fill="#63b8ff" stroke="#63b8ff" points="96.25,-31.57 87.37,-37.34 97.91,-38.37 96.25,-31.57"/>
</a>
</g>
</g>
</g>
</svg>
