<?xml version="1.0" encoding="UTF-8" standalone="no"?>
<!DOCTYPE svg PUBLIC "-//W3C//DTD SVG 1.1//EN"
 "http://www.w3.org/Graphics/SVG/1.1/DTD/svg11.dtd">
<!-- Generated by graphviz version 12.1.0 (20240811.2233)
 -->
<!-- Title: Graphical Class Hierarchy Pages: 1 -->
<svg width="292pt" height="192pt"
 viewBox="0.00 0.00 292.00 192.00" xmlns="http://www.w3.org/2000/svg" xmlns:xlink="http://www.w3.org/1999/xlink">
<g id="graph0" class="graph" transform="scale(1 1) rotate(0) translate(4 188)">
<title>Graphical Class Hierarchy</title>
<!-- Node0 -->
<g id="Node000000" class="node">
<title>Node0</title>
<g id="a_Node000000"><a xlink:href="classEngine_1_1System.html" target="_top" xlink:title=" ">
<polygon fill="white" stroke="#666666" points="85.75,-102 0,-102 0,-82 85.75,-82 85.75,-102"/>
<text text-anchor="middle" x="42.88" y="-88.5" font-family="Helvetica,sans-Serif" font-size="10.00">Engine::System</text>
</a>
</g>
</g>
<!-- Node1 -->
<g id="Node000001" class="node">
<title>Node1</title>
<g id="a_Node000001"><a xlink:href="classEngine_1_1Systems_1_1Collision.html" target="_top" xlink:title=" ">
<polygon fill="white" stroke="#666666" points="270.12,-184 135.62,-184 135.62,-164 270.12,-164 270.12,-184"/>
<text text-anchor="middle" x="202.88" y="-170.5" font-family="Helvetica,sans-Serif" font-size="10.00">Engine::Systems::Collision</text>
</a>
</g>
</g>
<!-- Node0&#45;&gt;Node1 -->
<g id="edge3_Node000000_Node000001" class="edge">
<title>Node0&#45;&gt;Node1</title>
<g id="a_edge3_Node000000_Node000001"><a xlink:title=" ">
<path fill="none" stroke="#63b8ff" d="M61.19,-109.89C75.99,-124.16 98.52,-143.59 121.75,-155 128.68,-158.4 136.25,-161.22 143.88,-163.54"/>
<polygon fill="#63b8ff" stroke="#63b8ff" points="64.06,-107.81 54.49,-103.25 59.13,-112.78 64.06,-107.81"/>
</a>
</g>
</g>
<!-- Node2 -->
<g id="Node000002" class="node">
<title>Node2</title>
<g id="a_Node000002"><a xlink:href="classEngine_1_1Systems_1_1EnemySystem.html" target="_top" xlink:title=" ">
<polygon fill="white" stroke="#666666" points="283.62,-146 122.12,-146 122.12,-126 283.62,-126 283.62,-146"/>
<text text-anchor="middle" x="202.88" y="-132.5" font-family="Helvetica,sans-Serif" font-size="10.00">Engine::Systems::EnemySystem</text>
</a>
</g>
</g>
<!-- Node0&#45;&gt;Node2 -->
<g id="edge4_Node000000_Node000002" class="edge">
<title>Node0&#45;&gt;Node2</title>
<g id="a_edge4_Node000000_Node000002"><a xlink:title=" ">
<path fill="none" stroke="#63b8ff" d="M85.26,-105.95C97,-109.72 109.83,-113.68 121.75,-117 132.49,-119.99 144.13,-122.93 155.11,-125.56"/>
<polygon fill="#63b8ff" stroke="#63b8ff" points="86.44,-102.65 75.85,-102.88 84.27,-109.3 86.44,-102.65"/>
</a>
</g>
</g>
<!-- Node3 -->
<g id="Node000003" class="node">
<title>Node3</title>
<g id="a_Node000003"><a xlink:href="classEngine_1_1Systems_1_1PhysicsSystem.html" target="_top" xlink:title=" ">
<polygon fill="white" stroke="#666666" points="269,-108 136.75,-108 136.75,-76 269,-76 269,-108"/>
<text text-anchor="start" x="144.75" y="-94.5" font-family="Helvetica,sans-Serif" font-size="10.00">Engine::Systems::Physics</text>
<text text-anchor="middle" x="202.88" y="-82.5" font-family="Helvetica,sans-Serif" font-size="10.00">System</text>
</a>
</g>
</g>
<!-- Node0&#45;&gt;Node3 -->
<g id="edge5_Node000000_Node000003" class="edge">
<title>Node0&#45;&gt;Node3</title>
<g id="a_edge5_Node000000_Node000003"><a xlink:title=" ">
<path fill="none" stroke="#63b8ff" d="M97.43,-92C109.98,-92 123.5,-92 136.5,-92"/>
<polygon fill="#63b8ff" stroke="#63b8ff" points="97.73,-88.5 87.73,-92 97.73,-95.5 97.73,-88.5"/>
</a>
</g>
</g>
<!-- Node4 -->
<g id="Node000004" class="node">
<title>Node4</title>
<g id="a_Node000004"><a xlink:href="classEngine_1_1Systems_1_1PlayerControl.html" target="_top" xlink:title=" ">
<polygon fill="white" stroke="#666666" points="281,-58 124.75,-58 124.75,-38 281,-38 281,-58"/>
<text text-anchor="middle" x="202.88" y="-44.5" font-family="Helvetica,sans-Serif" font-size="10.00">Engine::Systems::PlayerControl</text>
</a>
</g>
</g>
<!-- Node0&#45;&gt;Node4 -->
<g id="edge6_Node000000_Node000004" class="edge">
<title>Node0&#45;&gt;Node4</title>
<g id="a_edge6_Node000000_Node000004"><a xlink:title=" ">
<path fill="none" stroke="#63b8ff" d="M85.26,-78.05C97,-74.28 109.83,-70.32 121.75,-67 132.49,-64.01 144.13,-61.07 155.11,-58.44"/>
<polygon fill="#63b8ff" stroke="#63b8ff" points="84.27,-74.7 75.85,-81.12 86.44,-81.35 84.27,-74.7"/>
</a>
</g>
</g>
<!-- Node5 -->
<g id="Node000005" class="node">
<title>Node5</title>
<g id="a_Node000005"><a xlink:href="classEngine_1_1Systems_1_1RenderSystem.html" target="_top" xlink:title=" ">
<polygon fill="white" stroke="#666666" points="284,-20 121.75,-20 121.75,0 284,0 284,-20"/>
<text text-anchor="middle" x="202.88" y="-6.5" font-family="Helvetica,sans-Serif" font-size="10.00">Engine::Systems::RenderSystem</text>
</a>
</g>
</g>
<!-- Node0&#45;&gt;Node5 -->
<g id="edge7_Node000000_Node000005" class="edge">
<title>Node0&#45;&gt;Node5</title>
<g id="a_edge7_Node000000_Node000005"><a xlink:title=" ">
<path fill="none" stroke="#63b8ff" d="M61.19,-74.11C75.99,-59.84 98.52,-40.41 121.75,-29 128.68,-25.6 136.25,-22.78 143.88,-20.46"/>
<polygon fill="#63b8ff" stroke="#63b8ff" points="59.13,-71.22 54.49,-80.75 64.06,-76.19 59.13,-71.22"/>
</a>
</g>
</g>
</g>
</svg>
