<?xml version="1.0" encoding="UTF-8" standalone="no"?>
<!DOCTYPE svg PUBLIC "-//W3C//DTD SVG 1.1//EN"
 "http://www.w3.org/Graphics/SVG/1.1/DTD/svg11.dtd">
<!-- Generated by graphviz version 12.1.0 (20240811.2233)
 -->
<!-- Title: Launch.cpp Pages: 1 -->
<svg width="212pt" height="196pt"
 viewBox="0.00 0.00 212.25 196.00" xmlns="http://www.w3.org/2000/svg" xmlns:xlink="http://www.w3.org/1999/xlink">
<g id="graph0" class="graph" transform="scale(1 1) rotate(0) translate(4 192)">
<title>Launch.cpp</title>
<!-- Node1 -->
<g id="Node000001" class="node">
<title>Node1</title>
<g id="a_Node000001"><a xlink:title=" ">
<polygon fill="#999999" stroke="#666666" points="171.62,-188 105.38,-188 105.38,-168 171.62,-168 171.62,-188"/>
<text text-anchor="middle" x="138.5" y="-174.5" font-family="Helvetica,sans-Serif" font-size="10.00">Launch.cpp</text>
</a>
</g>
</g>
<!-- Node2 -->
<g id="Node000002" class="node">
<title>Node2</title>
<g id="a_Node000002"><a xlink:href="Launch_8hpp.html" target="_top" xlink:title=" ">
<polygon fill="white" stroke="#666666" points="132.62,-132 66.38,-132 66.38,-112 132.62,-112 132.62,-132"/>
<text text-anchor="middle" x="99.5" y="-118.5" font-family="Helvetica,sans-Serif" font-size="10.00">Launch.hpp</text>
</a>
</g>
</g>
<!-- Node1&#45;&gt;Node2 -->
<g id="edge1_Node000001_Node000002" class="edge">
<title>Node1&#45;&gt;Node2</title>
<g id="a_edge1_Node000001_Node000002"><a xlink:title=" ">
<path fill="none" stroke="#63b8ff" d="M131.71,-167.59C126.51,-160.39 119.17,-150.23 112.81,-141.43"/>
<polygon fill="#63b8ff" stroke="#63b8ff" points="115.79,-139.58 107.1,-133.53 110.12,-143.68 115.79,-139.58"/>
</a>
</g>
</g>
<!-- Node6 -->
<g id="Node000006" class="node">
<title>Node6</title>
<g id="a_Node000006"><a xlink:title=" ">
<polygon fill="#e0e0e0" stroke="#999999" points="204.25,-132 150.75,-132 150.75,-112 204.25,-112 204.25,-132"/>
<text text-anchor="middle" x="177.5" y="-118.5" font-family="Helvetica,sans-Serif" font-size="10.00">iostream</text>
</a>
</g>
</g>
<!-- Node1&#45;&gt;Node6 -->
<g id="edge5_Node000001_Node000006" class="edge">
<title>Node1&#45;&gt;Node6</title>
<g id="a_edge5_Node000001_Node000006"><a xlink:title=" ">
<path fill="none" stroke="#63b8ff" d="M145.29,-167.59C150.49,-160.39 157.83,-150.23 164.19,-141.43"/>
<polygon fill="#63b8ff" stroke="#63b8ff" points="166.88,-143.68 169.9,-133.53 161.21,-139.58 166.88,-143.68"/>
</a>
</g>
</g>
<!-- Node3 -->
<g id="Node000003" class="node">
<title>Node3</title>
<g id="a_Node000003"><a xlink:title=" ">
<polygon fill="#e0e0e0" stroke="#999999" points="103,-76 0,-76 0,-56 103,-56 103,-76"/>
<text text-anchor="middle" x="51.5" y="-62.5" font-family="Helvetica,sans-Serif" font-size="10.00">SFML/Graphics.hpp</text>
</a>
</g>
</g>
<!-- Node2&#45;&gt;Node3 -->
<g id="edge2_Node000002_Node000003" class="edge">
<title>Node2&#45;&gt;Node3</title>
<g id="a_edge2_Node000002_Node000003"><a xlink:title=" ">
<path fill="none" stroke="#63b8ff" d="M91.14,-111.59C84.6,-104.24 75.32,-93.8 67.38,-84.87"/>
<polygon fill="#63b8ff" stroke="#63b8ff" points="70.03,-82.58 60.77,-77.43 64.8,-87.23 70.03,-82.58"/>
</a>
</g>
</g>
<!-- Node4 -->
<g id="Node000004" class="node">
<title>Node4</title>
<g id="a_Node000004"><a xlink:href="Utils_8hpp.html" target="_top" xlink:title=" ">
<polygon fill="white" stroke="#666666" points="176,-76 121,-76 121,-56 176,-56 176,-76"/>
<text text-anchor="middle" x="148.5" y="-62.5" font-family="Helvetica,sans-Serif" font-size="10.00">Utils.hpp</text>
</a>
</g>
</g>
<!-- Node2&#45;&gt;Node4 -->
<g id="edge3_Node000002_Node000004" class="edge">
<title>Node2&#45;&gt;Node4</title>
<g id="a_edge3_Node000002_Node000004"><a xlink:title=" ">
<path fill="none" stroke="#63b8ff" d="M108.04,-111.59C114.78,-104.16 124.39,-93.58 132.54,-84.58"/>
<polygon fill="#63b8ff" stroke="#63b8ff" points="134.92,-87.18 139.05,-77.42 129.73,-82.47 134.92,-87.18"/>
</a>
</g>
</g>
<!-- Node5 -->
<g id="Node000005" class="node">
<title>Node5</title>
<g id="a_Node000005"><a xlink:title=" ">
<polygon fill="#e0e0e0" stroke="#999999" points="171.12,-20 125.88,-20 125.88,0 171.12,0 171.12,-20"/>
<text text-anchor="middle" x="148.5" y="-6.5" font-family="Helvetica,sans-Serif" font-size="10.00">cstdint</text>
</a>
</g>
</g>
<!-- Node4&#45;&gt;Node5 -->
<g id="edge4_Node000004_Node000005" class="edge">
<title>Node4&#45;&gt;Node5</title>
<g id="a_edge4_Node000004_Node000005"><a xlink:title=" ">
<path fill="none" stroke="#63b8ff" d="M148.5,-55.59C148.5,-49.01 148.5,-39.96 148.5,-31.73"/>
<polygon fill="#63b8ff" stroke="#63b8ff" points="152,-31.81 148.5,-21.81 145,-31.81 152,-31.81"/>
</a>
</g>
</g>
</g>
</svg>
