<?xml version="1.0" encoding="UTF-8" standalone="no"?>
<!DOCTYPE svg PUBLIC "-//W3C//DTD SVG 1.1//EN"
 "http://www.w3.org/Graphics/SVG/1.1/DTD/svg11.dtd">
<!-- Generated by graphviz version 12.1.0 (20240811.2233)
 -->
<!-- Title: Launch.cpp Pages: 1 -->
<svg width="209pt" height="140pt"
 viewBox="0.00 0.00 209.25 140.00" xmlns="http://www.w3.org/2000/svg" xmlns:xlink="http://www.w3.org/1999/xlink">
<g id="graph0" class="graph" transform="scale(1 1) rotate(0) translate(4 136)">
<title>Launch.cpp</title>
<!-- Node1 -->
<g id="Node000001" class="node">
<title>Node1</title>
<g id="a_Node000001"><a xlink:title=" ">
<polygon fill="#999999" stroke="#666666" points="168.62,-132 102.38,-132 102.38,-112 168.62,-112 168.62,-132"/>
<text text-anchor="middle" x="135.5" y="-118.5" font-family="Helvetica,sans-Serif" font-size="10.00">Launch.cpp</text>
</a>
</g>
</g>
<!-- Node2 -->
<g id="Node000002" class="node">
<title>Node2</title>
<g id="a_Node000002"><a xlink:href="Launch_8hpp.html" target="_top" xlink:title=" ">
<polygon fill="white" stroke="#666666" points="129.62,-76 63.38,-76 63.38,-56 129.62,-56 129.62,-76"/>
<text text-anchor="middle" x="96.5" y="-62.5" font-family="Helvetica,sans-Serif" font-size="10.00">Launch.hpp</text>
</a>
</g>
</g>
<!-- Node1&#45;&gt;Node2 -->
<g id="edge1_Node000001_Node000002" class="edge">
<title>Node1&#45;&gt;Node2</title>
<g id="a_edge1_Node000001_Node000002"><a xlink:title=" ">
<path fill="none" stroke="#63b8ff" d="M128.71,-111.59C123.51,-104.39 116.17,-94.23 109.81,-85.43"/>
<polygon fill="#63b8ff" stroke="#63b8ff" points="112.79,-83.58 104.1,-77.53 107.12,-87.68 112.79,-83.58"/>
</a>
</g>
</g>
<!-- Node5 -->
<g id="Node000005" class="node">
<title>Node5</title>
<g id="a_Node000005"><a xlink:title=" ">
<polygon fill="#e0e0e0" stroke="#999999" points="201.25,-76 147.75,-76 147.75,-56 201.25,-56 201.25,-76"/>
<text text-anchor="middle" x="174.5" y="-62.5" font-family="Helvetica,sans-Serif" font-size="10.00">iostream</text>
</a>
</g>
</g>
<!-- Node1&#45;&gt;Node5 -->
<g id="edge4_Node000001_Node000005" class="edge">
<title>Node1&#45;&gt;Node5</title>
<g id="a_edge4_Node000001_Node000005"><a xlink:title=" ">
<path fill="none" stroke="#63b8ff" d="M142.29,-111.59C147.49,-104.39 154.83,-94.23 161.19,-85.43"/>
<polygon fill="#63b8ff" stroke="#63b8ff" points="163.88,-87.68 166.9,-77.53 158.21,-83.58 163.88,-87.68"/>
</a>
</g>
</g>
<!-- Node3 -->
<g id="Node000003" class="node">
<title>Node3</title>
<g id="a_Node000003"><a xlink:title=" ">
<polygon fill="#e0e0e0" stroke="#999999" points="103,-20 0,-20 0,0 103,0 103,-20"/>
<text text-anchor="middle" x="51.5" y="-6.5" font-family="Helvetica,sans-Serif" font-size="10.00">SFML/Graphics.hpp</text>
</a>
</g>
</g>
<!-- Node2&#45;&gt;Node3 -->
<g id="edge2_Node000002_Node000003" class="edge">
<title>Node2&#45;&gt;Node3</title>
<g id="a_edge2_Node000002_Node000003"><a xlink:title=" ">
<path fill="none" stroke="#63b8ff" d="M88.66,-55.59C82.53,-48.24 73.83,-37.8 66.39,-28.87"/>
<polygon fill="#63b8ff" stroke="#63b8ff" points="69.31,-26.9 60.22,-21.46 63.93,-31.38 69.31,-26.9"/>
</a>
</g>
</g>
<!-- Node4 -->
<g id="Node000004" class="node">
<title>Node4</title>
<g id="a_Node000004"><a xlink:title=" ">
<polygon fill="#e0e0e0" stroke="#999999" points="161.5,-20 121.5,-20 121.5,0 161.5,0 161.5,-20"/>
<text text-anchor="middle" x="141.5" y="-6.5" font-family="Helvetica,sans-Serif" font-size="10.00">string</text>
</a>
</g>
</g>
<!-- Node2&#45;&gt;Node4 -->
<g id="edge3_Node000002_Node000004" class="edge">
<title>Node2&#45;&gt;Node4</title>
<g id="a_edge3_Node000002_Node000004"><a xlink:title=" ">
<path fill="none" stroke="#63b8ff" d="M104.34,-55.59C110.47,-48.24 119.17,-37.8 126.61,-28.87"/>
<polygon fill="#63b8ff" stroke="#63b8ff" points="129.07,-31.38 132.78,-21.46 123.69,-26.9 129.07,-31.38"/>
</a>
</g>
</g>
</g>
</svg>
