<?xml version="1.0" encoding="UTF-8" standalone="no"?>
<!DOCTYPE svg PUBLIC "-//W3C//DTD SVG 1.1//EN"
 "http://www.w3.org/Graphics/SVG/1.1/DTD/svg11.dtd">
<!-- Generated by graphviz version 12.1.0 (20240811.2233)
 -->
<!-- Title: Leaderboard.cpp Pages: 1 -->
<svg width="348pt" height="196pt"
 viewBox="0.00 0.00 348.38 196.00" xmlns="http://www.w3.org/2000/svg" xmlns:xlink="http://www.w3.org/1999/xlink">
<g id="graph0" class="graph" transform="scale(1 1) rotate(0) translate(4 192)">
<title>Leaderboard.cpp</title>
<!-- Node1 -->
<g id="Node000001" class="node">
<title>Node1</title>
<g id="a_Node000001"><a xlink:title=" ">
<polygon fill="#999999" stroke="#666666" points="245.5,-188 157.5,-188 157.5,-168 245.5,-168 245.5,-188"/>
<text text-anchor="middle" x="201.5" y="-174.5" font-family="Helvetica,sans-Serif" font-size="10.00">Leaderboard.cpp</text>
</a>
</g>
</g>
<!-- Node2 -->
<g id="Node000002" class="node">
<title>Node2</title>
<g id="a_Node000002"><a xlink:href="Leaderboard_8hpp.html" target="_top" xlink:title=" ">
<polygon fill="white" stroke="#666666" points="201.5,-132 113.5,-132 113.5,-112 201.5,-112 201.5,-132"/>
<text text-anchor="middle" x="157.5" y="-118.5" font-family="Helvetica,sans-Serif" font-size="10.00">Leaderboard.hpp</text>
</a>
</g>
</g>
<!-- Node1&#45;&gt;Node2 -->
<g id="edge1_Node000001_Node000002" class="edge">
<title>Node1&#45;&gt;Node2</title>
<g id="a_edge1_Node000001_Node000002"><a xlink:title=" ">
<path fill="none" stroke="#63b8ff" d="M193.84,-167.59C187.91,-160.32 179.51,-150.02 172.29,-141.15"/>
<polygon fill="#63b8ff" stroke="#63b8ff" points="175.06,-139.01 166.03,-133.47 169.64,-143.43 175.06,-139.01"/>
</a>
</g>
</g>
<!-- Node10 -->
<g id="Node000010" class="node">
<title>Node10</title>
<g id="a_Node000010"><a xlink:title=" ">
<polygon fill="#e0e0e0" stroke="#999999" points="273.25,-132 219.75,-132 219.75,-112 273.25,-112 273.25,-132"/>
<text text-anchor="middle" x="246.5" y="-118.5" font-family="Helvetica,sans-Serif" font-size="10.00">iostream</text>
</a>
</g>
</g>
<!-- Node1&#45;&gt;Node10 -->
<g id="edge10_Node000001_Node000010" class="edge">
<title>Node1&#45;&gt;Node10</title>
<g id="a_edge10_Node000001_Node000010"><a xlink:title=" ">
<path fill="none" stroke="#63b8ff" d="M209.34,-167.59C215.47,-160.24 224.17,-149.8 231.61,-140.87"/>
<polygon fill="#63b8ff" stroke="#63b8ff" points="234.07,-143.38 237.78,-133.46 228.69,-138.9 234.07,-143.38"/>
</a>
</g>
</g>
<!-- Node3 -->
<g id="Node000003" class="node">
<title>Node3</title>
<g id="a_Node000003"><a xlink:title=" ">
<polygon fill="#e0e0e0" stroke="#999999" points="103,-76 0,-76 0,-56 103,-56 103,-76"/>
<text text-anchor="middle" x="51.5" y="-62.5" font-family="Helvetica,sans-Serif" font-size="10.00">SFML/Graphics.hpp</text>
</a>
</g>
</g>
<!-- Node2&#45;&gt;Node3 -->
<g id="edge2_Node000002_Node000003" class="edge">
<title>Node2&#45;&gt;Node3</title>
<g id="a_edge2_Node000002_Node000003"><a xlink:title=" ">
<path fill="none" stroke="#63b8ff" d="M139.04,-111.59C122.8,-103.32 98.89,-91.14 80.17,-81.6"/>
<polygon fill="#63b8ff" stroke="#63b8ff" points="81.96,-78.59 71.46,-77.17 78.78,-84.82 81.96,-78.59"/>
</a>
</g>
</g>
<!-- Node4 -->
<g id="Node000004" class="node">
<title>Node4</title>
<g id="a_Node000004"><a xlink:title=" ">
<polygon fill="#e0e0e0" stroke="#999999" points="151.5,-20 111.5,-20 111.5,0 151.5,0 151.5,-20"/>
<text text-anchor="middle" x="131.5" y="-6.5" font-family="Helvetica,sans-Serif" font-size="10.00">string</text>
</a>
</g>
</g>
<!-- Node2&#45;&gt;Node4 -->
<g id="edge3_Node000002_Node000004" class="edge">
<title>Node2&#45;&gt;Node4</title>
<g id="a_edge3_Node000002_Node000004"><a xlink:title=" ">
<path fill="none" stroke="#63b8ff" d="M155.28,-111.62C151.1,-93.92 141.96,-55.24 136.3,-31.32"/>
<polygon fill="#63b8ff" stroke="#63b8ff" points="139.77,-30.75 134.06,-21.83 132.95,-32.36 139.77,-30.75"/>
</a>
</g>
</g>
<!-- Node5 -->
<g id="Node000005" class="node">
<title>Node5</title>
<g id="a_Node000005"><a xlink:title=" ">
<polygon fill="#e0e0e0" stroke="#999999" points="209,-76 160,-76 160,-56 209,-56 209,-76"/>
<text text-anchor="middle" x="184.5" y="-62.5" font-family="Helvetica,sans-Serif" font-size="10.00">fstream</text>
</a>
</g>
</g>
<!-- Node2&#45;&gt;Node5 -->
<g id="edge4_Node000002_Node000005" class="edge">
<title>Node2&#45;&gt;Node5</title>
<g id="a_edge4_Node000002_Node000005"><a xlink:title=" ">
<path fill="none" stroke="#63b8ff" d="M162.2,-111.59C165.65,-104.7 170.45,-95.1 174.71,-86.57"/>
<polygon fill="#63b8ff" stroke="#63b8ff" points="177.83,-88.16 179.17,-77.65 171.57,-85.03 177.83,-88.16"/>
</a>
</g>
</g>
<!-- Node6 -->
<g id="Node000006" class="node">
<title>Node6</title>
<g id="a_Node000006"><a xlink:href="Utils_8hpp.html" target="_top" xlink:title=" ">
<polygon fill="white" stroke="#666666" points="282,-76 227,-76 227,-56 282,-56 282,-76"/>
<text text-anchor="middle" x="254.5" y="-62.5" font-family="Helvetica,sans-Serif" font-size="10.00">Utils.hpp</text>
</a>
</g>
</g>
<!-- Node2&#45;&gt;Node6 -->
<g id="edge5_Node000002_Node000006" class="edge">
<title>Node2&#45;&gt;Node6</title>
<g id="a_edge5_Node000002_Node000006"><a xlink:title=" ">
<path fill="none" stroke="#63b8ff" d="M174.4,-111.59C189.05,-103.44 210.52,-91.48 227.55,-82"/>
<polygon fill="#63b8ff" stroke="#63b8ff" points="229.11,-85.14 236.15,-77.22 225.71,-79.02 229.11,-85.14"/>
</a>
</g>
</g>
<!-- Node6&#45;&gt;Node4 -->
<g id="edge7_Node000006_Node000004" class="edge">
<title>Node6&#45;&gt;Node4</title>
<g id="a_edge7_Node000006_Node000004"><a xlink:title=" ">
<path fill="none" stroke="#63b8ff" d="M233.08,-55.59C213.53,-47.01 184.41,-34.23 162.36,-24.55"/>
<polygon fill="#63b8ff" stroke="#63b8ff" points="163.81,-21.36 153.25,-20.55 161,-27.77 163.81,-21.36"/>
</a>
</g>
</g>
<!-- Node7 -->
<g id="Node000007" class="node">
<title>Node7</title>
<g id="a_Node000007"><a xlink:title=" ">
<polygon fill="#e0e0e0" stroke="#999999" points="215.12,-20 169.88,-20 169.88,0 215.12,0 215.12,-20"/>
<text text-anchor="middle" x="192.5" y="-6.5" font-family="Helvetica,sans-Serif" font-size="10.00">cstdint</text>
</a>
</g>
</g>
<!-- Node6&#45;&gt;Node7 -->
<g id="edge6_Node000006_Node000007" class="edge">
<title>Node6&#45;&gt;Node7</title>
<g id="a_edge6_Node000006_Node000007"><a xlink:title=" ">
<path fill="none" stroke="#63b8ff" d="M243.7,-55.59C234.9,-47.93 222.25,-36.91 211.73,-27.75"/>
<polygon fill="#63b8ff" stroke="#63b8ff" points="214.16,-25.22 204.32,-21.29 209.56,-30.5 214.16,-25.22"/>
</a>
</g>
</g>
<!-- Node8 -->
<g id="Node000008" class="node">
<title>Node8</title>
<g id="a_Node000008"><a xlink:title=" ">
<polygon fill="#e0e0e0" stroke="#999999" points="284.12,-20 232.88,-20 232.88,0 284.12,0 284.12,-20"/>
<text text-anchor="middle" x="258.5" y="-6.5" font-family="Helvetica,sans-Serif" font-size="10.00">ostream</text>
</a>
</g>
</g>
<!-- Node6&#45;&gt;Node8 -->
<g id="edge8_Node000006_Node000008" class="edge">
<title>Node6&#45;&gt;Node8</title>
<g id="a_edge8_Node000006_Node000008"><a xlink:title=" ">
<path fill="none" stroke="#63b8ff" d="M255.2,-55.59C255.68,-49.01 256.35,-39.96 256.96,-31.73"/>
<polygon fill="#63b8ff" stroke="#63b8ff" points="260.45,-32.04 257.7,-21.81 253.47,-31.52 260.45,-32.04"/>
</a>
</g>
</g>
<!-- Node9 -->
<g id="Node000009" class="node">
<title>Node9</title>
<g id="a_Node000009"><a xlink:title=" ">
<polygon fill="#e0e0e0" stroke="#999999" points="340.38,-20 302.62,-20 302.62,0 340.38,0 340.38,-20"/>
<text text-anchor="middle" x="321.5" y="-6.5" font-family="Helvetica,sans-Serif" font-size="10.00">array</text>
</a>
</g>
</g>
<!-- Node6&#45;&gt;Node9 -->
<g id="edge9_Node000006_Node000009" class="edge">
<title>Node6&#45;&gt;Node9</title>
<g id="a_edge9_Node000006_Node000009"><a xlink:title=" ">
<path fill="none" stroke="#63b8ff" d="M266.17,-55.59C275.78,-47.85 289.63,-36.69 301.07,-27.47"/>
<polygon fill="#63b8ff" stroke="#63b8ff" points="303.2,-30.25 308.78,-21.25 298.8,-24.8 303.2,-30.25"/>
</a>
</g>
</g>
</g>
</svg>
