<?xml version="1.0" encoding="UTF-8" standalone="no"?>
<!DOCTYPE svg PUBLIC "-//W3C//DTD SVG 1.1//EN"
 "http://www.w3.org/Graphics/SVG/1.1/DTD/svg11.dtd">
<!-- Generated by graphviz version 12.1.0 (20240811.2233)
 -->
<!-- Title: Lobby.cpp Pages: 1 -->
<svg width="251pt" height="196pt"
 viewBox="0.00 0.00 251.25 196.00" xmlns="http://www.w3.org/2000/svg" xmlns:xlink="http://www.w3.org/1999/xlink">
<g id="graph0" class="graph" transform="scale(1 1) rotate(0) translate(4 192)">
<title>Lobby.cpp</title>
<!-- Node1 -->
<g id="Node000001" class="node">
<title>Node1</title>
<g id="a_Node000001"><a xlink:title=" ">
<polygon fill="#999999" stroke="#666666" points="208.62,-188 148.38,-188 148.38,-168 208.62,-168 208.62,-188"/>
<text text-anchor="middle" x="178.5" y="-174.5" font-family="Helvetica,sans-Serif" font-size="10.00">Lobby.cpp</text>
</a>
</g>
</g>
<!-- Node2 -->
<g id="Node000002" class="node">
<title>Node2</title>
<g id="a_Node000002"><a xlink:href="Lobby_8hpp.html" target="_top" xlink:title=" ">
<polygon fill="white" stroke="#666666" points="171.62,-132 111.38,-132 111.38,-112 171.62,-112 171.62,-132"/>
<text text-anchor="middle" x="141.5" y="-118.5" font-family="Helvetica,sans-Serif" font-size="10.00">Lobby.hpp</text>
</a>
</g>
</g>
<!-- Node1&#45;&gt;Node2 -->
<g id="edge1_Node000001_Node000002" class="edge">
<title>Node1&#45;&gt;Node2</title>
<g id="a_edge1_Node000001_Node000002"><a xlink:title=" ">
<path fill="none" stroke="#63b8ff" d="M172.06,-167.59C167.17,-160.47 160.31,-150.45 154.32,-141.72"/>
<polygon fill="#63b8ff" stroke="#63b8ff" points="157.27,-139.82 148.73,-133.55 151.49,-143.77 157.27,-139.82"/>
</a>
</g>
</g>
<!-- Node7 -->
<g id="Node000007" class="node">
<title>Node7</title>
<g id="a_Node000007"><a xlink:title=" ">
<polygon fill="#e0e0e0" stroke="#999999" points="243.25,-132 189.75,-132 189.75,-112 243.25,-112 243.25,-132"/>
<text text-anchor="middle" x="216.5" y="-118.5" font-family="Helvetica,sans-Serif" font-size="10.00">iostream</text>
</a>
</g>
</g>
<!-- Node1&#45;&gt;Node7 -->
<g id="edge6_Node000001_Node000007" class="edge">
<title>Node1&#45;&gt;Node7</title>
<g id="a_edge6_Node000001_Node000007"><a xlink:title=" ">
<path fill="none" stroke="#63b8ff" d="M185.12,-167.59C190.19,-160.39 197.34,-150.23 203.53,-141.43"/>
<polygon fill="#63b8ff" stroke="#63b8ff" points="206.19,-143.73 209.09,-133.54 200.47,-139.7 206.19,-143.73"/>
</a>
</g>
</g>
<!-- Node3 -->
<g id="Node000003" class="node">
<title>Node3</title>
<g id="a_Node000003"><a xlink:title=" ">
<polygon fill="#e0e0e0" stroke="#999999" points="103,-76 0,-76 0,-56 103,-56 103,-76"/>
<text text-anchor="middle" x="51.5" y="-62.5" font-family="Helvetica,sans-Serif" font-size="10.00">SFML/Graphics.hpp</text>
</a>
</g>
</g>
<!-- Node2&#45;&gt;Node3 -->
<g id="edge2_Node000002_Node000003" class="edge">
<title>Node2&#45;&gt;Node3</title>
<g id="a_edge2_Node000002_Node000003"><a xlink:title=" ">
<path fill="none" stroke="#63b8ff" d="M125.82,-111.59C112.36,-103.51 92.68,-91.71 76.96,-82.27"/>
<polygon fill="#63b8ff" stroke="#63b8ff" points="78.97,-79.4 68.6,-77.26 75.37,-85.4 78.97,-79.4"/>
</a>
</g>
</g>
<!-- Node4 -->
<g id="Node000004" class="node">
<title>Node4</title>
<g id="a_Node000004"><a xlink:title=" ">
<polygon fill="#e0e0e0" stroke="#999999" points="161.5,-76 121.5,-76 121.5,-56 161.5,-56 161.5,-76"/>
<text text-anchor="middle" x="141.5" y="-62.5" font-family="Helvetica,sans-Serif" font-size="10.00">string</text>
</a>
</g>
</g>
<!-- Node2&#45;&gt;Node4 -->
<g id="edge3_Node000002_Node000004" class="edge">
<title>Node2&#45;&gt;Node4</title>
<g id="a_edge3_Node000002_Node000004"><a xlink:title=" ">
<path fill="none" stroke="#63b8ff" d="M141.5,-111.59C141.5,-105.01 141.5,-95.96 141.5,-87.73"/>
<polygon fill="#63b8ff" stroke="#63b8ff" points="145,-87.81 141.5,-77.81 138,-87.81 145,-87.81"/>
</a>
</g>
</g>
<!-- Node5 -->
<g id="Node000005" class="node">
<title>Node5</title>
<g id="a_Node000005"><a xlink:href="Utils_8hpp.html" target="_top" xlink:title=" ">
<polygon fill="white" stroke="#666666" points="235,-76 180,-76 180,-56 235,-56 235,-76"/>
<text text-anchor="middle" x="207.5" y="-62.5" font-family="Helvetica,sans-Serif" font-size="10.00">Utils.hpp</text>
</a>
</g>
</g>
<!-- Node2&#45;&gt;Node5 -->
<g id="edge4_Node000002_Node000005" class="edge">
<title>Node2&#45;&gt;Node5</title>
<g id="a_edge4_Node000002_Node000005"><a xlink:title=" ">
<path fill="none" stroke="#63b8ff" d="M153,-111.59C162.46,-103.85 176.1,-92.69 187.37,-83.47"/>
<polygon fill="#63b8ff" stroke="#63b8ff" points="189.44,-86.3 194.96,-77.26 185.01,-80.88 189.44,-86.3"/>
</a>
</g>
</g>
<!-- Node6 -->
<g id="Node000006" class="node">
<title>Node6</title>
<g id="a_Node000006"><a xlink:title=" ">
<polygon fill="#e0e0e0" stroke="#999999" points="230.12,-20 184.88,-20 184.88,0 230.12,0 230.12,-20"/>
<text text-anchor="middle" x="207.5" y="-6.5" font-family="Helvetica,sans-Serif" font-size="10.00">cstdint</text>
</a>
</g>
</g>
<!-- Node5&#45;&gt;Node6 -->
<g id="edge5_Node000005_Node000006" class="edge">
<title>Node5&#45;&gt;Node6</title>
<g id="a_edge5_Node000005_Node000006"><a xlink:title=" ">
<path fill="none" stroke="#63b8ff" d="M207.5,-55.59C207.5,-49.01 207.5,-39.96 207.5,-31.73"/>
<polygon fill="#63b8ff" stroke="#63b8ff" points="211,-31.81 207.5,-21.81 204,-31.81 211,-31.81"/>
</a>
</g>
</g>
</g>
</svg>
