<?xml version="1.0" encoding="UTF-8" standalone="no"?>
<!DOCTYPE svg PUBLIC "-//W3C//DTD SVG 1.1//EN"
 "http://www.w3.org/Graphics/SVG/1.1/DTD/svg11.dtd">
<!-- Generated by graphviz version 12.1.0 (20240811.2233)
 -->
<!-- Title: Lobby.hpp Pages: 1 -->
<svg width="243pt" height="140pt"
 viewBox="0.00 0.00 243.00 140.00" xmlns="http://www.w3.org/2000/svg" xmlns:xlink="http://www.w3.org/1999/xlink">
<g id="graph0" class="graph" transform="scale(1 1) rotate(0) translate(4 136)">
<title>Lobby.hpp</title>
<!-- Node1 -->
<g id="Node000001" class="node">
<title>Node1</title>
<g id="a_Node000001"><a xlink:title=" ">
<polygon fill="#999999" stroke="#666666" points="171.62,-132 111.38,-132 111.38,-112 171.62,-112 171.62,-132"/>
<text text-anchor="middle" x="141.5" y="-118.5" font-family="Helvetica,sans-Serif" font-size="10.00">Lobby.hpp</text>
</a>
</g>
</g>
<!-- Node2 -->
<g id="Node000002" class="node">
<title>Node2</title>
<g id="a_Node000002"><a xlink:title=" ">
<polygon fill="#e0e0e0" stroke="#999999" points="103,-76 0,-76 0,-56 103,-56 103,-76"/>
<text text-anchor="middle" x="51.5" y="-62.5" font-family="Helvetica,sans-Serif" font-size="10.00">SFML/Graphics.hpp</text>
</a>
</g>
</g>
<!-- Node1&#45;&gt;Node2 -->
<g id="edge1_Node000001_Node000002" class="edge">
<title>Node1&#45;&gt;Node2</title>
<g id="a_edge1_Node000001_Node000002"><a xlink:title=" ">
<path fill="none" stroke="#63b8ff" d="M125.82,-111.59C112.36,-103.51 92.68,-91.71 76.96,-82.27"/>
<polygon fill="#63b8ff" stroke="#63b8ff" points="78.97,-79.4 68.6,-77.26 75.37,-85.4 78.97,-79.4"/>
</a>
</g>
</g>
<!-- Node3 -->
<g id="Node000003" class="node">
<title>Node3</title>
<g id="a_Node000003"><a xlink:title=" ">
<polygon fill="#e0e0e0" stroke="#999999" points="161.5,-76 121.5,-76 121.5,-56 161.5,-56 161.5,-76"/>
<text text-anchor="middle" x="141.5" y="-62.5" font-family="Helvetica,sans-Serif" font-size="10.00">string</text>
</a>
</g>
</g>
<!-- Node1&#45;&gt;Node3 -->
<g id="edge2_Node000001_Node000003" class="edge">
<title>Node1&#45;&gt;Node3</title>
<g id="a_edge2_Node000001_Node000003"><a xlink:title=" ">
<path fill="none" stroke="#63b8ff" d="M141.5,-111.59C141.5,-105.01 141.5,-95.96 141.5,-87.73"/>
<polygon fill="#63b8ff" stroke="#63b8ff" points="145,-87.81 141.5,-77.81 138,-87.81 145,-87.81"/>
</a>
</g>
</g>
<!-- Node4 -->
<g id="Node000004" class="node">
<title>Node4</title>
<g id="a_Node000004"><a xlink:href="Utils_8hpp.html" target="_top" xlink:title=" ">
<polygon fill="white" stroke="#666666" points="235,-76 180,-76 180,-56 235,-56 235,-76"/>
<text text-anchor="middle" x="207.5" y="-62.5" font-family="Helvetica,sans-Serif" font-size="10.00">Utils.hpp</text>
</a>
</g>
</g>
<!-- Node1&#45;&gt;Node4 -->
<g id="edge3_Node000001_Node000004" class="edge">
<title>Node1&#45;&gt;Node4</title>
<g id="a_edge3_Node000001_Node000004"><a xlink:title=" ">
<path fill="none" stroke="#63b8ff" d="M153,-111.59C162.46,-103.85 176.1,-92.69 187.37,-83.47"/>
<polygon fill="#63b8ff" stroke="#63b8ff" points="189.44,-86.3 194.96,-77.26 185.01,-80.88 189.44,-86.3"/>
</a>
</g>
</g>
<!-- Node5 -->
<g id="Node000005" class="node">
<title>Node5</title>
<g id="a_Node000005"><a xlink:title=" ">
<polygon fill="#e0e0e0" stroke="#999999" points="230.12,-20 184.88,-20 184.88,0 230.12,0 230.12,-20"/>
<text text-anchor="middle" x="207.5" y="-6.5" font-family="Helvetica,sans-Serif" font-size="10.00">cstdint</text>
</a>
</g>
</g>
<!-- Node4&#45;&gt;Node5 -->
<g id="edge4_Node000004_Node000005" class="edge">
<title>Node4&#45;&gt;Node5</title>
<g id="a_edge4_Node000004_Node000005"><a xlink:title=" ">
<path fill="none" stroke="#63b8ff" d="M207.5,-55.59C207.5,-49.01 207.5,-39.96 207.5,-31.73"/>
<polygon fill="#63b8ff" stroke="#63b8ff" points="211,-31.81 207.5,-21.81 204,-31.81 211,-31.81"/>
</a>
</g>
</g>
</g>
</svg>
