<?xml version="1.0" encoding="UTF-8" standalone="no"?>
<!DOCTYPE svg PUBLIC "-//W3C//DTD SVG 1.1//EN"
 "http://www.w3.org/Graphics/SVG/1.1/DTD/svg11.dtd">
<!-- Generated by graphviz version 12.1.0 (20240811.2233)
 -->
<!-- Title: Locker.cpp Pages: 1 -->
<svg width="208pt" height="140pt"
 viewBox="0.00 0.00 208.25 140.00" xmlns="http://www.w3.org/2000/svg" xmlns:xlink="http://www.w3.org/1999/xlink">
<g id="graph0" class="graph" transform="scale(1 1) rotate(0) translate(4 136)">
<title>Locker.cpp</title>
<!-- Node1 -->
<g id="Node000001" class="node">
<title>Node1</title>
<g id="a_Node000001"><a xlink:title=" ">
<polygon fill="#999999" stroke="#666666" points="166.5,-132 102.5,-132 102.5,-112 166.5,-112 166.5,-132"/>
<text text-anchor="middle" x="134.5" y="-118.5" font-family="Helvetica,sans-Serif" font-size="10.00">Locker.cpp</text>
</a>
</g>
</g>
<!-- Node2 -->
<g id="Node000002" class="node">
<title>Node2</title>
<g id="a_Node000002"><a xlink:href="Locker_8hpp.html" target="_top" xlink:title=" ">
<polygon fill="white" stroke="#666666" points="128.5,-76 64.5,-76 64.5,-56 128.5,-56 128.5,-76"/>
<text text-anchor="middle" x="96.5" y="-62.5" font-family="Helvetica,sans-Serif" font-size="10.00">Locker.hpp</text>
</a>
</g>
</g>
<!-- Node1&#45;&gt;Node2 -->
<g id="edge1_Node000001_Node000002" class="edge">
<title>Node1&#45;&gt;Node2</title>
<g id="a_edge1_Node000001_Node000002"><a xlink:title=" ">
<path fill="none" stroke="#63b8ff" d="M127.88,-111.59C122.81,-104.39 115.66,-94.23 109.47,-85.43"/>
<polygon fill="#63b8ff" stroke="#63b8ff" points="112.53,-83.7 103.91,-77.54 106.81,-87.73 112.53,-83.7"/>
</a>
</g>
</g>
<!-- Node5 -->
<g id="Node000005" class="node">
<title>Node5</title>
<g id="a_Node000005"><a xlink:title=" ">
<polygon fill="#e0e0e0" stroke="#999999" points="200.25,-76 146.75,-76 146.75,-56 200.25,-56 200.25,-76"/>
<text text-anchor="middle" x="173.5" y="-62.5" font-family="Helvetica,sans-Serif" font-size="10.00">iostream</text>
</a>
</g>
</g>
<!-- Node1&#45;&gt;Node5 -->
<g id="edge4_Node000001_Node000005" class="edge">
<title>Node1&#45;&gt;Node5</title>
<g id="a_edge4_Node000001_Node000005"><a xlink:title=" ">
<path fill="none" stroke="#63b8ff" d="M141.29,-111.59C146.49,-104.39 153.83,-94.23 160.19,-85.43"/>
<polygon fill="#63b8ff" stroke="#63b8ff" points="162.88,-87.68 165.9,-77.53 157.21,-83.58 162.88,-87.68"/>
</a>
</g>
</g>
<!-- Node3 -->
<g id="Node000003" class="node">
<title>Node3</title>
<g id="a_Node000003"><a xlink:title=" ">
<polygon fill="#e0e0e0" stroke="#999999" points="103,-20 0,-20 0,0 103,0 103,-20"/>
<text text-anchor="middle" x="51.5" y="-6.5" font-family="Helvetica,sans-Serif" font-size="10.00">SFML/Graphics.hpp</text>
</a>
</g>
</g>
<!-- Node2&#45;&gt;Node3 -->
<g id="edge2_Node000002_Node000003" class="edge">
<title>Node2&#45;&gt;Node3</title>
<g id="a_edge2_Node000002_Node000003"><a xlink:title=" ">
<path fill="none" stroke="#63b8ff" d="M88.66,-55.59C82.53,-48.24 73.83,-37.8 66.39,-28.87"/>
<polygon fill="#63b8ff" stroke="#63b8ff" points="69.31,-26.9 60.22,-21.46 63.93,-31.38 69.31,-26.9"/>
</a>
</g>
</g>
<!-- Node4 -->
<g id="Node000004" class="node">
<title>Node4</title>
<g id="a_Node000004"><a xlink:title=" ">
<polygon fill="#e0e0e0" stroke="#999999" points="161.5,-20 121.5,-20 121.5,0 161.5,0 161.5,-20"/>
<text text-anchor="middle" x="141.5" y="-6.5" font-family="Helvetica,sans-Serif" font-size="10.00">string</text>
</a>
</g>
</g>
<!-- Node2&#45;&gt;Node4 -->
<g id="edge3_Node000002_Node000004" class="edge">
<title>Node2&#45;&gt;Node4</title>
<g id="a_edge3_Node000002_Node000004"><a xlink:title=" ">
<path fill="none" stroke="#63b8ff" d="M104.34,-55.59C110.47,-48.24 119.17,-37.8 126.61,-28.87"/>
<polygon fill="#63b8ff" stroke="#63b8ff" points="129.07,-31.38 132.78,-21.46 123.69,-26.9 129.07,-31.38"/>
</a>
</g>
</g>
</g>
</svg>
