<?xml version="1.0" encoding="UTF-8" standalone="no"?>
<!DOCTYPE svg PUBLIC "-//W3C//DTD SVG 1.1//EN"
 "http://www.w3.org/Graphics/SVG/1.1/DTD/svg11.dtd">
<!-- Generated by graphviz version 12.1.0 (20240811.2233)
 -->
<!-- Title: Log.hpp Pages: 1 -->
<svg width="428pt" height="84pt"
 viewBox="0.00 0.00 428.12 84.00" xmlns="http://www.w3.org/2000/svg" xmlns:xlink="http://www.w3.org/1999/xlink">
<g id="graph0" class="graph" transform="scale(1 1) rotate(0) translate(4 80)">
<title>Log.hpp</title>
<!-- Node1 -->
<g id="Node000001" class="node">
<title>Node1</title>
<g id="a_Node000001"><a xlink:title=" ">
<polygon fill="#999999" stroke="#666666" points="222.5,-76 172,-76 172,-56 222.5,-56 222.5,-76"/>
<text text-anchor="middle" x="197.25" y="-62.5" font-family="Helvetica,sans-Serif" font-size="10.00">Log.hpp</text>
</a>
</g>
</g>
<!-- Node2 -->
<g id="Node000002" class="node">
<title>Node2</title>
<g id="a_Node000002"><a xlink:href="Log_8cpp.html" target="_top" xlink:title=" ">
<polygon fill="white" stroke="#666666" points="50.5,-20 0,-20 0,0 50.5,0 50.5,-20"/>
<text text-anchor="middle" x="25.25" y="-6.5" font-family="Helvetica,sans-Serif" font-size="10.00">Log.cpp</text>
</a>
</g>
</g>
<!-- Node1&#45;&gt;Node2 -->
<g id="edge1_Node000001_Node000002" class="edge">
<title>Node1&#45;&gt;Node2</title>
<g id="a_edge1_Node000001_Node000002"><a xlink:title=" ">
<path fill="none" stroke="#63b8ff" d="M161.28,-53.71C128.21,-43.32 80,-28.19 50.73,-19"/>
<polygon fill="#63b8ff" stroke="#63b8ff" points="159.84,-56.92 170.43,-56.58 161.93,-50.24 159.84,-56.92"/>
</a>
</g>
</g>
<!-- Node3 -->
<g id="Node000003" class="node">
<title>Node3</title>
<g id="a_Node000003"><a xlink:href="Room_8cpp.html" target="_top" xlink:title=" ">
<polygon fill="white" stroke="#666666" points="129.75,-20 68.75,-20 68.75,0 129.75,0 129.75,-20"/>
<text text-anchor="middle" x="99.25" y="-6.5" font-family="Helvetica,sans-Serif" font-size="10.00">Room.cpp</text>
</a>
</g>
</g>
<!-- Node1&#45;&gt;Node3 -->
<g id="edge2_Node000001_Node000003" class="edge">
<title>Node1&#45;&gt;Node3</title>
<g id="a_edge2_Node000001_Node000003"><a xlink:title=" ">
<path fill="none" stroke="#63b8ff" d="M170.17,-50.08C153,-40.62 131.3,-28.66 116.45,-20.48"/>
<polygon fill="#63b8ff" stroke="#63b8ff" points="168.41,-53.1 178.85,-54.86 171.78,-46.97 168.41,-53.1"/>
</a>
</g>
</g>
<!-- Node4 -->
<g id="Node000004" class="node">
<title>Node4</title>
<g id="a_Node000004"><a xlink:href="RoomManager_8cpp.html" target="_top" xlink:title=" ">
<polygon fill="white" stroke="#666666" points="246.5,-20 148,-20 148,0 246.5,0 246.5,-20"/>
<text text-anchor="middle" x="197.25" y="-6.5" font-family="Helvetica,sans-Serif" font-size="10.00">RoomManager.cpp</text>
</a>
</g>
</g>
<!-- Node1&#45;&gt;Node4 -->
<g id="edge3_Node000001_Node000004" class="edge">
<title>Node1&#45;&gt;Node4</title>
<g id="a_edge3_Node000001_Node000004"><a xlink:title=" ">
<path fill="none" stroke="#63b8ff" d="M197.25,-44.13C197.25,-35.9 197.25,-26.85 197.25,-20.3"/>
<polygon fill="#63b8ff" stroke="#63b8ff" points="193.75,-44.08 197.25,-54.08 200.75,-44.08 193.75,-44.08"/>
</a>
</g>
</g>
<!-- Node5 -->
<g id="Node000005" class="node">
<title>Node5</title>
<g id="a_Node000005"><a xlink:href="UdpServer_8cpp.html" target="_top" xlink:title=" ">
<polygon fill="white" stroke="#666666" points="345.88,-20 264.62,-20 264.62,0 345.88,0 345.88,-20"/>
<text text-anchor="middle" x="305.25" y="-6.5" font-family="Helvetica,sans-Serif" font-size="10.00">UdpServer.cpp</text>
</a>
</g>
</g>
<!-- Node1&#45;&gt;Node5 -->
<g id="edge4_Node000001_Node000005" class="edge">
<title>Node1&#45;&gt;Node5</title>
<g id="a_edge4_Node000001_Node000005"><a xlink:title=" ">
<path fill="none" stroke="#63b8ff" d="M226.29,-50.48C245.34,-40.96 269.7,-28.78 286.29,-20.48"/>
<polygon fill="#63b8ff" stroke="#63b8ff" points="224.79,-47.31 217.42,-54.92 227.93,-53.58 224.79,-47.31"/>
</a>
</g>
</g>
<!-- Node6 -->
<g id="Node000006" class="node">
<title>Node6</title>
<g id="a_Node000006"><a xlink:href="Server_2src_2main_8cpp.html" target="_top" xlink:title=" ">
<polygon fill="white" stroke="#666666" points="420.12,-20 364.38,-20 364.38,0 420.12,0 420.12,-20"/>
<text text-anchor="middle" x="392.25" y="-6.5" font-family="Helvetica,sans-Serif" font-size="10.00">main.cpp</text>
</a>
</g>
</g>
<!-- Node1&#45;&gt;Node6 -->
<g id="edge5_Node000001_Node000006" class="edge">
<title>Node1&#45;&gt;Node6</title>
<g id="a_edge5_Node000001_Node000006"><a xlink:title=" ">
<path fill="none" stroke="#63b8ff" d="M233.74,-54.89C271.45,-44.45 329.51,-28.37 363.91,-18.85"/>
<polygon fill="#63b8ff" stroke="#63b8ff" points="232.9,-51.49 224.2,-57.54 234.77,-58.24 232.9,-51.49"/>
</a>
</g>
</g>
</g>
</svg>
