<?xml version="1.0" encoding="UTF-8" standalone="no"?>
<!DOCTYPE svg PUBLIC "-//W3C//DTD SVG 1.1//EN"
 "http://www.w3.org/Graphics/SVG/1.1/DTD/svg11.dtd">
<!-- Generated by graphviz version 12.1.0 (20240811.2233)
 -->
<!-- Title: Mediator.cpp Pages: 1 -->
<svg width="886pt" height="308pt"
 viewBox="0.00 0.00 885.64 308.00" xmlns="http://www.w3.org/2000/svg" xmlns:xlink="http://www.w3.org/1999/xlink">
<g id="graph0" class="graph" transform="scale(1 1) rotate(0) translate(4 304)">
<title>Mediator.cpp</title>
<!-- Node1 -->
<g id="Node000001" class="node">
<title>Node1</title>
<g id="a_Node000001"><a xlink:title=" ">
<polygon fill="#999999" stroke="#666666" points="378.37,-300 306.12,-300 306.12,-280 378.37,-280 378.37,-300"/>
<text text-anchor="middle" x="342.24" y="-286.5" font-family="Helvetica,sans-Serif" font-size="10.00">Mediator.cpp</text>
</a>
</g>
</g>
<!-- Node2 -->
<g id="Node000002" class="node">
<title>Node2</title>
<g id="a_Node000002"><a xlink:href="Mediator_8hpp.html" target="_top" xlink:title=" ">
<polygon fill="white" stroke="#666666" points="378.37,-244 306.12,-244 306.12,-224 378.37,-224 378.37,-244"/>
<text text-anchor="middle" x="342.24" y="-230.5" font-family="Helvetica,sans-Serif" font-size="10.00">Mediator.hpp</text>
</a>
</g>
</g>
<!-- Node1&#45;&gt;Node2 -->
<g id="edge1_Node000001_Node000002" class="edge">
<title>Node1&#45;&gt;Node2</title>
<g id="a_edge1_Node000001_Node000002"><a xlink:title=" ">
<path fill="none" stroke="#63b8ff" d="M342.24,-279.59C342.24,-273.01 342.24,-263.96 342.24,-255.73"/>
<polygon fill="#63b8ff" stroke="#63b8ff" points="345.74,-255.81 342.24,-245.81 338.74,-255.81 345.74,-255.81"/>
</a>
</g>
</g>
<!-- Node3 -->
<g id="Node000003" class="node">
<title>Node3</title>
<g id="a_Node000003"><a xlink:title=" ">
<polygon fill="#e0e0e0" stroke="#999999" points="73.99,-76 20.49,-76 20.49,-56 73.99,-56 73.99,-76"/>
<text text-anchor="middle" x="47.24" y="-62.5" font-family="Helvetica,sans-Serif" font-size="10.00">iostream</text>
</a>
</g>
</g>
<!-- Node2&#45;&gt;Node3 -->
<g id="edge2_Node000002_Node000003" class="edge">
<title>Node2&#45;&gt;Node3</title>
<g id="a_edge2_Node000002_Node000003"><a xlink:title=" ">
<path fill="none" stroke="#63b8ff" d="M305.7,-230.22C238.47,-224.62 98.15,-210.57 55.24,-188 24.91,-172.05 14.92,-163.84 2.24,-132 -4.99,-113.84 9.76,-95.76 24.26,-83.3"/>
<polygon fill="#63b8ff" stroke="#63b8ff" points="26.22,-86.22 31.88,-77.26 21.87,-80.73 26.22,-86.22"/>
</a>
</g>
</g>
<!-- Node4 -->
<g id="Node000004" class="node">
<title>Node4</title>
<g id="a_Node000004"><a xlink:title=" ">
<polygon fill="#e0e0e0" stroke="#999999" points="456.87,-132 405.62,-132 405.62,-112 456.87,-112 456.87,-132"/>
<text text-anchor="middle" x="431.24" y="-118.5" font-family="Helvetica,sans-Serif" font-size="10.00">memory</text>
</a>
</g>
</g>
<!-- Node2&#45;&gt;Node4 -->
<g id="edge3_Node000002_Node000004" class="edge">
<title>Node2&#45;&gt;Node4</title>
<g id="a_edge3_Node000002_Node000004"><a xlink:title=" ">
<path fill="none" stroke="#63b8ff" d="M364.88,-223.63C380.33,-216.14 400.13,-204.2 412.24,-188 421.94,-175.02 426.71,-157.18 429.04,-143.47"/>
<polygon fill="#63b8ff" stroke="#63b8ff" points="432.47,-144.18 430.36,-133.8 425.54,-143.24 432.47,-144.18"/>
</a>
</g>
</g>
<!-- Node5 -->
<g id="Node000005" class="node">
<title>Node5</title>
<g id="a_Node000005"><a xlink:title=" ">
<polygon fill="#e0e0e0" stroke="#999999" points="262.74,-188 219.74,-188 219.74,-168 262.74,-168 262.74,-188"/>
<text text-anchor="middle" x="241.24" y="-174.5" font-family="Helvetica,sans-Serif" font-size="10.00">vector</text>
</a>
</g>
</g>
<!-- Node2&#45;&gt;Node5 -->
<g id="edge4_Node000002_Node000005" class="edge">
<title>Node2&#45;&gt;Node5</title>
<g id="a_edge4_Node000002_Node000005"><a xlink:title=" ">
<path fill="none" stroke="#63b8ff" d="M324.65,-223.59C309.32,-215.4 286.82,-203.37 269.06,-193.87"/>
<polygon fill="#63b8ff" stroke="#63b8ff" points="270.78,-190.82 260.31,-189.19 267.48,-196.99 270.78,-190.82"/>
</a>
</g>
</g>
<!-- Node6 -->
<g id="Node000006" class="node">
<title>Node6</title>
<g id="a_Node000006"><a xlink:href="EntityManager_8hpp.html" target="_top" xlink:title=" ">
<polygon fill="white" stroke="#666666" points="162.12,-188 64.37,-188 64.37,-168 162.12,-168 162.12,-188"/>
<text text-anchor="middle" x="113.24" y="-174.5" font-family="Helvetica,sans-Serif" font-size="10.00">EntityManager.hpp</text>
</a>
</g>
</g>
<!-- Node2&#45;&gt;Node6 -->
<g id="edge5_Node000002_Node000006" class="edge">
<title>Node2&#45;&gt;Node6</title>
<g id="a_edge5_Node000002_Node000006"><a xlink:title=" ">
<path fill="none" stroke="#63b8ff" d="M305.7,-224.38C267.57,-215.39 207.46,-201.22 164.56,-191.1"/>
<polygon fill="#63b8ff" stroke="#63b8ff" points="165.52,-187.73 154.98,-188.84 163.91,-194.54 165.52,-187.73"/>
</a>
</g>
</g>
<!-- Node12 -->
<g id="Node000012" class="node">
<title>Node12</title>
<g id="a_Node000012"><a xlink:href="ComponentManager_8hpp.html" target="_top" xlink:title=" ">
<polygon fill="white" stroke="#666666" points="403.49,-188 280.99,-188 280.99,-168 403.49,-168 403.49,-188"/>
<text text-anchor="middle" x="342.24" y="-174.5" font-family="Helvetica,sans-Serif" font-size="10.00">ComponentManager.hpp</text>
</a>
</g>
</g>
<!-- Node2&#45;&gt;Node12 -->
<g id="edge11_Node000002_Node000012" class="edge">
<title>Node2&#45;&gt;Node12</title>
<g id="a_edge11_Node000002_Node000012"><a xlink:title=" ">
<path fill="none" stroke="#63b8ff" d="M342.24,-223.59C342.24,-217.01 342.24,-207.96 342.24,-199.73"/>
<polygon fill="#63b8ff" stroke="#63b8ff" points="345.74,-199.81 342.24,-189.81 338.74,-199.81 345.74,-199.81"/>
</a>
</g>
</g>
<!-- Node18 -->
<g id="Node000018" class="node">
<title>Node18</title>
<g id="a_Node000018"><a xlink:href="SystemManager_8hpp.html" target="_top" xlink:title=" ">
<polygon fill="white" stroke="#666666" points="581.24,-188 475.24,-188 475.24,-168 581.24,-168 581.24,-188"/>
<text text-anchor="middle" x="528.24" y="-174.5" font-family="Helvetica,sans-Serif" font-size="10.00">SystemManager.hpp</text>
</a>
</g>
</g>
<!-- Node2&#45;&gt;Node18 -->
<g id="edge23_Node000002_Node000018" class="edge">
<title>Node2&#45;&gt;Node18</title>
<g id="a_edge23_Node000002_Node000018"><a xlink:title=" ">
<path fill="none" stroke="#63b8ff" d="M374.64,-223.59C405.13,-214.74 451,-201.43 484.68,-191.65"/>
<polygon fill="#63b8ff" stroke="#63b8ff" points="485.51,-195.05 494.14,-188.9 483.56,-188.33 485.51,-195.05"/>
</a>
</g>
</g>
<!-- Node21 -->
<g id="Node000021" class="node">
<title>Node21</title>
<g id="a_Node000021"><a xlink:href="EventManager_8hpp.html" target="_top" xlink:title=" ">
<polygon fill="white" stroke="#666666" points="812.12,-188 714.37,-188 714.37,-168 812.12,-168 812.12,-188"/>
<text text-anchor="middle" x="763.24" y="-174.5" font-family="Helvetica,sans-Serif" font-size="10.00">EventManager.hpp</text>
</a>
</g>
</g>
<!-- Node2&#45;&gt;Node21 -->
<g id="edge31_Node000002_Node000021" class="edge">
<title>Node2&#45;&gt;Node21</title>
<g id="a_edge31_Node000002_Node000021"><a xlink:title=" ">
<path fill="none" stroke="#63b8ff" d="M378.87,-228.3C451.41,-219 613.99,-198.14 702.69,-186.77"/>
<polygon fill="#63b8ff" stroke="#63b8ff" points="702.94,-190.26 712.42,-185.52 702.05,-183.32 702.94,-190.26"/>
</a>
</g>
</g>
<!-- Node7 -->
<g id="Node000007" class="node">
<title>Node7</title>
<g id="a_Node000007"><a xlink:title=" ">
<polygon fill="#e0e0e0" stroke="#999999" points="53.37,-132 11.12,-132 11.12,-112 53.37,-112 53.37,-132"/>
<text text-anchor="middle" x="32.24" y="-118.5" font-family="Helvetica,sans-Serif" font-size="10.00">queue</text>
</a>
</g>
</g>
<!-- Node6&#45;&gt;Node7 -->
<g id="edge6_Node000006_Node000007" class="edge">
<title>Node6&#45;&gt;Node7</title>
<g id="a_edge6_Node000006_Node000007"><a xlink:title=" ">
<path fill="none" stroke="#63b8ff" d="M99.13,-167.59C87.24,-159.67 69.98,-148.16 55.97,-138.82"/>
<polygon fill="#63b8ff" stroke="#63b8ff" points="57.98,-135.95 47.72,-133.32 54.1,-141.78 57.98,-135.95"/>
</a>
</g>
</g>
<!-- Node8 -->
<g id="Node000008" class="node">
<title>Node8</title>
<g id="a_Node000008"><a xlink:title=" ">
<polygon fill="#e0e0e0" stroke="#999999" points="109.12,-132 71.37,-132 71.37,-112 109.12,-112 109.12,-132"/>
<text text-anchor="middle" x="90.24" y="-118.5" font-family="Helvetica,sans-Serif" font-size="10.00">array</text>
</a>
</g>
</g>
<!-- Node6&#45;&gt;Node8 -->
<g id="edge7_Node000006_Node000008" class="edge">
<title>Node6&#45;&gt;Node8</title>
<g id="a_edge7_Node000006_Node000008"><a xlink:title=" ">
<path fill="none" stroke="#63b8ff" d="M109.24,-167.59C106.33,-160.78 102.3,-151.32 98.7,-142.86"/>
<polygon fill="#63b8ff" stroke="#63b8ff" points="101.93,-141.52 94.8,-133.69 95.49,-144.26 101.93,-141.52"/>
</a>
</g>
</g>
<!-- Node9 -->
<g id="Node000009" class="node">
<title>Node9</title>
<g id="a_Node000009"><a xlink:href="Entity_8hpp.html" target="_top" xlink:title=" ">
<polygon fill="white" stroke="#666666" points="212.99,-76 153.49,-76 153.49,-56 212.99,-56 212.99,-76"/>
<text text-anchor="middle" x="183.24" y="-62.5" font-family="Helvetica,sans-Serif" font-size="10.00">Entity.hpp</text>
</a>
</g>
</g>
<!-- Node6&#45;&gt;Node9 -->
<g id="edge8_Node000006_Node000009" class="edge">
<title>Node6&#45;&gt;Node9</title>
<g id="a_edge8_Node000006_Node000009"><a xlink:title=" ">
<path fill="none" stroke="#63b8ff" d="M119.21,-167.62C130.68,-149.6 156,-109.81 171.14,-86.02"/>
<polygon fill="#63b8ff" stroke="#63b8ff" points="174.06,-87.95 176.48,-77.63 168.16,-84.19 174.06,-87.95"/>
</a>
</g>
</g>
<!-- Node10 -->
<g id="Node000010" class="node">
<title>Node10</title>
<g id="a_Node000010"><a xlink:title=" ">
<polygon fill="#e0e0e0" stroke="#999999" points="486.87,-20 441.62,-20 441.62,0 486.87,0 486.87,-20"/>
<text text-anchor="middle" x="464.24" y="-6.5" font-family="Helvetica,sans-Serif" font-size="10.00">cstdint</text>
</a>
</g>
</g>
<!-- Node9&#45;&gt;Node10 -->
<g id="edge9_Node000009_Node000010" class="edge">
<title>Node9&#45;&gt;Node10</title>
<g id="a_edge9_Node000009_Node000010"><a xlink:title=" ">
<path fill="none" stroke="#63b8ff" d="M213.45,-57.89C216.42,-57.24 219.39,-56.6 222.24,-56 295.94,-40.65 382.81,-25.12 429.82,-16.92"/>
<polygon fill="#63b8ff" stroke="#63b8ff" points="430.41,-20.37 439.66,-15.21 429.21,-13.47 430.41,-20.37"/>
</a>
</g>
</g>
<!-- Node11 -->
<g id="Node000011" class="node">
<title>Node11</title>
<g id="a_Node000011"><a xlink:title=" ">
<polygon fill="#e0e0e0" stroke="#999999" points="203.24,-20 163.24,-20 163.24,0 203.24,0 203.24,-20"/>
<text text-anchor="middle" x="183.24" y="-6.5" font-family="Helvetica,sans-Serif" font-size="10.00">bitset</text>
</a>
</g>
</g>
<!-- Node9&#45;&gt;Node11 -->
<g id="edge10_Node000009_Node000011" class="edge">
<title>Node9&#45;&gt;Node11</title>
<g id="a_edge10_Node000009_Node000011"><a xlink:title=" ">
<path fill="none" stroke="#63b8ff" d="M183.24,-55.59C183.24,-49.01 183.24,-39.96 183.24,-31.73"/>
<polygon fill="#63b8ff" stroke="#63b8ff" points="186.74,-31.81 183.24,-21.81 179.74,-31.81 186.74,-31.81"/>
</a>
</g>
</g>
<!-- Node12&#45;&gt;Node4 -->
<g id="edge14_Node000012_Node000004" class="edge">
<title>Node12&#45;&gt;Node4</title>
<g id="a_edge14_Node000012_Node000004"><a xlink:title=" ">
<path fill="none" stroke="#63b8ff" d="M357.75,-167.59C371.06,-159.51 390.52,-147.71 406.07,-138.27"/>
<polygon fill="#63b8ff" stroke="#63b8ff" points="407.59,-141.44 414.32,-133.26 403.96,-135.46 407.59,-141.44"/>
</a>
</g>
</g>
<!-- Node12&#45;&gt;Node9 -->
<g id="edge16_Node000012_Node000009" class="edge">
<title>Node12&#45;&gt;Node9</title>
<g id="a_edge16_Node000012_Node000009"><a xlink:title=" ">
<path fill="none" stroke="#63b8ff" d="M291.69,-167.53C254.15,-159.46 207.28,-146.82 194.24,-132 183.71,-120.03 181.38,-101.83 181.45,-87.73"/>
<polygon fill="#63b8ff" stroke="#63b8ff" points="184.95,-87.91 181.94,-77.75 177.95,-87.56 184.95,-87.91"/>
</a>
</g>
</g>
<!-- Node13 -->
<g id="Node000013" class="node">
<title>Node13</title>
<g id="a_Node000013"><a xlink:title=" ">
<polygon fill="#e0e0e0" stroke="#999999" points="521.62,-76 438.87,-76 438.87,-56 521.62,-56 521.62,-76"/>
<text text-anchor="middle" x="480.24" y="-62.5" font-family="Helvetica,sans-Serif" font-size="10.00">unordered_map</text>
</a>
</g>
</g>
<!-- Node12&#45;&gt;Node13 -->
<g id="edge12_Node000012_Node000013" class="edge">
<title>Node12&#45;&gt;Node13</title>
<g id="a_edge12_Node000012_Node000013"><a xlink:title=" ">
<path fill="none" stroke="#63b8ff" d="M348.29,-167.63C357.4,-154.05 375.79,-128.7 396.24,-112 411.49,-99.55 430.7,-88.96 446.9,-81.18"/>
<polygon fill="#63b8ff" stroke="#63b8ff" points="448.06,-84.5 455.67,-77.12 445.12,-78.15 448.06,-84.5"/>
</a>
</g>
</g>
<!-- Node14 -->
<g id="Node000014" class="node">
<title>Node14</title>
<g id="a_Node000014"><a xlink:title=" ">
<polygon fill="#e0e0e0" stroke="#999999" points="515.24,-132 475.24,-132 475.24,-112 515.24,-112 515.24,-132"/>
<text text-anchor="middle" x="495.24" y="-118.5" font-family="Helvetica,sans-Serif" font-size="10.00">string</text>
</a>
</g>
</g>
<!-- Node12&#45;&gt;Node14 -->
<g id="edge13_Node000012_Node000014" class="edge">
<title>Node12&#45;&gt;Node14</title>
<g id="a_edge13_Node000012_Node000014"><a xlink:title=" ">
<path fill="none" stroke="#63b8ff" d="M368.89,-167.59C395.38,-158.25 435.99,-143.91 463.98,-134.03"/>
<polygon fill="#63b8ff" stroke="#63b8ff" points="465.07,-137.36 473.34,-130.73 462.74,-130.76 465.07,-137.36"/>
</a>
</g>
</g>
<!-- Node15 -->
<g id="Node000015" class="node">
<title>Node15</title>
<g id="a_Node000015"><a xlink:title=" ">
<polygon fill="#e0e0e0" stroke="#999999" points="368.62,-76 309.87,-76 309.87,-56 368.62,-56 368.62,-76"/>
<text text-anchor="middle" x="339.24" y="-62.5" font-family="Helvetica,sans-Serif" font-size="10.00">stdexcept</text>
</a>
</g>
</g>
<!-- Node12&#45;&gt;Node15 -->
<g id="edge15_Node000012_Node000015" class="edge">
<title>Node12&#45;&gt;Node15</title>
<g id="a_edge15_Node000012_Node000015"><a xlink:title=" ">
<path fill="none" stroke="#63b8ff" d="M341.99,-167.62C341.51,-150.01 340.46,-111.59 339.81,-87.65"/>
<polygon fill="#63b8ff" stroke="#63b8ff" points="343.31,-87.77 339.54,-77.87 336.31,-87.96 343.31,-87.77"/>
</a>
</g>
</g>
<!-- Node16 -->
<g id="Node000016" class="node">
<title>Node16</title>
<g id="a_Node000016"><a xlink:href="ComponentArray_8hpp.html" target="_top" xlink:title=" ">
<polygon fill="white" stroke="#666666" points="310.99,-132 203.49,-132 203.49,-112 310.99,-112 310.99,-132"/>
<text text-anchor="middle" x="257.24" y="-118.5" font-family="Helvetica,sans-Serif" font-size="10.00">ComponentArray.hpp</text>
</a>
</g>
</g>
<!-- Node12&#45;&gt;Node16 -->
<g id="edge17_Node000012_Node000016" class="edge">
<title>Node12&#45;&gt;Node16</title>
<g id="a_edge17_Node000012_Node000016"><a xlink:title=" ">
<path fill="none" stroke="#63b8ff" d="M327.44,-167.59C314.84,-159.59 296.49,-147.93 281.71,-138.54"/>
<polygon fill="#63b8ff" stroke="#63b8ff" points="283.76,-135.7 273.44,-133.29 280.01,-141.61 283.76,-135.7"/>
</a>
</g>
</g>
<!-- Node16&#45;&gt;Node3 -->
<g id="edge21_Node000016_Node000003" class="edge">
<title>Node16&#45;&gt;Node3</title>
<g id="a_edge21_Node000016_Node000003"><a xlink:title=" ">
<path fill="none" stroke="#63b8ff" d="M220.66,-111.59C182.69,-101.83 123.58,-86.63 85.14,-76.74"/>
<polygon fill="#63b8ff" stroke="#63b8ff" points="86.42,-73.46 75.86,-74.36 84.67,-80.24 86.42,-73.46"/>
</a>
</g>
</g>
<!-- Node16&#45;&gt;Node9 -->
<g id="edge22_Node000016_Node000009" class="edge">
<title>Node16&#45;&gt;Node9</title>
<g id="a_edge22_Node000016_Node000009"><a xlink:title=" ">
<path fill="none" stroke="#63b8ff" d="M244.35,-111.59C233.53,-103.7 217.83,-92.24 205.06,-82.92"/>
<polygon fill="#63b8ff" stroke="#63b8ff" points="207.35,-80.26 197.21,-77.19 203.22,-85.91 207.35,-80.26"/>
</a>
</g>
</g>
<!-- Node16&#45;&gt;Node13 -->
<g id="edge19_Node000016_Node000013" class="edge">
<title>Node16&#45;&gt;Node13</title>
<g id="a_edge19_Node000016_Node000013"><a xlink:title=" ">
<path fill="none" stroke="#63b8ff" d="M296.34,-111.53C333.56,-102.52 389.75,-88.91 430.22,-79.11"/>
<polygon fill="#63b8ff" stroke="#63b8ff" points="430.82,-82.57 439.72,-76.81 429.17,-75.77 430.82,-82.57"/>
</a>
</g>
</g>
<!-- Node16&#45;&gt;Node15 -->
<g id="edge20_Node000016_Node000015" class="edge">
<title>Node16&#45;&gt;Node15</title>
<g id="a_edge20_Node000016_Node000015"><a xlink:title=" ">
<path fill="none" stroke="#63b8ff" d="M271.53,-111.59C283.68,-103.59 301.38,-91.93 315.64,-82.54"/>
<polygon fill="#63b8ff" stroke="#63b8ff" points="317.16,-85.73 323.58,-77.31 313.31,-79.89 317.16,-85.73"/>
</a>
</g>
</g>
<!-- Node17 -->
<g id="Node000017" class="node">
<title>Node17</title>
<g id="a_Node000017"><a xlink:title=" ">
<polygon fill="#e0e0e0" stroke="#999999" points="289.24,-76 231.24,-76 231.24,-56 289.24,-56 289.24,-76"/>
<text text-anchor="middle" x="260.24" y="-62.5" font-family="Helvetica,sans-Serif" font-size="10.00">exception</text>
</a>
</g>
</g>
<!-- Node16&#45;&gt;Node17 -->
<g id="edge18_Node000016_Node000017" class="edge">
<title>Node16&#45;&gt;Node17</title>
<g id="a_edge18_Node000016_Node000017"><a xlink:title=" ">
<path fill="none" stroke="#63b8ff" d="M257.76,-111.59C258.13,-105.01 258.63,-95.96 259.09,-87.73"/>
<polygon fill="#63b8ff" stroke="#63b8ff" points="262.58,-87.99 259.64,-77.81 255.59,-87.6 262.58,-87.99"/>
</a>
</g>
</g>
<!-- Node18&#45;&gt;Node4 -->
<g id="edge26_Node000018_Node000004" class="edge">
<title>Node18&#45;&gt;Node4</title>
<g id="a_edge26_Node000018_Node000004"><a xlink:title=" ">
<path fill="none" stroke="#63b8ff" d="M511.35,-167.59C496.69,-159.44 475.22,-147.48 458.2,-138"/>
<polygon fill="#63b8ff" stroke="#63b8ff" points="460.03,-135.02 449.59,-133.22 456.63,-141.14 460.03,-135.02"/>
</a>
</g>
</g>
<!-- Node18&#45;&gt;Node13 -->
<g id="edge24_Node000018_Node000013" class="edge">
<title>Node18&#45;&gt;Node13</title>
<g id="a_edge24_Node000018_Node000013"><a xlink:title=" ">
<path fill="none" stroke="#63b8ff" d="M581.61,-167.87C623.14,-158.36 670.31,-140.76 648.24,-112 634.16,-93.65 576.79,-81.15 532.97,-74.07"/>
<polygon fill="#63b8ff" stroke="#63b8ff" points="533.79,-70.65 523.37,-72.58 532.71,-77.57 533.79,-70.65"/>
</a>
</g>
</g>
<!-- Node18&#45;&gt;Node14 -->
<g id="edge25_Node000018_Node000014" class="edge">
<title>Node18&#45;&gt;Node14</title>
<g id="a_edge25_Node000018_Node000014"><a xlink:title=" ">
<path fill="none" stroke="#63b8ff" d="M522.49,-167.59C518.19,-160.55 512.15,-150.67 506.85,-142"/>
<polygon fill="#63b8ff" stroke="#63b8ff" points="509.91,-140.3 501.71,-133.59 503.94,-143.95 509.91,-140.3"/>
</a>
</g>
</g>
<!-- Node18&#45;&gt;Node15 -->
<g id="edge27_Node000018_Node000015" class="edge">
<title>Node18&#45;&gt;Node15</title>
<g id="a_edge27_Node000018_Node000015"><a xlink:title=" ">
<path fill="none" stroke="#63b8ff" d="M530.74,-167.8C533.9,-153.98 537.45,-127.78 524.24,-112 506.02,-90.22 428.91,-77.4 380.18,-71.33"/>
<polygon fill="#63b8ff" stroke="#63b8ff" points="380.6,-67.86 370.25,-70.15 379.77,-74.81 380.6,-67.86"/>
</a>
</g>
</g>
<!-- Node19 -->
<g id="Node000019" class="node">
<title>Node19</title>
<g id="a_Node000019"><a xlink:href="System_8hpp.html" target="_top" xlink:title=" ">
<polygon fill="white" stroke="#666666" points="639.49,-132 570.99,-132 570.99,-112 639.49,-112 639.49,-132"/>
<text text-anchor="middle" x="605.24" y="-118.5" font-family="Helvetica,sans-Serif" font-size="10.00">System.hpp</text>
</a>
</g>
</g>
<!-- Node18&#45;&gt;Node19 -->
<g id="edge28_Node000018_Node000019" class="edge">
<title>Node18&#45;&gt;Node19</title>
<g id="a_edge28_Node000018_Node000019"><a xlink:title=" ">
<path fill="none" stroke="#63b8ff" d="M541.65,-167.59C552.85,-159.74 569.05,-148.38 582.3,-139.09"/>
<polygon fill="#63b8ff" stroke="#63b8ff" points="584.31,-141.96 590.49,-133.35 580.29,-136.22 584.31,-141.96"/>
</a>
</g>
</g>
<!-- Node19&#45;&gt;Node9 -->
<g id="edge30_Node000019_Node000009" class="edge">
<title>Node19&#45;&gt;Node9</title>
<g id="a_edge30_Node000019_Node000009"><a xlink:title=" ">
<path fill="none" stroke="#63b8ff" d="M570.69,-117.16C488.96,-108.05 286.53,-85.3 224.66,-76.1"/>
<polygon fill="#63b8ff" stroke="#63b8ff" points="225.33,-72.67 214.9,-74.54 224.23,-79.58 225.33,-72.67"/>
</a>
</g>
</g>
<!-- Node20 -->
<g id="Node000020" class="node">
<title>Node20</title>
<g id="a_Node000020"><a xlink:title=" ">
<polygon fill="#e0e0e0" stroke="#999999" points="619.99,-76 590.49,-76 590.49,-56 619.99,-56 619.99,-76"/>
<text text-anchor="middle" x="605.24" y="-62.5" font-family="Helvetica,sans-Serif" font-size="10.00">set</text>
</a>
</g>
</g>
<!-- Node19&#45;&gt;Node20 -->
<g id="edge29_Node000019_Node000020" class="edge">
<title>Node19&#45;&gt;Node20</title>
<g id="a_edge29_Node000019_Node000020"><a xlink:title=" ">
<path fill="none" stroke="#63b8ff" d="M605.24,-111.59C605.24,-105.01 605.24,-95.96 605.24,-87.73"/>
<polygon fill="#63b8ff" stroke="#63b8ff" points="608.74,-87.81 605.24,-77.81 601.74,-87.81 608.74,-87.81"/>
</a>
</g>
</g>
<!-- Node22 -->
<g id="Node000022" class="node">
<title>Node22</title>
<g id="a_Node000022"><a xlink:href="Event_8hpp.html" target="_top" xlink:title=" ">
<polygon fill="white" stroke="#666666" points="755.37,-132 695.12,-132 695.12,-112 755.37,-112 755.37,-132"/>
<text text-anchor="middle" x="725.24" y="-118.5" font-family="Helvetica,sans-Serif" font-size="10.00">Event.hpp</text>
</a>
</g>
</g>
<!-- Node21&#45;&gt;Node22 -->
<g id="edge32_Node000021_Node000022" class="edge">
<title>Node21&#45;&gt;Node22</title>
<g id="a_edge32_Node000021_Node000022"><a xlink:title=" ">
<path fill="none" stroke="#63b8ff" d="M756.62,-167.59C751.56,-160.39 744.41,-150.23 738.21,-141.43"/>
<polygon fill="#63b8ff" stroke="#63b8ff" points="741.27,-139.7 732.66,-133.54 735.55,-143.73 741.27,-139.7"/>
</a>
</g>
</g>
<!-- Node24 -->
<g id="Node000024" class="node">
<title>Node24</title>
<g id="a_Node000024"><a xlink:title=" ">
<polygon fill="#e0e0e0" stroke="#999999" points="831.24,-132 773.24,-132 773.24,-112 831.24,-112 831.24,-132"/>
<text text-anchor="middle" x="802.24" y="-118.5" font-family="Helvetica,sans-Serif" font-size="10.00">functional</text>
</a>
</g>
</g>
<!-- Node21&#45;&gt;Node24 -->
<g id="edge36_Node000021_Node000024" class="edge">
<title>Node21&#45;&gt;Node24</title>
<g id="a_edge36_Node000021_Node000024"><a xlink:title=" ">
<path fill="none" stroke="#63b8ff" d="M770.04,-167.59C775.24,-160.39 782.57,-150.23 788.93,-141.43"/>
<polygon fill="#63b8ff" stroke="#63b8ff" points="791.62,-143.68 794.64,-133.53 785.95,-139.58 791.62,-143.68"/>
</a>
</g>
</g>
<!-- Node25 -->
<g id="Node000025" class="node">
<title>Node25</title>
<g id="a_Node000025"><a xlink:title=" ">
<polygon fill="#e0e0e0" stroke="#999999" points="877.64,-132 848.84,-132 848.84,-112 877.64,-112 877.64,-132"/>
<text text-anchor="middle" x="863.24" y="-118.5" font-family="Helvetica,sans-Serif" font-size="10.00">list</text>
</a>
</g>
</g>
<!-- Node21&#45;&gt;Node25 -->
<g id="edge37_Node000021_Node000025" class="edge">
<title>Node21&#45;&gt;Node25</title>
<g id="a_edge37_Node000021_Node000025"><a xlink:title=" ">
<path fill="none" stroke="#63b8ff" d="M780.66,-167.59C796.68,-158.95 820.59,-146.03 838.57,-136.32"/>
<polygon fill="#63b8ff" stroke="#63b8ff" points="840.15,-139.45 847.29,-131.61 836.83,-133.29 840.15,-139.45"/>
</a>
</g>
</g>
<!-- Node22&#45;&gt;Node10 -->
<g id="edge33_Node000022_Node000010" class="edge">
<title>Node22&#45;&gt;Node10</title>
<g id="a_edge33_Node000022_Node000010"><a xlink:title=" ">
<path fill="none" stroke="#63b8ff" d="M714.16,-111.68C697.01,-97.7 662.53,-71.29 629.24,-56 586.16,-36.21 532.63,-23.6 498.45,-16.91"/>
<polygon fill="#63b8ff" stroke="#63b8ff" points="499.17,-13.49 488.7,-15.07 497.88,-20.37 499.17,-13.49"/>
</a>
</g>
</g>
<!-- Node22&#45;&gt;Node13 -->
<g id="edge34_Node000022_Node000013" class="edge">
<title>Node22&#45;&gt;Node13</title>
<g id="a_edge34_Node000022_Node000013"><a xlink:title=" ">
<path fill="none" stroke="#63b8ff" d="M694.71,-114.27C654.25,-105.35 582.24,-89.48 532.91,-78.61"/>
<polygon fill="#63b8ff" stroke="#63b8ff" points="533.82,-75.23 523.3,-76.49 532.32,-82.06 533.82,-75.23"/>
</a>
</g>
</g>
<!-- Node23 -->
<g id="Node000023" class="node">
<title>Node23</title>
<g id="a_Node000023"><a xlink:title=" ">
<polygon fill="#e0e0e0" stroke="#999999" points="741.12,-76 709.37,-76 709.37,-56 741.12,-56 741.12,-76"/>
<text text-anchor="middle" x="725.24" y="-62.5" font-family="Helvetica,sans-Serif" font-size="10.00">any</text>
</a>
</g>
</g>
<!-- Node22&#45;&gt;Node23 -->
<g id="edge35_Node000022_Node000023" class="edge">
<title>Node22&#45;&gt;Node23</title>
<g id="a_edge35_Node000022_Node000023"><a xlink:title=" ">
<path fill="none" stroke="#63b8ff" d="M725.24,-111.59C725.24,-105.01 725.24,-95.96 725.24,-87.73"/>
<polygon fill="#63b8ff" stroke="#63b8ff" points="728.74,-87.81 725.24,-77.81 721.74,-87.81 728.74,-87.81"/>
</a>
</g>
</g>
</g>
</svg>
