<?xml version="1.0" encoding="UTF-8" standalone="no"?>
<!DOCTYPE svg PUBLIC "-//W3C//DTD SVG 1.1//EN"
 "http://www.w3.org/Graphics/SVG/1.1/DTD/svg11.dtd">
<!-- Generated by graphviz version 12.1.0 (20240811.2233)
 -->
<!-- Title: Mediator.cpp Pages: 1 -->
<svg width="800pt" height="308pt"
 viewBox="0.00 0.00 800.12 308.00" xmlns="http://www.w3.org/2000/svg" xmlns:xlink="http://www.w3.org/1999/xlink">
<g id="graph0" class="graph" transform="scale(1 1) rotate(0) translate(4 304)">
<title>Mediator.cpp</title>
<!-- Node1 -->
<g id="Node000001" class="node">
<title>Node1</title>
<g id="a_Node000001"><a xlink:title=" ">
<polygon fill="#999999" stroke="#666666" points="451.25,-300 379,-300 379,-280 451.25,-280 451.25,-300"/>
<text text-anchor="middle" x="415.12" y="-286.5" font-family="Helvetica,sans-Serif" font-size="10.00">Mediator.cpp</text>
</a>
</g>
</g>
<!-- Node2 -->
<g id="Node000002" class="node">
<title>Node2</title>
<g id="a_Node000002"><a xlink:href="Mediator_8hpp.html" target="_top" xlink:title=" ">
<polygon fill="white" stroke="#666666" points="451.25,-244 379,-244 379,-224 451.25,-224 451.25,-244"/>
<text text-anchor="middle" x="415.12" y="-230.5" font-family="Helvetica,sans-Serif" font-size="10.00">Mediator.hpp</text>
</a>
</g>
</g>
<!-- Node1&#45;&gt;Node2 -->
<g id="edge1_Node000001_Node000002" class="edge">
<title>Node1&#45;&gt;Node2</title>
<g id="a_edge1_Node000001_Node000002"><a xlink:title=" ">
<path fill="none" stroke="#63b8ff" d="M415.12,-279.59C415.12,-273.01 415.12,-263.96 415.12,-255.73"/>
<polygon fill="#63b8ff" stroke="#63b8ff" points="418.63,-255.81 415.13,-245.81 411.63,-255.81 418.63,-255.81"/>
</a>
</g>
</g>
<!-- Node3 -->
<g id="Node000003" class="node">
<title>Node3</title>
<g id="a_Node000003"><a xlink:title=" ">
<polygon fill="#e0e0e0" stroke="#999999" points="465.75,-132 414.5,-132 414.5,-112 465.75,-112 465.75,-132"/>
<text text-anchor="middle" x="440.12" y="-118.5" font-family="Helvetica,sans-Serif" font-size="10.00">memory</text>
</a>
</g>
</g>
<!-- Node2&#45;&gt;Node3 -->
<g id="edge2_Node000002_Node000003" class="edge">
<title>Node2&#45;&gt;Node3</title>
<g id="a_edge2_Node000002_Node000003"><a xlink:title=" ">
<path fill="none" stroke="#63b8ff" d="M417.26,-223.62C421.28,-205.92 430.07,-167.24 435.51,-143.32"/>
<polygon fill="#63b8ff" stroke="#63b8ff" points="438.86,-144.36 437.66,-133.83 432.03,-142.81 438.86,-144.36"/>
</a>
</g>
</g>
<!-- Node4 -->
<g id="Node000004" class="node">
<title>Node4</title>
<g id="a_Node000004"><a xlink:href="EntityManager_8hpp.html" target="_top" xlink:title=" ">
<polygon fill="white" stroke="#666666" points="152,-188 54.25,-188 54.25,-168 152,-168 152,-188"/>
<text text-anchor="middle" x="103.12" y="-174.5" font-family="Helvetica,sans-Serif" font-size="10.00">EntityManager.hpp</text>
</a>
</g>
</g>
<!-- Node2&#45;&gt;Node4 -->
<g id="edge3_Node000002_Node000004" class="edge">
<title>Node2&#45;&gt;Node4</title>
<g id="a_edge3_Node000002_Node000004"><a xlink:title=" ">
<path fill="none" stroke="#63b8ff" d="M378.72,-226.7C325.88,-217.55 227.27,-200.49 163.45,-189.44"/>
<polygon fill="#63b8ff" stroke="#63b8ff" points="164.29,-186.03 153.84,-187.78 163.1,-192.93 164.29,-186.03"/>
</a>
</g>
</g>
<!-- Node10 -->
<g id="Node000010" class="node">
<title>Node10</title>
<g id="a_Node000010"><a xlink:href="ComponentManager_8hpp.html" target="_top" xlink:title=" ">
<polygon fill="white" stroke="#666666" points="387.38,-188 264.88,-188 264.88,-168 387.38,-168 387.38,-188"/>
<text text-anchor="middle" x="326.12" y="-174.5" font-family="Helvetica,sans-Serif" font-size="10.00">ComponentManager.hpp</text>
</a>
</g>
</g>
<!-- Node2&#45;&gt;Node10 -->
<g id="edge9_Node000002_Node000010" class="edge">
<title>Node2&#45;&gt;Node10</title>
<g id="a_edge9_Node000002_Node000010"><a xlink:title=" ">
<path fill="none" stroke="#63b8ff" d="M399.62,-223.59C386.3,-215.51 366.85,-203.71 351.3,-194.27"/>
<polygon fill="#63b8ff" stroke="#63b8ff" points="353.41,-191.46 343.04,-189.26 349.78,-197.44 353.41,-191.46"/>
</a>
</g>
</g>
<!-- Node15 -->
<g id="Node000015" class="node">
<title>Node15</title>
<g id="a_Node000015"><a xlink:href="SystemManager_8hpp.html" target="_top" xlink:title=" ">
<polygon fill="white" stroke="#666666" points="549.12,-188 443.12,-188 443.12,-168 549.12,-168 549.12,-188"/>
<text text-anchor="middle" x="496.12" y="-174.5" font-family="Helvetica,sans-Serif" font-size="10.00">SystemManager.hpp</text>
</a>
</g>
</g>
<!-- Node2&#45;&gt;Node15 -->
<g id="edge18_Node000002_Node000015" class="edge">
<title>Node2&#45;&gt;Node15</title>
<g id="a_edge18_Node000002_Node000015"><a xlink:title=" ">
<path fill="none" stroke="#63b8ff" d="M429.23,-223.59C441.12,-215.67 458.39,-204.16 472.4,-194.82"/>
<polygon fill="#63b8ff" stroke="#63b8ff" points="474.27,-197.78 480.65,-189.32 470.38,-191.95 474.27,-197.78"/>
</a>
</g>
</g>
<!-- Node18 -->
<g id="Node000018" class="node">
<title>Node18</title>
<g id="a_Node000018"><a xlink:href="EventManager_8hpp.html" target="_top" xlink:title=" ">
<polygon fill="white" stroke="#666666" points="703,-188 605.25,-188 605.25,-168 703,-168 703,-188"/>
<text text-anchor="middle" x="654.12" y="-174.5" font-family="Helvetica,sans-Serif" font-size="10.00">EventManager.hpp</text>
</a>
</g>
</g>
<!-- Node2&#45;&gt;Node18 -->
<g id="edge25_Node000002_Node000018" class="edge">
<title>Node2&#45;&gt;Node18</title>
<g id="a_edge25_Node000002_Node000018"><a xlink:title=" ">
<path fill="none" stroke="#63b8ff" d="M451.68,-224.74C491.59,-215.72 555.83,-201.21 601.23,-190.95"/>
<polygon fill="#63b8ff" stroke="#63b8ff" points="601.88,-194.39 610.86,-188.77 600.34,-187.56 601.88,-194.39"/>
</a>
</g>
</g>
<!-- Node5 -->
<g id="Node000005" class="node">
<title>Node5</title>
<g id="a_Node000005"><a xlink:title=" ">
<polygon fill="#e0e0e0" stroke="#999999" points="42.25,-132 0,-132 0,-112 42.25,-112 42.25,-132"/>
<text text-anchor="middle" x="21.12" y="-118.5" font-family="Helvetica,sans-Serif" font-size="10.00">queue</text>
</a>
</g>
</g>
<!-- Node4&#45;&gt;Node5 -->
<g id="edge4_Node000004_Node000005" class="edge">
<title>Node4&#45;&gt;Node5</title>
<g id="a_edge4_Node000004_Node000005"><a xlink:title=" ">
<path fill="none" stroke="#63b8ff" d="M88.84,-167.59C76.69,-159.59 58.99,-147.93 44.73,-138.54"/>
<polygon fill="#63b8ff" stroke="#63b8ff" points="47.06,-135.89 36.78,-133.31 43.21,-141.73 47.06,-135.89"/>
</a>
</g>
</g>
<!-- Node6 -->
<g id="Node000006" class="node">
<title>Node6</title>
<g id="a_Node000006"><a xlink:title=" ">
<polygon fill="#e0e0e0" stroke="#999999" points="98,-132 60.25,-132 60.25,-112 98,-112 98,-132"/>
<text text-anchor="middle" x="79.12" y="-118.5" font-family="Helvetica,sans-Serif" font-size="10.00">array</text>
</a>
</g>
</g>
<!-- Node4&#45;&gt;Node6 -->
<g id="edge5_Node000004_Node000006" class="edge">
<title>Node4&#45;&gt;Node6</title>
<g id="a_edge5_Node000004_Node000006"><a xlink:title=" ">
<path fill="none" stroke="#63b8ff" d="M98.94,-167.59C95.88,-160.7 91.61,-151.1 87.82,-142.57"/>
<polygon fill="#63b8ff" stroke="#63b8ff" points="91.13,-141.4 83.87,-133.68 84.74,-144.24 91.13,-141.4"/>
</a>
</g>
</g>
<!-- Node7 -->
<g id="Node000007" class="node">
<title>Node7</title>
<g id="a_Node000007"><a xlink:href="Entity_8hpp.html" target="_top" xlink:title=" ">
<polygon fill="white" stroke="#666666" points="235.88,-76 176.38,-76 176.38,-56 235.88,-56 235.88,-76"/>
<text text-anchor="middle" x="206.12" y="-62.5" font-family="Helvetica,sans-Serif" font-size="10.00">Entity.hpp</text>
</a>
</g>
</g>
<!-- Node4&#45;&gt;Node7 -->
<g id="edge6_Node000004_Node000007" class="edge">
<title>Node4&#45;&gt;Node7</title>
<g id="a_edge6_Node000004_Node000007"><a xlink:title=" ">
<path fill="none" stroke="#63b8ff" d="M108.8,-167.58C117,-154.37 133.05,-129.97 150.12,-112 160.12,-101.48 172.6,-91.22 183.24,-83.17"/>
<polygon fill="#63b8ff" stroke="#63b8ff" points="185.18,-86.09 191.16,-77.34 181.03,-80.45 185.18,-86.09"/>
</a>
</g>
</g>
<!-- Node8 -->
<g id="Node000008" class="node">
<title>Node8</title>
<g id="a_Node000008"><a xlink:title=" ">
<polygon fill="#e0e0e0" stroke="#999999" points="495.75,-20 450.5,-20 450.5,0 495.75,0 495.75,-20"/>
<text text-anchor="middle" x="473.12" y="-6.5" font-family="Helvetica,sans-Serif" font-size="10.00">cstdint</text>
</a>
</g>
</g>
<!-- Node7&#45;&gt;Node8 -->
<g id="edge7_Node000007_Node000008" class="edge">
<title>Node7&#45;&gt;Node8</title>
<g id="a_edge7_Node000007_Node000008"><a xlink:title=" ">
<path fill="none" stroke="#63b8ff" d="M236.34,-57.93C239.3,-57.26 242.27,-56.61 245.12,-56 313.76,-41.31 394.39,-25.81 439.03,-17.38"/>
<polygon fill="#63b8ff" stroke="#63b8ff" points="439.43,-20.86 448.61,-15.57 438.14,-13.98 439.43,-20.86"/>
</a>
</g>
</g>
<!-- Node9 -->
<g id="Node000009" class="node">
<title>Node9</title>
<g id="a_Node000009"><a xlink:title=" ">
<polygon fill="#e0e0e0" stroke="#999999" points="226.12,-20 186.12,-20 186.12,0 226.12,0 226.12,-20"/>
<text text-anchor="middle" x="206.12" y="-6.5" font-family="Helvetica,sans-Serif" font-size="10.00">bitset</text>
</a>
</g>
</g>
<!-- Node7&#45;&gt;Node9 -->
<g id="edge8_Node000007_Node000009" class="edge">
<title>Node7&#45;&gt;Node9</title>
<g id="a_edge8_Node000007_Node000009"><a xlink:title=" ">
<path fill="none" stroke="#63b8ff" d="M206.12,-55.59C206.12,-49.01 206.12,-39.96 206.12,-31.73"/>
<polygon fill="#63b8ff" stroke="#63b8ff" points="209.63,-31.81 206.13,-21.81 202.63,-31.81 209.63,-31.81"/>
</a>
</g>
</g>
<!-- Node10&#45;&gt;Node3 -->
<g id="edge12_Node000010_Node000003" class="edge">
<title>Node10&#45;&gt;Node3</title>
<g id="a_edge12_Node000010_Node000003"><a xlink:title=" ">
<path fill="none" stroke="#63b8ff" d="M345.98,-167.59C363.61,-159.24 389.63,-146.92 409.85,-137.34"/>
<polygon fill="#63b8ff" stroke="#63b8ff" points="411.21,-140.57 418.74,-133.13 408.21,-134.25 411.21,-140.57"/>
</a>
</g>
</g>
<!-- Node10&#45;&gt;Node7 -->
<g id="edge13_Node000010_Node000007" class="edge">
<title>Node10&#45;&gt;Node7</title>
<g id="a_edge13_Node000010_Node000007"><a xlink:title=" ">
<path fill="none" stroke="#63b8ff" d="M264.67,-173.9C234.99,-168.93 201.83,-157.5 183.12,-132 172.87,-118.02 181.58,-99.05 191.08,-85.22"/>
<polygon fill="#63b8ff" stroke="#63b8ff" points="193.75,-87.49 196.97,-77.4 188.15,-83.28 193.75,-87.49"/>
</a>
</g>
</g>
<!-- Node11 -->
<g id="Node000011" class="node">
<title>Node11</title>
<g id="a_Node000011"><a xlink:title=" ">
<polygon fill="#e0e0e0" stroke="#999999" points="449.5,-76 366.75,-76 366.75,-56 449.5,-56 449.5,-76"/>
<text text-anchor="middle" x="408.12" y="-62.5" font-family="Helvetica,sans-Serif" font-size="10.00">unordered_map</text>
</a>
</g>
</g>
<!-- Node10&#45;&gt;Node11 -->
<g id="edge10_Node000010_Node000011" class="edge">
<title>Node10&#45;&gt;Node11</title>
<g id="a_edge10_Node000010_Node000011"><a xlink:title=" ">
<path fill="none" stroke="#63b8ff" d="M327.28,-167.8C329.34,-154.42 334.66,-129.33 347.12,-112 355.69,-100.1 368.35,-90.04 379.91,-82.47"/>
<polygon fill="#63b8ff" stroke="#63b8ff" points="381.7,-85.48 388.38,-77.26 378.03,-79.52 381.7,-85.48"/>
</a>
</g>
</g>
<!-- Node12 -->
<g id="Node000012" class="node">
<title>Node12</title>
<g id="a_Node000012"><a xlink:title=" ">
<polygon fill="#e0e0e0" stroke="#999999" points="396.12,-132 356.12,-132 356.12,-112 396.12,-112 396.12,-132"/>
<text text-anchor="middle" x="376.12" y="-118.5" font-family="Helvetica,sans-Serif" font-size="10.00">string</text>
</a>
</g>
</g>
<!-- Node10&#45;&gt;Node12 -->
<g id="edge11_Node000010_Node000012" class="edge">
<title>Node10&#45;&gt;Node12</title>
<g id="a_edge11_Node000010_Node000012"><a xlink:title=" ">
<path fill="none" stroke="#63b8ff" d="M334.83,-167.59C341.72,-160.16 351.52,-149.58 359.84,-140.58"/>
<polygon fill="#63b8ff" stroke="#63b8ff" points="362.26,-143.12 366.49,-133.41 357.12,-138.37 362.26,-143.12"/>
</a>
</g>
</g>
<!-- Node13 -->
<g id="Node000013" class="node">
<title>Node13</title>
<g id="a_Node000013"><a xlink:href="ComponentArray_8hpp.html" target="_top" xlink:title=" ">
<polygon fill="white" stroke="#666666" points="299.88,-132 192.38,-132 192.38,-112 299.88,-112 299.88,-132"/>
<text text-anchor="middle" x="246.12" y="-118.5" font-family="Helvetica,sans-Serif" font-size="10.00">ComponentArray.hpp</text>
</a>
</g>
</g>
<!-- Node10&#45;&gt;Node13 -->
<g id="edge14_Node000010_Node000013" class="edge">
<title>Node10&#45;&gt;Node13</title>
<g id="a_edge14_Node000010_Node000013"><a xlink:title=" ">
<path fill="none" stroke="#63b8ff" d="M312.19,-167.59C300.45,-159.67 283.39,-148.16 269.56,-138.82"/>
<polygon fill="#63b8ff" stroke="#63b8ff" points="271.67,-136.02 261.42,-133.33 267.75,-141.82 271.67,-136.02"/>
</a>
</g>
</g>
<!-- Node13&#45;&gt;Node7 -->
<g id="edge17_Node000013_Node000007" class="edge">
<title>Node13&#45;&gt;Node7</title>
<g id="a_edge17_Node000013_Node000007"><a xlink:title=" ">
<path fill="none" stroke="#63b8ff" d="M239.16,-111.59C233.82,-104.39 226.3,-94.23 219.78,-85.43"/>
<polygon fill="#63b8ff" stroke="#63b8ff" points="222.68,-83.47 213.91,-77.51 217.05,-87.63 222.68,-83.47"/>
</a>
</g>
</g>
<!-- Node13&#45;&gt;Node11 -->
<g id="edge16_Node000013_Node000011" class="edge">
<title>Node13&#45;&gt;Node11</title>
<g id="a_edge16_Node000013_Node000011"><a xlink:title=" ">
<path fill="none" stroke="#63b8ff" d="M274.34,-111.59C300.55,-102.86 339.81,-89.77 369.03,-80.03"/>
<polygon fill="#63b8ff" stroke="#63b8ff" points="369.87,-83.44 378.25,-76.96 367.66,-76.8 369.87,-83.44"/>
</a>
</g>
</g>
<!-- Node14 -->
<g id="Node000014" class="node">
<title>Node14</title>
<g id="a_Node000014"><a xlink:title=" ">
<polygon fill="#e0e0e0" stroke="#999999" points="312.12,-76 254.12,-76 254.12,-56 312.12,-56 312.12,-76"/>
<text text-anchor="middle" x="283.12" y="-62.5" font-family="Helvetica,sans-Serif" font-size="10.00">exception</text>
</a>
</g>
</g>
<!-- Node13&#45;&gt;Node14 -->
<g id="edge15_Node000013_Node000014" class="edge">
<title>Node13&#45;&gt;Node14</title>
<g id="a_edge15_Node000013_Node000014"><a xlink:title=" ">
<path fill="none" stroke="#63b8ff" d="M252.57,-111.59C257.45,-104.47 264.32,-94.45 270.3,-85.72"/>
<polygon fill="#63b8ff" stroke="#63b8ff" points="273.13,-87.77 275.9,-77.55 267.36,-83.82 273.13,-87.77"/>
</a>
</g>
</g>
<!-- Node15&#45;&gt;Node3 -->
<g id="edge21_Node000015_Node000003" class="edge">
<title>Node15&#45;&gt;Node3</title>
<g id="a_edge21_Node000015_Node000003"><a xlink:title=" ">
<path fill="none" stroke="#63b8ff" d="M486.37,-167.59C478.5,-160.01 467.23,-149.13 457.78,-140.02"/>
<polygon fill="#63b8ff" stroke="#63b8ff" points="460.49,-137.77 450.86,-133.35 455.63,-142.81 460.49,-137.77"/>
</a>
</g>
</g>
<!-- Node15&#45;&gt;Node11 -->
<g id="edge19_Node000015_Node000011" class="edge">
<title>Node15&#45;&gt;Node11</title>
<g id="a_edge19_Node000015_Node000011"><a xlink:title=" ">
<path fill="none" stroke="#63b8ff" d="M495.07,-167.72C493.14,-154.26 487.97,-129.05 475.12,-112 465.67,-99.46 451.66,-89.28 438.89,-81.79"/>
<polygon fill="#63b8ff" stroke="#63b8ff" points="440.8,-78.85 430.35,-77.1 437.43,-84.98 440.8,-78.85"/>
</a>
</g>
</g>
<!-- Node15&#45;&gt;Node12 -->
<g id="edge20_Node000015_Node000012" class="edge">
<title>Node15&#45;&gt;Node12</title>
<g id="a_edge20_Node000015_Node000012"><a xlink:title=" ">
<path fill="none" stroke="#63b8ff" d="M475.22,-167.59C456.27,-159.06 428.09,-146.38 406.62,-136.72"/>
<polygon fill="#63b8ff" stroke="#63b8ff" points="408.32,-133.65 397.77,-132.74 405.45,-140.03 408.32,-133.65"/>
</a>
</g>
</g>
<!-- Node16 -->
<g id="Node000016" class="node">
<title>Node16</title>
<g id="a_Node000016"><a xlink:href="System_8hpp.html" target="_top" xlink:title=" ">
<polygon fill="white" stroke="#666666" points="590.38,-132 521.88,-132 521.88,-112 590.38,-112 590.38,-132"/>
<text text-anchor="middle" x="556.12" y="-118.5" font-family="Helvetica,sans-Serif" font-size="10.00">System.hpp</text>
</a>
</g>
</g>
<!-- Node15&#45;&gt;Node16 -->
<g id="edge22_Node000015_Node000016" class="edge">
<title>Node15&#45;&gt;Node16</title>
<g id="a_edge22_Node000015_Node000016"><a xlink:title=" ">
<path fill="none" stroke="#63b8ff" d="M506.58,-167.59C515.09,-159.93 527.34,-148.91 537.52,-139.75"/>
<polygon fill="#63b8ff" stroke="#63b8ff" points="539.58,-142.6 544.67,-133.31 534.89,-137.4 539.58,-142.6"/>
</a>
</g>
</g>
<!-- Node16&#45;&gt;Node7 -->
<g id="edge24_Node000016_Node000007" class="edge">
<title>Node16&#45;&gt;Node7</title>
<g id="a_edge24_Node000016_Node000007"><a xlink:title=" ">
<path fill="none" stroke="#63b8ff" d="M521.45,-116.94C465.81,-110.21 352.92,-95.73 247.47,-76.31"/>
<polygon fill="#63b8ff" stroke="#63b8ff" points="248.27,-72.89 237.79,-74.5 246.98,-79.78 248.27,-72.89"/>
</a>
</g>
</g>
<!-- Node17 -->
<g id="Node000017" class="node">
<title>Node17</title>
<g id="a_Node000017"><a xlink:title=" ">
<polygon fill="#e0e0e0" stroke="#999999" points="570.88,-76 541.38,-76 541.38,-56 570.88,-56 570.88,-76"/>
<text text-anchor="middle" x="556.12" y="-62.5" font-family="Helvetica,sans-Serif" font-size="10.00">set</text>
</a>
</g>
</g>
<!-- Node16&#45;&gt;Node17 -->
<g id="edge23_Node000016_Node000017" class="edge">
<title>Node16&#45;&gt;Node17</title>
<g id="a_edge23_Node000016_Node000017"><a xlink:title=" ">
<path fill="none" stroke="#63b8ff" d="M556.12,-111.59C556.12,-105.01 556.12,-95.96 556.12,-87.73"/>
<polygon fill="#63b8ff" stroke="#63b8ff" points="559.63,-87.81 556.13,-77.81 552.63,-87.81 559.63,-87.81"/>
</a>
</g>
</g>
<!-- Node19 -->
<g id="Node000019" class="node">
<title>Node19</title>
<g id="a_Node000019"><a xlink:href="Event_8hpp.html" target="_top" xlink:title=" ">
<polygon fill="white" stroke="#666666" points="716.25,-132 656,-132 656,-112 716.25,-112 716.25,-132"/>
<text text-anchor="middle" x="686.12" y="-118.5" font-family="Helvetica,sans-Serif" font-size="10.00">Event.hpp</text>
</a>
</g>
</g>
<!-- Node18&#45;&gt;Node19 -->
<g id="edge26_Node000018_Node000019" class="edge">
<title>Node18&#45;&gt;Node19</title>
<g id="a_edge26_Node000018_Node000019"><a xlink:title=" ">
<path fill="none" stroke="#63b8ff" d="M659.7,-167.59C663.87,-160.55 669.73,-150.67 674.87,-142"/>
<polygon fill="#63b8ff" stroke="#63b8ff" points="677.76,-143.99 679.84,-133.6 671.73,-140.42 677.76,-143.99"/>
</a>
</g>
</g>
<!-- Node21 -->
<g id="Node000021" class="node">
<title>Node21</title>
<g id="a_Node000021"><a xlink:title=" ">
<polygon fill="#e0e0e0" stroke="#999999" points="792.12,-132 734.12,-132 734.12,-112 792.12,-112 792.12,-132"/>
<text text-anchor="middle" x="763.12" y="-118.5" font-family="Helvetica,sans-Serif" font-size="10.00">functional</text>
</a>
</g>
</g>
<!-- Node18&#45;&gt;Node21 -->
<g id="edge30_Node000018_Node000021" class="edge">
<title>Node18&#45;&gt;Node21</title>
<g id="a_edge30_Node000018_Node000021"><a xlink:title=" ">
<path fill="none" stroke="#63b8ff" d="M673.11,-167.59C689.89,-159.28 714.62,-147.03 733.91,-137.47"/>
<polygon fill="#63b8ff" stroke="#63b8ff" points="735.23,-140.73 742.63,-133.15 732.12,-134.45 735.23,-140.73"/>
</a>
</g>
</g>
<!-- Node22 -->
<g id="Node000022" class="node">
<title>Node22</title>
<g id="a_Node000022"><a xlink:title=" ">
<polygon fill="#e0e0e0" stroke="#999999" points="637.52,-132 608.73,-132 608.73,-112 637.52,-112 637.52,-132"/>
<text text-anchor="middle" x="623.12" y="-118.5" font-family="Helvetica,sans-Serif" font-size="10.00">list</text>
</a>
</g>
</g>
<!-- Node18&#45;&gt;Node22 -->
<g id="edge31_Node000018_Node000022" class="edge">
<title>Node18&#45;&gt;Node22</title>
<g id="a_edge31_Node000018_Node000022"><a xlink:title=" ">
<path fill="none" stroke="#63b8ff" d="M648.73,-167.59C644.68,-160.55 639.01,-150.67 634.03,-142"/>
<polygon fill="#63b8ff" stroke="#63b8ff" points="637.23,-140.54 629.22,-133.61 631.16,-144.03 637.23,-140.54"/>
</a>
</g>
</g>
<!-- Node19&#45;&gt;Node8 -->
<g id="edge27_Node000019_Node000008" class="edge">
<title>Node19&#45;&gt;Node8</title>
<g id="a_edge27_Node000019_Node000008"><a xlink:title=" ">
<path fill="none" stroke="#63b8ff" d="M672.46,-111.68C652.63,-98.39 614.5,-73.64 580.12,-56 556.15,-43.7 528.04,-31.97 506.64,-23.58"/>
<polygon fill="#63b8ff" stroke="#63b8ff" points="508.13,-20.4 497.54,-20.05 505.6,-26.93 508.13,-20.4"/>
</a>
</g>
</g>
<!-- Node19&#45;&gt;Node11 -->
<g id="edge28_Node000019_Node000011" class="edge">
<title>Node19&#45;&gt;Node11</title>
<g id="a_edge28_Node000019_Node000011"><a xlink:title=" ">
<path fill="none" stroke="#63b8ff" d="M655.57,-114.01C652.39,-113.32 649.19,-112.63 646.12,-112 582.65,-98.86 509.33,-85.23 461.03,-76.46"/>
<polygon fill="#63b8ff" stroke="#63b8ff" points="461.87,-73.06 451.4,-74.72 460.62,-79.95 461.87,-73.06"/>
</a>
</g>
</g>
<!-- Node20 -->
<g id="Node000020" class="node">
<title>Node20</title>
<g id="a_Node000020"><a xlink:title=" ">
<polygon fill="#e0e0e0" stroke="#999999" points="702,-76 670.25,-76 670.25,-56 702,-56 702,-76"/>
<text text-anchor="middle" x="686.12" y="-62.5" font-family="Helvetica,sans-Serif" font-size="10.00">any</text>
</a>
</g>
</g>
<!-- Node19&#45;&gt;Node20 -->
<g id="edge29_Node000019_Node000020" class="edge">
<title>Node19&#45;&gt;Node20</title>
<g id="a_edge29_Node000019_Node000020"><a xlink:title=" ">
<path fill="none" stroke="#63b8ff" d="M686.12,-111.59C686.12,-105.01 686.12,-95.96 686.12,-87.73"/>
<polygon fill="#63b8ff" stroke="#63b8ff" points="689.63,-87.81 686.13,-77.81 682.63,-87.81 689.63,-87.81"/>
</a>
</g>
</g>
</g>
</svg>
