<?xml version="1.0" encoding="UTF-8" standalone="no"?>
<!DOCTYPE svg PUBLIC "-//W3C//DTD SVG 1.1//EN"
 "http://www.w3.org/Graphics/SVG/1.1/DTD/svg11.dtd">
<!-- Generated by graphviz version 12.1.0 (20240811.2233)
 -->
<!-- Title: Mediator.hpp Pages: 1 -->
<svg width="987pt" height="252pt"
 viewBox="0.00 0.00 986.62 252.00" xmlns="http://www.w3.org/2000/svg" xmlns:xlink="http://www.w3.org/1999/xlink">
<g id="graph0" class="graph" transform="scale(1 1) rotate(0) translate(4 248)">
<title>Mediator.hpp</title>
<!-- Node1 -->
<g id="Node000001" class="node">
<title>Node1</title>
<g id="a_Node000001"><a xlink:title=" ">
<polygon fill="#999999" stroke="#666666" points="466.88,-244 394.62,-244 394.62,-224 466.88,-224 466.88,-244"/>
<text text-anchor="middle" x="430.75" y="-230.5" font-family="Helvetica,sans-Serif" font-size="10.00">Mediator.hpp</text>
</a>
</g>
</g>
<!-- Node2 -->
<g id="Node000002" class="node">
<title>Node2</title>
<g id="a_Node000002"><a xlink:title=" ">
<polygon fill="#e0e0e0" stroke="#999999" points="53.5,-76 0,-76 0,-56 53.5,-56 53.5,-76"/>
<text text-anchor="middle" x="26.75" y="-62.5" font-family="Helvetica,sans-Serif" font-size="10.00">iostream</text>
</a>
</g>
</g>
<!-- Node1&#45;&gt;Node2 -->
<g id="edge1_Node000001_Node000002" class="edge">
<title>Node1&#45;&gt;Node2</title>
<g id="a_edge1_Node000001_Node000002"><a xlink:title=" ">
<path fill="none" stroke="#63b8ff" d="M394.28,-228.74C306.74,-217.73 88.51,-185.42 41.75,-132 31.12,-119.86 27.62,-101.68 26.63,-87.63"/>
<polygon fill="#63b8ff" stroke="#63b8ff" points="30.13,-87.59 26.35,-77.69 23.14,-87.79 30.13,-87.59"/>
</a>
</g>
</g>
<!-- Node3 -->
<g id="Node000003" class="node">
<title>Node3</title>
<g id="a_Node000003"><a xlink:title=" ">
<polygon fill="#e0e0e0" stroke="#999999" points="342.38,-132 291.12,-132 291.12,-112 342.38,-112 342.38,-132"/>
<text text-anchor="middle" x="316.75" y="-118.5" font-family="Helvetica,sans-Serif" font-size="10.00">memory</text>
</a>
</g>
</g>
<!-- Node1&#45;&gt;Node3 -->
<g id="edge2_Node000001_Node000003" class="edge">
<title>Node1&#45;&gt;Node3</title>
<g id="a_edge2_Node000001_Node000003"><a xlink:title=" ">
<path fill="none" stroke="#63b8ff" d="M415.61,-223.66C402.49,-215.2 383.38,-201.96 368.75,-188 353.92,-173.85 339.56,-155.42 329.7,-141.81"/>
<polygon fill="#63b8ff" stroke="#63b8ff" points="332.61,-139.86 323.98,-133.72 326.9,-143.9 332.61,-139.86"/>
</a>
</g>
</g>
<!-- Node4 -->
<g id="Node000004" class="node">
<title>Node4</title>
<g id="a_Node000004"><a xlink:title=" ">
<polygon fill="#e0e0e0" stroke="#999999" points="500.25,-132 457.25,-132 457.25,-112 500.25,-112 500.25,-132"/>
<text text-anchor="middle" x="478.75" y="-118.5" font-family="Helvetica,sans-Serif" font-size="10.00">vector</text>
</a>
</g>
</g>
<!-- Node1&#45;&gt;Node4 -->
<g id="edge3_Node000001_Node000004" class="edge">
<title>Node1&#45;&gt;Node4</title>
<g id="a_edge3_Node000001_Node000004"><a xlink:title=" ">
<path fill="none" stroke="#63b8ff" d="M452.81,-223.55C467.05,-216.15 484.41,-204.35 492.75,-188 500.04,-173.7 495.28,-155.75 489.41,-142.35"/>
<polygon fill="#63b8ff" stroke="#63b8ff" points="492.7,-141.1 485.13,-133.68 486.42,-144.2 492.7,-141.1"/>
</a>
</g>
</g>
<!-- Node5 -->
<g id="Node000005" class="node">
<title>Node5</title>
<g id="a_Node000005"><a xlink:href="EntityManager_8hpp.html" target="_top" xlink:title=" ">
<polygon fill="white" stroke="#666666" points="921.62,-188 823.88,-188 823.88,-168 921.62,-168 921.62,-188"/>
<text text-anchor="middle" x="872.75" y="-174.5" font-family="Helvetica,sans-Serif" font-size="10.00">EntityManager.hpp</text>
</a>
</g>
</g>
<!-- Node1&#45;&gt;Node5 -->
<g id="edge4_Node000001_Node000005" class="edge">
<title>Node1&#45;&gt;Node5</title>
<g id="a_edge4_Node000001_Node000005"><a xlink:title=" ">
<path fill="none" stroke="#63b8ff" d="M467.3,-228.54C543.34,-219.24 719.25,-197.75 812.38,-186.38"/>
<polygon fill="#63b8ff" stroke="#63b8ff" points="812.59,-189.88 822.09,-185.19 811.74,-182.93 812.59,-189.88"/>
</a>
</g>
</g>
<!-- Node11 -->
<g id="Node000011" class="node">
<title>Node11</title>
<g id="a_Node000011"><a xlink:href="ComponentManager_8hpp.html" target="_top" xlink:title=" ">
<polygon fill="white" stroke="#666666" points="322,-188 199.5,-188 199.5,-168 322,-168 322,-188"/>
<text text-anchor="middle" x="260.75" y="-174.5" font-family="Helvetica,sans-Serif" font-size="10.00">ComponentManager.hpp</text>
</a>
</g>
</g>
<!-- Node1&#45;&gt;Node11 -->
<g id="edge10_Node000001_Node000011" class="edge">
<title>Node1&#45;&gt;Node11</title>
<g id="a_edge10_Node000001_Node000011"><a xlink:title=" ">
<path fill="none" stroke="#63b8ff" d="M401.14,-223.59C373.52,-214.82 332.08,-201.66 301.37,-191.9"/>
<polygon fill="#63b8ff" stroke="#63b8ff" points="302.63,-188.63 292.04,-188.94 300.51,-195.3 302.63,-188.63"/>
</a>
</g>
</g>
<!-- Node17 -->
<g id="Node000017" class="node">
<title>Node17</title>
<g id="a_Node000017"><a xlink:href="SystemManager_8hpp.html" target="_top" xlink:title=" ">
<polygon fill="white" stroke="#666666" points="483.75,-188 377.75,-188 377.75,-168 483.75,-168 483.75,-188"/>
<text text-anchor="middle" x="430.75" y="-174.5" font-family="Helvetica,sans-Serif" font-size="10.00">SystemManager.hpp</text>
</a>
</g>
</g>
<!-- Node1&#45;&gt;Node17 -->
<g id="edge23_Node000001_Node000017" class="edge">
<title>Node1&#45;&gt;Node17</title>
<g id="a_edge23_Node000001_Node000017"><a xlink:title=" ">
<path fill="none" stroke="#63b8ff" d="M430.75,-223.59C430.75,-217.01 430.75,-207.96 430.75,-199.73"/>
<polygon fill="#63b8ff" stroke="#63b8ff" points="434.25,-199.81 430.75,-189.81 427.25,-199.81 434.25,-199.81"/>
</a>
</g>
</g>
<!-- Node20 -->
<g id="Node000020" class="node">
<title>Node20</title>
<g id="a_Node000020"><a xlink:href="EventManager_8hpp.html" target="_top" xlink:title=" ">
<polygon fill="white" stroke="#666666" points="748.62,-188 650.88,-188 650.88,-168 748.62,-168 748.62,-188"/>
<text text-anchor="middle" x="699.75" y="-174.5" font-family="Helvetica,sans-Serif" font-size="10.00">EventManager.hpp</text>
</a>
</g>
</g>
<!-- Node1&#45;&gt;Node20 -->
<g id="edge32_Node000001_Node000020" class="edge">
<title>Node1&#45;&gt;Node20</title>
<g id="a_edge32_Node000001_Node000020"><a xlink:title=" ">
<path fill="none" stroke="#63b8ff" d="M467.31,-225.66C512.14,-216.66 588.69,-201.3 641.62,-190.67"/>
<polygon fill="#63b8ff" stroke="#63b8ff" points="642.27,-194.11 651.39,-188.71 640.9,-187.24 642.27,-194.11"/>
</a>
</g>
</g>
<!-- Node6 -->
<g id="Node000006" class="node">
<title>Node6</title>
<g id="a_Node000006"><a xlink:title=" ">
<polygon fill="#e0e0e0" stroke="#999999" points="922.88,-132 880.62,-132 880.62,-112 922.88,-112 922.88,-132"/>
<text text-anchor="middle" x="901.75" y="-118.5" font-family="Helvetica,sans-Serif" font-size="10.00">queue</text>
</a>
</g>
</g>
<!-- Node5&#45;&gt;Node6 -->
<g id="edge5_Node000005_Node000006" class="edge">
<title>Node5&#45;&gt;Node6</title>
<g id="a_edge5_Node000005_Node000006"><a xlink:title=" ">
<path fill="none" stroke="#63b8ff" d="M877.8,-167.59C881.54,-160.63 886.77,-150.89 891.39,-142.29"/>
<polygon fill="#63b8ff" stroke="#63b8ff" points="894.39,-144.1 896.04,-133.63 888.23,-140.79 894.39,-144.1"/>
</a>
</g>
</g>
<!-- Node7 -->
<g id="Node000007" class="node">
<title>Node7</title>
<g id="a_Node000007"><a xlink:title=" ">
<polygon fill="#e0e0e0" stroke="#999999" points="978.62,-132 940.88,-132 940.88,-112 978.62,-112 978.62,-132"/>
<text text-anchor="middle" x="959.75" y="-118.5" font-family="Helvetica,sans-Serif" font-size="10.00">array</text>
</a>
</g>
</g>
<!-- Node5&#45;&gt;Node7 -->
<g id="edge6_Node000005_Node000007" class="edge">
<title>Node5&#45;&gt;Node7</title>
<g id="a_edge6_Node000005_Node000007"><a xlink:title=" ">
<path fill="none" stroke="#63b8ff" d="M887.9,-167.59C900.8,-159.59 919.58,-147.93 934.71,-138.54"/>
<polygon fill="#63b8ff" stroke="#63b8ff" points="936.54,-141.53 943.19,-133.28 932.85,-135.58 936.54,-141.53"/>
</a>
</g>
</g>
<!-- Node8 -->
<g id="Node000008" class="node">
<title>Node8</title>
<g id="a_Node000008"><a xlink:href="Entity_8hpp.html" target="_top" xlink:title=" ">
<polygon fill="white" stroke="#666666" points="582.5,-76 523,-76 523,-56 582.5,-56 582.5,-76"/>
<text text-anchor="middle" x="552.75" y="-62.5" font-family="Helvetica,sans-Serif" font-size="10.00">Entity.hpp</text>
</a>
</g>
</g>
<!-- Node5&#45;&gt;Node8 -->
<g id="edge7_Node000005_Node000008" class="edge">
<title>Node5&#45;&gt;Node8</title>
<g id="a_edge7_Node000005_Node000008"><a xlink:title=" ">
<path fill="none" stroke="#63b8ff" d="M856.42,-167.58C826.78,-150.54 766.18,-115.95 755.75,-112 689.22,-86.84 666.66,-91.83 594.06,-76.43"/>
<polygon fill="#63b8ff" stroke="#63b8ff" points="594.97,-73.05 584.45,-74.33 593.48,-79.89 594.97,-73.05"/>
</a>
</g>
</g>
<!-- Node9 -->
<g id="Node000009" class="node">
<title>Node9</title>
<g id="a_Node000009"><a xlink:title=" ">
<polygon fill="#e0e0e0" stroke="#999999" points="736.38,-20 691.12,-20 691.12,0 736.38,0 736.38,-20"/>
<text text-anchor="middle" x="713.75" y="-6.5" font-family="Helvetica,sans-Serif" font-size="10.00">cstdint</text>
</a>
</g>
</g>
<!-- Node8&#45;&gt;Node9 -->
<g id="edge8_Node000008_Node000009" class="edge">
<title>Node8&#45;&gt;Node9</title>
<g id="a_edge8_Node000008_Node000009"><a xlink:title=" ">
<path fill="none" stroke="#63b8ff" d="M580.79,-55.59C608.43,-46.32 650.69,-32.15 680.12,-22.28"/>
<polygon fill="#63b8ff" stroke="#63b8ff" points="680.91,-25.71 689.28,-19.21 678.69,-19.07 680.91,-25.71"/>
</a>
</g>
</g>
<!-- Node10 -->
<g id="Node000010" class="node">
<title>Node10</title>
<g id="a_Node000010"><a xlink:title=" ">
<polygon fill="#e0e0e0" stroke="#999999" points="572.75,-20 532.75,-20 532.75,0 572.75,0 572.75,-20"/>
<text text-anchor="middle" x="552.75" y="-6.5" font-family="Helvetica,sans-Serif" font-size="10.00">bitset</text>
</a>
</g>
</g>
<!-- Node8&#45;&gt;Node10 -->
<g id="edge9_Node000008_Node000010" class="edge">
<title>Node8&#45;&gt;Node10</title>
<g id="a_edge9_Node000008_Node000010"><a xlink:title=" ">
<path fill="none" stroke="#63b8ff" d="M552.75,-55.59C552.75,-49.01 552.75,-39.96 552.75,-31.73"/>
<polygon fill="#63b8ff" stroke="#63b8ff" points="556.25,-31.81 552.75,-21.81 549.25,-31.81 556.25,-31.81"/>
</a>
</g>
</g>
<!-- Node11&#45;&gt;Node3 -->
<g id="edge13_Node000011_Node000003" class="edge">
<title>Node11&#45;&gt;Node3</title>
<g id="a_edge13_Node000011_Node000003"><a xlink:title=" ">
<path fill="none" stroke="#63b8ff" d="M270.5,-167.59C278.37,-160.01 289.65,-149.13 299.1,-140.02"/>
<polygon fill="#63b8ff" stroke="#63b8ff" points="301.25,-142.81 306.02,-133.35 296.39,-137.77 301.25,-142.81"/>
</a>
</g>
</g>
<!-- Node11&#45;&gt;Node4 -->
<g id="edge15_Node000011_Node000004" class="edge">
<title>Node11&#45;&gt;Node4</title>
<g id="a_edge15_Node000011_Node000004"><a xlink:title=" ">
<path fill="none" stroke="#63b8ff" d="M298.97,-167.53C340.56,-157.23 406.37,-140.93 445.77,-131.17"/>
<polygon fill="#63b8ff" stroke="#63b8ff" points="446.52,-134.59 455.39,-128.79 444.84,-127.79 446.52,-134.59"/>
</a>
</g>
</g>
<!-- Node11&#45;&gt;Node8 -->
<g id="edge16_Node000011_Node000008" class="edge">
<title>Node11&#45;&gt;Node8</title>
<g id="a_edge16_Node000011_Node000008"><a xlink:title=" ">
<path fill="none" stroke="#63b8ff" d="M260.88,-167.85C261.6,-153.59 265.22,-126.25 281.75,-112 298.9,-97.21 439.77,-79.6 511.34,-71.49"/>
<polygon fill="#63b8ff" stroke="#63b8ff" points="511.56,-74.99 521.11,-70.4 510.78,-68.03 511.56,-74.99"/>
</a>
</g>
</g>
<!-- Node12 -->
<g id="Node000012" class="node">
<title>Node12</title>
<g id="a_Node000012"><a xlink:title=" ">
<polygon fill="#e0e0e0" stroke="#999999" points="424.12,-76 341.38,-76 341.38,-56 424.12,-56 424.12,-76"/>
<text text-anchor="middle" x="382.75" y="-62.5" font-family="Helvetica,sans-Serif" font-size="10.00">unordered_map</text>
</a>
</g>
</g>
<!-- Node11&#45;&gt;Node12 -->
<g id="edge11_Node000011_Node000012" class="edge">
<title>Node11&#45;&gt;Node12</title>
<g id="a_edge11_Node000011_Node000012"><a xlink:title=" ">
<path fill="none" stroke="#63b8ff" d="M255.02,-167.65C247.52,-154.09 236.69,-128.77 248.75,-112 267.15,-86.41 300.82,-75.17 329.81,-70.32"/>
<polygon fill="#63b8ff" stroke="#63b8ff" points="330.15,-73.81 339.56,-68.93 329.16,-66.88 330.15,-73.81"/>
</a>
</g>
</g>
<!-- Node13 -->
<g id="Node000013" class="node">
<title>Node13</title>
<g id="a_Node000013"><a xlink:title=" ">
<polygon fill="#e0e0e0" stroke="#999999" points="400.75,-132 360.75,-132 360.75,-112 400.75,-112 400.75,-132"/>
<text text-anchor="middle" x="380.75" y="-118.5" font-family="Helvetica,sans-Serif" font-size="10.00">string</text>
</a>
</g>
</g>
<!-- Node11&#45;&gt;Node13 -->
<g id="edge12_Node000011_Node000013" class="edge">
<title>Node11&#45;&gt;Node13</title>
<g id="a_edge12_Node000011_Node000013"><a xlink:title=" ">
<path fill="none" stroke="#63b8ff" d="M281.65,-167.59C300.61,-159.06 328.79,-146.38 350.26,-136.72"/>
<polygon fill="#63b8ff" stroke="#63b8ff" points="351.42,-140.03 359.11,-132.74 348.55,-133.65 351.42,-140.03"/>
</a>
</g>
</g>
<!-- Node14 -->
<g id="Node000014" class="node">
<title>Node14</title>
<g id="a_Node000014"><a xlink:title=" ">
<polygon fill="#e0e0e0" stroke="#999999" points="216.12,-76 157.38,-76 157.38,-56 216.12,-56 216.12,-76"/>
<text text-anchor="middle" x="186.75" y="-62.5" font-family="Helvetica,sans-Serif" font-size="10.00">stdexcept</text>
</a>
</g>
</g>
<!-- Node11&#45;&gt;Node14 -->
<g id="edge14_Node000011_Node000014" class="edge">
<title>Node11&#45;&gt;Node14</title>
<g id="a_edge14_Node000011_Node000014"><a xlink:title=" ">
<path fill="none" stroke="#63b8ff" d="M247.19,-167.7C236.06,-159.46 220.58,-146.5 210.75,-132 201.55,-118.43 195.34,-100.89 191.55,-87.45"/>
<polygon fill="#63b8ff" stroke="#63b8ff" points="194.99,-86.77 189.11,-77.96 188.21,-88.51 194.99,-86.77"/>
</a>
</g>
</g>
<!-- Node15 -->
<g id="Node000015" class="node">
<title>Node15</title>
<g id="a_Node000015"><a xlink:href="ComponentArray_8hpp.html" target="_top" xlink:title=" ">
<polygon fill="white" stroke="#666666" points="158.5,-132 51,-132 51,-112 158.5,-112 158.5,-132"/>
<text text-anchor="middle" x="104.75" y="-118.5" font-family="Helvetica,sans-Serif" font-size="10.00">ComponentArray.hpp</text>
</a>
</g>
</g>
<!-- Node11&#45;&gt;Node15 -->
<g id="edge17_Node000011_Node000015" class="edge">
<title>Node11&#45;&gt;Node15</title>
<g id="a_edge17_Node000011_Node000015"><a xlink:title=" ">
<path fill="none" stroke="#63b8ff" d="M233.58,-167.59C208.45,-158.9 170.87,-145.89 142.77,-136.16"/>
<polygon fill="#63b8ff" stroke="#63b8ff" points="144.16,-132.94 133.57,-132.97 141.87,-139.55 144.16,-132.94"/>
</a>
</g>
</g>
<!-- Node15&#45;&gt;Node2 -->
<g id="edge21_Node000015_Node000002" class="edge">
<title>Node15&#45;&gt;Node2</title>
<g id="a_edge21_Node000015_Node000002"><a xlink:title=" ">
<path fill="none" stroke="#63b8ff" d="M91.16,-111.59C79.71,-103.67 63.09,-92.16 49.59,-82.82"/>
<polygon fill="#63b8ff" stroke="#63b8ff" points="51.9,-80.16 41.69,-77.34 47.92,-85.91 51.9,-80.16"/>
</a>
</g>
</g>
<!-- Node15&#45;&gt;Node8 -->
<g id="edge22_Node000015_Node000008" class="edge">
<title>Node15&#45;&gt;Node8</title>
<g id="a_edge22_Node000015_Node000008"><a xlink:title=" ">
<path fill="none" stroke="#63b8ff" d="M158.79,-114.49C249.4,-103.56 430.02,-81.79 511.36,-71.99"/>
<polygon fill="#63b8ff" stroke="#63b8ff" points="511.6,-75.48 521.11,-70.81 510.77,-68.54 511.6,-75.48"/>
</a>
</g>
</g>
<!-- Node15&#45;&gt;Node12 -->
<g id="edge19_Node000015_Node000012" class="edge">
<title>Node15&#45;&gt;Node12</title>
<g id="a_edge19_Node000015_Node000012"><a xlink:title=" ">
<path fill="none" stroke="#63b8ff" d="M153.49,-111.53C202.86,-101.94 278.99,-87.16 329.81,-77.28"/>
<polygon fill="#63b8ff" stroke="#63b8ff" points="330.25,-80.76 339.4,-75.42 328.91,-73.89 330.25,-80.76"/>
</a>
</g>
</g>
<!-- Node15&#45;&gt;Node14 -->
<g id="edge20_Node000015_Node000014" class="edge">
<title>Node15&#45;&gt;Node14</title>
<g id="a_edge20_Node000015_Node000014"><a xlink:title=" ">
<path fill="none" stroke="#63b8ff" d="M119.03,-111.59C131.19,-103.59 148.89,-91.93 163.15,-82.54"/>
<polygon fill="#63b8ff" stroke="#63b8ff" points="164.66,-85.73 171.09,-77.31 160.81,-79.89 164.66,-85.73"/>
</a>
</g>
</g>
<!-- Node16 -->
<g id="Node000016" class="node">
<title>Node16</title>
<g id="a_Node000016"><a xlink:title=" ">
<polygon fill="#e0e0e0" stroke="#999999" points="133.75,-76 75.75,-76 75.75,-56 133.75,-56 133.75,-76"/>
<text text-anchor="middle" x="104.75" y="-62.5" font-family="Helvetica,sans-Serif" font-size="10.00">exception</text>
</a>
</g>
</g>
<!-- Node15&#45;&gt;Node16 -->
<g id="edge18_Node000015_Node000016" class="edge">
<title>Node15&#45;&gt;Node16</title>
<g id="a_edge18_Node000015_Node000016"><a xlink:title=" ">
<path fill="none" stroke="#63b8ff" d="M104.75,-111.59C104.75,-105.01 104.75,-95.96 104.75,-87.73"/>
<polygon fill="#63b8ff" stroke="#63b8ff" points="108.25,-87.81 104.75,-77.81 101.25,-87.81 108.25,-87.81"/>
</a>
</g>
</g>
<!-- Node17&#45;&gt;Node3 -->
<g id="edge27_Node000017_Node000003" class="edge">
<title>Node17&#45;&gt;Node3</title>
<g id="a_edge27_Node000017_Node000003"><a xlink:title=" ">
<path fill="none" stroke="#63b8ff" d="M410.89,-167.59C393.26,-159.24 367.24,-146.92 347.02,-137.34"/>
<polygon fill="#63b8ff" stroke="#63b8ff" points="348.67,-134.25 338.13,-133.13 345.67,-140.57 348.67,-134.25"/>
</a>
</g>
</g>
<!-- Node17&#45;&gt;Node4 -->
<g id="edge26_Node000017_Node000004" class="edge">
<title>Node17&#45;&gt;Node4</title>
<g id="a_edge26_Node000017_Node000004"><a xlink:title=" ">
<path fill="none" stroke="#63b8ff" d="M439.11,-167.59C445.65,-160.24 454.93,-149.8 462.87,-140.87"/>
<polygon fill="#63b8ff" stroke="#63b8ff" points="465.45,-143.23 469.48,-133.43 460.22,-138.58 465.45,-143.23"/>
</a>
</g>
</g>
<!-- Node17&#45;&gt;Node12 -->
<g id="edge24_Node000017_Node000012" class="edge">
<title>Node17&#45;&gt;Node12</title>
<g id="a_edge24_Node000017_Node000012"><a xlink:title=" ">
<path fill="none" stroke="#63b8ff" d="M459.22,-167.58C488.26,-156.38 526.82,-136.15 509.75,-112 492.98,-88.26 462.57,-76.97 435.71,-71.63"/>
<polygon fill="#63b8ff" stroke="#63b8ff" points="436.41,-68.2 425.96,-69.94 435.22,-75.09 436.41,-68.2"/>
</a>
</g>
</g>
<!-- Node17&#45;&gt;Node13 -->
<g id="edge25_Node000017_Node000013" class="edge">
<title>Node17&#45;&gt;Node13</title>
<g id="a_edge25_Node000017_Node000013"><a xlink:title=" ">
<path fill="none" stroke="#63b8ff" d="M422.04,-167.59C415.16,-160.16 405.36,-149.58 397.03,-140.58"/>
<polygon fill="#63b8ff" stroke="#63b8ff" points="399.75,-138.37 390.39,-133.41 394.61,-143.12 399.75,-138.37"/>
</a>
</g>
</g>
<!-- Node17&#45;&gt;Node14 -->
<g id="edge28_Node000017_Node000014" class="edge">
<title>Node17&#45;&gt;Node14</title>
<g id="a_edge28_Node000017_Node000014"><a xlink:title=" ">
<path fill="none" stroke="#63b8ff" d="M430.56,-167.92C429.76,-153.75 426.03,-126.53 409.75,-112 383.34,-88.43 284.58,-75.8 227.74,-70.35"/>
<polygon fill="#63b8ff" stroke="#63b8ff" points="228.08,-66.87 217.8,-69.44 227.43,-73.84 228.08,-66.87"/>
</a>
</g>
</g>
<!-- Node18 -->
<g id="Node000018" class="node">
<title>Node18</title>
<g id="a_Node000018"><a xlink:href="System_8hpp.html" target="_top" xlink:title=" ">
<polygon fill="white" stroke="#666666" points="625,-132 556.5,-132 556.5,-112 625,-112 625,-132"/>
<text text-anchor="middle" x="590.75" y="-118.5" font-family="Helvetica,sans-Serif" font-size="10.00">System.hpp</text>
</a>
</g>
</g>
<!-- Node17&#45;&gt;Node18 -->
<g id="edge29_Node000017_Node000018" class="edge">
<title>Node17&#45;&gt;Node18</title>
<g id="a_edge29_Node000017_Node000018"><a xlink:title=" ">
<path fill="none" stroke="#63b8ff" d="M458.62,-167.59C484.5,-158.86 523.28,-145.77 552.14,-136.03"/>
<polygon fill="#63b8ff" stroke="#63b8ff" points="552.87,-139.48 561.23,-132.96 550.63,-132.85 552.87,-139.48"/>
</a>
</g>
</g>
<!-- Node18&#45;&gt;Node8 -->
<g id="edge31_Node000018_Node000008" class="edge">
<title>Node18&#45;&gt;Node8</title>
<g id="a_edge31_Node000018_Node000008"><a xlink:title=" ">
<path fill="none" stroke="#63b8ff" d="M584.13,-111.59C579.06,-104.39 571.91,-94.23 565.72,-85.43"/>
<polygon fill="#63b8ff" stroke="#63b8ff" points="568.78,-83.7 560.16,-77.54 563.06,-87.73 568.78,-83.7"/>
</a>
</g>
</g>
<!-- Node19 -->
<g id="Node000019" class="node">
<title>Node19</title>
<g id="a_Node000019"><a xlink:title=" ">
<polygon fill="#e0e0e0" stroke="#999999" points="630.5,-76 601,-76 601,-56 630.5,-56 630.5,-76"/>
<text text-anchor="middle" x="615.75" y="-62.5" font-family="Helvetica,sans-Serif" font-size="10.00">set</text>
</a>
</g>
</g>
<!-- Node18&#45;&gt;Node19 -->
<g id="edge30_Node000018_Node000019" class="edge">
<title>Node18&#45;&gt;Node19</title>
<g id="a_edge30_Node000018_Node000019"><a xlink:title=" ">
<path fill="none" stroke="#63b8ff" d="M595.1,-111.59C598.3,-104.7 602.74,-95.1 606.69,-86.57"/>
<polygon fill="#63b8ff" stroke="#63b8ff" points="609.78,-88.22 610.81,-77.67 603.43,-85.28 609.78,-88.22"/>
</a>
</g>
</g>
<!-- Node21 -->
<g id="Node000021" class="node">
<title>Node21</title>
<g id="a_Node000021"><a xlink:href="Event_8hpp.html" target="_top" xlink:title=" ">
<polygon fill="white" stroke="#666666" points="862.88,-132 802.62,-132 802.62,-112 862.88,-112 862.88,-132"/>
<text text-anchor="middle" x="832.75" y="-118.5" font-family="Helvetica,sans-Serif" font-size="10.00">Event.hpp</text>
</a>
</g>
</g>
<!-- Node20&#45;&gt;Node21 -->
<g id="edge33_Node000020_Node000021" class="edge">
<title>Node20&#45;&gt;Node21</title>
<g id="a_edge33_Node000020_Node000021"><a xlink:title=" ">
<path fill="none" stroke="#63b8ff" d="M722.92,-167.59C743.96,-159.05 775.25,-146.35 799.05,-136.68"/>
<polygon fill="#63b8ff" stroke="#63b8ff" points="800.05,-140.05 808,-133.05 797.42,-133.57 800.05,-140.05"/>
</a>
</g>
</g>
<!-- Node23 -->
<g id="Node000023" class="node">
<title>Node23</title>
<g id="a_Node000023"><a xlink:title=" ">
<polygon fill="#e0e0e0" stroke="#999999" points="700.75,-132 642.75,-132 642.75,-112 700.75,-112 700.75,-132"/>
<text text-anchor="middle" x="671.75" y="-118.5" font-family="Helvetica,sans-Serif" font-size="10.00">functional</text>
</a>
</g>
</g>
<!-- Node20&#45;&gt;Node23 -->
<g id="edge37_Node000020_Node000023" class="edge">
<title>Node20&#45;&gt;Node23</title>
<g id="a_edge37_Node000020_Node000023"><a xlink:title=" ">
<path fill="none" stroke="#63b8ff" d="M694.87,-167.59C691.26,-160.63 686.21,-150.89 681.75,-142.29"/>
<polygon fill="#63b8ff" stroke="#63b8ff" points="684.98,-140.91 677.27,-133.64 678.76,-144.13 684.98,-140.91"/>
</a>
</g>
</g>
<!-- Node24 -->
<g id="Node000024" class="node">
<title>Node24</title>
<g id="a_Node000024"><a xlink:title=" ">
<polygon fill="#e0e0e0" stroke="#999999" points="747.15,-132 718.35,-132 718.35,-112 747.15,-112 747.15,-132"/>
<text text-anchor="middle" x="732.75" y="-118.5" font-family="Helvetica,sans-Serif" font-size="10.00">list</text>
</a>
</g>
</g>
<!-- Node20&#45;&gt;Node24 -->
<g id="edge38_Node000020_Node000024" class="edge">
<title>Node20&#45;&gt;Node24</title>
<g id="a_edge38_Node000020_Node000024"><a xlink:title=" ">
<path fill="none" stroke="#63b8ff" d="M705.5,-167.59C709.8,-160.55 715.84,-150.67 721.14,-142"/>
<polygon fill="#63b8ff" stroke="#63b8ff" points="724.05,-143.95 726.28,-133.59 718.08,-140.3 724.05,-143.95"/>
</a>
</g>
</g>
<!-- Node21&#45;&gt;Node9 -->
<g id="edge34_Node000021_Node000009" class="edge">
<title>Node21&#45;&gt;Node9</title>
<g id="a_edge34_Node000021_Node000009"><a xlink:title=" ">
<path fill="none" stroke="#63b8ff" d="M822.6,-111.62C802.58,-93.11 757.72,-51.65 732.28,-28.13"/>
<polygon fill="#63b8ff" stroke="#63b8ff" points="734.7,-25.6 724.98,-21.38 729.95,-30.74 734.7,-25.6"/>
</a>
</g>
</g>
<!-- Node21&#45;&gt;Node12 -->
<g id="edge35_Node000021_Node000012" class="edge">
<title>Node21&#45;&gt;Node12</title>
<g id="a_edge35_Node000021_Node000012"><a xlink:title=" ">
<path fill="none" stroke="#63b8ff" d="M802.17,-117.33C726.69,-108.27 530.75,-84.76 435.83,-73.37"/>
<polygon fill="#63b8ff" stroke="#63b8ff" points="436.35,-69.91 426,-72.19 435.51,-76.86 436.35,-69.91"/>
</a>
</g>
</g>
<!-- Node22 -->
<g id="Node000022" class="node">
<title>Node22</title>
<g id="a_Node000022"><a xlink:title=" ">
<polygon fill="#e0e0e0" stroke="#999999" points="848.62,-76 816.88,-76 816.88,-56 848.62,-56 848.62,-76"/>
<text text-anchor="middle" x="832.75" y="-62.5" font-family="Helvetica,sans-Serif" font-size="10.00">any</text>
</a>
</g>
</g>
<!-- Node21&#45;&gt;Node22 -->
<g id="edge36_Node000021_Node000022" class="edge">
<title>Node21&#45;&gt;Node22</title>
<g id="a_edge36_Node000021_Node000022"><a xlink:title=" ">
<path fill="none" stroke="#63b8ff" d="M832.75,-111.59C832.75,-105.01 832.75,-95.96 832.75,-87.73"/>
<polygon fill="#63b8ff" stroke="#63b8ff" points="836.25,-87.81 832.75,-77.81 829.25,-87.81 836.25,-87.81"/>
</a>
</g>
</g>
</g>
</svg>
