<?xml version="1.0" encoding="UTF-8" standalone="no"?>
<!DOCTYPE svg PUBLIC "-//W3C//DTD SVG 1.1//EN"
 "http://www.w3.org/Graphics/SVG/1.1/DTD/svg11.dtd">
<!-- Generated by graphviz version 12.1.0 (20240811.2233)
 -->
<!-- Title: Menu.cpp Pages: 1 -->
<svg width="345pt" height="196pt"
 viewBox="0.00 0.00 345.38 196.00" xmlns="http://www.w3.org/2000/svg" xmlns:xlink="http://www.w3.org/1999/xlink">
<g id="graph0" class="graph" transform="scale(1 1) rotate(0) translate(4 192)">
<title>Menu.cpp</title>
<!-- Node1 -->
<g id="Node000001" class="node">
<title>Node1</title>
<g id="a_Node000001"><a xlink:title=" ">
<polygon fill="#999999" stroke="#666666" points="197.88,-188 139.12,-188 139.12,-168 197.88,-168 197.88,-188"/>
<text text-anchor="middle" x="168.5" y="-174.5" font-family="Helvetica,sans-Serif" font-size="10.00">Menu.cpp</text>
</a>
</g>
</g>
<!-- Node2 -->
<g id="Node000002" class="node">
<title>Node2</title>
<g id="a_Node000002"><a xlink:href="Menu_8hpp.html" target="_top" xlink:title=" ">
<polygon fill="white" stroke="#666666" points="160.88,-132 102.12,-132 102.12,-112 160.88,-112 160.88,-132"/>
<text text-anchor="middle" x="131.5" y="-118.5" font-family="Helvetica,sans-Serif" font-size="10.00">Menu.hpp</text>
</a>
</g>
</g>
<!-- Node1&#45;&gt;Node2 -->
<g id="edge1_Node000001_Node000002" class="edge">
<title>Node1&#45;&gt;Node2</title>
<g id="a_edge1_Node000001_Node000002"><a xlink:title=" ">
<path fill="none" stroke="#63b8ff" d="M162.06,-167.59C157.17,-160.47 150.31,-150.45 144.32,-141.72"/>
<polygon fill="#63b8ff" stroke="#63b8ff" points="147.27,-139.82 138.73,-133.55 141.49,-143.77 147.27,-139.82"/>
</a>
</g>
</g>
<!-- Node9 -->
<g id="Node000009" class="node">
<title>Node9</title>
<g id="a_Node000009"><a xlink:title=" ">
<polygon fill="#e0e0e0" stroke="#999999" points="232.25,-132 178.75,-132 178.75,-112 232.25,-112 232.25,-132"/>
<text text-anchor="middle" x="205.5" y="-118.5" font-family="Helvetica,sans-Serif" font-size="10.00">iostream</text>
</a>
</g>
</g>
<!-- Node1&#45;&gt;Node9 -->
<g id="edge9_Node000001_Node000009" class="edge">
<title>Node1&#45;&gt;Node9</title>
<g id="a_edge9_Node000001_Node000009"><a xlink:title=" ">
<path fill="none" stroke="#63b8ff" d="M174.94,-167.59C179.83,-160.47 186.69,-150.45 192.68,-141.72"/>
<polygon fill="#63b8ff" stroke="#63b8ff" points="195.51,-143.77 198.27,-133.55 189.73,-139.82 195.51,-143.77"/>
</a>
</g>
</g>
<!-- Node3 -->
<g id="Node000003" class="node">
<title>Node3</title>
<g id="a_Node000003"><a xlink:title=" ">
<polygon fill="#e0e0e0" stroke="#999999" points="103,-76 0,-76 0,-56 103,-56 103,-76"/>
<text text-anchor="middle" x="51.5" y="-62.5" font-family="Helvetica,sans-Serif" font-size="10.00">SFML/Graphics.hpp</text>
</a>
</g>
</g>
<!-- Node2&#45;&gt;Node3 -->
<g id="edge2_Node000002_Node000003" class="edge">
<title>Node2&#45;&gt;Node3</title>
<g id="a_edge2_Node000002_Node000003"><a xlink:title=" ">
<path fill="none" stroke="#63b8ff" d="M117.57,-111.59C105.82,-103.67 88.77,-92.16 74.93,-82.82"/>
<polygon fill="#63b8ff" stroke="#63b8ff" points="77.04,-80.02 66.8,-77.33 73.13,-85.82 77.04,-80.02"/>
</a>
</g>
</g>
<!-- Node4 -->
<g id="Node000004" class="node">
<title>Node4</title>
<g id="a_Node000004"><a xlink:title=" ">
<polygon fill="#e0e0e0" stroke="#999999" points="148.5,-20 108.5,-20 108.5,0 148.5,0 148.5,-20"/>
<text text-anchor="middle" x="128.5" y="-6.5" font-family="Helvetica,sans-Serif" font-size="10.00">string</text>
</a>
</g>
</g>
<!-- Node2&#45;&gt;Node4 -->
<g id="edge3_Node000002_Node000004" class="edge">
<title>Node2&#45;&gt;Node4</title>
<g id="a_edge3_Node000002_Node000004"><a xlink:title=" ">
<path fill="none" stroke="#63b8ff" d="M131.24,-111.62C130.76,-94.01 129.72,-55.59 129.06,-31.65"/>
<polygon fill="#63b8ff" stroke="#63b8ff" points="132.57,-31.77 128.8,-21.87 125.57,-31.96 132.57,-31.77"/>
</a>
</g>
</g>
<!-- Node5 -->
<g id="Node000005" class="node">
<title>Node5</title>
<g id="a_Node000005"><a xlink:href="Utils_8hpp.html" target="_top" xlink:title=" ">
<polygon fill="white" stroke="#666666" points="217,-76 162,-76 162,-56 217,-56 217,-76"/>
<text text-anchor="middle" x="189.5" y="-62.5" font-family="Helvetica,sans-Serif" font-size="10.00">Utils.hpp</text>
</a>
</g>
</g>
<!-- Node2&#45;&gt;Node5 -->
<g id="edge4_Node000002_Node000005" class="edge">
<title>Node2&#45;&gt;Node5</title>
<g id="a_edge4_Node000002_Node000005"><a xlink:title=" ">
<path fill="none" stroke="#63b8ff" d="M141.6,-111.59C149.75,-104.01 161.43,-93.13 171.22,-84.02"/>
<polygon fill="#63b8ff" stroke="#63b8ff" points="173.47,-86.71 178.41,-77.33 168.7,-81.58 173.47,-86.71"/>
</a>
</g>
</g>
<!-- Node5&#45;&gt;Node4 -->
<g id="edge6_Node000005_Node000004" class="edge">
<title>Node5&#45;&gt;Node4</title>
<g id="a_edge6_Node000005_Node000004"><a xlink:title=" ">
<path fill="none" stroke="#63b8ff" d="M178.87,-55.59C170.22,-47.93 157.77,-36.91 147.42,-27.75"/>
<polygon fill="#63b8ff" stroke="#63b8ff" points="149.94,-25.31 140.14,-21.3 145.3,-30.55 149.94,-25.31"/>
</a>
</g>
</g>
<!-- Node6 -->
<g id="Node000006" class="node">
<title>Node6</title>
<g id="a_Node000006"><a xlink:title=" ">
<polygon fill="#e0e0e0" stroke="#999999" points="212.12,-20 166.88,-20 166.88,0 212.12,0 212.12,-20"/>
<text text-anchor="middle" x="189.5" y="-6.5" font-family="Helvetica,sans-Serif" font-size="10.00">cstdint</text>
</a>
</g>
</g>
<!-- Node5&#45;&gt;Node6 -->
<g id="edge5_Node000005_Node000006" class="edge">
<title>Node5&#45;&gt;Node6</title>
<g id="a_edge5_Node000005_Node000006"><a xlink:title=" ">
<path fill="none" stroke="#63b8ff" d="M189.5,-55.59C189.5,-49.01 189.5,-39.96 189.5,-31.73"/>
<polygon fill="#63b8ff" stroke="#63b8ff" points="193,-31.81 189.5,-21.81 186,-31.81 193,-31.81"/>
</a>
</g>
</g>
<!-- Node7 -->
<g id="Node000007" class="node">
<title>Node7</title>
<g id="a_Node000007"><a xlink:title=" ">
<polygon fill="#e0e0e0" stroke="#999999" points="281.12,-20 229.88,-20 229.88,0 281.12,0 281.12,-20"/>
<text text-anchor="middle" x="255.5" y="-6.5" font-family="Helvetica,sans-Serif" font-size="10.00">ostream</text>
</a>
</g>
</g>
<!-- Node5&#45;&gt;Node7 -->
<g id="edge7_Node000005_Node000007" class="edge">
<title>Node5&#45;&gt;Node7</title>
<g id="a_edge7_Node000005_Node000007"><a xlink:title=" ">
<path fill="none" stroke="#63b8ff" d="M201,-55.59C210.46,-47.85 224.1,-36.69 235.37,-27.47"/>
<polygon fill="#63b8ff" stroke="#63b8ff" points="237.44,-30.3 242.96,-21.26 233.01,-24.88 237.44,-30.3"/>
</a>
</g>
</g>
<!-- Node8 -->
<g id="Node000008" class="node">
<title>Node8</title>
<g id="a_Node000008"><a xlink:title=" ">
<polygon fill="#e0e0e0" stroke="#999999" points="337.38,-20 299.62,-20 299.62,0 337.38,0 337.38,-20"/>
<text text-anchor="middle" x="318.5" y="-6.5" font-family="Helvetica,sans-Serif" font-size="10.00">array</text>
</a>
</g>
</g>
<!-- Node5&#45;&gt;Node8 -->
<g id="edge8_Node000005_Node000008" class="edge">
<title>Node5&#45;&gt;Node8</title>
<g id="a_edge8_Node000005_Node000008"><a xlink:title=" ">
<path fill="none" stroke="#63b8ff" d="M211.97,-55.59C233.28,-46.67 265.44,-33.21 288.85,-23.41"/>
<polygon fill="#63b8ff" stroke="#63b8ff" points="289.96,-26.74 297.83,-19.65 287.26,-20.28 289.96,-26.74"/>
</a>
</g>
</g>
</g>
</svg>
