<?xml version="1.0" encoding="UTF-8" standalone="no"?>
<!DOCTYPE svg PUBLIC "-//W3C//DTD SVG 1.1//EN"
 "http://www.w3.org/Graphics/SVG/1.1/DTD/svg11.dtd">
<!-- Generated by graphviz version 12.1.0 (20240811.2233)
 -->
<!-- Title: RtypeServer::infof Pages: 1 -->
<svg width="616pt" height="1058pt"
 viewBox="0.00 0.00 615.75 1058.03" xmlns="http://www.w3.org/2000/svg" xmlns:xlink="http://www.w3.org/1999/xlink">
<g id="graph0" class="graph" transform="scale(1 1) rotate(0) translate(4 1054.03)">
<title>RtypeServer::infof</title>
<!-- Node1 -->
<g id="Node000001" class="node">
<title>Node1</title>
<g id="a_Node000001"><a xlink:title=" ">
<polygon fill="#999999" stroke="#666666" points="607.75,-559 512.25,-559 512.25,-539 607.75,-539 607.75,-559"/>
<text text-anchor="middle" x="560" y="-545.5" font-family="Helvetica,sans-Serif" font-size="10.00">RtypeServer::infof</text>
</a>
</g>
</g>
<!-- Node2 -->
<g id="Node000002" class="node">
<title>Node2</title>
<g id="a_Node000002"><a xlink:href="classRtypeServer_1_1RoomManager.html#ad3f5e3ce2c669a04fc74d8a2e0fdc246" target="_top" xlink:title=" ">
<polygon fill="white" stroke="#666666" points="476.25,-1018 335.75,-1018 335.75,-986 476.25,-986 476.25,-1018"/>
<text text-anchor="start" x="343.75" y="-1004.5" font-family="Helvetica,sans-Serif" font-size="10.00">RtypeServer::RoomManager</text>
<text text-anchor="middle" x="406" y="-992.5" font-family="Helvetica,sans-Serif" font-size="10.00">::cleanup</text>
</a>
</g>
</g>
<!-- Node1&#45;&gt;Node2 -->
<g id="edge1_Node000001_Node000002" class="edge">
<title>Node1&#45;&gt;Node2</title>
<g id="a_edge1_Node000001_Node000002"><a xlink:title=" ">
<path fill="none" stroke="#63b8ff" d="M557.61,-570.49C552.15,-648.34 529.84,-914.35 476.25,-977 473.42,-980.3 470.13,-983.17 466.54,-985.66"/>
<polygon fill="#63b8ff" stroke="#63b8ff" points="561.08,-571.02 558.26,-560.81 554.09,-570.55 561.08,-571.02"/>
</a>
</g>
</g>
<!-- Node3 -->
<g id="Node000003" class="node">
<title>Node3</title>
<g id="a_Node000003"><a xlink:href="classRtypeServer_1_1UdpServer.html#aabf9ebd666d71e6c525ec9553ab2191e" target="_top" xlink:title=" ">
<polygon fill="white" stroke="#666666" points="291.12,-993 167.88,-993 167.88,-961 291.12,-961 291.12,-993"/>
<text text-anchor="start" x="175.88" y="-979.5" font-family="Helvetica,sans-Serif" font-size="10.00">RtypeServer::UdpServer</text>
<text text-anchor="middle" x="229.5" y="-967.5" font-family="Helvetica,sans-Serif" font-size="10.00">::handle_leave_room</text>
</a>
</g>
</g>
<!-- Node1&#45;&gt;Node3 -->
<g id="edge8_Node000001_Node000003" class="edge">
<title>Node1&#45;&gt;Node3</title>
<g id="a_edge8_Node000001_Node000003"><a xlink:title=" ">
<path fill="none" stroke="#63b8ff" d="M558.76,-570.64C557.34,-655.95 547.27,-967.22 476.25,-1027 411.3,-1081.67 302.71,-1024.05 254.65,-993.48"/>
<polygon fill="#63b8ff" stroke="#63b8ff" points="562.26,-570.72 558.9,-560.67 555.26,-570.62 562.26,-570.72"/>
</a>
</g>
</g>
<!-- Node4 -->
<g id="Node000004" class="node">
<title>Node4</title>
<g id="a_Node000004"><a xlink:href="classRtypeServer_1_1RoomManager.html#ad598fe8c2755ee1d450b9e7b045eb034" target="_top" xlink:title=" ">
<polygon fill="white" stroke="#666666" points="299.75,-880 159.25,-880 159.25,-848 299.75,-848 299.75,-880"/>
<text text-anchor="start" x="167.25" y="-866.5" font-family="Helvetica,sans-Serif" font-size="10.00">RtypeServer::RoomManager</text>
<text text-anchor="middle" x="229.5" y="-854.5" font-family="Helvetica,sans-Serif" font-size="10.00">::createRoom</text>
</a>
</g>
</g>
<!-- Node1&#45;&gt;Node4 -->
<g id="edge3_Node000001_Node000004" class="edge">
<title>Node1&#45;&gt;Node4</title>
<g id="a_edge3_Node000001_Node000004"><a xlink:title=" ">
<path fill="none" stroke="#63b8ff" d="M556.36,-570.41C548.16,-633.25 520.91,-815.03 476.25,-851 427.51,-890.26 354.07,-888.85 300.17,-880.45"/>
<polygon fill="#63b8ff" stroke="#63b8ff" points="559.81,-571.06 557.6,-560.7 552.87,-570.18 559.81,-571.06"/>
</a>
</g>
</g>
<!-- Node5 -->
<g id="Node000005" class="node">
<title>Node5</title>
<g id="a_Node000005"><a xlink:href="classRtypeServer_1_1UdpServer.html#a8edbc5c835a5d23856953e06f7877b8d" target="_top" xlink:title=" ">
<polygon fill="white" stroke="#666666" points="123.25,-836 0,-836 0,-804 123.25,-804 123.25,-836"/>
<text text-anchor="start" x="8" y="-822.5" font-family="Helvetica,sans-Serif" font-size="10.00">RtypeServer::UdpServer</text>
<text text-anchor="middle" x="61.62" y="-810.5" font-family="Helvetica,sans-Serif" font-size="10.00">::handle_create_room</text>
</a>
</g>
</g>
<!-- Node1&#45;&gt;Node5 -->
<g id="edge5_Node000001_Node000005" class="edge">
<title>Node1&#45;&gt;Node5</title>
<g id="a_edge5_Node000001_Node000005"><a xlink:title=" ">
<path fill="none" stroke="#63b8ff" d="M556.97,-570.4C550.12,-637.52 525.5,-841.89 476.25,-882 421.61,-926.49 226.35,-910.5 159.25,-889 127.06,-878.69 96.46,-853.27 78.62,-836.33"/>
<polygon fill="#63b8ff" stroke="#63b8ff" points="560.43,-571.01 557.92,-560.71 553.46,-570.32 560.43,-571.01"/>
</a>
</g>
</g>
<!-- Node6 -->
<g id="Node000006" class="node">
<title>Node6</title>
<g id="a_Node000006"><a xlink:href="classRtypeServer_1_1UdpServer.html#ad6474bca80e8ede6d6bbf8ff3524c05e" target="_top" xlink:title=" ">
<polygon fill="white" stroke="#666666" points="291.12,-792 167.88,-792 167.88,-760 291.12,-760 291.12,-792"/>
<text text-anchor="start" x="175.88" y="-778.5" font-family="Helvetica,sans-Serif" font-size="10.00">RtypeServer::UdpServer</text>
<text text-anchor="middle" x="229.5" y="-766.5" font-family="Helvetica,sans-Serif" font-size="10.00">::handle_join_room</text>
</a>
</g>
</g>
<!-- Node1&#45;&gt;Node6 -->
<g id="edge6_Node000001_Node000006" class="edge">
<title>Node1&#45;&gt;Node6</title>
<g id="a_edge6_Node000001_Node000006"><a xlink:title=" ">
<path fill="none" stroke="#63b8ff" d="M557.94,-570.8C554.48,-615.46 539.65,-717.03 476.25,-763 423.16,-801.5 345.38,-798.5 291.61,-789.93"/>
<polygon fill="#63b8ff" stroke="#63b8ff" points="561.43,-571.05 558.58,-560.85 554.45,-570.61 561.43,-571.05"/>
</a>
</g>
</g>
<!-- Node7 -->
<g id="Node000007" class="node">
<title>Node7</title>
<g id="a_Node000007"><a xlink:href="classRtypeServer_1_1UdpServer.html#aea11fdab349503f7ef180f35895ad575" target="_top" xlink:title=" ">
<polygon fill="white" stroke="#666666" points="291.12,-612 167.88,-612 167.88,-580 291.12,-580 291.12,-612"/>
<text text-anchor="start" x="175.88" y="-598.5" font-family="Helvetica,sans-Serif" font-size="10.00">RtypeServer::UdpServer</text>
<text text-anchor="middle" x="229.5" y="-586.5" font-family="Helvetica,sans-Serif" font-size="10.00">::handle_list_rooms</text>
</a>
</g>
</g>
<!-- Node1&#45;&gt;Node7 -->
<g id="edge9_Node000001_Node000007" class="edge">
<title>Node1&#45;&gt;Node7</title>
<g id="a_edge9_Node000001_Node000007"><a xlink:title=" ">
<path fill="none" stroke="#63b8ff" d="M537.91,-566.21C522.03,-578 499.15,-592.62 476.25,-599 415.11,-616.04 342.05,-612.26 291.57,-606.11"/>
<polygon fill="#63b8ff" stroke="#63b8ff" points="539.85,-569.13 545.64,-560.25 535.58,-563.59 539.85,-569.13"/>
</a>
</g>
</g>
<!-- Node8 -->
<g id="Node000008" class="node">
<title>Node8</title>
<g id="a_Node000008"><a xlink:href="classRtypeServer_1_1UdpServer.html#ada88a91b0b6bead16ff8321837e8bd94" target="_top" xlink:title=" ">
<polygon fill="white" stroke="#666666" points="291.12,-737 167.88,-737 167.88,-705 291.12,-705 291.12,-737"/>
<text text-anchor="start" x="175.88" y="-723.5" font-family="Helvetica,sans-Serif" font-size="10.00">RtypeServer::UdpServer</text>
<text text-anchor="middle" x="229.5" y="-711.5" font-family="Helvetica,sans-Serif" font-size="10.00">::handle_message</text>
</a>
</g>
</g>
<!-- Node1&#45;&gt;Node8 -->
<g id="edge10_Node000001_Node000008" class="edge">
<title>Node1&#45;&gt;Node8</title>
<g id="a_edge10_Node000001_Node000008"><a xlink:title=" ">
<path fill="none" stroke="#63b8ff" d="M547.81,-569.25C533.97,-592.41 508.29,-629.86 476.25,-651 420.06,-688.08 344.14,-705.8 291.62,-714.08"/>
<polygon fill="#63b8ff" stroke="#63b8ff" points="550.74,-571.16 552.71,-560.75 544.68,-567.67 550.74,-571.16"/>
</a>
</g>
</g>
<!-- Node9 -->
<g id="Node000009" class="node">
<title>Node9</title>
<g id="a_Node000009"><a xlink:href="classRtypeServer_1_1UdpServer.html#af899537d714b0ae94ca4f376644ac652" target="_top" xlink:title=" ">
<polygon fill="white" stroke="#666666" points="467.62,-540 344.38,-540 344.38,-508 467.62,-508 467.62,-540"/>
<text text-anchor="start" x="352.38" y="-526.5" font-family="Helvetica,sans-Serif" font-size="10.00">RtypeServer::UdpServer</text>
<text text-anchor="middle" x="406" y="-514.5" font-family="Helvetica,sans-Serif" font-size="10.00">::handle_receive</text>
</a>
</g>
</g>
<!-- Node1&#45;&gt;Node9 -->
<g id="edge11_Node000001_Node000009" class="edge">
<title>Node1&#45;&gt;Node9</title>
<g id="a_edge11_Node000001_Node000009"><a xlink:title=" ">
<path fill="none" stroke="#63b8ff" d="M501.09,-539.48C490.26,-537.69 478.9,-535.83 467.98,-534.03"/>
<polygon fill="#63b8ff" stroke="#63b8ff" points="500.23,-542.88 510.66,-541.05 501.36,-535.97 500.23,-542.88"/>
</a>
</g>
</g>
<!-- Node10 -->
<g id="Node000010" class="node">
<title>Node10</title>
<g id="a_Node000010"><a xlink:href="classRtypeServer_1_1Room.html#a922d7999e2f66fb4a296b2c75f4713a5" target="_top" xlink:title=" ">
<polygon fill="white" stroke="#666666" points="468,-490 344,-490 344,-470 468,-470 468,-490"/>
<text text-anchor="middle" x="406" y="-476.5" font-family="Helvetica,sans-Serif" font-size="10.00">RtypeServer::Room::join</text>
</a>
</g>
</g>
<!-- Node1&#45;&gt;Node10 -->
<g id="edge12_Node000001_Node000010" class="edge">
<title>Node1&#45;&gt;Node10</title>
<g id="a_edge12_Node000001_Node000010"><a xlink:title=" ">
<path fill="none" stroke="#63b8ff" d="M535.55,-532.43C519.48,-521.68 497.32,-508.05 476.25,-499 468.69,-495.75 460.42,-492.92 452.32,-490.5"/>
<polygon fill="#63b8ff" stroke="#63b8ff" points="533.23,-535.08 543.46,-537.83 537.17,-529.3 533.23,-535.08"/>
</a>
</g>
</g>
<!-- Node11 -->
<g id="Node000011" class="node">
<title>Node11</title>
<g id="a_Node000011"><a xlink:href="classRtypeServer_1_1Room.html#a3121b719aea371d701f523e35587f250" target="_top" xlink:title=" ">
<polygon fill="white" stroke="#666666" points="460.5,-452 351.5,-452 351.5,-420 460.5,-420 460.5,-452"/>
<text text-anchor="start" x="359.5" y="-438.5" font-family="Helvetica,sans-Serif" font-size="10.00">RtypeServer::Room::</text>
<text text-anchor="middle" x="406" y="-426.5" font-family="Helvetica,sans-Serif" font-size="10.00">leave</text>
</a>
</g>
</g>
<!-- Node1&#45;&gt;Node11 -->
<g id="edge13_Node000001_Node000011" class="edge">
<title>Node1&#45;&gt;Node11</title>
<g id="a_edge13_Node000001_Node000011"><a xlink:title=" ">
<path fill="none" stroke="#63b8ff" d="M545.12,-529.55C530.14,-509.82 504.59,-479.62 476.25,-461 471.34,-457.77 465.95,-454.9 460.43,-452.35"/>
<polygon fill="#63b8ff" stroke="#63b8ff" points="542.11,-531.37 550.87,-537.33 547.74,-527.21 542.11,-531.37"/>
</a>
</g>
</g>
<!-- Node12 -->
<g id="Node000012" class="node">
<title>Node12</title>
<g id="a_Node000012"><a xlink:href="Server_2src_2main_8cpp.html#a0ddf1224851353fc92bfbff6f499fa97" target="_top" xlink:title=" ">
<polygon fill="white" stroke="#666666" points="248,-383 211,-383 211,-363 248,-363 248,-383"/>
<text text-anchor="middle" x="229.5" y="-369.5" font-family="Helvetica,sans-Serif" font-size="10.00">main</text>
</a>
</g>
</g>
<!-- Node1&#45;&gt;Node12 -->
<g id="edge14_Node000001_Node000012" class="edge">
<title>Node1&#45;&gt;Node12</title>
<g id="a_edge14_Node000001_Node000012"><a xlink:title=" ">
<path fill="none" stroke="#63b8ff" d="M552.65,-527.66C542.19,-496.5 518.2,-439.21 476.25,-411 438.72,-385.76 298.04,-376.38 248.16,-373.81"/>
<polygon fill="#63b8ff" stroke="#63b8ff" points="549.29,-528.64 555.66,-537.11 555.97,-526.52 549.29,-528.64"/>
</a>
</g>
</g>
<!-- Node13 -->
<g id="Node000013" class="node">
<title>Node13</title>
<g id="a_Node000013"><a xlink:href="classRtypeServer_1_1RoomManager.html#a6098a928ff3a36ed1ed338769b0e5f17" target="_top" xlink:title=" ">
<polygon fill="white" stroke="#666666" points="476.25,-326 335.75,-326 335.75,-294 476.25,-294 476.25,-326"/>
<text text-anchor="start" x="343.75" y="-312.5" font-family="Helvetica,sans-Serif" font-size="10.00">RtypeServer::RoomManager</text>
<text text-anchor="middle" x="406" y="-300.5" font-family="Helvetica,sans-Serif" font-size="10.00">::removeRoom</text>
</a>
</g>
</g>
<!-- Node1&#45;&gt;Node13 -->
<g id="edge15_Node000001_Node000013" class="edge">
<title>Node1&#45;&gt;Node13</title>
<g id="a_edge15_Node000001_Node000013"><a xlink:title=" ">
<path fill="none" stroke="#63b8ff" d="M556.59,-527.49C550.7,-484.89 531.75,-389.26 476.25,-335 472.87,-331.69 469.02,-328.82 464.9,-326.33"/>
<polygon fill="#63b8ff" stroke="#63b8ff" points="553.12,-527.91 557.84,-537.4 560.06,-527.04 553.12,-527.91"/>
</a>
</g>
</g>
<!-- Node14 -->
<g id="Node000014" class="node">
<title>Node14</title>
<g id="a_Node000014"><a xlink:href="classRtypeServer_1_1RoomManager.html#aa3078213f2cabd7f396398db5d4c846f" target="_top" xlink:title=" ">
<polygon fill="white" stroke="#666666" points="476.25,-276 335.75,-276 335.75,-244 476.25,-244 476.25,-276"/>
<text text-anchor="start" x="343.75" y="-262.5" font-family="Helvetica,sans-Serif" font-size="10.00">RtypeServer::RoomManager</text>
<text text-anchor="middle" x="406" y="-250.5" font-family="Helvetica,sans-Serif" font-size="10.00">::removeRoom</text>
</a>
</g>
</g>
<!-- Node1&#45;&gt;Node14 -->
<g id="edge16_Node000001_Node000014" class="edge">
<title>Node1&#45;&gt;Node14</title>
<g id="a_edge16_Node000001_Node000014"><a xlink:title=" ">
<path fill="none" stroke="#63b8ff" d="M558.43,-527.33C555.96,-477.7 543.05,-354.71 476.25,-285 473.07,-281.68 469.41,-278.8 465.47,-276.29"/>
<polygon fill="#63b8ff" stroke="#63b8ff" points="554.92,-527.17 558.81,-537.03 561.92,-526.9 554.92,-527.17"/>
</a>
</g>
</g>
<!-- Node15 -->
<g id="Node000015" class="node">
<title>Node15</title>
<g id="a_Node000015"><a xlink:href="classRtypeServer_1_1Room.html#a2fc8919357d30b54332aae6a44d6649d" target="_top" xlink:title=" ">
<polygon fill="white" stroke="#666666" points="473.62,-226 338.38,-226 338.38,-206 473.62,-206 473.62,-226"/>
<text text-anchor="middle" x="406" y="-212.5" font-family="Helvetica,sans-Serif" font-size="10.00">RtypeServer::Room::Room</text>
</a>
</g>
</g>
<!-- Node1&#45;&gt;Node15 -->
<g id="edge17_Node000001_Node000015" class="edge">
<title>Node1&#45;&gt;Node15</title>
<g id="a_edge17_Node000001_Node000015"><a xlink:title=" ">
<path fill="none" stroke="#63b8ff" d="M556.16,-527.59C547.29,-463.89 518.17,-277.35 476.25,-235 472.83,-231.54 468.84,-228.7 464.54,-226.36"/>
<polygon fill="#63b8ff" stroke="#63b8ff" points="552.64,-527.68 557.46,-537.11 559.57,-526.73 552.64,-527.68"/>
</a>
</g>
</g>
<!-- Node16 -->
<g id="Node000016" class="node">
<title>Node16</title>
<g id="a_Node000016"><a xlink:href="classRtypeServer_1_1RoomManager.html#a9299d53b609297063d603645f60b60b3" target="_top" xlink:title=" ">
<polygon fill="white" stroke="#666666" points="476.25,-188 335.75,-188 335.75,-156 476.25,-156 476.25,-188"/>
<text text-anchor="start" x="343.75" y="-174.5" font-family="Helvetica,sans-Serif" font-size="10.00">RtypeServer::RoomManager</text>
<text text-anchor="middle" x="406" y="-162.5" font-family="Helvetica,sans-Serif" font-size="10.00">::RoomManager</text>
</a>
</g>
</g>
<!-- Node1&#45;&gt;Node16 -->
<g id="edge18_Node000001_Node000016" class="edge">
<title>Node1&#45;&gt;Node16</title>
<g id="a_edge18_Node000001_Node000016"><a xlink:title=" ">
<path fill="none" stroke="#63b8ff" d="M556.62,-527.45C548.66,-458.84 520.86,-247.09 476.25,-197 473.36,-193.75 470.02,-190.93 466.39,-188.47"/>
<polygon fill="#63b8ff" stroke="#63b8ff" points="553.1,-527.48 557.71,-537.02 560.06,-526.69 553.1,-527.48"/>
</a>
</g>
</g>
<!-- Node17 -->
<g id="Node000017" class="node">
<title>Node17</title>
<g id="a_Node000017"><a xlink:href="classRtypeServer_1_1UdpServer.html#a1f4561ac6e917c681be96e80c6f72d31" target="_top" xlink:title=" ">
<polygon fill="white" stroke="#666666" points="291.12,-677 167.88,-677 167.88,-645 291.12,-645 291.12,-677"/>
<text text-anchor="start" x="175.88" y="-663.5" font-family="Helvetica,sans-Serif" font-size="10.00">RtypeServer::UdpServer</text>
<text text-anchor="middle" x="229.5" y="-651.5" font-family="Helvetica,sans-Serif" font-size="10.00">::send_room_created</text>
</a>
</g>
</g>
<!-- Node1&#45;&gt;Node17 -->
<g id="edge19_Node000001_Node000017" class="edge">
<title>Node1&#45;&gt;Node17</title>
<g id="a_edge19_Node000001_Node000017"><a xlink:title=" ">
<path fill="none" stroke="#63b8ff" d="M542.69,-567.53C527.26,-583.8 502.59,-606.74 476.25,-619 417.29,-646.45 342.89,-656.14 291.48,-659.47"/>
<polygon fill="#63b8ff" stroke="#63b8ff" points="545.05,-570.13 549.24,-560.4 539.9,-565.4 545.05,-570.13"/>
</a>
</g>
</g>
<!-- Node18 -->
<g id="Node000018" class="node">
<title>Node18</title>
<g id="a_Node000018"><a xlink:href="classRtypeServer_1_1UdpServer.html#ab6e480e2b78f9cbc75fb5ba9bbdc71f5" target="_top" xlink:title=" ">
<polygon fill="white" stroke="#666666" points="467.62,-842 344.38,-842 344.38,-810 467.62,-810 467.62,-842"/>
<text text-anchor="start" x="352.38" y="-828.5" font-family="Helvetica,sans-Serif" font-size="10.00">RtypeServer::UdpServer</text>
<text text-anchor="middle" x="406" y="-816.5" font-family="Helvetica,sans-Serif" font-size="10.00">::send_room_error</text>
</a>
</g>
</g>
<!-- Node1&#45;&gt;Node18 -->
<g id="edge21_Node000001_Node000018" class="edge">
<title>Node1&#45;&gt;Node18</title>
<g id="a_edge21_Node000001_Node000018"><a xlink:title=" ">
<path fill="none" stroke="#63b8ff" d="M557.53,-570.88C553.25,-617.96 536.91,-729.92 476.25,-796 471.29,-801.41 465.18,-805.88 458.67,-809.58"/>
<polygon fill="#63b8ff" stroke="#63b8ff" points="561.02,-571.17 558.32,-560.93 554.04,-570.62 561.02,-571.17"/>
</a>
</g>
</g>
<!-- Node19 -->
<g id="Node000019" class="node">
<title>Node19</title>
<g id="a_Node000019"><a xlink:href="classRtypeServer_1_1UdpServer.html#ae3593b22a1ed07c63ebf786f7667007c" target="_top" xlink:title=" ">
<polygon fill="white" stroke="#666666" points="467.62,-754 344.38,-754 344.38,-722 467.62,-722 467.62,-754"/>
<text text-anchor="start" x="352.38" y="-740.5" font-family="Helvetica,sans-Serif" font-size="10.00">RtypeServer::UdpServer</text>
<text text-anchor="middle" x="406" y="-728.5" font-family="Helvetica,sans-Serif" font-size="10.00">::send_room_joined</text>
</a>
</g>
</g>
<!-- Node1&#45;&gt;Node19 -->
<g id="edge26_Node000001_Node000019" class="edge">
<title>Node1&#45;&gt;Node19</title>
<g id="a_edge26_Node000001_Node000019"><a xlink:title=" ">
<path fill="none" stroke="#63b8ff" d="M553.05,-570.2C542.66,-603.65 518.23,-668.9 476.25,-708 470.5,-713.36 463.64,-717.85 456.5,-721.59"/>
<polygon fill="#63b8ff" stroke="#63b8ff" points="556.33,-571.45 555.82,-560.87 549.62,-569.46 556.33,-571.45"/>
</a>
</g>
</g>
<!-- Node20 -->
<g id="Node000020" class="node">
<title>Node20</title>
<g id="a_Node000020"><a xlink:href="classRtypeServer_1_1UdpServer.html#a7583cf1fea483149a02b3f2b5fdd8cad" target="_top" xlink:title=" ">
<polygon fill="white" stroke="#666666" points="467.62,-968 344.38,-968 344.38,-936 467.62,-936 467.62,-968"/>
<text text-anchor="start" x="352.38" y="-954.5" font-family="Helvetica,sans-Serif" font-size="10.00">RtypeServer::UdpServer</text>
<text text-anchor="middle" x="406" y="-942.5" font-family="Helvetica,sans-Serif" font-size="10.00">::send_room_left</text>
</a>
</g>
</g>
<!-- Node1&#45;&gt;Node20 -->
<g id="edge28_Node000001_Node000020" class="edge">
<title>Node1&#45;&gt;Node20</title>
<g id="a_edge28_Node000001_Node000020"><a xlink:title=" ">
<path fill="none" stroke="#63b8ff" d="M556.77,-570.76C549.07,-642.05 521.57,-867.1 476.25,-922 471.75,-927.46 466.06,-931.95 459.89,-935.63"/>
<polygon fill="#63b8ff" stroke="#63b8ff" points="560.25,-571.13 557.82,-560.82 553.29,-570.4 560.25,-571.13"/>
</a>
</g>
</g>
<!-- Node21 -->
<g id="Node000021" class="node">
<title>Node21</title>
<g id="a_Node000021"><a xlink:href="classRtypeServer_1_1UdpServer.html#ad76118bb574c0aebbd3f2fb0fb978ae2" target="_top" xlink:title=" ">
<polygon fill="white" stroke="#666666" points="467.62,-590 344.38,-590 344.38,-558 467.62,-558 467.62,-590"/>
<text text-anchor="start" x="352.38" y="-576.5" font-family="Helvetica,sans-Serif" font-size="10.00">RtypeServer::UdpServer</text>
<text text-anchor="middle" x="406" y="-564.5" font-family="Helvetica,sans-Serif" font-size="10.00">::send_room_list</text>
</a>
</g>
</g>
<!-- Node1&#45;&gt;Node21 -->
<g id="edge30_Node000001_Node000021" class="edge">
<title>Node1&#45;&gt;Node21</title>
<g id="a_edge30_Node000001_Node000021"><a xlink:title=" ">
<path fill="none" stroke="#63b8ff" d="M501.09,-558.52C490.26,-560.31 478.9,-562.17 467.98,-563.97"/>
<polygon fill="#63b8ff" stroke="#63b8ff" points="501.36,-562.03 510.66,-556.95 500.23,-555.12 501.36,-562.03"/>
</a>
</g>
</g>
<!-- Node22 -->
<g id="Node000022" class="node">
<title>Node22</title>
<g id="a_Node000022"><a xlink:href="classRtypeServer_1_1UdpServer.html#a55310c56cfdff32be53565892e398547" target="_top" xlink:title=" ">
<polygon fill="white" stroke="#666666" points="467.62,-138 344.38,-138 344.38,-106 467.62,-106 467.62,-138"/>
<text text-anchor="start" x="352.38" y="-124.5" font-family="Helvetica,sans-Serif" font-size="10.00">RtypeServer::UdpServer</text>
<text text-anchor="middle" x="406" y="-112.5" font-family="Helvetica,sans-Serif" font-size="10.00">::send_welcome</text>
</a>
</g>
</g>
<!-- Node1&#45;&gt;Node22 -->
<g id="edge32_Node000001_Node000022" class="edge">
<title>Node1&#45;&gt;Node22</title>
<g id="a_edge32_Node000001_Node000022"><a xlink:title=" ">
<path fill="none" stroke="#63b8ff" d="M557.3,-527.38C551.01,-452.46 526.74,-205.3 476.25,-147 473.41,-143.71 470.09,-140.86 466.49,-138.38"/>
<polygon fill="#63b8ff" stroke="#63b8ff" points="553.79,-527.4 558.09,-537.08 560.77,-526.83 553.79,-527.4"/>
</a>
</g>
</g>
<!-- Node23 -->
<g id="Node000023" class="node">
<title>Node23</title>
<g id="a_Node000023"><a xlink:href="Server_2src_2main_8cpp.html#a8ee3282bc313e547dbbb8d4f4010db61" target="_top" xlink:title=" ">
<polygon fill="white" stroke="#666666" points="443.62,-364 368.38,-364 368.38,-344 443.62,-344 443.62,-364"/>
<text text-anchor="middle" x="406" y="-350.5" font-family="Helvetica,sans-Serif" font-size="10.00">signalHandler</text>
</a>
</g>
</g>
<!-- Node1&#45;&gt;Node23 -->
<g id="edge33_Node000001_Node000023" class="edge">
<title>Node1&#45;&gt;Node23</title>
<g id="a_edge33_Node000001_Node000023"><a xlink:title=" ">
<path fill="none" stroke="#63b8ff" d="M554.37,-527.85C545.46,-492 522.55,-419.17 476.25,-378 467.22,-369.97 455.35,-364.59 444,-361.01"/>
<polygon fill="#63b8ff" stroke="#63b8ff" points="550.92,-528.47 556.61,-537.41 557.74,-526.87 550.92,-528.47"/>
</a>
</g>
</g>
<!-- Node24 -->
<g id="Node000024" class="node">
<title>Node24</title>
<g id="a_Node000024"><a xlink:href="classRtypeServer_1_1UdpServer.html#a5a4df9d03e0632f28af7c03394112ee1" target="_top" xlink:title=" ">
<polygon fill="white" stroke="#666666" points="467.62,-32 344.38,-32 344.38,0 467.62,0 467.62,-32"/>
<text text-anchor="start" x="352.38" y="-18.5" font-family="Helvetica,sans-Serif" font-size="10.00">RtypeServer::UdpServer</text>
<text text-anchor="middle" x="406" y="-6.5" font-family="Helvetica,sans-Serif" font-size="10.00">::start_heartbeat</text>
</a>
</g>
</g>
<!-- Node1&#45;&gt;Node24 -->
<g id="edge35_Node000001_Node000024" class="edge">
<title>Node1&#45;&gt;Node24</title>
<g id="a_edge35_Node000001_Node000024"><a xlink:title=" ">
<path fill="none" stroke="#63b8ff" d="M557.52,-527.34C551.5,-443.78 526.64,-143.17 476.25,-64 467.85,-50.8 454.37,-40.24 441.53,-32.43"/>
<polygon fill="#63b8ff" stroke="#63b8ff" points="554.03,-527.58 558.22,-537.31 561.01,-527.08 554.03,-527.58"/>
</a>
</g>
</g>
<!-- Node25 -->
<g id="Node000025" class="node">
<title>Node25</title>
<g id="a_Node000025"><a xlink:href="classRtypeServer_1_1UdpServer.html#a0ea43ddc4dab4340cd0ff10b6e51249c" target="_top" xlink:title=" ">
<polygon fill="white" stroke="#666666" points="291.12,-63 167.88,-63 167.88,-31 291.12,-31 291.12,-63"/>
<text text-anchor="start" x="175.88" y="-49.5" font-family="Helvetica,sans-Serif" font-size="10.00">RtypeServer::UdpServer</text>
<text text-anchor="middle" x="229.5" y="-37.5" font-family="Helvetica,sans-Serif" font-size="10.00">::UdpServer</text>
</a>
</g>
</g>
<!-- Node1&#45;&gt;Node25 -->
<g id="edge38_Node000001_Node000025" class="edge">
<title>Node1&#45;&gt;Node25</title>
<g id="a_edge38_Node000001_Node000025"><a xlink:title=" ">
<path fill="none" stroke="#63b8ff" d="M558.15,-527.36C554.49,-445.93 537.42,-159.39 476.25,-97 463.35,-83.85 360.09,-66.23 291.59,-55.8"/>
<polygon fill="#63b8ff" stroke="#63b8ff" points="554.65,-527.44 558.57,-537.28 561.64,-527.14 554.65,-527.44"/>
</a>
</g>
</g>
<!-- Node2&#45;&gt;Node3 -->
<g id="edge2_Node000002_Node000003" class="edge">
<title>Node2&#45;&gt;Node3</title>
<g id="a_edge2_Node000002_Node000003"><a xlink:title=" ">
<path fill="none" stroke="#63b8ff" d="M323.94,-990.39C312.99,-988.82 301.9,-987.23 291.38,-985.72"/>
<polygon fill="#63b8ff" stroke="#63b8ff" points="323.39,-993.84 333.78,-991.8 324.38,-986.91 323.39,-993.84"/>
</a>
</g>
</g>
<!-- Node4&#45;&gt;Node5 -->
<g id="edge4_Node000004_Node000005" class="edge">
<title>Node4&#45;&gt;Node5</title>
<g id="a_edge4_Node000004_Node000005"><a xlink:title=" ">
<path fill="none" stroke="#63b8ff" d="M155.69,-844.69C144.98,-841.85 134.05,-838.95 123.61,-836.18"/>
<polygon fill="#63b8ff" stroke="#63b8ff" points="154.71,-848.05 165.27,-847.23 156.5,-841.28 154.71,-848.05"/>
</a>
</g>
</g>
<!-- Node6&#45;&gt;Node5 -->
<g id="edge7_Node000006_Node000005" class="edge">
<title>Node6&#45;&gt;Node5</title>
<g id="a_edge7_Node000006_Node000005"><a xlink:title=" ">
<path fill="none" stroke="#63b8ff" d="M156.78,-795.02C145.76,-797.95 134.48,-800.94 123.72,-803.79"/>
<polygon fill="#63b8ff" stroke="#63b8ff" points="157.44,-798.47 166.21,-792.52 155.65,-791.7 157.44,-798.47"/>
</a>
</g>
</g>
<!-- Node17&#45;&gt;Node5 -->
<g id="edge20_Node000017_Node000005" class="edge">
<title>Node17&#45;&gt;Node5</title>
<g id="a_edge20_Node000017_Node000005"><a xlink:title=" ">
<path fill="none" stroke="#63b8ff" d="M178.57,-682.84C171.77,-686.77 165.12,-691.17 159.25,-696 120.47,-727.9 87.52,-778 72.05,-803.66"/>
<polygon fill="#63b8ff" stroke="#63b8ff" points="180.1,-685.99 187.23,-678.15 176.77,-679.84 180.1,-685.99"/>
</a>
</g>
</g>
<!-- Node18&#45;&gt;Node3 -->
<g id="edge24_Node000018_Node000003" class="edge">
<title>Node18&#45;&gt;Node3</title>
<g id="a_edge24_Node000018_Node000003"><a xlink:title=" ">
<path fill="none" stroke="#63b8ff" d="M377.5,-849.79C341.8,-880.69 280.41,-933.81 249.48,-960.57"/>
<polygon fill="#63b8ff" stroke="#63b8ff" points="379.58,-852.63 384.85,-843.44 375,-847.33 379.58,-852.63"/>
</a>
</g>
</g>
<!-- Node18&#45;&gt;Node5 -->
<g id="edge22_Node000018_Node000005" class="edge">
<title>Node18&#45;&gt;Node5</title>
<g id="a_edge22_Node000018_Node000005"><a xlink:title=" ">
<path fill="none" stroke="#63b8ff" d="M332.92,-824.74C270.89,-823.65 182.36,-822.1 123.74,-821.07"/>
<polygon fill="#63b8ff" stroke="#63b8ff" points="332.61,-828.23 342.67,-824.91 332.73,-821.23 332.61,-828.23"/>
</a>
</g>
</g>
<!-- Node18&#45;&gt;Node6 -->
<g id="edge23_Node000018_Node000006" class="edge">
<title>Node18&#45;&gt;Node6</title>
<g id="a_edge23_Node000018_Node000006"><a xlink:title=" ">
<path fill="none" stroke="#63b8ff" d="M336.87,-806.48C320.73,-801.85 303.68,-796.97 288.06,-792.49"/>
<polygon fill="#63b8ff" stroke="#63b8ff" points="335.83,-809.82 346.41,-809.21 337.76,-803.09 335.83,-809.82"/>
</a>
</g>
</g>
<!-- Node18&#45;&gt;Node8 -->
<g id="edge25_Node000018_Node000008" class="edge">
<title>Node18&#45;&gt;Node8</title>
<g id="a_edge25_Node000018_Node000008"><a xlink:title=" ">
<path fill="none" stroke="#63b8ff" d="M376.05,-802.84C355.5,-787.05 326.86,-766.31 299.75,-751 291.08,-746.1 281.45,-741.47 272.2,-737.38"/>
<polygon fill="#63b8ff" stroke="#63b8ff" points="373.65,-805.41 383.69,-808.79 377.95,-799.89 373.65,-805.41"/>
</a>
</g>
</g>
<!-- Node19&#45;&gt;Node6 -->
<g id="edge27_Node000019_Node000006" class="edge">
<title>Node19&#45;&gt;Node6</title>
<g id="a_edge27_Node000019_Node000006"><a xlink:title=" ">
<path fill="none" stroke="#63b8ff" d="M333.04,-753.67C319.24,-756.68 304.91,-759.8 291.5,-762.72"/>
<polygon fill="#63b8ff" stroke="#63b8ff" points="333.46,-757.16 342.49,-751.61 331.97,-750.32 333.46,-757.16"/>
</a>
</g>
</g>
<!-- Node20&#45;&gt;Node3 -->
<g id="edge29_Node000020_Node000003" class="edge">
<title>Node20&#45;&gt;Node3</title>
<g id="a_edge29_Node000020_Node000003"><a xlink:title=" ">
<path fill="none" stroke="#63b8ff" d="M332.63,-962.37C318.96,-964.33 304.78,-966.36 291.5,-968.26"/>
<polygon fill="#63b8ff" stroke="#63b8ff" points="333.07,-965.84 342.47,-960.96 332.07,-958.91 333.07,-965.84"/>
</a>
</g>
</g>
<!-- Node21&#45;&gt;Node7 -->
<g id="edge31_Node000021_Node000007" class="edge">
<title>Node21&#45;&gt;Node7</title>
<g id="a_edge31_Node000021_Node000007"><a xlink:title=" ">
<path fill="none" stroke="#63b8ff" d="M332.63,-583.12C318.96,-584.85 304.78,-586.64 291.5,-588.31"/>
<polygon fill="#63b8ff" stroke="#63b8ff" points="332.98,-586.61 342.47,-581.88 332.11,-579.66 332.98,-586.61"/>
</a>
</g>
</g>
<!-- Node23&#45;&gt;Node12 -->
<g id="edge34_Node000023_Node000012" class="edge">
<title>Node23&#45;&gt;Node12</title>
<g id="a_edge34_Node000023_Node000012"><a xlink:title=" ">
<path fill="none" stroke="#63b8ff" d="M356.73,-359.26C320.71,-363.18 273.52,-368.32 248.27,-371.06"/>
<polygon fill="#63b8ff" stroke="#63b8ff" points="356.93,-362.76 366.49,-358.19 356.17,-355.8 356.93,-362.76"/>
</a>
</g>
</g>
<!-- Node24&#45;&gt;Node24 -->
<g id="edge36_Node000024_Node000024" class="edge">
<title>Node24&#45;&gt;Node24</title>
<g id="a_edge36_Node000024_Node000024"><a xlink:title=" ">
<path fill="none" stroke="#63b8ff" d="M431.66,-43.71C427.38,-47.48 418.83,-50 406,-50 382.54,-50 373.37,-41.58 378.51,-32.44"/>
<polygon fill="#63b8ff" stroke="#63b8ff" points="435.1,-44.37 433.25,-33.94 428.19,-43.25 435.1,-44.37"/>
</a>
</g>
</g>
<!-- Node24&#45;&gt;Node25 -->
<g id="edge37_Node000024_Node000025" class="edge">
<title>Node24&#45;&gt;Node25</title>
<g id="a_edge37_Node000024_Node000025"><a xlink:title=" ">
<path fill="none" stroke="#63b8ff" d="M333.04,-28.78C319.24,-31.24 304.91,-33.78 291.5,-36.16"/>
<polygon fill="#63b8ff" stroke="#63b8ff" points="333.24,-32.3 342.48,-27.11 332.02,-25.41 333.24,-32.3"/>
</a>
</g>
</g>
</g>
</svg>
