<?xml version="1.0" encoding="UTF-8" standalone="no"?>
<!DOCTYPE svg PUBLIC "-//W3C//DTD SVG 1.1//EN"
 "http://www.w3.org/Graphics/SVG/1.1/DTD/svg11.dtd">
<!-- Generated by graphviz version 12.1.0 (20240811.2233)
 -->
<!-- Title: RtypeServer::warnf Pages: 1 -->
<svg width="605pt" height="592pt"
 viewBox="0.00 0.00 604.50 592.40" xmlns="http://www.w3.org/2000/svg" xmlns:xlink="http://www.w3.org/1999/xlink">
<g id="graph0" class="graph" transform="scale(1 1) rotate(0) translate(4 588.4)">
<title>RtypeServer::warnf</title>
<!-- Node1 -->
<g id="Node000001" class="node">
<title>Node1</title>
<g id="a_Node000001"><a xlink:title=" ">
<polygon fill="#999999" stroke="#666666" points="596.5,-314.4 495.75,-314.4 495.75,-294.4 596.5,-294.4 596.5,-314.4"/>
<text text-anchor="middle" x="546.12" y="-300.9" font-family="Helvetica,sans-Serif" font-size="10.00">RtypeServer::warnf</text>
</a>
</g>
</g>
<!-- Node2 -->
<g id="Node000002" class="node">
<title>Node2</title>
<g id="a_Node000002"><a xlink:href="classRtypeServer_1_1Room.html#abc592fb09d6022d1ba0645f79c117368" target="_top" xlink:title=" ">
<polygon fill="white" stroke="#666666" points="452.25,-584.4 343.25,-584.4 343.25,-552.4 452.25,-552.4 452.25,-584.4"/>
<text text-anchor="start" x="351.25" y="-570.9" font-family="Helvetica,sans-Serif" font-size="10.00">RtypeServer::Room::</text>
<text text-anchor="middle" x="397.75" y="-558.9" font-family="Helvetica,sans-Serif" font-size="10.00">broadcast</text>
</a>
</g>
</g>
<!-- Node1&#45;&gt;Node2 -->
<g id="edge1_Node000001_Node000002" class="edge">
<title>Node1&#45;&gt;Node2</title>
<g id="a_edge1_Node000001_Node000002"><a xlink:title=" ">
<path fill="none" stroke="#63b8ff" d="M542.68,-325.85C536.55,-370.6 516.68,-475.02 459.75,-538.4 454.94,-543.76 448.96,-548.27 442.64,-552.02"/>
<polygon fill="#63b8ff" stroke="#63b8ff" points="546.13,-326.53 543.91,-316.17 539.18,-325.65 546.13,-326.53"/>
</a>
</g>
</g>
<!-- Node3 -->
<g id="Node000003" class="node">
<title>Node3</title>
<g id="a_Node000003"><a xlink:href="classRtypeServer_1_1RoomManager.html#ad598fe8c2755ee1d450b9e7b045eb034" target="_top" xlink:title=" ">
<polygon fill="white" stroke="#666666" points="299.75,-500.4 159.25,-500.4 159.25,-468.4 299.75,-468.4 299.75,-500.4"/>
<text text-anchor="start" x="167.25" y="-486.9" font-family="Helvetica,sans-Serif" font-size="10.00">RtypeServer::RoomManager</text>
<text text-anchor="middle" x="229.5" y="-474.9" font-family="Helvetica,sans-Serif" font-size="10.00">::createRoom</text>
</a>
</g>
</g>
<!-- Node1&#45;&gt;Node3 -->
<g id="edge2_Node000001_Node000003" class="edge">
<title>Node1&#45;&gt;Node3</title>
<g id="a_edge2_Node000001_Node000003"><a xlink:title=" ">
<path fill="none" stroke="#63b8ff" d="M543.41,-326.08C538.71,-369.08 521.49,-464.55 459.75,-505.4 401.26,-544.11 315.22,-519.88 266.9,-500.81"/>
<polygon fill="#63b8ff" stroke="#63b8ff" points="546.88,-326.55 544.34,-316.26 539.92,-325.89 546.88,-326.55"/>
</a>
</g>
</g>
<!-- Node5 -->
<g id="Node000005" class="node">
<title>Node5</title>
<g id="a_Node000005"><a xlink:href="classRtypeServer_1_1UdpServer.html#af899537d714b0ae94ca4f376644ac652" target="_top" xlink:title=" ">
<polygon fill="white" stroke="#666666" points="459.38,-496.4 336.12,-496.4 336.12,-464.4 459.38,-464.4 459.38,-496.4"/>
<text text-anchor="start" x="344.12" y="-482.9" font-family="Helvetica,sans-Serif" font-size="10.00">RtypeServer::UdpServer</text>
<text text-anchor="middle" x="397.75" y="-470.9" font-family="Helvetica,sans-Serif" font-size="10.00">::handle_receive</text>
</a>
</g>
</g>
<!-- Node1&#45;&gt;Node5 -->
<g id="edge4_Node000001_Node000005" class="edge">
<title>Node1&#45;&gt;Node5</title>
<g id="a_edge4_Node000001_Node000005"><a xlink:title=" ">
<path fill="none" stroke="#63b8ff" d="M538.28,-325.52C526.86,-357.68 501.01,-419.02 459.75,-455.4 456.06,-458.66 451.89,-461.52 447.5,-464.04"/>
<polygon fill="#63b8ff" stroke="#63b8ff" points="541.55,-326.77 541.46,-316.17 534.93,-324.51 541.55,-326.77"/>
</a>
</g>
</g>
<!-- Node6 -->
<g id="Node000006" class="node">
<title>Node6</title>
<g id="a_Node000006"><a xlink:href="classRtypeServer_1_1Room.html#a922d7999e2f66fb4a296b2c75f4713a5" target="_top" xlink:title=" ">
<polygon fill="white" stroke="#666666" points="459.75,-446.4 335.75,-446.4 335.75,-426.4 459.75,-426.4 459.75,-446.4"/>
<text text-anchor="middle" x="397.75" y="-432.9" font-family="Helvetica,sans-Serif" font-size="10.00">RtypeServer::Room::join</text>
</a>
</g>
</g>
<!-- Node1&#45;&gt;Node6 -->
<g id="edge5_Node000001_Node000006" class="edge">
<title>Node1&#45;&gt;Node6</title>
<g id="a_edge5_Node000001_Node000006"><a xlink:title=" ">
<path fill="none" stroke="#63b8ff" d="M533.73,-324.6C519.31,-348.53 492.37,-388.2 459.75,-412.4 452.26,-417.96 443.3,-422.43 434.6,-425.92"/>
<polygon fill="#63b8ff" stroke="#63b8ff" points="536.66,-326.53 538.69,-316.13 530.62,-322.99 536.66,-326.53"/>
</a>
</g>
</g>
<!-- Node7 -->
<g id="Node000007" class="node">
<title>Node7</title>
<g id="a_Node000007"><a xlink:href="classRtypeServer_1_1UdpServer.html#ad5b8e37aeff4739ff56c64834ff489d4" target="_top" xlink:title=" ">
<polygon fill="white" stroke="#666666" points="459.38,-170.4 336.12,-170.4 336.12,-138.4 459.38,-138.4 459.38,-170.4"/>
<text text-anchor="start" x="344.12" y="-156.9" font-family="Helvetica,sans-Serif" font-size="10.00">RtypeServer::UdpServer</text>
<text text-anchor="middle" x="397.75" y="-144.9" font-family="Helvetica,sans-Serif" font-size="10.00">::send_ping</text>
</a>
</g>
</g>
<!-- Node1&#45;&gt;Node7 -->
<g id="edge6_Node000001_Node000007" class="edge">
<title>Node1&#45;&gt;Node7</title>
<g id="a_edge6_Node000001_Node000007"><a xlink:title=" ">
<path fill="none" stroke="#63b8ff" d="M535.83,-283.88C522.54,-256.6 495.68,-208.48 459.75,-179.4 455.75,-176.16 451.26,-173.29 446.6,-170.76"/>
<polygon fill="#63b8ff" stroke="#63b8ff" points="532.61,-285.25 540.04,-292.81 538.94,-282.27 532.61,-285.25"/>
</a>
</g>
</g>
<!-- Node10 -->
<g id="Node000010" class="node">
<title>Node10</title>
<g id="a_Node000010"><a xlink:href="classRtypeServer_1_1UdpServer.html#a7e9c2db44d31376da828df0be9c81d0a" target="_top" xlink:title=" ">
<polygon fill="white" stroke="#666666" points="459.38,-370.4 336.12,-370.4 336.12,-338.4 459.38,-338.4 459.38,-370.4"/>
<text text-anchor="start" x="344.12" y="-356.9" font-family="Helvetica,sans-Serif" font-size="10.00">RtypeServer::UdpServer</text>
<text text-anchor="middle" x="397.75" y="-344.9" font-family="Helvetica,sans-Serif" font-size="10.00">::send_pong</text>
</a>
</g>
</g>
<!-- Node1&#45;&gt;Node10 -->
<g id="edge10_Node000001_Node000010" class="edge">
<title>Node1&#45;&gt;Node10</title>
<g id="a_edge10_Node000001_Node000010"><a xlink:title=" ">
<path fill="none" stroke="#63b8ff" d="M503.62,-318.58C485.98,-324.61 465.29,-331.68 446.97,-337.93"/>
<polygon fill="#63b8ff" stroke="#63b8ff" points="504.68,-321.92 513.01,-315.37 502.41,-315.29 504.68,-321.92"/>
</a>
</g>
</g>
<!-- Node11 -->
<g id="Node000011" class="node">
<title>Node11</title>
<g id="a_Node000011"><a xlink:href="classRtypeServer_1_1UdpServer.html#a1f4561ac6e917c681be96e80c6f72d31" target="_top" xlink:title=" ">
<polygon fill="white" stroke="#666666" points="291.12,-411.4 167.88,-411.4 167.88,-379.4 291.12,-379.4 291.12,-411.4"/>
<text text-anchor="start" x="175.88" y="-397.9" font-family="Helvetica,sans-Serif" font-size="10.00">RtypeServer::UdpServer</text>
<text text-anchor="middle" x="229.5" y="-385.9" font-family="Helvetica,sans-Serif" font-size="10.00">::send_room_created</text>
</a>
</g>
</g>
<!-- Node1&#45;&gt;Node11 -->
<g id="edge11_Node000001_Node000011" class="edge">
<title>Node1&#45;&gt;Node11</title>
<g id="a_edge11_Node000001_Node000011"><a xlink:title=" ">
<path fill="none" stroke="#63b8ff" d="M530.18,-323.26C514.7,-341.24 488.74,-367.31 459.75,-379.4 405.99,-401.83 338.99,-403.88 291.33,-401.5"/>
<polygon fill="#63b8ff" stroke="#63b8ff" points="532.62,-325.81 536.32,-315.88 527.23,-321.34 532.62,-325.81"/>
</a>
</g>
</g>
<!-- Node12 -->
<g id="Node000012" class="node">
<title>Node12</title>
<g id="a_Node000012"><a xlink:href="classRtypeServer_1_1UdpServer.html#ab6e480e2b78f9cbc75fb5ba9bbdc71f5" target="_top" xlink:title=" ">
<polygon fill="white" stroke="#666666" points="459.38,-270.4 336.12,-270.4 336.12,-238.4 459.38,-238.4 459.38,-270.4"/>
<text text-anchor="start" x="344.12" y="-256.9" font-family="Helvetica,sans-Serif" font-size="10.00">RtypeServer::UdpServer</text>
<text text-anchor="middle" x="397.75" y="-244.9" font-family="Helvetica,sans-Serif" font-size="10.00">::send_room_error</text>
</a>
</g>
</g>
<!-- Node1&#45;&gt;Node12 -->
<g id="edge13_Node000001_Node000012" class="edge">
<title>Node1&#45;&gt;Node12</title>
<g id="a_edge13_Node000001_Node000012"><a xlink:title=" ">
<path fill="none" stroke="#63b8ff" d="M503.62,-290.23C485.98,-284.2 465.29,-277.13 446.97,-270.87"/>
<polygon fill="#63b8ff" stroke="#63b8ff" points="502.41,-293.51 513.01,-293.43 504.68,-286.89 502.41,-293.51"/>
</a>
</g>
</g>
<!-- Node16 -->
<g id="Node000016" class="node">
<title>Node16</title>
<g id="a_Node000016"><a xlink:href="classRtypeServer_1_1UdpServer.html#ae3593b22a1ed07c63ebf786f7667007c" target="_top" xlink:title=" ">
<polygon fill="white" stroke="#666666" points="459.38,-320.4 336.12,-320.4 336.12,-288.4 459.38,-288.4 459.38,-320.4"/>
<text text-anchor="start" x="344.12" y="-306.9" font-family="Helvetica,sans-Serif" font-size="10.00">RtypeServer::UdpServer</text>
<text text-anchor="middle" x="397.75" y="-294.9" font-family="Helvetica,sans-Serif" font-size="10.00">::send_room_joined</text>
</a>
</g>
</g>
<!-- Node1&#45;&gt;Node16 -->
<g id="edge19_Node000001_Node000016" class="edge">
<title>Node1&#45;&gt;Node16</title>
<g id="a_edge19_Node000001_Node000016"><a xlink:title=" ">
<path fill="none" stroke="#63b8ff" d="M484.26,-304.4C476.14,-304.4 467.81,-304.4 459.68,-304.4"/>
<polygon fill="#63b8ff" stroke="#63b8ff" points="484.06,-307.9 494.06,-304.4 484.06,-300.9 484.06,-307.9"/>
</a>
</g>
</g>
<!-- Node17 -->
<g id="Node000017" class="node">
<title>Node17</title>
<g id="a_Node000017"><a xlink:href="classRtypeServer_1_1UdpServer.html#a7583cf1fea483149a02b3f2b5fdd8cad" target="_top" xlink:title=" ">
<polygon fill="white" stroke="#666666" points="459.38,-220.4 336.12,-220.4 336.12,-188.4 459.38,-188.4 459.38,-220.4"/>
<text text-anchor="start" x="344.12" y="-206.9" font-family="Helvetica,sans-Serif" font-size="10.00">RtypeServer::UdpServer</text>
<text text-anchor="middle" x="397.75" y="-194.9" font-family="Helvetica,sans-Serif" font-size="10.00">::send_room_left</text>
</a>
</g>
</g>
<!-- Node1&#45;&gt;Node17 -->
<g id="edge21_Node000001_Node000017" class="edge">
<title>Node1&#45;&gt;Node17</title>
<g id="a_edge21_Node000001_Node000017"><a xlink:title=" ">
<path fill="none" stroke="#63b8ff" d="M527.88,-286.11C511.55,-269.61 485.74,-245.51 459.75,-229.4 454.69,-226.27 449.17,-223.37 443.59,-220.76"/>
<polygon fill="#63b8ff" stroke="#63b8ff" points="524.97,-288.14 534.44,-292.88 529.99,-283.27 524.97,-288.14"/>
</a>
</g>
</g>
<!-- Node18 -->
<g id="Node000018" class="node">
<title>Node18</title>
<g id="a_Node000018"><a xlink:href="classRtypeServer_1_1UdpServer.html#ad76118bb574c0aebbd3f2fb0fb978ae2" target="_top" xlink:title=" ">
<polygon fill="white" stroke="#666666" points="459.38,-120.4 336.12,-120.4 336.12,-88.4 459.38,-88.4 459.38,-120.4"/>
<text text-anchor="start" x="344.12" y="-106.9" font-family="Helvetica,sans-Serif" font-size="10.00">RtypeServer::UdpServer</text>
<text text-anchor="middle" x="397.75" y="-94.9" font-family="Helvetica,sans-Serif" font-size="10.00">::send_room_list</text>
</a>
</g>
</g>
<!-- Node1&#45;&gt;Node18 -->
<g id="edge23_Node000001_Node000018" class="edge">
<title>Node1&#45;&gt;Node18</title>
<g id="a_edge23_Node000001_Node000018"><a xlink:title=" ">
<path fill="none" stroke="#63b8ff" d="M540.05,-283.03C530.39,-246.75 506.09,-172.83 459.75,-129.4 456.33,-126.19 452.43,-123.37 448.31,-120.9"/>
<polygon fill="#63b8ff" stroke="#63b8ff" points="536.65,-283.88 542.49,-292.72 543.44,-282.16 536.65,-283.88"/>
</a>
</g>
</g>
<!-- Node20 -->
<g id="Node000020" class="node">
<title>Node20</title>
<g id="a_Node000020"><a xlink:href="classRtypeServer_1_1UdpServer.html#a55310c56cfdff32be53565892e398547" target="_top" xlink:title=" ">
<polygon fill="white" stroke="#666666" points="459.38,-70.4 336.12,-70.4 336.12,-38.4 459.38,-38.4 459.38,-70.4"/>
<text text-anchor="start" x="344.12" y="-56.9" font-family="Helvetica,sans-Serif" font-size="10.00">RtypeServer::UdpServer</text>
<text text-anchor="middle" x="397.75" y="-44.9" font-family="Helvetica,sans-Serif" font-size="10.00">::send_welcome</text>
</a>
</g>
</g>
<!-- Node1&#45;&gt;Node20 -->
<g id="edge25_Node000001_Node000020" class="edge">
<title>Node1&#45;&gt;Node20</title>
<g id="a_edge25_Node000001_Node000020"><a xlink:title=" ">
<path fill="none" stroke="#63b8ff" d="M542.72,-283.18C536.7,-239.4 517.06,-138.24 459.75,-79.4 456.56,-76.12 452.87,-73.26 448.93,-70.76"/>
<polygon fill="#63b8ff" stroke="#63b8ff" points="539.22,-283.39 543.95,-292.87 546.17,-282.51 539.22,-283.39"/>
</a>
</g>
</g>
<!-- Node21 -->
<g id="Node000021" class="node">
<title>Node21</title>
<g id="a_Node000021"><a xlink:href="classRtypeServer_1_1UdpServer.html#a620cd373cc7635a0912be5cfb36cc822" target="_top" xlink:title=" ">
<polygon fill="white" stroke="#666666" points="291.12,-39.4 167.88,-39.4 167.88,-7.4 291.12,-7.4 291.12,-39.4"/>
<text text-anchor="start" x="175.88" y="-25.9" font-family="Helvetica,sans-Serif" font-size="10.00">RtypeServer::UdpServer</text>
<text text-anchor="middle" x="229.5" y="-13.9" font-family="Helvetica,sans-Serif" font-size="10.00">::start_receive</text>
</a>
</g>
</g>
<!-- Node1&#45;&gt;Node21 -->
<g id="edge26_Node000001_Node000021" class="edge">
<title>Node1&#45;&gt;Node21</title>
<g id="a_edge26_Node000001_Node000021"><a xlink:title=" ">
<path fill="none" stroke="#63b8ff" d="M541.72,-282.92C531.86,-223.79 501.34,-60.89 459.75,-29.4 412.21,6.58 341.85,2.52 291.62,-7.05"/>
<polygon fill="#63b8ff" stroke="#63b8ff" points="538.24,-283.37 543.31,-292.68 545.15,-282.24 538.24,-283.37"/>
</a>
</g>
</g>
<!-- Node4 -->
<g id="Node000004" class="node">
<title>Node4</title>
<g id="a_Node000004"><a xlink:href="classRtypeServer_1_1UdpServer.html#a8edbc5c835a5d23856953e06f7877b8d" target="_top" xlink:title=" ">
<polygon fill="white" stroke="#666666" points="123.25,-383.4 0,-383.4 0,-351.4 123.25,-351.4 123.25,-383.4"/>
<text text-anchor="start" x="8" y="-369.9" font-family="Helvetica,sans-Serif" font-size="10.00">RtypeServer::UdpServer</text>
<text text-anchor="middle" x="61.62" y="-357.9" font-family="Helvetica,sans-Serif" font-size="10.00">::handle_create_room</text>
</a>
</g>
</g>
<!-- Node3&#45;&gt;Node4 -->
<g id="edge3_Node000003_Node000004" class="edge">
<title>Node3&#45;&gt;Node4</title>
<g id="a_edge3_Node000003_Node000004"><a xlink:title=" ">
<path fill="none" stroke="#63b8ff" d="M196.35,-461.73C163.89,-438.83 114.56,-404.03 85.76,-383.72"/>
<polygon fill="#63b8ff" stroke="#63b8ff" points="194.01,-464.36 204.2,-467.26 198.04,-458.64 194.01,-464.36"/>
</a>
</g>
</g>
<!-- Node8 -->
<g id="Node000008" class="node">
<title>Node8</title>
<g id="a_Node000008"><a xlink:href="classRtypeServer_1_1UdpServer.html#a5a4df9d03e0632f28af7c03394112ee1" target="_top" xlink:title=" ">
<polygon fill="white" stroke="#666666" points="291.12,-152.4 167.88,-152.4 167.88,-120.4 291.12,-120.4 291.12,-152.4"/>
<text text-anchor="start" x="175.88" y="-138.9" font-family="Helvetica,sans-Serif" font-size="10.00">RtypeServer::UdpServer</text>
<text text-anchor="middle" x="229.5" y="-126.9" font-family="Helvetica,sans-Serif" font-size="10.00">::start_heartbeat</text>
</a>
</g>
</g>
<!-- Node7&#45;&gt;Node8 -->
<g id="edge7_Node000007_Node000008" class="edge">
<title>Node7&#45;&gt;Node8</title>
<g id="a_edge7_Node000007_Node000008"><a xlink:title=" ">
<path fill="none" stroke="#63b8ff" d="M324.45,-146.58C313.44,-145.38 302.18,-144.16 291.45,-143"/>
<polygon fill="#63b8ff" stroke="#63b8ff" points="323.97,-150.04 334.28,-147.64 324.72,-143.08 323.97,-150.04"/>
</a>
</g>
</g>
<!-- Node8&#45;&gt;Node8 -->
<g id="edge8_Node000008_Node000008" class="edge">
<title>Node8&#45;&gt;Node8</title>
<g id="a_edge8_Node000008_Node000008"><a xlink:title=" ">
<path fill="none" stroke="#63b8ff" d="M257.48,-164.11C252.81,-167.89 243.49,-170.4 229.5,-170.4 203.93,-170.4 193.94,-161.99 199.53,-152.85"/>
<polygon fill="#63b8ff" stroke="#63b8ff" points="260.91,-164.79 259.21,-154.34 254.02,-163.57 260.91,-164.79"/>
</a>
</g>
</g>
<!-- Node9 -->
<g id="Node000009" class="node">
<title>Node9</title>
<g id="a_Node000009"><a xlink:href="classRtypeServer_1_1UdpServer.html#a0ea43ddc4dab4340cd0ff10b6e51249c" target="_top" xlink:title=" ">
<polygon fill="white" stroke="#666666" points="123.25,-89.4 0,-89.4 0,-57.4 123.25,-57.4 123.25,-89.4"/>
<text text-anchor="start" x="8" y="-75.9" font-family="Helvetica,sans-Serif" font-size="10.00">RtypeServer::UdpServer</text>
<text text-anchor="middle" x="61.62" y="-63.9" font-family="Helvetica,sans-Serif" font-size="10.00">::UdpServer</text>
</a>
</g>
</g>
<!-- Node8&#45;&gt;Node9 -->
<g id="edge9_Node000008_Node000009" class="edge">
<title>Node8&#45;&gt;Node9</title>
<g id="a_edge9_Node000008_Node000009"><a xlink:title=" ">
<path fill="none" stroke="#63b8ff" d="M171.73,-116.06C167.5,-114.5 163.31,-112.93 159.25,-111.4 140.87,-104.47 120.62,-96.55 103.43,-89.75"/>
<polygon fill="#63b8ff" stroke="#63b8ff" points="170.23,-119.23 180.82,-119.39 172.64,-112.66 170.23,-119.23"/>
</a>
</g>
</g>
<!-- Node11&#45;&gt;Node4 -->
<g id="edge12_Node000011_Node000004" class="edge">
<title>Node11&#45;&gt;Node4</title>
<g id="a_edge12_Node000011_Node000004"><a xlink:title=" ">
<path fill="none" stroke="#63b8ff" d="M156.43,-383.24C145.53,-381.4 134.36,-379.51 123.72,-377.72"/>
<polygon fill="#63b8ff" stroke="#63b8ff" points="155.74,-386.67 166.18,-384.88 156.91,-379.77 155.74,-386.67"/>
</a>
</g>
</g>
<!-- Node12&#45;&gt;Node4 -->
<g id="edge14_Node000012_Node000004" class="edge">
<title>Node12&#45;&gt;Node4</title>
<g id="a_edge14_Node000012_Node000004"><a xlink:title=" ">
<path fill="none" stroke="#63b8ff" d="M324.77,-273.09C257.82,-290.53 167.2,-314.33 159.25,-317.4 135.11,-326.72 109.13,-340.39 90.2,-351.08"/>
<polygon fill="#63b8ff" stroke="#63b8ff" points="325.46,-276.53 334.25,-270.62 323.69,-269.75 325.46,-276.53"/>
</a>
</g>
</g>
<!-- Node13 -->
<g id="Node000013" class="node">
<title>Node13</title>
<g id="a_Node000013"><a xlink:href="classRtypeServer_1_1UdpServer.html#ad6474bca80e8ede6d6bbf8ff3524c05e" target="_top" xlink:title=" ">
<polygon fill="white" stroke="#666666" points="291.12,-358.4 167.88,-358.4 167.88,-326.4 291.12,-326.4 291.12,-358.4"/>
<text text-anchor="start" x="175.88" y="-344.9" font-family="Helvetica,sans-Serif" font-size="10.00">RtypeServer::UdpServer</text>
<text text-anchor="middle" x="229.5" y="-332.9" font-family="Helvetica,sans-Serif" font-size="10.00">::handle_join_room</text>
</a>
</g>
</g>
<!-- Node12&#45;&gt;Node13 -->
<g id="edge15_Node000012_Node000013" class="edge">
<title>Node12&#45;&gt;Node13</title>
<g id="a_edge15_Node000012_Node000013"><a xlink:title=" ">
<path fill="none" stroke="#63b8ff" d="M341.47,-275.99C339.51,-277.09 337.6,-278.23 335.75,-279.4 317.42,-291.03 317.96,-300.59 299.75,-312.4 291.95,-317.47 283.14,-322.03 274.5,-325.98"/>
<polygon fill="#63b8ff" stroke="#63b8ff" points="342.9,-279.19 350.18,-271.5 339.69,-272.97 342.9,-279.19"/>
</a>
</g>
</g>
<!-- Node14 -->
<g id="Node000014" class="node">
<title>Node14</title>
<g id="a_Node000014"><a xlink:href="classRtypeServer_1_1UdpServer.html#aabf9ebd666d71e6c525ec9553ab2191e" target="_top" xlink:title=" ">
<polygon fill="white" stroke="#666666" points="291.12,-220.4 167.88,-220.4 167.88,-188.4 291.12,-188.4 291.12,-220.4"/>
<text text-anchor="start" x="175.88" y="-206.9" font-family="Helvetica,sans-Serif" font-size="10.00">RtypeServer::UdpServer</text>
<text text-anchor="middle" x="229.5" y="-194.9" font-family="Helvetica,sans-Serif" font-size="10.00">::handle_leave_room</text>
</a>
</g>
</g>
<!-- Node12&#45;&gt;Node14 -->
<g id="edge17_Node000012_Node000014" class="edge">
<title>Node12&#45;&gt;Node14</title>
<g id="a_edge17_Node000012_Node000014"><a xlink:title=" ">
<path fill="none" stroke="#63b8ff" d="M331.39,-234.75C316.15,-230.16 300.08,-225.33 285.34,-220.9"/>
<polygon fill="#63b8ff" stroke="#63b8ff" points="330.28,-238.07 340.86,-237.6 332.3,-231.36 330.28,-238.07"/>
</a>
</g>
</g>
<!-- Node15 -->
<g id="Node000015" class="node">
<title>Node15</title>
<g id="a_Node000015"><a xlink:href="classRtypeServer_1_1UdpServer.html#ada88a91b0b6bead16ff8321837e8bd94" target="_top" xlink:title=" ">
<polygon fill="white" stroke="#666666" points="291.12,-270.4 167.88,-270.4 167.88,-238.4 291.12,-238.4 291.12,-270.4"/>
<text text-anchor="start" x="175.88" y="-256.9" font-family="Helvetica,sans-Serif" font-size="10.00">RtypeServer::UdpServer</text>
<text text-anchor="middle" x="229.5" y="-244.9" font-family="Helvetica,sans-Serif" font-size="10.00">::handle_message</text>
</a>
</g>
</g>
<!-- Node12&#45;&gt;Node15 -->
<g id="edge18_Node000012_Node000015" class="edge">
<title>Node12&#45;&gt;Node15</title>
<g id="a_edge18_Node000012_Node000015"><a xlink:title=" ">
<path fill="none" stroke="#63b8ff" d="M324.45,-254.4C313.44,-254.4 302.18,-254.4 291.45,-254.4"/>
<polygon fill="#63b8ff" stroke="#63b8ff" points="324.28,-257.9 334.28,-254.4 324.28,-250.9 324.28,-257.9"/>
</a>
</g>
</g>
<!-- Node13&#45;&gt;Node4 -->
<g id="edge16_Node000013_Node000004" class="edge">
<title>Node13&#45;&gt;Node4</title>
<g id="a_edge16_Node000013_Node000004"><a xlink:title=" ">
<path fill="none" stroke="#63b8ff" d="M156.43,-353.27C145.53,-354.91 134.36,-356.59 123.72,-358.2"/>
<polygon fill="#63b8ff" stroke="#63b8ff" points="156.81,-356.75 166.18,-351.8 155.77,-349.83 156.81,-356.75"/>
</a>
</g>
</g>
<!-- Node16&#45;&gt;Node13 -->
<g id="edge20_Node000016_Node000013" class="edge">
<title>Node16&#45;&gt;Node13</title>
<g id="a_edge20_Node000016_Node000013"><a xlink:title=" ">
<path fill="none" stroke="#63b8ff" d="M324.8,-320.85C313.68,-323.39 302.3,-325.99 291.45,-328.47"/>
<polygon fill="#63b8ff" stroke="#63b8ff" points="325.34,-324.32 334.31,-318.67 323.78,-317.49 325.34,-324.32"/>
</a>
</g>
</g>
<!-- Node17&#45;&gt;Node14 -->
<g id="edge22_Node000017_Node000014" class="edge">
<title>Node17&#45;&gt;Node14</title>
<g id="a_edge22_Node000017_Node000014"><a xlink:title=" ">
<path fill="none" stroke="#63b8ff" d="M324.45,-204.4C313.44,-204.4 302.18,-204.4 291.45,-204.4"/>
<polygon fill="#63b8ff" stroke="#63b8ff" points="324.28,-207.9 334.28,-204.4 324.28,-200.9 324.28,-207.9"/>
</a>
</g>
</g>
<!-- Node19 -->
<g id="Node000019" class="node">
<title>Node19</title>
<g id="a_Node000019"><a xlink:href="classRtypeServer_1_1UdpServer.html#aea11fdab349503f7ef180f35895ad575" target="_top" xlink:title=" ">
<polygon fill="white" stroke="#666666" points="291.12,-102.4 167.88,-102.4 167.88,-70.4 291.12,-70.4 291.12,-102.4"/>
<text text-anchor="start" x="175.88" y="-88.9" font-family="Helvetica,sans-Serif" font-size="10.00">RtypeServer::UdpServer</text>
<text text-anchor="middle" x="229.5" y="-76.9" font-family="Helvetica,sans-Serif" font-size="10.00">::handle_list_rooms</text>
</a>
</g>
</g>
<!-- Node18&#45;&gt;Node19 -->
<g id="edge24_Node000018_Node000019" class="edge">
<title>Node18&#45;&gt;Node19</title>
<g id="a_edge24_Node000018_Node000019"><a xlink:title=" ">
<path fill="none" stroke="#63b8ff" d="M324.45,-96.58C313.44,-95.38 302.18,-94.16 291.45,-93"/>
<polygon fill="#63b8ff" stroke="#63b8ff" points="323.97,-100.04 334.28,-97.64 324.72,-93.08 323.97,-100.04"/>
</a>
</g>
</g>
<!-- Node21&#45;&gt;Node9 -->
<g id="edge27_Node000021_Node000009" class="edge">
<title>Node21&#45;&gt;Node9</title>
<g id="a_edge27_Node000021_Node000009"><a xlink:title=" ">
<path fill="none" stroke="#63b8ff" d="M163.29,-43.06C148.08,-47.64 132.04,-52.48 117.34,-56.91"/>
<polygon fill="#63b8ff" stroke="#63b8ff" points="164.17,-46.45 172.74,-40.21 162.15,-39.75 164.17,-46.45"/>
</a>
</g>
</g>
</g>
</svg>
