<?xml version="1.0" encoding="UTF-8" standalone="no"?>
<!DOCTYPE svg PUBLIC "-//W3C//DTD SVG 1.1//EN"
 "http://www.w3.org/Graphics/SVG/1.1/DTD/svg11.dtd">
<!-- Generated by graphviz version 12.1.0 (20240811.2233)
 -->
<!-- Title: NetworkManager.hpp Pages: 1 -->
<svg width="1388pt" height="364pt"
 viewBox="0.00 0.00 1388.25 364.00" xmlns="http://www.w3.org/2000/svg" xmlns:xlink="http://www.w3.org/1999/xlink">
<g id="graph0" class="graph" transform="scale(1 1) rotate(0) translate(4 360)">
<title>NetworkManager.hpp</title>
<!-- Node1 -->
<g id="Node000001" class="node">
<title>Node1</title>
<g id="a_Node000001"><a xlink:title=" ">
<polygon fill="#999999" stroke="#666666" points="1040.5,-356 931.5,-356 931.5,-336 1040.5,-336 1040.5,-356"/>
<text text-anchor="middle" x="986" y="-342.5" font-family="Helvetica,sans-Serif" font-size="10.00">NetworkManager.hpp</text>
</a>
</g>
</g>
<!-- Node2 -->
<g id="Node000002" class="node">
<title>Node2</title>
<g id="a_Node000002"><a xlink:title=" ">
<polygon fill="#e0e0e0" stroke="#999999" points="812.62,-20 767.38,-20 767.38,0 812.62,0 812.62,-20"/>
<text text-anchor="middle" x="790" y="-6.5" font-family="Helvetica,sans-Serif" font-size="10.00">cstdint</text>
</a>
</g>
</g>
<!-- Node1&#45;&gt;Node2 -->
<g id="edge1_Node000001_Node000002" class="edge">
<title>Node1&#45;&gt;Node2</title>
<g id="a_edge1_Node000001_Node000002"><a xlink:title=" ">
<path fill="none" stroke="#63b8ff" d="M995.19,-335.84C1017.93,-312.16 1075,-246.04 1075,-179 1075,-179 1075,-179 1075,-121 1075,-67.76 899.73,-30.37 824.08,-16.72"/>
<polygon fill="#63b8ff" stroke="#63b8ff" points="824.79,-13.29 814.33,-15 823.57,-20.18 824.79,-13.29"/>
</a>
</g>
</g>
<!-- Node3 -->
<g id="Node000003" class="node">
<title>Node3</title>
<g id="a_Node000003"><a xlink:title=" ">
<polygon fill="#e0e0e0" stroke="#999999" points="1160.88,-300 1081.12,-300 1081.12,-280 1160.88,-280 1160.88,-300"/>
<text text-anchor="middle" x="1121" y="-286.5" font-family="Helvetica,sans-Serif" font-size="10.00">boost/asio.hpp</text>
</a>
</g>
</g>
<!-- Node1&#45;&gt;Node3 -->
<g id="edge2_Node000001_Node000003" class="edge">
<title>Node1&#45;&gt;Node3</title>
<g id="a_edge2_Node000001_Node000003"><a xlink:title=" ">
<path fill="none" stroke="#63b8ff" d="M1009.52,-335.59C1030.87,-327.05 1062.63,-314.35 1086.8,-304.68"/>
<polygon fill="#63b8ff" stroke="#63b8ff" points="1087.91,-308.01 1095.9,-301.04 1085.31,-301.51 1087.91,-308.01"/>
</a>
</g>
</g>
<!-- Node4 -->
<g id="Node000004" class="node">
<title>Node4</title>
<g id="a_Node000004"><a xlink:title=" ">
<polygon fill="#e0e0e0" stroke="#999999" points="103.88,-132 66.12,-132 66.12,-112 103.88,-112 103.88,-132"/>
<text text-anchor="middle" x="85" y="-118.5" font-family="Helvetica,sans-Serif" font-size="10.00">array</text>
</a>
</g>
</g>
<!-- Node1&#45;&gt;Node4 -->
<g id="edge3_Node000001_Node000004" class="edge">
<title>Node1&#45;&gt;Node4</title>
<g id="a_edge3_Node000001_Node000004"><a xlink:title=" ">
<path fill="none" stroke="#63b8ff" d="M931.08,-337.24C871.58,-328.7 773.91,-314.27 690,-300 424.72,-254.88 282.07,-381.43 95,-188 83.83,-176.45 81.92,-157.95 82.46,-143.63"/>
<polygon fill="#63b8ff" stroke="#63b8ff" points="85.93,-144.17 83.28,-133.92 78.95,-143.59 85.93,-144.17"/>
</a>
</g>
</g>
<!-- Node5 -->
<g id="Node000005" class="node">
<title>Node5</title>
<g id="a_Node000005"><a xlink:title=" ">
<polygon fill="#e0e0e0" stroke="#999999" points="1221.5,-300 1178.5,-300 1178.5,-280 1221.5,-280 1221.5,-300"/>
<text text-anchor="middle" x="1200" y="-286.5" font-family="Helvetica,sans-Serif" font-size="10.00">thread</text>
</a>
</g>
</g>
<!-- Node1&#45;&gt;Node5 -->
<g id="edge4_Node000001_Node000005" class="edge">
<title>Node1&#45;&gt;Node5</title>
<g id="a_edge4_Node000001_Node000005"><a xlink:title=" ">
<path fill="none" stroke="#63b8ff" d="M1027.45,-335.51C1062.43,-327.35 1114.09,-314.98 1167.11,-300.7"/>
<polygon fill="#63b8ff" stroke="#63b8ff" points="1167.89,-304.11 1176.62,-298.11 1166.05,-297.36 1167.89,-304.11"/>
</a>
</g>
</g>
<!-- Node6 -->
<g id="Node000006" class="node">
<title>Node6</title>
<g id="a_Node000006"><a xlink:href="Entity_8hpp.html" target="_top" xlink:title=" ">
<polygon fill="white" stroke="#666666" points="245.75,-76 186.25,-76 186.25,-56 245.75,-56 245.75,-76"/>
<text text-anchor="middle" x="216" y="-62.5" font-family="Helvetica,sans-Serif" font-size="10.00">Entity.hpp</text>
</a>
</g>
</g>
<!-- Node1&#45;&gt;Node6 -->
<g id="edge5_Node000001_Node000006" class="edge">
<title>Node1&#45;&gt;Node6</title>
<g id="a_edge5_Node000001_Node000006"><a xlink:title=" ">
<path fill="none" stroke="#63b8ff" d="M931.23,-344.69C724.05,-342.81 0,-329.46 0,-235 0,-235 0,-235 0,-177 0,-99.35 112.21,-76.49 174.88,-69.78"/>
<polygon fill="#63b8ff" stroke="#63b8ff" points="174.84,-73.3 184.46,-68.85 174.17,-66.33 174.84,-73.3"/>
</a>
</g>
</g>
<!-- Node8 -->
<g id="Node000008" class="node">
<title>Node8</title>
<g id="a_Node000008"><a xlink:href="Mediator_8hpp.html" target="_top" xlink:title=" ">
<polygon fill="white" stroke="#666666" points="526.12,-244 453.88,-244 453.88,-224 526.12,-224 526.12,-244"/>
<text text-anchor="middle" x="490" y="-230.5" font-family="Helvetica,sans-Serif" font-size="10.00">Mediator.hpp</text>
</a>
</g>
</g>
<!-- Node1&#45;&gt;Node8 -->
<g id="edge8_Node000001_Node000008" class="edge">
<title>Node1&#45;&gt;Node8</title>
<g id="a_edge8_Node000001_Node000008"><a xlink:title=" ">
<path fill="none" stroke="#63b8ff" d="M943.28,-335.53C851.04,-315.07 633.8,-266.89 537.45,-245.52"/>
<polygon fill="#63b8ff" stroke="#63b8ff" points="538.31,-242.13 527.79,-243.38 536.79,-248.96 538.31,-242.13"/>
</a>
</g>
</g>
<!-- Node28 -->
<g id="Node000028" class="node">
<title>Node28</title>
<g id="a_Node000028"><a xlink:href="ComponentRegistry_8hpp.html" target="_top" xlink:title=" ">
<polygon fill="white" stroke="#666666" points="1002.5,-300 881.5,-300 881.5,-280 1002.5,-280 1002.5,-300"/>
<text text-anchor="middle" x="942" y="-286.5" font-family="Helvetica,sans-Serif" font-size="10.00">ComponentRegistry.hpp</text>
</a>
</g>
</g>
<!-- Node1&#45;&gt;Node28 -->
<g id="edge43_Node000001_Node000028" class="edge">
<title>Node1&#45;&gt;Node28</title>
<g id="a_edge43_Node000001_Node000028"><a xlink:title=" ">
<path fill="none" stroke="#63b8ff" d="M978.34,-335.59C972.41,-328.32 964.01,-318.02 956.79,-309.15"/>
<polygon fill="#63b8ff" stroke="#63b8ff" points="959.56,-307.01 950.53,-301.47 954.14,-311.43 959.56,-307.01"/>
</a>
</g>
</g>
<!-- Node29 -->
<g id="Node000029" class="node">
<title>Node29</title>
<g id="a_Node000029"><a xlink:href="EnemyInfo_8hpp.html" target="_top" xlink:title=" ">
<polygon fill="white" stroke="#666666" points="1380.25,-300 1239.75,-300 1239.75,-280 1380.25,-280 1380.25,-300"/>
<text text-anchor="middle" x="1310" y="-286.5" font-family="Helvetica,sans-Serif" font-size="10.00">Components/EnemyInfo.hpp</text>
</a>
</g>
</g>
<!-- Node1&#45;&gt;Node29 -->
<g id="edge50_Node000001_Node000029" class="edge">
<title>Node1&#45;&gt;Node29</title>
<g id="a_edge50_Node000001_Node000029"><a xlink:title=" ">
<path fill="none" stroke="#63b8ff" d="M1040.96,-335.84C1096.43,-326.6 1182.19,-312.3 1241.92,-302.35"/>
<polygon fill="#63b8ff" stroke="#63b8ff" points="1242.35,-305.82 1251.64,-300.73 1241.2,-298.92 1242.35,-305.82"/>
</a>
</g>
</g>
<!-- Node6&#45;&gt;Node2 -->
<g id="edge6_Node000006_Node000002" class="edge">
<title>Node6&#45;&gt;Node2</title>
<g id="a_edge6_Node000006_Node000002"><a xlink:title=" ">
<path fill="none" stroke="#63b8ff" d="M246.15,-57.59C249.13,-57 252.12,-56.45 255,-56 442.58,-26.62 670.38,-15.5 755.62,-12.19"/>
<polygon fill="#63b8ff" stroke="#63b8ff" points="755.54,-15.69 765.4,-11.82 755.28,-8.7 755.54,-15.69"/>
</a>
</g>
</g>
<!-- Node7 -->
<g id="Node000007" class="node">
<title>Node7</title>
<g id="a_Node000007"><a xlink:title=" ">
<polygon fill="#e0e0e0" stroke="#999999" points="236,-20 196,-20 196,0 236,0 236,-20"/>
<text text-anchor="middle" x="216" y="-6.5" font-family="Helvetica,sans-Serif" font-size="10.00">bitset</text>
</a>
</g>
</g>
<!-- Node6&#45;&gt;Node7 -->
<g id="edge7_Node000006_Node000007" class="edge">
<title>Node6&#45;&gt;Node7</title>
<g id="a_edge7_Node000006_Node000007"><a xlink:title=" ">
<path fill="none" stroke="#63b8ff" d="M216,-55.59C216,-49.01 216,-39.96 216,-31.73"/>
<polygon fill="#63b8ff" stroke="#63b8ff" points="219.5,-31.81 216,-21.81 212.5,-31.81 219.5,-31.81"/>
</a>
</g>
</g>
<!-- Node9 -->
<g id="Node000009" class="node">
<title>Node9</title>
<g id="a_Node000009"><a xlink:title=" ">
<polygon fill="#e0e0e0" stroke="#999999" points="317.75,-76 264.25,-76 264.25,-56 317.75,-56 317.75,-76"/>
<text text-anchor="middle" x="291" y="-62.5" font-family="Helvetica,sans-Serif" font-size="10.00">iostream</text>
</a>
</g>
</g>
<!-- Node8&#45;&gt;Node9 -->
<g id="edge9_Node000008_Node000009" class="edge">
<title>Node8&#45;&gt;Node9</title>
<g id="a_edge9_Node000008_Node000009"><a xlink:title=" ">
<path fill="none" stroke="#63b8ff" d="M453.4,-228.17C403.64,-219.31 317.35,-195.15 287,-132 280.33,-118.11 281.89,-100.59 284.81,-87.24"/>
<polygon fill="#63b8ff" stroke="#63b8ff" points="288.13,-88.4 287.3,-77.84 281.36,-86.61 288.13,-88.4"/>
</a>
</g>
</g>
<!-- Node10 -->
<g id="Node000010" class="node">
<title>Node10</title>
<g id="a_Node000010"><a xlink:title=" ">
<polygon fill="#e0e0e0" stroke="#999999" points="511.62,-132 460.38,-132 460.38,-112 511.62,-112 511.62,-132"/>
<text text-anchor="middle" x="486" y="-118.5" font-family="Helvetica,sans-Serif" font-size="10.00">memory</text>
</a>
</g>
</g>
<!-- Node8&#45;&gt;Node10 -->
<g id="edge10_Node000008_Node000010" class="edge">
<title>Node8&#45;&gt;Node10</title>
<g id="a_edge10_Node000008_Node000010"><a xlink:title=" ">
<path fill="none" stroke="#63b8ff" d="M492.32,-223.73C495.18,-211.12 499.39,-187.83 497,-168 496,-159.72 494.01,-150.77 491.99,-143.04"/>
<polygon fill="#63b8ff" stroke="#63b8ff" points="495.42,-142.32 489.34,-133.65 488.68,-144.22 495.42,-142.32"/>
</a>
</g>
</g>
<!-- Node11 -->
<g id="Node000011" class="node">
<title>Node11</title>
<g id="a_Node000011"><a xlink:title=" ">
<polygon fill="#e0e0e0" stroke="#999999" points="262.5,-188 219.5,-188 219.5,-168 262.5,-168 262.5,-188"/>
<text text-anchor="middle" x="241" y="-174.5" font-family="Helvetica,sans-Serif" font-size="10.00">vector</text>
</a>
</g>
</g>
<!-- Node8&#45;&gt;Node11 -->
<g id="edge11_Node000008_Node000011" class="edge">
<title>Node8&#45;&gt;Node11</title>
<g id="a_edge11_Node000008_Node000011"><a xlink:title=" ">
<path fill="none" stroke="#63b8ff" d="M453.73,-225.76C411.27,-217.19 338.87,-202.26 277,-188 275.84,-187.73 274.66,-187.46 273.46,-187.17"/>
<polygon fill="#63b8ff" stroke="#63b8ff" points="274.69,-183.87 264.14,-184.91 273.03,-190.67 274.69,-183.87"/>
</a>
</g>
</g>
<!-- Node12 -->
<g id="Node000012" class="node">
<title>Node12</title>
<g id="a_Node000012"><a xlink:href="EntityManager_8hpp.html" target="_top" xlink:title=" ">
<polygon fill="white" stroke="#666666" points="201.88,-188 104.12,-188 104.12,-168 201.88,-168 201.88,-188"/>
<text text-anchor="middle" x="153" y="-174.5" font-family="Helvetica,sans-Serif" font-size="10.00">EntityManager.hpp</text>
</a>
</g>
</g>
<!-- Node8&#45;&gt;Node12 -->
<g id="edge12_Node000008_Node000012" class="edge">
<title>Node8&#45;&gt;Node12</title>
<g id="a_edge12_Node000008_Node000012"><a xlink:title=" ">
<path fill="none" stroke="#63b8ff" d="M453.61,-227.17C396.06,-217.95 283.39,-199.89 213.52,-188.7"/>
<polygon fill="#63b8ff" stroke="#63b8ff" points="214.19,-185.26 203.76,-187.13 213.08,-192.17 214.19,-185.26"/>
</a>
</g>
</g>
<!-- Node14 -->
<g id="Node000014" class="node">
<title>Node14</title>
<g id="a_Node000014"><a xlink:href="ComponentManager_8hpp.html" target="_top" xlink:title=" ">
<polygon fill="white" stroke="#666666" points="488.25,-188 365.75,-188 365.75,-168 488.25,-168 488.25,-188"/>
<text text-anchor="middle" x="427" y="-174.5" font-family="Helvetica,sans-Serif" font-size="10.00">ComponentManager.hpp</text>
</a>
</g>
</g>
<!-- Node8&#45;&gt;Node14 -->
<g id="edge16_Node000008_Node000014" class="edge">
<title>Node8&#45;&gt;Node14</title>
<g id="a_edge16_Node000008_Node000014"><a xlink:title=" ">
<path fill="none" stroke="#63b8ff" d="M479.03,-223.59C470.08,-215.93 457.23,-204.91 446.54,-195.75"/>
<polygon fill="#63b8ff" stroke="#63b8ff" points="448.87,-193.13 439,-189.28 444.31,-198.45 448.87,-193.13"/>
</a>
</g>
</g>
<!-- Node20 -->
<g id="Node000020" class="node">
<title>Node20</title>
<g id="a_Node000020"><a xlink:href="SystemManager_8hpp.html" target="_top" xlink:title=" ">
<polygon fill="white" stroke="#666666" points="688,-188 582,-188 582,-168 688,-168 688,-188"/>
<text text-anchor="middle" x="635" y="-174.5" font-family="Helvetica,sans-Serif" font-size="10.00">SystemManager.hpp</text>
</a>
</g>
</g>
<!-- Node8&#45;&gt;Node20 -->
<g id="edge28_Node000008_Node000020" class="edge">
<title>Node8&#45;&gt;Node20</title>
<g id="a_edge28_Node000008_Node000020"><a xlink:title=" ">
<path fill="none" stroke="#63b8ff" d="M515.26,-223.59C538.4,-214.97 572.92,-202.12 598.96,-192.42"/>
<polygon fill="#63b8ff" stroke="#63b8ff" points="599.98,-195.78 608.13,-189.01 597.53,-189.22 599.98,-195.78"/>
</a>
</g>
</g>
<!-- Node23 -->
<g id="Node000023" class="node">
<title>Node23</title>
<g id="a_Node000023"><a xlink:href="EventManager_8hpp.html" target="_top" xlink:title=" ">
<polygon fill="white" stroke="#666666" points="818.88,-188 721.12,-188 721.12,-168 818.88,-168 818.88,-188"/>
<text text-anchor="middle" x="770" y="-174.5" font-family="Helvetica,sans-Serif" font-size="10.00">EventManager.hpp</text>
</a>
</g>
</g>
<!-- Node8&#45;&gt;Node23 -->
<g id="edge36_Node000008_Node000023" class="edge">
<title>Node8&#45;&gt;Node23</title>
<g id="a_edge36_Node000008_Node000023"><a xlink:title=" ">
<path fill="none" stroke="#63b8ff" d="M526.61,-225.94C573.2,-216.95 654.33,-201.31 710.02,-190.57"/>
<polygon fill="#63b8ff" stroke="#63b8ff" points="710.51,-194.04 719.66,-188.71 709.18,-187.17 710.51,-194.04"/>
</a>
</g>
</g>
<!-- Node12&#45;&gt;Node4 -->
<g id="edge14_Node000012_Node000004" class="edge">
<title>Node12&#45;&gt;Node4</title>
<g id="a_edge14_Node000012_Node000004"><a xlink:title=" ">
<path fill="none" stroke="#63b8ff" d="M141.16,-167.59C131.31,-159.77 117.07,-148.46 105.39,-139.19"/>
<polygon fill="#63b8ff" stroke="#63b8ff" points="107.9,-136.72 97.89,-133.24 103.55,-142.2 107.9,-136.72"/>
</a>
</g>
</g>
<!-- Node12&#45;&gt;Node6 -->
<g id="edge15_Node000012_Node000006" class="edge">
<title>Node12&#45;&gt;Node6</title>
<g id="a_edge15_Node000012_Node000006"><a xlink:title=" ">
<path fill="none" stroke="#63b8ff" d="M149.96,-167.53C146.28,-154.27 141.67,-129.8 151,-112 157.77,-99.08 170.11,-89.14 182.24,-81.92"/>
<polygon fill="#63b8ff" stroke="#63b8ff" points="183.8,-85.06 190.92,-77.22 180.46,-78.9 183.8,-85.06"/>
</a>
</g>
</g>
<!-- Node13 -->
<g id="Node000013" class="node">
<title>Node13</title>
<g id="a_Node000013"><a xlink:title=" ">
<polygon fill="#e0e0e0" stroke="#999999" points="202.12,-132 159.88,-132 159.88,-112 202.12,-112 202.12,-132"/>
<text text-anchor="middle" x="181" y="-118.5" font-family="Helvetica,sans-Serif" font-size="10.00">queue</text>
</a>
</g>
</g>
<!-- Node12&#45;&gt;Node13 -->
<g id="edge13_Node000012_Node000013" class="edge">
<title>Node12&#45;&gt;Node13</title>
<g id="a_edge13_Node000012_Node000013"><a xlink:title=" ">
<path fill="none" stroke="#63b8ff" d="M157.88,-167.59C161.49,-160.63 166.54,-150.89 171,-142.29"/>
<polygon fill="#63b8ff" stroke="#63b8ff" points="173.99,-144.13 175.48,-133.64 167.77,-140.91 173.99,-144.13"/>
</a>
</g>
</g>
<!-- Node14&#45;&gt;Node6 -->
<g id="edge21_Node000014_Node000006" class="edge">
<title>Node14&#45;&gt;Node6</title>
<g id="a_edge21_Node000014_Node000006"><a xlink:title=" ">
<path fill="none" stroke="#63b8ff" d="M381.11,-167.55C352.73,-160.45 316.25,-148.99 287,-132 265.22,-119.35 244.47,-99.07 231.1,-84.52"/>
<polygon fill="#63b8ff" stroke="#63b8ff" points="234.06,-82.58 224.78,-77.45 228.84,-87.24 234.06,-82.58"/>
</a>
</g>
</g>
<!-- Node14&#45;&gt;Node10 -->
<g id="edge19_Node000014_Node000010" class="edge">
<title>Node14&#45;&gt;Node10</title>
<g id="a_edge19_Node000014_Node000010"><a xlink:title=" ">
<path fill="none" stroke="#63b8ff" d="M437.28,-167.59C445.57,-160.01 457.45,-149.13 467.4,-140.02"/>
<polygon fill="#63b8ff" stroke="#63b8ff" points="469.71,-142.65 474.72,-133.32 464.98,-137.49 469.71,-142.65"/>
</a>
</g>
</g>
<!-- Node15 -->
<g id="Node000015" class="node">
<title>Node15</title>
<g id="a_Node000015"><a xlink:title=" ">
<polygon fill="#e0e0e0" stroke="#999999" points="900.38,-76 817.62,-76 817.62,-56 900.38,-56 900.38,-76"/>
<text text-anchor="middle" x="859" y="-62.5" font-family="Helvetica,sans-Serif" font-size="10.00">unordered_map</text>
</a>
</g>
</g>
<!-- Node14&#45;&gt;Node15 -->
<g id="edge17_Node000014_Node000015" class="edge">
<title>Node14&#45;&gt;Node15</title>
<g id="a_edge17_Node000014_Node000015"><a xlink:title=" ">
<path fill="none" stroke="#63b8ff" d="M488.65,-173.36C594.23,-166.66 800.96,-151.25 828,-132 842.64,-121.58 850.61,-102.36 854.79,-87.52"/>
<polygon fill="#63b8ff" stroke="#63b8ff" points="858.18,-88.38 857.12,-77.84 851.38,-86.74 858.18,-88.38"/>
</a>
</g>
</g>
<!-- Node16 -->
<g id="Node000016" class="node">
<title>Node16</title>
<g id="a_Node000016"><a xlink:title=" ">
<polygon fill="#e0e0e0" stroke="#999999" points="570,-132 530,-132 530,-112 570,-112 570,-132"/>
<text text-anchor="middle" x="550" y="-118.5" font-family="Helvetica,sans-Serif" font-size="10.00">string</text>
</a>
</g>
</g>
<!-- Node14&#45;&gt;Node16 -->
<g id="edge18_Node000014_Node000016" class="edge">
<title>Node14&#45;&gt;Node16</title>
<g id="a_edge18_Node000014_Node000016"><a xlink:title=" ">
<path fill="none" stroke="#63b8ff" d="M448.42,-167.59C467.97,-159.01 497.09,-146.23 519.14,-136.55"/>
<polygon fill="#63b8ff" stroke="#63b8ff" points="520.5,-139.77 528.25,-132.55 517.69,-133.36 520.5,-139.77"/>
</a>
</g>
</g>
<!-- Node17 -->
<g id="Node000017" class="node">
<title>Node17</title>
<g id="a_Node000017"><a xlink:title=" ">
<polygon fill="#e0e0e0" stroke="#999999" points="712.38,-76 653.62,-76 653.62,-56 712.38,-56 712.38,-76"/>
<text text-anchor="middle" x="683" y="-62.5" font-family="Helvetica,sans-Serif" font-size="10.00">stdexcept</text>
</a>
</g>
</g>
<!-- Node14&#45;&gt;Node17 -->
<g id="edge20_Node000014_Node000017" class="edge">
<title>Node14&#45;&gt;Node17</title>
<g id="a_edge20_Node000014_Node000017"><a xlink:title=" ">
<path fill="none" stroke="#63b8ff" d="M427.61,-167.85C429.08,-153.6 434.08,-126.26 451,-112 515.31,-57.8 555.78,-91.1 641.86,-76.38"/>
<polygon fill="#63b8ff" stroke="#63b8ff" points="642.51,-79.82 651.67,-74.5 641.19,-72.94 642.51,-79.82"/>
</a>
</g>
</g>
<!-- Node18 -->
<g id="Node000018" class="node">
<title>Node18</title>
<g id="a_Node000018"><a xlink:href="ComponentArray_8hpp.html" target="_top" xlink:title=" ">
<polygon fill="white" stroke="#666666" points="403.75,-132 296.25,-132 296.25,-112 403.75,-112 403.75,-132"/>
<text text-anchor="middle" x="350" y="-118.5" font-family="Helvetica,sans-Serif" font-size="10.00">ComponentArray.hpp</text>
</a>
</g>
</g>
<!-- Node14&#45;&gt;Node18 -->
<g id="edge22_Node000014_Node000018" class="edge">
<title>Node14&#45;&gt;Node18</title>
<g id="a_edge22_Node000014_Node000018"><a xlink:title=" ">
<path fill="none" stroke="#63b8ff" d="M413.59,-167.59C402.39,-159.74 386.19,-148.38 372.94,-139.09"/>
<polygon fill="#63b8ff" stroke="#63b8ff" points="374.95,-136.22 364.76,-133.35 370.93,-141.96 374.95,-136.22"/>
</a>
</g>
</g>
<!-- Node18&#45;&gt;Node6 -->
<g id="edge27_Node000018_Node000006" class="edge">
<title>Node18&#45;&gt;Node6</title>
<g id="a_edge27_Node000018_Node000006"><a xlink:title=" ">
<path fill="none" stroke="#63b8ff" d="M326.66,-111.59C305.46,-103.05 273.93,-90.35 249.95,-80.68"/>
<polygon fill="#63b8ff" stroke="#63b8ff" points="251.51,-77.54 240.93,-77.05 248.89,-84.03 251.51,-77.54"/>
</a>
</g>
</g>
<!-- Node18&#45;&gt;Node9 -->
<g id="edge26_Node000018_Node000009" class="edge">
<title>Node18&#45;&gt;Node9</title>
<g id="a_edge26_Node000018_Node000009"><a xlink:title=" ">
<path fill="none" stroke="#63b8ff" d="M339.72,-111.59C331.43,-104.01 319.55,-93.13 309.6,-84.02"/>
<polygon fill="#63b8ff" stroke="#63b8ff" points="312.02,-81.49 302.28,-77.32 307.29,-86.65 312.02,-81.49"/>
</a>
</g>
</g>
<!-- Node18&#45;&gt;Node15 -->
<g id="edge24_Node000018_Node000015" class="edge">
<title>Node18&#45;&gt;Node15</title>
<g id="a_edge24_Node000018_Node000015"><a xlink:title=" ">
<path fill="none" stroke="#63b8ff" d="M403.99,-115.27C502.09,-104.86 708.43,-82.97 805.88,-72.64"/>
<polygon fill="#63b8ff" stroke="#63b8ff" points="806.13,-76.13 815.71,-71.59 805.39,-69.17 806.13,-76.13"/>
</a>
</g>
</g>
<!-- Node18&#45;&gt;Node17 -->
<g id="edge25_Node000018_Node000017" class="edge">
<title>Node18&#45;&gt;Node17</title>
<g id="a_edge25_Node000018_Node000017"><a xlink:title=" ">
<path fill="none" stroke="#63b8ff" d="M404.08,-113.29C471.55,-103.58 584.25,-87.06 642.05,-76.42"/>
<polygon fill="#63b8ff" stroke="#63b8ff" points="642.52,-79.89 651.69,-74.59 641.21,-73.01 642.52,-79.89"/>
</a>
</g>
</g>
<!-- Node19 -->
<g id="Node000019" class="node">
<title>Node19</title>
<g id="a_Node000019"><a xlink:title=" ">
<polygon fill="#e0e0e0" stroke="#999999" points="394,-76 336,-76 336,-56 394,-56 394,-76"/>
<text text-anchor="middle" x="365" y="-62.5" font-family="Helvetica,sans-Serif" font-size="10.00">exception</text>
</a>
</g>
</g>
<!-- Node18&#45;&gt;Node19 -->
<g id="edge23_Node000018_Node000019" class="edge">
<title>Node18&#45;&gt;Node19</title>
<g id="a_edge23_Node000018_Node000019"><a xlink:title=" ">
<path fill="none" stroke="#63b8ff" d="M352.61,-111.59C354.48,-104.86 357.07,-95.53 359.4,-87.15"/>
<polygon fill="#63b8ff" stroke="#63b8ff" points="362.71,-88.33 362.01,-77.76 355.96,-86.46 362.71,-88.33"/>
</a>
</g>
</g>
<!-- Node20&#45;&gt;Node10 -->
<g id="edge31_Node000020_Node000010" class="edge">
<title>Node20&#45;&gt;Node10</title>
<g id="a_edge31_Node000020_Node000010"><a xlink:title=" ">
<path fill="none" stroke="#63b8ff" d="M609.05,-167.59C585.08,-158.91 549.25,-145.92 522.43,-136.2"/>
<polygon fill="#63b8ff" stroke="#63b8ff" points="523.92,-133.02 513.33,-132.9 521.54,-139.6 523.92,-133.02"/>
</a>
</g>
</g>
<!-- Node20&#45;&gt;Node15 -->
<g id="edge29_Node000020_Node000015" class="edge">
<title>Node20&#45;&gt;Node15</title>
<g id="a_edge29_Node000020_Node000015"><a xlink:title=" ">
<path fill="none" stroke="#63b8ff" d="M688.23,-169.98C751.53,-161.09 850.07,-145.32 861,-132 871.08,-119.71 869.47,-101.29 865.98,-87.19"/>
<polygon fill="#63b8ff" stroke="#63b8ff" points="869.33,-86.19 863.11,-77.62 862.63,-88.21 869.33,-86.19"/>
</a>
</g>
</g>
<!-- Node20&#45;&gt;Node16 -->
<g id="edge30_Node000020_Node000016" class="edge">
<title>Node20&#45;&gt;Node16</title>
<g id="a_edge30_Node000020_Node000016"><a xlink:title=" ">
<path fill="none" stroke="#63b8ff" d="M620.19,-167.59C607.6,-159.59 589.25,-147.93 574.47,-138.54"/>
<polygon fill="#63b8ff" stroke="#63b8ff" points="576.52,-135.7 566.2,-133.29 572.76,-141.61 576.52,-135.7"/>
</a>
</g>
</g>
<!-- Node20&#45;&gt;Node17 -->
<g id="edge32_Node000020_Node000017" class="edge">
<title>Node20&#45;&gt;Node17</title>
<g id="a_edge32_Node000020_Node000017"><a xlink:title=" ">
<path fill="none" stroke="#63b8ff" d="M642.63,-167.52C649.35,-158.76 658.98,-145.15 665,-132 671.57,-117.64 676.21,-100.36 679.14,-87.23"/>
<polygon fill="#63b8ff" stroke="#63b8ff" points="682.53,-88.13 681.12,-77.63 675.67,-86.72 682.53,-88.13"/>
</a>
</g>
</g>
<!-- Node21 -->
<g id="Node000021" class="node">
<title>Node21</title>
<g id="a_Node000021"><a xlink:href="System_8hpp.html" target="_top" xlink:title=" ">
<polygon fill="white" stroke="#666666" points="656.25,-132 587.75,-132 587.75,-112 656.25,-112 656.25,-132"/>
<text text-anchor="middle" x="622" y="-118.5" font-family="Helvetica,sans-Serif" font-size="10.00">System.hpp</text>
</a>
</g>
</g>
<!-- Node20&#45;&gt;Node21 -->
<g id="edge33_Node000020_Node000021" class="edge">
<title>Node20&#45;&gt;Node21</title>
<g id="a_edge33_Node000020_Node000021"><a xlink:title=" ">
<path fill="none" stroke="#63b8ff" d="M632.74,-167.59C631.13,-160.93 628.92,-151.75 626.92,-143.44"/>
<polygon fill="#63b8ff" stroke="#63b8ff" points="630.34,-142.67 624.59,-133.77 623.53,-144.31 630.34,-142.67"/>
</a>
</g>
</g>
<!-- Node21&#45;&gt;Node6 -->
<g id="edge35_Node000021_Node000006" class="edge">
<title>Node21&#45;&gt;Node6</title>
<g id="a_edge35_Node000021_Node000006"><a xlink:title=" ">
<path fill="none" stroke="#63b8ff" d="M587.32,-113.44C584.51,-112.92 581.71,-112.43 579,-112 439.56,-89.71 399.83,-99.78 257.5,-76.24"/>
<polygon fill="#63b8ff" stroke="#63b8ff" points="258.1,-72.79 247.66,-74.58 256.94,-79.69 258.1,-72.79"/>
</a>
</g>
</g>
<!-- Node22 -->
<g id="Node000022" class="node">
<title>Node22</title>
<g id="a_Node000022"><a xlink:title=" ">
<polygon fill="#e0e0e0" stroke="#999999" points="635.75,-76 606.25,-76 606.25,-56 635.75,-56 635.75,-76"/>
<text text-anchor="middle" x="621" y="-62.5" font-family="Helvetica,sans-Serif" font-size="10.00">set</text>
</a>
</g>
</g>
<!-- Node21&#45;&gt;Node22 -->
<g id="edge34_Node000021_Node000022" class="edge">
<title>Node21&#45;&gt;Node22</title>
<g id="a_edge34_Node000021_Node000022"><a xlink:title=" ">
<path fill="none" stroke="#63b8ff" d="M621.83,-111.59C621.7,-105.01 621.54,-95.96 621.38,-87.73"/>
<polygon fill="#63b8ff" stroke="#63b8ff" points="624.88,-87.75 621.2,-77.81 617.89,-87.87 624.88,-87.75"/>
</a>
</g>
</g>
<!-- Node24 -->
<g id="Node000024" class="node">
<title>Node24</title>
<g id="a_Node000024"><a xlink:href="Event_8hpp.html" target="_top" xlink:title=" ">
<polygon fill="white" stroke="#666666" points="819.12,-132 758.88,-132 758.88,-112 819.12,-112 819.12,-132"/>
<text text-anchor="middle" x="789" y="-118.5" font-family="Helvetica,sans-Serif" font-size="10.00">Event.hpp</text>
</a>
</g>
</g>
<!-- Node23&#45;&gt;Node24 -->
<g id="edge37_Node000023_Node000024" class="edge">
<title>Node23&#45;&gt;Node24</title>
<g id="a_edge37_Node000023_Node000024"><a xlink:title=" ">
<path fill="none" stroke="#63b8ff" d="M773.31,-167.59C775.68,-160.86 778.96,-151.53 781.91,-143.15"/>
<polygon fill="#63b8ff" stroke="#63b8ff" points="785.21,-144.32 785.23,-133.73 778.61,-142 785.21,-144.32"/>
</a>
</g>
</g>
<!-- Node26 -->
<g id="Node000026" class="node">
<title>Node26</title>
<g id="a_Node000026"><a xlink:title=" ">
<polygon fill="#e0e0e0" stroke="#999999" points="971,-132 913,-132 913,-112 971,-112 971,-132"/>
<text text-anchor="middle" x="942" y="-118.5" font-family="Helvetica,sans-Serif" font-size="10.00">functional</text>
</a>
</g>
</g>
<!-- Node23&#45;&gt;Node26 -->
<g id="edge41_Node000023_Node000026" class="edge">
<title>Node23&#45;&gt;Node26</title>
<g id="a_edge41_Node000023_Node000026"><a xlink:title=" ">
<path fill="none" stroke="#63b8ff" d="M799.96,-167.59C828.16,-158.74 870.61,-145.41 901.75,-135.64"/>
<polygon fill="#63b8ff" stroke="#63b8ff" points="902.73,-139 911.23,-132.66 900.64,-132.32 902.73,-139"/>
</a>
</g>
</g>
<!-- Node27 -->
<g id="Node000027" class="node">
<title>Node27</title>
<g id="a_Node000027"><a xlink:title=" ">
<polygon fill="#e0e0e0" stroke="#999999" points="740.4,-132 711.6,-132 711.6,-112 740.4,-112 740.4,-132"/>
<text text-anchor="middle" x="726" y="-118.5" font-family="Helvetica,sans-Serif" font-size="10.00">list</text>
</a>
</g>
</g>
<!-- Node23&#45;&gt;Node27 -->
<g id="edge42_Node000023_Node000027" class="edge">
<title>Node23&#45;&gt;Node27</title>
<g id="a_edge42_Node000023_Node000027"><a xlink:title=" ">
<path fill="none" stroke="#63b8ff" d="M762.34,-167.59C756.41,-160.32 748.01,-150.02 740.79,-141.15"/>
<polygon fill="#63b8ff" stroke="#63b8ff" points="743.56,-139.01 734.53,-133.47 738.14,-143.43 743.56,-139.01"/>
</a>
</g>
</g>
<!-- Node24&#45;&gt;Node2 -->
<g id="edge38_Node000024_Node000002" class="edge">
<title>Node24&#45;&gt;Node2</title>
<g id="a_edge38_Node000024_Node000002"><a xlink:title=" ">
<path fill="none" stroke="#63b8ff" d="M789.09,-111.62C789.25,-94.01 789.59,-55.59 789.81,-31.65"/>
<polygon fill="#63b8ff" stroke="#63b8ff" points="793.31,-31.9 789.9,-21.87 786.31,-31.84 793.31,-31.9"/>
</a>
</g>
</g>
<!-- Node24&#45;&gt;Node15 -->
<g id="edge39_Node000024_Node000015" class="edge">
<title>Node24&#45;&gt;Node15</title>
<g id="a_edge39_Node000024_Node000015"><a xlink:title=" ">
<path fill="none" stroke="#63b8ff" d="M801.19,-111.59C811.33,-103.77 825.99,-92.46 838.01,-83.19"/>
<polygon fill="#63b8ff" stroke="#63b8ff" points="839.97,-86.1 845.75,-77.22 835.69,-80.56 839.97,-86.1"/>
</a>
</g>
</g>
<!-- Node25 -->
<g id="Node000025" class="node">
<title>Node25</title>
<g id="a_Node000025"><a xlink:title=" ">
<polygon fill="#e0e0e0" stroke="#999999" points="761.88,-76 730.12,-76 730.12,-56 761.88,-56 761.88,-76"/>
<text text-anchor="middle" x="746" y="-62.5" font-family="Helvetica,sans-Serif" font-size="10.00">any</text>
</a>
</g>
</g>
<!-- Node24&#45;&gt;Node25 -->
<g id="edge40_Node000024_Node000025" class="edge">
<title>Node24&#45;&gt;Node25</title>
<g id="a_edge40_Node000024_Node000025"><a xlink:title=" ">
<path fill="none" stroke="#63b8ff" d="M781.51,-111.59C775.71,-104.32 767.51,-94.02 760.45,-85.15"/>
<polygon fill="#63b8ff" stroke="#63b8ff" points="763.31,-83.12 754.35,-77.48 757.84,-87.49 763.31,-83.12"/>
</a>
</g>
</g>
<!-- Node28&#45;&gt;Node6 -->
<g id="edge48_Node000028_Node000006" class="edge">
<title>Node28&#45;&gt;Node6</title>
<g id="a_edge48_Node000028_Node000006"><a xlink:title=" ">
<path fill="none" stroke="#63b8ff" d="M881.27,-288.46C709.79,-285.89 225.88,-271.27 95,-188 63.14,-167.73 34.22,-142.12 57,-112 71.2,-93.23 132.51,-80.03 174.71,-72.98"/>
<polygon fill="#63b8ff" stroke="#63b8ff" points="175.24,-76.44 184.56,-71.39 174.13,-69.53 175.24,-76.44"/>
</a>
</g>
</g>
<!-- Node28&#45;&gt;Node8 -->
<g id="edge49_Node000028_Node000008" class="edge">
<title>Node28&#45;&gt;Node8</title>
<g id="a_edge49_Node000028_Node000008"><a xlink:title=" ">
<path fill="none" stroke="#63b8ff" d="M881.23,-283.47C802.36,-276 660.57,-261.58 540,-244 539.18,-243.88 538.36,-243.76 537.53,-243.63"/>
<polygon fill="#63b8ff" stroke="#63b8ff" points="538.47,-240.24 528.04,-242.11 537.36,-247.15 538.47,-240.24"/>
</a>
</g>
</g>
<!-- Node28&#45;&gt;Node15 -->
<g id="edge45_Node000028_Node000015" class="edge">
<title>Node28&#45;&gt;Node15</title>
<g id="a_edge45_Node000028_Node000015"><a xlink:title=" ">
<path fill="none" stroke="#63b8ff" d="M968.94,-279.6C984.85,-272.49 1003.64,-261.01 1013,-244 1041.28,-192.6 1048.19,-158.94 1013,-112 1000.66,-95.53 951.26,-83.08 911.69,-75.5"/>
<polygon fill="#63b8ff" stroke="#63b8ff" points="912.53,-72.1 902.06,-73.72 911.25,-78.98 912.53,-72.1"/>
</a>
</g>
</g>
<!-- Node28&#45;&gt;Node16 -->
<g id="edge46_Node000028_Node000016" class="edge">
<title>Node28&#45;&gt;Node16</title>
<g id="a_edge46_Node000028_Node000016"><a xlink:title=" ">
<path fill="none" stroke="#63b8ff" d="M881.16,-288.88C800.52,-285.43 658.5,-267.48 573,-188 560.66,-176.53 554.94,-158.02 552.28,-143.68"/>
<polygon fill="#63b8ff" stroke="#63b8ff" points="555.77,-143.33 550.87,-133.93 548.84,-144.33 555.77,-143.33"/>
</a>
</g>
</g>
<!-- Node28&#45;&gt;Node17 -->
<g id="edge47_Node000028_Node000017" class="edge">
<title>Node28&#45;&gt;Node17</title>
<g id="a_edge47_Node000028_Node000017"><a xlink:title=" ">
<path fill="none" stroke="#63b8ff" d="M948.86,-279.56C968.98,-250.66 1023.75,-162.25 980,-112 943.86,-70.48 795.03,-84.93 723.93,-76.05"/>
<polygon fill="#63b8ff" stroke="#63b8ff" points="724.73,-72.64 714.31,-74.57 723.66,-79.55 724.73,-72.64"/>
</a>
</g>
</g>
<!-- Node28&#45;&gt;Node26 -->
<g id="edge44_Node000028_Node000026" class="edge">
<title>Node28&#45;&gt;Node26</title>
<g id="a_edge44_Node000028_Node000026"><a xlink:title=" ">
<path fill="none" stroke="#63b8ff" d="M942,-279.6C942,-253.46 942,-179.48 942,-143.36"/>
<polygon fill="#63b8ff" stroke="#63b8ff" points="945.5,-143.81 942,-133.81 938.5,-143.81 945.5,-143.81"/>
</a>
</g>
</g>
</g>
</svg>
