<?xml version="1.0" encoding="UTF-8" standalone="no"?>
<!DOCTYPE svg PUBLIC "-//W3C//DTD SVG 1.1//EN"
 "http://www.w3.org/Graphics/SVG/1.1/DTD/svg11.dtd">
<!-- Generated by graphviz version 12.1.0 (20240811.2233)
 -->
<!-- Title: NetworkManager.hpp Pages: 1 -->
<svg width="1355pt" height="364pt"
 viewBox="0.00 0.00 1354.62 364.00" xmlns="http://www.w3.org/2000/svg" xmlns:xlink="http://www.w3.org/1999/xlink">
<g id="graph0" class="graph" transform="scale(1 1) rotate(0) translate(4 360)">
<title>NetworkManager.hpp</title>
<!-- Node1 -->
<g id="Node000001" class="node">
<title>Node1</title>
<g id="a_Node000001"><a xlink:title=" ">
<polygon fill="#999999" stroke="#666666" points="339.12,-356 230.12,-356 230.12,-336 339.12,-336 339.12,-356"/>
<text text-anchor="middle" x="284.62" y="-342.5" font-family="Helvetica,sans-Serif" font-size="10.00">NetworkManager.hpp</text>
</a>
</g>
</g>
<!-- Node2 -->
<g id="Node000002" class="node">
<title>Node2</title>
<g id="a_Node000002"><a xlink:title=" ">
<polygon fill="#e0e0e0" stroke="#999999" points="45.25,-300 0,-300 0,-280 45.25,-280 45.25,-300"/>
<text text-anchor="middle" x="22.62" y="-286.5" font-family="Helvetica,sans-Serif" font-size="10.00">chrono</text>
</a>
</g>
</g>
<!-- Node1&#45;&gt;Node2 -->
<g id="edge1_Node000001_Node000002" class="edge">
<title>Node1&#45;&gt;Node2</title>
<g id="a_edge1_Node000001_Node000002"><a xlink:title=" ">
<path fill="none" stroke="#63b8ff" d="M234.46,-335.58C188.78,-326.86 119.52,-313.27 59.62,-300 58.64,-299.78 57.63,-299.56 56.62,-299.33"/>
<polygon fill="#63b8ff" stroke="#63b8ff" points="57.69,-295.98 47.16,-297.11 56.1,-302.8 57.69,-295.98"/>
</a>
</g>
</g>
<!-- Node3 -->
<g id="Node000003" class="node">
<title>Node3</title>
<g id="a_Node000003"><a xlink:title=" ">
<polygon fill="#e0e0e0" stroke="#999999" points="1175.25,-20 1130,-20 1130,0 1175.25,0 1175.25,-20"/>
<text text-anchor="middle" x="1152.62" y="-6.5" font-family="Helvetica,sans-Serif" font-size="10.00">cstdint</text>
</a>
</g>
</g>
<!-- Node1&#45;&gt;Node3 -->
<g id="edge2_Node000001_Node000003" class="edge">
<title>Node1&#45;&gt;Node3</title>
<g id="a_edge2_Node000001_Node000003"><a xlink:title=" ">
<path fill="none" stroke="#63b8ff" d="M339.49,-345.14C556.95,-344.96 1346.62,-337.3 1346.62,-235 1346.62,-235 1346.62,-235 1346.62,-121 1346.62,-48.34 1242.39,-23.1 1186.73,-14.8"/>
<polygon fill="#63b8ff" stroke="#63b8ff" points="1187.52,-11.38 1177.14,-13.48 1186.57,-18.31 1187.52,-11.38"/>
</a>
</g>
</g>
<!-- Node4 -->
<g id="Node000004" class="node">
<title>Node4</title>
<g id="a_Node000004"><a xlink:title=" ">
<polygon fill="#e0e0e0" stroke="#999999" points="181.5,-300 101.75,-300 101.75,-280 181.5,-280 181.5,-300"/>
<text text-anchor="middle" x="141.62" y="-286.5" font-family="Helvetica,sans-Serif" font-size="10.00">boost/asio.hpp</text>
</a>
</g>
</g>
<!-- Node1&#45;&gt;Node4 -->
<g id="edge3_Node000001_Node000004" class="edge">
<title>Node1&#45;&gt;Node4</title>
<g id="a_edge3_Node000001_Node000004"><a xlink:title=" ">
<path fill="none" stroke="#63b8ff" d="M259.72,-335.59C236.89,-326.97 202.84,-314.12 177.16,-304.42"/>
<polygon fill="#63b8ff" stroke="#63b8ff" points="178.74,-301.27 168.14,-301.01 176.26,-307.82 178.74,-301.27"/>
</a>
</g>
</g>
<!-- Node5 -->
<g id="Node000005" class="node">
<title>Node5</title>
<g id="a_Node000005"><a xlink:title=" ">
<polygon fill="#e0e0e0" stroke="#999999" points="1041.5,-132 1003.75,-132 1003.75,-112 1041.5,-112 1041.5,-132"/>
<text text-anchor="middle" x="1022.62" y="-118.5" font-family="Helvetica,sans-Serif" font-size="10.00">array</text>
</a>
</g>
</g>
<!-- Node1&#45;&gt;Node5 -->
<g id="edge4_Node000001_Node000005" class="edge">
<title>Node1&#45;&gt;Node5</title>
<g id="a_edge4_Node000001_Node000005"><a xlink:title=" ">
<path fill="none" stroke="#63b8ff" d="M339.57,-342.88C419.16,-338.93 570.75,-328.13 696.62,-300 771.38,-283.29 791.68,-279.36 859.62,-244 916.61,-214.34 975.08,-165.58 1004.03,-139.95"/>
<polygon fill="#63b8ff" stroke="#63b8ff" points="1006.11,-142.78 1011.23,-133.5 1001.44,-137.57 1006.11,-142.78"/>
</a>
</g>
</g>
<!-- Node6 -->
<g id="Node000006" class="node">
<title>Node6</title>
<g id="a_Node000006"><a xlink:title=" ">
<polygon fill="#e0e0e0" stroke="#999999" points="281.12,-300 238.12,-300 238.12,-280 281.12,-280 281.12,-300"/>
<text text-anchor="middle" x="259.62" y="-286.5" font-family="Helvetica,sans-Serif" font-size="10.00">thread</text>
</a>
</g>
</g>
<!-- Node1&#45;&gt;Node6 -->
<g id="edge5_Node000001_Node000006" class="edge">
<title>Node1&#45;&gt;Node6</title>
<g id="a_edge5_Node000001_Node000006"><a xlink:title=" ">
<path fill="none" stroke="#63b8ff" d="M280.27,-335.59C277.08,-328.7 272.64,-319.1 268.69,-310.57"/>
<polygon fill="#63b8ff" stroke="#63b8ff" points="271.94,-309.28 264.57,-301.67 265.59,-312.22 271.94,-309.28"/>
</a>
</g>
</g>
<!-- Node7 -->
<g id="Node000007" class="node">
<title>Node7</title>
<g id="a_Node000007"><a xlink:title=" ">
<polygon fill="#e0e0e0" stroke="#999999" points="805,-76 722.25,-76 722.25,-56 805,-56 805,-76"/>
<text text-anchor="middle" x="763.62" y="-62.5" font-family="Helvetica,sans-Serif" font-size="10.00">unordered_map</text>
</a>
</g>
</g>
<!-- Node1&#45;&gt;Node7 -->
<g id="edge6_Node000001_Node000007" class="edge">
<title>Node1&#45;&gt;Node7</title>
<g id="a_edge6_Node000001_Node000007"><a xlink:title=" ">
<path fill="none" stroke="#63b8ff" d="M268.1,-335.6C255.53,-327.65 238.74,-315.14 228.62,-300 211.9,-274.98 209.62,-265.1 209.62,-235 209.62,-235 209.62,-235 209.62,-177 209.62,-138.28 232.96,-129.24 267.62,-112 353.7,-69.2 598.05,-87.49 710.79,-76.1"/>
<polygon fill="#63b8ff" stroke="#63b8ff" points="710.89,-79.61 720.43,-74.99 710.09,-72.66 710.89,-79.61"/>
</a>
</g>
</g>
<!-- Node8 -->
<g id="Node000008" class="node">
<title>Node8</title>
<g id="a_Node000008"><a xlink:title=" ">
<polygon fill="#e0e0e0" stroke="#999999" points="319.12,-132 276.12,-132 276.12,-112 319.12,-112 319.12,-132"/>
<text text-anchor="middle" x="297.62" y="-118.5" font-family="Helvetica,sans-Serif" font-size="10.00">vector</text>
</a>
</g>
</g>
<!-- Node1&#45;&gt;Node8 -->
<g id="edge7_Node000001_Node000008" class="edge">
<title>Node1&#45;&gt;Node8</title>
<g id="a_edge7_Node000001_Node000008"><a xlink:title=" ">
<path fill="none" stroke="#63b8ff" d="M286.12,-335.72C287.52,-326.64 289.55,-312.41 290.62,-300 295.5,-243.47 296.98,-176.48 297.43,-143.48"/>
<polygon fill="#63b8ff" stroke="#63b8ff" points="300.93,-143.79 297.54,-133.75 293.93,-143.7 300.93,-143.79"/>
</a>
</g>
</g>
<!-- Node9 -->
<g id="Node000009" class="node">
<title>Node9</title>
<g id="a_Node000009"><a xlink:href="Entity_8hpp.html" target="_top" xlink:title=" ">
<polygon fill="white" stroke="#666666" points="580.38,-76 520.88,-76 520.88,-56 580.38,-56 580.38,-76"/>
<text text-anchor="middle" x="550.62" y="-62.5" font-family="Helvetica,sans-Serif" font-size="10.00">Entity.hpp</text>
</a>
</g>
</g>
<!-- Node1&#45;&gt;Node9 -->
<g id="edge8_Node000001_Node000009" class="edge">
<title>Node1&#45;&gt;Node9</title>
<g id="a_edge8_Node000001_Node000009"><a xlink:title=" ">
<path fill="none" stroke="#63b8ff" d="M229.92,-338.38C180.36,-331.3 112.2,-318.54 92.62,-300 70.77,-279.3 73.62,-265.1 73.62,-235 73.62,-235 73.62,-235 73.62,-177 73.62,-87.95 393.24,-70.98 509.22,-67.76"/>
<polygon fill="#63b8ff" stroke="#63b8ff" points="509,-71.26 518.91,-67.51 508.83,-64.26 509,-71.26"/>
</a>
</g>
</g>
<!-- Node11 -->
<g id="Node000011" class="node">
<title>Node11</title>
<g id="a_Node000011"><a xlink:href="Mediator_8hpp.html" target="_top" xlink:title=" ">
<polygon fill="white" stroke="#666666" points="662.75,-244 590.5,-244 590.5,-224 662.75,-224 662.75,-244"/>
<text text-anchor="middle" x="626.62" y="-230.5" font-family="Helvetica,sans-Serif" font-size="10.00">Mediator.hpp</text>
</a>
</g>
</g>
<!-- Node1&#45;&gt;Node11 -->
<g id="edge11_Node000001_Node000011" class="edge">
<title>Node1&#45;&gt;Node11</title>
<g id="a_edge11_Node000001_Node000011"><a xlink:title=" ">
<path fill="none" stroke="#63b8ff" d="M314.08,-335.53C375.32,-315.83 516.46,-270.43 586.17,-248.01"/>
<polygon fill="#63b8ff" stroke="#63b8ff" points="587.23,-251.35 595.68,-244.95 585.09,-244.68 587.23,-251.35"/>
</a>
</g>
</g>
<!-- Node29 -->
<g id="Node000029" class="node">
<title>Node29</title>
<g id="a_Node000029"><a xlink:href="ComponentRegistry_8hpp.html" target="_top" xlink:title=" ">
<polygon fill="white" stroke="#666666" points="687.12,-300 566.12,-300 566.12,-280 687.12,-280 687.12,-300"/>
<text text-anchor="middle" x="626.62" y="-286.5" font-family="Helvetica,sans-Serif" font-size="10.00">ComponentRegistry.hpp</text>
</a>
</g>
</g>
<!-- Node1&#45;&gt;Node29 -->
<g id="edge48_Node000001_Node000029" class="edge">
<title>Node1&#45;&gt;Node29</title>
<g id="a_edge48_Node000001_Node000029"><a xlink:title=" ">
<path fill="none" stroke="#63b8ff" d="M339.57,-336.32C398.18,-327.07 491.21,-312.38 555.4,-302.25"/>
<polygon fill="#63b8ff" stroke="#63b8ff" points="555.81,-305.73 565.14,-300.71 554.72,-298.81 555.81,-305.73"/>
</a>
</g>
</g>
<!-- Node9&#45;&gt;Node3 -->
<g id="edge9_Node000009_Node000003" class="edge">
<title>Node9&#45;&gt;Node3</title>
<g id="a_edge9_Node000009_Node000003"><a xlink:title=" ">
<path fill="none" stroke="#63b8ff" d="M580.77,-57.58C583.75,-56.99 586.74,-56.45 589.62,-56 788.38,-25.29 1030.04,-14.91 1118.28,-11.99"/>
<polygon fill="#63b8ff" stroke="#63b8ff" points="1118.3,-15.49 1128.18,-11.67 1118.07,-8.49 1118.3,-15.49"/>
</a>
</g>
</g>
<!-- Node10 -->
<g id="Node000010" class="node">
<title>Node10</title>
<g id="a_Node000010"><a xlink:title=" ">
<polygon fill="#e0e0e0" stroke="#999999" points="570.62,-20 530.62,-20 530.62,0 570.62,0 570.62,-20"/>
<text text-anchor="middle" x="550.62" y="-6.5" font-family="Helvetica,sans-Serif" font-size="10.00">bitset</text>
</a>
</g>
</g>
<!-- Node9&#45;&gt;Node10 -->
<g id="edge10_Node000009_Node000010" class="edge">
<title>Node9&#45;&gt;Node10</title>
<g id="a_edge10_Node000009_Node000010"><a xlink:title=" ">
<path fill="none" stroke="#63b8ff" d="M550.62,-55.59C550.62,-49.01 550.62,-39.96 550.62,-31.73"/>
<polygon fill="#63b8ff" stroke="#63b8ff" points="554.13,-31.81 550.63,-21.81 547.13,-31.81 554.13,-31.81"/>
</a>
</g>
</g>
<!-- Node11&#45;&gt;Node8 -->
<g id="edge14_Node000011_Node000008" class="edge">
<title>Node11&#45;&gt;Node8</title>
<g id="a_edge14_Node000011_Node000008"><a xlink:title=" ">
<path fill="none" stroke="#63b8ff" d="M590.3,-227.5C549.83,-220.75 482.83,-207.72 427.62,-188 389.61,-174.42 348.35,-152.44 322.74,-137.85"/>
<polygon fill="#63b8ff" stroke="#63b8ff" points="324.81,-135.01 314.4,-133.04 321.31,-141.07 324.81,-135.01"/>
</a>
</g>
</g>
<!-- Node12 -->
<g id="Node000012" class="node">
<title>Node12</title>
<g id="a_Node000012"><a xlink:title=" ">
<polygon fill="#e0e0e0" stroke="#999999" points="876.38,-76 822.88,-76 822.88,-56 876.38,-56 876.38,-76"/>
<text text-anchor="middle" x="849.62" y="-62.5" font-family="Helvetica,sans-Serif" font-size="10.00">iostream</text>
</a>
</g>
</g>
<!-- Node11&#45;&gt;Node12 -->
<g id="edge12_Node000011_Node000012" class="edge">
<title>Node11&#45;&gt;Node12</title>
<g id="a_edge12_Node000011_Node000012"><a xlink:title=" ">
<path fill="none" stroke="#63b8ff" d="M662.93,-230.24C757.07,-222.23 1004.94,-195.38 1050.62,-132 1112.89,-45.61 1187.17,-144.61 887.55,-76.37"/>
<polygon fill="#63b8ff" stroke="#63b8ff" points="888.74,-73.05 878.21,-74.21 887.16,-79.87 888.74,-73.05"/>
</a>
</g>
</g>
<!-- Node13 -->
<g id="Node000013" class="node">
<title>Node13</title>
<g id="a_Node000013"><a xlink:title=" ">
<polygon fill="#e0e0e0" stroke="#999999" points="523.25,-132 472,-132 472,-112 523.25,-112 523.25,-132"/>
<text text-anchor="middle" x="497.62" y="-118.5" font-family="Helvetica,sans-Serif" font-size="10.00">memory</text>
</a>
</g>
</g>
<!-- Node11&#45;&gt;Node13 -->
<g id="edge13_Node000011_Node000013" class="edge">
<title>Node11&#45;&gt;Node13</title>
<g id="a_edge13_Node000011_Node000013"><a xlink:title=" ">
<path fill="none" stroke="#63b8ff" d="M619.65,-223.9C609.22,-210.66 588.56,-185.73 567.62,-168 554.36,-156.77 538.1,-146.15 524.59,-138.06"/>
<polygon fill="#63b8ff" stroke="#63b8ff" points="526.6,-135.18 516.2,-133.15 523.06,-141.22 526.6,-135.18"/>
</a>
</g>
</g>
<!-- Node14 -->
<g id="Node000014" class="node">
<title>Node14</title>
<g id="a_Node000014"><a xlink:href="EntityManager_8hpp.html" target="_top" xlink:title=" ">
<polygon fill="white" stroke="#666666" points="873.5,-188 775.75,-188 775.75,-168 873.5,-168 873.5,-188"/>
<text text-anchor="middle" x="824.62" y="-174.5" font-family="Helvetica,sans-Serif" font-size="10.00">EntityManager.hpp</text>
</a>
</g>
</g>
<!-- Node11&#45;&gt;Node14 -->
<g id="edge15_Node000011_Node000014" class="edge">
<title>Node11&#45;&gt;Node14</title>
<g id="a_edge15_Node000011_Node000014"><a xlink:title=" ">
<path fill="none" stroke="#63b8ff" d="M661.11,-223.59C693.85,-214.67 743.25,-201.19 779.18,-191.39"/>
<polygon fill="#63b8ff" stroke="#63b8ff" points="779.68,-194.89 788.41,-188.88 777.84,-188.13 779.68,-194.89"/>
</a>
</g>
</g>
<!-- Node16 -->
<g id="Node000016" class="node">
<title>Node16</title>
<g id="a_Node000016"><a xlink:href="ComponentManager_8hpp.html" target="_top" xlink:title=" ">
<polygon fill="white" stroke="#666666" points="558.88,-188 436.38,-188 436.38,-168 558.88,-168 558.88,-188"/>
<text text-anchor="middle" x="497.62" y="-174.5" font-family="Helvetica,sans-Serif" font-size="10.00">ComponentManager.hpp</text>
</a>
</g>
</g>
<!-- Node11&#45;&gt;Node16 -->
<g id="edge19_Node000011_Node000016" class="edge">
<title>Node11&#45;&gt;Node16</title>
<g id="a_edge19_Node000011_Node000016"><a xlink:title=" ">
<path fill="none" stroke="#63b8ff" d="M604.15,-223.59C583.84,-215.09 553.67,-202.46 530.62,-192.81"/>
<polygon fill="#63b8ff" stroke="#63b8ff" points="532.24,-189.7 521.67,-189.06 529.54,-196.15 532.24,-189.7"/>
</a>
</g>
</g>
<!-- Node21 -->
<g id="Node000021" class="node">
<title>Node21</title>
<g id="a_Node000021"><a xlink:href="SystemManager_8hpp.html" target="_top" xlink:title=" ">
<polygon fill="white" stroke="#666666" points="720.62,-188 614.62,-188 614.62,-168 720.62,-168 720.62,-188"/>
<text text-anchor="middle" x="667.62" y="-174.5" font-family="Helvetica,sans-Serif" font-size="10.00">SystemManager.hpp</text>
</a>
</g>
</g>
<!-- Node11&#45;&gt;Node21 -->
<g id="edge32_Node000011_Node000021" class="edge">
<title>Node11&#45;&gt;Node21</title>
<g id="a_edge32_Node000011_Node000021"><a xlink:title=" ">
<path fill="none" stroke="#63b8ff" d="M633.77,-223.59C639.23,-216.39 646.95,-206.23 653.63,-197.43"/>
<polygon fill="#63b8ff" stroke="#63b8ff" points="656.39,-199.58 659.65,-189.5 650.82,-195.35 656.39,-199.58"/>
</a>
</g>
</g>
<!-- Node24 -->
<g id="Node000024" class="node">
<title>Node24</title>
<g id="a_Node000024"><a xlink:href="EventManager_8hpp.html" target="_top" xlink:title=" ">
<polygon fill="white" stroke="#666666" points="1168.5,-188 1070.75,-188 1070.75,-168 1168.5,-168 1168.5,-188"/>
<text text-anchor="middle" x="1119.62" y="-174.5" font-family="Helvetica,sans-Serif" font-size="10.00">EventManager.hpp</text>
</a>
</g>
</g>
<!-- Node11&#45;&gt;Node24 -->
<g id="edge41_Node000011_Node000024" class="edge">
<title>Node11&#45;&gt;Node24</title>
<g id="a_edge41_Node000011_Node000024"><a xlink:title=" ">
<path fill="none" stroke="#63b8ff" d="M662.88,-229.03C746.89,-219.83 955.65,-196.96 1059.28,-185.61"/>
<polygon fill="#63b8ff" stroke="#63b8ff" points="1059.42,-189.12 1068.98,-184.55 1058.65,-182.16 1059.42,-189.12"/>
</a>
</g>
</g>
<!-- Node14&#45;&gt;Node5 -->
<g id="edge17_Node000014_Node000005" class="edge">
<title>Node14&#45;&gt;Node5</title>
<g id="a_edge17_Node000014_Node000005"><a xlink:title=" ">
<path fill="none" stroke="#63b8ff" d="M859.11,-167.59C896.91,-157.29 956.91,-140.92 992.76,-131.14"/>
<polygon fill="#63b8ff" stroke="#63b8ff" points="993.31,-134.62 1002.03,-128.62 991.47,-127.87 993.31,-134.62"/>
</a>
</g>
</g>
<!-- Node14&#45;&gt;Node9 -->
<g id="edge18_Node000014_Node000009" class="edge">
<title>Node14&#45;&gt;Node9</title>
<g id="a_edge18_Node000014_Node000009"><a xlink:title=" ">
<path fill="none" stroke="#63b8ff" d="M775.33,-171.06C705.83,-162.27 585.77,-145.38 570.62,-132 558.04,-120.87 553.26,-102.03 551.51,-87.49"/>
<polygon fill="#63b8ff" stroke="#63b8ff" points="555,-87.32 550.74,-77.63 548.03,-87.87 555,-87.32"/>
</a>
</g>
</g>
<!-- Node15 -->
<g id="Node000015" class="node">
<title>Node15</title>
<g id="a_Node000015"><a xlink:title=" ">
<polygon fill="#e0e0e0" stroke="#999999" points="947.75,-132 905.5,-132 905.5,-112 947.75,-112 947.75,-132"/>
<text text-anchor="middle" x="926.62" y="-118.5" font-family="Helvetica,sans-Serif" font-size="10.00">queue</text>
</a>
</g>
</g>
<!-- Node14&#45;&gt;Node15 -->
<g id="edge16_Node000014_Node000015" class="edge">
<title>Node14&#45;&gt;Node15</title>
<g id="a_edge16_Node000014_Node000015"><a xlink:title=" ">
<path fill="none" stroke="#63b8ff" d="M842.39,-167.59C857.95,-159.36 880.81,-147.26 898.79,-137.74"/>
<polygon fill="#63b8ff" stroke="#63b8ff" points="900.18,-140.96 907.38,-133.19 896.91,-134.77 900.18,-140.96"/>
</a>
</g>
</g>
<!-- Node16&#45;&gt;Node7 -->
<g id="edge20_Node000016_Node000007" class="edge">
<title>Node16&#45;&gt;Node7</title>
<g id="a_edge20_Node000016_Node000007"><a xlink:title=" ">
<path fill="none" stroke="#63b8ff" d="M485.95,-167.6C470.7,-154.21 447.6,-129.34 462.62,-112 497.51,-71.75 641.03,-83.46 710.6,-76.11"/>
<polygon fill="#63b8ff" stroke="#63b8ff" points="710.94,-79.59 720.4,-74.82 710.03,-72.65 710.94,-79.59"/>
</a>
</g>
</g>
<!-- Node16&#45;&gt;Node8 -->
<g id="edge24_Node000016_Node000008" class="edge">
<title>Node16&#45;&gt;Node8</title>
<g id="a_edge24_Node000016_Node000008"><a xlink:title=" ">
<path fill="none" stroke="#63b8ff" d="M462.79,-167.59C425.52,-157.53 366.88,-141.7 330.42,-131.85"/>
<polygon fill="#63b8ff" stroke="#63b8ff" points="331.44,-128.51 320.88,-129.28 329.62,-135.26 331.44,-128.51"/>
</a>
</g>
</g>
<!-- Node16&#45;&gt;Node9 -->
<g id="edge25_Node000016_Node000009" class="edge">
<title>Node16&#45;&gt;Node9</title>
<g id="a_edge25_Node000016_Node000009"><a xlink:title=" ">
<path fill="none" stroke="#63b8ff" d="M436.3,-168.11C391.8,-159.01 343.19,-141.86 366.62,-112 384.02,-89.83 460.58,-77.18 509.3,-71.23"/>
<polygon fill="#63b8ff" stroke="#63b8ff" points="509.7,-74.71 519.23,-70.08 508.89,-67.76 509.7,-74.71"/>
</a>
</g>
</g>
<!-- Node16&#45;&gt;Node13 -->
<g id="edge22_Node000016_Node000013" class="edge">
<title>Node16&#45;&gt;Node13</title>
<g id="a_edge22_Node000016_Node000013"><a xlink:title=" ">
<path fill="none" stroke="#63b8ff" d="M497.62,-167.59C497.62,-161.01 497.62,-151.96 497.62,-143.73"/>
<polygon fill="#63b8ff" stroke="#63b8ff" points="501.13,-143.81 497.63,-133.81 494.13,-143.81 501.13,-143.81"/>
</a>
</g>
</g>
<!-- Node17 -->
<g id="Node000017" class="node">
<title>Node17</title>
<g id="a_Node000017"><a xlink:title=" ">
<polygon fill="#e0e0e0" stroke="#999999" points="415.62,-132 375.62,-132 375.62,-112 415.62,-112 415.62,-132"/>
<text text-anchor="middle" x="395.62" y="-118.5" font-family="Helvetica,sans-Serif" font-size="10.00">string</text>
</a>
</g>
</g>
<!-- Node16&#45;&gt;Node17 -->
<g id="edge21_Node000016_Node000017" class="edge">
<title>Node16&#45;&gt;Node17</title>
<g id="a_edge21_Node000016_Node000017"><a xlink:title=" ">
<path fill="none" stroke="#63b8ff" d="M479.86,-167.59C464.3,-159.36 441.44,-147.26 423.46,-137.74"/>
<polygon fill="#63b8ff" stroke="#63b8ff" points="425.34,-134.77 414.87,-133.19 422.07,-140.96 425.34,-134.77"/>
</a>
</g>
</g>
<!-- Node18 -->
<g id="Node000018" class="node">
<title>Node18</title>
<g id="a_Node000018"><a xlink:title=" ">
<polygon fill="#e0e0e0" stroke="#999999" points="953,-76 894.25,-76 894.25,-56 953,-56 953,-76"/>
<text text-anchor="middle" x="923.62" y="-62.5" font-family="Helvetica,sans-Serif" font-size="10.00">stdexcept</text>
</a>
</g>
</g>
<!-- Node16&#45;&gt;Node18 -->
<g id="edge23_Node000016_Node000018" class="edge">
<title>Node16&#45;&gt;Node18</title>
<g id="a_edge23_Node000016_Node000018"><a xlink:title=" ">
<path fill="none" stroke="#63b8ff" d="M559.28,-170.09C630.41,-161.63 742.7,-146.61 782.62,-132 798.73,-126.11 800.33,-119.76 815.62,-112 838.91,-100.18 866.06,-88.88 887.3,-80.56"/>
<polygon fill="#63b8ff" stroke="#63b8ff" points="888.35,-83.91 896.41,-77.04 885.82,-77.38 888.35,-83.91"/>
</a>
</g>
</g>
<!-- Node19 -->
<g id="Node000019" class="node">
<title>Node19</title>
<g id="a_Node000019"><a xlink:href="ComponentArray_8hpp.html" target="_top" xlink:title=" ">
<polygon fill="white" stroke="#666666" points="773.38,-132 665.88,-132 665.88,-112 773.38,-112 773.38,-132"/>
<text text-anchor="middle" x="719.62" y="-118.5" font-family="Helvetica,sans-Serif" font-size="10.00">ComponentArray.hpp</text>
</a>
</g>
</g>
<!-- Node16&#45;&gt;Node19 -->
<g id="edge26_Node000016_Node000019" class="edge">
<title>Node16&#45;&gt;Node19</title>
<g id="a_edge26_Node000016_Node000019"><a xlink:title=" ">
<path fill="none" stroke="#63b8ff" d="M536.55,-167.53C573.52,-158.54 629.3,-144.97 669.57,-135.18"/>
<polygon fill="#63b8ff" stroke="#63b8ff" points="670.39,-138.58 679.28,-132.81 668.73,-131.78 670.39,-138.58"/>
</a>
</g>
</g>
<!-- Node19&#45;&gt;Node7 -->
<g id="edge28_Node000019_Node000007" class="edge">
<title>Node19&#45;&gt;Node7</title>
<g id="a_edge28_Node000019_Node000007"><a xlink:title=" ">
<path fill="none" stroke="#63b8ff" d="M727.29,-111.59C733.22,-104.32 741.61,-94.02 748.84,-85.15"/>
<polygon fill="#63b8ff" stroke="#63b8ff" points="751.49,-87.43 755.09,-77.47 746.06,-83.01 751.49,-87.43"/>
</a>
</g>
</g>
<!-- Node19&#45;&gt;Node9 -->
<g id="edge31_Node000019_Node000009" class="edge">
<title>Node19&#45;&gt;Node9</title>
<g id="a_edge31_Node000019_Node000009"><a xlink:title=" ">
<path fill="none" stroke="#63b8ff" d="M690.19,-111.59C662.73,-102.82 621.53,-89.66 591.01,-79.9"/>
<polygon fill="#63b8ff" stroke="#63b8ff" points="592.32,-76.65 581.73,-76.94 590.19,-83.32 592.32,-76.65"/>
</a>
</g>
</g>
<!-- Node19&#45;&gt;Node12 -->
<g id="edge30_Node000019_Node000012" class="edge">
<title>Node19&#45;&gt;Node12</title>
<g id="a_edge30_Node000019_Node000012"><a xlink:title=" ">
<path fill="none" stroke="#63b8ff" d="M742.27,-111.59C762.74,-103.09 793.14,-90.46 816.37,-80.81"/>
<polygon fill="#63b8ff" stroke="#63b8ff" points="817.51,-84.13 825.41,-77.06 814.83,-77.66 817.51,-84.13"/>
</a>
</g>
</g>
<!-- Node19&#45;&gt;Node18 -->
<g id="edge29_Node000019_Node000018" class="edge">
<title>Node19&#45;&gt;Node18</title>
<g id="a_edge29_Node000019_Node000018"><a xlink:title=" ">
<path fill="none" stroke="#63b8ff" d="M755.16,-111.59C790.75,-102.17 845.45,-87.69 882.8,-77.81"/>
<polygon fill="#63b8ff" stroke="#63b8ff" points="883.56,-81.23 892.33,-75.28 881.77,-74.46 883.56,-81.23"/>
</a>
</g>
</g>
<!-- Node20 -->
<g id="Node000020" class="node">
<title>Node20</title>
<g id="a_Node000020"><a xlink:title=" ">
<polygon fill="#e0e0e0" stroke="#999999" points="704.62,-76 646.62,-76 646.62,-56 704.62,-56 704.62,-76"/>
<text text-anchor="middle" x="675.62" y="-62.5" font-family="Helvetica,sans-Serif" font-size="10.00">exception</text>
</a>
</g>
</g>
<!-- Node19&#45;&gt;Node20 -->
<g id="edge27_Node000019_Node000020" class="edge">
<title>Node19&#45;&gt;Node20</title>
<g id="a_edge27_Node000019_Node000020"><a xlink:title=" ">
<path fill="none" stroke="#63b8ff" d="M711.96,-111.59C706.03,-104.32 697.64,-94.02 690.41,-85.15"/>
<polygon fill="#63b8ff" stroke="#63b8ff" points="693.19,-83.01 684.16,-77.47 687.76,-87.43 693.19,-83.01"/>
</a>
</g>
</g>
<!-- Node21&#45;&gt;Node7 -->
<g id="edge33_Node000021_Node000007" class="edge">
<title>Node21&#45;&gt;Node7</title>
<g id="a_edge33_Node000021_Node000007"><a xlink:title=" ">
<path fill="none" stroke="#63b8ff" d="M720.91,-169.7C743.89,-163.61 768.67,-152.45 782.62,-132 792.13,-118.07 785.02,-99.35 776.93,-85.57"/>
<polygon fill="#63b8ff" stroke="#63b8ff" points="780.02,-83.91 771.63,-77.43 774.15,-87.72 780.02,-83.91"/>
</a>
</g>
</g>
<!-- Node21&#45;&gt;Node8 -->
<g id="edge35_Node000021_Node000008" class="edge">
<title>Node21&#45;&gt;Node8</title>
<g id="a_edge35_Node000021_Node000008"><a xlink:title=" ">
<path fill="none" stroke="#63b8ff" d="M614.22,-169.21C536.57,-157.87 394.8,-137.18 330.68,-127.82"/>
<polygon fill="#63b8ff" stroke="#63b8ff" points="331.19,-124.36 320.78,-126.38 330.17,-131.29 331.19,-124.36"/>
</a>
</g>
</g>
<!-- Node21&#45;&gt;Node13 -->
<g id="edge36_Node000021_Node000013" class="edge">
<title>Node21&#45;&gt;Node13</title>
<g id="a_edge36_Node000021_Node000013"><a xlink:title=" ">
<path fill="none" stroke="#63b8ff" d="M638.01,-167.59C609.21,-158.44 565.37,-144.52 534.35,-134.67"/>
<polygon fill="#63b8ff" stroke="#63b8ff" points="535.59,-131.39 525,-131.7 533.47,-138.06 535.59,-131.39"/>
</a>
</g>
</g>
<!-- Node21&#45;&gt;Node17 -->
<g id="edge34_Node000021_Node000017" class="edge">
<title>Node21&#45;&gt;Node17</title>
<g id="a_edge34_Node000021_Node000017"><a xlink:title=" ">
<path fill="none" stroke="#63b8ff" d="M619.93,-167.53C564.45,-156.52 474.43,-138.65 427.06,-129.24"/>
<polygon fill="#63b8ff" stroke="#63b8ff" points="427.96,-125.85 417.47,-127.34 426.6,-132.72 427.96,-125.85"/>
</a>
</g>
</g>
<!-- Node21&#45;&gt;Node18 -->
<g id="edge37_Node000021_Node000018" class="edge">
<title>Node21&#45;&gt;Node18</title>
<g id="a_edge37_Node000021_Node000018"><a xlink:title=" ">
<path fill="none" stroke="#63b8ff" d="M699.35,-167.56C726.2,-159.22 765.47,-146.22 798.62,-132 833.83,-116.9 872.75,-95.94 897.66,-81.95"/>
<polygon fill="#63b8ff" stroke="#63b8ff" points="899.13,-85.14 906.11,-77.17 895.68,-79.05 899.13,-85.14"/>
</a>
</g>
</g>
<!-- Node22 -->
<g id="Node000022" class="node">
<title>Node22</title>
<g id="a_Node000022"><a xlink:href="System_8hpp.html" target="_top" xlink:title=" ">
<polygon fill="white" stroke="#666666" points="647.88,-132 579.38,-132 579.38,-112 647.88,-112 647.88,-132"/>
<text text-anchor="middle" x="613.62" y="-118.5" font-family="Helvetica,sans-Serif" font-size="10.00">System.hpp</text>
</a>
</g>
</g>
<!-- Node21&#45;&gt;Node22 -->
<g id="edge38_Node000021_Node000022" class="edge">
<title>Node21&#45;&gt;Node22</title>
<g id="a_edge38_Node000021_Node000022"><a xlink:title=" ">
<path fill="none" stroke="#63b8ff" d="M658.22,-167.59C650.71,-160.08 639.98,-149.35 630.93,-140.3"/>
<polygon fill="#63b8ff" stroke="#63b8ff" points="633.54,-137.96 623.99,-133.37 628.59,-142.91 633.54,-137.96"/>
</a>
</g>
</g>
<!-- Node22&#45;&gt;Node9 -->
<g id="edge40_Node000022_Node000009" class="edge">
<title>Node22&#45;&gt;Node9</title>
<g id="a_edge40_Node000022_Node000009"><a xlink:title=" ">
<path fill="none" stroke="#63b8ff" d="M602.65,-111.59C593.71,-103.93 580.85,-92.91 570.16,-83.75"/>
<polygon fill="#63b8ff" stroke="#63b8ff" points="572.49,-81.13 562.62,-77.28 567.94,-86.45 572.49,-81.13"/>
</a>
</g>
</g>
<!-- Node23 -->
<g id="Node000023" class="node">
<title>Node23</title>
<g id="a_Node000023"><a xlink:title=" ">
<polygon fill="#e0e0e0" stroke="#999999" points="628.38,-76 598.88,-76 598.88,-56 628.38,-56 628.38,-76"/>
<text text-anchor="middle" x="613.62" y="-62.5" font-family="Helvetica,sans-Serif" font-size="10.00">set</text>
</a>
</g>
</g>
<!-- Node22&#45;&gt;Node23 -->
<g id="edge39_Node000022_Node000023" class="edge">
<title>Node22&#45;&gt;Node23</title>
<g id="a_edge39_Node000022_Node000023"><a xlink:title=" ">
<path fill="none" stroke="#63b8ff" d="M613.62,-111.59C613.62,-105.01 613.62,-95.96 613.62,-87.73"/>
<polygon fill="#63b8ff" stroke="#63b8ff" points="617.13,-87.81 613.63,-77.81 610.13,-87.81 617.13,-87.81"/>
</a>
</g>
</g>
<!-- Node25 -->
<g id="Node000025" class="node">
<title>Node25</title>
<g id="a_Node000025"><a xlink:href="Event_8hpp.html" target="_top" xlink:title=" ">
<polygon fill="white" stroke="#666666" points="1204.75,-132 1144.5,-132 1144.5,-112 1204.75,-112 1204.75,-132"/>
<text text-anchor="middle" x="1174.62" y="-118.5" font-family="Helvetica,sans-Serif" font-size="10.00">Event.hpp</text>
</a>
</g>
</g>
<!-- Node24&#45;&gt;Node25 -->
<g id="edge42_Node000024_Node000025" class="edge">
<title>Node24&#45;&gt;Node25</title>
<g id="a_edge42_Node000024_Node000025"><a xlink:title=" ">
<path fill="none" stroke="#63b8ff" d="M1129.21,-167.59C1136.86,-160.08 1147.78,-149.35 1157,-140.3"/>
<polygon fill="#63b8ff" stroke="#63b8ff" points="1159.39,-142.86 1164.07,-133.36 1154.49,-137.87 1159.39,-142.86"/>
</a>
</g>
</g>
<!-- Node27 -->
<g id="Node000027" class="node">
<title>Node27</title>
<g id="a_Node000027"><a xlink:title=" ">
<polygon fill="#e0e0e0" stroke="#999999" points="1280.62,-132 1222.62,-132 1222.62,-112 1280.62,-112 1280.62,-132"/>
<text text-anchor="middle" x="1251.62" y="-118.5" font-family="Helvetica,sans-Serif" font-size="10.00">functional</text>
</a>
</g>
</g>
<!-- Node24&#45;&gt;Node27 -->
<g id="edge46_Node000024_Node000027" class="edge">
<title>Node24&#45;&gt;Node27</title>
<g id="a_edge46_Node000024_Node000027"><a xlink:title=" ">
<path fill="none" stroke="#63b8ff" d="M1142.62,-167.59C1163.41,-159.09 1194.28,-146.46 1217.86,-136.81"/>
<polygon fill="#63b8ff" stroke="#63b8ff" points="1219.12,-140.08 1227.05,-133.05 1216.47,-133.6 1219.12,-140.08"/>
</a>
</g>
</g>
<!-- Node28 -->
<g id="Node000028" class="node">
<title>Node28</title>
<g id="a_Node000028"><a xlink:title=" ">
<polygon fill="#e0e0e0" stroke="#999999" points="1126.03,-132 1097.22,-132 1097.22,-112 1126.03,-112 1126.03,-132"/>
<text text-anchor="middle" x="1111.62" y="-118.5" font-family="Helvetica,sans-Serif" font-size="10.00">list</text>
</a>
</g>
</g>
<!-- Node24&#45;&gt;Node28 -->
<g id="edge47_Node000024_Node000028" class="edge">
<title>Node24&#45;&gt;Node28</title>
<g id="a_edge47_Node000024_Node000028"><a xlink:title=" ">
<path fill="none" stroke="#63b8ff" d="M1118.23,-167.59C1117.24,-160.93 1115.88,-151.75 1114.65,-143.44"/>
<polygon fill="#63b8ff" stroke="#63b8ff" points="1118.15,-143.17 1113.22,-133.8 1111.23,-144.2 1118.15,-143.17"/>
</a>
</g>
</g>
<!-- Node25&#45;&gt;Node3 -->
<g id="edge43_Node000025_Node000003" class="edge">
<title>Node25&#45;&gt;Node3</title>
<g id="a_edge43_Node000025_Node000003"><a xlink:title=" ">
<path fill="none" stroke="#63b8ff" d="M1172.75,-111.62C1169.21,-93.92 1161.47,-55.24 1156.69,-31.32"/>
<polygon fill="#63b8ff" stroke="#63b8ff" points="1160.19,-30.96 1154.79,-21.84 1153.32,-32.33 1160.19,-30.96"/>
</a>
</g>
</g>
<!-- Node25&#45;&gt;Node7 -->
<g id="edge44_Node000025_Node000007" class="edge">
<title>Node25&#45;&gt;Node7</title>
<g id="a_edge44_Node000025_Node000007"><a xlink:title=" ">
<path fill="none" stroke="#63b8ff" d="M1144.12,-113.77C1140.92,-113.13 1137.71,-112.52 1134.62,-112 996.64,-88.81 957.65,-96.32 816.57,-76.34"/>
<polygon fill="#63b8ff" stroke="#63b8ff" points="817.23,-72.9 806.83,-74.94 816.23,-79.83 817.23,-72.9"/>
</a>
</g>
</g>
<!-- Node26 -->
<g id="Node000026" class="node">
<title>Node26</title>
<g id="a_Node000026"><a xlink:title=" ">
<polygon fill="#e0e0e0" stroke="#999999" points="1212.5,-76 1180.75,-76 1180.75,-56 1212.5,-56 1212.5,-76"/>
<text text-anchor="middle" x="1196.62" y="-62.5" font-family="Helvetica,sans-Serif" font-size="10.00">any</text>
</a>
</g>
</g>
<!-- Node25&#45;&gt;Node26 -->
<g id="edge45_Node000025_Node000026" class="edge">
<title>Node25&#45;&gt;Node26</title>
<g id="a_edge45_Node000025_Node000026"><a xlink:title=" ">
<path fill="none" stroke="#63b8ff" d="M1178.46,-111.59C1181.23,-104.78 1185.09,-95.32 1188.53,-86.86"/>
<polygon fill="#63b8ff" stroke="#63b8ff" points="1191.73,-88.28 1192.27,-77.7 1185.25,-85.64 1191.73,-88.28"/>
</a>
</g>
</g>
<!-- Node29&#45;&gt;Node7 -->
<g id="edge50_Node000029_Node000007" class="edge">
<title>Node29&#45;&gt;Node7</title>
<g id="a_edge50_Node000029_Node000007"><a xlink:title=" ">
<path fill="none" stroke="#63b8ff" d="M687.56,-282.05C768.4,-269.01 906.69,-232.41 956.62,-132 960.58,-124.04 962.15,-118.96 956.62,-112 952.17,-106.39 871.85,-89.04 816.24,-77.59"/>
<polygon fill="#63b8ff" stroke="#63b8ff" points="817.11,-74.2 806.62,-75.62 815.71,-81.06 817.11,-74.2"/>
</a>
</g>
</g>
<!-- Node29&#45;&gt;Node9 -->
<g id="edge53_Node000029_Node000009" class="edge">
<title>Node29&#45;&gt;Node9</title>
<g id="a_edge53_Node000029_Node000009"><a xlink:title=" ">
<path fill="none" stroke="#63b8ff" d="M565.89,-283.44C480.8,-271.93 329.62,-237 267.62,-132 263.11,-124.35 261.85,-118.76 267.62,-112 298.22,-76.16 438.52,-68.72 509.4,-67.28"/>
<polygon fill="#63b8ff" stroke="#63b8ff" points="509.11,-70.78 519.05,-67.11 508.99,-63.78 509.11,-70.78"/>
</a>
</g>
</g>
<!-- Node29&#45;&gt;Node11 -->
<g id="edge54_Node000029_Node000011" class="edge">
<title>Node29&#45;&gt;Node11</title>
<g id="a_edge54_Node000029_Node000011"><a xlink:title=" ">
<path fill="none" stroke="#63b8ff" d="M626.62,-279.59C626.62,-273.01 626.62,-263.96 626.62,-255.73"/>
<polygon fill="#63b8ff" stroke="#63b8ff" points="630.13,-255.81 626.63,-245.81 623.13,-255.81 630.13,-255.81"/>
</a>
</g>
</g>
<!-- Node29&#45;&gt;Node17 -->
<g id="edge51_Node000029_Node000017" class="edge">
<title>Node29&#45;&gt;Node17</title>
<g id="a_edge51_Node000029_Node000017"><a xlink:title=" ">
<path fill="none" stroke="#63b8ff" d="M593.78,-279.55C550.77,-265.72 475.27,-236.23 427.62,-188 415.18,-175.4 406.75,-157.01 401.68,-143"/>
<polygon fill="#63b8ff" stroke="#63b8ff" points="405,-141.91 398.54,-133.51 398.35,-144.1 405,-141.91"/>
</a>
</g>
</g>
<!-- Node29&#45;&gt;Node18 -->
<g id="edge52_Node000029_Node000018" class="edge">
<title>Node29&#45;&gt;Node18</title>
<g id="a_edge52_Node000029_Node000018"><a xlink:title=" ">
<path fill="none" stroke="#63b8ff" d="M687.34,-289.85C796.96,-288.99 1032.59,-276 1205.62,-188 1245.62,-167.66 1268.45,-171.56 1289.62,-132 1293.82,-124.16 1295.51,-118.66 1289.62,-112 1268.34,-87.94 1055.47,-73.95 964.5,-69.02"/>
<polygon fill="#63b8ff" stroke="#63b8ff" points="964.95,-65.54 954.78,-68.51 964.58,-72.53 964.95,-65.54"/>
</a>
</g>
</g>
<!-- Node29&#45;&gt;Node27 -->
<g id="edge49_Node000029_Node000027" class="edge">
<title>Node29&#45;&gt;Node27</title>
<g id="a_edge49_Node000029_Node000027"><a xlink:title=" ">
<path fill="none" stroke="#63b8ff" d="M687.51,-284.56C760.03,-278.56 884.58,-266 989.62,-244 1074.96,-226.13 1101.33,-230.19 1177.62,-188 1200.18,-175.53 1221.83,-155.21 1235.82,-140.61"/>
<polygon fill="#63b8ff" stroke="#63b8ff" points="1238.2,-143.19 1242.45,-133.49 1233.07,-138.42 1238.2,-143.19"/>
</a>
</g>
</g>
</g>
</svg>
