<?xml version="1.0" encoding="UTF-8" standalone="no"?>
<!DOCTYPE svg PUBLIC "-//W3C//DTD SVG 1.1//EN"
 "http://www.w3.org/Graphics/SVG/1.1/DTD/svg11.dtd">
<!-- Generated by graphviz version 12.1.0 (20240811.2233)
 -->
<!-- Title: NetworkManager.cpp Pages: 1 -->
<svg width="2059pt" height="420pt"
 viewBox="0.00 0.00 2059.46 420.00" xmlns="http://www.w3.org/2000/svg" xmlns:xlink="http://www.w3.org/1999/xlink">
<g id="graph0" class="graph" transform="scale(1 1) rotate(0) translate(4 416)">
<title>NetworkManager.cpp</title>
<!-- Node1 -->
<g id="Node000001" class="node">
<title>Node1</title>
<g id="a_Node000001"><a xlink:title=" ">
<polygon fill="#999999" stroke="#666666" points="1047.38,-412 938.38,-412 938.38,-392 1047.38,-392 1047.38,-412"/>
<text text-anchor="middle" x="992.88" y="-398.5" font-family="Helvetica,sans-Serif" font-size="10.00">NetworkManager.cpp</text>
</a>
</g>
</g>
<!-- Node2 -->
<g id="Node000002" class="node">
<title>Node2</title>
<g id="a_Node000002"><a xlink:title=" ">
<polygon fill="#e0e0e0" stroke="#999999" points="273.75,-300 194,-300 194,-280 273.75,-280 273.75,-300"/>
<text text-anchor="middle" x="233.88" y="-286.5" font-family="Helvetica,sans-Serif" font-size="10.00">boost/asio.hpp</text>
</a>
</g>
</g>
<!-- Node1&#45;&gt;Node2 -->
<g id="edge1_Node000001_Node000002" class="edge">
<title>Node1&#45;&gt;Node2</title>
<g id="a_edge1_Node000001_Node000002"><a xlink:title=" ">
<path fill="none" stroke="#63b8ff" d="M938.05,-399.99C782.38,-396.76 345.23,-385.18 287.88,-356 268.3,-346.04 253.16,-325.51 243.95,-310.17"/>
<polygon fill="#63b8ff" stroke="#63b8ff" points="247.01,-308.47 239.07,-301.47 240.91,-311.9 247.01,-308.47"/>
</a>
</g>
</g>
<!-- Node3 -->
<g id="Node000003" class="node">
<title>Node3</title>
<g id="a_Node000003"><a xlink:title=" ">
<polygon fill="#e0e0e0" stroke="#999999" points="498.62,-76 445.12,-76 445.12,-56 498.62,-56 498.62,-76"/>
<text text-anchor="middle" x="471.88" y="-62.5" font-family="Helvetica,sans-Serif" font-size="10.00">iostream</text>
</a>
</g>
</g>
<!-- Node1&#45;&gt;Node3 -->
<g id="edge2_Node000001_Node000003" class="edge">
<title>Node1&#45;&gt;Node3</title>
<g id="a_edge2_Node000001_Node000003"><a xlink:title=" ">
<path fill="none" stroke="#63b8ff" d="M938.16,-401.6C840.94,-401.52 632.3,-396.14 461.88,-356 396.24,-340.54 358.75,-355.79 320.88,-300 315.88,-292.65 318.18,-288.47 320.88,-280 334.85,-236.12 421.75,-127.73 457.02,-84.86"/>
<polygon fill="#63b8ff" stroke="#63b8ff" points="459.63,-87.2 463.3,-77.26 454.23,-82.74 459.63,-87.2"/>
</a>
</g>
</g>
<!-- Node4 -->
<g id="Node000004" class="node">
<title>Node4</title>
<g id="a_Node000004"><a xlink:title=" ">
<polygon fill="#e0e0e0" stroke="#999999" points="37.75,-132 0,-132 0,-112 37.75,-112 37.75,-132"/>
<text text-anchor="middle" x="18.88" y="-118.5" font-family="Helvetica,sans-Serif" font-size="10.00">array</text>
</a>
</g>
</g>
<!-- Node1&#45;&gt;Node4 -->
<g id="edge3_Node000001_Node000004" class="edge">
<title>Node1&#45;&gt;Node4</title>
<g id="a_edge3_Node000001_Node000004"><a xlink:title=" ">
<path fill="none" stroke="#63b8ff" d="M937.95,-400.3C738.59,-397.04 64.88,-379.47 64.88,-291 64.88,-291 64.88,-291 64.88,-233 64.88,-198.82 45.74,-162.98 32.15,-141.83"/>
<polygon fill="#63b8ff" stroke="#63b8ff" points="35.18,-140.06 26.7,-133.71 29.37,-143.96 35.18,-140.06"/>
</a>
</g>
</g>
<!-- Node5 -->
<g id="Node000005" class="node">
<title>Node5</title>
<g id="a_Node000005"><a xlink:title=" ">
<polygon fill="#e0e0e0" stroke="#999999" points="1093.88,-132 1053.88,-132 1053.88,-112 1093.88,-112 1093.88,-132"/>
<text text-anchor="middle" x="1073.88" y="-118.5" font-family="Helvetica,sans-Serif" font-size="10.00">string</text>
</a>
</g>
</g>
<!-- Node1&#45;&gt;Node5 -->
<g id="edge4_Node000001_Node000005" class="edge">
<title>Node1&#45;&gt;Node5</title>
<g id="a_edge4_Node000001_Node000005"><a xlink:title=" ">
<path fill="none" stroke="#63b8ff" d="M984.93,-391.65C975.15,-378.95 960.77,-355.56 968.88,-336 977.53,-315.09 992.33,-318.83 1004.88,-300 1034.7,-255.21 1031.67,-238.27 1050.88,-188 1056.57,-173.09 1062.58,-156.07 1067.02,-143.19"/>
<polygon fill="#63b8ff" stroke="#63b8ff" points="1070.33,-144.34 1070.25,-133.74 1063.7,-142.07 1070.33,-144.34"/>
</a>
</g>
</g>
<!-- Node6 -->
<g id="Node000006" class="node">
<title>Node6</title>
<g id="a_Node000006"><a xlink:title=" ">
<polygon fill="#e0e0e0" stroke="#999999" points="373.38,-300 330.38,-300 330.38,-280 373.38,-280 373.38,-300"/>
<text text-anchor="middle" x="351.88" y="-286.5" font-family="Helvetica,sans-Serif" font-size="10.00">thread</text>
</a>
</g>
</g>
<!-- Node1&#45;&gt;Node6 -->
<g id="edge5_Node000001_Node000006" class="edge">
<title>Node1&#45;&gt;Node6</title>
<g id="a_edge5_Node000001_Node000006"><a xlink:title=" ">
<path fill="none" stroke="#63b8ff" d="M937.89,-400.04C850.74,-397.54 676.01,-388.52 531.88,-356 477.98,-343.84 418.15,-320.05 382.84,-304.87"/>
<polygon fill="#63b8ff" stroke="#63b8ff" points="384.65,-301.84 374.09,-301.06 381.86,-308.26 384.65,-301.84"/>
</a>
</g>
</g>
<!-- Node7 -->
<g id="Node000007" class="node">
<title>Node7</title>
<g id="a_Node000007"><a xlink:title=" ">
<polygon fill="#e0e0e0" stroke="#999999" points="883.5,-356 838.25,-356 838.25,-336 883.5,-336 883.5,-356"/>
<text text-anchor="middle" x="860.88" y="-342.5" font-family="Helvetica,sans-Serif" font-size="10.00">cstring</text>
</a>
</g>
</g>
<!-- Node1&#45;&gt;Node7 -->
<g id="edge6_Node000001_Node000007" class="edge">
<title>Node1&#45;&gt;Node7</title>
<g id="a_edge6_Node000001_Node000007"><a xlink:title=" ">
<path fill="none" stroke="#63b8ff" d="M969.88,-391.59C948.97,-383.04 917.85,-370.31 894.2,-360.63"/>
<polygon fill="#63b8ff" stroke="#63b8ff" points="895.59,-357.42 885.01,-356.87 892.94,-363.9 895.59,-357.42"/>
</a>
</g>
</g>
<!-- Node8 -->
<g id="Node000008" class="node">
<title>Node8</title>
<g id="a_Node000008"><a xlink:href="NetworkManager_8hpp.html" target="_top" xlink:title=" ">
<polygon fill="white" stroke="#666666" points="650.38,-356 541.38,-356 541.38,-336 650.38,-336 650.38,-356"/>
<text text-anchor="middle" x="595.88" y="-342.5" font-family="Helvetica,sans-Serif" font-size="10.00">NetworkManager.hpp</text>
</a>
</g>
</g>
<!-- Node1&#45;&gt;Node8 -->
<g id="edge7_Node000001_Node000008" class="edge">
<title>Node1&#45;&gt;Node8</title>
<g id="a_edge7_Node000001_Node000008"><a xlink:title=" ">
<path fill="none" stroke="#63b8ff" d="M938.09,-393.55C865.92,-383.73 739.1,-366.48 661.77,-355.96"/>
<polygon fill="#63b8ff" stroke="#63b8ff" points="662.61,-352.55 652.23,-354.67 661.67,-359.48 662.61,-352.55"/>
</a>
</g>
</g>
<!-- Node31 -->
<g id="Node000031" class="node">
<title>Node31</title>
<g id="a_Node000031"><a xlink:href="EnemyInfo_8hpp.html" target="_top" xlink:title=" ">
<polygon fill="white" stroke="#666666" points="996.12,-300 855.62,-300 855.62,-280 996.12,-280 996.12,-300"/>
<text text-anchor="middle" x="925.88" y="-286.5" font-family="Helvetica,sans-Serif" font-size="10.00">Components/EnemyInfo.hpp</text>
</a>
</g>
</g>
<!-- Node1&#45;&gt;Node31 -->
<g id="edge58_Node000001_Node000031" class="edge">
<title>Node1&#45;&gt;Node31</title>
<g id="a_edge58_Node000001_Node000031"><a xlink:title=" ">
<path fill="none" stroke="#63b8ff" d="M974.67,-391.54C961.67,-383.79 944.95,-371.58 935.88,-356 928.03,-342.54 925.71,-324.97 925.25,-311.49"/>
<polygon fill="#63b8ff" stroke="#63b8ff" points="928.75,-311.61 925.26,-301.6 921.75,-311.6 928.75,-311.61"/>
</a>
</g>
</g>
<!-- Node32 -->
<g id="Node000032" class="node">
<title>Node32</title>
<g id="a_Node000032"><a xlink:href="Gravity_8hpp.html" target="_top" xlink:title=" ">
<polygon fill="white" stroke="#666666" points="2037.88,-356 1913.88,-356 1913.88,-336 2037.88,-336 2037.88,-356"/>
<text text-anchor="middle" x="1975.88" y="-342.5" font-family="Helvetica,sans-Serif" font-size="10.00">Components/Gravity.hpp</text>
</a>
</g>
</g>
<!-- Node1&#45;&gt;Node32 -->
<g id="edge59_Node000001_Node000032" class="edge">
<title>Node1&#45;&gt;Node32</title>
<g id="a_edge59_Node000001_Node000032"><a xlink:title=" ">
<path fill="none" stroke="#63b8ff" d="M1047.72,-399.76C1188.05,-396.28 1571.8,-384.78 1902.32,-356.16"/>
<polygon fill="#63b8ff" stroke="#63b8ff" points="1902.4,-359.66 1912.06,-355.3 1901.79,-352.69 1902.4,-359.66"/>
</a>
</g>
</g>
<!-- Node33 -->
<g id="Node000033" class="node">
<title>Node33</title>
<g id="a_Node000033"><a xlink:href="Utils_8hpp.html" target="_top" xlink:title=" ">
<polygon fill="white" stroke="#666666" points="1506.38,-300 1451.38,-300 1451.38,-280 1506.38,-280 1506.38,-300"/>
<text text-anchor="middle" x="1478.88" y="-286.5" font-family="Helvetica,sans-Serif" font-size="10.00">Utils.hpp</text>
</a>
</g>
</g>
<!-- Node1&#45;&gt;Node33 -->
<g id="edge77_Node000001_Node000033" class="edge">
<title>Node1&#45;&gt;Node33</title>
<g id="a_edge77_Node000001_Node000033"><a xlink:title=" ">
<path fill="none" stroke="#63b8ff" d="M1047.84,-400.74C1259.52,-399.45 2012.05,-392.35 2046.88,-356 2053.02,-349.58 2052.91,-342.53 2046.88,-336 2011.1,-297.28 1641.13,-291.84 1518.28,-291.11"/>
<polygon fill="#63b8ff" stroke="#63b8ff" points="1518.38,-287.61 1508.36,-291.05 1518.34,-294.61 1518.38,-287.61"/>
</a>
</g>
</g>
<!-- Node34 -->
<g id="Node000034" class="node">
<title>Node34</title>
<g id="a_Node000034"><a xlink:href="Hitbox_8hpp.html" target="_top" xlink:title=" ">
<polygon fill="white" stroke="#666666" points="1235.75,-356 1114,-356 1114,-336 1235.75,-336 1235.75,-356"/>
<text text-anchor="middle" x="1174.88" y="-342.5" font-family="Helvetica,sans-Serif" font-size="10.00">Components/Hitbox.hpp</text>
</a>
</g>
</g>
<!-- Node1&#45;&gt;Node34 -->
<g id="edge62_Node000001_Node000034" class="edge">
<title>Node1&#45;&gt;Node34</title>
<g id="a_edge62_Node000001_Node000034"><a xlink:title=" ">
<path fill="none" stroke="#63b8ff" d="M1024.58,-391.59C1054.41,-382.74 1099.29,-369.43 1132.25,-359.65"/>
<polygon fill="#63b8ff" stroke="#63b8ff" points="1132.88,-363.11 1141.47,-356.91 1130.89,-356.4 1132.88,-363.11"/>
</a>
</g>
</g>
<!-- Node35 -->
<g id="Node000035" class="node">
<title>Node35</title>
<g id="a_Node000035"><a xlink:href="PlayerInfo_8hpp.html" target="_top" xlink:title=" ">
<polygon fill="white" stroke="#666666" points="1391.62,-356 1254.12,-356 1254.12,-336 1391.62,-336 1391.62,-356"/>
<text text-anchor="middle" x="1322.88" y="-342.5" font-family="Helvetica,sans-Serif" font-size="10.00">Components/PlayerInfo.hpp</text>
</a>
</g>
</g>
<!-- Node1&#45;&gt;Node35 -->
<g id="edge64_Node000001_Node000035" class="edge">
<title>Node1&#45;&gt;Node35</title>
<g id="a_edge64_Node000001_Node000035"><a xlink:title=" ">
<path fill="none" stroke="#63b8ff" d="M1047.74,-392.02C1104.24,-382.78 1192.46,-368.34 1253.71,-358.32"/>
<polygon fill="#63b8ff" stroke="#63b8ff" points="1254.03,-361.81 1263.33,-356.74 1252.9,-354.9 1254.03,-361.81"/>
</a>
</g>
</g>
<!-- Node36 -->
<g id="Node000036" class="node">
<title>Node36</title>
<g id="a_Node000036"><a xlink:href="RigidBody_8hpp.html" target="_top" xlink:title=" ">
<polygon fill="white" stroke="#666666" points="1547.62,-356 1410.12,-356 1410.12,-336 1547.62,-336 1547.62,-356"/>
<text text-anchor="middle" x="1478.88" y="-342.5" font-family="Helvetica,sans-Serif" font-size="10.00">Components/RigidBody.hpp</text>
</a>
</g>
</g>
<!-- Node1&#45;&gt;Node36 -->
<g id="edge66_Node000001_Node000036" class="edge">
<title>Node1&#45;&gt;Node36</title>
<g id="a_edge66_Node000001_Node000036"><a xlink:title=" ">
<path fill="none" stroke="#63b8ff" d="M1047.66,-395.05C1123.84,-386.75 1266.4,-371.15 1398.83,-356.23"/>
<polygon fill="#63b8ff" stroke="#63b8ff" points="1398.92,-359.74 1408.47,-355.14 1398.14,-352.78 1398.92,-359.74"/>
</a>
</g>
</g>
<!-- Node37 -->
<g id="Node000037" class="node">
<title>Node37</title>
<g id="a_Node000037"><a xlink:href="ShootingCooldown_8hpp.html" target="_top" xlink:title=" ">
<polygon fill="white" stroke="#666666" points="1740.38,-356 1565.38,-356 1565.38,-336 1740.38,-336 1740.38,-356"/>
<text text-anchor="middle" x="1652.88" y="-342.5" font-family="Helvetica,sans-Serif" font-size="10.00">Components/ShootingCooldown.hpp</text>
</a>
</g>
</g>
<!-- Node1&#45;&gt;Node37 -->
<g id="edge68_Node000001_Node000037" class="edge">
<title>Node1&#45;&gt;Node37</title>
<g id="a_edge68_Node000001_Node000037"><a xlink:title=" ">
<path fill="none" stroke="#63b8ff" d="M1047.74,-396.88C1146.62,-389.39 1361.6,-372.86 1553.55,-356.28"/>
<polygon fill="#63b8ff" stroke="#63b8ff" points="1553.82,-359.77 1563.48,-355.42 1553.22,-352.79 1553.82,-359.77"/>
</a>
</g>
</g>
<!-- Node38 -->
<g id="Node000038" class="node">
<title>Node38</title>
<g id="a_Node000038"><a xlink:href="Transform_8hpp.html" target="_top" xlink:title=" ">
<polygon fill="white" stroke="#666666" points="1895.62,-356 1758.12,-356 1758.12,-336 1895.62,-336 1895.62,-356"/>
<text text-anchor="middle" x="1826.88" y="-342.5" font-family="Helvetica,sans-Serif" font-size="10.00">Components/Transform.hpp</text>
</a>
</g>
</g>
<!-- Node1&#45;&gt;Node38 -->
<g id="edge70_Node000001_Node000038" class="edge">
<title>Node1&#45;&gt;Node38</title>
<g id="a_edge70_Node000001_Node000038"><a xlink:title=" ">
<path fill="none" stroke="#63b8ff" d="M1047.58,-398.82C1170.59,-393.68 1478.68,-379.53 1746.52,-356.25"/>
<polygon fill="#63b8ff" stroke="#63b8ff" points="1746.47,-359.77 1756.13,-355.41 1745.86,-352.8 1746.47,-359.77"/>
</a>
</g>
</g>
<!-- Node39 -->
<g id="Node000039" class="node">
<title>Node39</title>
<g id="a_Node000039"><a xlink:href="Sprite_8hpp.html" target="_top" xlink:title=" ">
<polygon fill="white" stroke="#666666" points="1096.25,-356 977.5,-356 977.5,-336 1096.25,-336 1096.25,-356"/>
<text text-anchor="middle" x="1036.88" y="-342.5" font-family="Helvetica,sans-Serif" font-size="10.00">Components/Sprite.hpp</text>
</a>
</g>
</g>
<!-- Node1&#45;&gt;Node39 -->
<g id="edge72_Node000001_Node000039" class="edge">
<title>Node1&#45;&gt;Node39</title>
<g id="a_edge72_Node000001_Node000039"><a xlink:title=" ">
<path fill="none" stroke="#63b8ff" d="M1000.54,-391.59C1006.47,-384.32 1014.86,-374.02 1022.09,-365.15"/>
<polygon fill="#63b8ff" stroke="#63b8ff" points="1024.74,-367.43 1028.34,-357.47 1019.31,-363.01 1024.74,-367.43"/>
</a>
</g>
</g>
<!-- Node8&#45;&gt;Node2 -->
<g id="edge9_Node000008_Node000002" class="edge">
<title>Node8&#45;&gt;Node2</title>
<g id="a_edge9_Node000008_Node000002"><a xlink:title=" ">
<path fill="none" stroke="#63b8ff" d="M540.89,-336.8C471.53,-326.45 353.14,-308.79 285.43,-298.69"/>
<polygon fill="#63b8ff" stroke="#63b8ff" points="286.11,-295.25 275.71,-297.24 285.08,-302.18 286.11,-295.25"/>
</a>
</g>
</g>
<!-- Node8&#45;&gt;Node4 -->
<g id="edge10_Node000008_Node000004" class="edge">
<title>Node8&#45;&gt;Node4</title>
<g id="a_edge10_Node000008_Node000004"><a xlink:title=" ">
<path fill="none" stroke="#63b8ff" d="M551.94,-335.51C517.25,-327.51 467.86,-314.98 425.88,-300 405.64,-292.78 401.51,-288.71 381.88,-280 258.67,-225.36 111,-162.21 48.81,-135.72"/>
<polygon fill="#63b8ff" stroke="#63b8ff" points="50.18,-132.5 39.61,-131.81 47.44,-138.95 50.18,-132.5"/>
</a>
</g>
</g>
<!-- Node8&#45;&gt;Node6 -->
<g id="edge11_Node000008_Node000006" class="edge">
<title>Node8&#45;&gt;Node6</title>
<g id="a_edge11_Node000008_Node000006"><a xlink:title=" ">
<path fill="none" stroke="#63b8ff" d="M550.34,-335.58C508.13,-326.76 443.65,-313 387.88,-300 386.71,-299.73 385.53,-299.45 384.34,-299.17"/>
<polygon fill="#63b8ff" stroke="#63b8ff" points="385.56,-295.86 375.02,-296.9 383.91,-302.66 385.56,-295.86"/>
</a>
</g>
</g>
<!-- Node9 -->
<g id="Node000009" class="node">
<title>Node9</title>
<g id="a_Node000009"><a xlink:title=" ">
<polygon fill="#e0e0e0" stroke="#999999" points="1087.5,-20 1042.25,-20 1042.25,0 1087.5,0 1087.5,-20"/>
<text text-anchor="middle" x="1064.88" y="-6.5" font-family="Helvetica,sans-Serif" font-size="10.00">cstdint</text>
</a>
</g>
</g>
<!-- Node8&#45;&gt;Node9 -->
<g id="edge8_Node000008_Node000009" class="edge">
<title>Node8&#45;&gt;Node9</title>
<g id="a_edge8_Node000008_Node000009"><a xlink:title=" ">
<path fill="none" stroke="#63b8ff" d="M650.86,-337.66C694.57,-330.82 756.79,-318.8 808.88,-300 826.83,-293.52 829.05,-286.81 846.88,-280 908.51,-256.47 932.92,-275.51 990.88,-244 1052.72,-210.38 1077.14,-197.53 1102.88,-132 1116.83,-96.47 1094.46,-53.58 1078.56,-29.58"/>
<polygon fill="#63b8ff" stroke="#63b8ff" points="1081.52,-27.71 1072.93,-21.5 1075.78,-31.71 1081.52,-27.71"/>
</a>
</g>
</g>
<!-- Node10 -->
<g id="Node000010" class="node">
<title>Node10</title>
<g id="a_Node000010"><a xlink:href="Entity_8hpp.html" target="_top" xlink:title=" ">
<polygon fill="white" stroke="#666666" points="339.62,-76 280.12,-76 280.12,-56 339.62,-56 339.62,-76"/>
<text text-anchor="middle" x="309.88" y="-62.5" font-family="Helvetica,sans-Serif" font-size="10.00">Entity.hpp</text>
</a>
</g>
</g>
<!-- Node8&#45;&gt;Node10 -->
<g id="edge12_Node000008_Node000010" class="edge">
<title>Node8&#45;&gt;Node10</title>
<g id="a_edge12_Node000008_Node000010"><a xlink:title=" ">
<path fill="none" stroke="#63b8ff" d="M571.76,-335.52C497.99,-306.48 276.1,-218.89 204.88,-188 204.66,-187.91 85,-132.19 84.88,-132 80.1,-124.5 79.24,-118.87 84.88,-112 107.62,-84.26 209.71,-73.28 268.26,-69.21"/>
<polygon fill="#63b8ff" stroke="#63b8ff" points="268.44,-72.7 278.19,-68.56 267.98,-65.72 268.44,-72.7"/>
</a>
</g>
</g>
<!-- Node12 -->
<g id="Node000012" class="node">
<title>Node12</title>
<g id="a_Node000012"><a xlink:href="Mediator_8hpp.html" target="_top" xlink:title=" ">
<polygon fill="white" stroke="#666666" points="632,-244 559.75,-244 559.75,-224 632,-224 632,-244"/>
<text text-anchor="middle" x="595.88" y="-230.5" font-family="Helvetica,sans-Serif" font-size="10.00">Mediator.hpp</text>
</a>
</g>
</g>
<!-- Node8&#45;&gt;Node12 -->
<g id="edge15_Node000008_Node000012" class="edge">
<title>Node8&#45;&gt;Node12</title>
<g id="a_edge15_Node000008_Node000012"><a xlink:title=" ">
<path fill="none" stroke="#63b8ff" d="M595.88,-335.62C595.88,-318.01 595.88,-279.59 595.88,-255.65"/>
<polygon fill="#63b8ff" stroke="#63b8ff" points="599.38,-255.87 595.88,-245.87 592.38,-255.87 599.38,-255.87"/>
</a>
</g>
</g>
<!-- Node30 -->
<g id="Node000030" class="node">
<title>Node30</title>
<g id="a_Node000030"><a xlink:href="ComponentRegistry_8hpp.html" target="_top" xlink:title=" ">
<polygon fill="white" stroke="#666666" points="799.38,-300 678.38,-300 678.38,-280 799.38,-280 799.38,-300"/>
<text text-anchor="middle" x="738.88" y="-286.5" font-family="Helvetica,sans-Serif" font-size="10.00">ComponentRegistry.hpp</text>
</a>
</g>
</g>
<!-- Node8&#45;&gt;Node30 -->
<g id="edge50_Node000008_Node000030" class="edge">
<title>Node8&#45;&gt;Node30</title>
<g id="a_edge50_Node000008_Node000030"><a xlink:title=" ">
<path fill="none" stroke="#63b8ff" d="M620.78,-335.59C643.61,-326.97 677.66,-314.12 703.34,-304.42"/>
<polygon fill="#63b8ff" stroke="#63b8ff" points="704.24,-307.82 712.36,-301.01 701.76,-301.27 704.24,-307.82"/>
</a>
</g>
</g>
<!-- Node8&#45;&gt;Node31 -->
<g id="edge57_Node000008_Node000031" class="edge">
<title>Node8&#45;&gt;Node31</title>
<g id="a_edge57_Node000008_Node000031"><a xlink:title=" ">
<path fill="none" stroke="#63b8ff" d="M650.74,-336.02C707.24,-326.78 795.46,-312.34 856.71,-302.32"/>
<polygon fill="#63b8ff" stroke="#63b8ff" points="857.03,-305.81 866.33,-300.74 855.9,-298.9 857.03,-305.81"/>
</a>
</g>
</g>
<!-- Node10&#45;&gt;Node9 -->
<g id="edge13_Node000010_Node000009" class="edge">
<title>Node10&#45;&gt;Node9</title>
<g id="a_edge13_Node000010_Node000009"><a xlink:title=" ">
<path fill="none" stroke="#63b8ff" d="M340.02,-57.53C343,-56.95 345.99,-56.42 348.88,-56 609.1,-18.06 927.13,-12.09 1030.59,-11.17"/>
<polygon fill="#63b8ff" stroke="#63b8ff" points="1030.37,-14.67 1040.34,-11.09 1030.32,-7.67 1030.37,-14.67"/>
</a>
</g>
</g>
<!-- Node11 -->
<g id="Node000011" class="node">
<title>Node11</title>
<g id="a_Node000011"><a xlink:title=" ">
<polygon fill="#e0e0e0" stroke="#999999" points="329.88,-20 289.88,-20 289.88,0 329.88,0 329.88,-20"/>
<text text-anchor="middle" x="309.88" y="-6.5" font-family="Helvetica,sans-Serif" font-size="10.00">bitset</text>
</a>
</g>
</g>
<!-- Node10&#45;&gt;Node11 -->
<g id="edge14_Node000010_Node000011" class="edge">
<title>Node10&#45;&gt;Node11</title>
<g id="a_edge14_Node000010_Node000011"><a xlink:title=" ">
<path fill="none" stroke="#63b8ff" d="M309.88,-55.59C309.88,-49.01 309.88,-39.96 309.88,-31.73"/>
<polygon fill="#63b8ff" stroke="#63b8ff" points="313.38,-31.81 309.88,-21.81 306.38,-31.81 313.38,-31.81"/>
</a>
</g>
</g>
<!-- Node12&#45;&gt;Node3 -->
<g id="edge16_Node000012_Node000003" class="edge">
<title>Node12&#45;&gt;Node3</title>
<g id="a_edge16_Node000012_Node000003"><a xlink:title=" ">
<path fill="none" stroke="#63b8ff" d="M559.32,-230.46C530.61,-226.32 492.33,-215.6 472.88,-188 451.86,-158.2 458.89,-113.17 465.59,-87.28"/>
<polygon fill="#63b8ff" stroke="#63b8ff" points="468.94,-88.28 468.31,-77.71 462.21,-86.37 468.94,-88.28"/>
</a>
</g>
</g>
<!-- Node13 -->
<g id="Node000013" class="node">
<title>Node13</title>
<g id="a_Node000013"><a xlink:title=" ">
<polygon fill="#e0e0e0" stroke="#999999" points="281.5,-132 230.25,-132 230.25,-112 281.5,-112 281.5,-132"/>
<text text-anchor="middle" x="255.88" y="-118.5" font-family="Helvetica,sans-Serif" font-size="10.00">memory</text>
</a>
</g>
</g>
<!-- Node12&#45;&gt;Node13 -->
<g id="edge17_Node000012_Node000013" class="edge">
<title>Node12&#45;&gt;Node13</title>
<g id="a_edge17_Node000012_Node000013"><a xlink:title=" ">
<path fill="none" stroke="#63b8ff" d="M559.25,-223.7C527.4,-215.31 480.17,-202.15 439.88,-188 418.07,-180.34 413.53,-176.08 391.88,-168 358.6,-155.58 320.12,-143.01 292.6,-134.33"/>
<polygon fill="#63b8ff" stroke="#63b8ff" points="293.93,-131.08 283.34,-131.42 291.83,-137.75 293.93,-131.08"/>
</a>
</g>
</g>
<!-- Node14 -->
<g id="Node000014" class="node">
<title>Node14</title>
<g id="a_Node000014"><a xlink:title=" ">
<polygon fill="#e0e0e0" stroke="#999999" points="1019.38,-188 976.38,-188 976.38,-168 1019.38,-168 1019.38,-188"/>
<text text-anchor="middle" x="997.88" y="-174.5" font-family="Helvetica,sans-Serif" font-size="10.00">vector</text>
</a>
</g>
</g>
<!-- Node12&#45;&gt;Node14 -->
<g id="edge18_Node000012_Node000014" class="edge">
<title>Node12&#45;&gt;Node14</title>
<g id="a_edge18_Node000012_Node000014"><a xlink:title=" ">
<path fill="none" stroke="#63b8ff" d="M632.26,-228.11C709.86,-217.69 890.6,-193.41 964.99,-183.42"/>
<polygon fill="#63b8ff" stroke="#63b8ff" points="965.04,-186.94 974.48,-182.14 964.11,-180 965.04,-186.94"/>
</a>
</g>
</g>
<!-- Node15 -->
<g id="Node000015" class="node">
<title>Node15</title>
<g id="a_Node000015"><a xlink:href="EntityManager_8hpp.html" target="_top" xlink:title=" ">
<polygon fill="white" stroke="#666666" points="311.75,-188 214,-188 214,-168 311.75,-168 311.75,-188"/>
<text text-anchor="middle" x="262.88" y="-174.5" font-family="Helvetica,sans-Serif" font-size="10.00">EntityManager.hpp</text>
</a>
</g>
</g>
<!-- Node12&#45;&gt;Node15 -->
<g id="edge19_Node000012_Node000015" class="edge">
<title>Node12&#45;&gt;Node15</title>
<g id="a_edge19_Node000012_Node000015"><a xlink:title=" ">
<path fill="none" stroke="#63b8ff" d="M559.29,-227.07C502.39,-217.84 392.11,-199.96 323.28,-188.8"/>
<polygon fill="#63b8ff" stroke="#63b8ff" points="324.12,-185.39 313.69,-187.24 323,-192.3 324.12,-185.39"/>
</a>
</g>
</g>
<!-- Node17 -->
<g id="Node000017" class="node">
<title>Node17</title>
<g id="a_Node000017"><a xlink:href="ComponentManager_8hpp.html" target="_top" xlink:title=" ">
<polygon fill="white" stroke="#666666" points="604.12,-188 481.62,-188 481.62,-168 604.12,-168 604.12,-188"/>
<text text-anchor="middle" x="542.88" y="-174.5" font-family="Helvetica,sans-Serif" font-size="10.00">ComponentManager.hpp</text>
</a>
</g>
</g>
<!-- Node12&#45;&gt;Node17 -->
<g id="edge23_Node000012_Node000017" class="edge">
<title>Node12&#45;&gt;Node17</title>
<g id="a_edge23_Node000012_Node000017"><a xlink:title=" ">
<path fill="none" stroke="#63b8ff" d="M586.64,-223.59C579.27,-216.08 568.74,-205.35 559.86,-196.3"/>
<polygon fill="#63b8ff" stroke="#63b8ff" points="562.56,-194.06 553.06,-189.38 557.57,-198.97 562.56,-194.06"/>
</a>
</g>
</g>
<!-- Node22 -->
<g id="Node000022" class="node">
<title>Node22</title>
<g id="a_Node000022"><a xlink:href="SystemManager_8hpp.html" target="_top" xlink:title=" ">
<polygon fill="white" stroke="#666666" points="727.88,-188 621.88,-188 621.88,-168 727.88,-168 727.88,-188"/>
<text text-anchor="middle" x="674.88" y="-174.5" font-family="Helvetica,sans-Serif" font-size="10.00">SystemManager.hpp</text>
</a>
</g>
</g>
<!-- Node12&#45;&gt;Node22 -->
<g id="edge35_Node000012_Node000022" class="edge">
<title>Node12&#45;&gt;Node22</title>
<g id="a_edge35_Node000012_Node000022"><a xlink:title=" ">
<path fill="none" stroke="#63b8ff" d="M609.64,-223.59C621.23,-215.67 638.07,-204.16 651.74,-194.82"/>
<polygon fill="#63b8ff" stroke="#63b8ff" points="653.48,-197.87 659.76,-189.33 649.53,-192.09 653.48,-197.87"/>
</a>
</g>
</g>
<!-- Node25 -->
<g id="Node000025" class="node">
<title>Node25</title>
<g id="a_Node000025"><a xlink:href="EventManager_8hpp.html" target="_top" xlink:title=" ">
<polygon fill="white" stroke="#666666" points="881.75,-188 784,-188 784,-168 881.75,-168 881.75,-188"/>
<text text-anchor="middle" x="832.88" y="-174.5" font-family="Helvetica,sans-Serif" font-size="10.00">EventManager.hpp</text>
</a>
</g>
</g>
<!-- Node12&#45;&gt;Node25 -->
<g id="edge43_Node000012_Node000025" class="edge">
<title>Node12&#45;&gt;Node25</title>
<g id="a_edge43_Node000012_Node000025"><a xlink:title=" ">
<path fill="none" stroke="#63b8ff" d="M632.39,-224.68C672.01,-215.65 735.61,-201.16 780.54,-190.92"/>
<polygon fill="#63b8ff" stroke="#63b8ff" points="781.09,-194.39 790.06,-188.76 779.53,-187.56 781.09,-194.39"/>
</a>
</g>
</g>
<!-- Node15&#45;&gt;Node4 -->
<g id="edge21_Node000015_Node000004" class="edge">
<title>Node15&#45;&gt;Node4</title>
<g id="a_edge21_Node000015_Node000004"><a xlink:title=" ">
<path fill="none" stroke="#63b8ff" d="M220.09,-167.53C171.12,-156.69 92.14,-139.22 49.14,-129.7"/>
<polygon fill="#63b8ff" stroke="#63b8ff" points="50.02,-126.31 39.5,-127.57 48.51,-133.14 50.02,-126.31"/>
</a>
</g>
</g>
<!-- Node15&#45;&gt;Node10 -->
<g id="edge22_Node000015_Node000010" class="edge">
<title>Node15&#45;&gt;Node10</title>
<g id="a_edge22_Node000015_Node000010"><a xlink:title=" ">
<path fill="none" stroke="#63b8ff" d="M236.51,-167.66C208.8,-156.32 171.32,-135.75 187.88,-112 205.97,-86.04 240.83,-75.01 268.67,-70.36"/>
<polygon fill="#63b8ff" stroke="#63b8ff" points="268.82,-73.87 278.22,-68.98 267.82,-66.94 268.82,-73.87"/>
</a>
</g>
</g>
<!-- Node16 -->
<g id="Node000016" class="node">
<title>Node16</title>
<g id="a_Node000016"><a xlink:title=" ">
<polygon fill="#e0e0e0" stroke="#999999" points="136,-132 93.75,-132 93.75,-112 136,-112 136,-132"/>
<text text-anchor="middle" x="114.88" y="-118.5" font-family="Helvetica,sans-Serif" font-size="10.00">queue</text>
</a>
</g>
</g>
<!-- Node15&#45;&gt;Node16 -->
<g id="edge20_Node000015_Node000016" class="edge">
<title>Node15&#45;&gt;Node16</title>
<g id="a_edge20_Node000015_Node000016"><a xlink:title=" ">
<path fill="none" stroke="#63b8ff" d="M237.1,-167.59C211.91,-158.4 173.53,-144.4 146.51,-134.54"/>
<polygon fill="#63b8ff" stroke="#63b8ff" points="148.07,-131.38 137.47,-131.24 145.67,-137.96 148.07,-131.38"/>
</a>
</g>
</g>
<!-- Node17&#45;&gt;Node5 -->
<g id="edge25_Node000017_Node000005" class="edge">
<title>Node17&#45;&gt;Node5</title>
<g id="a_edge25_Node000017_Node000005"><a xlink:title=" ">
<path fill="none" stroke="#63b8ff" d="M604.32,-168.94C607.21,-168.61 610.07,-168.3 612.88,-168 800.82,-148.1 853.75,-167.98 1042.29,-132.11"/>
<polygon fill="#63b8ff" stroke="#63b8ff" points="1042.78,-135.58 1051.94,-130.24 1041.45,-128.7 1042.78,-135.58"/>
</a>
</g>
</g>
<!-- Node17&#45;&gt;Node10 -->
<g id="edge28_Node000017_Node000010" class="edge">
<title>Node17&#45;&gt;Node10</title>
<g id="a_edge28_Node000017_Node000010"><a xlink:title=" ">
<path fill="none" stroke="#63b8ff" d="M481.16,-171.07C426.04,-164.54 350.71,-152.21 328.88,-132 316.6,-120.63 312.1,-101.82 310.52,-87.35"/>
<polygon fill="#63b8ff" stroke="#63b8ff" points="314.03,-87.3 309.87,-77.56 307.04,-87.77 314.03,-87.3"/>
</a>
</g>
</g>
<!-- Node17&#45;&gt;Node13 -->
<g id="edge26_Node000017_Node000013" class="edge">
<title>Node17&#45;&gt;Node13</title>
<g id="a_edge26_Node000017_Node000013"><a xlink:title=" ">
<path fill="none" stroke="#63b8ff" d="M487.32,-167.55C437.18,-158.86 361.44,-145.34 295.88,-132 294.87,-131.8 293.85,-131.58 292.82,-131.37"/>
<polygon fill="#63b8ff" stroke="#63b8ff" points="293.65,-127.97 283.14,-129.28 292.18,-134.81 293.65,-127.97"/>
</a>
</g>
</g>
<!-- Node18 -->
<g id="Node000018" class="node">
<title>Node18</title>
<g id="a_Node000018"><a xlink:title=" ">
<polygon fill="#e0e0e0" stroke="#999999" points="791.25,-76 708.5,-76 708.5,-56 791.25,-56 791.25,-76"/>
<text text-anchor="middle" x="749.88" y="-62.5" font-family="Helvetica,sans-Serif" font-size="10.00">unordered_map</text>
</a>
</g>
</g>
<!-- Node17&#45;&gt;Node18 -->
<g id="edge24_Node000017_Node000018" class="edge">
<title>Node17&#45;&gt;Node18</title>
<g id="a_edge24_Node000017_Node000018"><a xlink:title=" ">
<path fill="none" stroke="#63b8ff" d="M563.88,-167.66C583.29,-158.89 612.84,-145.17 637.88,-132 668.28,-116.01 702.29,-95.95 724.77,-82.38"/>
<polygon fill="#63b8ff" stroke="#63b8ff" points="726.5,-85.42 733.23,-77.24 722.86,-79.44 726.5,-85.42"/>
</a>
</g>
</g>
<!-- Node19 -->
<g id="Node000019" class="node">
<title>Node19</title>
<g id="a_Node000019"><a xlink:title=" ">
<polygon fill="#e0e0e0" stroke="#999999" points="677.25,-76 618.5,-76 618.5,-56 677.25,-56 677.25,-76"/>
<text text-anchor="middle" x="647.88" y="-62.5" font-family="Helvetica,sans-Serif" font-size="10.00">stdexcept</text>
</a>
</g>
</g>
<!-- Node17&#45;&gt;Node19 -->
<g id="edge27_Node000017_Node000019" class="edge">
<title>Node17&#45;&gt;Node19</title>
<g id="a_edge27_Node000017_Node000019"><a xlink:title=" ">
<path fill="none" stroke="#63b8ff" d="M565.31,-167.6C581.36,-159.96 602.56,-147.84 616.88,-132 628.54,-119.08 636.69,-100.99 641.69,-87.18"/>
<polygon fill="#63b8ff" stroke="#63b8ff" points="644.97,-88.4 644.81,-77.81 638.33,-86.19 644.97,-88.4"/>
</a>
</g>
</g>
<!-- Node20 -->
<g id="Node000020" class="node">
<title>Node20</title>
<g id="a_Node000020"><a xlink:href="ComponentArray_8hpp.html" target="_top" xlink:title=" ">
<polygon fill="white" stroke="#666666" points="607.62,-132 500.12,-132 500.12,-112 607.62,-112 607.62,-132"/>
<text text-anchor="middle" x="553.88" y="-118.5" font-family="Helvetica,sans-Serif" font-size="10.00">ComponentArray.hpp</text>
</a>
</g>
</g>
<!-- Node17&#45;&gt;Node20 -->
<g id="edge29_Node000017_Node000020" class="edge">
<title>Node17&#45;&gt;Node20</title>
<g id="a_edge29_Node000017_Node000020"><a xlink:title=" ">
<path fill="none" stroke="#63b8ff" d="M544.79,-167.59C546.15,-160.93 548.02,-151.75 549.71,-143.44"/>
<polygon fill="#63b8ff" stroke="#63b8ff" points="553.11,-144.28 551.68,-133.78 546.25,-142.88 553.11,-144.28"/>
</a>
</g>
</g>
<!-- Node20&#45;&gt;Node3 -->
<g id="edge33_Node000020_Node000003" class="edge">
<title>Node20&#45;&gt;Node3</title>
<g id="a_edge33_Node000020_Node000003"><a xlink:title=" ">
<path fill="none" stroke="#63b8ff" d="M539.59,-111.59C527.44,-103.59 509.74,-91.93 495.48,-82.54"/>
<polygon fill="#63b8ff" stroke="#63b8ff" points="497.81,-79.89 487.53,-77.31 493.96,-85.73 497.81,-79.89"/>
</a>
</g>
</g>
<!-- Node20&#45;&gt;Node10 -->
<g id="edge34_Node000020_Node000010" class="edge">
<title>Node20&#45;&gt;Node10</title>
<g id="a_edge34_Node000020_Node000010"><a xlink:title=" ">
<path fill="none" stroke="#63b8ff" d="M510.26,-111.57C471.09,-103.06 411.71,-90.1 351.04,-76.47"/>
<polygon fill="#63b8ff" stroke="#63b8ff" points="352.1,-73.12 341.58,-74.34 350.57,-79.95 352.1,-73.12"/>
</a>
</g>
</g>
<!-- Node20&#45;&gt;Node18 -->
<g id="edge31_Node000020_Node000018" class="edge">
<title>Node20&#45;&gt;Node18</title>
<g id="a_edge31_Node000020_Node000018"><a xlink:title=" ">
<path fill="none" stroke="#63b8ff" d="M588.02,-111.59C620.28,-102.71 668.9,-89.31 704.43,-79.52"/>
<polygon fill="#63b8ff" stroke="#63b8ff" points="705.3,-82.91 714.01,-76.88 703.44,-76.16 705.3,-82.91"/>
</a>
</g>
</g>
<!-- Node20&#45;&gt;Node19 -->
<g id="edge32_Node000020_Node000019" class="edge">
<title>Node20&#45;&gt;Node19</title>
<g id="a_edge32_Node000020_Node000019"><a xlink:title=" ">
<path fill="none" stroke="#63b8ff" d="M570.25,-111.59C584.45,-103.44 605.26,-91.48 621.76,-82"/>
<polygon fill="#63b8ff" stroke="#63b8ff" points="623.13,-85.25 630.06,-77.23 619.65,-79.18 623.13,-85.25"/>
</a>
</g>
</g>
<!-- Node21 -->
<g id="Node000021" class="node">
<title>Node21</title>
<g id="a_Node000021"><a xlink:title=" ">
<polygon fill="#e0e0e0" stroke="#999999" points="582.88,-76 524.88,-76 524.88,-56 582.88,-56 582.88,-76"/>
<text text-anchor="middle" x="553.88" y="-62.5" font-family="Helvetica,sans-Serif" font-size="10.00">exception</text>
</a>
</g>
</g>
<!-- Node20&#45;&gt;Node21 -->
<g id="edge30_Node000020_Node000021" class="edge">
<title>Node20&#45;&gt;Node21</title>
<g id="a_edge30_Node000020_Node000021"><a xlink:title=" ">
<path fill="none" stroke="#63b8ff" d="M553.88,-111.59C553.88,-105.01 553.88,-95.96 553.88,-87.73"/>
<polygon fill="#63b8ff" stroke="#63b8ff" points="557.38,-87.81 553.88,-77.81 550.38,-87.81 557.38,-87.81"/>
</a>
</g>
</g>
<!-- Node22&#45;&gt;Node5 -->
<g id="edge37_Node000022_Node000005" class="edge">
<title>Node22&#45;&gt;Node5</title>
<g id="a_edge37_Node000022_Node000005"><a xlink:title=" ">
<path fill="none" stroke="#63b8ff" d="M728.13,-171.72C811.12,-163.29 968.65,-146.49 1042.32,-132.14"/>
<polygon fill="#63b8ff" stroke="#63b8ff" points="1042.83,-135.6 1051.92,-130.16 1041.42,-128.75 1042.83,-135.6"/>
</a>
</g>
</g>
<!-- Node22&#45;&gt;Node13 -->
<g id="edge38_Node000022_Node000013" class="edge">
<title>Node22&#45;&gt;Node13</title>
<g id="a_edge38_Node000022_Node000013"><a xlink:title=" ">
<path fill="none" stroke="#63b8ff" d="M621.45,-169.18C618.55,-168.78 615.68,-168.38 612.88,-168 551.57,-159.69 371.4,-137.3 293.01,-127.59"/>
<polygon fill="#63b8ff" stroke="#63b8ff" points="293.63,-124.14 283.28,-126.39 292.77,-131.09 293.63,-124.14"/>
</a>
</g>
</g>
<!-- Node22&#45;&gt;Node18 -->
<g id="edge36_Node000022_Node000018" class="edge">
<title>Node22&#45;&gt;Node18</title>
<g id="a_edge36_Node000022_Node000018"><a xlink:title=" ">
<path fill="none" stroke="#63b8ff" d="M681.27,-167.62C693.61,-149.52 720.93,-109.45 737.12,-85.7"/>
<polygon fill="#63b8ff" stroke="#63b8ff" points="739.9,-87.84 742.64,-77.61 734.12,-83.9 739.9,-87.84"/>
</a>
</g>
</g>
<!-- Node22&#45;&gt;Node19 -->
<g id="edge39_Node000022_Node000019" class="edge">
<title>Node22&#45;&gt;Node19</title>
<g id="a_edge39_Node000022_Node000019"><a xlink:title=" ">
<path fill="none" stroke="#63b8ff" d="M672.57,-167.62C668.23,-149.92 658.73,-111.24 652.86,-87.32"/>
<polygon fill="#63b8ff" stroke="#63b8ff" points="656.31,-86.7 650.53,-77.82 649.52,-88.37 656.31,-86.7"/>
</a>
</g>
</g>
<!-- Node23 -->
<g id="Node000023" class="node">
<title>Node23</title>
<g id="a_Node000023"><a xlink:href="System_8hpp.html" target="_top" xlink:title=" ">
<polygon fill="white" stroke="#666666" points="406.12,-132 337.62,-132 337.62,-112 406.12,-112 406.12,-132"/>
<text text-anchor="middle" x="371.88" y="-118.5" font-family="Helvetica,sans-Serif" font-size="10.00">System.hpp</text>
</a>
</g>
</g>
<!-- Node22&#45;&gt;Node23 -->
<g id="edge40_Node000022_Node000023" class="edge">
<title>Node22&#45;&gt;Node23</title>
<g id="a_edge40_Node000022_Node000023"><a xlink:title=" ">
<path fill="none" stroke="#63b8ff" d="M621.75,-167.53C563.91,-157.22 472.38,-140.91 417.62,-131.15"/>
<polygon fill="#63b8ff" stroke="#63b8ff" points="418.47,-127.75 408.01,-129.44 417.24,-134.64 418.47,-127.75"/>
</a>
</g>
</g>
<!-- Node23&#45;&gt;Node10 -->
<g id="edge42_Node000023_Node000010" class="edge">
<title>Node23&#45;&gt;Node10</title>
<g id="a_edge42_Node000023_Node000010"><a xlink:title=" ">
<path fill="none" stroke="#63b8ff" d="M361.08,-111.59C352.27,-103.93 339.62,-92.91 329.1,-83.75"/>
<polygon fill="#63b8ff" stroke="#63b8ff" points="331.53,-81.22 321.69,-77.29 326.93,-86.5 331.53,-81.22"/>
</a>
</g>
</g>
<!-- Node24 -->
<g id="Node000024" class="node">
<title>Node24</title>
<g id="a_Node000024"><a xlink:title=" ">
<polygon fill="#e0e0e0" stroke="#999999" points="387.62,-76 358.12,-76 358.12,-56 387.62,-56 387.62,-76"/>
<text text-anchor="middle" x="372.88" y="-62.5" font-family="Helvetica,sans-Serif" font-size="10.00">set</text>
</a>
</g>
</g>
<!-- Node23&#45;&gt;Node24 -->
<g id="edge41_Node000023_Node000024" class="edge">
<title>Node23&#45;&gt;Node24</title>
<g id="a_edge41_Node000023_Node000024"><a xlink:title=" ">
<path fill="none" stroke="#63b8ff" d="M372.05,-111.59C372.17,-105.01 372.34,-95.96 372.49,-87.73"/>
<polygon fill="#63b8ff" stroke="#63b8ff" points="375.99,-87.87 372.67,-77.81 368.99,-87.75 375.99,-87.87"/>
</a>
</g>
</g>
<!-- Node26 -->
<g id="Node000026" class="node">
<title>Node26</title>
<g id="a_Node000026"><a xlink:href="Event_8hpp.html" target="_top" xlink:title=" ">
<polygon fill="white" stroke="#666666" points="1036,-132 975.75,-132 975.75,-112 1036,-112 1036,-132"/>
<text text-anchor="middle" x="1005.88" y="-118.5" font-family="Helvetica,sans-Serif" font-size="10.00">Event.hpp</text>
</a>
</g>
</g>
<!-- Node25&#45;&gt;Node26 -->
<g id="edge44_Node000025_Node000026" class="edge">
<title>Node25&#45;&gt;Node26</title>
<g id="a_edge44_Node000025_Node000026"><a xlink:title=" ">
<path fill="none" stroke="#63b8ff" d="M863.01,-167.59C891.12,-158.82 933.29,-145.66 964.53,-135.9"/>
<polygon fill="#63b8ff" stroke="#63b8ff" points="965.56,-139.25 974.06,-132.93 963.47,-132.57 965.56,-139.25"/>
</a>
</g>
</g>
<!-- Node28 -->
<g id="Node000028" class="node">
<title>Node28</title>
<g id="a_Node000028"><a xlink:title=" ">
<polygon fill="#e0e0e0" stroke="#999999" points="919.88,-132 861.88,-132 861.88,-112 919.88,-112 919.88,-132"/>
<text text-anchor="middle" x="890.88" y="-118.5" font-family="Helvetica,sans-Serif" font-size="10.00">functional</text>
</a>
</g>
</g>
<!-- Node25&#45;&gt;Node28 -->
<g id="edge48_Node000025_Node000028" class="edge">
<title>Node25&#45;&gt;Node28</title>
<g id="a_edge48_Node000025_Node000028"><a xlink:title=" ">
<path fill="none" stroke="#63b8ff" d="M842.98,-167.59C851.13,-160.01 862.81,-149.13 872.59,-140.02"/>
<polygon fill="#63b8ff" stroke="#63b8ff" points="874.85,-142.71 879.78,-133.33 870.08,-137.58 874.85,-142.71"/>
</a>
</g>
</g>
<!-- Node29 -->
<g id="Node000029" class="node">
<title>Node29</title>
<g id="a_Node000029"><a xlink:title=" ">
<polygon fill="#e0e0e0" stroke="#999999" points="844.27,-132 815.48,-132 815.48,-112 844.27,-112 844.27,-132"/>
<text text-anchor="middle" x="829.88" y="-118.5" font-family="Helvetica,sans-Serif" font-size="10.00">list</text>
</a>
</g>
</g>
<!-- Node25&#45;&gt;Node29 -->
<g id="edge49_Node000025_Node000029" class="edge">
<title>Node25&#45;&gt;Node29</title>
<g id="a_edge49_Node000025_Node000029"><a xlink:title=" ">
<path fill="none" stroke="#63b8ff" d="M832.35,-167.59C831.99,-161.01 831.48,-151.96 831.03,-143.73"/>
<polygon fill="#63b8ff" stroke="#63b8ff" points="834.52,-143.6 830.48,-133.81 827.54,-143.99 834.52,-143.6"/>
</a>
</g>
</g>
<!-- Node26&#45;&gt;Node9 -->
<g id="edge45_Node000026_Node000009" class="edge">
<title>Node26&#45;&gt;Node9</title>
<g id="a_edge45_Node000026_Node000009"><a xlink:title=" ">
<path fill="none" stroke="#63b8ff" d="M1007.27,-111.67C1009.51,-98.58 1014.74,-74.31 1024.88,-56 1030.47,-45.9 1038.68,-36.14 1046.21,-28.31"/>
<polygon fill="#63b8ff" stroke="#63b8ff" points="1048.51,-30.95 1053.17,-21.43 1043.59,-25.97 1048.51,-30.95"/>
</a>
</g>
</g>
<!-- Node26&#45;&gt;Node18 -->
<g id="edge46_Node000026_Node000018" class="edge">
<title>Node26&#45;&gt;Node18</title>
<g id="a_edge46_Node000026_Node000018"><a xlink:title=" ">
<path fill="none" stroke="#63b8ff" d="M975.5,-114.59C932.93,-105.61 854.89,-89.15 802.69,-78.14"/>
<polygon fill="#63b8ff" stroke="#63b8ff" points="803.63,-74.76 793.13,-76.12 802.19,-81.61 803.63,-74.76"/>
</a>
</g>
</g>
<!-- Node27 -->
<g id="Node000027" class="node">
<title>Node27</title>
<g id="a_Node000027"><a xlink:title=" ">
<polygon fill="#e0e0e0" stroke="#999999" points="1065.75,-76 1034,-76 1034,-56 1065.75,-56 1065.75,-76"/>
<text text-anchor="middle" x="1049.88" y="-62.5" font-family="Helvetica,sans-Serif" font-size="10.00">any</text>
</a>
</g>
</g>
<!-- Node26&#45;&gt;Node27 -->
<g id="edge47_Node000026_Node000027" class="edge">
<title>Node26&#45;&gt;Node27</title>
<g id="a_edge47_Node000026_Node000027"><a xlink:title=" ">
<path fill="none" stroke="#63b8ff" d="M1013.54,-111.59C1019.47,-104.32 1027.86,-94.02 1035.09,-85.15"/>
<polygon fill="#63b8ff" stroke="#63b8ff" points="1037.74,-87.43 1041.34,-77.47 1032.31,-83.01 1037.74,-87.43"/>
</a>
</g>
</g>
<!-- Node30&#45;&gt;Node5 -->
<g id="edge53_Node000030_Node000005" class="edge">
<title>Node30&#45;&gt;Node5</title>
<g id="a_edge53_Node000030_Node000005"><a xlink:title=" ">
<path fill="none" stroke="#63b8ff" d="M799.79,-280.16C855.64,-271.44 933.79,-257.48 961.88,-244 1008.57,-221.58 1045.22,-170.39 1062.69,-142.31"/>
<polygon fill="#63b8ff" stroke="#63b8ff" points="1065.67,-144.14 1067.83,-133.77 1059.67,-140.53 1065.67,-144.14"/>
</a>
</g>
</g>
<!-- Node30&#45;&gt;Node10 -->
<g id="edge55_Node000030_Node000010" class="edge">
<title>Node30&#45;&gt;Node10</title>
<g id="a_edge55_Node000030_Node000010"><a xlink:title=" ">
<path fill="none" stroke="#63b8ff" d="M694.13,-279.51C655.85,-271.1 599.4,-258.01 550.88,-244 546.22,-242.66 223.69,-135.93 220.88,-132 203.98,-108.42 238.32,-89.97 269.13,-78.85"/>
<polygon fill="#63b8ff" stroke="#63b8ff" points="270.01,-82.24 278.35,-75.71 267.76,-75.61 270.01,-82.24"/>
</a>
</g>
</g>
<!-- Node30&#45;&gt;Node12 -->
<g id="edge56_Node000030_Node000012" class="edge">
<title>Node30&#45;&gt;Node12</title>
<g id="a_edge56_Node000030_Node000012"><a xlink:title=" ">
<path fill="none" stroke="#63b8ff" d="M713.97,-279.59C691.14,-270.97 657.09,-258.12 631.41,-248.42"/>
<polygon fill="#63b8ff" stroke="#63b8ff" points="632.99,-245.27 622.39,-245.01 630.51,-251.82 632.99,-245.27"/>
</a>
</g>
</g>
<!-- Node30&#45;&gt;Node18 -->
<g id="edge52_Node000030_Node000018" class="edge">
<title>Node30&#45;&gt;Node18</title>
<g id="a_edge52_Node000030_Node000018"><a xlink:title=" ">
<path fill="none" stroke="#63b8ff" d="M782.12,-279.54C807.31,-272.57 838.75,-261.26 862.88,-244 916.22,-205.84 969.21,-163.73 928.88,-112 913.45,-92.22 849.92,-79.8 802.91,-73.14"/>
<polygon fill="#63b8ff" stroke="#63b8ff" points="803.53,-69.69 793.15,-71.81 802.59,-76.63 803.53,-69.69"/>
</a>
</g>
</g>
<!-- Node30&#45;&gt;Node19 -->
<g id="edge54_Node000030_Node000019" class="edge">
<title>Node30&#45;&gt;Node19</title>
<g id="a_edge54_Node000030_Node000019"><a xlink:title=" ">
<path fill="none" stroke="#63b8ff" d="M740.81,-279.79C744.73,-259 752.05,-207.18 736.88,-168 723.2,-132.69 691.19,-101.62 669.52,-83.56"/>
<polygon fill="#63b8ff" stroke="#63b8ff" points="671.84,-80.93 661.86,-77.38 667.44,-86.38 671.84,-80.93"/>
</a>
</g>
</g>
<!-- Node30&#45;&gt;Node28 -->
<g id="edge51_Node000030_Node000028" class="edge">
<title>Node30&#45;&gt;Node28</title>
<g id="a_edge51_Node000030_Node000028"><a xlink:title=" ">
<path fill="none" stroke="#63b8ff" d="M767.65,-279.51C803.97,-265.79 864.82,-236.59 890.88,-188 898.14,-174.45 897.67,-156.9 895.64,-143.46"/>
<polygon fill="#63b8ff" stroke="#63b8ff" points="899.15,-143.13 893.81,-133.98 892.27,-144.46 899.15,-143.13"/>
</a>
</g>
</g>
<!-- Node32&#45;&gt;Node33 -->
<g id="edge60_Node000032_Node000033" class="edge">
<title>Node32&#45;&gt;Node33</title>
<g id="a_edge60_Node000032_Node000033"><a xlink:title=" ">
<path fill="none" stroke="#63b8ff" d="M1913.55,-337.02C1910.62,-336.67 1907.71,-336.33 1904.88,-336 1762.53,-319.46 1593.12,-302.32 1518.03,-294.86"/>
<polygon fill="#63b8ff" stroke="#63b8ff" points="1518.61,-291.4 1508.32,-293.9 1517.92,-298.37 1518.61,-291.4"/>
</a>
</g>
</g>
<!-- Node33&#45;&gt;Node9 -->
<g id="edge61_Node000033_Node000009" class="edge">
<title>Node33&#45;&gt;Node9</title>
<g id="a_edge61_Node000033_Node000009"><a xlink:title=" ">
<path fill="none" stroke="#63b8ff" d="M1451.07,-281.75C1408.71,-268.84 1332.88,-237.55 1332.88,-179 1332.88,-179 1332.88,-179 1332.88,-121 1332.88,-20.95 1171.05,-9.97 1098.9,-10.05"/>
<polygon fill="#63b8ff" stroke="#63b8ff" points="1099.21,-6.54 1089.24,-10.13 1099.27,-13.54 1099.21,-6.54"/>
</a>
</g>
</g>
<!-- Node34&#45;&gt;Node33 -->
<g id="edge63_Node000034_Node000033" class="edge">
<title>Node34&#45;&gt;Node33</title>
<g id="a_edge63_Node000034_Node000033"><a xlink:title=" ">
<path fill="none" stroke="#63b8ff" d="M1228.18,-335.53C1288.78,-324.77 1386.26,-307.45 1440.07,-297.89"/>
<polygon fill="#63b8ff" stroke="#63b8ff" points="1440.45,-301.38 1449.69,-296.18 1439.23,-294.49 1440.45,-301.38"/>
</a>
</g>
</g>
<!-- Node35&#45;&gt;Node33 -->
<g id="edge65_Node000035_Node000033" class="edge">
<title>Node35&#45;&gt;Node33</title>
<g id="a_edge65_Node000035_Node000033"><a xlink:title=" ">
<path fill="none" stroke="#63b8ff" d="M1350.05,-335.59C1375.17,-326.9 1412.76,-313.89 1440.85,-304.16"/>
<polygon fill="#63b8ff" stroke="#63b8ff" points="1441.75,-307.55 1450.06,-300.97 1439.46,-300.94 1441.75,-307.55"/>
</a>
</g>
</g>
<!-- Node36&#45;&gt;Node33 -->
<g id="edge67_Node000036_Node000033" class="edge">
<title>Node36&#45;&gt;Node33</title>
<g id="a_edge67_Node000036_Node000033"><a xlink:title=" ">
<path fill="none" stroke="#63b8ff" d="M1478.88,-335.59C1478.88,-329.01 1478.88,-319.96 1478.88,-311.73"/>
<polygon fill="#63b8ff" stroke="#63b8ff" points="1482.38,-311.81 1478.88,-301.81 1475.38,-311.81 1482.38,-311.81"/>
</a>
</g>
</g>
<!-- Node37&#45;&gt;Node33 -->
<g id="edge69_Node000037_Node000033" class="edge">
<title>Node37&#45;&gt;Node33</title>
<g id="a_edge69_Node000037_Node000033"><a xlink:title=" ">
<path fill="none" stroke="#63b8ff" d="M1622.57,-335.59C1593.39,-326.54 1549.14,-312.81 1517.46,-302.98"/>
<polygon fill="#63b8ff" stroke="#63b8ff" points="1518.86,-299.74 1508.27,-300.12 1516.78,-306.43 1518.86,-299.74"/>
</a>
</g>
</g>
<!-- Node38&#45;&gt;Node33 -->
<g id="edge71_Node000038_Node000033" class="edge">
<title>Node38&#45;&gt;Node33</title>
<g id="a_edge71_Node000038_Node000033"><a xlink:title=" ">
<path fill="none" stroke="#63b8ff" d="M1765.86,-335.53C1694.41,-324.44 1578.16,-306.41 1517.89,-297.05"/>
<polygon fill="#63b8ff" stroke="#63b8ff" points="1518.53,-293.61 1508.11,-295.54 1517.45,-300.53 1518.53,-293.61"/>
</a>
</g>
</g>
<!-- Node39&#45;&gt;Node5 -->
<g id="edge75_Node000039_Node000005" class="edge">
<title>Node39&#45;&gt;Node5</title>
<g id="a_edge75_Node000039_Node000005"><a xlink:title=" ">
<path fill="none" stroke="#63b8ff" d="M1053.82,-335.61C1066.73,-327.66 1084.08,-315.15 1094.88,-300 1110.13,-278.59 1109.6,-269.93 1113.88,-244 1120,-206.87 1100.34,-165.68 1086.44,-142.2"/>
<polygon fill="#63b8ff" stroke="#63b8ff" points="1089.45,-140.4 1081.2,-133.75 1083.5,-144.09 1089.45,-140.4"/>
</a>
</g>
</g>
<!-- Node39&#45;&gt;Node14 -->
<g id="edge73_Node000039_Node000014" class="edge">
<title>Node39&#45;&gt;Node14</title>
<g id="a_edge73_Node000039_Node000014"><a xlink:title=" ">
<path fill="none" stroke="#63b8ff" d="M1034.67,-335.6C1028.53,-309.46 1011.15,-235.48 1002.66,-199.36"/>
<polygon fill="#63b8ff" stroke="#63b8ff" points="1006.1,-198.71 1000.41,-189.77 999.29,-200.31 1006.1,-198.71"/>
</a>
</g>
</g>
<!-- Node39&#45;&gt;Node33 -->
<g id="edge76_Node000039_Node000033" class="edge">
<title>Node39&#45;&gt;Node33</title>
<g id="a_edge76_Node000039_Node000033"><a xlink:title=" ">
<path fill="none" stroke="#63b8ff" d="M1096.57,-337.06C1099.38,-336.7 1102.16,-336.34 1104.88,-336 1226.99,-320.57 1371.69,-303.51 1439.77,-295.55"/>
<polygon fill="#63b8ff" stroke="#63b8ff" points="1440.15,-299.03 1449.68,-294.39 1439.34,-292.08 1440.15,-299.03"/>
</a>
</g>
</g>
<!-- Node40 -->
<g id="Node000040" class="node">
<title>Node40</title>
<g id="a_Node000040"><a xlink:title=" ">
<polygon fill="#e0e0e0" stroke="#999999" points="1238,-300 1189.75,-300 1189.75,-280 1238,-280 1238,-300"/>
<text text-anchor="middle" x="1213.88" y="-286.5" font-family="Helvetica,sans-Serif" font-size="10.00">cstddef</text>
</a>
</g>
</g>
<!-- Node39&#45;&gt;Node40 -->
<g id="edge74_Node000039_Node000040" class="edge">
<title>Node39&#45;&gt;Node40</title>
<g id="a_edge74_Node000039_Node000040"><a xlink:title=" ">
<path fill="none" stroke="#63b8ff" d="M1067.71,-335.59C1098.63,-326.16 1146.18,-311.65 1178.59,-301.76"/>
<polygon fill="#63b8ff" stroke="#63b8ff" points="1179.38,-305.18 1187.93,-298.92 1177.34,-298.49 1179.38,-305.18"/>
</a>
</g>
</g>
</g>
</svg>
