<?xml version="1.0" encoding="UTF-8" standalone="no"?>
<!DOCTYPE svg PUBLIC "-//W3C//DTD SVG 1.1//EN"
 "http://www.w3.org/Graphics/SVG/1.1/DTD/svg11.dtd">
<!-- Generated by graphviz version 12.1.0 (20240811.2233)
 -->
<!-- Title: NetworkClient.hpp Pages: 1 -->
<svg width="657pt" height="140pt"
 viewBox="0.00 0.00 657.38 140.00" xmlns="http://www.w3.org/2000/svg" xmlns:xlink="http://www.w3.org/1999/xlink">
<g id="graph0" class="graph" transform="scale(1 1) rotate(0) translate(4 136)">
<title>NetworkClient.hpp</title>
<!-- Node1 -->
<g id="Node000001" class="node">
<title>Node1</title>
<g id="a_Node000001"><a xlink:title=" ">
<polygon fill="#999999" stroke="#666666" points="352.38,-132 255.38,-132 255.38,-112 352.38,-112 352.38,-132"/>
<text text-anchor="middle" x="303.88" y="-118.5" font-family="Helvetica,sans-Serif" font-size="10.00">NetworkClient.hpp</text>
</a>
</g>
</g>
<!-- Node2 -->
<g id="Node000002" class="node">
<title>Node2</title>
<g id="a_Node000002"><a xlink:title=" ">
<polygon fill="#e0e0e0" stroke="#999999" points="79.75,-76 0,-76 0,-56 79.75,-56 79.75,-76"/>
<text text-anchor="middle" x="39.88" y="-62.5" font-family="Helvetica,sans-Serif" font-size="10.00">boost/asio.hpp</text>
</a>
</g>
</g>
<!-- Node1&#45;&gt;Node2 -->
<g id="edge1_Node000001_Node000002" class="edge">
<title>Node1&#45;&gt;Node2</title>
<g id="a_edge1_Node000001_Node000002"><a xlink:title=" ">
<path fill="none" stroke="#63b8ff" d="M257.59,-111.53C211.04,-102.01 139.44,-87.37 91.18,-77.5"/>
<polygon fill="#63b8ff" stroke="#63b8ff" points="92.04,-74.1 81.54,-75.52 90.63,-80.95 92.04,-74.1"/>
</a>
</g>
</g>
<!-- Node3 -->
<g id="Node000003" class="node">
<title>Node3</title>
<g id="a_Node000003"><a xlink:title=" ">
<polygon fill="#e0e0e0" stroke="#999999" points="149.5,-76 98.25,-76 98.25,-56 149.5,-56 149.5,-76"/>
<text text-anchor="middle" x="123.88" y="-62.5" font-family="Helvetica,sans-Serif" font-size="10.00">memory</text>
</a>
</g>
</g>
<!-- Node1&#45;&gt;Node3 -->
<g id="edge2_Node000001_Node000003" class="edge">
<title>Node1&#45;&gt;Node3</title>
<g id="a_edge2_Node000001_Node000003"><a xlink:title=" ">
<path fill="none" stroke="#63b8ff" d="M272.52,-111.59C241.44,-102.27 193.82,-87.98 160.89,-78.11"/>
<polygon fill="#63b8ff" stroke="#63b8ff" points="161.94,-74.77 151.36,-75.25 159.93,-81.47 161.94,-74.77"/>
</a>
</g>
</g>
<!-- Node4 -->
<g id="Node000004" class="node">
<title>Node4</title>
<g id="a_Node000004"><a xlink:title=" ">
<polygon fill="#e0e0e0" stroke="#999999" points="327.88,-20 287.88,-20 287.88,0 327.88,0 327.88,-20"/>
<text text-anchor="middle" x="307.88" y="-6.5" font-family="Helvetica,sans-Serif" font-size="10.00">string</text>
</a>
</g>
</g>
<!-- Node1&#45;&gt;Node4 -->
<g id="edge3_Node000001_Node000004" class="edge">
<title>Node1&#45;&gt;Node4</title>
<g id="a_edge3_Node000001_Node000004"><a xlink:title=" ">
<path fill="none" stroke="#63b8ff" d="M257.9,-111.58C220.97,-101.76 178.11,-83.85 196.88,-56 214.51,-29.83 250.24,-18.87 276.42,-14.29"/>
<polygon fill="#63b8ff" stroke="#63b8ff" points="276.81,-17.77 286.18,-12.82 275.77,-10.85 276.81,-17.77"/>
</a>
</g>
</g>
<!-- Node5 -->
<g id="Node000005" class="node">
<title>Node5</title>
<g id="a_Node000005"><a xlink:title=" ">
<polygon fill="#e0e0e0" stroke="#999999" points="263.88,-76 205.88,-76 205.88,-56 263.88,-56 263.88,-76"/>
<text text-anchor="middle" x="234.88" y="-62.5" font-family="Helvetica,sans-Serif" font-size="10.00">functional</text>
</a>
</g>
</g>
<!-- Node1&#45;&gt;Node5 -->
<g id="edge4_Node000001_Node000005" class="edge">
<title>Node1&#45;&gt;Node5</title>
<g id="a_edge4_Node000001_Node000005"><a xlink:title=" ">
<path fill="none" stroke="#63b8ff" d="M291.86,-111.59C281.86,-103.77 267.41,-92.46 255.57,-83.19"/>
<polygon fill="#63b8ff" stroke="#63b8ff" points="257.98,-80.64 247.95,-77.23 253.67,-86.15 257.98,-80.64"/>
</a>
</g>
</g>
<!-- Node6 -->
<g id="Node000006" class="node">
<title>Node6</title>
<g id="a_Node000006"><a xlink:title=" ">
<polygon fill="#e0e0e0" stroke="#999999" points="325.38,-76 282.38,-76 282.38,-56 325.38,-56 325.38,-76"/>
<text text-anchor="middle" x="303.88" y="-62.5" font-family="Helvetica,sans-Serif" font-size="10.00">thread</text>
</a>
</g>
</g>
<!-- Node1&#45;&gt;Node6 -->
<g id="edge5_Node000001_Node000006" class="edge">
<title>Node1&#45;&gt;Node6</title>
<g id="a_edge5_Node000001_Node000006"><a xlink:title=" ">
<path fill="none" stroke="#63b8ff" d="M303.88,-111.59C303.88,-105.01 303.88,-95.96 303.88,-87.73"/>
<polygon fill="#63b8ff" stroke="#63b8ff" points="307.38,-87.81 303.88,-77.81 300.38,-87.81 307.38,-87.81"/>
</a>
</g>
</g>
<!-- Node7 -->
<g id="Node000007" class="node">
<title>Node7</title>
<g id="a_Node000007"><a xlink:title=" ">
<polygon fill="#e0e0e0" stroke="#999999" points="388.5,-76 343.25,-76 343.25,-56 388.5,-56 388.5,-76"/>
<text text-anchor="middle" x="365.88" y="-62.5" font-family="Helvetica,sans-Serif" font-size="10.00">atomic</text>
</a>
</g>
</g>
<!-- Node1&#45;&gt;Node7 -->
<g id="edge6_Node000001_Node000007" class="edge">
<title>Node1&#45;&gt;Node7</title>
<g id="a_edge6_Node000001_Node000007"><a xlink:title=" ">
<path fill="none" stroke="#63b8ff" d="M314.67,-111.59C323.48,-103.93 336.13,-92.91 346.65,-83.75"/>
<polygon fill="#63b8ff" stroke="#63b8ff" points="348.82,-86.5 354.06,-77.29 344.22,-81.22 348.82,-86.5"/>
</a>
</g>
</g>
<!-- Node8 -->
<g id="Node000008" class="node">
<title>Node8</title>
<g id="a_Node000008"><a xlink:title=" ">
<polygon fill="#e0e0e0" stroke="#999999" points="449,-76 406.75,-76 406.75,-56 449,-56 449,-76"/>
<text text-anchor="middle" x="427.88" y="-62.5" font-family="Helvetica,sans-Serif" font-size="10.00">queue</text>
</a>
</g>
</g>
<!-- Node1&#45;&gt;Node8 -->
<g id="edge7_Node000001_Node000008" class="edge">
<title>Node1&#45;&gt;Node8</title>
<g id="a_edge7_Node000001_Node000008"><a xlink:title=" ">
<path fill="none" stroke="#63b8ff" d="M325.47,-111.59C345.03,-103.08 374.09,-90.42 396.26,-80.77"/>
<polygon fill="#63b8ff" stroke="#63b8ff" points="397.36,-84.1 405.14,-76.9 394.57,-77.69 397.36,-84.1"/>
</a>
</g>
</g>
<!-- Node9 -->
<g id="Node000009" class="node">
<title>Node9</title>
<g id="a_Node000009"><a xlink:title=" ">
<polygon fill="#e0e0e0" stroke="#999999" points="510.38,-76 467.38,-76 467.38,-56 510.38,-56 510.38,-76"/>
<text text-anchor="middle" x="488.88" y="-62.5" font-family="Helvetica,sans-Serif" font-size="10.00">mutex</text>
</a>
</g>
</g>
<!-- Node1&#45;&gt;Node9 -->
<g id="edge8_Node000001_Node000009" class="edge">
<title>Node1&#45;&gt;Node9</title>
<g id="a_edge8_Node000001_Node000009"><a xlink:title=" ">
<path fill="none" stroke="#63b8ff" d="M336.1,-111.59C369.86,-101.74 422.6,-86.35 456.44,-76.47"/>
<polygon fill="#63b8ff" stroke="#63b8ff" points="457.07,-79.93 465.68,-73.77 455.1,-73.21 457.07,-79.93"/>
</a>
</g>
</g>
<!-- Node10 -->
<g id="Node000010" class="node">
<title>Node10</title>
<g id="a_Node000010"><a xlink:href="Client_2include_2net_2Protocol_8hpp.html" target="_top" xlink:title=" ">
<polygon fill="white" stroke="#666666" points="599.25,-76 528.5,-76 528.5,-56 599.25,-56 599.25,-76"/>
<text text-anchor="middle" x="563.88" y="-62.5" font-family="Helvetica,sans-Serif" font-size="10.00">Protocol.hpp</text>
</a>
</g>
</g>
<!-- Node1&#45;&gt;Node10 -->
<g id="edge9_Node000001_Node000010" class="edge">
<title>Node1&#45;&gt;Node10</title>
<g id="a_edge9_Node000001_Node000010"><a xlink:title=" ">
<path fill="none" stroke="#63b8ff" d="M349.46,-111.53C396.55,-101.75 469.68,-86.56 517.17,-76.7"/>
<polygon fill="#63b8ff" stroke="#63b8ff" points="517.81,-80.14 526.89,-74.68 516.39,-73.29 517.81,-80.14"/>
</a>
</g>
</g>
<!-- Node10&#45;&gt;Node4 -->
<g id="edge13_Node000010_Node000004" class="edge">
<title>Node10&#45;&gt;Node4</title>
<g id="a_edge13_Node000010_Node000004"><a xlink:title=" ">
<path fill="none" stroke="#63b8ff" d="M528.01,-57.43C477.77,-46.84 387.26,-27.75 339.45,-17.66"/>
<polygon fill="#63b8ff" stroke="#63b8ff" points="340.25,-14.25 329.74,-15.61 338.81,-21.1 340.25,-14.25"/>
</a>
</g>
</g>
<!-- Node11 -->
<g id="Node000011" class="node">
<title>Node11</title>
<g id="a_Node000011"><a xlink:title=" ">
<polygon fill="#e0e0e0" stroke="#999999" points="521.5,-20 476.25,-20 476.25,0 521.5,0 521.5,-20"/>
<text text-anchor="middle" x="498.88" y="-6.5" font-family="Helvetica,sans-Serif" font-size="10.00">cstdint</text>
</a>
</g>
</g>
<!-- Node10&#45;&gt;Node11 -->
<g id="edge10_Node000010_Node000011" class="edge">
<title>Node10&#45;&gt;Node11</title>
<g id="a_edge10_Node000010_Node000011"><a xlink:title=" ">
<path fill="none" stroke="#63b8ff" d="M552.55,-55.59C543.23,-47.85 529.8,-36.69 518.7,-27.47"/>
<polygon fill="#63b8ff" stroke="#63b8ff" points="521.16,-24.96 511.23,-21.27 516.69,-30.35 521.16,-24.96"/>
</a>
</g>
</g>
<!-- Node12 -->
<g id="Node000012" class="node">
<title>Node12</title>
<g id="a_Node000012"><a xlink:title=" ">
<polygon fill="#e0e0e0" stroke="#999999" points="588,-20 539.75,-20 539.75,0 588,0 588,-20"/>
<text text-anchor="middle" x="563.88" y="-6.5" font-family="Helvetica,sans-Serif" font-size="10.00">cstddef</text>
</a>
</g>
</g>
<!-- Node10&#45;&gt;Node12 -->
<g id="edge11_Node000010_Node000012" class="edge">
<title>Node10&#45;&gt;Node12</title>
<g id="a_edge11_Node000010_Node000012"><a xlink:title=" ">
<path fill="none" stroke="#63b8ff" d="M563.88,-55.59C563.88,-49.01 563.88,-39.96 563.88,-31.73"/>
<polygon fill="#63b8ff" stroke="#63b8ff" points="567.38,-31.81 563.88,-21.81 560.38,-31.81 567.38,-31.81"/>
</a>
</g>
</g>
<!-- Node13 -->
<g id="Node000013" class="node">
<title>Node13</title>
<g id="a_Node000013"><a xlink:title=" ">
<polygon fill="#e0e0e0" stroke="#999999" points="649.38,-20 606.38,-20 606.38,0 649.38,0 649.38,-20"/>
<text text-anchor="middle" x="627.88" y="-6.5" font-family="Helvetica,sans-Serif" font-size="10.00">vector</text>
</a>
</g>
</g>
<!-- Node10&#45;&gt;Node13 -->
<g id="edge12_Node000010_Node000013" class="edge">
<title>Node10&#45;&gt;Node13</title>
<g id="a_edge12_Node000010_Node000013"><a xlink:title=" ">
<path fill="none" stroke="#63b8ff" d="M575.02,-55.59C584.2,-47.85 597.43,-36.69 608.36,-27.47"/>
<polygon fill="#63b8ff" stroke="#63b8ff" points="610.31,-30.4 615.7,-21.27 605.8,-25.05 610.31,-30.4"/>
</a>
</g>
</g>
</g>
</svg>
