<?xml version="1.0" encoding="UTF-8" standalone="no"?>
<!DOCTYPE svg PUBLIC "-//W3C//DTD SVG 1.1//EN"
 "http://www.w3.org/Graphics/SVG/1.1/DTD/svg11.dtd">
<!-- Generated by graphviz version 12.1.0 (20240811.2233)
 -->
<!-- Title: NetworkManager.hpp Pages: 1 -->
<svg width="839pt" height="252pt"
 viewBox="0.00 0.00 838.70 252.00" xmlns="http://www.w3.org/2000/svg" xmlns:xlink="http://www.w3.org/1999/xlink">
<g id="graph0" class="graph" transform="scale(1 1) rotate(0) translate(4 248)">
<title>NetworkManager.hpp</title>
<!-- Node1 -->
<g id="Node000001" class="node">
<title>Node1</title>
<g id="a_Node000001"><a xlink:title=" ">
<polygon fill="#999999" stroke="#666666" points="430.7,-244 321.7,-244 321.7,-224 430.7,-224 430.7,-244"/>
<text text-anchor="middle" x="376.2" y="-230.5" font-family="Helvetica,sans-Serif" font-size="10.00">NetworkManager.hpp</text>
</a>
</g>
</g>
<!-- Node2 -->
<g id="Node000002" class="node">
<title>Node2</title>
<g id="a_Node000002"><a xlink:href="Collision_8hpp.html" target="_top" xlink:title=" ">
<polygon fill="white" stroke="#666666" points="265.33,-188 193.08,-188 193.08,-168 265.33,-168 265.33,-188"/>
<text text-anchor="middle" x="229.2" y="-174.5" font-family="Helvetica,sans-Serif" font-size="10.00">Collision.hpp</text>
</a>
</g>
</g>
<!-- Node1&#45;&gt;Node2 -->
<g id="edge1_Node000001_Node000002" class="edge">
<title>Node1&#45;&gt;Node2</title>
<g id="a_edge1_Node000001_Node000002"><a xlink:title=" ">
<path fill="none" stroke="#63b8ff" d="M339.89,-219.66C313.54,-209.98 278.54,-197.12 255.01,-188.48"/>
<polygon fill="#63b8ff" stroke="#63b8ff" points="338.58,-222.91 349.17,-223.07 340.99,-216.34 338.58,-222.91"/>
</a>
</g>
</g>
<!-- Node4 -->
<g id="Node000004" class="node">
<title>Node4</title>
<g id="a_Node000004"><a xlink:href="GameTypes_8hpp.html" target="_top" xlink:title=" ">
<polygon fill="white" stroke="#666666" points="458.83,-76 371.58,-76 371.58,-56 458.83,-56 458.83,-76"/>
<text text-anchor="middle" x="415.2" y="-62.5" font-family="Helvetica,sans-Serif" font-size="10.00">GameTypes.hpp</text>
</a>
</g>
</g>
<!-- Node1&#45;&gt;Node4 -->
<g id="edge16_Node000001_Node000004" class="edge">
<title>Node1&#45;&gt;Node4</title>
<g id="a_edge16_Node000001_Node000004"><a xlink:title=" ">
<path fill="none" stroke="#63b8ff" d="M382.51,-212.65C388.64,-192.36 397.91,-160.24 404.2,-132 408.58,-112.34 412.14,-88.99 413.93,-76.32"/>
<polygon fill="#63b8ff" stroke="#63b8ff" points="379.17,-211.58 379.59,-222.17 385.87,-213.63 379.17,-211.58"/>
</a>
</g>
</g>
<!-- Node6 -->
<g id="Node000006" class="node">
<title>Node6</title>
<g id="a_Node000006"><a xlink:href="Server_8hpp.html" target="_top" xlink:title=" ">
<polygon fill="white" stroke="#666666" points="157.83,-132 94.58,-132 94.58,-112 157.83,-112 157.83,-132"/>
<text text-anchor="middle" x="126.2" y="-118.5" font-family="Helvetica,sans-Serif" font-size="10.00">Server.hpp</text>
</a>
</g>
</g>
<!-- Node1&#45;&gt;Node6 -->
<g id="edge36_Node000001_Node000006" class="edge">
<title>Node1&#45;&gt;Node6</title>
<g id="a_edge36_Node000001_Node000006"><a xlink:title=" ">
<path fill="none" stroke="#63b8ff" d="M310.39,-227.57C271.49,-222.01 222.51,-210.77 184.2,-188 160.28,-173.78 140.78,-146.42 131.71,-132.16"/>
<polygon fill="#63b8ff" stroke="#63b8ff" points="309.72,-231.01 320.1,-228.86 310.64,-224.08 309.72,-231.01"/>
</a>
</g>
</g>
<!-- Node7 -->
<g id="Node000007" class="node">
<title>Node7</title>
<g id="a_Node000007"><a xlink:href="Server_8cpp.html" target="_top" xlink:title=" ">
<polygon fill="white" stroke="#666666" points="81.83,-76 18.58,-76 18.58,-56 81.83,-56 81.83,-76"/>
<text text-anchor="middle" x="50.2" y="-62.5" font-family="Helvetica,sans-Serif" font-size="10.00">Server.cpp</text>
</a>
</g>
</g>
<!-- Node1&#45;&gt;Node7 -->
<g id="edge35_Node000001_Node000007" class="edge">
<title>Node1&#45;&gt;Node7</title>
<g id="a_edge35_Node000001_Node000007"><a xlink:title=" ">
<path fill="none" stroke="#63b8ff" d="M310.14,-233.67C224.79,-232.95 83.22,-225.89 50.2,-188 22.18,-155.85 38.6,-98.6 46.6,-76.28"/>
<polygon fill="#63b8ff" stroke="#63b8ff" points="310.01,-237.17 320.03,-233.72 310.04,-230.17 310.01,-237.17"/>
</a>
</g>
</g>
<!-- Node9 -->
<g id="Node000009" class="node">
<title>Node9</title>
<g id="a_Node000009"><a xlink:href="DevConsole_8hpp.html" target="_top" xlink:title=" ">
<polygon fill="white" stroke="#666666" points="562.58,-132 473.83,-132 473.83,-112 562.58,-112 562.58,-132"/>
<text text-anchor="middle" x="518.2" y="-118.5" font-family="Helvetica,sans-Serif" font-size="10.00">DevConsole.hpp</text>
</a>
</g>
</g>
<!-- Node1&#45;&gt;Node9 -->
<g id="edge9_Node000001_Node000009" class="edge">
<title>Node1&#45;&gt;Node9</title>
<g id="a_edge9_Node000001_Node000009"><a xlink:title=" ">
<path fill="none" stroke="#63b8ff" d="M442.26,-225.24C488.24,-218.33 543.79,-206.41 558.2,-188 572.66,-169.53 548,-145.53 531.41,-132.47"/>
<polygon fill="#63b8ff" stroke="#63b8ff" points="442.01,-221.74 432.61,-226.64 443.01,-228.67 442.01,-221.74"/>
</a>
</g>
</g>
<!-- Node10 -->
<g id="Node000010" class="node">
<title>Node10</title>
<g id="a_Node000010"><a xlink:href="Enemy_8hpp.html" target="_top" xlink:title=" ">
<polygon fill="white" stroke="#666666" points="123.58,-188 58.83,-188 58.83,-168 123.58,-168 123.58,-188"/>
<text text-anchor="middle" x="91.2" y="-174.5" font-family="Helvetica,sans-Serif" font-size="10.00">Enemy.hpp</text>
</a>
</g>
</g>
<!-- Node1&#45;&gt;Node10 -->
<g id="edge12_Node000001_Node000010" class="edge">
<title>Node1&#45;&gt;Node10</title>
<g id="a_edge12_Node000001_Node000010"><a xlink:title=" ">
<path fill="none" stroke="#63b8ff" d="M315.27,-221.45C256.67,-210.35 170.33,-193.99 123.79,-185.17"/>
<polygon fill="#63b8ff" stroke="#63b8ff" points="314.27,-224.83 324.74,-223.25 315.57,-217.95 314.27,-224.83"/>
</a>
</g>
</g>
<!-- Node11 -->
<g id="Node000011" class="node">
<title>Node11</title>
<g id="a_Node000011"><a xlink:href="NetworkManager_8cpp.html" target="_top" xlink:title=" ">
<polygon fill="white" stroke="#666666" points="548.7,-188 439.7,-188 439.7,-168 548.7,-168 548.7,-188"/>
<text text-anchor="middle" x="494.2" y="-174.5" font-family="Helvetica,sans-Serif" font-size="10.00">NetworkManager.cpp</text>
</a>
</g>
</g>
<!-- Node1&#45;&gt;Node11 -->
<g id="edge17_Node000001_Node000011" class="edge">
<title>Node1&#45;&gt;Node11</title>
<g id="a_edge17_Node000001_Node000011"><a xlink:title=" ">
<path fill="none" stroke="#63b8ff" d="M407.06,-218.88C428,-209.3 455.1,-196.89 473.49,-188.48"/>
<polygon fill="#63b8ff" stroke="#63b8ff" points="405.77,-215.62 398.13,-222.96 408.68,-221.99 405.77,-215.62"/>
</a>
</g>
</g>
<!-- Node12 -->
<g id="Node000012" class="node">
<title>Node12</title>
<g id="a_Node000012"><a xlink:href="PlayerControl_8hpp.html" target="_top" xlink:title=" ">
<polygon fill="white" stroke="#666666" points="379.2,-188 285.2,-188 285.2,-168 379.2,-168 379.2,-188"/>
<text text-anchor="middle" x="332.2" y="-174.5" font-family="Helvetica,sans-Serif" font-size="10.00">PlayerControl.hpp</text>
</a>
</g>
</g>
<!-- Node1&#45;&gt;Node12 -->
<g id="edge18_Node000001_Node000012" class="edge">
<title>Node1&#45;&gt;Node12</title>
<g id="a_edge18_Node000001_Node000012"><a xlink:title=" ">
<path fill="none" stroke="#63b8ff" d="M361.31,-214.72C354.07,-205.84 345.68,-195.55 339.78,-188.3"/>
<polygon fill="#63b8ff" stroke="#63b8ff" points="358.55,-216.88 367.58,-222.42 363.98,-212.46 358.55,-216.88"/>
</a>
</g>
</g>
<!-- Node14 -->
<g id="Node000014" class="node">
<title>Node14</title>
<g id="a_Node000014"><a xlink:href="Renderer_8hpp.html" target="_top" xlink:title=" ">
<polygon fill="white" stroke="#666666" points="682.45,-188 607.95,-188 607.95,-168 682.45,-168 682.45,-188"/>
<text text-anchor="middle" x="645.2" y="-174.5" font-family="Helvetica,sans-Serif" font-size="10.00">Renderer.hpp</text>
</a>
</g>
</g>
<!-- Node1&#45;&gt;Node14 -->
<g id="edge25_Node000001_Node000014" class="edge">
<title>Node1&#45;&gt;Node14</title>
<g id="a_edge25_Node000001_Node000014"><a xlink:title=" ">
<path fill="none" stroke="#63b8ff" d="M434.53,-221.29C487.07,-210.74 562.73,-195.55 607.64,-186.54"/>
<polygon fill="#63b8ff" stroke="#63b8ff" points="433.96,-217.83 424.85,-223.23 435.34,-224.7 433.96,-217.83"/>
</a>
</g>
</g>
<!-- Node17 -->
<g id="Node000017" class="node">
<title>Node17</title>
<g id="a_Node000017"><a xlink:href="Renderers_2SFML_2SFML_8cpp.html" target="_top" xlink:title=" ">
<polygon fill="white" stroke="#666666" points="830.7,-76 769.7,-76 769.7,-56 830.7,-56 830.7,-76"/>
<text text-anchor="middle" x="800.2" y="-62.5" font-family="Helvetica,sans-Serif" font-size="10.00">SFML.cpp</text>
</a>
</g>
</g>
<!-- Node1&#45;&gt;Node17 -->
<g id="edge34_Node000001_Node000017" class="edge">
<title>Node1&#45;&gt;Node17</title>
<g id="a_edge34_Node000001_Node000017"><a xlink:title=" ">
<path fill="none" stroke="#63b8ff" d="M442.26,-229.23C506.84,-224.24 607.41,-212.94 691.2,-188 747.61,-171.21 779.59,-181.64 811.2,-132 822.27,-114.62 812.33,-89.55 805.46,-76.19"/>
<polygon fill="#63b8ff" stroke="#63b8ff" points="442.25,-225.73 432.54,-229.96 442.77,-232.71 442.25,-225.73"/>
</a>
</g>
</g>
<!-- Node3 -->
<g id="Node000003" class="node">
<title>Node3</title>
<g id="a_Node000003"><a xlink:href="GameTypes_8cpp.html" target="_top" xlink:title=" ">
<polygon fill="white" stroke="#666666" points="375.83,-20 288.58,-20 288.58,0 375.83,0 375.83,-20"/>
<text text-anchor="middle" x="332.2" y="-6.5" font-family="Helvetica,sans-Serif" font-size="10.00">GameTypes.cpp</text>
</a>
</g>
</g>
<!-- Node2&#45;&gt;Node3 -->
<g id="edge2_Node000002_Node000003" class="edge">
<title>Node2&#45;&gt;Node3</title>
<g id="a_edge2_Node000002_Node000003"><a xlink:title=" ">
<path fill="none" stroke="#63b8ff" d="M214.42,-158.47C205.78,-145.25 197.87,-127.2 205.2,-112 227.17,-66.46 280.77,-35.12 310.84,-20.47"/>
<polygon fill="#63b8ff" stroke="#63b8ff" points="211.37,-160.22 220.05,-166.28 217.05,-156.12 211.37,-160.22"/>
</a>
</g>
</g>
<!-- Node2&#45;&gt;Node4 -->
<g id="edge3_Node000002_Node000004" class="edge">
<title>Node2&#45;&gt;Node4</title>
<g id="a_edge3_Node000002_Node000004"><a xlink:title=" ">
<path fill="none" stroke="#63b8ff" d="M257.82,-162.35C274.2,-153.8 295.05,-142.63 313.2,-132 345.28,-113.22 381.76,-89.34 401.22,-76.39"/>
<polygon fill="#63b8ff" stroke="#63b8ff" points="256.38,-159.16 249.12,-166.87 259.61,-165.37 256.38,-159.16"/>
</a>
</g>
</g>
<!-- Node2&#45;&gt;Node6 -->
<g id="edge6_Node000002_Node000006" class="edge">
<title>Node2&#45;&gt;Node6</title>
<g id="a_edge6_Node000002_Node000006"><a xlink:title=" ">
<path fill="none" stroke="#63b8ff" d="M201.25,-162.35C183.12,-152.84 160.03,-140.74 144.28,-132.48"/>
<polygon fill="#63b8ff" stroke="#63b8ff" points="199.44,-165.35 209.92,-166.89 202.69,-159.15 199.44,-165.35"/>
</a>
</g>
</g>
<!-- Node4&#45;&gt;Node3 -->
<g id="edge4_Node000004_Node000003" class="edge">
<title>Node4&#45;&gt;Node3</title>
<g id="a_edge4_Node000004_Node000003"><a xlink:title=" ">
<path fill="none" stroke="#63b8ff" d="M391.44,-49.54C377.03,-40.17 359.11,-28.51 346.77,-20.48"/>
<polygon fill="#63b8ff" stroke="#63b8ff" points="389.18,-52.25 399.47,-54.77 393,-46.38 389.18,-52.25"/>
</a>
</g>
</g>
<!-- Node5 -->
<g id="Node000005" class="node">
<title>Node5</title>
<g id="a_Node000005"><a xlink:href="Client_2src_2main_8cpp.html" target="_top" xlink:title=" ">
<polygon fill="white" stroke="#666666" points="450.08,-20 394.33,-20 394.33,0 450.08,0 450.08,-20"/>
<text text-anchor="middle" x="422.2" y="-6.5" font-family="Helvetica,sans-Serif" font-size="10.00">main.cpp</text>
</a>
</g>
</g>
<!-- Node4&#45;&gt;Node5 -->
<g id="edge5_Node000004_Node000005" class="edge">
<title>Node4&#45;&gt;Node5</title>
<g id="a_edge5_Node000004_Node000005"><a xlink:title=" ">
<path fill="none" stroke="#63b8ff" d="M417.87,-44.43C418.95,-36.11 420.14,-26.93 421,-20.3"/>
<polygon fill="#63b8ff" stroke="#63b8ff" points="414.43,-43.73 416.61,-54.09 421.37,-44.63 414.43,-43.73"/>
</a>
</g>
</g>
<!-- Node6&#45;&gt;Node7 -->
<g id="edge7_Node000006_Node000007" class="edge">
<title>Node6&#45;&gt;Node7</title>
<g id="a_edge7_Node000006_Node000007"><a xlink:title=" ">
<path fill="none" stroke="#63b8ff" d="M103.68,-105C90.62,-95.72 74.62,-84.35 63.54,-76.48"/>
<polygon fill="#63b8ff" stroke="#63b8ff" points="101.55,-107.78 111.73,-110.72 105.6,-102.07 101.55,-107.78"/>
</a>
</g>
</g>
<!-- Node8 -->
<g id="Node000008" class="node">
<title>Node8</title>
<g id="a_Node000008"><a xlink:href="Server_2src_2main_8cpp.html" target="_top" xlink:title=" ">
<polygon fill="white" stroke="#666666" points="156.08,-76 100.33,-76 100.33,-56 156.08,-56 156.08,-76"/>
<text text-anchor="middle" x="128.2" y="-62.5" font-family="Helvetica,sans-Serif" font-size="10.00">main.cpp</text>
</a>
</g>
</g>
<!-- Node6&#45;&gt;Node8 -->
<g id="edge8_Node000006_Node000008" class="edge">
<title>Node6&#45;&gt;Node8</title>
<g id="a_edge8_Node000006_Node000008"><a xlink:title=" ">
<path fill="none" stroke="#63b8ff" d="M126.97,-100.13C127.28,-91.9 127.61,-82.85 127.86,-76.3"/>
<polygon fill="#63b8ff" stroke="#63b8ff" points="123.48,-99.96 126.6,-110.08 130.47,-100.22 123.48,-99.96"/>
</a>
</g>
</g>
<!-- Node9&#45;&gt;Node3 -->
<g id="edge10_Node000009_Node000003" class="edge">
<title>Node9&#45;&gt;Node3</title>
<g id="a_edge10_Node000009_Node000003"><a xlink:title=" ">
<path fill="none" stroke="#63b8ff" d="M507.65,-101.69C498.85,-87.22 485.04,-67.95 468.2,-56 440.82,-36.57 404.5,-25.11 376.28,-18.63"/>
<polygon fill="#63b8ff" stroke="#63b8ff" points="504.59,-103.38 512.62,-110.3 510.65,-99.88 504.59,-103.38"/>
</a>
</g>
</g>
<!-- Node9&#45;&gt;Node4 -->
<g id="edge11_Node000009_Node000004" class="edge">
<title>Node9&#45;&gt;Node4</title>
<g id="a_edge11_Node000009_Node000004"><a xlink:title=" ">
<path fill="none" stroke="#63b8ff" d="M490.25,-106.35C472.12,-96.84 449.03,-84.74 433.28,-76.48"/>
<polygon fill="#63b8ff" stroke="#63b8ff" points="488.44,-109.35 498.92,-110.89 491.69,-103.15 488.44,-109.35"/>
</a>
</g>
</g>
<!-- Node10&#45;&gt;Node3 -->
<g id="edge13_Node000010_Node000003" class="edge">
<title>Node10&#45;&gt;Node3</title>
<g id="a_edge13_Node000010_Node000003"><a xlink:title=" ">
<path fill="none" stroke="#63b8ff" d="M67.02,-161.26C33.14,-137.31 -21.13,-90.84 9.2,-56 44.84,-15.05 208.3,-10.2 288.11,-10.34"/>
<polygon fill="#63b8ff" stroke="#63b8ff" points="64.89,-164.04 75.11,-166.8 68.84,-158.26 64.89,-164.04"/>
</a>
</g>
</g>
<!-- Node10&#45;&gt;Node4 -->
<g id="edge14_Node000010_Node000004" class="edge">
<title>Node10&#45;&gt;Node4</title>
<g id="a_edge14_Node000010_Node000004"><a xlink:title=" ">
<path fill="none" stroke="#63b8ff" d="M82.41,-157.08C77.63,-142.85 74.6,-124.14 85.2,-112 121.8,-70.07 289.95,-65.76 371.12,-66.19"/>
<polygon fill="#63b8ff" stroke="#63b8ff" points="79.13,-158.3 86.03,-166.33 85.65,-155.74 79.13,-158.3"/>
</a>
</g>
</g>
<!-- Node10&#45;&gt;Node6 -->
<g id="edge15_Node000010_Node000006" class="edge">
<title>Node10&#45;&gt;Node6</title>
<g id="a_edge15_Node000010_Node000006"><a xlink:title=" ">
<path fill="none" stroke="#63b8ff" d="M103.42,-158.15C109.09,-149.4 115.58,-139.39 120.17,-132.3"/>
<polygon fill="#63b8ff" stroke="#63b8ff" points="100.62,-156.03 98.12,-166.32 106.5,-159.84 100.62,-156.03"/>
</a>
</g>
</g>
<!-- Node12&#45;&gt;Node3 -->
<g id="edge19_Node000012_Node000003" class="edge">
<title>Node12&#45;&gt;Node3</title>
<g id="a_edge19_Node000012_Node000003"><a xlink:title=" ">
<path fill="none" stroke="#63b8ff" d="M332.2,-156.5C332.2,-120.27 332.2,-46.31 332.2,-20.3"/>
<polygon fill="#63b8ff" stroke="#63b8ff" points="328.7,-156.09 332.2,-166.09 335.7,-156.09 328.7,-156.09"/>
</a>
</g>
</g>
<!-- Node12&#45;&gt;Node4 -->
<g id="edge20_Node000012_Node000004" class="edge">
<title>Node12&#45;&gt;Node4</title>
<g id="a_edge20_Node000012_Node000004"><a xlink:title=" ">
<path fill="none" stroke="#63b8ff" d="M354.92,-160.75C364.8,-152.87 375.97,-142.79 384.2,-132 397.69,-114.3 407.41,-89.79 412.08,-76.5"/>
<polygon fill="#63b8ff" stroke="#63b8ff" points="353.01,-157.8 347.18,-166.65 357.26,-163.37 353.01,-157.8"/>
</a>
</g>
</g>
<!-- Node12&#45;&gt;Node6 -->
<g id="edge21_Node000012_Node000006" class="edge">
<title>Node12&#45;&gt;Node6</title>
<g id="a_edge21_Node000012_Node000006"><a xlink:title=" ">
<path fill="none" stroke="#63b8ff" d="M285.3,-164.71C246.47,-154.53 192.34,-140.34 158.29,-131.41"/>
<polygon fill="#63b8ff" stroke="#63b8ff" points="284.29,-168.06 294.85,-167.21 286.07,-161.29 284.29,-168.06"/>
</a>
</g>
</g>
<!-- Node13 -->
<g id="Node000013" class="node">
<title>Node13</title>
<g id="a_Node000013"><a xlink:href="SoundPlayer_8hpp.html" target="_top" xlink:title=" ">
<polygon fill="white" stroke="#666666" points="304.33,-132 214.08,-132 214.08,-112 304.33,-112 304.33,-132"/>
<text text-anchor="middle" x="259.2" y="-118.5" font-family="Helvetica,sans-Serif" font-size="10.00">SoundPlayer.hpp</text>
</a>
</g>
</g>
<!-- Node12&#45;&gt;Node13 -->
<g id="edge22_Node000012_Node000013" class="edge">
<title>Node12&#45;&gt;Node13</title>
<g id="a_edge22_Node000012_Node000013"><a xlink:title=" ">
<path fill="none" stroke="#63b8ff" d="M310.51,-160.95C297.88,-151.61 282.4,-140.16 271.77,-132.3"/>
<polygon fill="#63b8ff" stroke="#63b8ff" points="308.15,-163.56 318.27,-166.69 312.31,-157.93 308.15,-163.56"/>
</a>
</g>
</g>
<!-- Node13&#45;&gt;Node3 -->
<g id="edge23_Node000013_Node000003" class="edge">
<title>Node13&#45;&gt;Node3</title>
<g id="a_edge23_Node000013_Node000003"><a xlink:title=" ">
<path fill="none" stroke="#63b8ff" d="M271.63,-102.27C287.4,-78.5 313.99,-38.44 325.99,-20.35"/>
<polygon fill="#63b8ff" stroke="#63b8ff" points="268.87,-100.09 266.26,-110.36 274.71,-103.96 268.87,-100.09"/>
</a>
</g>
</g>
<!-- Node13&#45;&gt;Node4 -->
<g id="edge24_Node000013_Node000004" class="edge">
<title>Node13&#45;&gt;Node4</title>
<g id="a_edge24_Node000013_Node000004"><a xlink:title=" ">
<path fill="none" stroke="#63b8ff" d="M296.99,-107.92C325.03,-98.21 362.62,-85.2 387.82,-76.48"/>
<polygon fill="#63b8ff" stroke="#63b8ff" points="296.11,-104.52 287.8,-111.1 298.4,-111.14 296.11,-104.52"/>
</a>
</g>
</g>
<!-- Node14&#45;&gt;Node3 -->
<g id="edge27_Node000014_Node000003" class="edge">
<title>Node14&#45;&gt;Node3</title>
<g id="a_edge27_Node000014_Node000003"><a xlink:title=" ">
<path fill="none" stroke="#63b8ff" d="M670.16,-161C687.38,-147.92 705.19,-128.89 693.2,-112 649.61,-50.55 605.64,-76.71 533.2,-56 479.74,-40.72 417.06,-27.4 376.09,-19.29"/>
<polygon fill="#63b8ff" stroke="#63b8ff" points="668.21,-158.09 662.08,-166.73 672.26,-163.8 668.21,-158.09"/>
</a>
</g>
</g>
<!-- Node14&#45;&gt;Node4 -->
<g id="edge28_Node000014_Node000004" class="edge">
<title>Node14&#45;&gt;Node4</title>
<g id="a_edge28_Node000014_Node000004"><a xlink:title=" ">
<path fill="none" stroke="#63b8ff" d="M629.42,-159.34C615.45,-144.71 593.81,-124.37 571.2,-112 535.97,-92.71 491.62,-80.96 459.23,-74.32"/>
<polygon fill="#63b8ff" stroke="#63b8ff" points="626.67,-161.53 636.04,-166.48 631.81,-156.77 626.67,-161.53"/>
</a>
</g>
</g>
<!-- Node14&#45;&gt;Node9 -->
<g id="edge26_Node000014_Node000009" class="edge">
<title>Node14&#45;&gt;Node9</title>
<g id="a_edge26_Node000014_Node000009"><a xlink:title=" ">
<path fill="none" stroke="#63b8ff" d="M612.6,-163.14C589.99,-153.52 560.46,-140.97 540.49,-132.48"/>
<polygon fill="#63b8ff" stroke="#63b8ff" points="611.11,-166.31 621.69,-167 613.85,-159.87 611.11,-166.31"/>
</a>
</g>
</g>
<!-- Node15 -->
<g id="Node000015" class="node">
<title>Node15</title>
<g id="a_Node000015"><a xlink:href="Render_8hpp.html" target="_top" xlink:title=" ">
<polygon fill="white" stroke="#666666" points="684.33,-132 618.08,-132 618.08,-112 684.33,-112 684.33,-132"/>
<text text-anchor="middle" x="651.2" y="-118.5" font-family="Helvetica,sans-Serif" font-size="10.00">Render.hpp</text>
</a>
</g>
</g>
<!-- Node14&#45;&gt;Node15 -->
<g id="edge29_Node000014_Node000015" class="edge">
<title>Node14&#45;&gt;Node15</title>
<g id="a_edge29_Node000014_Node000015"><a xlink:title=" ">
<path fill="none" stroke="#63b8ff" d="M647.49,-156.43C648.41,-148.11 649.43,-138.93 650.17,-132.3"/>
<polygon fill="#63b8ff" stroke="#63b8ff" points="644.04,-155.76 646.41,-166.09 651,-156.54 644.04,-155.76"/>
</a>
</g>
</g>
<!-- Node16 -->
<g id="Node000016" class="node">
<title>Node16</title>
<g id="a_Node000016"><a xlink:href="Renderers_2SFML_2SFML_8hpp.html" target="_top" xlink:title=" ">
<polygon fill="white" stroke="#666666" points="801.7,-132 740.7,-132 740.7,-112 801.7,-112 801.7,-132"/>
<text text-anchor="middle" x="771.2" y="-118.5" font-family="Helvetica,sans-Serif" font-size="10.00">SFML.hpp</text>
</a>
</g>
</g>
<!-- Node14&#45;&gt;Node16 -->
<g id="edge32_Node000014_Node000016" class="edge">
<title>Node14&#45;&gt;Node16</title>
<g id="a_edge32_Node000014_Node000016"><a xlink:title=" ">
<path fill="none" stroke="#63b8ff" d="M677.54,-163.14C699.98,-153.52 729.27,-140.97 749.08,-132.48"/>
<polygon fill="#63b8ff" stroke="#63b8ff" points="676.35,-159.84 668.54,-167 679.11,-166.28 676.35,-159.84"/>
</a>
</g>
</g>
<!-- Node15&#45;&gt;Node3 -->
<g id="edge30_Node000015_Node000003" class="edge">
<title>Node15&#45;&gt;Node3</title>
<g id="a_edge30_Node000015_Node000003"><a xlink:title=" ">
<path fill="none" stroke="#63b8ff" d="M620.21,-106.98C588.65,-93 538.11,-71.45 493.2,-56 452.04,-41.83 403.84,-28.82 370.98,-20.47"/>
<polygon fill="#63b8ff" stroke="#63b8ff" points="618.6,-110.09 629.16,-110.97 621.45,-103.7 618.6,-110.09"/>
</a>
</g>
</g>
<!-- Node15&#45;&gt;Node4 -->
<g id="edge31_Node000015_Node000004" class="edge">
<title>Node15&#45;&gt;Node4</title>
<g id="a_edge31_Node000015_Node000004"><a xlink:title=" ">
<path fill="none" stroke="#63b8ff" d="M606.63,-110.8C563.49,-100.93 498.62,-86.09 456.59,-76.47"/>
<polygon fill="#63b8ff" stroke="#63b8ff" points="605.63,-114.16 616.16,-112.98 607.2,-107.34 605.63,-114.16"/>
</a>
</g>
</g>
<!-- Node16&#45;&gt;Node17 -->
<g id="edge33_Node000016_Node000017" class="edge">
<title>Node16&#45;&gt;Node17</title>
<g id="a_edge33_Node000016_Node000017"><a xlink:title=" ">
<path fill="none" stroke="#63b8ff" d="M781.63,-101.58C786.25,-92.97 791.48,-83.24 795.21,-76.3"/>
<polygon fill="#63b8ff" stroke="#63b8ff" points="778.62,-99.79 776.97,-110.26 784.78,-103.11 778.62,-99.79"/>
</a>
</g>
</g>
</g>
</svg>
