<?xml version="1.0" encoding="UTF-8" standalone="no"?>
<!DOCTYPE svg PUBLIC "-//W3C//DTD SVG 1.1//EN"
 "http://www.w3.org/Graphics/SVG/1.1/DTD/svg11.dtd">
<!-- Generated by graphviz version 12.1.0 (20240811.2233)
 -->
<!-- Title: NetworkClient.cpp Pages: 1 -->
<svg width="643pt" height="196pt"
 viewBox="0.00 0.00 642.88 196.00" xmlns="http://www.w3.org/2000/svg" xmlns:xlink="http://www.w3.org/1999/xlink">
<g id="graph0" class="graph" transform="scale(1 1) rotate(0) translate(4 192)">
<title>NetworkClient.cpp</title>
<!-- Node1 -->
<g id="Node000001" class="node">
<title>Node1</title>
<g id="a_Node000001"><a xlink:title=" ">
<polygon fill="#999999" stroke="#666666" points="582.62,-188 485.62,-188 485.62,-168 582.62,-168 582.62,-188"/>
<text text-anchor="middle" x="534.12" y="-174.5" font-family="Helvetica,sans-Serif" font-size="10.00">NetworkClient.cpp</text>
</a>
</g>
</g>
<!-- Node2 -->
<g id="Node000002" class="node">
<title>Node2</title>
<g id="a_Node000002"><a xlink:href="NetworkClient_8hpp.html" target="_top" xlink:title=" ">
<polygon fill="white" stroke="#666666" points="398.88,-132 285.38,-132 285.38,-112 398.88,-112 398.88,-132"/>
<text text-anchor="middle" x="342.12" y="-118.5" font-family="Helvetica,sans-Serif" font-size="10.00">net/NetworkClient.hpp</text>
</a>
</g>
</g>
<!-- Node1&#45;&gt;Node2 -->
<g id="edge1_Node000001_Node000002" class="edge">
<title>Node1&#45;&gt;Node2</title>
<g id="a_edge1_Node000001_Node000002"><a xlink:title=" ">
<path fill="none" stroke="#63b8ff" d="M500.68,-167.59C469.08,-158.71 421.45,-145.31 386.64,-135.52"/>
<polygon fill="#63b8ff" stroke="#63b8ff" points="387.86,-132.23 377.29,-132.89 385.97,-138.97 387.86,-132.23"/>
</a>
</g>
</g>
<!-- Node7 -->
<g id="Node000007" class="node">
<title>Node7</title>
<g id="a_Node000007"><a xlink:title=" ">
<polygon fill="#e0e0e0" stroke="#999999" points="536.62,-76 493.62,-76 493.62,-56 536.62,-56 536.62,-76"/>
<text text-anchor="middle" x="515.12" y="-62.5" font-family="Helvetica,sans-Serif" font-size="10.00">thread</text>
</a>
</g>
</g>
<!-- Node1&#45;&gt;Node7 -->
<g id="edge16_Node000001_Node000007" class="edge">
<title>Node1&#45;&gt;Node7</title>
<g id="a_edge16_Node000001_Node000007"><a xlink:title=" ">
<path fill="none" stroke="#63b8ff" d="M532.51,-167.62C529.46,-150.01 522.83,-111.59 518.69,-87.65"/>
<polygon fill="#63b8ff" stroke="#63b8ff" points="522.15,-87.1 517,-77.85 515.25,-88.3 522.15,-87.1"/>
</a>
</g>
</g>
<!-- Node10 -->
<g id="Node000010" class="node">
<title>Node10</title>
<g id="a_Node000010"><a xlink:title=" ">
<polygon fill="#e0e0e0" stroke="#999999" points="597.62,-76 554.62,-76 554.62,-56 597.62,-56 597.62,-76"/>
<text text-anchor="middle" x="576.12" y="-62.5" font-family="Helvetica,sans-Serif" font-size="10.00">mutex</text>
</a>
</g>
</g>
<!-- Node1&#45;&gt;Node10 -->
<g id="edge17_Node000001_Node000010" class="edge">
<title>Node1&#45;&gt;Node10</title>
<g id="a_edge17_Node000001_Node000010"><a xlink:title=" ">
<path fill="none" stroke="#63b8ff" d="M537.71,-167.62C544.49,-149.84 559.37,-110.88 568.49,-87"/>
<polygon fill="#63b8ff" stroke="#63b8ff" points="571.72,-88.36 572.01,-77.77 565.18,-85.86 571.72,-88.36"/>
</a>
</g>
</g>
<!-- Node15 -->
<g id="Node000015" class="node">
<title>Node15</title>
<g id="a_Node000015"><a xlink:title=" ">
<polygon fill="#e0e0e0" stroke="#999999" points="634.88,-132 581.38,-132 581.38,-112 634.88,-112 634.88,-132"/>
<text text-anchor="middle" x="608.12" y="-118.5" font-family="Helvetica,sans-Serif" font-size="10.00">iostream</text>
</a>
</g>
</g>
<!-- Node1&#45;&gt;Node15 -->
<g id="edge15_Node000001_Node000015" class="edge">
<title>Node1&#45;&gt;Node15</title>
<g id="a_edge15_Node000001_Node000015"><a xlink:title=" ">
<path fill="none" stroke="#63b8ff" d="M547.01,-167.59C557.84,-159.7 573.54,-148.24 586.31,-138.92"/>
<polygon fill="#63b8ff" stroke="#63b8ff" points="588.15,-141.91 594.16,-133.19 584.02,-136.26 588.15,-141.91"/>
</a>
</g>
</g>
<!-- Node3 -->
<g id="Node000003" class="node">
<title>Node3</title>
<g id="a_Node000003"><a xlink:title=" ">
<polygon fill="#e0e0e0" stroke="#999999" points="140,-76 60.25,-76 60.25,-56 140,-56 140,-76"/>
<text text-anchor="middle" x="100.12" y="-62.5" font-family="Helvetica,sans-Serif" font-size="10.00">boost/asio.hpp</text>
</a>
</g>
</g>
<!-- Node2&#45;&gt;Node3 -->
<g id="edge2_Node000002_Node000003" class="edge">
<title>Node2&#45;&gt;Node3</title>
<g id="a_edge2_Node000002_Node000003"><a xlink:title=" ">
<path fill="none" stroke="#63b8ff" d="M299.69,-111.53C258.42,-102.32 195.65,-88.32 151.56,-78.48"/>
<polygon fill="#63b8ff" stroke="#63b8ff" points="152.49,-75.1 141.97,-76.34 150.97,-81.93 152.49,-75.1"/>
</a>
</g>
</g>
<!-- Node4 -->
<g id="Node000004" class="node">
<title>Node4</title>
<g id="a_Node000004"><a xlink:title=" ">
<polygon fill="#e0e0e0" stroke="#999999" points="209.75,-76 158.5,-76 158.5,-56 209.75,-56 209.75,-76"/>
<text text-anchor="middle" x="184.12" y="-62.5" font-family="Helvetica,sans-Serif" font-size="10.00">memory</text>
</a>
</g>
</g>
<!-- Node2&#45;&gt;Node4 -->
<g id="edge3_Node000002_Node000004" class="edge">
<title>Node2&#45;&gt;Node4</title>
<g id="a_edge3_Node000002_Node000004"><a xlink:title=" ">
<path fill="none" stroke="#63b8ff" d="M314.6,-111.59C288.61,-102.71 249.45,-89.33 220.81,-79.54"/>
<polygon fill="#63b8ff" stroke="#63b8ff" points="222.05,-76.26 211.45,-76.34 219.78,-82.89 222.05,-76.26"/>
</a>
</g>
</g>
<!-- Node5 -->
<g id="Node000005" class="node">
<title>Node5</title>
<g id="a_Node000005"><a xlink:title=" ">
<polygon fill="#e0e0e0" stroke="#999999" points="258.12,-20 218.12,-20 218.12,0 258.12,0 258.12,-20"/>
<text text-anchor="middle" x="238.12" y="-6.5" font-family="Helvetica,sans-Serif" font-size="10.00">string</text>
</a>
</g>
</g>
<!-- Node2&#45;&gt;Node5 -->
<g id="edge4_Node000002_Node000005" class="edge">
<title>Node2&#45;&gt;Node5</title>
<g id="a_edge4_Node000002_Node000005"><a xlink:title=" ">
<path fill="none" stroke="#63b8ff" d="M311.42,-111.58C293.22,-104.51 271.05,-93.08 257.12,-76 246.88,-63.44 242.16,-45.57 239.99,-31.74"/>
<polygon fill="#63b8ff" stroke="#63b8ff" points="243.48,-31.46 238.8,-21.95 236.53,-32.3 243.48,-31.46"/>
</a>
</g>
</g>
<!-- Node6 -->
<g id="Node000006" class="node">
<title>Node6</title>
<g id="a_Node000006"><a xlink:title=" ">
<polygon fill="#e0e0e0" stroke="#999999" points="412.12,-76 354.12,-76 354.12,-56 412.12,-56 412.12,-76"/>
<text text-anchor="middle" x="383.12" y="-62.5" font-family="Helvetica,sans-Serif" font-size="10.00">functional</text>
</a>
</g>
</g>
<!-- Node2&#45;&gt;Node6 -->
<g id="edge5_Node000002_Node000006" class="edge">
<title>Node2&#45;&gt;Node6</title>
<g id="a_edge5_Node000002_Node000006"><a xlink:title=" ">
<path fill="none" stroke="#63b8ff" d="M349.27,-111.59C354.73,-104.39 362.45,-94.23 369.13,-85.43"/>
<polygon fill="#63b8ff" stroke="#63b8ff" points="371.89,-87.58 375.15,-77.5 366.32,-83.35 371.89,-87.58"/>
</a>
</g>
</g>
<!-- Node2&#45;&gt;Node7 -->
<g id="edge6_Node000002_Node000007" class="edge">
<title>Node2&#45;&gt;Node7</title>
<g id="a_edge6_Node000002_Node000007"><a xlink:title=" ">
<path fill="none" stroke="#63b8ff" d="M372.26,-111.59C403.04,-101.99 450.69,-87.11 482.38,-77.22"/>
<polygon fill="#63b8ff" stroke="#63b8ff" points="483.33,-80.59 491.83,-74.27 481.24,-73.91 483.33,-80.59"/>
</a>
</g>
</g>
<!-- Node8 -->
<g id="Node000008" class="node">
<title>Node8</title>
<g id="a_Node000008"><a xlink:title=" ">
<polygon fill="#e0e0e0" stroke="#999999" points="475.75,-76 430.5,-76 430.5,-56 475.75,-56 475.75,-76"/>
<text text-anchor="middle" x="453.12" y="-62.5" font-family="Helvetica,sans-Serif" font-size="10.00">atomic</text>
</a>
</g>
</g>
<!-- Node2&#45;&gt;Node8 -->
<g id="edge7_Node000002_Node000008" class="edge">
<title>Node2&#45;&gt;Node8</title>
<g id="a_edge7_Node000002_Node000008"><a xlink:title=" ">
<path fill="none" stroke="#63b8ff" d="M361.46,-111.59C378.54,-103.28 403.73,-91.03 423.38,-81.47"/>
<polygon fill="#63b8ff" stroke="#63b8ff" points="424.82,-84.66 432.28,-77.14 421.75,-78.37 424.82,-84.66"/>
</a>
</g>
</g>
<!-- Node9 -->
<g id="Node000009" class="node">
<title>Node9</title>
<g id="a_Node000009"><a xlink:title=" ">
<polygon fill="#e0e0e0" stroke="#999999" points="42.25,-76 0,-76 0,-56 42.25,-56 42.25,-76"/>
<text text-anchor="middle" x="21.12" y="-62.5" font-family="Helvetica,sans-Serif" font-size="10.00">queue</text>
</a>
</g>
</g>
<!-- Node2&#45;&gt;Node9 -->
<g id="edge8_Node000002_Node000009" class="edge">
<title>Node2&#45;&gt;Node9</title>
<g id="a_edge8_Node000002_Node000009"><a xlink:title=" ">
<path fill="none" stroke="#63b8ff" d="M285.09,-114.54C228.57,-107.62 139.41,-95.28 53.88,-76.37"/>
<polygon fill="#63b8ff" stroke="#63b8ff" points="54.66,-72.96 44.14,-74.18 53.13,-79.79 54.66,-72.96"/>
</a>
</g>
</g>
<!-- Node2&#45;&gt;Node10 -->
<g id="edge9_Node000002_Node000010" class="edge">
<title>Node2&#45;&gt;Node10</title>
<g id="a_edge9_Node000002_Node000010"><a xlink:title=" ">
<path fill="none" stroke="#63b8ff" d="M389.77,-111.54C428.75,-103.56 485.55,-91.41 543.09,-76.66"/>
<polygon fill="#63b8ff" stroke="#63b8ff" points="543.95,-80.05 552.76,-74.16 542.2,-73.27 543.95,-80.05"/>
</a>
</g>
</g>
<!-- Node11 -->
<g id="Node000011" class="node">
<title>Node11</title>
<g id="a_Node000011"><a xlink:href="Client_2include_2net_2Protocol_8hpp.html" target="_top" xlink:title=" ">
<polygon fill="white" stroke="#666666" points="336.5,-76 265.75,-76 265.75,-56 336.5,-56 336.5,-76"/>
<text text-anchor="middle" x="301.12" y="-62.5" font-family="Helvetica,sans-Serif" font-size="10.00">Protocol.hpp</text>
</a>
</g>
</g>
<!-- Node2&#45;&gt;Node11 -->
<g id="edge10_Node000002_Node000011" class="edge">
<title>Node2&#45;&gt;Node11</title>
<g id="a_edge10_Node000002_Node000011"><a xlink:title=" ">
<path fill="none" stroke="#63b8ff" d="M334.98,-111.59C329.52,-104.39 321.8,-94.23 315.12,-85.43"/>
<polygon fill="#63b8ff" stroke="#63b8ff" points="317.93,-83.35 309.1,-77.5 312.36,-87.58 317.93,-83.35"/>
</a>
</g>
</g>
<!-- Node11&#45;&gt;Node5 -->
<g id="edge14_Node000011_Node000005" class="edge">
<title>Node11&#45;&gt;Node5</title>
<g id="a_edge14_Node000011_Node000005"><a xlink:title=" ">
<path fill="none" stroke="#63b8ff" d="M290.15,-55.59C281.21,-47.93 268.35,-36.91 257.66,-27.75"/>
<polygon fill="#63b8ff" stroke="#63b8ff" points="259.99,-25.13 250.12,-21.28 255.44,-30.45 259.99,-25.13"/>
</a>
</g>
</g>
<!-- Node12 -->
<g id="Node000012" class="node">
<title>Node12</title>
<g id="a_Node000012"><a xlink:title=" ">
<polygon fill="#e0e0e0" stroke="#999999" points="321.75,-20 276.5,-20 276.5,0 321.75,0 321.75,-20"/>
<text text-anchor="middle" x="299.12" y="-6.5" font-family="Helvetica,sans-Serif" font-size="10.00">cstdint</text>
</a>
</g>
</g>
<!-- Node11&#45;&gt;Node12 -->
<g id="edge11_Node000011_Node000012" class="edge">
<title>Node11&#45;&gt;Node12</title>
<g id="a_edge11_Node000011_Node000012"><a xlink:title=" ">
<path fill="none" stroke="#63b8ff" d="M300.78,-55.59C300.53,-49.01 300.2,-39.96 299.89,-31.73"/>
<polygon fill="#63b8ff" stroke="#63b8ff" points="303.39,-31.67 299.53,-21.81 296.4,-31.93 303.39,-31.67"/>
</a>
</g>
</g>
<!-- Node13 -->
<g id="Node000013" class="node">
<title>Node13</title>
<g id="a_Node000013"><a xlink:title=" ">
<polygon fill="#e0e0e0" stroke="#999999" points="388.25,-20 340,-20 340,0 388.25,0 388.25,-20"/>
<text text-anchor="middle" x="364.12" y="-6.5" font-family="Helvetica,sans-Serif" font-size="10.00">cstddef</text>
</a>
</g>
</g>
<!-- Node11&#45;&gt;Node13 -->
<g id="edge12_Node000011_Node000013" class="edge">
<title>Node11&#45;&gt;Node13</title>
<g id="a_edge12_Node000011_Node000013"><a xlink:title=" ">
<path fill="none" stroke="#63b8ff" d="M312.1,-55.59C321.04,-47.93 333.9,-36.91 344.59,-27.75"/>
<polygon fill="#63b8ff" stroke="#63b8ff" points="346.81,-30.45 352.13,-21.28 342.26,-25.13 346.81,-30.45"/>
</a>
</g>
</g>
<!-- Node14 -->
<g id="Node000014" class="node">
<title>Node14</title>
<g id="a_Node000014"><a xlink:title=" ">
<polygon fill="#e0e0e0" stroke="#999999" points="449.62,-20 406.62,-20 406.62,0 449.62,0 449.62,-20"/>
<text text-anchor="middle" x="428.12" y="-6.5" font-family="Helvetica,sans-Serif" font-size="10.00">vector</text>
</a>
</g>
</g>
<!-- Node11&#45;&gt;Node14 -->
<g id="edge13_Node000011_Node000014" class="edge">
<title>Node11&#45;&gt;Node14</title>
<g id="a_edge13_Node000011_Node000014"><a xlink:title=" ">
<path fill="none" stroke="#63b8ff" d="M323.25,-55.59C343.28,-47.08 373.04,-34.42 395.75,-24.77"/>
<polygon fill="#63b8ff" stroke="#63b8ff" points="397.03,-28.02 404.86,-20.89 394.29,-21.58 397.03,-28.02"/>
</a>
</g>
</g>
</g>
</svg>
