<?xml version="1.0" encoding="UTF-8" standalone="no"?>
<!DOCTYPE svg PUBLIC "-//W3C//DTD SVG 1.1//EN"
 "http://www.w3.org/Graphics/SVG/1.1/DTD/svg11.dtd">
<!-- Generated by graphviz version 12.1.0 (20240811.2233)
 -->
<!-- Title: Parameters.cpp Pages: 1 -->
<svg width="367pt" height="196pt"
 viewBox="0.00 0.00 367.38 196.00" xmlns="http://www.w3.org/2000/svg" xmlns:xlink="http://www.w3.org/1999/xlink">
<g id="graph0" class="graph" transform="scale(1 1) rotate(0) translate(4 192)">
<title>Parameters.cpp</title>
<!-- Node1 -->
<g id="Node000001" class="node">
<title>Node1</title>
<g id="a_Node000001"><a xlink:title=" ">
<polygon fill="#999999" stroke="#666666" points="301,-188 216,-188 216,-168 301,-168 301,-188"/>
<text text-anchor="middle" x="258.5" y="-174.5" font-family="Helvetica,sans-Serif" font-size="10.00">Parameters.cpp</text>
</a>
</g>
</g>
<!-- Node2 -->
<g id="Node000002" class="node">
<title>Node2</title>
<g id="a_Node000002"><a xlink:href="Parameters_8hpp.html" target="_top" xlink:title=" ">
<polygon fill="white" stroke="#666666" points="214,-132 129,-132 129,-112 214,-112 214,-132"/>
<text text-anchor="middle" x="171.5" y="-118.5" font-family="Helvetica,sans-Serif" font-size="10.00">Parameters.hpp</text>
</a>
</g>
</g>
<!-- Node1&#45;&gt;Node2 -->
<g id="edge1_Node000001_Node000002" class="edge">
<title>Node1&#45;&gt;Node2</title>
<g id="a_edge1_Node000001_Node000002"><a xlink:title=" ">
<path fill="none" stroke="#63b8ff" d="M243.35,-167.59C230.45,-159.59 211.67,-147.93 196.54,-138.54"/>
<polygon fill="#63b8ff" stroke="#63b8ff" points="198.4,-135.58 188.06,-133.28 194.71,-141.53 198.4,-135.58"/>
</a>
</g>
</g>
<!-- Node8 -->
<g id="Node000008" class="node">
<title>Node8</title>
<g id="a_Node000008"><a xlink:title=" ">
<polygon fill="#e0e0e0" stroke="#999999" points="285.25,-132 231.75,-132 231.75,-112 285.25,-112 285.25,-132"/>
<text text-anchor="middle" x="258.5" y="-118.5" font-family="Helvetica,sans-Serif" font-size="10.00">iostream</text>
</a>
</g>
</g>
<!-- Node1&#45;&gt;Node8 -->
<g id="edge7_Node000001_Node000008" class="edge">
<title>Node1&#45;&gt;Node8</title>
<g id="a_edge7_Node000001_Node000008"><a xlink:title=" ">
<path fill="none" stroke="#63b8ff" d="M258.5,-167.59C258.5,-161.01 258.5,-151.96 258.5,-143.73"/>
<polygon fill="#63b8ff" stroke="#63b8ff" points="262,-143.81 258.5,-133.81 255,-143.81 262,-143.81"/>
</a>
</g>
</g>
<!-- Node9 -->
<g id="Node000009" class="node">
<title>Node9</title>
<g id="a_Node000009"><a xlink:title=" ">
<polygon fill="#e0e0e0" stroke="#999999" points="359.38,-132 303.62,-132 303.62,-112 359.38,-112 359.38,-132"/>
<text text-anchor="middle" x="331.5" y="-118.5" font-family="Helvetica,sans-Serif" font-size="10.00">algorithm</text>
</a>
</g>
</g>
<!-- Node1&#45;&gt;Node9 -->
<g id="edge8_Node000001_Node000009" class="edge">
<title>Node1&#45;&gt;Node9</title>
<g id="a_edge8_Node000001_Node000009"><a xlink:title=" ">
<path fill="none" stroke="#63b8ff" d="M271.22,-167.59C281.89,-159.7 297.38,-148.24 309.98,-138.92"/>
<polygon fill="#63b8ff" stroke="#63b8ff" points="311.76,-141.96 317.71,-133.2 307.59,-136.33 311.76,-141.96"/>
</a>
</g>
</g>
<!-- Node3 -->
<g id="Node000003" class="node">
<title>Node3</title>
<g id="a_Node000003"><a xlink:title=" ">
<polygon fill="#e0e0e0" stroke="#999999" points="103,-76 0,-76 0,-56 103,-56 103,-76"/>
<text text-anchor="middle" x="51.5" y="-62.5" font-family="Helvetica,sans-Serif" font-size="10.00">SFML/Graphics.hpp</text>
</a>
</g>
</g>
<!-- Node2&#45;&gt;Node3 -->
<g id="edge2_Node000002_Node000003" class="edge">
<title>Node2&#45;&gt;Node3</title>
<g id="a_edge2_Node000002_Node000003"><a xlink:title=" ">
<path fill="none" stroke="#63b8ff" d="M150.6,-111.59C131.87,-103.17 104.14,-90.69 82.78,-81.07"/>
<polygon fill="#63b8ff" stroke="#63b8ff" points="84.5,-78.01 73.95,-77.1 81.63,-84.4 84.5,-78.01"/>
</a>
</g>
</g>
<!-- Node4 -->
<g id="Node000004" class="node">
<title>Node4</title>
<g id="a_Node000004"><a xlink:title=" ">
<polygon fill="#e0e0e0" stroke="#999999" points="161.5,-76 121.5,-76 121.5,-56 161.5,-56 161.5,-76"/>
<text text-anchor="middle" x="141.5" y="-62.5" font-family="Helvetica,sans-Serif" font-size="10.00">string</text>
</a>
</g>
</g>
<!-- Node2&#45;&gt;Node4 -->
<g id="edge3_Node000002_Node000004" class="edge">
<title>Node2&#45;&gt;Node4</title>
<g id="a_edge3_Node000002_Node000004"><a xlink:title=" ">
<path fill="none" stroke="#63b8ff" d="M166.27,-111.59C162.4,-104.63 156.99,-94.89 152.22,-86.29"/>
<polygon fill="#63b8ff" stroke="#63b8ff" points="155.32,-84.66 147.4,-77.62 149.2,-88.06 155.32,-84.66"/>
</a>
</g>
</g>
<!-- Node5 -->
<g id="Node000005" class="node">
<title>Node5</title>
<g id="a_Node000005"><a xlink:title=" ">
<polygon fill="#e0e0e0" stroke="#999999" points="223,-76 180,-76 180,-56 223,-56 223,-76"/>
<text text-anchor="middle" x="201.5" y="-62.5" font-family="Helvetica,sans-Serif" font-size="10.00">vector</text>
</a>
</g>
</g>
<!-- Node2&#45;&gt;Node5 -->
<g id="edge4_Node000002_Node000005" class="edge">
<title>Node2&#45;&gt;Node5</title>
<g id="a_edge4_Node000002_Node000005"><a xlink:title=" ">
<path fill="none" stroke="#63b8ff" d="M176.73,-111.59C180.6,-104.63 186.01,-94.89 190.78,-86.29"/>
<polygon fill="#63b8ff" stroke="#63b8ff" points="193.8,-88.06 195.6,-77.62 187.68,-84.66 193.8,-88.06"/>
</a>
</g>
</g>
<!-- Node6 -->
<g id="Node000006" class="node">
<title>Node6</title>
<g id="a_Node000006"><a xlink:href="Utils_8hpp.html" target="_top" xlink:title=" ">
<polygon fill="white" stroke="#666666" points="296,-76 241,-76 241,-56 296,-56 296,-76"/>
<text text-anchor="middle" x="268.5" y="-62.5" font-family="Helvetica,sans-Serif" font-size="10.00">Utils.hpp</text>
</a>
</g>
</g>
<!-- Node2&#45;&gt;Node6 -->
<g id="edge5_Node000002_Node000006" class="edge">
<title>Node2&#45;&gt;Node6</title>
<g id="a_edge5_Node000002_Node000006"><a xlink:title=" ">
<path fill="none" stroke="#63b8ff" d="M188.4,-111.59C203.05,-103.44 224.52,-91.48 241.55,-82"/>
<polygon fill="#63b8ff" stroke="#63b8ff" points="243.11,-85.14 250.15,-77.22 239.71,-79.02 243.11,-85.14"/>
</a>
</g>
</g>
<!-- Node7 -->
<g id="Node000007" class="node">
<title>Node7</title>
<g id="a_Node000007"><a xlink:title=" ">
<polygon fill="#e0e0e0" stroke="#999999" points="291.12,-20 245.88,-20 245.88,0 291.12,0 291.12,-20"/>
<text text-anchor="middle" x="268.5" y="-6.5" font-family="Helvetica,sans-Serif" font-size="10.00">cstdint</text>
</a>
</g>
</g>
<!-- Node6&#45;&gt;Node7 -->
<g id="edge6_Node000006_Node000007" class="edge">
<title>Node6&#45;&gt;Node7</title>
<g id="a_edge6_Node000006_Node000007"><a xlink:title=" ">
<path fill="none" stroke="#63b8ff" d="M268.5,-55.59C268.5,-49.01 268.5,-39.96 268.5,-31.73"/>
<polygon fill="#63b8ff" stroke="#63b8ff" points="272,-31.81 268.5,-21.81 265,-31.81 272,-31.81"/>
</a>
</g>
</g>
</g>
</svg>
