<?xml version="1.0" encoding="UTF-8" standalone="no"?>
<!DOCTYPE svg PUBLIC "-//W3C//DTD SVG 1.1//EN"
 "http://www.w3.org/Graphics/SVG/1.1/DTD/svg11.dtd">
<!-- Generated by graphviz version 12.1.0 (20240811.2233)
 -->
<!-- Title: ParamButton.hpp Pages: 1 -->
<svg width="251pt" height="140pt"
 viewBox="0.00 0.00 250.50 140.00" xmlns="http://www.w3.org/2000/svg" xmlns:xlink="http://www.w3.org/1999/xlink">
<g id="graph0" class="graph" transform="scale(1 1) rotate(0) translate(4 136)">
<title>ParamButton.hpp</title>
<!-- Node1 -->
<g id="Node000001" class="node">
<title>Node1</title>
<g id="a_Node000001"><a xlink:title=" ">
<polygon fill="#999999" stroke="#666666" points="188.5,-132 96.75,-132 96.75,-112 188.5,-112 188.5,-132"/>
<text text-anchor="middle" x="142.62" y="-118.5" font-family="Helvetica,sans-Serif" font-size="10.00">ParamButton.hpp</text>
</a>
</g>
</g>
<!-- Node2 -->
<g id="Node000002" class="node">
<title>Node2</title>
<g id="a_Node000002"><a xlink:href="GameTypes_8hpp.html" target="_top" xlink:title=" ">
<polygon fill="white" stroke="#666666" points="132.25,-76 45,-76 45,-56 132.25,-56 132.25,-76"/>
<text text-anchor="middle" x="88.62" y="-62.5" font-family="Helvetica,sans-Serif" font-size="10.00">GameTypes.hpp</text>
</a>
</g>
</g>
<!-- Node1&#45;&gt;Node2 -->
<g id="edge1_Node000001_Node000002" class="edge">
<title>Node1&#45;&gt;Node2</title>
<g id="a_edge1_Node000001_Node000002"><a xlink:title=" ">
<path fill="none" stroke="#63b8ff" d="M125.19,-103.57C116.12,-94.5 105.4,-83.78 97.92,-76.3"/>
<polygon fill="#63b8ff" stroke="#63b8ff" points="122.6,-105.93 132.15,-110.52 127.55,-100.98 122.6,-105.93"/>
</a>
</g>
</g>
<!-- Node5 -->
<g id="Node000005" class="node">
<title>Node5</title>
<g id="a_Node000005"><a xlink:href="ParamButton_8cpp.html" target="_top" xlink:title=" ">
<polygon fill="white" stroke="#666666" points="242.5,-76 150.75,-76 150.75,-56 242.5,-56 242.5,-76"/>
<text text-anchor="middle" x="196.62" y="-62.5" font-family="Helvetica,sans-Serif" font-size="10.00">ParamButton.cpp</text>
</a>
</g>
</g>
<!-- Node1&#45;&gt;Node5 -->
<g id="edge4_Node000001_Node000005" class="edge">
<title>Node1&#45;&gt;Node5</title>
<g id="a_edge4_Node000001_Node000005"><a xlink:title=" ">
<path fill="none" stroke="#63b8ff" d="M160.06,-103.57C169.13,-94.5 179.85,-83.78 187.33,-76.3"/>
<polygon fill="#63b8ff" stroke="#63b8ff" points="157.7,-100.98 153.1,-110.52 162.65,-105.93 157.7,-100.98"/>
</a>
</g>
</g>
<!-- Node3 -->
<g id="Node000003" class="node">
<title>Node3</title>
<g id="a_Node000003"><a xlink:href="GameTypes_8cpp.html" target="_top" xlink:title=" ">
<polygon fill="white" stroke="#666666" points="87.25,-20 0,-20 0,0 87.25,0 87.25,-20"/>
<text text-anchor="middle" x="43.62" y="-6.5" font-family="Helvetica,sans-Serif" font-size="10.00">GameTypes.cpp</text>
</a>
</g>
</g>
<!-- Node2&#45;&gt;Node3 -->
<g id="edge2_Node000002_Node000003" class="edge">
<title>Node2&#45;&gt;Node3</title>
<g id="a_edge2_Node000002_Node000003"><a xlink:title=" ">
<path fill="none" stroke="#63b8ff" d="M73.63,-47C66.17,-38.06 57.48,-27.62 51.37,-20.3"/>
<polygon fill="#63b8ff" stroke="#63b8ff" points="70.73,-48.99 79.82,-54.43 76.1,-44.51 70.73,-48.99"/>
</a>
</g>
</g>
<!-- Node4 -->
<g id="Node000004" class="node">
<title>Node4</title>
<g id="a_Node000004"><a xlink:href="Client_2src_2main_8cpp.html" target="_top" xlink:title=" ">
<polygon fill="white" stroke="#666666" points="161.5,-20 105.75,-20 105.75,0 161.5,0 161.5,-20"/>
<text text-anchor="middle" x="133.62" y="-6.5" font-family="Helvetica,sans-Serif" font-size="10.00">main.cpp</text>
</a>
</g>
</g>
<!-- Node2&#45;&gt;Node4 -->
<g id="edge3_Node000002_Node000004" class="edge">
<title>Node2&#45;&gt;Node4</title>
<g id="a_edge3_Node000002_Node000004"><a xlink:title=" ">
<path fill="none" stroke="#63b8ff" d="M103.62,-47C111.08,-38.06 119.77,-27.62 125.88,-20.3"/>
<polygon fill="#63b8ff" stroke="#63b8ff" points="101.15,-44.51 97.43,-54.43 106.52,-48.99 101.15,-44.51"/>
</a>
</g>
</g>
</g>
</svg>
