<?xml version="1.0" encoding="UTF-8" standalone="no"?>
<!DOCTYPE svg PUBLIC "-//W3C//DTD SVG 1.1//EN"
 "http://www.w3.org/Graphics/SVG/1.1/DTD/svg11.dtd">
<!-- Generated by graphviz version 12.1.0 (20240811.2233)
 -->
<!-- Title: Parameters.cpp Pages: 1 -->
<svg width="352pt" height="196pt"
 viewBox="0.00 0.00 352.38 196.00" xmlns="http://www.w3.org/2000/svg" xmlns:xlink="http://www.w3.org/1999/xlink">
<g id="graph0" class="graph" transform="scale(1 1) rotate(0) translate(4 192)">
<title>Parameters.cpp</title>
<!-- Node1 -->
<g id="Node000001" class="node">
<title>Node1</title>
<g id="a_Node000001"><a xlink:title=" ">
<polygon fill="#999999" stroke="#666666" points="286,-188 201,-188 201,-168 286,-168 286,-188"/>
<text text-anchor="middle" x="243.5" y="-174.5" font-family="Helvetica,sans-Serif" font-size="10.00">Parameters.cpp</text>
</a>
</g>
</g>
<!-- Node2 -->
<g id="Node000002" class="node">
<title>Node2</title>
<g id="a_Node000002"><a xlink:href="Parameters_8hpp.html" target="_top" xlink:title=" ">
<polygon fill="white" stroke="#666666" points="199,-132 114,-132 114,-112 199,-112 199,-132"/>
<text text-anchor="middle" x="156.5" y="-118.5" font-family="Helvetica,sans-Serif" font-size="10.00">Parameters.hpp</text>
</a>
</g>
</g>
<!-- Node1&#45;&gt;Node2 -->
<g id="edge1_Node000001_Node000002" class="edge">
<title>Node1&#45;&gt;Node2</title>
<g id="a_edge1_Node000001_Node000002"><a xlink:title=" ">
<path fill="none" stroke="#63b8ff" d="M228.35,-167.59C215.45,-159.59 196.67,-147.93 181.54,-138.54"/>
<polygon fill="#63b8ff" stroke="#63b8ff" points="183.4,-135.58 173.06,-133.28 179.71,-141.53 183.4,-135.58"/>
</a>
</g>
</g>
<!-- Node10 -->
<g id="Node000010" class="node">
<title>Node10</title>
<g id="a_Node000010"><a xlink:title=" ">
<polygon fill="#e0e0e0" stroke="#999999" points="270.25,-132 216.75,-132 216.75,-112 270.25,-112 270.25,-132"/>
<text text-anchor="middle" x="243.5" y="-118.5" font-family="Helvetica,sans-Serif" font-size="10.00">iostream</text>
</a>
</g>
</g>
<!-- Node1&#45;&gt;Node10 -->
<g id="edge10_Node000001_Node000010" class="edge">
<title>Node1&#45;&gt;Node10</title>
<g id="a_edge10_Node000001_Node000010"><a xlink:title=" ">
<path fill="none" stroke="#63b8ff" d="M243.5,-167.59C243.5,-161.01 243.5,-151.96 243.5,-143.73"/>
<polygon fill="#63b8ff" stroke="#63b8ff" points="247,-143.81 243.5,-133.81 240,-143.81 247,-143.81"/>
</a>
</g>
</g>
<!-- Node11 -->
<g id="Node000011" class="node">
<title>Node11</title>
<g id="a_Node000011"><a xlink:title=" ">
<polygon fill="#e0e0e0" stroke="#999999" points="344.38,-132 288.62,-132 288.62,-112 344.38,-112 344.38,-132"/>
<text text-anchor="middle" x="316.5" y="-118.5" font-family="Helvetica,sans-Serif" font-size="10.00">algorithm</text>
</a>
</g>
</g>
<!-- Node1&#45;&gt;Node11 -->
<g id="edge11_Node000001_Node000011" class="edge">
<title>Node1&#45;&gt;Node11</title>
<g id="a_edge11_Node000001_Node000011"><a xlink:title=" ">
<path fill="none" stroke="#63b8ff" d="M256.22,-167.59C266.89,-159.7 282.38,-148.24 294.98,-138.92"/>
<polygon fill="#63b8ff" stroke="#63b8ff" points="296.76,-141.96 302.71,-133.2 292.59,-136.33 296.76,-141.96"/>
</a>
</g>
</g>
<!-- Node3 -->
<g id="Node000003" class="node">
<title>Node3</title>
<g id="a_Node000003"><a xlink:title=" ">
<polygon fill="#e0e0e0" stroke="#999999" points="103,-76 0,-76 0,-56 103,-56 103,-76"/>
<text text-anchor="middle" x="51.5" y="-62.5" font-family="Helvetica,sans-Serif" font-size="10.00">SFML/Graphics.hpp</text>
</a>
</g>
</g>
<!-- Node2&#45;&gt;Node3 -->
<g id="edge2_Node000002_Node000003" class="edge">
<title>Node2&#45;&gt;Node3</title>
<g id="a_edge2_Node000002_Node000003"><a xlink:title=" ">
<path fill="none" stroke="#63b8ff" d="M138.21,-111.59C122.2,-103.36 98.67,-91.26 80.16,-81.74"/>
<polygon fill="#63b8ff" stroke="#63b8ff" points="81.77,-78.63 71.28,-77.17 78.57,-84.86 81.77,-78.63"/>
</a>
</g>
</g>
<!-- Node4 -->
<g id="Node000004" class="node">
<title>Node4</title>
<g id="a_Node000004"><a xlink:title=" ">
<polygon fill="#e0e0e0" stroke="#999999" points="151.5,-20 111.5,-20 111.5,0 151.5,0 151.5,-20"/>
<text text-anchor="middle" x="131.5" y="-6.5" font-family="Helvetica,sans-Serif" font-size="10.00">string</text>
</a>
</g>
</g>
<!-- Node2&#45;&gt;Node4 -->
<g id="edge3_Node000002_Node000004" class="edge">
<title>Node2&#45;&gt;Node4</title>
<g id="a_edge3_Node000002_Node000004"><a xlink:title=" ">
<path fill="none" stroke="#63b8ff" d="M154.37,-111.62C150.35,-93.92 141.55,-55.24 136.12,-31.32"/>
<polygon fill="#63b8ff" stroke="#63b8ff" points="139.59,-30.81 133.96,-21.83 132.76,-32.36 139.59,-30.81"/>
</a>
</g>
</g>
<!-- Node5 -->
<g id="Node000005" class="node">
<title>Node5</title>
<g id="a_Node000005"><a xlink:title=" ">
<polygon fill="#e0e0e0" stroke="#999999" points="203,-76 160,-76 160,-56 203,-56 203,-76"/>
<text text-anchor="middle" x="181.5" y="-62.5" font-family="Helvetica,sans-Serif" font-size="10.00">vector</text>
</a>
</g>
</g>
<!-- Node2&#45;&gt;Node5 -->
<g id="edge4_Node000002_Node000005" class="edge">
<title>Node2&#45;&gt;Node5</title>
<g id="a_edge4_Node000002_Node000005"><a xlink:title=" ">
<path fill="none" stroke="#63b8ff" d="M160.85,-111.59C164.05,-104.7 168.49,-95.1 172.44,-86.57"/>
<polygon fill="#63b8ff" stroke="#63b8ff" points="175.53,-88.22 176.56,-77.67 169.18,-85.28 175.53,-88.22"/>
</a>
</g>
</g>
<!-- Node6 -->
<g id="Node000006" class="node">
<title>Node6</title>
<g id="a_Node000006"><a xlink:href="Utils_8hpp.html" target="_top" xlink:title=" ">
<polygon fill="white" stroke="#666666" points="276,-76 221,-76 221,-56 276,-56 276,-76"/>
<text text-anchor="middle" x="248.5" y="-62.5" font-family="Helvetica,sans-Serif" font-size="10.00">Utils.hpp</text>
</a>
</g>
</g>
<!-- Node2&#45;&gt;Node6 -->
<g id="edge5_Node000002_Node000006" class="edge">
<title>Node2&#45;&gt;Node6</title>
<g id="a_edge5_Node000002_Node000006"><a xlink:title=" ">
<path fill="none" stroke="#63b8ff" d="M172.53,-111.59C186.29,-103.51 206.4,-91.71 222.48,-82.27"/>
<polygon fill="#63b8ff" stroke="#63b8ff" points="224.19,-85.33 231.04,-77.25 220.65,-79.29 224.19,-85.33"/>
</a>
</g>
</g>
<!-- Node6&#45;&gt;Node4 -->
<g id="edge7_Node000006_Node000004" class="edge">
<title>Node6&#45;&gt;Node4</title>
<g id="a_edge7_Node000006_Node000004"><a xlink:title=" ">
<path fill="none" stroke="#63b8ff" d="M228.12,-55.59C209.83,-47.15 182.74,-34.65 161.9,-25.03"/>
<polygon fill="#63b8ff" stroke="#63b8ff" points="163.57,-21.95 153.02,-20.93 160.63,-28.3 163.57,-21.95"/>
</a>
</g>
</g>
<!-- Node7 -->
<g id="Node000007" class="node">
<title>Node7</title>
<g id="a_Node000007"><a xlink:title=" ">
<polygon fill="#e0e0e0" stroke="#999999" points="215.12,-20 169.88,-20 169.88,0 215.12,0 215.12,-20"/>
<text text-anchor="middle" x="192.5" y="-6.5" font-family="Helvetica,sans-Serif" font-size="10.00">cstdint</text>
</a>
</g>
</g>
<!-- Node6&#45;&gt;Node7 -->
<g id="edge6_Node000006_Node000007" class="edge">
<title>Node6&#45;&gt;Node7</title>
<g id="a_edge6_Node000006_Node000007"><a xlink:title=" ">
<path fill="none" stroke="#63b8ff" d="M238.75,-55.59C230.88,-48.01 219.6,-37.13 210.15,-28.02"/>
<polygon fill="#63b8ff" stroke="#63b8ff" points="212.86,-25.77 203.23,-21.35 208,-30.81 212.86,-25.77"/>
</a>
</g>
</g>
<!-- Node8 -->
<g id="Node000008" class="node">
<title>Node8</title>
<g id="a_Node000008"><a xlink:title=" ">
<polygon fill="#e0e0e0" stroke="#999999" points="284.12,-20 232.88,-20 232.88,0 284.12,0 284.12,-20"/>
<text text-anchor="middle" x="258.5" y="-6.5" font-family="Helvetica,sans-Serif" font-size="10.00">ostream</text>
</a>
</g>
</g>
<!-- Node6&#45;&gt;Node8 -->
<g id="edge8_Node000006_Node000008" class="edge">
<title>Node6&#45;&gt;Node8</title>
<g id="a_edge8_Node000006_Node000008"><a xlink:title=" ">
<path fill="none" stroke="#63b8ff" d="M250.24,-55.59C251.48,-48.93 253.18,-39.75 254.71,-31.44"/>
<polygon fill="#63b8ff" stroke="#63b8ff" points="258.12,-32.26 256.5,-21.79 251.24,-30.98 258.12,-32.26"/>
</a>
</g>
</g>
<!-- Node9 -->
<g id="Node000009" class="node">
<title>Node9</title>
<g id="a_Node000009"><a xlink:title=" ">
<polygon fill="#e0e0e0" stroke="#999999" points="340.38,-20 302.62,-20 302.62,0 340.38,0 340.38,-20"/>
<text text-anchor="middle" x="321.5" y="-6.5" font-family="Helvetica,sans-Serif" font-size="10.00">array</text>
</a>
</g>
</g>
<!-- Node6&#45;&gt;Node9 -->
<g id="edge9_Node000006_Node000009" class="edge">
<title>Node6&#45;&gt;Node9</title>
<g id="a_edge9_Node000006_Node000009"><a xlink:title=" ">
<path fill="none" stroke="#63b8ff" d="M261.22,-55.59C271.89,-47.7 287.38,-36.24 299.98,-26.92"/>
<polygon fill="#63b8ff" stroke="#63b8ff" points="301.76,-29.96 307.71,-21.2 297.59,-24.33 301.76,-29.96"/>
</a>
</g>
</g>
</g>
</svg>
