<?xml version="1.0" encoding="UTF-8" standalone="no"?>
<!DOCTYPE svg PUBLIC "-//W3C//DTD SVG 1.1//EN"
 "http://www.w3.org/Graphics/SVG/1.1/DTD/svg11.dtd">
<!-- Generated by graphviz version 12.1.0 (20240811.2233)
 -->
<!-- Title: ParticleSystem.cpp Pages: 1 -->
<svg width="390pt" height="196pt"
 viewBox="0.00 0.00 390.25 196.00" xmlns="http://www.w3.org/2000/svg" xmlns:xlink="http://www.w3.org/1999/xlink">
<g id="graph0" class="graph" transform="scale(1 1) rotate(0) translate(4 192)">
<title>ParticleSystem.cpp</title>
<!-- Node1 -->
<g id="Node000001" class="node">
<title>Node1</title>
<g id="a_Node000001"><a xlink:title=" ">
<polygon fill="#999999" stroke="#666666" points="293.13,-188 191.63,-188 191.63,-168 293.13,-168 293.13,-188"/>
<text text-anchor="middle" x="242.38" y="-174.5" font-family="Helvetica,sans-Serif" font-size="10.00">ParticleSystem.cpp</text>
</a>
</g>
</g>
<!-- Node2 -->
<g id="Node000002" class="node">
<title>Node2</title>
<g id="a_Node000002"><a xlink:href="ParticleSystem_8hpp.html" target="_top" xlink:title=" ">
<polygon fill="white" stroke="#666666" points="248.13,-132 146.63,-132 146.63,-112 248.13,-112 248.13,-132"/>
<text text-anchor="middle" x="197.38" y="-118.5" font-family="Helvetica,sans-Serif" font-size="10.00">ParticleSystem.hpp</text>
</a>
</g>
</g>
<!-- Node1&#45;&gt;Node2 -->
<g id="edge1_Node000001_Node000002" class="edge">
<title>Node1&#45;&gt;Node2</title>
<g id="a_edge1_Node000001_Node000002"><a xlink:title=" ">
<path fill="none" stroke="#63b8ff" d="M234.54,-167.59C228.41,-160.24 219.71,-149.8 212.26,-140.87"/>
<polygon fill="#63b8ff" stroke="#63b8ff" points="215.18,-138.9 206.09,-133.46 209.81,-143.38 215.18,-138.9"/>
</a>
</g>
</g>
<!-- Node11 -->
<g id="Node000011" class="node">
<title>Node11</title>
<g id="a_Node000011"><a xlink:href="Parameters_8hpp.html" target="_top" xlink:title=" ">
<polygon fill="white" stroke="#666666" points="128.88,-132 43.88,-132 43.88,-112 128.88,-112 128.88,-132"/>
<text text-anchor="middle" x="86.38" y="-118.5" font-family="Helvetica,sans-Serif" font-size="10.00">Parameters.hpp</text>
</a>
</g>
</g>
<!-- Node1&#45;&gt;Node11 -->
<g id="edge10_Node000001_Node000011" class="edge">
<title>Node1&#45;&gt;Node11</title>
<g id="a_edge10_Node000001_Node000011"><a xlink:title=" ">
<path fill="none" stroke="#63b8ff" d="M215.2,-167.59C190.08,-158.9 152.5,-145.89 124.4,-136.16"/>
<polygon fill="#63b8ff" stroke="#63b8ff" points="125.79,-132.94 115.19,-132.97 123.5,-139.55 125.79,-132.94"/>
</a>
</g>
</g>
<!-- Node12 -->
<g id="Node000012" class="node">
<title>Node12</title>
<g id="a_Node000012"><a xlink:title=" ">
<polygon fill="#e0e0e0" stroke="#999999" points="308.88,-132 265.88,-132 265.88,-112 308.88,-112 308.88,-132"/>
<text text-anchor="middle" x="287.38" y="-118.5" font-family="Helvetica,sans-Serif" font-size="10.00">cmath</text>
</a>
</g>
</g>
<!-- Node1&#45;&gt;Node12 -->
<g id="edge15_Node000001_Node000012" class="edge">
<title>Node1&#45;&gt;Node12</title>
<g id="a_edge15_Node000001_Node000012"><a xlink:title=" ">
<path fill="none" stroke="#63b8ff" d="M250.21,-167.59C256.34,-160.24 265.05,-149.8 272.49,-140.87"/>
<polygon fill="#63b8ff" stroke="#63b8ff" points="274.95,-143.38 278.66,-133.46 269.57,-138.9 274.95,-143.38"/>
</a>
</g>
</g>
<!-- Node13 -->
<g id="Node000013" class="node">
<title>Node13</title>
<g id="a_Node000013"><a xlink:title=" ">
<polygon fill="#e0e0e0" stroke="#999999" points="382.25,-132 326.5,-132 326.5,-112 382.25,-112 382.25,-132"/>
<text text-anchor="middle" x="354.38" y="-118.5" font-family="Helvetica,sans-Serif" font-size="10.00">algorithm</text>
</a>
</g>
</g>
<!-- Node1&#45;&gt;Node13 -->
<g id="edge16_Node000001_Node000013" class="edge">
<title>Node1&#45;&gt;Node13</title>
<g id="a_edge16_Node000001_Node000013"><a xlink:title=" ">
<path fill="none" stroke="#63b8ff" d="M261.89,-167.59C279.12,-159.28 304.54,-147.03 324.36,-137.47"/>
<polygon fill="#63b8ff" stroke="#63b8ff" points="325.86,-140.63 333.35,-133.14 322.82,-134.33 325.86,-140.63"/>
</a>
</g>
</g>
<!-- Node3 -->
<g id="Node000003" class="node">
<title>Node3</title>
<g id="a_Node000003"><a xlink:title=" ">
<polygon fill="#e0e0e0" stroke="#999999" points="114.88,-76 11.88,-76 11.88,-56 114.88,-56 114.88,-76"/>
<text text-anchor="middle" x="63.38" y="-62.5" font-family="Helvetica,sans-Serif" font-size="10.00">SFML/Graphics.hpp</text>
</a>
</g>
</g>
<!-- Node2&#45;&gt;Node3 -->
<g id="edge2_Node000002_Node000003" class="edge">
<title>Node2&#45;&gt;Node3</title>
<g id="a_edge2_Node000002_Node000003"><a xlink:title=" ">
<path fill="none" stroke="#63b8ff" d="M174.04,-111.59C152.84,-103.05 121.31,-90.35 97.33,-80.68"/>
<polygon fill="#63b8ff" stroke="#63b8ff" points="98.89,-77.54 88.3,-77.05 96.27,-84.03 98.89,-77.54"/>
</a>
</g>
</g>
<!-- Node4 -->
<g id="Node000004" class="node">
<title>Node4</title>
<g id="a_Node000004"><a xlink:title=" ">
<polygon fill="#e0e0e0" stroke="#999999" points="175.88,-76 132.88,-76 132.88,-56 175.88,-56 175.88,-76"/>
<text text-anchor="middle" x="154.38" y="-62.5" font-family="Helvetica,sans-Serif" font-size="10.00">vector</text>
</a>
</g>
</g>
<!-- Node2&#45;&gt;Node4 -->
<g id="edge3_Node000002_Node000004" class="edge">
<title>Node2&#45;&gt;Node4</title>
<g id="a_edge3_Node000002_Node000004"><a xlink:title=" ">
<path fill="none" stroke="#63b8ff" d="M189.89,-111.59C184.09,-104.32 175.89,-94.02 168.83,-85.15"/>
<polygon fill="#63b8ff" stroke="#63b8ff" points="171.69,-83.12 162.72,-77.48 166.21,-87.49 171.69,-83.12"/>
</a>
</g>
</g>
<!-- Node5 -->
<g id="Node000005" class="node">
<title>Node5</title>
<g id="a_Node000005"><a xlink:title=" ">
<polygon fill="#e0e0e0" stroke="#999999" points="315.5,-76 267.25,-76 267.25,-56 315.5,-56 315.5,-76"/>
<text text-anchor="middle" x="291.38" y="-62.5" font-family="Helvetica,sans-Serif" font-size="10.00">random</text>
</a>
</g>
</g>
<!-- Node2&#45;&gt;Node5 -->
<g id="edge4_Node000002_Node000005" class="edge">
<title>Node2&#45;&gt;Node5</title>
<g id="a_edge4_Node000002_Node000005"><a xlink:title=" ">
<path fill="none" stroke="#63b8ff" d="M213.75,-111.59C227.95,-103.44 248.76,-91.48 265.26,-82"/>
<polygon fill="#63b8ff" stroke="#63b8ff" points="266.64,-85.25 273.56,-77.23 263.15,-79.18 266.64,-85.25"/>
</a>
</g>
</g>
<!-- Node6 -->
<g id="Node000006" class="node">
<title>Node6</title>
<g id="a_Node000006"><a xlink:href="Utils_8hpp.html" target="_top" xlink:title=" ">
<polygon fill="white" stroke="#666666" points="248.88,-76 193.88,-76 193.88,-56 248.88,-56 248.88,-76"/>
<text text-anchor="middle" x="221.38" y="-62.5" font-family="Helvetica,sans-Serif" font-size="10.00">Utils.hpp</text>
</a>
</g>
</g>
<!-- Node2&#45;&gt;Node6 -->
<g id="edge5_Node000002_Node000006" class="edge">
<title>Node2&#45;&gt;Node6</title>
<g id="a_edge5_Node000002_Node000006"><a xlink:title=" ">
<path fill="none" stroke="#63b8ff" d="M201.56,-111.59C204.62,-104.7 208.89,-95.1 212.68,-86.57"/>
<polygon fill="#63b8ff" stroke="#63b8ff" points="215.77,-88.24 216.63,-77.68 209.37,-85.4 215.77,-88.24"/>
</a>
</g>
</g>
<!-- Node7 -->
<g id="Node000007" class="node">
<title>Node7</title>
<g id="a_Node000007"><a xlink:title=" ">
<polygon fill="#e0e0e0" stroke="#999999" points="178,-20 132.75,-20 132.75,0 178,0 178,-20"/>
<text text-anchor="middle" x="155.38" y="-6.5" font-family="Helvetica,sans-Serif" font-size="10.00">cstdint</text>
</a>
</g>
</g>
<!-- Node6&#45;&gt;Node7 -->
<g id="edge6_Node000006_Node000007" class="edge">
<title>Node6&#45;&gt;Node7</title>
<g id="a_edge6_Node000006_Node000007"><a xlink:title=" ">
<path fill="none" stroke="#63b8ff" d="M209.88,-55.59C200.42,-47.85 186.77,-36.69 175.5,-27.47"/>
<polygon fill="#63b8ff" stroke="#63b8ff" points="177.87,-24.88 167.91,-21.26 173.44,-30.3 177.87,-24.88"/>
</a>
</g>
</g>
<!-- Node8 -->
<g id="Node000008" class="node">
<title>Node8</title>
<g id="a_Node000008"><a xlink:title=" ">
<polygon fill="#e0e0e0" stroke="#999999" points="59.38,-20 19.38,-20 19.38,0 59.38,0 59.38,-20"/>
<text text-anchor="middle" x="39.38" y="-6.5" font-family="Helvetica,sans-Serif" font-size="10.00">string</text>
</a>
</g>
</g>
<!-- Node6&#45;&gt;Node8 -->
<g id="edge7_Node000006_Node000008" class="edge">
<title>Node6&#45;&gt;Node8</title>
<g id="a_edge7_Node000006_Node000008"><a xlink:title=" ">
<path fill="none" stroke="#63b8ff" d="M193.73,-56.8C160.59,-46.96 105.18,-30.52 70.54,-20.25"/>
<polygon fill="#63b8ff" stroke="#63b8ff" points="71.69,-16.94 61.11,-17.45 69.7,-23.65 71.69,-16.94"/>
</a>
</g>
</g>
<!-- Node9 -->
<g id="Node000009" class="node">
<title>Node9</title>
<g id="a_Node000009"><a xlink:title=" ">
<polygon fill="#e0e0e0" stroke="#999999" points="247,-20 195.75,-20 195.75,0 247,0 247,-20"/>
<text text-anchor="middle" x="221.38" y="-6.5" font-family="Helvetica,sans-Serif" font-size="10.00">ostream</text>
</a>
</g>
</g>
<!-- Node6&#45;&gt;Node9 -->
<g id="edge8_Node000006_Node000009" class="edge">
<title>Node6&#45;&gt;Node9</title>
<g id="a_edge8_Node000006_Node000009"><a xlink:title=" ">
<path fill="none" stroke="#63b8ff" d="M221.38,-55.59C221.38,-49.01 221.38,-39.96 221.38,-31.73"/>
<polygon fill="#63b8ff" stroke="#63b8ff" points="224.88,-31.81 221.38,-21.81 217.88,-31.81 224.88,-31.81"/>
</a>
</g>
</g>
<!-- Node10 -->
<g id="Node000010" class="node">
<title>Node10</title>
<g id="a_Node000010"><a xlink:title=" ">
<polygon fill="#e0e0e0" stroke="#999999" points="303.25,-20 265.5,-20 265.5,0 303.25,0 303.25,-20"/>
<text text-anchor="middle" x="284.38" y="-6.5" font-family="Helvetica,sans-Serif" font-size="10.00">array</text>
</a>
</g>
</g>
<!-- Node6&#45;&gt;Node10 -->
<g id="edge9_Node000006_Node000010" class="edge">
<title>Node6&#45;&gt;Node10</title>
<g id="a_edge9_Node000006_Node000010"><a xlink:title=" ">
<path fill="none" stroke="#63b8ff" d="M232.35,-55.59C241.29,-47.93 254.15,-36.91 264.84,-27.75"/>
<polygon fill="#63b8ff" stroke="#63b8ff" points="267.06,-30.45 272.38,-21.28 262.51,-25.13 267.06,-30.45"/>
</a>
</g>
</g>
<!-- Node11&#45;&gt;Node3 -->
<g id="edge11_Node000011_Node000003" class="edge">
<title>Node11&#45;&gt;Node3</title>
<g id="a_edge11_Node000011_Node000003"><a xlink:title=" ">
<path fill="none" stroke="#63b8ff" d="M82.37,-111.59C79.47,-104.78 75.44,-95.32 71.84,-86.86"/>
<polygon fill="#63b8ff" stroke="#63b8ff" points="75.07,-85.52 67.93,-77.69 68.63,-88.26 75.07,-85.52"/>
</a>
</g>
</g>
<!-- Node11&#45;&gt;Node4 -->
<g id="edge13_Node000011_Node000004" class="edge">
<title>Node11&#45;&gt;Node4</title>
<g id="a_edge13_Node000011_Node000004"><a xlink:title=" ">
<path fill="none" stroke="#63b8ff" d="M98.22,-111.59C108.07,-103.77 122.31,-92.46 133.99,-83.19"/>
<polygon fill="#63b8ff" stroke="#63b8ff" points="135.83,-86.2 141.48,-77.24 131.47,-80.72 135.83,-86.2"/>
</a>
</g>
</g>
<!-- Node11&#45;&gt;Node6 -->
<g id="edge14_Node000011_Node000006" class="edge">
<title>Node11&#45;&gt;Node6</title>
<g id="a_edge14_Node000011_Node000006"><a xlink:title=" ">
<path fill="none" stroke="#63b8ff" d="M109.89,-111.59C131.25,-103.05 163.01,-90.35 187.17,-80.68"/>
<polygon fill="#63b8ff" stroke="#63b8ff" points="188.29,-84.01 196.27,-77.04 185.69,-77.51 188.29,-84.01"/>
</a>
</g>
</g>
<!-- Node11&#45;&gt;Node8 -->
<g id="edge12_Node000011_Node000008" class="edge">
<title>Node11&#45;&gt;Node8</title>
<g id="a_edge12_Node000011_Node000008"><a xlink:title=" ">
<path fill="none" stroke="#63b8ff" d="M51.65,-111.54C33.89,-104.75 13.86,-93.61 3.38,-76 -6.15,-60 6.52,-41.37 19.38,-28.17"/>
<polygon fill="#63b8ff" stroke="#63b8ff" points="21.67,-30.82 26.53,-21.4 16.86,-25.74 21.67,-30.82"/>
</a>
</g>
</g>
</g>
</svg>
