<?xml version="1.0" encoding="UTF-8" standalone="no"?>
<!DOCTYPE svg PUBLIC "-//W3C//DTD SVG 1.1//EN"
 "http://www.w3.org/Graphics/SVG/1.1/DTD/svg11.dtd">
<!-- Generated by graphviz version 12.1.0 (20240811.2233)
 -->
<!-- Title: ParticleSystem.hpp Pages: 1 -->
<svg width="398pt" height="140pt"
 viewBox="0.00 0.00 398.38 140.00" xmlns="http://www.w3.org/2000/svg" xmlns:xlink="http://www.w3.org/1999/xlink">
<g id="graph0" class="graph" transform="scale(1 1) rotate(0) translate(4 136)">
<title>ParticleSystem.hpp</title>
<!-- Node1 -->
<g id="Node000001" class="node">
<title>Node1</title>
<g id="a_Node000001"><a xlink:title=" ">
<polygon fill="#999999" stroke="#666666" points="225.25,-132 123.75,-132 123.75,-112 225.25,-112 225.25,-132"/>
<text text-anchor="middle" x="174.5" y="-118.5" font-family="Helvetica,sans-Serif" font-size="10.00">ParticleSystem.hpp</text>
</a>
</g>
</g>
<!-- Node2 -->
<g id="Node000002" class="node">
<title>Node2</title>
<g id="a_Node000002"><a xlink:title=" ">
<polygon fill="#e0e0e0" stroke="#999999" points="103,-76 0,-76 0,-56 103,-56 103,-76"/>
<text text-anchor="middle" x="51.5" y="-62.5" font-family="Helvetica,sans-Serif" font-size="10.00">SFML/Graphics.hpp</text>
</a>
</g>
</g>
<!-- Node1&#45;&gt;Node2 -->
<g id="edge1_Node000001_Node000002" class="edge">
<title>Node1&#45;&gt;Node2</title>
<g id="a_edge1_Node000001_Node000002"><a xlink:title=" ">
<path fill="none" stroke="#63b8ff" d="M153.08,-111.59C133.88,-103.17 105.46,-90.69 83.56,-81.07"/>
<polygon fill="#63b8ff" stroke="#63b8ff" points="85.04,-77.9 74.48,-77.09 82.23,-84.31 85.04,-77.9"/>
</a>
</g>
</g>
<!-- Node3 -->
<g id="Node000003" class="node">
<title>Node3</title>
<g id="a_Node000003"><a xlink:title=" ">
<polygon fill="#e0e0e0" stroke="#999999" points="164,-76 121,-76 121,-56 164,-56 164,-76"/>
<text text-anchor="middle" x="142.5" y="-62.5" font-family="Helvetica,sans-Serif" font-size="10.00">vector</text>
</a>
</g>
</g>
<!-- Node1&#45;&gt;Node3 -->
<g id="edge2_Node000001_Node000003" class="edge">
<title>Node1&#45;&gt;Node3</title>
<g id="a_edge2_Node000001_Node000003"><a xlink:title=" ">
<path fill="none" stroke="#63b8ff" d="M168.93,-111.59C164.75,-104.55 158.9,-94.67 153.76,-86"/>
<polygon fill="#63b8ff" stroke="#63b8ff" points="156.89,-84.42 148.78,-77.6 150.87,-87.99 156.89,-84.42"/>
</a>
</g>
</g>
<!-- Node4 -->
<g id="Node000004" class="node">
<title>Node4</title>
<g id="a_Node000004"><a xlink:title=" ">
<polygon fill="#e0e0e0" stroke="#999999" points="230.62,-76 182.38,-76 182.38,-56 230.62,-56 230.62,-76"/>
<text text-anchor="middle" x="206.5" y="-62.5" font-family="Helvetica,sans-Serif" font-size="10.00">random</text>
</a>
</g>
</g>
<!-- Node1&#45;&gt;Node4 -->
<g id="edge3_Node000001_Node000004" class="edge">
<title>Node1&#45;&gt;Node4</title>
<g id="a_edge3_Node000001_Node000004"><a xlink:title=" ">
<path fill="none" stroke="#63b8ff" d="M180.07,-111.59C184.25,-104.55 190.1,-94.67 195.24,-86"/>
<polygon fill="#63b8ff" stroke="#63b8ff" points="198.13,-87.99 200.22,-77.6 192.11,-84.42 198.13,-87.99"/>
</a>
</g>
</g>
<!-- Node5 -->
<g id="Node000005" class="node">
<title>Node5</title>
<g id="a_Node000005"><a xlink:href="Utils_8hpp.html" target="_top" xlink:title=" ">
<polygon fill="white" stroke="#666666" points="304,-76 249,-76 249,-56 304,-56 304,-76"/>
<text text-anchor="middle" x="276.5" y="-62.5" font-family="Helvetica,sans-Serif" font-size="10.00">Utils.hpp</text>
</a>
</g>
</g>
<!-- Node1&#45;&gt;Node5 -->
<g id="edge4_Node000001_Node000005" class="edge">
<title>Node1&#45;&gt;Node5</title>
<g id="a_edge4_Node000001_Node000005"><a xlink:title=" ">
<path fill="none" stroke="#63b8ff" d="M192.27,-111.59C207.82,-103.36 230.68,-91.26 248.66,-81.74"/>
<polygon fill="#63b8ff" stroke="#63b8ff" points="250.06,-84.96 257.26,-77.19 246.78,-78.77 250.06,-84.96"/>
</a>
</g>
</g>
<!-- Node6 -->
<g id="Node000006" class="node">
<title>Node6</title>
<g id="a_Node000006"><a xlink:title=" ">
<polygon fill="#e0e0e0" stroke="#999999" points="206.12,-20 160.88,-20 160.88,0 206.12,0 206.12,-20"/>
<text text-anchor="middle" x="183.5" y="-6.5" font-family="Helvetica,sans-Serif" font-size="10.00">cstdint</text>
</a>
</g>
</g>
<!-- Node5&#45;&gt;Node6 -->
<g id="edge5_Node000005_Node000006" class="edge">
<title>Node5&#45;&gt;Node6</title>
<g id="a_edge5_Node000005_Node000006"><a xlink:title=" ">
<path fill="none" stroke="#63b8ff" d="M260.3,-55.59C246.25,-47.44 225.67,-35.48 209.34,-26"/>
<polygon fill="#63b8ff" stroke="#63b8ff" points="211.54,-23.23 201.13,-21.24 208.03,-29.29 211.54,-23.23"/>
</a>
</g>
</g>
<!-- Node7 -->
<g id="Node000007" class="node">
<title>Node7</title>
<g id="a_Node000007"><a xlink:title=" ">
<polygon fill="#e0e0e0" stroke="#999999" points="264.5,-20 224.5,-20 224.5,0 264.5,0 264.5,-20"/>
<text text-anchor="middle" x="244.5" y="-6.5" font-family="Helvetica,sans-Serif" font-size="10.00">string</text>
</a>
</g>
</g>
<!-- Node5&#45;&gt;Node7 -->
<g id="edge6_Node000005_Node000007" class="edge">
<title>Node5&#45;&gt;Node7</title>
<g id="a_edge6_Node000005_Node000007"><a xlink:title=" ">
<path fill="none" stroke="#63b8ff" d="M270.93,-55.59C266.75,-48.55 260.9,-38.67 255.76,-30"/>
<polygon fill="#63b8ff" stroke="#63b8ff" points="258.89,-28.42 250.78,-21.6 252.87,-31.99 258.89,-28.42"/>
</a>
</g>
</g>
<!-- Node8 -->
<g id="Node000008" class="node">
<title>Node8</title>
<g id="a_Node000008"><a xlink:title=" ">
<polygon fill="#e0e0e0" stroke="#999999" points="334.12,-20 282.88,-20 282.88,0 334.12,0 334.12,-20"/>
<text text-anchor="middle" x="308.5" y="-6.5" font-family="Helvetica,sans-Serif" font-size="10.00">ostream</text>
</a>
</g>
</g>
<!-- Node5&#45;&gt;Node8 -->
<g id="edge7_Node000005_Node000008" class="edge">
<title>Node5&#45;&gt;Node8</title>
<g id="a_edge7_Node000005_Node000008"><a xlink:title=" ">
<path fill="none" stroke="#63b8ff" d="M282.07,-55.59C286.25,-48.55 292.1,-38.67 297.24,-30"/>
<polygon fill="#63b8ff" stroke="#63b8ff" points="300.13,-31.99 302.22,-21.6 294.11,-28.42 300.13,-31.99"/>
</a>
</g>
</g>
<!-- Node9 -->
<g id="Node000009" class="node">
<title>Node9</title>
<g id="a_Node000009"><a xlink:title=" ">
<polygon fill="#e0e0e0" stroke="#999999" points="390.38,-20 352.62,-20 352.62,0 390.38,0 390.38,-20"/>
<text text-anchor="middle" x="371.5" y="-6.5" font-family="Helvetica,sans-Serif" font-size="10.00">array</text>
</a>
</g>
</g>
<!-- Node5&#45;&gt;Node9 -->
<g id="edge8_Node000005_Node000009" class="edge">
<title>Node5&#45;&gt;Node9</title>
<g id="a_edge8_Node000005_Node000009"><a xlink:title=" ">
<path fill="none" stroke="#63b8ff" d="M293.05,-55.59C307.4,-47.44 328.43,-35.48 345.1,-26"/>
<polygon fill="#63b8ff" stroke="#63b8ff" points="346.54,-29.21 353.51,-21.23 343.08,-23.13 346.54,-29.21"/>
</a>
</g>
</g>
</g>
</svg>
