<?xml version="1.0" encoding="UTF-8" standalone="no"?>
<!DOCTYPE svg PUBLIC "-//W3C//DTD SVG 1.1//EN"
 "http://www.w3.org/Graphics/SVG/1.1/DTD/svg11.dtd">
<!-- Generated by graphviz version 12.1.0 (20240811.2233)
 -->
<!-- Title: ParticleSystem.cpp Pages: 1 -->
<svg width="437pt" height="196pt"
 viewBox="0.00 0.00 436.88 196.00" xmlns="http://www.w3.org/2000/svg" xmlns:xlink="http://www.w3.org/1999/xlink">
<g id="graph0" class="graph" transform="scale(1 1) rotate(0) translate(4 192)">
<title>ParticleSystem.cpp</title>
<!-- Node1 -->
<g id="Node000001" class="node">
<title>Node1</title>
<g id="a_Node000001"><a xlink:title=" ">
<polygon fill="#999999" stroke="#666666" points="339.75,-188 238.25,-188 238.25,-168 339.75,-168 339.75,-188"/>
<text text-anchor="middle" x="289" y="-174.5" font-family="Helvetica,sans-Serif" font-size="10.00">ParticleSystem.cpp</text>
</a>
</g>
</g>
<!-- Node2 -->
<g id="Node000002" class="node">
<title>Node2</title>
<g id="a_Node000002"><a xlink:href="ParticleSystem_8hpp.html" target="_top" xlink:title=" ">
<polygon fill="white" stroke="#666666" points="294.75,-132 193.25,-132 193.25,-112 294.75,-112 294.75,-132"/>
<text text-anchor="middle" x="244" y="-118.5" font-family="Helvetica,sans-Serif" font-size="10.00">ParticleSystem.hpp</text>
</a>
</g>
</g>
<!-- Node1&#45;&gt;Node2 -->
<g id="edge1_Node000001_Node000002" class="edge">
<title>Node1&#45;&gt;Node2</title>
<g id="a_edge1_Node000001_Node000002"><a xlink:title=" ">
<path fill="none" stroke="#63b8ff" d="M281.16,-167.59C275.03,-160.24 266.33,-149.8 258.89,-140.87"/>
<polygon fill="#63b8ff" stroke="#63b8ff" points="261.81,-138.9 252.72,-133.46 256.43,-143.38 261.81,-138.9"/>
</a>
</g>
</g>
<!-- Node8 -->
<g id="Node000008" class="node">
<title>Node8</title>
<g id="a_Node000008"><a xlink:href="Parameters_8hpp.html" target="_top" xlink:title=" ">
<polygon fill="white" stroke="#666666" points="175.5,-132 90.5,-132 90.5,-112 175.5,-112 175.5,-132"/>
<text text-anchor="middle" x="133" y="-118.5" font-family="Helvetica,sans-Serif" font-size="10.00">Parameters.hpp</text>
</a>
</g>
</g>
<!-- Node1&#45;&gt;Node8 -->
<g id="edge7_Node000001_Node000008" class="edge">
<title>Node1&#45;&gt;Node8</title>
<g id="a_edge7_Node000001_Node000008"><a xlink:title=" ">
<path fill="none" stroke="#63b8ff" d="M261.83,-167.59C236.7,-158.9 199.12,-145.89 171.02,-136.16"/>
<polygon fill="#63b8ff" stroke="#63b8ff" points="172.41,-132.94 161.82,-132.97 170.12,-139.55 172.41,-132.94"/>
</a>
</g>
</g>
<!-- Node10 -->
<g id="Node000010" class="node">
<title>Node10</title>
<g id="a_Node000010"><a xlink:title=" ">
<polygon fill="#e0e0e0" stroke="#999999" points="355.5,-132 312.5,-132 312.5,-112 355.5,-112 355.5,-132"/>
<text text-anchor="middle" x="334" y="-118.5" font-family="Helvetica,sans-Serif" font-size="10.00">cmath</text>
</a>
</g>
</g>
<!-- Node1&#45;&gt;Node10 -->
<g id="edge12_Node000001_Node000010" class="edge">
<title>Node1&#45;&gt;Node10</title>
<g id="a_edge12_Node000001_Node000010"><a xlink:title=" ">
<path fill="none" stroke="#63b8ff" d="M296.84,-167.59C302.97,-160.24 311.67,-149.8 319.11,-140.87"/>
<polygon fill="#63b8ff" stroke="#63b8ff" points="321.57,-143.38 325.28,-133.46 316.19,-138.9 321.57,-143.38"/>
</a>
</g>
</g>
<!-- Node11 -->
<g id="Node000011" class="node">
<title>Node11</title>
<g id="a_Node000011"><a xlink:title=" ">
<polygon fill="#e0e0e0" stroke="#999999" points="428.88,-132 373.12,-132 373.12,-112 428.88,-112 428.88,-132"/>
<text text-anchor="middle" x="401" y="-118.5" font-family="Helvetica,sans-Serif" font-size="10.00">algorithm</text>
</a>
</g>
</g>
<!-- Node1&#45;&gt;Node11 -->
<g id="edge13_Node000001_Node000011" class="edge">
<title>Node1&#45;&gt;Node11</title>
<g id="a_edge13_Node000001_Node000011"><a xlink:title=" ">
<path fill="none" stroke="#63b8ff" d="M308.51,-167.59C325.75,-159.28 351.16,-147.03 370.99,-137.47"/>
<polygon fill="#63b8ff" stroke="#63b8ff" points="372.49,-140.63 379.98,-133.14 369.45,-134.33 372.49,-140.63"/>
</a>
</g>
</g>
<!-- Node3 -->
<g id="Node000003" class="node">
<title>Node3</title>
<g id="a_Node000003"><a xlink:title=" ">
<polygon fill="#e0e0e0" stroke="#999999" points="161.5,-76 58.5,-76 58.5,-56 161.5,-56 161.5,-76"/>
<text text-anchor="middle" x="110" y="-62.5" font-family="Helvetica,sans-Serif" font-size="10.00">SFML/Graphics.hpp</text>
</a>
</g>
</g>
<!-- Node2&#45;&gt;Node3 -->
<g id="edge2_Node000002_Node000003" class="edge">
<title>Node2&#45;&gt;Node3</title>
<g id="a_edge2_Node000002_Node000003"><a xlink:title=" ">
<path fill="none" stroke="#63b8ff" d="M220.66,-111.59C199.46,-103.05 167.93,-90.35 143.95,-80.68"/>
<polygon fill="#63b8ff" stroke="#63b8ff" points="145.51,-77.54 134.93,-77.05 142.89,-84.03 145.51,-77.54"/>
</a>
</g>
</g>
<!-- Node4 -->
<g id="Node000004" class="node">
<title>Node4</title>
<g id="a_Node000004"><a xlink:title=" ">
<polygon fill="#e0e0e0" stroke="#999999" points="222.5,-76 179.5,-76 179.5,-56 222.5,-56 222.5,-76"/>
<text text-anchor="middle" x="201" y="-62.5" font-family="Helvetica,sans-Serif" font-size="10.00">vector</text>
</a>
</g>
</g>
<!-- Node2&#45;&gt;Node4 -->
<g id="edge3_Node000002_Node000004" class="edge">
<title>Node2&#45;&gt;Node4</title>
<g id="a_edge3_Node000002_Node000004"><a xlink:title=" ">
<path fill="none" stroke="#63b8ff" d="M236.51,-111.59C230.71,-104.32 222.51,-94.02 215.45,-85.15"/>
<polygon fill="#63b8ff" stroke="#63b8ff" points="218.31,-83.12 209.35,-77.48 212.84,-87.49 218.31,-83.12"/>
</a>
</g>
</g>
<!-- Node5 -->
<g id="Node000005" class="node">
<title>Node5</title>
<g id="a_Node000005"><a xlink:title=" ">
<polygon fill="#e0e0e0" stroke="#999999" points="362.12,-76 313.88,-76 313.88,-56 362.12,-56 362.12,-76"/>
<text text-anchor="middle" x="338" y="-62.5" font-family="Helvetica,sans-Serif" font-size="10.00">random</text>
</a>
</g>
</g>
<!-- Node2&#45;&gt;Node5 -->
<g id="edge4_Node000002_Node000005" class="edge">
<title>Node2&#45;&gt;Node5</title>
<g id="a_edge4_Node000002_Node000005"><a xlink:title=" ">
<path fill="none" stroke="#63b8ff" d="M260.37,-111.59C274.57,-103.44 295.38,-91.48 311.88,-82"/>
<polygon fill="#63b8ff" stroke="#63b8ff" points="313.26,-85.25 320.19,-77.23 309.77,-79.18 313.26,-85.25"/>
</a>
</g>
</g>
<!-- Node6 -->
<g id="Node000006" class="node">
<title>Node6</title>
<g id="a_Node000006"><a xlink:href="Utils_8hpp.html" target="_top" xlink:title=" ">
<polygon fill="white" stroke="#666666" points="295.5,-76 240.5,-76 240.5,-56 295.5,-56 295.5,-76"/>
<text text-anchor="middle" x="268" y="-62.5" font-family="Helvetica,sans-Serif" font-size="10.00">Utils.hpp</text>
</a>
</g>
</g>
<!-- Node2&#45;&gt;Node6 -->
<g id="edge5_Node000002_Node000006" class="edge">
<title>Node2&#45;&gt;Node6</title>
<g id="a_edge5_Node000002_Node000006"><a xlink:title=" ">
<path fill="none" stroke="#63b8ff" d="M248.18,-111.59C251.24,-104.7 255.51,-95.1 259.3,-86.57"/>
<polygon fill="#63b8ff" stroke="#63b8ff" points="262.39,-88.24 263.25,-77.68 255.99,-85.4 262.39,-88.24"/>
</a>
</g>
</g>
<!-- Node7 -->
<g id="Node000007" class="node">
<title>Node7</title>
<g id="a_Node000007"><a xlink:title=" ">
<polygon fill="#e0e0e0" stroke="#999999" points="290.62,-20 245.38,-20 245.38,0 290.62,0 290.62,-20"/>
<text text-anchor="middle" x="268" y="-6.5" font-family="Helvetica,sans-Serif" font-size="10.00">cstdint</text>
</a>
</g>
</g>
<!-- Node6&#45;&gt;Node7 -->
<g id="edge6_Node000006_Node000007" class="edge">
<title>Node6&#45;&gt;Node7</title>
<g id="a_edge6_Node000006_Node000007"><a xlink:title=" ">
<path fill="none" stroke="#63b8ff" d="M268,-55.59C268,-49.01 268,-39.96 268,-31.73"/>
<polygon fill="#63b8ff" stroke="#63b8ff" points="271.5,-31.81 268,-21.81 264.5,-31.81 271.5,-31.81"/>
</a>
</g>
</g>
<!-- Node8&#45;&gt;Node3 -->
<g id="edge8_Node000008_Node000003" class="edge">
<title>Node8&#45;&gt;Node3</title>
<g id="a_edge8_Node000008_Node000003"><a xlink:title=" ">
<path fill="none" stroke="#63b8ff" d="M128.99,-111.59C126.09,-104.78 122.06,-95.32 118.46,-86.86"/>
<polygon fill="#63b8ff" stroke="#63b8ff" points="121.69,-85.52 114.55,-77.69 115.25,-88.26 121.69,-85.52"/>
</a>
</g>
</g>
<!-- Node8&#45;&gt;Node4 -->
<g id="edge10_Node000008_Node000004" class="edge">
<title>Node8&#45;&gt;Node4</title>
<g id="a_edge10_Node000008_Node000004"><a xlink:title=" ">
<path fill="none" stroke="#63b8ff" d="M144.84,-111.59C154.69,-103.77 168.93,-92.46 180.61,-83.19"/>
<polygon fill="#63b8ff" stroke="#63b8ff" points="182.45,-86.2 188.11,-77.24 178.1,-80.72 182.45,-86.2"/>
</a>
</g>
</g>
<!-- Node8&#45;&gt;Node6 -->
<g id="edge11_Node000008_Node000006" class="edge">
<title>Node8&#45;&gt;Node6</title>
<g id="a_edge11_Node000008_Node000006"><a xlink:title=" ">
<path fill="none" stroke="#63b8ff" d="M156.52,-111.59C177.87,-103.05 209.63,-90.35 233.8,-80.68"/>
<polygon fill="#63b8ff" stroke="#63b8ff" points="234.91,-84.01 242.9,-77.04 232.31,-77.51 234.91,-84.01"/>
</a>
</g>
</g>
<!-- Node9 -->
<g id="Node000009" class="node">
<title>Node9</title>
<g id="a_Node000009"><a xlink:title=" ">
<polygon fill="#e0e0e0" stroke="#999999" points="40,-76 0,-76 0,-56 40,-56 40,-76"/>
<text text-anchor="middle" x="20" y="-62.5" font-family="Helvetica,sans-Serif" font-size="10.00">string</text>
</a>
</g>
</g>
<!-- Node8&#45;&gt;Node9 -->
<g id="edge9_Node000008_Node000009" class="edge">
<title>Node8&#45;&gt;Node9</title>
<g id="a_edge9_Node000008_Node000009"><a xlink:title=" ">
<path fill="none" stroke="#63b8ff" d="M113.32,-111.59C95.84,-103.24 70.05,-90.92 50,-81.34"/>
<polygon fill="#63b8ff" stroke="#63b8ff" points="51.73,-78.29 41.2,-77.13 48.72,-84.6 51.73,-78.29"/>
</a>
</g>
</g>
</g>
</svg>
