<?xml version="1.0" encoding="UTF-8" standalone="no"?>
<!DOCTYPE svg PUBLIC "-//W3C//DTD SVG 1.1//EN"
 "http://www.w3.org/Graphics/SVG/1.1/DTD/svg11.dtd">
<!-- Generated by graphviz version 12.1.0 (20240811.2233)
 -->
<!-- Title: ParticleSystem.cpp Pages: 1 -->
<svg width="404pt" height="140pt"
 viewBox="0.00 0.00 403.88 140.00" xmlns="http://www.w3.org/2000/svg" xmlns:xlink="http://www.w3.org/1999/xlink">
<g id="graph0" class="graph" transform="scale(1 1) rotate(0) translate(4 136)">
<title>ParticleSystem.cpp</title>
<!-- Node1 -->
<g id="Node000001" class="node">
<title>Node1</title>
<g id="a_Node000001"><a xlink:title=" ">
<polygon fill="#999999" stroke="#666666" points="306.75,-132 205.25,-132 205.25,-112 306.75,-112 306.75,-132"/>
<text text-anchor="middle" x="256" y="-118.5" font-family="Helvetica,sans-Serif" font-size="10.00">ParticleSystem.cpp</text>
</a>
</g>
</g>
<!-- Node2 -->
<g id="Node000002" class="node">
<title>Node2</title>
<g id="a_Node000002"><a xlink:href="ParticleSystem_8hpp.html" target="_top" xlink:title=" ">
<polygon fill="white" stroke="#666666" points="261.75,-76 160.25,-76 160.25,-56 261.75,-56 261.75,-76"/>
<text text-anchor="middle" x="211" y="-62.5" font-family="Helvetica,sans-Serif" font-size="10.00">ParticleSystem.hpp</text>
</a>
</g>
</g>
<!-- Node1&#45;&gt;Node2 -->
<g id="edge1_Node000001_Node000002" class="edge">
<title>Node1&#45;&gt;Node2</title>
<g id="a_edge1_Node000001_Node000002"><a xlink:title=" ">
<path fill="none" stroke="#63b8ff" d="M248.16,-111.59C242.03,-104.24 233.33,-93.8 225.89,-84.87"/>
<polygon fill="#63b8ff" stroke="#63b8ff" points="228.81,-82.9 219.72,-77.46 223.43,-87.38 228.81,-82.9"/>
</a>
</g>
</g>
<!-- Node6 -->
<g id="Node000006" class="node">
<title>Node6</title>
<g id="a_Node000006"><a xlink:href="Parameters_8hpp.html" target="_top" xlink:title=" ">
<polygon fill="white" stroke="#666666" points="142.5,-76 57.5,-76 57.5,-56 142.5,-56 142.5,-76"/>
<text text-anchor="middle" x="100" y="-62.5" font-family="Helvetica,sans-Serif" font-size="10.00">Parameters.hpp</text>
</a>
</g>
</g>
<!-- Node1&#45;&gt;Node6 -->
<g id="edge5_Node000001_Node000006" class="edge">
<title>Node1&#45;&gt;Node6</title>
<g id="a_edge5_Node000001_Node000006"><a xlink:title=" ">
<path fill="none" stroke="#63b8ff" d="M228.83,-111.59C203.7,-102.9 166.12,-89.89 138.02,-80.16"/>
<polygon fill="#63b8ff" stroke="#63b8ff" points="139.41,-76.94 128.82,-76.97 137.12,-83.55 139.41,-76.94"/>
</a>
</g>
</g>
<!-- Node8 -->
<g id="Node000008" class="node">
<title>Node8</title>
<g id="a_Node000008"><a xlink:title=" ">
<polygon fill="#e0e0e0" stroke="#999999" points="322.5,-76 279.5,-76 279.5,-56 322.5,-56 322.5,-76"/>
<text text-anchor="middle" x="301" y="-62.5" font-family="Helvetica,sans-Serif" font-size="10.00">cmath</text>
</a>
</g>
</g>
<!-- Node1&#45;&gt;Node8 -->
<g id="edge9_Node000001_Node000008" class="edge">
<title>Node1&#45;&gt;Node8</title>
<g id="a_edge9_Node000001_Node000008"><a xlink:title=" ">
<path fill="none" stroke="#63b8ff" d="M263.84,-111.59C269.97,-104.24 278.67,-93.8 286.11,-84.87"/>
<polygon fill="#63b8ff" stroke="#63b8ff" points="288.57,-87.38 292.28,-77.46 283.19,-82.9 288.57,-87.38"/>
</a>
</g>
</g>
<!-- Node9 -->
<g id="Node000009" class="node">
<title>Node9</title>
<g id="a_Node000009"><a xlink:title=" ">
<polygon fill="#e0e0e0" stroke="#999999" points="395.88,-76 340.12,-76 340.12,-56 395.88,-56 395.88,-76"/>
<text text-anchor="middle" x="368" y="-62.5" font-family="Helvetica,sans-Serif" font-size="10.00">algorithm</text>
</a>
</g>
</g>
<!-- Node1&#45;&gt;Node9 -->
<g id="edge10_Node000001_Node000009" class="edge">
<title>Node1&#45;&gt;Node9</title>
<g id="a_edge10_Node000001_Node000009"><a xlink:title=" ">
<path fill="none" stroke="#63b8ff" d="M275.51,-111.59C292.75,-103.28 318.16,-91.03 337.99,-81.47"/>
<polygon fill="#63b8ff" stroke="#63b8ff" points="339.49,-84.63 346.98,-77.14 336.45,-78.33 339.49,-84.63"/>
</a>
</g>
</g>
<!-- Node3 -->
<g id="Node000003" class="node">
<title>Node3</title>
<g id="a_Node000003"><a xlink:title=" ">
<polygon fill="#e0e0e0" stroke="#999999" points="161.5,-20 58.5,-20 58.5,0 161.5,0 161.5,-20"/>
<text text-anchor="middle" x="110" y="-6.5" font-family="Helvetica,sans-Serif" font-size="10.00">SFML/Graphics.hpp</text>
</a>
</g>
</g>
<!-- Node2&#45;&gt;Node3 -->
<g id="edge2_Node000002_Node000003" class="edge">
<title>Node2&#45;&gt;Node3</title>
<g id="a_edge2_Node000002_Node000003"><a xlink:title=" ">
<path fill="none" stroke="#63b8ff" d="M193.41,-55.59C178.08,-47.4 155.58,-35.37 137.81,-25.87"/>
<polygon fill="#63b8ff" stroke="#63b8ff" points="139.53,-22.82 129.06,-21.19 136.23,-28.99 139.53,-22.82"/>
</a>
</g>
</g>
<!-- Node4 -->
<g id="Node000004" class="node">
<title>Node4</title>
<g id="a_Node000004"><a xlink:title=" ">
<polygon fill="#e0e0e0" stroke="#999999" points="222.5,-20 179.5,-20 179.5,0 222.5,0 222.5,-20"/>
<text text-anchor="middle" x="201" y="-6.5" font-family="Helvetica,sans-Serif" font-size="10.00">vector</text>
</a>
</g>
</g>
<!-- Node2&#45;&gt;Node4 -->
<g id="edge3_Node000002_Node000004" class="edge">
<title>Node2&#45;&gt;Node4</title>
<g id="a_edge3_Node000002_Node000004"><a xlink:title=" ">
<path fill="none" stroke="#63b8ff" d="M209.26,-55.59C208.02,-48.93 206.32,-39.75 204.79,-31.44"/>
<polygon fill="#63b8ff" stroke="#63b8ff" points="208.26,-30.98 203,-21.79 201.38,-32.26 208.26,-30.98"/>
</a>
</g>
</g>
<!-- Node5 -->
<g id="Node000005" class="node">
<title>Node5</title>
<g id="a_Node000005"><a xlink:title=" ">
<polygon fill="#e0e0e0" stroke="#999999" points="289.12,-20 240.88,-20 240.88,0 289.12,0 289.12,-20"/>
<text text-anchor="middle" x="265" y="-6.5" font-family="Helvetica,sans-Serif" font-size="10.00">random</text>
</a>
</g>
</g>
<!-- Node2&#45;&gt;Node5 -->
<g id="edge4_Node000002_Node000005" class="edge">
<title>Node2&#45;&gt;Node5</title>
<g id="a_edge4_Node000002_Node000005"><a xlink:title=" ">
<path fill="none" stroke="#63b8ff" d="M220.41,-55.59C227.92,-48.08 238.65,-37.35 247.7,-28.3"/>
<polygon fill="#63b8ff" stroke="#63b8ff" points="250.04,-30.91 254.63,-21.37 245.09,-25.96 250.04,-30.91"/>
</a>
</g>
</g>
<!-- Node6&#45;&gt;Node3 -->
<g id="edge6_Node000006_Node000003" class="edge">
<title>Node6&#45;&gt;Node3</title>
<g id="a_edge6_Node000006_Node000003"><a xlink:title=" ">
<path fill="none" stroke="#63b8ff" d="M101.74,-55.59C102.98,-48.93 104.68,-39.75 106.21,-31.44"/>
<polygon fill="#63b8ff" stroke="#63b8ff" points="109.62,-32.26 108,-21.79 102.74,-30.98 109.62,-32.26"/>
</a>
</g>
</g>
<!-- Node6&#45;&gt;Node4 -->
<g id="edge8_Node000006_Node000004" class="edge">
<title>Node6&#45;&gt;Node4</title>
<g id="a_edge8_Node000006_Node000004"><a xlink:title=" ">
<path fill="none" stroke="#63b8ff" d="M117.59,-55.59C132.92,-47.4 155.42,-35.37 173.19,-25.87"/>
<polygon fill="#63b8ff" stroke="#63b8ff" points="174.77,-28.99 181.94,-21.19 171.47,-22.82 174.77,-28.99"/>
</a>
</g>
</g>
<!-- Node7 -->
<g id="Node000007" class="node">
<title>Node7</title>
<g id="a_Node000007"><a xlink:title=" ">
<polygon fill="#e0e0e0" stroke="#999999" points="40,-20 0,-20 0,0 40,0 40,-20"/>
<text text-anchor="middle" x="20" y="-6.5" font-family="Helvetica,sans-Serif" font-size="10.00">string</text>
</a>
</g>
</g>
<!-- Node6&#45;&gt;Node7 -->
<g id="edge7_Node000006_Node000007" class="edge">
<title>Node6&#45;&gt;Node7</title>
<g id="a_edge7_Node000006_Node000007"><a xlink:title=" ">
<path fill="none" stroke="#63b8ff" d="M86.07,-55.59C74.32,-47.67 57.27,-36.16 43.43,-26.82"/>
<polygon fill="#63b8ff" stroke="#63b8ff" points="45.54,-24.02 35.3,-21.33 41.63,-29.82 45.54,-24.02"/>
</a>
</g>
</g>
</g>
</svg>
