<?xml version="1.0" encoding="UTF-8" standalone="no"?>
<!DOCTYPE svg PUBLIC "-//W3C//DTD SVG 1.1//EN"
 "http://www.w3.org/Graphics/SVG/1.1/DTD/svg11.dtd">
<!-- Generated by graphviz version 12.1.0 (20240811.2233)
 -->
<!-- Title: Physics.hpp Pages: 1 -->
<svg width="1001pt" height="308pt"
 viewBox="0.00 0.00 1000.88 308.00" xmlns="http://www.w3.org/2000/svg" xmlns:xlink="http://www.w3.org/1999/xlink">
<g id="graph0" class="graph" transform="scale(1 1) rotate(0) translate(4 304)">
<title>Physics.hpp</title>
<!-- Node1 -->
<g id="Node000001" class="node">
<title>Node1</title>
<g id="a_Node000001"><a xlink:title=" ">
<polygon fill="#999999" stroke="#666666" points="595.88,-300 525.88,-300 525.88,-280 595.88,-280 595.88,-300"/>
<text text-anchor="middle" x="560.88" y="-286.5" font-family="Helvetica,sans-Serif" font-size="10.00">Physics.hpp</text>
</a>
</g>
</g>
<!-- Node2 -->
<g id="Node000002" class="node">
<title>Node2</title>
<g id="a_Node000002"><a xlink:title=" ">
<polygon fill="#e0e0e0" stroke="#999999" points="291.5,-132 240.25,-132 240.25,-112 291.5,-112 291.5,-132"/>
<text text-anchor="middle" x="265.88" y="-118.5" font-family="Helvetica,sans-Serif" font-size="10.00">memory</text>
</a>
</g>
</g>
<!-- Node1&#45;&gt;Node2 -->
<g id="edge1_Node000001_Node000002" class="edge">
<title>Node1&#45;&gt;Node2</title>
<g id="a_edge1_Node000001_Node000002"><a xlink:title=" ">
<path fill="none" stroke="#63b8ff" d="M525.51,-286.27C466.69,-279.8 348.82,-258.32 283.88,-188 272.69,-175.89 268.37,-157.45 266.74,-143.29"/>
<polygon fill="#63b8ff" stroke="#63b8ff" points="270.26,-143.44 266.01,-133.74 263.28,-143.98 270.26,-143.44"/>
</a>
</g>
</g>
<!-- Node3 -->
<g id="Node000003" class="node">
<title>Node3</title>
<g id="a_Node000003"><a xlink:href="System_8hpp.html" target="_top" xlink:title=" ">
<polygon fill="white" stroke="#666666" points="222.12,-132 153.62,-132 153.62,-112 222.12,-112 222.12,-132"/>
<text text-anchor="middle" x="187.88" y="-118.5" font-family="Helvetica,sans-Serif" font-size="10.00">System.hpp</text>
</a>
</g>
</g>
<!-- Node1&#45;&gt;Node3 -->
<g id="edge2_Node000001_Node000003" class="edge">
<title>Node1&#45;&gt;Node3</title>
<g id="a_edge2_Node000001_Node000003"><a xlink:title=" ">
<path fill="none" stroke="#63b8ff" d="M525.54,-287.81C478.29,-285 392.93,-275.56 327.88,-244 275.13,-218.41 226.44,-167.82 202.83,-140.87"/>
<polygon fill="#63b8ff" stroke="#63b8ff" points="205.72,-138.86 196.55,-133.56 200.41,-143.42 205.72,-138.86"/>
</a>
</g>
</g>
<!-- Node8 -->
<g id="Node000008" class="node">
<title>Node8</title>
<g id="a_Node000008"><a xlink:href="Mediator_8hpp.html" target="_top" xlink:title=" ">
<polygon fill="white" stroke="#666666" points="536,-244 463.75,-244 463.75,-224 536,-224 536,-244"/>
<text text-anchor="middle" x="499.88" y="-230.5" font-family="Helvetica,sans-Serif" font-size="10.00">Mediator.hpp</text>
</a>
</g>
</g>
<!-- Node1&#45;&gt;Node8 -->
<g id="edge7_Node000001_Node000008" class="edge">
<title>Node1&#45;&gt;Node8</title>
<g id="a_edge7_Node000001_Node000008"><a xlink:title=" ">
<path fill="none" stroke="#63b8ff" d="M550.25,-279.59C541.59,-271.93 529.14,-260.91 518.79,-251.75"/>
<polygon fill="#63b8ff" stroke="#63b8ff" points="521.32,-249.31 511.51,-245.3 516.68,-254.55 521.32,-249.31"/>
</a>
</g>
</g>
<!-- Node26 -->
<g id="Node000026" class="node">
<title>Node26</title>
<g id="a_Node000026"><a xlink:href="RigidBody_8hpp.html" target="_top" xlink:title=" ">
<polygon fill="white" stroke="#666666" points="693.62,-244 556.12,-244 556.12,-224 693.62,-224 693.62,-244"/>
<text text-anchor="middle" x="624.88" y="-230.5" font-family="Helvetica,sans-Serif" font-size="10.00">Components/RigidBody.hpp</text>
</a>
</g>
</g>
<!-- Node1&#45;&gt;Node26 -->
<g id="edge40_Node000001_Node000026" class="edge">
<title>Node1&#45;&gt;Node26</title>
<g id="a_edge40_Node000001_Node000026"><a xlink:title=" ">
<path fill="none" stroke="#63b8ff" d="M572.02,-279.59C581.2,-271.85 594.43,-260.69 605.36,-251.47"/>
<polygon fill="#63b8ff" stroke="#63b8ff" points="607.31,-254.4 612.7,-245.27 602.8,-249.05 607.31,-254.4"/>
</a>
</g>
</g>
<!-- Node28 -->
<g id="Node000028" class="node">
<title>Node28</title>
<g id="a_Node000028"><a xlink:href="Transform_8hpp.html" target="_top" xlink:title=" ">
<polygon fill="white" stroke="#666666" points="850.62,-244 713.12,-244 713.12,-224 850.62,-224 850.62,-244"/>
<text text-anchor="middle" x="781.88" y="-230.5" font-family="Helvetica,sans-Serif" font-size="10.00">Components/Transform.hpp</text>
</a>
</g>
</g>
<!-- Node1&#45;&gt;Node28 -->
<g id="edge43_Node000001_Node000028" class="edge">
<title>Node1&#45;&gt;Node28</title>
<g id="a_edge43_Node000001_Node000028"><a xlink:title=" ">
<path fill="none" stroke="#63b8ff" d="M595.89,-280.44C632.68,-271.45 690.86,-257.24 732.35,-247.1"/>
<polygon fill="#63b8ff" stroke="#63b8ff" points="732.95,-250.56 741.84,-244.78 731.29,-243.76 732.95,-250.56"/>
</a>
</g>
</g>
<!-- Node29 -->
<g id="Node000029" class="node">
<title>Node29</title>
<g id="a_Node000029"><a xlink:href="Gravity_8hpp.html" target="_top" xlink:title=" ">
<polygon fill="white" stroke="#666666" points="992.88,-244 868.88,-244 868.88,-224 992.88,-224 992.88,-244"/>
<text text-anchor="middle" x="930.88" y="-230.5" font-family="Helvetica,sans-Serif" font-size="10.00">Components/Gravity.hpp</text>
</a>
</g>
</g>
<!-- Node1&#45;&gt;Node29 -->
<g id="edge45_Node000001_Node000029" class="edge">
<title>Node1&#45;&gt;Node29</title>
<g id="a_edge45_Node000001_Node000029"><a xlink:title=" ">
<path fill="none" stroke="#63b8ff" d="M596.35,-283.82C656.17,-275.09 778.3,-257.27 857.27,-245.74"/>
<polygon fill="#63b8ff" stroke="#63b8ff" points="857.71,-249.22 867.1,-244.31 856.7,-242.29 857.71,-249.22"/>
</a>
</g>
</g>
<!-- Node4 -->
<g id="Node000004" class="node">
<title>Node4</title>
<g id="a_Node000004"><a xlink:title=" ">
<polygon fill="#e0e0e0" stroke="#999999" points="202.62,-76 173.12,-76 173.12,-56 202.62,-56 202.62,-76"/>
<text text-anchor="middle" x="187.88" y="-62.5" font-family="Helvetica,sans-Serif" font-size="10.00">set</text>
</a>
</g>
</g>
<!-- Node3&#45;&gt;Node4 -->
<g id="edge3_Node000003_Node000004" class="edge">
<title>Node3&#45;&gt;Node4</title>
<g id="a_edge3_Node000003_Node000004"><a xlink:title=" ">
<path fill="none" stroke="#63b8ff" d="M187.88,-111.59C187.88,-105.01 187.88,-95.96 187.88,-87.73"/>
<polygon fill="#63b8ff" stroke="#63b8ff" points="191.38,-87.81 187.88,-77.81 184.38,-87.81 191.38,-87.81"/>
</a>
</g>
</g>
<!-- Node5 -->
<g id="Node000005" class="node">
<title>Node5</title>
<g id="a_Node000005"><a xlink:href="Entity_8hpp.html" target="_top" xlink:title=" ">
<polygon fill="white" stroke="#666666" points="406.62,-76 347.12,-76 347.12,-56 406.62,-56 406.62,-76"/>
<text text-anchor="middle" x="376.88" y="-62.5" font-family="Helvetica,sans-Serif" font-size="10.00">Entity.hpp</text>
</a>
</g>
</g>
<!-- Node3&#45;&gt;Node5 -->
<g id="edge4_Node000003_Node000005" class="edge">
<title>Node3&#45;&gt;Node5</title>
<g id="a_edge4_Node000003_Node000005"><a xlink:title=" ">
<path fill="none" stroke="#63b8ff" d="M220.8,-111.59C252.86,-102.43 301.68,-88.48 336.17,-78.63"/>
<polygon fill="#63b8ff" stroke="#63b8ff" points="336.71,-82.11 345.37,-76 334.79,-75.38 336.71,-82.11"/>
</a>
</g>
</g>
<!-- Node6 -->
<g id="Node000006" class="node">
<title>Node6</title>
<g id="a_Node000006"><a xlink:title=" ">
<polygon fill="#e0e0e0" stroke="#999999" points="906.5,-20 861.25,-20 861.25,0 906.5,0 906.5,-20"/>
<text text-anchor="middle" x="883.88" y="-6.5" font-family="Helvetica,sans-Serif" font-size="10.00">cstdint</text>
</a>
</g>
</g>
<!-- Node5&#45;&gt;Node6 -->
<g id="edge5_Node000005_Node000006" class="edge">
<title>Node5&#45;&gt;Node6</title>
<g id="a_edge5_Node000005_Node000006"><a xlink:title=" ">
<path fill="none" stroke="#63b8ff" d="M407.03,-57.63C410.01,-57.03 412.99,-56.47 415.88,-56 576.85,-29.8 771.64,-17.09 849.4,-12.77"/>
<polygon fill="#63b8ff" stroke="#63b8ff" points="849.54,-16.26 859.34,-12.23 849.16,-9.27 849.54,-16.26"/>
</a>
</g>
</g>
<!-- Node7 -->
<g id="Node000007" class="node">
<title>Node7</title>
<g id="a_Node000007"><a xlink:title=" ">
<polygon fill="#e0e0e0" stroke="#999999" points="396.88,-20 356.88,-20 356.88,0 396.88,0 396.88,-20"/>
<text text-anchor="middle" x="376.88" y="-6.5" font-family="Helvetica,sans-Serif" font-size="10.00">bitset</text>
</a>
</g>
</g>
<!-- Node5&#45;&gt;Node7 -->
<g id="edge6_Node000005_Node000007" class="edge">
<title>Node5&#45;&gt;Node7</title>
<g id="a_edge6_Node000005_Node000007"><a xlink:title=" ">
<path fill="none" stroke="#63b8ff" d="M376.88,-55.59C376.88,-49.01 376.88,-39.96 376.88,-31.73"/>
<polygon fill="#63b8ff" stroke="#63b8ff" points="380.38,-31.81 376.88,-21.81 373.38,-31.81 380.38,-31.81"/>
</a>
</g>
</g>
<!-- Node8&#45;&gt;Node2 -->
<g id="edge9_Node000008_Node000002" class="edge">
<title>Node8&#45;&gt;Node2</title>
<g id="a_edge9_Node000008_Node000002"><a xlink:title=" ">
<path fill="none" stroke="#63b8ff" d="M463.58,-232.73C421.84,-230.7 353.03,-221.92 305.88,-188 290.26,-176.77 279.49,-157.37 273.09,-142.68"/>
<polygon fill="#63b8ff" stroke="#63b8ff" points="276.41,-141.55 269.45,-133.56 269.91,-144.15 276.41,-141.55"/>
</a>
</g>
</g>
<!-- Node9 -->
<g id="Node000009" class="node">
<title>Node9</title>
<g id="a_Node000009"><a xlink:title=" ">
<polygon fill="#e0e0e0" stroke="#999999" points="630.62,-76 577.12,-76 577.12,-56 630.62,-56 630.62,-76"/>
<text text-anchor="middle" x="603.88" y="-62.5" font-family="Helvetica,sans-Serif" font-size="10.00">iostream</text>
</a>
</g>
</g>
<!-- Node8&#45;&gt;Node9 -->
<g id="edge8_Node000008_Node000009" class="edge">
<title>Node8&#45;&gt;Node9</title>
<g id="a_edge8_Node000008_Node000009"><a xlink:title=" ">
<path fill="none" stroke="#63b8ff" d="M536.29,-225.89C539.86,-225.23 543.44,-224.59 546.88,-224 599.16,-215.01 743.65,-223.72 782.88,-188 808.27,-164.88 818.28,-138.86 796.88,-112 754.45,-58.74 713.67,-89.32 642.24,-76.22"/>
<polygon fill="#63b8ff" stroke="#63b8ff" points="642.98,-72.8 632.47,-74.15 641.53,-79.65 642.98,-72.8"/>
</a>
</g>
</g>
<!-- Node10 -->
<g id="Node000010" class="node">
<title>Node10</title>
<g id="a_Node000010"><a xlink:title=" ">
<polygon fill="#e0e0e0" stroke="#999999" points="885.38,-188 842.38,-188 842.38,-168 885.38,-168 885.38,-188"/>
<text text-anchor="middle" x="863.88" y="-174.5" font-family="Helvetica,sans-Serif" font-size="10.00">vector</text>
</a>
</g>
</g>
<!-- Node8&#45;&gt;Node10 -->
<g id="edge10_Node000008_Node000010" class="edge">
<title>Node8&#45;&gt;Node10</title>
<g id="a_edge10_Node000008_Node000010"><a xlink:title=" ">
<path fill="none" stroke="#63b8ff" d="M536.27,-225.8C539.85,-225.16 543.43,-224.55 546.88,-224 671.21,-204.15 704.14,-211.31 827.88,-188 828.87,-187.81 829.88,-187.61 830.9,-187.41"/>
<polygon fill="#63b8ff" stroke="#63b8ff" points="831.42,-190.88 840.4,-185.27 829.88,-184.05 831.42,-190.88"/>
</a>
</g>
</g>
<!-- Node11 -->
<g id="Node000011" class="node">
<title>Node11</title>
<g id="a_Node000011"><a xlink:href="EntityManager_8hpp.html" target="_top" xlink:title=" ">
<polygon fill="white" stroke="#666666" points="150.75,-188 53,-188 53,-168 150.75,-168 150.75,-188"/>
<text text-anchor="middle" x="101.88" y="-174.5" font-family="Helvetica,sans-Serif" font-size="10.00">EntityManager.hpp</text>
</a>
</g>
</g>
<!-- Node8&#45;&gt;Node11 -->
<g id="edge11_Node000008_Node000011" class="edge">
<title>Node8&#45;&gt;Node11</title>
<g id="a_edge11_Node000008_Node000011"><a xlink:title=" ">
<path fill="none" stroke="#63b8ff" d="M463.5,-228.06C395.05,-218.78 246.44,-198.61 162.6,-187.24"/>
<polygon fill="#63b8ff" stroke="#63b8ff" points="163.09,-183.77 152.71,-185.9 162.15,-190.71 163.09,-183.77"/>
</a>
</g>
</g>
<!-- Node14 -->
<g id="Node000014" class="node">
<title>Node14</title>
<g id="a_Node000014"><a xlink:href="ComponentManager_8hpp.html" target="_top" xlink:title=" ">
<polygon fill="white" stroke="#666666" points="561.12,-188 438.62,-188 438.62,-168 561.12,-168 561.12,-188"/>
<text text-anchor="middle" x="499.88" y="-174.5" font-family="Helvetica,sans-Serif" font-size="10.00">ComponentManager.hpp</text>
</a>
</g>
</g>
<!-- Node8&#45;&gt;Node14 -->
<g id="edge15_Node000008_Node000014" class="edge">
<title>Node8&#45;&gt;Node14</title>
<g id="a_edge15_Node000008_Node000014"><a xlink:title=" ">
<path fill="none" stroke="#63b8ff" d="M499.88,-223.59C499.88,-217.01 499.88,-207.96 499.88,-199.73"/>
<polygon fill="#63b8ff" stroke="#63b8ff" points="503.38,-199.81 499.88,-189.81 496.38,-199.81 503.38,-199.81"/>
</a>
</g>
</g>
<!-- Node20 -->
<g id="Node000020" class="node">
<title>Node20</title>
<g id="a_Node000020"><a xlink:href="SystemManager_8hpp.html" target="_top" xlink:title=" ">
<polygon fill="white" stroke="#666666" points="420.88,-188 314.88,-188 314.88,-168 420.88,-168 420.88,-188"/>
<text text-anchor="middle" x="367.88" y="-174.5" font-family="Helvetica,sans-Serif" font-size="10.00">SystemManager.hpp</text>
</a>
</g>
</g>
<!-- Node8&#45;&gt;Node20 -->
<g id="edge27_Node000008_Node000020" class="edge">
<title>Node8&#45;&gt;Node20</title>
<g id="a_edge27_Node000008_Node000020"><a xlink:title=" ">
<path fill="none" stroke="#63b8ff" d="M476.88,-223.59C456.09,-215.09 425.22,-202.46 401.64,-192.81"/>
<polygon fill="#63b8ff" stroke="#63b8ff" points="403.03,-189.6 392.45,-189.05 400.38,-196.08 403.03,-189.6"/>
</a>
</g>
</g>
<!-- Node21 -->
<g id="Node000021" class="node">
<title>Node21</title>
<g id="a_Node000021"><a xlink:href="EventManager_8hpp.html" target="_top" xlink:title=" ">
<polygon fill="white" stroke="#666666" points="773.75,-188 676,-188 676,-168 773.75,-168 773.75,-188"/>
<text text-anchor="middle" x="724.88" y="-174.5" font-family="Helvetica,sans-Serif" font-size="10.00">EventManager.hpp</text>
</a>
</g>
</g>
<!-- Node8&#45;&gt;Node21 -->
<g id="edge33_Node000008_Node000021" class="edge">
<title>Node8&#45;&gt;Node21</title>
<g id="a_edge33_Node000008_Node000021"><a xlink:title=" ">
<path fill="none" stroke="#63b8ff" d="M536.28,-224.26C573.76,-215.27 632.46,-201.18 674.41,-191.11"/>
<polygon fill="#63b8ff" stroke="#63b8ff" points="675.12,-194.54 684.03,-188.8 673.49,-187.73 675.12,-194.54"/>
</a>
</g>
</g>
<!-- Node11&#45;&gt;Node5 -->
<g id="edge14_Node000011_Node000005" class="edge">
<title>Node11&#45;&gt;Node5</title>
<g id="a_edge14_Node000011_Node000005"><a xlink:title=" ">
<path fill="none" stroke="#63b8ff" d="M105.25,-167.75C111.02,-153.36 124.17,-125.83 144.88,-112 175.52,-91.53 277.38,-77.63 335.43,-71.16"/>
<polygon fill="#63b8ff" stroke="#63b8ff" points="335.7,-74.65 345.26,-70.09 334.94,-67.69 335.7,-74.65"/>
</a>
</g>
</g>
<!-- Node12 -->
<g id="Node000012" class="node">
<title>Node12</title>
<g id="a_Node000012"><a xlink:title=" ">
<polygon fill="#e0e0e0" stroke="#999999" points="98,-132 55.75,-132 55.75,-112 98,-112 98,-132"/>
<text text-anchor="middle" x="76.88" y="-118.5" font-family="Helvetica,sans-Serif" font-size="10.00">queue</text>
</a>
</g>
</g>
<!-- Node11&#45;&gt;Node12 -->
<g id="edge12_Node000011_Node000012" class="edge">
<title>Node11&#45;&gt;Node12</title>
<g id="a_edge12_Node000011_Node000012"><a xlink:title=" ">
<path fill="none" stroke="#63b8ff" d="M97.52,-167.59C94.33,-160.7 89.89,-151.1 85.94,-142.57"/>
<polygon fill="#63b8ff" stroke="#63b8ff" points="89.19,-141.28 81.82,-133.67 82.84,-144.22 89.19,-141.28"/>
</a>
</g>
</g>
<!-- Node13 -->
<g id="Node000013" class="node">
<title>Node13</title>
<g id="a_Node000013"><a xlink:title=" ">
<polygon fill="#e0e0e0" stroke="#999999" points="37.75,-132 0,-132 0,-112 37.75,-112 37.75,-132"/>
<text text-anchor="middle" x="18.88" y="-118.5" font-family="Helvetica,sans-Serif" font-size="10.00">array</text>
</a>
</g>
</g>
<!-- Node11&#45;&gt;Node13 -->
<g id="edge13_Node000011_Node000013" class="edge">
<title>Node11&#45;&gt;Node13</title>
<g id="a_edge13_Node000011_Node000013"><a xlink:title=" ">
<path fill="none" stroke="#63b8ff" d="M87.42,-167.59C75.12,-159.59 57.2,-147.93 42.77,-138.54"/>
<polygon fill="#63b8ff" stroke="#63b8ff" points="45,-135.82 34.71,-133.3 41.19,-141.69 45,-135.82"/>
</a>
</g>
</g>
<!-- Node14&#45;&gt;Node2 -->
<g id="edge18_Node000014_Node000002" class="edge">
<title>Node14&#45;&gt;Node2</title>
<g id="a_edge18_Node000014_Node000002"><a xlink:title=" ">
<path fill="none" stroke="#63b8ff" d="M458.85,-167.53C414.78,-157.36 345.39,-141.35 302.93,-131.55"/>
<polygon fill="#63b8ff" stroke="#63b8ff" points="303.97,-128.2 293.44,-129.36 302.4,-135.02 303.97,-128.2"/>
</a>
</g>
</g>
<!-- Node14&#45;&gt;Node5 -->
<g id="edge20_Node000014_Node000005" class="edge">
<title>Node14&#45;&gt;Node5</title>
<g id="a_edge20_Node000014_Node000005"><a xlink:title=" ">
<path fill="none" stroke="#63b8ff" d="M489.39,-167.62C468.6,-149.03 421.92,-107.28 395.69,-83.82"/>
<polygon fill="#63b8ff" stroke="#63b8ff" points="398.25,-81.42 388.46,-77.36 393.58,-86.64 398.25,-81.42"/>
</a>
</g>
</g>
<!-- Node15 -->
<g id="Node000015" class="node">
<title>Node15</title>
<g id="a_Node000015"><a xlink:title=" ">
<polygon fill="#e0e0e0" stroke="#999999" points="731.25,-76 648.5,-76 648.5,-56 731.25,-56 731.25,-76"/>
<text text-anchor="middle" x="689.88" y="-62.5" font-family="Helvetica,sans-Serif" font-size="10.00">unordered_map</text>
</a>
</g>
</g>
<!-- Node14&#45;&gt;Node15 -->
<g id="edge16_Node000014_Node000015" class="edge">
<title>Node14&#45;&gt;Node15</title>
<g id="a_edge16_Node000014_Node000015"><a xlink:title=" ">
<path fill="none" stroke="#63b8ff" d="M545.88,-167.51C572.53,-160.55 605.84,-149.26 631.88,-132 650.52,-119.64 666.97,-99.87 677.55,-85.38"/>
<polygon fill="#63b8ff" stroke="#63b8ff" points="680.14,-87.78 683.02,-77.58 674.41,-83.76 680.14,-87.78"/>
</a>
</g>
</g>
<!-- Node16 -->
<g id="Node000016" class="node">
<title>Node16</title>
<g id="a_Node000016"><a xlink:title=" ">
<polygon fill="#e0e0e0" stroke="#999999" points="387.88,-132 347.88,-132 347.88,-112 387.88,-112 387.88,-132"/>
<text text-anchor="middle" x="367.88" y="-118.5" font-family="Helvetica,sans-Serif" font-size="10.00">string</text>
</a>
</g>
</g>
<!-- Node14&#45;&gt;Node16 -->
<g id="edge17_Node000014_Node000016" class="edge">
<title>Node14&#45;&gt;Node16</title>
<g id="a_edge17_Node000014_Node000016"><a xlink:title=" ">
<path fill="none" stroke="#63b8ff" d="M476.88,-167.59C455.2,-158.72 422.55,-145.37 398.64,-135.59"/>
<polygon fill="#63b8ff" stroke="#63b8ff" points="399.99,-132.36 389.41,-131.81 397.34,-138.84 399.99,-132.36"/>
</a>
</g>
</g>
<!-- Node17 -->
<g id="Node000017" class="node">
<title>Node17</title>
<g id="a_Node000017"><a xlink:title=" ">
<polygon fill="#e0e0e0" stroke="#999999" points="483.25,-76 424.5,-76 424.5,-56 483.25,-56 483.25,-76"/>
<text text-anchor="middle" x="453.88" y="-62.5" font-family="Helvetica,sans-Serif" font-size="10.00">stdexcept</text>
</a>
</g>
</g>
<!-- Node14&#45;&gt;Node17 -->
<g id="edge19_Node000014_Node000017" class="edge">
<title>Node14&#45;&gt;Node17</title>
<g id="a_edge19_Node000014_Node000017"><a xlink:title=" ">
<path fill="none" stroke="#63b8ff" d="M493.34,-167.73C487.35,-158.88 478.57,-145.02 472.88,-132 466.52,-117.47 461.59,-100.21 458.34,-87.12"/>
<polygon fill="#63b8ff" stroke="#63b8ff" points="461.79,-86.5 456.1,-77.56 454.97,-88.09 461.79,-86.5"/>
</a>
</g>
</g>
<!-- Node18 -->
<g id="Node000018" class="node">
<title>Node18</title>
<g id="a_Node000018"><a xlink:href="ComponentArray_8hpp.html" target="_top" xlink:title=" ">
<polygon fill="white" stroke="#666666" points="589.62,-132 482.12,-132 482.12,-112 589.62,-112 589.62,-132"/>
<text text-anchor="middle" x="535.88" y="-118.5" font-family="Helvetica,sans-Serif" font-size="10.00">ComponentArray.hpp</text>
</a>
</g>
</g>
<!-- Node14&#45;&gt;Node18 -->
<g id="edge21_Node000014_Node000018" class="edge">
<title>Node14&#45;&gt;Node18</title>
<g id="a_edge21_Node000014_Node000018"><a xlink:title=" ">
<path fill="none" stroke="#63b8ff" d="M506.15,-167.59C510.89,-160.47 517.57,-150.45 523.4,-141.72"/>
<polygon fill="#63b8ff" stroke="#63b8ff" points="526.2,-143.82 528.84,-133.56 520.38,-139.94 526.2,-143.82"/>
</a>
</g>
</g>
<!-- Node18&#45;&gt;Node5 -->
<g id="edge26_Node000018_Node000005" class="edge">
<title>Node18&#45;&gt;Node5</title>
<g id="a_edge26_Node000018_Node000005"><a xlink:title=" ">
<path fill="none" stroke="#63b8ff" d="M508.18,-111.59C482.57,-102.9 444.27,-89.89 415.63,-80.16"/>
<polygon fill="#63b8ff" stroke="#63b8ff" points="416.81,-76.87 406.22,-76.97 414.56,-83.5 416.81,-76.87"/>
</a>
</g>
</g>
<!-- Node18&#45;&gt;Node9 -->
<g id="edge25_Node000018_Node000009" class="edge">
<title>Node18&#45;&gt;Node9</title>
<g id="a_edge25_Node000018_Node000009"><a xlink:title=" ">
<path fill="none" stroke="#63b8ff" d="M547.72,-111.59C557.57,-103.77 571.81,-92.46 583.48,-83.19"/>
<polygon fill="#63b8ff" stroke="#63b8ff" points="585.33,-86.2 590.98,-77.24 580.97,-80.72 585.33,-86.2"/>
</a>
</g>
</g>
<!-- Node18&#45;&gt;Node15 -->
<g id="edge23_Node000018_Node000015" class="edge">
<title>Node18&#45;&gt;Node15</title>
<g id="a_edge23_Node000018_Node000015"><a xlink:title=" ">
<path fill="none" stroke="#63b8ff" d="M562.7,-111.59C587.5,-102.9 624.6,-89.89 652.34,-80.16"/>
<polygon fill="#63b8ff" stroke="#63b8ff" points="653.13,-83.59 661.41,-76.98 650.82,-76.99 653.13,-83.59"/>
</a>
</g>
</g>
<!-- Node18&#45;&gt;Node17 -->
<g id="edge24_Node000018_Node000017" class="edge">
<title>Node18&#45;&gt;Node17</title>
<g id="a_edge24_Node000018_Node000017"><a xlink:title=" ">
<path fill="none" stroke="#63b8ff" d="M521.59,-111.59C509.44,-103.59 491.74,-91.93 477.48,-82.54"/>
<polygon fill="#63b8ff" stroke="#63b8ff" points="479.81,-79.89 469.53,-77.31 475.96,-85.73 479.81,-79.89"/>
</a>
</g>
</g>
<!-- Node19 -->
<g id="Node000019" class="node">
<title>Node19</title>
<g id="a_Node000019"><a xlink:title=" ">
<polygon fill="#e0e0e0" stroke="#999999" points="558.88,-76 500.88,-76 500.88,-56 558.88,-56 558.88,-76"/>
<text text-anchor="middle" x="529.88" y="-62.5" font-family="Helvetica,sans-Serif" font-size="10.00">exception</text>
</a>
</g>
</g>
<!-- Node18&#45;&gt;Node19 -->
<g id="edge22_Node000018_Node000019" class="edge">
<title>Node18&#45;&gt;Node19</title>
<g id="a_edge22_Node000018_Node000019"><a xlink:title=" ">
<path fill="none" stroke="#63b8ff" d="M534.83,-111.59C534.1,-105.01 533.09,-95.96 532.18,-87.73"/>
<polygon fill="#63b8ff" stroke="#63b8ff" points="535.66,-87.35 531.08,-77.8 528.7,-88.13 535.66,-87.35"/>
</a>
</g>
</g>
<!-- Node20&#45;&gt;Node2 -->
<g id="edge30_Node000020_Node000002" class="edge">
<title>Node20&#45;&gt;Node2</title>
<g id="a_edge30_Node000020_Node000002"><a xlink:title=" ">
<path fill="none" stroke="#63b8ff" d="M350.11,-167.59C334.55,-159.36 311.69,-147.26 293.71,-137.74"/>
<polygon fill="#63b8ff" stroke="#63b8ff" points="295.59,-134.77 285.12,-133.19 292.32,-140.96 295.59,-134.77"/>
</a>
</g>
</g>
<!-- Node20&#45;&gt;Node3 -->
<g id="edge32_Node000020_Node000003" class="edge">
<title>Node20&#45;&gt;Node3</title>
<g id="a_edge32_Node000020_Node000003"><a xlink:title=" ">
<path fill="none" stroke="#63b8ff" d="M336.52,-167.59C307.15,-158.78 263.01,-145.54 230.46,-135.78"/>
<polygon fill="#63b8ff" stroke="#63b8ff" points="231.51,-132.44 220.92,-132.91 229.5,-139.14 231.51,-132.44"/>
</a>
</g>
</g>
<!-- Node20&#45;&gt;Node15 -->
<g id="edge28_Node000020_Node000015" class="edge">
<title>Node20&#45;&gt;Node15</title>
<g id="a_edge28_Node000020_Node000015"><a xlink:title=" ">
<path fill="none" stroke="#63b8ff" d="M421.12,-169.31C479.05,-160.48 567.58,-145.46 598.88,-132 613.63,-125.65 647.35,-100.34 669.33,-83.24"/>
<polygon fill="#63b8ff" stroke="#63b8ff" points="671.32,-86.13 677.03,-77.21 667,-80.62 671.32,-86.13"/>
</a>
</g>
</g>
<!-- Node20&#45;&gt;Node16 -->
<g id="edge29_Node000020_Node000016" class="edge">
<title>Node20&#45;&gt;Node16</title>
<g id="a_edge29_Node000020_Node000016"><a xlink:title=" ">
<path fill="none" stroke="#63b8ff" d="M367.88,-167.59C367.88,-161.01 367.88,-151.96 367.88,-143.73"/>
<polygon fill="#63b8ff" stroke="#63b8ff" points="371.38,-143.81 367.88,-133.81 364.38,-143.81 371.38,-143.81"/>
</a>
</g>
</g>
<!-- Node20&#45;&gt;Node17 -->
<g id="edge31_Node000020_Node000017" class="edge">
<title>Node20&#45;&gt;Node17</title>
<g id="a_edge31_Node000020_Node000017"><a xlink:title=" ">
<path fill="none" stroke="#63b8ff" d="M357.99,-167.63C345.34,-154.5 326.48,-130.17 338.88,-112 347.69,-99.09 383.79,-86.28 413.23,-77.65"/>
<polygon fill="#63b8ff" stroke="#63b8ff" points="414,-81.07 422.66,-74.97 412.08,-74.34 414,-81.07"/>
</a>
</g>
</g>
<!-- Node22 -->
<g id="Node000022" class="node">
<title>Node22</title>
<g id="a_Node000022"><a xlink:href="Event_8hpp.html" target="_top" xlink:title=" ">
<polygon fill="white" stroke="#666666" points="904,-132 843.75,-132 843.75,-112 904,-112 904,-132"/>
<text text-anchor="middle" x="873.88" y="-118.5" font-family="Helvetica,sans-Serif" font-size="10.00">Event.hpp</text>
</a>
</g>
</g>
<!-- Node21&#45;&gt;Node22 -->
<g id="edge34_Node000021_Node000022" class="edge">
<title>Node21&#45;&gt;Node22</title>
<g id="a_edge34_Node000021_Node000022"><a xlink:title=" ">
<path fill="none" stroke="#63b8ff" d="M750.83,-167.59C774.72,-158.94 810.4,-146 837.2,-136.29"/>
<polygon fill="#63b8ff" stroke="#63b8ff" points="838.09,-139.69 846.3,-133 835.7,-133.11 838.09,-139.69"/>
</a>
</g>
</g>
<!-- Node24 -->
<g id="Node000024" class="node">
<title>Node24</title>
<g id="a_Node000024"><a xlink:title=" ">
<polygon fill="#e0e0e0" stroke="#999999" points="741.88,-132 683.88,-132 683.88,-112 741.88,-112 741.88,-132"/>
<text text-anchor="middle" x="712.88" y="-118.5" font-family="Helvetica,sans-Serif" font-size="10.00">functional</text>
</a>
</g>
</g>
<!-- Node21&#45;&gt;Node24 -->
<g id="edge38_Node000021_Node000024" class="edge">
<title>Node21&#45;&gt;Node24</title>
<g id="a_edge38_Node000021_Node000024"><a xlink:title=" ">
<path fill="none" stroke="#63b8ff" d="M722.78,-167.59C721.3,-160.93 719.26,-151.75 717.42,-143.44"/>
<polygon fill="#63b8ff" stroke="#63b8ff" points="720.86,-142.78 715.27,-133.78 714.02,-144.3 720.86,-142.78"/>
</a>
</g>
</g>
<!-- Node25 -->
<g id="Node000025" class="node">
<title>Node25</title>
<g id="a_Node000025"><a xlink:title=" ">
<polygon fill="#e0e0e0" stroke="#999999" points="788.27,-132 759.48,-132 759.48,-112 788.27,-112 788.27,-132"/>
<text text-anchor="middle" x="773.88" y="-118.5" font-family="Helvetica,sans-Serif" font-size="10.00">list</text>
</a>
</g>
</g>
<!-- Node21&#45;&gt;Node25 -->
<g id="edge39_Node000021_Node000025" class="edge">
<title>Node21&#45;&gt;Node25</title>
<g id="a_edge39_Node000021_Node000025"><a xlink:title=" ">
<path fill="none" stroke="#63b8ff" d="M733.41,-167.59C740.16,-160.16 749.76,-149.58 757.92,-140.58"/>
<polygon fill="#63b8ff" stroke="#63b8ff" points="760.29,-143.18 764.42,-133.42 755.11,-138.47 760.29,-143.18"/>
</a>
</g>
</g>
<!-- Node22&#45;&gt;Node6 -->
<g id="edge35_Node000022_Node000006" class="edge">
<title>Node22&#45;&gt;Node6</title>
<g id="a_edge35_Node000022_Node000006"><a xlink:title=" ">
<path fill="none" stroke="#63b8ff" d="M874.73,-111.62C876.33,-94.01 879.82,-55.59 882,-31.65"/>
<polygon fill="#63b8ff" stroke="#63b8ff" points="885.47,-32.14 882.89,-21.86 878.5,-31.5 885.47,-32.14"/>
</a>
</g>
</g>
<!-- Node22&#45;&gt;Node15 -->
<g id="edge36_Node000022_Node000015" class="edge">
<title>Node22&#45;&gt;Node15</title>
<g id="a_edge36_Node000022_Node000015"><a xlink:title=" ">
<path fill="none" stroke="#63b8ff" d="M843.49,-112.08C813.41,-103.26 767.07,-89.65 733.15,-79.7"/>
<polygon fill="#63b8ff" stroke="#63b8ff" points="734.2,-76.36 723.61,-76.9 732.22,-83.08 734.2,-76.36"/>
</a>
</g>
</g>
<!-- Node23 -->
<g id="Node000023" class="node">
<title>Node23</title>
<g id="a_Node000023"><a xlink:title=" ">
<polygon fill="#e0e0e0" stroke="#999999" points="855.75,-76 824,-76 824,-56 855.75,-56 855.75,-76"/>
<text text-anchor="middle" x="839.88" y="-62.5" font-family="Helvetica,sans-Serif" font-size="10.00">any</text>
</a>
</g>
</g>
<!-- Node22&#45;&gt;Node23 -->
<g id="edge37_Node000022_Node000023" class="edge">
<title>Node22&#45;&gt;Node23</title>
<g id="a_edge37_Node000022_Node000023"><a xlink:title=" ">
<path fill="none" stroke="#63b8ff" d="M867.95,-111.59C863.52,-104.55 857.3,-94.67 851.84,-86"/>
<polygon fill="#63b8ff" stroke="#63b8ff" points="854.83,-84.18 846.54,-77.58 848.9,-87.91 854.83,-84.18"/>
</a>
</g>
</g>
<!-- Node27 -->
<g id="Node000027" class="node">
<title>Node27</title>
<g id="a_Node000027"><a xlink:href="Utils_8hpp.html" target="_top" xlink:title=" ">
<polygon fill="white" stroke="#666666" points="958.38,-188 903.38,-188 903.38,-168 958.38,-168 958.38,-188"/>
<text text-anchor="middle" x="930.88" y="-174.5" font-family="Helvetica,sans-Serif" font-size="10.00">Utils.hpp</text>
</a>
</g>
</g>
<!-- Node26&#45;&gt;Node27 -->
<g id="edge41_Node000026_Node000027" class="edge">
<title>Node26&#45;&gt;Node27</title>
<g id="a_edge41_Node000026_Node000027"><a xlink:title=" ">
<path fill="none" stroke="#63b8ff" d="M690.89,-223.5C743.16,-215.64 818.23,-203.59 892.13,-188.45"/>
<polygon fill="#63b8ff" stroke="#63b8ff" points="892.45,-191.96 901.54,-186.5 891.03,-185.11 892.45,-191.96"/>
</a>
</g>
</g>
<!-- Node27&#45;&gt;Node6 -->
<g id="edge42_Node000027_Node000006" class="edge">
<title>Node27&#45;&gt;Node6</title>
<g id="a_edge42_Node000027_Node000006"><a xlink:title=" ">
<path fill="none" stroke="#63b8ff" d="M928.34,-167.74C924.88,-155.12 918.47,-131.83 912.88,-112 905,-84.08 895.72,-51.88 889.82,-31.49"/>
<polygon fill="#63b8ff" stroke="#63b8ff" points="893.19,-30.54 887.04,-21.91 886.47,-32.49 893.19,-30.54"/>
</a>
</g>
</g>
<!-- Node28&#45;&gt;Node27 -->
<g id="edge44_Node000028_Node000027" class="edge">
<title>Node28&#45;&gt;Node27</title>
<g id="a_edge44_Node000028_Node000027"><a xlink:title=" ">
<path fill="none" stroke="#63b8ff" d="M807.83,-223.59C831.72,-214.94 867.4,-202 894.2,-192.29"/>
<polygon fill="#63b8ff" stroke="#63b8ff" points="895.09,-195.69 903.3,-189 892.7,-189.11 895.09,-195.69"/>
</a>
</g>
</g>
<!-- Node29&#45;&gt;Node27 -->
<g id="edge46_Node000029_Node000027" class="edge">
<title>Node29&#45;&gt;Node27</title>
<g id="a_edge46_Node000029_Node000027"><a xlink:title=" ">
<path fill="none" stroke="#63b8ff" d="M930.88,-223.59C930.88,-217.01 930.88,-207.96 930.88,-199.73"/>
<polygon fill="#63b8ff" stroke="#63b8ff" points="934.38,-199.81 930.88,-189.81 927.38,-199.81 934.38,-199.81"/>
</a>
</g>
</g>
</g>
</svg>
