<?xml version="1.0" encoding="UTF-8" standalone="no"?>
<!DOCTYPE svg PUBLIC "-//W3C//DTD SVG 1.1//EN"
 "http://www.w3.org/Graphics/SVG/1.1/DTD/svg11.dtd">
<!-- Generated by graphviz version 12.1.0 (20240811.2233)
 -->
<!-- Title: PhysicsNoEngine.hpp Pages: 1 -->
<svg width="326pt" height="140pt"
 viewBox="0.00 0.00 325.50 140.00" xmlns="http://www.w3.org/2000/svg" xmlns:xlink="http://www.w3.org/1999/xlink">
<g id="graph0" class="graph" transform="scale(1 1) rotate(0) translate(4 136)">
<title>PhysicsNoEngine.hpp</title>
<!-- Node1 -->
<g id="Node000001" class="node">
<title>Node1</title>
<g id="a_Node000001"><a xlink:title=" ">
<polygon fill="#999999" stroke="#666666" points="174,-132 61.25,-132 61.25,-112 174,-112 174,-132"/>
<text text-anchor="middle" x="117.62" y="-118.5" font-family="Helvetica,sans-Serif" font-size="10.00">PhysicsNoEngine.hpp</text>
</a>
</g>
</g>
<!-- Node2 -->
<g id="Node000002" class="node">
<title>Node2</title>
<g id="a_Node000002"><a xlink:href="GameTypes_8cpp.html" target="_top" xlink:title=" ">
<polygon fill="white" stroke="#666666" points="87.25,-20 0,-20 0,0 87.25,0 87.25,-20"/>
<text text-anchor="middle" x="43.62" y="-6.5" font-family="Helvetica,sans-Serif" font-size="10.00">GameTypes.cpp</text>
</a>
</g>
</g>
<!-- Node1&#45;&gt;Node2 -->
<g id="edge1_Node000001_Node000002" class="edge">
<title>Node1&#45;&gt;Node2</title>
<g id="a_edge1_Node000001_Node000002"><a xlink:title=" ">
<path fill="none" stroke="#63b8ff" d="M93.36,-105C83.26,-97.28 72.15,-87.25 64.62,-76 52.75,-58.26 47.19,-33.33 44.94,-20.09"/>
<polygon fill="#63b8ff" stroke="#63b8ff" points="91.2,-107.76 101.36,-110.77 95.3,-102.08 91.2,-107.76"/>
</a>
</g>
</g>
<!-- Node3 -->
<g id="Node000003" class="node">
<title>Node3</title>
<g id="a_Node000003"><a xlink:href="GameTypes_8hpp.html" target="_top" xlink:title=" ">
<polygon fill="white" stroke="#666666" points="161.25,-76 74,-76 74,-56 161.25,-56 161.25,-76"/>
<text text-anchor="middle" x="117.62" y="-62.5" font-family="Helvetica,sans-Serif" font-size="10.00">GameTypes.hpp</text>
</a>
</g>
</g>
<!-- Node1&#45;&gt;Node3 -->
<g id="edge2_Node000001_Node000003" class="edge">
<title>Node1&#45;&gt;Node3</title>
<g id="a_edge2_Node000001_Node000003"><a xlink:title=" ">
<path fill="none" stroke="#63b8ff" d="M117.62,-100.13C117.62,-91.9 117.62,-82.85 117.62,-76.3"/>
<polygon fill="#63b8ff" stroke="#63b8ff" points="114.13,-100.08 117.63,-110.08 121.13,-100.08 114.13,-100.08"/>
</a>
</g>
</g>
<!-- Node5 -->
<g id="Node000005" class="node">
<title>Node5</title>
<g id="a_Node000005"><a xlink:href="Server_8hpp.html" target="_top" xlink:title=" ">
<polygon fill="white" stroke="#666666" points="243.25,-76 180,-76 180,-56 243.25,-56 243.25,-76"/>
<text text-anchor="middle" x="211.62" y="-62.5" font-family="Helvetica,sans-Serif" font-size="10.00">Server.hpp</text>
</a>
</g>
</g>
<!-- Node1&#45;&gt;Node5 -->
<g id="edge5_Node000001_Node000005" class="edge">
<title>Node1&#45;&gt;Node5</title>
<g id="a_edge5_Node000001_Node000005"><a xlink:title=" ">
<path fill="none" stroke="#63b8ff" d="M143.6,-106.08C160.07,-96.62 180.88,-84.66 195.12,-76.48"/>
<polygon fill="#63b8ff" stroke="#63b8ff" points="142.24,-102.82 135.31,-110.84 145.73,-108.89 142.24,-102.82"/>
</a>
</g>
</g>
<!-- Node3&#45;&gt;Node2 -->
<g id="edge3_Node000003_Node000002" class="edge">
<title>Node3&#45;&gt;Node2</title>
<g id="a_edge3_Node000003_Node000002"><a xlink:title=" ">
<path fill="none" stroke="#63b8ff" d="M95.64,-48.95C82.84,-39.61 67.15,-28.16 56.37,-20.3"/>
<polygon fill="#63b8ff" stroke="#63b8ff" points="93.37,-51.63 103.51,-54.7 97.5,-45.98 93.37,-51.63"/>
</a>
</g>
</g>
<!-- Node4 -->
<g id="Node000004" class="node">
<title>Node4</title>
<g id="a_Node000004"><a xlink:href="Client_2src_2main_8cpp.html" target="_top" xlink:title=" ">
<polygon fill="white" stroke="#666666" points="161.5,-20 105.75,-20 105.75,0 161.5,0 161.5,-20"/>
<text text-anchor="middle" x="133.62" y="-6.5" font-family="Helvetica,sans-Serif" font-size="10.00">main.cpp</text>
</a>
</g>
</g>
<!-- Node3&#45;&gt;Node4 -->
<g id="edge4_Node000003_Node000004" class="edge">
<title>Node3&#45;&gt;Node4</title>
<g id="a_edge4_Node000003_Node000004"><a xlink:title=" ">
<path fill="none" stroke="#63b8ff" d="M123.64,-44.71C126.12,-36.32 128.88,-27.01 130.87,-20.3"/>
<polygon fill="#63b8ff" stroke="#63b8ff" points="120.33,-43.56 120.84,-54.14 127.04,-45.55 120.33,-43.56"/>
</a>
</g>
</g>
<!-- Node6 -->
<g id="Node000006" class="node">
<title>Node6</title>
<g id="a_Node000006"><a xlink:href="Server_8cpp.html" target="_top" xlink:title=" ">
<polygon fill="white" stroke="#666666" points="243.25,-20 180,-20 180,0 243.25,0 243.25,-20"/>
<text text-anchor="middle" x="211.62" y="-6.5" font-family="Helvetica,sans-Serif" font-size="10.00">Server.cpp</text>
</a>
</g>
</g>
<!-- Node5&#45;&gt;Node6 -->
<g id="edge6_Node000005_Node000006" class="edge">
<title>Node5&#45;&gt;Node6</title>
<g id="a_edge6_Node000005_Node000006"><a xlink:title=" ">
<path fill="none" stroke="#63b8ff" d="M211.62,-44.13C211.62,-35.9 211.62,-26.85 211.62,-20.3"/>
<polygon fill="#63b8ff" stroke="#63b8ff" points="208.13,-44.08 211.63,-54.08 215.13,-44.08 208.13,-44.08"/>
</a>
</g>
</g>
<!-- Node7 -->
<g id="Node000007" class="node">
<title>Node7</title>
<g id="a_Node000007"><a xlink:href="Server_2src_2main_8cpp.html" target="_top" xlink:title=" ">
<polygon fill="white" stroke="#666666" points="317.5,-20 261.75,-20 261.75,0 317.5,0 317.5,-20"/>
<text text-anchor="middle" x="289.62" y="-6.5" font-family="Helvetica,sans-Serif" font-size="10.00">main.cpp</text>
</a>
</g>
</g>
<!-- Node5&#45;&gt;Node7 -->
<g id="edge7_Node000005_Node000007" class="edge">
<title>Node5&#45;&gt;Node7</title>
<g id="a_edge7_Node000005_Node000007"><a xlink:title=" ">
<path fill="none" stroke="#63b8ff" d="M234.34,-49.27C247.82,-39.94 264.45,-28.43 275.93,-20.48"/>
<polygon fill="#63b8ff" stroke="#63b8ff" points="232.69,-46.16 226.46,-54.73 236.67,-51.92 232.69,-46.16"/>
</a>
</g>
</g>
</g>
</svg>
