<?xml version="1.0" encoding="UTF-8" standalone="no"?>
<!DOCTYPE svg PUBLIC "-//W3C//DTD SVG 1.1//EN"
 "http://www.w3.org/Graphics/SVG/1.1/DTD/svg11.dtd">
<!-- Generated by graphviz version 12.1.0 (20240811.2233)
 -->
<!-- Title: PhysicsNoEngine.hpp Pages: 1 -->
<svg width="1059pt" height="308pt"
 viewBox="0.00 0.00 1058.92 308.00" xmlns="http://www.w3.org/2000/svg" xmlns:xlink="http://www.w3.org/1999/xlink">
<g id="graph0" class="graph" transform="scale(1 1) rotate(0) translate(4 304)">
<title>PhysicsNoEngine.hpp</title>
<!-- Node1 -->
<g id="Node000001" class="node">
<title>Node1</title>
<g id="a_Node000001"><a xlink:title=" ">
<polygon fill="#999999" stroke="#666666" points="535.77,-300 423.02,-300 423.02,-280 535.77,-280 535.77,-300"/>
<text text-anchor="middle" x="479.4" y="-286.5" font-family="Helvetica,sans-Serif" font-size="10.00">PhysicsNoEngine.hpp</text>
</a>
</g>
</g>
<!-- Node2 -->
<g id="Node000002" class="node">
<title>Node2</title>
<g id="a_Node000002"><a xlink:title=" ">
<polygon fill="#e0e0e0" stroke="#999999" points="338.02,-132 286.77,-132 286.77,-112 338.02,-112 338.02,-132"/>
<text text-anchor="middle" x="312.4" y="-118.5" font-family="Helvetica,sans-Serif" font-size="10.00">memory</text>
</a>
</g>
</g>
<!-- Node1&#45;&gt;Node2 -->
<g id="edge1_Node000001_Node000002" class="edge">
<title>Node1&#45;&gt;Node2</title>
<g id="a_edge1_Node000001_Node000002"><a xlink:title=" ">
<path fill="none" stroke="#63b8ff" d="M449.68,-279.6C412.04,-265.99 348.47,-236.91 318.4,-188 310.22,-174.7 309.11,-156.88 309.83,-143.26"/>
<polygon fill="#63b8ff" stroke="#63b8ff" points="313.27,-143.98 310.71,-133.7 306.3,-143.33 313.27,-143.98"/>
</a>
</g>
</g>
<!-- Node3 -->
<g id="Node000003" class="node">
<title>Node3</title>
<g id="a_Node000003"><a xlink:href="System_8hpp.html" target="_top" xlink:title=" ">
<polygon fill="white" stroke="#666666" points="268.65,-132 200.15,-132 200.15,-112 268.65,-112 268.65,-132"/>
<text text-anchor="middle" x="234.4" y="-118.5" font-family="Helvetica,sans-Serif" font-size="10.00">System.hpp</text>
</a>
</g>
</g>
<!-- Node1&#45;&gt;Node3 -->
<g id="edge2_Node000001_Node000003" class="edge">
<title>Node1&#45;&gt;Node3</title>
<g id="a_edge2_Node000001_Node000003"><a xlink:title=" ">
<path fill="none" stroke="#63b8ff" d="M435.14,-279.51C408.55,-272.46 374.87,-261.08 348.4,-244 304.94,-215.96 266.46,-167.88 247.29,-141.56"/>
<polygon fill="#63b8ff" stroke="#63b8ff" points="250.24,-139.67 241.58,-133.56 244.54,-143.73 250.24,-139.67"/>
</a>
</g>
</g>
<!-- Node8 -->
<g id="Node000008" class="node">
<title>Node8</title>
<g id="a_Node000008"><a xlink:href="Mediator_8hpp.html" target="_top" xlink:title=" ">
<polygon fill="white" stroke="#666666" points="515.52,-244 443.27,-244 443.27,-224 515.52,-224 515.52,-244"/>
<text text-anchor="middle" x="479.4" y="-230.5" font-family="Helvetica,sans-Serif" font-size="10.00">Mediator.hpp</text>
</a>
</g>
</g>
<!-- Node1&#45;&gt;Node8 -->
<g id="edge7_Node000001_Node000008" class="edge">
<title>Node1&#45;&gt;Node8</title>
<g id="a_edge7_Node000001_Node000008"><a xlink:title=" ">
<path fill="none" stroke="#63b8ff" d="M479.4,-279.59C479.4,-273.01 479.4,-263.96 479.4,-255.73"/>
<polygon fill="#63b8ff" stroke="#63b8ff" points="482.9,-255.81 479.4,-245.81 475.9,-255.81 482.9,-255.81"/>
</a>
</g>
</g>
<!-- Node26 -->
<g id="Node000026" class="node">
<title>Node26</title>
<g id="a_Node000026"><a xlink:href="RigidBody_8hpp.html" target="_top" xlink:title=" ">
<polygon fill="white" stroke="#666666" points="748.15,-244 610.65,-244 610.65,-224 748.15,-224 748.15,-244"/>
<text text-anchor="middle" x="679.4" y="-230.5" font-family="Helvetica,sans-Serif" font-size="10.00">Components/RigidBody.hpp</text>
</a>
</g>
</g>
<!-- Node1&#45;&gt;Node26 -->
<g id="edge42_Node000001_Node000026" class="edge">
<title>Node1&#45;&gt;Node26</title>
<g id="a_edge42_Node000001_Node000026"><a xlink:title=" ">
<path fill="none" stroke="#63b8ff" d="M514.24,-279.59C547.3,-270.67 597.2,-257.19 633.5,-247.39"/>
<polygon fill="#63b8ff" stroke="#63b8ff" points="634.09,-250.86 642.83,-244.87 632.26,-244.1 634.09,-250.86"/>
</a>
</g>
</g>
<!-- Node29 -->
<g id="Node000029" class="node">
<title>Node29</title>
<g id="a_Node000029"><a xlink:href="Transform_8hpp.html" target="_top" xlink:title=" ">
<polygon fill="white" stroke="#666666" points="943.15,-244 805.65,-244 805.65,-224 943.15,-224 943.15,-244"/>
<text text-anchor="middle" x="874.4" y="-230.5" font-family="Helvetica,sans-Serif" font-size="10.00">Components/Transform.hpp</text>
</a>
</g>
</g>
<!-- Node1&#45;&gt;Node29 -->
<g id="edge48_Node000001_Node000029" class="edge">
<title>Node1&#45;&gt;Node29</title>
<g id="a_edge48_Node000001_Node000029"><a xlink:title=" ">
<path fill="none" stroke="#63b8ff" d="M535.99,-281.26C603.7,-272.01 717.51,-256.45 794.24,-245.96"/>
<polygon fill="#63b8ff" stroke="#63b8ff" points="794.35,-249.48 803.78,-244.65 793.4,-242.54 794.35,-249.48"/>
</a>
</g>
</g>
<!-- Node4 -->
<g id="Node000004" class="node">
<title>Node4</title>
<g id="a_Node000004"><a xlink:title=" ">
<polygon fill="#e0e0e0" stroke="#999999" points="252.15,-76 222.65,-76 222.65,-56 252.15,-56 252.15,-76"/>
<text text-anchor="middle" x="237.4" y="-62.5" font-family="Helvetica,sans-Serif" font-size="10.00">set</text>
</a>
</g>
</g>
<!-- Node3&#45;&gt;Node4 -->
<g id="edge3_Node000003_Node000004" class="edge">
<title>Node3&#45;&gt;Node4</title>
<g id="a_edge3_Node000003_Node000004"><a xlink:title=" ">
<path fill="none" stroke="#63b8ff" d="M234.92,-111.59C235.29,-105.01 235.79,-95.96 236.25,-87.73"/>
<polygon fill="#63b8ff" stroke="#63b8ff" points="239.74,-87.99 236.8,-77.81 232.75,-87.6 239.74,-87.99"/>
</a>
</g>
</g>
<!-- Node5 -->
<g id="Node000005" class="node">
<title>Node5</title>
<g id="a_Node000005"><a xlink:href="Entity_8hpp.html" target="_top" xlink:title=" ">
<polygon fill="white" stroke="#666666" points="791.15,-76 731.65,-76 731.65,-56 791.15,-56 791.15,-76"/>
<text text-anchor="middle" x="761.4" y="-62.5" font-family="Helvetica,sans-Serif" font-size="10.00">Entity.hpp</text>
</a>
</g>
</g>
<!-- Node3&#45;&gt;Node5 -->
<g id="edge4_Node000003_Node000005" class="edge">
<title>Node3&#45;&gt;Node5</title>
<g id="a_edge4_Node000003_Node000005"><a xlink:title=" ">
<path fill="none" stroke="#63b8ff" d="M269.07,-113.36C271.88,-112.85 274.68,-112.39 277.4,-112 469.27,-84.24 523.05,-104.46 720.15,-75.74"/>
<polygon fill="#63b8ff" stroke="#63b8ff" points="720.61,-79.21 729.98,-74.28 719.58,-72.28 720.61,-79.21"/>
</a>
</g>
</g>
<!-- Node6 -->
<g id="Node000006" class="node">
<title>Node6</title>
<g id="a_Node000006"><a xlink:title=" ">
<polygon fill="#e0e0e0" stroke="#999999" points="814.02,-20 768.77,-20 768.77,0 814.02,0 814.02,-20"/>
<text text-anchor="middle" x="791.4" y="-6.5" font-family="Helvetica,sans-Serif" font-size="10.00">cstdint</text>
</a>
</g>
</g>
<!-- Node5&#45;&gt;Node6 -->
<g id="edge5_Node000005_Node000006" class="edge">
<title>Node5&#45;&gt;Node6</title>
<g id="a_edge5_Node000005_Node000006"><a xlink:title=" ">
<path fill="none" stroke="#63b8ff" d="M766.63,-55.59C770.5,-48.63 775.91,-38.89 780.68,-30.29"/>
<polygon fill="#63b8ff" stroke="#63b8ff" points="783.7,-32.06 785.5,-21.62 777.58,-28.66 783.7,-32.06"/>
</a>
</g>
</g>
<!-- Node7 -->
<g id="Node000007" class="node">
<title>Node7</title>
<g id="a_Node000007"><a xlink:title=" ">
<polygon fill="#e0e0e0" stroke="#999999" points="750.4,-20 710.4,-20 710.4,0 750.4,0 750.4,-20"/>
<text text-anchor="middle" x="730.4" y="-6.5" font-family="Helvetica,sans-Serif" font-size="10.00">bitset</text>
</a>
</g>
</g>
<!-- Node5&#45;&gt;Node7 -->
<g id="edge6_Node000005_Node000007" class="edge">
<title>Node5&#45;&gt;Node7</title>
<g id="a_edge6_Node000005_Node000007"><a xlink:title=" ">
<path fill="none" stroke="#63b8ff" d="M756,-55.59C751.96,-48.55 746.28,-38.67 741.31,-30"/>
<polygon fill="#63b8ff" stroke="#63b8ff" points="744.51,-28.54 736.49,-21.61 738.43,-32.03 744.51,-28.54"/>
</a>
</g>
</g>
<!-- Node8&#45;&gt;Node2 -->
<g id="edge9_Node000008_Node000002" class="edge">
<title>Node8&#45;&gt;Node2</title>
<g id="a_edge9_Node000008_Node000002"><a xlink:title=" ">
<path fill="none" stroke="#63b8ff" d="M442.9,-230.39C410.98,-226.24 365.33,-215.55 336.4,-188 324.14,-176.32 318.1,-157.83 315.16,-143.56"/>
<polygon fill="#63b8ff" stroke="#63b8ff" points="318.64,-143.15 313.53,-133.86 311.73,-144.3 318.64,-143.15"/>
</a>
</g>
</g>
<!-- Node9 -->
<g id="Node000009" class="node">
<title>Node9</title>
<g id="a_Node000009"><a xlink:title=" ">
<polygon fill="#e0e0e0" stroke="#999999" points="896.15,-76 842.65,-76 842.65,-56 896.15,-56 896.15,-76"/>
<text text-anchor="middle" x="869.4" y="-62.5" font-family="Helvetica,sans-Serif" font-size="10.00">iostream</text>
</a>
</g>
</g>
<!-- Node8&#45;&gt;Node9 -->
<g id="edge8_Node000008_Node000009" class="edge">
<title>Node8&#45;&gt;Node9</title>
<g id="a_edge8_Node000008_Node000009"><a xlink:title=" ">
<path fill="none" stroke="#63b8ff" d="M515.92,-230.34C618.56,-222.76 904.77,-200.72 945.4,-188 994.01,-172.78 1019.64,-175.95 1045.4,-132 1076.13,-79.57 968.6,-69.04 908,-67.18"/>
<polygon fill="#63b8ff" stroke="#63b8ff" points="908.16,-63.68 898.08,-66.95 907.99,-70.68 908.16,-63.68"/>
</a>
</g>
</g>
<!-- Node10 -->
<g id="Node000010" class="node">
<title>Node10</title>
<g id="a_Node000010"><a xlink:title=" ">
<polygon fill="#e0e0e0" stroke="#999999" points="475.9,-132 432.9,-132 432.9,-112 475.9,-112 475.9,-132"/>
<text text-anchor="middle" x="454.4" y="-118.5" font-family="Helvetica,sans-Serif" font-size="10.00">vector</text>
</a>
</g>
</g>
<!-- Node8&#45;&gt;Node10 -->
<g id="edge10_Node000008_Node000010" class="edge">
<title>Node8&#45;&gt;Node10</title>
<g id="a_edge10_Node000008_Node000010"><a xlink:title=" ">
<path fill="none" stroke="#63b8ff" d="M477.27,-223.62C473.25,-205.92 464.45,-167.24 459.02,-143.32"/>
<polygon fill="#63b8ff" stroke="#63b8ff" points="462.49,-142.81 456.86,-133.83 455.66,-144.36 462.49,-142.81"/>
</a>
</g>
</g>
<!-- Node11 -->
<g id="Node000011" class="node">
<title>Node11</title>
<g id="a_Node000011"><a xlink:href="EntityManager_8hpp.html" target="_top" xlink:title=" ">
<polygon fill="white" stroke="#666666" points="862.27,-188 764.52,-188 764.52,-168 862.27,-168 862.27,-188"/>
<text text-anchor="middle" x="813.4" y="-174.5" font-family="Helvetica,sans-Serif" font-size="10.00">EntityManager.hpp</text>
</a>
</g>
</g>
<!-- Node8&#45;&gt;Node11 -->
<g id="edge11_Node000008_Node000011" class="edge">
<title>Node8&#45;&gt;Node11</title>
<g id="a_edge11_Node000008_Node000011"><a xlink:title=" ">
<path fill="none" stroke="#63b8ff" d="M515.78,-227.12C572.8,-217.9 683.82,-199.95 752.97,-188.77"/>
<polygon fill="#63b8ff" stroke="#63b8ff" points="753.3,-192.26 762.62,-187.21 752.19,-185.35 753.3,-192.26"/>
</a>
</g>
</g>
<!-- Node14 -->
<g id="Node000014" class="node">
<title>Node14</title>
<g id="a_Node000014"><a xlink:href="ComponentManager_8hpp.html" target="_top" xlink:title=" ">
<polygon fill="white" stroke="#666666" points="629.65,-188 507.15,-188 507.15,-168 629.65,-168 629.65,-188"/>
<text text-anchor="middle" x="568.4" y="-174.5" font-family="Helvetica,sans-Serif" font-size="10.00">ComponentManager.hpp</text>
</a>
</g>
</g>
<!-- Node8&#45;&gt;Node14 -->
<g id="edge15_Node000008_Node000014" class="edge">
<title>Node8&#45;&gt;Node14</title>
<g id="a_edge15_Node000008_Node000014"><a xlink:title=" ">
<path fill="none" stroke="#63b8ff" d="M494.9,-223.59C508.22,-215.51 527.68,-203.71 543.23,-194.27"/>
<polygon fill="#63b8ff" stroke="#63b8ff" points="544.75,-197.44 551.48,-189.26 541.12,-191.46 544.75,-197.44"/>
</a>
</g>
</g>
<!-- Node20 -->
<g id="Node000020" class="node">
<title>Node20</title>
<g id="a_Node000020"><a xlink:href="SystemManager_8hpp.html" target="_top" xlink:title=" ">
<polygon fill="white" stroke="#666666" points="451.4,-188 345.4,-188 345.4,-168 451.4,-168 451.4,-188"/>
<text text-anchor="middle" x="398.4" y="-174.5" font-family="Helvetica,sans-Serif" font-size="10.00">SystemManager.hpp</text>
</a>
</g>
</g>
<!-- Node8&#45;&gt;Node20 -->
<g id="edge28_Node000008_Node000020" class="edge">
<title>Node8&#45;&gt;Node20</title>
<g id="a_edge28_Node000008_Node000020"><a xlink:title=" ">
<path fill="none" stroke="#63b8ff" d="M465.29,-223.59C453.4,-215.67 436.13,-204.16 422.12,-194.82"/>
<polygon fill="#63b8ff" stroke="#63b8ff" points="424.14,-191.95 413.88,-189.32 420.26,-197.78 424.14,-191.95"/>
</a>
</g>
</g>
<!-- Node21 -->
<g id="Node000021" class="node">
<title>Node21</title>
<g id="a_Node000021"><a xlink:href="EventManager_8hpp.html" target="_top" xlink:title=" ">
<polygon fill="white" stroke="#666666" points="163.28,-188 65.53,-188 65.53,-168 163.28,-168 163.28,-188"/>
<text text-anchor="middle" x="114.4" y="-174.5" font-family="Helvetica,sans-Serif" font-size="10.00">EventManager.hpp</text>
</a>
</g>
</g>
<!-- Node8&#45;&gt;Node21 -->
<g id="edge35_Node000008_Node000021" class="edge">
<title>Node8&#45;&gt;Node21</title>
<g id="a_edge35_Node000008_Node000021"><a xlink:title=" ">
<path fill="none" stroke="#63b8ff" d="M443.07,-227.62C380.38,-218.35 251.29,-199.25 174.88,-187.95"/>
<polygon fill="#63b8ff" stroke="#63b8ff" points="175.44,-184.49 165.04,-186.49 174.42,-191.42 175.44,-184.49"/>
</a>
</g>
</g>
<!-- Node11&#45;&gt;Node5 -->
<g id="edge14_Node000011_Node000005" class="edge">
<title>Node11&#45;&gt;Node5</title>
<g id="a_edge14_Node000011_Node000005"><a xlink:title=" ">
<path fill="none" stroke="#63b8ff" d="M823.2,-167.88C835.76,-155.03 854.67,-131.04 843.4,-112 834.33,-96.67 817.98,-86.22 802.25,-79.27"/>
<polygon fill="#63b8ff" stroke="#63b8ff" points="803.55,-76.02 792.96,-75.57 800.95,-82.53 803.55,-76.02"/>
</a>
</g>
</g>
<!-- Node12 -->
<g id="Node000012" class="node">
<title>Node12</title>
<g id="a_Node000012"><a xlink:title=" ">
<polygon fill="#e0e0e0" stroke="#999999" points="834.52,-132 792.27,-132 792.27,-112 834.52,-112 834.52,-132"/>
<text text-anchor="middle" x="813.4" y="-118.5" font-family="Helvetica,sans-Serif" font-size="10.00">queue</text>
</a>
</g>
</g>
<!-- Node11&#45;&gt;Node12 -->
<g id="edge12_Node000011_Node000012" class="edge">
<title>Node11&#45;&gt;Node12</title>
<g id="a_edge12_Node000011_Node000012"><a xlink:title=" ">
<path fill="none" stroke="#63b8ff" d="M813.4,-167.59C813.4,-161.01 813.4,-151.96 813.4,-143.73"/>
<polygon fill="#63b8ff" stroke="#63b8ff" points="816.9,-143.81 813.4,-133.81 809.9,-143.81 816.9,-143.81"/>
</a>
</g>
</g>
<!-- Node13 -->
<g id="Node000013" class="node">
<title>Node13</title>
<g id="a_Node000013"><a xlink:title=" ">
<polygon fill="#e0e0e0" stroke="#999999" points="928.27,-132 890.52,-132 890.52,-112 928.27,-112 928.27,-132"/>
<text text-anchor="middle" x="909.4" y="-118.5" font-family="Helvetica,sans-Serif" font-size="10.00">array</text>
</a>
</g>
</g>
<!-- Node11&#45;&gt;Node13 -->
<g id="edge13_Node000011_Node000013" class="edge">
<title>Node11&#45;&gt;Node13</title>
<g id="a_edge13_Node000011_Node000013"><a xlink:title=" ">
<path fill="none" stroke="#63b8ff" d="M830.12,-167.59C844.62,-159.44 865.87,-147.48 882.72,-138"/>
<polygon fill="#63b8ff" stroke="#63b8ff" points="884.23,-141.17 891.23,-133.22 880.8,-135.07 884.23,-141.17"/>
</a>
</g>
</g>
<!-- Node14&#45;&gt;Node2 -->
<g id="edge18_Node000014_Node000002" class="edge">
<title>Node14&#45;&gt;Node2</title>
<g id="a_edge18_Node000014_Node000002"><a xlink:title=" ">
<path fill="none" stroke="#63b8ff" d="M523.52,-167.53C474.18,-157.13 395.82,-140.6 349.72,-130.87"/>
<polygon fill="#63b8ff" stroke="#63b8ff" points="350.44,-127.45 339.94,-128.81 349,-134.3 350.44,-127.45"/>
</a>
</g>
</g>
<!-- Node14&#45;&gt;Node5 -->
<g id="edge21_Node000014_Node000005" class="edge">
<title>Node14&#45;&gt;Node5</title>
<g id="a_edge21_Node000014_Node000005"><a xlink:title=" ">
<path fill="none" stroke="#63b8ff" d="M629.78,-168.24C674.2,-160.67 729.15,-148.37 745.4,-132 756.92,-120.39 760.61,-101.89 761.6,-87.6"/>
<polygon fill="#63b8ff" stroke="#63b8ff" points="765.09,-87.99 761.86,-77.9 758.09,-87.81 765.09,-87.99"/>
</a>
</g>
</g>
<!-- Node14&#45;&gt;Node10 -->
<g id="edge20_Node000014_Node000010" class="edge">
<title>Node14&#45;&gt;Node10</title>
<g id="a_edge20_Node000014_Node000010"><a xlink:title=" ">
<path fill="none" stroke="#63b8ff" d="M548.54,-167.59C530.91,-159.24 504.89,-146.92 484.67,-137.34"/>
<polygon fill="#63b8ff" stroke="#63b8ff" points="486.32,-134.25 475.78,-133.13 483.32,-140.57 486.32,-134.25"/>
</a>
</g>
</g>
<!-- Node15 -->
<g id="Node000015" class="node">
<title>Node15</title>
<g id="a_Node000015"><a xlink:title=" ">
<polygon fill="#e0e0e0" stroke="#999999" points="480.77,-76 398.02,-76 398.02,-56 480.77,-56 480.77,-76"/>
<text text-anchor="middle" x="439.4" y="-62.5" font-family="Helvetica,sans-Serif" font-size="10.00">unordered_map</text>
</a>
</g>
</g>
<!-- Node14&#45;&gt;Node15 -->
<g id="edge16_Node000014_Node000015" class="edge">
<title>Node14&#45;&gt;Node15</title>
<g id="a_edge16_Node000014_Node000015"><a xlink:title=" ">
<path fill="none" stroke="#63b8ff" d="M567.16,-167.83C564.84,-154.03 558.64,-127.88 543.4,-112 529.22,-97.23 509.38,-87.03 490.83,-80.13"/>
<polygon fill="#63b8ff" stroke="#63b8ff" points="492.13,-76.87 481.54,-76.93 489.85,-83.49 492.13,-76.87"/>
</a>
</g>
</g>
<!-- Node16 -->
<g id="Node000016" class="node">
<title>Node16</title>
<g id="a_Node000016"><a xlink:title=" ">
<polygon fill="#e0e0e0" stroke="#999999" points="534.4,-132 494.4,-132 494.4,-112 534.4,-112 534.4,-132"/>
<text text-anchor="middle" x="514.4" y="-118.5" font-family="Helvetica,sans-Serif" font-size="10.00">string</text>
</a>
</g>
</g>
<!-- Node14&#45;&gt;Node16 -->
<g id="edge17_Node000014_Node000016" class="edge">
<title>Node14&#45;&gt;Node16</title>
<g id="a_edge17_Node000014_Node000016"><a xlink:title=" ">
<path fill="none" stroke="#63b8ff" d="M558.99,-167.59C551.48,-160.08 540.75,-149.35 531.7,-140.3"/>
<polygon fill="#63b8ff" stroke="#63b8ff" points="534.31,-137.96 524.77,-133.37 529.36,-142.91 534.31,-137.96"/>
</a>
</g>
</g>
<!-- Node17 -->
<g id="Node000017" class="node">
<title>Node17</title>
<g id="a_Node000017"><a xlink:title=" ">
<polygon fill="#e0e0e0" stroke="#999999" points="629.77,-76 571.02,-76 571.02,-56 629.77,-56 629.77,-76"/>
<text text-anchor="middle" x="600.4" y="-62.5" font-family="Helvetica,sans-Serif" font-size="10.00">stdexcept</text>
</a>
</g>
</g>
<!-- Node14&#45;&gt;Node17 -->
<g id="edge19_Node000014_Node000017" class="edge">
<title>Node14&#45;&gt;Node17</title>
<g id="a_edge19_Node000014_Node000017"><a xlink:title=" ">
<path fill="none" stroke="#63b8ff" d="M571.13,-167.62C576.28,-149.92 587.53,-111.24 594.49,-87.32"/>
<polygon fill="#63b8ff" stroke="#63b8ff" points="597.82,-88.39 597.26,-77.81 591.1,-86.43 597.82,-88.39"/>
</a>
</g>
</g>
<!-- Node18 -->
<g id="Node000018" class="node">
<title>Node18</title>
<g id="a_Node000018"><a xlink:href="ComponentArray_8hpp.html" target="_top" xlink:title=" ">
<polygon fill="white" stroke="#666666" points="736.15,-132 628.65,-132 628.65,-112 736.15,-112 736.15,-132"/>
<text text-anchor="middle" x="682.4" y="-118.5" font-family="Helvetica,sans-Serif" font-size="10.00">ComponentArray.hpp</text>
</a>
</g>
</g>
<!-- Node14&#45;&gt;Node18 -->
<g id="edge22_Node000014_Node000018" class="edge">
<title>Node14&#45;&gt;Node18</title>
<g id="a_edge22_Node000014_Node000018"><a xlink:title=" ">
<path fill="none" stroke="#63b8ff" d="M588.26,-167.59C605.89,-159.24 631.91,-146.92 652.13,-137.34"/>
<polygon fill="#63b8ff" stroke="#63b8ff" points="653.48,-140.57 661.02,-133.13 650.48,-134.25 653.48,-140.57"/>
</a>
</g>
</g>
<!-- Node18&#45;&gt;Node5 -->
<g id="edge27_Node000018_Node000005" class="edge">
<title>Node18&#45;&gt;Node5</title>
<g id="a_edge27_Node000018_Node000005"><a xlink:title=" ">
<path fill="none" stroke="#63b8ff" d="M696.16,-111.59C707.76,-103.67 724.6,-92.16 738.26,-82.82"/>
<polygon fill="#63b8ff" stroke="#63b8ff" points="740,-85.87 746.28,-77.33 736.05,-80.09 740,-85.87"/>
</a>
</g>
</g>
<!-- Node18&#45;&gt;Node9 -->
<g id="edge26_Node000018_Node000009" class="edge">
<title>Node18&#45;&gt;Node9</title>
<g id="a_edge26_Node000018_Node000009"><a xlink:title=" ">
<path fill="none" stroke="#63b8ff" d="M714.97,-111.59C747.41,-102.23 797.17,-87.86 831.39,-77.98"/>
<polygon fill="#63b8ff" stroke="#63b8ff" points="832.26,-81.37 840.9,-75.23 830.32,-74.64 832.26,-81.37"/>
</a>
</g>
</g>
<!-- Node18&#45;&gt;Node15 -->
<g id="edge24_Node000018_Node000015" class="edge">
<title>Node18&#45;&gt;Node15</title>
<g id="a_edge24_Node000018_Node000015"><a xlink:title=" ">
<path fill="none" stroke="#63b8ff" d="M639.79,-111.53C598.72,-102.41 536.46,-88.57 492.25,-78.74"/>
<polygon fill="#63b8ff" stroke="#63b8ff" points="493.14,-75.36 482.62,-76.6 491.62,-82.19 493.14,-75.36"/>
</a>
</g>
</g>
<!-- Node18&#45;&gt;Node17 -->
<g id="edge25_Node000018_Node000017" class="edge">
<title>Node18&#45;&gt;Node17</title>
<g id="a_edge25_Node000018_Node000017"><a xlink:title=" ">
<path fill="none" stroke="#63b8ff" d="M668.12,-111.59C655.96,-103.59 638.26,-91.93 624,-82.54"/>
<polygon fill="#63b8ff" stroke="#63b8ff" points="626.34,-79.89 616.06,-77.31 622.49,-85.73 626.34,-79.89"/>
</a>
</g>
</g>
<!-- Node19 -->
<g id="Node000019" class="node">
<title>Node19</title>
<g id="a_Node000019"><a xlink:title=" ">
<polygon fill="#e0e0e0" stroke="#999999" points="711.4,-76 653.4,-76 653.4,-56 711.4,-56 711.4,-76"/>
<text text-anchor="middle" x="682.4" y="-62.5" font-family="Helvetica,sans-Serif" font-size="10.00">exception</text>
</a>
</g>
</g>
<!-- Node18&#45;&gt;Node19 -->
<g id="edge23_Node000018_Node000019" class="edge">
<title>Node18&#45;&gt;Node19</title>
<g id="a_edge23_Node000018_Node000019"><a xlink:title=" ">
<path fill="none" stroke="#63b8ff" d="M682.4,-111.59C682.4,-105.01 682.4,-95.96 682.4,-87.73"/>
<polygon fill="#63b8ff" stroke="#63b8ff" points="685.9,-87.81 682.4,-77.81 678.9,-87.81 685.9,-87.81"/>
</a>
</g>
</g>
<!-- Node20&#45;&gt;Node2 -->
<g id="edge32_Node000020_Node000002" class="edge">
<title>Node20&#45;&gt;Node2</title>
<g id="a_edge32_Node000020_Node000002"><a xlink:title=" ">
<path fill="none" stroke="#63b8ff" d="M383.42,-167.59C370.67,-159.59 352.11,-147.93 337.16,-138.54"/>
<polygon fill="#63b8ff" stroke="#63b8ff" points="339.11,-135.64 328.78,-133.28 335.39,-141.57 339.11,-135.64"/>
</a>
</g>
</g>
<!-- Node20&#45;&gt;Node3 -->
<g id="edge34_Node000020_Node000003" class="edge">
<title>Node20&#45;&gt;Node3</title>
<g id="a_edge34_Node000020_Node000003"><a xlink:title=" ">
<path fill="none" stroke="#63b8ff" d="M369.83,-167.59C343.3,-158.86 303.56,-145.77 273.98,-136.03"/>
<polygon fill="#63b8ff" stroke="#63b8ff" points="275.22,-132.76 264.63,-132.95 273.03,-139.4 275.22,-132.76"/>
</a>
</g>
</g>
<!-- Node20&#45;&gt;Node10 -->
<g id="edge31_Node000020_Node000010" class="edge">
<title>Node20&#45;&gt;Node10</title>
<g id="a_edge31_Node000020_Node000010"><a xlink:title=" ">
<path fill="none" stroke="#63b8ff" d="M408.15,-167.59C416.02,-160.01 427.3,-149.13 436.75,-140.02"/>
<polygon fill="#63b8ff" stroke="#63b8ff" points="438.9,-142.81 443.67,-133.35 434.04,-137.77 438.9,-142.81"/>
</a>
</g>
</g>
<!-- Node20&#45;&gt;Node15 -->
<g id="edge29_Node000020_Node000015" class="edge">
<title>Node20&#45;&gt;Node15</title>
<g id="a_edge29_Node000020_Node000015"><a xlink:title=" ">
<path fill="none" stroke="#63b8ff" d="M394.36,-167.73C389.31,-154.72 382.26,-130.53 390.4,-112 395.49,-100.42 405.19,-90.51 414.62,-82.97"/>
<polygon fill="#63b8ff" stroke="#63b8ff" points="416.58,-85.87 422.57,-77.13 412.44,-80.23 416.58,-85.87"/>
</a>
</g>
</g>
<!-- Node20&#45;&gt;Node16 -->
<g id="edge30_Node000020_Node000016" class="edge">
<title>Node20&#45;&gt;Node16</title>
<g id="a_edge30_Node000020_Node000016"><a xlink:title=" ">
<path fill="none" stroke="#63b8ff" d="M418.61,-167.59C436.63,-159.21 463.27,-146.8 483.88,-137.21"/>
<polygon fill="#63b8ff" stroke="#63b8ff" points="485.08,-140.51 492.66,-133.12 482.12,-134.17 485.08,-140.51"/>
</a>
</g>
</g>
<!-- Node20&#45;&gt;Node17 -->
<g id="edge33_Node000020_Node000017" class="edge">
<title>Node20&#45;&gt;Node17</title>
<g id="a_edge33_Node000020_Node000017"><a xlink:title=" ">
<path fill="none" stroke="#63b8ff" d="M399.49,-167.5C401.65,-153.29 407.77,-126.59 424.4,-112 461.89,-79.1 520.22,-69.68 559.34,-67.28"/>
<polygon fill="#63b8ff" stroke="#63b8ff" points="559.48,-70.78 569.31,-66.81 559.16,-63.78 559.48,-70.78"/>
</a>
</g>
</g>
<!-- Node22 -->
<g id="Node000022" class="node">
<title>Node22</title>
<g id="a_Node000022"><a xlink:href="Event_8hpp.html" target="_top" xlink:title=" ">
<polygon fill="white" stroke="#666666" points="182.53,-132 122.28,-132 122.28,-112 182.53,-112 182.53,-132"/>
<text text-anchor="middle" x="152.4" y="-118.5" font-family="Helvetica,sans-Serif" font-size="10.00">Event.hpp</text>
</a>
</g>
</g>
<!-- Node21&#45;&gt;Node22 -->
<g id="edge36_Node000021_Node000022" class="edge">
<title>Node21&#45;&gt;Node22</title>
<g id="a_edge36_Node000021_Node000022"><a xlink:title=" ">
<path fill="none" stroke="#63b8ff" d="M121.02,-167.59C126.09,-160.39 133.24,-150.23 139.43,-141.43"/>
<polygon fill="#63b8ff" stroke="#63b8ff" points="142.09,-143.73 144.99,-133.54 136.37,-139.7 142.09,-143.73"/>
</a>
</g>
</g>
<!-- Node24 -->
<g id="Node000024" class="node">
<title>Node24</title>
<g id="a_Node000024"><a xlink:title=" ">
<polygon fill="#e0e0e0" stroke="#999999" points="104.4,-132 46.4,-132 46.4,-112 104.4,-112 104.4,-132"/>
<text text-anchor="middle" x="75.4" y="-118.5" font-family="Helvetica,sans-Serif" font-size="10.00">functional</text>
</a>
</g>
</g>
<!-- Node21&#45;&gt;Node24 -->
<g id="edge40_Node000021_Node000024" class="edge">
<title>Node21&#45;&gt;Node24</title>
<g id="a_edge40_Node000021_Node000024"><a xlink:title=" ">
<path fill="none" stroke="#63b8ff" d="M107.61,-167.59C102.41,-160.39 95.07,-150.23 88.71,-141.43"/>
<polygon fill="#63b8ff" stroke="#63b8ff" points="91.69,-139.58 83,-133.53 86.02,-143.68 91.69,-139.58"/>
</a>
</g>
</g>
<!-- Node25 -->
<g id="Node000025" class="node">
<title>Node25</title>
<g id="a_Node000025"><a xlink:title=" ">
<polygon fill="#e0e0e0" stroke="#999999" points="28.8,-132 0,-132 0,-112 28.8,-112 28.8,-132"/>
<text text-anchor="middle" x="14.4" y="-118.5" font-family="Helvetica,sans-Serif" font-size="10.00">list</text>
</a>
</g>
</g>
<!-- Node21&#45;&gt;Node25 -->
<g id="edge41_Node000021_Node000025" class="edge">
<title>Node21&#45;&gt;Node25</title>
<g id="a_edge41_Node000021_Node000025"><a xlink:title=" ">
<path fill="none" stroke="#63b8ff" d="M96.98,-167.59C80.97,-158.95 57.05,-146.03 39.07,-136.32"/>
<polygon fill="#63b8ff" stroke="#63b8ff" points="40.82,-133.29 30.35,-131.61 37.49,-139.45 40.82,-133.29"/>
</a>
</g>
</g>
<!-- Node22&#45;&gt;Node6 -->
<g id="edge37_Node000022_Node000006" class="edge">
<title>Node22&#45;&gt;Node6</title>
<g id="a_edge37_Node000022_Node000006"><a xlink:title=" ">
<path fill="none" stroke="#63b8ff" d="M157.75,-111.84C166.97,-97.04 187.38,-68.3 213.4,-56 320.33,-5.46 622.42,-38.64 757.47,-19.79"/>
<polygon fill="#63b8ff" stroke="#63b8ff" points="757.62,-23.31 766.96,-18.3 756.54,-16.39 757.62,-23.31"/>
</a>
</g>
</g>
<!-- Node22&#45;&gt;Node15 -->
<g id="edge38_Node000022_Node000015" class="edge">
<title>Node22&#45;&gt;Node15</title>
<g id="a_edge38_Node000022_Node000015"><a xlink:title=" ">
<path fill="none" stroke="#63b8ff" d="M182.6,-113.88C185.57,-113.23 188.54,-112.59 191.4,-112 258.4,-98.2 336.05,-84.47 386.36,-75.88"/>
<polygon fill="#63b8ff" stroke="#63b8ff" points="386.83,-79.35 396.11,-74.22 385.66,-72.45 386.83,-79.35"/>
</a>
</g>
</g>
<!-- Node23 -->
<g id="Node000023" class="node">
<title>Node23</title>
<g id="a_Node000023"><a xlink:title=" ">
<polygon fill="#e0e0e0" stroke="#999999" points="166.28,-76 134.53,-76 134.53,-56 166.28,-56 166.28,-76"/>
<text text-anchor="middle" x="150.4" y="-62.5" font-family="Helvetica,sans-Serif" font-size="10.00">any</text>
</a>
</g>
</g>
<!-- Node22&#45;&gt;Node23 -->
<g id="edge39_Node000022_Node000023" class="edge">
<title>Node22&#45;&gt;Node23</title>
<g id="a_edge39_Node000022_Node000023"><a xlink:title=" ">
<path fill="none" stroke="#63b8ff" d="M152.05,-111.59C151.81,-105.01 151.47,-95.96 151.17,-87.73"/>
<polygon fill="#63b8ff" stroke="#63b8ff" points="154.67,-87.67 150.8,-77.81 147.67,-87.93 154.67,-87.67"/>
</a>
</g>
</g>
<!-- Node27 -->
<g id="Node000027" class="node">
<title>Node27</title>
<g id="a_Node000027"><a xlink:href="Utils_8hpp.html" target="_top" xlink:title=" ">
<polygon fill="white" stroke="#666666" points="935.9,-188 880.9,-188 880.9,-168 935.9,-168 935.9,-188"/>
<text text-anchor="middle" x="908.4" y="-174.5" font-family="Helvetica,sans-Serif" font-size="10.00">Utils.hpp</text>
</a>
</g>
</g>
<!-- Node26&#45;&gt;Node27 -->
<g id="edge43_Node000026_Node000027" class="edge">
<title>Node26&#45;&gt;Node27</title>
<g id="a_edge43_Node000026_Node000027"><a xlink:title=" ">
<path fill="none" stroke="#63b8ff" d="M720.25,-223.53C756.78,-215.04 812.08,-202.13 869.42,-188.46"/>
<polygon fill="#63b8ff" stroke="#63b8ff" points="870.14,-191.88 879.05,-186.16 868.51,-185.08 870.14,-191.88"/>
</a>
</g>
</g>
<!-- Node27&#45;&gt;Node6 -->
<g id="edge44_Node000027_Node000006" class="edge">
<title>Node27&#45;&gt;Node6</title>
<g id="a_edge44_Node000027_Node000006"><a xlink:title=" ">
<path fill="none" stroke="#63b8ff" d="M916.62,-167.8C923.69,-159.23 933.36,-145.73 937.4,-132 947.75,-96.84 933.1,-80 905.4,-56 882.49,-36.16 849.78,-24.46 825.27,-17.99"/>
<polygon fill="#63b8ff" stroke="#63b8ff" points="826.33,-14.65 815.78,-15.66 824.66,-21.45 826.33,-14.65"/>
</a>
</g>
</g>
<!-- Node27&#45;&gt;Node13 -->
<g id="edge47_Node000027_Node000013" class="edge">
<title>Node27&#45;&gt;Node13</title>
<g id="a_edge47_Node000027_Node000013"><a xlink:title=" ">
<path fill="none" stroke="#63b8ff" d="M908.57,-167.59C908.7,-161.01 908.86,-151.96 909.02,-143.73"/>
<polygon fill="#63b8ff" stroke="#63b8ff" points="912.51,-143.87 909.2,-133.81 905.52,-143.75 912.51,-143.87"/>
</a>
</g>
</g>
<!-- Node27&#45;&gt;Node16 -->
<g id="edge45_Node000027_Node000016" class="edge">
<title>Node27&#45;&gt;Node16</title>
<g id="a_edge45_Node000027_Node000016"><a xlink:title=" ">
<path fill="none" stroke="#63b8ff" d="M880.59,-169.88C877.5,-169.19 874.39,-168.55 871.4,-168 752.17,-146.06 608.56,-131.52 546.04,-125.77"/>
<polygon fill="#63b8ff" stroke="#63b8ff" points="546.44,-122.3 536.16,-124.88 545.8,-129.27 546.44,-122.3"/>
</a>
</g>
</g>
<!-- Node28 -->
<g id="Node000028" class="node">
<title>Node28</title>
<g id="a_Node000028"><a xlink:title=" ">
<polygon fill="#e0e0e0" stroke="#999999" points="1036.03,-132 984.77,-132 984.77,-112 1036.03,-112 1036.03,-132"/>
<text text-anchor="middle" x="1010.4" y="-118.5" font-family="Helvetica,sans-Serif" font-size="10.00">ostream</text>
</a>
</g>
</g>
<!-- Node27&#45;&gt;Node28 -->
<g id="edge46_Node000027_Node000028" class="edge">
<title>Node27&#45;&gt;Node28</title>
<g id="a_edge46_Node000027_Node000028"><a xlink:title=" ">
<path fill="none" stroke="#63b8ff" d="M926.17,-167.59C941.72,-159.36 964.58,-147.26 982.56,-137.74"/>
<polygon fill="#63b8ff" stroke="#63b8ff" points="983.96,-140.96 991.16,-133.19 980.68,-134.77 983.96,-140.96"/>
</a>
</g>
</g>
<!-- Node29&#45;&gt;Node27 -->
<g id="edge49_Node000029_Node000027" class="edge">
<title>Node29&#45;&gt;Node27</title>
<g id="a_edge49_Node000029_Node000027"><a xlink:title=" ">
<path fill="none" stroke="#63b8ff" d="M880.32,-223.59C884.76,-216.55 890.98,-206.67 896.44,-198"/>
<polygon fill="#63b8ff" stroke="#63b8ff" points="899.37,-199.91 901.74,-189.58 893.45,-196.18 899.37,-199.91"/>
</a>
</g>
</g>
</g>
</svg>
