<?xml version="1.0" encoding="UTF-8" standalone="no"?>
<!DOCTYPE svg PUBLIC "-//W3C//DTD SVG 1.1//EN"
 "http://www.w3.org/Graphics/SVG/1.1/DTD/svg11.dtd">
<!-- Generated by graphviz version 12.1.0 (20240811.2233)
 -->
<!-- Title: Physics.hpp Pages: 1 -->
<svg width="813pt" height="308pt"
 viewBox="0.00 0.00 813.25 308.00" xmlns="http://www.w3.org/2000/svg" xmlns:xlink="http://www.w3.org/1999/xlink">
<g id="graph0" class="graph" transform="scale(1 1) rotate(0) translate(4 304)">
<title>Physics.hpp</title>
<!-- Node1 -->
<g id="Node000001" class="node">
<title>Node1</title>
<g id="a_Node000001"><a xlink:title=" ">
<polygon fill="#999999" stroke="#666666" points="411.25,-300 341.25,-300 341.25,-280 411.25,-280 411.25,-300"/>
<text text-anchor="middle" x="376.25" y="-286.5" font-family="Helvetica,sans-Serif" font-size="10.00">Physics.hpp</text>
</a>
</g>
</g>
<!-- Node2 -->
<g id="Node000002" class="node">
<title>Node2</title>
<g id="a_Node000002"><a xlink:title=" ">
<polygon fill="#e0e0e0" stroke="#999999" points="137.88,-132 86.62,-132 86.62,-112 137.88,-112 137.88,-132"/>
<text text-anchor="middle" x="112.25" y="-118.5" font-family="Helvetica,sans-Serif" font-size="10.00">memory</text>
</a>
</g>
</g>
<!-- Node1&#45;&gt;Node2 -->
<g id="edge1_Node000001_Node000002" class="edge">
<title>Node1&#45;&gt;Node2</title>
<g id="a_edge1_Node000001_Node000002"><a xlink:title=" ">
<path fill="none" stroke="#63b8ff" d="M341.16,-287.01C283.13,-281.64 168.33,-261.74 115.25,-188 106.16,-175.36 105.98,-157.5 107.76,-143.69"/>
<polygon fill="#63b8ff" stroke="#63b8ff" points="111.2,-144.37 109.48,-133.91 104.3,-143.15 111.2,-144.37"/>
</a>
</g>
</g>
<!-- Node3 -->
<g id="Node000003" class="node">
<title>Node3</title>
<g id="a_Node000003"><a xlink:href="System_8hpp.html" target="_top" xlink:title=" ">
<polygon fill="white" stroke="#666666" points="68.5,-132 0,-132 0,-112 68.5,-112 68.5,-132"/>
<text text-anchor="middle" x="34.25" y="-118.5" font-family="Helvetica,sans-Serif" font-size="10.00">System.hpp</text>
</a>
</g>
</g>
<!-- Node1&#45;&gt;Node3 -->
<g id="edge2_Node000001_Node000003" class="edge">
<title>Node1&#45;&gt;Node3</title>
<g id="a_edge2_Node000001_Node000003"><a xlink:title=" ">
<path fill="none" stroke="#63b8ff" d="M340.78,-288.6C293.9,-286.65 210.04,-278.16 148.25,-244 102.76,-218.85 64.86,-169.2 46.38,-141.97"/>
<polygon fill="#63b8ff" stroke="#63b8ff" points="49.34,-140.1 40.91,-133.69 43.49,-143.96 49.34,-140.1"/>
</a>
</g>
</g>
<!-- Node8 -->
<g id="Node000008" class="node">
<title>Node8</title>
<g id="a_Node000008"><a xlink:href="Mediator_8hpp.html" target="_top" xlink:title=" ">
<polygon fill="white" stroke="#666666" points="351.38,-244 279.12,-244 279.12,-224 351.38,-224 351.38,-244"/>
<text text-anchor="middle" x="315.25" y="-230.5" font-family="Helvetica,sans-Serif" font-size="10.00">Mediator.hpp</text>
</a>
</g>
</g>
<!-- Node1&#45;&gt;Node8 -->
<g id="edge7_Node000001_Node000008" class="edge">
<title>Node1&#45;&gt;Node8</title>
<g id="a_edge7_Node000001_Node000008"><a xlink:title=" ">
<path fill="none" stroke="#63b8ff" d="M365.62,-279.59C356.97,-271.93 344.52,-260.91 334.17,-251.75"/>
<polygon fill="#63b8ff" stroke="#63b8ff" points="336.69,-249.31 326.89,-245.3 332.05,-254.55 336.69,-249.31"/>
</a>
</g>
</g>
<!-- Node23 -->
<g id="Node000023" class="node">
<title>Node23</title>
<g id="a_Node000023"><a xlink:href="RigidBody_8hpp.html" target="_top" xlink:title=" ">
<polygon fill="white" stroke="#666666" points="507,-244 369.5,-244 369.5,-224 507,-224 507,-244"/>
<text text-anchor="middle" x="438.25" y="-230.5" font-family="Helvetica,sans-Serif" font-size="10.00">Components/RigidBody.hpp</text>
</a>
</g>
</g>
<!-- Node1&#45;&gt;Node23 -->
<g id="edge34_Node000001_Node000023" class="edge">
<title>Node1&#45;&gt;Node23</title>
<g id="a_edge34_Node000001_Node000023"><a xlink:title=" ">
<path fill="none" stroke="#63b8ff" d="M387.05,-279.59C395.85,-271.93 408.5,-260.91 419.02,-251.75"/>
<polygon fill="#63b8ff" stroke="#63b8ff" points="421.19,-254.5 426.43,-245.29 416.59,-249.22 421.19,-254.5"/>
</a>
</g>
</g>
<!-- Node25 -->
<g id="Node000025" class="node">
<title>Node25</title>
<g id="a_Node000025"><a xlink:href="Transform_8hpp.html" target="_top" xlink:title=" ">
<polygon fill="white" stroke="#666666" points="663,-244 525.5,-244 525.5,-224 663,-224 663,-244"/>
<text text-anchor="middle" x="594.25" y="-230.5" font-family="Helvetica,sans-Serif" font-size="10.00">Components/Transform.hpp</text>
</a>
</g>
</g>
<!-- Node1&#45;&gt;Node25 -->
<g id="edge37_Node000001_Node000025" class="edge">
<title>Node1&#45;&gt;Node25</title>
<g id="a_edge37_Node000001_Node000025"><a xlink:title=" ">
<path fill="none" stroke="#63b8ff" d="M411.28,-280.32C447.47,-271.36 504.27,-257.29 544.98,-247.2"/>
<polygon fill="#63b8ff" stroke="#63b8ff" points="545.68,-250.64 554.54,-244.84 543.99,-243.84 545.68,-250.64"/>
</a>
</g>
</g>
<!-- Node26 -->
<g id="Node000026" class="node">
<title>Node26</title>
<g id="a_Node000026"><a xlink:href="Gravity_8hpp.html" target="_top" xlink:title=" ">
<polygon fill="white" stroke="#666666" points="805.25,-244 681.25,-244 681.25,-224 805.25,-224 805.25,-244"/>
<text text-anchor="middle" x="743.25" y="-230.5" font-family="Helvetica,sans-Serif" font-size="10.00">Components/Gravity.hpp</text>
</a>
</g>
</g>
<!-- Node1&#45;&gt;Node26 -->
<g id="edge39_Node000001_Node000026" class="edge">
<title>Node1&#45;&gt;Node26</title>
<g id="a_edge39_Node000001_Node000026"><a xlink:title=" ">
<path fill="none" stroke="#63b8ff" d="M411.44,-283.82C470.61,-275.12 591.21,-257.37 669.56,-245.84"/>
<polygon fill="#63b8ff" stroke="#63b8ff" points="669.92,-249.33 679.31,-244.41 668.9,-242.4 669.92,-249.33"/>
</a>
</g>
</g>
<!-- Node4 -->
<g id="Node000004" class="node">
<title>Node4</title>
<g id="a_Node000004"><a xlink:title=" ">
<polygon fill="#e0e0e0" stroke="#999999" points="49,-76 19.5,-76 19.5,-56 49,-56 49,-76"/>
<text text-anchor="middle" x="34.25" y="-62.5" font-family="Helvetica,sans-Serif" font-size="10.00">set</text>
</a>
</g>
</g>
<!-- Node3&#45;&gt;Node4 -->
<g id="edge3_Node000003_Node000004" class="edge">
<title>Node3&#45;&gt;Node4</title>
<g id="a_edge3_Node000003_Node000004"><a xlink:title=" ">
<path fill="none" stroke="#63b8ff" d="M34.25,-111.59C34.25,-105.01 34.25,-95.96 34.25,-87.73"/>
<polygon fill="#63b8ff" stroke="#63b8ff" points="37.75,-87.81 34.25,-77.81 30.75,-87.81 37.75,-87.81"/>
</a>
</g>
</g>
<!-- Node5 -->
<g id="Node000005" class="node">
<title>Node5</title>
<g id="a_Node000005"><a xlink:href="Entity_8hpp.html" target="_top" xlink:title=" ">
<polygon fill="white" stroke="#666666" points="295,-76 235.5,-76 235.5,-56 295,-56 295,-76"/>
<text text-anchor="middle" x="265.25" y="-62.5" font-family="Helvetica,sans-Serif" font-size="10.00">Entity.hpp</text>
</a>
</g>
</g>
<!-- Node3&#45;&gt;Node5 -->
<g id="edge4_Node000003_Node000005" class="edge">
<title>Node3&#45;&gt;Node5</title>
<g id="a_edge4_Node000003_Node000005"><a xlink:title=" ">
<path fill="none" stroke="#63b8ff" d="M68.83,-112.92C110.4,-103.2 180.06,-86.91 224.28,-76.58"/>
<polygon fill="#63b8ff" stroke="#63b8ff" points="224.8,-80.05 233.74,-74.36 223.21,-73.23 224.8,-80.05"/>
</a>
</g>
</g>
<!-- Node6 -->
<g id="Node000006" class="node">
<title>Node6</title>
<g id="a_Node000006"><a xlink:title=" ">
<polygon fill="#e0e0e0" stroke="#999999" points="688.88,-20 643.62,-20 643.62,0 688.88,0 688.88,-20"/>
<text text-anchor="middle" x="666.25" y="-6.5" font-family="Helvetica,sans-Serif" font-size="10.00">cstdint</text>
</a>
</g>
</g>
<!-- Node5&#45;&gt;Node6 -->
<g id="edge5_Node000005_Node000006" class="edge">
<title>Node5&#45;&gt;Node6</title>
<g id="a_edge5_Node000005_Node000006"><a xlink:title=" ">
<path fill="none" stroke="#63b8ff" d="M295.42,-57.71C298.4,-57.09 301.38,-56.51 304.25,-56 424.01,-34.8 567.81,-20.08 632.18,-14.05"/>
<polygon fill="#63b8ff" stroke="#63b8ff" points="632.11,-17.57 641.75,-13.17 631.47,-10.6 632.11,-17.57"/>
</a>
</g>
</g>
<!-- Node7 -->
<g id="Node000007" class="node">
<title>Node7</title>
<g id="a_Node000007"><a xlink:title=" ">
<polygon fill="#e0e0e0" stroke="#999999" points="285.25,-20 245.25,-20 245.25,0 285.25,0 285.25,-20"/>
<text text-anchor="middle" x="265.25" y="-6.5" font-family="Helvetica,sans-Serif" font-size="10.00">bitset</text>
</a>
</g>
</g>
<!-- Node5&#45;&gt;Node7 -->
<g id="edge6_Node000005_Node000007" class="edge">
<title>Node5&#45;&gt;Node7</title>
<g id="a_edge6_Node000005_Node000007"><a xlink:title=" ">
<path fill="none" stroke="#63b8ff" d="M265.25,-55.59C265.25,-49.01 265.25,-39.96 265.25,-31.73"/>
<polygon fill="#63b8ff" stroke="#63b8ff" points="268.75,-31.81 265.25,-21.81 261.75,-31.81 268.75,-31.81"/>
</a>
</g>
</g>
<!-- Node8&#45;&gt;Node2 -->
<g id="edge8_Node000008_Node000002" class="edge">
<title>Node8&#45;&gt;Node2</title>
<g id="a_edge8_Node000008_Node000002"><a xlink:title=" ">
<path fill="none" stroke="#63b8ff" d="M278.7,-228.42C231.29,-221.77 152.16,-208 131.25,-188 119.29,-176.56 114.74,-158.05 113.06,-143.7"/>
<polygon fill="#63b8ff" stroke="#63b8ff" points="116.57,-143.67 112.33,-133.96 109.59,-144.19 116.57,-143.67"/>
</a>
</g>
</g>
<!-- Node9 -->
<g id="Node000009" class="node">
<title>Node9</title>
<g id="a_Node000009"><a xlink:href="EntityManager_8hpp.html" target="_top" xlink:title=" ">
<polygon fill="white" stroke="#666666" points="644.12,-188 546.38,-188 546.38,-168 644.12,-168 644.12,-188"/>
<text text-anchor="middle" x="595.25" y="-174.5" font-family="Helvetica,sans-Serif" font-size="10.00">EntityManager.hpp</text>
</a>
</g>
</g>
<!-- Node8&#45;&gt;Node9 -->
<g id="edge9_Node000008_Node000009" class="edge">
<title>Node8&#45;&gt;Node9</title>
<g id="a_edge9_Node000008_Node000009"><a xlink:title=" ">
<path fill="none" stroke="#63b8ff" d="M351.59,-225.7C354.52,-225.12 357.44,-224.55 360.25,-224 419.69,-212.36 487.66,-199.39 535.15,-190.37"/>
<polygon fill="#63b8ff" stroke="#63b8ff" points="535.51,-193.86 544.68,-188.56 534.2,-186.99 535.51,-193.86"/>
</a>
</g>
</g>
<!-- Node12 -->
<g id="Node000012" class="node">
<title>Node12</title>
<g id="a_Node000012"><a xlink:href="ComponentManager_8hpp.html" target="_top" xlink:title=" ">
<polygon fill="white" stroke="#666666" points="386.5,-188 264,-188 264,-168 386.5,-168 386.5,-188"/>
<text text-anchor="middle" x="325.25" y="-174.5" font-family="Helvetica,sans-Serif" font-size="10.00">ComponentManager.hpp</text>
</a>
</g>
</g>
<!-- Node8&#45;&gt;Node12 -->
<g id="edge13_Node000008_Node000012" class="edge">
<title>Node8&#45;&gt;Node12</title>
<g id="a_edge13_Node000008_Node000012"><a xlink:title=" ">
<path fill="none" stroke="#63b8ff" d="M316.99,-223.59C318.23,-216.93 319.93,-207.75 321.46,-199.44"/>
<polygon fill="#63b8ff" stroke="#63b8ff" points="324.87,-200.26 323.25,-189.79 317.99,-198.98 324.87,-200.26"/>
</a>
</g>
</g>
<!-- Node17 -->
<g id="Node000017" class="node">
<title>Node17</title>
<g id="a_Node000017"><a xlink:href="SystemManager_8hpp.html" target="_top" xlink:title=" ">
<polygon fill="white" stroke="#666666" points="246.25,-188 140.25,-188 140.25,-168 246.25,-168 246.25,-188"/>
<text text-anchor="middle" x="193.25" y="-174.5" font-family="Helvetica,sans-Serif" font-size="10.00">SystemManager.hpp</text>
</a>
</g>
</g>
<!-- Node8&#45;&gt;Node17 -->
<g id="edge22_Node000008_Node000017" class="edge">
<title>Node8&#45;&gt;Node17</title>
<g id="a_edge22_Node000008_Node000017"><a xlink:title=" ">
<path fill="none" stroke="#63b8ff" d="M294,-223.59C274.96,-215.17 246.77,-202.69 225.05,-193.07"/>
<polygon fill="#63b8ff" stroke="#63b8ff" points="226.61,-189.94 216.05,-189.09 223.78,-196.34 226.61,-189.94"/>
</a>
</g>
</g>
<!-- Node18 -->
<g id="Node000018" class="node">
<title>Node18</title>
<g id="a_Node000018"><a xlink:href="EventManager_8hpp.html" target="_top" xlink:title=" ">
<polygon fill="white" stroke="#666666" points="522.12,-188 424.38,-188 424.38,-168 522.12,-168 522.12,-188"/>
<text text-anchor="middle" x="473.25" y="-174.5" font-family="Helvetica,sans-Serif" font-size="10.00">EventManager.hpp</text>
</a>
</g>
</g>
<!-- Node8&#45;&gt;Node18 -->
<g id="edge27_Node000008_Node000018" class="edge">
<title>Node8&#45;&gt;Node18</title>
<g id="a_edge27_Node000008_Node000018"><a xlink:title=" ">
<path fill="none" stroke="#63b8ff" d="M342.77,-223.59C368.22,-214.9 406.28,-201.89 434.74,-192.16"/>
<polygon fill="#63b8ff" stroke="#63b8ff" points="435.75,-195.52 444.08,-188.97 433.49,-188.89 435.75,-195.52"/>
</a>
</g>
</g>
<!-- Node9&#45;&gt;Node5 -->
<g id="edge12_Node000009_Node000005" class="edge">
<title>Node9&#45;&gt;Node5</title>
<g id="a_edge12_Node000009_Node000005"><a xlink:title=" ">
<path fill="none" stroke="#63b8ff" d="M594.12,-167.71C591.84,-153.28 585.25,-125.68 567.25,-112 522.77,-78.18 378.63,-85.68 306.73,-76.03"/>
<polygon fill="#63b8ff" stroke="#63b8ff" points="307.35,-72.58 296.92,-74.48 306.26,-79.5 307.35,-72.58"/>
</a>
</g>
</g>
<!-- Node10 -->
<g id="Node000010" class="node">
<title>Node10</title>
<g id="a_Node000010"><a xlink:title=" ">
<polygon fill="#e0e0e0" stroke="#999999" points="790.38,-132 748.12,-132 748.12,-112 790.38,-112 790.38,-132"/>
<text text-anchor="middle" x="769.25" y="-118.5" font-family="Helvetica,sans-Serif" font-size="10.00">queue</text>
</a>
</g>
</g>
<!-- Node9&#45;&gt;Node10 -->
<g id="edge10_Node000009_Node000010" class="edge">
<title>Node9&#45;&gt;Node10</title>
<g id="a_edge10_Node000009_Node000010"><a xlink:title=" ">
<path fill="none" stroke="#63b8ff" d="M625.56,-167.59C656.69,-157.93 704.98,-142.95 736.85,-133.06"/>
<polygon fill="#63b8ff" stroke="#63b8ff" points="737.83,-136.42 746.34,-130.11 735.76,-129.73 737.83,-136.42"/>
</a>
</g>
</g>
<!-- Node11 -->
<g id="Node000011" class="node">
<title>Node11</title>
<g id="a_Node000011"><a xlink:title=" ">
<polygon fill="#e0e0e0" stroke="#999999" points="730.12,-132 692.38,-132 692.38,-112 730.12,-112 730.12,-132"/>
<text text-anchor="middle" x="711.25" y="-118.5" font-family="Helvetica,sans-Serif" font-size="10.00">array</text>
</a>
</g>
</g>
<!-- Node9&#45;&gt;Node11 -->
<g id="edge11_Node000009_Node000011" class="edge">
<title>Node9&#45;&gt;Node11</title>
<g id="a_edge11_Node000009_Node000011"><a xlink:title=" ">
<path fill="none" stroke="#63b8ff" d="M615.46,-167.59C633.81,-159.05 661.1,-146.35 681.86,-136.68"/>
<polygon fill="#63b8ff" stroke="#63b8ff" points="683.09,-139.97 690.67,-132.58 680.13,-133.63 683.09,-139.97"/>
</a>
</g>
</g>
<!-- Node12&#45;&gt;Node2 -->
<g id="edge16_Node000012_Node000002" class="edge">
<title>Node12&#45;&gt;Node2</title>
<g id="a_edge16_Node000012_Node000002"><a xlink:title=" ">
<path fill="none" stroke="#63b8ff" d="M288.15,-167.59C249.18,-157.71 188.25,-142.27 149.3,-132.39"/>
<polygon fill="#63b8ff" stroke="#63b8ff" points="150.23,-129.02 139.68,-129.95 148.51,-135.8 150.23,-129.02"/>
</a>
</g>
</g>
<!-- Node12&#45;&gt;Node5 -->
<g id="edge17_Node000012_Node000005" class="edge">
<title>Node12&#45;&gt;Node5</title>
<g id="a_edge17_Node000012_Node000005"><a xlink:title=" ">
<path fill="none" stroke="#63b8ff" d="M312.96,-167.61C302.96,-159.31 289.22,-146.32 281.25,-132 273.63,-118.3 269.6,-100.99 267.49,-87.68"/>
<polygon fill="#63b8ff" stroke="#63b8ff" points="270.97,-87.35 266.2,-77.89 264.03,-88.26 270.97,-87.35"/>
</a>
</g>
</g>
<!-- Node13 -->
<g id="Node000013" class="node">
<title>Node13</title>
<g id="a_Node000013"><a xlink:title=" ">
<polygon fill="#e0e0e0" stroke="#999999" points="471.62,-76 388.88,-76 388.88,-56 471.62,-56 471.62,-76"/>
<text text-anchor="middle" x="430.25" y="-62.5" font-family="Helvetica,sans-Serif" font-size="10.00">unordered_map</text>
</a>
</g>
</g>
<!-- Node12&#45;&gt;Node13 -->
<g id="edge14_Node000012_Node000013" class="edge">
<title>Node12&#45;&gt;Node13</title>
<g id="a_edge14_Node000012_Node000013"><a xlink:title=" ">
<path fill="none" stroke="#63b8ff" d="M353.37,-167.54C371.02,-160.3 393.05,-148.7 407.25,-132 417.93,-119.43 423.78,-101.56 426.9,-87.73"/>
<polygon fill="#63b8ff" stroke="#63b8ff" points="430.34,-88.41 428.78,-77.93 423.46,-87.09 430.34,-88.41"/>
</a>
</g>
</g>
<!-- Node14 -->
<g id="Node000014" class="node">
<title>Node14</title>
<g id="a_Node000014"><a xlink:title=" ">
<polygon fill="#e0e0e0" stroke="#999999" points="234.25,-132 194.25,-132 194.25,-112 234.25,-112 234.25,-132"/>
<text text-anchor="middle" x="214.25" y="-118.5" font-family="Helvetica,sans-Serif" font-size="10.00">string</text>
</a>
</g>
</g>
<!-- Node12&#45;&gt;Node14 -->
<g id="edge15_Node000012_Node000014" class="edge">
<title>Node12&#45;&gt;Node14</title>
<g id="a_edge15_Node000012_Node000014"><a xlink:title=" ">
<path fill="none" stroke="#63b8ff" d="M305.92,-167.59C288.83,-159.28 263.65,-147.03 244,-137.47"/>
<polygon fill="#63b8ff" stroke="#63b8ff" points="245.62,-134.37 235.1,-133.14 242.56,-140.66 245.62,-134.37"/>
</a>
</g>
</g>
<!-- Node15 -->
<g id="Node000015" class="node">
<title>Node15</title>
<g id="a_Node000015"><a xlink:href="ComponentArray_8hpp.html" target="_top" xlink:title=" ">
<polygon fill="white" stroke="#666666" points="398,-132 290.5,-132 290.5,-112 398,-112 398,-132"/>
<text text-anchor="middle" x="344.25" y="-118.5" font-family="Helvetica,sans-Serif" font-size="10.00">ComponentArray.hpp</text>
</a>
</g>
</g>
<!-- Node12&#45;&gt;Node15 -->
<g id="edge18_Node000012_Node000015" class="edge">
<title>Node12&#45;&gt;Node15</title>
<g id="a_edge18_Node000012_Node000015"><a xlink:title=" ">
<path fill="none" stroke="#63b8ff" d="M328.56,-167.59C330.93,-160.86 334.21,-151.53 337.16,-143.15"/>
<polygon fill="#63b8ff" stroke="#63b8ff" points="340.46,-144.32 340.48,-133.73 333.86,-142 340.46,-144.32"/>
</a>
</g>
</g>
<!-- Node15&#45;&gt;Node5 -->
<g id="edge21_Node000015_Node000005" class="edge">
<title>Node15&#45;&gt;Node5</title>
<g id="a_edge21_Node000015_Node000005"><a xlink:title=" ">
<path fill="none" stroke="#63b8ff" d="M330.49,-111.59C318.89,-103.67 302.05,-92.16 288.39,-82.82"/>
<polygon fill="#63b8ff" stroke="#63b8ff" points="290.6,-80.09 280.37,-77.33 286.65,-85.87 290.6,-80.09"/>
</a>
</g>
</g>
<!-- Node15&#45;&gt;Node13 -->
<g id="edge20_Node000015_Node000013" class="edge">
<title>Node15&#45;&gt;Node13</title>
<g id="a_edge20_Node000015_Node000013"><a xlink:title=" ">
<path fill="none" stroke="#63b8ff" d="M359.23,-111.59C371.98,-103.59 390.54,-91.93 405.49,-82.54"/>
<polygon fill="#63b8ff" stroke="#63b8ff" points="407.26,-85.57 413.87,-77.28 403.54,-79.64 407.26,-85.57"/>
</a>
</g>
</g>
<!-- Node16 -->
<g id="Node000016" class="node">
<title>Node16</title>
<g id="a_Node000016"><a xlink:title=" ">
<polygon fill="#e0e0e0" stroke="#999999" points="371.25,-76 313.25,-76 313.25,-56 371.25,-56 371.25,-76"/>
<text text-anchor="middle" x="342.25" y="-62.5" font-family="Helvetica,sans-Serif" font-size="10.00">exception</text>
</a>
</g>
</g>
<!-- Node15&#45;&gt;Node16 -->
<g id="edge19_Node000015_Node000016" class="edge">
<title>Node15&#45;&gt;Node16</title>
<g id="a_edge19_Node000015_Node000016"><a xlink:title=" ">
<path fill="none" stroke="#63b8ff" d="M343.9,-111.59C343.66,-105.01 343.32,-95.96 343.02,-87.73"/>
<polygon fill="#63b8ff" stroke="#63b8ff" points="346.52,-87.67 342.65,-77.81 339.52,-87.93 346.52,-87.67"/>
</a>
</g>
</g>
<!-- Node17&#45;&gt;Node2 -->
<g id="edge25_Node000017_Node000002" class="edge">
<title>Node17&#45;&gt;Node2</title>
<g id="a_edge25_Node000017_Node000002"><a xlink:title=" ">
<path fill="none" stroke="#63b8ff" d="M179.14,-167.59C167.25,-159.67 149.98,-148.16 135.97,-138.82"/>
<polygon fill="#63b8ff" stroke="#63b8ff" points="137.99,-135.95 127.73,-133.32 134.11,-141.78 137.99,-135.95"/>
</a>
</g>
</g>
<!-- Node17&#45;&gt;Node3 -->
<g id="edge26_Node000017_Node000003" class="edge">
<title>Node17&#45;&gt;Node3</title>
<g id="a_edge26_Node000017_Node000003"><a xlink:title=" ">
<path fill="none" stroke="#63b8ff" d="M165.55,-167.59C139.95,-158.9 101.64,-145.89 73,-136.16"/>
<polygon fill="#63b8ff" stroke="#63b8ff" points="74.19,-132.87 63.59,-132.97 71.94,-139.5 74.19,-132.87"/>
</a>
</g>
</g>
<!-- Node17&#45;&gt;Node13 -->
<g id="edge23_Node000017_Node000013" class="edge">
<title>Node17&#45;&gt;Node13</title>
<g id="a_edge23_Node000017_Node000013"><a xlink:title=" ">
<path fill="none" stroke="#63b8ff" d="M188.31,-167.83C181.64,-154.04 172.01,-127.9 185.25,-112 185.64,-111.53 305.49,-89.68 377.39,-76.6"/>
<polygon fill="#63b8ff" stroke="#63b8ff" points="377.79,-80.09 387.01,-74.85 376.54,-73.2 377.79,-80.09"/>
</a>
</g>
</g>
<!-- Node17&#45;&gt;Node14 -->
<g id="edge24_Node000017_Node000014" class="edge">
<title>Node17&#45;&gt;Node14</title>
<g id="a_edge24_Node000017_Node000014"><a xlink:title=" ">
<path fill="none" stroke="#63b8ff" d="M196.91,-167.59C199.56,-160.78 203.24,-151.32 206.53,-142.86"/>
<polygon fill="#63b8ff" stroke="#63b8ff" points="209.72,-144.3 210.09,-133.71 203.2,-141.76 209.72,-144.3"/>
</a>
</g>
</g>
<!-- Node19 -->
<g id="Node000019" class="node">
<title>Node19</title>
<g id="a_Node000019"><a xlink:href="Event_8hpp.html" target="_top" xlink:title=" ">
<polygon fill="white" stroke="#666666" points="674.38,-132 614.12,-132 614.12,-112 674.38,-112 674.38,-132"/>
<text text-anchor="middle" x="644.25" y="-118.5" font-family="Helvetica,sans-Serif" font-size="10.00">Event.hpp</text>
</a>
</g>
</g>
<!-- Node18&#45;&gt;Node19 -->
<g id="edge28_Node000018_Node000019" class="edge">
<title>Node18&#45;&gt;Node19</title>
<g id="a_edge28_Node000018_Node000019"><a xlink:title=" ">
<path fill="none" stroke="#63b8ff" d="M503.04,-167.59C530.82,-158.82 572.5,-145.66 603.39,-135.9"/>
<polygon fill="#63b8ff" stroke="#63b8ff" points="604.31,-139.28 612.79,-132.94 602.2,-132.61 604.31,-139.28"/>
</a>
</g>
</g>
<!-- Node21 -->
<g id="Node000021" class="node">
<title>Node21</title>
<g id="a_Node000021"><a xlink:title=" ">
<polygon fill="#e0e0e0" stroke="#999999" points="558.25,-132 500.25,-132 500.25,-112 558.25,-112 558.25,-132"/>
<text text-anchor="middle" x="529.25" y="-118.5" font-family="Helvetica,sans-Serif" font-size="10.00">functional</text>
</a>
</g>
</g>
<!-- Node18&#45;&gt;Node21 -->
<g id="edge32_Node000018_Node000021" class="edge">
<title>Node18&#45;&gt;Node21</title>
<g id="a_edge32_Node000018_Node000021"><a xlink:title=" ">
<path fill="none" stroke="#63b8ff" d="M483,-167.59C490.87,-160.01 502.15,-149.13 511.6,-140.02"/>
<polygon fill="#63b8ff" stroke="#63b8ff" points="513.75,-142.81 518.52,-133.35 508.89,-137.77 513.75,-142.81"/>
</a>
</g>
</g>
<!-- Node22 -->
<g id="Node000022" class="node">
<title>Node22</title>
<g id="a_Node000022"><a xlink:title=" ">
<polygon fill="#e0e0e0" stroke="#999999" points="482.65,-132 453.85,-132 453.85,-112 482.65,-112 482.65,-132"/>
<text text-anchor="middle" x="468.25" y="-118.5" font-family="Helvetica,sans-Serif" font-size="10.00">list</text>
</a>
</g>
</g>
<!-- Node18&#45;&gt;Node22 -->
<g id="edge33_Node000018_Node000022" class="edge">
<title>Node18&#45;&gt;Node22</title>
<g id="a_edge33_Node000018_Node000022"><a xlink:title=" ">
<path fill="none" stroke="#63b8ff" d="M472.38,-167.59C471.77,-161.01 470.93,-151.96 470.17,-143.73"/>
<polygon fill="#63b8ff" stroke="#63b8ff" points="473.66,-143.44 469.25,-133.81 466.69,-144.09 473.66,-143.44"/>
</a>
</g>
</g>
<!-- Node19&#45;&gt;Node6 -->
<g id="edge29_Node000019_Node000006" class="edge">
<title>Node19&#45;&gt;Node6</title>
<g id="a_edge29_Node000019_Node000006"><a xlink:title=" ">
<path fill="none" stroke="#63b8ff" d="M646.13,-111.62C649.67,-93.92 657.4,-55.24 662.19,-31.32"/>
<polygon fill="#63b8ff" stroke="#63b8ff" points="665.55,-32.33 664.08,-21.84 658.69,-30.96 665.55,-32.33"/>
</a>
</g>
</g>
<!-- Node19&#45;&gt;Node13 -->
<g id="edge30_Node000019_Node000013" class="edge">
<title>Node19&#45;&gt;Node13</title>
<g id="a_edge30_Node000019_Node000013"><a xlink:title=" ">
<path fill="none" stroke="#63b8ff" d="M614.04,-113.38C578.9,-104.51 520.39,-89.75 478.84,-79.26"/>
<polygon fill="#63b8ff" stroke="#63b8ff" points="479.89,-75.92 469.34,-76.86 478.17,-82.7 479.89,-75.92"/>
</a>
</g>
</g>
<!-- Node20 -->
<g id="Node000020" class="node">
<title>Node20</title>
<g id="a_Node000020"><a xlink:title=" ">
<polygon fill="#e0e0e0" stroke="#999999" points="638.12,-76 606.38,-76 606.38,-56 638.12,-56 638.12,-76"/>
<text text-anchor="middle" x="622.25" y="-62.5" font-family="Helvetica,sans-Serif" font-size="10.00">any</text>
</a>
</g>
</g>
<!-- Node19&#45;&gt;Node20 -->
<g id="edge31_Node000019_Node000020" class="edge">
<title>Node19&#45;&gt;Node20</title>
<g id="a_edge31_Node000019_Node000020"><a xlink:title=" ">
<path fill="none" stroke="#63b8ff" d="M640.42,-111.59C637.64,-104.78 633.79,-95.32 630.34,-86.86"/>
<polygon fill="#63b8ff" stroke="#63b8ff" points="633.62,-85.64 626.61,-77.7 627.14,-88.28 633.62,-85.64"/>
</a>
</g>
</g>
<!-- Node24 -->
<g id="Node000024" class="node">
<title>Node24</title>
<g id="a_Node000024"><a xlink:href="Utils_8hpp.html" target="_top" xlink:title=" ">
<polygon fill="white" stroke="#666666" points="752.75,-188 697.75,-188 697.75,-168 752.75,-168 752.75,-188"/>
<text text-anchor="middle" x="725.25" y="-174.5" font-family="Helvetica,sans-Serif" font-size="10.00">Utils.hpp</text>
</a>
</g>
</g>
<!-- Node23&#45;&gt;Node24 -->
<g id="edge35_Node000023_Node000024" class="edge">
<title>Node23&#45;&gt;Node24</title>
<g id="a_edge35_Node000023_Node000024"><a xlink:title=" ">
<path fill="none" stroke="#63b8ff" d="M488.57,-223.53C544.95,-212.92 635.13,-195.96 686.36,-186.32"/>
<polygon fill="#63b8ff" stroke="#63b8ff" points="686.92,-189.77 696.1,-184.48 685.63,-182.89 686.92,-189.77"/>
</a>
</g>
</g>
<!-- Node24&#45;&gt;Node6 -->
<g id="edge36_Node000024_Node000006" class="edge">
<title>Node24&#45;&gt;Node6</title>
<g id="a_edge36_Node000024_Node000006"><a xlink:title=" ">
<path fill="none" stroke="#63b8ff" d="M751.88,-167.58C777.84,-156.73 811.72,-137.12 799.25,-112 778.58,-70.35 731.61,-41.25 699.41,-25.32"/>
<polygon fill="#63b8ff" stroke="#63b8ff" points="701.01,-22.2 690.48,-21.07 698.01,-28.52 701.01,-22.2"/>
</a>
</g>
</g>
<!-- Node25&#45;&gt;Node24 -->
<g id="edge38_Node000025_Node000024" class="edge">
<title>Node25&#45;&gt;Node24</title>
<g id="a_edge38_Node000025_Node000024"><a xlink:title=" ">
<path fill="none" stroke="#63b8ff" d="M617.07,-223.59C637.7,-215.09 668.33,-202.46 691.74,-192.81"/>
<polygon fill="#63b8ff" stroke="#63b8ff" points="692.94,-196.1 700.85,-189.06 690.27,-189.63 692.94,-196.1"/>
</a>
</g>
</g>
<!-- Node26&#45;&gt;Node24 -->
<g id="edge40_Node000026_Node000024" class="edge">
<title>Node26&#45;&gt;Node24</title>
<g id="a_edge40_Node000026_Node000024"><a xlink:title=" ">
<path fill="none" stroke="#63b8ff" d="M740.11,-223.59C737.87,-216.86 734.76,-207.53 731.97,-199.15"/>
<polygon fill="#63b8ff" stroke="#63b8ff" points="735.31,-198.11 728.83,-189.73 728.67,-200.33 735.31,-198.11"/>
</a>
</g>
</g>
</g>
</svg>
