<?xml version="1.0" encoding="UTF-8" standalone="no"?>
<!DOCTYPE svg PUBLIC "-//W3C//DTD SVG 1.1//EN"
 "http://www.w3.org/Graphics/SVG/1.1/DTD/svg11.dtd">
<!-- Generated by graphviz version 12.1.0 (20240811.2233)
 -->
<!-- Title: PhysicsUsingEngine.hpp Pages: 1 -->
<svg width="1387pt" height="364pt"
 viewBox="0.00 0.00 1387.38 364.00" xmlns="http://www.w3.org/2000/svg" xmlns:xlink="http://www.w3.org/1999/xlink">
<g id="graph0" class="graph" transform="scale(1 1) rotate(0) translate(4 360)">
<title>PhysicsUsingEngine.hpp</title>
<!-- Node1 -->
<g id="Node000001" class="node">
<title>Node1</title>
<g id="a_Node000001"><a xlink:title=" ">
<polygon fill="#999999" stroke="#666666" points="564.5,-356 439,-356 439,-336 564.5,-336 564.5,-356"/>
<text text-anchor="middle" x="501.75" y="-342.5" font-family="Helvetica,sans-Serif" font-size="10.00">PhysicsUsingEngine.hpp</text>
</a>
</g>
</g>
<!-- Node2 -->
<g id="Node000002" class="node">
<title>Node2</title>
<g id="a_Node000002"><a xlink:title=" ">
<polygon fill="#e0e0e0" stroke="#999999" points="1153.38,-132 1102.12,-132 1102.12,-112 1153.38,-112 1153.38,-132"/>
<text text-anchor="middle" x="1127.75" y="-118.5" font-family="Helvetica,sans-Serif" font-size="10.00">memory</text>
</a>
</g>
</g>
<!-- Node1&#45;&gt;Node2 -->
<g id="edge1_Node000001_Node000002" class="edge">
<title>Node1&#45;&gt;Node2</title>
<g id="a_edge1_Node000001_Node000002"><a xlink:title=" ">
<path fill="none" stroke="#63b8ff" d="M535.89,-335.54C568.68,-326.45 619.61,-312.31 663.75,-300 841.58,-250.41 904.75,-281.82 1063.75,-188 1084.11,-175.98 1102.49,-155.88 1114.28,-141.2"/>
<polygon fill="#63b8ff" stroke="#63b8ff" points="1116.74,-143.73 1120.1,-133.68 1111.21,-139.45 1116.74,-143.73"/>
</a>
</g>
</g>
<!-- Node3 -->
<g id="Node000003" class="node">
<title>Node3</title>
<g id="a_Node000003"><a xlink:href="Gravity_8hpp.html" target="_top" xlink:title=" ">
<polygon fill="white" stroke="#666666" points="435.75,-300 311.75,-300 311.75,-280 435.75,-280 435.75,-300"/>
<text text-anchor="middle" x="373.75" y="-286.5" font-family="Helvetica,sans-Serif" font-size="10.00">Components/Gravity.hpp</text>
</a>
</g>
</g>
<!-- Node1&#45;&gt;Node3 -->
<g id="edge2_Node000001_Node000003" class="edge">
<title>Node1&#45;&gt;Node3</title>
<g id="a_edge2_Node000001_Node000003"><a xlink:title=" ">
<path fill="none" stroke="#63b8ff" d="M479.45,-335.59C459.39,-327.13 429.63,-314.58 406.8,-304.94"/>
<polygon fill="#63b8ff" stroke="#63b8ff" points="408.19,-301.73 397.61,-301.07 405.47,-308.18 408.19,-301.73"/>
</a>
</g>
</g>
<!-- Node4 -->
<g id="Node000004" class="node">
<title>Node4</title>
<g id="a_Node000004"><a xlink:href="Utils_8hpp.html" target="_top" xlink:title=" ">
<polygon fill="white" stroke="#666666" points="401.25,-244 346.25,-244 346.25,-224 401.25,-224 401.25,-244"/>
<text text-anchor="middle" x="373.75" y="-230.5" font-family="Helvetica,sans-Serif" font-size="10.00">Utils.hpp</text>
</a>
</g>
</g>
<!-- Node1&#45;&gt;Node4 -->
<g id="edge63_Node000001_Node000004" class="edge">
<title>Node1&#45;&gt;Node4</title>
<g id="a_edge63_Node000001_Node000004"><a xlink:title=" ">
<path fill="none" stroke="#63b8ff" d="M495.09,-335.86C485.12,-322.57 465.28,-297.57 444.75,-280 431.5,-268.66 415.14,-258.1 401.47,-250.06"/>
<polygon fill="#63b8ff" stroke="#63b8ff" points="403.37,-247.11 392.95,-245.19 399.89,-253.19 403.37,-247.11"/>
</a>
</g>
</g>
<!-- Node9 -->
<g id="Node000009" class="node">
<title>Node9</title>
<g id="a_Node000009"><a xlink:href="PhysicsEngine_8hpp.html" target="_top" xlink:title=" ">
<polygon fill="white" stroke="#666666" points="629.75,-300 529.75,-300 529.75,-280 629.75,-280 629.75,-300"/>
<text text-anchor="middle" x="579.75" y="-286.5" font-family="Helvetica,sans-Serif" font-size="10.00">PhysicsEngine.hpp</text>
</a>
</g>
</g>
<!-- Node1&#45;&gt;Node9 -->
<g id="edge8_Node000001_Node000009" class="edge">
<title>Node1&#45;&gt;Node9</title>
<g id="a_edge8_Node000001_Node000009"><a xlink:title=" ">
<path fill="none" stroke="#63b8ff" d="M515.34,-335.59C526.79,-327.67 543.41,-316.16 556.91,-306.82"/>
<polygon fill="#63b8ff" stroke="#63b8ff" points="558.58,-309.91 564.81,-301.34 554.6,-304.16 558.58,-309.91"/>
</a>
</g>
</g>
<!-- Node12 -->
<g id="Node000012" class="node">
<title>Node12</title>
<g id="a_Node000012"><a xlink:href="Mediator_8hpp.html" target="_top" xlink:title=" ">
<polygon fill="white" stroke="#666666" points="729.88,-244 657.62,-244 657.62,-224 729.88,-224 729.88,-244"/>
<text text-anchor="middle" x="693.75" y="-230.5" font-family="Helvetica,sans-Serif" font-size="10.00">Mediator.hpp</text>
</a>
</g>
</g>
<!-- Node1&#45;&gt;Node12 -->
<g id="edge51_Node000001_Node000012" class="edge">
<title>Node1&#45;&gt;Node12</title>
<g id="a_edge51_Node000001_Node000012"><a xlink:title=" ">
<path fill="none" stroke="#63b8ff" d="M551.94,-335.53C579.26,-328.71 612.69,-317.56 638.75,-300 656.7,-287.9 672.12,-268.37 682.02,-253.87"/>
<polygon fill="#63b8ff" stroke="#63b8ff" points="684.85,-255.94 687.39,-245.65 678.99,-252.11 684.85,-255.94"/>
</a>
</g>
</g>
<!-- Node23 -->
<g id="Node000023" class="node">
<title>Node23</title>
<g id="a_Node000023"><a xlink:href="System_8hpp.html" target="_top" xlink:title=" ">
<polygon fill="white" stroke="#666666" points="512,-132 443.5,-132 443.5,-112 512,-112 512,-132"/>
<text text-anchor="middle" x="477.75" y="-118.5" font-family="Helvetica,sans-Serif" font-size="10.00">System.hpp</text>
</a>
</g>
</g>
<!-- Node1&#45;&gt;Node23 -->
<g id="edge50_Node000001_Node000023" class="edge">
<title>Node1&#45;&gt;Node23</title>
<g id="a_edge50_Node000001_Node000023"><a xlink:title=" ">
<path fill="none" stroke="#63b8ff" d="M500.75,-335.74C497.18,-302.74 485.03,-190.31 479.98,-143.61"/>
<polygon fill="#63b8ff" stroke="#63b8ff" points="483.47,-143.37 478.92,-133.8 476.51,-144.12 483.47,-143.37"/>
</a>
</g>
</g>
<!-- Node30 -->
<g id="Node000030" class="node">
<title>Node30</title>
<g id="a_Node000030"><a xlink:href="RigidBody_8hpp.html" target="_top" xlink:title=" ">
<polygon fill="white" stroke="#666666" points="137.5,-300 0,-300 0,-280 137.5,-280 137.5,-300"/>
<text text-anchor="middle" x="68.75" y="-286.5" font-family="Helvetica,sans-Serif" font-size="10.00">Components/RigidBody.hpp</text>
</a>
</g>
</g>
<!-- Node1&#45;&gt;Node30 -->
<g id="edge52_Node000001_Node000030" class="edge">
<title>Node1&#45;&gt;Node30</title>
<g id="a_edge52_Node000001_Node000030"><a xlink:title=" ">
<path fill="none" stroke="#63b8ff" d="M438.79,-337.15C362.21,-327.6 232.82,-311.46 149.12,-301.02"/>
<polygon fill="#63b8ff" stroke="#63b8ff" points="149.74,-297.57 139.38,-299.81 148.87,-304.52 149.74,-297.57"/>
</a>
</g>
</g>
<!-- Node31 -->
<g id="Node000031" class="node">
<title>Node31</title>
<g id="a_Node000031"><a xlink:href="Transform_8hpp.html" target="_top" xlink:title=" ">
<polygon fill="white" stroke="#666666" points="293.5,-300 156,-300 156,-280 293.5,-280 293.5,-300"/>
<text text-anchor="middle" x="224.75" y="-286.5" font-family="Helvetica,sans-Serif" font-size="10.00">Components/Transform.hpp</text>
</a>
</g>
</g>
<!-- Node1&#45;&gt;Node31 -->
<g id="edge54_Node000001_Node000031" class="edge">
<title>Node1&#45;&gt;Node31</title>
<g id="a_edge54_Node000001_Node000031"><a xlink:title=" ">
<path fill="none" stroke="#63b8ff" d="M453.18,-335.53C406.16,-326.36 334.76,-312.45 284.33,-302.61"/>
<polygon fill="#63b8ff" stroke="#63b8ff" points="285.23,-299.22 274.75,-300.75 283.89,-306.1 285.23,-299.22"/>
</a>
</g>
</g>
<!-- Node32 -->
<g id="Node000032" class="node">
<title>Node32</title>
<g id="a_Node000032"><a xlink:href="DLLoader_8hpp.html" target="_top" xlink:title=" ">
<polygon fill="white" stroke="#666666" points="1217.12,-188 1140.38,-188 1140.38,-168 1217.12,-168 1217.12,-188"/>
<text text-anchor="middle" x="1178.75" y="-174.5" font-family="Helvetica,sans-Serif" font-size="10.00">DLLoader.hpp</text>
</a>
</g>
</g>
<!-- Node1&#45;&gt;Node32 -->
<g id="edge56_Node000001_Node000032" class="edge">
<title>Node1&#45;&gt;Node32</title>
<g id="a_edge56_Node000001_Node000032"><a xlink:title=" ">
<path fill="none" stroke="#63b8ff" d="M564.89,-344.05C713.97,-341.3 1078.66,-331.4 1123.75,-300 1157.42,-276.56 1170.85,-227.33 1175.91,-199.42"/>
<polygon fill="#63b8ff" stroke="#63b8ff" points="1179.33,-200.2 1177.45,-189.77 1172.42,-199.09 1179.33,-200.2"/>
</a>
</g>
</g>
<!-- Node3&#45;&gt;Node4 -->
<g id="edge3_Node000003_Node000004" class="edge">
<title>Node3&#45;&gt;Node4</title>
<g id="a_edge3_Node000003_Node000004"><a xlink:title=" ">
<path fill="none" stroke="#63b8ff" d="M373.75,-279.59C373.75,-273.01 373.75,-263.96 373.75,-255.73"/>
<polygon fill="#63b8ff" stroke="#63b8ff" points="377.25,-255.81 373.75,-245.81 370.25,-255.81 377.25,-255.81"/>
</a>
</g>
</g>
<!-- Node5 -->
<g id="Node000005" class="node">
<title>Node5</title>
<g id="a_Node000005"><a xlink:title=" ">
<polygon fill="#e0e0e0" stroke="#999999" points="230.38,-20 185.12,-20 185.12,0 230.38,0 230.38,-20"/>
<text text-anchor="middle" x="207.75" y="-6.5" font-family="Helvetica,sans-Serif" font-size="10.00">cstdint</text>
</a>
</g>
</g>
<!-- Node4&#45;&gt;Node5 -->
<g id="edge4_Node000004_Node000005" class="edge">
<title>Node4&#45;&gt;Node5</title>
<g id="a_edge4_Node000004_Node000005"><a xlink:title=" ">
<path fill="none" stroke="#63b8ff" d="M345.84,-233.04C308.61,-231.62 242.65,-223.76 201.75,-188 157.05,-148.92 183.2,-68.09 198.75,-30.73"/>
<polygon fill="#63b8ff" stroke="#63b8ff" points="201.93,-32.19 202.71,-21.62 195.51,-29.39 201.93,-32.19"/>
</a>
</g>
</g>
<!-- Node6 -->
<g id="Node000006" class="node">
<title>Node6</title>
<g id="a_Node000006"><a xlink:title=" ">
<polygon fill="#e0e0e0" stroke="#999999" points="1083.75,-132 1043.75,-132 1043.75,-112 1083.75,-112 1083.75,-132"/>
<text text-anchor="middle" x="1063.75" y="-118.5" font-family="Helvetica,sans-Serif" font-size="10.00">string</text>
</a>
</g>
</g>
<!-- Node4&#45;&gt;Node6 -->
<g id="edge5_Node000004_Node000006" class="edge">
<title>Node4&#45;&gt;Node6</title>
<g id="a_edge5_Node000004_Node000006"><a xlink:title=" ">
<path fill="none" stroke="#63b8ff" d="M401.44,-231.85C512.51,-227.09 922.43,-208.33 976.75,-188 1004.46,-177.63 1030.89,-155.55 1047.2,-140.01"/>
<polygon fill="#63b8ff" stroke="#63b8ff" points="1049.41,-142.74 1054.08,-133.23 1044.5,-137.75 1049.41,-142.74"/>
</a>
</g>
</g>
<!-- Node7 -->
<g id="Node000007" class="node">
<title>Node7</title>
<g id="a_Node000007"><a xlink:title=" ">
<polygon fill="#e0e0e0" stroke="#999999" points="262.38,-188 211.12,-188 211.12,-168 262.38,-168 262.38,-188"/>
<text text-anchor="middle" x="236.75" y="-174.5" font-family="Helvetica,sans-Serif" font-size="10.00">ostream</text>
</a>
</g>
</g>
<!-- Node4&#45;&gt;Node7 -->
<g id="edge6_Node000004_Node000007" class="edge">
<title>Node4&#45;&gt;Node7</title>
<g id="a_edge6_Node000004_Node000007"><a xlink:title=" ">
<path fill="none" stroke="#63b8ff" d="M349.89,-223.59C328.21,-215.05 295.98,-202.35 271.46,-192.68"/>
<polygon fill="#63b8ff" stroke="#63b8ff" points="272.79,-189.45 262.21,-189.03 270.23,-195.96 272.79,-189.45"/>
</a>
</g>
</g>
<!-- Node8 -->
<g id="Node000008" class="node">
<title>Node8</title>
<g id="a_Node000008"><a xlink:title=" ">
<polygon fill="#e0e0e0" stroke="#999999" points="425.62,-132 387.88,-132 387.88,-112 425.62,-112 425.62,-132"/>
<text text-anchor="middle" x="406.75" y="-118.5" font-family="Helvetica,sans-Serif" font-size="10.00">array</text>
</a>
</g>
</g>
<!-- Node4&#45;&gt;Node8 -->
<g id="edge7_Node000004_Node000008" class="edge">
<title>Node4&#45;&gt;Node8</title>
<g id="a_edge7_Node000004_Node000008"><a xlink:title=" ">
<path fill="none" stroke="#63b8ff" d="M376.69,-223.71C379.56,-214.62 384.02,-200.38 387.75,-188 392.28,-172.99 397.25,-155.97 400.97,-143.12"/>
<polygon fill="#63b8ff" stroke="#63b8ff" points="404.27,-144.3 403.67,-133.73 397.54,-142.36 404.27,-144.3"/>
</a>
</g>
</g>
<!-- Node9&#45;&gt;Node4 -->
<g id="edge12_Node000009_Node000004" class="edge">
<title>Node9&#45;&gt;Node4</title>
<g id="a_edge12_Node000009_Node000004"><a xlink:title=" ">
<path fill="none" stroke="#63b8ff" d="M543.87,-279.59C507.2,-269.98 450.43,-255.1 412.69,-245.21"/>
<polygon fill="#63b8ff" stroke="#63b8ff" points="413.66,-241.84 403.1,-242.69 411.88,-248.61 413.66,-241.84"/>
</a>
</g>
</g>
<!-- Node10 -->
<g id="Node000010" class="node">
<title>Node10</title>
<g id="a_Node000010"><a xlink:href="Entity_8hpp.html" target="_top" xlink:title=" ">
<polygon fill="white" stroke="#666666" points="588.5,-76 529,-76 529,-56 588.5,-56 588.5,-76"/>
<text text-anchor="middle" x="558.75" y="-62.5" font-family="Helvetica,sans-Serif" font-size="10.00">Entity.hpp</text>
</a>
</g>
</g>
<!-- Node9&#45;&gt;Node10 -->
<g id="edge9_Node000009_Node000010" class="edge">
<title>Node9&#45;&gt;Node10</title>
<g id="a_edge9_Node000009_Node000010"><a xlink:title=" ">
<path fill="none" stroke="#63b8ff" d="M577.13,-279.63C572.32,-261.92 562.27,-222.21 558.75,-188 555.14,-152.93 556.27,-111.83 557.47,-87.69"/>
<polygon fill="#63b8ff" stroke="#63b8ff" points="560.95,-88.14 558.01,-77.96 553.96,-87.75 560.95,-88.14"/>
</a>
</g>
</g>
<!-- Node9&#45;&gt;Node12 -->
<g id="edge13_Node000009_Node000012" class="edge">
<title>Node9&#45;&gt;Node12</title>
<g id="a_edge13_Node000009_Node000012"><a xlink:title=" ">
<path fill="none" stroke="#63b8ff" d="M599.61,-279.59C617.24,-271.24 643.26,-258.92 663.48,-249.34"/>
<polygon fill="#63b8ff" stroke="#63b8ff" points="664.83,-252.57 672.37,-245.13 661.83,-246.25 664.83,-252.57"/>
</a>
</g>
</g>
<!-- Node10&#45;&gt;Node5 -->
<g id="edge10_Node000010_Node000005" class="edge">
<title>Node10&#45;&gt;Node5</title>
<g id="a_edge10_Node000010_Node000005"><a xlink:title=" ">
<path fill="none" stroke="#63b8ff" d="M528.58,-60.21C519.92,-58.84 510.46,-57.35 501.75,-56 407.63,-41.37 296.5,-24.46 241.74,-16.15"/>
<polygon fill="#63b8ff" stroke="#63b8ff" points="242.54,-12.73 232.12,-14.69 241.49,-19.65 242.54,-12.73"/>
</a>
</g>
</g>
<!-- Node11 -->
<g id="Node000011" class="node">
<title>Node11</title>
<g id="a_Node000011"><a xlink:title=" ">
<polygon fill="#e0e0e0" stroke="#999999" points="578.75,-20 538.75,-20 538.75,0 578.75,0 578.75,-20"/>
<text text-anchor="middle" x="558.75" y="-6.5" font-family="Helvetica,sans-Serif" font-size="10.00">bitset</text>
</a>
</g>
</g>
<!-- Node10&#45;&gt;Node11 -->
<g id="edge11_Node000010_Node000011" class="edge">
<title>Node10&#45;&gt;Node11</title>
<g id="a_edge11_Node000010_Node000011"><a xlink:title=" ">
<path fill="none" stroke="#63b8ff" d="M558.75,-55.59C558.75,-49.01 558.75,-39.96 558.75,-31.73"/>
<polygon fill="#63b8ff" stroke="#63b8ff" points="562.25,-31.81 558.75,-21.81 555.25,-31.81 562.25,-31.81"/>
</a>
</g>
</g>
<!-- Node12&#45;&gt;Node2 -->
<g id="edge15_Node000012_Node000002" class="edge">
<title>Node12&#45;&gt;Node2</title>
<g id="a_edge15_Node000012_Node000002"><a xlink:title=" ">
<path fill="none" stroke="#63b8ff" d="M730.36,-233.54C793.85,-233.32 927.6,-227.65 1031.75,-188 1061.22,-176.78 1090.58,-154.94 1108.92,-139.69"/>
<polygon fill="#63b8ff" stroke="#63b8ff" points="1110.97,-142.54 1116.3,-133.39 1106.43,-137.22 1110.97,-142.54"/>
</a>
</g>
</g>
<!-- Node13 -->
<g id="Node000013" class="node">
<title>Node13</title>
<g id="a_Node000013"><a xlink:title=" ">
<polygon fill="#e0e0e0" stroke="#999999" points="1246.5,-76 1193,-76 1193,-56 1246.5,-56 1246.5,-76"/>
<text text-anchor="middle" x="1219.75" y="-62.5" font-family="Helvetica,sans-Serif" font-size="10.00">iostream</text>
</a>
</g>
</g>
<!-- Node12&#45;&gt;Node13 -->
<g id="edge14_Node000012_Node000013" class="edge">
<title>Node12&#45;&gt;Node13</title>
<g id="a_edge14_Node000012_Node000013"><a xlink:title=" ">
<path fill="none" stroke="#63b8ff" d="M730.1,-232.7C844.61,-231.39 1192.27,-224.43 1225.75,-188 1250.92,-160.61 1238.45,-113.33 1228.34,-86.7"/>
<polygon fill="#63b8ff" stroke="#63b8ff" points="1231.71,-85.71 1224.7,-77.77 1225.23,-88.35 1231.71,-85.71"/>
</a>
</g>
</g>
<!-- Node14 -->
<g id="Node000014" class="node">
<title>Node14</title>
<g id="a_Node000014"><a xlink:title=" ">
<polygon fill="#e0e0e0" stroke="#999999" points="709.25,-132 666.25,-132 666.25,-112 709.25,-112 709.25,-132"/>
<text text-anchor="middle" x="687.75" y="-118.5" font-family="Helvetica,sans-Serif" font-size="10.00">vector</text>
</a>
</g>
</g>
<!-- Node12&#45;&gt;Node14 -->
<g id="edge16_Node000012_Node000014" class="edge">
<title>Node12&#45;&gt;Node14</title>
<g id="a_edge16_Node000012_Node000014"><a xlink:title=" ">
<path fill="none" stroke="#63b8ff" d="M693.24,-223.62C692.28,-206.01 690.18,-167.59 688.88,-143.65"/>
<polygon fill="#63b8ff" stroke="#63b8ff" points="692.38,-143.66 688.34,-133.87 685.39,-144.04 692.38,-143.66"/>
</a>
</g>
</g>
<!-- Node15 -->
<g id="Node000015" class="node">
<title>Node15</title>
<g id="a_Node000015"><a xlink:href="EntityManager_8hpp.html" target="_top" xlink:title=" ">
<polygon fill="white" stroke="#666666" points="665.62,-188 567.88,-188 567.88,-168 665.62,-168 665.62,-188"/>
<text text-anchor="middle" x="616.75" y="-174.5" font-family="Helvetica,sans-Serif" font-size="10.00">EntityManager.hpp</text>
</a>
</g>
</g>
<!-- Node12&#45;&gt;Node15 -->
<g id="edge17_Node000012_Node000015" class="edge">
<title>Node12&#45;&gt;Node15</title>
<g id="a_edge17_Node000012_Node000015"><a xlink:title=" ">
<path fill="none" stroke="#63b8ff" d="M680.34,-223.59C669.14,-215.74 652.94,-204.38 639.69,-195.09"/>
<polygon fill="#63b8ff" stroke="#63b8ff" points="641.7,-192.22 631.51,-189.35 637.68,-197.96 641.7,-192.22"/>
</a>
</g>
</g>
<!-- Node17 -->
<g id="Node000017" class="node">
<title>Node17</title>
<g id="a_Node000017"><a xlink:href="ComponentManager_8hpp.html" target="_top" xlink:title=" ">
<polygon fill="white" stroke="#666666" points="968,-188 845.5,-188 845.5,-168 968,-168 968,-188"/>
<text text-anchor="middle" x="906.75" y="-174.5" font-family="Helvetica,sans-Serif" font-size="10.00">ComponentManager.hpp</text>
</a>
</g>
</g>
<!-- Node12&#45;&gt;Node17 -->
<g id="edge21_Node000012_Node000017" class="edge">
<title>Node12&#45;&gt;Node17</title>
<g id="a_edge21_Node000012_Node000017"><a xlink:title=" ">
<path fill="none" stroke="#63b8ff" d="M730.37,-223.72C765.77,-214.74 819.61,-201.09 858.5,-191.23"/>
<polygon fill="#63b8ff" stroke="#63b8ff" points="859.24,-194.66 868.07,-188.81 857.52,-187.87 859.24,-194.66"/>
</a>
</g>
</g>
<!-- Node22 -->
<g id="Node000022" class="node">
<title>Node22</title>
<g id="a_Node000022"><a xlink:href="SystemManager_8hpp.html" target="_top" xlink:title=" ">
<polygon fill="white" stroke="#666666" points="827.75,-188 721.75,-188 721.75,-168 827.75,-168 827.75,-188"/>
<text text-anchor="middle" x="774.75" y="-174.5" font-family="Helvetica,sans-Serif" font-size="10.00">SystemManager.hpp</text>
</a>
</g>
</g>
<!-- Node12&#45;&gt;Node22 -->
<g id="edge34_Node000012_Node000022" class="edge">
<title>Node12&#45;&gt;Node22</title>
<g id="a_edge34_Node000012_Node000022"><a xlink:title=" ">
<path fill="none" stroke="#63b8ff" d="M707.86,-223.59C719.75,-215.67 737.02,-204.16 751.03,-194.82"/>
<polygon fill="#63b8ff" stroke="#63b8ff" points="752.89,-197.78 759.27,-189.32 749.01,-191.95 752.89,-197.78"/>
</a>
</g>
</g>
<!-- Node25 -->
<g id="Node000025" class="node">
<title>Node25</title>
<g id="a_Node000025"><a xlink:href="EventManager_8hpp.html" target="_top" xlink:title=" ">
<polygon fill="white" stroke="#666666" points="378.62,-188 280.88,-188 280.88,-168 378.62,-168 378.62,-188"/>
<text text-anchor="middle" x="329.75" y="-174.5" font-family="Helvetica,sans-Serif" font-size="10.00">EventManager.hpp</text>
</a>
</g>
</g>
<!-- Node12&#45;&gt;Node25 -->
<g id="edge43_Node000012_Node000025" class="edge">
<title>Node12&#45;&gt;Node25</title>
<g id="a_edge43_Node000012_Node000025"><a xlink:title=" ">
<path fill="none" stroke="#63b8ff" d="M657.18,-227.58C594.59,-218.29 466.33,-199.26 390.24,-187.97"/>
<polygon fill="#63b8ff" stroke="#63b8ff" points="390.85,-184.53 380.45,-186.52 389.83,-191.45 390.85,-184.53"/>
</a>
</g>
</g>
<!-- Node15&#45;&gt;Node8 -->
<g id="edge19_Node000015_Node000008" class="edge">
<title>Node15&#45;&gt;Node8</title>
<g id="a_edge19_Node000015_Node000008"><a xlink:title=" ">
<path fill="none" stroke="#63b8ff" d="M574.97,-167.53C540.33,-159.49 489.57,-147.26 436.89,-132.47"/>
<polygon fill="#63b8ff" stroke="#63b8ff" points="438.01,-129.15 427.43,-129.78 436.1,-135.88 438.01,-129.15"/>
</a>
</g>
</g>
<!-- Node15&#45;&gt;Node10 -->
<g id="edge20_Node000015_Node000010" class="edge">
<title>Node15&#45;&gt;Node10</title>
<g id="a_edge20_Node000015_Node000010"><a xlink:title=" ">
<path fill="none" stroke="#63b8ff" d="M611.8,-167.62C602.35,-149.68 581.51,-110.17 568.95,-86.35"/>
<polygon fill="#63b8ff" stroke="#63b8ff" points="572.15,-84.91 564.39,-77.69 565.96,-88.17 572.15,-84.91"/>
</a>
</g>
</g>
<!-- Node16 -->
<g id="Node000016" class="node">
<title>Node16</title>
<g id="a_Node000016"><a xlink:title=" ">
<polygon fill="#e0e0e0" stroke="#999999" points="647.88,-132 605.62,-132 605.62,-112 647.88,-112 647.88,-132"/>
<text text-anchor="middle" x="626.75" y="-118.5" font-family="Helvetica,sans-Serif" font-size="10.00">queue</text>
</a>
</g>
</g>
<!-- Node15&#45;&gt;Node16 -->
<g id="edge18_Node000015_Node000016" class="edge">
<title>Node15&#45;&gt;Node16</title>
<g id="a_edge18_Node000015_Node000016"><a xlink:title=" ">
<path fill="none" stroke="#63b8ff" d="M618.49,-167.59C619.73,-160.93 621.43,-151.75 622.96,-143.44"/>
<polygon fill="#63b8ff" stroke="#63b8ff" points="626.37,-144.26 624.75,-133.79 619.49,-142.98 626.37,-144.26"/>
</a>
</g>
</g>
<!-- Node17&#45;&gt;Node2 -->
<g id="edge24_Node000017_Node000002" class="edge">
<title>Node17&#45;&gt;Node2</title>
<g id="a_edge24_Node000017_Node000002"><a xlink:title=" ">
<path fill="none" stroke="#63b8ff" d="M946.7,-167.51C982.04,-159.08 1035.28,-146.27 1090.67,-132.49"/>
<polygon fill="#63b8ff" stroke="#63b8ff" points="1091.44,-135.91 1100.3,-130.09 1089.75,-129.12 1091.44,-135.91"/>
</a>
</g>
</g>
<!-- Node17&#45;&gt;Node6 -->
<g id="edge23_Node000017_Node000006" class="edge">
<title>Node17&#45;&gt;Node6</title>
<g id="a_edge23_Node000017_Node000006"><a xlink:title=" ">
<path fill="none" stroke="#63b8ff" d="M934.1,-167.59C961.71,-158.1 1004.27,-143.46 1033.03,-133.57"/>
<polygon fill="#63b8ff" stroke="#63b8ff" points="1033.94,-136.96 1042.26,-130.39 1031.66,-130.34 1033.94,-136.96"/>
</a>
</g>
</g>
<!-- Node17&#45;&gt;Node10 -->
<g id="edge27_Node000017_Node000010" class="edge">
<title>Node17&#45;&gt;Node10</title>
<g id="a_edge27_Node000017_Node000010"><a xlink:title=" ">
<path fill="none" stroke="#63b8ff" d="M881.06,-167.58C845.01,-154.48 777.25,-130.32 718.75,-112 678.6,-99.42 632.28,-86.58 599.85,-77.85"/>
<polygon fill="#63b8ff" stroke="#63b8ff" points="601.01,-74.53 590.45,-75.33 599.2,-81.3 601.01,-74.53"/>
</a>
</g>
</g>
<!-- Node17&#45;&gt;Node14 -->
<g id="edge26_Node000017_Node000014" class="edge">
<title>Node17&#45;&gt;Node14</title>
<g id="a_edge26_Node000017_Node000014"><a xlink:title=" ">
<path fill="none" stroke="#63b8ff" d="M868.18,-167.56C831.14,-158.49 773.61,-144.36 723.75,-132 722.59,-131.71 721.42,-131.42 720.23,-131.13"/>
<polygon fill="#63b8ff" stroke="#63b8ff" points="721.47,-127.83 710.92,-128.81 719.77,-134.62 721.47,-127.83"/>
</a>
</g>
</g>
<!-- Node18 -->
<g id="Node000018" class="node">
<title>Node18</title>
<g id="a_Node000018"><a xlink:title=" ">
<polygon fill="#e0e0e0" stroke="#999999" points="833.12,-76 750.38,-76 750.38,-56 833.12,-56 833.12,-76"/>
<text text-anchor="middle" x="791.75" y="-62.5" font-family="Helvetica,sans-Serif" font-size="10.00">unordered_map</text>
</a>
</g>
</g>
<!-- Node17&#45;&gt;Node18 -->
<g id="edge22_Node000017_Node000018" class="edge">
<title>Node17&#45;&gt;Node18</title>
<g id="a_edge22_Node000017_Node000018"><a xlink:title=" ">
<path fill="none" stroke="#63b8ff" d="M885.84,-167.58C869.97,-159.7 848.29,-147.29 832.75,-132 819.24,-118.71 808.1,-100.16 800.86,-86.28"/>
<polygon fill="#63b8ff" stroke="#63b8ff" points="804.18,-85.08 796.59,-77.69 797.91,-88.2 804.18,-85.08"/>
</a>
</g>
</g>
<!-- Node19 -->
<g id="Node000019" class="node">
<title>Node19</title>
<g id="a_Node000019"><a xlink:title=" ">
<polygon fill="#e0e0e0" stroke="#999999" points="1026.12,-76 967.38,-76 967.38,-56 1026.12,-56 1026.12,-76"/>
<text text-anchor="middle" x="996.75" y="-62.5" font-family="Helvetica,sans-Serif" font-size="10.00">stdexcept</text>
</a>
</g>
</g>
<!-- Node17&#45;&gt;Node19 -->
<g id="edge25_Node000017_Node000019" class="edge">
<title>Node17&#45;&gt;Node19</title>
<g id="a_edge25_Node000017_Node000019"><a xlink:title=" ">
<path fill="none" stroke="#63b8ff" d="M941.32,-167.58C959.44,-160.77 980.21,-149.59 991.75,-132 1000.3,-118.96 1001.1,-101.12 1000.01,-87.43"/>
<polygon fill="#63b8ff" stroke="#63b8ff" points="1003.51,-87.28 998.83,-77.78 996.57,-88.13 1003.51,-87.28"/>
</a>
</g>
</g>
<!-- Node20 -->
<g id="Node000020" class="node">
<title>Node20</title>
<g id="a_Node000020"><a xlink:href="ComponentArray_8hpp.html" target="_top" xlink:title=" ">
<polygon fill="white" stroke="#666666" points="949.5,-132 842,-132 842,-112 949.5,-112 949.5,-132"/>
<text text-anchor="middle" x="895.75" y="-118.5" font-family="Helvetica,sans-Serif" font-size="10.00">ComponentArray.hpp</text>
</a>
</g>
</g>
<!-- Node17&#45;&gt;Node20 -->
<g id="edge28_Node000017_Node000020" class="edge">
<title>Node17&#45;&gt;Node20</title>
<g id="a_edge28_Node000017_Node000020"><a xlink:title=" ">
<path fill="none" stroke="#63b8ff" d="M904.83,-167.59C903.48,-160.93 901.61,-151.75 899.91,-143.44"/>
<polygon fill="#63b8ff" stroke="#63b8ff" points="903.37,-142.88 897.95,-133.78 896.51,-144.28 903.37,-142.88"/>
</a>
</g>
</g>
<!-- Node20&#45;&gt;Node10 -->
<g id="edge33_Node000020_Node000010" class="edge">
<title>Node20&#45;&gt;Node10</title>
<g id="a_edge33_Node000020_Node000010"><a xlink:title=" ">
<path fill="none" stroke="#63b8ff" d="M841.61,-112.32C774.13,-101.51 660.35,-83.28 599.7,-73.56"/>
<polygon fill="#63b8ff" stroke="#63b8ff" points="600.58,-70.16 590.16,-72.03 599.48,-77.07 600.58,-70.16"/>
</a>
</g>
</g>
<!-- Node20&#45;&gt;Node13 -->
<g id="edge32_Node000020_Node000013" class="edge">
<title>Node20&#45;&gt;Node13</title>
<g id="a_edge32_Node000020_Node000013"><a xlink:title=" ">
<path fill="none" stroke="#63b8ff" d="M949.98,-111.96C1015.54,-101.03 1124.2,-82.93 1181.56,-73.36"/>
<polygon fill="#63b8ff" stroke="#63b8ff" points="1181.87,-76.86 1191.16,-71.76 1180.72,-69.96 1181.87,-76.86"/>
</a>
</g>
</g>
<!-- Node20&#45;&gt;Node18 -->
<g id="edge30_Node000020_Node000018" class="edge">
<title>Node20&#45;&gt;Node18</title>
<g id="a_edge30_Node000020_Node000018"><a xlink:title=" ">
<path fill="none" stroke="#63b8ff" d="M877.63,-111.59C861.78,-103.36 838.47,-91.26 820.13,-81.74"/>
<polygon fill="#63b8ff" stroke="#63b8ff" points="821.84,-78.68 811.35,-77.18 818.61,-84.89 821.84,-78.68"/>
</a>
</g>
</g>
<!-- Node20&#45;&gt;Node19 -->
<g id="edge31_Node000020_Node000019" class="edge">
<title>Node20&#45;&gt;Node19</title>
<g id="a_edge31_Node000020_Node000019"><a xlink:title=" ">
<path fill="none" stroke="#63b8ff" d="M913.34,-111.59C928.67,-103.4 951.17,-91.37 968.94,-81.87"/>
<polygon fill="#63b8ff" stroke="#63b8ff" points="970.52,-84.99 977.69,-77.19 967.22,-78.82 970.52,-84.99"/>
</a>
</g>
</g>
<!-- Node21 -->
<g id="Node000021" class="node">
<title>Node21</title>
<g id="a_Node000021"><a xlink:title=" ">
<polygon fill="#e0e0e0" stroke="#999999" points="924.75,-76 866.75,-76 866.75,-56 924.75,-56 924.75,-76"/>
<text text-anchor="middle" x="895.75" y="-62.5" font-family="Helvetica,sans-Serif" font-size="10.00">exception</text>
</a>
</g>
</g>
<!-- Node20&#45;&gt;Node21 -->
<g id="edge29_Node000020_Node000021" class="edge">
<title>Node20&#45;&gt;Node21</title>
<g id="a_edge29_Node000020_Node000021"><a xlink:title=" ">
<path fill="none" stroke="#63b8ff" d="M895.75,-111.59C895.75,-105.01 895.75,-95.96 895.75,-87.73"/>
<polygon fill="#63b8ff" stroke="#63b8ff" points="899.25,-87.81 895.75,-77.81 892.25,-87.81 899.25,-87.81"/>
</a>
</g>
</g>
<!-- Node22&#45;&gt;Node2 -->
<g id="edge38_Node000022_Node000002" class="edge">
<title>Node22&#45;&gt;Node2</title>
<g id="a_edge38_Node000022_Node000002"><a xlink:title=" ">
<path fill="none" stroke="#63b8ff" d="M828.18,-169.23C831.08,-168.81 833.95,-168.4 836.75,-168 946.94,-152.26 978.12,-154.2 1090.68,-132.21"/>
<polygon fill="#63b8ff" stroke="#63b8ff" points="1091.21,-135.68 1100.35,-130.3 1089.86,-128.81 1091.21,-135.68"/>
</a>
</g>
</g>
<!-- Node22&#45;&gt;Node6 -->
<g id="edge36_Node000022_Node000006" class="edge">
<title>Node22&#45;&gt;Node6</title>
<g id="a_edge36_Node000022_Node000006"><a xlink:title=" ">
<path fill="none" stroke="#63b8ff" d="M825.42,-167.53C885.09,-156.38 982.37,-138.21 1032.18,-128.9"/>
<polygon fill="#63b8ff" stroke="#63b8ff" points="1032.81,-132.34 1042,-127.06 1031.53,-125.46 1032.81,-132.34"/>
</a>
</g>
</g>
<!-- Node22&#45;&gt;Node14 -->
<g id="edge37_Node000022_Node000014" class="edge">
<title>Node22&#45;&gt;Node14</title>
<g id="a_edge37_Node000022_Node000014"><a xlink:title=" ">
<path fill="none" stroke="#63b8ff" d="M759.6,-167.59C746.7,-159.59 727.92,-147.93 712.79,-138.54"/>
<polygon fill="#63b8ff" stroke="#63b8ff" points="714.65,-135.58 704.31,-133.28 710.96,-141.53 714.65,-135.58"/>
</a>
</g>
</g>
<!-- Node22&#45;&gt;Node18 -->
<g id="edge35_Node000022_Node000018" class="edge">
<title>Node22&#45;&gt;Node18</title>
<g id="a_edge35_Node000022_Node000018"><a xlink:title=" ">
<path fill="none" stroke="#63b8ff" d="M776.2,-167.62C778.92,-150.01 784.86,-111.59 788.56,-87.65"/>
<polygon fill="#63b8ff" stroke="#63b8ff" points="792,-88.27 790.07,-77.85 785.09,-87.2 792,-88.27"/>
</a>
</g>
</g>
<!-- Node22&#45;&gt;Node19 -->
<g id="edge39_Node000022_Node000019" class="edge">
<title>Node22&#45;&gt;Node19</title>
<g id="a_edge39_Node000022_Node000019"><a xlink:title=" ">
<path fill="none" stroke="#63b8ff" d="M828.08,-168.71C874.77,-160.61 938.25,-147.29 958.75,-132 973.96,-120.65 984.14,-101.27 990.11,-86.62"/>
<polygon fill="#63b8ff" stroke="#63b8ff" points="993.28,-88.13 993.47,-77.54 986.71,-85.7 993.28,-88.13"/>
</a>
</g>
</g>
<!-- Node22&#45;&gt;Node23 -->
<g id="edge40_Node000022_Node000023" class="edge">
<title>Node22&#45;&gt;Node23</title>
<g id="a_edge40_Node000022_Node000023"><a xlink:title=" ">
<path fill="none" stroke="#63b8ff" d="M722.68,-167.53C666.26,-157.27 577.13,-141.07 523.37,-131.29"/>
<polygon fill="#63b8ff" stroke="#63b8ff" points="524.09,-127.87 513.62,-129.52 522.84,-134.76 524.09,-127.87"/>
</a>
</g>
</g>
<!-- Node23&#45;&gt;Node10 -->
<g id="edge42_Node000023_Node000010" class="edge">
<title>Node23&#45;&gt;Node10</title>
<g id="a_edge42_Node000023_Node000010"><a xlink:title=" ">
<path fill="none" stroke="#63b8ff" d="M491.86,-111.59C503.75,-103.67 521.02,-92.16 535.03,-82.82"/>
<polygon fill="#63b8ff" stroke="#63b8ff" points="536.89,-85.78 543.27,-77.32 533.01,-79.95 536.89,-85.78"/>
</a>
</g>
</g>
<!-- Node24 -->
<g id="Node000024" class="node">
<title>Node24</title>
<g id="a_Node000024"><a xlink:title=" ">
<polygon fill="#e0e0e0" stroke="#999999" points="492.5,-76 463,-76 463,-56 492.5,-56 492.5,-76"/>
<text text-anchor="middle" x="477.75" y="-62.5" font-family="Helvetica,sans-Serif" font-size="10.00">set</text>
</a>
</g>
</g>
<!-- Node23&#45;&gt;Node24 -->
<g id="edge41_Node000023_Node000024" class="edge">
<title>Node23&#45;&gt;Node24</title>
<g id="a_edge41_Node000023_Node000024"><a xlink:title=" ">
<path fill="none" stroke="#63b8ff" d="M477.75,-111.59C477.75,-105.01 477.75,-95.96 477.75,-87.73"/>
<polygon fill="#63b8ff" stroke="#63b8ff" points="481.25,-87.81 477.75,-77.81 474.25,-87.81 481.25,-87.81"/>
</a>
</g>
</g>
<!-- Node26 -->
<g id="Node000026" class="node">
<title>Node26</title>
<g id="a_Node000026"><a xlink:href="Event_8hpp.html" target="_top" xlink:title=" ">
<polygon fill="white" stroke="#666666" points="247.88,-132 187.62,-132 187.62,-112 247.88,-112 247.88,-132"/>
<text text-anchor="middle" x="217.75" y="-118.5" font-family="Helvetica,sans-Serif" font-size="10.00">Event.hpp</text>
</a>
</g>
</g>
<!-- Node25&#45;&gt;Node26 -->
<g id="edge44_Node000025_Node000026" class="edge">
<title>Node25&#45;&gt;Node26</title>
<g id="a_edge44_Node000025_Node000026"><a xlink:title=" ">
<path fill="none" stroke="#63b8ff" d="M310.24,-167.59C293,-159.28 267.59,-147.03 247.76,-137.47"/>
<polygon fill="#63b8ff" stroke="#63b8ff" points="249.3,-134.33 238.77,-133.14 246.26,-140.63 249.3,-134.33"/>
</a>
</g>
</g>
<!-- Node28 -->
<g id="Node000028" class="node">
<title>Node28</title>
<g id="a_Node000028"><a xlink:title=" ">
<polygon fill="#e0e0e0" stroke="#999999" points="323.75,-132 265.75,-132 265.75,-112 323.75,-112 323.75,-132"/>
<text text-anchor="middle" x="294.75" y="-118.5" font-family="Helvetica,sans-Serif" font-size="10.00">functional</text>
</a>
</g>
</g>
<!-- Node25&#45;&gt;Node28 -->
<g id="edge48_Node000025_Node000028" class="edge">
<title>Node25&#45;&gt;Node28</title>
<g id="a_edge48_Node000025_Node000028"><a xlink:title=" ">
<path fill="none" stroke="#63b8ff" d="M323.65,-167.59C319.04,-160.47 312.54,-150.45 306.88,-141.72"/>
<polygon fill="#63b8ff" stroke="#63b8ff" points="309.98,-140.06 301.6,-133.57 304.1,-143.86 309.98,-140.06"/>
</a>
</g>
</g>
<!-- Node29 -->
<g id="Node000029" class="node">
<title>Node29</title>
<g id="a_Node000029"><a xlink:title=" ">
<polygon fill="#e0e0e0" stroke="#999999" points="370.15,-132 341.35,-132 341.35,-112 370.15,-112 370.15,-132"/>
<text text-anchor="middle" x="355.75" y="-118.5" font-family="Helvetica,sans-Serif" font-size="10.00">list</text>
</a>
</g>
</g>
<!-- Node25&#45;&gt;Node29 -->
<g id="edge49_Node000025_Node000029" class="edge">
<title>Node25&#45;&gt;Node29</title>
<g id="a_edge49_Node000025_Node000029"><a xlink:title=" ">
<path fill="none" stroke="#63b8ff" d="M334.28,-167.59C337.6,-160.7 342.22,-151.1 346.33,-142.57"/>
<polygon fill="#63b8ff" stroke="#63b8ff" points="349.43,-144.19 350.62,-133.66 343.12,-141.15 349.43,-144.19"/>
</a>
</g>
</g>
<!-- Node26&#45;&gt;Node5 -->
<g id="edge45_Node000026_Node000005" class="edge">
<title>Node26&#45;&gt;Node5</title>
<g id="a_edge45_Node000026_Node000005"><a xlink:title=" ">
<path fill="none" stroke="#63b8ff" d="M216.9,-111.62C215.3,-94.01 211.8,-55.59 209.63,-31.65"/>
<polygon fill="#63b8ff" stroke="#63b8ff" points="213.13,-31.5 208.74,-21.86 206.16,-32.14 213.13,-31.5"/>
</a>
</g>
</g>
<!-- Node26&#45;&gt;Node18 -->
<g id="edge46_Node000026_Node000018" class="edge">
<title>Node26&#45;&gt;Node18</title>
<g id="a_edge46_Node000026_Node000018"><a xlink:title=" ">
<path fill="none" stroke="#63b8ff" d="M248.33,-113.51C251.16,-112.95 254,-112.43 256.75,-112 431.78,-84.59 641.83,-73.07 738.4,-68.96"/>
<polygon fill="#63b8ff" stroke="#63b8ff" points="738.53,-72.46 748.37,-68.55 738.24,-65.47 738.53,-72.46"/>
</a>
</g>
</g>
<!-- Node27 -->
<g id="Node000027" class="node">
<title>Node27</title>
<g id="a_Node000027"><a xlink:title=" ">
<polygon fill="#e0e0e0" stroke="#999999" points="267.62,-76 235.88,-76 235.88,-56 267.62,-56 267.62,-76"/>
<text text-anchor="middle" x="251.75" y="-62.5" font-family="Helvetica,sans-Serif" font-size="10.00">any</text>
</a>
</g>
</g>
<!-- Node26&#45;&gt;Node27 -->
<g id="edge47_Node000026_Node000027" class="edge">
<title>Node26&#45;&gt;Node27</title>
<g id="a_edge47_Node000026_Node000027"><a xlink:title=" ">
<path fill="none" stroke="#63b8ff" d="M223.67,-111.59C228.11,-104.55 234.33,-94.67 239.79,-86"/>
<polygon fill="#63b8ff" stroke="#63b8ff" points="242.72,-87.91 245.09,-77.58 236.8,-84.18 242.72,-87.91"/>
</a>
</g>
</g>
<!-- Node30&#45;&gt;Node4 -->
<g id="edge53_Node000030_Node000004" class="edge">
<title>Node30&#45;&gt;Node4</title>
<g id="a_edge53_Node000030_Node000004"><a xlink:title=" ">
<path fill="none" stroke="#63b8ff" d="M122.23,-279.53C183.03,-268.77 280.83,-251.45 334.82,-241.89"/>
<polygon fill="#63b8ff" stroke="#63b8ff" points="335.23,-245.37 344.47,-240.18 334.01,-238.48 335.23,-245.37"/>
</a>
</g>
</g>
<!-- Node31&#45;&gt;Node4 -->
<g id="edge55_Node000031_Node000004" class="edge">
<title>Node31&#45;&gt;Node4</title>
<g id="a_edge55_Node000031_Node000004"><a xlink:title=" ">
<path fill="none" stroke="#63b8ff" d="M250.7,-279.59C274.59,-270.94 310.28,-258 337.08,-248.29"/>
<polygon fill="#63b8ff" stroke="#63b8ff" points="337.96,-251.69 346.17,-245 335.58,-245.11 337.96,-251.69"/>
</a>
</g>
</g>
<!-- Node32&#45;&gt;Node2 -->
<g id="edge59_Node000032_Node000002" class="edge">
<title>Node32&#45;&gt;Node2</title>
<g id="a_edge59_Node000032_Node000002"><a xlink:title=" ">
<path fill="none" stroke="#63b8ff" d="M1169.87,-167.59C1162.85,-160.16 1152.85,-149.58 1144.36,-140.58"/>
<polygon fill="#63b8ff" stroke="#63b8ff" points="1146.98,-138.27 1137.57,-133.4 1141.89,-143.07 1146.98,-138.27"/>
</a>
</g>
</g>
<!-- Node32&#45;&gt;Node6 -->
<g id="edge57_Node000032_Node000006" class="edge">
<title>Node32&#45;&gt;Node6</title>
<g id="a_edge57_Node000032_Node000006"><a xlink:title=" ">
<path fill="none" stroke="#63b8ff" d="M1158.72,-167.59C1140.94,-159.24 1114.68,-146.92 1094.29,-137.34"/>
<polygon fill="#63b8ff" stroke="#63b8ff" points="1095.85,-134.21 1085.31,-133.12 1092.87,-140.54 1095.85,-134.21"/>
</a>
</g>
</g>
<!-- Node32&#45;&gt;Node13 -->
<g id="edge58_Node000032_Node000013" class="edge">
<title>Node32&#45;&gt;Node13</title>
<g id="a_edge58_Node000032_Node000013"><a xlink:title=" ">
<path fill="none" stroke="#63b8ff" d="M1182.29,-167.7C1185.74,-158.61 1191.13,-144.36 1195.75,-132 1201.42,-116.82 1207.77,-99.61 1212.52,-86.71"/>
<polygon fill="#63b8ff" stroke="#63b8ff" points="1215.67,-88.28 1215.83,-77.69 1209.1,-85.87 1215.67,-88.28"/>
</a>
</g>
</g>
<!-- Node32&#45;&gt;Node19 -->
<g id="edge60_Node000032_Node000019" class="edge">
<title>Node32&#45;&gt;Node19</title>
<g id="a_edge60_Node000032_Node000019"><a xlink:title=" ">
<path fill="none" stroke="#63b8ff" d="M1179.22,-167.64C1179.38,-153.6 1177.53,-127.13 1162.75,-112 1130.04,-78.51 1075.13,-69.16 1037.49,-66.95"/>
<polygon fill="#63b8ff" stroke="#63b8ff" points="1038.05,-63.47 1027.91,-66.54 1037.75,-70.46 1038.05,-63.47"/>
</a>
</g>
</g>
<!-- Node33 -->
<g id="Node000033" class="node">
<title>Node33</title>
<g id="a_Node000033"><a xlink:href="dlfcn__compat_8hpp.html" target="_top" xlink:title=" ">
<polygon fill="white" stroke="#666666" points="1379.38,-132 1286.12,-132 1286.12,-112 1379.38,-112 1379.38,-132"/>
<text text-anchor="middle" x="1332.75" y="-118.5" font-family="Helvetica,sans-Serif" font-size="10.00">dlfcn_compat.hpp</text>
</a>
</g>
</g>
<!-- Node32&#45;&gt;Node33 -->
<g id="edge61_Node000032_Node000033" class="edge">
<title>Node32&#45;&gt;Node33</title>
<g id="a_edge61_Node000032_Node000033"><a xlink:title=" ">
<path fill="none" stroke="#63b8ff" d="M1205.57,-167.59C1230.38,-158.9 1267.48,-145.89 1295.22,-136.16"/>
<polygon fill="#63b8ff" stroke="#63b8ff" points="1296.01,-139.59 1304.29,-132.98 1293.69,-132.99 1296.01,-139.59"/>
</a>
</g>
</g>
<!-- Node34 -->
<g id="Node000034" class="node">
<title>Node34</title>
<g id="a_Node000034"><a xlink:title=" ">
<polygon fill="#e0e0e0" stroke="#999999" points="1355.38,-76 1310.12,-76 1310.12,-56 1355.38,-56 1355.38,-76"/>
<text text-anchor="middle" x="1332.75" y="-62.5" font-family="Helvetica,sans-Serif" font-size="10.00">dlfcn.h</text>
</a>
</g>
</g>
<!-- Node33&#45;&gt;Node34 -->
<g id="edge62_Node000033_Node000034" class="edge">
<title>Node33&#45;&gt;Node34</title>
<g id="a_edge62_Node000033_Node000034"><a xlink:title=" ">
<path fill="none" stroke="#63b8ff" d="M1332.75,-111.59C1332.75,-105.01 1332.75,-95.96 1332.75,-87.73"/>
<polygon fill="#63b8ff" stroke="#63b8ff" points="1336.25,-87.81 1332.75,-77.81 1329.25,-87.81 1336.25,-87.81"/>
</a>
</g>
</g>
</g>
</svg>
