<?xml version="1.0" encoding="UTF-8" standalone="no"?>
<!DOCTYPE svg PUBLIC "-//W3C//DTD SVG 1.1//EN"
 "http://www.w3.org/Graphics/SVG/1.1/DTD/svg11.dtd">
<!-- Generated by graphviz version 12.1.0 (20240811.2233)
 -->
<!-- Title: PhysicsEngine.hpp Pages: 1 -->
<svg width="1068pt" height="308pt"
 viewBox="0.00 0.00 1067.79 308.00" xmlns="http://www.w3.org/2000/svg" xmlns:xlink="http://www.w3.org/1999/xlink">
<g id="graph0" class="graph" transform="scale(1 1) rotate(0) translate(4 304)">
<title>PhysicsEngine.hpp</title>
<!-- Node1 -->
<g id="Node000001" class="node">
<title>Node1</title>
<g id="a_Node000001"><a xlink:title=" ">
<polygon fill="#999999" stroke="#666666" points="127.39,-300 27.39,-300 27.39,-280 127.39,-280 127.39,-300"/>
<text text-anchor="middle" x="77.39" y="-286.5" font-family="Helvetica,sans-Serif" font-size="10.00">PhysicsEngine.hpp</text>
</a>
</g>
</g>
<!-- Node2 -->
<g id="Node000002" class="node">
<title>Node2</title>
<g id="a_Node000002"><a xlink:href="Entity_8hpp.html" target="_top" xlink:title=" ">
<polygon fill="white" stroke="#666666" points="515.14,-76 455.64,-76 455.64,-56 515.14,-56 515.14,-76"/>
<text text-anchor="middle" x="485.39" y="-62.5" font-family="Helvetica,sans-Serif" font-size="10.00">Entity.hpp</text>
</a>
</g>
</g>
<!-- Node1&#45;&gt;Node2 -->
<g id="edge1_Node000001_Node000002" class="edge">
<title>Node1&#45;&gt;Node2</title>
<g id="a_edge1_Node000001_Node000002"><a xlink:title=" ">
<path fill="none" stroke="#63b8ff" d="M68.41,-279.64C41.95,-250.94 -31.04,-163.08 15.39,-112 29.75,-96.2 332.12,-76.31 444.13,-69.45"/>
<polygon fill="#63b8ff" stroke="#63b8ff" points="444.01,-72.97 453.78,-68.87 443.58,-65.98 444.01,-72.97"/>
</a>
</g>
</g>
<!-- Node5 -->
<g id="Node000005" class="node">
<title>Node5</title>
<g id="a_Node000005"><a xlink:href="Utils_8hpp.html" target="_top" xlink:title=" ">
<polygon fill="white" stroke="#666666" points="104.89,-188 49.89,-188 49.89,-168 104.89,-168 104.89,-188"/>
<text text-anchor="middle" x="77.39" y="-174.5" font-family="Helvetica,sans-Serif" font-size="10.00">Utils.hpp</text>
</a>
</g>
</g>
<!-- Node1&#45;&gt;Node5 -->
<g id="edge4_Node000001_Node000005" class="edge">
<title>Node1&#45;&gt;Node5</title>
<g id="a_edge4_Node000001_Node000005"><a xlink:title=" ">
<path fill="none" stroke="#63b8ff" d="M77.39,-279.62C77.39,-262.01 77.39,-223.59 77.39,-199.65"/>
<polygon fill="#63b8ff" stroke="#63b8ff" points="80.89,-199.87 77.39,-189.87 73.89,-199.87 80.89,-199.87"/>
</a>
</g>
</g>
<!-- Node9 -->
<g id="Node000009" class="node">
<title>Node9</title>
<g id="a_Node000009"><a xlink:href="Mediator_8hpp.html" target="_top" xlink:title=" ">
<polygon fill="white" stroke="#666666" points="413.51,-244 341.26,-244 341.26,-224 413.51,-224 413.51,-244"/>
<text text-anchor="middle" x="377.39" y="-230.5" font-family="Helvetica,sans-Serif" font-size="10.00">Mediator.hpp</text>
</a>
</g>
</g>
<!-- Node1&#45;&gt;Node9 -->
<g id="edge9_Node000001_Node000009" class="edge">
<title>Node1&#45;&gt;Node9</title>
<g id="a_edge9_Node000001_Node000009"><a xlink:title=" ">
<path fill="none" stroke="#63b8ff" d="M127.6,-279.96C183.97,-269.81 274.76,-253.47 329.96,-243.54"/>
<polygon fill="#63b8ff" stroke="#63b8ff" points="330.47,-247 339.69,-241.79 329.23,-240.11 330.47,-247"/>
</a>
</g>
</g>
<!-- Node3 -->
<g id="Node000003" class="node">
<title>Node3</title>
<g id="a_Node000003"><a xlink:title=" ">
<polygon fill="#e0e0e0" stroke="#999999" points="477.01,-20 431.76,-20 431.76,0 477.01,0 477.01,-20"/>
<text text-anchor="middle" x="454.39" y="-6.5" font-family="Helvetica,sans-Serif" font-size="10.00">cstdint</text>
</a>
</g>
</g>
<!-- Node2&#45;&gt;Node3 -->
<g id="edge2_Node000002_Node000003" class="edge">
<title>Node2&#45;&gt;Node3</title>
<g id="a_edge2_Node000002_Node000003"><a xlink:title=" ">
<path fill="none" stroke="#63b8ff" d="M479.99,-55.59C475.94,-48.55 470.27,-38.67 465.29,-30"/>
<polygon fill="#63b8ff" stroke="#63b8ff" points="468.49,-28.54 460.48,-21.61 462.42,-32.03 468.49,-28.54"/>
</a>
</g>
</g>
<!-- Node4 -->
<g id="Node000004" class="node">
<title>Node4</title>
<g id="a_Node000004"><a xlink:title=" ">
<polygon fill="#e0e0e0" stroke="#999999" points="535.39,-20 495.39,-20 495.39,0 535.39,0 535.39,-20"/>
<text text-anchor="middle" x="515.39" y="-6.5" font-family="Helvetica,sans-Serif" font-size="10.00">bitset</text>
</a>
</g>
</g>
<!-- Node2&#45;&gt;Node4 -->
<g id="edge3_Node000002_Node000004" class="edge">
<title>Node2&#45;&gt;Node4</title>
<g id="a_edge3_Node000002_Node000004"><a xlink:title=" ">
<path fill="none" stroke="#63b8ff" d="M490.61,-55.59C494.48,-48.63 499.89,-38.89 504.67,-30.29"/>
<polygon fill="#63b8ff" stroke="#63b8ff" points="507.69,-32.06 509.48,-21.62 501.57,-28.66 507.69,-32.06"/>
</a>
</g>
</g>
<!-- Node5&#45;&gt;Node3 -->
<g id="edge5_Node000005_Node000003" class="edge">
<title>Node5&#45;&gt;Node3</title>
<g id="a_edge5_Node000005_Node000003"><a xlink:title=" ">
<path fill="none" stroke="#63b8ff" d="M56.79,-167.61C32.86,-155.42 -1.32,-133.18 15.39,-112 65.91,-47.96 325.59,-21.22 420.01,-13.52"/>
<polygon fill="#63b8ff" stroke="#63b8ff" points="420.24,-17.01 429.94,-12.73 419.69,-10.03 420.24,-17.01"/>
</a>
</g>
</g>
<!-- Node6 -->
<g id="Node000006" class="node">
<title>Node6</title>
<g id="a_Node000006"><a xlink:title=" ">
<polygon fill="#e0e0e0" stroke="#999999" points="326.39,-132 286.39,-132 286.39,-112 326.39,-112 326.39,-132"/>
<text text-anchor="middle" x="306.39" y="-118.5" font-family="Helvetica,sans-Serif" font-size="10.00">string</text>
</a>
</g>
</g>
<!-- Node5&#45;&gt;Node6 -->
<g id="edge6_Node000005_Node000006" class="edge">
<title>Node5&#45;&gt;Node6</title>
<g id="a_edge6_Node000005_Node000006"><a xlink:title=" ">
<path fill="none" stroke="#63b8ff" d="M105.38,-171.43C142.17,-163.96 208.99,-149.85 275.13,-132.44"/>
<polygon fill="#63b8ff" stroke="#63b8ff" points="275.94,-135.85 284.7,-129.89 274.14,-129.08 275.94,-135.85"/>
</a>
</g>
</g>
<!-- Node7 -->
<g id="Node000007" class="node">
<title>Node7</title>
<g id="a_Node000007"><a xlink:title=" ">
<polygon fill="#e0e0e0" stroke="#999999" points="76.01,-132 24.76,-132 24.76,-112 76.01,-112 76.01,-132"/>
<text text-anchor="middle" x="50.39" y="-118.5" font-family="Helvetica,sans-Serif" font-size="10.00">ostream</text>
</a>
</g>
</g>
<!-- Node5&#45;&gt;Node7 -->
<g id="edge7_Node000005_Node000007" class="edge">
<title>Node5&#45;&gt;Node7</title>
<g id="a_edge7_Node000005_Node000007"><a xlink:title=" ">
<path fill="none" stroke="#63b8ff" d="M72.68,-167.59C69.24,-160.7 64.44,-151.1 60.17,-142.57"/>
<polygon fill="#63b8ff" stroke="#63b8ff" points="63.31,-141.03 55.71,-133.65 57.05,-144.16 63.31,-141.03"/>
</a>
</g>
</g>
<!-- Node8 -->
<g id="Node000008" class="node">
<title>Node8</title>
<g id="a_Node000008"><a xlink:title=" ">
<polygon fill="#e0e0e0" stroke="#999999" points="132.26,-132 94.51,-132 94.51,-112 132.26,-112 132.26,-132"/>
<text text-anchor="middle" x="113.39" y="-118.5" font-family="Helvetica,sans-Serif" font-size="10.00">array</text>
</a>
</g>
</g>
<!-- Node5&#45;&gt;Node8 -->
<g id="edge8_Node000005_Node000008" class="edge">
<title>Node5&#45;&gt;Node8</title>
<g id="a_edge8_Node000005_Node000008"><a xlink:title=" ">
<path fill="none" stroke="#63b8ff" d="M83.66,-167.59C88.41,-160.47 95.08,-150.45 100.91,-141.72"/>
<polygon fill="#63b8ff" stroke="#63b8ff" points="103.71,-143.82 106.35,-133.56 97.89,-139.94 103.71,-143.82"/>
</a>
</g>
</g>
<!-- Node10 -->
<g id="Node000010" class="node">
<title>Node10</title>
<g id="a_Node000010"><a xlink:title=" ">
<polygon fill="#e0e0e0" stroke="#999999" points="312.14,-76 258.64,-76 258.64,-56 312.14,-56 312.14,-76"/>
<text text-anchor="middle" x="285.39" y="-62.5" font-family="Helvetica,sans-Serif" font-size="10.00">iostream</text>
</a>
</g>
</g>
<!-- Node9&#45;&gt;Node10 -->
<g id="edge10_Node000009_Node000010" class="edge">
<title>Node9&#45;&gt;Node10</title>
<g id="a_edge10_Node000009_Node000010"><a xlink:title=" ">
<path fill="none" stroke="#63b8ff" d="M341.13,-229.83C290.75,-224.58 203.58,-212.19 184.39,-188 167.77,-167.07 193.27,-129.11 208.39,-112 219.85,-99.02 236,-88.79 250.54,-81.39"/>
<polygon fill="#63b8ff" stroke="#63b8ff" points="251.89,-84.62 259.4,-77.15 248.87,-78.31 251.89,-84.62"/>
</a>
</g>
</g>
<!-- Node11 -->
<g id="Node000011" class="node">
<title>Node11</title>
<g id="a_Node000011"><a xlink:title=" ">
<polygon fill="#e0e0e0" stroke="#999999" points="396.01,-132 344.76,-132 344.76,-112 396.01,-112 396.01,-132"/>
<text text-anchor="middle" x="370.39" y="-118.5" font-family="Helvetica,sans-Serif" font-size="10.00">memory</text>
</a>
</g>
</g>
<!-- Node9&#45;&gt;Node11 -->
<g id="edge11_Node000009_Node000011" class="edge">
<title>Node9&#45;&gt;Node11</title>
<g id="a_edge11_Node000009_Node000011"><a xlink:title=" ">
<path fill="none" stroke="#63b8ff" d="M376.79,-223.62C375.67,-206.01 373.22,-167.59 371.7,-143.65"/>
<polygon fill="#63b8ff" stroke="#63b8ff" points="375.21,-143.62 371.08,-133.87 368.22,-144.07 375.21,-143.62"/>
</a>
</g>
</g>
<!-- Node12 -->
<g id="Node000012" class="node">
<title>Node12</title>
<g id="a_Node000012"><a xlink:title=" ">
<polygon fill="#e0e0e0" stroke="#999999" points="456.89,-132 413.89,-132 413.89,-112 456.89,-112 456.89,-132"/>
<text text-anchor="middle" x="435.39" y="-118.5" font-family="Helvetica,sans-Serif" font-size="10.00">vector</text>
</a>
</g>
</g>
<!-- Node9&#45;&gt;Node12 -->
<g id="edge12_Node000009_Node000012" class="edge">
<title>Node9&#45;&gt;Node12</title>
<g id="a_edge12_Node000009_Node000012"><a xlink:title=" ">
<path fill="none" stroke="#63b8ff" d="M382.33,-223.62C391.79,-205.68 412.62,-166.17 425.19,-142.35"/>
<polygon fill="#63b8ff" stroke="#63b8ff" points="428.18,-144.17 429.75,-133.69 421.99,-140.91 428.18,-144.17"/>
</a>
</g>
</g>
<!-- Node13 -->
<g id="Node000013" class="node">
<title>Node13</title>
<g id="a_Node000013"><a xlink:href="EntityManager_8hpp.html" target="_top" xlink:title=" ">
<polygon fill="white" stroke="#666666" points="291.26,-188 193.51,-188 193.51,-168 291.26,-168 291.26,-188"/>
<text text-anchor="middle" x="242.39" y="-174.5" font-family="Helvetica,sans-Serif" font-size="10.00">EntityManager.hpp</text>
</a>
</g>
</g>
<!-- Node9&#45;&gt;Node13 -->
<g id="edge13_Node000009_Node000013" class="edge">
<title>Node9&#45;&gt;Node13</title>
<g id="a_edge13_Node000009_Node000013"><a xlink:title=" ">
<path fill="none" stroke="#63b8ff" d="M353.87,-223.59C332.51,-215.05 300.75,-202.35 276.59,-192.68"/>
<polygon fill="#63b8ff" stroke="#63b8ff" points="278.07,-189.51 267.49,-189.04 275.47,-196.01 278.07,-189.51"/>
</a>
</g>
</g>
<!-- Node15 -->
<g id="Node000015" class="node">
<title>Node15</title>
<g id="a_Node000015"><a xlink:href="ComponentManager_8hpp.html" target="_top" xlink:title=" ">
<polygon fill="white" stroke="#666666" points="546.64,-188 424.14,-188 424.14,-168 546.64,-168 546.64,-188"/>
<text text-anchor="middle" x="485.39" y="-174.5" font-family="Helvetica,sans-Serif" font-size="10.00">ComponentManager.hpp</text>
</a>
</g>
</g>
<!-- Node9&#45;&gt;Node15 -->
<g id="edge17_Node000009_Node000015" class="edge">
<title>Node9&#45;&gt;Node15</title>
<g id="a_edge17_Node000009_Node000015"><a xlink:title=" ">
<path fill="none" stroke="#63b8ff" d="M396.2,-223.59C412.74,-215.32 437.1,-203.14 456.18,-193.6"/>
<polygon fill="#63b8ff" stroke="#63b8ff" points="457.69,-196.76 465.07,-189.16 454.56,-190.5 457.69,-196.76"/>
</a>
</g>
</g>
<!-- Node20 -->
<g id="Node000020" class="node">
<title>Node20</title>
<g id="a_Node000020"><a xlink:href="SystemManager_8hpp.html" target="_top" xlink:title=" ">
<polygon fill="white" stroke="#666666" points="670.39,-188 564.39,-188 564.39,-168 670.39,-168 670.39,-188"/>
<text text-anchor="middle" x="617.39" y="-174.5" font-family="Helvetica,sans-Serif" font-size="10.00">SystemManager.hpp</text>
</a>
</g>
</g>
<!-- Node9&#45;&gt;Node20 -->
<g id="edge30_Node000009_Node000020" class="edge">
<title>Node9&#45;&gt;Node20</title>
<g id="a_edge30_Node000009_Node000020"><a xlink:title=" ">
<path fill="none" stroke="#63b8ff" d="M413.84,-224.8C453.85,-215.8 518.47,-201.26 564.15,-190.98"/>
<polygon fill="#63b8ff" stroke="#63b8ff" points="564.87,-194.4 573.85,-188.79 563.33,-187.58 564.87,-194.4"/>
</a>
</g>
</g>
<!-- Node23 -->
<g id="Node000023" class="node">
<title>Node23</title>
<g id="a_Node000023"><a xlink:href="EventManager_8hpp.html" target="_top" xlink:title=" ">
<polygon fill="white" stroke="#666666" points="994.26,-188 896.51,-188 896.51,-168 994.26,-168 994.26,-188"/>
<text text-anchor="middle" x="945.39" y="-174.5" font-family="Helvetica,sans-Serif" font-size="10.00">EventManager.hpp</text>
</a>
</g>
</g>
<!-- Node9&#45;&gt;Node23 -->
<g id="edge39_Node000009_Node000023" class="edge">
<title>Node9&#45;&gt;Node23</title>
<g id="a_edge39_Node000009_Node000023"><a xlink:title=" ">
<path fill="none" stroke="#63b8ff" d="M413.78,-229.54C509.16,-220.47 767.11,-195.95 885.06,-184.74"/>
<polygon fill="#63b8ff" stroke="#63b8ff" points="885.23,-188.23 894.86,-183.8 884.57,-181.27 885.23,-188.23"/>
</a>
</g>
</g>
<!-- Node13&#45;&gt;Node2 -->
<g id="edge16_Node000013_Node000002" class="edge">
<title>Node13&#45;&gt;Node2</title>
<g id="a_edge16_Node000013_Node000002"><a xlink:title=" ">
<path fill="none" stroke="#63b8ff" d="M233.37,-167.61C221.4,-154 203.33,-128.61 217.39,-112 245.98,-78.21 376.64,-69.78 444.38,-67.68"/>
<polygon fill="#63b8ff" stroke="#63b8ff" points="444.06,-71.19 453.96,-67.42 443.87,-64.2 444.06,-71.19"/>
</a>
</g>
</g>
<!-- Node13&#45;&gt;Node8 -->
<g id="edge15_Node000013_Node000008" class="edge">
<title>Node13&#45;&gt;Node8</title>
<g id="a_edge15_Node000013_Node000008"><a xlink:title=" ">
<path fill="none" stroke="#63b8ff" d="M219.92,-167.59C198.6,-158.67 166.45,-145.21 143.04,-135.41"/>
<polygon fill="#63b8ff" stroke="#63b8ff" points="144.63,-132.28 134.05,-131.65 141.92,-138.74 144.63,-132.28"/>
</a>
</g>
</g>
<!-- Node14 -->
<g id="Node000014" class="node">
<title>Node14</title>
<g id="a_Node000014"><a xlink:title=" ">
<polygon fill="#e0e0e0" stroke="#999999" points="268.51,-132 226.26,-132 226.26,-112 268.51,-112 268.51,-132"/>
<text text-anchor="middle" x="247.39" y="-118.5" font-family="Helvetica,sans-Serif" font-size="10.00">queue</text>
</a>
</g>
</g>
<!-- Node13&#45;&gt;Node14 -->
<g id="edge14_Node000013_Node000014" class="edge">
<title>Node13&#45;&gt;Node14</title>
<g id="a_edge14_Node000013_Node000014"><a xlink:title=" ">
<path fill="none" stroke="#63b8ff" d="M243.26,-167.59C243.87,-161.01 244.7,-151.96 245.47,-143.73"/>
<polygon fill="#63b8ff" stroke="#63b8ff" points="248.95,-144.09 246.39,-133.81 241.98,-143.44 248.95,-144.09"/>
</a>
</g>
</g>
<!-- Node15&#45;&gt;Node2 -->
<g id="edge23_Node000015_Node000002" class="edge">
<title>Node15&#45;&gt;Node2</title>
<g id="a_edge23_Node000015_Node000002"><a xlink:title=" ">
<path fill="none" stroke="#63b8ff" d="M485.39,-167.62C485.39,-150.01 485.39,-111.59 485.39,-87.65"/>
<polygon fill="#63b8ff" stroke="#63b8ff" points="488.89,-87.87 485.39,-77.87 481.89,-87.87 488.89,-87.87"/>
</a>
</g>
</g>
<!-- Node15&#45;&gt;Node6 -->
<g id="edge19_Node000015_Node000006" class="edge">
<title>Node15&#45;&gt;Node6</title>
<g id="a_edge19_Node000015_Node000006"><a xlink:title=" ">
<path fill="none" stroke="#63b8ff" d="M453.46,-167.52C425.33,-159.14 382.97,-146.48 337.62,-132.66"/>
<polygon fill="#63b8ff" stroke="#63b8ff" points="338.69,-129.33 328.11,-129.76 336.65,-136.03 338.69,-129.33"/>
</a>
</g>
</g>
<!-- Node15&#45;&gt;Node11 -->
<g id="edge20_Node000015_Node000011" class="edge">
<title>Node15&#45;&gt;Node11</title>
<g id="a_edge20_Node000015_Node000011"><a xlink:title=" ">
<path fill="none" stroke="#63b8ff" d="M465.35,-167.59C447.57,-159.24 421.32,-146.92 400.92,-137.34"/>
<polygon fill="#63b8ff" stroke="#63b8ff" points="402.48,-134.21 391.94,-133.12 399.51,-140.54 402.48,-134.21"/>
</a>
</g>
</g>
<!-- Node15&#45;&gt;Node12 -->
<g id="edge22_Node000015_Node000012" class="edge">
<title>Node15&#45;&gt;Node12</title>
<g id="a_edge22_Node000015_Node000012"><a xlink:title=" ">
<path fill="none" stroke="#63b8ff" d="M476.68,-167.59C469.79,-160.16 459.99,-149.58 451.67,-140.58"/>
<polygon fill="#63b8ff" stroke="#63b8ff" points="454.39,-138.37 445.02,-133.41 449.25,-143.12 454.39,-138.37"/>
</a>
</g>
</g>
<!-- Node16 -->
<g id="Node000016" class="node">
<title>Node16</title>
<g id="a_Node000016"><a xlink:title=" ">
<polygon fill="#e0e0e0" stroke="#999999" points="785.76,-76 703.01,-76 703.01,-56 785.76,-56 785.76,-76"/>
<text text-anchor="middle" x="744.39" y="-62.5" font-family="Helvetica,sans-Serif" font-size="10.00">unordered_map</text>
</a>
</g>
</g>
<!-- Node15&#45;&gt;Node16 -->
<g id="edge18_Node000015_Node000016" class="edge">
<title>Node15&#45;&gt;Node16</title>
<g id="a_edge18_Node000015_Node000016"><a xlink:title=" ">
<path fill="none" stroke="#63b8ff" d="M537.51,-167.52C570.8,-160.33 614.31,-148.79 650.39,-132 678.26,-119.02 706.84,-97.94 725.05,-83.31"/>
<polygon fill="#63b8ff" stroke="#63b8ff" points="726.88,-86.34 732.4,-77.29 722.45,-80.92 726.88,-86.34"/>
</a>
</g>
</g>
<!-- Node17 -->
<g id="Node000017" class="node">
<title>Node17</title>
<g id="a_Node000017"><a xlink:title=" ">
<polygon fill="#e0e0e0" stroke="#999999" points="678.76,-76 620.01,-76 620.01,-56 678.76,-56 678.76,-76"/>
<text text-anchor="middle" x="649.39" y="-62.5" font-family="Helvetica,sans-Serif" font-size="10.00">stdexcept</text>
</a>
</g>
</g>
<!-- Node15&#45;&gt;Node17 -->
<g id="edge21_Node000015_Node000017" class="edge">
<title>Node15&#45;&gt;Node17</title>
<g id="a_edge21_Node000015_Node000017"><a xlink:title=" ">
<path fill="none" stroke="#63b8ff" d="M531.88,-167.58C568.81,-159.21 616.48,-146.14 630.39,-132 641.99,-120.2 646.58,-101.73 648.36,-87.48"/>
<polygon fill="#63b8ff" stroke="#63b8ff" points="651.82,-88.1 649.17,-77.84 644.84,-87.51 651.82,-88.1"/>
</a>
</g>
</g>
<!-- Node18 -->
<g id="Node000018" class="node">
<title>Node18</title>
<g id="a_Node000018"><a xlink:href="ComponentArray_8hpp.html" target="_top" xlink:title=" ">
<polygon fill="white" stroke="#666666" points="621.14,-132 513.64,-132 513.64,-112 621.14,-112 621.14,-132"/>
<text text-anchor="middle" x="567.39" y="-118.5" font-family="Helvetica,sans-Serif" font-size="10.00">ComponentArray.hpp</text>
</a>
</g>
</g>
<!-- Node15&#45;&gt;Node18 -->
<g id="edge24_Node000015_Node000018" class="edge">
<title>Node15&#45;&gt;Node18</title>
<g id="a_edge24_Node000015_Node000018"><a xlink:title=" ">
<path fill="none" stroke="#63b8ff" d="M499.67,-167.59C511.82,-159.59 529.53,-147.93 543.78,-138.54"/>
<polygon fill="#63b8ff" stroke="#63b8ff" points="545.3,-141.73 551.73,-133.31 541.45,-135.89 545.3,-141.73"/>
</a>
</g>
</g>
<!-- Node18&#45;&gt;Node2 -->
<g id="edge29_Node000018_Node000002" class="edge">
<title>Node18&#45;&gt;Node2</title>
<g id="a_edge29_Node000018_Node000002"><a xlink:title=" ">
<path fill="none" stroke="#63b8ff" d="M553.1,-111.59C540.95,-103.59 523.25,-91.93 508.99,-82.54"/>
<polygon fill="#63b8ff" stroke="#63b8ff" points="511.32,-79.89 501.04,-77.31 507.47,-85.73 511.32,-79.89"/>
</a>
</g>
</g>
<!-- Node18&#45;&gt;Node10 -->
<g id="edge28_Node000018_Node000010" class="edge">
<title>Node18&#45;&gt;Node10</title>
<g id="a_edge28_Node000018_Node000010"><a xlink:title=" ">
<path fill="none" stroke="#63b8ff" d="M517.94,-111.53C462.55,-100.92 373.94,-83.96 323.6,-74.32"/>
<polygon fill="#63b8ff" stroke="#63b8ff" points="324.53,-70.93 314.05,-72.49 323.22,-77.81 324.53,-70.93"/>
</a>
</g>
</g>
<!-- Node18&#45;&gt;Node16 -->
<g id="edge26_Node000018_Node000016" class="edge">
<title>Node18&#45;&gt;Node16</title>
<g id="a_edge26_Node000018_Node000016"><a xlink:title=" ">
<path fill="none" stroke="#63b8ff" d="M598.22,-111.59C627.1,-102.78 670.5,-89.54 702.51,-79.78"/>
<polygon fill="#63b8ff" stroke="#63b8ff" points="703.32,-83.19 711.87,-76.92 701.28,-76.49 703.32,-83.19"/>
</a>
</g>
</g>
<!-- Node18&#45;&gt;Node17 -->
<g id="edge27_Node000018_Node000017" class="edge">
<title>Node18&#45;&gt;Node17</title>
<g id="a_edge27_Node000018_Node000017"><a xlink:title=" ">
<path fill="none" stroke="#63b8ff" d="M581.67,-111.59C593.82,-103.59 611.53,-91.93 625.78,-82.54"/>
<polygon fill="#63b8ff" stroke="#63b8ff" points="627.3,-85.73 633.73,-77.31 623.45,-79.89 627.3,-85.73"/>
</a>
</g>
</g>
<!-- Node19 -->
<g id="Node000019" class="node">
<title>Node19</title>
<g id="a_Node000019"><a xlink:title=" ">
<polygon fill="#e0e0e0" stroke="#999999" points="596.39,-76 538.39,-76 538.39,-56 596.39,-56 596.39,-76"/>
<text text-anchor="middle" x="567.39" y="-62.5" font-family="Helvetica,sans-Serif" font-size="10.00">exception</text>
</a>
</g>
</g>
<!-- Node18&#45;&gt;Node19 -->
<g id="edge25_Node000018_Node000019" class="edge">
<title>Node18&#45;&gt;Node19</title>
<g id="a_edge25_Node000018_Node000019"><a xlink:title=" ">
<path fill="none" stroke="#63b8ff" d="M567.39,-111.59C567.39,-105.01 567.39,-95.96 567.39,-87.73"/>
<polygon fill="#63b8ff" stroke="#63b8ff" points="570.89,-87.81 567.39,-77.81 563.89,-87.81 570.89,-87.81"/>
</a>
</g>
</g>
<!-- Node20&#45;&gt;Node6 -->
<g id="edge32_Node000020_Node000006" class="edge">
<title>Node20&#45;&gt;Node6</title>
<g id="a_edge32_Node000020_Node000006"><a xlink:title=" ">
<path fill="none" stroke="#63b8ff" d="M563.95,-168.89C495.51,-158.45 381.29,-140.82 337.93,-132.14"/>
<polygon fill="#63b8ff" stroke="#63b8ff" points="338.87,-128.77 328.36,-130.08 337.4,-135.61 338.87,-128.77"/>
</a>
</g>
</g>
<!-- Node20&#45;&gt;Node11 -->
<g id="edge34_Node000020_Node000011" class="edge">
<title>Node20&#45;&gt;Node11</title>
<g id="a_edge34_Node000020_Node000011"><a xlink:title=" ">
<path fill="none" stroke="#63b8ff" d="M570.11,-167.56C529.5,-159.32 469.12,-146.76 407.46,-132.41"/>
<polygon fill="#63b8ff" stroke="#63b8ff" points="408.36,-129.02 397.82,-130.15 406.76,-135.84 408.36,-129.02"/>
</a>
</g>
</g>
<!-- Node20&#45;&gt;Node12 -->
<g id="edge33_Node000020_Node000012" class="edge">
<title>Node20&#45;&gt;Node12</title>
<g id="a_edge33_Node000020_Node000012"><a xlink:title=" ">
<path fill="none" stroke="#63b8ff" d="M585.68,-167.59C552.8,-157.84 501.6,-142.65 468.28,-132.76"/>
<polygon fill="#63b8ff" stroke="#63b8ff" points="469.33,-129.42 458.75,-129.93 467.34,-136.13 469.33,-129.42"/>
</a>
</g>
</g>
<!-- Node20&#45;&gt;Node16 -->
<g id="edge31_Node000020_Node000016" class="edge">
<title>Node20&#45;&gt;Node16</title>
<g id="a_edge31_Node000020_Node000016"><a xlink:title=" ">
<path fill="none" stroke="#63b8ff" d="M631.38,-167.53C644.03,-158.77 662.97,-145.16 678.39,-132 696.24,-116.75 715.2,-97.75 728.2,-84.24"/>
<polygon fill="#63b8ff" stroke="#63b8ff" points="730.4,-87 734.76,-77.35 725.33,-82.18 730.4,-87"/>
</a>
</g>
</g>
<!-- Node20&#45;&gt;Node17 -->
<g id="edge35_Node000020_Node000017" class="edge">
<title>Node20&#45;&gt;Node17</title>
<g id="a_edge35_Node000020_Node000017"><a xlink:title=" ">
<path fill="none" stroke="#63b8ff" d="M632.06,-167.54C642.99,-159.56 657.06,-147.03 663.39,-132 669.55,-117.35 665.03,-99.66 659.54,-86.43"/>
<polygon fill="#63b8ff" stroke="#63b8ff" points="662.78,-85.08 655.36,-77.52 656.44,-88.06 662.78,-85.08"/>
</a>
</g>
</g>
<!-- Node21 -->
<g id="Node000021" class="node">
<title>Node21</title>
<g id="a_Node000021"><a xlink:href="System_8hpp.html" target="_top" xlink:title=" ">
<polygon fill="white" stroke="#666666" points="859.64,-132 791.14,-132 791.14,-112 859.64,-112 859.64,-132"/>
<text text-anchor="middle" x="825.39" y="-118.5" font-family="Helvetica,sans-Serif" font-size="10.00">System.hpp</text>
</a>
</g>
</g>
<!-- Node20&#45;&gt;Node21 -->
<g id="edge36_Node000020_Node000021" class="edge">
<title>Node20&#45;&gt;Node21</title>
<g id="a_edge36_Node000020_Node000021"><a xlink:title=" ">
<path fill="none" stroke="#63b8ff" d="M653.62,-167.59C688.79,-158.46 742.27,-144.58 780.21,-134.73"/>
<polygon fill="#63b8ff" stroke="#63b8ff" points="780.69,-138.22 789.49,-132.32 778.93,-131.45 780.69,-138.22"/>
</a>
</g>
</g>
<!-- Node21&#45;&gt;Node2 -->
<g id="edge38_Node000021_Node000002" class="edge">
<title>Node21&#45;&gt;Node2</title>
<g id="a_edge38_Node000021_Node000002"><a xlink:title=" ">
<path fill="none" stroke="#63b8ff" d="M790.66,-116.3C735.26,-108.68 623.54,-92.78 529.39,-76 528.38,-75.82 527.36,-75.64 526.33,-75.45"/>
<polygon fill="#63b8ff" stroke="#63b8ff" points="527.14,-72.04 516.65,-73.59 525.82,-78.91 527.14,-72.04"/>
</a>
</g>
</g>
<!-- Node22 -->
<g id="Node000022" class="node">
<title>Node22</title>
<g id="a_Node000022"><a xlink:title=" ">
<polygon fill="#e0e0e0" stroke="#999999" points="837.14,-76 807.64,-76 807.64,-56 837.14,-56 837.14,-76"/>
<text text-anchor="middle" x="822.39" y="-62.5" font-family="Helvetica,sans-Serif" font-size="10.00">set</text>
</a>
</g>
</g>
<!-- Node21&#45;&gt;Node22 -->
<g id="edge37_Node000021_Node000022" class="edge">
<title>Node21&#45;&gt;Node22</title>
<g id="a_edge37_Node000021_Node000022"><a xlink:title=" ">
<path fill="none" stroke="#63b8ff" d="M824.86,-111.59C824.5,-105.01 823.99,-95.96 823.54,-87.73"/>
<polygon fill="#63b8ff" stroke="#63b8ff" points="827.04,-87.6 822.99,-77.81 820.05,-87.99 827.04,-87.6"/>
</a>
</g>
</g>
<!-- Node24 -->
<g id="Node000024" class="node">
<title>Node24</title>
<g id="a_Node000024"><a xlink:href="Event_8hpp.html" target="_top" xlink:title=" ">
<polygon fill="white" stroke="#666666" points="937.51,-132 877.26,-132 877.26,-112 937.51,-112 937.51,-132"/>
<text text-anchor="middle" x="907.39" y="-118.5" font-family="Helvetica,sans-Serif" font-size="10.00">Event.hpp</text>
</a>
</g>
</g>
<!-- Node23&#45;&gt;Node24 -->
<g id="edge40_Node000023_Node000024" class="edge">
<title>Node23&#45;&gt;Node24</title>
<g id="a_edge40_Node000023_Node000024"><a xlink:title=" ">
<path fill="none" stroke="#63b8ff" d="M938.77,-167.59C933.7,-160.39 926.55,-150.23 920.36,-141.43"/>
<polygon fill="#63b8ff" stroke="#63b8ff" points="923.42,-139.7 914.8,-133.54 917.69,-143.73 923.42,-139.7"/>
</a>
</g>
</g>
<!-- Node26 -->
<g id="Node000026" class="node">
<title>Node26</title>
<g id="a_Node000026"><a xlink:title=" ">
<polygon fill="#e0e0e0" stroke="#999999" points="1013.39,-132 955.39,-132 955.39,-112 1013.39,-112 1013.39,-132"/>
<text text-anchor="middle" x="984.39" y="-118.5" font-family="Helvetica,sans-Serif" font-size="10.00">functional</text>
</a>
</g>
</g>
<!-- Node23&#45;&gt;Node26 -->
<g id="edge44_Node000023_Node000026" class="edge">
<title>Node23&#45;&gt;Node26</title>
<g id="a_edge44_Node000023_Node000026"><a xlink:title=" ">
<path fill="none" stroke="#63b8ff" d="M952.18,-167.59C957.38,-160.39 964.72,-150.23 971.07,-141.43"/>
<polygon fill="#63b8ff" stroke="#63b8ff" points="973.77,-143.68 976.78,-133.53 968.09,-139.58 973.77,-143.68"/>
</a>
</g>
</g>
<!-- Node27 -->
<g id="Node000027" class="node">
<title>Node27</title>
<g id="a_Node000027"><a xlink:title=" ">
<polygon fill="#e0e0e0" stroke="#999999" points="1059.79,-132 1030.99,-132 1030.99,-112 1059.79,-112 1059.79,-132"/>
<text text-anchor="middle" x="1045.39" y="-118.5" font-family="Helvetica,sans-Serif" font-size="10.00">list</text>
</a>
</g>
</g>
<!-- Node23&#45;&gt;Node27 -->
<g id="edge45_Node000023_Node000027" class="edge">
<title>Node23&#45;&gt;Node27</title>
<g id="a_edge45_Node000023_Node000027"><a xlink:title=" ">
<path fill="none" stroke="#63b8ff" d="M962.8,-167.59C978.82,-158.95 1002.74,-146.03 1020.72,-136.32"/>
<polygon fill="#63b8ff" stroke="#63b8ff" points="1022.3,-139.45 1029.43,-131.61 1018.97,-133.29 1022.3,-139.45"/>
</a>
</g>
</g>
<!-- Node24&#45;&gt;Node3 -->
<g id="edge41_Node000024_Node000003" class="edge">
<title>Node24&#45;&gt;Node3</title>
<g id="a_edge41_Node000024_Node000003"><a xlink:title=" ">
<path fill="none" stroke="#63b8ff" d="M901.99,-111.94C892.7,-97.28 872.2,-68.74 846.39,-56 705.43,13.56 647.02,-47.03 488.44,-19.98"/>
<polygon fill="#63b8ff" stroke="#63b8ff" points="489.3,-16.58 478.83,-18.24 488.05,-23.47 489.3,-16.58"/>
</a>
</g>
</g>
<!-- Node24&#45;&gt;Node16 -->
<g id="edge42_Node000024_Node000016" class="edge">
<title>Node24&#45;&gt;Node16</title>
<g id="a_edge42_Node000024_Node000016"><a xlink:title=" ">
<path fill="none" stroke="#63b8ff" d="M878.99,-111.59C852.63,-102.86 813.12,-89.77 783.72,-80.03"/>
<polygon fill="#63b8ff" stroke="#63b8ff" points="785.03,-76.78 774.44,-76.96 782.83,-83.42 785.03,-76.78"/>
</a>
</g>
</g>
<!-- Node25 -->
<g id="Node000025" class="node">
<title>Node25</title>
<g id="a_Node000025"><a xlink:title=" ">
<polygon fill="#e0e0e0" stroke="#999999" points="925.26,-76 893.51,-76 893.51,-56 925.26,-56 925.26,-76"/>
<text text-anchor="middle" x="909.39" y="-62.5" font-family="Helvetica,sans-Serif" font-size="10.00">any</text>
</a>
</g>
</g>
<!-- Node24&#45;&gt;Node25 -->
<g id="edge43_Node000024_Node000025" class="edge">
<title>Node24&#45;&gt;Node25</title>
<g id="a_edge43_Node000024_Node000025"><a xlink:title=" ">
<path fill="none" stroke="#63b8ff" d="M907.73,-111.59C907.98,-105.01 908.31,-95.96 908.62,-87.73"/>
<polygon fill="#63b8ff" stroke="#63b8ff" points="912.11,-87.93 908.99,-77.81 905.12,-87.67 912.11,-87.93"/>
</a>
</g>
</g>
</g>
</svg>
