<?xml version="1.0" encoding="UTF-8" standalone="no"?>
<!DOCTYPE svg PUBLIC "-//W3C//DTD SVG 1.1//EN"
 "http://www.w3.org/Graphics/SVG/1.1/DTD/svg11.dtd">
<!-- Generated by graphviz version 12.1.0 (20240811.2233)
 -->
<!-- Title: PlayerControl.hpp Pages: 1 -->
<svg width="1857pt" height="420pt"
 viewBox="0.00 0.00 1856.50 420.00" xmlns="http://www.w3.org/2000/svg" xmlns:xlink="http://www.w3.org/1999/xlink">
<g id="graph0" class="graph" transform="scale(1 1) rotate(0) translate(4 416)">
<title>PlayerControl.hpp</title>
<!-- Node1 -->
<g id="Node000001" class="node">
<title>Node1</title>
<g id="a_Node000001"><a xlink:title=" ">
<polygon fill="#999999" stroke="#666666" points="1143,-412 1049,-412 1049,-392 1143,-392 1143,-412"/>
<text text-anchor="middle" x="1096" y="-398.5" font-family="Helvetica,sans-Serif" font-size="10.00">PlayerControl.hpp</text>
</a>
</g>
</g>
<!-- Node2 -->
<g id="Node000002" class="node">
<title>Node2</title>
<g id="a_Node000002"><a xlink:title=" ">
<polygon fill="#e0e0e0" stroke="#999999" points="729.62,-132 678.38,-132 678.38,-112 729.62,-112 729.62,-132"/>
<text text-anchor="middle" x="704" y="-118.5" font-family="Helvetica,sans-Serif" font-size="10.00">memory</text>
</a>
</g>
</g>
<!-- Node1&#45;&gt;Node2 -->
<g id="edge1_Node000001_Node000002" class="edge">
<title>Node1&#45;&gt;Node2</title>
<g id="a_edge1_Node000001_Node000002"><a xlink:title=" ">
<path fill="none" stroke="#63b8ff" d="M1048.56,-393.39C968.02,-378.25 803.33,-337.41 701,-244 673.8,-219.17 655.81,-202.75 668,-168 671.57,-157.82 678.52,-148.23 685.37,-140.55"/>
<polygon fill="#63b8ff" stroke="#63b8ff" points="687.68,-143.19 692.1,-133.56 682.64,-138.33 687.68,-143.19"/>
</a>
</g>
</g>
<!-- Node3 -->
<g id="Node000003" class="node">
<title>Node3</title>
<g id="a_Node000003"><a xlink:title=" ">
<polygon fill="#e0e0e0" stroke="#999999" points="158,-20 118,-20 118,0 158,0 158,-20"/>
<text text-anchor="middle" x="138" y="-6.5" font-family="Helvetica,sans-Serif" font-size="10.00">bitset</text>
</a>
</g>
</g>
<!-- Node1&#45;&gt;Node3 -->
<g id="edge2_Node000001_Node000003" class="edge">
<title>Node1&#45;&gt;Node3</title>
<g id="a_edge2_Node000001_Node000003"><a xlink:title=" ">
<path fill="none" stroke="#63b8ff" d="M1048.68,-401.18C880.9,-401.44 315.18,-399.03 140,-356 73.38,-339.64 0,-359.6 0,-291 0,-291 0,-291 0,-121 0,-66.67 66.21,-34.83 106.91,-20.39"/>
<polygon fill="#63b8ff" stroke="#63b8ff" points="107.85,-23.77 116.2,-17.26 105.61,-17.13 107.85,-23.77"/>
</a>
</g>
</g>
<!-- Node4 -->
<g id="Node000004" class="node">
<title>Node4</title>
<g id="a_Node000004"><a xlink:title=" ">
<polygon fill="#e0e0e0" stroke="#999999" points="691.38,-76 608.62,-76 608.62,-56 691.38,-56 691.38,-76"/>
<text text-anchor="middle" x="650" y="-62.5" font-family="Helvetica,sans-Serif" font-size="10.00">unordered_map</text>
</a>
</g>
</g>
<!-- Node1&#45;&gt;Node4 -->
<g id="edge3_Node000001_Node000004" class="edge">
<title>Node1&#45;&gt;Node4</title>
<g id="a_edge3_Node000001_Node000004"><a xlink:title=" ">
<path fill="none" stroke="#63b8ff" d="M1102.68,-391.51C1114.99,-373.06 1140,-330.7 1140,-291 1140,-291 1140,-291 1140,-233 1140,-149.75 1075.12,-140.79 997,-112 897.52,-75.34 772.39,-67.75 702.83,-66.63"/>
<polygon fill="#63b8ff" stroke="#63b8ff" points="703.3,-63.14 693.26,-66.52 703.22,-70.14 703.3,-63.14"/>
</a>
</g>
</g>
<!-- Node5 -->
<g id="Node000005" class="node">
<title>Node5</title>
<g id="a_Node000005"><a xlink:href="System_8hpp.html" target="_top" xlink:title=" ">
<polygon fill="white" stroke="#666666" points="96.25,-132 27.75,-132 27.75,-112 96.25,-112 96.25,-132"/>
<text text-anchor="middle" x="62" y="-118.5" font-family="Helvetica,sans-Serif" font-size="10.00">System.hpp</text>
</a>
</g>
</g>
<!-- Node1&#45;&gt;Node5 -->
<g id="edge4_Node000001_Node000005" class="edge">
<title>Node1&#45;&gt;Node5</title>
<g id="a_edge4_Node000001_Node000005"><a xlink:title=" ">
<path fill="none" stroke="#63b8ff" d="M1048.76,-400.94C847.76,-400.1 74,-390.38 74,-291 74,-291 74,-291 74,-233 74,-201.69 69.13,-165.65 65.6,-143.6"/>
<polygon fill="#63b8ff" stroke="#63b8ff" points="69.07,-143.16 63.97,-133.87 62.17,-144.31 69.07,-143.16"/>
</a>
</g>
</g>
<!-- Node9 -->
<g id="Node000009" class="node">
<title>Node9</title>
<g id="a_Node000009"><a xlink:href="Mediator_8hpp.html" target="_top" xlink:title=" ">
<polygon fill="white" stroke="#666666" points="782.12,-244 709.88,-244 709.88,-224 782.12,-224 782.12,-244"/>
<text text-anchor="middle" x="746" y="-230.5" font-family="Helvetica,sans-Serif" font-size="10.00">Mediator.hpp</text>
</a>
</g>
</g>
<!-- Node1&#45;&gt;Node9 -->
<g id="edge9_Node000001_Node000009" class="edge">
<title>Node1&#45;&gt;Node9</title>
<g id="a_edge9_Node000001_Node000009"><a xlink:title=" ">
<path fill="none" stroke="#63b8ff" d="M1071.06,-391.58C1048.4,-382.85 1014.15,-369.26 985,-356 906.98,-320.51 817.42,-273.41 773.38,-249.8"/>
<polygon fill="#63b8ff" stroke="#63b8ff" points="775.24,-246.83 764.78,-245.18 771.93,-253 775.24,-246.83"/>
</a>
</g>
</g>
<!-- Node22 -->
<g id="Node000022" class="node">
<title>Node22</title>
<g id="a_Node000022"><a xlink:href="Event_8hpp.html" target="_top" xlink:title=" ">
<polygon fill="white" stroke="#666666" points="1190.12,-132 1129.88,-132 1129.88,-112 1190.12,-112 1190.12,-132"/>
<text text-anchor="middle" x="1160" y="-118.5" font-family="Helvetica,sans-Serif" font-size="10.00">Event.hpp</text>
</a>
</g>
</g>
<!-- Node1&#45;&gt;Node22 -->
<g id="edge57_Node000001_Node000022" class="edge">
<title>Node1&#45;&gt;Node22</title>
<g id="a_edge57_Node000001_Node000022"><a xlink:title=" ">
<path fill="none" stroke="#63b8ff" d="M1112.83,-391.53C1125.68,-383.54 1143,-371.01 1154,-356 1172.2,-331.16 1178,-321.8 1178,-291 1178,-291 1178,-291 1178,-233 1178,-201.31 1170.63,-165.15 1165.33,-143.21"/>
<polygon fill="#63b8ff" stroke="#63b8ff" points="1168.79,-142.64 1162.95,-133.8 1162.01,-144.35 1168.79,-142.64"/>
</a>
</g>
</g>
<!-- Node26 -->
<g id="Node000026" class="node">
<title>Node26</title>
<g id="a_Node000026"><a xlink:href="NetworkManager_8hpp.html" target="_top" xlink:title=" ">
<polygon fill="white" stroke="#666666" points="574.5,-356 465.5,-356 465.5,-336 574.5,-336 574.5,-356"/>
<text text-anchor="middle" x="520" y="-342.5" font-family="Helvetica,sans-Serif" font-size="10.00">NetworkManager.hpp</text>
</a>
</g>
</g>
<!-- Node1&#45;&gt;Node26 -->
<g id="edge42_Node000001_Node000026" class="edge">
<title>Node1&#45;&gt;Node26</title>
<g id="a_edge42_Node000001_Node000026"><a xlink:title=" ">
<path fill="none" stroke="#63b8ff" d="M1048.86,-396.58C946.54,-386.99 703.86,-364.24 586.21,-353.21"/>
<polygon fill="#63b8ff" stroke="#63b8ff" points="586.67,-349.74 576.39,-352.29 586.02,-356.7 586.67,-349.74"/>
</a>
</g>
</g>
<!-- Node31 -->
<g id="Node000031" class="node">
<title>Node31</title>
<g id="a_Node000031"><a xlink:href="Transform_8hpp.html" target="_top" xlink:title=" ">
<polygon fill="white" stroke="#666666" points="1343.75,-356 1206.25,-356 1206.25,-336 1343.75,-336 1343.75,-356"/>
<text text-anchor="middle" x="1275" y="-342.5" font-family="Helvetica,sans-Serif" font-size="10.00">Components/Transform.hpp</text>
</a>
</g>
</g>
<!-- Node1&#45;&gt;Node31 -->
<g id="edge58_Node000001_Node000031" class="edge">
<title>Node1&#45;&gt;Node31</title>
<g id="a_edge58_Node000001_Node000031"><a xlink:title=" ">
<path fill="none" stroke="#63b8ff" d="M1127.18,-391.59C1156.39,-382.78 1200.28,-369.54 1232.65,-359.78"/>
<polygon fill="#63b8ff" stroke="#63b8ff" points="1233.57,-363.16 1242.13,-356.92 1231.54,-356.45 1233.57,-363.16"/>
</a>
</g>
</g>
<!-- Node33 -->
<g id="Node000033" class="node">
<title>Node33</title>
<g id="a_Node000033"><a xlink:href="RigidBody_8hpp.html" target="_top" xlink:title=" ">
<polygon fill="white" stroke="#666666" points="1499.75,-356 1362.25,-356 1362.25,-336 1499.75,-336 1499.75,-356"/>
<text text-anchor="middle" x="1431" y="-342.5" font-family="Helvetica,sans-Serif" font-size="10.00">Components/RigidBody.hpp</text>
</a>
</g>
</g>
<!-- Node1&#45;&gt;Node33 -->
<g id="edge61_Node000001_Node000033" class="edge">
<title>Node1&#45;&gt;Node33</title>
<g id="a_edge61_Node000001_Node000033"><a xlink:title=" ">
<path fill="none" stroke="#63b8ff" d="M1143.29,-393.38C1200.06,-384.23 1295.78,-368.8 1361.1,-358.27"/>
<polygon fill="#63b8ff" stroke="#63b8ff" points="1361.3,-361.78 1370.62,-356.73 1360.19,-354.87 1361.3,-361.78"/>
</a>
</g>
</g>
<!-- Node34 -->
<g id="Node000034" class="node">
<title>Node34</title>
<g id="a_Node000034"><a xlink:href="PlayerInfo_8hpp.html" target="_top" xlink:title=" ">
<polygon fill="white" stroke="#666666" points="1655.75,-356 1518.25,-356 1518.25,-336 1655.75,-336 1655.75,-356"/>
<text text-anchor="middle" x="1587" y="-342.5" font-family="Helvetica,sans-Serif" font-size="10.00">Components/PlayerInfo.hpp</text>
</a>
</g>
</g>
<!-- Node1&#45;&gt;Node34 -->
<g id="edge63_Node000001_Node000034" class="edge">
<title>Node1&#45;&gt;Node34</title>
<g id="a_edge63_Node000001_Node000034"><a xlink:title=" ">
<path fill="none" stroke="#63b8ff" d="M1143.39,-395.93C1218.16,-387.92 1368.39,-371.74 1506.88,-356.23"/>
<polygon fill="#63b8ff" stroke="#63b8ff" points="1507.05,-359.73 1516.6,-355.14 1506.27,-352.78 1507.05,-359.73"/>
</a>
</g>
</g>
<!-- Node35 -->
<g id="Node000035" class="node">
<title>Node35</title>
<g id="a_Node000035"><a xlink:href="Sprite_8hpp.html" target="_top" xlink:title=" ">
<polygon fill="white" stroke="#666666" points="1112.38,-356 993.62,-356 993.62,-336 1112.38,-336 1112.38,-356"/>
<text text-anchor="middle" x="1053" y="-342.5" font-family="Helvetica,sans-Serif" font-size="10.00">Components/Sprite.hpp</text>
</a>
</g>
</g>
<!-- Node1&#45;&gt;Node35 -->
<g id="edge65_Node000001_Node000035" class="edge">
<title>Node1&#45;&gt;Node35</title>
<g id="a_edge65_Node000001_Node000035"><a xlink:title=" ">
<path fill="none" stroke="#63b8ff" d="M1088.51,-391.59C1082.71,-384.32 1074.51,-374.02 1067.45,-365.15"/>
<polygon fill="#63b8ff" stroke="#63b8ff" points="1070.31,-363.12 1061.35,-357.48 1064.84,-367.49 1070.31,-363.12"/>
</a>
</g>
</g>
<!-- Node37 -->
<g id="Node000037" class="node">
<title>Node37</title>
<g id="a_Node000037"><a xlink:href="ShootingCooldown_8hpp.html" target="_top" xlink:title=" ">
<polygon fill="white" stroke="#666666" points="1848.5,-356 1673.5,-356 1673.5,-336 1848.5,-336 1848.5,-356"/>
<text text-anchor="middle" x="1761" y="-342.5" font-family="Helvetica,sans-Serif" font-size="10.00">Components/ShootingCooldown.hpp</text>
</a>
</g>
</g>
<!-- Node1&#45;&gt;Node37 -->
<g id="edge70_Node000001_Node000037" class="edge">
<title>Node1&#45;&gt;Node37</title>
<g id="a_edge70_Node000001_Node000037"><a xlink:title=" ">
<path fill="none" stroke="#63b8ff" d="M1143.23,-397.5C1238.95,-390.35 1462.98,-373.37 1661.86,-356.26"/>
<polygon fill="#63b8ff" stroke="#63b8ff" points="1661.94,-359.77 1671.61,-355.42 1661.34,-352.79 1661.94,-359.77"/>
</a>
</g>
</g>
<!-- Node6 -->
<g id="Node000006" class="node">
<title>Node6</title>
<g id="a_Node000006"><a xlink:title=" ">
<polygon fill="#e0e0e0" stroke="#999999" points="76.75,-76 47.25,-76 47.25,-56 76.75,-56 76.75,-76"/>
<text text-anchor="middle" x="62" y="-62.5" font-family="Helvetica,sans-Serif" font-size="10.00">set</text>
</a>
</g>
</g>
<!-- Node5&#45;&gt;Node6 -->
<g id="edge5_Node000005_Node000006" class="edge">
<title>Node5&#45;&gt;Node6</title>
<g id="a_edge5_Node000005_Node000006"><a xlink:title=" ">
<path fill="none" stroke="#63b8ff" d="M62,-111.59C62,-105.01 62,-95.96 62,-87.73"/>
<polygon fill="#63b8ff" stroke="#63b8ff" points="65.5,-87.81 62,-77.81 58.5,-87.81 65.5,-87.81"/>
</a>
</g>
</g>
<!-- Node7 -->
<g id="Node000007" class="node">
<title>Node7</title>
<g id="a_Node000007"><a xlink:href="Entity_8hpp.html" target="_top" xlink:title=" ">
<polygon fill="white" stroke="#666666" points="248.75,-76 189.25,-76 189.25,-56 248.75,-56 248.75,-76"/>
<text text-anchor="middle" x="219" y="-62.5" font-family="Helvetica,sans-Serif" font-size="10.00">Entity.hpp</text>
</a>
</g>
</g>
<!-- Node5&#45;&gt;Node7 -->
<g id="edge6_Node000005_Node000007" class="edge">
<title>Node5&#45;&gt;Node7</title>
<g id="a_edge6_Node000005_Node000007"><a xlink:title=" ">
<path fill="none" stroke="#63b8ff" d="M89.35,-111.59C114.63,-102.9 152.46,-89.89 180.73,-80.16"/>
<polygon fill="#63b8ff" stroke="#63b8ff" points="181.69,-83.53 190.01,-76.97 179.41,-76.91 181.69,-83.53"/>
</a>
</g>
</g>
<!-- Node7&#45;&gt;Node3 -->
<g id="edge8_Node000007_Node000003" class="edge">
<title>Node7&#45;&gt;Node3</title>
<g id="a_edge8_Node000007_Node000003"><a xlink:title=" ">
<path fill="none" stroke="#63b8ff" d="M204.89,-55.59C193,-47.67 175.73,-36.16 161.72,-26.82"/>
<polygon fill="#63b8ff" stroke="#63b8ff" points="163.74,-23.95 153.48,-21.32 159.86,-29.78 163.74,-23.95"/>
</a>
</g>
</g>
<!-- Node8 -->
<g id="Node000008" class="node">
<title>Node8</title>
<g id="a_Node000008"><a xlink:title=" ">
<polygon fill="#e0e0e0" stroke="#999999" points="1168.62,-20 1123.38,-20 1123.38,0 1168.62,0 1168.62,-20"/>
<text text-anchor="middle" x="1146" y="-6.5" font-family="Helvetica,sans-Serif" font-size="10.00">cstdint</text>
</a>
</g>
</g>
<!-- Node7&#45;&gt;Node8 -->
<g id="edge7_Node000007_Node000008" class="edge">
<title>Node7&#45;&gt;Node8</title>
<g id="a_edge7_Node000007_Node000008"><a xlink:title=" ">
<path fill="none" stroke="#63b8ff" d="M249.24,-61.86C268.13,-59.97 292.96,-57.63 315,-56 623.98,-33.16 998.4,-17.01 1111.83,-12.37"/>
<polygon fill="#63b8ff" stroke="#63b8ff" points="1111.81,-15.87 1121.66,-11.97 1111.53,-8.88 1111.81,-15.87"/>
</a>
</g>
</g>
<!-- Node9&#45;&gt;Node2 -->
<g id="edge11_Node000009_Node000002" class="edge">
<title>Node9&#45;&gt;Node2</title>
<g id="a_edge11_Node000009_Node000002"><a xlink:title=" ">
<path fill="none" stroke="#63b8ff" d="M719.06,-223.6C703.15,-216.49 684.36,-205.01 675,-188 666.56,-172.67 676.34,-154.41 686.76,-141.15"/>
<polygon fill="#63b8ff" stroke="#63b8ff" points="689.35,-143.5 693.22,-133.64 684.04,-138.94 689.35,-143.5"/>
</a>
</g>
</g>
<!-- Node10 -->
<g id="Node000010" class="node">
<title>Node10</title>
<g id="a_Node000010"><a xlink:title=" ">
<polygon fill="#e0e0e0" stroke="#999999" points="590.75,-76 537.25,-76 537.25,-56 590.75,-56 590.75,-76"/>
<text text-anchor="middle" x="564" y="-62.5" font-family="Helvetica,sans-Serif" font-size="10.00">iostream</text>
</a>
</g>
</g>
<!-- Node9&#45;&gt;Node10 -->
<g id="edge10_Node000009_Node000010" class="edge">
<title>Node9&#45;&gt;Node10</title>
<g id="a_edge10_Node000009_Node000010"><a xlink:title=" ">
<path fill="none" stroke="#63b8ff" d="M782.45,-231.55C842.46,-228.32 957.96,-218.24 983,-188 994.47,-174.15 1000.35,-135.08 977,-112 919.43,-55.09 700.53,-87.54 602.14,-75.83"/>
<polygon fill="#63b8ff" stroke="#63b8ff" points="602.93,-72.41 592.53,-74.44 601.93,-79.33 602.93,-72.41"/>
</a>
</g>
</g>
<!-- Node11 -->
<g id="Node000011" class="node">
<title>Node11</title>
<g id="a_Node000011"><a xlink:title=" ">
<polygon fill="#e0e0e0" stroke="#999999" points="1073.5,-188 1030.5,-188 1030.5,-168 1073.5,-168 1073.5,-188"/>
<text text-anchor="middle" x="1052" y="-174.5" font-family="Helvetica,sans-Serif" font-size="10.00">vector</text>
</a>
</g>
</g>
<!-- Node9&#45;&gt;Node11 -->
<g id="edge12_Node000009_Node000011" class="edge">
<title>Node9&#45;&gt;Node11</title>
<g id="a_edge12_Node000009_Node000011"><a xlink:title=" ">
<path fill="none" stroke="#63b8ff" d="M782.42,-227.87C834.45,-220.34 932.95,-205.27 1016,-188 1017.17,-187.76 1018.35,-187.5 1019.55,-187.24"/>
<polygon fill="#63b8ff" stroke="#63b8ff" points="1019.95,-190.74 1028.89,-185.05 1018.35,-183.92 1019.95,-190.74"/>
</a>
</g>
</g>
<!-- Node12 -->
<g id="Node000012" class="node">
<title>Node12</title>
<g id="a_Node000012"><a xlink:href="EntityManager_8hpp.html" target="_top" xlink:title=" ">
<polygon fill="white" stroke="#666666" points="781.88,-188 684.12,-188 684.12,-168 781.88,-168 781.88,-188"/>
<text text-anchor="middle" x="733" y="-174.5" font-family="Helvetica,sans-Serif" font-size="10.00">EntityManager.hpp</text>
</a>
</g>
</g>
<!-- Node9&#45;&gt;Node12 -->
<g id="edge13_Node000009_Node000012" class="edge">
<title>Node9&#45;&gt;Node12</title>
<g id="a_edge13_Node000009_Node000012"><a xlink:title=" ">
<path fill="none" stroke="#63b8ff" d="M743.74,-223.59C742.13,-216.93 739.92,-207.75 737.92,-199.44"/>
<polygon fill="#63b8ff" stroke="#63b8ff" points="741.34,-198.67 735.59,-189.77 734.53,-200.31 741.34,-198.67"/>
</a>
</g>
</g>
<!-- Node15 -->
<g id="Node000015" class="node">
<title>Node15</title>
<g id="a_Node000015"><a xlink:href="ComponentManager_8hpp.html" target="_top" xlink:title=" ">
<polygon fill="white" stroke="#666666" points="552.25,-188 429.75,-188 429.75,-168 552.25,-168 552.25,-188"/>
<text text-anchor="middle" x="491" y="-174.5" font-family="Helvetica,sans-Serif" font-size="10.00">ComponentManager.hpp</text>
</a>
</g>
</g>
<!-- Node9&#45;&gt;Node15 -->
<g id="edge17_Node000009_Node000015" class="edge">
<title>Node9&#45;&gt;Node15</title>
<g id="a_edge17_Node000009_Node000015"><a xlink:title=" ">
<path fill="none" stroke="#63b8ff" d="M709.46,-225.26C666.92,-216.25 596.18,-201.27 546.76,-190.81"/>
<polygon fill="#63b8ff" stroke="#63b8ff" points="547.61,-187.41 537.1,-188.76 546.16,-194.26 547.61,-187.41"/>
</a>
</g>
</g>
<!-- Node20 -->
<g id="Node000020" class="node">
<title>Node20</title>
<g id="a_Node000020"><a xlink:href="SystemManager_8hpp.html" target="_top" xlink:title=" ">
<polygon fill="white" stroke="#666666" points="412,-188 306,-188 306,-168 412,-168 412,-188"/>
<text text-anchor="middle" x="359" y="-174.5" font-family="Helvetica,sans-Serif" font-size="10.00">SystemManager.hpp</text>
</a>
</g>
</g>
<!-- Node9&#45;&gt;Node20 -->
<g id="edge29_Node000009_Node000020" class="edge">
<title>Node9&#45;&gt;Node20</title>
<g id="a_edge29_Node000009_Node000020"><a xlink:title=" ">
<path fill="none" stroke="#63b8ff" d="M709.43,-228.02C651.26,-220.07 533.76,-203.95 423.74,-188.38"/>
<polygon fill="#63b8ff" stroke="#63b8ff" points="424.32,-184.93 413.93,-186.99 423.34,-191.86 424.32,-184.93"/>
</a>
</g>
</g>
<!-- Node21 -->
<g id="Node000021" class="node">
<title>Node21</title>
<g id="a_Node000021"><a xlink:href="EventManager_8hpp.html" target="_top" xlink:title=" ">
<polygon fill="white" stroke="#666666" points="973.88,-188 876.12,-188 876.12,-168 973.88,-168 973.88,-188"/>
<text text-anchor="middle" x="925" y="-174.5" font-family="Helvetica,sans-Serif" font-size="10.00">EventManager.hpp</text>
</a>
</g>
</g>
<!-- Node9&#45;&gt;Node21 -->
<g id="edge35_Node000009_Node000021" class="edge">
<title>Node9&#45;&gt;Node21</title>
<g id="a_edge35_Node000009_Node000021"><a xlink:title=" ">
<path fill="none" stroke="#63b8ff" d="M777.18,-223.59C806.39,-214.78 850.28,-201.54 882.65,-191.78"/>
<polygon fill="#63b8ff" stroke="#63b8ff" points="883.57,-195.16 892.13,-188.92 881.54,-188.45 883.57,-195.16"/>
</a>
</g>
</g>
<!-- Node12&#45;&gt;Node7 -->
<g id="edge16_Node000012_Node000007" class="edge">
<title>Node12&#45;&gt;Node7</title>
<g id="a_edge16_Node000012_Node000007"><a xlink:title=" ">
<path fill="none" stroke="#63b8ff" d="M683.8,-172.39C623.26,-166.11 517.61,-153.15 429,-132 401.66,-125.47 395.8,-120.48 369,-112 332.34,-100.39 290.4,-87.88 260.21,-79"/>
<polygon fill="#63b8ff" stroke="#63b8ff" points="261.28,-75.66 250.7,-76.21 259.31,-82.38 261.28,-75.66"/>
</a>
</g>
</g>
<!-- Node13 -->
<g id="Node000013" class="node">
<title>Node13</title>
<g id="a_Node000013"><a xlink:title=" ">
<polygon fill="#e0e0e0" stroke="#999999" points="790.12,-132 747.88,-132 747.88,-112 790.12,-112 790.12,-132"/>
<text text-anchor="middle" x="769" y="-118.5" font-family="Helvetica,sans-Serif" font-size="10.00">queue</text>
</a>
</g>
</g>
<!-- Node12&#45;&gt;Node13 -->
<g id="edge14_Node000012_Node000013" class="edge">
<title>Node12&#45;&gt;Node13</title>
<g id="a_edge14_Node000012_Node000013"><a xlink:title=" ">
<path fill="none" stroke="#63b8ff" d="M739.27,-167.59C744.02,-160.47 750.7,-150.45 756.52,-141.72"/>
<polygon fill="#63b8ff" stroke="#63b8ff" points="759.33,-143.82 761.96,-133.56 753.5,-139.94 759.33,-143.82"/>
</a>
</g>
</g>
<!-- Node14 -->
<g id="Node000014" class="node">
<title>Node14</title>
<g id="a_Node000014"><a xlink:title=" ">
<polygon fill="#e0e0e0" stroke="#999999" points="845.88,-132 808.12,-132 808.12,-112 845.88,-112 845.88,-132"/>
<text text-anchor="middle" x="827" y="-118.5" font-family="Helvetica,sans-Serif" font-size="10.00">array</text>
</a>
</g>
</g>
<!-- Node12&#45;&gt;Node14 -->
<g id="edge15_Node000012_Node000014" class="edge">
<title>Node12&#45;&gt;Node14</title>
<g id="a_edge15_Node000012_Node000014"><a xlink:title=" ">
<path fill="none" stroke="#63b8ff" d="M749.37,-167.59C763.57,-159.44 784.38,-147.48 800.88,-138"/>
<polygon fill="#63b8ff" stroke="#63b8ff" points="802.26,-141.25 809.19,-133.23 798.77,-135.18 802.26,-141.25"/>
</a>
</g>
</g>
<!-- Node15&#45;&gt;Node2 -->
<g id="edge20_Node000015_Node000002" class="edge">
<title>Node15&#45;&gt;Node2</title>
<g id="a_edge20_Node000015_Node000002"><a xlink:title=" ">
<path fill="none" stroke="#63b8ff" d="M528.1,-167.59C567.07,-157.71 628,-142.27 666.95,-132.39"/>
<polygon fill="#63b8ff" stroke="#63b8ff" points="667.74,-135.8 676.57,-129.95 666.02,-129.02 667.74,-135.8"/>
</a>
</g>
</g>
<!-- Node15&#45;&gt;Node4 -->
<g id="edge18_Node000015_Node000004" class="edge">
<title>Node15&#45;&gt;Node4</title>
<g id="a_edge18_Node000015_Node000004"><a xlink:title=" ">
<path fill="none" stroke="#63b8ff" d="M517.98,-167.64C538.29,-159.86 566.27,-147.57 588,-132 606.54,-118.72 624.13,-99.4 635.81,-85.27"/>
<polygon fill="#63b8ff" stroke="#63b8ff" points="638.4,-87.63 641.94,-77.64 632.95,-83.25 638.4,-87.63"/>
</a>
</g>
</g>
<!-- Node15&#45;&gt;Node7 -->
<g id="edge22_Node000015_Node000007" class="edge">
<title>Node15&#45;&gt;Node7</title>
<g id="a_edge22_Node000015_Node000007"><a xlink:title=" ">
<path fill="none" stroke="#63b8ff" d="M467.81,-167.62C419.63,-148.14 308.56,-103.22 252.56,-80.57"/>
<polygon fill="#63b8ff" stroke="#63b8ff" points="254.12,-77.43 243.54,-76.92 251.49,-83.92 254.12,-77.43"/>
</a>
</g>
</g>
<!-- Node16 -->
<g id="Node000016" class="node">
<title>Node16</title>
<g id="a_Node000016"><a xlink:title=" ">
<polygon fill="#e0e0e0" stroke="#999999" points="268,-132 228,-132 228,-112 268,-112 268,-132"/>
<text text-anchor="middle" x="248" y="-118.5" font-family="Helvetica,sans-Serif" font-size="10.00">string</text>
</a>
</g>
</g>
<!-- Node15&#45;&gt;Node16 -->
<g id="edge19_Node000015_Node000016" class="edge">
<title>Node15&#45;&gt;Node16</title>
<g id="a_edge19_Node000015_Node000016"><a xlink:title=" ">
<path fill="none" stroke="#63b8ff" d="M443.96,-167.53C401.51,-158.82 337.4,-145.29 282,-132 281.18,-131.8 280.34,-131.6 279.5,-131.39"/>
<polygon fill="#63b8ff" stroke="#63b8ff" points="280.48,-128.03 269.92,-128.95 278.75,-134.81 280.48,-128.03"/>
</a>
</g>
</g>
<!-- Node17 -->
<g id="Node000017" class="node">
<title>Node17</title>
<g id="a_Node000017"><a xlink:title=" ">
<polygon fill="#e0e0e0" stroke="#999999" points="382.38,-76 323.62,-76 323.62,-56 382.38,-56 382.38,-76"/>
<text text-anchor="middle" x="353" y="-62.5" font-family="Helvetica,sans-Serif" font-size="10.00">stdexcept</text>
</a>
</g>
</g>
<!-- Node15&#45;&gt;Node17 -->
<g id="edge21_Node000015_Node000017" class="edge">
<title>Node15&#45;&gt;Node17</title>
<g id="a_edge21_Node000015_Node000017"><a xlink:title=" ">
<path fill="none" stroke="#63b8ff" d="M477.47,-167.65C464.75,-158.75 445.29,-144.85 429,-132 408.9,-116.15 386.75,-97.01 371.58,-83.61"/>
<polygon fill="#63b8ff" stroke="#63b8ff" points="374.04,-81.12 364.24,-77.1 369.4,-86.36 374.04,-81.12"/>
</a>
</g>
</g>
<!-- Node18 -->
<g id="Node000018" class="node">
<title>Node18</title>
<g id="a_Node000018"><a xlink:href="ComponentArray_8hpp.html" target="_top" xlink:title=" ">
<polygon fill="white" stroke="#666666" points="545.75,-132 438.25,-132 438.25,-112 545.75,-112 545.75,-132"/>
<text text-anchor="middle" x="492" y="-118.5" font-family="Helvetica,sans-Serif" font-size="10.00">ComponentArray.hpp</text>
</a>
</g>
</g>
<!-- Node15&#45;&gt;Node18 -->
<g id="edge23_Node000015_Node000018" class="edge">
<title>Node15&#45;&gt;Node18</title>
<g id="a_edge23_Node000015_Node000018"><a xlink:title=" ">
<path fill="none" stroke="#63b8ff" d="M491.17,-167.59C491.3,-161.01 491.46,-151.96 491.62,-143.73"/>
<polygon fill="#63b8ff" stroke="#63b8ff" points="495.11,-143.87 491.8,-133.81 488.12,-143.75 495.11,-143.87"/>
</a>
</g>
</g>
<!-- Node18&#45;&gt;Node4 -->
<g id="edge25_Node000018_Node000004" class="edge">
<title>Node18&#45;&gt;Node4</title>
<g id="a_edge25_Node000018_Node000004"><a xlink:title=" ">
<path fill="none" stroke="#63b8ff" d="M519.52,-111.59C544.97,-102.9 583.03,-89.89 611.49,-80.16"/>
<polygon fill="#63b8ff" stroke="#63b8ff" points="612.5,-83.52 620.83,-76.97 610.24,-76.89 612.5,-83.52"/>
</a>
</g>
</g>
<!-- Node18&#45;&gt;Node7 -->
<g id="edge28_Node000018_Node000007" class="edge">
<title>Node18&#45;&gt;Node7</title>
<g id="a_edge28_Node000018_Node000007"><a xlink:title=" ">
<path fill="none" stroke="#63b8ff" d="M444.13,-111.53C392.04,-101.23 309.59,-84.92 260.25,-75.16"/>
<polygon fill="#63b8ff" stroke="#63b8ff" points="261.03,-71.75 250.54,-73.24 259.67,-78.61 261.03,-71.75"/>
</a>
</g>
</g>
<!-- Node18&#45;&gt;Node10 -->
<g id="edge27_Node000018_Node000010" class="edge">
<title>Node18&#45;&gt;Node10</title>
<g id="a_edge27_Node000018_Node000010"><a xlink:title=" ">
<path fill="none" stroke="#63b8ff" d="M504.54,-111.59C514.97,-103.77 530.05,-92.46 542.41,-83.19"/>
<polygon fill="#63b8ff" stroke="#63b8ff" points="544.49,-86.01 550.39,-77.21 540.29,-80.41 544.49,-86.01"/>
</a>
</g>
</g>
<!-- Node18&#45;&gt;Node17 -->
<g id="edge26_Node000018_Node000017" class="edge">
<title>Node18&#45;&gt;Node17</title>
<g id="a_edge26_Node000018_Node000017"><a xlink:title=" ">
<path fill="none" stroke="#63b8ff" d="M467.79,-111.59C445.7,-103.01 412.8,-90.23 387.88,-80.55"/>
<polygon fill="#63b8ff" stroke="#63b8ff" points="389.4,-77.39 378.81,-77.03 386.87,-83.91 389.4,-77.39"/>
</a>
</g>
</g>
<!-- Node19 -->
<g id="Node000019" class="node">
<title>Node19</title>
<g id="a_Node000019"><a xlink:title=" ">
<polygon fill="#e0e0e0" stroke="#999999" points="519,-76 461,-76 461,-56 519,-56 519,-76"/>
<text text-anchor="middle" x="490" y="-62.5" font-family="Helvetica,sans-Serif" font-size="10.00">exception</text>
</a>
</g>
</g>
<!-- Node18&#45;&gt;Node19 -->
<g id="edge24_Node000018_Node000019" class="edge">
<title>Node18&#45;&gt;Node19</title>
<g id="a_edge24_Node000018_Node000019"><a xlink:title=" ">
<path fill="none" stroke="#63b8ff" d="M491.65,-111.59C491.41,-105.01 491.07,-95.96 490.77,-87.73"/>
<polygon fill="#63b8ff" stroke="#63b8ff" points="494.27,-87.67 490.4,-77.81 487.27,-87.93 494.27,-87.67"/>
</a>
</g>
</g>
<!-- Node20&#45;&gt;Node2 -->
<g id="edge32_Node000020_Node000002" class="edge">
<title>Node20&#45;&gt;Node2</title>
<g id="a_edge32_Node000020_Node000002"><a xlink:title=" ">
<path fill="none" stroke="#63b8ff" d="M412.15,-168.68C482.82,-157.62 605.92,-138.35 667.18,-128.76"/>
<polygon fill="#63b8ff" stroke="#63b8ff" points="667.39,-132.27 676.73,-127.27 666.31,-125.36 667.39,-132.27"/>
</a>
</g>
</g>
<!-- Node20&#45;&gt;Node4 -->
<g id="edge30_Node000020_Node000004" class="edge">
<title>Node20&#45;&gt;Node4</title>
<g id="a_edge30_Node000020_Node000004"><a xlink:title=" ">
<path fill="none" stroke="#63b8ff" d="M409.76,-167.58C458.81,-158.08 529.34,-143.24 555,-132 570.14,-125.37 605.36,-100.18 628.4,-83.18"/>
<polygon fill="#63b8ff" stroke="#63b8ff" points="630.28,-86.14 636.22,-77.37 626.11,-80.52 630.28,-86.14"/>
</a>
</g>
</g>
<!-- Node20&#45;&gt;Node5 -->
<g id="edge34_Node000020_Node000005" class="edge">
<title>Node20&#45;&gt;Node5</title>
<g id="a_edge34_Node000020_Node000005"><a xlink:title=" ">
<path fill="none" stroke="#63b8ff" d="M306.93,-167.53C250.51,-157.27 161.38,-141.07 107.62,-131.29"/>
<polygon fill="#63b8ff" stroke="#63b8ff" points="108.34,-127.87 97.87,-129.52 107.09,-134.76 108.34,-127.87"/>
</a>
</g>
</g>
<!-- Node20&#45;&gt;Node16 -->
<g id="edge31_Node000020_Node000016" class="edge">
<title>Node20&#45;&gt;Node16</title>
<g id="a_edge31_Node000020_Node000016"><a xlink:title=" ">
<path fill="none" stroke="#63b8ff" d="M339.67,-167.59C322.58,-159.28 297.4,-147.03 277.75,-137.47"/>
<polygon fill="#63b8ff" stroke="#63b8ff" points="279.37,-134.37 268.85,-133.14 276.31,-140.66 279.37,-134.37"/>
</a>
</g>
</g>
<!-- Node20&#45;&gt;Node17 -->
<g id="edge33_Node000020_Node000017" class="edge">
<title>Node20&#45;&gt;Node17</title>
<g id="a_edge33_Node000020_Node000017"><a xlink:title=" ">
<path fill="none" stroke="#63b8ff" d="M358.49,-167.62C357.53,-150.01 355.43,-111.59 354.13,-87.65"/>
<polygon fill="#63b8ff" stroke="#63b8ff" points="357.63,-87.66 353.59,-77.87 350.64,-88.04 357.63,-87.66"/>
</a>
</g>
</g>
<!-- Node21&#45;&gt;Node22 -->
<g id="edge36_Node000021_Node000022" class="edge">
<title>Node21&#45;&gt;Node22</title>
<g id="a_edge36_Node000021_Node000022"><a xlink:title=" ">
<path fill="none" stroke="#63b8ff" d="M966.2,-167.53C1009.01,-157.7 1075.62,-142.39 1118.52,-132.53"/>
<polygon fill="#63b8ff" stroke="#63b8ff" points="1119.25,-135.95 1128.21,-130.3 1117.69,-129.13 1119.25,-135.95"/>
</a>
</g>
</g>
<!-- Node24 -->
<g id="Node000024" class="node">
<title>Node24</title>
<g id="a_Node000024"><a xlink:title=" ">
<polygon fill="#e0e0e0" stroke="#999999" points="922,-132 864,-132 864,-112 922,-112 922,-132"/>
<text text-anchor="middle" x="893" y="-118.5" font-family="Helvetica,sans-Serif" font-size="10.00">functional</text>
</a>
</g>
</g>
<!-- Node21&#45;&gt;Node24 -->
<g id="edge40_Node000021_Node000024" class="edge">
<title>Node21&#45;&gt;Node24</title>
<g id="a_edge40_Node000021_Node000024"><a xlink:title=" ">
<path fill="none" stroke="#63b8ff" d="M919.43,-167.59C915.25,-160.55 909.4,-150.67 904.26,-142"/>
<polygon fill="#63b8ff" stroke="#63b8ff" points="907.39,-140.42 899.28,-133.6 901.37,-143.99 907.39,-140.42"/>
</a>
</g>
</g>
<!-- Node25 -->
<g id="Node000025" class="node">
<title>Node25</title>
<g id="a_Node000025"><a xlink:title=" ">
<polygon fill="#e0e0e0" stroke="#999999" points="968.4,-132 939.6,-132 939.6,-112 968.4,-112 968.4,-132"/>
<text text-anchor="middle" x="954" y="-118.5" font-family="Helvetica,sans-Serif" font-size="10.00">list</text>
</a>
</g>
</g>
<!-- Node21&#45;&gt;Node25 -->
<g id="edge41_Node000021_Node000025" class="edge">
<title>Node21&#45;&gt;Node25</title>
<g id="a_edge41_Node000021_Node000025"><a xlink:title=" ">
<path fill="none" stroke="#63b8ff" d="M930.05,-167.59C933.79,-160.63 939.02,-150.89 943.64,-142.29"/>
<polygon fill="#63b8ff" stroke="#63b8ff" points="946.64,-144.1 948.29,-133.63 940.48,-140.79 946.64,-144.1"/>
</a>
</g>
</g>
<!-- Node22&#45;&gt;Node4 -->
<g id="edge38_Node000022_Node000004" class="edge">
<title>Node22&#45;&gt;Node4</title>
<g id="a_edge38_Node000022_Node000004"><a xlink:title=" ">
<path fill="none" stroke="#63b8ff" d="M1129.63,-117.63C1114.17,-115.93 1095.09,-113.84 1078,-112 942.94,-97.49 783.85,-80.89 702.98,-72.49"/>
<polygon fill="#63b8ff" stroke="#63b8ff" points="703.44,-69.02 693.13,-71.47 702.71,-75.98 703.44,-69.02"/>
</a>
</g>
</g>
<!-- Node22&#45;&gt;Node8 -->
<g id="edge37_Node000022_Node000008" class="edge">
<title>Node22&#45;&gt;Node8</title>
<g id="a_edge37_Node000022_Node000008"><a xlink:title=" ">
<path fill="none" stroke="#63b8ff" d="M1164.03,-111.64C1168.96,-98.91 1176.05,-75.5 1171,-56 1168.63,-46.84 1163.94,-37.56 1159.26,-29.83"/>
<polygon fill="#63b8ff" stroke="#63b8ff" points="1162.33,-28.12 1153.93,-21.66 1156.47,-31.95 1162.33,-28.12"/>
</a>
</g>
</g>
<!-- Node23 -->
<g id="Node000023" class="node">
<title>Node23</title>
<g id="a_Node000023"><a xlink:title=" ">
<polygon fill="#e0e0e0" stroke="#999999" points="1161.88,-76 1130.12,-76 1130.12,-56 1161.88,-56 1161.88,-76"/>
<text text-anchor="middle" x="1146" y="-62.5" font-family="Helvetica,sans-Serif" font-size="10.00">any</text>
</a>
</g>
</g>
<!-- Node22&#45;&gt;Node23 -->
<g id="edge39_Node000022_Node000023" class="edge">
<title>Node22&#45;&gt;Node23</title>
<g id="a_edge39_Node000022_Node000023"><a xlink:title=" ">
<path fill="none" stroke="#63b8ff" d="M1157.56,-111.59C1155.83,-104.93 1153.45,-95.75 1151.3,-87.44"/>
<polygon fill="#63b8ff" stroke="#63b8ff" points="1154.69,-86.56 1148.79,-77.76 1147.91,-88.32 1154.69,-86.56"/>
</a>
</g>
</g>
<!-- Node26&#45;&gt;Node7 -->
<g id="edge47_Node000026_Node000007" class="edge">
<title>Node26&#45;&gt;Node7</title>
<g id="a_edge47_Node000026_Node000007"><a xlink:title=" ">
<path fill="none" stroke="#63b8ff" d="M465.08,-345.64C372.4,-345.57 190.41,-340.15 143,-300 120.03,-280.55 124,-265.1 124,-235 124,-235 124,-235 124,-177 124,-134.97 164.21,-101.07 192.31,-82.51"/>
<polygon fill="#63b8ff" stroke="#63b8ff" points="194.15,-85.49 200.74,-77.19 190.41,-79.57 194.15,-85.49"/>
</a>
</g>
</g>
<!-- Node26&#45;&gt;Node8 -->
<g id="edge43_Node000026_Node000008" class="edge">
<title>Node26&#45;&gt;Node8</title>
<g id="a_edge43_Node000026_Node000008"><a xlink:title=" ">
<path fill="none" stroke="#63b8ff" d="M574.62,-336.92C701.71,-317.03 1011.83,-261.92 1083,-188 1125.34,-144.02 1097.58,-112.38 1121,-56 1124.68,-47.15 1129.66,-37.82 1134.21,-29.96"/>
<polygon fill="#63b8ff" stroke="#63b8ff" points="1137.06,-32.01 1139.21,-21.64 1131.06,-28.41 1137.06,-32.01"/>
</a>
</g>
</g>
<!-- Node26&#45;&gt;Node9 -->
<g id="edge48_Node000026_Node000009" class="edge">
<title>Node26&#45;&gt;Node9</title>
<g id="a_edge48_Node000026_Node000009"><a xlink:title=" ">
<path fill="none" stroke="#63b8ff" d="M539.27,-335.62C578.88,-316.34 669.67,-272.15 716.65,-249.29"/>
<polygon fill="#63b8ff" stroke="#63b8ff" points="717.96,-252.54 725.42,-245.02 714.9,-246.25 717.96,-252.54"/>
</a>
</g>
</g>
<!-- Node26&#45;&gt;Node14 -->
<g id="edge45_Node000026_Node000014" class="edge">
<title>Node26&#45;&gt;Node14</title>
<g id="a_edge45_Node000026_Node000014"><a xlink:title=" ">
<path fill="none" stroke="#63b8ff" d="M574.89,-339.22C636.17,-329.86 734.18,-305.66 791,-244 816.91,-215.88 824.22,-169.9 826.26,-143.45"/>
<polygon fill="#63b8ff" stroke="#63b8ff" points="829.74,-143.9 826.8,-133.72 822.75,-143.5 829.74,-143.9"/>
</a>
</g>
</g>
<!-- Node27 -->
<g id="Node000027" class="node">
<title>Node27</title>
<g id="a_Node000027"><a xlink:title=" ">
<polygon fill="#e0e0e0" stroke="#999999" points="370.88,-300 291.12,-300 291.12,-280 370.88,-280 370.88,-300"/>
<text text-anchor="middle" x="331" y="-286.5" font-family="Helvetica,sans-Serif" font-size="10.00">boost/asio.hpp</text>
</a>
</g>
</g>
<!-- Node26&#45;&gt;Node27 -->
<g id="edge44_Node000026_Node000027" class="edge">
<title>Node26&#45;&gt;Node27</title>
<g id="a_edge44_Node000026_Node000027"><a xlink:title=" ">
<path fill="none" stroke="#63b8ff" d="M487.08,-335.59C455.97,-326.71 409.08,-313.31 374.82,-303.52"/>
<polygon fill="#63b8ff" stroke="#63b8ff" points="376.21,-300.28 365.63,-300.9 374.29,-307.01 376.21,-300.28"/>
</a>
</g>
</g>
<!-- Node28 -->
<g id="Node000028" class="node">
<title>Node28</title>
<g id="a_Node000028"><a xlink:title=" ">
<polygon fill="#e0e0e0" stroke="#999999" points="431.5,-300 388.5,-300 388.5,-280 431.5,-280 431.5,-300"/>
<text text-anchor="middle" x="410" y="-286.5" font-family="Helvetica,sans-Serif" font-size="10.00">thread</text>
</a>
</g>
</g>
<!-- Node26&#45;&gt;Node28 -->
<g id="edge46_Node000026_Node000028" class="edge">
<title>Node26&#45;&gt;Node28</title>
<g id="a_edge46_Node000026_Node000028"><a xlink:title=" ">
<path fill="none" stroke="#63b8ff" d="M500.84,-335.59C483.91,-327.28 458.95,-315.03 439.48,-305.47"/>
<polygon fill="#63b8ff" stroke="#63b8ff" points="441.19,-302.41 430.67,-301.15 438.1,-308.7 441.19,-302.41"/>
</a>
</g>
</g>
<!-- Node29 -->
<g id="Node000029" class="node">
<title>Node29</title>
<g id="a_Node000029"><a xlink:href="ComponentRegistry_8hpp.html" target="_top" xlink:title=" ">
<polygon fill="white" stroke="#666666" points="273.5,-300 152.5,-300 152.5,-280 273.5,-280 273.5,-300"/>
<text text-anchor="middle" x="213" y="-286.5" font-family="Helvetica,sans-Serif" font-size="10.00">ComponentRegistry.hpp</text>
</a>
</g>
</g>
<!-- Node26&#45;&gt;Node29 -->
<g id="edge49_Node000026_Node000029" class="edge">
<title>Node26&#45;&gt;Node29</title>
<g id="a_edge49_Node000026_Node000029"><a xlink:title=" ">
<path fill="none" stroke="#63b8ff" d="M466.17,-335.53C413.73,-326.31 333.93,-312.27 277.97,-302.43"/>
<polygon fill="#63b8ff" stroke="#63b8ff" points="278.71,-299 268.26,-300.72 277.5,-305.9 278.71,-299"/>
</a>
</g>
</g>
<!-- Node30 -->
<g id="Node000030" class="node">
<title>Node30</title>
<g id="a_Node000030"><a xlink:href="EnemyInfo_8hpp.html" target="_top" xlink:title=" ">
<polygon fill="white" stroke="#666666" points="590.25,-300 449.75,-300 449.75,-280 590.25,-280 590.25,-300"/>
<text text-anchor="middle" x="520" y="-286.5" font-family="Helvetica,sans-Serif" font-size="10.00">Components/EnemyInfo.hpp</text>
</a>
</g>
</g>
<!-- Node26&#45;&gt;Node30 -->
<g id="edge56_Node000026_Node000030" class="edge">
<title>Node26&#45;&gt;Node30</title>
<g id="a_edge56_Node000026_Node000030"><a xlink:title=" ">
<path fill="none" stroke="#63b8ff" d="M520,-335.59C520,-329.01 520,-319.96 520,-311.73"/>
<polygon fill="#63b8ff" stroke="#63b8ff" points="523.5,-311.81 520,-301.81 516.5,-311.81 523.5,-311.81"/>
</a>
</g>
</g>
<!-- Node29&#45;&gt;Node4 -->
<g id="edge51_Node000029_Node000004" class="edge">
<title>Node29&#45;&gt;Node4</title>
<g id="a_edge51_Node000029_Node000004"><a xlink:title=" ">
<path fill="none" stroke="#63b8ff" d="M256.15,-279.52C337.33,-261.19 509.26,-219.9 561,-188 600.62,-163.57 628.26,-114.38 641.36,-86.84"/>
<polygon fill="#63b8ff" stroke="#63b8ff" points="644.49,-88.42 645.45,-77.87 638.12,-85.52 644.49,-88.42"/>
</a>
</g>
</g>
<!-- Node29&#45;&gt;Node7 -->
<g id="edge54_Node000029_Node000007" class="edge">
<title>Node29&#45;&gt;Node7</title>
<g id="a_edge54_Node000029_Node000007"><a xlink:title=" ">
<path fill="none" stroke="#63b8ff" d="M205.34,-279.7C198.76,-271.06 189.75,-257.52 186,-244 170.34,-187.46 167.75,-167.76 186,-112 189.26,-102.05 195.64,-92.48 201.94,-84.75"/>
<polygon fill="#63b8ff" stroke="#63b8ff" points="204.38,-87.27 208.35,-77.45 199.12,-82.65 204.38,-87.27"/>
</a>
</g>
</g>
<!-- Node29&#45;&gt;Node9 -->
<g id="edge55_Node000029_Node000009" class="edge">
<title>Node29&#45;&gt;Node9</title>
<g id="a_edge55_Node000029_Node000009"><a xlink:title=" ">
<path fill="none" stroke="#63b8ff" d="M273.94,-280.94C276.66,-280.61 279.36,-280.3 282,-280 448.81,-261.14 490.94,-260.54 658,-244 671.12,-242.7 685.34,-241.26 698.44,-239.92"/>
<polygon fill="#63b8ff" stroke="#63b8ff" points="698.52,-243.43 708.11,-238.93 697.8,-236.47 698.52,-243.43"/>
</a>
</g>
</g>
<!-- Node29&#45;&gt;Node16 -->
<g id="edge52_Node000029_Node000016" class="edge">
<title>Node29&#45;&gt;Node16</title>
<g id="a_edge52_Node000029_Node000016"><a xlink:title=" ">
<path fill="none" stroke="#63b8ff" d="M214.98,-279.6C220.49,-253.46 236.09,-179.48 243.71,-143.36"/>
<polygon fill="#63b8ff" stroke="#63b8ff" points="247.09,-144.29 245.73,-133.78 240.24,-142.84 247.09,-144.29"/>
</a>
</g>
</g>
<!-- Node29&#45;&gt;Node17 -->
<g id="edge53_Node000029_Node000017" class="edge">
<title>Node29&#45;&gt;Node17</title>
<g id="a_edge53_Node000029_Node000017"><a xlink:title=" ">
<path fill="none" stroke="#63b8ff" d="M210.02,-279.74C201.5,-251.35 180.05,-164.27 219,-112 240.39,-83.3 280.91,-72.69 311.81,-68.88"/>
<polygon fill="#63b8ff" stroke="#63b8ff" points="312.03,-72.38 321.62,-67.88 311.32,-65.41 312.03,-72.38"/>
</a>
</g>
</g>
<!-- Node29&#45;&gt;Node24 -->
<g id="edge50_Node000029_Node000024" class="edge">
<title>Node29&#45;&gt;Node24</title>
<g id="a_edge50_Node000029_Node000024"><a xlink:title=" ">
<path fill="none" stroke="#63b8ff" d="M273.95,-281C276.67,-280.66 279.36,-280.32 282,-280 510.17,-251.96 581.3,-282.19 791,-188 820.66,-174.68 851.76,-153.69 871.7,-139.19"/>
<polygon fill="#63b8ff" stroke="#63b8ff" points="873.62,-142.12 879.58,-133.36 869.46,-136.49 873.62,-142.12"/>
</a>
</g>
</g>
<!-- Node32 -->
<g id="Node000032" class="node">
<title>Node32</title>
<g id="a_Node000032"><a xlink:href="Utils_8hpp.html" target="_top" xlink:title=" ">
<polygon fill="white" stroke="#666666" points="1407.5,-300 1352.5,-300 1352.5,-280 1407.5,-280 1407.5,-300"/>
<text text-anchor="middle" x="1380" y="-286.5" font-family="Helvetica,sans-Serif" font-size="10.00">Utils.hpp</text>
</a>
</g>
</g>
<!-- Node31&#45;&gt;Node32 -->
<g id="edge59_Node000031_Node000032" class="edge">
<title>Node31&#45;&gt;Node32</title>
<g id="a_edge59_Node000031_Node000032"><a xlink:title=" ">
<path fill="none" stroke="#63b8ff" d="M1293.29,-335.59C1309.3,-327.36 1332.83,-315.26 1351.34,-305.74"/>
<polygon fill="#63b8ff" stroke="#63b8ff" points="1352.93,-308.86 1360.22,-301.17 1349.73,-302.63 1352.93,-308.86"/>
</a>
</g>
</g>
<!-- Node32&#45;&gt;Node8 -->
<g id="edge60_Node000032_Node000008" class="edge">
<title>Node32&#45;&gt;Node8</title>
<g id="a_edge60_Node000032_Node000008"><a xlink:title=" ">
<path fill="none" stroke="#63b8ff" d="M1372.25,-279.67C1357.99,-261.52 1329,-219.63 1329,-179 1329,-179 1329,-179 1329,-121 1329,-52.25 1232.94,-25.38 1180.02,-15.79"/>
<polygon fill="#63b8ff" stroke="#63b8ff" points="1180.74,-12.36 1170.3,-14.15 1179.58,-19.27 1180.74,-12.36"/>
</a>
</g>
</g>
<!-- Node33&#45;&gt;Node32 -->
<g id="edge62_Node000033_Node000032" class="edge">
<title>Node33&#45;&gt;Node32</title>
<g id="a_edge62_Node000033_Node000032"><a xlink:title=" ">
<path fill="none" stroke="#63b8ff" d="M1422.12,-335.59C1415.1,-328.16 1405.1,-317.58 1396.61,-308.58"/>
<polygon fill="#63b8ff" stroke="#63b8ff" points="1399.23,-306.27 1389.82,-301.4 1394.14,-311.07 1399.23,-306.27"/>
</a>
</g>
</g>
<!-- Node34&#45;&gt;Node32 -->
<g id="edge64_Node000034_Node000032" class="edge">
<title>Node34&#45;&gt;Node32</title>
<g id="a_edge64_Node000034_Node000032"><a xlink:title=" ">
<path fill="none" stroke="#63b8ff" d="M1550.94,-335.59C1513.99,-325.95 1456.73,-311.02 1418.81,-301.12"/>
<polygon fill="#63b8ff" stroke="#63b8ff" points="1419.73,-297.75 1409.17,-298.61 1417.96,-304.52 1419.73,-297.75"/>
</a>
</g>
</g>
<!-- Node35&#45;&gt;Node11 -->
<g id="edge66_Node000035_Node000011" class="edge">
<title>Node35&#45;&gt;Node11</title>
<g id="a_edge66_Node000035_Node000011"><a xlink:title=" ">
<path fill="none" stroke="#63b8ff" d="M1052.94,-335.6C1052.79,-309.46 1052.34,-235.48 1052.12,-199.36"/>
<polygon fill="#63b8ff" stroke="#63b8ff" points="1055.63,-199.79 1052.07,-189.81 1048.63,-199.83 1055.63,-199.79"/>
</a>
</g>
</g>
<!-- Node35&#45;&gt;Node16 -->
<g id="edge68_Node000035_Node000016" class="edge">
<title>Node35&#45;&gt;Node16</title>
<g id="a_edge68_Node000035_Node000016"><a xlink:title=" ">
<path fill="none" stroke="#63b8ff" d="M993.39,-338.11C836.15,-319.08 414.19,-262.26 297,-188 279.5,-176.91 265.97,-157.2 257.61,-142.38"/>
<polygon fill="#63b8ff" stroke="#63b8ff" points="260.71,-140.77 252.94,-133.57 254.52,-144.04 260.71,-140.77"/>
</a>
</g>
</g>
<!-- Node35&#45;&gt;Node32 -->
<g id="edge69_Node000035_Node000032" class="edge">
<title>Node35&#45;&gt;Node32</title>
<g id="a_edge69_Node000035_Node000032"><a xlink:title=" ">
<path fill="none" stroke="#63b8ff" d="M1110.33,-335.53C1176.65,-324.58 1284.02,-306.85 1341.23,-297.4"/>
<polygon fill="#63b8ff" stroke="#63b8ff" points="1341.51,-300.9 1350.81,-295.82 1340.37,-294 1341.51,-300.9"/>
</a>
</g>
</g>
<!-- Node36 -->
<g id="Node000036" class="node">
<title>Node36</title>
<g id="a_Node000036"><a xlink:title=" ">
<polygon fill="#e0e0e0" stroke="#999999" points="1112.12,-300 1063.88,-300 1063.88,-280 1112.12,-280 1112.12,-300"/>
<text text-anchor="middle" x="1088" y="-286.5" font-family="Helvetica,sans-Serif" font-size="10.00">cstddef</text>
</a>
</g>
</g>
<!-- Node35&#45;&gt;Node36 -->
<g id="edge67_Node000035_Node000036" class="edge">
<title>Node35&#45;&gt;Node36</title>
<g id="a_edge67_Node000035_Node000036"><a xlink:title=" ">
<path fill="none" stroke="#63b8ff" d="M1059.1,-335.59C1063.71,-328.47 1070.21,-318.45 1075.87,-309.72"/>
<polygon fill="#63b8ff" stroke="#63b8ff" points="1078.65,-311.86 1081.15,-301.57 1072.77,-308.06 1078.65,-311.86"/>
</a>
</g>
</g>
<!-- Node37&#45;&gt;Node32 -->
<g id="edge71_Node000037_Node000032" class="edge">
<title>Node37&#45;&gt;Node32</title>
<g id="a_edge71_Node000037_Node000032"><a xlink:title=" ">
<path fill="none" stroke="#63b8ff" d="M1694.2,-335.53C1614.44,-324.23 1483.7,-305.7 1418.91,-296.52"/>
<polygon fill="#63b8ff" stroke="#63b8ff" points="1419.5,-293.06 1409.11,-295.13 1418.52,-299.99 1419.5,-293.06"/>
</a>
</g>
</g>
</g>
</svg>
