<?xml version="1.0" encoding="UTF-8" standalone="no"?>
<!DOCTYPE svg PUBLIC "-//W3C//DTD SVG 1.1//EN"
 "http://www.w3.org/Graphics/SVG/1.1/DTD/svg11.dtd">
<!-- Generated by graphviz version 12.1.0 (20240811.2233)
 -->
<!-- Title: PlayerControl.hpp Pages: 1 -->
<svg width="1931pt" height="420pt"
 viewBox="0.00 0.00 1930.50 420.00" xmlns="http://www.w3.org/2000/svg" xmlns:xlink="http://www.w3.org/1999/xlink">
<g id="graph0" class="graph" transform="scale(1 1) rotate(0) translate(4 416)">
<title>PlayerControl.hpp</title>
<!-- Node1 -->
<g id="Node000001" class="node">
<title>Node1</title>
<g id="a_Node000001"><a xlink:title=" ">
<polygon fill="#999999" stroke="#666666" points="1350,-412 1256,-412 1256,-392 1350,-392 1350,-412"/>
<text text-anchor="middle" x="1303" y="-398.5" font-family="Helvetica,sans-Serif" font-size="10.00">PlayerControl.hpp</text>
</a>
</g>
</g>
<!-- Node2 -->
<g id="Node000002" class="node">
<title>Node2</title>
<g id="a_Node000002"><a xlink:title=" ">
<polygon fill="#e0e0e0" stroke="#999999" points="1163,-132 1105,-132 1105,-112 1163,-112 1163,-132"/>
<text text-anchor="middle" x="1134" y="-118.5" font-family="Helvetica,sans-Serif" font-size="10.00">functional</text>
</a>
</g>
</g>
<!-- Node1&#45;&gt;Node2 -->
<g id="edge1_Node000001_Node000002" class="edge">
<title>Node1&#45;&gt;Node2</title>
<g id="a_edge1_Node000001_Node000002"><a xlink:title=" ">
<path fill="none" stroke="#63b8ff" d="M1297.38,-391.75C1273.32,-352.18 1178.77,-196.64 1145.59,-142.06"/>
<polygon fill="#63b8ff" stroke="#63b8ff" points="1148.62,-140.3 1140.43,-133.58 1142.63,-143.94 1148.62,-140.3"/>
</a>
</g>
</g>
<!-- Node3 -->
<g id="Node000003" class="node">
<title>Node3</title>
<g id="a_Node000003"><a xlink:title=" ">
<polygon fill="#e0e0e0" stroke="#999999" points="453.62,-132 402.38,-132 402.38,-112 453.62,-112 453.62,-132"/>
<text text-anchor="middle" x="428" y="-118.5" font-family="Helvetica,sans-Serif" font-size="10.00">memory</text>
</a>
</g>
</g>
<!-- Node1&#45;&gt;Node3 -->
<g id="edge2_Node000001_Node000003" class="edge">
<title>Node1&#45;&gt;Node3</title>
<g id="a_edge2_Node000001_Node000003"><a xlink:title=" ">
<path fill="none" stroke="#63b8ff" d="M1255.68,-399.28C1139.34,-394.71 841.9,-380.89 746,-356 598.83,-317.81 538.54,-310.14 448,-188 438.31,-174.93 433.26,-157.09 430.66,-143.41"/>
<polygon fill="#63b8ff" stroke="#63b8ff" points="434.15,-143.1 429.13,-133.77 427.24,-144.19 434.15,-143.1"/>
</a>
</g>
</g>
<!-- Node4 -->
<g id="Node000004" class="node">
<title>Node4</title>
<g id="a_Node000004"><a xlink:title=" ">
<polygon fill="#e0e0e0" stroke="#999999" points="78,-20 38,-20 38,0 78,0 78,-20"/>
<text text-anchor="middle" x="58" y="-6.5" font-family="Helvetica,sans-Serif" font-size="10.00">bitset</text>
</a>
</g>
</g>
<!-- Node1&#45;&gt;Node4 -->
<g id="edge3_Node000001_Node000004" class="edge">
<title>Node1&#45;&gt;Node4</title>
<g id="a_edge3_Node000001_Node000004"><a xlink:title=" ">
<path fill="none" stroke="#63b8ff" d="M1255.53,-401.54C1112.3,-402.6 672.11,-401.63 311,-356 170.9,-338.3 0,-432.21 0,-291 0,-291 0,-291 0,-121 0,-85.22 24.31,-49.66 41.46,-29.03"/>
<polygon fill="#63b8ff" stroke="#63b8ff" points="44.03,-31.4 47.95,-21.56 38.75,-26.82 44.03,-31.4"/>
</a>
</g>
</g>
<!-- Node5 -->
<g id="Node000005" class="node">
<title>Node5</title>
<g id="a_Node000005"><a xlink:title=" ">
<polygon fill="#e0e0e0" stroke="#999999" points="900.38,-76 817.62,-76 817.62,-56 900.38,-56 900.38,-76"/>
<text text-anchor="middle" x="859" y="-62.5" font-family="Helvetica,sans-Serif" font-size="10.00">unordered_map</text>
</a>
</g>
</g>
<!-- Node1&#45;&gt;Node5 -->
<g id="edge4_Node000001_Node000005" class="edge">
<title>Node1&#45;&gt;Node5</title>
<g id="a_edge4_Node000001_Node000005"><a xlink:title=" ">
<path fill="none" stroke="#63b8ff" d="M1308.76,-391.54C1322.82,-367.8 1358.7,-303.33 1371,-244 1377.86,-210.93 1385.84,-198.34 1371,-168 1353.19,-131.58 1336.63,-127.09 1299,-112 1229.93,-84.29 1013.22,-72.75 912.03,-68.77"/>
<polygon fill="#63b8ff" stroke="#63b8ff" points="912.21,-65.28 902.08,-68.39 911.94,-72.27 912.21,-65.28"/>
</a>
</g>
</g>
<!-- Node6 -->
<g id="Node000006" class="node">
<title>Node6</title>
<g id="a_Node000006"><a xlink:href="System_8hpp.html" target="_top" xlink:title=" ">
<polygon fill="white" stroke="#666666" points="308.25,-132 239.75,-132 239.75,-112 308.25,-112 308.25,-132"/>
<text text-anchor="middle" x="274" y="-118.5" font-family="Helvetica,sans-Serif" font-size="10.00">System.hpp</text>
</a>
</g>
</g>
<!-- Node1&#45;&gt;Node6 -->
<g id="edge5_Node000001_Node000006" class="edge">
<title>Node1&#45;&gt;Node6</title>
<g id="a_edge5_Node000001_Node000006"><a xlink:title=" ">
<path fill="none" stroke="#63b8ff" d="M1255.74,-399.14C1034.97,-390.16 116,-349.27 116,-291 116,-291 116,-291 116,-233 116,-177.77 181.84,-148.01 228.51,-133.85"/>
<polygon fill="#63b8ff" stroke="#63b8ff" points="229.23,-137.28 237.87,-131.15 227.29,-130.56 229.23,-137.28"/>
</a>
</g>
</g>
<!-- Node10 -->
<g id="Node000010" class="node">
<title>Node10</title>
<g id="a_Node000010"><a xlink:href="Mediator_8hpp.html" target="_top" xlink:title=" ">
<polygon fill="white" stroke="#666666" points="612.12,-244 539.88,-244 539.88,-224 612.12,-224 612.12,-244"/>
<text text-anchor="middle" x="576" y="-230.5" font-family="Helvetica,sans-Serif" font-size="10.00">Mediator.hpp</text>
</a>
</g>
</g>
<!-- Node1&#45;&gt;Node10 -->
<g id="edge10_Node000001_Node000010" class="edge">
<title>Node1&#45;&gt;Node10</title>
<g id="a_edge10_Node000001_Node000010"><a xlink:title=" ">
<path fill="none" stroke="#63b8ff" d="M1255.63,-399.07C1173.16,-395.08 998.15,-383.86 853,-356 764.45,-339 738.19,-341.23 658,-300 633.42,-287.36 609.09,-266.79 593.4,-252.17"/>
<polygon fill="#63b8ff" stroke="#63b8ff" points="595.97,-249.78 586.32,-245.41 591.13,-254.85 595.97,-249.78"/>
</a>
</g>
</g>
<!-- Node23 -->
<g id="Node000023" class="node">
<title>Node23</title>
<g id="a_Node000023"><a xlink:href="Event_8hpp.html" target="_top" xlink:title=" ">
<polygon fill="white" stroke="#666666" points="1423.12,-132 1362.88,-132 1362.88,-112 1423.12,-112 1423.12,-132"/>
<text text-anchor="middle" x="1393" y="-118.5" font-family="Helvetica,sans-Serif" font-size="10.00">Event.hpp</text>
</a>
</g>
</g>
<!-- Node1&#45;&gt;Node23 -->
<g id="edge62_Node000001_Node000023" class="edge">
<title>Node1&#45;&gt;Node23</title>
<g id="a_edge62_Node000001_Node000023"><a xlink:title=" ">
<path fill="none" stroke="#63b8ff" d="M1318.59,-391.63C1330.96,-383.52 1347.95,-370.79 1359,-356 1391.11,-313.03 1394.02,-296.71 1404,-244 1410.29,-210.81 1408.04,-201.54 1404,-168 1403,-159.72 1401.01,-150.77 1398.99,-143.04"/>
<polygon fill="#63b8ff" stroke="#63b8ff" points="1402.42,-142.32 1396.34,-133.65 1395.68,-144.22 1402.42,-142.32"/>
</a>
</g>
</g>
<!-- Node26 -->
<g id="Node000026" class="node">
<title>Node26</title>
<g id="a_Node000026"><a xlink:href="NetworkManager_8hpp.html" target="_top" xlink:title=" ">
<polygon fill="white" stroke="#666666" points="971.5,-356 862.5,-356 862.5,-336 971.5,-336 971.5,-356"/>
<text text-anchor="middle" x="917" y="-342.5" font-family="Helvetica,sans-Serif" font-size="10.00">NetworkManager.hpp</text>
</a>
</g>
</g>
<!-- Node1&#45;&gt;Node26 -->
<g id="edge45_Node000001_Node000026" class="edge">
<title>Node1&#45;&gt;Node26</title>
<g id="a_edge45_Node000001_Node000026"><a xlink:title=" ">
<path fill="none" stroke="#63b8ff" d="M1255.67,-394.38C1187.26,-384.81 1060.49,-367.07 982.95,-356.23"/>
<polygon fill="#63b8ff" stroke="#63b8ff" points="983.77,-352.81 973.38,-354.89 982.8,-359.74 983.77,-352.81"/>
</a>
</g>
</g>
<!-- Node31 -->
<g id="Node000031" class="node">
<title>Node31</title>
<g id="a_Node000031"><a xlink:href="Transform_8hpp.html" target="_top" xlink:title=" ">
<polygon fill="white" stroke="#666666" points="1548.75,-356 1411.25,-356 1411.25,-336 1548.75,-336 1548.75,-356"/>
<text text-anchor="middle" x="1480" y="-342.5" font-family="Helvetica,sans-Serif" font-size="10.00">Components/Transform.hpp</text>
</a>
</g>
</g>
<!-- Node1&#45;&gt;Node31 -->
<g id="edge63_Node000001_Node000031" class="edge">
<title>Node1&#45;&gt;Node31</title>
<g id="a_edge63_Node000001_Node000031"><a xlink:title=" ">
<path fill="none" stroke="#63b8ff" d="M1333.83,-391.59C1362.71,-382.78 1406.11,-369.54 1438.12,-359.78"/>
<polygon fill="#63b8ff" stroke="#63b8ff" points="1438.94,-363.19 1447.48,-356.92 1436.89,-356.49 1438.94,-363.19"/>
</a>
</g>
</g>
<!-- Node34 -->
<g id="Node000034" class="node">
<title>Node34</title>
<g id="a_Node000034"><a xlink:href="RigidBody_8hpp.html" target="_top" xlink:title=" ">
<polygon fill="white" stroke="#666666" points="1704.75,-356 1567.25,-356 1567.25,-336 1704.75,-336 1704.75,-356"/>
<text text-anchor="middle" x="1636" y="-342.5" font-family="Helvetica,sans-Serif" font-size="10.00">Components/RigidBody.hpp</text>
</a>
</g>
</g>
<!-- Node1&#45;&gt;Node34 -->
<g id="edge69_Node000001_Node000034" class="edge">
<title>Node1&#45;&gt;Node34</title>
<g id="a_edge69_Node000001_Node000034"><a xlink:title=" ">
<path fill="none" stroke="#63b8ff" d="M1350.36,-393.32C1406.76,-384.17 1501.48,-368.81 1566.27,-358.31"/>
<polygon fill="#63b8ff" stroke="#63b8ff" points="1566.79,-361.77 1576.1,-356.71 1565.67,-354.86 1566.79,-361.77"/>
</a>
</g>
</g>
<!-- Node35 -->
<g id="Node000035" class="node">
<title>Node35</title>
<g id="a_Node000035"><a xlink:href="PlayerInfo_8hpp.html" target="_top" xlink:title=" ">
<polygon fill="white" stroke="#666666" points="1860.75,-356 1723.25,-356 1723.25,-336 1860.75,-336 1860.75,-356"/>
<text text-anchor="middle" x="1792" y="-342.5" font-family="Helvetica,sans-Serif" font-size="10.00">Components/PlayerInfo.hpp</text>
</a>
</g>
</g>
<!-- Node1&#45;&gt;Node35 -->
<g id="edge71_Node000001_Node000035" class="edge">
<title>Node1&#45;&gt;Node35</title>
<g id="a_edge71_Node000001_Node000035"><a xlink:title=" ">
<path fill="none" stroke="#63b8ff" d="M1350.47,-395.89C1424.99,-387.86 1574.25,-371.68 1711.94,-356.23"/>
<polygon fill="#63b8ff" stroke="#63b8ff" points="1712.05,-359.74 1721.59,-355.14 1711.27,-352.78 1712.05,-359.74"/>
</a>
</g>
</g>
<!-- Node36 -->
<g id="Node000036" class="node">
<title>Node36</title>
<g id="a_Node000036"><a xlink:href="Sprite_8hpp.html" target="_top" xlink:title=" ">
<polygon fill="white" stroke="#666666" points="1362.38,-244 1243.62,-244 1243.62,-224 1362.38,-224 1362.38,-244"/>
<text text-anchor="middle" x="1303" y="-230.5" font-family="Helvetica,sans-Serif" font-size="10.00">Components/Sprite.hpp</text>
</a>
</g>
</g>
<!-- Node1&#45;&gt;Node36 -->
<g id="edge73_Node000001_Node000036" class="edge">
<title>Node1&#45;&gt;Node36</title>
<g id="a_edge73_Node000001_Node000036"><a xlink:title=" ">
<path fill="none" stroke="#63b8ff" d="M1303,-391.6C1303,-365.46 1303,-291.48 1303,-255.36"/>
<polygon fill="#63b8ff" stroke="#63b8ff" points="1306.5,-255.81 1303,-245.81 1299.5,-255.81 1306.5,-255.81"/>
</a>
</g>
</g>
<!-- Node38 -->
<g id="Node000038" class="node">
<title>Node38</title>
<g id="a_Node000038"><a xlink:href="ShootingCooldown_8hpp.html" target="_top" xlink:title=" ">
<polygon fill="white" stroke="#666666" points="1922.5,-244 1747.5,-244 1747.5,-224 1922.5,-224 1922.5,-244"/>
<text text-anchor="middle" x="1835" y="-230.5" font-family="Helvetica,sans-Serif" font-size="10.00">Components/ShootingCooldown.hpp</text>
</a>
</g>
</g>
<!-- Node1&#45;&gt;Node38 -->
<g id="edge79_Node000001_Node000038" class="edge">
<title>Node1&#45;&gt;Node38</title>
<g id="a_edge79_Node000001_Node000038"><a xlink:title=" ">
<path fill="none" stroke="#63b8ff" d="M1350.24,-400.84C1480.08,-399.9 1835.03,-393.85 1870,-356 1896.59,-327.21 1868.8,-279.43 1849.74,-253.36"/>
<polygon fill="#63b8ff" stroke="#63b8ff" points="1852.52,-251.24 1843.67,-245.42 1846.96,-255.49 1852.52,-251.24"/>
</a>
</g>
</g>
<!-- Node7 -->
<g id="Node000007" class="node">
<title>Node7</title>
<g id="a_Node000007"><a xlink:title=" ">
<polygon fill="#e0e0e0" stroke="#999999" points="288.75,-76 259.25,-76 259.25,-56 288.75,-56 288.75,-76"/>
<text text-anchor="middle" x="274" y="-62.5" font-family="Helvetica,sans-Serif" font-size="10.00">set</text>
</a>
</g>
</g>
<!-- Node6&#45;&gt;Node7 -->
<g id="edge6_Node000006_Node000007" class="edge">
<title>Node6&#45;&gt;Node7</title>
<g id="a_edge6_Node000006_Node000007"><a xlink:title=" ">
<path fill="none" stroke="#63b8ff" d="M274,-111.59C274,-105.01 274,-95.96 274,-87.73"/>
<polygon fill="#63b8ff" stroke="#63b8ff" points="277.5,-87.81 274,-77.81 270.5,-87.81 277.5,-87.81"/>
</a>
</g>
</g>
<!-- Node8 -->
<g id="Node000008" class="node">
<title>Node8</title>
<g id="a_Node000008"><a xlink:href="Entity_8hpp.html" target="_top" xlink:title=" ">
<polygon fill="white" stroke="#666666" points="192.75,-76 133.25,-76 133.25,-56 192.75,-56 192.75,-76"/>
<text text-anchor="middle" x="163" y="-62.5" font-family="Helvetica,sans-Serif" font-size="10.00">Entity.hpp</text>
</a>
</g>
</g>
<!-- Node6&#45;&gt;Node8 -->
<g id="edge7_Node000006_Node000008" class="edge">
<title>Node6&#45;&gt;Node8</title>
<g id="a_edge7_Node000006_Node000008"><a xlink:title=" ">
<path fill="none" stroke="#63b8ff" d="M254.67,-111.59C237.58,-103.28 212.4,-91.03 192.75,-81.47"/>
<polygon fill="#63b8ff" stroke="#63b8ff" points="194.37,-78.37 183.85,-77.14 191.31,-84.66 194.37,-78.37"/>
</a>
</g>
</g>
<!-- Node8&#45;&gt;Node4 -->
<g id="edge9_Node000008_Node000004" class="edge">
<title>Node8&#45;&gt;Node4</title>
<g id="a_edge9_Node000008_Node000004"><a xlink:title=" ">
<path fill="none" stroke="#63b8ff" d="M144.71,-55.59C128.7,-47.36 105.17,-35.26 86.66,-25.74"/>
<polygon fill="#63b8ff" stroke="#63b8ff" points="88.27,-22.63 77.78,-21.17 85.07,-28.86 88.27,-22.63"/>
</a>
</g>
</g>
<!-- Node9 -->
<g id="Node000009" class="node">
<title>Node9</title>
<g id="a_Node000009"><a xlink:title=" ">
<polygon fill="#e0e0e0" stroke="#999999" points="886.62,-20 841.38,-20 841.38,0 886.62,0 886.62,-20"/>
<text text-anchor="middle" x="864" y="-6.5" font-family="Helvetica,sans-Serif" font-size="10.00">cstdint</text>
</a>
</g>
</g>
<!-- Node8&#45;&gt;Node9 -->
<g id="edge8_Node000008_Node000009" class="edge">
<title>Node8&#45;&gt;Node9</title>
<g id="a_edge8_Node000008_Node000009"><a xlink:title=" ">
<path fill="none" stroke="#63b8ff" d="M193.18,-61.65C209.91,-59.86 231.09,-57.67 250,-56 470.82,-36.49 736.86,-19.06 829.9,-13.14"/>
<polygon fill="#63b8ff" stroke="#63b8ff" points="829.85,-16.65 839.61,-12.52 829.41,-9.66 829.85,-16.65"/>
</a>
</g>
</g>
<!-- Node10&#45;&gt;Node3 -->
<g id="edge12_Node000010_Node000003" class="edge">
<title>Node10&#45;&gt;Node3</title>
<g id="a_edge12_Node000010_Node000003"><a xlink:title=" ">
<path fill="none" stroke="#63b8ff" d="M539.54,-223.74C517.32,-216.71 489.37,-205.26 469,-188 454.38,-175.61 443.26,-156.67 436.32,-142.42"/>
<polygon fill="#63b8ff" stroke="#63b8ff" points="439.62,-141.23 432.28,-133.59 433.26,-144.14 439.62,-141.23"/>
</a>
</g>
</g>
<!-- Node11 -->
<g id="Node000011" class="node">
<title>Node11</title>
<g id="a_Node000011"><a xlink:title=" ">
<polygon fill="#e0e0e0" stroke="#999999" points="447.75,-76 394.25,-76 394.25,-56 447.75,-56 447.75,-76"/>
<text text-anchor="middle" x="421" y="-62.5" font-family="Helvetica,sans-Serif" font-size="10.00">iostream</text>
</a>
</g>
</g>
<!-- Node10&#45;&gt;Node11 -->
<g id="edge11_Node000010_Node000011" class="edge">
<title>Node10&#45;&gt;Node11</title>
<g id="a_edge11_Node000010_Node000011"><a xlink:title=" ">
<path fill="none" stroke="#63b8ff" d="M539.45,-226.63C493.29,-216.25 416.97,-190.61 393,-132 386.48,-116.05 395.51,-98.07 405,-85.07"/>
<polygon fill="#63b8ff" stroke="#63b8ff" points="407.63,-87.38 411.16,-77.39 402.17,-83 407.63,-87.38"/>
</a>
</g>
</g>
<!-- Node12 -->
<g id="Node000012" class="node">
<title>Node12</title>
<g id="a_Node000012"><a xlink:title=" ">
<polygon fill="#e0e0e0" stroke="#999999" points="792.5,-132 749.5,-132 749.5,-112 792.5,-112 792.5,-132"/>
<text text-anchor="middle" x="771" y="-118.5" font-family="Helvetica,sans-Serif" font-size="10.00">vector</text>
</a>
</g>
</g>
<!-- Node10&#45;&gt;Node12 -->
<g id="edge13_Node000010_Node000012" class="edge">
<title>Node10&#45;&gt;Node12</title>
<g id="a_edge13_Node000010_Node000012"><a xlink:title=" ">
<path fill="none" stroke="#63b8ff" d="M612.51,-230.27C646.76,-226.05 697.84,-215.31 733,-188 747.82,-176.48 757.98,-157.43 764.03,-142.93"/>
<polygon fill="#63b8ff" stroke="#63b8ff" points="767.18,-144.5 767.48,-133.91 760.64,-142 767.18,-144.5"/>
</a>
</g>
</g>
<!-- Node13 -->
<g id="Node000013" class="node">
<title>Node13</title>
<g id="a_Node000013"><a xlink:href="EntityManager_8hpp.html" target="_top" xlink:title=" ">
<polygon fill="white" stroke="#666666" points="345.88,-188 248.12,-188 248.12,-168 345.88,-168 345.88,-188"/>
<text text-anchor="middle" x="297" y="-174.5" font-family="Helvetica,sans-Serif" font-size="10.00">EntityManager.hpp</text>
</a>
</g>
</g>
<!-- Node10&#45;&gt;Node13 -->
<g id="edge14_Node000010_Node000013" class="edge">
<title>Node10&#45;&gt;Node13</title>
<g id="a_edge14_Node000010_Node000013"><a xlink:title=" ">
<path fill="none" stroke="#63b8ff" d="M539.53,-225.94C493.09,-216.95 412.26,-201.31 356.77,-190.57"/>
<polygon fill="#63b8ff" stroke="#63b8ff" points="357.65,-187.17 347.16,-188.71 356.32,-194.05 357.65,-187.17"/>
</a>
</g>
</g>
<!-- Node16 -->
<g id="Node000016" class="node">
<title>Node16</title>
<g id="a_Node000016"><a xlink:href="ComponentManager_8hpp.html" target="_top" xlink:title=" ">
<polygon fill="white" stroke="#666666" points="600.25,-188 477.75,-188 477.75,-168 600.25,-168 600.25,-188"/>
<text text-anchor="middle" x="539" y="-174.5" font-family="Helvetica,sans-Serif" font-size="10.00">ComponentManager.hpp</text>
</a>
</g>
</g>
<!-- Node10&#45;&gt;Node16 -->
<g id="edge18_Node000010_Node000016" class="edge">
<title>Node10&#45;&gt;Node16</title>
<g id="a_edge18_Node000010_Node000016"><a xlink:title=" ">
<path fill="none" stroke="#63b8ff" d="M569.56,-223.59C564.67,-216.47 557.81,-206.45 551.82,-197.72"/>
<polygon fill="#63b8ff" stroke="#63b8ff" points="554.77,-195.82 546.23,-189.55 548.99,-199.77 554.77,-195.82"/>
</a>
</g>
</g>
<!-- Node21 -->
<g id="Node000021" class="node">
<title>Node21</title>
<g id="a_Node000021"><a xlink:href="SystemManager_8hpp.html" target="_top" xlink:title=" ">
<polygon fill="white" stroke="#666666" points="724,-188 618,-188 618,-168 724,-168 724,-188"/>
<text text-anchor="middle" x="671" y="-174.5" font-family="Helvetica,sans-Serif" font-size="10.00">SystemManager.hpp</text>
</a>
</g>
</g>
<!-- Node10&#45;&gt;Node21 -->
<g id="edge31_Node000010_Node000021" class="edge">
<title>Node10&#45;&gt;Node21</title>
<g id="a_edge31_Node000010_Node000021"><a xlink:title=" ">
<path fill="none" stroke="#63b8ff" d="M592.55,-223.59C606.9,-215.44 627.93,-203.48 644.6,-194"/>
<polygon fill="#63b8ff" stroke="#63b8ff" points="646.04,-197.21 653.01,-189.23 642.58,-191.13 646.04,-197.21"/>
</a>
</g>
</g>
<!-- Node22 -->
<g id="Node000022" class="node">
<title>Node22</title>
<g id="a_Node000022"><a xlink:href="EventManager_8hpp.html" target="_top" xlink:title=" ">
<polygon fill="white" stroke="#666666" points="1105.88,-188 1008.12,-188 1008.12,-168 1105.88,-168 1105.88,-188"/>
<text text-anchor="middle" x="1057" y="-174.5" font-family="Helvetica,sans-Serif" font-size="10.00">EventManager.hpp</text>
</a>
</g>
</g>
<!-- Node10&#45;&gt;Node22 -->
<g id="edge38_Node000010_Node000022" class="edge">
<title>Node10&#45;&gt;Node22</title>
<g id="a_edge38_Node000010_Node000022"><a xlink:title=" ">
<path fill="none" stroke="#63b8ff" d="M612.55,-228.9C694.88,-219.65 895.53,-197.13 996.65,-185.78"/>
<polygon fill="#63b8ff" stroke="#63b8ff" points="996.83,-189.28 1006.38,-184.68 996.05,-182.32 996.83,-189.28"/>
</a>
</g>
</g>
<!-- Node13&#45;&gt;Node8 -->
<g id="edge17_Node000013_Node000008" class="edge">
<title>Node13&#45;&gt;Node8</title>
<g id="a_edge17_Node000013_Node000008"><a xlink:title=" ">
<path fill="none" stroke="#63b8ff" d="M247.87,-170.15C204.81,-163.02 146.96,-150.31 133,-132 121.87,-117.41 133.56,-98.02 145.45,-84.23"/>
<polygon fill="#63b8ff" stroke="#63b8ff" points="147.76,-86.89 152.02,-77.19 142.64,-82.11 147.76,-86.89"/>
</a>
</g>
</g>
<!-- Node14 -->
<g id="Node000014" class="node">
<title>Node14</title>
<g id="a_Node000014"><a xlink:title=" ">
<polygon fill="#e0e0e0" stroke="#999999" points="184.12,-132 141.88,-132 141.88,-112 184.12,-112 184.12,-132"/>
<text text-anchor="middle" x="163" y="-118.5" font-family="Helvetica,sans-Serif" font-size="10.00">queue</text>
</a>
</g>
</g>
<!-- Node13&#45;&gt;Node14 -->
<g id="edge15_Node000013_Node000014" class="edge">
<title>Node13&#45;&gt;Node14</title>
<g id="a_edge15_Node000013_Node000014"><a xlink:title=" ">
<path fill="none" stroke="#63b8ff" d="M273.66,-167.59C251.81,-158.79 218.99,-145.56 194.76,-135.8"/>
<polygon fill="#63b8ff" stroke="#63b8ff" points="196.29,-132.64 185.71,-132.15 193.68,-139.14 196.29,-132.64"/>
</a>
</g>
</g>
<!-- Node15 -->
<g id="Node000015" class="node">
<title>Node15</title>
<g id="a_Node000015"><a xlink:title=" ">
<polygon fill="#e0e0e0" stroke="#999999" points="1289.88,-132 1252.12,-132 1252.12,-112 1289.88,-112 1289.88,-132"/>
<text text-anchor="middle" x="1271" y="-118.5" font-family="Helvetica,sans-Serif" font-size="10.00">array</text>
</a>
</g>
</g>
<!-- Node13&#45;&gt;Node15 -->
<g id="edge16_Node000013_Node000015" class="edge">
<title>Node13&#45;&gt;Node15</title>
<g id="a_edge16_Node000013_Node000015"><a xlink:title=" ">
<path fill="none" stroke="#63b8ff" d="M346.3,-174.41C380.69,-172.6 427.64,-170.14 469,-168 781.44,-151.83 859.93,-154.17 1172,-132 1194.95,-130.37 1220.85,-128 1240.4,-126.1"/>
<polygon fill="#63b8ff" stroke="#63b8ff" points="1240.55,-129.6 1250.16,-125.13 1239.87,-122.63 1240.55,-129.6"/>
</a>
</g>
</g>
<!-- Node16&#45;&gt;Node3 -->
<g id="edge21_Node000016_Node000003" class="edge">
<title>Node16&#45;&gt;Node3</title>
<g id="a_edge21_Node000016_Node000003"><a xlink:title=" ">
<path fill="none" stroke="#63b8ff" d="M519.67,-167.59C502.58,-159.28 477.4,-147.03 457.75,-137.47"/>
<polygon fill="#63b8ff" stroke="#63b8ff" points="459.37,-134.37 448.85,-133.14 456.31,-140.66 459.37,-134.37"/>
</a>
</g>
</g>
<!-- Node16&#45;&gt;Node5 -->
<g id="edge19_Node000016_Node000005" class="edge">
<title>Node16&#45;&gt;Node5</title>
<g id="a_edge19_Node000016_Node000005"><a xlink:title=" ">
<path fill="none" stroke="#63b8ff" d="M562.47,-167.57C595.42,-154.45 657.36,-130.27 711,-112 745.6,-100.22 785.25,-88.24 814.79,-79.61"/>
<polygon fill="#63b8ff" stroke="#63b8ff" points="815.51,-83.05 824.13,-76.9 813.56,-76.33 815.51,-83.05"/>
</a>
</g>
</g>
<!-- Node16&#45;&gt;Node8 -->
<g id="edge24_Node000016_Node000008" class="edge">
<title>Node16&#45;&gt;Node8</title>
<g id="a_edge24_Node000016_Node000008"><a xlink:title=" ">
<path fill="none" stroke="#63b8ff" d="M477.45,-172.45C400.36,-166 273.25,-152.62 231,-132 208.85,-121.19 189.18,-100.53 176.76,-85.4"/>
<polygon fill="#63b8ff" stroke="#63b8ff" points="179.57,-83.3 170.64,-77.6 174.06,-87.62 179.57,-83.3"/>
</a>
</g>
</g>
<!-- Node16&#45;&gt;Node12 -->
<g id="edge23_Node000016_Node000012" class="edge">
<title>Node16&#45;&gt;Node12</title>
<g id="a_edge23_Node000016_Node000012"><a xlink:title=" ">
<path fill="none" stroke="#63b8ff" d="M579.68,-167.53C624.72,-157.05 696.46,-140.35 738.1,-130.66"/>
<polygon fill="#63b8ff" stroke="#63b8ff" points="738.83,-134.08 747.78,-128.4 737.25,-127.26 738.83,-134.08"/>
</a>
</g>
</g>
<!-- Node17 -->
<g id="Node000017" class="node">
<title>Node17</title>
<g id="a_Node000017"><a xlink:title=" ">
<polygon fill="#e0e0e0" stroke="#999999" points="927,-132 887,-132 887,-112 927,-112 927,-132"/>
<text text-anchor="middle" x="907" y="-118.5" font-family="Helvetica,sans-Serif" font-size="10.00">string</text>
</a>
</g>
</g>
<!-- Node16&#45;&gt;Node17 -->
<g id="edge20_Node000016_Node000017" class="edge">
<title>Node16&#45;&gt;Node17</title>
<g id="a_edge20_Node000016_Node000017"><a xlink:title=" ">
<path fill="none" stroke="#63b8ff" d="M600.59,-167.96C679.82,-156.34 814.45,-136.58 875.38,-127.64"/>
<polygon fill="#63b8ff" stroke="#63b8ff" points="875.66,-131.14 885.04,-126.22 874.64,-124.21 875.66,-131.14"/>
</a>
</g>
</g>
<!-- Node18 -->
<g id="Node000018" class="node">
<title>Node18</title>
<g id="a_Node000018"><a xlink:title=" ">
<polygon fill="#e0e0e0" stroke="#999999" points="674.38,-76 615.62,-76 615.62,-56 674.38,-56 674.38,-76"/>
<text text-anchor="middle" x="645" y="-62.5" font-family="Helvetica,sans-Serif" font-size="10.00">stdexcept</text>
</a>
</g>
</g>
<!-- Node16&#45;&gt;Node18 -->
<g id="edge22_Node000016_Node000018" class="edge">
<title>Node16&#45;&gt;Node18</title>
<g id="a_edge22_Node000016_Node000018"><a xlink:title=" ">
<path fill="none" stroke="#63b8ff" d="M549.82,-167.66C559.97,-158.78 575.41,-144.89 588,-132 603.03,-116.63 619.08,-98.11 630.31,-84.78"/>
<polygon fill="#63b8ff" stroke="#63b8ff" points="632.86,-87.19 636.58,-77.27 627.48,-82.7 632.86,-87.19"/>
</a>
</g>
</g>
<!-- Node19 -->
<g id="Node000019" class="node">
<title>Node19</title>
<g id="a_Node000019"><a xlink:href="ComponentArray_8hpp.html" target="_top" xlink:title=" ">
<polygon fill="white" stroke="#666666" points="578.75,-132 471.25,-132 471.25,-112 578.75,-112 578.75,-132"/>
<text text-anchor="middle" x="525" y="-118.5" font-family="Helvetica,sans-Serif" font-size="10.00">ComponentArray.hpp</text>
</a>
</g>
</g>
<!-- Node16&#45;&gt;Node19 -->
<g id="edge25_Node000016_Node000019" class="edge">
<title>Node16&#45;&gt;Node19</title>
<g id="a_edge25_Node000016_Node000019"><a xlink:title=" ">
<path fill="none" stroke="#63b8ff" d="M536.56,-167.59C534.83,-160.93 532.45,-151.75 530.3,-143.44"/>
<polygon fill="#63b8ff" stroke="#63b8ff" points="533.69,-142.56 527.79,-133.76 526.91,-144.32 533.69,-142.56"/>
</a>
</g>
</g>
<!-- Node19&#45;&gt;Node5 -->
<g id="edge27_Node000019_Node000005" class="edge">
<title>Node19&#45;&gt;Node5</title>
<g id="a_edge27_Node000019_Node000005"><a xlink:title=" ">
<path fill="none" stroke="#63b8ff" d="M579.03,-112.26C641.61,-102.15 744.01,-85.59 806.1,-75.55"/>
<polygon fill="#63b8ff" stroke="#63b8ff" points="806.39,-79.05 815.71,-74 805.28,-72.14 806.39,-79.05"/>
</a>
</g>
</g>
<!-- Node19&#45;&gt;Node8 -->
<g id="edge30_Node000019_Node000008" class="edge">
<title>Node19&#45;&gt;Node8</title>
<g id="a_edge30_Node000019_Node000008"><a xlink:title=" ">
<path fill="none" stroke="#63b8ff" d="M470.8,-112.92C397.87,-102.04 269.72,-82.92 204.16,-73.14"/>
<polygon fill="#63b8ff" stroke="#63b8ff" points="204.96,-69.72 194.55,-71.71 203.93,-76.64 204.96,-69.72"/>
</a>
</g>
</g>
<!-- Node19&#45;&gt;Node11 -->
<g id="edge29_Node000019_Node000011" class="edge">
<title>Node19&#45;&gt;Node11</title>
<g id="a_edge29_Node000019_Node000011"><a xlink:title=" ">
<path fill="none" stroke="#63b8ff" d="M506.88,-111.59C491.03,-103.36 467.72,-91.26 449.38,-81.74"/>
<polygon fill="#63b8ff" stroke="#63b8ff" points="451.09,-78.68 440.6,-77.18 447.86,-84.89 451.09,-78.68"/>
</a>
</g>
</g>
<!-- Node19&#45;&gt;Node18 -->
<g id="edge28_Node000019_Node000018" class="edge">
<title>Node19&#45;&gt;Node18</title>
<g id="a_edge28_Node000019_Node000018"><a xlink:title=" ">
<path fill="none" stroke="#63b8ff" d="M545.9,-111.59C564.63,-103.17 592.36,-90.69 613.72,-81.07"/>
<polygon fill="#63b8ff" stroke="#63b8ff" points="614.87,-84.4 622.55,-77.1 612,-78.01 614.87,-84.4"/>
</a>
</g>
</g>
<!-- Node20 -->
<g id="Node000020" class="node">
<title>Node20</title>
<g id="a_Node000020"><a xlink:title=" ">
<polygon fill="#e0e0e0" stroke="#999999" points="554,-76 496,-76 496,-56 554,-56 554,-76"/>
<text text-anchor="middle" x="525" y="-62.5" font-family="Helvetica,sans-Serif" font-size="10.00">exception</text>
</a>
</g>
</g>
<!-- Node19&#45;&gt;Node20 -->
<g id="edge26_Node000019_Node000020" class="edge">
<title>Node19&#45;&gt;Node20</title>
<g id="a_edge26_Node000019_Node000020"><a xlink:title=" ">
<path fill="none" stroke="#63b8ff" d="M525,-111.59C525,-105.01 525,-95.96 525,-87.73"/>
<polygon fill="#63b8ff" stroke="#63b8ff" points="528.5,-87.81 525,-77.81 521.5,-87.81 528.5,-87.81"/>
</a>
</g>
</g>
<!-- Node21&#45;&gt;Node3 -->
<g id="edge35_Node000021_Node000003" class="edge">
<title>Node21&#45;&gt;Node3</title>
<g id="a_edge35_Node000021_Node000003"><a xlink:title=" ">
<path fill="none" stroke="#63b8ff" d="M623.96,-167.53C583.99,-159.33 524.84,-146.86 465.11,-132.67"/>
<polygon fill="#63b8ff" stroke="#63b8ff" points="465.97,-129.28 455.43,-130.36 464.34,-136.09 465.97,-129.28"/>
</a>
</g>
</g>
<!-- Node21&#45;&gt;Node5 -->
<g id="edge32_Node000021_Node000005" class="edge">
<title>Node21&#45;&gt;Node5</title>
<g id="a_edge32_Node000021_Node000005"><a xlink:title=" ">
<path fill="none" stroke="#63b8ff" d="M678.6,-167.83C690.44,-154.03 714.6,-127.87 740,-112 762.29,-98.07 789.58,-87.36 812.4,-79.9"/>
<polygon fill="#63b8ff" stroke="#63b8ff" points="813.27,-83.29 821.76,-76.95 811.17,-76.62 813.27,-83.29"/>
</a>
</g>
</g>
<!-- Node21&#45;&gt;Node6 -->
<g id="edge37_Node000021_Node000006" class="edge">
<title>Node21&#45;&gt;Node6</title>
<g id="a_edge37_Node000021_Node000006"><a xlink:title=" ">
<path fill="none" stroke="#63b8ff" d="M617.57,-169.21C614.67,-168.8 611.8,-168.39 609,-168 505.87,-153.59 384.75,-137.53 320.13,-129.04"/>
<polygon fill="#63b8ff" stroke="#63b8ff" points="320.61,-125.57 310.24,-127.74 319.7,-132.51 320.61,-125.57"/>
</a>
</g>
</g>
<!-- Node21&#45;&gt;Node12 -->
<g id="edge34_Node000021_Node000012" class="edge">
<title>Node21&#45;&gt;Node12</title>
<g id="a_edge34_Node000021_Node000012"><a xlink:title=" ">
<path fill="none" stroke="#63b8ff" d="M688.42,-167.59C703.67,-159.36 726.08,-147.26 743.71,-137.74"/>
<polygon fill="#63b8ff" stroke="#63b8ff" points="744.98,-141.03 752.11,-133.2 741.65,-134.87 744.98,-141.03"/>
</a>
</g>
</g>
<!-- Node21&#45;&gt;Node17 -->
<g id="edge33_Node000021_Node000017" class="edge">
<title>Node21&#45;&gt;Node17</title>
<g id="a_edge33_Node000021_Node000017"><a xlink:title=" ">
<path fill="none" stroke="#63b8ff" d="M712.38,-167.53C758.92,-156.88 833.48,-139.82 875.52,-130.2"/>
<polygon fill="#63b8ff" stroke="#63b8ff" points="876.27,-133.62 885.24,-127.98 874.71,-126.8 876.27,-133.62"/>
</a>
</g>
</g>
<!-- Node21&#45;&gt;Node18 -->
<g id="edge36_Node000021_Node000018" class="edge">
<title>Node21&#45;&gt;Node18</title>
<g id="a_edge36_Node000021_Node000018"><a xlink:title=" ">
<path fill="none" stroke="#63b8ff" d="M668.78,-167.62C664.6,-149.92 655.46,-111.24 649.8,-87.32"/>
<polygon fill="#63b8ff" stroke="#63b8ff" points="653.27,-86.75 647.56,-77.83 646.45,-88.36 653.27,-86.75"/>
</a>
</g>
</g>
<!-- Node22&#45;&gt;Node2 -->
<g id="edge43_Node000022_Node000002" class="edge">
<title>Node22&#45;&gt;Node2</title>
<g id="a_edge43_Node000022_Node000002"><a xlink:title=" ">
<path fill="none" stroke="#63b8ff" d="M1070.41,-167.59C1081.61,-159.74 1097.81,-148.38 1111.06,-139.09"/>
<polygon fill="#63b8ff" stroke="#63b8ff" points="1113.07,-141.96 1119.24,-133.35 1109.05,-136.22 1113.07,-141.96"/>
</a>
</g>
</g>
<!-- Node22&#45;&gt;Node23 -->
<g id="edge39_Node000022_Node000023" class="edge">
<title>Node22&#45;&gt;Node23</title>
<g id="a_edge39_Node000022_Node000023"><a xlink:title=" ">
<path fill="none" stroke="#63b8ff" d="M1106.22,-169.09C1172.49,-158.44 1289.25,-139.67 1351.38,-129.69"/>
<polygon fill="#63b8ff" stroke="#63b8ff" points="1351.87,-133.16 1361.19,-128.11 1350.76,-126.24 1351.87,-133.16"/>
</a>
</g>
</g>
<!-- Node25 -->
<g id="Node000025" class="node">
<title>Node25</title>
<g id="a_Node000025"><a xlink:title=" ">
<polygon fill="#e0e0e0" stroke="#999999" points="1071.4,-132 1042.6,-132 1042.6,-112 1071.4,-112 1071.4,-132"/>
<text text-anchor="middle" x="1057" y="-118.5" font-family="Helvetica,sans-Serif" font-size="10.00">list</text>
</a>
</g>
</g>
<!-- Node22&#45;&gt;Node25 -->
<g id="edge44_Node000022_Node000025" class="edge">
<title>Node22&#45;&gt;Node25</title>
<g id="a_edge44_Node000022_Node000025"><a xlink:title=" ">
<path fill="none" stroke="#63b8ff" d="M1057,-167.59C1057,-161.01 1057,-151.96 1057,-143.73"/>
<polygon fill="#63b8ff" stroke="#63b8ff" points="1060.5,-143.81 1057,-133.81 1053.5,-143.81 1060.5,-143.81"/>
</a>
</g>
</g>
<!-- Node23&#45;&gt;Node5 -->
<g id="edge41_Node000023_Node000005" class="edge">
<title>Node23&#45;&gt;Node5</title>
<g id="a_edge41_Node000023_Node000005"><a xlink:title=" ">
<path fill="none" stroke="#63b8ff" d="M1362.78,-114.36C1358.18,-113.48 1353.47,-112.66 1349,-112 1190.92,-88.65 1002.25,-75.4 912.09,-69.95"/>
<polygon fill="#63b8ff" stroke="#63b8ff" points="912.51,-66.47 902.32,-69.37 912.09,-73.46 912.51,-66.47"/>
</a>
</g>
</g>
<!-- Node23&#45;&gt;Node9 -->
<g id="edge40_Node000023_Node000009" class="edge">
<title>Node23&#45;&gt;Node9</title>
<g id="a_edge40_Node000023_Node000009"><a xlink:title=" ">
<path fill="none" stroke="#63b8ff" d="M1393.3,-111.72C1393.22,-97.3 1390.72,-69.72 1374,-56 1337.29,-25.87 1006.37,-14.68 898.11,-11.81"/>
<polygon fill="#63b8ff" stroke="#63b8ff" points="898.5,-8.32 888.41,-11.56 898.32,-15.32 898.5,-8.32"/>
</a>
</g>
</g>
<!-- Node24 -->
<g id="Node000024" class="node">
<title>Node24</title>
<g id="a_Node000024"><a xlink:title=" ">
<polygon fill="#e0e0e0" stroke="#999999" points="1364.88,-76 1333.12,-76 1333.12,-56 1364.88,-56 1364.88,-76"/>
<text text-anchor="middle" x="1349" y="-62.5" font-family="Helvetica,sans-Serif" font-size="10.00">any</text>
</a>
</g>
</g>
<!-- Node23&#45;&gt;Node24 -->
<g id="edge42_Node000023_Node000024" class="edge">
<title>Node23&#45;&gt;Node24</title>
<g id="a_edge42_Node000023_Node000024"><a xlink:title=" ">
<path fill="none" stroke="#63b8ff" d="M1385.34,-111.59C1379.41,-104.32 1371.01,-94.02 1363.79,-85.15"/>
<polygon fill="#63b8ff" stroke="#63b8ff" points="1366.56,-83.01 1357.53,-77.47 1361.14,-87.43 1366.56,-83.01"/>
</a>
</g>
</g>
<!-- Node26&#45;&gt;Node5 -->
<g id="edge51_Node000026_Node000005" class="edge">
<title>Node26&#45;&gt;Node5</title>
<g id="a_edge51_Node000026_Node000005"><a xlink:title=" ">
<path fill="none" stroke="#63b8ff" d="M971.57,-337.92C1020.6,-330.55 1087.88,-317.62 1108,-300 1174.41,-241.86 1229.8,-178.71 1172,-112 1139.02,-73.94 992.54,-67.32 912.19,-66.62"/>
<polygon fill="#63b8ff" stroke="#63b8ff" points="912.37,-63.13 902.35,-66.57 912.33,-70.13 912.37,-63.13"/>
</a>
</g>
</g>
<!-- Node26&#45;&gt;Node8 -->
<g id="edge53_Node000026_Node000008" class="edge">
<title>Node26&#45;&gt;Node8</title>
<g id="a_edge53_Node000026_Node000008"><a xlink:title=" ">
<path fill="none" stroke="#63b8ff" d="M862.08,-343.56C713.01,-339.33 308.33,-325.6 254,-300 167.1,-259.05 141.39,-225.18 118,-132 115.84,-123.38 114.6,-120.21 118,-112 122.64,-100.79 131.59,-90.91 140.29,-83.29"/>
<polygon fill="#63b8ff" stroke="#63b8ff" points="142.31,-86.16 147.89,-77.15 137.91,-80.71 142.31,-86.16"/>
</a>
</g>
</g>
<!-- Node26&#45;&gt;Node9 -->
<g id="edge47_Node000026_Node000009" class="edge">
<title>Node26&#45;&gt;Node9</title>
<g id="a_edge47_Node000026_Node000009"><a xlink:title=" ">
<path fill="none" stroke="#63b8ff" d="M862.24,-341C714.8,-328.97 315.48,-287.61 239,-188 203.69,-142.01 277.4,-161.28 317,-132 353.45,-105.05 344.53,-76.42 385,-56 463.04,-16.63 733.65,-11.55 829.78,-11.02"/>
<polygon fill="#63b8ff" stroke="#63b8ff" points="829.63,-14.52 839.62,-10.97 829.61,-7.52 829.63,-14.52"/>
</a>
</g>
</g>
<!-- Node26&#45;&gt;Node10 -->
<g id="edge54_Node000026_Node000010" class="edge">
<title>Node26&#45;&gt;Node10</title>
<g id="a_edge54_Node000026_Node000010"><a xlink:title=" ">
<path fill="none" stroke="#63b8ff" d="M862.03,-337.08C819.05,-329.97 758.22,-317.88 707,-300 668.66,-286.62 627.08,-264.58 601.29,-249.93"/>
<polygon fill="#63b8ff" stroke="#63b8ff" points="603.3,-247.05 592.89,-245.09 599.81,-253.11 603.3,-247.05"/>
</a>
</g>
</g>
<!-- Node26&#45;&gt;Node12 -->
<g id="edge52_Node000026_Node000012" class="edge">
<title>Node26&#45;&gt;Node12</title>
<g id="a_edge52_Node000026_Node000012"><a xlink:title=" ">
<path fill="none" stroke="#63b8ff" d="M910.26,-335.78C903.69,-326.74 893.49,-312.54 885,-300 846.52,-243.17 803.16,-174.48 782.78,-141.9"/>
<polygon fill="#63b8ff" stroke="#63b8ff" points="785.85,-140.22 777.59,-133.59 779.92,-143.93 785.85,-140.22"/>
</a>
</g>
</g>
<!-- Node26&#45;&gt;Node15 -->
<g id="edge49_Node000026_Node000015" class="edge">
<title>Node26&#45;&gt;Node15</title>
<g id="a_edge49_Node000026_Node000015"><a xlink:title=" ">
<path fill="none" stroke="#63b8ff" d="M971.92,-339.55C1032.35,-332.7 1124.8,-319.43 1154,-300 1213.22,-260.59 1249.67,-179.93 1264.01,-142.67"/>
<polygon fill="#63b8ff" stroke="#63b8ff" points="1267.17,-144.22 1267.36,-133.62 1260.6,-141.78 1267.17,-144.22"/>
</a>
</g>
</g>
<!-- Node27 -->
<g id="Node000027" class="node">
<title>Node27</title>
<g id="a_Node000027"><a xlink:title=" ">
<polygon fill="#e0e0e0" stroke="#999999" points="939.62,-300 894.38,-300 894.38,-280 939.62,-280 939.62,-300"/>
<text text-anchor="middle" x="917" y="-286.5" font-family="Helvetica,sans-Serif" font-size="10.00">chrono</text>
</a>
</g>
</g>
<!-- Node26&#45;&gt;Node27 -->
<g id="edge46_Node000026_Node000027" class="edge">
<title>Node26&#45;&gt;Node27</title>
<g id="a_edge46_Node000026_Node000027"><a xlink:title=" ">
<path fill="none" stroke="#63b8ff" d="M917,-335.59C917,-329.01 917,-319.96 917,-311.73"/>
<polygon fill="#63b8ff" stroke="#63b8ff" points="920.5,-311.81 917,-301.81 913.5,-311.81 920.5,-311.81"/>
</a>
</g>
</g>
<!-- Node28 -->
<g id="Node000028" class="node">
<title>Node28</title>
<g id="a_Node000028"><a xlink:title=" ">
<polygon fill="#e0e0e0" stroke="#999999" points="1037.88,-300 958.12,-300 958.12,-280 1037.88,-280 1037.88,-300"/>
<text text-anchor="middle" x="998" y="-286.5" font-family="Helvetica,sans-Serif" font-size="10.00">boost/asio.hpp</text>
</a>
</g>
</g>
<!-- Node26&#45;&gt;Node28 -->
<g id="edge48_Node000026_Node000028" class="edge">
<title>Node26&#45;&gt;Node28</title>
<g id="a_edge48_Node000026_Node000028"><a xlink:title=" ">
<path fill="none" stroke="#63b8ff" d="M931.11,-335.59C943,-327.67 960.27,-316.16 974.28,-306.82"/>
<polygon fill="#63b8ff" stroke="#63b8ff" points="976.14,-309.78 982.52,-301.32 972.26,-303.95 976.14,-309.78"/>
</a>
</g>
</g>
<!-- Node29 -->
<g id="Node000029" class="node">
<title>Node29</title>
<g id="a_Node000029"><a xlink:title=" ">
<polygon fill="#e0e0e0" stroke="#999999" points="1098.5,-300 1055.5,-300 1055.5,-280 1098.5,-280 1098.5,-300"/>
<text text-anchor="middle" x="1077" y="-286.5" font-family="Helvetica,sans-Serif" font-size="10.00">thread</text>
</a>
</g>
</g>
<!-- Node26&#45;&gt;Node29 -->
<g id="edge50_Node000026_Node000029" class="edge">
<title>Node26&#45;&gt;Node29</title>
<g id="a_edge50_Node000026_Node000029"><a xlink:title=" ">
<path fill="none" stroke="#63b8ff" d="M944.87,-335.59C972.53,-326.26 1014.93,-311.95 1044.2,-302.07"/>
<polygon fill="#63b8ff" stroke="#63b8ff" points="1045.31,-305.39 1053.66,-298.88 1043.07,-298.76 1045.31,-305.39"/>
</a>
</g>
</g>
<!-- Node30 -->
<g id="Node000030" class="node">
<title>Node30</title>
<g id="a_Node000030"><a xlink:href="ComponentRegistry_8hpp.html" target="_top" xlink:title=" ">
<polygon fill="white" stroke="#666666" points="837.5,-300 716.5,-300 716.5,-280 837.5,-280 837.5,-300"/>
<text text-anchor="middle" x="777" y="-286.5" font-family="Helvetica,sans-Serif" font-size="10.00">ComponentRegistry.hpp</text>
</a>
</g>
</g>
<!-- Node26&#45;&gt;Node30 -->
<g id="edge55_Node000026_Node000030" class="edge">
<title>Node26&#45;&gt;Node30</title>
<g id="a_edge55_Node000026_Node000030"><a xlink:title=" ">
<path fill="none" stroke="#63b8ff" d="M892.61,-335.59C870.37,-327.01 837.23,-314.23 812.13,-304.55"/>
<polygon fill="#63b8ff" stroke="#63b8ff" points="813.58,-301.36 802.99,-301.02 811.06,-307.89 813.58,-301.36"/>
</a>
</g>
</g>
<!-- Node30&#45;&gt;Node2 -->
<g id="edge56_Node000030_Node000002" class="edge">
<title>Node30&#45;&gt;Node2</title>
<g id="a_edge56_Node000030_Node000002"><a xlink:title=" ">
<path fill="none" stroke="#63b8ff" d="M829.99,-279.54C914.61,-263.41 1074.85,-228.4 1115,-188 1126.67,-176.26 1131.25,-157.78 1133.01,-143.52"/>
<polygon fill="#63b8ff" stroke="#63b8ff" points="1136.47,-144.11 1133.81,-133.86 1129.5,-143.53 1136.47,-144.11"/>
</a>
</g>
</g>
<!-- Node30&#45;&gt;Node5 -->
<g id="edge57_Node000030_Node000005" class="edge">
<title>Node30&#45;&gt;Node5</title>
<g id="a_edge57_Node000030_Node000005"><a xlink:title=" ">
<path fill="none" stroke="#63b8ff" d="M783.48,-279.7C789.44,-270.85 798.19,-256.97 804,-244 828.48,-189.31 846.45,-120.53 854.42,-87.1"/>
<polygon fill="#63b8ff" stroke="#63b8ff" points="857.78,-88.12 856.64,-77.59 850.96,-86.53 857.78,-88.12"/>
</a>
</g>
</g>
<!-- Node30&#45;&gt;Node8 -->
<g id="edge60_Node000030_Node000008" class="edge">
<title>Node30&#45;&gt;Node8</title>
<g id="a_edge60_Node000030_Node000008"><a xlink:title=" ">
<path fill="none" stroke="#63b8ff" d="M724.67,-279.56C674.85,-270.54 597.79,-256.51 531,-244 347.02,-209.53 223.97,-290.88 125,-132 114.93,-115.83 128.64,-97 142.32,-83.79"/>
<polygon fill="#63b8ff" stroke="#63b8ff" points="144.38,-86.64 149.5,-77.36 139.71,-81.43 144.38,-86.64"/>
</a>
</g>
</g>
<!-- Node30&#45;&gt;Node10 -->
<g id="edge61_Node000030_Node000010" class="edge">
<title>Node30&#45;&gt;Node10</title>
<g id="a_edge61_Node000030_Node000010"><a xlink:title=" ">
<path fill="none" stroke="#63b8ff" d="M741.99,-279.59C708.76,-270.67 658.61,-257.19 622.13,-247.39"/>
<polygon fill="#63b8ff" stroke="#63b8ff" points="623.31,-244.09 612.75,-244.87 621.5,-250.85 623.31,-244.09"/>
</a>
</g>
</g>
<!-- Node30&#45;&gt;Node17 -->
<g id="edge58_Node000030_Node000017" class="edge">
<title>Node30&#45;&gt;Node17</title>
<g id="a_edge58_Node000030_Node000017"><a xlink:title=" ">
<path fill="none" stroke="#63b8ff" d="M795.01,-279.66C809.12,-271.65 828.56,-259.05 842,-244 869.57,-213.14 889.63,-168.52 899.69,-142.98"/>
<polygon fill="#63b8ff" stroke="#63b8ff" points="902.89,-144.41 903.17,-133.82 896.35,-141.92 902.89,-144.41"/>
</a>
</g>
</g>
<!-- Node30&#45;&gt;Node18 -->
<g id="edge59_Node000030_Node000018" class="edge">
<title>Node30&#45;&gt;Node18</title>
<g id="a_edge59_Node000030_Node000018"><a xlink:title=" ">
<path fill="none" stroke="#63b8ff" d="M779.91,-279.8C789.92,-247.37 821.23,-138.89 801,-112 787.14,-93.57 727.27,-80.32 685.87,-73.15"/>
<polygon fill="#63b8ff" stroke="#63b8ff" points="686.67,-69.74 676.23,-71.54 685.51,-76.64 686.67,-69.74"/>
</a>
</g>
</g>
<!-- Node32 -->
<g id="Node000032" class="node">
<title>Node32</title>
<g id="a_Node000032"><a xlink:href="Utils_8hpp.html" target="_top" xlink:title=" ">
<polygon fill="white" stroke="#666666" points="1511.5,-188 1456.5,-188 1456.5,-168 1511.5,-168 1511.5,-188"/>
<text text-anchor="middle" x="1484" y="-174.5" font-family="Helvetica,sans-Serif" font-size="10.00">Utils.hpp</text>
</a>
</g>
</g>
<!-- Node31&#45;&gt;Node32 -->
<g id="edge64_Node000031_Node000032" class="edge">
<title>Node31&#45;&gt;Node32</title>
<g id="a_edge64_Node000031_Node000032"><a xlink:title=" ">
<path fill="none" stroke="#63b8ff" d="M1480.23,-335.6C1480.86,-309.46 1482.64,-235.48 1483.51,-199.36"/>
<polygon fill="#63b8ff" stroke="#63b8ff" points="1487,-199.89 1483.74,-189.81 1480,-199.72 1487,-199.89"/>
</a>
</g>
</g>
<!-- Node32&#45;&gt;Node9 -->
<g id="edge65_Node000032_Node000009" class="edge">
<title>Node32&#45;&gt;Node9</title>
<g id="a_edge65_Node000032_Node000009"><a xlink:title=" ">
<path fill="none" stroke="#63b8ff" d="M1491,-167.54C1499.87,-154.29 1512.79,-129.83 1502,-112 1474.21,-66.08 1446.53,-71.01 1395,-56 1301.21,-28.69 1000.85,-15.82 898.53,-12.14"/>
<polygon fill="#63b8ff" stroke="#63b8ff" points="898.68,-8.65 888.57,-11.79 898.44,-15.64 898.68,-8.65"/>
</a>
</g>
</g>
<!-- Node32&#45;&gt;Node15 -->
<g id="edge68_Node000032_Node000015" class="edge">
<title>Node32&#45;&gt;Node15</title>
<g id="a_edge68_Node000032_Node000015"><a xlink:title=" ">
<path fill="none" stroke="#63b8ff" d="M1456.15,-169.94C1416.14,-159.8 1342.67,-141.17 1301.33,-130.69"/>
<polygon fill="#63b8ff" stroke="#63b8ff" points="1302.35,-127.34 1291.8,-128.27 1300.63,-134.12 1302.35,-127.34"/>
</a>
</g>
</g>
<!-- Node32&#45;&gt;Node17 -->
<g id="edge66_Node000032_Node000017" class="edge">
<title>Node32&#45;&gt;Node17</title>
<g id="a_edge66_Node000032_Node000017"><a xlink:title=" ">
<path fill="none" stroke="#63b8ff" d="M1456.17,-174.4C1359.8,-165.38 1040.65,-135.51 938.65,-125.96"/>
<polygon fill="#63b8ff" stroke="#63b8ff" points="939.1,-122.49 928.82,-125.04 938.45,-129.46 939.1,-122.49"/>
</a>
</g>
</g>
<!-- Node33 -->
<g id="Node000033" class="node">
<title>Node33</title>
<g id="a_Node000033"><a xlink:title=" ">
<polygon fill="#e0e0e0" stroke="#999999" points="1492.62,-132 1441.38,-132 1441.38,-112 1492.62,-112 1492.62,-132"/>
<text text-anchor="middle" x="1467" y="-118.5" font-family="Helvetica,sans-Serif" font-size="10.00">ostream</text>
</a>
</g>
</g>
<!-- Node32&#45;&gt;Node33 -->
<g id="edge67_Node000032_Node000033" class="edge">
<title>Node32&#45;&gt;Node33</title>
<g id="a_edge67_Node000032_Node000033"><a xlink:title=" ">
<path fill="none" stroke="#63b8ff" d="M1481.04,-167.59C1478.92,-160.86 1475.98,-151.53 1473.34,-143.15"/>
<polygon fill="#63b8ff" stroke="#63b8ff" points="1476.72,-142.23 1470.38,-133.74 1470.05,-144.33 1476.72,-142.23"/>
</a>
</g>
</g>
<!-- Node34&#45;&gt;Node32 -->
<g id="edge70_Node000034_Node000032" class="edge">
<title>Node34&#45;&gt;Node32</title>
<g id="a_edge70_Node000034_Node000032"><a xlink:title=" ">
<path fill="none" stroke="#63b8ff" d="M1627.39,-335.6C1602.83,-308.78 1532.14,-231.57 1500.11,-196.6"/>
<polygon fill="#63b8ff" stroke="#63b8ff" points="1502.87,-194.43 1493.54,-189.41 1497.71,-199.15 1502.87,-194.43"/>
</a>
</g>
</g>
<!-- Node35&#45;&gt;Node32 -->
<g id="edge72_Node000035_Node000032" class="edge">
<title>Node35&#45;&gt;Node32</title>
<g id="a_edge72_Node000035_Node000032"><a xlink:title=" ">
<path fill="none" stroke="#63b8ff" d="M1774.56,-335.6C1723.31,-307.98 1572.93,-226.93 1511.06,-193.59"/>
<polygon fill="#63b8ff" stroke="#63b8ff" points="1513.05,-190.68 1502.58,-189.02 1509.73,-196.84 1513.05,-190.68"/>
</a>
</g>
</g>
<!-- Node36&#45;&gt;Node12 -->
<g id="edge75_Node000036_Node000012" class="edge">
<title>Node36&#45;&gt;Node12</title>
<g id="a_edge75_Node000036_Node000012"><a xlink:title=" ">
<path fill="none" stroke="#63b8ff" d="M1243.17,-228.81C1174.2,-223.14 1057.78,-210.98 960,-188 903.59,-174.74 840.34,-151.12 803.18,-136.3"/>
<polygon fill="#63b8ff" stroke="#63b8ff" points="804.96,-133.24 794.38,-132.75 802.35,-139.73 804.96,-133.24"/>
</a>
</g>
</g>
<!-- Node36&#45;&gt;Node15 -->
<g id="edge74_Node000036_Node000015" class="edge">
<title>Node36&#45;&gt;Node15</title>
<g id="a_edge74_Node000036_Node000015"><a xlink:title=" ">
<path fill="none" stroke="#63b8ff" d="M1300.27,-223.62C1295.12,-205.92 1283.87,-167.24 1276.91,-143.32"/>
<polygon fill="#63b8ff" stroke="#63b8ff" points="1280.3,-142.43 1274.14,-133.81 1273.58,-144.39 1280.3,-142.43"/>
</a>
</g>
</g>
<!-- Node36&#45;&gt;Node17 -->
<g id="edge77_Node000036_Node000017" class="edge">
<title>Node36&#45;&gt;Node17</title>
<g id="a_edge77_Node000036_Node000017"><a xlink:title=" ">
<path fill="none" stroke="#63b8ff" d="M1243.17,-232.28C1180.28,-229.68 1079.48,-220.24 999,-188 970.55,-176.6 942.47,-154.81 924.95,-139.61"/>
<polygon fill="#63b8ff" stroke="#63b8ff" points="927.74,-137.4 917.94,-133.36 923.08,-142.63 927.74,-137.4"/>
</a>
</g>
</g>
<!-- Node36&#45;&gt;Node32 -->
<g id="edge78_Node000036_Node000032" class="edge">
<title>Node36&#45;&gt;Node32</title>
<g id="a_edge78_Node000036_Node000032"><a xlink:title=" ">
<path fill="none" stroke="#63b8ff" d="M1334.53,-223.59C1365.38,-214.39 1412.42,-200.36 1445.47,-190.5"/>
<polygon fill="#63b8ff" stroke="#63b8ff" points="1446.06,-193.97 1454.65,-187.76 1444.06,-187.26 1446.06,-193.97"/>
</a>
</g>
</g>
<!-- Node37 -->
<g id="Node000037" class="node">
<title>Node37</title>
<g id="a_Node000037"><a xlink:title=" ">
<polygon fill="#e0e0e0" stroke="#999999" points="1362.12,-188 1313.88,-188 1313.88,-168 1362.12,-168 1362.12,-188"/>
<text text-anchor="middle" x="1338" y="-174.5" font-family="Helvetica,sans-Serif" font-size="10.00">cstddef</text>
</a>
</g>
</g>
<!-- Node36&#45;&gt;Node37 -->
<g id="edge76_Node000036_Node000037" class="edge">
<title>Node36&#45;&gt;Node37</title>
<g id="a_edge76_Node000036_Node000037"><a xlink:title=" ">
<path fill="none" stroke="#63b8ff" d="M1309.1,-223.59C1313.71,-216.47 1320.21,-206.45 1325.87,-197.72"/>
<polygon fill="#63b8ff" stroke="#63b8ff" points="1328.65,-199.86 1331.15,-189.57 1322.77,-196.06 1328.65,-199.86"/>
</a>
</g>
</g>
<!-- Node38&#45;&gt;Node32 -->
<g id="edge80_Node000038_Node000032" class="edge">
<title>Node38&#45;&gt;Node32</title>
<g id="a_edge80_Node000038_Node000032"><a xlink:title=" ">
<path fill="none" stroke="#63b8ff" d="M1773.46,-223.53C1701.39,-212.44 1584.15,-194.41 1523.35,-185.05"/>
<polygon fill="#63b8ff" stroke="#63b8ff" points="1523.89,-181.6 1513.47,-183.53 1522.83,-188.51 1523.89,-181.6"/>
</a>
</g>
</g>
</g>
</svg>
