<?xml version="1.0" encoding="UTF-8" standalone="no"?>
<!DOCTYPE svg PUBLIC "-//W3C//DTD SVG 1.1//EN"
 "http://www.w3.org/Graphics/SVG/1.1/DTD/svg11.dtd">
<!-- Generated by graphviz version 12.1.0 (20240811.2233)
 -->
<!-- Title: PlayerInfo.hpp Pages: 1 -->
<svg width="87pt" height="140pt"
 viewBox="0.00 0.00 87.00 140.00" xmlns="http://www.w3.org/2000/svg" xmlns:xlink="http://www.w3.org/1999/xlink">
<g id="graph0" class="graph" transform="scale(1 1) rotate(0) translate(4 136)">
<title>PlayerInfo.hpp</title>
<!-- Node1 -->
<g id="Node000001" class="node">
<title>Node1</title>
<g id="a_Node000001"><a xlink:title=" ">
<polygon fill="#999999" stroke="#666666" points="79,-132 0,-132 0,-112 79,-112 79,-132"/>
<text text-anchor="middle" x="39.5" y="-118.5" font-family="Helvetica,sans-Serif" font-size="10.00">PlayerInfo.hpp</text>
</a>
</g>
</g>
<!-- Node2 -->
<g id="Node000002" class="node">
<title>Node2</title>
<g id="a_Node000002"><a xlink:href="Utils_8hpp.html" target="_top" xlink:title=" ">
<polygon fill="white" stroke="#666666" points="67,-76 12,-76 12,-56 67,-56 67,-76"/>
<text text-anchor="middle" x="39.5" y="-62.5" font-family="Helvetica,sans-Serif" font-size="10.00">Utils.hpp</text>
</a>
</g>
</g>
<!-- Node1&#45;&gt;Node2 -->
<g id="edge1_Node000001_Node000002" class="edge">
<title>Node1&#45;&gt;Node2</title>
<g id="a_edge1_Node000001_Node000002"><a xlink:title=" ">
<path fill="none" stroke="#63b8ff" d="M39.5,-111.59C39.5,-105.01 39.5,-95.96 39.5,-87.73"/>
<polygon fill="#63b8ff" stroke="#63b8ff" points="43,-87.81 39.5,-77.81 36,-87.81 43,-87.81"/>
</a>
</g>
</g>
<!-- Node3 -->
<g id="Node000003" class="node">
<title>Node3</title>
<g id="a_Node000003"><a xlink:title=" ">
<polygon fill="#e0e0e0" stroke="#999999" points="62.12,-20 16.88,-20 16.88,0 62.12,0 62.12,-20"/>
<text text-anchor="middle" x="39.5" y="-6.5" font-family="Helvetica,sans-Serif" font-size="10.00">cstdint</text>
</a>
</g>
</g>
<!-- Node2&#45;&gt;Node3 -->
<g id="edge2_Node000002_Node000003" class="edge">
<title>Node2&#45;&gt;Node3</title>
<g id="a_edge2_Node000002_Node000003"><a xlink:title=" ">
<path fill="none" stroke="#63b8ff" d="M39.5,-55.59C39.5,-49.01 39.5,-39.96 39.5,-31.73"/>
<polygon fill="#63b8ff" stroke="#63b8ff" points="43,-31.81 39.5,-21.81 36,-31.81 43,-31.81"/>
</a>
</g>
</g>
</g>
</svg>
