<?xml version="1.0" encoding="UTF-8" standalone="no"?>
<!DOCTYPE svg PUBLIC "-//W3C//DTD SVG 1.1//EN"
 "http://www.w3.org/Graphics/SVG/1.1/DTD/svg11.dtd">
<!-- Generated by graphviz version 12.1.0 (20240811.2233)
 -->
<!-- Title: PlayerControl.hpp Pages: 1 -->
<svg width="307pt" height="196pt"
 viewBox="0.00 0.00 307.24 196.00" xmlns="http://www.w3.org/2000/svg" xmlns:xlink="http://www.w3.org/1999/xlink">
<g id="graph0" class="graph" transform="scale(1 1) rotate(0) translate(4 192)">
<title>PlayerControl.hpp</title>
<!-- Node1 -->
<g id="Node000001" class="node">
<title>Node1</title>
<g id="a_Node000001"><a xlink:title=" ">
<polygon fill="#999999" stroke="#666666" points="181.61,-188 87.61,-188 87.61,-168 181.61,-168 181.61,-188"/>
<text text-anchor="middle" x="134.61" y="-174.5" font-family="Helvetica,sans-Serif" font-size="10.00">PlayerControl.hpp</text>
</a>
</g>
</g>
<!-- Node2 -->
<g id="Node000002" class="node">
<title>Node2</title>
<g id="a_Node000002"><a xlink:href="GameTypes_8cpp.html" target="_top" xlink:title=" ">
<polygon fill="white" stroke="#666666" points="218.24,-20 130.99,-20 130.99,0 218.24,0 218.24,-20"/>
<text text-anchor="middle" x="174.61" y="-6.5" font-family="Helvetica,sans-Serif" font-size="10.00">GameTypes.cpp</text>
</a>
</g>
</g>
<!-- Node1&#45;&gt;Node2 -->
<g id="edge1_Node000001_Node000002" class="edge">
<title>Node1&#45;&gt;Node2</title>
<g id="a_edge1_Node000001_Node000002"><a xlink:title=" ">
<path fill="none" stroke="#63b8ff" d="M99.78,-163.09C51.91,-141.95 -24.71,-99.56 8.61,-56 23.4,-36.67 86.65,-23.71 130.66,-16.85"/>
<polygon fill="#63b8ff" stroke="#63b8ff" points="98.13,-166.19 108.7,-166.92 100.89,-159.76 98.13,-166.19"/>
</a>
</g>
</g>
<!-- Node3 -->
<g id="Node000003" class="node">
<title>Node3</title>
<g id="a_Node000003"><a xlink:href="GameTypes_8hpp.html" target="_top" xlink:title=" ">
<polygon fill="white" stroke="#666666" points="299.24,-76 211.99,-76 211.99,-56 299.24,-56 299.24,-76"/>
<text text-anchor="middle" x="255.61" y="-62.5" font-family="Helvetica,sans-Serif" font-size="10.00">GameTypes.hpp</text>
</a>
</g>
</g>
<!-- Node1&#45;&gt;Node3 -->
<g id="edge2_Node000001_Node000003" class="edge">
<title>Node1&#45;&gt;Node3</title>
<g id="a_edge2_Node000001_Node000003"><a xlink:title=" ">
<path fill="none" stroke="#63b8ff" d="M187.07,-163.75C204.94,-156.91 223.66,-146.77 236.61,-132 250.72,-115.91 254.37,-89.85 255.3,-76.12"/>
<polygon fill="#63b8ff" stroke="#63b8ff" points="186.1,-160.39 177.83,-167.01 188.42,-166.99 186.1,-160.39"/>
</a>
</g>
</g>
<!-- Node5 -->
<g id="Node000005" class="node">
<title>Node5</title>
<g id="a_Node000005"><a xlink:href="Server_8hpp.html" target="_top" xlink:title=" ">
<polygon fill="white" stroke="#666666" points="119.24,-132 55.99,-132 55.99,-112 119.24,-112 119.24,-132"/>
<text text-anchor="middle" x="87.61" y="-118.5" font-family="Helvetica,sans-Serif" font-size="10.00">Server.hpp</text>
</a>
</g>
</g>
<!-- Node1&#45;&gt;Node5 -->
<g id="edge5_Node000001_Node000005" class="edge">
<title>Node1&#45;&gt;Node5</title>
<g id="a_edge5_Node000001_Node000005"><a xlink:title=" ">
<path fill="none" stroke="#63b8ff" d="M118.95,-159C111.16,-150.06 102.08,-139.62 95.71,-132.3"/>
<polygon fill="#63b8ff" stroke="#63b8ff" points="116.23,-161.21 125.43,-166.45 121.51,-156.61 116.23,-161.21"/>
</a>
</g>
</g>
<!-- Node8 -->
<g id="Node000008" class="node">
<title>Node8</title>
<g id="a_Node000008"><a xlink:href="SoundPlayer_8hpp.html" target="_top" xlink:title=" ">
<polygon fill="white" stroke="#666666" points="227.74,-132 137.49,-132 137.49,-112 227.74,-112 227.74,-132"/>
<text text-anchor="middle" x="182.61" y="-118.5" font-family="Helvetica,sans-Serif" font-size="10.00">SoundPlayer.hpp</text>
</a>
</g>
</g>
<!-- Node1&#45;&gt;Node8 -->
<g id="edge8_Node000001_Node000008" class="edge">
<title>Node1&#45;&gt;Node8</title>
<g id="a_edge8_Node000001_Node000008"><a xlink:title=" ">
<path fill="none" stroke="#63b8ff" d="M150.61,-159C158.56,-150.06 167.84,-139.62 174.35,-132.3"/>
<polygon fill="#63b8ff" stroke="#63b8ff" points="148.01,-156.66 143.98,-166.46 153.24,-161.31 148.01,-156.66"/>
</a>
</g>
</g>
<!-- Node3&#45;&gt;Node2 -->
<g id="edge3_Node000003_Node000002" class="edge">
<title>Node3&#45;&gt;Node2</title>
<g id="a_edge3_Node000003_Node000002"><a xlink:title=" ">
<path fill="none" stroke="#63b8ff" d="M232.02,-49.27C218.03,-39.94 200.76,-28.43 188.83,-20.48"/>
<polygon fill="#63b8ff" stroke="#63b8ff" points="229.98,-52.12 240.25,-54.75 233.87,-46.3 229.98,-52.12"/>
</a>
</g>
</g>
<!-- Node4 -->
<g id="Node000004" class="node">
<title>Node4</title>
<g id="a_Node000004"><a xlink:href="Client_2src_2main_8cpp.html" target="_top" xlink:title=" ">
<polygon fill="white" stroke="#666666" points="292.49,-20 236.74,-20 236.74,0 292.49,0 292.49,-20"/>
<text text-anchor="middle" x="264.61" y="-6.5" font-family="Helvetica,sans-Serif" font-size="10.00">main.cpp</text>
</a>
</g>
</g>
<!-- Node3&#45;&gt;Node4 -->
<g id="edge4_Node000003_Node000004" class="edge">
<title>Node3&#45;&gt;Node4</title>
<g id="a_edge4_Node000003_Node000004"><a xlink:title=" ">
<path fill="none" stroke="#63b8ff" d="M259.04,-44.43C260.43,-36.11 261.96,-26.93 263.06,-20.3"/>
<polygon fill="#63b8ff" stroke="#63b8ff" points="255.62,-43.66 257.43,-54.1 262.53,-44.81 255.62,-43.66"/>
</a>
</g>
</g>
<!-- Node6 -->
<g id="Node000006" class="node">
<title>Node6</title>
<g id="a_Node000006"><a xlink:href="Server_8cpp.html" target="_top" xlink:title=" ">
<polygon fill="white" stroke="#666666" points="155.24,-76 91.99,-76 91.99,-56 155.24,-56 155.24,-76"/>
<text text-anchor="middle" x="123.61" y="-62.5" font-family="Helvetica,sans-Serif" font-size="10.00">Server.cpp</text>
</a>
</g>
</g>
<!-- Node5&#45;&gt;Node6 -->
<g id="edge6_Node000005_Node000006" class="edge">
<title>Node5&#45;&gt;Node6</title>
<g id="a_edge6_Node000005_Node000006"><a xlink:title=" ">
<path fill="none" stroke="#63b8ff" d="M100.18,-102.15C106.01,-93.4 112.69,-83.39 117.41,-76.3"/>
<polygon fill="#63b8ff" stroke="#63b8ff" points="97.36,-100.07 94.72,-110.33 103.18,-103.96 97.36,-100.07"/>
</a>
</g>
</g>
<!-- Node7 -->
<g id="Node000007" class="node">
<title>Node7</title>
<g id="a_Node000007"><a xlink:href="Server_2src_2main_8cpp.html" target="_top" xlink:title=" ">
<polygon fill="white" stroke="#666666" points="73.49,-76 17.74,-76 17.74,-56 73.49,-56 73.49,-76"/>
<text text-anchor="middle" x="45.61" y="-62.5" font-family="Helvetica,sans-Serif" font-size="10.00">main.cpp</text>
</a>
</g>
</g>
<!-- Node5&#45;&gt;Node7 -->
<g id="edge7_Node000005_Node000007" class="edge">
<title>Node5&#45;&gt;Node7</title>
<g id="a_edge7_Node000005_Node000007"><a xlink:title=" ">
<path fill="none" stroke="#63b8ff" d="M73.4,-102.72C66.49,-93.84 58.48,-83.55 52.85,-76.3"/>
<polygon fill="#63b8ff" stroke="#63b8ff" points="70.47,-104.65 79.37,-110.4 75.99,-100.36 70.47,-104.65"/>
</a>
</g>
</g>
<!-- Node8&#45;&gt;Node2 -->
<g id="edge9_Node000008_Node000002" class="edge">
<title>Node8&#45;&gt;Node2</title>
<g id="a_edge9_Node000008_Node000002"><a xlink:title=" ">
<path fill="none" stroke="#63b8ff" d="M181.11,-100.31C179.37,-76.36 176.57,-37.95 175.29,-20.35"/>
<polygon fill="#63b8ff" stroke="#63b8ff" points="177.61,-100.39 181.82,-110.11 184.59,-99.88 177.61,-100.39"/>
</a>
</g>
</g>
<!-- Node8&#45;&gt;Node3 -->
<g id="edge10_Node000008_Node000003" class="edge">
<title>Node8&#45;&gt;Node3</title>
<g id="a_edge10_Node000008_Node000003"><a xlink:title=" ">
<path fill="none" stroke="#63b8ff" d="M204.3,-104.95C216.93,-95.61 232.41,-84.16 243.04,-76.3"/>
<polygon fill="#63b8ff" stroke="#63b8ff" points="202.5,-101.93 196.55,-110.69 206.67,-107.56 202.5,-101.93"/>
</a>
</g>
</g>
</g>
</svg>
