<?xml version="1.0" encoding="UTF-8" standalone="no"?>
<!DOCTYPE svg PUBLIC "-//W3C//DTD SVG 1.1//EN"
 "http://www.w3.org/Graphics/SVG/1.1/DTD/svg11.dtd">
<!-- Generated by graphviz version 12.1.0 (20240811.2233)
 -->
<!-- Title: PlayerControl.hpp Pages: 1 -->
<svg width="918pt" height="308pt"
 viewBox="0.00 0.00 917.75 308.00" xmlns="http://www.w3.org/2000/svg" xmlns:xlink="http://www.w3.org/1999/xlink">
<g id="graph0" class="graph" transform="scale(1 1) rotate(0) translate(4 304)">
<title>PlayerControl.hpp</title>
<!-- Node1 -->
<g id="Node000001" class="node">
<title>Node1</title>
<g id="a_Node000001"><a xlink:title=" ">
<polygon fill="#999999" stroke="#666666" points="422,-300 328,-300 328,-280 422,-280 422,-300"/>
<text text-anchor="middle" x="375" y="-286.5" font-family="Helvetica,sans-Serif" font-size="10.00">PlayerControl.hpp</text>
</a>
</g>
</g>
<!-- Node2 -->
<g id="Node000002" class="node">
<title>Node2</title>
<g id="a_Node000002"><a xlink:title=" ">
<polygon fill="#e0e0e0" stroke="#999999" points="79.62,-132 28.38,-132 28.38,-112 79.62,-112 79.62,-132"/>
<text text-anchor="middle" x="54" y="-118.5" font-family="Helvetica,sans-Serif" font-size="10.00">memory</text>
</a>
</g>
</g>
<!-- Node1&#45;&gt;Node2 -->
<g id="edge1_Node000001_Node000002" class="edge">
<title>Node1&#45;&gt;Node2</title>
<g id="a_edge1_Node000001_Node000002"><a xlink:title=" ">
<path fill="none" stroke="#63b8ff" d="M338.49,-279.57C310.75,-271.76 272.05,-259.45 240,-244 176.2,-213.24 108.11,-164.25 74.79,-139.09"/>
<polygon fill="#63b8ff" stroke="#63b8ff" points="77.26,-136.57 67.18,-133.29 73.01,-142.13 77.26,-136.57"/>
</a>
</g>
</g>
<!-- Node3 -->
<g id="Node000003" class="node">
<title>Node3</title>
<g id="a_Node000003"><a xlink:title=" ">
<polygon fill="#e0e0e0" stroke="#999999" points="156,-20 116,-20 116,0 156,0 156,-20"/>
<text text-anchor="middle" x="136" y="-6.5" font-family="Helvetica,sans-Serif" font-size="10.00">bitset</text>
</a>
</g>
</g>
<!-- Node1&#45;&gt;Node3 -->
<g id="edge2_Node000001_Node000003" class="edge">
<title>Node1&#45;&gt;Node3</title>
<g id="a_edge2_Node000001_Node000003"><a xlink:title=" ">
<path fill="none" stroke="#63b8ff" d="M327.51,-285.11C226.6,-275.53 0,-246.51 0,-179 0,-179 0,-179 0,-121 0,-67.4 64.64,-35.42 104.79,-20.73"/>
<polygon fill="#63b8ff" stroke="#63b8ff" points="105.91,-24.05 114.21,-17.46 103.61,-17.44 105.91,-24.05"/>
</a>
</g>
</g>
<!-- Node4 -->
<g id="Node000004" class="node">
<title>Node4</title>
<g id="a_Node000004"><a xlink:href="System_8hpp.html" target="_top" xlink:title=" ">
<polygon fill="white" stroke="#666666" points="166.25,-132 97.75,-132 97.75,-112 166.25,-112 166.25,-132"/>
<text text-anchor="middle" x="132" y="-118.5" font-family="Helvetica,sans-Serif" font-size="10.00">System.hpp</text>
</a>
</g>
</g>
<!-- Node1&#45;&gt;Node4 -->
<g id="edge3_Node000001_Node000004" class="edge">
<title>Node1&#45;&gt;Node4</title>
<g id="a_edge3_Node000001_Node000004"><a xlink:title=" ">
<path fill="none" stroke="#63b8ff" d="M351.67,-279.54C314.8,-263.92 241.82,-230.21 189,-188 172.02,-174.43 156,-155.41 145.3,-141.45"/>
<polygon fill="#63b8ff" stroke="#63b8ff" points="148.19,-139.47 139.41,-133.54 142.58,-143.65 148.19,-139.47"/>
</a>
</g>
</g>
<!-- Node8 -->
<g id="Node000008" class="node">
<title>Node8</title>
<g id="a_Node000008"><a xlink:href="Mediator_8hpp.html" target="_top" xlink:title=" ">
<polygon fill="white" stroke="#666666" points="411.12,-244 338.88,-244 338.88,-224 411.12,-224 411.12,-244"/>
<text text-anchor="middle" x="375" y="-230.5" font-family="Helvetica,sans-Serif" font-size="10.00">Mediator.hpp</text>
</a>
</g>
</g>
<!-- Node1&#45;&gt;Node8 -->
<g id="edge8_Node000001_Node000008" class="edge">
<title>Node1&#45;&gt;Node8</title>
<g id="a_edge8_Node000001_Node000008"><a xlink:title=" ">
<path fill="none" stroke="#63b8ff" d="M375,-279.59C375,-273.01 375,-263.96 375,-255.73"/>
<polygon fill="#63b8ff" stroke="#63b8ff" points="378.5,-255.81 375,-245.81 371.5,-255.81 378.5,-255.81"/>
</a>
</g>
</g>
<!-- Node19 -->
<g id="Node000019" class="node">
<title>Node19</title>
<g id="a_Node000019"><a xlink:href="Event_8hpp.html" target="_top" xlink:title=" ">
<polygon fill="white" stroke="#666666" points="696.12,-132 635.88,-132 635.88,-112 696.12,-112 696.12,-132"/>
<text text-anchor="middle" x="666" y="-118.5" font-family="Helvetica,sans-Serif" font-size="10.00">Event.hpp</text>
</a>
</g>
</g>
<!-- Node1&#45;&gt;Node19 -->
<g id="edge35_Node000001_Node000019" class="edge">
<title>Node1&#45;&gt;Node19</title>
<g id="a_edge35_Node000001_Node000019"><a xlink:title=" ">
<path fill="none" stroke="#63b8ff" d="M394.94,-279.52C430.54,-262.41 507.11,-224.7 569,-188 595.43,-172.33 624.57,-152.43 643.94,-138.8"/>
<polygon fill="#63b8ff" stroke="#63b8ff" points="645.74,-141.81 651.88,-133.18 641.7,-136.1 645.74,-141.81"/>
</a>
</g>
</g>
<!-- Node23 -->
<g id="Node000023" class="node">
<title>Node23</title>
<g id="a_Node000023"><a xlink:href="Transform_8hpp.html" target="_top" xlink:title=" ">
<polygon fill="white" stroke="#666666" points="753.75,-244 616.25,-244 616.25,-224 753.75,-224 753.75,-244"/>
<text text-anchor="middle" x="685" y="-230.5" font-family="Helvetica,sans-Serif" font-size="10.00">Components/Transform.hpp</text>
</a>
</g>
</g>
<!-- Node1&#45;&gt;Node23 -->
<g id="edge36_Node000001_Node000023" class="edge">
<title>Node1&#45;&gt;Node23</title>
<g id="a_edge36_Node000001_Node000023"><a xlink:title=" ">
<path fill="none" stroke="#63b8ff" d="M422.42,-280.74C475.08,-271.57 560.44,-256.7 619.47,-246.42"/>
<polygon fill="#63b8ff" stroke="#63b8ff" points="619.79,-249.91 629.04,-244.75 618.59,-243.02 619.79,-249.91"/>
</a>
</g>
</g>
<!-- Node25 -->
<g id="Node000025" class="node">
<title>Node25</title>
<g id="a_Node000025"><a xlink:href="RigidBody_8hpp.html" target="_top" xlink:title=" ">
<polygon fill="white" stroke="#666666" points="909.75,-244 772.25,-244 772.25,-224 909.75,-224 909.75,-244"/>
<text text-anchor="middle" x="841" y="-230.5" font-family="Helvetica,sans-Serif" font-size="10.00">Components/RigidBody.hpp</text>
</a>
</g>
</g>
<!-- Node1&#45;&gt;Node25 -->
<g id="edge39_Node000001_Node000025" class="edge">
<title>Node1&#45;&gt;Node25</title>
<g id="a_edge39_Node000001_Node000025"><a xlink:title=" ">
<path fill="none" stroke="#63b8ff" d="M422.25,-283.53C501.71,-274.32 662.95,-255.63 760.53,-244.32"/>
<polygon fill="#63b8ff" stroke="#63b8ff" points="760.78,-247.82 770.31,-243.19 759.97,-240.87 760.78,-247.82"/>
</a>
</g>
</g>
<!-- Node5 -->
<g id="Node000005" class="node">
<title>Node5</title>
<g id="a_Node000005"><a xlink:title=" ">
<polygon fill="#e0e0e0" stroke="#999999" points="146.75,-76 117.25,-76 117.25,-56 146.75,-56 146.75,-76"/>
<text text-anchor="middle" x="132" y="-62.5" font-family="Helvetica,sans-Serif" font-size="10.00">set</text>
</a>
</g>
</g>
<!-- Node4&#45;&gt;Node5 -->
<g id="edge4_Node000004_Node000005" class="edge">
<title>Node4&#45;&gt;Node5</title>
<g id="a_edge4_Node000004_Node000005"><a xlink:title=" ">
<path fill="none" stroke="#63b8ff" d="M132,-111.59C132,-105.01 132,-95.96 132,-87.73"/>
<polygon fill="#63b8ff" stroke="#63b8ff" points="135.5,-87.81 132,-77.81 128.5,-87.81 135.5,-87.81"/>
</a>
</g>
</g>
<!-- Node6 -->
<g id="Node000006" class="node">
<title>Node6</title>
<g id="a_Node000006"><a xlink:href="Entity_8hpp.html" target="_top" xlink:title=" ">
<polygon fill="white" stroke="#666666" points="301.75,-76 242.25,-76 242.25,-56 301.75,-56 301.75,-76"/>
<text text-anchor="middle" x="272" y="-62.5" font-family="Helvetica,sans-Serif" font-size="10.00">Entity.hpp</text>
</a>
</g>
</g>
<!-- Node4&#45;&gt;Node6 -->
<g id="edge5_Node000004_Node000006" class="edge">
<title>Node4&#45;&gt;Node6</title>
<g id="a_edge5_Node000004_Node000006"><a xlink:title=" ">
<path fill="none" stroke="#63b8ff" d="M156.39,-111.59C178.63,-103.01 211.77,-90.23 236.87,-80.55"/>
<polygon fill="#63b8ff" stroke="#63b8ff" points="237.94,-83.89 246.01,-77.02 235.42,-77.36 237.94,-83.89"/>
</a>
</g>
</g>
<!-- Node6&#45;&gt;Node3 -->
<g id="edge7_Node000006_Node000003" class="edge">
<title>Node6&#45;&gt;Node3</title>
<g id="a_edge7_Node000006_Node000003"><a xlink:title=" ">
<path fill="none" stroke="#63b8ff" d="M248.31,-55.59C225.74,-46.63 191.63,-33.09 166.93,-23.28"/>
<polygon fill="#63b8ff" stroke="#63b8ff" points="168.31,-20.06 157.72,-19.62 165.72,-26.57 168.31,-20.06"/>
</a>
</g>
</g>
<!-- Node7 -->
<g id="Node000007" class="node">
<title>Node7</title>
<g id="a_Node000007"><a xlink:title=" ">
<polygon fill="#e0e0e0" stroke="#999999" points="666.62,-20 621.38,-20 621.38,0 666.62,0 666.62,-20"/>
<text text-anchor="middle" x="644" y="-6.5" font-family="Helvetica,sans-Serif" font-size="10.00">cstdint</text>
</a>
</g>
</g>
<!-- Node6&#45;&gt;Node7 -->
<g id="edge6_Node000006_Node000007" class="edge">
<title>Node6&#45;&gt;Node7</title>
<g id="a_edge6_Node000006_Node000007"><a xlink:title=" ">
<path fill="none" stroke="#63b8ff" d="M302.13,-60.63C370.62,-50.68 537.64,-26.44 609.83,-15.96"/>
<polygon fill="#63b8ff" stroke="#63b8ff" points="610.08,-19.46 619.47,-14.56 609.08,-12.53 610.08,-19.46"/>
</a>
</g>
</g>
<!-- Node8&#45;&gt;Node2 -->
<g id="edge9_Node000008_Node000002" class="edge">
<title>Node8&#45;&gt;Node2</title>
<g id="a_edge9_Node000008_Node000002"><a xlink:title=" ">
<path fill="none" stroke="#63b8ff" d="M338.68,-226.58C300.71,-219.32 239.69,-206.1 189,-188 150.03,-174.08 107.36,-152.36 80.64,-137.91"/>
<polygon fill="#63b8ff" stroke="#63b8ff" points="82.34,-134.85 71.88,-133.12 78.97,-140.99 82.34,-134.85"/>
</a>
</g>
</g>
<!-- Node9 -->
<g id="Node000009" class="node">
<title>Node9</title>
<g id="a_Node000009"><a xlink:href="EntityManager_8hpp.html" target="_top" xlink:title=" ">
<polygon fill="white" stroke="#666666" points="295.88,-188 198.12,-188 198.12,-168 295.88,-168 295.88,-188"/>
<text text-anchor="middle" x="247" y="-174.5" font-family="Helvetica,sans-Serif" font-size="10.00">EntityManager.hpp</text>
</a>
</g>
</g>
<!-- Node8&#45;&gt;Node9 -->
<g id="edge10_Node000008_Node000009" class="edge">
<title>Node8&#45;&gt;Node9</title>
<g id="a_edge10_Node000008_Node000009"><a xlink:title=" ">
<path fill="none" stroke="#63b8ff" d="M352.7,-223.59C332.64,-215.13 302.88,-202.58 280.05,-192.94"/>
<polygon fill="#63b8ff" stroke="#63b8ff" points="281.44,-189.73 270.86,-189.07 278.72,-196.18 281.44,-189.73"/>
</a>
</g>
</g>
<!-- Node12 -->
<g id="Node000012" class="node">
<title>Node12</title>
<g id="a_Node000012"><a xlink:href="ComponentManager_8hpp.html" target="_top" xlink:title=" ">
<polygon fill="white" stroke="#666666" points="436.25,-188 313.75,-188 313.75,-168 436.25,-168 436.25,-188"/>
<text text-anchor="middle" x="375" y="-174.5" font-family="Helvetica,sans-Serif" font-size="10.00">ComponentManager.hpp</text>
</a>
</g>
</g>
<!-- Node8&#45;&gt;Node12 -->
<g id="edge14_Node000008_Node000012" class="edge">
<title>Node8&#45;&gt;Node12</title>
<g id="a_edge14_Node000008_Node000012"><a xlink:title=" ">
<path fill="none" stroke="#63b8ff" d="M375,-223.59C375,-217.01 375,-207.96 375,-199.73"/>
<polygon fill="#63b8ff" stroke="#63b8ff" points="378.5,-199.81 375,-189.81 371.5,-199.81 378.5,-199.81"/>
</a>
</g>
</g>
<!-- Node17 -->
<g id="Node000017" class="node">
<title>Node17</title>
<g id="a_Node000017"><a xlink:href="SystemManager_8hpp.html" target="_top" xlink:title=" ">
<polygon fill="white" stroke="#666666" points="560,-188 454,-188 454,-168 560,-168 560,-188"/>
<text text-anchor="middle" x="507" y="-174.5" font-family="Helvetica,sans-Serif" font-size="10.00">SystemManager.hpp</text>
</a>
</g>
</g>
<!-- Node8&#45;&gt;Node17 -->
<g id="edge23_Node000008_Node000017" class="edge">
<title>Node8&#45;&gt;Node17</title>
<g id="a_edge23_Node000008_Node000017"><a xlink:title=" ">
<path fill="none" stroke="#63b8ff" d="M397.99,-223.59C418.78,-215.09 449.65,-202.46 473.24,-192.81"/>
<polygon fill="#63b8ff" stroke="#63b8ff" points="474.5,-196.08 482.43,-189.05 471.85,-189.6 474.5,-196.08"/>
</a>
</g>
</g>
<!-- Node18 -->
<g id="Node000018" class="node">
<title>Node18</title>
<g id="a_Node000018"><a xlink:href="EventManager_8hpp.html" target="_top" xlink:title=" ">
<polygon fill="white" stroke="#666666" points="752.88,-188 655.12,-188 655.12,-168 752.88,-168 752.88,-188"/>
<text text-anchor="middle" x="704" y="-174.5" font-family="Helvetica,sans-Serif" font-size="10.00">EventManager.hpp</text>
</a>
</g>
</g>
<!-- Node8&#45;&gt;Node18 -->
<g id="edge28_Node000008_Node000018" class="edge">
<title>Node8&#45;&gt;Node18</title>
<g id="a_edge28_Node000008_Node000018"><a xlink:title=" ">
<path fill="none" stroke="#63b8ff" d="M411.47,-227.01C467.65,-217.79 575.97,-200.01 643.87,-188.87"/>
<polygon fill="#63b8ff" stroke="#63b8ff" points="644.03,-192.39 653.33,-187.32 642.89,-185.48 644.03,-192.39"/>
</a>
</g>
</g>
<!-- Node9&#45;&gt;Node6 -->
<g id="edge13_Node000009_Node000006" class="edge">
<title>Node9&#45;&gt;Node6</title>
<g id="a_edge13_Node000009_Node000006"><a xlink:title=" ">
<path fill="none" stroke="#63b8ff" d="M236.2,-167.81C222.86,-155.28 203.06,-132.09 213,-112 219.19,-99.5 230.7,-89.52 241.92,-82.17"/>
<polygon fill="#63b8ff" stroke="#63b8ff" points="243.49,-85.31 250.27,-77.17 239.89,-79.31 243.49,-85.31"/>
</a>
</g>
</g>
<!-- Node10 -->
<g id="Node000010" class="node">
<title>Node10</title>
<g id="a_Node000010"><a xlink:title=" ">
<polygon fill="#e0e0e0" stroke="#999999" points="264.12,-132 221.88,-132 221.88,-112 264.12,-112 264.12,-132"/>
<text text-anchor="middle" x="243" y="-118.5" font-family="Helvetica,sans-Serif" font-size="10.00">queue</text>
</a>
</g>
</g>
<!-- Node9&#45;&gt;Node10 -->
<g id="edge11_Node000009_Node000010" class="edge">
<title>Node9&#45;&gt;Node10</title>
<g id="a_edge11_Node000009_Node000010"><a xlink:title=" ">
<path fill="none" stroke="#63b8ff" d="M246.3,-167.59C245.82,-161.01 245.15,-151.96 244.54,-143.73"/>
<polygon fill="#63b8ff" stroke="#63b8ff" points="248.03,-143.52 243.8,-133.81 241.05,-144.04 248.03,-143.52"/>
</a>
</g>
</g>
<!-- Node11 -->
<g id="Node000011" class="node">
<title>Node11</title>
<g id="a_Node000011"><a xlink:title=" ">
<polygon fill="#e0e0e0" stroke="#999999" points="319.88,-132 282.12,-132 282.12,-112 319.88,-112 319.88,-132"/>
<text text-anchor="middle" x="301" y="-118.5" font-family="Helvetica,sans-Serif" font-size="10.00">array</text>
</a>
</g>
</g>
<!-- Node9&#45;&gt;Node11 -->
<g id="edge12_Node000009_Node000011" class="edge">
<title>Node9&#45;&gt;Node11</title>
<g id="a_edge12_Node000009_Node000011"><a xlink:title=" ">
<path fill="none" stroke="#63b8ff" d="M256.41,-167.59C263.92,-160.08 274.65,-149.35 283.7,-140.3"/>
<polygon fill="#63b8ff" stroke="#63b8ff" points="286.04,-142.91 290.63,-133.37 281.09,-137.96 286.04,-142.91"/>
</a>
</g>
</g>
<!-- Node12&#45;&gt;Node2 -->
<g id="edge17_Node000012_Node000002" class="edge">
<title>Node12&#45;&gt;Node2</title>
<g id="a_edge17_Node000012_Node000002"><a xlink:title=" ">
<path fill="none" stroke="#63b8ff" d="M313.32,-169.03C257.69,-161.45 173.41,-149 91.01,-132.25"/>
<polygon fill="#63b8ff" stroke="#63b8ff" points="91.91,-128.86 81.41,-130.27 90.5,-135.71 91.91,-128.86"/>
</a>
</g>
</g>
<!-- Node12&#45;&gt;Node6 -->
<g id="edge18_Node000012_Node000006" class="edge">
<title>Node12&#45;&gt;Node6</title>
<g id="a_edge18_Node000012_Node000006"><a xlink:title=" ">
<path fill="none" stroke="#63b8ff" d="M369.51,-167.55C361.56,-154.3 345.94,-129.85 329,-112 318.9,-101.36 306.2,-91.09 295.36,-83.06"/>
<polygon fill="#63b8ff" stroke="#63b8ff" points="297.44,-80.24 287.28,-77.25 293.35,-85.93 297.44,-80.24"/>
</a>
</g>
</g>
<!-- Node13 -->
<g id="Node000013" class="node">
<title>Node13</title>
<g id="a_Node000013"><a xlink:title=" ">
<polygon fill="#e0e0e0" stroke="#999999" points="599.38,-76 516.62,-76 516.62,-56 599.38,-56 599.38,-76"/>
<text text-anchor="middle" x="558" y="-62.5" font-family="Helvetica,sans-Serif" font-size="10.00">unordered_map</text>
</a>
</g>
</g>
<!-- Node12&#45;&gt;Node13 -->
<g id="edge15_Node000012_Node000013" class="edge">
<title>Node12&#45;&gt;Node13</title>
<g id="a_edge15_Node000012_Node000013"><a xlink:title=" ">
<path fill="none" stroke="#63b8ff" d="M411.18,-167.54C435.53,-160.16 467.7,-148.39 493,-132 513,-119.05 531.78,-99.09 543.96,-84.71"/>
<polygon fill="#63b8ff" stroke="#63b8ff" points="546.35,-87.31 550,-77.36 540.94,-82.87 546.35,-87.31"/>
</a>
</g>
</g>
<!-- Node14 -->
<g id="Node000014" class="node">
<title>Node14</title>
<g id="a_Node000014"><a xlink:title=" ">
<polygon fill="#e0e0e0" stroke="#999999" points="580,-132 540,-132 540,-112 580,-112 580,-132"/>
<text text-anchor="middle" x="560" y="-118.5" font-family="Helvetica,sans-Serif" font-size="10.00">string</text>
</a>
</g>
</g>
<!-- Node12&#45;&gt;Node14 -->
<g id="edge16_Node000012_Node000014" class="edge">
<title>Node12&#45;&gt;Node14</title>
<g id="a_edge16_Node000012_Node000014"><a xlink:title=" ">
<path fill="none" stroke="#63b8ff" d="M407.22,-167.59C441.45,-157.6 495.18,-141.92 528.95,-132.06"/>
<polygon fill="#63b8ff" stroke="#63b8ff" points="529.51,-135.55 538.13,-129.38 527.55,-128.83 529.51,-135.55"/>
</a>
</g>
</g>
<!-- Node15 -->
<g id="Node000015" class="node">
<title>Node15</title>
<g id="a_Node000015"><a xlink:href="ComponentArray_8hpp.html" target="_top" xlink:title=" ">
<polygon fill="white" stroke="#666666" points="483.75,-132 376.25,-132 376.25,-112 483.75,-112 483.75,-132"/>
<text text-anchor="middle" x="430" y="-118.5" font-family="Helvetica,sans-Serif" font-size="10.00">ComponentArray.hpp</text>
</a>
</g>
</g>
<!-- Node12&#45;&gt;Node15 -->
<g id="edge19_Node000012_Node000015" class="edge">
<title>Node12&#45;&gt;Node15</title>
<g id="a_edge19_Node000012_Node000015"><a xlink:title=" ">
<path fill="none" stroke="#63b8ff" d="M384.58,-167.59C392.23,-160.08 403.16,-149.35 412.38,-140.3"/>
<polygon fill="#63b8ff" stroke="#63b8ff" points="414.77,-142.86 419.45,-133.36 409.86,-137.87 414.77,-142.86"/>
</a>
</g>
</g>
<!-- Node15&#45;&gt;Node6 -->
<g id="edge22_Node000015_Node000006" class="edge">
<title>Node15&#45;&gt;Node6</title>
<g id="a_edge22_Node000015_Node000006"><a xlink:title=" ">
<path fill="none" stroke="#63b8ff" d="M402.48,-111.59C377.03,-102.9 338.97,-89.89 310.51,-80.16"/>
<polygon fill="#63b8ff" stroke="#63b8ff" points="311.76,-76.89 301.17,-76.97 309.5,-83.52 311.76,-76.89"/>
</a>
</g>
</g>
<!-- Node15&#45;&gt;Node13 -->
<g id="edge21_Node000015_Node000013" class="edge">
<title>Node15&#45;&gt;Node13</title>
<g id="a_edge21_Node000015_Node000013"><a xlink:title=" ">
<path fill="none" stroke="#63b8ff" d="M452.3,-111.59C472.36,-103.13 502.12,-90.58 524.95,-80.94"/>
<polygon fill="#63b8ff" stroke="#63b8ff" points="526.28,-84.18 534.14,-77.07 523.56,-77.73 526.28,-84.18"/>
</a>
</g>
</g>
<!-- Node16 -->
<g id="Node000016" class="node">
<title>Node16</title>
<g id="a_Node000016"><a xlink:title=" ">
<polygon fill="#e0e0e0" stroke="#999999" points="459,-76 401,-76 401,-56 459,-56 459,-76"/>
<text text-anchor="middle" x="430" y="-62.5" font-family="Helvetica,sans-Serif" font-size="10.00">exception</text>
</a>
</g>
</g>
<!-- Node15&#45;&gt;Node16 -->
<g id="edge20_Node000015_Node000016" class="edge">
<title>Node15&#45;&gt;Node16</title>
<g id="a_edge20_Node000015_Node000016"><a xlink:title=" ">
<path fill="none" stroke="#63b8ff" d="M430,-111.59C430,-105.01 430,-95.96 430,-87.73"/>
<polygon fill="#63b8ff" stroke="#63b8ff" points="433.5,-87.81 430,-77.81 426.5,-87.81 433.5,-87.81"/>
</a>
</g>
</g>
<!-- Node17&#45;&gt;Node2 -->
<g id="edge26_Node000017_Node000002" class="edge">
<title>Node17&#45;&gt;Node2</title>
<g id="a_edge26_Node000017_Node000002"><a xlink:title=" ">
<path fill="none" stroke="#63b8ff" d="M453.59,-169.1C450.68,-168.71 447.81,-168.35 445,-168 290.71,-149.01 247.49,-159.39 90.88,-132.07"/>
<polygon fill="#63b8ff" stroke="#63b8ff" points="91.85,-128.68 81.39,-130.39 90.63,-135.58 91.85,-128.68"/>
</a>
</g>
</g>
<!-- Node17&#45;&gt;Node4 -->
<g id="edge27_Node000017_Node000004" class="edge">
<title>Node17&#45;&gt;Node4</title>
<g id="a_edge27_Node000017_Node000004"><a xlink:title=" ">
<path fill="none" stroke="#63b8ff" d="M453.57,-169.24C450.67,-168.82 447.8,-168.4 445,-168 350.06,-154.28 238.9,-138.33 177.89,-129.58"/>
<polygon fill="#63b8ff" stroke="#63b8ff" points="178.63,-126.15 168.24,-128.19 177.64,-133.08 178.63,-126.15"/>
</a>
</g>
</g>
<!-- Node17&#45;&gt;Node13 -->
<g id="edge24_Node000017_Node000013" class="edge">
<title>Node17&#45;&gt;Node13</title>
<g id="a_edge24_Node000017_Node000013"><a xlink:title=" ">
<path fill="none" stroke="#63b8ff" d="M540.9,-167.59C558.55,-160.78 578.58,-149.61 589,-132 598.21,-116.44 587.12,-97.72 575.73,-84.37"/>
<polygon fill="#63b8ff" stroke="#63b8ff" points="578.44,-82.14 569.07,-77.2 573.31,-86.91 578.44,-82.14"/>
</a>
</g>
</g>
<!-- Node17&#45;&gt;Node14 -->
<g id="edge25_Node000017_Node000014" class="edge">
<title>Node17&#45;&gt;Node14</title>
<g id="a_edge25_Node000017_Node000014"><a xlink:title=" ">
<path fill="none" stroke="#63b8ff" d="M516.23,-167.59C523.6,-160.08 534.13,-149.35 543.02,-140.3"/>
<polygon fill="#63b8ff" stroke="#63b8ff" points="545.31,-142.97 549.81,-133.38 540.31,-138.06 545.31,-142.97"/>
</a>
</g>
</g>
<!-- Node18&#45;&gt;Node19 -->
<g id="edge29_Node000018_Node000019" class="edge">
<title>Node18&#45;&gt;Node19</title>
<g id="a_edge29_Node000018_Node000019"><a xlink:title=" ">
<path fill="none" stroke="#63b8ff" d="M697.38,-167.59C692.31,-160.39 685.16,-150.23 678.97,-141.43"/>
<polygon fill="#63b8ff" stroke="#63b8ff" points="682.03,-139.7 673.41,-133.54 676.31,-143.73 682.03,-139.7"/>
</a>
</g>
</g>
<!-- Node21 -->
<g id="Node000021" class="node">
<title>Node21</title>
<g id="a_Node000021"><a xlink:title=" ">
<polygon fill="#e0e0e0" stroke="#999999" points="772,-132 714,-132 714,-112 772,-112 772,-132"/>
<text text-anchor="middle" x="743" y="-118.5" font-family="Helvetica,sans-Serif" font-size="10.00">functional</text>
</a>
</g>
</g>
<!-- Node18&#45;&gt;Node21 -->
<g id="edge33_Node000018_Node000021" class="edge">
<title>Node18&#45;&gt;Node21</title>
<g id="a_edge33_Node000018_Node000021"><a xlink:title=" ">
<path fill="none" stroke="#63b8ff" d="M710.79,-167.59C715.99,-160.39 723.33,-150.23 729.69,-141.43"/>
<polygon fill="#63b8ff" stroke="#63b8ff" points="732.38,-143.68 735.4,-133.53 726.71,-139.58 732.38,-143.68"/>
</a>
</g>
</g>
<!-- Node22 -->
<g id="Node000022" class="node">
<title>Node22</title>
<g id="a_Node000022"><a xlink:title=" ">
<polygon fill="#e0e0e0" stroke="#999999" points="818.4,-132 789.6,-132 789.6,-112 818.4,-112 818.4,-132"/>
<text text-anchor="middle" x="804" y="-118.5" font-family="Helvetica,sans-Serif" font-size="10.00">list</text>
</a>
</g>
</g>
<!-- Node18&#45;&gt;Node22 -->
<g id="edge34_Node000018_Node000022" class="edge">
<title>Node18&#45;&gt;Node22</title>
<g id="a_edge34_Node000018_Node000022"><a xlink:title=" ">
<path fill="none" stroke="#63b8ff" d="M721.42,-167.59C737.43,-158.95 761.35,-146.03 779.33,-136.32"/>
<polygon fill="#63b8ff" stroke="#63b8ff" points="780.91,-139.45 788.05,-131.61 777.58,-133.29 780.91,-139.45"/>
</a>
</g>
</g>
<!-- Node19&#45;&gt;Node7 -->
<g id="edge30_Node000019_Node000007" class="edge">
<title>Node19&#45;&gt;Node7</title>
<g id="a_edge30_Node000019_Node000007"><a xlink:title=" ">
<path fill="none" stroke="#63b8ff" d="M664.12,-111.62C660.58,-93.92 652.85,-55.24 648.06,-31.32"/>
<polygon fill="#63b8ff" stroke="#63b8ff" points="651.56,-30.96 646.17,-21.84 644.7,-32.33 651.56,-30.96"/>
</a>
</g>
</g>
<!-- Node19&#45;&gt;Node13 -->
<g id="edge31_Node000019_Node000013" class="edge">
<title>Node19&#45;&gt;Node13</title>
<g id="a_edge31_Node000019_Node000013"><a xlink:title=" ">
<path fill="none" stroke="#63b8ff" d="M647.19,-111.59C630.64,-103.32 606.29,-91.14 587.21,-81.6"/>
<polygon fill="#63b8ff" stroke="#63b8ff" points="588.82,-78.5 578.31,-77.16 585.69,-84.76 588.82,-78.5"/>
</a>
</g>
</g>
<!-- Node20 -->
<g id="Node000020" class="node">
<title>Node20</title>
<g id="a_Node000020"><a xlink:title=" ">
<polygon fill="#e0e0e0" stroke="#999999" points="703.88,-76 672.12,-76 672.12,-56 703.88,-56 703.88,-76"/>
<text text-anchor="middle" x="688" y="-62.5" font-family="Helvetica,sans-Serif" font-size="10.00">any</text>
</a>
</g>
</g>
<!-- Node19&#45;&gt;Node20 -->
<g id="edge32_Node000019_Node000020" class="edge">
<title>Node19&#45;&gt;Node20</title>
<g id="a_edge32_Node000019_Node000020"><a xlink:title=" ">
<path fill="none" stroke="#63b8ff" d="M669.83,-111.59C672.61,-104.78 676.46,-95.32 679.91,-86.86"/>
<polygon fill="#63b8ff" stroke="#63b8ff" points="683.11,-88.28 683.64,-77.7 676.63,-85.64 683.11,-88.28"/>
</a>
</g>
</g>
<!-- Node24 -->
<g id="Node000024" class="node">
<title>Node24</title>
<g id="a_Node000024"><a xlink:href="Utils_8hpp.html" target="_top" xlink:title=" ">
<polygon fill="white" stroke="#666666" points="868.5,-188 813.5,-188 813.5,-168 868.5,-168 868.5,-188"/>
<text text-anchor="middle" x="841" y="-174.5" font-family="Helvetica,sans-Serif" font-size="10.00">Utils.hpp</text>
</a>
</g>
</g>
<!-- Node23&#45;&gt;Node24 -->
<g id="edge37_Node000023_Node000024" class="edge">
<title>Node23&#45;&gt;Node24</title>
<g id="a_edge37_Node000023_Node000024"><a xlink:title=" ">
<path fill="none" stroke="#63b8ff" d="M712.17,-223.59C737.3,-214.9 774.88,-201.89 802.98,-192.16"/>
<polygon fill="#63b8ff" stroke="#63b8ff" points="803.88,-195.55 812.18,-188.97 801.59,-188.94 803.88,-195.55"/>
</a>
</g>
</g>
<!-- Node24&#45;&gt;Node7 -->
<g id="edge38_Node000024_Node000007" class="edge">
<title>Node24&#45;&gt;Node7</title>
<g id="a_edge38_Node000024_Node000007"><a xlink:title=" ">
<path fill="none" stroke="#63b8ff" d="M841.31,-167.62C841.28,-154.04 839.4,-128.67 827,-112 789.69,-61.82 719.71,-33.44 677.93,-20.24"/>
<polygon fill="#63b8ff" stroke="#63b8ff" points="678.98,-16.9 668.4,-17.35 676.95,-23.6 678.98,-16.9"/>
</a>
</g>
</g>
<!-- Node25&#45;&gt;Node24 -->
<g id="edge40_Node000025_Node000024" class="edge">
<title>Node25&#45;&gt;Node24</title>
<g id="a_edge40_Node000025_Node000024"><a xlink:title=" ">
<path fill="none" stroke="#63b8ff" d="M841,-223.59C841,-217.01 841,-207.96 841,-199.73"/>
<polygon fill="#63b8ff" stroke="#63b8ff" points="844.5,-199.81 841,-189.81 837.5,-199.81 844.5,-199.81"/>
</a>
</g>
</g>
</g>
</svg>
