<?xml version="1.0" encoding="UTF-8" standalone="no"?>
<!DOCTYPE svg PUBLIC "-//W3C//DTD SVG 1.1//EN"
 "http://www.w3.org/Graphics/SVG/1.1/DTD/svg11.dtd">
<!-- Generated by graphviz version 12.1.0 (20240811.2233)
 -->
<!-- Title: Protocol.cpp Pages: 1 -->
<svg width="462pt" height="140pt"
 viewBox="0.00 0.00 462.00 140.00" xmlns="http://www.w3.org/2000/svg" xmlns:xlink="http://www.w3.org/1999/xlink">
<g id="graph0" class="graph" transform="scale(1 1) rotate(0) translate(4 136)">
<title>Protocol.cpp</title>
<!-- Node1 -->
<g id="Node000001" class="node">
<title>Node1</title>
<g id="a_Node000001"><a xlink:title=" ">
<polygon fill="#999999" stroke="#666666" points="334,-132 263.25,-132 263.25,-112 334,-112 334,-132"/>
<text text-anchor="middle" x="298.62" y="-118.5" font-family="Helvetica,sans-Serif" font-size="10.00">Protocol.cpp</text>
</a>
</g>
</g>
<!-- Node2 -->
<g id="Node000002" class="node">
<title>Node2</title>
<g id="a_Node000002"><a xlink:href="Protocol_8hpp.html" target="_top" xlink:title=" ">
<polygon fill="white" stroke="#666666" points="155,-76 84.25,-76 84.25,-56 155,-56 155,-76"/>
<text text-anchor="middle" x="119.62" y="-62.5" font-family="Helvetica,sans-Serif" font-size="10.00">Protocol.hpp</text>
</a>
</g>
</g>
<!-- Node1&#45;&gt;Node2 -->
<g id="edge1_Node000001_Node000002" class="edge">
<title>Node1&#45;&gt;Node2</title>
<g id="a_edge1_Node000001_Node000002"><a xlink:title=" ">
<path fill="none" stroke="#63b8ff" d="M267.45,-111.59C238.24,-102.78 194.35,-89.54 161.97,-79.78"/>
<polygon fill="#63b8ff" stroke="#63b8ff" points="163.08,-76.45 152.5,-76.92 161.06,-83.16 163.08,-76.45"/>
</a>
</g>
</g>
<!-- Node7 -->
<g id="Node000007" class="node">
<title>Node7</title>
<g id="a_Node000007"><a xlink:title=" ">
<polygon fill="#e0e0e0" stroke="#999999" points="313.88,-76 173.38,-76 173.38,-56 313.88,-56 313.88,-76"/>
<text text-anchor="middle" x="243.62" y="-62.5" font-family="Helvetica,sans-Serif" font-size="10.00">boost/endian/conversion.hpp</text>
</a>
</g>
</g>
<!-- Node1&#45;&gt;Node7 -->
<g id="edge6_Node000001_Node000007" class="edge">
<title>Node1&#45;&gt;Node7</title>
<g id="a_edge6_Node000001_Node000007"><a xlink:title=" ">
<path fill="none" stroke="#63b8ff" d="M289.04,-111.59C281.39,-104.08 270.47,-93.35 261.25,-84.3"/>
<polygon fill="#63b8ff" stroke="#63b8ff" points="263.76,-81.87 254.18,-77.36 258.86,-86.86 263.76,-81.87"/>
</a>
</g>
</g>
<!-- Node8 -->
<g id="Node000008" class="node">
<title>Node8</title>
<g id="a_Node000008"><a xlink:title=" ">
<polygon fill="#e0e0e0" stroke="#999999" points="377.25,-76 332,-76 332,-56 377.25,-56 377.25,-76"/>
<text text-anchor="middle" x="354.62" y="-62.5" font-family="Helvetica,sans-Serif" font-size="10.00">cstring</text>
</a>
</g>
</g>
<!-- Node1&#45;&gt;Node8 -->
<g id="edge7_Node000001_Node000008" class="edge">
<title>Node1&#45;&gt;Node8</title>
<g id="a_edge7_Node000001_Node000008"><a xlink:title=" ">
<path fill="none" stroke="#63b8ff" d="M308.38,-111.59C316.25,-104.01 327.52,-93.13 336.97,-84.02"/>
<polygon fill="#63b8ff" stroke="#63b8ff" points="339.12,-86.81 343.89,-77.35 334.26,-81.77 339.12,-86.81"/>
</a>
</g>
</g>
<!-- Node9 -->
<g id="Node000009" class="node">
<title>Node9</title>
<g id="a_Node000009"><a xlink:title=" ">
<polygon fill="#e0e0e0" stroke="#999999" points="454,-76 395.25,-76 395.25,-56 454,-56 454,-76"/>
<text text-anchor="middle" x="424.62" y="-62.5" font-family="Helvetica,sans-Serif" font-size="10.00">stdexcept</text>
</a>
</g>
</g>
<!-- Node1&#45;&gt;Node9 -->
<g id="edge8_Node000001_Node000009" class="edge">
<title>Node1&#45;&gt;Node9</title>
<g id="a_edge8_Node000001_Node000009"><a xlink:title=" ">
<path fill="none" stroke="#63b8ff" d="M320.57,-111.59C340.33,-103.13 369.62,-90.58 392.09,-80.94"/>
<polygon fill="#63b8ff" stroke="#63b8ff" points="393.3,-84.23 401.12,-77.08 390.54,-77.8 393.3,-84.23"/>
</a>
</g>
</g>
<!-- Node3 -->
<g id="Node000003" class="node">
<title>Node3</title>
<g id="a_Node000003"><a xlink:title=" ">
<polygon fill="#e0e0e0" stroke="#999999" points="45.25,-20 0,-20 0,0 45.25,0 45.25,-20"/>
<text text-anchor="middle" x="22.62" y="-6.5" font-family="Helvetica,sans-Serif" font-size="10.00">cstdint</text>
</a>
</g>
</g>
<!-- Node2&#45;&gt;Node3 -->
<g id="edge2_Node000002_Node000003" class="edge">
<title>Node2&#45;&gt;Node3</title>
<g id="a_edge2_Node000002_Node000003"><a xlink:title=" ">
<path fill="none" stroke="#63b8ff" d="M102.73,-55.59C88.08,-47.44 66.6,-35.48 49.58,-26"/>
<polygon fill="#63b8ff" stroke="#63b8ff" points="51.42,-23.02 40.98,-21.22 48.01,-29.14 51.42,-23.02"/>
</a>
</g>
</g>
<!-- Node4 -->
<g id="Node000004" class="node">
<title>Node4</title>
<g id="a_Node000004"><a xlink:title=" ">
<polygon fill="#e0e0e0" stroke="#999999" points="111.75,-20 63.5,-20 63.5,0 111.75,0 111.75,-20"/>
<text text-anchor="middle" x="87.62" y="-6.5" font-family="Helvetica,sans-Serif" font-size="10.00">cstddef</text>
</a>
</g>
</g>
<!-- Node2&#45;&gt;Node4 -->
<g id="edge3_Node000002_Node000004" class="edge">
<title>Node2&#45;&gt;Node4</title>
<g id="a_edge3_Node000002_Node000004"><a xlink:title=" ">
<path fill="none" stroke="#63b8ff" d="M114.05,-55.59C109.88,-48.55 104.02,-38.67 98.88,-30"/>
<polygon fill="#63b8ff" stroke="#63b8ff" points="102.02,-28.42 93.91,-21.6 95.99,-31.99 102.02,-28.42"/>
</a>
</g>
</g>
<!-- Node5 -->
<g id="Node000005" class="node">
<title>Node5</title>
<g id="a_Node000005"><a xlink:title=" ">
<polygon fill="#e0e0e0" stroke="#999999" points="173.12,-20 130.12,-20 130.12,0 173.12,0 173.12,-20"/>
<text text-anchor="middle" x="151.62" y="-6.5" font-family="Helvetica,sans-Serif" font-size="10.00">vector</text>
</a>
</g>
</g>
<!-- Node2&#45;&gt;Node5 -->
<g id="edge4_Node000002_Node000005" class="edge">
<title>Node2&#45;&gt;Node5</title>
<g id="a_edge4_Node000002_Node000005"><a xlink:title=" ">
<path fill="none" stroke="#63b8ff" d="M125.2,-55.59C129.37,-48.55 135.23,-38.67 140.37,-30"/>
<polygon fill="#63b8ff" stroke="#63b8ff" points="143.26,-31.99 145.34,-21.6 137.23,-28.42 143.26,-31.99"/>
</a>
</g>
</g>
<!-- Node6 -->
<g id="Node000006" class="node">
<title>Node6</title>
<g id="a_Node000006"><a xlink:title=" ">
<polygon fill="#e0e0e0" stroke="#999999" points="231.62,-20 191.62,-20 191.62,0 231.62,0 231.62,-20"/>
<text text-anchor="middle" x="211.62" y="-6.5" font-family="Helvetica,sans-Serif" font-size="10.00">string</text>
</a>
</g>
</g>
<!-- Node2&#45;&gt;Node6 -->
<g id="edge5_Node000002_Node000006" class="edge">
<title>Node2&#45;&gt;Node6</title>
<g id="a_edge5_Node000002_Node000006"><a xlink:title=" ">
<path fill="none" stroke="#63b8ff" d="M135.65,-55.59C149.42,-47.51 169.53,-35.71 185.6,-26.27"/>
<polygon fill="#63b8ff" stroke="#63b8ff" points="187.32,-29.33 194.17,-21.25 183.77,-23.29 187.32,-29.33"/>
</a>
</g>
</g>
</g>
</svg>
