<?xml version="1.0" encoding="UTF-8" standalone="no"?>
<!DOCTYPE svg PUBLIC "-//W3C//DTD SVG 1.1//EN"
 "http://www.w3.org/Graphics/SVG/1.1/DTD/svg11.dtd">
<!-- Generated by graphviz version 12.1.0 (20240811.2233)
 -->
<!-- Title: SFML.hpp Pages: 1 -->
<svg width="1541pt" height="476pt"
 viewBox="0.00 0.00 1540.83 476.00" xmlns="http://www.w3.org/2000/svg" xmlns:xlink="http://www.w3.org/1999/xlink">
<g id="graph0" class="graph" transform="scale(1 1) rotate(0) translate(4 472)">
<title>SFML.hpp</title>
<!-- Node1 -->
<g id="Node000001" class="node">
<title>Node1</title>
<g id="a_Node000001"><a xlink:title=" ">
<polygon fill="#999999" stroke="#666666" points="558,-468 497,-468 497,-448 558,-448 558,-468"/>
<text text-anchor="middle" x="527.5" y="-454.5" font-family="Helvetica,sans-Serif" font-size="10.00">SFML.hpp</text>
</a>
</g>
</g>
<!-- Node2 -->
<g id="Node000002" class="node">
<title>Node2</title>
<g id="a_Node000002"><a xlink:title=" ">
<polygon fill="#e0e0e0" stroke="#999999" points="103,-412 0,-412 0,-392 103,-392 103,-412"/>
<text text-anchor="middle" x="51.5" y="-398.5" font-family="Helvetica,sans-Serif" font-size="10.00">SFML/Graphics.hpp</text>
</a>
</g>
</g>
<!-- Node1&#45;&gt;Node2 -->
<g id="edge1_Node000001_Node000002" class="edge">
<title>Node1&#45;&gt;Node2</title>
<g id="a_edge1_Node000001_Node000002"><a xlink:title=" ">
<path fill="none" stroke="#63b8ff" d="M496.74,-454.07C429.52,-447.59 264.24,-431.18 114.6,-412.22"/>
<polygon fill="#63b8ff" stroke="#63b8ff" points="115.26,-408.78 104.9,-410.99 114.37,-415.72 115.26,-408.78"/>
</a>
</g>
</g>
<!-- Node3 -->
<g id="Node000003" class="node">
<title>Node3</title>
<g id="a_Node000003"><a xlink:title=" ">
<polygon fill="#e0e0e0" stroke="#999999" points="209.88,-412 121.12,-412 121.12,-392 209.88,-392 209.88,-412"/>
<text text-anchor="middle" x="165.5" y="-398.5" font-family="Helvetica,sans-Serif" font-size="10.00">SFML/Audio.hpp</text>
</a>
</g>
</g>
<!-- Node1&#45;&gt;Node3 -->
<g id="edge2_Node000001_Node000003" class="edge">
<title>Node1&#45;&gt;Node3</title>
<g id="a_edge2_Node000001_Node000003"><a xlink:title=" ">
<path fill="none" stroke="#63b8ff" d="M496.85,-452.54C442.01,-444.53 323.46,-427.15 223.5,-412 222.82,-411.9 222.14,-411.79 221.46,-411.69"/>
<polygon fill="#63b8ff" stroke="#63b8ff" points="222.05,-408.24 211.64,-410.19 221,-415.16 222.05,-408.24"/>
</a>
</g>
</g>
<!-- Node4 -->
<g id="Node000004" class="node">
<title>Node4</title>
<g id="a_Node000004"><a xlink:title=" ">
<polygon fill="#e0e0e0" stroke="#999999" points="572.88,-76 490.12,-76 490.12,-56 572.88,-56 572.88,-76"/>
<text text-anchor="middle" x="531.5" y="-62.5" font-family="Helvetica,sans-Serif" font-size="10.00">unordered_map</text>
</a>
</g>
</g>
<!-- Node1&#45;&gt;Node4 -->
<g id="edge3_Node000001_Node000004" class="edge">
<title>Node1&#45;&gt;Node4</title>
<g id="a_edge3_Node000001_Node000004"><a xlink:title=" ">
<path fill="none" stroke="#63b8ff" d="M496.74,-452.07C422.1,-439.26 237.5,-401.99 237.5,-347 237.5,-347 237.5,-347 237.5,-289 237.5,-189.79 291.43,-167.73 373.5,-112 404.84,-90.72 446.2,-79.4 478.74,-73.45"/>
<polygon fill="#63b8ff" stroke="#63b8ff" points="479.09,-76.94 488.36,-71.81 477.91,-70.04 479.09,-76.94"/>
</a>
</g>
</g>
<!-- Node5 -->
<g id="Node000005" class="node">
<title>Node5</title>
<g id="a_Node000005"><a xlink:title=" ">
<polygon fill="#e0e0e0" stroke="#999999" points="1307.5,-132 1267.5,-132 1267.5,-112 1307.5,-112 1307.5,-132"/>
<text text-anchor="middle" x="1287.5" y="-118.5" font-family="Helvetica,sans-Serif" font-size="10.00">string</text>
</a>
</g>
</g>
<!-- Node1&#45;&gt;Node5 -->
<g id="edge4_Node000001_Node000005" class="edge">
<title>Node1&#45;&gt;Node5</title>
<g id="a_edge4_Node000001_Node000005"><a xlink:title=" ">
<path fill="none" stroke="#63b8ff" d="M558.44,-456.63C718.96,-454.34 1449.5,-438.84 1449.5,-347 1449.5,-347 1449.5,-347 1449.5,-289 1449.5,-214.47 1364.82,-160.94 1317.91,-137"/>
<polygon fill="#63b8ff" stroke="#63b8ff" points="1319.56,-133.91 1309.05,-132.62 1316.46,-140.19 1319.56,-133.91"/>
</a>
</g>
</g>
<!-- Node6 -->
<g id="Node000006" class="node">
<title>Node6</title>
<g id="a_Node000006"><a xlink:title=" ">
<polygon fill="#e0e0e0" stroke="#999999" points="1151.12,-132 1099.88,-132 1099.88,-112 1151.12,-112 1151.12,-132"/>
<text text-anchor="middle" x="1125.5" y="-118.5" font-family="Helvetica,sans-Serif" font-size="10.00">memory</text>
</a>
</g>
</g>
<!-- Node1&#45;&gt;Node6 -->
<g id="edge5_Node000001_Node000006" class="edge">
<title>Node1&#45;&gt;Node6</title>
<g id="a_edge5_Node000001_Node000006"><a xlink:title=" ">
<path fill="none" stroke="#63b8ff" d="M558.09,-455.15C689.68,-446.85 1202.89,-411.11 1246.5,-356 1252.02,-349.03 1249.5,-344.37 1246.5,-336 1217.69,-255.77 1153.31,-268.23 1124.5,-188 1119.36,-173.67 1119.91,-156.4 1121.59,-143.26"/>
<polygon fill="#63b8ff" stroke="#63b8ff" points="1125,-144.09 1123.14,-133.65 1118.09,-142.96 1125,-144.09"/>
</a>
</g>
</g>
<!-- Node7 -->
<g id="Node000007" class="node">
<title>Node7</title>
<g id="a_Node000007"><a xlink:href="Renderer_8hpp.html" target="_top" xlink:title=" ">
<polygon fill="white" stroke="#666666" points="1000.75,-412 926.25,-412 926.25,-392 1000.75,-392 1000.75,-412"/>
<text text-anchor="middle" x="963.5" y="-398.5" font-family="Helvetica,sans-Serif" font-size="10.00">Renderer.hpp</text>
</a>
</g>
</g>
<!-- Node1&#45;&gt;Node7 -->
<g id="edge6_Node000001_Node000007" class="edge">
<title>Node1&#45;&gt;Node7</title>
<g id="a_edge6_Node000001_Node000007"><a xlink:title=" ">
<path fill="none" stroke="#63b8ff" d="M558.16,-453.2C632.71,-443.97 824.02,-420.28 914.57,-409.06"/>
<polygon fill="#63b8ff" stroke="#63b8ff" points="914.89,-412.55 924.38,-407.84 914.03,-405.6 914.89,-412.55"/>
</a>
</g>
</g>
<!-- Node7&#45;&gt;Node5 -->
<g id="edge8_Node000007_Node000005" class="edge">
<title>Node7&#45;&gt;Node5</title>
<g id="a_edge8_Node000007_Node000005"><a xlink:title=" ">
<path fill="none" stroke="#63b8ff" d="M1001.16,-396.69C1088.51,-385.66 1297.5,-352.81 1297.5,-291 1297.5,-291 1297.5,-291 1297.5,-233 1297.5,-201.74 1293.45,-165.69 1290.5,-143.63"/>
<polygon fill="#63b8ff" stroke="#63b8ff" points="1293.99,-143.31 1289.14,-133.89 1287.06,-144.28 1293.99,-143.31"/>
</a>
</g>
</g>
<!-- Node7&#45;&gt;Node6 -->
<g id="edge7_Node000007_Node000006" class="edge">
<title>Node7&#45;&gt;Node6</title>
<g id="a_edge7_Node000007_Node000006"><a xlink:title=" ">
<path fill="none" stroke="#63b8ff" d="M970.62,-391.59C983.65,-374.12 1011.8,-335.24 1031.5,-300 1062.94,-243.75 1058.54,-223.38 1091.5,-168 1097.05,-158.67 1104.18,-148.98 1110.47,-140.99"/>
<polygon fill="#63b8ff" stroke="#63b8ff" points="1113.04,-143.38 1116.61,-133.4 1107.6,-138.97 1113.04,-143.38"/>
</a>
</g>
</g>
<!-- Node8 -->
<g id="Node000008" class="node">
<title>Node8</title>
<g id="a_Node000008"><a xlink:href="Event_8hpp.html" target="_top" xlink:title=" ">
<polygon fill="white" stroke="#666666" points="305.62,-132 245.38,-132 245.38,-112 305.62,-112 305.62,-132"/>
<text text-anchor="middle" x="275.5" y="-118.5" font-family="Helvetica,sans-Serif" font-size="10.00">Event.hpp</text>
</a>
</g>
</g>
<!-- Node7&#45;&gt;Node8 -->
<g id="edge9_Node000007_Node000008" class="edge">
<title>Node7&#45;&gt;Node8</title>
<g id="a_edge9_Node000007_Node000008"><a xlink:title=" ">
<path fill="none" stroke="#63b8ff" d="M926.02,-399.01C782.45,-390.87 275.5,-357.45 275.5,-291 275.5,-291 275.5,-291 275.5,-233 275.5,-201.87 275.5,-165.78 275.5,-143.68"/>
<polygon fill="#63b8ff" stroke="#63b8ff" points="279,-143.93 275.5,-133.93 272,-143.93 279,-143.93"/>
</a>
</g>
</g>
<!-- Node11 -->
<g id="Node000011" class="node">
<title>Node11</title>
<g id="a_Node000011"><a xlink:href="NetworkManager_8hpp.html" target="_top" xlink:title=" ">
<polygon fill="white" stroke="#666666" points="894,-356 785,-356 785,-336 894,-336 894,-356"/>
<text text-anchor="middle" x="839.5" y="-342.5" font-family="Helvetica,sans-Serif" font-size="10.00">NetworkManager.hpp</text>
</a>
</g>
</g>
<!-- Node7&#45;&gt;Node11 -->
<g id="edge13_Node000007_Node000011" class="edge">
<title>Node7&#45;&gt;Node11</title>
<g id="a_edge13_Node000007_Node000011"><a xlink:title=" ">
<path fill="none" stroke="#63b8ff" d="M941.9,-391.59C922.55,-383.17 893.9,-370.69 871.82,-361.07"/>
<polygon fill="#63b8ff" stroke="#63b8ff" points="873.22,-357.87 862.66,-357.08 870.43,-364.29 873.22,-357.87"/>
</a>
</g>
</g>
<!-- Node34 -->
<g id="Node000034" class="node">
<title>Node34</title>
<g id="a_Node000034"><a xlink:href="Utils_8hpp.html" target="_top" xlink:title=" ">
<polygon fill="white" stroke="#666666" points="1502,-188 1447,-188 1447,-168 1502,-168 1502,-188"/>
<text text-anchor="middle" x="1474.5" y="-174.5" font-family="Helvetica,sans-Serif" font-size="10.00">Utils.hpp</text>
</a>
</g>
</g>
<!-- Node7&#45;&gt;Node34 -->
<g id="edge65_Node000007_Node000034" class="edge">
<title>Node7&#45;&gt;Node34</title>
<g id="a_edge65_Node000007_Node000034"><a xlink:title=" ">
<path fill="none" stroke="#63b8ff" d="M1001.04,-399.37C1079.51,-395.45 1258.01,-383.69 1311.5,-356 1383.76,-318.6 1440.42,-235.65 1463.39,-198.11"/>
<polygon fill="#63b8ff" stroke="#63b8ff" points="1466.29,-200.09 1468.41,-189.71 1460.28,-196.5 1466.29,-200.09"/>
</a>
</g>
</g>
<!-- Node8&#45;&gt;Node4 -->
<g id="edge11_Node000008_Node000004" class="edge">
<title>Node8&#45;&gt;Node4</title>
<g id="a_edge11_Node000008_Node000004"><a xlink:title=" ">
<path fill="none" stroke="#63b8ff" d="M305.87,-114.59C348.44,-105.61 426.48,-89.15 478.68,-78.14"/>
<polygon fill="#63b8ff" stroke="#63b8ff" points="479.19,-81.61 488.25,-76.12 477.74,-74.76 479.19,-81.61"/>
</a>
</g>
</g>
<!-- Node9 -->
<g id="Node000009" class="node">
<title>Node9</title>
<g id="a_Node000009"><a xlink:title=" ">
<polygon fill="#e0e0e0" stroke="#999999" points="723.12,-20 677.88,-20 677.88,0 723.12,0 723.12,-20"/>
<text text-anchor="middle" x="700.5" y="-6.5" font-family="Helvetica,sans-Serif" font-size="10.00">cstdint</text>
</a>
</g>
</g>
<!-- Node8&#45;&gt;Node9 -->
<g id="edge10_Node000008_Node000009" class="edge">
<title>Node8&#45;&gt;Node9</title>
<g id="a_edge10_Node000008_Node000009"><a xlink:title=" ">
<path fill="none" stroke="#63b8ff" d="M302.24,-111.59C341.28,-98.07 416.35,-72.92 481.5,-56 546.23,-39.18 623.03,-24.62 666.34,-16.89"/>
<polygon fill="#63b8ff" stroke="#63b8ff" points="666.89,-20.35 676.13,-15.16 665.68,-13.46 666.89,-20.35"/>
</a>
</g>
</g>
<!-- Node10 -->
<g id="Node000010" class="node">
<title>Node10</title>
<g id="a_Node000010"><a xlink:title=" ">
<polygon fill="#e0e0e0" stroke="#999999" points="291.38,-76 259.62,-76 259.62,-56 291.38,-56 291.38,-76"/>
<text text-anchor="middle" x="275.5" y="-62.5" font-family="Helvetica,sans-Serif" font-size="10.00">any</text>
</a>
</g>
</g>
<!-- Node8&#45;&gt;Node10 -->
<g id="edge12_Node000008_Node000010" class="edge">
<title>Node8&#45;&gt;Node10</title>
<g id="a_edge12_Node000008_Node000010"><a xlink:title=" ">
<path fill="none" stroke="#63b8ff" d="M275.5,-111.59C275.5,-105.01 275.5,-95.96 275.5,-87.73"/>
<polygon fill="#63b8ff" stroke="#63b8ff" points="279,-87.81 275.5,-77.81 272,-87.81 279,-87.81"/>
</a>
</g>
</g>
<!-- Node11&#45;&gt;Node4 -->
<g id="edge19_Node000011_Node000004" class="edge">
<title>Node11&#45;&gt;Node4</title>
<g id="a_edge19_Node000011_Node000004"><a xlink:title=" ">
<path fill="none" stroke="#63b8ff" d="M784.7,-337.78C738.35,-330.81 670.57,-318.55 613.5,-300 500.4,-263.25 434.62,-288.15 370.5,-188 356.73,-166.5 379.23,-122.89 390.5,-112 414.07,-89.22 449.16,-77.97 478.44,-72.41"/>
<polygon fill="#63b8ff" stroke="#63b8ff" points="478.99,-75.87 488.26,-70.74 477.81,-68.97 478.99,-75.87"/>
</a>
</g>
</g>
<!-- Node11&#45;&gt;Node9 -->
<g id="edge15_Node000011_Node000009" class="edge">
<title>Node11&#45;&gt;Node9</title>
<g id="a_edge15_Node000011_Node000009"><a xlink:title=" ">
<path fill="none" stroke="#63b8ff" d="M784.62,-341.18C721.99,-335.88 616.93,-324.07 529.5,-300 384.78,-260.15 305.43,-265.35 236.5,-132 225.89,-111.47 240.7,-64.47 250.5,-56 281.79,-28.95 566.44,-15.94 666.17,-12.19"/>
<polygon fill="#63b8ff" stroke="#63b8ff" points="666.28,-15.69 676.14,-11.82 666.02,-8.69 666.28,-15.69"/>
</a>
</g>
</g>
<!-- Node12 -->
<g id="Node000012" class="node">
<title>Node12</title>
<g id="a_Node000012"><a xlink:title=" ">
<polygon fill="#e0e0e0" stroke="#999999" points="924.12,-300 878.88,-300 878.88,-280 924.12,-280 924.12,-300"/>
<text text-anchor="middle" x="901.5" y="-286.5" font-family="Helvetica,sans-Serif" font-size="10.00">chrono</text>
</a>
</g>
</g>
<!-- Node11&#45;&gt;Node12 -->
<g id="edge14_Node000011_Node000012" class="edge">
<title>Node11&#45;&gt;Node12</title>
<g id="a_edge14_Node000011_Node000012"><a xlink:title=" ">
<path fill="none" stroke="#63b8ff" d="M850.3,-335.59C859.1,-327.93 871.75,-316.91 882.27,-307.75"/>
<polygon fill="#63b8ff" stroke="#63b8ff" points="884.44,-310.5 889.68,-301.29 879.84,-305.22 884.44,-310.5"/>
</a>
</g>
</g>
<!-- Node13 -->
<g id="Node000013" class="node">
<title>Node13</title>
<g id="a_Node000013"><a xlink:title=" ">
<polygon fill="#e0e0e0" stroke="#999999" points="1022.38,-300 942.62,-300 942.62,-280 1022.38,-280 1022.38,-300"/>
<text text-anchor="middle" x="982.5" y="-286.5" font-family="Helvetica,sans-Serif" font-size="10.00">boost/asio.hpp</text>
</a>
</g>
</g>
<!-- Node11&#45;&gt;Node13 -->
<g id="edge16_Node000011_Node000013" class="edge">
<title>Node11&#45;&gt;Node13</title>
<g id="a_edge16_Node000011_Node000013"><a xlink:title=" ">
<path fill="none" stroke="#63b8ff" d="M864.41,-335.59C887.23,-326.97 921.28,-314.12 946.96,-304.42"/>
<polygon fill="#63b8ff" stroke="#63b8ff" points="947.86,-307.82 955.98,-301.01 945.39,-301.27 947.86,-307.82"/>
</a>
</g>
</g>
<!-- Node14 -->
<g id="Node000014" class="node">
<title>Node14</title>
<g id="a_Node000014"><a xlink:title=" ">
<polygon fill="#e0e0e0" stroke="#999999" points="1401.38,-132 1363.62,-132 1363.62,-112 1401.38,-112 1401.38,-132"/>
<text text-anchor="middle" x="1382.5" y="-118.5" font-family="Helvetica,sans-Serif" font-size="10.00">array</text>
</a>
</g>
</g>
<!-- Node11&#45;&gt;Node14 -->
<g id="edge17_Node000011_Node000014" class="edge">
<title>Node11&#45;&gt;Node14</title>
<g id="a_edge17_Node000011_Node000014"><a xlink:title=" ">
<path fill="none" stroke="#63b8ff" d="M889.85,-335.58C928.95,-327.69 984.27,-315.29 1031.5,-300 1151.59,-261.13 1182.98,-250.76 1292.5,-188 1317.76,-173.53 1344.54,-153.51 1362.25,-139.52"/>
<polygon fill="#63b8ff" stroke="#63b8ff" points="1364.29,-142.37 1369.91,-133.39 1359.92,-136.91 1364.29,-142.37"/>
</a>
</g>
</g>
<!-- Node15 -->
<g id="Node000015" class="node">
<title>Node15</title>
<g id="a_Node000015"><a xlink:title=" ">
<polygon fill="#e0e0e0" stroke="#999999" points="861,-300 818,-300 818,-280 861,-280 861,-300"/>
<text text-anchor="middle" x="839.5" y="-286.5" font-family="Helvetica,sans-Serif" font-size="10.00">thread</text>
</a>
</g>
</g>
<!-- Node11&#45;&gt;Node15 -->
<g id="edge18_Node000011_Node000015" class="edge">
<title>Node11&#45;&gt;Node15</title>
<g id="a_edge18_Node000011_Node000015"><a xlink:title=" ">
<path fill="none" stroke="#63b8ff" d="M839.5,-335.59C839.5,-329.01 839.5,-319.96 839.5,-311.73"/>
<polygon fill="#63b8ff" stroke="#63b8ff" points="843,-311.81 839.5,-301.81 836,-311.81 843,-311.81"/>
</a>
</g>
</g>
<!-- Node16 -->
<g id="Node000016" class="node">
<title>Node16</title>
<g id="a_Node000016"><a xlink:title=" ">
<polygon fill="#e0e0e0" stroke="#999999" points="641,-132 598,-132 598,-112 641,-112 641,-132"/>
<text text-anchor="middle" x="619.5" y="-118.5" font-family="Helvetica,sans-Serif" font-size="10.00">vector</text>
</a>
</g>
</g>
<!-- Node11&#45;&gt;Node16 -->
<g id="edge20_Node000011_Node000016" class="edge">
<title>Node11&#45;&gt;Node16</title>
<g id="a_edge20_Node000011_Node000016"><a xlink:title=" ">
<path fill="none" stroke="#63b8ff" d="M784.6,-340.58C729.56,-334.91 650.23,-322.93 630.5,-300 592.24,-255.53 604.84,-179.21 613.78,-143.08"/>
<polygon fill="#63b8ff" stroke="#63b8ff" points="617.13,-144.12 616.32,-133.56 610.36,-142.32 617.13,-144.12"/>
</a>
</g>
</g>
<!-- Node17 -->
<g id="Node000017" class="node">
<title>Node17</title>
<g id="a_Node000017"><a xlink:href="Entity_8hpp.html" target="_top" xlink:title=" ">
<polygon fill="white" stroke="#666666" points="1101.25,-76 1041.75,-76 1041.75,-56 1101.25,-56 1101.25,-76"/>
<text text-anchor="middle" x="1071.5" y="-62.5" font-family="Helvetica,sans-Serif" font-size="10.00">Entity.hpp</text>
</a>
</g>
</g>
<!-- Node11&#45;&gt;Node17 -->
<g id="edge21_Node000011_Node000017" class="edge">
<title>Node11&#45;&gt;Node17</title>
<g id="a_edge21_Node000011_Node000017"><a xlink:title=" ">
<path fill="none" stroke="#63b8ff" d="M894.4,-340.23C1039.82,-326.39 1429.46,-281.19 1511.5,-188 1533.91,-162.54 1541.25,-137.16 1518.5,-112 1491.58,-82.23 1219.02,-71.24 1113.19,-68.08"/>
<polygon fill="#63b8ff" stroke="#63b8ff" points="1113.33,-64.58 1103.24,-67.79 1113.13,-71.58 1113.33,-64.58"/>
</a>
</g>
</g>
<!-- Node19 -->
<g id="Node000019" class="node">
<title>Node19</title>
<g id="a_Node000019"><a xlink:href="Mediator_8hpp.html" target="_top" xlink:title=" ">
<polygon fill="white" stroke="#666666" points="825.62,-244 753.38,-244 753.38,-224 825.62,-224 825.62,-244"/>
<text text-anchor="middle" x="789.5" y="-230.5" font-family="Helvetica,sans-Serif" font-size="10.00">Mediator.hpp</text>
</a>
</g>
</g>
<!-- Node11&#45;&gt;Node19 -->
<g id="edge24_Node000011_Node000019" class="edge">
<title>Node11&#45;&gt;Node19</title>
<g id="a_edge24_Node000011_Node000019"><a xlink:title=" ">
<path fill="none" stroke="#63b8ff" d="M832.22,-335.82C825.55,-327.05 815.78,-313.23 809.5,-300 802.67,-285.61 797.48,-268.34 794.11,-255.22"/>
<polygon fill="#63b8ff" stroke="#63b8ff" points="797.54,-254.51 791.78,-245.61 790.73,-256.15 797.54,-254.51"/>
</a>
</g>
</g>
<!-- Node33 -->
<g id="Node000033" class="node">
<title>Node33</title>
<g id="a_Node000033"><a xlink:href="ComponentRegistry_8hpp.html" target="_top" xlink:title=" ">
<polygon fill="white" stroke="#666666" points="761,-300 640,-300 640,-280 761,-280 761,-300"/>
<text text-anchor="middle" x="700.5" y="-286.5" font-family="Helvetica,sans-Serif" font-size="10.00">ComponentRegistry.hpp</text>
</a>
</g>
</g>
<!-- Node11&#45;&gt;Node33 -->
<g id="edge58_Node000011_Node000033" class="edge">
<title>Node11&#45;&gt;Node33</title>
<g id="a_edge58_Node000011_Node000033"><a xlink:title=" ">
<path fill="none" stroke="#63b8ff" d="M815.29,-335.59C793.2,-327.01 760.3,-314.23 735.38,-304.55"/>
<polygon fill="#63b8ff" stroke="#63b8ff" points="736.9,-301.39 726.31,-301.03 734.37,-307.91 736.9,-301.39"/>
</a>
</g>
</g>
<!-- Node17&#45;&gt;Node9 -->
<g id="edge22_Node000017_Node000009" class="edge">
<title>Node17&#45;&gt;Node9</title>
<g id="a_edge22_Node000017_Node000009"><a xlink:title=" ">
<path fill="none" stroke="#63b8ff" d="M1041.32,-57.75C1038.35,-57.12 1035.37,-56.52 1032.5,-56 924.41,-36.25 795.06,-21.14 734.69,-14.58"/>
<polygon fill="#63b8ff" stroke="#63b8ff" points="735.38,-11.14 725.06,-13.55 734.63,-18.1 735.38,-11.14"/>
</a>
</g>
</g>
<!-- Node18 -->
<g id="Node000018" class="node">
<title>Node18</title>
<g id="a_Node000018"><a xlink:title=" ">
<polygon fill="#e0e0e0" stroke="#999999" points="1091.5,-20 1051.5,-20 1051.5,0 1091.5,0 1091.5,-20"/>
<text text-anchor="middle" x="1071.5" y="-6.5" font-family="Helvetica,sans-Serif" font-size="10.00">bitset</text>
</a>
</g>
</g>
<!-- Node17&#45;&gt;Node18 -->
<g id="edge23_Node000017_Node000018" class="edge">
<title>Node17&#45;&gt;Node18</title>
<g id="a_edge23_Node000017_Node000018"><a xlink:title=" ">
<path fill="none" stroke="#63b8ff" d="M1071.5,-55.59C1071.5,-49.01 1071.5,-39.96 1071.5,-31.73"/>
<polygon fill="#63b8ff" stroke="#63b8ff" points="1075,-31.81 1071.5,-21.81 1068,-31.81 1075,-31.81"/>
</a>
</g>
</g>
<!-- Node19&#45;&gt;Node6 -->
<g id="edge26_Node000019_Node000006" class="edge">
<title>Node19&#45;&gt;Node6</title>
<g id="a_edge26_Node000019_Node000006"><a xlink:title=" ">
<path fill="none" stroke="#63b8ff" d="M825.96,-225.93C863.45,-218.23 923.27,-204.75 973.5,-188 1017.15,-173.44 1065.74,-151.63 1095.96,-137.35"/>
<polygon fill="#63b8ff" stroke="#63b8ff" points="1097.33,-140.58 1104.86,-133.11 1094.32,-134.26 1097.33,-140.58"/>
</a>
</g>
</g>
<!-- Node19&#45;&gt;Node16 -->
<g id="edge27_Node000019_Node000016" class="edge">
<title>Node19&#45;&gt;Node16</title>
<g id="a_edge27_Node000019_Node000016"><a xlink:title=" ">
<path fill="none" stroke="#63b8ff" d="M753.75,-223.53C730.38,-216.23 699.96,-204.57 676.5,-188 658.55,-175.32 642.48,-155.87 632.02,-141.55"/>
<polygon fill="#63b8ff" stroke="#63b8ff" points="634.93,-139.61 626.31,-133.44 629.2,-143.64 634.93,-139.61"/>
</a>
</g>
</g>
<!-- Node20 -->
<g id="Node000020" class="node">
<title>Node20</title>
<g id="a_Node000020"><a xlink:title=" ">
<polygon fill="#e0e0e0" stroke="#999999" points="970.25,-76 916.75,-76 916.75,-56 970.25,-56 970.25,-76"/>
<text text-anchor="middle" x="943.5" y="-62.5" font-family="Helvetica,sans-Serif" font-size="10.00">iostream</text>
</a>
</g>
</g>
<!-- Node19&#45;&gt;Node20 -->
<g id="edge25_Node000019_Node000020" class="edge">
<title>Node19&#45;&gt;Node20</title>
<g id="a_edge25_Node000019_Node000020"><a xlink:title=" ">
<path fill="none" stroke="#63b8ff" d="M826.06,-233.43C861.57,-231.65 913.91,-222.76 940.5,-188 962.76,-158.89 956.09,-113.3 949.57,-87.18"/>
<polygon fill="#63b8ff" stroke="#63b8ff" points="953.03,-86.55 947,-77.84 946.28,-88.41 953.03,-86.55"/>
</a>
</g>
</g>
<!-- Node21 -->
<g id="Node000021" class="node">
<title>Node21</title>
<g id="a_Node000021"><a xlink:href="EntityManager_8hpp.html" target="_top" xlink:title=" ">
<polygon fill="white" stroke="#666666" points="1231.38,-188 1133.62,-188 1133.62,-168 1231.38,-168 1231.38,-188"/>
<text text-anchor="middle" x="1182.5" y="-174.5" font-family="Helvetica,sans-Serif" font-size="10.00">EntityManager.hpp</text>
</a>
</g>
</g>
<!-- Node19&#45;&gt;Node21 -->
<g id="edge28_Node000019_Node000021" class="edge">
<title>Node19&#45;&gt;Node21</title>
<g id="a_edge28_Node000019_Node000021"><a xlink:title=" ">
<path fill="none" stroke="#63b8ff" d="M826.12,-227.97C893.91,-218.65 1039.56,-198.64 1122.14,-187.29"/>
<polygon fill="#63b8ff" stroke="#63b8ff" points="1122.43,-190.79 1131.86,-185.96 1121.47,-183.85 1122.43,-190.79"/>
</a>
</g>
</g>
<!-- Node23 -->
<g id="Node000023" class="node">
<title>Node23</title>
<g id="a_Node000023"><a xlink:href="ComponentManager_8hpp.html" target="_top" xlink:title=" ">
<polygon fill="white" stroke="#666666" points="931.75,-188 809.25,-188 809.25,-168 931.75,-168 931.75,-188"/>
<text text-anchor="middle" x="870.5" y="-174.5" font-family="Helvetica,sans-Serif" font-size="10.00">ComponentManager.hpp</text>
</a>
</g>
</g>
<!-- Node19&#45;&gt;Node23 -->
<g id="edge32_Node000019_Node000023" class="edge">
<title>Node19&#45;&gt;Node23</title>
<g id="a_edge32_Node000019_Node000023"><a xlink:title=" ">
<path fill="none" stroke="#63b8ff" d="M803.61,-223.59C815.5,-215.67 832.77,-204.16 846.78,-194.82"/>
<polygon fill="#63b8ff" stroke="#63b8ff" points="848.64,-197.78 855.02,-189.32 844.76,-191.95 848.64,-197.78"/>
</a>
</g>
</g>
<!-- Node27 -->
<g id="Node000027" class="node">
<title>Node27</title>
<g id="a_Node000027"><a xlink:href="SystemManager_8hpp.html" target="_top" xlink:title=" ">
<polygon fill="white" stroke="#666666" points="791.5,-188 685.5,-188 685.5,-168 791.5,-168 791.5,-188"/>
<text text-anchor="middle" x="738.5" y="-174.5" font-family="Helvetica,sans-Serif" font-size="10.00">SystemManager.hpp</text>
</a>
</g>
</g>
<!-- Node19&#45;&gt;Node27 -->
<g id="edge45_Node000019_Node000027" class="edge">
<title>Node19&#45;&gt;Node27</title>
<g id="a_edge45_Node000019_Node000027"><a xlink:title=" ">
<path fill="none" stroke="#63b8ff" d="M780.62,-223.59C773.6,-216.16 763.6,-205.58 755.11,-196.58"/>
<polygon fill="#63b8ff" stroke="#63b8ff" points="757.73,-194.27 748.32,-189.4 752.64,-199.07 757.73,-194.27"/>
</a>
</g>
</g>
<!-- Node30 -->
<g id="Node000030" class="node">
<title>Node30</title>
<g id="a_Node000030"><a xlink:href="EventManager_8hpp.html" target="_top" xlink:title=" ">
<polygon fill="white" stroke="#666666" points="477.38,-188 379.62,-188 379.62,-168 477.38,-168 477.38,-188"/>
<text text-anchor="middle" x="428.5" y="-174.5" font-family="Helvetica,sans-Serif" font-size="10.00">EventManager.hpp</text>
</a>
</g>
</g>
<!-- Node19&#45;&gt;Node30 -->
<g id="edge54_Node000019_Node000030" class="edge">
<title>Node19&#45;&gt;Node30</title>
<g id="a_edge54_Node000019_Node000030"><a xlink:title=" ">
<path fill="none" stroke="#63b8ff" d="M752.9,-227.53C690.84,-218.24 564.37,-199.32 488.98,-188.05"/>
<polygon fill="#63b8ff" stroke="#63b8ff" points="489.7,-184.62 479.29,-186.6 488.66,-191.54 489.7,-184.62"/>
</a>
</g>
</g>
<!-- Node21&#45;&gt;Node14 -->
<g id="edge30_Node000021_Node000014" class="edge">
<title>Node21&#45;&gt;Node14</title>
<g id="a_edge30_Node000021_Node000014"><a xlink:title=" ">
<path fill="none" stroke="#63b8ff" d="M1217.34,-167.59C1255.51,-157.29 1316.12,-140.92 1352.33,-131.14"/>
<polygon fill="#63b8ff" stroke="#63b8ff" points="1352.97,-134.6 1361.71,-128.61 1351.15,-127.84 1352.97,-134.6"/>
</a>
</g>
</g>
<!-- Node21&#45;&gt;Node17 -->
<g id="edge31_Node000021_Node000017" class="edge">
<title>Node21&#45;&gt;Node17</title>
<g id="a_edge31_Node000021_Node000017"><a xlink:title=" ">
<path fill="none" stroke="#63b8ff" d="M1195.06,-167.56C1210.85,-154.54 1234.29,-130.58 1220.5,-112 1195.97,-78.96 1147.9,-69.31 1112.97,-66.91"/>
<polygon fill="#63b8ff" stroke="#63b8ff" points="1113.36,-63.42 1103.2,-66.42 1113.01,-70.41 1113.36,-63.42"/>
</a>
</g>
</g>
<!-- Node22 -->
<g id="Node000022" class="node">
<title>Node22</title>
<g id="a_Node000022"><a xlink:title=" ">
<polygon fill="#e0e0e0" stroke="#999999" points="1211.62,-132 1169.38,-132 1169.38,-112 1211.62,-112 1211.62,-132"/>
<text text-anchor="middle" x="1190.5" y="-118.5" font-family="Helvetica,sans-Serif" font-size="10.00">queue</text>
</a>
</g>
</g>
<!-- Node21&#45;&gt;Node22 -->
<g id="edge29_Node000021_Node000022" class="edge">
<title>Node21&#45;&gt;Node22</title>
<g id="a_edge29_Node000021_Node000022"><a xlink:title=" ">
<path fill="none" stroke="#63b8ff" d="M1183.89,-167.59C1184.88,-160.93 1186.24,-151.75 1187.47,-143.44"/>
<polygon fill="#63b8ff" stroke="#63b8ff" points="1190.9,-144.2 1188.9,-133.8 1183.97,-143.17 1190.9,-144.2"/>
</a>
</g>
</g>
<!-- Node23&#45;&gt;Node4 -->
<g id="edge33_Node000023_Node000004" class="edge">
<title>Node23&#45;&gt;Node4</title>
<g id="a_edge33_Node000023_Node000004"><a xlink:title=" ">
<path fill="none" stroke="#63b8ff" d="M843.56,-167.6C806.49,-154.73 737.62,-131.05 678.5,-112 643.47,-100.71 603.53,-88.53 574.13,-79.69"/>
<polygon fill="#63b8ff" stroke="#63b8ff" points="575.45,-76.43 564.86,-76.91 573.44,-83.14 575.45,-76.43"/>
</a>
</g>
</g>
<!-- Node23&#45;&gt;Node5 -->
<g id="edge34_Node000023_Node000005" class="edge">
<title>Node23&#45;&gt;Node5</title>
<g id="a_edge34_Node000023_Node000005"><a xlink:title=" ">
<path fill="none" stroke="#63b8ff" d="M932.16,-169.18C1002.09,-160.29 1119.52,-145.27 1220.5,-132 1232.16,-130.47 1244.96,-128.76 1256.21,-127.24"/>
<polygon fill="#63b8ff" stroke="#63b8ff" points="1256.33,-130.76 1265.77,-125.95 1255.4,-123.82 1256.33,-130.76"/>
</a>
</g>
</g>
<!-- Node23&#45;&gt;Node6 -->
<g id="edge35_Node000023_Node000006" class="edge">
<title>Node23&#45;&gt;Node6</title>
<g id="a_edge35_Node000023_Node000006"><a xlink:title=" ">
<path fill="none" stroke="#63b8ff" d="M916.68,-167.54C960.24,-158.57 1027.36,-144.62 1085.5,-132 1086.5,-131.78 1087.52,-131.56 1088.55,-131.33"/>
<polygon fill="#63b8ff" stroke="#63b8ff" points="1089.21,-134.77 1098.21,-129.19 1087.69,-127.94 1089.21,-134.77"/>
</a>
</g>
</g>
<!-- Node23&#45;&gt;Node16 -->
<g id="edge37_Node000023_Node000016" class="edge">
<title>Node23&#45;&gt;Node16</title>
<g id="a_edge37_Node000023_Node000016"><a xlink:title=" ">
<path fill="none" stroke="#63b8ff" d="M826.49,-167.53C776.8,-156.84 697.09,-139.69 652.47,-130.09"/>
<polygon fill="#63b8ff" stroke="#63b8ff" points="653.39,-126.71 642.88,-128.03 651.92,-133.55 653.39,-126.71"/>
</a>
</g>
</g>
<!-- Node23&#45;&gt;Node17 -->
<g id="edge38_Node000023_Node000017" class="edge">
<title>Node23&#45;&gt;Node17</title>
<g id="a_edge38_Node000023_Node000017"><a xlink:title=" ">
<path fill="none" stroke="#63b8ff" d="M932,-168.48C977.79,-160.94 1035.23,-148.56 1052.5,-132 1064.45,-120.55 1069,-102.04 1070.68,-87.69"/>
<polygon fill="#63b8ff" stroke="#63b8ff" points="1074.15,-88.19 1071.41,-77.95 1067.17,-87.66 1074.15,-88.19"/>
</a>
</g>
</g>
<!-- Node24 -->
<g id="Node000024" class="node">
<title>Node24</title>
<g id="a_Node000024"><a xlink:title=" ">
<polygon fill="#e0e0e0" stroke="#999999" points="793.88,-76 735.12,-76 735.12,-56 793.88,-56 793.88,-76"/>
<text text-anchor="middle" x="764.5" y="-62.5" font-family="Helvetica,sans-Serif" font-size="10.00">stdexcept</text>
</a>
</g>
</g>
<!-- Node23&#45;&gt;Node24 -->
<g id="edge36_Node000023_Node000024" class="edge">
<title>Node23&#45;&gt;Node24</title>
<g id="a_edge36_Node000023_Node000024"><a xlink:title=" ">
<path fill="none" stroke="#63b8ff" d="M851.49,-167.53C836.82,-159.54 816.7,-147.02 802.5,-132 789.87,-118.65 779.65,-100.35 773,-86.57"/>
<polygon fill="#63b8ff" stroke="#63b8ff" points="776.26,-85.28 768.91,-77.64 769.89,-88.19 776.26,-85.28"/>
</a>
</g>
</g>
<!-- Node25 -->
<g id="Node000025" class="node">
<title>Node25</title>
<g id="a_Node000025"><a xlink:href="ComponentArray_8hpp.html" target="_top" xlink:title=" ">
<polygon fill="white" stroke="#666666" points="919.25,-132 811.75,-132 811.75,-112 919.25,-112 919.25,-132"/>
<text text-anchor="middle" x="865.5" y="-118.5" font-family="Helvetica,sans-Serif" font-size="10.00">ComponentArray.hpp</text>
</a>
</g>
</g>
<!-- Node23&#45;&gt;Node25 -->
<g id="edge39_Node000023_Node000025" class="edge">
<title>Node23&#45;&gt;Node25</title>
<g id="a_edge39_Node000023_Node000025"><a xlink:title=" ">
<path fill="none" stroke="#63b8ff" d="M869.63,-167.59C869.02,-161.01 868.18,-151.96 867.42,-143.73"/>
<polygon fill="#63b8ff" stroke="#63b8ff" points="870.91,-143.44 866.5,-133.81 863.94,-144.09 870.91,-143.44"/>
</a>
</g>
</g>
<!-- Node25&#45;&gt;Node4 -->
<g id="edge41_Node000025_Node000004" class="edge">
<title>Node25&#45;&gt;Node4</title>
<g id="a_edge41_Node000025_Node000004"><a xlink:title=" ">
<path fill="none" stroke="#63b8ff" d="M811.47,-112.26C748.89,-102.15 646.49,-85.59 584.4,-75.55"/>
<polygon fill="#63b8ff" stroke="#63b8ff" points="585.22,-72.14 574.79,-74 584.11,-79.05 585.22,-72.14"/>
</a>
</g>
</g>
<!-- Node25&#45;&gt;Node17 -->
<g id="edge44_Node000025_Node000017" class="edge">
<title>Node25&#45;&gt;Node17</title>
<g id="a_edge44_Node000025_Node000017"><a xlink:title=" ">
<path fill="none" stroke="#63b8ff" d="M901.38,-111.59C937.32,-102.17 992.56,-87.69 1030.28,-77.81"/>
<polygon fill="#63b8ff" stroke="#63b8ff" points="1031.13,-81.2 1039.92,-75.28 1029.36,-74.43 1031.13,-81.2"/>
</a>
</g>
</g>
<!-- Node25&#45;&gt;Node20 -->
<g id="edge43_Node000025_Node000020" class="edge">
<title>Node25&#45;&gt;Node20</title>
<g id="a_edge43_Node000025_Node000020"><a xlink:title=" ">
<path fill="none" stroke="#63b8ff" d="M879.09,-111.59C890.54,-103.67 907.16,-92.16 920.66,-82.82"/>
<polygon fill="#63b8ff" stroke="#63b8ff" points="922.33,-85.91 928.56,-77.34 918.35,-80.16 922.33,-85.91"/>
</a>
</g>
</g>
<!-- Node25&#45;&gt;Node24 -->
<g id="edge42_Node000025_Node000024" class="edge">
<title>Node25&#45;&gt;Node24</title>
<g id="a_edge42_Node000025_Node000024"><a xlink:title=" ">
<path fill="none" stroke="#63b8ff" d="M847.91,-111.59C832.58,-103.4 810.08,-91.37 792.31,-81.87"/>
<polygon fill="#63b8ff" stroke="#63b8ff" points="794.03,-78.82 783.56,-77.19 790.73,-84.99 794.03,-78.82"/>
</a>
</g>
</g>
<!-- Node26 -->
<g id="Node000026" class="node">
<title>Node26</title>
<g id="a_Node000026"><a xlink:title=" ">
<polygon fill="#e0e0e0" stroke="#999999" points="894.5,-76 836.5,-76 836.5,-56 894.5,-56 894.5,-76"/>
<text text-anchor="middle" x="865.5" y="-62.5" font-family="Helvetica,sans-Serif" font-size="10.00">exception</text>
</a>
</g>
</g>
<!-- Node25&#45;&gt;Node26 -->
<g id="edge40_Node000025_Node000026" class="edge">
<title>Node25&#45;&gt;Node26</title>
<g id="a_edge40_Node000025_Node000026"><a xlink:title=" ">
<path fill="none" stroke="#63b8ff" d="M865.5,-111.59C865.5,-105.01 865.5,-95.96 865.5,-87.73"/>
<polygon fill="#63b8ff" stroke="#63b8ff" points="869,-87.81 865.5,-77.81 862,-87.81 869,-87.81"/>
</a>
</g>
</g>
<!-- Node27&#45;&gt;Node4 -->
<g id="edge46_Node000027_Node000004" class="edge">
<title>Node27&#45;&gt;Node4</title>
<g id="a_edge46_Node000027_Node000004"><a xlink:title=" ">
<path fill="none" stroke="#63b8ff" d="M727.63,-167.56C711.47,-153.9 679.76,-128.44 649.5,-112 625.49,-98.96 596.9,-87.95 573.87,-80.09"/>
<polygon fill="#63b8ff" stroke="#63b8ff" points="575.09,-76.81 564.49,-76.96 572.88,-83.45 575.09,-76.81"/>
</a>
</g>
</g>
<!-- Node27&#45;&gt;Node5 -->
<g id="edge47_Node000027_Node000005" class="edge">
<title>Node27&#45;&gt;Node5</title>
<g id="a_edge47_Node000027_Node000005"><a xlink:title=" ">
<path fill="none" stroke="#63b8ff" d="M791.91,-169.04C794.81,-168.68 797.69,-168.32 800.5,-168 986.62,-146.53 1034.27,-152.48 1220.5,-132 1231.98,-130.74 1244.53,-129.12 1255.64,-127.6"/>
<polygon fill="#63b8ff" stroke="#63b8ff" points="1256.09,-131.07 1265.51,-126.22 1255.12,-124.14 1256.09,-131.07"/>
</a>
</g>
</g>
<!-- Node27&#45;&gt;Node6 -->
<g id="edge49_Node000027_Node000006" class="edge">
<title>Node27&#45;&gt;Node6</title>
<g id="a_edge49_Node000027_Node000006"><a xlink:title=" ">
<path fill="none" stroke="#63b8ff" d="M791.93,-169.22C794.83,-168.81 797.7,-168.4 800.5,-168 904.92,-153.19 1028.31,-136.26 1088.6,-128.03"/>
<polygon fill="#63b8ff" stroke="#63b8ff" points="1088.86,-131.53 1098.29,-126.71 1087.91,-124.59 1088.86,-131.53"/>
</a>
</g>
</g>
<!-- Node27&#45;&gt;Node16 -->
<g id="edge48_Node000027_Node000016" class="edge">
<title>Node27&#45;&gt;Node16</title>
<g id="a_edge48_Node000027_Node000016"><a xlink:title=" ">
<path fill="none" stroke="#63b8ff" d="M717.77,-167.59C699.29,-159.21 671.96,-146.8 650.81,-137.21"/>
<polygon fill="#63b8ff" stroke="#63b8ff" points="652.32,-134.05 641.77,-133.1 649.43,-140.42 652.32,-134.05"/>
</a>
</g>
</g>
<!-- Node27&#45;&gt;Node24 -->
<g id="edge50_Node000027_Node000024" class="edge">
<title>Node27&#45;&gt;Node24</title>
<g id="a_edge50_Node000027_Node000024"><a xlink:title=" ">
<path fill="none" stroke="#63b8ff" d="M740.72,-167.62C744.9,-149.92 754.04,-111.24 759.7,-87.32"/>
<polygon fill="#63b8ff" stroke="#63b8ff" points="763.05,-88.36 761.94,-77.83 756.23,-86.75 763.05,-88.36"/>
</a>
</g>
</g>
<!-- Node28 -->
<g id="Node000028" class="node">
<title>Node28</title>
<g id="a_Node000028"><a xlink:href="System_8hpp.html" target="_top" xlink:title=" ">
<polygon fill="white" stroke="#666666" points="1043.75,-132 975.25,-132 975.25,-112 1043.75,-112 1043.75,-132"/>
<text text-anchor="middle" x="1009.5" y="-118.5" font-family="Helvetica,sans-Serif" font-size="10.00">System.hpp</text>
</a>
</g>
</g>
<!-- Node27&#45;&gt;Node28 -->
<g id="edge51_Node000027_Node000028" class="edge">
<title>Node27&#45;&gt;Node28</title>
<g id="a_edge51_Node000027_Node000028"><a xlink:title=" ">
<path fill="none" stroke="#63b8ff" d="M786.01,-167.53C836.15,-157.54 914.6,-141.91 963.97,-132.07"/>
<polygon fill="#63b8ff" stroke="#63b8ff" points="964.34,-135.57 973.47,-130.18 962.98,-128.7 964.34,-135.57"/>
</a>
</g>
</g>
<!-- Node28&#45;&gt;Node17 -->
<g id="edge53_Node000028_Node000017" class="edge">
<title>Node28&#45;&gt;Node17</title>
<g id="a_edge53_Node000028_Node000017"><a xlink:title=" ">
<path fill="none" stroke="#63b8ff" d="M1020.3,-111.59C1029.1,-103.93 1041.75,-92.91 1052.27,-83.75"/>
<polygon fill="#63b8ff" stroke="#63b8ff" points="1054.44,-86.5 1059.68,-77.29 1049.84,-81.22 1054.44,-86.5"/>
</a>
</g>
</g>
<!-- Node29 -->
<g id="Node000029" class="node">
<title>Node29</title>
<g id="a_Node000029"><a xlink:title=" ">
<polygon fill="#e0e0e0" stroke="#999999" points="1023.25,-76 993.75,-76 993.75,-56 1023.25,-56 1023.25,-76"/>
<text text-anchor="middle" x="1008.5" y="-62.5" font-family="Helvetica,sans-Serif" font-size="10.00">set</text>
</a>
</g>
</g>
<!-- Node28&#45;&gt;Node29 -->
<g id="edge52_Node000028_Node000029" class="edge">
<title>Node28&#45;&gt;Node29</title>
<g id="a_edge52_Node000028_Node000029"><a xlink:title=" ">
<path fill="none" stroke="#63b8ff" d="M1009.33,-111.59C1009.2,-105.01 1009.04,-95.96 1008.88,-87.73"/>
<polygon fill="#63b8ff" stroke="#63b8ff" points="1012.38,-87.75 1008.7,-77.81 1005.39,-87.87 1012.38,-87.75"/>
</a>
</g>
</g>
<!-- Node30&#45;&gt;Node8 -->
<g id="edge55_Node000030_Node000008" class="edge">
<title>Node30&#45;&gt;Node8</title>
<g id="a_edge55_Node000030_Node000008"><a xlink:title=" ">
<path fill="none" stroke="#63b8ff" d="M401.85,-167.59C377.32,-158.94 340.67,-146 313.16,-136.29"/>
<polygon fill="#63b8ff" stroke="#63b8ff" points="314.38,-133.01 303.79,-132.98 312.05,-139.61 314.38,-133.01"/>
</a>
</g>
</g>
<!-- Node31 -->
<g id="Node000031" class="node">
<title>Node31</title>
<g id="a_Node000031"><a xlink:title=" ">
<polygon fill="#e0e0e0" stroke="#999999" points="503.5,-132 445.5,-132 445.5,-112 503.5,-112 503.5,-132"/>
<text text-anchor="middle" x="474.5" y="-118.5" font-family="Helvetica,sans-Serif" font-size="10.00">functional</text>
</a>
</g>
</g>
<!-- Node30&#45;&gt;Node31 -->
<g id="edge56_Node000030_Node000031" class="edge">
<title>Node30&#45;&gt;Node31</title>
<g id="a_edge56_Node000030_Node000031"><a xlink:title=" ">
<path fill="none" stroke="#63b8ff" d="M436.51,-167.59C442.78,-160.24 451.67,-149.8 459.28,-140.87"/>
<polygon fill="#63b8ff" stroke="#63b8ff" points="461.78,-143.33 465.6,-133.45 456.45,-138.79 461.78,-143.33"/>
</a>
</g>
</g>
<!-- Node32 -->
<g id="Node000032" class="node">
<title>Node32</title>
<g id="a_Node000032"><a xlink:title=" ">
<polygon fill="#e0e0e0" stroke="#999999" points="427.9,-132 399.1,-132 399.1,-112 427.9,-112 427.9,-132"/>
<text text-anchor="middle" x="413.5" y="-118.5" font-family="Helvetica,sans-Serif" font-size="10.00">list</text>
</a>
</g>
</g>
<!-- Node30&#45;&gt;Node32 -->
<g id="edge57_Node000030_Node000032" class="edge">
<title>Node30&#45;&gt;Node32</title>
<g id="a_edge57_Node000030_Node000032"><a xlink:title=" ">
<path fill="none" stroke="#63b8ff" d="M425.89,-167.59C424.02,-160.86 421.43,-151.53 419.1,-143.15"/>
<polygon fill="#63b8ff" stroke="#63b8ff" points="422.54,-142.46 416.49,-133.76 415.79,-144.33 422.54,-142.46"/>
</a>
</g>
</g>
<!-- Node33&#45;&gt;Node4 -->
<g id="edge60_Node000033_Node000004" class="edge">
<title>Node33&#45;&gt;Node4</title>
<g id="a_edge60_Node000033_Node000004"><a xlink:title=" ">
<path fill="none" stroke="#63b8ff" d="M676.18,-279.63C658.31,-271.92 634.17,-259.73 616.5,-244 567.98,-200.82 544.6,-123.87 535.81,-87.33"/>
<polygon fill="#63b8ff" stroke="#63b8ff" points="539.25,-86.68 533.63,-77.69 532.43,-88.22 539.25,-86.68"/>
</a>
</g>
</g>
<!-- Node33&#45;&gt;Node5 -->
<g id="edge61_Node000033_Node000005" class="edge">
<title>Node33&#45;&gt;Node5</title>
<g id="a_edge61_Node000033_Node000005"><a xlink:title=" ">
<path fill="none" stroke="#63b8ff" d="M761.15,-283.34C884.85,-270.91 1161.25,-238.22 1240.5,-188 1257.75,-177.07 1270.66,-157.34 1278.54,-142.47"/>
<polygon fill="#63b8ff" stroke="#63b8ff" points="1281.61,-144.15 1282.9,-133.63 1275.34,-141.05 1281.61,-144.15"/>
</a>
</g>
</g>
<!-- Node33&#45;&gt;Node17 -->
<g id="edge63_Node000033_Node000017" class="edge">
<title>Node33&#45;&gt;Node17</title>
<g id="a_edge63_Node000033_Node000017"><a xlink:title=" ">
<path fill="none" stroke="#63b8ff" d="M761.15,-284.14C858.6,-276.02 1045.64,-259.12 1110.5,-244 1181.43,-227.46 1203.81,-228.25 1264.5,-188 1292.81,-169.23 1304.09,-163.61 1316.5,-132 1319.75,-123.73 1322.19,-118.83 1316.5,-112 1303.57,-96.48 1179.08,-79.65 1112.71,-71.69"/>
<polygon fill="#63b8ff" stroke="#63b8ff" points="1113.26,-68.23 1102.92,-70.53 1112.44,-75.18 1113.26,-68.23"/>
</a>
</g>
</g>
<!-- Node33&#45;&gt;Node19 -->
<g id="edge64_Node000033_Node000019" class="edge">
<title>Node33&#45;&gt;Node19</title>
<g id="a_edge64_Node000033_Node000019"><a xlink:title=" ">
<path fill="none" stroke="#63b8ff" d="M716,-279.59C729.32,-271.51 748.78,-259.71 764.33,-250.27"/>
<polygon fill="#63b8ff" stroke="#63b8ff" points="765.85,-253.44 772.58,-245.26 762.22,-247.46 765.85,-253.44"/>
</a>
</g>
</g>
<!-- Node33&#45;&gt;Node24 -->
<g id="edge62_Node000033_Node000024" class="edge">
<title>Node33&#45;&gt;Node24</title>
<g id="a_edge62_Node000033_Node000024"><a xlink:title=" ">
<path fill="none" stroke="#63b8ff" d="M686.13,-279.56C646.53,-252.4 541.78,-172.17 588.5,-112 604.91,-90.87 676.84,-77.99 723.52,-71.7"/>
<polygon fill="#63b8ff" stroke="#63b8ff" points="723.82,-75.19 733.29,-70.43 722.92,-68.24 723.82,-75.19"/>
</a>
</g>
</g>
<!-- Node33&#45;&gt;Node31 -->
<g id="edge59_Node000033_Node000031" class="edge">
<title>Node33&#45;&gt;Node31</title>
<g id="a_edge59_Node000033_Node000031"><a xlink:title=" ">
<path fill="none" stroke="#63b8ff" d="M639.58,-285.78C603.96,-281.02 560.12,-269.83 529.5,-244 513.23,-230.27 491.84,-173.48 481.17,-142.83"/>
<polygon fill="#63b8ff" stroke="#63b8ff" points="484.56,-141.93 478.01,-133.6 477.93,-144.19 484.56,-141.93"/>
</a>
</g>
</g>
<!-- Node34&#45;&gt;Node5 -->
<g id="edge67_Node000034_Node000005" class="edge">
<title>Node34&#45;&gt;Node5</title>
<g id="a_edge67_Node000034_Node000005"><a xlink:title=" ">
<path fill="none" stroke="#63b8ff" d="M1446.5,-168.92C1412.21,-159.01 1354.29,-142.29 1318.63,-131.99"/>
<polygon fill="#63b8ff" stroke="#63b8ff" points="1319.92,-128.72 1309.35,-129.31 1317.98,-135.45 1319.92,-128.72"/>
</a>
</g>
</g>
<!-- Node34&#45;&gt;Node9 -->
<g id="edge66_Node000034_Node000009" class="edge">
<title>Node34&#45;&gt;Node9</title>
<g id="a_edge66_Node000034_Node000009"><a xlink:title=" ">
<path fill="none" stroke="#63b8ff" d="M1468.27,-167.71C1458.03,-153.28 1436.23,-125.68 1410.5,-112 1290.69,-48.27 860.1,-19.84 734.88,-12.8"/>
<polygon fill="#63b8ff" stroke="#63b8ff" points="735.1,-9.31 724.92,-12.25 734.72,-16.3 735.1,-9.31"/>
</a>
</g>
</g>
<!-- Node34&#45;&gt;Node14 -->
<g id="edge69_Node000034_Node000014" class="edge">
<title>Node34&#45;&gt;Node14</title>
<g id="a_edge69_Node000034_Node000014"><a xlink:title=" ">
<path fill="none" stroke="#63b8ff" d="M1458.47,-167.59C1444.71,-159.51 1424.6,-147.71 1408.52,-138.27"/>
<polygon fill="#63b8ff" stroke="#63b8ff" points="1410.35,-135.29 1399.96,-133.25 1406.81,-141.33 1410.35,-135.29"/>
</a>
</g>
</g>
<!-- Node35 -->
<g id="Node000035" class="node">
<title>Node35</title>
<g id="a_Node000035"><a xlink:title=" ">
<polygon fill="#e0e0e0" stroke="#999999" points="1509.12,-132 1457.88,-132 1457.88,-112 1509.12,-112 1509.12,-132"/>
<text text-anchor="middle" x="1483.5" y="-118.5" font-family="Helvetica,sans-Serif" font-size="10.00">ostream</text>
</a>
</g>
</g>
<!-- Node34&#45;&gt;Node35 -->
<g id="edge68_Node000034_Node000035" class="edge">
<title>Node34&#45;&gt;Node35</title>
<g id="a_edge68_Node000034_Node000035"><a xlink:title=" ">
<path fill="none" stroke="#63b8ff" d="M1476.07,-167.59C1477.18,-160.93 1478.71,-151.75 1480.09,-143.44"/>
<polygon fill="#63b8ff" stroke="#63b8ff" points="1483.51,-144.23 1481.7,-133.79 1476.61,-143.08 1483.51,-144.23"/>
</a>
</g>
</g>
</g>
</svg>
