<?xml version="1.0" encoding="UTF-8" standalone="no"?>
<!DOCTYPE svg PUBLIC "-//W3C//DTD SVG 1.1//EN"
 "http://www.w3.org/Graphics/SVG/1.1/DTD/svg11.dtd">
<!-- Generated by graphviz version 12.1.0 (20240811.2233)
 -->
<!-- Title: Render.hpp Pages: 1 -->
<svg width="1134pt" height="308pt"
 viewBox="0.00 0.00 1133.62 308.00" xmlns="http://www.w3.org/2000/svg" xmlns:xlink="http://www.w3.org/1999/xlink">
<g id="graph0" class="graph" transform="scale(1 1) rotate(0) translate(4 304)">
<title>Render.hpp</title>
<!-- Node1 -->
<g id="Node000001" class="node">
<title>Node1</title>
<g id="a_Node000001"><a xlink:title=" ">
<polygon fill="#999999" stroke="#666666" points="675.62,-300 609.38,-300 609.38,-280 675.62,-280 675.62,-300"/>
<text text-anchor="middle" x="642.5" y="-286.5" font-family="Helvetica,sans-Serif" font-size="10.00">Render.hpp</text>
</a>
</g>
</g>
<!-- Node2 -->
<g id="Node000002" class="node">
<title>Node2</title>
<g id="a_Node000002"><a xlink:title=" ">
<polygon fill="#e0e0e0" stroke="#999999" points="103,-244 0,-244 0,-224 103,-224 103,-244"/>
<text text-anchor="middle" x="51.5" y="-230.5" font-family="Helvetica,sans-Serif" font-size="10.00">SFML/Graphics.hpp</text>
</a>
</g>
</g>
<!-- Node1&#45;&gt;Node2 -->
<g id="edge1_Node000001_Node000002" class="edge">
<title>Node1&#45;&gt;Node2</title>
<g id="a_edge1_Node000001_Node000002"><a xlink:title=" ">
<path fill="none" stroke="#63b8ff" d="M608.97,-286.71C525.68,-280.9 302.75,-264.56 117.5,-244 116.49,-243.89 115.48,-243.77 114.46,-243.66"/>
<polygon fill="#63b8ff" stroke="#63b8ff" points="115.2,-240.22 104.85,-242.5 114.36,-247.17 115.2,-240.22"/>
</a>
</g>
</g>
<!-- Node3 -->
<g id="Node000003" class="node">
<title>Node3</title>
<g id="a_Node000003"><a xlink:title=" ">
<polygon fill="#e0e0e0" stroke="#999999" points="613.12,-132 561.88,-132 561.88,-112 613.12,-112 613.12,-132"/>
<text text-anchor="middle" x="587.5" y="-118.5" font-family="Helvetica,sans-Serif" font-size="10.00">memory</text>
</a>
</g>
</g>
<!-- Node1&#45;&gt;Node3 -->
<g id="edge2_Node000001_Node000003" class="edge">
<title>Node1&#45;&gt;Node3</title>
<g id="a_edge2_Node000001_Node000003"><a xlink:title=" ">
<path fill="none" stroke="#63b8ff" d="M634.15,-279.56C619.83,-262.64 591.07,-225.42 580.5,-188 576.39,-173.43 578.46,-156.4 581.39,-143.43"/>
<polygon fill="#63b8ff" stroke="#63b8ff" points="584.73,-144.47 583.9,-133.91 577.96,-142.68 584.73,-144.47"/>
</a>
</g>
</g>
<!-- Node4 -->
<g id="Node000004" class="node">
<title>Node4</title>
<g id="a_Node000004"><a xlink:title=" ">
<polygon fill="#e0e0e0" stroke="#999999" points="709.5,-132 669.5,-132 669.5,-112 709.5,-112 709.5,-132"/>
<text text-anchor="middle" x="689.5" y="-118.5" font-family="Helvetica,sans-Serif" font-size="10.00">string</text>
</a>
</g>
</g>
<!-- Node1&#45;&gt;Node4 -->
<g id="edge3_Node000001_Node000004" class="edge">
<title>Node1&#45;&gt;Node4</title>
<g id="a_edge3_Node000001_Node000004"><a xlink:title=" ">
<path fill="none" stroke="#63b8ff" d="M650.85,-279.56C665.17,-262.64 693.93,-225.42 704.5,-188 708.74,-172.98 704.36,-155.76 699.26,-142.82"/>
<polygon fill="#63b8ff" stroke="#63b8ff" points="702.47,-141.43 695.22,-133.71 696.08,-144.27 702.47,-141.43"/>
</a>
</g>
</g>
<!-- Node5 -->
<g id="Node000005" class="node">
<title>Node5</title>
<g id="a_Node000005"><a xlink:title=" ">
<polygon fill="#e0e0e0" stroke="#999999" points="421.88,-76 339.12,-76 339.12,-56 421.88,-56 421.88,-76"/>
<text text-anchor="middle" x="380.5" y="-62.5" font-family="Helvetica,sans-Serif" font-size="10.00">unordered_map</text>
</a>
</g>
</g>
<!-- Node1&#45;&gt;Node5 -->
<g id="edge4_Node000001_Node000005" class="edge">
<title>Node1&#45;&gt;Node5</title>
<g id="a_edge4_Node000001_Node000005"><a xlink:title=" ">
<path fill="none" stroke="#63b8ff" d="M608.99,-286.81C533.92,-280.73 348.18,-259.09 212.5,-188 179.61,-170.77 165.58,-165.93 150.5,-132 146.89,-123.88 144.85,-118.86 150.5,-112 161.71,-98.39 263.19,-82.58 327.56,-73.79"/>
<polygon fill="#63b8ff" stroke="#63b8ff" points="327.78,-77.29 337.22,-72.48 326.84,-70.35 327.78,-77.29"/>
</a>
</g>
</g>
<!-- Node6 -->
<g id="Node000006" class="node">
<title>Node6</title>
<g id="a_Node000006"><a xlink:href="System_8hpp.html" target="_top" xlink:title=" ">
<polygon fill="white" stroke="#666666" points="795.75,-132 727.25,-132 727.25,-112 795.75,-112 795.75,-132"/>
<text text-anchor="middle" x="761.5" y="-118.5" font-family="Helvetica,sans-Serif" font-size="10.00">System.hpp</text>
</a>
</g>
</g>
<!-- Node1&#45;&gt;Node6 -->
<g id="edge5_Node000001_Node000006" class="edge">
<title>Node1&#45;&gt;Node6</title>
<g id="a_edge5_Node000001_Node000006"><a xlink:title=" ">
<path fill="none" stroke="#63b8ff" d="M656.95,-279.61C668.91,-271.31 685.78,-258.32 697.5,-244 723.61,-212.09 743.73,-167.85 753.98,-142.65"/>
<polygon fill="#63b8ff" stroke="#63b8ff" points="757.12,-144.23 757.54,-133.64 750.61,-141.66 757.12,-144.23"/>
</a>
</g>
</g>
<!-- Node11 -->
<g id="Node000011" class="node">
<title>Node11</title>
<g id="a_Node000011"><a xlink:href="Mediator_8hpp.html" target="_top" xlink:title=" ">
<polygon fill="white" stroke="#666666" points="533.62,-244 461.38,-244 461.38,-224 533.62,-224 533.62,-244"/>
<text text-anchor="middle" x="497.5" y="-230.5" font-family="Helvetica,sans-Serif" font-size="10.00">Mediator.hpp</text>
</a>
</g>
</g>
<!-- Node1&#45;&gt;Node11 -->
<g id="edge10_Node000001_Node000011" class="edge">
<title>Node1&#45;&gt;Node11</title>
<g id="a_edge10_Node000001_Node000011"><a xlink:title=" ">
<path fill="none" stroke="#63b8ff" d="M617.24,-279.59C594.1,-270.97 559.58,-258.12 533.54,-248.42"/>
<polygon fill="#63b8ff" stroke="#63b8ff" points="534.97,-245.22 524.37,-245.01 532.52,-251.78 534.97,-245.22"/>
</a>
</g>
</g>
<!-- Node24 -->
<g id="Node000024" class="node">
<title>Node24</title>
<g id="a_Node000024"><a xlink:href="Transform_8hpp.html" target="_top" xlink:title=" ">
<polygon fill="white" stroke="#666666" points="927.25,-244 789.75,-244 789.75,-224 927.25,-224 927.25,-244"/>
<text text-anchor="middle" x="858.5" y="-230.5" font-family="Helvetica,sans-Serif" font-size="10.00">Components/Transform.hpp</text>
</a>
</g>
</g>
<!-- Node1&#45;&gt;Node24 -->
<g id="edge37_Node000001_Node000024" class="edge">
<title>Node1&#45;&gt;Node24</title>
<g id="a_edge37_Node000001_Node000024"><a xlink:title=" ">
<path fill="none" stroke="#63b8ff" d="M675.78,-280.68C711.58,-271.73 768.88,-257.41 809.76,-247.19"/>
<polygon fill="#63b8ff" stroke="#63b8ff" points="810.5,-250.61 819.36,-244.79 808.81,-243.82 810.5,-250.61"/>
</a>
</g>
</g>
<!-- Node26 -->
<g id="Node000026" class="node">
<title>Node26</title>
<g id="a_Node000026"><a xlink:href="Sprite_8hpp.html" target="_top" xlink:title=" ">
<polygon fill="white" stroke="#666666" points="1063.88,-244 945.12,-244 945.12,-224 1063.88,-224 1063.88,-244"/>
<text text-anchor="middle" x="1004.5" y="-230.5" font-family="Helvetica,sans-Serif" font-size="10.00">Components/Sprite.hpp</text>
</a>
</g>
</g>
<!-- Node1&#45;&gt;Node26 -->
<g id="edge40_Node000001_Node000026" class="edge">
<title>Node1&#45;&gt;Node26</title>
<g id="a_edge40_Node000001_Node000026"><a xlink:title=" ">
<path fill="none" stroke="#63b8ff" d="M675.91,-284.02C734.21,-275.32 855.74,-257.19 933.55,-245.58"/>
<polygon fill="#63b8ff" stroke="#63b8ff" points="933.83,-249.08 943.2,-244.14 932.79,-242.16 933.83,-249.08"/>
</a>
</g>
</g>
<!-- Node7 -->
<g id="Node000007" class="node">
<title>Node7</title>
<g id="a_Node000007"><a xlink:title=" ">
<polygon fill="#e0e0e0" stroke="#999999" points="776.25,-76 746.75,-76 746.75,-56 776.25,-56 776.25,-76"/>
<text text-anchor="middle" x="761.5" y="-62.5" font-family="Helvetica,sans-Serif" font-size="10.00">set</text>
</a>
</g>
</g>
<!-- Node6&#45;&gt;Node7 -->
<g id="edge6_Node000006_Node000007" class="edge">
<title>Node6&#45;&gt;Node7</title>
<g id="a_edge6_Node000006_Node000007"><a xlink:title=" ">
<path fill="none" stroke="#63b8ff" d="M761.5,-111.59C761.5,-105.01 761.5,-95.96 761.5,-87.73"/>
<polygon fill="#63b8ff" stroke="#63b8ff" points="765,-87.81 761.5,-77.81 758,-87.81 765,-87.81"/>
</a>
</g>
</g>
<!-- Node8 -->
<g id="Node000008" class="node">
<title>Node8</title>
<g id="a_Node000008"><a xlink:href="Entity_8hpp.html" target="_top" xlink:title=" ">
<polygon fill="white" stroke="#666666" points="651.25,-76 591.75,-76 591.75,-56 651.25,-56 651.25,-76"/>
<text text-anchor="middle" x="621.5" y="-62.5" font-family="Helvetica,sans-Serif" font-size="10.00">Entity.hpp</text>
</a>
</g>
</g>
<!-- Node6&#45;&gt;Node8 -->
<g id="edge7_Node000006_Node000008" class="edge">
<title>Node6&#45;&gt;Node8</title>
<g id="a_edge7_Node000006_Node000008"><a xlink:title=" ">
<path fill="none" stroke="#63b8ff" d="M737.11,-111.59C714.87,-103.01 681.73,-90.23 656.63,-80.55"/>
<polygon fill="#63b8ff" stroke="#63b8ff" points="658.08,-77.36 647.49,-77.02 655.56,-83.89 658.08,-77.36"/>
</a>
</g>
</g>
<!-- Node9 -->
<g id="Node000009" class="node">
<title>Node9</title>
<g id="a_Node000009"><a xlink:title=" ">
<polygon fill="#e0e0e0" stroke="#999999" points="613.12,-20 567.88,-20 567.88,0 613.12,0 613.12,-20"/>
<text text-anchor="middle" x="590.5" y="-6.5" font-family="Helvetica,sans-Serif" font-size="10.00">cstdint</text>
</a>
</g>
</g>
<!-- Node8&#45;&gt;Node9 -->
<g id="edge8_Node000008_Node000009" class="edge">
<title>Node8&#45;&gt;Node9</title>
<g id="a_edge8_Node000008_Node000009"><a xlink:title=" ">
<path fill="none" stroke="#63b8ff" d="M616.1,-55.59C612.06,-48.55 606.38,-38.67 601.41,-30"/>
<polygon fill="#63b8ff" stroke="#63b8ff" points="604.61,-28.54 596.59,-21.61 598.53,-32.03 604.61,-28.54"/>
</a>
</g>
</g>
<!-- Node10 -->
<g id="Node000010" class="node">
<title>Node10</title>
<g id="a_Node000010"><a xlink:title=" ">
<polygon fill="#e0e0e0" stroke="#999999" points="671.5,-20 631.5,-20 631.5,0 671.5,0 671.5,-20"/>
<text text-anchor="middle" x="651.5" y="-6.5" font-family="Helvetica,sans-Serif" font-size="10.00">bitset</text>
</a>
</g>
</g>
<!-- Node8&#45;&gt;Node10 -->
<g id="edge9_Node000008_Node000010" class="edge">
<title>Node8&#45;&gt;Node10</title>
<g id="a_edge9_Node000008_Node000010"><a xlink:title=" ">
<path fill="none" stroke="#63b8ff" d="M626.73,-55.59C630.6,-48.63 636.01,-38.89 640.78,-30.29"/>
<polygon fill="#63b8ff" stroke="#63b8ff" points="643.8,-32.06 645.6,-21.62 637.68,-28.66 643.8,-32.06"/>
</a>
</g>
</g>
<!-- Node11&#45;&gt;Node3 -->
<g id="edge11_Node000011_Node000003" class="edge">
<title>Node11&#45;&gt;Node3</title>
<g id="a_edge11_Node000011_Node000003"><a xlink:title=" ">
<path fill="none" stroke="#63b8ff" d="M504.42,-223.58C513.88,-210.79 531.53,-187.31 547.5,-168 555.05,-158.87 563.76,-149 571.12,-140.84"/>
<polygon fill="#63b8ff" stroke="#63b8ff" points="573.56,-143.36 577.7,-133.6 568.38,-138.65 573.56,-143.36"/>
</a>
</g>
</g>
<!-- Node12 -->
<g id="Node000012" class="node">
<title>Node12</title>
<g id="a_Node000012"><a xlink:href="EntityManager_8hpp.html" target="_top" xlink:title=" ">
<polygon fill="white" stroke="#666666" points="925.38,-188 827.62,-188 827.62,-168 925.38,-168 925.38,-188"/>
<text text-anchor="middle" x="876.5" y="-174.5" font-family="Helvetica,sans-Serif" font-size="10.00">EntityManager.hpp</text>
</a>
</g>
</g>
<!-- Node11&#45;&gt;Node12 -->
<g id="edge12_Node000011_Node000012" class="edge">
<title>Node11&#45;&gt;Node12</title>
<g id="a_edge12_Node000011_Node000012"><a xlink:title=" ">
<path fill="none" stroke="#63b8ff" d="M533.84,-227.82C599,-218.54 736.33,-198.97 815.93,-187.63"/>
<polygon fill="#63b8ff" stroke="#63b8ff" points="816.34,-191.11 825.74,-186.23 815.35,-184.18 816.34,-191.11"/>
</a>
</g>
</g>
<!-- Node15 -->
<g id="Node000015" class="node">
<title>Node15</title>
<g id="a_Node000015"><a xlink:href="ComponentManager_8hpp.html" target="_top" xlink:title=" ">
<polygon fill="white" stroke="#666666" points="495.75,-188 373.25,-188 373.25,-168 495.75,-168 495.75,-188"/>
<text text-anchor="middle" x="434.5" y="-174.5" font-family="Helvetica,sans-Serif" font-size="10.00">ComponentManager.hpp</text>
</a>
</g>
</g>
<!-- Node11&#45;&gt;Node15 -->
<g id="edge16_Node000011_Node000015" class="edge">
<title>Node11&#45;&gt;Node15</title>
<g id="a_edge16_Node000011_Node000015"><a xlink:title=" ">
<path fill="none" stroke="#63b8ff" d="M486.53,-223.59C477.58,-215.93 464.73,-204.91 454.04,-195.75"/>
<polygon fill="#63b8ff" stroke="#63b8ff" points="456.37,-193.13 446.5,-189.28 451.81,-198.45 456.37,-193.13"/>
</a>
</g>
</g>
<!-- Node18 -->
<g id="Node000018" class="node">
<title>Node18</title>
<g id="a_Node000018"><a xlink:href="SystemManager_8hpp.html" target="_top" xlink:title=" ">
<polygon fill="white" stroke="#666666" points="695.5,-188 589.5,-188 589.5,-168 695.5,-168 695.5,-188"/>
<text text-anchor="middle" x="642.5" y="-174.5" font-family="Helvetica,sans-Serif" font-size="10.00">SystemManager.hpp</text>
</a>
</g>
</g>
<!-- Node11&#45;&gt;Node18 -->
<g id="edge25_Node000011_Node000018" class="edge">
<title>Node11&#45;&gt;Node18</title>
<g id="a_edge25_Node000011_Node000018"><a xlink:title=" ">
<path fill="none" stroke="#63b8ff" d="M522.76,-223.59C545.9,-214.97 580.42,-202.12 606.46,-192.42"/>
<polygon fill="#63b8ff" stroke="#63b8ff" points="607.48,-195.78 615.63,-189.01 605.03,-189.22 607.48,-195.78"/>
</a>
</g>
</g>
<!-- Node19 -->
<g id="Node000019" class="node">
<title>Node19</title>
<g id="a_Node000019"><a xlink:href="EventManager_8hpp.html" target="_top" xlink:title=" ">
<polygon fill="white" stroke="#666666" points="319.38,-188 221.62,-188 221.62,-168 319.38,-168 319.38,-188"/>
<text text-anchor="middle" x="270.5" y="-174.5" font-family="Helvetica,sans-Serif" font-size="10.00">EventManager.hpp</text>
</a>
</g>
</g>
<!-- Node11&#45;&gt;Node19 -->
<g id="edge30_Node000011_Node000019" class="edge">
<title>Node11&#45;&gt;Node19</title>
<g id="a_edge30_Node000011_Node000019"><a xlink:title=" ">
<path fill="none" stroke="#63b8ff" d="M461.03,-224.32C423.18,-215.32 363.69,-201.17 321.26,-191.07"/>
<polygon fill="#63b8ff" stroke="#63b8ff" points="322.33,-187.73 311.79,-188.82 320.71,-194.54 322.33,-187.73"/>
</a>
</g>
</g>
<!-- Node12&#45;&gt;Node8 -->
<g id="edge15_Node000012_Node000008" class="edge">
<title>Node12&#45;&gt;Node8</title>
<g id="a_edge15_Node000012_Node000008"><a xlink:title=" ">
<path fill="none" stroke="#63b8ff" d="M869.11,-167.91C857.09,-153.75 831.87,-126.52 804.5,-112 759.45,-88.1 701.41,-76.62 662.91,-71.3"/>
<polygon fill="#63b8ff" stroke="#63b8ff" points="663.49,-67.84 653.12,-70.03 662.59,-74.79 663.49,-67.84"/>
</a>
</g>
</g>
<!-- Node13 -->
<g id="Node000013" class="node">
<title>Node13</title>
<g id="a_Node000013"><a xlink:title=" ">
<polygon fill="#e0e0e0" stroke="#999999" points="893.62,-132 851.38,-132 851.38,-112 893.62,-112 893.62,-132"/>
<text text-anchor="middle" x="872.5" y="-118.5" font-family="Helvetica,sans-Serif" font-size="10.00">queue</text>
</a>
</g>
</g>
<!-- Node12&#45;&gt;Node13 -->
<g id="edge13_Node000012_Node000013" class="edge">
<title>Node12&#45;&gt;Node13</title>
<g id="a_edge13_Node000012_Node000013"><a xlink:title=" ">
<path fill="none" stroke="#63b8ff" d="M875.8,-167.59C875.32,-161.01 874.65,-151.96 874.04,-143.73"/>
<polygon fill="#63b8ff" stroke="#63b8ff" points="877.53,-143.52 873.3,-133.81 870.55,-144.04 877.53,-143.52"/>
</a>
</g>
</g>
<!-- Node14 -->
<g id="Node000014" class="node">
<title>Node14</title>
<g id="a_Node000014"><a xlink:title=" ">
<polygon fill="#e0e0e0" stroke="#999999" points="949.38,-132 911.62,-132 911.62,-112 949.38,-112 949.38,-132"/>
<text text-anchor="middle" x="930.5" y="-118.5" font-family="Helvetica,sans-Serif" font-size="10.00">array</text>
</a>
</g>
</g>
<!-- Node12&#45;&gt;Node14 -->
<g id="edge14_Node000012_Node000014" class="edge">
<title>Node12&#45;&gt;Node14</title>
<g id="a_edge14_Node000012_Node000014"><a xlink:title=" ">
<path fill="none" stroke="#63b8ff" d="M885.91,-167.59C893.42,-160.08 904.15,-149.35 913.2,-140.3"/>
<polygon fill="#63b8ff" stroke="#63b8ff" points="915.54,-142.91 920.13,-133.37 910.59,-137.96 915.54,-142.91"/>
</a>
</g>
</g>
<!-- Node15&#45;&gt;Node3 -->
<g id="edge19_Node000015_Node000003" class="edge">
<title>Node15&#45;&gt;Node3</title>
<g id="a_edge19_Node000015_Node000003"><a xlink:title=" ">
<path fill="none" stroke="#63b8ff" d="M461.15,-167.59C485.91,-158.86 523,-145.76 550.6,-136.02"/>
<polygon fill="#63b8ff" stroke="#63b8ff" points="551.72,-139.34 559.98,-132.71 549.39,-132.74 551.72,-139.34"/>
</a>
</g>
</g>
<!-- Node15&#45;&gt;Node4 -->
<g id="edge18_Node000015_Node000004" class="edge">
<title>Node15&#45;&gt;Node4</title>
<g id="a_edge18_Node000015_Node000004"><a xlink:title=" ">
<path fill="none" stroke="#63b8ff" d="M479.21,-167.53C530.48,-156.68 613.21,-139.16 658.1,-129.65"/>
<polygon fill="#63b8ff" stroke="#63b8ff" points="658.64,-133.11 667.69,-127.62 657.19,-126.27 658.64,-133.11"/>
</a>
</g>
</g>
<!-- Node15&#45;&gt;Node5 -->
<g id="edge17_Node000015_Node000005" class="edge">
<title>Node15&#45;&gt;Node5</title>
<g id="a_edge17_Node000015_Node000005"><a xlink:title=" ">
<path fill="none" stroke="#63b8ff" d="M420.76,-167.64C410.06,-159.54 395.83,-146.82 388.5,-132 381.7,-118.25 379.84,-100.95 379.61,-87.65"/>
<polygon fill="#63b8ff" stroke="#63b8ff" points="383.11,-87.94 379.75,-77.89 376.11,-87.83 383.11,-87.94"/>
</a>
</g>
</g>
<!-- Node15&#45;&gt;Node8 -->
<g id="edge20_Node000015_Node000008" class="edge">
<title>Node15&#45;&gt;Node8</title>
<g id="a_edge20_Node000015_Node000008"><a xlink:title=" ">
<path fill="none" stroke="#63b8ff" d="M451.76,-167.51C468.03,-158.51 493.04,-144.55 514.5,-132 542.88,-115.4 575.07,-95.73 596.67,-82.41"/>
<polygon fill="#63b8ff" stroke="#63b8ff" points="598.4,-85.45 605.07,-77.21 594.72,-79.5 598.4,-85.45"/>
</a>
</g>
</g>
<!-- Node16 -->
<g id="Node000016" class="node">
<title>Node16</title>
<g id="a_Node000016"><a xlink:href="ComponentArray_8hpp.html" target="_top" xlink:title=" ">
<polygon fill="white" stroke="#666666" points="505.25,-132 397.75,-132 397.75,-112 505.25,-112 505.25,-132"/>
<text text-anchor="middle" x="451.5" y="-118.5" font-family="Helvetica,sans-Serif" font-size="10.00">ComponentArray.hpp</text>
</a>
</g>
</g>
<!-- Node15&#45;&gt;Node16 -->
<g id="edge21_Node000015_Node000016" class="edge">
<title>Node15&#45;&gt;Node16</title>
<g id="a_edge21_Node000015_Node000016"><a xlink:title=" ">
<path fill="none" stroke="#63b8ff" d="M437.46,-167.59C439.58,-160.86 442.52,-151.53 445.16,-143.15"/>
<polygon fill="#63b8ff" stroke="#63b8ff" points="448.45,-144.33 448.12,-133.74 441.78,-142.23 448.45,-144.33"/>
</a>
</g>
</g>
<!-- Node16&#45;&gt;Node5 -->
<g id="edge23_Node000016_Node000005" class="edge">
<title>Node16&#45;&gt;Node5</title>
<g id="a_edge23_Node000016_Node000005"><a xlink:title=" ">
<path fill="none" stroke="#63b8ff" d="M439.13,-111.59C428.85,-103.77 413.98,-92.46 401.79,-83.19"/>
<polygon fill="#63b8ff" stroke="#63b8ff" points="404.01,-80.48 393.93,-77.21 399.77,-86.05 404.01,-80.48"/>
</a>
</g>
</g>
<!-- Node16&#45;&gt;Node8 -->
<g id="edge24_Node000016_Node000008" class="edge">
<title>Node16&#45;&gt;Node8</title>
<g id="a_edge24_Node000016_Node000008"><a xlink:title=" ">
<path fill="none" stroke="#63b8ff" d="M481.11,-111.59C508.73,-102.82 550.17,-89.66 580.88,-79.9"/>
<polygon fill="#63b8ff" stroke="#63b8ff" points="581.74,-83.3 590.21,-76.94 579.62,-76.63 581.74,-83.3"/>
</a>
</g>
</g>
<!-- Node17 -->
<g id="Node000017" class="node">
<title>Node17</title>
<g id="a_Node000017"><a xlink:title=" ">
<polygon fill="#e0e0e0" stroke="#999999" points="497.5,-76 439.5,-76 439.5,-56 497.5,-56 497.5,-76"/>
<text text-anchor="middle" x="468.5" y="-62.5" font-family="Helvetica,sans-Serif" font-size="10.00">exception</text>
</a>
</g>
</g>
<!-- Node16&#45;&gt;Node17 -->
<g id="edge22_Node000016_Node000017" class="edge">
<title>Node16&#45;&gt;Node17</title>
<g id="a_edge22_Node000016_Node000017"><a xlink:title=" ">
<path fill="none" stroke="#63b8ff" d="M454.46,-111.59C456.58,-104.86 459.52,-95.53 462.16,-87.15"/>
<polygon fill="#63b8ff" stroke="#63b8ff" points="465.45,-88.33 465.12,-77.74 458.78,-86.23 465.45,-88.33"/>
</a>
</g>
</g>
<!-- Node18&#45;&gt;Node3 -->
<g id="edge28_Node000018_Node000003" class="edge">
<title>Node18&#45;&gt;Node3</title>
<g id="a_edge28_Node000018_Node000003"><a xlink:title=" ">
<path fill="none" stroke="#63b8ff" d="M632.92,-167.59C625.27,-160.08 614.34,-149.35 605.12,-140.3"/>
<polygon fill="#63b8ff" stroke="#63b8ff" points="607.64,-137.87 598.05,-133.36 602.73,-142.86 607.64,-137.87"/>
</a>
</g>
</g>
<!-- Node18&#45;&gt;Node4 -->
<g id="edge27_Node000018_Node000004" class="edge">
<title>Node18&#45;&gt;Node4</title>
<g id="a_edge27_Node000018_Node000004"><a xlink:title=" ">
<path fill="none" stroke="#63b8ff" d="M650.69,-167.59C657.09,-160.24 666.18,-149.8 673.95,-140.87"/>
<polygon fill="#63b8ff" stroke="#63b8ff" points="676.49,-143.28 680.41,-133.44 671.21,-138.69 676.49,-143.28"/>
</a>
</g>
</g>
<!-- Node18&#45;&gt;Node5 -->
<g id="edge26_Node000018_Node000005" class="edge">
<title>Node18&#45;&gt;Node5</title>
<g id="a_edge26_Node000018_Node000005"><a xlink:title=" ">
<path fill="none" stroke="#63b8ff" d="M642.49,-167.9C641.95,-153.71 638.72,-126.46 622.5,-112 621.61,-111.21 504.06,-89.6 433.14,-76.62"/>
<polygon fill="#63b8ff" stroke="#63b8ff" points="434.14,-73.24 423.67,-74.88 432.88,-80.13 434.14,-73.24"/>
</a>
</g>
</g>
<!-- Node18&#45;&gt;Node6 -->
<g id="edge29_Node000018_Node000006" class="edge">
<title>Node18&#45;&gt;Node6</title>
<g id="a_edge29_Node000018_Node000006"><a xlink:title=" ">
<path fill="none" stroke="#63b8ff" d="M663.23,-167.59C681.71,-159.21 709.04,-146.8 730.19,-137.21"/>
<polygon fill="#63b8ff" stroke="#63b8ff" points="731.57,-140.42 739.23,-133.1 728.68,-134.05 731.57,-140.42"/>
</a>
</g>
</g>
<!-- Node20 -->
<g id="Node000020" class="node">
<title>Node20</title>
<g id="a_Node000020"><a xlink:href="Event_8hpp.html" target="_top" xlink:title=" ">
<polygon fill="white" stroke="#666666" points="341.62,-132 281.38,-132 281.38,-112 341.62,-112 341.62,-132"/>
<text text-anchor="middle" x="311.5" y="-118.5" font-family="Helvetica,sans-Serif" font-size="10.00">Event.hpp</text>
</a>
</g>
</g>
<!-- Node19&#45;&gt;Node20 -->
<g id="edge31_Node000019_Node000020" class="edge">
<title>Node19&#45;&gt;Node20</title>
<g id="a_edge31_Node000019_Node000020"><a xlink:title=" ">
<path fill="none" stroke="#63b8ff" d="M277.64,-167.59C283.11,-160.39 290.82,-150.23 297.51,-141.43"/>
<polygon fill="#63b8ff" stroke="#63b8ff" points="300.27,-143.58 303.52,-133.5 294.69,-139.35 300.27,-143.58"/>
</a>
</g>
</g>
<!-- Node22 -->
<g id="Node000022" class="node">
<title>Node22</title>
<g id="a_Node000022"><a xlink:title=" ">
<polygon fill="#e0e0e0" stroke="#999999" points="263.5,-132 205.5,-132 205.5,-112 263.5,-112 263.5,-132"/>
<text text-anchor="middle" x="234.5" y="-118.5" font-family="Helvetica,sans-Serif" font-size="10.00">functional</text>
</a>
</g>
</g>
<!-- Node19&#45;&gt;Node22 -->
<g id="edge35_Node000019_Node000022" class="edge">
<title>Node19&#45;&gt;Node22</title>
<g id="a_edge35_Node000019_Node000022"><a xlink:title=" ">
<path fill="none" stroke="#63b8ff" d="M264.23,-167.59C259.48,-160.47 252.8,-150.45 246.98,-141.72"/>
<polygon fill="#63b8ff" stroke="#63b8ff" points="250,-139.94 241.54,-133.56 244.17,-143.82 250,-139.94"/>
</a>
</g>
</g>
<!-- Node23 -->
<g id="Node000023" class="node">
<title>Node23</title>
<g id="a_Node000023"><a xlink:title=" ">
<polygon fill="#e0e0e0" stroke="#999999" points="187.9,-132 159.1,-132 159.1,-112 187.9,-112 187.9,-132"/>
<text text-anchor="middle" x="173.5" y="-118.5" font-family="Helvetica,sans-Serif" font-size="10.00">list</text>
</a>
</g>
</g>
<!-- Node19&#45;&gt;Node23 -->
<g id="edge36_Node000019_Node000023" class="edge">
<title>Node19&#45;&gt;Node23</title>
<g id="a_edge36_Node000019_Node000023"><a xlink:title=" ">
<path fill="none" stroke="#63b8ff" d="M253.6,-167.59C238.32,-159.09 215.62,-146.45 198.29,-136.8"/>
<polygon fill="#63b8ff" stroke="#63b8ff" points="200.06,-133.78 189.62,-131.97 196.66,-139.9 200.06,-133.78"/>
</a>
</g>
</g>
<!-- Node20&#45;&gt;Node5 -->
<g id="edge33_Node000020_Node000005" class="edge">
<title>Node20&#45;&gt;Node5</title>
<g id="a_edge33_Node000020_Node000005"><a xlink:title=" ">
<path fill="none" stroke="#63b8ff" d="M323.52,-111.59C333.51,-103.77 347.96,-92.46 359.81,-83.19"/>
<polygon fill="#63b8ff" stroke="#63b8ff" points="361.71,-86.15 367.43,-77.23 357.39,-80.64 361.71,-86.15"/>
</a>
</g>
</g>
<!-- Node20&#45;&gt;Node9 -->
<g id="edge32_Node000020_Node000009" class="edge">
<title>Node20&#45;&gt;Node9</title>
<g id="a_edge32_Node000020_Node000009"><a xlink:title=" ">
<path fill="none" stroke="#63b8ff" d="M311.33,-111.89C311.61,-97.68 314.36,-70.41 330.5,-56 363.32,-26.69 493.31,-16.03 556.14,-12.53"/>
<polygon fill="#63b8ff" stroke="#63b8ff" points="556.09,-16.04 565.9,-12.02 555.73,-9.05 556.09,-16.04"/>
</a>
</g>
</g>
<!-- Node21 -->
<g id="Node000021" class="node">
<title>Node21</title>
<g id="a_Node000021"><a xlink:title=" ">
<polygon fill="#e0e0e0" stroke="#999999" points="283.38,-76 251.62,-76 251.62,-56 283.38,-56 283.38,-76"/>
<text text-anchor="middle" x="267.5" y="-62.5" font-family="Helvetica,sans-Serif" font-size="10.00">any</text>
</a>
</g>
</g>
<!-- Node20&#45;&gt;Node21 -->
<g id="edge34_Node000020_Node000021" class="edge">
<title>Node20&#45;&gt;Node21</title>
<g id="a_edge34_Node000020_Node000021"><a xlink:title=" ">
<path fill="none" stroke="#63b8ff" d="M303.84,-111.59C297.91,-104.32 289.51,-94.02 282.29,-85.15"/>
<polygon fill="#63b8ff" stroke="#63b8ff" points="285.06,-83.01 276.03,-77.47 279.64,-87.43 285.06,-83.01"/>
</a>
</g>
</g>
<!-- Node25 -->
<g id="Node000025" class="node">
<title>Node25</title>
<g id="a_Node000025"><a xlink:href="Utils_8hpp.html" target="_top" xlink:title=" ">
<polygon fill="white" stroke="#666666" points="998,-188 943,-188 943,-168 998,-168 998,-188"/>
<text text-anchor="middle" x="970.5" y="-174.5" font-family="Helvetica,sans-Serif" font-size="10.00">Utils.hpp</text>
</a>
</g>
</g>
<!-- Node24&#45;&gt;Node25 -->
<g id="edge38_Node000024_Node000025" class="edge">
<title>Node24&#45;&gt;Node25</title>
<g id="a_edge38_Node000024_Node000025"><a xlink:title=" ">
<path fill="none" stroke="#63b8ff" d="M878.01,-223.59C895.25,-215.28 920.66,-203.03 940.49,-193.47"/>
<polygon fill="#63b8ff" stroke="#63b8ff" points="941.99,-196.63 949.48,-189.14 938.95,-190.33 941.99,-196.63"/>
</a>
</g>
</g>
<!-- Node25&#45;&gt;Node9 -->
<g id="edge39_Node000025_Node000009" class="edge">
<title>Node25&#45;&gt;Node9</title>
<g id="a_edge39_Node000025_Node000009"><a xlink:title=" ">
<path fill="none" stroke="#63b8ff" d="M971.52,-167.78C972.53,-153.93 972.27,-127.7 958.5,-112 858.78,1.66 776.61,-54.86 624.6,-20.3"/>
<polygon fill="#63b8ff" stroke="#63b8ff" points="625.54,-16.92 615,-18 623.91,-23.73 625.54,-16.92"/>
</a>
</g>
</g>
<!-- Node26&#45;&gt;Node4 -->
<g id="edge43_Node000026_Node000004" class="edge">
<title>Node26&#45;&gt;Node4</title>
<g id="a_edge43_Node000026_Node000004"><a xlink:title=" ">
<path fill="none" stroke="#63b8ff" d="M951.43,-223.53C913.69,-215.99 862.16,-204.04 818.5,-188 781.22,-174.3 740.69,-152.68 715.21,-138.17"/>
<polygon fill="#63b8ff" stroke="#63b8ff" points="716.98,-135.16 706.57,-133.19 713.48,-141.22 716.98,-135.16"/>
</a>
</g>
</g>
<!-- Node26&#45;&gt;Node25 -->
<g id="edge44_Node000026_Node000025" class="edge">
<title>Node26&#45;&gt;Node25</title>
<g id="a_edge44_Node000026_Node000025"><a xlink:title=" ">
<path fill="none" stroke="#63b8ff" d="M998.58,-223.59C994.14,-216.55 987.92,-206.67 982.46,-198"/>
<polygon fill="#63b8ff" stroke="#63b8ff" points="985.45,-196.18 977.16,-189.58 979.53,-199.91 985.45,-196.18"/>
</a>
</g>
</g>
<!-- Node27 -->
<g id="Node000027" class="node">
<title>Node27</title>
<g id="a_Node000027"><a xlink:title=" ">
<polygon fill="#e0e0e0" stroke="#999999" points="1059,-188 1016,-188 1016,-168 1059,-168 1059,-188"/>
<text text-anchor="middle" x="1037.5" y="-174.5" font-family="Helvetica,sans-Serif" font-size="10.00">vector</text>
</a>
</g>
</g>
<!-- Node26&#45;&gt;Node27 -->
<g id="edge41_Node000026_Node000027" class="edge">
<title>Node26&#45;&gt;Node27</title>
<g id="a_edge41_Node000026_Node000027"><a xlink:title=" ">
<path fill="none" stroke="#63b8ff" d="M1010.25,-223.59C1014.55,-216.55 1020.59,-206.67 1025.89,-198"/>
<polygon fill="#63b8ff" stroke="#63b8ff" points="1028.8,-199.95 1031.03,-189.59 1022.83,-196.3 1028.8,-199.95"/>
</a>
</g>
</g>
<!-- Node28 -->
<g id="Node000028" class="node">
<title>Node28</title>
<g id="a_Node000028"><a xlink:title=" ">
<polygon fill="#e0e0e0" stroke="#999999" points="1125.62,-188 1077.38,-188 1077.38,-168 1125.62,-168 1125.62,-188"/>
<text text-anchor="middle" x="1101.5" y="-174.5" font-family="Helvetica,sans-Serif" font-size="10.00">cstddef</text>
</a>
</g>
</g>
<!-- Node26&#45;&gt;Node28 -->
<g id="edge42_Node000026_Node000028" class="edge">
<title>Node26&#45;&gt;Node28</title>
<g id="a_edge42_Node000026_Node000028"><a xlink:title=" ">
<path fill="none" stroke="#63b8ff" d="M1021.4,-223.59C1036.05,-215.44 1057.52,-203.48 1074.55,-194"/>
<polygon fill="#63b8ff" stroke="#63b8ff" points="1076.11,-197.14 1083.15,-189.22 1072.71,-191.02 1076.11,-197.14"/>
</a>
</g>
</g>
</g>
</svg>
