<?xml version="1.0" encoding="UTF-8" standalone="no"?>
<!DOCTYPE svg PUBLIC "-//W3C//DTD SVG 1.1//EN"
 "http://www.w3.org/Graphics/SVG/1.1/DTD/svg11.dtd">
<!-- Generated by graphviz version 12.1.0 (20240811.2233)
 -->
<!-- Title: Render.hpp Pages: 1 -->
<svg width="1485pt" height="476pt"
 viewBox="0.00 0.00 1484.98 476.00" xmlns="http://www.w3.org/2000/svg" xmlns:xlink="http://www.w3.org/1999/xlink">
<g id="graph0" class="graph" transform="scale(1 1) rotate(0) translate(4 472)">
<title>Render.hpp</title>
<!-- Node1 -->
<g id="Node000001" class="node">
<title>Node1</title>
<g id="a_Node000001"><a xlink:title=" ">
<polygon fill="#999999" stroke="#666666" points="1116.11,-468 1049.86,-468 1049.86,-448 1116.11,-448 1116.11,-468"/>
<text text-anchor="middle" x="1082.98" y="-454.5" font-family="Helvetica,sans-Serif" font-size="10.00">Render.hpp</text>
</a>
</g>
</g>
<!-- Node2 -->
<g id="Node000002" class="node">
<title>Node2</title>
<g id="a_Node000002"><a xlink:title=" ">
<polygon fill="#e0e0e0" stroke="#999999" points="1169.61,-132 1118.36,-132 1118.36,-112 1169.61,-112 1169.61,-132"/>
<text text-anchor="middle" x="1143.98" y="-118.5" font-family="Helvetica,sans-Serif" font-size="10.00">memory</text>
</a>
</g>
</g>
<!-- Node1&#45;&gt;Node2 -->
<g id="edge1_Node000001_Node000002" class="edge">
<title>Node1&#45;&gt;Node2</title>
<g id="a_edge1_Node000001_Node000002"><a xlink:title=" ">
<path fill="none" stroke="#63b8ff" d="M1116.56,-450.28C1164.54,-438.51 1246.98,-409.22 1246.98,-347 1246.98,-347 1246.98,-347 1246.98,-233 1246.98,-189.28 1203.09,-155.77 1172.61,-137.76"/>
<polygon fill="#63b8ff" stroke="#63b8ff" points="1174.62,-134.88 1164.19,-133.01 1171.17,-140.97 1174.62,-134.88"/>
</a>
</g>
</g>
<!-- Node3 -->
<g id="Node000003" class="node">
<title>Node3</title>
<g id="a_Node000003"><a xlink:title=" ">
<polygon fill="#e0e0e0" stroke="#999999" points="352.98,-132 312.98,-132 312.98,-112 352.98,-112 352.98,-132"/>
<text text-anchor="middle" x="332.98" y="-118.5" font-family="Helvetica,sans-Serif" font-size="10.00">string</text>
</a>
</g>
</g>
<!-- Node1&#45;&gt;Node3 -->
<g id="edge2_Node000001_Node000003" class="edge">
<title>Node1&#45;&gt;Node3</title>
<g id="a_edge2_Node000001_Node000003"><a xlink:title=" ">
<path fill="none" stroke="#63b8ff" d="M1049.58,-457.53C895.05,-459.08 256.98,-455.55 256.98,-291 256.98,-291 256.98,-291 256.98,-233 256.98,-194.24 289.32,-159.24 311.81,-139.59"/>
<polygon fill="#63b8ff" stroke="#63b8ff" points="313.85,-142.44 319.27,-133.34 309.36,-137.08 313.85,-142.44"/>
</a>
</g>
</g>
<!-- Node4 -->
<g id="Node000004" class="node">
<title>Node4</title>
<g id="a_Node000004"><a xlink:title=" ">
<polygon fill="#e0e0e0" stroke="#999999" points="1326.36,-76 1243.61,-76 1243.61,-56 1326.36,-56 1326.36,-76"/>
<text text-anchor="middle" x="1284.98" y="-62.5" font-family="Helvetica,sans-Serif" font-size="10.00">unordered_map</text>
</a>
</g>
</g>
<!-- Node1&#45;&gt;Node4 -->
<g id="edge3_Node000001_Node000004" class="edge">
<title>Node1&#45;&gt;Node4</title>
<g id="a_edge3_Node000001_Node000004"><a xlink:title=" ">
<path fill="none" stroke="#63b8ff" d="M1116.47,-453.88C1205.09,-444.7 1438.98,-414.11 1438.98,-347 1438.98,-347 1438.98,-347 1438.98,-177 1438.98,-146.9 1440.86,-133.68 1419.98,-112 1398.51,-89.72 1365.74,-78.47 1337.86,-72.79"/>
<polygon fill="#63b8ff" stroke="#63b8ff" points="1338.61,-69.37 1328.15,-71.01 1337.35,-76.25 1338.61,-69.37"/>
</a>
</g>
</g>
<!-- Node5 -->
<g id="Node000005" class="node">
<title>Node5</title>
<g id="a_Node000005"><a xlink:href="System_8hpp.html" target="_top" xlink:title=" ">
<polygon fill="white" stroke="#666666" points="1256.23,-132 1187.73,-132 1187.73,-112 1256.23,-112 1256.23,-132"/>
<text text-anchor="middle" x="1221.98" y="-118.5" font-family="Helvetica,sans-Serif" font-size="10.00">System.hpp</text>
</a>
</g>
</g>
<!-- Node1&#45;&gt;Node5 -->
<g id="edge4_Node000001_Node000005" class="edge">
<title>Node1&#45;&gt;Node5</title>
<g id="a_edge4_Node000001_Node000005"><a xlink:title=" ">
<path fill="none" stroke="#63b8ff" d="M1116.6,-456.5C1182.66,-453.55 1322.98,-436.72 1322.98,-347 1322.98,-347 1322.98,-347 1322.98,-233 1322.98,-189.86 1280.32,-156.33 1250.45,-138.14"/>
<polygon fill="#63b8ff" stroke="#63b8ff" points="1252.22,-135.12 1241.81,-133.12 1248.7,-141.17 1252.22,-135.12"/>
</a>
</g>
</g>
<!-- Node10 -->
<g id="Node000010" class="node">
<title>Node10</title>
<g id="a_Node000010"><a xlink:href="Mediator_8hpp.html" target="_top" xlink:title=" ">
<polygon fill="white" stroke="#666666" points="931.11,-244 858.86,-244 858.86,-224 931.11,-224 931.11,-244"/>
<text text-anchor="middle" x="894.98" y="-230.5" font-family="Helvetica,sans-Serif" font-size="10.00">Mediator.hpp</text>
</a>
</g>
</g>
<!-- Node1&#45;&gt;Node10 -->
<g id="edge9_Node000001_Node000010" class="edge">
<title>Node1&#45;&gt;Node10</title>
<g id="a_edge9_Node000001_Node000010"><a xlink:title=" ">
<path fill="none" stroke="#63b8ff" d="M1089.12,-447.65C1107.09,-419 1155.78,-331.26 1113.98,-280 1092.81,-254.04 1000.63,-242.63 942.82,-237.95"/>
<polygon fill="#63b8ff" stroke="#63b8ff" points="943.14,-234.46 932.9,-237.19 942.61,-241.44 943.14,-234.46"/>
</a>
</g>
</g>
<!-- Node26 -->
<g id="Node000026" class="node">
<title>Node26</title>
<g id="a_Node000026"><a xlink:href="Transform_8hpp.html" target="_top" xlink:title=" ">
<polygon fill="white" stroke="#666666" points="249.73,-412 112.23,-412 112.23,-392 249.73,-392 249.73,-412"/>
<text text-anchor="middle" x="180.98" y="-398.5" font-family="Helvetica,sans-Serif" font-size="10.00">Components/Transform.hpp</text>
</a>
</g>
</g>
<!-- Node1&#45;&gt;Node26 -->
<g id="edge44_Node000001_Node000026" class="edge">
<title>Node1&#45;&gt;Node26</title>
<g id="a_edge44_Node000001_Node000026"><a xlink:title=" ">
<path fill="none" stroke="#63b8ff" d="M1049.39,-455.79C937.67,-451.65 568.42,-436.85 263.98,-412 262.97,-411.92 261.95,-411.83 260.93,-411.75"/>
<polygon fill="#63b8ff" stroke="#63b8ff" points="261.58,-408.29 251.3,-410.88 260.95,-415.26 261.58,-408.29"/>
</a>
</g>
</g>
<!-- Node29 -->
<g id="Node000029" class="node">
<title>Node29</title>
<g id="a_Node000029"><a xlink:href="Sprite_8hpp.html" target="_top" xlink:title=" ">
<polygon fill="white" stroke="#666666" points="153.36,-244 34.61,-244 34.61,-224 153.36,-224 153.36,-244"/>
<text text-anchor="middle" x="93.98" y="-230.5" font-family="Helvetica,sans-Serif" font-size="10.00">Components/Sprite.hpp</text>
</a>
</g>
</g>
<!-- Node1&#45;&gt;Node29 -->
<g id="edge50_Node000001_Node000029" class="edge">
<title>Node1&#45;&gt;Node29</title>
<g id="a_edge50_Node000001_Node000029"><a xlink:title=" ">
<path fill="none" stroke="#63b8ff" d="M1049.42,-456.71C881.29,-455.11 137.24,-446.09 102.98,-412 61.24,-370.47 76.88,-292.12 87.43,-255.21"/>
<polygon fill="#63b8ff" stroke="#63b8ff" points="90.72,-256.42 90.28,-245.84 84.02,-254.39 90.72,-256.42"/>
</a>
</g>
</g>
<!-- Node31 -->
<g id="Node000031" class="node">
<title>Node31</title>
<g id="a_Node000031"><a xlink:href="Renderer_8hpp.html" target="_top" xlink:title=" ">
<polygon fill="white" stroke="#666666" points="1020.23,-412 945.73,-412 945.73,-392 1020.23,-392 1020.23,-412"/>
<text text-anchor="middle" x="982.98" y="-398.5" font-family="Helvetica,sans-Serif" font-size="10.00">Renderer.hpp</text>
</a>
</g>
</g>
<!-- Node1&#45;&gt;Node31 -->
<g id="edge56_Node000001_Node000031" class="edge">
<title>Node1&#45;&gt;Node31</title>
<g id="a_edge56_Node000001_Node000031"><a xlink:title=" ">
<path fill="none" stroke="#63b8ff" d="M1065.56,-447.59C1050.31,-439.36 1027.9,-427.26 1010.27,-417.74"/>
<polygon fill="#63b8ff" stroke="#63b8ff" points="1012.33,-414.87 1001.87,-413.2 1009,-421.03 1012.33,-414.87"/>
</a>
</g>
</g>
<!-- Node6 -->
<g id="Node000006" class="node">
<title>Node6</title>
<g id="a_Node000006"><a xlink:title=" ">
<polygon fill="#e0e0e0" stroke="#999999" points="1225.73,-76 1196.23,-76 1196.23,-56 1225.73,-56 1225.73,-76"/>
<text text-anchor="middle" x="1210.98" y="-62.5" font-family="Helvetica,sans-Serif" font-size="10.00">set</text>
</a>
</g>
</g>
<!-- Node5&#45;&gt;Node6 -->
<g id="edge5_Node000005_Node000006" class="edge">
<title>Node5&#45;&gt;Node6</title>
<g id="a_edge5_Node000005_Node000006"><a xlink:title=" ">
<path fill="none" stroke="#63b8ff" d="M1220.06,-111.59C1218.71,-104.93 1216.84,-95.75 1215.14,-87.44"/>
<polygon fill="#63b8ff" stroke="#63b8ff" points="1218.6,-86.88 1213.18,-77.78 1211.74,-88.28 1218.6,-86.88"/>
</a>
</g>
</g>
<!-- Node7 -->
<g id="Node000007" class="node">
<title>Node7</title>
<g id="a_Node000007"><a xlink:href="Entity_8hpp.html" target="_top" xlink:title=" ">
<polygon fill="white" stroke="#666666" points="559.73,-76 500.23,-76 500.23,-56 559.73,-56 559.73,-76"/>
<text text-anchor="middle" x="529.98" y="-62.5" font-family="Helvetica,sans-Serif" font-size="10.00">Entity.hpp</text>
</a>
</g>
</g>
<!-- Node5&#45;&gt;Node7 -->
<g id="edge6_Node000005_Node000007" class="edge">
<title>Node5&#45;&gt;Node7</title>
<g id="a_edge6_Node000005_Node000007"><a xlink:title=" ">
<path fill="none" stroke="#63b8ff" d="M1187.32,-113.29C1184.51,-112.8 1181.7,-112.36 1178.98,-112 913.46,-76.57 839.8,-113.63 571.39,-76.09"/>
<polygon fill="#63b8ff" stroke="#63b8ff" points="572.01,-72.64 561.62,-74.69 571.03,-79.57 572.01,-72.64"/>
</a>
</g>
</g>
<!-- Node8 -->
<g id="Node000008" class="node">
<title>Node8</title>
<g id="a_Node000008"><a xlink:title=" ">
<polygon fill="#e0e0e0" stroke="#999999" points="1001.61,-20 956.36,-20 956.36,0 1001.61,0 1001.61,-20"/>
<text text-anchor="middle" x="978.98" y="-6.5" font-family="Helvetica,sans-Serif" font-size="10.00">cstdint</text>
</a>
</g>
</g>
<!-- Node7&#45;&gt;Node8 -->
<g id="edge7_Node000007_Node000008" class="edge">
<title>Node7&#45;&gt;Node8</title>
<g id="a_edge7_Node000007_Node000008"><a xlink:title=" ">
<path fill="none" stroke="#63b8ff" d="M560.14,-57.67C563.12,-57.06 566.1,-56.49 568.98,-56 707.46,-32.51 874.44,-18.6 944.94,-13.38"/>
<polygon fill="#63b8ff" stroke="#63b8ff" points="944.95,-16.88 954.67,-12.67 944.45,-9.9 944.95,-16.88"/>
</a>
</g>
</g>
<!-- Node9 -->
<g id="Node000009" class="node">
<title>Node9</title>
<g id="a_Node000009"><a xlink:title=" ">
<polygon fill="#e0e0e0" stroke="#999999" points="549.98,-20 509.98,-20 509.98,0 549.98,0 549.98,-20"/>
<text text-anchor="middle" x="529.98" y="-6.5" font-family="Helvetica,sans-Serif" font-size="10.00">bitset</text>
</a>
</g>
</g>
<!-- Node7&#45;&gt;Node9 -->
<g id="edge8_Node000007_Node000009" class="edge">
<title>Node7&#45;&gt;Node9</title>
<g id="a_edge8_Node000007_Node000009"><a xlink:title=" ">
<path fill="none" stroke="#63b8ff" d="M529.98,-55.59C529.98,-49.01 529.98,-39.96 529.98,-31.73"/>
<polygon fill="#63b8ff" stroke="#63b8ff" points="533.48,-31.81 529.98,-21.81 526.48,-31.81 533.48,-31.81"/>
</a>
</g>
</g>
<!-- Node10&#45;&gt;Node2 -->
<g id="edge11_Node000010_Node000002" class="edge">
<title>Node10&#45;&gt;Node2</title>
<g id="a_edge11_Node000010_Node000002"><a xlink:title=" ">
<path fill="none" stroke="#63b8ff" d="M931.39,-232.16C995.47,-229.82 1124.23,-221.03 1151.98,-188 1162.48,-175.5 1158.68,-156.57 1153.33,-142.36"/>
<polygon fill="#63b8ff" stroke="#63b8ff" points="1156.71,-141.37 1149.54,-133.57 1150.28,-144.14 1156.71,-141.37"/>
</a>
</g>
</g>
<!-- Node11 -->
<g id="Node000011" class="node">
<title>Node11</title>
<g id="a_Node000011"><a xlink:title=" ">
<polygon fill="#e0e0e0" stroke="#999999" points="631.73,-76 578.23,-76 578.23,-56 631.73,-56 631.73,-76"/>
<text text-anchor="middle" x="604.98" y="-62.5" font-family="Helvetica,sans-Serif" font-size="10.00">iostream</text>
</a>
</g>
</g>
<!-- Node10&#45;&gt;Node11 -->
<g id="edge10_Node000010_Node000011" class="edge">
<title>Node10&#45;&gt;Node11</title>
<g id="a_edge10_Node000010_Node000011"><a xlink:title=" ">
<path fill="none" stroke="#63b8ff" d="M858.61,-231.65C792.26,-228.47 655.17,-218.31 619.98,-188 591.61,-163.56 595.28,-115.12 600.27,-87.52"/>
<polygon fill="#63b8ff" stroke="#63b8ff" points="603.65,-88.44 602.23,-77.94 596.79,-87.04 603.65,-88.44"/>
</a>
</g>
</g>
<!-- Node12 -->
<g id="Node000012" class="node">
<title>Node12</title>
<g id="a_Node000012"><a xlink:title=" ">
<polygon fill="#e0e0e0" stroke="#999999" points="1016.48,-132 973.48,-132 973.48,-112 1016.48,-112 1016.48,-132"/>
<text text-anchor="middle" x="994.98" y="-118.5" font-family="Helvetica,sans-Serif" font-size="10.00">vector</text>
</a>
</g>
</g>
<!-- Node10&#45;&gt;Node12 -->
<g id="edge12_Node000010_Node000012" class="edge">
<title>Node10&#45;&gt;Node12</title>
<g id="a_edge12_Node000010_Node000012"><a xlink:title=" ">
<path fill="none" stroke="#63b8ff" d="M907.22,-223.69C918.21,-215.04 934.49,-201.49 946.98,-188 960.5,-173.4 973.77,-155.02 982.92,-141.54"/>
<polygon fill="#63b8ff" stroke="#63b8ff" points="985.59,-143.85 988.21,-133.58 979.76,-139.97 985.59,-143.85"/>
</a>
</g>
</g>
<!-- Node13 -->
<g id="Node000013" class="node">
<title>Node13</title>
<g id="a_Node000013"><a xlink:href="EntityManager_8hpp.html" target="_top" xlink:title=" ">
<polygon fill="white" stroke="#666666" points="534.86,-188 437.11,-188 437.11,-168 534.86,-168 534.86,-188"/>
<text text-anchor="middle" x="485.98" y="-174.5" font-family="Helvetica,sans-Serif" font-size="10.00">EntityManager.hpp</text>
</a>
</g>
</g>
<!-- Node10&#45;&gt;Node13 -->
<g id="edge13_Node000010_Node000013" class="edge">
<title>Node10&#45;&gt;Node13</title>
<g id="a_edge13_Node000010_Node000013"><a xlink:title=" ">
<path fill="none" stroke="#63b8ff" d="M858.68,-228.21C788.33,-218.92 632.77,-198.38 546.52,-186.99"/>
<polygon fill="#63b8ff" stroke="#63b8ff" points="547.21,-183.55 536.84,-185.72 546.3,-190.49 547.21,-183.55"/>
</a>
</g>
</g>
<!-- Node16 -->
<g id="Node000016" class="node">
<title>Node16</title>
<g id="a_Node000016"><a xlink:href="ComponentManager_8hpp.html" target="_top" xlink:title=" ">
<polygon fill="white" stroke="#666666" points="751.23,-188 628.73,-188 628.73,-168 751.23,-168 751.23,-188"/>
<text text-anchor="middle" x="689.98" y="-174.5" font-family="Helvetica,sans-Serif" font-size="10.00">ComponentManager.hpp</text>
</a>
</g>
</g>
<!-- Node10&#45;&gt;Node16 -->
<g id="edge17_Node000010_Node000016" class="edge">
<title>Node10&#45;&gt;Node16</title>
<g id="a_edge17_Node000010_Node000016"><a xlink:title=" ">
<path fill="none" stroke="#63b8ff" d="M859.27,-223.59C825.38,-214.67 774.23,-201.19 737.03,-191.39"/>
<polygon fill="#63b8ff" stroke="#63b8ff" points="737.99,-188.03 727.43,-188.87 736.21,-194.8 737.99,-188.03"/>
</a>
</g>
</g>
<!-- Node20 -->
<g id="Node000020" class="node">
<title>Node20</title>
<g id="a_Node000020"><a xlink:href="SystemManager_8hpp.html" target="_top" xlink:title=" ">
<polygon fill="white" stroke="#666666" points="1142.98,-188 1036.98,-188 1036.98,-168 1142.98,-168 1142.98,-188"/>
<text text-anchor="middle" x="1089.98" y="-174.5" font-family="Helvetica,sans-Serif" font-size="10.00">SystemManager.hpp</text>
</a>
</g>
</g>
<!-- Node10&#45;&gt;Node20 -->
<g id="edge30_Node000010_Node000020" class="edge">
<title>Node10&#45;&gt;Node20</title>
<g id="a_edge30_Node000010_Node000020"><a xlink:title=" ">
<path fill="none" stroke="#63b8ff" d="M928.95,-223.59C961.05,-214.71 1009.42,-201.31 1044.77,-191.52"/>
<polygon fill="#63b8ff" stroke="#63b8ff" points="1045.59,-194.93 1054.29,-188.88 1043.72,-188.18 1045.59,-194.93"/>
</a>
</g>
</g>
<!-- Node21 -->
<g id="Node000021" class="node">
<title>Node21</title>
<g id="a_Node000021"><a xlink:href="EventManager_8hpp.html" target="_top" xlink:title=" ">
<polygon fill="white" stroke="#666666" points="904.86,-188 807.11,-188 807.11,-168 904.86,-168 904.86,-188"/>
<text text-anchor="middle" x="855.98" y="-174.5" font-family="Helvetica,sans-Serif" font-size="10.00">EventManager.hpp</text>
</a>
</g>
</g>
<!-- Node10&#45;&gt;Node21 -->
<g id="edge37_Node000010_Node000021" class="edge">
<title>Node10&#45;&gt;Node21</title>
<g id="a_edge37_Node000010_Node000021"><a xlink:title=" ">
<path fill="none" stroke="#63b8ff" d="M888.19,-223.59C882.99,-216.39 875.65,-206.23 869.29,-197.43"/>
<polygon fill="#63b8ff" stroke="#63b8ff" points="872.27,-195.58 863.58,-189.53 866.6,-199.68 872.27,-195.58"/>
</a>
</g>
</g>
<!-- Node13&#45;&gt;Node7 -->
<g id="edge16_Node000013_Node000007" class="edge">
<title>Node13&#45;&gt;Node7</title>
<g id="a_edge16_Node000013_Node000007"><a xlink:title=" ">
<path fill="none" stroke="#63b8ff" d="M478.84,-167.77C469.75,-154.79 456.29,-130.65 465.98,-112 472.68,-99.1 484.97,-89.12 496.99,-81.87"/>
<polygon fill="#63b8ff" stroke="#63b8ff" points="498.5,-85.04 505.58,-77.15 495.13,-78.9 498.5,-85.04"/>
</a>
</g>
</g>
<!-- Node14 -->
<g id="Node000014" class="node">
<title>Node14</title>
<g id="a_Node000014"><a xlink:title=" ">
<polygon fill="#e0e0e0" stroke="#999999" points="517.11,-132 474.86,-132 474.86,-112 517.11,-112 517.11,-132"/>
<text text-anchor="middle" x="495.98" y="-118.5" font-family="Helvetica,sans-Serif" font-size="10.00">queue</text>
</a>
</g>
</g>
<!-- Node13&#45;&gt;Node14 -->
<g id="edge14_Node000013_Node000014" class="edge">
<title>Node13&#45;&gt;Node14</title>
<g id="a_edge14_Node000013_Node000014"><a xlink:title=" ">
<path fill="none" stroke="#63b8ff" d="M487.72,-167.59C488.96,-160.93 490.66,-151.75 492.2,-143.44"/>
<polygon fill="#63b8ff" stroke="#63b8ff" points="495.6,-144.26 493.98,-133.79 488.72,-142.98 495.6,-144.26"/>
</a>
</g>
</g>
<!-- Node15 -->
<g id="Node000015" class="node">
<title>Node15</title>
<g id="a_Node000015"><a xlink:title=" ">
<polygon fill="#e0e0e0" stroke="#999999" points="291.86,-132 254.11,-132 254.11,-112 291.86,-112 291.86,-132"/>
<text text-anchor="middle" x="272.98" y="-118.5" font-family="Helvetica,sans-Serif" font-size="10.00">array</text>
</a>
</g>
</g>
<!-- Node13&#45;&gt;Node15 -->
<g id="edge15_Node000013_Node000015" class="edge">
<title>Node13&#45;&gt;Node15</title>
<g id="a_edge15_Node000013_Node000015"><a xlink:title=" ">
<path fill="none" stroke="#63b8ff" d="M445.74,-167.54C408.78,-158.74 352.55,-145.05 303.98,-132 303.74,-131.94 303.51,-131.87 303.27,-131.81"/>
<polygon fill="#63b8ff" stroke="#63b8ff" points="304.33,-128.47 293.75,-129.15 302.44,-135.21 304.33,-128.47"/>
</a>
</g>
</g>
<!-- Node16&#45;&gt;Node2 -->
<g id="edge20_Node000016_Node000002" class="edge">
<title>Node16&#45;&gt;Node2</title>
<g id="a_edge20_Node000016_Node000002"><a xlink:title=" ">
<path fill="none" stroke="#63b8ff" d="M751.68,-169.66C847.38,-158.28 1028.7,-136.71 1106.73,-127.43"/>
<polygon fill="#63b8ff" stroke="#63b8ff" points="1106.89,-130.94 1116.4,-126.28 1106.06,-123.99 1106.89,-130.94"/>
</a>
</g>
</g>
<!-- Node16&#45;&gt;Node3 -->
<g id="edge19_Node000016_Node000003" class="edge">
<title>Node16&#45;&gt;Node3</title>
<g id="a_edge19_Node000016_Node000003"><a xlink:title=" ">
<path fill="none" stroke="#63b8ff" d="M628.61,-167.72C551.95,-156.12 423.7,-136.72 364.58,-127.78"/>
<polygon fill="#63b8ff" stroke="#63b8ff" points="365.3,-124.35 354.88,-126.31 364.25,-131.27 365.3,-124.35"/>
</a>
</g>
</g>
<!-- Node16&#45;&gt;Node4 -->
<g id="edge18_Node000016_Node000004" class="edge">
<title>Node16&#45;&gt;Node4</title>
<g id="a_edge18_Node000016_Node000004"><a xlink:title=" ">
<path fill="none" stroke="#63b8ff" d="M707.14,-167.54C734.66,-152.86 790.78,-124.95 841.98,-112 1008.45,-69.9 1059.05,-98.31 1231.98,-76.27"/>
<polygon fill="#63b8ff" stroke="#63b8ff" points="1232.32,-79.76 1241.78,-74.98 1231.41,-72.82 1232.32,-79.76"/>
</a>
</g>
</g>
<!-- Node16&#45;&gt;Node7 -->
<g id="edge23_Node000016_Node000007" class="edge">
<title>Node16&#45;&gt;Node7</title>
<g id="a_edge23_Node000016_Node000007"><a xlink:title=" ">
<path fill="none" stroke="#63b8ff" d="M667.74,-167.59C649.39,-159.37 623.03,-146.51 601.98,-132 581.31,-117.75 560.3,-98.06 546.36,-84.09"/>
<polygon fill="#63b8ff" stroke="#63b8ff" points="549.21,-82.01 539.71,-77.32 544.21,-86.91 549.21,-82.01"/>
</a>
</g>
</g>
<!-- Node16&#45;&gt;Node12 -->
<g id="edge22_Node000016_Node000012" class="edge">
<title>Node16&#45;&gt;Node12</title>
<g id="a_edge22_Node000016_Node000012"><a xlink:title=" ">
<path fill="none" stroke="#63b8ff" d="M751.6,-169.03C804.9,-161.65 884.18,-149.52 962.07,-132.2"/>
<polygon fill="#63b8ff" stroke="#63b8ff" points="962.59,-135.67 971.57,-130.05 961.05,-128.84 962.59,-135.67"/>
</a>
</g>
</g>
<!-- Node17 -->
<g id="Node000017" class="node">
<title>Node17</title>
<g id="a_Node000017"><a xlink:title=" ">
<polygon fill="#e0e0e0" stroke="#999999" points="799.36,-76 740.61,-76 740.61,-56 799.36,-56 799.36,-76"/>
<text text-anchor="middle" x="769.98" y="-62.5" font-family="Helvetica,sans-Serif" font-size="10.00">stdexcept</text>
</a>
</g>
</g>
<!-- Node16&#45;&gt;Node17 -->
<g id="edge21_Node000016_Node000017" class="edge">
<title>Node16&#45;&gt;Node17</title>
<g id="a_edge21_Node000016_Node000017"><a xlink:title=" ">
<path fill="none" stroke="#63b8ff" d="M715.08,-167.61C730.87,-160.35 750.24,-148.69 760.98,-132 769.48,-118.8 771.43,-100.97 771.43,-87.33"/>
<polygon fill="#63b8ff" stroke="#63b8ff" points="774.94,-87.6 771.06,-77.74 767.95,-87.86 774.94,-87.6"/>
</a>
</g>
</g>
<!-- Node18 -->
<g id="Node000018" class="node">
<title>Node18</title>
<g id="a_Node000018"><a xlink:href="ComponentArray_8hpp.html" target="_top" xlink:title=" ">
<polygon fill="white" stroke="#666666" points="718.73,-132 611.23,-132 611.23,-112 718.73,-112 718.73,-132"/>
<text text-anchor="middle" x="664.98" y="-118.5" font-family="Helvetica,sans-Serif" font-size="10.00">ComponentArray.hpp</text>
</a>
</g>
</g>
<!-- Node16&#45;&gt;Node18 -->
<g id="edge24_Node000016_Node000018" class="edge">
<title>Node16&#45;&gt;Node18</title>
<g id="a_edge24_Node000016_Node000018"><a xlink:title=" ">
<path fill="none" stroke="#63b8ff" d="M685.63,-167.59C682.44,-160.7 677.99,-151.1 674.04,-142.57"/>
<polygon fill="#63b8ff" stroke="#63b8ff" points="677.3,-141.28 669.92,-133.67 670.95,-144.22 677.3,-141.28"/>
</a>
</g>
</g>
<!-- Node18&#45;&gt;Node4 -->
<g id="edge26_Node000018_Node000004" class="edge">
<title>Node18&#45;&gt;Node4</title>
<g id="a_edge26_Node000018_Node000004"><a xlink:title=" ">
<path fill="none" stroke="#63b8ff" d="M718.9,-117.43C837.02,-109.5 1116.64,-90.12 1232,-76.24"/>
<polygon fill="#63b8ff" stroke="#63b8ff" points="1232.3,-79.73 1241.78,-75.01 1231.43,-72.78 1232.3,-79.73"/>
</a>
</g>
</g>
<!-- Node18&#45;&gt;Node7 -->
<g id="edge29_Node000018_Node000007" class="edge">
<title>Node18&#45;&gt;Node7</title>
<g id="a_edge29_Node000018_Node000007"><a xlink:title=" ">
<path fill="none" stroke="#63b8ff" d="M641.47,-111.59C620.11,-103.05 588.35,-90.35 564.18,-80.68"/>
<polygon fill="#63b8ff" stroke="#63b8ff" points="565.67,-77.51 555.08,-77.04 563.07,-84.01 565.67,-77.51"/>
</a>
</g>
</g>
<!-- Node18&#45;&gt;Node11 -->
<g id="edge28_Node000018_Node000011" class="edge">
<title>Node18&#45;&gt;Node11</title>
<g id="a_edge28_Node000018_Node000011"><a xlink:title=" ">
<path fill="none" stroke="#63b8ff" d="M654.53,-111.59C646.01,-103.93 633.77,-92.91 623.59,-83.75"/>
<polygon fill="#63b8ff" stroke="#63b8ff" points="626.21,-81.4 616.44,-77.31 621.53,-86.6 626.21,-81.4"/>
</a>
</g>
</g>
<!-- Node18&#45;&gt;Node17 -->
<g id="edge27_Node000018_Node000017" class="edge">
<title>Node18&#45;&gt;Node17</title>
<g id="a_edge27_Node000018_Node000017"><a xlink:title=" ">
<path fill="none" stroke="#63b8ff" d="M683.27,-111.59C699.28,-103.36 722.81,-91.26 741.32,-81.74"/>
<polygon fill="#63b8ff" stroke="#63b8ff" points="742.91,-84.86 750.2,-77.17 739.71,-78.63 742.91,-84.86"/>
</a>
</g>
</g>
<!-- Node19 -->
<g id="Node000019" class="node">
<title>Node19</title>
<g id="a_Node000019"><a xlink:title=" ">
<polygon fill="#e0e0e0" stroke="#999999" points="707.98,-76 649.98,-76 649.98,-56 707.98,-56 707.98,-76"/>
<text text-anchor="middle" x="678.98" y="-62.5" font-family="Helvetica,sans-Serif" font-size="10.00">exception</text>
</a>
</g>
</g>
<!-- Node18&#45;&gt;Node19 -->
<g id="edge25_Node000018_Node000019" class="edge">
<title>Node18&#45;&gt;Node19</title>
<g id="a_edge25_Node000018_Node000019"><a xlink:title=" ">
<path fill="none" stroke="#63b8ff" d="M667.42,-111.59C669.15,-104.93 671.53,-95.75 673.68,-87.44"/>
<polygon fill="#63b8ff" stroke="#63b8ff" points="677.07,-88.32 676.19,-77.76 670.29,-86.56 677.07,-88.32"/>
</a>
</g>
</g>
<!-- Node20&#45;&gt;Node2 -->
<g id="edge34_Node000020_Node000002" class="edge">
<title>Node20&#45;&gt;Node2</title>
<g id="a_edge34_Node000020_Node000002"><a xlink:title=" ">
<path fill="none" stroke="#63b8ff" d="M1099.39,-167.59C1106.9,-160.08 1117.63,-149.35 1126.68,-140.3"/>
<polygon fill="#63b8ff" stroke="#63b8ff" points="1129.02,-142.91 1133.61,-133.37 1124.07,-137.96 1129.02,-142.91"/>
</a>
</g>
</g>
<!-- Node20&#45;&gt;Node3 -->
<g id="edge32_Node000020_Node000003" class="edge">
<title>Node20&#45;&gt;Node3</title>
<g id="a_edge32_Node000020_Node000003"><a xlink:title=" ">
<path fill="none" stroke="#63b8ff" d="M1036.75,-173.2C889.83,-162.72 481.81,-133.62 364.75,-125.27"/>
<polygon fill="#63b8ff" stroke="#63b8ff" points="365.18,-121.79 354.95,-124.57 364.68,-128.77 365.18,-121.79"/>
</a>
</g>
</g>
<!-- Node20&#45;&gt;Node4 -->
<g id="edge31_Node000020_Node000004" class="edge">
<title>Node20&#45;&gt;Node4</title>
<g id="a_edge31_Node000020_Node000004"><a xlink:title=" ">
<path fill="none" stroke="#63b8ff" d="M1089.97,-167.57C1090.48,-153.45 1093.59,-126.87 1108.98,-112 1118,-103.28 1183.79,-88.02 1232.3,-77.71"/>
<polygon fill="#63b8ff" stroke="#63b8ff" points="1232.74,-81.2 1241.81,-75.71 1231.3,-74.35 1232.74,-81.2"/>
</a>
</g>
</g>
<!-- Node20&#45;&gt;Node5 -->
<g id="edge36_Node000020_Node000005" class="edge">
<title>Node20&#45;&gt;Node5</title>
<g id="a_edge36_Node000020_Node000005"><a xlink:title=" ">
<path fill="none" stroke="#63b8ff" d="M1112.97,-167.59C1133.76,-159.09 1164.63,-146.46 1188.22,-136.81"/>
<polygon fill="#63b8ff" stroke="#63b8ff" points="1189.48,-140.08 1197.41,-133.05 1186.83,-133.6 1189.48,-140.08"/>
</a>
</g>
</g>
<!-- Node20&#45;&gt;Node12 -->
<g id="edge33_Node000020_Node000012" class="edge">
<title>Node20&#45;&gt;Node12</title>
<g id="a_edge33_Node000020_Node000012"><a xlink:title=" ">
<path fill="none" stroke="#63b8ff" d="M1073.43,-167.59C1059.08,-159.44 1038.05,-147.48 1021.38,-138"/>
<polygon fill="#63b8ff" stroke="#63b8ff" points="1023.4,-135.13 1012.97,-133.23 1019.94,-141.21 1023.4,-135.13"/>
</a>
</g>
</g>
<!-- Node20&#45;&gt;Node17 -->
<g id="edge35_Node000020_Node000017" class="edge">
<title>Node20&#45;&gt;Node17</title>
<g id="a_edge35_Node000020_Node000017"><a xlink:title=" ">
<path fill="none" stroke="#63b8ff" d="M1083.76,-167.68C1073.55,-153.2 1051.78,-125.55 1025.98,-112 956.52,-75.52 863.34,-67.84 810.69,-66.66"/>
<polygon fill="#63b8ff" stroke="#63b8ff" points="811.03,-63.16 800.98,-66.52 810.93,-70.16 811.03,-63.16"/>
</a>
</g>
</g>
<!-- Node22 -->
<g id="Node000022" class="node">
<title>Node22</title>
<g id="a_Node000022"><a xlink:href="Event_8hpp.html" target="_top" xlink:title=" ">
<polygon fill="white" stroke="#666666" points="1411.11,-132 1350.86,-132 1350.86,-112 1411.11,-112 1411.11,-132"/>
<text text-anchor="middle" x="1380.98" y="-118.5" font-family="Helvetica,sans-Serif" font-size="10.00">Event.hpp</text>
</a>
</g>
</g>
<!-- Node21&#45;&gt;Node22 -->
<g id="edge38_Node000021_Node000022" class="edge">
<title>Node21&#45;&gt;Node22</title>
<g id="a_edge38_Node000021_Node000022"><a xlink:title=" ">
<path fill="none" stroke="#63b8ff" d="M904.9,-171.97C1007.41,-161.42 1243.18,-137.17 1339.17,-127.3"/>
<polygon fill="#63b8ff" stroke="#63b8ff" points="1339.34,-130.8 1348.93,-126.3 1338.62,-123.84 1339.34,-130.8"/>
</a>
</g>
</g>
<!-- Node24 -->
<g id="Node000024" class="node">
<title>Node24</title>
<g id="a_Node000024"><a xlink:title=" ">
<polygon fill="#e0e0e0" stroke="#999999" points="908.98,-132 850.98,-132 850.98,-112 908.98,-112 908.98,-132"/>
<text text-anchor="middle" x="879.98" y="-118.5" font-family="Helvetica,sans-Serif" font-size="10.00">functional</text>
</a>
</g>
</g>
<!-- Node21&#45;&gt;Node24 -->
<g id="edge42_Node000021_Node000024" class="edge">
<title>Node21&#45;&gt;Node24</title>
<g id="a_edge42_Node000021_Node000024"><a xlink:title=" ">
<path fill="none" stroke="#63b8ff" d="M860.16,-167.59C863.22,-160.7 867.49,-151.1 871.28,-142.57"/>
<polygon fill="#63b8ff" stroke="#63b8ff" points="874.37,-144.24 875.23,-133.68 867.97,-141.4 874.37,-144.24"/>
</a>
</g>
</g>
<!-- Node25 -->
<g id="Node000025" class="node">
<title>Node25</title>
<g id="a_Node000025"><a xlink:title=" ">
<polygon fill="#e0e0e0" stroke="#999999" points="955.38,-132 926.58,-132 926.58,-112 955.38,-112 955.38,-132"/>
<text text-anchor="middle" x="940.98" y="-118.5" font-family="Helvetica,sans-Serif" font-size="10.00">list</text>
</a>
</g>
</g>
<!-- Node21&#45;&gt;Node25 -->
<g id="edge43_Node000021_Node000025" class="edge">
<title>Node21&#45;&gt;Node25</title>
<g id="a_edge43_Node000021_Node000025"><a xlink:title=" ">
<path fill="none" stroke="#63b8ff" d="M870.79,-167.59C883.46,-159.54 901.96,-147.79 916.78,-138.37"/>
<polygon fill="#63b8ff" stroke="#63b8ff" points="918.5,-141.43 925.07,-133.11 914.75,-135.52 918.5,-141.43"/>
</a>
</g>
</g>
<!-- Node22&#45;&gt;Node4 -->
<g id="edge40_Node000022_Node000004" class="edge">
<title>Node22&#45;&gt;Node4</title>
<g id="a_edge40_Node000022_Node000004"><a xlink:title=" ">
<path fill="none" stroke="#63b8ff" d="M1364.26,-111.59C1349.76,-103.44 1328.51,-91.48 1311.66,-82"/>
<polygon fill="#63b8ff" stroke="#63b8ff" points="1313.58,-79.07 1303.15,-77.22 1310.15,-85.17 1313.58,-79.07"/>
</a>
</g>
</g>
<!-- Node22&#45;&gt;Node8 -->
<g id="edge39_Node000022_Node000008" class="edge">
<title>Node22&#45;&gt;Node8</title>
<g id="a_edge39_Node000022_Node000008"><a xlink:title=" ">
<path fill="none" stroke="#63b8ff" d="M1377.29,-111.57C1371.01,-96.94 1356.79,-69.09 1334.98,-56 1281.12,-23.69 1091.23,-14.36 1013.02,-11.85"/>
<polygon fill="#63b8ff" stroke="#63b8ff" points="1013.51,-8.37 1003.41,-11.57 1013.3,-15.36 1013.51,-8.37"/>
</a>
</g>
</g>
<!-- Node23 -->
<g id="Node000023" class="node">
<title>Node23</title>
<g id="a_Node000023"><a xlink:title=" ">
<polygon fill="#e0e0e0" stroke="#999999" points="1413.86,-76 1382.11,-76 1382.11,-56 1413.86,-56 1413.86,-76"/>
<text text-anchor="middle" x="1397.98" y="-62.5" font-family="Helvetica,sans-Serif" font-size="10.00">any</text>
</a>
</g>
</g>
<!-- Node22&#45;&gt;Node23 -->
<g id="edge41_Node000022_Node000023" class="edge">
<title>Node22&#45;&gt;Node23</title>
<g id="a_edge41_Node000022_Node000023"><a xlink:title=" ">
<path fill="none" stroke="#63b8ff" d="M1383.94,-111.59C1386.06,-104.86 1389,-95.53 1391.64,-87.15"/>
<polygon fill="#63b8ff" stroke="#63b8ff" points="1394.93,-88.33 1394.6,-77.74 1388.26,-86.23 1394.93,-88.33"/>
</a>
</g>
</g>
<!-- Node27 -->
<g id="Node000027" class="node">
<title>Node27</title>
<g id="a_Node000027"><a xlink:href="Utils_8hpp.html" target="_top" xlink:title=" ">
<polygon fill="white" stroke="#666666" points="190.48,-188 135.48,-188 135.48,-168 190.48,-168 190.48,-188"/>
<text text-anchor="middle" x="162.98" y="-174.5" font-family="Helvetica,sans-Serif" font-size="10.00">Utils.hpp</text>
</a>
</g>
</g>
<!-- Node26&#45;&gt;Node27 -->
<g id="edge45_Node000026_Node000027" class="edge">
<title>Node26&#45;&gt;Node27</title>
<g id="a_edge45_Node000026_Node000027"><a xlink:title=" ">
<path fill="none" stroke="#63b8ff" d="M180.23,-391.74C177.55,-358.74 168.44,-246.31 164.65,-199.61"/>
<polygon fill="#63b8ff" stroke="#63b8ff" points="168.15,-199.49 163.86,-189.8 161.18,-200.05 168.15,-199.49"/>
</a>
</g>
</g>
<!-- Node27&#45;&gt;Node3 -->
<g id="edge47_Node000027_Node000003" class="edge">
<title>Node27&#45;&gt;Node3</title>
<g id="a_edge47_Node000027_Node000003"><a xlink:title=" ">
<path fill="none" stroke="#63b8ff" d="M190.67,-168.2C221.09,-158.54 269.83,-143.06 301.63,-132.96"/>
<polygon fill="#63b8ff" stroke="#63b8ff" points="302.6,-136.32 311.07,-129.96 300.48,-129.65 302.6,-136.32"/>
</a>
</g>
</g>
<!-- Node27&#45;&gt;Node8 -->
<g id="edge46_Node000027_Node000008" class="edge">
<title>Node27&#45;&gt;Node8</title>
<g id="a_edge46_Node000027_Node000008"><a xlink:title=" ">
<path fill="none" stroke="#63b8ff" d="M171.64,-167.9C185.66,-153.71 214.84,-126.45 244.98,-112 371.81,-51.19 817.61,-20.57 944.84,-12.94"/>
<polygon fill="#63b8ff" stroke="#63b8ff" points="944.85,-16.44 954.63,-12.36 944.44,-9.45 944.85,-16.44"/>
</a>
</g>
</g>
<!-- Node27&#45;&gt;Node15 -->
<g id="edge49_Node000027_Node000015" class="edge">
<title>Node27&#45;&gt;Node15</title>
<g id="a_edge49_Node000027_Node000015"><a xlink:title=" ">
<path fill="none" stroke="#63b8ff" d="M182.14,-167.59C199.07,-159.28 224.03,-147.03 243.5,-137.47"/>
<polygon fill="#63b8ff" stroke="#63b8ff" points="244.88,-140.7 252.31,-133.15 241.79,-134.41 244.88,-140.7"/>
</a>
</g>
</g>
<!-- Node28 -->
<g id="Node000028" class="node">
<title>Node28</title>
<g id="a_Node000028"><a xlink:title=" ">
<polygon fill="#e0e0e0" stroke="#999999" points="188.61,-132 137.36,-132 137.36,-112 188.61,-112 188.61,-132"/>
<text text-anchor="middle" x="162.98" y="-118.5" font-family="Helvetica,sans-Serif" font-size="10.00">ostream</text>
</a>
</g>
</g>
<!-- Node27&#45;&gt;Node28 -->
<g id="edge48_Node000027_Node000028" class="edge">
<title>Node27&#45;&gt;Node28</title>
<g id="a_edge48_Node000027_Node000028"><a xlink:title=" ">
<path fill="none" stroke="#63b8ff" d="M162.98,-167.59C162.98,-161.01 162.98,-151.96 162.98,-143.73"/>
<polygon fill="#63b8ff" stroke="#63b8ff" points="166.48,-143.81 162.98,-133.81 159.48,-143.81 166.48,-143.81"/>
</a>
</g>
</g>
<!-- Node29&#45;&gt;Node3 -->
<g id="edge54_Node000029_Node000003" class="edge">
<title>Node29&#45;&gt;Node3</title>
<g id="a_edge54_Node000029_Node000003"><a xlink:title=" ">
<path fill="none" stroke="#63b8ff" d="M116.64,-223.65C138,-214.75 170.84,-200.85 198.98,-188 235.57,-171.3 277.17,-150.89 304.19,-137.45"/>
<polygon fill="#63b8ff" stroke="#63b8ff" points="305.73,-140.59 313.11,-133 302.6,-134.33 305.73,-140.59"/>
</a>
</g>
</g>
<!-- Node29&#45;&gt;Node12 -->
<g id="edge52_Node000029_Node000012" class="edge">
<title>Node29&#45;&gt;Node12</title>
<g id="a_edge52_Node000029_Node000012"><a xlink:title=" ">
<path fill="none" stroke="#63b8ff" d="M153.63,-231.83C330.41,-228.07 843.62,-214.93 913.98,-188 927.86,-182.69 957.47,-157.25 976.78,-139.82"/>
<polygon fill="#63b8ff" stroke="#63b8ff" points="978.93,-142.6 983.96,-133.27 974.21,-137.43 978.93,-142.6"/>
</a>
</g>
</g>
<!-- Node29&#45;&gt;Node15 -->
<g id="edge51_Node000029_Node000015" class="edge">
<title>Node29&#45;&gt;Node15</title>
<g id="a_edge51_Node000029_Node000015"><a xlink:title=" ">
<path fill="none" stroke="#63b8ff" d="M96.09,-223.57C99.73,-209.43 108.55,-182.84 125.98,-168 159.32,-139.62 210.29,-129.13 242.61,-125.26"/>
<polygon fill="#63b8ff" stroke="#63b8ff" points="242.92,-128.75 252.5,-124.24 242.19,-121.79 242.92,-128.75"/>
</a>
</g>
</g>
<!-- Node29&#45;&gt;Node27 -->
<g id="edge55_Node000029_Node000027" class="edge">
<title>Node29&#45;&gt;Node27</title>
<g id="a_edge55_Node000029_Node000027"><a xlink:title=" ">
<path fill="none" stroke="#63b8ff" d="M106,-223.59C115.99,-215.77 130.44,-204.46 142.29,-195.19"/>
<polygon fill="#63b8ff" stroke="#63b8ff" points="144.19,-198.15 149.91,-189.23 139.88,-192.64 144.19,-198.15"/>
</a>
</g>
</g>
<!-- Node30 -->
<g id="Node000030" class="node">
<title>Node30</title>
<g id="a_Node000030"><a xlink:title=" ">
<polygon fill="#e0e0e0" stroke="#999999" points="79.11,-188 30.86,-188 30.86,-168 79.11,-168 79.11,-188"/>
<text text-anchor="middle" x="54.98" y="-174.5" font-family="Helvetica,sans-Serif" font-size="10.00">cstddef</text>
</a>
</g>
</g>
<!-- Node29&#45;&gt;Node30 -->
<g id="edge53_Node000029_Node000030" class="edge">
<title>Node29&#45;&gt;Node30</title>
<g id="a_edge53_Node000029_Node000030"><a xlink:title=" ">
<path fill="none" stroke="#63b8ff" d="M87.19,-223.59C81.99,-216.39 74.65,-206.23 68.29,-197.43"/>
<polygon fill="#63b8ff" stroke="#63b8ff" points="71.27,-195.58 62.58,-189.53 65.6,-199.68 71.27,-195.58"/>
</a>
</g>
</g>
<!-- Node31&#45;&gt;Node2 -->
<g id="edge57_Node000031_Node000002" class="edge">
<title>Node31&#45;&gt;Node2</title>
<g id="a_edge57_Node000031_Node000002"><a xlink:title=" ">
<path fill="none" stroke="#63b8ff" d="M1020.55,-399.35C1084.82,-394.29 1208.98,-373.8 1208.98,-291 1208.98,-291 1208.98,-291 1208.98,-233 1208.98,-196.09 1181.52,-160.7 1162.3,-140.44"/>
<polygon fill="#63b8ff" stroke="#63b8ff" points="1165.01,-138.2 1155.49,-133.55 1160.04,-143.12 1165.01,-138.2"/>
</a>
</g>
</g>
<!-- Node31&#45;&gt;Node3 -->
<g id="edge58_Node000031_Node000003" class="edge">
<title>Node31&#45;&gt;Node3</title>
<g id="a_edge58_Node000031_Node000003"><a xlink:title=" ">
<path fill="none" stroke="#63b8ff" d="M945.36,-401.68C842.09,-401.58 550.28,-387.84 374.98,-244 344.71,-219.16 336.21,-171.23 333.85,-143.74"/>
<polygon fill="#63b8ff" stroke="#63b8ff" points="337.36,-143.66 333.23,-133.9 330.37,-144.1 337.36,-143.66"/>
</a>
</g>
</g>
<!-- Node31&#45;&gt;Node22 -->
<g id="edge59_Node000031_Node000022" class="edge">
<title>Node31&#45;&gt;Node22</title>
<g id="a_edge59_Node000031_Node000022"><a xlink:title=" ">
<path fill="none" stroke="#63b8ff" d="M1020.61,-400.84C1066.13,-399.01 1143.53,-390.5 1198.98,-356 1286.78,-301.37 1349.11,-188.43 1371.67,-142.78"/>
<polygon fill="#63b8ff" stroke="#63b8ff" points="1374.8,-144.36 1376,-133.84 1368.49,-141.32 1374.8,-144.36"/>
</a>
</g>
</g>
<!-- Node31&#45;&gt;Node27 -->
<g id="edge77_Node000031_Node000027" class="edge">
<title>Node31&#45;&gt;Node27</title>
<g id="a_edge77_Node000031_Node000027"><a xlink:title=" ">
<path fill="none" stroke="#63b8ff" d="M945.45,-400.53C808.23,-398.53 338.69,-389.31 280.98,-356 249.04,-337.57 195.13,-240.19 172.96,-198.25"/>
<polygon fill="#63b8ff" stroke="#63b8ff" points="176.15,-196.79 168.41,-189.55 169.95,-200.04 176.15,-196.79"/>
</a>
</g>
</g>
<!-- Node32 -->
<g id="Node000032" class="node">
<title>Node32</title>
<g id="a_Node000032"><a xlink:href="NetworkManager_8hpp.html" target="_top" xlink:title=" ">
<polygon fill="white" stroke="#666666" points="987.48,-356 878.48,-356 878.48,-336 987.48,-336 987.48,-356"/>
<text text-anchor="middle" x="932.98" y="-342.5" font-family="Helvetica,sans-Serif" font-size="10.00">NetworkManager.hpp</text>
</a>
</g>
</g>
<!-- Node31&#45;&gt;Node32 -->
<g id="edge60_Node000031_Node000032" class="edge">
<title>Node31&#45;&gt;Node32</title>
<g id="a_edge60_Node000031_Node000032"><a xlink:title=" ">
<path fill="none" stroke="#63b8ff" d="M974.27,-391.59C967.39,-384.16 957.59,-373.58 949.26,-364.58"/>
<polygon fill="#63b8ff" stroke="#63b8ff" points="951.98,-362.37 942.62,-357.41 946.84,-367.12 951.98,-362.37"/>
</a>
</g>
</g>
<!-- Node32&#45;&gt;Node4 -->
<g id="edge66_Node000032_Node000004" class="edge">
<title>Node32&#45;&gt;Node4</title>
<g id="a_edge66_Node000032_Node000004"><a xlink:title=" ">
<path fill="none" stroke="#63b8ff" d="M987.66,-339.14C1025.1,-333.33 1074.88,-321.95 1113.98,-300 1206.61,-248 1242.29,-229.7 1283.98,-132 1289.96,-118 1289.91,-100.7 1288.53,-87.48"/>
<polygon fill="#63b8ff" stroke="#63b8ff" points="1292.03,-87.19 1287.17,-77.78 1285.1,-88.17 1292.03,-87.19"/>
</a>
</g>
</g>
<!-- Node32&#45;&gt;Node7 -->
<g id="edge68_Node000032_Node000007" class="edge">
<title>Node32&#45;&gt;Node7</title>
<g id="a_edge68_Node000032_Node000007"><a xlink:title=" ">
<path fill="none" stroke="#63b8ff" d="M878.11,-342.93C690.8,-335.33 84.92,-306.08 25.98,-244 -112.51,-98.12 345.49,-72.38 488.61,-67.92"/>
<polygon fill="#63b8ff" stroke="#63b8ff" points="488.51,-71.42 498.4,-67.63 488.31,-64.42 488.51,-71.42"/>
</a>
</g>
</g>
<!-- Node32&#45;&gt;Node8 -->
<g id="edge62_Node000032_Node000008" class="edge">
<title>Node32&#45;&gt;Node8</title>
<g id="a_edge62_Node000032_Node000008"><a xlink:title=" ">
<path fill="none" stroke="#63b8ff" d="M987.88,-340.04C1126.01,-326.05 1476.98,-280.52 1476.98,-179 1476.98,-179 1476.98,-179 1476.98,-121 1476.98,-83.44 1456.13,-73.65 1422.98,-56 1352.05,-18.23 1104.55,-12.12 1013.19,-11.17"/>
<polygon fill="#63b8ff" stroke="#63b8ff" points="1013.41,-7.67 1003.38,-11.08 1013.35,-14.67 1013.41,-7.67"/>
</a>
</g>
</g>
<!-- Node32&#45;&gt;Node10 -->
<g id="edge69_Node000032_Node000010" class="edge">
<title>Node32&#45;&gt;Node10</title>
<g id="a_edge69_Node000032_Node000010"><a xlink:title=" ">
<path fill="none" stroke="#63b8ff" d="M930.61,-335.64C927.3,-322.91 920.92,-299.49 913.98,-280 910.96,-271.52 907.18,-262.33 903.79,-254.49"/>
<polygon fill="#63b8ff" stroke="#63b8ff" points="907.09,-253.3 899.84,-245.57 900.69,-256.13 907.09,-253.3"/>
</a>
</g>
</g>
<!-- Node32&#45;&gt;Node12 -->
<g id="edge67_Node000032_Node000012" class="edge">
<title>Node32&#45;&gt;Node12</title>
<g id="a_edge67_Node000032_Node000012"><a xlink:title=" ">
<path fill="none" stroke="#63b8ff" d="M903.62,-335.5C874.55,-324.45 836.57,-304.55 852.98,-280 876.24,-245.21 909.15,-272.3 939.98,-244 969.77,-216.65 984.55,-170.05 990.91,-143.36"/>
<polygon fill="#63b8ff" stroke="#63b8ff" points="994.28,-144.33 993,-133.82 987.44,-142.84 994.28,-144.33"/>
</a>
</g>
</g>
<!-- Node32&#45;&gt;Node15 -->
<g id="edge64_Node000032_Node000015" class="edge">
<title>Node32&#45;&gt;Node15</title>
<g id="a_edge64_Node000032_Node000015"><a xlink:title=" ">
<path fill="none" stroke="#63b8ff" d="M878.16,-339.87C754.97,-327.59 460.35,-293.77 374.98,-244 332.42,-219.19 299.44,-169.78 283.5,-142.4"/>
<polygon fill="#63b8ff" stroke="#63b8ff" points="286.6,-140.77 278.65,-133.77 280.5,-144.2 286.6,-140.77"/>
</a>
</g>
</g>
<!-- Node33 -->
<g id="Node000033" class="node">
<title>Node33</title>
<g id="a_Node000033"><a xlink:title=" ">
<polygon fill="#e0e0e0" stroke="#999999" points="1006.61,-300 961.36,-300 961.36,-280 1006.61,-280 1006.61,-300"/>
<text text-anchor="middle" x="983.98" y="-286.5" font-family="Helvetica,sans-Serif" font-size="10.00">chrono</text>
</a>
</g>
</g>
<!-- Node32&#45;&gt;Node33 -->
<g id="edge61_Node000032_Node000033" class="edge">
<title>Node32&#45;&gt;Node33</title>
<g id="a_edge61_Node000032_Node000033"><a xlink:title=" ">
<path fill="none" stroke="#63b8ff" d="M941.86,-335.59C948.88,-328.16 958.88,-317.58 967.37,-308.58"/>
<polygon fill="#63b8ff" stroke="#63b8ff" points="969.84,-311.07 974.16,-301.4 964.75,-306.27 969.84,-311.07"/>
</a>
</g>
</g>
<!-- Node34 -->
<g id="Node000034" class="node">
<title>Node34</title>
<g id="a_Node000034"><a xlink:title=" ">
<polygon fill="#e0e0e0" stroke="#999999" points="1104.86,-300 1025.11,-300 1025.11,-280 1104.86,-280 1104.86,-300"/>
<text text-anchor="middle" x="1064.98" y="-286.5" font-family="Helvetica,sans-Serif" font-size="10.00">boost/asio.hpp</text>
</a>
</g>
</g>
<!-- Node32&#45;&gt;Node34 -->
<g id="edge63_Node000032_Node000034" class="edge">
<title>Node32&#45;&gt;Node34</title>
<g id="a_edge63_Node000032_Node000034"><a xlink:title=" ">
<path fill="none" stroke="#63b8ff" d="M955.97,-335.59C976.76,-327.09 1007.63,-314.46 1031.22,-304.81"/>
<polygon fill="#63b8ff" stroke="#63b8ff" points="1032.48,-308.08 1040.41,-301.05 1029.83,-301.6 1032.48,-308.08"/>
</a>
</g>
</g>
<!-- Node35 -->
<g id="Node000035" class="node">
<title>Node35</title>
<g id="a_Node000035"><a xlink:title=" ">
<polygon fill="#e0e0e0" stroke="#999999" points="904.48,-300 861.48,-300 861.48,-280 904.48,-280 904.48,-300"/>
<text text-anchor="middle" x="882.98" y="-286.5" font-family="Helvetica,sans-Serif" font-size="10.00">thread</text>
</a>
</g>
</g>
<!-- Node32&#45;&gt;Node35 -->
<g id="edge65_Node000032_Node000035" class="edge">
<title>Node32&#45;&gt;Node35</title>
<g id="a_edge65_Node000032_Node000035"><a xlink:title=" ">
<path fill="none" stroke="#63b8ff" d="M924.27,-335.59C917.39,-328.16 907.59,-317.58 899.26,-308.58"/>
<polygon fill="#63b8ff" stroke="#63b8ff" points="901.98,-306.37 892.62,-301.41 896.84,-311.12 901.98,-306.37"/>
</a>
</g>
</g>
<!-- Node36 -->
<g id="Node000036" class="node">
<title>Node36</title>
<g id="a_Node000036"><a xlink:href="ComponentRegistry_8hpp.html" target="_top" xlink:title=" ">
<polygon fill="white" stroke="#666666" points="804.48,-300 683.48,-300 683.48,-280 804.48,-280 804.48,-300"/>
<text text-anchor="middle" x="743.98" y="-286.5" font-family="Helvetica,sans-Serif" font-size="10.00">ComponentRegistry.hpp</text>
</a>
</g>
</g>
<!-- Node32&#45;&gt;Node36 -->
<g id="edge70_Node000032_Node000036" class="edge">
<title>Node32&#45;&gt;Node36</title>
<g id="a_edge70_Node000032_Node000036"><a xlink:title=" ">
<path fill="none" stroke="#63b8ff" d="M900.06,-335.59C868.95,-326.71 822.07,-313.31 787.8,-303.52"/>
<polygon fill="#63b8ff" stroke="#63b8ff" points="789.19,-300.28 778.61,-300.9 787.27,-307.01 789.19,-300.28"/>
</a>
</g>
</g>
<!-- Node36&#45;&gt;Node3 -->
<g id="edge73_Node000036_Node000003" class="edge">
<title>Node36&#45;&gt;Node3</title>
<g id="a_edge73_Node000036_Node000003"><a xlink:title=" ">
<path fill="none" stroke="#63b8ff" d="M683.31,-287.86C595.94,-285.13 440.21,-275.8 394.98,-244 377.09,-231.42 352.61,-173.64 340.46,-142.7"/>
<polygon fill="#63b8ff" stroke="#63b8ff" points="343.85,-141.78 336.99,-133.72 337.32,-144.3 343.85,-141.78"/>
</a>
</g>
</g>
<!-- Node36&#45;&gt;Node4 -->
<g id="edge72_Node000036_Node000004" class="edge">
<title>Node36&#45;&gt;Node4</title>
<g id="a_edge72_Node000036_Node000004"><a xlink:title=" ">
<path fill="none" stroke="#63b8ff" d="M804.86,-280.45C889,-267.32 1044.52,-238.28 1168.98,-188 1214.78,-169.5 1234.28,-170.7 1264.98,-132 1275.09,-119.25 1280.11,-101.39 1282.59,-87.62"/>
<polygon fill="#63b8ff" stroke="#63b8ff" points="1286.03,-88.28 1284.01,-77.88 1279.11,-87.27 1286.03,-88.28"/>
</a>
</g>
</g>
<!-- Node36&#45;&gt;Node7 -->
<g id="edge75_Node000036_Node000007" class="edge">
<title>Node36&#45;&gt;Node7</title>
<g id="a_edge75_Node000036_Node000007"><a xlink:title=" ">
<path fill="none" stroke="#63b8ff" d="M683.11,-289.35C608.97,-286.1 486.4,-268 427.98,-188 398.68,-147.87 461.67,-104.06 501.19,-81.79"/>
<polygon fill="#63b8ff" stroke="#63b8ff" points="502.71,-84.95 509.81,-77.08 499.36,-78.8 502.71,-84.95"/>
</a>
</g>
</g>
<!-- Node36&#45;&gt;Node10 -->
<g id="edge76_Node000036_Node000010" class="edge">
<title>Node36&#45;&gt;Node10</title>
<g id="a_edge76_Node000036_Node000010"><a xlink:title=" ">
<path fill="none" stroke="#63b8ff" d="M770.28,-279.59C794.49,-270.94 830.66,-258 857.82,-248.29"/>
<polygon fill="#63b8ff" stroke="#63b8ff" points="858.81,-251.65 867.05,-244.99 856.45,-245.06 858.81,-251.65"/>
</a>
</g>
</g>
<!-- Node36&#45;&gt;Node17 -->
<g id="edge74_Node000036_Node000017" class="edge">
<title>Node36&#45;&gt;Node17</title>
<g id="a_edge74_Node000036_Node000017"><a xlink:title=" ">
<path fill="none" stroke="#63b8ff" d="M720.03,-279.62C675.12,-260.65 585.77,-215.46 619.98,-168 649.56,-126.95 687.99,-163 727.98,-132 743.23,-120.18 754.59,-101.17 761.62,-86.75"/>
<polygon fill="#63b8ff" stroke="#63b8ff" points="764.75,-88.33 765.7,-77.78 758.37,-85.43 764.75,-88.33"/>
</a>
</g>
</g>
<!-- Node36&#45;&gt;Node24 -->
<g id="edge71_Node000036_Node000024" class="edge">
<title>Node36&#45;&gt;Node24</title>
<g id="a_edge71_Node000036_Node000024"><a xlink:title=" ">
<path fill="none" stroke="#63b8ff" d="M745.97,-279.68C751.08,-257.76 766.5,-202.18 797.98,-168 810.32,-154.61 827.58,-144.31 843.08,-136.97"/>
<polygon fill="#63b8ff" stroke="#63b8ff" points="844.35,-140.24 852.07,-132.98 841.51,-133.84 844.35,-140.24"/>
</a>
</g>
</g>
</g>
</svg>
