<?xml version="1.0" encoding="UTF-8" standalone="no"?>
<!DOCTYPE svg PUBLIC "-//W3C//DTD SVG 1.1//EN"
 "http://www.w3.org/Graphics/SVG/1.1/DTD/svg11.dtd">
<!-- Generated by graphviz version 12.1.0 (20240811.2233)
 -->
<!-- Title: Render.hpp Pages: 1 -->
<svg width="1408pt" height="476pt"
 viewBox="0.00 0.00 1407.75 476.00" xmlns="http://www.w3.org/2000/svg" xmlns:xlink="http://www.w3.org/1999/xlink">
<g id="graph0" class="graph" transform="scale(1 1) rotate(0) translate(4 472)">
<title>Render.hpp</title>
<!-- Node1 -->
<g id="Node000001" class="node">
<title>Node1</title>
<g id="a_Node000001"><a xlink:title=" ">
<polygon fill="#999999" stroke="#666666" points="1123.12,-468 1056.88,-468 1056.88,-448 1123.12,-448 1123.12,-468"/>
<text text-anchor="middle" x="1090" y="-454.5" font-family="Helvetica,sans-Serif" font-size="10.00">Render.hpp</text>
</a>
</g>
</g>
<!-- Node2 -->
<g id="Node000002" class="node">
<title>Node2</title>
<g id="a_Node000002"><a xlink:title=" ">
<polygon fill="#e0e0e0" stroke="#999999" points="625.62,-132 574.38,-132 574.38,-112 625.62,-112 625.62,-132"/>
<text text-anchor="middle" x="600" y="-118.5" font-family="Helvetica,sans-Serif" font-size="10.00">memory</text>
</a>
</g>
</g>
<!-- Node1&#45;&gt;Node2 -->
<g id="edge1_Node000001_Node000002" class="edge">
<title>Node1&#45;&gt;Node2</title>
<g id="a_edge1_Node000001_Node000002"><a xlink:title=" ">
<path fill="none" stroke="#63b8ff" d="M1056.58,-454.96C942.34,-447.47 568.98,-418.61 469,-356 414.99,-322.18 380.89,-279.05 413,-224 421.75,-209 518.69,-161.48 569.43,-137.35"/>
<polygon fill="#63b8ff" stroke="#63b8ff" points="570.89,-140.53 578.43,-133.09 567.9,-134.2 570.89,-140.53"/>
</a>
</g>
</g>
<!-- Node3 -->
<g id="Node000003" class="node">
<title>Node3</title>
<g id="a_Node000003"><a xlink:title=" ">
<polygon fill="#e0e0e0" stroke="#999999" points="1060,-132 1020,-132 1020,-112 1060,-112 1060,-132"/>
<text text-anchor="middle" x="1040" y="-118.5" font-family="Helvetica,sans-Serif" font-size="10.00">string</text>
</a>
</g>
</g>
<!-- Node1&#45;&gt;Node3 -->
<g id="edge2_Node000001_Node000003" class="edge">
<title>Node1&#45;&gt;Node3</title>
<g id="a_edge2_Node000001_Node000003"><a xlink:title=" ">
<path fill="none" stroke="#63b8ff" d="M1095.61,-447.67C1106.18,-429.16 1128,-386.2 1128,-347 1128,-347 1128,-347 1128,-233 1128,-192.23 1090.68,-157.91 1064.65,-138.93"/>
<polygon fill="#63b8ff" stroke="#63b8ff" points="1066.77,-136.15 1056.57,-133.29 1062.77,-141.89 1066.77,-136.15"/>
</a>
</g>
</g>
<!-- Node4 -->
<g id="Node000004" class="node">
<title>Node4</title>
<g id="a_Node000004"><a xlink:title=" ">
<polygon fill="#e0e0e0" stroke="#999999" points="747.38,-76 664.62,-76 664.62,-56 747.38,-56 747.38,-76"/>
<text text-anchor="middle" x="706" y="-62.5" font-family="Helvetica,sans-Serif" font-size="10.00">unordered_map</text>
</a>
</g>
</g>
<!-- Node1&#45;&gt;Node4 -->
<g id="edge3_Node000001_Node000004" class="edge">
<title>Node1&#45;&gt;Node4</title>
<g id="a_edge3_Node000001_Node000004"><a xlink:title=" ">
<path fill="none" stroke="#63b8ff" d="M1056.48,-457.1C877.04,-457.18 38,-451.96 38,-347 38,-347 38,-347 38,-177 38,-138.58 60.61,-129.13 95,-112 119.82,-99.63 509.88,-77.54 653.47,-69.78"/>
<polygon fill="#63b8ff" stroke="#63b8ff" points="653.27,-73.3 663.07,-69.27 652.9,-66.31 653.27,-73.3"/>
</a>
</g>
</g>
<!-- Node5 -->
<g id="Node000005" class="node">
<title>Node5</title>
<g id="a_Node000005"><a xlink:href="System_8hpp.html" target="_top" xlink:title=" ">
<polygon fill="white" stroke="#666666" points="1146.25,-132 1077.75,-132 1077.75,-112 1146.25,-112 1146.25,-132"/>
<text text-anchor="middle" x="1112" y="-118.5" font-family="Helvetica,sans-Serif" font-size="10.00">System.hpp</text>
</a>
</g>
</g>
<!-- Node1&#45;&gt;Node5 -->
<g id="edge4_Node000001_Node000005" class="edge">
<title>Node1&#45;&gt;Node5</title>
<g id="a_edge4_Node000001_Node000005"><a xlink:title=" ">
<path fill="none" stroke="#63b8ff" d="M1104.07,-447.78C1115.62,-439.59 1131.71,-426.65 1142,-412 1159.79,-386.67 1167,-377.95 1167,-347 1167,-347 1167,-347 1167,-289 1167,-234.09 1163.18,-218.67 1142,-168 1138.12,-158.72 1132.24,-149.33 1126.71,-141.55"/>
<polygon fill="#63b8ff" stroke="#63b8ff" points="1129.54,-139.5 1120.74,-133.6 1123.94,-143.7 1129.54,-139.5"/>
</a>
</g>
</g>
<!-- Node10 -->
<g id="Node000010" class="node">
<title>Node10</title>
<g id="a_Node000010"><a xlink:href="Mediator_8hpp.html" target="_top" xlink:title=" ">
<polygon fill="white" stroke="#666666" points="494.12,-244 421.88,-244 421.88,-224 494.12,-224 494.12,-244"/>
<text text-anchor="middle" x="458" y="-230.5" font-family="Helvetica,sans-Serif" font-size="10.00">Mediator.hpp</text>
</a>
</g>
</g>
<!-- Node1&#45;&gt;Node10 -->
<g id="edge9_Node000001_Node000010" class="edge">
<title>Node1&#45;&gt;Node10</title>
<g id="a_edge9_Node000001_Node000010"><a xlink:title=" ">
<path fill="none" stroke="#63b8ff" d="M1056.49,-453.04C972.32,-442.55 745.77,-411.06 564,-356 502.62,-337.41 466.48,-353.43 431,-300 421.22,-285.28 431.11,-266.44 441.56,-252.84"/>
<polygon fill="#63b8ff" stroke="#63b8ff" points="443.95,-255.45 447.68,-245.54 438.58,-250.96 443.95,-255.45"/>
</a>
</g>
</g>
<!-- Node26 -->
<g id="Node000026" class="node">
<title>Node26</title>
<g id="a_Node000026"><a xlink:href="Transform_8hpp.html" target="_top" xlink:title=" ">
<polygon fill="white" stroke="#666666" points="1399.75,-412 1262.25,-412 1262.25,-392 1399.75,-392 1399.75,-412"/>
<text text-anchor="middle" x="1331" y="-398.5" font-family="Helvetica,sans-Serif" font-size="10.00">Components/Transform.hpp</text>
</a>
</g>
</g>
<!-- Node1&#45;&gt;Node26 -->
<g id="edge42_Node000001_Node000026" class="edge">
<title>Node1&#45;&gt;Node26</title>
<g id="a_edge42_Node000001_Node000026"><a xlink:title=" ">
<path fill="none" stroke="#63b8ff" d="M1123.51,-449.49C1163.42,-440.55 1230.58,-425.5 1277.66,-414.95"/>
<polygon fill="#63b8ff" stroke="#63b8ff" points="1278.4,-418.37 1287.39,-412.77 1276.87,-411.54 1278.4,-418.37"/>
</a>
</g>
</g>
<!-- Node28 -->
<g id="Node000028" class="node">
<title>Node28</title>
<g id="a_Node000028"><a xlink:href="Sprite_8hpp.html" target="_top" xlink:title=" ">
<polygon fill="white" stroke="#666666" points="1313.38,-244 1194.62,-244 1194.62,-224 1313.38,-224 1313.38,-244"/>
<text text-anchor="middle" x="1254" y="-230.5" font-family="Helvetica,sans-Serif" font-size="10.00">Components/Sprite.hpp</text>
</a>
</g>
</g>
<!-- Node1&#45;&gt;Node28 -->
<g id="edge45_Node000001_Node000028" class="edge">
<title>Node1&#45;&gt;Node28</title>
<g id="a_edge45_Node000001_Node000028"><a xlink:title=" ">
<path fill="none" stroke="#63b8ff" d="M1122.19,-447.52C1141.42,-440.43 1165.12,-429 1181,-412 1224.03,-365.94 1243.37,-290.99 1250.5,-255.23"/>
<polygon fill="#63b8ff" stroke="#63b8ff" points="1253.86,-256.29 1252.26,-245.81 1246.98,-255 1253.86,-256.29"/>
</a>
</g>
</g>
<!-- Node30 -->
<g id="Node000030" class="node">
<title>Node30</title>
<g id="a_Node000030"><a xlink:href="Renderer_8hpp.html" target="_top" xlink:title=" ">
<polygon fill="white" stroke="#666666" points="1089.25,-412 1014.75,-412 1014.75,-392 1089.25,-392 1089.25,-412"/>
<text text-anchor="middle" x="1052" y="-398.5" font-family="Helvetica,sans-Serif" font-size="10.00">Renderer.hpp</text>
</a>
</g>
</g>
<!-- Node1&#45;&gt;Node30 -->
<g id="edge50_Node000001_Node000030" class="edge">
<title>Node1&#45;&gt;Node30</title>
<g id="a_edge50_Node000001_Node000030"><a xlink:title=" ">
<path fill="none" stroke="#63b8ff" d="M1083.38,-447.59C1078.31,-440.39 1071.16,-430.23 1064.97,-421.43"/>
<polygon fill="#63b8ff" stroke="#63b8ff" points="1068.03,-419.7 1059.41,-413.54 1062.31,-423.73 1068.03,-419.7"/>
</a>
</g>
</g>
<!-- Node6 -->
<g id="Node000006" class="node">
<title>Node6</title>
<g id="a_Node000006"><a xlink:title=" ">
<polygon fill="#e0e0e0" stroke="#999999" points="1126.75,-76 1097.25,-76 1097.25,-56 1126.75,-56 1126.75,-76"/>
<text text-anchor="middle" x="1112" y="-62.5" font-family="Helvetica,sans-Serif" font-size="10.00">set</text>
</a>
</g>
</g>
<!-- Node5&#45;&gt;Node6 -->
<g id="edge5_Node000005_Node000006" class="edge">
<title>Node5&#45;&gt;Node6</title>
<g id="a_edge5_Node000005_Node000006"><a xlink:title=" ">
<path fill="none" stroke="#63b8ff" d="M1112,-111.59C1112,-105.01 1112,-95.96 1112,-87.73"/>
<polygon fill="#63b8ff" stroke="#63b8ff" points="1115.5,-87.81 1112,-77.81 1108.5,-87.81 1115.5,-87.81"/>
</a>
</g>
</g>
<!-- Node7 -->
<g id="Node000007" class="node">
<title>Node7</title>
<g id="a_Node000007"><a xlink:href="Entity_8hpp.html" target="_top" xlink:title=" ">
<polygon fill="white" stroke="#666666" points="279.75,-76 220.25,-76 220.25,-56 279.75,-56 279.75,-76"/>
<text text-anchor="middle" x="250" y="-62.5" font-family="Helvetica,sans-Serif" font-size="10.00">Entity.hpp</text>
</a>
</g>
</g>
<!-- Node5&#45;&gt;Node7 -->
<g id="edge6_Node000005_Node000007" class="edge">
<title>Node5&#45;&gt;Node7</title>
<g id="a_edge6_Node000005_Node000007"><a xlink:title=" ">
<path fill="none" stroke="#63b8ff" d="M1077.35,-113.25C1074.53,-112.77 1071.72,-112.35 1069,-112 728.42,-68.78 634.81,-122.04 291.41,-76.05"/>
<polygon fill="#63b8ff" stroke="#63b8ff" points="292.01,-72.6 281.63,-74.72 291.07,-79.54 292.01,-72.6"/>
</a>
</g>
</g>
<!-- Node8 -->
<g id="Node000008" class="node">
<title>Node8</title>
<g id="a_Node000008"><a xlink:title=" ">
<polygon fill="#e0e0e0" stroke="#999999" points="955.62,-20 910.38,-20 910.38,0 955.62,0 955.62,-20"/>
<text text-anchor="middle" x="933" y="-6.5" font-family="Helvetica,sans-Serif" font-size="10.00">cstdint</text>
</a>
</g>
</g>
<!-- Node7&#45;&gt;Node8 -->
<g id="edge7_Node000007_Node000008" class="edge">
<title>Node7&#45;&gt;Node8</title>
<g id="a_edge7_Node000007_Node000008"><a xlink:title=" ">
<path fill="none" stroke="#63b8ff" d="M280.14,-57.55C283.12,-56.96 286.11,-56.43 289,-56 520.21,-21.46 802.17,-13.33 898.69,-11.51"/>
<polygon fill="#63b8ff" stroke="#63b8ff" points="898.59,-15.01 908.53,-11.33 898.47,-8.01 898.59,-15.01"/>
</a>
</g>
</g>
<!-- Node9 -->
<g id="Node000009" class="node">
<title>Node9</title>
<g id="a_Node000009"><a xlink:title=" ">
<polygon fill="#e0e0e0" stroke="#999999" points="270,-20 230,-20 230,0 270,0 270,-20"/>
<text text-anchor="middle" x="250" y="-6.5" font-family="Helvetica,sans-Serif" font-size="10.00">bitset</text>
</a>
</g>
</g>
<!-- Node7&#45;&gt;Node9 -->
<g id="edge8_Node000007_Node000009" class="edge">
<title>Node7&#45;&gt;Node9</title>
<g id="a_edge8_Node000007_Node000009"><a xlink:title=" ">
<path fill="none" stroke="#63b8ff" d="M250,-55.59C250,-49.01 250,-39.96 250,-31.73"/>
<polygon fill="#63b8ff" stroke="#63b8ff" points="253.5,-31.81 250,-21.81 246.5,-31.81 253.5,-31.81"/>
</a>
</g>
</g>
<!-- Node10&#45;&gt;Node2 -->
<g id="edge11_Node000010_Node000002" class="edge">
<title>Node10&#45;&gt;Node2</title>
<g id="a_edge11_Node000010_Node000002"><a xlink:title=" ">
<path fill="none" stroke="#63b8ff" d="M470.11,-223.62C494.31,-204.87 548.94,-162.55 579.07,-139.21"/>
<polygon fill="#63b8ff" stroke="#63b8ff" points="580.97,-142.17 586.73,-133.28 576.68,-136.64 580.97,-142.17"/>
</a>
</g>
</g>
<!-- Node11 -->
<g id="Node000011" class="node">
<title>Node11</title>
<g id="a_Node000011"><a xlink:title=" ">
<polygon fill="#e0e0e0" stroke="#999999" points="351.75,-76 298.25,-76 298.25,-56 351.75,-56 351.75,-76"/>
<text text-anchor="middle" x="325" y="-62.5" font-family="Helvetica,sans-Serif" font-size="10.00">iostream</text>
</a>
</g>
</g>
<!-- Node10&#45;&gt;Node11 -->
<g id="edge10_Node000010_Node000011" class="edge">
<title>Node10&#45;&gt;Node11</title>
<g id="a_edge10_Node000010_Node000011"><a xlink:title=" ">
<path fill="none" stroke="#63b8ff" d="M421.6,-231.76C390.28,-228.53 346.81,-218.4 325,-188 303.65,-158.23 311.38,-112.87 318.49,-86.98"/>
<polygon fill="#63b8ff" stroke="#63b8ff" points="321.74,-88.31 321.26,-77.73 315.04,-86.3 321.74,-88.31"/>
</a>
</g>
</g>
<!-- Node12 -->
<g id="Node000012" class="node">
<title>Node12</title>
<g id="a_Node000012"><a xlink:title=" ">
<polygon fill="#e0e0e0" stroke="#999999" points="1023.5,-188 980.5,-188 980.5,-168 1023.5,-168 1023.5,-188"/>
<text text-anchor="middle" x="1002" y="-174.5" font-family="Helvetica,sans-Serif" font-size="10.00">vector</text>
</a>
</g>
</g>
<!-- Node10&#45;&gt;Node12 -->
<g id="edge12_Node000010_Node000012" class="edge">
<title>Node10&#45;&gt;Node12</title>
<g id="a_edge12_Node000010_Node000012"><a xlink:title=" ">
<path fill="none" stroke="#63b8ff" d="M494.54,-229.37C594.72,-219.43 872.65,-191.84 968.78,-182.3"/>
<polygon fill="#63b8ff" stroke="#63b8ff" points="968.98,-185.8 978.58,-181.32 968.28,-178.83 968.98,-185.8"/>
</a>
</g>
</g>
<!-- Node13 -->
<g id="Node000013" class="node">
<title>Node13</title>
<g id="a_Node000013"><a xlink:href="EntityManager_8hpp.html" target="_top" xlink:title=" ">
<polygon fill="white" stroke="#666666" points="239.88,-188 142.12,-188 142.12,-168 239.88,-168 239.88,-188"/>
<text text-anchor="middle" x="191" y="-174.5" font-family="Helvetica,sans-Serif" font-size="10.00">EntityManager.hpp</text>
</a>
</g>
</g>
<!-- Node10&#45;&gt;Node13 -->
<g id="edge13_Node000010_Node000013" class="edge">
<title>Node10&#45;&gt;Node13</title>
<g id="a_edge13_Node000010_Node000013"><a xlink:title=" ">
<path fill="none" stroke="#63b8ff" d="M421.43,-225.6C376.99,-216.62 301.46,-201.34 249.04,-190.74"/>
<polygon fill="#63b8ff" stroke="#63b8ff" points="249.87,-187.34 239.38,-188.78 248.48,-194.2 249.87,-187.34"/>
</a>
</g>
</g>
<!-- Node16 -->
<g id="Node000016" class="node">
<title>Node16</title>
<g id="a_Node000016"><a xlink:href="ComponentManager_8hpp.html" target="_top" xlink:title=" ">
<polygon fill="white" stroke="#666666" points="456.25,-188 333.75,-188 333.75,-168 456.25,-168 456.25,-188"/>
<text text-anchor="middle" x="395" y="-174.5" font-family="Helvetica,sans-Serif" font-size="10.00">ComponentManager.hpp</text>
</a>
</g>
</g>
<!-- Node10&#45;&gt;Node16 -->
<g id="edge17_Node000010_Node000016" class="edge">
<title>Node10&#45;&gt;Node16</title>
<g id="a_edge17_Node000010_Node000016"><a xlink:title=" ">
<path fill="none" stroke="#63b8ff" d="M447.03,-223.59C438.08,-215.93 425.23,-204.91 414.54,-195.75"/>
<polygon fill="#63b8ff" stroke="#63b8ff" points="416.87,-193.13 407,-189.28 412.31,-198.45 416.87,-193.13"/>
</a>
</g>
</g>
<!-- Node20 -->
<g id="Node000020" class="node">
<title>Node20</title>
<g id="a_Node000020"><a xlink:href="SystemManager_8hpp.html" target="_top" xlink:title=" ">
<polygon fill="white" stroke="#666666" points="848,-188 742,-188 742,-168 848,-168 848,-188"/>
<text text-anchor="middle" x="795" y="-174.5" font-family="Helvetica,sans-Serif" font-size="10.00">SystemManager.hpp</text>
</a>
</g>
</g>
<!-- Node10&#45;&gt;Node20 -->
<g id="edge29_Node000010_Node000020" class="edge">
<title>Node10&#45;&gt;Node20</title>
<g id="a_edge29_Node000010_Node000020"><a xlink:title=" ">
<path fill="none" stroke="#63b8ff" d="M494.39,-227.17C550.81,-218.13 660.21,-200.6 730.32,-189.36"/>
<polygon fill="#63b8ff" stroke="#63b8ff" points="730.83,-192.83 740.15,-187.79 729.73,-185.91 730.83,-192.83"/>
</a>
</g>
</g>
<!-- Node21 -->
<g id="Node000021" class="node">
<title>Node21</title>
<g id="a_Node000021"><a xlink:href="EventManager_8hpp.html" target="_top" xlink:title=" ">
<polygon fill="white" stroke="#666666" points="723.88,-188 626.12,-188 626.12,-168 723.88,-168 723.88,-188"/>
<text text-anchor="middle" x="675" y="-174.5" font-family="Helvetica,sans-Serif" font-size="10.00">EventManager.hpp</text>
</a>
</g>
</g>
<!-- Node10&#45;&gt;Node21 -->
<g id="edge35_Node000010_Node000021" class="edge">
<title>Node10&#45;&gt;Node21</title>
<g id="a_edge35_Node000010_Node000021"><a xlink:title=" ">
<path fill="none" stroke="#63b8ff" d="M494.32,-223.96C530.42,-214.98 586.02,-201.14 626.01,-191.19"/>
<polygon fill="#63b8ff" stroke="#63b8ff" points="626.77,-194.61 635.63,-188.8 625.08,-187.82 626.77,-194.61"/>
</a>
</g>
</g>
<!-- Node13&#45;&gt;Node7 -->
<g id="edge16_Node000013_Node000007" class="edge">
<title>Node13&#45;&gt;Node7</title>
<g id="a_edge16_Node000013_Node000007"><a xlink:title=" ">
<path fill="none" stroke="#63b8ff" d="M188.03,-167.57C184.45,-154.36 179.94,-129.94 189,-112 195.38,-99.37 207.16,-89.41 218.68,-82.11"/>
<polygon fill="#63b8ff" stroke="#63b8ff" points="220.38,-85.17 227.28,-77.13 216.87,-79.11 220.38,-85.17"/>
</a>
</g>
</g>
<!-- Node14 -->
<g id="Node000014" class="node">
<title>Node14</title>
<g id="a_Node000014"><a xlink:title=" ">
<polygon fill="#e0e0e0" stroke="#999999" points="240.12,-132 197.88,-132 197.88,-112 240.12,-112 240.12,-132"/>
<text text-anchor="middle" x="219" y="-118.5" font-family="Helvetica,sans-Serif" font-size="10.00">queue</text>
</a>
</g>
</g>
<!-- Node13&#45;&gt;Node14 -->
<g id="edge14_Node000013_Node000014" class="edge">
<title>Node13&#45;&gt;Node14</title>
<g id="a_edge14_Node000013_Node000014"><a xlink:title=" ">
<path fill="none" stroke="#63b8ff" d="M195.88,-167.59C199.49,-160.63 204.54,-150.89 209,-142.29"/>
<polygon fill="#63b8ff" stroke="#63b8ff" points="211.99,-144.13 213.48,-133.64 205.77,-140.91 211.99,-144.13"/>
</a>
</g>
</g>
<!-- Node15 -->
<g id="Node000015" class="node">
<title>Node15</title>
<g id="a_Node000015"><a xlink:title=" ">
<polygon fill="#e0e0e0" stroke="#999999" points="141.88,-132 104.12,-132 104.12,-112 141.88,-112 141.88,-132"/>
<text text-anchor="middle" x="123" y="-118.5" font-family="Helvetica,sans-Serif" font-size="10.00">array</text>
</a>
</g>
</g>
<!-- Node13&#45;&gt;Node15 -->
<g id="edge15_Node000013_Node000015" class="edge">
<title>Node13&#45;&gt;Node15</title>
<g id="a_edge15_Node000013_Node000015"><a xlink:title=" ">
<path fill="none" stroke="#63b8ff" d="M179.16,-167.59C169.31,-159.77 155.07,-148.46 143.39,-139.19"/>
<polygon fill="#63b8ff" stroke="#63b8ff" points="145.9,-136.72 135.89,-133.24 141.55,-142.2 145.9,-136.72"/>
</a>
</g>
</g>
<!-- Node16&#45;&gt;Node2 -->
<g id="edge20_Node000016_Node000002" class="edge">
<title>Node16&#45;&gt;Node2</title>
<g id="a_edge20_Node000016_Node000002"><a xlink:title=" ">
<path fill="none" stroke="#63b8ff" d="M430.71,-167.59C467.82,-157.82 525.63,-142.59 563.16,-132.7"/>
<polygon fill="#63b8ff" stroke="#63b8ff" points="563.87,-136.14 572.64,-130.21 562.08,-129.37 563.87,-136.14"/>
</a>
</g>
</g>
<!-- Node16&#45;&gt;Node3 -->
<g id="edge19_Node000016_Node000003" class="edge">
<title>Node16&#45;&gt;Node3</title>
<g id="a_edge19_Node000016_Node000003"><a xlink:title=" ">
<path fill="none" stroke="#63b8ff" d="M456.67,-174.28C586.71,-168.28 886.45,-152.87 1008.32,-132.01"/>
<polygon fill="#63b8ff" stroke="#63b8ff" points="1008.85,-135.48 1018.06,-130.25 1007.6,-128.59 1008.85,-135.48"/>
</a>
</g>
</g>
<!-- Node16&#45;&gt;Node4 -->
<g id="edge18_Node000016_Node000004" class="edge">
<title>Node16&#45;&gt;Node4</title>
<g id="a_edge18_Node000016_Node000004"><a xlink:title=" ">
<path fill="none" stroke="#63b8ff" d="M418.5,-167.53C451.16,-154.49 512.22,-130.5 565,-112 598.08,-100.41 635.93,-88.4 664.08,-79.7"/>
<polygon fill="#63b8ff" stroke="#63b8ff" points="664.77,-83.15 673.3,-76.87 662.72,-76.46 664.77,-83.15"/>
</a>
</g>
</g>
<!-- Node16&#45;&gt;Node7 -->
<g id="edge22_Node000016_Node000007" class="edge">
<title>Node16&#45;&gt;Node7</title>
<g id="a_edge22_Node000016_Node000007"><a xlink:title=" ">
<path fill="none" stroke="#63b8ff" d="M379,-167.61C364.52,-158.91 342.81,-145.34 325,-132 304.67,-116.78 282.89,-97.53 268.06,-83.95"/>
<polygon fill="#63b8ff" stroke="#63b8ff" points="270.63,-81.56 260.92,-77.33 265.88,-86.7 270.63,-81.56"/>
</a>
</g>
</g>
<!-- Node17 -->
<g id="Node000017" class="node">
<title>Node17</title>
<g id="a_Node000017"><a xlink:title=" ">
<polygon fill="#e0e0e0" stroke="#999999" points="526.38,-76 467.62,-76 467.62,-56 526.38,-56 526.38,-76"/>
<text text-anchor="middle" x="497" y="-62.5" font-family="Helvetica,sans-Serif" font-size="10.00">stdexcept</text>
</a>
</g>
</g>
<!-- Node16&#45;&gt;Node17 -->
<g id="edge21_Node000016_Node000017" class="edge">
<title>Node16&#45;&gt;Node17</title>
<g id="a_edge21_Node000016_Node000017"><a xlink:title=" ">
<path fill="none" stroke="#63b8ff" d="M429.88,-167.57C448.68,-160.72 470.69,-149.5 484,-132 493.6,-119.37 496.63,-101.51 497.38,-87.7"/>
<polygon fill="#63b8ff" stroke="#63b8ff" points="500.88,-87.99 497.53,-77.94 493.88,-87.88 500.88,-87.99"/>
</a>
</g>
</g>
<!-- Node18 -->
<g id="Node000018" class="node">
<title>Node18</title>
<g id="a_Node000018"><a xlink:href="ComponentArray_8hpp.html" target="_top" xlink:title=" ">
<polygon fill="white" stroke="#666666" points="441.75,-132 334.25,-132 334.25,-112 441.75,-112 441.75,-132"/>
<text text-anchor="middle" x="388" y="-118.5" font-family="Helvetica,sans-Serif" font-size="10.00">ComponentArray.hpp</text>
</a>
</g>
</g>
<!-- Node16&#45;&gt;Node18 -->
<g id="edge23_Node000016_Node000018" class="edge">
<title>Node16&#45;&gt;Node18</title>
<g id="a_edge23_Node000016_Node000018"><a xlink:title=" ">
<path fill="none" stroke="#63b8ff" d="M393.78,-167.59C392.92,-160.93 391.73,-151.75 390.65,-143.44"/>
<polygon fill="#63b8ff" stroke="#63b8ff" points="394.16,-143.27 389.4,-133.8 387.21,-144.17 394.16,-143.27"/>
</a>
</g>
</g>
<!-- Node18&#45;&gt;Node4 -->
<g id="edge25_Node000018_Node000004" class="edge">
<title>Node18&#45;&gt;Node4</title>
<g id="a_edge25_Node000018_Node000004"><a xlink:title=" ">
<path fill="none" stroke="#63b8ff" d="M441.94,-111.84C500.92,-101.83 594.8,-85.88 653.28,-75.95"/>
<polygon fill="#63b8ff" stroke="#63b8ff" points="653.72,-79.43 662.99,-74.3 652.55,-72.53 653.72,-79.43"/>
</a>
</g>
</g>
<!-- Node18&#45;&gt;Node7 -->
<g id="edge28_Node000018_Node000007" class="edge">
<title>Node18&#45;&gt;Node7</title>
<g id="a_edge28_Node000018_Node000007"><a xlink:title=" ">
<path fill="none" stroke="#63b8ff" d="M363.96,-111.59C342.03,-103.01 309.37,-90.23 284.63,-80.55"/>
<polygon fill="#63b8ff" stroke="#63b8ff" points="286.22,-77.42 275.63,-77.03 283.67,-83.93 286.22,-77.42"/>
</a>
</g>
</g>
<!-- Node18&#45;&gt;Node11 -->
<g id="edge27_Node000018_Node000011" class="edge">
<title>Node18&#45;&gt;Node11</title>
<g id="a_edge27_Node000018_Node000011"><a xlink:title=" ">
<path fill="none" stroke="#63b8ff" d="M377.03,-111.59C368.08,-103.93 355.23,-92.91 344.54,-83.75"/>
<polygon fill="#63b8ff" stroke="#63b8ff" points="346.87,-81.13 337,-77.28 342.31,-86.45 346.87,-81.13"/>
</a>
</g>
</g>
<!-- Node18&#45;&gt;Node17 -->
<g id="edge26_Node000018_Node000017" class="edge">
<title>Node18&#45;&gt;Node17</title>
<g id="a_edge26_Node000018_Node000017"><a xlink:title=" ">
<path fill="none" stroke="#63b8ff" d="M406.99,-111.59C423.76,-103.28 448.49,-91.03 467.79,-81.47"/>
<polygon fill="#63b8ff" stroke="#63b8ff" points="469.1,-84.73 476.51,-77.15 465.99,-78.45 469.1,-84.73"/>
</a>
</g>
</g>
<!-- Node19 -->
<g id="Node000019" class="node">
<title>Node19</title>
<g id="a_Node000019"><a xlink:title=" ">
<polygon fill="#e0e0e0" stroke="#999999" points="428,-76 370,-76 370,-56 428,-56 428,-76"/>
<text text-anchor="middle" x="399" y="-62.5" font-family="Helvetica,sans-Serif" font-size="10.00">exception</text>
</a>
</g>
</g>
<!-- Node18&#45;&gt;Node19 -->
<g id="edge24_Node000018_Node000019" class="edge">
<title>Node18&#45;&gt;Node19</title>
<g id="a_edge24_Node000018_Node000019"><a xlink:title=" ">
<path fill="none" stroke="#63b8ff" d="M389.92,-111.59C391.27,-104.93 393.14,-95.75 394.84,-87.44"/>
<polygon fill="#63b8ff" stroke="#63b8ff" points="398.24,-88.28 396.8,-77.78 391.38,-86.88 398.24,-88.28"/>
</a>
</g>
</g>
<!-- Node20&#45;&gt;Node2 -->
<g id="edge32_Node000020_Node000002" class="edge">
<title>Node20&#45;&gt;Node2</title>
<g id="a_edge32_Node000020_Node000002"><a xlink:title=" ">
<path fill="none" stroke="#63b8ff" d="M761.03,-167.59C726.37,-158 672.74,-143.14 637.02,-133.25"/>
<polygon fill="#63b8ff" stroke="#63b8ff" points="638.13,-129.93 627.55,-130.63 636.26,-136.67 638.13,-129.93"/>
</a>
</g>
</g>
<!-- Node20&#45;&gt;Node3 -->
<g id="edge31_Node000020_Node000003" class="edge">
<title>Node20&#45;&gt;Node3</title>
<g id="a_edge31_Node000020_Node000003"><a xlink:title=" ">
<path fill="none" stroke="#63b8ff" d="M847.26,-167.56C888.72,-159.75 948.33,-147.79 1008.88,-132.36"/>
<polygon fill="#63b8ff" stroke="#63b8ff" points="1009.52,-135.81 1018.32,-129.92 1007.77,-129.03 1009.52,-135.81"/>
</a>
</g>
</g>
<!-- Node20&#45;&gt;Node4 -->
<g id="edge30_Node000020_Node000004" class="edge">
<title>Node20&#45;&gt;Node4</title>
<g id="a_edge30_Node000020_Node000004"><a xlink:title=" ">
<path fill="none" stroke="#63b8ff" d="M796.88,-167.73C799.08,-154.27 801.13,-129.06 790,-112 780.67,-97.7 765.22,-87.62 750.09,-80.67"/>
<polygon fill="#63b8ff" stroke="#63b8ff" points="751.72,-77.56 741.15,-76.94 749.03,-84.02 751.72,-77.56"/>
</a>
</g>
</g>
<!-- Node20&#45;&gt;Node5 -->
<g id="edge34_Node000020_Node000005" class="edge">
<title>Node20&#45;&gt;Node5</title>
<g id="a_edge34_Node000020_Node000005"><a xlink:title=" ">
<path fill="none" stroke="#63b8ff" d="M848.42,-168.93C901.35,-160.78 985.01,-147.47 1066.35,-132.44"/>
<polygon fill="#63b8ff" stroke="#63b8ff" points="1066.61,-135.95 1075.8,-130.68 1065.33,-129.06 1066.61,-135.95"/>
</a>
</g>
</g>
<!-- Node20&#45;&gt;Node17 -->
<g id="edge33_Node000020_Node000017" class="edge">
<title>Node20&#45;&gt;Node17</title>
<g id="a_edge33_Node000020_Node000017"><a xlink:title=" ">
<path fill="none" stroke="#63b8ff" d="M792.36,-167.72C787.75,-153.29 776.76,-125.71 757,-112 722.19,-87.85 601.93,-75.1 537.88,-69.89"/>
<polygon fill="#63b8ff" stroke="#63b8ff" points="538.37,-66.42 528.12,-69.12 537.82,-73.4 538.37,-66.42"/>
</a>
</g>
</g>
<!-- Node22 -->
<g id="Node000022" class="node">
<title>Node22</title>
<g id="a_Node000022"><a xlink:href="Event_8hpp.html" target="_top" xlink:title=" ">
<polygon fill="white" stroke="#666666" points="1002.12,-132 941.88,-132 941.88,-112 1002.12,-112 1002.12,-132"/>
<text text-anchor="middle" x="972" y="-118.5" font-family="Helvetica,sans-Serif" font-size="10.00">Event.hpp</text>
</a>
</g>
</g>
<!-- Node21&#45;&gt;Node22 -->
<g id="edge36_Node000021_Node000022" class="edge">
<title>Node21&#45;&gt;Node22</title>
<g id="a_edge36_Node000021_Node000022"><a xlink:title=" ">
<path fill="none" stroke="#63b8ff" d="M724.04,-168.08C781.6,-157.62 876.06,-140.44 930.26,-130.59"/>
<polygon fill="#63b8ff" stroke="#63b8ff" points="930.81,-134.05 940.02,-128.81 929.56,-127.16 930.81,-134.05"/>
</a>
</g>
</g>
<!-- Node24 -->
<g id="Node000024" class="node">
<title>Node24</title>
<g id="a_Node000024"><a xlink:title=" ">
<polygon fill="#e0e0e0" stroke="#999999" points="702,-132 644,-132 644,-112 702,-112 702,-132"/>
<text text-anchor="middle" x="673" y="-118.5" font-family="Helvetica,sans-Serif" font-size="10.00">functional</text>
</a>
</g>
</g>
<!-- Node21&#45;&gt;Node24 -->
<g id="edge40_Node000021_Node000024" class="edge">
<title>Node21&#45;&gt;Node24</title>
<g id="a_edge40_Node000021_Node000024"><a xlink:title=" ">
<path fill="none" stroke="#63b8ff" d="M674.65,-167.59C674.41,-161.01 674.07,-151.96 673.77,-143.73"/>
<polygon fill="#63b8ff" stroke="#63b8ff" points="677.27,-143.67 673.4,-133.81 670.27,-143.93 677.27,-143.67"/>
</a>
</g>
</g>
<!-- Node25 -->
<g id="Node000025" class="node">
<title>Node25</title>
<g id="a_Node000025"><a xlink:title=" ">
<polygon fill="#e0e0e0" stroke="#999999" points="748.4,-132 719.6,-132 719.6,-112 748.4,-112 748.4,-132"/>
<text text-anchor="middle" x="734" y="-118.5" font-family="Helvetica,sans-Serif" font-size="10.00">list</text>
</a>
</g>
</g>
<!-- Node21&#45;&gt;Node25 -->
<g id="edge41_Node000021_Node000025" class="edge">
<title>Node21&#45;&gt;Node25</title>
<g id="a_edge41_Node000021_Node000025"><a xlink:title=" ">
<path fill="none" stroke="#63b8ff" d="M685.28,-167.59C693.57,-160.01 705.45,-149.13 715.4,-140.02"/>
<polygon fill="#63b8ff" stroke="#63b8ff" points="717.71,-142.65 722.72,-133.32 712.98,-137.49 717.71,-142.65"/>
</a>
</g>
</g>
<!-- Node22&#45;&gt;Node4 -->
<g id="edge38_Node000022_Node000004" class="edge">
<title>Node22&#45;&gt;Node4</title>
<g id="a_edge38_Node000022_Node000004"><a xlink:title=" ">
<path fill="none" stroke="#63b8ff" d="M941.49,-114.81C896.9,-105.75 813.31,-88.78 758.66,-77.69"/>
<polygon fill="#63b8ff" stroke="#63b8ff" points="759.44,-74.28 748.95,-75.72 758.05,-81.14 759.44,-74.28"/>
</a>
</g>
</g>
<!-- Node22&#45;&gt;Node8 -->
<g id="edge37_Node000022_Node000008" class="edge">
<title>Node22&#45;&gt;Node8</title>
<g id="a_edge37_Node000022_Node000008"><a xlink:title=" ">
<path fill="none" stroke="#63b8ff" d="M968.67,-111.62C962.37,-93.84 948.56,-54.88 940.09,-31"/>
<polygon fill="#63b8ff" stroke="#63b8ff" points="943.46,-30.04 936.82,-21.78 936.87,-32.38 943.46,-30.04"/>
</a>
</g>
</g>
<!-- Node23 -->
<g id="Node000023" class="node">
<title>Node23</title>
<g id="a_Node000023"><a xlink:title=" ">
<polygon fill="#e0e0e0" stroke="#999999" points="1011.88,-76 980.12,-76 980.12,-56 1011.88,-56 1011.88,-76"/>
<text text-anchor="middle" x="996" y="-62.5" font-family="Helvetica,sans-Serif" font-size="10.00">any</text>
</a>
</g>
</g>
<!-- Node22&#45;&gt;Node23 -->
<g id="edge39_Node000022_Node000023" class="edge">
<title>Node22&#45;&gt;Node23</title>
<g id="a_edge39_Node000022_Node000023"><a xlink:title=" ">
<path fill="none" stroke="#63b8ff" d="M976.18,-111.59C979.24,-104.7 983.51,-95.1 987.3,-86.57"/>
<polygon fill="#63b8ff" stroke="#63b8ff" points="990.39,-88.24 991.25,-77.68 983.99,-85.4 990.39,-88.24"/>
</a>
</g>
</g>
<!-- Node27 -->
<g id="Node000027" class="node">
<title>Node27</title>
<g id="a_Node000027"><a xlink:href="Utils_8hpp.html" target="_top" xlink:title=" ">
<polygon fill="white" stroke="#666666" points="1353.5,-188 1298.5,-188 1298.5,-168 1353.5,-168 1353.5,-188"/>
<text text-anchor="middle" x="1326" y="-174.5" font-family="Helvetica,sans-Serif" font-size="10.00">Utils.hpp</text>
</a>
</g>
</g>
<!-- Node26&#45;&gt;Node27 -->
<g id="edge43_Node000026_Node000027" class="edge">
<title>Node26&#45;&gt;Node27</title>
<g id="a_edge43_Node000026_Node000027"><a xlink:title=" ">
<path fill="none" stroke="#63b8ff" d="M1330.79,-391.74C1330.05,-358.74 1327.52,-246.31 1326.46,-199.61"/>
<polygon fill="#63b8ff" stroke="#63b8ff" points="1329.97,-199.73 1326.24,-189.81 1322.97,-199.89 1329.97,-199.73"/>
</a>
</g>
</g>
<!-- Node27&#45;&gt;Node8 -->
<g id="edge44_Node000027_Node000008" class="edge">
<title>Node27&#45;&gt;Node8</title>
<g id="a_edge44_Node000027_Node000008"><a xlink:title=" ">
<path fill="none" stroke="#63b8ff" d="M1314.79,-167.83C1286.6,-145.24 1209.71,-86.52 1136,-56 1079.39,-32.56 1008.6,-20.42 967.33,-14.9"/>
<polygon fill="#63b8ff" stroke="#63b8ff" points="967.87,-11.44 957.51,-13.65 966.99,-18.38 967.87,-11.44"/>
</a>
</g>
</g>
<!-- Node28&#45;&gt;Node3 -->
<g id="edge48_Node000028_Node000003" class="edge">
<title>Node28&#45;&gt;Node3</title>
<g id="a_edge48_Node000028_Node000003"><a xlink:title=" ">
<path fill="none" stroke="#63b8ff" d="M1239.08,-223.63C1217.88,-210.48 1177.67,-186.15 1142,-168 1118.57,-156.08 1091.28,-144.14 1070.83,-135.55"/>
<polygon fill="#63b8ff" stroke="#63b8ff" points="1072.22,-132.34 1061.64,-131.73 1069.53,-138.8 1072.22,-132.34"/>
</a>
</g>
</g>
<!-- Node28&#45;&gt;Node12 -->
<g id="edge46_Node000028_Node000012" class="edge">
<title>Node28&#45;&gt;Node12</title>
<g id="a_edge46_Node000028_Node000012"><a xlink:title=" ">
<path fill="none" stroke="#63b8ff" d="M1209.82,-223.53C1159.93,-212.84 1079.89,-195.69 1035.1,-186.09"/>
<polygon fill="#63b8ff" stroke="#63b8ff" points="1035.98,-182.7 1025.46,-184.03 1034.51,-189.55 1035.98,-182.7"/>
</a>
</g>
</g>
<!-- Node28&#45;&gt;Node27 -->
<g id="edge49_Node000028_Node000027" class="edge">
<title>Node28&#45;&gt;Node27</title>
<g id="a_edge49_Node000028_Node000027"><a xlink:title=" ">
<path fill="none" stroke="#63b8ff" d="M1266.54,-223.59C1276.97,-215.77 1292.05,-204.46 1304.41,-195.19"/>
<polygon fill="#63b8ff" stroke="#63b8ff" points="1306.49,-198.01 1312.39,-189.21 1302.29,-192.41 1306.49,-198.01"/>
</a>
</g>
</g>
<!-- Node29 -->
<g id="Node000029" class="node">
<title>Node29</title>
<g id="a_Node000029"><a xlink:title=" ">
<polygon fill="#e0e0e0" stroke="#999999" points="1280.12,-188 1231.88,-188 1231.88,-168 1280.12,-168 1280.12,-188"/>
<text text-anchor="middle" x="1256" y="-174.5" font-family="Helvetica,sans-Serif" font-size="10.00">cstddef</text>
</a>
</g>
</g>
<!-- Node28&#45;&gt;Node29 -->
<g id="edge47_Node000028_Node000029" class="edge">
<title>Node28&#45;&gt;Node29</title>
<g id="a_edge47_Node000028_Node000029"><a xlink:title=" ">
<path fill="none" stroke="#63b8ff" d="M1254.35,-223.59C1254.59,-217.01 1254.93,-207.96 1255.23,-199.73"/>
<polygon fill="#63b8ff" stroke="#63b8ff" points="1258.73,-199.93 1255.6,-189.81 1251.73,-199.67 1258.73,-199.93"/>
</a>
</g>
</g>
<!-- Node30&#45;&gt;Node2 -->
<g id="edge51_Node000030_Node000002" class="edge">
<title>Node30&#45;&gt;Node2</title>
<g id="a_edge51_Node000030_Node000002"><a xlink:title=" ">
<path fill="none" stroke="#63b8ff" d="M1042.53,-391.8C1019.27,-369.65 956.7,-312.76 895,-280 780.05,-218.97 706.05,-282.91 617,-188 605.77,-176.03 601.75,-157.57 600.4,-143.38"/>
<polygon fill="#63b8ff" stroke="#63b8ff" points="603.92,-143.58 599.88,-133.78 596.93,-143.96 603.92,-143.58"/>
</a>
</g>
</g>
<!-- Node30&#45;&gt;Node3 -->
<g id="edge52_Node000030_Node000003" class="edge">
<title>Node30&#45;&gt;Node3</title>
<g id="a_edge52_Node000030_Node000003"><a xlink:title=" ">
<path fill="none" stroke="#63b8ff" d="M1057.61,-391.67C1068.18,-373.16 1090,-330.2 1090,-291 1090,-291 1090,-291 1090,-233 1090,-198.21 1069.01,-162.32 1054.23,-141.37"/>
<polygon fill="#63b8ff" stroke="#63b8ff" points="1057.24,-139.55 1048.49,-133.57 1051.6,-143.7 1057.24,-139.55"/>
</a>
</g>
</g>
<!-- Node30&#45;&gt;Node22 -->
<g id="edge53_Node000030_Node000022" class="edge">
<title>Node30&#45;&gt;Node22</title>
<g id="a_edge53_Node000030_Node000022"><a xlink:title=" ">
<path fill="none" stroke="#63b8ff" d="M1052,-391.58C1052,-372.57 1052,-328.24 1052,-291 1052,-291 1052,-291 1052,-233 1052,-202.9 1050.24,-192.67 1033,-168 1024.61,-155.98 1011.97,-145.91 1000.37,-138.35"/>
<polygon fill="#63b8ff" stroke="#63b8ff" points="1002.23,-135.39 991.87,-133.17 998.59,-141.37 1002.23,-135.39"/>
</a>
</g>
</g>
<!-- Node31 -->
<g id="Node000031" class="node">
<title>Node31</title>
<g id="a_Node000031"><a xlink:href="NetworkManager_8hpp.html" target="_top" xlink:title=" ">
<polygon fill="white" stroke="#666666" points="681.5,-356 572.5,-356 572.5,-336 681.5,-336 681.5,-356"/>
<text text-anchor="middle" x="627" y="-342.5" font-family="Helvetica,sans-Serif" font-size="10.00">NetworkManager.hpp</text>
</a>
</g>
</g>
<!-- Node30&#45;&gt;Node31 -->
<g id="edge54_Node000030_Node000031" class="edge">
<title>Node30&#45;&gt;Node31</title>
<g id="a_edge54_Node000030_Node000031"><a xlink:title=" ">
<path fill="none" stroke="#63b8ff" d="M1014.28,-396.21C942.01,-387.02 783.17,-366.84 692.97,-355.38"/>
<polygon fill="#63b8ff" stroke="#63b8ff" points="693.65,-351.94 683.29,-354.15 692.77,-358.88 693.65,-351.94"/>
</a>
</g>
</g>
<!-- Node31&#45;&gt;Node7 -->
<g id="edge59_Node000031_Node000007" class="edge">
<title>Node31&#45;&gt;Node7</title>
<g id="a_edge59_Node000031_Node000007"><a xlink:title=" ">
<path fill="none" stroke="#63b8ff" d="M572.18,-341.14C419.41,-329.65 0,-292.85 0,-235 0,-235 0,-235 0,-177 0,-146.2 0.58,-132 24,-112 51.32,-88.67 151.57,-75.92 208.95,-70.4"/>
<polygon fill="#63b8ff" stroke="#63b8ff" points="209.02,-73.9 218.66,-69.49 208.38,-66.93 209.02,-73.9"/>
</a>
</g>
</g>
<!-- Node31&#45;&gt;Node8 -->
<g id="edge55_Node000031_Node000008" class="edge">
<title>Node31&#45;&gt;Node8</title>
<g id="a_edge55_Node000031_Node000008"><a xlink:title=" ">
<path fill="none" stroke="#63b8ff" d="M681.84,-342.53C750.88,-338.32 864.23,-327.34 895,-300 917.5,-280.01 914,-265.1 914,-235 914,-235 914,-235 914,-121 914,-89.26 921.78,-53.11 927.38,-31.19"/>
<polygon fill="#63b8ff" stroke="#63b8ff" points="930.69,-32.35 929.89,-21.79 923.93,-30.54 930.69,-32.35"/>
</a>
</g>
</g>
<!-- Node31&#45;&gt;Node10 -->
<g id="edge60_Node000031_Node000010" class="edge">
<title>Node31&#45;&gt;Node10</title>
<g id="a_edge60_Node000031_Node000010"><a xlink:title=" ">
<path fill="none" stroke="#63b8ff" d="M572.01,-339.25C522.88,-332.85 456.22,-320.59 440,-300 429.61,-286.81 436.51,-267.99 444.59,-254"/>
<polygon fill="#63b8ff" stroke="#63b8ff" points="447.47,-255.99 449.92,-245.68 441.58,-252.21 447.47,-255.99"/>
</a>
</g>
</g>
<!-- Node31&#45;&gt;Node15 -->
<g id="edge57_Node000031_Node000015" class="edge">
<title>Node31&#45;&gt;Node15</title>
<g id="a_edge57_Node000031_Node000015"><a xlink:title=" ">
<path fill="none" stroke="#63b8ff" d="M577.39,-335.52C537.47,-327.44 480.14,-314.8 431,-300 295.52,-259.19 222.18,-297.84 133,-188 122.97,-175.65 120.9,-157.49 121.09,-143.5"/>
<polygon fill="#63b8ff" stroke="#63b8ff" points="124.58,-143.8 121.65,-133.62 117.59,-143.41 124.58,-143.8"/>
</a>
</g>
</g>
<!-- Node32 -->
<g id="Node000032" class="node">
<title>Node32</title>
<g id="a_Node000032"><a xlink:title=" ">
<polygon fill="#e0e0e0" stroke="#999999" points="666.88,-300 587.12,-300 587.12,-280 666.88,-280 666.88,-300"/>
<text text-anchor="middle" x="627" y="-286.5" font-family="Helvetica,sans-Serif" font-size="10.00">boost/asio.hpp</text>
</a>
</g>
</g>
<!-- Node31&#45;&gt;Node32 -->
<g id="edge56_Node000031_Node000032" class="edge">
<title>Node31&#45;&gt;Node32</title>
<g id="a_edge56_Node000031_Node000032"><a xlink:title=" ">
<path fill="none" stroke="#63b8ff" d="M627,-335.59C627,-329.01 627,-319.96 627,-311.73"/>
<polygon fill="#63b8ff" stroke="#63b8ff" points="630.5,-311.81 627,-301.81 623.5,-311.81 630.5,-311.81"/>
</a>
</g>
</g>
<!-- Node33 -->
<g id="Node000033" class="node">
<title>Node33</title>
<g id="a_Node000033"><a xlink:title=" ">
<polygon fill="#e0e0e0" stroke="#999999" points="727.5,-300 684.5,-300 684.5,-280 727.5,-280 727.5,-300"/>
<text text-anchor="middle" x="706" y="-286.5" font-family="Helvetica,sans-Serif" font-size="10.00">thread</text>
</a>
</g>
</g>
<!-- Node31&#45;&gt;Node33 -->
<g id="edge58_Node000031_Node000033" class="edge">
<title>Node31&#45;&gt;Node33</title>
<g id="a_edge58_Node000031_Node000033"><a xlink:title=" ">
<path fill="none" stroke="#63b8ff" d="M640.76,-335.59C652.36,-327.67 669.2,-316.16 682.86,-306.82"/>
<polygon fill="#63b8ff" stroke="#63b8ff" points="684.6,-309.87 690.88,-301.33 680.65,-304.09 684.6,-309.87"/>
</a>
</g>
</g>
<!-- Node34 -->
<g id="Node000034" class="node">
<title>Node34</title>
<g id="a_Node000034"><a xlink:href="ComponentRegistry_8hpp.html" target="_top" xlink:title=" ">
<polygon fill="white" stroke="#666666" points="569.5,-300 448.5,-300 448.5,-280 569.5,-280 569.5,-300"/>
<text text-anchor="middle" x="509" y="-286.5" font-family="Helvetica,sans-Serif" font-size="10.00">ComponentRegistry.hpp</text>
</a>
</g>
</g>
<!-- Node31&#45;&gt;Node34 -->
<g id="edge61_Node000031_Node000034" class="edge">
<title>Node31&#45;&gt;Node34</title>
<g id="a_edge61_Node000031_Node000034"><a xlink:title=" ">
<path fill="none" stroke="#63b8ff" d="M606.45,-335.59C588.12,-327.21 561.01,-314.8 540.04,-305.21"/>
<polygon fill="#63b8ff" stroke="#63b8ff" points="541.64,-302.09 531.09,-301.11 538.73,-308.45 541.64,-302.09"/>
</a>
</g>
</g>
<!-- Node35 -->
<g id="Node000035" class="node">
<title>Node35</title>
<g id="a_Node000035"><a xlink:href="EnemyInfo_8hpp.html" target="_top" xlink:title=" ">
<polygon fill="white" stroke="#666666" points="886.25,-300 745.75,-300 745.75,-280 886.25,-280 886.25,-300"/>
<text text-anchor="middle" x="816" y="-286.5" font-family="Helvetica,sans-Serif" font-size="10.00">Components/EnemyInfo.hpp</text>
</a>
</g>
</g>
<!-- Node31&#45;&gt;Node35 -->
<g id="edge68_Node000031_Node000035" class="edge">
<title>Node31&#45;&gt;Node35</title>
<g id="a_edge68_Node000031_Node000035"><a xlink:title=" ">
<path fill="none" stroke="#63b8ff" d="M659.92,-335.59C691.03,-326.71 737.92,-313.31 772.18,-303.52"/>
<polygon fill="#63b8ff" stroke="#63b8ff" points="772.71,-307.01 781.37,-300.9 770.79,-300.28 772.71,-307.01"/>
</a>
</g>
</g>
<!-- Node34&#45;&gt;Node3 -->
<g id="edge64_Node000034_Node000003" class="edge">
<title>Node34&#45;&gt;Node3</title>
<g id="a_edge64_Node000034_Node000003"><a xlink:title=" ">
<path fill="none" stroke="#63b8ff" d="M569.75,-281.07C668.05,-268.24 851.18,-244.3 852,-244 861,-240.7 967.96,-170.51 1016.41,-138.57"/>
<polygon fill="#63b8ff" stroke="#63b8ff" points="1018.12,-141.64 1024.54,-133.21 1014.27,-135.79 1018.12,-141.64"/>
</a>
</g>
</g>
<!-- Node34&#45;&gt;Node4 -->
<g id="edge63_Node000034_Node000004" class="edge">
<title>Node34&#45;&gt;Node4</title>
<g id="a_edge63_Node000034_Node000004"><a xlink:title=" ">
<path fill="none" stroke="#63b8ff" d="M569.69,-280.21C659.9,-265.77 822.48,-233.96 857,-188 893.22,-139.78 804.37,-99.68 748.06,-80.03"/>
<polygon fill="#63b8ff" stroke="#63b8ff" points="749.31,-76.76 738.72,-76.86 747.06,-83.39 749.31,-76.76"/>
</a>
</g>
</g>
<!-- Node34&#45;&gt;Node7 -->
<g id="edge66_Node000034_Node000007" class="edge">
<title>Node34&#45;&gt;Node7</title>
<g id="a_edge66_Node000034_Node000007"><a xlink:title=" ">
<path fill="none" stroke="#63b8ff" d="M448.16,-285.6C368.89,-278.47 229.1,-256.39 133,-188 102.23,-166.1 72.32,-142.2 95,-112 108.66,-93.81 167.34,-80.59 208.44,-73.36"/>
<polygon fill="#63b8ff" stroke="#63b8ff" points="209.01,-76.81 218.28,-71.69 207.83,-69.91 209.01,-76.81"/>
</a>
</g>
</g>
<!-- Node34&#45;&gt;Node10 -->
<g id="edge67_Node000034_Node000010" class="edge">
<title>Node34&#45;&gt;Node10</title>
<g id="a_edge67_Node000034_Node000010"><a xlink:title=" ">
<path fill="none" stroke="#63b8ff" d="M500.12,-279.59C493.1,-272.16 483.1,-261.58 474.61,-252.58"/>
<polygon fill="#63b8ff" stroke="#63b8ff" points="477.23,-250.27 467.82,-245.4 472.14,-255.07 477.23,-250.27"/>
</a>
</g>
</g>
<!-- Node34&#45;&gt;Node17 -->
<g id="edge65_Node000034_Node000017" class="edge">
<title>Node34&#45;&gt;Node17</title>
<g id="a_edge65_Node000034_Node000017"><a xlink:title=" ">
<path fill="none" stroke="#63b8ff" d="M465.93,-279.54C421.18,-267.1 353.76,-240.39 325,-188 286.94,-118.67 378.18,-183.62 451,-132 467.54,-120.28 480.22,-100.66 488.04,-86.04"/>
<polygon fill="#63b8ff" stroke="#63b8ff" points="491.02,-87.9 492.38,-77.39 484.76,-84.76 491.02,-87.9"/>
</a>
</g>
</g>
<!-- Node34&#45;&gt;Node24 -->
<g id="edge62_Node000034_Node000024" class="edge">
<title>Node34&#45;&gt;Node24</title>
<g id="a_edge62_Node000034_Node000024"><a xlink:title=" ">
<path fill="none" stroke="#63b8ff" d="M516.38,-279.73C533.22,-258.82 576.16,-206.78 617,-168 627.66,-157.87 640.38,-147.53 651,-139.32"/>
<polygon fill="#63b8ff" stroke="#63b8ff" points="653,-142.2 658.84,-133.36 648.76,-136.62 653,-142.2"/>
</a>
</g>
</g>
</g>
</svg>
