<?xml version="1.0" encoding="UTF-8" standalone="no"?>
<!DOCTYPE svg PUBLIC "-//W3C//DTD SVG 1.1//EN"
 "http://www.w3.org/Graphics/SVG/1.1/DTD/svg11.dtd">
<!-- Generated by graphviz version 12.1.0 (20240811.2233)
 -->
<!-- Title: Renderer.hpp Pages: 1 -->
<svg width="251pt" height="196pt"
 viewBox="0.00 0.00 251.12 196.00" xmlns="http://www.w3.org/2000/svg" xmlns:xlink="http://www.w3.org/1999/xlink">
<g id="graph0" class="graph" transform="scale(1 1) rotate(0) translate(4 192)">
<title>Renderer.hpp</title>
<!-- Node1 -->
<g id="Node000001" class="node">
<title>Node1</title>
<g id="a_Node000001"><a xlink:title=" ">
<polygon fill="#999999" stroke="#666666" points="141.88,-188 67.38,-188 67.38,-168 141.88,-168 141.88,-188"/>
<text text-anchor="middle" x="104.62" y="-174.5" font-family="Helvetica,sans-Serif" font-size="10.00">Renderer.hpp</text>
</a>
</g>
</g>
<!-- Node2 -->
<g id="Node000002" class="node">
<title>Node2</title>
<g id="a_Node000002"><a xlink:href="GameTypes_8hpp.html" target="_top" xlink:title=" ">
<polygon fill="white" stroke="#666666" points="87.25,-76 0,-76 0,-56 87.25,-56 87.25,-76"/>
<text text-anchor="middle" x="43.62" y="-62.5" font-family="Helvetica,sans-Serif" font-size="10.00">GameTypes.hpp</text>
</a>
</g>
</g>
<!-- Node1&#45;&gt;Node2 -->
<g id="edge1_Node000001_Node000002" class="edge">
<title>Node1&#45;&gt;Node2</title>
<g id="a_edge1_Node000001_Node000002"><a xlink:title=" ">
<path fill="none" stroke="#63b8ff" d="M85.25,-160.1C77.27,-152.25 68.53,-142.37 62.62,-132 52.27,-113.81 47.13,-89.49 44.96,-76.36"/>
<polygon fill="#63b8ff" stroke="#63b8ff" points="82.64,-162.45 92.34,-166.71 87.41,-157.33 82.64,-162.45"/>
</a>
</g>
</g>
<!-- Node5 -->
<g id="Node000005" class="node">
<title>Node5</title>
<g id="a_Node000005"><a xlink:href="Render_8hpp.html" target="_top" xlink:title=" ">
<polygon fill="white" stroke="#666666" points="137.75,-132 71.5,-132 71.5,-112 137.75,-112 137.75,-132"/>
<text text-anchor="middle" x="104.62" y="-118.5" font-family="Helvetica,sans-Serif" font-size="10.00">Render.hpp</text>
</a>
</g>
</g>
<!-- Node1&#45;&gt;Node5 -->
<g id="edge4_Node000001_Node000005" class="edge">
<title>Node1&#45;&gt;Node5</title>
<g id="a_edge4_Node000001_Node000005"><a xlink:title=" ">
<path fill="none" stroke="#63b8ff" d="M104.62,-156.13C104.62,-147.9 104.62,-138.85 104.62,-132.3"/>
<polygon fill="#63b8ff" stroke="#63b8ff" points="101.13,-156.08 104.63,-166.08 108.13,-156.08 101.13,-156.08"/>
</a>
</g>
</g>
<!-- Node6 -->
<g id="Node000006" class="node">
<title>Node6</title>
<g id="a_Node000006"><a xlink:href="SFML_8hpp.html" target="_top" xlink:title=" ">
<polygon fill="white" stroke="#666666" points="217.12,-132 156.12,-132 156.12,-112 217.12,-112 217.12,-132"/>
<text text-anchor="middle" x="186.62" y="-118.5" font-family="Helvetica,sans-Serif" font-size="10.00">SFML.hpp</text>
</a>
</g>
</g>
<!-- Node1&#45;&gt;Node6 -->
<g id="edge7_Node000001_Node000006" class="edge">
<title>Node1&#45;&gt;Node6</title>
<g id="a_edge7_Node000001_Node000006"><a xlink:title=" ">
<path fill="none" stroke="#63b8ff" d="M128.51,-161.27C142.67,-151.94 160.16,-140.43 172.23,-132.48"/>
<polygon fill="#63b8ff" stroke="#63b8ff" points="126.6,-158.34 120.17,-166.76 130.45,-164.18 126.6,-158.34"/>
</a>
</g>
</g>
<!-- Node3 -->
<g id="Node000003" class="node">
<title>Node3</title>
<g id="a_Node000003"><a xlink:href="GameTypes_8cpp.html" target="_top" xlink:title=" ">
<polygon fill="white" stroke="#666666" points="168.25,-20 81,-20 81,0 168.25,0 168.25,-20"/>
<text text-anchor="middle" x="124.62" y="-6.5" font-family="Helvetica,sans-Serif" font-size="10.00">GameTypes.cpp</text>
</a>
</g>
</g>
<!-- Node2&#45;&gt;Node3 -->
<g id="edge2_Node000002_Node000003" class="edge">
<title>Node2&#45;&gt;Node3</title>
<g id="a_edge2_Node000002_Node000003"><a xlink:title=" ">
<path fill="none" stroke="#63b8ff" d="M67.22,-49.27C81.21,-39.94 98.48,-28.43 110.41,-20.48"/>
<polygon fill="#63b8ff" stroke="#63b8ff" points="65.37,-46.3 58.99,-54.75 69.26,-52.12 65.37,-46.3"/>
</a>
</g>
</g>
<!-- Node4 -->
<g id="Node000004" class="node">
<title>Node4</title>
<g id="a_Node000004"><a xlink:href="Client_2src_2main_8cpp.html" target="_top" xlink:title=" ">
<polygon fill="white" stroke="#666666" points="62.5,-20 6.75,-20 6.75,0 62.5,0 62.5,-20"/>
<text text-anchor="middle" x="34.62" y="-6.5" font-family="Helvetica,sans-Serif" font-size="10.00">main.cpp</text>
</a>
</g>
</g>
<!-- Node2&#45;&gt;Node4 -->
<g id="edge3_Node000002_Node000004" class="edge">
<title>Node2&#45;&gt;Node4</title>
<g id="a_edge3_Node000002_Node000004"><a xlink:title=" ">
<path fill="none" stroke="#63b8ff" d="M40.2,-44.43C38.81,-36.11 37.28,-26.93 36.17,-20.3"/>
<polygon fill="#63b8ff" stroke="#63b8ff" points="36.71,-44.81 41.81,-54.1 43.62,-43.66 36.71,-44.81"/>
</a>
</g>
</g>
<!-- Node5&#45;&gt;Node2 -->
<g id="edge6_Node000005_Node000002" class="edge">
<title>Node5&#45;&gt;Node2</title>
<g id="a_edge6_Node000005_Node000002"><a xlink:title=" ">
<path fill="none" stroke="#63b8ff" d="M85.56,-104.13C75.19,-94.94 62.75,-83.93 54.13,-76.3"/>
<polygon fill="#63b8ff" stroke="#63b8ff" points="83.06,-106.58 92.87,-110.59 87.7,-101.34 83.06,-106.58"/>
</a>
</g>
</g>
<!-- Node5&#45;&gt;Node3 -->
<g id="edge5_Node000005_Node000003" class="edge">
<title>Node5&#45;&gt;Node3</title>
<g id="a_edge5_Node000005_Node000003"><a xlink:title=" ">
<path fill="none" stroke="#63b8ff" d="M108.39,-100.31C112.74,-76.36 119.72,-37.95 122.92,-20.35"/>
<polygon fill="#63b8ff" stroke="#63b8ff" points="104.95,-99.67 106.6,-110.13 111.83,-100.92 104.95,-99.67"/>
</a>
</g>
</g>
<!-- Node6&#45;&gt;Node3 -->
<g id="edge8_Node000006_Node000003" class="edge">
<title>Node6&#45;&gt;Node3</title>
<g id="a_edge8_Node000006_Node000003"><a xlink:title=" ">
<path fill="none" stroke="#63b8ff" d="M175.7,-101.62C162.27,-77.78 140,-38.28 129.9,-20.35"/>
<polygon fill="#63b8ff" stroke="#63b8ff" points="172.64,-103.31 180.6,-110.3 178.73,-99.87 172.64,-103.31"/>
</a>
</g>
</g>
<!-- Node7 -->
<g id="Node000007" class="node">
<title>Node7</title>
<g id="a_Node000007"><a xlink:href="SFML_8cpp.html" target="_top" xlink:title=" ">
<polygon fill="white" stroke="#666666" points="243.12,-76 182.12,-76 182.12,-56 243.12,-56 243.12,-76"/>
<text text-anchor="middle" x="212.62" y="-62.5" font-family="Helvetica,sans-Serif" font-size="10.00">SFML.cpp</text>
</a>
</g>
</g>
<!-- Node6&#45;&gt;Node7 -->
<g id="edge9_Node000006_Node000007" class="edge">
<title>Node6&#45;&gt;Node7</title>
<g id="a_edge9_Node000006_Node000007"><a xlink:title=" ">
<path fill="none" stroke="#63b8ff" d="M196.11,-101.29C200.23,-92.75 204.84,-83.16 208.15,-76.3"/>
<polygon fill="#63b8ff" stroke="#63b8ff" points="193,-99.7 191.81,-110.23 199.3,-102.74 193,-99.7"/>
</a>
</g>
</g>
</g>
</svg>
