<?xml version="1.0" encoding="UTF-8" standalone="no"?>
<!DOCTYPE svg PUBLIC "-//W3C//DTD SVG 1.1//EN"
 "http://www.w3.org/Graphics/SVG/1.1/DTD/svg11.dtd">
<!-- Generated by graphviz version 12.1.0 (20240811.2233)
 -->
<!-- Title: Renderer.hpp Pages: 1 -->
<svg width="316pt" height="196pt"
 viewBox="0.00 0.00 316.10 196.00" xmlns="http://www.w3.org/2000/svg" xmlns:xlink="http://www.w3.org/1999/xlink">
<g id="graph0" class="graph" transform="scale(1 1) rotate(0) translate(4 192)">
<title>Renderer.hpp</title>
<!-- Node1 -->
<g id="Node000001" class="node">
<title>Node1</title>
<g id="a_Node000001"><a xlink:title=" ">
<polygon fill="#999999" stroke="#666666" points="183.85,-188 109.35,-188 109.35,-168 183.85,-168 183.85,-188"/>
<text text-anchor="middle" x="146.6" y="-174.5" font-family="Helvetica,sans-Serif" font-size="10.00">Renderer.hpp</text>
</a>
</g>
</g>
<!-- Node2 -->
<g id="Node000002" class="node">
<title>Node2</title>
<g id="a_Node000002"><a xlink:href="DevConsole_8hpp.html" target="_top" xlink:title=" ">
<polygon fill="white" stroke="#666666" points="190.97,-132 102.22,-132 102.22,-112 190.97,-112 190.97,-132"/>
<text text-anchor="middle" x="146.6" y="-118.5" font-family="Helvetica,sans-Serif" font-size="10.00">DevConsole.hpp</text>
</a>
</g>
</g>
<!-- Node1&#45;&gt;Node2 -->
<g id="edge1_Node000001_Node000002" class="edge">
<title>Node1&#45;&gt;Node2</title>
<g id="a_edge1_Node000001_Node000002"><a xlink:title=" ">
<path fill="none" stroke="#63b8ff" d="M146.6,-156.13C146.6,-147.9 146.6,-138.85 146.6,-132.3"/>
<polygon fill="#63b8ff" stroke="#63b8ff" points="143.1,-156.08 146.6,-166.08 150.1,-156.08 143.1,-156.08"/>
</a>
</g>
</g>
<!-- Node3 -->
<g id="Node000003" class="node">
<title>Node3</title>
<g id="a_Node000003"><a xlink:href="GameTypes_8cpp.html" target="_top" xlink:title=" ">
<polygon fill="white" stroke="#666666" points="97.22,-20 9.97,-20 9.97,0 97.22,0 97.22,-20"/>
<text text-anchor="middle" x="53.6" y="-6.5" font-family="Helvetica,sans-Serif" font-size="10.00">GameTypes.cpp</text>
</a>
</g>
</g>
<!-- Node1&#45;&gt;Node3 -->
<g id="edge6_Node000001_Node000003" class="edge">
<title>Node1&#45;&gt;Node3</title>
<g id="a_edge6_Node000001_Node000003"><a xlink:title=" ">
<path fill="none" stroke="#63b8ff" d="M97.81,-174.96C66.81,-170.82 28.83,-159.88 8.6,-132 -17.86,-95.54 24.97,-41.74 44.6,-20.31"/>
<polygon fill="#63b8ff" stroke="#63b8ff" points="97.04,-178.39 107.37,-176.02 97.82,-171.43 97.04,-178.39"/>
</a>
</g>
</g>
<!-- Node4 -->
<g id="Node000004" class="node">
<title>Node4</title>
<g id="a_Node000004"><a xlink:href="GameTypes_8hpp.html" target="_top" xlink:title=" ">
<polygon fill="white" stroke="#666666" points="197.22,-76 109.97,-76 109.97,-56 197.22,-56 197.22,-76"/>
<text text-anchor="middle" x="153.6" y="-62.5" font-family="Helvetica,sans-Serif" font-size="10.00">GameTypes.hpp</text>
</a>
</g>
</g>
<!-- Node1&#45;&gt;Node4 -->
<g id="edge7_Node000001_Node000004" class="edge">
<title>Node1&#45;&gt;Node4</title>
<g id="a_edge7_Node000001_Node000004"><a xlink:title=" ">
<path fill="none" stroke="#63b8ff" d="M173.67,-161.21C183.77,-153.76 194.11,-143.87 199.6,-132 209.59,-110.42 185.39,-88.5 168.43,-76.43"/>
<polygon fill="#63b8ff" stroke="#63b8ff" points="171.8,-158.24 165.48,-166.75 175.72,-164.04 171.8,-158.24"/>
</a>
</g>
</g>
<!-- Node6 -->
<g id="Node000006" class="node">
<title>Node6</title>
<g id="a_Node000006"><a xlink:href="Render_8hpp.html" target="_top" xlink:title=" ">
<polygon fill="white" stroke="#666666" points="83.72,-132 17.47,-132 17.47,-112 83.72,-112 83.72,-132"/>
<text text-anchor="middle" x="50.6" y="-118.5" font-family="Helvetica,sans-Serif" font-size="10.00">Render.hpp</text>
</a>
</g>
</g>
<!-- Node1&#45;&gt;Node6 -->
<g id="edge8_Node000001_Node000006" class="edge">
<title>Node1&#45;&gt;Node6</title>
<g id="a_edge8_Node000001_Node000006"><a xlink:title=" ">
<path fill="none" stroke="#63b8ff" d="M120.07,-162.08C103.25,-152.62 81.99,-140.66 67.45,-132.48"/>
<polygon fill="#63b8ff" stroke="#63b8ff" points="118.13,-165 128.56,-166.85 121.56,-158.9 118.13,-165"/>
</a>
</g>
</g>
<!-- Node7 -->
<g id="Node000007" class="node">
<title>Node7</title>
<g id="a_Node000007"><a xlink:href="Renderers_2SFML_2SFML_8hpp.html" target="_top" xlink:title=" ">
<polygon fill="white" stroke="#666666" points="308.1,-132 247.1,-132 247.1,-112 308.1,-112 308.1,-132"/>
<text text-anchor="middle" x="277.6" y="-118.5" font-family="Helvetica,sans-Serif" font-size="10.00">SFML.hpp</text>
</a>
</g>
</g>
<!-- Node1&#45;&gt;Node7 -->
<g id="edge11_Node000001_Node000007" class="edge">
<title>Node1&#45;&gt;Node7</title>
<g id="a_edge11_Node000001_Node000007"><a xlink:title=" ">
<path fill="none" stroke="#63b8ff" d="M179.9,-163.27C203.27,-153.64 233.91,-141.01 254.6,-132.48"/>
<polygon fill="#63b8ff" stroke="#63b8ff" points="178.73,-159.97 170.82,-167.02 181.4,-166.44 178.73,-159.97"/>
</a>
</g>
</g>
<!-- Node2&#45;&gt;Node3 -->
<g id="edge2_Node000002_Node000003" class="edge">
<title>Node2&#45;&gt;Node3</title>
<g id="a_edge2_Node000002_Node000003"><a xlink:title=" ">
<path fill="none" stroke="#63b8ff" d="M127.91,-104.11C119.26,-95.94 109.04,-85.8 100.6,-76 84.42,-57.22 68.02,-33.13 59.52,-20.2"/>
<polygon fill="#63b8ff" stroke="#63b8ff" points="125.41,-106.56 135.12,-110.78 130.16,-101.42 125.41,-106.56"/>
</a>
</g>
</g>
<!-- Node2&#45;&gt;Node4 -->
<g id="edge3_Node000002_Node000004" class="edge">
<title>Node2&#45;&gt;Node4</title>
<g id="a_edge3_Node000002_Node000004"><a xlink:title=" ">
<path fill="none" stroke="#63b8ff" d="M149.27,-100.43C150.34,-92.11 151.53,-82.93 152.39,-76.3"/>
<polygon fill="#63b8ff" stroke="#63b8ff" points="145.83,-99.73 148.01,-110.09 152.77,-100.63 145.83,-99.73"/>
</a>
</g>
</g>
<!-- Node4&#45;&gt;Node3 -->
<g id="edge4_Node000004_Node000003" class="edge">
<title>Node4&#45;&gt;Node3</title>
<g id="a_edge4_Node000004_Node000003"><a xlink:title=" ">
<path fill="none" stroke="#63b8ff" d="M126.46,-50.35C108.86,-40.84 86.45,-28.74 71.15,-20.48"/>
<polygon fill="#63b8ff" stroke="#63b8ff" points="124.39,-53.2 134.85,-54.87 127.71,-47.04 124.39,-53.2"/>
</a>
</g>
</g>
<!-- Node5 -->
<g id="Node000005" class="node">
<title>Node5</title>
<g id="a_Node000005"><a xlink:href="Client_2src_2main_8cpp.html" target="_top" xlink:title=" ">
<polygon fill="white" stroke="#666666" points="181.47,-20 125.72,-20 125.72,0 181.47,0 181.47,-20"/>
<text text-anchor="middle" x="153.6" y="-6.5" font-family="Helvetica,sans-Serif" font-size="10.00">main.cpp</text>
</a>
</g>
</g>
<!-- Node4&#45;&gt;Node5 -->
<g id="edge5_Node000004_Node000005" class="edge">
<title>Node4&#45;&gt;Node5</title>
<g id="a_edge5_Node000004_Node000005"><a xlink:title=" ">
<path fill="none" stroke="#63b8ff" d="M153.6,-44.13C153.6,-35.9 153.6,-26.85 153.6,-20.3"/>
<polygon fill="#63b8ff" stroke="#63b8ff" points="150.1,-44.08 153.6,-54.08 157.1,-44.08 150.1,-44.08"/>
</a>
</g>
</g>
<!-- Node6&#45;&gt;Node3 -->
<g id="edge9_Node000006_Node000003" class="edge">
<title>Node6&#45;&gt;Node3</title>
<g id="a_edge9_Node000006_Node000003"><a xlink:title=" ">
<path fill="none" stroke="#63b8ff" d="M51.16,-100.31C51.82,-76.36 52.86,-37.95 53.34,-20.35"/>
<polygon fill="#63b8ff" stroke="#63b8ff" points="47.67,-100.02 50.9,-110.11 54.67,-100.21 47.67,-100.02"/>
</a>
</g>
</g>
<!-- Node6&#45;&gt;Node4 -->
<g id="edge10_Node000006_Node000004" class="edge">
<title>Node6&#45;&gt;Node4</title>
<g id="a_edge10_Node000006_Node000004"><a xlink:title=" ">
<path fill="none" stroke="#63b8ff" d="M78.55,-106.35C96.68,-96.84 119.77,-84.74 135.52,-76.48"/>
<polygon fill="#63b8ff" stroke="#63b8ff" points="77.11,-103.15 69.88,-110.89 80.36,-109.35 77.11,-103.15"/>
</a>
</g>
</g>
<!-- Node8 -->
<g id="Node000008" class="node">
<title>Node8</title>
<g id="a_Node000008"><a xlink:href="Renderers_2SFML_2SFML_8cpp.html" target="_top" xlink:title=" ">
<polygon fill="white" stroke="#666666" points="308.1,-76 247.1,-76 247.1,-56 308.1,-56 308.1,-76"/>
<text text-anchor="middle" x="277.6" y="-62.5" font-family="Helvetica,sans-Serif" font-size="10.00">SFML.cpp</text>
</a>
</g>
</g>
<!-- Node7&#45;&gt;Node8 -->
<g id="edge12_Node000007_Node000008" class="edge">
<title>Node7&#45;&gt;Node8</title>
<g id="a_edge12_Node000007_Node000008"><a xlink:title=" ">
<path fill="none" stroke="#63b8ff" d="M277.6,-100.13C277.6,-91.9 277.6,-82.85 277.6,-76.3"/>
<polygon fill="#63b8ff" stroke="#63b8ff" points="274.1,-100.08 277.6,-110.08 281.1,-100.08 274.1,-100.08"/>
</a>
</g>
</g>
</g>
</svg>
