<?xml version="1.0" encoding="UTF-8" standalone="no"?>
<!DOCTYPE svg PUBLIC "-//W3C//DTD SVG 1.1//EN"
 "http://www.w3.org/Graphics/SVG/1.1/DTD/svg11.dtd">
<!-- Generated by graphviz version 12.1.0 (20240811.2233)
 -->
<!-- Title: Renderer.hpp Pages: 1 -->
<svg width="1127pt" height="420pt"
 viewBox="0.00 0.00 1126.88 420.00" xmlns="http://www.w3.org/2000/svg" xmlns:xlink="http://www.w3.org/1999/xlink">
<g id="graph0" class="graph" transform="scale(1 1) rotate(0) translate(4 416)">
<title>Renderer.hpp</title>
<!-- Node1 -->
<g id="Node000001" class="node">
<title>Node1</title>
<g id="a_Node000001"><a xlink:title=" ">
<polygon fill="#999999" stroke="#666666" points="782.12,-412 707.62,-412 707.62,-392 782.12,-392 782.12,-412"/>
<text text-anchor="middle" x="744.88" y="-398.5" font-family="Helvetica,sans-Serif" font-size="10.00">Renderer.hpp</text>
</a>
</g>
</g>
<!-- Node2 -->
<g id="Node000002" class="node">
<title>Node2</title>
<g id="a_Node000002"><a xlink:title=" ">
<polygon fill="#e0e0e0" stroke="#999999" points="764.5,-132 713.25,-132 713.25,-112 764.5,-112 764.5,-132"/>
<text text-anchor="middle" x="738.88" y="-118.5" font-family="Helvetica,sans-Serif" font-size="10.00">memory</text>
</a>
</g>
</g>
<!-- Node1&#45;&gt;Node2 -->
<g id="edge1_Node000001_Node000002" class="edge">
<title>Node1&#45;&gt;Node2</title>
<g id="a_edge1_Node000001_Node000002"><a xlink:title=" ">
<path fill="none" stroke="#63b8ff" d="M749.74,-391.58C758.47,-374.1 776.47,-335.21 782.88,-300 793.47,-241.76 765.12,-174.18 749.06,-141.97"/>
<polygon fill="#63b8ff" stroke="#63b8ff" points="752.37,-140.75 744.67,-133.47 746.15,-143.96 752.37,-140.75"/>
</a>
</g>
</g>
<!-- Node3 -->
<g id="Node000003" class="node">
<title>Node3</title>
<g id="a_Node000003"><a xlink:title=" ">
<polygon fill="#e0e0e0" stroke="#999999" points="1022.88,-132 982.88,-132 982.88,-112 1022.88,-112 1022.88,-132"/>
<text text-anchor="middle" x="1002.88" y="-118.5" font-family="Helvetica,sans-Serif" font-size="10.00">string</text>
</a>
</g>
</g>
<!-- Node1&#45;&gt;Node3 -->
<g id="edge2_Node000001_Node000003" class="edge">
<title>Node1&#45;&gt;Node3</title>
<g id="a_edge2_Node000001_Node000003"><a xlink:title=" ">
<path fill="none" stroke="#63b8ff" d="M782.45,-398C877.29,-389.39 1118.88,-360.63 1118.88,-291 1118.88,-291 1118.88,-291 1118.88,-233 1118.88,-185.84 1067.77,-152.82 1033.4,-135.95"/>
<polygon fill="#63b8ff" stroke="#63b8ff" points="1035.26,-132.96 1024.72,-131.88 1032.28,-139.29 1035.26,-132.96"/>
</a>
</g>
</g>
<!-- Node4 -->
<g id="Node000004" class="node">
<title>Node4</title>
<g id="a_Node000004"><a xlink:href="Event_8hpp.html" target="_top" xlink:title=" ">
<polygon fill="white" stroke="#666666" points="332,-132 271.75,-132 271.75,-112 332,-112 332,-132"/>
<text text-anchor="middle" x="301.88" y="-118.5" font-family="Helvetica,sans-Serif" font-size="10.00">Event.hpp</text>
</a>
</g>
</g>
<!-- Node1&#45;&gt;Node4 -->
<g id="edge3_Node000001_Node000004" class="edge">
<title>Node1&#45;&gt;Node4</title>
<g id="a_edge3_Node000001_Node000004"><a xlink:title=" ">
<path fill="none" stroke="#63b8ff" d="M707.19,-399.35C605.51,-393.94 330.3,-372.7 286.88,-300 257.03,-250.03 279.35,-177.53 293.13,-142.88"/>
<polygon fill="#63b8ff" stroke="#63b8ff" points="296.34,-144.28 296.97,-133.7 289.88,-141.58 296.34,-144.28"/>
</a>
</g>
</g>
<!-- Node8 -->
<g id="Node000008" class="node">
<title>Node8</title>
<g id="a_Node000008"><a xlink:href="NetworkManager_8hpp.html" target="_top" xlink:title=" ">
<polygon fill="white" stroke="#666666" points="508.38,-356 399.38,-356 399.38,-336 508.38,-336 508.38,-356"/>
<text text-anchor="middle" x="453.88" y="-342.5" font-family="Helvetica,sans-Serif" font-size="10.00">NetworkManager.hpp</text>
</a>
</g>
</g>
<!-- Node1&#45;&gt;Node8 -->
<g id="edge7_Node000001_Node000008" class="edge">
<title>Node1&#45;&gt;Node8</title>
<g id="a_edge7_Node000001_Node000008"><a xlink:title=" ">
<path fill="none" stroke="#63b8ff" d="M707.13,-394C658.76,-385.02 574.24,-369.34 516.25,-358.57"/>
<polygon fill="#63b8ff" stroke="#63b8ff" points="516.98,-355.15 506.51,-356.77 515.7,-362.03 516.98,-355.15"/>
</a>
</g>
</g>
<!-- Node5 -->
<g id="Node000005" class="node">
<title>Node5</title>
<g id="a_Node000005"><a xlink:title=" ">
<polygon fill="#e0e0e0" stroke="#999999" points="408.5,-20 363.25,-20 363.25,0 408.5,0 408.5,-20"/>
<text text-anchor="middle" x="385.88" y="-6.5" font-family="Helvetica,sans-Serif" font-size="10.00">cstdint</text>
</a>
</g>
</g>
<!-- Node4&#45;&gt;Node5 -->
<g id="edge4_Node000004_Node000005" class="edge">
<title>Node4&#45;&gt;Node5</title>
<g id="a_edge4_Node000004_Node000005"><a xlink:title=" ">
<path fill="none" stroke="#63b8ff" d="M322.28,-111.58C336.72,-103.92 355.47,-91.81 366.88,-76 376.35,-62.86 381.13,-45.03 383.53,-31.37"/>
<polygon fill="#63b8ff" stroke="#63b8ff" points="386.95,-32.14 384.9,-21.74 380.02,-31.15 386.95,-32.14"/>
</a>
</g>
</g>
<!-- Node6 -->
<g id="Node000006" class="node">
<title>Node6</title>
<g id="a_Node000006"><a xlink:title=" ">
<polygon fill="#e0e0e0" stroke="#999999" points="691.25,-76 608.5,-76 608.5,-56 691.25,-56 691.25,-76"/>
<text text-anchor="middle" x="649.88" y="-62.5" font-family="Helvetica,sans-Serif" font-size="10.00">unordered_map</text>
</a>
</g>
</g>
<!-- Node4&#45;&gt;Node6 -->
<g id="edge5_Node000004_Node000006" class="edge">
<title>Node4&#45;&gt;Node6</title>
<g id="a_edge5_Node000004_Node000006"><a xlink:title=" ">
<path fill="none" stroke="#63b8ff" d="M332.4,-113.86C335.59,-113.19 338.79,-112.56 341.88,-112 452.22,-91.92 483.6,-94.1 596.93,-76.41"/>
<polygon fill="#63b8ff" stroke="#63b8ff" points="597.33,-79.89 606.66,-74.87 596.24,-72.98 597.33,-79.89"/>
</a>
</g>
</g>
<!-- Node7 -->
<g id="Node000007" class="node">
<title>Node7</title>
<g id="a_Node000007"><a xlink:title=" ">
<polygon fill="#e0e0e0" stroke="#999999" points="357.75,-76 326,-76 326,-56 357.75,-56 357.75,-76"/>
<text text-anchor="middle" x="341.88" y="-62.5" font-family="Helvetica,sans-Serif" font-size="10.00">any</text>
</a>
</g>
</g>
<!-- Node4&#45;&gt;Node7 -->
<g id="edge6_Node000004_Node000007" class="edge">
<title>Node4&#45;&gt;Node7</title>
<g id="a_edge6_Node000004_Node000007"><a xlink:title=" ">
<path fill="none" stroke="#63b8ff" d="M308.84,-111.59C314.18,-104.39 321.7,-94.23 328.22,-85.43"/>
<polygon fill="#63b8ff" stroke="#63b8ff" points="330.95,-87.63 334.09,-77.51 325.32,-83.47 330.95,-87.63"/>
</a>
</g>
</g>
<!-- Node8&#45;&gt;Node5 -->
<g id="edge8_Node000008_Node000005" class="edge">
<title>Node8&#45;&gt;Node5</title>
<g id="a_edge8_Node000008_Node000005"><a xlink:title=" ">
<path fill="none" stroke="#63b8ff" d="M508.72,-345.36C674.18,-344.16 1150.79,-322.68 1046.88,-112 1028.79,-75.33 1012.07,-70.61 973.88,-56 871.68,-16.91 530.25,-11.72 420.3,-11.08"/>
<polygon fill="#63b8ff" stroke="#63b8ff" points="420.47,-7.58 410.45,-11.03 420.44,-14.58 420.47,-7.58"/>
</a>
</g>
</g>
<!-- Node9 -->
<g id="Node000009" class="node">
<title>Node9</title>
<g id="a_Node000009"><a xlink:title=" ">
<polygon fill="#e0e0e0" stroke="#999999" points="375.75,-300 296,-300 296,-280 375.75,-280 375.75,-300"/>
<text text-anchor="middle" x="335.88" y="-286.5" font-family="Helvetica,sans-Serif" font-size="10.00">boost/asio.hpp</text>
</a>
</g>
</g>
<!-- Node8&#45;&gt;Node9 -->
<g id="edge9_Node000008_Node000009" class="edge">
<title>Node8&#45;&gt;Node9</title>
<g id="a_edge9_Node000008_Node000009"><a xlink:title=" ">
<path fill="none" stroke="#63b8ff" d="M433.32,-335.59C414.99,-327.21 387.89,-314.8 366.92,-305.21"/>
<polygon fill="#63b8ff" stroke="#63b8ff" points="368.52,-302.09 357.97,-301.11 365.6,-308.45 368.52,-302.09"/>
</a>
</g>
</g>
<!-- Node10 -->
<g id="Node000010" class="node">
<title>Node10</title>
<g id="a_Node000010"><a xlink:title=" ">
<polygon fill="#e0e0e0" stroke="#999999" points="37.75,-132 0,-132 0,-112 37.75,-112 37.75,-132"/>
<text text-anchor="middle" x="18.88" y="-118.5" font-family="Helvetica,sans-Serif" font-size="10.00">array</text>
</a>
</g>
</g>
<!-- Node8&#45;&gt;Node10 -->
<g id="edge10_Node000008_Node000010" class="edge">
<title>Node8&#45;&gt;Node10</title>
<g id="a_edge10_Node000008_Node000010"><a xlink:title=" ">
<path fill="none" stroke="#63b8ff" d="M399.13,-338.96C352.93,-332.7 285.61,-320.83 229.88,-300 135.53,-264.75 92.45,-269.2 32.88,-188 23.46,-175.17 20.13,-157.32 19.05,-143.57"/>
<polygon fill="#63b8ff" stroke="#63b8ff" points="22.56,-143.72 18.66,-133.87 15.57,-144 22.56,-143.72"/>
</a>
</g>
</g>
<!-- Node11 -->
<g id="Node000011" class="node">
<title>Node11</title>
<g id="a_Node000011"><a xlink:title=" ">
<polygon fill="#e0e0e0" stroke="#999999" points="475.38,-300 432.38,-300 432.38,-280 475.38,-280 475.38,-300"/>
<text text-anchor="middle" x="453.88" y="-286.5" font-family="Helvetica,sans-Serif" font-size="10.00">thread</text>
</a>
</g>
</g>
<!-- Node8&#45;&gt;Node11 -->
<g id="edge11_Node000008_Node000011" class="edge">
<title>Node8&#45;&gt;Node11</title>
<g id="a_edge11_Node000008_Node000011"><a xlink:title=" ">
<path fill="none" stroke="#63b8ff" d="M453.88,-335.59C453.88,-329.01 453.88,-319.96 453.88,-311.73"/>
<polygon fill="#63b8ff" stroke="#63b8ff" points="457.38,-311.81 453.88,-301.81 450.38,-311.81 457.38,-311.81"/>
</a>
</g>
</g>
<!-- Node12 -->
<g id="Node000012" class="node">
<title>Node12</title>
<g id="a_Node000012"><a xlink:href="Entity_8hpp.html" target="_top" xlink:title=" ">
<polygon fill="white" stroke="#666666" points="235.62,-76 176.12,-76 176.12,-56 235.62,-56 235.62,-76"/>
<text text-anchor="middle" x="205.88" y="-62.5" font-family="Helvetica,sans-Serif" font-size="10.00">Entity.hpp</text>
</a>
</g>
</g>
<!-- Node8&#45;&gt;Node12 -->
<g id="edge12_Node000008_Node000012" class="edge">
<title>Node8&#45;&gt;Node12</title>
<g id="a_edge12_Node000008_Node000012"><a xlink:title=" ">
<path fill="none" stroke="#63b8ff" d="M399.09,-342.6C363.27,-338.31 317.6,-327.35 286.88,-300 222.97,-243.13 209.48,-133.15 206.63,-87.57"/>
<polygon fill="#63b8ff" stroke="#63b8ff" points="210.14,-87.61 206.15,-77.8 203.15,-87.96 210.14,-87.61"/>
</a>
</g>
</g>
<!-- Node14 -->
<g id="Node000014" class="node">
<title>Node14</title>
<g id="a_Node000014"><a xlink:href="Mediator_8hpp.html" target="_top" xlink:title=" ">
<polygon fill="white" stroke="#666666" points="469,-244 396.75,-244 396.75,-224 469,-224 469,-244"/>
<text text-anchor="middle" x="432.88" y="-230.5" font-family="Helvetica,sans-Serif" font-size="10.00">Mediator.hpp</text>
</a>
</g>
</g>
<!-- Node8&#45;&gt;Node14 -->
<g id="edge15_Node000008_Node000014" class="edge">
<title>Node8&#45;&gt;Node14</title>
<g id="a_edge15_Node000008_Node000014"><a xlink:title=" ">
<path fill="none" stroke="#63b8ff" d="M445.09,-335.52C437.81,-326.96 428.01,-313.66 423.88,-300 419.43,-285.31 422.15,-268.07 425.74,-255.04"/>
<polygon fill="#63b8ff" stroke="#63b8ff" points="428.95,-256.49 428.63,-245.9 422.28,-254.38 428.95,-256.49"/>
</a>
</g>
</g>
<!-- Node29 -->
<g id="Node000029" class="node">
<title>Node29</title>
<g id="a_Node000029"><a xlink:href="ComponentRegistry_8hpp.html" target="_top" xlink:title=" ">
<polygon fill="white" stroke="#666666" points="773.38,-300 652.38,-300 652.38,-280 773.38,-280 773.38,-300"/>
<text text-anchor="middle" x="712.88" y="-286.5" font-family="Helvetica,sans-Serif" font-size="10.00">ComponentRegistry.hpp</text>
</a>
</g>
</g>
<!-- Node8&#45;&gt;Node29 -->
<g id="edge47_Node000008_Node000029" class="edge">
<title>Node8&#45;&gt;Node29</title>
<g id="a_edge47_Node000008_Node000029"><a xlink:title=" ">
<path fill="none" stroke="#63b8ff" d="M499.29,-335.53C542.98,-326.42 609.17,-312.62 656.28,-302.8"/>
<polygon fill="#63b8ff" stroke="#63b8ff" points="656.96,-306.23 666.03,-300.77 655.53,-299.38 656.96,-306.23"/>
</a>
</g>
</g>
<!-- Node30 -->
<g id="Node000030" class="node">
<title>Node30</title>
<g id="a_Node000030"><a xlink:href="EnemyInfo_8hpp.html" target="_top" xlink:title=" ">
<polygon fill="white" stroke="#666666" points="634.12,-300 493.62,-300 493.62,-280 634.12,-280 634.12,-300"/>
<text text-anchor="middle" x="563.88" y="-286.5" font-family="Helvetica,sans-Serif" font-size="10.00">Components/EnemyInfo.hpp</text>
</a>
</g>
</g>
<!-- Node8&#45;&gt;Node30 -->
<g id="edge54_Node000008_Node000030" class="edge">
<title>Node8&#45;&gt;Node30</title>
<g id="a_edge54_Node000008_Node000030"><a xlink:title=" ">
<path fill="none" stroke="#63b8ff" d="M473.04,-335.59C489.97,-327.28 514.92,-315.03 534.4,-305.47"/>
<polygon fill="#63b8ff" stroke="#63b8ff" points="535.77,-308.7 543.21,-301.15 532.69,-302.41 535.77,-308.7"/>
</a>
</g>
</g>
<!-- Node12&#45;&gt;Node5 -->
<g id="edge13_Node000012_Node000005" class="edge">
<title>Node12&#45;&gt;Node5</title>
<g id="a_edge13_Node000012_Node000005"><a xlink:title=" ">
<path fill="none" stroke="#63b8ff" d="M236,-55.96C268.1,-46.33 318.8,-31.12 352.2,-21.1"/>
<polygon fill="#63b8ff" stroke="#63b8ff" points="352.79,-24.58 361.36,-18.35 350.77,-17.88 352.79,-24.58"/>
</a>
</g>
</g>
<!-- Node13 -->
<g id="Node000013" class="node">
<title>Node13</title>
<g id="a_Node000013"><a xlink:title=" ">
<polygon fill="#e0e0e0" stroke="#999999" points="225.88,-20 185.88,-20 185.88,0 225.88,0 225.88,-20"/>
<text text-anchor="middle" x="205.88" y="-6.5" font-family="Helvetica,sans-Serif" font-size="10.00">bitset</text>
</a>
</g>
</g>
<!-- Node12&#45;&gt;Node13 -->
<g id="edge14_Node000012_Node000013" class="edge">
<title>Node12&#45;&gt;Node13</title>
<g id="a_edge14_Node000012_Node000013"><a xlink:title=" ">
<path fill="none" stroke="#63b8ff" d="M205.88,-55.59C205.88,-49.01 205.88,-39.96 205.88,-31.73"/>
<polygon fill="#63b8ff" stroke="#63b8ff" points="209.38,-31.81 205.88,-21.81 202.38,-31.81 209.38,-31.81"/>
</a>
</g>
</g>
<!-- Node14&#45;&gt;Node2 -->
<g id="edge17_Node000014_Node000002" class="edge">
<title>Node14&#45;&gt;Node2</title>
<g id="a_edge17_Node000014_Node000002"><a xlink:title=" ">
<path fill="none" stroke="#63b8ff" d="M469.22,-230.83C514.72,-226.97 594.18,-216.43 655.88,-188 681.44,-176.22 706.25,-155.13 721.98,-140.17"/>
<polygon fill="#63b8ff" stroke="#63b8ff" points="724.35,-142.75 729.05,-133.25 719.46,-137.74 724.35,-142.75"/>
</a>
</g>
</g>
<!-- Node15 -->
<g id="Node000015" class="node">
<title>Node15</title>
<g id="a_Node000015"><a xlink:title=" ">
<polygon fill="#e0e0e0" stroke="#999999" points="307.62,-76 254.12,-76 254.12,-56 307.62,-56 307.62,-76"/>
<text text-anchor="middle" x="280.88" y="-62.5" font-family="Helvetica,sans-Serif" font-size="10.00">iostream</text>
</a>
</g>
</g>
<!-- Node14&#45;&gt;Node15 -->
<g id="edge16_Node000014_Node000015" class="edge">
<title>Node14&#45;&gt;Node15</title>
<g id="a_edge16_Node000014_Node000015"><a xlink:title=" ">
<path fill="none" stroke="#63b8ff" d="M396.27,-227.09C367.96,-221.06 328.98,-209.44 300.88,-188 276.96,-169.76 271.71,-160.75 262.88,-132 258.19,-116.76 263.58,-99.35 269.65,-86.39"/>
<polygon fill="#63b8ff" stroke="#63b8ff" points="272.69,-88.13 274.23,-77.65 266.49,-84.88 272.69,-88.13"/>
</a>
</g>
</g>
<!-- Node16 -->
<g id="Node000016" class="node">
<title>Node16</title>
<g id="a_Node000016"><a xlink:title=" ">
<polygon fill="#e0e0e0" stroke="#999999" points="468.38,-188 425.38,-188 425.38,-168 468.38,-168 468.38,-188"/>
<text text-anchor="middle" x="446.88" y="-174.5" font-family="Helvetica,sans-Serif" font-size="10.00">vector</text>
</a>
</g>
</g>
<!-- Node14&#45;&gt;Node16 -->
<g id="edge18_Node000014_Node000016" class="edge">
<title>Node14&#45;&gt;Node16</title>
<g id="a_edge18_Node000014_Node000016"><a xlink:title=" ">
<path fill="none" stroke="#63b8ff" d="M435.31,-223.59C437.04,-216.93 439.42,-207.75 441.58,-199.44"/>
<polygon fill="#63b8ff" stroke="#63b8ff" points="444.96,-200.32 444.08,-189.76 438.19,-198.56 444.96,-200.32"/>
</a>
</g>
</g>
<!-- Node17 -->
<g id="Node000017" class="node">
<title>Node17</title>
<g id="a_Node000017"><a xlink:href="EntityManager_8hpp.html" target="_top" xlink:title=" ">
<polygon fill="white" stroke="#666666" points="139.75,-188 42,-188 42,-168 139.75,-168 139.75,-188"/>
<text text-anchor="middle" x="90.88" y="-174.5" font-family="Helvetica,sans-Serif" font-size="10.00">EntityManager.hpp</text>
</a>
</g>
</g>
<!-- Node14&#45;&gt;Node17 -->
<g id="edge19_Node000014_Node000017" class="edge">
<title>Node14&#45;&gt;Node17</title>
<g id="a_edge19_Node000014_Node000017"><a xlink:title=" ">
<path fill="none" stroke="#63b8ff" d="M396.28,-227.22C337.64,-217.96 222.04,-199.71 151.1,-188.51"/>
<polygon fill="#63b8ff" stroke="#63b8ff" points="152.03,-185.11 141.6,-187.01 150.94,-192.03 152.03,-185.11"/>
</a>
</g>
</g>
<!-- Node19 -->
<g id="Node000019" class="node">
<title>Node19</title>
<g id="a_Node000019"><a xlink:href="ComponentManager_8hpp.html" target="_top" xlink:title=" ">
<polygon fill="white" stroke="#666666" points="647.12,-188 524.62,-188 524.62,-168 647.12,-168 647.12,-188"/>
<text text-anchor="middle" x="585.88" y="-174.5" font-family="Helvetica,sans-Serif" font-size="10.00">ComponentManager.hpp</text>
</a>
</g>
</g>
<!-- Node14&#45;&gt;Node19 -->
<g id="edge23_Node000014_Node000019" class="edge">
<title>Node14&#45;&gt;Node19</title>
<g id="a_edge23_Node000014_Node000019"><a xlink:title=" ">
<path fill="none" stroke="#63b8ff" d="M459.53,-223.59C484.06,-214.94 520.7,-202 548.22,-192.29"/>
<polygon fill="#63b8ff" stroke="#63b8ff" points="549.32,-195.61 557.59,-188.98 546.99,-189.01 549.32,-195.61"/>
</a>
</g>
</g>
<!-- Node23 -->
<g id="Node000023" class="node">
<title>Node23</title>
<g id="a_Node000023"><a xlink:href="SystemManager_8hpp.html" target="_top" xlink:title=" ">
<polygon fill="white" stroke="#666666" points="938.88,-188 832.88,-188 832.88,-168 938.88,-168 938.88,-188"/>
<text text-anchor="middle" x="885.88" y="-174.5" font-family="Helvetica,sans-Serif" font-size="10.00">SystemManager.hpp</text>
</a>
</g>
</g>
<!-- Node14&#45;&gt;Node23 -->
<g id="edge35_Node000014_Node000023" class="edge">
<title>Node14&#45;&gt;Node23</title>
<g id="a_edge35_Node000014_Node000023"><a xlink:title=" ">
<path fill="none" stroke="#63b8ff" d="M469.18,-228.67C545.74,-219.55 724.64,-198.22 821.25,-186.7"/>
<polygon fill="#63b8ff" stroke="#63b8ff" points="821.59,-190.19 831.1,-185.53 820.76,-183.24 821.59,-190.19"/>
</a>
</g>
</g>
<!-- Node26 -->
<g id="Node000026" class="node">
<title>Node26</title>
<g id="a_Node000026"><a xlink:href="EventManager_8hpp.html" target="_top" xlink:title=" ">
<polygon fill="white" stroke="#666666" points="407.75,-188 310,-188 310,-168 407.75,-168 407.75,-188"/>
<text text-anchor="middle" x="358.88" y="-174.5" font-family="Helvetica,sans-Serif" font-size="10.00">EventManager.hpp</text>
</a>
</g>
</g>
<!-- Node14&#45;&gt;Node26 -->
<g id="edge43_Node000014_Node000026" class="edge">
<title>Node14&#45;&gt;Node26</title>
<g id="a_edge43_Node000014_Node000026"><a xlink:title=" ">
<path fill="none" stroke="#63b8ff" d="M419.99,-223.59C409.16,-215.7 393.46,-204.24 380.69,-194.92"/>
<polygon fill="#63b8ff" stroke="#63b8ff" points="382.98,-192.26 372.84,-189.19 378.85,-197.91 382.98,-192.26"/>
</a>
</g>
</g>
<!-- Node17&#45;&gt;Node10 -->
<g id="edge21_Node000017_Node000010" class="edge">
<title>Node17&#45;&gt;Node10</title>
<g id="a_edge21_Node000017_Node000010"><a xlink:title=" ">
<path fill="none" stroke="#63b8ff" d="M78.33,-167.59C67.91,-159.77 52.83,-148.46 40.46,-139.19"/>
<polygon fill="#63b8ff" stroke="#63b8ff" points="42.58,-136.41 32.48,-133.21 38.38,-142.01 42.58,-136.41"/>
</a>
</g>
</g>
<!-- Node17&#45;&gt;Node12 -->
<g id="edge22_Node000017_Node000012" class="edge">
<title>Node17&#45;&gt;Node12</title>
<g id="a_edge22_Node000017_Node000012"><a xlink:title=" ">
<path fill="none" stroke="#63b8ff" d="M87.41,-167.64C83.03,-154.08 77.37,-128.75 88.88,-112 105.78,-87.39 138.17,-76.23 164.59,-71.18"/>
<polygon fill="#63b8ff" stroke="#63b8ff" points="165.07,-74.65 174.37,-69.56 163.93,-67.74 165.07,-74.65"/>
</a>
</g>
</g>
<!-- Node18 -->
<g id="Node000018" class="node">
<title>Node18</title>
<g id="a_Node000018"><a xlink:title=" ">
<polygon fill="#e0e0e0" stroke="#999999" points="140,-132 97.75,-132 97.75,-112 140,-112 140,-132"/>
<text text-anchor="middle" x="118.88" y="-118.5" font-family="Helvetica,sans-Serif" font-size="10.00">queue</text>
</a>
</g>
</g>
<!-- Node17&#45;&gt;Node18 -->
<g id="edge20_Node000017_Node000018" class="edge">
<title>Node17&#45;&gt;Node18</title>
<g id="a_edge20_Node000017_Node000018"><a xlink:title=" ">
<path fill="none" stroke="#63b8ff" d="M95.75,-167.59C99.37,-160.63 104.42,-150.89 108.87,-142.29"/>
<polygon fill="#63b8ff" stroke="#63b8ff" points="111.86,-144.13 113.36,-133.64 105.65,-140.91 111.86,-144.13"/>
</a>
</g>
</g>
<!-- Node19&#45;&gt;Node2 -->
<g id="edge26_Node000019_Node000002" class="edge">
<title>Node19&#45;&gt;Node2</title>
<g id="a_edge26_Node000019_Node000002"><a xlink:title=" ">
<path fill="none" stroke="#63b8ff" d="M612.53,-167.59C637.28,-158.86 674.38,-145.76 701.98,-136.02"/>
<polygon fill="#63b8ff" stroke="#63b8ff" points="703.09,-139.34 711.36,-132.71 700.76,-132.74 703.09,-139.34"/>
</a>
</g>
</g>
<!-- Node19&#45;&gt;Node3 -->
<g id="edge25_Node000019_Node000003" class="edge">
<title>Node19&#45;&gt;Node3</title>
<g id="a_edge25_Node000019_Node000003"><a xlink:title=" ">
<path fill="none" stroke="#63b8ff" d="M647.4,-169.03C737.6,-157.35 902.44,-136.01 971.32,-127.09"/>
<polygon fill="#63b8ff" stroke="#63b8ff" points="971.68,-130.57 981.15,-125.81 970.78,-123.63 971.68,-130.57"/>
</a>
</g>
</g>
<!-- Node19&#45;&gt;Node6 -->
<g id="edge24_Node000019_Node000006" class="edge">
<title>Node19&#45;&gt;Node6</title>
<g id="a_edge24_Node000019_Node000006"><a xlink:title=" ">
<path fill="none" stroke="#63b8ff" d="M596.91,-167.66C606.3,-159.19 619.54,-145.94 627.88,-132 636.2,-118.06 641.9,-100.54 645.41,-87.21"/>
<polygon fill="#63b8ff" stroke="#63b8ff" points="648.73,-88.37 647.67,-77.83 641.92,-86.73 648.73,-88.37"/>
</a>
</g>
</g>
<!-- Node19&#45;&gt;Node12 -->
<g id="edge28_Node000019_Node000012" class="edge">
<title>Node19&#45;&gt;Node12</title>
<g id="a_edge28_Node000019_Node000012"><a xlink:title=" ">
<path fill="none" stroke="#63b8ff" d="M568.37,-167.63C534.96,-149.75 465.26,-112.47 463.88,-112 373.81,-81.53 343.81,-94.1 247.22,-76.3"/>
<polygon fill="#63b8ff" stroke="#63b8ff" points="248.03,-72.89 237.55,-74.45 246.72,-79.77 248.03,-72.89"/>
</a>
</g>
</g>
<!-- Node20 -->
<g id="Node000020" class="node">
<title>Node20</title>
<g id="a_Node000020"><a xlink:title=" ">
<polygon fill="#e0e0e0" stroke="#999999" points="965.25,-76 906.5,-76 906.5,-56 965.25,-56 965.25,-76"/>
<text text-anchor="middle" x="935.88" y="-62.5" font-family="Helvetica,sans-Serif" font-size="10.00">stdexcept</text>
</a>
</g>
</g>
<!-- Node19&#45;&gt;Node20 -->
<g id="edge27_Node000019_Node000020" class="edge">
<title>Node19&#45;&gt;Node20</title>
<g id="a_edge27_Node000019_Node000020"><a xlink:title=" ">
<path fill="none" stroke="#63b8ff" d="M647.42,-176.28C704.85,-173.48 791.68,-163.7 859.88,-132 883.86,-120.85 906.22,-99.94 920.39,-84.85"/>
<polygon fill="#63b8ff" stroke="#63b8ff" points="922.96,-87.22 927.08,-77.46 917.77,-82.52 922.96,-87.22"/>
</a>
</g>
</g>
<!-- Node21 -->
<g id="Node000021" class="node">
<title>Node21</title>
<g id="a_Node000021"><a xlink:href="ComponentArray_8hpp.html" target="_top" xlink:title=" ">
<polygon fill="white" stroke="#666666" points="618.62,-132 511.12,-132 511.12,-112 618.62,-112 618.62,-132"/>
<text text-anchor="middle" x="564.88" y="-118.5" font-family="Helvetica,sans-Serif" font-size="10.00">ComponentArray.hpp</text>
</a>
</g>
</g>
<!-- Node19&#45;&gt;Node21 -->
<g id="edge29_Node000019_Node000021" class="edge">
<title>Node19&#45;&gt;Node21</title>
<g id="a_edge29_Node000019_Node000021"><a xlink:title=" ">
<path fill="none" stroke="#63b8ff" d="M582.22,-167.59C579.57,-160.78 575.89,-151.32 572.6,-142.86"/>
<polygon fill="#63b8ff" stroke="#63b8ff" points="575.93,-141.76 569.04,-133.71 569.4,-144.3 575.93,-141.76"/>
</a>
</g>
</g>
<!-- Node21&#45;&gt;Node6 -->
<g id="edge31_Node000021_Node000006" class="edge">
<title>Node21&#45;&gt;Node6</title>
<g id="a_edge31_Node000021_Node000006"><a xlink:title=" ">
<path fill="none" stroke="#63b8ff" d="M579.68,-111.59C592.28,-103.59 610.63,-91.93 625.41,-82.54"/>
<polygon fill="#63b8ff" stroke="#63b8ff" points="627.11,-85.61 633.68,-77.29 623.36,-79.7 627.11,-85.61"/>
</a>
</g>
</g>
<!-- Node21&#45;&gt;Node12 -->
<g id="edge34_Node000021_Node000012" class="edge">
<title>Node21&#45;&gt;Node12</title>
<g id="a_edge34_Node000021_Node000012"><a xlink:title=" ">
<path fill="none" stroke="#63b8ff" d="M510.91,-113.67C433.65,-103.15 296.14,-84.27 247.18,-76.18"/>
<polygon fill="#63b8ff" stroke="#63b8ff" points="248,-72.77 237.55,-74.5 246.8,-79.66 248,-72.77"/>
</a>
</g>
</g>
<!-- Node21&#45;&gt;Node15 -->
<g id="edge33_Node000021_Node000015" class="edge">
<title>Node21&#45;&gt;Node15</title>
<g id="a_edge33_Node000021_Node000015"><a xlink:title=" ">
<path fill="none" stroke="#63b8ff" d="M510.98,-112.27C463.06,-104.27 390.87,-91.64 319.02,-76.35"/>
<polygon fill="#63b8ff" stroke="#63b8ff" points="319.95,-72.97 309.44,-74.29 318.48,-79.81 319.95,-72.97"/>
</a>
</g>
</g>
<!-- Node21&#45;&gt;Node20 -->
<g id="edge32_Node000021_Node000020" class="edge">
<title>Node21&#45;&gt;Node20</title>
<g id="a_edge32_Node000021_Node000020"><a xlink:title=" ">
<path fill="none" stroke="#63b8ff" d="M618.82,-113.15C693.71,-102.25 827.53,-82.77 894.83,-72.97"/>
<polygon fill="#63b8ff" stroke="#63b8ff" points="895.32,-76.44 904.71,-71.54 894.31,-69.51 895.32,-76.44"/>
</a>
</g>
</g>
<!-- Node22 -->
<g id="Node000022" class="node">
<title>Node22</title>
<g id="a_Node000022"><a xlink:title=" ">
<polygon fill="#e0e0e0" stroke="#999999" points="590.88,-76 532.88,-76 532.88,-56 590.88,-56 590.88,-76"/>
<text text-anchor="middle" x="561.88" y="-62.5" font-family="Helvetica,sans-Serif" font-size="10.00">exception</text>
</a>
</g>
</g>
<!-- Node21&#45;&gt;Node22 -->
<g id="edge30_Node000021_Node000022" class="edge">
<title>Node21&#45;&gt;Node22</title>
<g id="a_edge30_Node000021_Node000022"><a xlink:title=" ">
<path fill="none" stroke="#63b8ff" d="M564.35,-111.59C563.99,-105.01 563.48,-95.96 563.03,-87.73"/>
<polygon fill="#63b8ff" stroke="#63b8ff" points="566.52,-87.6 562.48,-77.81 559.54,-87.99 566.52,-87.6"/>
</a>
</g>
</g>
<!-- Node23&#45;&gt;Node2 -->
<g id="edge38_Node000023_Node000002" class="edge">
<title>Node23&#45;&gt;Node2</title>
<g id="a_edge38_Node000023_Node000002"><a xlink:title=" ">
<path fill="none" stroke="#63b8ff" d="M860.27,-167.59C836.81,-158.97 801.81,-146.12 775.41,-136.42"/>
<polygon fill="#63b8ff" stroke="#63b8ff" points="776.69,-133.16 766.1,-133 774.28,-139.73 776.69,-133.16"/>
</a>
</g>
</g>
<!-- Node23&#45;&gt;Node3 -->
<g id="edge37_Node000023_Node000003" class="edge">
<title>Node23&#45;&gt;Node3</title>
<g id="a_edge37_Node000023_Node000003"><a xlink:title=" ">
<path fill="none" stroke="#63b8ff" d="M906.25,-167.59C924.54,-159.15 951.63,-146.65 972.48,-137.03"/>
<polygon fill="#63b8ff" stroke="#63b8ff" points="973.74,-140.3 981.35,-132.93 970.81,-133.95 973.74,-140.3"/>
</a>
</g>
</g>
<!-- Node23&#45;&gt;Node6 -->
<g id="edge36_Node000023_Node000006" class="edge">
<title>Node23&#45;&gt;Node6</title>
<g id="a_edge36_Node000023_Node000006"><a xlink:title=" ">
<path fill="none" stroke="#63b8ff" d="M884.92,-167.89C882.92,-153.69 876.97,-126.42 859.88,-112 836.53,-92.31 757.04,-79.39 702.84,-72.64"/>
<polygon fill="#63b8ff" stroke="#63b8ff" points="703.54,-69.2 693.19,-71.47 702.7,-76.15 703.54,-69.2"/>
</a>
</g>
</g>
<!-- Node23&#45;&gt;Node20 -->
<g id="edge39_Node000023_Node000020" class="edge">
<title>Node23&#45;&gt;Node20</title>
<g id="a_edge39_Node000023_Node000020"><a xlink:title=" ">
<path fill="none" stroke="#63b8ff" d="M899.5,-167.66C910.07,-159.57 924.04,-146.86 930.88,-132 937.25,-118.13 938.3,-100.83 937.86,-87.57"/>
<polygon fill="#63b8ff" stroke="#63b8ff" points="941.37,-87.58 937.21,-77.84 934.38,-88.05 941.37,-87.58"/>
</a>
</g>
</g>
<!-- Node24 -->
<g id="Node000024" class="node">
<title>Node24</title>
<g id="a_Node000024"><a xlink:href="System_8hpp.html" target="_top" xlink:title=" ">
<polygon fill="white" stroke="#666666" points="851.12,-132 782.62,-132 782.62,-112 851.12,-112 851.12,-132"/>
<text text-anchor="middle" x="816.88" y="-118.5" font-family="Helvetica,sans-Serif" font-size="10.00">System.hpp</text>
</a>
</g>
</g>
<!-- Node23&#45;&gt;Node24 -->
<g id="edge40_Node000023_Node000024" class="edge">
<title>Node23&#45;&gt;Node24</title>
<g id="a_edge40_Node000023_Node000024"><a xlink:title=" ">
<path fill="none" stroke="#63b8ff" d="M873.86,-167.59C863.86,-159.77 849.41,-148.46 837.57,-139.19"/>
<polygon fill="#63b8ff" stroke="#63b8ff" points="839.98,-136.64 829.95,-133.23 835.67,-142.15 839.98,-136.64"/>
</a>
</g>
</g>
<!-- Node24&#45;&gt;Node12 -->
<g id="edge42_Node000024_Node000012" class="edge">
<title>Node24&#45;&gt;Node12</title>
<g id="a_edge42_Node000024_Node000012"><a xlink:title=" ">
<path fill="none" stroke="#63b8ff" d="M782.21,-113.32C779.4,-112.82 776.59,-112.38 773.88,-112 544.08,-80.29 479.97,-109.66 247.23,-76.1"/>
<polygon fill="#63b8ff" stroke="#63b8ff" points="247.92,-72.66 237.52,-74.67 246.9,-79.59 247.92,-72.66"/>
</a>
</g>
</g>
<!-- Node25 -->
<g id="Node000025" class="node">
<title>Node25</title>
<g id="a_Node000025"><a xlink:title=" ">
<polygon fill="#e0e0e0" stroke="#999999" points="831.62,-76 802.12,-76 802.12,-56 831.62,-56 831.62,-76"/>
<text text-anchor="middle" x="816.88" y="-62.5" font-family="Helvetica,sans-Serif" font-size="10.00">set</text>
</a>
</g>
</g>
<!-- Node24&#45;&gt;Node25 -->
<g id="edge41_Node000024_Node000025" class="edge">
<title>Node24&#45;&gt;Node25</title>
<g id="a_edge41_Node000024_Node000025"><a xlink:title=" ">
<path fill="none" stroke="#63b8ff" d="M816.88,-111.59C816.88,-105.01 816.88,-95.96 816.88,-87.73"/>
<polygon fill="#63b8ff" stroke="#63b8ff" points="820.38,-87.81 816.88,-77.81 813.38,-87.81 820.38,-87.81"/>
</a>
</g>
</g>
<!-- Node26&#45;&gt;Node4 -->
<g id="edge44_Node000026_Node000004" class="edge">
<title>Node26&#45;&gt;Node4</title>
<g id="a_edge44_Node000026_Node000004"><a xlink:title=" ">
<path fill="none" stroke="#63b8ff" d="M348.95,-167.59C340.94,-160.01 329.46,-149.13 319.84,-140.02"/>
<polygon fill="#63b8ff" stroke="#63b8ff" points="322.46,-137.68 312.79,-133.34 317.64,-142.76 322.46,-137.68"/>
</a>
</g>
</g>
<!-- Node27 -->
<g id="Node000027" class="node">
<title>Node27</title>
<g id="a_Node000027"><a xlink:title=" ">
<polygon fill="#e0e0e0" stroke="#999999" points="454.88,-132 396.88,-132 396.88,-112 454.88,-112 454.88,-132"/>
<text text-anchor="middle" x="425.88" y="-118.5" font-family="Helvetica,sans-Serif" font-size="10.00">functional</text>
</a>
</g>
</g>
<!-- Node26&#45;&gt;Node27 -->
<g id="edge45_Node000026_Node000027" class="edge">
<title>Node26&#45;&gt;Node27</title>
<g id="a_edge45_Node000026_Node000027"><a xlink:title=" ">
<path fill="none" stroke="#63b8ff" d="M370.55,-167.59C380.15,-159.85 394,-148.69 405.44,-139.47"/>
<polygon fill="#63b8ff" stroke="#63b8ff" points="407.57,-142.25 413.16,-133.25 403.18,-136.8 407.57,-142.25"/>
</a>
</g>
</g>
<!-- Node28 -->
<g id="Node000028" class="node">
<title>Node28</title>
<g id="a_Node000028"><a xlink:title=" ">
<polygon fill="#e0e0e0" stroke="#999999" points="379.27,-132 350.48,-132 350.48,-112 379.27,-112 379.27,-132"/>
<text text-anchor="middle" x="364.88" y="-118.5" font-family="Helvetica,sans-Serif" font-size="10.00">list</text>
</a>
</g>
</g>
<!-- Node26&#45;&gt;Node28 -->
<g id="edge46_Node000026_Node000028" class="edge">
<title>Node26&#45;&gt;Node28</title>
<g id="a_edge46_Node000026_Node000028"><a xlink:title=" ">
<path fill="none" stroke="#63b8ff" d="M359.92,-167.59C360.65,-161.01 361.66,-151.96 362.57,-143.73"/>
<polygon fill="#63b8ff" stroke="#63b8ff" points="366.05,-144.13 363.67,-133.8 359.09,-143.35 366.05,-144.13"/>
</a>
</g>
</g>
<!-- Node29&#45;&gt;Node3 -->
<g id="edge50_Node000029_Node000003" class="edge">
<title>Node29&#45;&gt;Node3</title>
<g id="a_edge50_Node000029_Node000003"><a xlink:title=" ">
<path fill="none" stroke="#63b8ff" d="M747.74,-279.56C796.05,-265.32 884.52,-234.9 947.88,-188 965.28,-175.12 980.77,-155.7 990.84,-141.44"/>
<polygon fill="#63b8ff" stroke="#63b8ff" points="993.59,-143.63 996.31,-133.39 987.8,-139.69 993.59,-143.63"/>
</a>
</g>
</g>
<!-- Node29&#45;&gt;Node6 -->
<g id="edge49_Node000029_Node000006" class="edge">
<title>Node29&#45;&gt;Node6</title>
<g id="a_edge49_Node000029_Node000006"><a xlink:title=" ">
<path fill="none" stroke="#63b8ff" d="M710.25,-279.74C700.86,-246.67 668.84,-133.83 655.64,-87.31"/>
<polygon fill="#63b8ff" stroke="#63b8ff" points="659.02,-86.42 652.93,-77.75 652.29,-88.33 659.02,-86.42"/>
</a>
</g>
</g>
<!-- Node29&#45;&gt;Node12 -->
<g id="edge52_Node000029_Node000012" class="edge">
<title>Node29&#45;&gt;Node12</title>
<g id="a_edge52_Node000029_Node000012"><a xlink:title=" ">
<path fill="none" stroke="#63b8ff" d="M652.07,-281.09C561.49,-269.24 400.34,-247.84 387.88,-244 334.31,-227.5 315.64,-226.47 274.88,-188 244.06,-158.93 223.11,-112.99 212.95,-86.88"/>
<polygon fill="#63b8ff" stroke="#63b8ff" points="216.35,-85.97 209.58,-77.82 209.79,-88.42 216.35,-85.97"/>
</a>
</g>
</g>
<!-- Node29&#45;&gt;Node14 -->
<g id="edge53_Node000029_Node000014" class="edge">
<title>Node29&#45;&gt;Node14</title>
<g id="a_edge53_Node000029_Node000014"><a xlink:title=" ">
<path fill="none" stroke="#63b8ff" d="M663.78,-279.53C612.16,-269.58 531.5,-254.02 480.46,-244.18"/>
<polygon fill="#63b8ff" stroke="#63b8ff" points="481.38,-240.79 470.9,-242.33 480.05,-247.66 481.38,-240.79"/>
</a>
</g>
</g>
<!-- Node29&#45;&gt;Node20 -->
<g id="edge51_Node000029_Node000020" class="edge">
<title>Node29&#45;&gt;Node20</title>
<g id="a_edge51_Node000029_Node000020"><a xlink:title=" ">
<path fill="none" stroke="#63b8ff" d="M773.84,-281.83C853.65,-268.58 988.52,-231.78 1031.88,-132 1044.07,-103.93 1007.9,-86.27 976.53,-76.56"/>
<polygon fill="#63b8ff" stroke="#63b8ff" points="977.75,-73.27 967.17,-73.87 975.81,-80 977.75,-73.27"/>
</a>
</g>
</g>
<!-- Node29&#45;&gt;Node27 -->
<g id="edge48_Node000029_Node000027" class="edge">
<title>Node29&#45;&gt;Node27</title>
<g id="a_edge48_Node000029_Node000027"><a xlink:title=" ">
<path fill="none" stroke="#63b8ff" d="M691.89,-279.53C655.26,-262.72 577.65,-225.84 515.88,-188 491.19,-172.88 464.49,-153.13 446.64,-139.38"/>
<polygon fill="#63b8ff" stroke="#63b8ff" points="448.94,-136.74 438.9,-133.36 444.64,-142.26 448.94,-136.74"/>
</a>
</g>
</g>
</g>
</svg>
