<?xml version="1.0" encoding="UTF-8" standalone="no"?>
<!DOCTYPE svg PUBLIC "-//W3C//DTD SVG 1.1//EN"
 "http://www.w3.org/Graphics/SVG/1.1/DTD/svg11.dtd">
<!-- Generated by graphviz version 12.1.0 (20240811.2233)
 -->
<!-- Title: Renderer.hpp Pages: 1 -->
<svg width="1271pt" height="420pt"
 viewBox="0.00 0.00 1270.73 420.00" xmlns="http://www.w3.org/2000/svg" xmlns:xlink="http://www.w3.org/1999/xlink">
<g id="graph0" class="graph" transform="scale(1 1) rotate(0) translate(4 416)">
<title>Renderer.hpp</title>
<!-- Node1 -->
<g id="Node000001" class="node">
<title>Node1</title>
<g id="a_Node000001"><a xlink:title=" ">
<polygon fill="#999999" stroke="#666666" points="511.88,-412 437.38,-412 437.38,-392 511.88,-392 511.88,-412"/>
<text text-anchor="middle" x="474.62" y="-398.5" font-family="Helvetica,sans-Serif" font-size="10.00">Renderer.hpp</text>
</a>
</g>
</g>
<!-- Node2 -->
<g id="Node000002" class="node">
<title>Node2</title>
<g id="a_Node000002"><a xlink:title=" ">
<polygon fill="#e0e0e0" stroke="#999999" points="1224.25,-132 1173,-132 1173,-112 1224.25,-112 1224.25,-132"/>
<text text-anchor="middle" x="1198.62" y="-118.5" font-family="Helvetica,sans-Serif" font-size="10.00">memory</text>
</a>
</g>
</g>
<!-- Node1&#45;&gt;Node2 -->
<g id="edge1_Node000001_Node000002" class="edge">
<title>Node1&#45;&gt;Node2</title>
<g id="a_edge1_Node000001_Node000002"><a xlink:title=" ">
<path fill="none" stroke="#63b8ff" d="M512.34,-399.42C663.14,-392.6 1214.62,-362.76 1214.62,-291 1214.62,-291 1214.62,-291 1214.62,-233 1214.62,-201.54 1208.14,-165.55 1203.42,-143.55"/>
<polygon fill="#63b8ff" stroke="#63b8ff" points="1206.85,-142.82 1201.25,-133.83 1200.02,-144.35 1206.85,-142.82"/>
</a>
</g>
</g>
<!-- Node3 -->
<g id="Node000003" class="node">
<title>Node3</title>
<g id="a_Node000003"><a xlink:title=" ">
<polygon fill="#e0e0e0" stroke="#999999" points="517.62,-132 477.62,-132 477.62,-112 517.62,-112 517.62,-132"/>
<text text-anchor="middle" x="497.62" y="-118.5" font-family="Helvetica,sans-Serif" font-size="10.00">string</text>
</a>
</g>
</g>
<!-- Node1&#45;&gt;Node3 -->
<g id="edge2_Node000001_Node000003" class="edge">
<title>Node1&#45;&gt;Node3</title>
<g id="a_edge2_Node000001_Node000003"><a xlink:title=" ">
<path fill="none" stroke="#63b8ff" d="M476.17,-391.69C481.01,-362.06 495.81,-267.2 500.62,-188 501.53,-173.12 500.7,-156.3 499.69,-143.5"/>
<polygon fill="#63b8ff" stroke="#63b8ff" points="503.2,-143.41 498.81,-133.77 496.23,-144.04 503.2,-143.41"/>
</a>
</g>
</g>
<!-- Node4 -->
<g id="Node000004" class="node">
<title>Node4</title>
<g id="a_Node000004"><a xlink:href="Event_8hpp.html" target="_top" xlink:title=" ">
<polygon fill="white" stroke="#666666" points="261.75,-132 201.5,-132 201.5,-112 261.75,-112 261.75,-132"/>
<text text-anchor="middle" x="231.62" y="-118.5" font-family="Helvetica,sans-Serif" font-size="10.00">Event.hpp</text>
</a>
</g>
</g>
<!-- Node1&#45;&gt;Node4 -->
<g id="edge3_Node000001_Node000004" class="edge">
<title>Node1&#45;&gt;Node4</title>
<g id="a_edge3_Node000001_Node000004"><a xlink:title=" ">
<path fill="none" stroke="#63b8ff" d="M436.93,-399.83C370.99,-395.57 241.62,-376.33 241.62,-291 241.62,-291 241.62,-291 241.62,-233 241.62,-201.74 237.57,-165.69 234.62,-143.63"/>
<polygon fill="#63b8ff" stroke="#63b8ff" points="238.11,-143.31 233.27,-133.89 231.18,-144.28 238.11,-143.31"/>
</a>
</g>
</g>
<!-- Node8 -->
<g id="Node000008" class="node">
<title>Node8</title>
<g id="a_Node000008"><a xlink:href="NetworkManager_8hpp.html" target="_top" xlink:title=" ">
<polygon fill="white" stroke="#666666" points="719.12,-356 610.12,-356 610.12,-336 719.12,-336 719.12,-356"/>
<text text-anchor="middle" x="664.62" y="-342.5" font-family="Helvetica,sans-Serif" font-size="10.00">NetworkManager.hpp</text>
</a>
</g>
</g>
<!-- Node1&#45;&gt;Node8 -->
<g id="edge7_Node000001_Node000008" class="edge">
<title>Node1&#45;&gt;Node8</title>
<g id="a_edge7_Node000001_Node000008"><a xlink:title=" ">
<path fill="none" stroke="#63b8ff" d="M507.72,-391.59C539,-382.71 586.13,-369.31 620.57,-359.52"/>
<polygon fill="#63b8ff" stroke="#63b8ff" points="621.15,-362.99 629.82,-356.89 619.24,-356.26 621.15,-362.99"/>
</a>
</g>
</g>
<!-- Node31 -->
<g id="Node000031" class="node">
<title>Node31</title>
<g id="a_Node000031"><a xlink:href="Utils_8hpp.html" target="_top" xlink:title=" ">
<polygon fill="white" stroke="#666666" points="98.12,-188 43.12,-188 43.12,-168 98.12,-168 98.12,-188"/>
<text text-anchor="middle" x="70.62" y="-174.5" font-family="Helvetica,sans-Serif" font-size="10.00">Utils.hpp</text>
</a>
</g>
</g>
<!-- Node1&#45;&gt;Node31 -->
<g id="edge59_Node000001_Node000031" class="edge">
<title>Node1&#45;&gt;Node31</title>
<g id="a_edge59_Node000001_Node000031"><a xlink:title=" ">
<path fill="none" stroke="#63b8ff" d="M437.02,-397.38C387.9,-391.92 299.7,-379.62 227.62,-356 173.6,-338.3 150.36,-342.52 112.62,-300 87,-271.13 76.82,-225.77 72.91,-199.57"/>
<polygon fill="#63b8ff" stroke="#63b8ff" points="76.42,-199.36 71.66,-189.9 69.48,-200.26 76.42,-199.36"/>
</a>
</g>
</g>
<!-- Node5 -->
<g id="Node000005" class="node">
<title>Node5</title>
<g id="a_Node000005"><a xlink:title=" ">
<polygon fill="#e0e0e0" stroke="#999999" points="167.25,-20 122,-20 122,0 167.25,0 167.25,-20"/>
<text text-anchor="middle" x="144.62" y="-6.5" font-family="Helvetica,sans-Serif" font-size="10.00">cstdint</text>
</a>
</g>
</g>
<!-- Node4&#45;&gt;Node5 -->
<g id="edge4_Node000004_Node000005" class="edge">
<title>Node4&#45;&gt;Node5</title>
<g id="a_edge4_Node000004_Node000005"><a xlink:title=" ">
<path fill="none" stroke="#63b8ff" d="M224.21,-111.62C209.83,-93.44 177.92,-53.09 159.17,-29.38"/>
<polygon fill="#63b8ff" stroke="#63b8ff" points="161.91,-27.21 152.96,-21.54 156.42,-31.56 161.91,-27.21"/>
</a>
</g>
</g>
<!-- Node6 -->
<g id="Node000006" class="node">
<title>Node6</title>
<g id="a_Node000006"><a xlink:title=" ">
<polygon fill="#e0e0e0" stroke="#999999" points="527,-76 444.25,-76 444.25,-56 527,-56 527,-76"/>
<text text-anchor="middle" x="485.62" y="-62.5" font-family="Helvetica,sans-Serif" font-size="10.00">unordered_map</text>
</a>
</g>
</g>
<!-- Node4&#45;&gt;Node6 -->
<g id="edge5_Node000004_Node000006" class="edge">
<title>Node4&#45;&gt;Node6</title>
<g id="a_edge5_Node000004_Node000006"><a xlink:title=" ">
<path fill="none" stroke="#63b8ff" d="M262.01,-114.54C304.21,-105.57 381.2,-89.2 432.88,-78.21"/>
<polygon fill="#63b8ff" stroke="#63b8ff" points="433.29,-81.7 442.35,-76.2 431.84,-74.86 433.29,-81.7"/>
</a>
</g>
</g>
<!-- Node7 -->
<g id="Node000007" class="node">
<title>Node7</title>
<g id="a_Node000007"><a xlink:title=" ">
<polygon fill="#e0e0e0" stroke="#999999" points="247.5,-76 215.75,-76 215.75,-56 247.5,-56 247.5,-76"/>
<text text-anchor="middle" x="231.62" y="-62.5" font-family="Helvetica,sans-Serif" font-size="10.00">any</text>
</a>
</g>
</g>
<!-- Node4&#45;&gt;Node7 -->
<g id="edge6_Node000004_Node000007" class="edge">
<title>Node4&#45;&gt;Node7</title>
<g id="a_edge6_Node000004_Node000007"><a xlink:title=" ">
<path fill="none" stroke="#63b8ff" d="M231.62,-111.59C231.62,-105.01 231.62,-95.96 231.62,-87.73"/>
<polygon fill="#63b8ff" stroke="#63b8ff" points="235.13,-87.81 231.63,-77.81 228.13,-87.81 235.13,-87.81"/>
</a>
</g>
</g>
<!-- Node8&#45;&gt;Node5 -->
<g id="edge9_Node000008_Node000005" class="edge">
<title>Node8&#45;&gt;Node5</title>
<g id="a_edge9_Node000008_Node000005"><a xlink:title=" ">
<path fill="none" stroke="#63b8ff" d="M609.78,-344.3C511.17,-342.19 308.52,-333.76 247.62,-300 211.88,-280.19 138.73,-139.61 136.62,-132 127.12,-97.61 133.71,-55.73 139.24,-31.34"/>
<polygon fill="#63b8ff" stroke="#63b8ff" points="142.6,-32.33 141.59,-21.79 135.81,-30.66 142.6,-32.33"/>
</a>
</g>
</g>
<!-- Node8&#45;&gt;Node6 -->
<g id="edge13_Node000008_Node000006" class="edge">
<title>Node8&#45;&gt;Node6</title>
<g id="a_edge13_Node000008_Node000006"><a xlink:title=" ">
<path fill="none" stroke="#63b8ff" d="M609.7,-340.39C505.54,-330.12 289.62,-300.9 289.62,-235 289.62,-235 289.62,-235 289.62,-177 289.62,-111.15 374.79,-84.32 432.84,-73.68"/>
<polygon fill="#63b8ff" stroke="#63b8ff" points="433.3,-77.15 442.57,-72.01 432.12,-70.25 433.3,-77.15"/>
</a>
</g>
</g>
<!-- Node9 -->
<g id="Node000009" class="node">
<title>Node9</title>
<g id="a_Node000009"><a xlink:title=" ">
<polygon fill="#e0e0e0" stroke="#999999" points="687.25,-300 642,-300 642,-280 687.25,-280 687.25,-300"/>
<text text-anchor="middle" x="664.62" y="-286.5" font-family="Helvetica,sans-Serif" font-size="10.00">chrono</text>
</a>
</g>
</g>
<!-- Node8&#45;&gt;Node9 -->
<g id="edge8_Node000008_Node000009" class="edge">
<title>Node8&#45;&gt;Node9</title>
<g id="a_edge8_Node000008_Node000009"><a xlink:title=" ">
<path fill="none" stroke="#63b8ff" d="M664.62,-335.59C664.62,-329.01 664.62,-319.96 664.62,-311.73"/>
<polygon fill="#63b8ff" stroke="#63b8ff" points="668.13,-311.81 664.63,-301.81 661.13,-311.81 668.13,-311.81"/>
</a>
</g>
</g>
<!-- Node10 -->
<g id="Node000010" class="node">
<title>Node10</title>
<g id="a_Node000010"><a xlink:title=" ">
<polygon fill="#e0e0e0" stroke="#999999" points="785.5,-300 705.75,-300 705.75,-280 785.5,-280 785.5,-300"/>
<text text-anchor="middle" x="745.62" y="-286.5" font-family="Helvetica,sans-Serif" font-size="10.00">boost/asio.hpp</text>
</a>
</g>
</g>
<!-- Node8&#45;&gt;Node10 -->
<g id="edge10_Node000008_Node000010" class="edge">
<title>Node8&#45;&gt;Node10</title>
<g id="a_edge10_Node000008_Node000010"><a xlink:title=" ">
<path fill="none" stroke="#63b8ff" d="M678.73,-335.59C690.62,-327.67 707.89,-316.16 721.9,-306.82"/>
<polygon fill="#63b8ff" stroke="#63b8ff" points="723.77,-309.78 730.15,-301.32 719.88,-303.95 723.77,-309.78"/>
</a>
</g>
</g>
<!-- Node11 -->
<g id="Node000011" class="node">
<title>Node11</title>
<g id="a_Node000011"><a xlink:title=" ">
<polygon fill="#e0e0e0" stroke="#999999" points="183.5,-132 145.75,-132 145.75,-112 183.5,-112 183.5,-132"/>
<text text-anchor="middle" x="164.62" y="-118.5" font-family="Helvetica,sans-Serif" font-size="10.00">array</text>
</a>
</g>
</g>
<!-- Node8&#45;&gt;Node11 -->
<g id="edge11_Node000008_Node000011" class="edge">
<title>Node8&#45;&gt;Node11</title>
<g id="a_edge11_Node000008_Node000011"><a xlink:title=" ">
<path fill="none" stroke="#63b8ff" d="M609.8,-344.41C516.09,-342.47 329.96,-334.29 275.62,-300 216.39,-262.62 183.36,-180.92 170.71,-143.04"/>
<polygon fill="#63b8ff" stroke="#63b8ff" points="174.14,-142.29 167.77,-133.83 167.47,-144.42 174.14,-142.29"/>
</a>
</g>
</g>
<!-- Node12 -->
<g id="Node000012" class="node">
<title>Node12</title>
<g id="a_Node000012"><a xlink:title=" ">
<polygon fill="#e0e0e0" stroke="#999999" points="846.12,-300 803.12,-300 803.12,-280 846.12,-280 846.12,-300"/>
<text text-anchor="middle" x="824.62" y="-286.5" font-family="Helvetica,sans-Serif" font-size="10.00">thread</text>
</a>
</g>
</g>
<!-- Node8&#45;&gt;Node12 -->
<g id="edge12_Node000008_Node000012" class="edge">
<title>Node8&#45;&gt;Node12</title>
<g id="a_edge12_Node000008_Node000012"><a xlink:title=" ">
<path fill="none" stroke="#63b8ff" d="M692.49,-335.59C720.16,-326.26 762.55,-311.95 791.83,-302.07"/>
<polygon fill="#63b8ff" stroke="#63b8ff" points="792.93,-305.39 801.29,-298.88 790.7,-298.76 792.93,-305.39"/>
</a>
</g>
</g>
<!-- Node13 -->
<g id="Node000013" class="node">
<title>Node13</title>
<g id="a_Node000013"><a xlink:title=" ">
<polygon fill="#e0e0e0" stroke="#999999" points="1155.12,-132 1112.12,-132 1112.12,-112 1155.12,-112 1155.12,-132"/>
<text text-anchor="middle" x="1133.62" y="-118.5" font-family="Helvetica,sans-Serif" font-size="10.00">vector</text>
</a>
</g>
</g>
<!-- Node8&#45;&gt;Node13 -->
<g id="edge14_Node000008_Node000013" class="edge">
<title>Node8&#45;&gt;Node13</title>
<g id="a_edge14_Node000008_Node000013"><a xlink:title=" ">
<path fill="none" stroke="#63b8ff" d="M719.4,-340.65C796.79,-332.33 940.13,-308.78 1042.62,-244 1072.91,-224.85 1079.33,-216.82 1100.62,-188 1110.98,-173.99 1119.74,-156.25 1125.63,-142.84"/>
<polygon fill="#63b8ff" stroke="#63b8ff" points="1128.79,-144.35 1129.44,-133.77 1122.34,-141.63 1128.79,-144.35"/>
</a>
</g>
</g>
<!-- Node14 -->
<g id="Node000014" class="node">
<title>Node14</title>
<g id="a_Node000014"><a xlink:href="Entity_8hpp.html" target="_top" xlink:title=" ">
<polygon fill="white" stroke="#666666" points="1015.38,-76 955.88,-76 955.88,-56 1015.38,-56 1015.38,-76"/>
<text text-anchor="middle" x="985.62" y="-62.5" font-family="Helvetica,sans-Serif" font-size="10.00">Entity.hpp</text>
</a>
</g>
</g>
<!-- Node8&#45;&gt;Node14 -->
<g id="edge15_Node000008_Node000014" class="edge">
<title>Node8&#45;&gt;Node14</title>
<g id="a_edge15_Node000008_Node000014"><a xlink:title=" ">
<path fill="none" stroke="#63b8ff" d="M719.46,-340.55C778.96,-334.81 876.34,-322.74 957.62,-300 1082.74,-265 1134.54,-278.63 1227.62,-188 1253.1,-163.19 1275.62,-139.12 1252.62,-112 1221.02,-74.71 1083.79,-84.33 1035.62,-76 1032.81,-75.51 1029.91,-75.01 1026.99,-74.49"/>
<polygon fill="#63b8ff" stroke="#63b8ff" points="1027.7,-71.06 1017.25,-72.76 1026.48,-77.95 1027.7,-71.06"/>
</a>
</g>
</g>
<!-- Node16 -->
<g id="Node000016" class="node">
<title>Node16</title>
<g id="a_Node000016"><a xlink:href="Mediator_8hpp.html" target="_top" xlink:title=" ">
<polygon fill="white" stroke="#666666" points="1033.75,-244 961.5,-244 961.5,-224 1033.75,-224 1033.75,-244"/>
<text text-anchor="middle" x="997.62" y="-230.5" font-family="Helvetica,sans-Serif" font-size="10.00">Mediator.hpp</text>
</a>
</g>
</g>
<!-- Node8&#45;&gt;Node16 -->
<g id="edge18_Node000008_Node000016" class="edge">
<title>Node8&#45;&gt;Node16</title>
<g id="a_edge18_Node000008_Node000016"><a xlink:title=" ">
<path fill="none" stroke="#63b8ff" d="M717.3,-335.51C756.1,-327.82 809.86,-315.69 855.62,-300 896.79,-285.89 942.15,-263.92 970.27,-249.5"/>
<polygon fill="#63b8ff" stroke="#63b8ff" points="971.55,-252.78 978.81,-245.07 968.32,-246.56 971.55,-252.78"/>
</a>
</g>
</g>
<!-- Node30 -->
<g id="Node000030" class="node">
<title>Node30</title>
<g id="a_Node000030"><a xlink:href="ComponentRegistry_8hpp.html" target="_top" xlink:title=" ">
<polygon fill="white" stroke="#666666" points="624.12,-300 503.12,-300 503.12,-280 624.12,-280 624.12,-300"/>
<text text-anchor="middle" x="563.62" y="-286.5" font-family="Helvetica,sans-Serif" font-size="10.00">ComponentRegistry.hpp</text>
</a>
</g>
</g>
<!-- Node8&#45;&gt;Node30 -->
<g id="edge52_Node000008_Node000030" class="edge">
<title>Node8&#45;&gt;Node30</title>
<g id="a_edge52_Node000008_Node000030"><a xlink:title=" ">
<path fill="none" stroke="#63b8ff" d="M647.03,-335.59C631.7,-327.4 609.21,-315.37 591.44,-305.87"/>
<polygon fill="#63b8ff" stroke="#63b8ff" points="593.16,-302.82 582.69,-301.19 589.86,-308.99 593.16,-302.82"/>
</a>
</g>
</g>
<!-- Node14&#45;&gt;Node5 -->
<g id="edge16_Node000014_Node000005" class="edge">
<title>Node14&#45;&gt;Node5</title>
<g id="a_edge16_Node000014_Node000005"><a xlink:title=" ">
<path fill="none" stroke="#63b8ff" d="M955.49,-57.51C952.51,-56.93 949.51,-56.41 946.62,-56 651.87,-14.03 290.95,-10.77 179.23,-10.84"/>
<polygon fill="#63b8ff" stroke="#63b8ff" points="179.24,-7.34 169.25,-10.86 179.25,-14.34 179.24,-7.34"/>
</a>
</g>
</g>
<!-- Node15 -->
<g id="Node000015" class="node">
<title>Node15</title>
<g id="a_Node000015"><a xlink:title=" ">
<polygon fill="#e0e0e0" stroke="#999999" points="1005.62,-20 965.62,-20 965.62,0 1005.62,0 1005.62,-20"/>
<text text-anchor="middle" x="985.62" y="-6.5" font-family="Helvetica,sans-Serif" font-size="10.00">bitset</text>
</a>
</g>
</g>
<!-- Node14&#45;&gt;Node15 -->
<g id="edge17_Node000014_Node000015" class="edge">
<title>Node14&#45;&gt;Node15</title>
<g id="a_edge17_Node000014_Node000015"><a xlink:title=" ">
<path fill="none" stroke="#63b8ff" d="M985.62,-55.59C985.62,-49.01 985.62,-39.96 985.62,-31.73"/>
<polygon fill="#63b8ff" stroke="#63b8ff" points="989.13,-31.81 985.63,-21.81 982.13,-31.81 989.13,-31.81"/>
</a>
</g>
</g>
<!-- Node16&#45;&gt;Node2 -->
<g id="edge20_Node000016_Node000002" class="edge">
<title>Node16&#45;&gt;Node2</title>
<g id="a_edge20_Node000016_Node000002"><a xlink:title=" ">
<path fill="none" stroke="#63b8ff" d="M1022.33,-223.61C1043.56,-215.22 1074.75,-202.1 1100.62,-188 1127.95,-173.11 1157.48,-152.91 1176.9,-139"/>
<polygon fill="#63b8ff" stroke="#63b8ff" points="1178.8,-141.95 1184.84,-133.25 1174.69,-136.28 1178.8,-141.95"/>
</a>
</g>
</g>
<!-- Node16&#45;&gt;Node13 -->
<g id="edge21_Node000016_Node000013" class="edge">
<title>Node16&#45;&gt;Node13</title>
<g id="a_edge21_Node000016_Node000013"><a xlink:title=" ">
<path fill="none" stroke="#63b8ff" d="M1018.28,-223.62C1034.95,-215.5 1058.52,-202.77 1076.62,-188 1093.47,-174.26 1109.5,-155.26 1120.25,-141.35"/>
<polygon fill="#63b8ff" stroke="#63b8ff" points="1122.95,-143.58 1126.16,-133.48 1117.36,-139.37 1122.95,-143.58"/>
</a>
</g>
</g>
<!-- Node17 -->
<g id="Node000017" class="node">
<title>Node17</title>
<g id="a_Node000017"><a xlink:title=" ">
<polygon fill="#e0e0e0" stroke="#999999" points="937.38,-76 883.88,-76 883.88,-56 937.38,-56 937.38,-76"/>
<text text-anchor="middle" x="910.62" y="-62.5" font-family="Helvetica,sans-Serif" font-size="10.00">iostream</text>
</a>
</g>
</g>
<!-- Node16&#45;&gt;Node17 -->
<g id="edge19_Node000016_Node000017" class="edge">
<title>Node16&#45;&gt;Node17</title>
<g id="a_edge19_Node000016_Node000017"><a xlink:title=" ">
<path fill="none" stroke="#63b8ff" d="M1034.1,-228.25C1114.45,-216.41 1294.86,-181.39 1233.62,-112 1193.17,-66.16 1027.18,-85.64 948.99,-75.88"/>
<polygon fill="#63b8ff" stroke="#63b8ff" points="949.59,-72.43 939.17,-74.36 948.52,-79.35 949.59,-72.43"/>
</a>
</g>
</g>
<!-- Node18 -->
<g id="Node000018" class="node">
<title>Node18</title>
<g id="a_Node000018"><a xlink:href="EntityManager_8hpp.html" target="_top" xlink:title=" ">
<polygon fill="white" stroke="#666666" points="741.5,-188 643.75,-188 643.75,-168 741.5,-168 741.5,-188"/>
<text text-anchor="middle" x="692.62" y="-174.5" font-family="Helvetica,sans-Serif" font-size="10.00">EntityManager.hpp</text>
</a>
</g>
</g>
<!-- Node16&#45;&gt;Node18 -->
<g id="edge22_Node000016_Node000018" class="edge">
<title>Node16&#45;&gt;Node18</title>
<g id="a_edge22_Node000016_Node000018"><a xlink:title=" ">
<path fill="none" stroke="#63b8ff" d="M961.14,-226.54C909.63,-217.42 814.99,-200.66 752.94,-189.68"/>
<polygon fill="#63b8ff" stroke="#63b8ff" points="753.69,-186.26 743.24,-187.96 752.47,-193.15 753.69,-186.26"/>
</a>
</g>
</g>
<!-- Node20 -->
<g id="Node000020" class="node">
<title>Node20</title>
<g id="a_Node000020"><a xlink:href="ComponentManager_8hpp.html" target="_top" xlink:title=" ">
<polygon fill="white" stroke="#666666" points="903.88,-188 781.38,-188 781.38,-168 903.88,-168 903.88,-188"/>
<text text-anchor="middle" x="842.62" y="-174.5" font-family="Helvetica,sans-Serif" font-size="10.00">ComponentManager.hpp</text>
</a>
</g>
</g>
<!-- Node16&#45;&gt;Node20 -->
<g id="edge26_Node000016_Node000020" class="edge">
<title>Node16&#45;&gt;Node20</title>
<g id="a_edge26_Node000016_Node000020"><a xlink:title=" ">
<path fill="none" stroke="#63b8ff" d="M970.63,-223.59C945.66,-214.9 908.32,-201.89 880.4,-192.16"/>
<polygon fill="#63b8ff" stroke="#63b8ff" points="881.86,-188.96 871.26,-188.98 879.56,-195.57 881.86,-188.96"/>
</a>
</g>
</g>
<!-- Node24 -->
<g id="Node000024" class="node">
<title>Node24</title>
<g id="a_Node000024"><a xlink:href="SystemManager_8hpp.html" target="_top" xlink:title=" ">
<polygon fill="white" stroke="#666666" points="1067.62,-188 961.62,-188 961.62,-168 1067.62,-168 1067.62,-188"/>
<text text-anchor="middle" x="1014.62" y="-174.5" font-family="Helvetica,sans-Serif" font-size="10.00">SystemManager.hpp</text>
</a>
</g>
</g>
<!-- Node16&#45;&gt;Node24 -->
<g id="edge39_Node000016_Node000024" class="edge">
<title>Node16&#45;&gt;Node24</title>
<g id="a_edge39_Node000016_Node000024"><a xlink:title=" ">
<path fill="none" stroke="#63b8ff" d="M1000.59,-223.59C1002.71,-216.86 1005.64,-207.53 1008.28,-199.15"/>
<polygon fill="#63b8ff" stroke="#63b8ff" points="1011.58,-200.33 1011.24,-189.74 1004.9,-198.23 1011.58,-200.33"/>
</a>
</g>
</g>
<!-- Node27 -->
<g id="Node000027" class="node">
<title>Node27</title>
<g id="a_Node000027"><a xlink:href="EventManager_8hpp.html" target="_top" xlink:title=" ">
<polygon fill="white" stroke="#666666" points="491.5,-188 393.75,-188 393.75,-168 491.5,-168 491.5,-188"/>
<text text-anchor="middle" x="442.62" y="-174.5" font-family="Helvetica,sans-Serif" font-size="10.00">EventManager.hpp</text>
</a>
</g>
</g>
<!-- Node16&#45;&gt;Node27 -->
<g id="edge48_Node000016_Node000027" class="edge">
<title>Node16&#45;&gt;Node27</title>
<g id="a_edge48_Node000016_Node000027"><a xlink:title=" ">
<path fill="none" stroke="#63b8ff" d="M961.21,-229.46C867.83,-220.37 619.1,-196.17 503.39,-184.91"/>
<polygon fill="#63b8ff" stroke="#63b8ff" points="503.75,-181.43 493.46,-183.95 503.07,-188.4 503.75,-181.43"/>
</a>
</g>
</g>
<!-- Node18&#45;&gt;Node11 -->
<g id="edge24_Node000018_Node000011" class="edge">
<title>Node18&#45;&gt;Node11</title>
<g id="a_edge24_Node000018_Node000011"><a xlink:title=" ">
<path fill="none" stroke="#63b8ff" d="M643.58,-173.97C539.19,-167.31 296.92,-150.65 194.91,-131.94"/>
<polygon fill="#63b8ff" stroke="#63b8ff" points="195.73,-128.53 185.24,-130.05 194.39,-135.4 195.73,-128.53"/>
</a>
</g>
</g>
<!-- Node18&#45;&gt;Node14 -->
<g id="edge25_Node000018_Node000014" class="edge">
<title>Node18&#45;&gt;Node14</title>
<g id="a_edge25_Node000018_Node000014"><a xlink:title=" ">
<path fill="none" stroke="#63b8ff" d="M741.85,-169.09C794.62,-160.14 874.6,-145.12 902.62,-132 928.12,-120.07 952.94,-99.01 968.7,-84.1"/>
<polygon fill="#63b8ff" stroke="#63b8ff" points="971.06,-86.69 975.78,-77.2 966.17,-81.67 971.06,-86.69"/>
</a>
</g>
</g>
<!-- Node19 -->
<g id="Node000019" class="node">
<title>Node19</title>
<g id="a_Node000019"><a xlink:title=" ">
<polygon fill="#e0e0e0" stroke="#999999" points="615.75,-132 573.5,-132 573.5,-112 615.75,-112 615.75,-132"/>
<text text-anchor="middle" x="594.62" y="-118.5" font-family="Helvetica,sans-Serif" font-size="10.00">queue</text>
</a>
</g>
</g>
<!-- Node18&#45;&gt;Node19 -->
<g id="edge23_Node000018_Node000019" class="edge">
<title>Node18&#45;&gt;Node19</title>
<g id="a_edge23_Node000018_Node000019"><a xlink:title=" ">
<path fill="none" stroke="#63b8ff" d="M675.55,-167.59C660.75,-159.44 639.06,-147.48 621.86,-138"/>
<polygon fill="#63b8ff" stroke="#63b8ff" points="623.6,-134.97 613.15,-133.21 620.22,-141.1 623.6,-134.97"/>
</a>
</g>
</g>
<!-- Node20&#45;&gt;Node2 -->
<g id="edge29_Node000020_Node000002" class="edge">
<title>Node20&#45;&gt;Node2</title>
<g id="a_edge29_Node000020_Node000002"><a xlink:title=" ">
<path fill="none" stroke="#63b8ff" d="M904.13,-170.63C966.72,-163.64 1066.73,-151.12 1161.48,-132.45"/>
<polygon fill="#63b8ff" stroke="#63b8ff" points="1162.11,-135.89 1171.23,-130.5 1160.74,-129.03 1162.11,-135.89"/>
</a>
</g>
</g>
<!-- Node20&#45;&gt;Node3 -->
<g id="edge28_Node000020_Node000003" class="edge">
<title>Node20&#45;&gt;Node3</title>
<g id="a_edge28_Node000020_Node000003"><a xlink:title=" ">
<path fill="none" stroke="#63b8ff" d="M782.14,-167.53C708.34,-155.98 586.38,-136.89 529.13,-127.93"/>
<polygon fill="#63b8ff" stroke="#63b8ff" points="529.85,-124.5 519.43,-126.41 528.77,-131.42 529.85,-124.5"/>
</a>
</g>
</g>
<!-- Node20&#45;&gt;Node6 -->
<g id="edge27_Node000020_Node000006" class="edge">
<title>Node20&#45;&gt;Node6</title>
<g id="a_edge27_Node000020_Node000006"><a xlink:title=" ">
<path fill="none" stroke="#63b8ff" d="M811.88,-167.53C747.82,-147.79 600.01,-102.24 527.41,-79.87"/>
<polygon fill="#63b8ff" stroke="#63b8ff" points="528.46,-76.54 517.87,-76.94 526.4,-83.23 528.46,-76.54"/>
</a>
</g>
</g>
<!-- Node20&#45;&gt;Node13 -->
<g id="edge31_Node000020_Node000013" class="edge">
<title>Node20&#45;&gt;Node13</title>
<g id="a_edge31_Node000020_Node000013"><a xlink:title=" ">
<path fill="none" stroke="#63b8ff" d="M904.21,-168.32C954.55,-160.77 1027.76,-148.78 1100.49,-132.27"/>
<polygon fill="#63b8ff" stroke="#63b8ff" points="1101.25,-135.69 1110.21,-130.04 1099.68,-128.87 1101.25,-135.69"/>
</a>
</g>
</g>
<!-- Node20&#45;&gt;Node14 -->
<g id="edge32_Node000020_Node000014" class="edge">
<title>Node20&#45;&gt;Node14</title>
<g id="a_edge32_Node000020_Node000014"><a xlink:title=" ">
<path fill="none" stroke="#63b8ff" d="M870.19,-167.58C889.79,-159.99 916.01,-147.96 935.62,-132 951.64,-118.97 965.56,-99.84 974.61,-85.71"/>
<polygon fill="#63b8ff" stroke="#63b8ff" points="977.5,-87.7 979.75,-77.34 971.54,-84.03 977.5,-87.7"/>
</a>
</g>
</g>
<!-- Node21 -->
<g id="Node000021" class="node">
<title>Node21</title>
<g id="a_Node000021"><a xlink:title=" ">
<polygon fill="#e0e0e0" stroke="#999999" points="749,-76 690.25,-76 690.25,-56 749,-56 749,-76"/>
<text text-anchor="middle" x="719.62" y="-62.5" font-family="Helvetica,sans-Serif" font-size="10.00">stdexcept</text>
</a>
</g>
</g>
<!-- Node20&#45;&gt;Node21 -->
<g id="edge30_Node000020_Node000021" class="edge">
<title>Node20&#45;&gt;Node21</title>
<g id="a_edge30_Node000020_Node000021"><a xlink:title=" ">
<path fill="none" stroke="#63b8ff" d="M804.98,-167.61C784.44,-160.77 759.95,-149.56 743.62,-132 732.1,-119.6 725.99,-101.18 722.83,-87.12"/>
<polygon fill="#63b8ff" stroke="#63b8ff" points="726.33,-86.79 721.03,-77.62 719.45,-88.1 726.33,-86.79"/>
</a>
</g>
</g>
<!-- Node22 -->
<g id="Node000022" class="node">
<title>Node22</title>
<g id="a_Node000022"><a xlink:href="ComponentArray_8hpp.html" target="_top" xlink:title=" ">
<polygon fill="white" stroke="#666666" points="893.38,-132 785.88,-132 785.88,-112 893.38,-112 893.38,-132"/>
<text text-anchor="middle" x="839.62" y="-118.5" font-family="Helvetica,sans-Serif" font-size="10.00">ComponentArray.hpp</text>
</a>
</g>
</g>
<!-- Node20&#45;&gt;Node22 -->
<g id="edge33_Node000020_Node000022" class="edge">
<title>Node20&#45;&gt;Node22</title>
<g id="a_edge33_Node000020_Node000022"><a xlink:title=" ">
<path fill="none" stroke="#63b8ff" d="M842.1,-167.59C841.74,-161.01 841.23,-151.96 840.78,-143.73"/>
<polygon fill="#63b8ff" stroke="#63b8ff" points="844.27,-143.6 840.23,-133.81 837.29,-143.99 844.27,-143.6"/>
</a>
</g>
</g>
<!-- Node22&#45;&gt;Node6 -->
<g id="edge35_Node000022_Node000006" class="edge">
<title>Node22&#45;&gt;Node6</title>
<g id="a_edge35_Node000022_Node000006"><a xlink:title=" ">
<path fill="none" stroke="#63b8ff" d="M785.47,-112.74C718.37,-102.5 604.78,-85.18 538.35,-75.04"/>
<polygon fill="#63b8ff" stroke="#63b8ff" points="539.22,-71.64 528.81,-73.59 538.16,-78.56 539.22,-71.64"/>
</a>
</g>
</g>
<!-- Node22&#45;&gt;Node14 -->
<g id="edge38_Node000022_Node000014" class="edge">
<title>Node22&#45;&gt;Node14</title>
<g id="a_edge38_Node000022_Node000014"><a xlink:title=" ">
<path fill="none" stroke="#63b8ff" d="M865.06,-111.59C888.36,-102.97 923.12,-90.12 949.34,-80.42"/>
<polygon fill="#63b8ff" stroke="#63b8ff" points="950.41,-83.76 958.58,-77 947.98,-77.19 950.41,-83.76"/>
</a>
</g>
</g>
<!-- Node22&#45;&gt;Node17 -->
<g id="edge37_Node000022_Node000017" class="edge">
<title>Node22&#45;&gt;Node17</title>
<g id="a_edge37_Node000022_Node000017"><a xlink:title=" ">
<path fill="none" stroke="#63b8ff" d="M851.99,-111.59C862.27,-103.77 877.14,-92.46 889.34,-83.19"/>
<polygon fill="#63b8ff" stroke="#63b8ff" points="891.35,-86.05 897.19,-77.21 887.12,-80.48 891.35,-86.05"/>
</a>
</g>
</g>
<!-- Node22&#45;&gt;Node21 -->
<g id="edge36_Node000022_Node000021" class="edge">
<title>Node22&#45;&gt;Node21</title>
<g id="a_edge36_Node000022_Node000021"><a xlink:title=" ">
<path fill="none" stroke="#63b8ff" d="M818.72,-111.59C800,-103.17 772.27,-90.69 750.9,-81.07"/>
<polygon fill="#63b8ff" stroke="#63b8ff" points="752.63,-78.01 742.07,-77.1 749.75,-84.4 752.63,-78.01"/>
</a>
</g>
</g>
<!-- Node23 -->
<g id="Node000023" class="node">
<title>Node23</title>
<g id="a_Node000023"><a xlink:title=" ">
<polygon fill="#e0e0e0" stroke="#999999" points="865.62,-76 807.62,-76 807.62,-56 865.62,-56 865.62,-76"/>
<text text-anchor="middle" x="836.62" y="-62.5" font-family="Helvetica,sans-Serif" font-size="10.00">exception</text>
</a>
</g>
</g>
<!-- Node22&#45;&gt;Node23 -->
<g id="edge34_Node000022_Node000023" class="edge">
<title>Node22&#45;&gt;Node23</title>
<g id="a_edge34_Node000022_Node000023"><a xlink:title=" ">
<path fill="none" stroke="#63b8ff" d="M839.1,-111.59C838.74,-105.01 838.23,-95.96 837.78,-87.73"/>
<polygon fill="#63b8ff" stroke="#63b8ff" points="841.27,-87.6 837.23,-77.81 834.29,-87.99 841.27,-87.6"/>
</a>
</g>
</g>
<!-- Node24&#45;&gt;Node2 -->
<g id="edge43_Node000024_Node000002" class="edge">
<title>Node24&#45;&gt;Node2</title>
<g id="a_edge43_Node000024_Node000002"><a xlink:title=" ">
<path fill="none" stroke="#63b8ff" d="M1046.68,-167.59C1078.77,-158.17 1128.12,-143.69 1161.81,-133.8"/>
<polygon fill="#63b8ff" stroke="#63b8ff" points="1162.52,-137.24 1171.13,-131.07 1160.55,-130.53 1162.52,-137.24"/>
</a>
</g>
</g>
<!-- Node24&#45;&gt;Node3 -->
<g id="edge41_Node000024_Node000003" class="edge">
<title>Node24&#45;&gt;Node3</title>
<g id="a_edge41_Node000024_Node000003"><a xlink:title=" ">
<path fill="none" stroke="#63b8ff" d="M961.22,-172.25C876.88,-164.61 707.72,-148.76 564.62,-132 552.95,-130.63 540.15,-128.96 528.89,-127.42"/>
<polygon fill="#63b8ff" stroke="#63b8ff" points="529.72,-124 519.33,-126.1 528.76,-130.94 529.72,-124"/>
</a>
</g>
</g>
<!-- Node24&#45;&gt;Node6 -->
<g id="edge40_Node000024_Node000006" class="edge">
<title>Node24&#45;&gt;Node6</title>
<g id="a_edge40_Node000024_Node000006"><a xlink:title=" ">
<path fill="none" stroke="#63b8ff" d="M961.29,-169.75C907.34,-162 821.71,-148.57 748.62,-132 717.07,-124.85 709.95,-120.12 678.62,-112 631.34,-99.74 577.14,-87.24 538.23,-78.53"/>
<polygon fill="#63b8ff" stroke="#63b8ff" points="539.18,-75.16 528.66,-76.4 537.66,-81.99 539.18,-75.16"/>
</a>
</g>
</g>
<!-- Node24&#45;&gt;Node13 -->
<g id="edge42_Node000024_Node000013" class="edge">
<title>Node24&#45;&gt;Node13</title>
<g id="a_edge42_Node000024_Node000013"><a xlink:title=" ">
<path fill="none" stroke="#63b8ff" d="M1035.35,-167.59C1053.84,-159.21 1081.17,-146.8 1102.32,-137.21"/>
<polygon fill="#63b8ff" stroke="#63b8ff" points="1103.7,-140.42 1111.36,-133.1 1100.8,-134.05 1103.7,-140.42"/>
</a>
</g>
</g>
<!-- Node24&#45;&gt;Node21 -->
<g id="edge44_Node000024_Node000021" class="edge">
<title>Node24&#45;&gt;Node21</title>
<g id="a_edge44_Node000024_Node000021"><a xlink:title=" ">
<path fill="none" stroke="#63b8ff" d="M961.27,-171.01C901.04,-163.55 807.44,-149.6 776.62,-132 757.14,-120.87 740.97,-100.57 730.9,-85.61"/>
<polygon fill="#63b8ff" stroke="#63b8ff" points="734.08,-84.09 725.74,-77.56 728.18,-87.87 734.08,-84.09"/>
</a>
</g>
</g>
<!-- Node25 -->
<g id="Node000025" class="node">
<title>Node25</title>
<g id="a_Node000025"><a xlink:href="System_8hpp.html" target="_top" xlink:title=" ">
<polygon fill="white" stroke="#666666" points="1093.88,-132 1025.38,-132 1025.38,-112 1093.88,-112 1093.88,-132"/>
<text text-anchor="middle" x="1059.62" y="-118.5" font-family="Helvetica,sans-Serif" font-size="10.00">System.hpp</text>
</a>
</g>
</g>
<!-- Node24&#45;&gt;Node25 -->
<g id="edge45_Node000024_Node000025" class="edge">
<title>Node24&#45;&gt;Node25</title>
<g id="a_edge45_Node000024_Node000025"><a xlink:title=" ">
<path fill="none" stroke="#63b8ff" d="M1022.46,-167.59C1028.59,-160.24 1037.3,-149.8 1044.74,-140.87"/>
<polygon fill="#63b8ff" stroke="#63b8ff" points="1047.19,-143.38 1050.91,-133.46 1041.82,-138.9 1047.19,-143.38"/>
</a>
</g>
</g>
<!-- Node25&#45;&gt;Node14 -->
<g id="edge47_Node000025_Node000014" class="edge">
<title>Node25&#45;&gt;Node14</title>
<g id="a_edge47_Node000025_Node000014"><a xlink:title=" ">
<path fill="none" stroke="#63b8ff" d="M1046.74,-111.59C1035.91,-103.7 1020.21,-92.24 1007.44,-82.92"/>
<polygon fill="#63b8ff" stroke="#63b8ff" points="1009.73,-80.26 999.59,-77.19 1005.6,-85.91 1009.73,-80.26"/>
</a>
</g>
</g>
<!-- Node26 -->
<g id="Node000026" class="node">
<title>Node26</title>
<g id="a_Node000026"><a xlink:title=" ">
<polygon fill="#e0e0e0" stroke="#999999" points="1074.38,-76 1044.88,-76 1044.88,-56 1074.38,-56 1074.38,-76"/>
<text text-anchor="middle" x="1059.62" y="-62.5" font-family="Helvetica,sans-Serif" font-size="10.00">set</text>
</a>
</g>
</g>
<!-- Node25&#45;&gt;Node26 -->
<g id="edge46_Node000025_Node000026" class="edge">
<title>Node25&#45;&gt;Node26</title>
<g id="a_edge46_Node000025_Node000026"><a xlink:title=" ">
<path fill="none" stroke="#63b8ff" d="M1059.62,-111.59C1059.62,-105.01 1059.62,-95.96 1059.62,-87.73"/>
<polygon fill="#63b8ff" stroke="#63b8ff" points="1063.13,-87.81 1059.63,-77.81 1056.13,-87.81 1063.13,-87.81"/>
</a>
</g>
</g>
<!-- Node27&#45;&gt;Node4 -->
<g id="edge49_Node000027_Node000004" class="edge">
<title>Node27&#45;&gt;Node4</title>
<g id="a_edge49_Node000027_Node000004"><a xlink:title=" ">
<path fill="none" stroke="#63b8ff" d="M405.87,-167.59C368.8,-158.11 311.66,-143.48 273.01,-133.59"/>
<polygon fill="#63b8ff" stroke="#63b8ff" points="274.17,-130.27 263.61,-131.19 272.43,-137.06 274.17,-130.27"/>
</a>
</g>
</g>
<!-- Node28 -->
<g id="Node000028" class="node">
<title>Node28</title>
<g id="a_Node000028"><a xlink:title=" ">
<polygon fill="#e0e0e0" stroke="#999999" points="413.62,-132 355.62,-132 355.62,-112 413.62,-112 413.62,-132"/>
<text text-anchor="middle" x="384.62" y="-118.5" font-family="Helvetica,sans-Serif" font-size="10.00">functional</text>
</a>
</g>
</g>
<!-- Node27&#45;&gt;Node28 -->
<g id="edge50_Node000027_Node000028" class="edge">
<title>Node27&#45;&gt;Node28</title>
<g id="a_edge50_Node000027_Node000028"><a xlink:title=" ">
<path fill="none" stroke="#63b8ff" d="M432.52,-167.59C424.37,-160.01 412.69,-149.13 402.91,-140.02"/>
<polygon fill="#63b8ff" stroke="#63b8ff" points="405.42,-137.58 395.72,-133.33 400.65,-142.71 405.42,-137.58"/>
</a>
</g>
</g>
<!-- Node29 -->
<g id="Node000029" class="node">
<title>Node29</title>
<g id="a_Node000029"><a xlink:title=" ">
<polygon fill="#e0e0e0" stroke="#999999" points="460.02,-132 431.23,-132 431.23,-112 460.02,-112 460.02,-132"/>
<text text-anchor="middle" x="445.62" y="-118.5" font-family="Helvetica,sans-Serif" font-size="10.00">list</text>
</a>
</g>
</g>
<!-- Node27&#45;&gt;Node29 -->
<g id="edge51_Node000027_Node000029" class="edge">
<title>Node27&#45;&gt;Node29</title>
<g id="a_edge51_Node000027_Node000029"><a xlink:title=" ">
<path fill="none" stroke="#63b8ff" d="M443.15,-167.59C443.51,-161.01 444.02,-151.96 444.47,-143.73"/>
<polygon fill="#63b8ff" stroke="#63b8ff" points="447.96,-143.99 445.02,-133.81 440.98,-143.6 447.96,-143.99"/>
</a>
</g>
</g>
<!-- Node30&#45;&gt;Node3 -->
<g id="edge55_Node000030_Node000003" class="edge">
<title>Node30&#45;&gt;Node3</title>
<g id="a_edge55_Node000030_Node000003"><a xlink:title=" ">
<path fill="none" stroke="#63b8ff" d="M562.7,-279.73C560.32,-258.83 552.8,-206.81 533.62,-168 528.84,-158.31 521.68,-148.78 515,-141"/>
<polygon fill="#63b8ff" stroke="#63b8ff" points="517.61,-138.68 508.3,-133.62 512.43,-143.38 517.61,-138.68"/>
</a>
</g>
</g>
<!-- Node30&#45;&gt;Node6 -->
<g id="edge54_Node000030_Node000006" class="edge">
<title>Node30&#45;&gt;Node6</title>
<g id="a_edge54_Node000030_Node000006"><a xlink:title=" ">
<path fill="none" stroke="#63b8ff" d="M502.87,-280.36C473.79,-273.95 439.72,-262.9 413.62,-244 366.65,-209.97 359.95,-188.45 346.62,-132 344.58,-123.35 341.4,-119.19 346.62,-112 366.21,-85.08 402.24,-73.93 432.71,-69.46"/>
<polygon fill="#63b8ff" stroke="#63b8ff" points="433.07,-72.95 442.57,-68.25 432.22,-66 433.07,-72.95"/>
</a>
</g>
</g>
<!-- Node30&#45;&gt;Node14 -->
<g id="edge57_Node000030_Node000014" class="edge">
<title>Node30&#45;&gt;Node14</title>
<g id="a_edge57_Node000030_Node000014"><a xlink:title=" ">
<path fill="none" stroke="#63b8ff" d="M608,-279.55C690.05,-261.54 861.75,-221.13 912.62,-188 949.34,-164.1 970.35,-114.66 979.71,-86.95"/>
<polygon fill="#63b8ff" stroke="#63b8ff" points="982.96,-88.26 982.65,-77.67 976.29,-86.14 982.96,-88.26"/>
</a>
</g>
</g>
<!-- Node30&#45;&gt;Node16 -->
<g id="edge58_Node000030_Node000016" class="edge">
<title>Node30&#45;&gt;Node16</title>
<g id="a_edge58_Node000030_Node000016"><a xlink:title=" ">
<path fill="none" stroke="#63b8ff" d="M624.57,-281C627.29,-280.66 629.99,-280.32 632.62,-280 772.49,-262.89 808.21,-264.49 947.62,-244 948.44,-243.88 949.27,-243.76 950.1,-243.63"/>
<polygon fill="#63b8ff" stroke="#63b8ff" points="950.27,-247.15 959.58,-242.1 949.15,-240.24 950.27,-247.15"/>
</a>
</g>
</g>
<!-- Node30&#45;&gt;Node21 -->
<g id="edge56_Node000030_Node000021" class="edge">
<title>Node30&#45;&gt;Node21</title>
<g id="a_edge56_Node000030_Node000021"><a xlink:title=" ">
<path fill="none" stroke="#63b8ff" d="M565.23,-279.73C566.71,-270.65 568.8,-256.43 569.62,-244 571.48,-216.07 566.02,-183.27 564.62,-132 564.38,-123.11 559.29,-119.11 564.62,-112 578.36,-93.71 637.62,-80.45 678.75,-73.24"/>
<polygon fill="#63b8ff" stroke="#63b8ff" points="679.31,-76.69 688.59,-71.57 678.14,-69.79 679.31,-76.69"/>
</a>
</g>
</g>
<!-- Node30&#45;&gt;Node28 -->
<g id="edge53_Node000030_Node000028" class="edge">
<title>Node30&#45;&gt;Node28</title>
<g id="a_edge53_Node000030_Node000028"><a xlink:title=" ">
<path fill="none" stroke="#63b8ff" d="M524.66,-279.52C481.69,-266.76 414.67,-239.46 384.62,-188 376.78,-174.57 377.38,-156.76 379.61,-143.18"/>
<polygon fill="#63b8ff" stroke="#63b8ff" points="382.99,-144.13 381.61,-133.63 376.14,-142.7 382.99,-144.13"/>
</a>
</g>
</g>
<!-- Node31&#45;&gt;Node3 -->
<g id="edge61_Node000031_Node000003" class="edge">
<title>Node31&#45;&gt;Node3</title>
<g id="a_edge61_Node000031_Node000003"><a xlink:title=" ">
<path fill="none" stroke="#63b8ff" d="M98.41,-175.66C162,-172.22 323.03,-161.34 466.02,-132.19"/>
<polygon fill="#63b8ff" stroke="#63b8ff" points="466.6,-135.65 475.67,-130.18 465.17,-128.79 466.6,-135.65"/>
</a>
</g>
</g>
<!-- Node31&#45;&gt;Node5 -->
<g id="edge60_Node000031_Node000005" class="edge">
<title>Node31&#45;&gt;Node5</title>
<g id="a_edge60_Node000031_Node000005"><a xlink:title=" ">
<path fill="none" stroke="#63b8ff" d="M71.66,-167.64C74.31,-146.55 82.65,-94.16 103.62,-56 109.25,-45.77 117.65,-35.99 125.39,-28.18"/>
<polygon fill="#63b8ff" stroke="#63b8ff" points="127.75,-30.76 132.56,-21.32 122.91,-25.7 127.75,-30.76"/>
</a>
</g>
</g>
<!-- Node31&#45;&gt;Node11 -->
<g id="edge63_Node000031_Node000011" class="edge">
<title>Node31&#45;&gt;Node11</title>
<g id="a_edge63_Node000031_Node000011"><a xlink:title=" ">
<path fill="none" stroke="#63b8ff" d="M87,-167.59C101.2,-159.44 122.01,-147.48 138.51,-138"/>
<polygon fill="#63b8ff" stroke="#63b8ff" points="139.88,-141.25 146.81,-133.23 136.4,-135.18 139.88,-141.25"/>
</a>
</g>
</g>
<!-- Node32 -->
<g id="Node000032" class="node">
<title>Node32</title>
<g id="a_Node000032"><a xlink:title=" ">
<polygon fill="#e0e0e0" stroke="#999999" points="51.25,-132 0,-132 0,-112 51.25,-112 51.25,-132"/>
<text text-anchor="middle" x="25.62" y="-118.5" font-family="Helvetica,sans-Serif" font-size="10.00">ostream</text>
</a>
</g>
</g>
<!-- Node31&#45;&gt;Node32 -->
<g id="edge62_Node000031_Node000032" class="edge">
<title>Node31&#45;&gt;Node32</title>
<g id="a_edge62_Node000031_Node000032"><a xlink:title=" ">
<path fill="none" stroke="#63b8ff" d="M62.79,-167.59C56.66,-160.24 47.95,-149.8 40.51,-140.87"/>
<polygon fill="#63b8ff" stroke="#63b8ff" points="43.43,-138.9 34.34,-133.46 38.06,-143.38 43.43,-138.9"/>
</a>
</g>
</g>
</g>
</svg>
