<?xml version="1.0" encoding="UTF-8" standalone="no"?>
<!DOCTYPE svg PUBLIC "-//W3C//DTD SVG 1.1//EN"
 "http://www.w3.org/Graphics/SVG/1.1/DTD/svg11.dtd">
<!-- Generated by graphviz version 12.1.0 (20240811.2233)
 -->
<!-- Title: RigidBody.hpp Pages: 1 -->
<svg width="438pt" height="196pt"
 viewBox="0.00 0.00 437.50 196.00" xmlns="http://www.w3.org/2000/svg" xmlns:xlink="http://www.w3.org/1999/xlink">
<g id="graph0" class="graph" transform="scale(1 1) rotate(0) translate(4 192)">
<title>RigidBody.hpp</title>
<!-- Node1 -->
<g id="Node000001" class="node">
<title>Node1</title>
<g id="a_Node000001"><a xlink:title=" ">
<polygon fill="#999999" stroke="#666666" points="249.5,-188 170.5,-188 170.5,-168 249.5,-168 249.5,-188"/>
<text text-anchor="middle" x="210" y="-174.5" font-family="Helvetica,sans-Serif" font-size="10.00">RigidBody.hpp</text>
</a>
</g>
</g>
<!-- Node2 -->
<g id="Node000002" class="node">
<title>Node2</title>
<g id="a_Node000002"><a xlink:href="Enemy_8hpp.html" target="_top" xlink:title=" ">
<polygon fill="white" stroke="#666666" points="302.38,-132 237.62,-132 237.62,-112 302.38,-112 302.38,-132"/>
<text text-anchor="middle" x="270" y="-118.5" font-family="Helvetica,sans-Serif" font-size="10.00">Enemy.hpp</text>
</a>
</g>
</g>
<!-- Node1&#45;&gt;Node2 -->
<g id="edge1_Node000001_Node000002" class="edge">
<title>Node1&#45;&gt;Node2</title>
<g id="a_edge1_Node000001_Node000002"><a xlink:title=" ">
<path fill="none" stroke="#63b8ff" d="M228.75,-160.13C238.95,-150.94 251.19,-139.93 259.67,-132.3"/>
<polygon fill="#63b8ff" stroke="#63b8ff" points="226.67,-157.29 221.58,-166.58 231.35,-162.49 226.67,-157.29"/>
</a>
</g>
</g>
<!-- Node6 -->
<g id="Node000006" class="node">
<title>Node6</title>
<g id="a_Node000006"><a xlink:href="Server_2src_2main_8cpp.html" target="_top" xlink:title=" ">
<polygon fill="white" stroke="#666666" points="238.88,-76 183.12,-76 183.12,-56 238.88,-56 238.88,-76"/>
<text text-anchor="middle" x="211" y="-62.5" font-family="Helvetica,sans-Serif" font-size="10.00">main.cpp</text>
</a>
</g>
</g>
<!-- Node1&#45;&gt;Node6 -->
<g id="edge16_Node000001_Node000006" class="edge">
<title>Node1&#45;&gt;Node6</title>
<g id="a_edge16_Node000001_Node000006"><a xlink:title=" ">
<path fill="none" stroke="#63b8ff" d="M210.19,-156.31C210.41,-132.36 210.75,-93.95 210.91,-76.35"/>
<polygon fill="#63b8ff" stroke="#63b8ff" points="206.69,-156.08 210.1,-166.11 213.69,-156.14 206.69,-156.08"/>
</a>
</g>
</g>
<!-- Node7 -->
<g id="Node000007" class="node">
<title>Node7</title>
<g id="a_Node000007"><a xlink:href="NetworkManager_8cpp.html" target="_top" xlink:title=" ">
<polygon fill="white" stroke="#666666" points="429.5,-132 320.5,-132 320.5,-112 429.5,-112 429.5,-132"/>
<text text-anchor="middle" x="375" y="-118.5" font-family="Helvetica,sans-Serif" font-size="10.00">NetworkManager.cpp</text>
</a>
</g>
</g>
<!-- Node1&#45;&gt;Node7 -->
<g id="edge7_Node000001_Node000007" class="edge">
<title>Node1&#45;&gt;Node7</title>
<g id="a_edge7_Node000001_Node000007"><a xlink:title=" ">
<path fill="none" stroke="#63b8ff" d="M249.57,-164.05C279.28,-154.33 319.27,-141.24 346.03,-132.48"/>
<polygon fill="#63b8ff" stroke="#63b8ff" points="248.59,-160.69 240.18,-167.12 250.77,-167.34 248.59,-160.69"/>
</a>
</g>
</g>
<!-- Node8 -->
<g id="Node000008" class="node">
<title>Node8</title>
<g id="a_Node000008"><a xlink:href="Physics_8hpp.html" target="_top" xlink:title=" ">
<polygon fill="white" stroke="#666666" points="182,-132 112,-132 112,-112 182,-112 182,-132"/>
<text text-anchor="middle" x="147" y="-118.5" font-family="Helvetica,sans-Serif" font-size="10.00">Physics.hpp</text>
</a>
</g>
</g>
<!-- Node1&#45;&gt;Node8 -->
<g id="edge8_Node000001_Node000008" class="edge">
<title>Node1&#45;&gt;Node8</title>
<g id="a_edge8_Node000001_Node000008"><a xlink:title=" ">
<path fill="none" stroke="#63b8ff" d="M190.31,-160.13C179.6,-150.94 166.75,-139.93 157.85,-132.3"/>
<polygon fill="#63b8ff" stroke="#63b8ff" points="188.01,-162.76 197.88,-166.61 192.56,-157.44 188.01,-162.76"/>
</a>
</g>
</g>
<!-- Node9 -->
<g id="Node000009" class="node">
<title>Node9</title>
<g id="a_Node000009"><a xlink:href="PlayerControl_8hpp.html" target="_top" xlink:title=" ">
<polygon fill="white" stroke="#666666" points="94,-132 0,-132 0,-112 94,-112 94,-132"/>
<text text-anchor="middle" x="47" y="-118.5" font-family="Helvetica,sans-Serif" font-size="10.00">PlayerControl.hpp</text>
</a>
</g>
</g>
<!-- Node1&#45;&gt;Node9 -->
<g id="edge12_Node000001_Node000009" class="edge">
<title>Node1&#45;&gt;Node9</title>
<g id="a_edge12_Node000001_Node000009"><a xlink:title=" ">
<path fill="none" stroke="#63b8ff" d="M170.91,-164.05C141.56,-154.33 102.05,-141.24 75.61,-132.48"/>
<polygon fill="#63b8ff" stroke="#63b8ff" points="169.58,-167.3 180.17,-167.12 171.78,-160.65 169.58,-167.3"/>
</a>
</g>
</g>
<!-- Node3 -->
<g id="Node000003" class="node">
<title>Node3</title>
<g id="a_Node000003"><a xlink:href="GameTypes_8cpp.html" target="_top" xlink:title=" ">
<polygon fill="white" stroke="#666666" points="198.62,-20 111.38,-20 111.38,0 198.62,0 198.62,-20"/>
<text text-anchor="middle" x="155" y="-6.5" font-family="Helvetica,sans-Serif" font-size="10.00">GameTypes.cpp</text>
</a>
</g>
</g>
<!-- Node2&#45;&gt;Node3 -->
<g id="edge2_Node000002_Node000003" class="edge">
<title>Node2&#45;&gt;Node3</title>
<g id="a_edge2_Node000002_Node000003"><a xlink:title=" ">
<path fill="none" stroke="#63b8ff" d="M267.3,-100.56C264.53,-86.6 258.99,-68.44 248,-56 232.69,-38.65 209.19,-27.36 189.65,-20.43"/>
<polygon fill="#63b8ff" stroke="#63b8ff" points="263.85,-101.12 268.9,-110.43 270.76,-100 263.85,-101.12"/>
</a>
</g>
</g>
<!-- Node4 -->
<g id="Node000004" class="node">
<title>Node4</title>
<g id="a_Node000004"><a xlink:href="GameTypes_8hpp.html" target="_top" xlink:title=" ">
<polygon fill="white" stroke="#666666" points="126.62,-76 39.38,-76 39.38,-56 126.62,-56 126.62,-76"/>
<text text-anchor="middle" x="83" y="-62.5" font-family="Helvetica,sans-Serif" font-size="10.00">GameTypes.hpp</text>
</a>
</g>
</g>
<!-- Node2&#45;&gt;Node4 -->
<g id="edge3_Node000002_Node000004" class="edge">
<title>Node2&#45;&gt;Node4</title>
<g id="a_edge3_Node000002_Node000004"><a xlink:title=" ">
<path fill="none" stroke="#63b8ff" d="M226.48,-108.43C192.69,-98.67 146.56,-85.35 115.83,-76.48"/>
<polygon fill="#63b8ff" stroke="#63b8ff" points="225.39,-111.76 235.97,-111.17 227.34,-105.04 225.39,-111.76"/>
</a>
</g>
</g>
<!-- Node2&#45;&gt;Node6 -->
<g id="edge6_Node000002_Node000006" class="edge">
<title>Node2&#45;&gt;Node6</title>
<g id="a_edge6_Node000002_Node000006"><a xlink:title=" ">
<path fill="none" stroke="#63b8ff" d="M251.26,-103.85C241.29,-94.72 229.42,-83.86 221.16,-76.3"/>
<polygon fill="#63b8ff" stroke="#63b8ff" points="248.87,-106.4 258.61,-110.57 253.59,-101.24 248.87,-106.4"/>
</a>
</g>
</g>
<!-- Node4&#45;&gt;Node3 -->
<g id="edge4_Node000004_Node000003" class="edge">
<title>Node4&#45;&gt;Node3</title>
<g id="a_edge4_Node000004_Node000003"><a xlink:title=" ">
<path fill="none" stroke="#63b8ff" d="M104.39,-48.95C116.85,-39.61 132.11,-28.16 142.6,-20.3"/>
<polygon fill="#63b8ff" stroke="#63b8ff" points="102.65,-45.89 96.75,-54.69 106.85,-51.49 102.65,-45.89"/>
</a>
</g>
</g>
<!-- Node5 -->
<g id="Node000005" class="node">
<title>Node5</title>
<g id="a_Node000005"><a xlink:href="Client_2src_2main_8cpp.html" target="_top" xlink:title=" ">
<polygon fill="white" stroke="#666666" points="92.88,-20 37.12,-20 37.12,0 92.88,0 92.88,-20"/>
<text text-anchor="middle" x="65" y="-6.5" font-family="Helvetica,sans-Serif" font-size="10.00">main.cpp</text>
</a>
</g>
</g>
<!-- Node4&#45;&gt;Node5 -->
<g id="edge5_Node000004_Node000005" class="edge">
<title>Node4&#45;&gt;Node5</title>
<g id="a_edge5_Node000004_Node000005"><a xlink:title=" ">
<path fill="none" stroke="#63b8ff" d="M76.24,-44.71C73.44,-36.32 70.34,-27.01 68.1,-20.3"/>
<polygon fill="#63b8ff" stroke="#63b8ff" points="72.9,-45.78 79.39,-54.16 79.54,-43.56 72.9,-45.78"/>
</a>
</g>
</g>
<!-- Node8&#45;&gt;Node3 -->
<g id="edge9_Node000008_Node000003" class="edge">
<title>Node8&#45;&gt;Node3</title>
<g id="a_edge9_Node000008_Node000003"><a xlink:title=" ">
<path fill="none" stroke="#63b8ff" d="M148.5,-100.31C150.25,-76.36 153.04,-37.95 154.32,-20.35"/>
<polygon fill="#63b8ff" stroke="#63b8ff" points="145.03,-99.88 147.79,-110.11 152.01,-100.39 145.03,-99.88"/>
</a>
</g>
</g>
<!-- Node8&#45;&gt;Node4 -->
<g id="edge10_Node000008_Node000004" class="edge">
<title>Node8&#45;&gt;Node4</title>
<g id="a_edge10_Node000008_Node000004"><a xlink:title=" ">
<path fill="none" stroke="#63b8ff" d="M127.33,-104.4C116.38,-95.17 103.16,-84.01 94.02,-76.3"/>
<polygon fill="#63b8ff" stroke="#63b8ff" points="124.8,-106.84 134.7,-110.62 129.31,-101.49 124.8,-106.84"/>
</a>
</g>
</g>
<!-- Node8&#45;&gt;Node6 -->
<g id="edge11_Node000008_Node000006" class="edge">
<title>Node8&#45;&gt;Node6</title>
<g id="a_edge11_Node000008_Node000006"><a xlink:title=" ">
<path fill="none" stroke="#63b8ff" d="M166.67,-104.4C177.62,-95.17 190.84,-84.01 199.98,-76.3"/>
<polygon fill="#63b8ff" stroke="#63b8ff" points="164.69,-101.49 159.3,-110.62 169.2,-106.84 164.69,-101.49"/>
</a>
</g>
</g>
<!-- Node9&#45;&gt;Node3 -->
<g id="edge13_Node000009_Node000003" class="edge">
<title>Node9&#45;&gt;Node3</title>
<g id="a_edge13_Node000009_Node000003"><a xlink:title=" ">
<path fill="none" stroke="#63b8ff" d="M34.45,-102.29C26.88,-88.44 20.38,-69.69 30,-56 39.95,-41.85 81.15,-28.83 113.57,-20.48"/>
<polygon fill="#63b8ff" stroke="#63b8ff" points="31.23,-103.73 39.42,-110.46 37.21,-100.1 31.23,-103.73"/>
</a>
</g>
</g>
<!-- Node9&#45;&gt;Node4 -->
<g id="edge14_Node000009_Node000004" class="edge">
<title>Node9&#45;&gt;Node4</title>
<g id="a_edge14_Node000009_Node000004"><a xlink:title=" ">
<path fill="none" stroke="#63b8ff" d="M59.57,-102.15C65.4,-93.4 72.07,-83.39 76.8,-76.3"/>
<polygon fill="#63b8ff" stroke="#63b8ff" points="56.75,-100.07 54.11,-110.33 62.57,-103.96 56.75,-100.07"/>
</a>
</g>
</g>
<!-- Node9&#45;&gt;Node6 -->
<g id="edge15_Node000009_Node000006" class="edge">
<title>Node9&#45;&gt;Node6</title>
<g id="a_edge15_Node000009_Node000006"><a xlink:title=" ">
<path fill="none" stroke="#63b8ff" d="M86.4,-108.03C116.12,-98.24 156.18,-85.05 182.76,-76.3"/>
<polygon fill="#63b8ff" stroke="#63b8ff" points="85.41,-104.67 77,-111.12 87.6,-111.32 85.41,-104.67"/>
</a>
</g>
</g>
</g>
</svg>
