<?xml version="1.0" encoding="UTF-8" standalone="no"?>
<!DOCTYPE svg PUBLIC "-//W3C//DTD SVG 1.1//EN"
 "http://www.w3.org/Graphics/SVG/1.1/DTD/svg11.dtd">
<!-- Generated by graphviz version 12.1.0 (20240811.2233)
 -->
<!-- Title: RigidBody.hpp Pages: 1 -->
<svg width="827pt" height="252pt"
 viewBox="0.00 0.00 827.12 252.00" xmlns="http://www.w3.org/2000/svg" xmlns:xlink="http://www.w3.org/1999/xlink">
<g id="graph0" class="graph" transform="scale(1 1) rotate(0) translate(4 248)">
<title>RigidBody.hpp</title>
<!-- Node1 -->
<g id="Node000001" class="node">
<title>Node1</title>
<g id="a_Node000001"><a xlink:title=" ">
<polygon fill="#999999" stroke="#666666" points="517.88,-244 438.88,-244 438.88,-224 517.88,-224 517.88,-244"/>
<text text-anchor="middle" x="478.38" y="-230.5" font-family="Helvetica,sans-Serif" font-size="10.00">RigidBody.hpp</text>
</a>
</g>
</g>
<!-- Node2 -->
<g id="Node000002" class="node">
<title>Node2</title>
<g id="a_Node000002"><a xlink:href="DevConsole_8hpp.html" target="_top" xlink:title=" ">
<polygon fill="white" stroke="#666666" points="88.75,-132 0,-132 0,-112 88.75,-112 88.75,-132"/>
<text text-anchor="middle" x="44.38" y="-118.5" font-family="Helvetica,sans-Serif" font-size="10.00">DevConsole.hpp</text>
</a>
</g>
</g>
<!-- Node1&#45;&gt;Node2 -->
<g id="edge1_Node000001_Node000002" class="edge">
<title>Node1&#45;&gt;Node2</title>
<g id="a_edge1_Node000001_Node000002"><a xlink:title=" ">
<path fill="none" stroke="#63b8ff" d="M427.32,-228.81C369.81,-223.2 273.97,-211.15 194.38,-188 144.5,-173.5 89.28,-146.51 61.84,-132.3"/>
<polygon fill="#63b8ff" stroke="#63b8ff" points="426.85,-232.28 437.13,-229.74 427.51,-225.31 426.85,-232.28"/>
</a>
</g>
</g>
<!-- Node6 -->
<g id="Node000006" class="node">
<title>Node6</title>
<g id="a_Node000006"><a xlink:href="Enemy_8hpp.html" target="_top" xlink:title=" ">
<polygon fill="white" stroke="#666666" points="510.75,-188 446,-188 446,-168 510.75,-168 510.75,-188"/>
<text text-anchor="middle" x="478.38" y="-174.5" font-family="Helvetica,sans-Serif" font-size="10.00">Enemy.hpp</text>
</a>
</g>
</g>
<!-- Node1&#45;&gt;Node6 -->
<g id="edge6_Node000001_Node000006" class="edge">
<title>Node1&#45;&gt;Node6</title>
<g id="a_edge6_Node000001_Node000006"><a xlink:title=" ">
<path fill="none" stroke="#63b8ff" d="M478.38,-212.13C478.38,-203.9 478.38,-194.85 478.38,-188.3"/>
<polygon fill="#63b8ff" stroke="#63b8ff" points="474.88,-212.08 478.38,-222.08 481.88,-212.08 474.88,-212.08"/>
</a>
</g>
</g>
<!-- Node8 -->
<g id="Node000008" class="node">
<title>Node8</title>
<g id="a_Node000008"><a xlink:href="Server_8cpp.html" target="_top" xlink:title=" ">
<polygon fill="white" stroke="#666666" points="588,-76 524.75,-76 524.75,-56 588,-56 588,-76"/>
<text text-anchor="middle" x="556.38" y="-62.5" font-family="Helvetica,sans-Serif" font-size="10.00">Server.cpp</text>
</a>
</g>
</g>
<!-- Node1&#45;&gt;Node8 -->
<g id="edge25_Node000001_Node000008" class="edge">
<title>Node1&#45;&gt;Node8</title>
<g id="a_edge25_Node000001_Node000008"><a xlink:title=" ">
<path fill="none" stroke="#63b8ff" d="M497.46,-215.74C505.17,-207.91 513.6,-198.14 519.38,-188 541.12,-149.83 551.47,-97.45 554.96,-76.36"/>
<polygon fill="#63b8ff" stroke="#63b8ff" points="495.1,-213.15 490.33,-222.61 499.96,-218.19 495.1,-213.15"/>
</a>
</g>
</g>
<!-- Node10 -->
<g id="Node000010" class="node">
<title>Node10</title>
<g id="a_Node000010"><a xlink:href="NetworkManager_8cpp.html" target="_top" xlink:title=" ">
<polygon fill="white" stroke="#666666" points="675.88,-188 566.88,-188 566.88,-168 675.88,-168 675.88,-188"/>
<text text-anchor="middle" x="621.38" y="-174.5" font-family="Helvetica,sans-Serif" font-size="10.00">NetworkManager.cpp</text>
</a>
</g>
</g>
<!-- Node1&#45;&gt;Node10 -->
<g id="edge12_Node000001_Node000010" class="edge">
<title>Node1&#45;&gt;Node10</title>
<g id="a_edge12_Node000001_Node000010"><a xlink:title=" ">
<path fill="none" stroke="#63b8ff" d="M514.04,-219.53C539.63,-209.87 573.48,-197.08 596.27,-188.48"/>
<polygon fill="#63b8ff" stroke="#63b8ff" points="512.82,-216.25 504.7,-223.06 515.29,-222.8 512.82,-216.25"/>
</a>
</g>
</g>
<!-- Node11 -->
<g id="Node000011" class="node">
<title>Node11</title>
<g id="a_Node000011"><a xlink:href="PhysicsNoEngine_8hpp.html" target="_top" xlink:title=" ">
<polygon fill="white" stroke="#666666" points="427.75,-188 315,-188 315,-168 427.75,-168 427.75,-188"/>
<text text-anchor="middle" x="371.38" y="-174.5" font-family="Helvetica,sans-Serif" font-size="10.00">PhysicsNoEngine.hpp</text>
</a>
</g>
</g>
<!-- Node1&#45;&gt;Node11 -->
<g id="edge13_Node000001_Node000011" class="edge">
<title>Node1&#45;&gt;Node11</title>
<g id="a_edge13_Node000001_Node000011"><a xlink:title=" ">
<path fill="none" stroke="#63b8ff" d="M449.6,-218.48C430.73,-208.96 406.6,-196.78 390.16,-188.48"/>
<polygon fill="#63b8ff" stroke="#63b8ff" points="447.88,-221.53 458.39,-222.91 451.04,-215.28 447.88,-221.53"/>
</a>
</g>
</g>
<!-- Node12 -->
<g id="Node000012" class="node">
<title>Node12</title>
<g id="a_Node000012"><a xlink:href="PhysicsUsingEngine_8hpp.html" target="_top" xlink:title=" ">
<polygon fill="white" stroke="#666666" points="819.12,-188 693.62,-188 693.62,-168 819.12,-168 819.12,-188"/>
<text text-anchor="middle" x="756.38" y="-174.5" font-family="Helvetica,sans-Serif" font-size="10.00">PhysicsUsingEngine.hpp</text>
</a>
</g>
</g>
<!-- Node1&#45;&gt;Node12 -->
<g id="edge17_Node000001_Node000012" class="edge">
<title>Node1&#45;&gt;Node12</title>
<g id="a_edge17_Node000001_Node000012"><a xlink:title=" ">
<path fill="none" stroke="#63b8ff" d="M529.26,-223.12C580.1,-213.24 657.69,-198.17 707.73,-188.45"/>
<polygon fill="#63b8ff" stroke="#63b8ff" points="528.84,-219.63 519.69,-224.97 530.18,-226.5 528.84,-219.63"/>
</a>
</g>
</g>
<!-- Node13 -->
<g id="Node000013" class="node">
<title>Node13</title>
<g id="a_Node000013"><a xlink:href="PlayerControl_8hpp.html" target="_top" xlink:title=" ">
<polygon fill="white" stroke="#666666" points="297.38,-188 203.38,-188 203.38,-168 297.38,-168 297.38,-188"/>
<text text-anchor="middle" x="250.38" y="-174.5" font-family="Helvetica,sans-Serif" font-size="10.00">PlayerControl.hpp</text>
</a>
</g>
</g>
<!-- Node1&#45;&gt;Node13 -->
<g id="edge18_Node000001_Node000013" class="edge">
<title>Node1&#45;&gt;Node13</title>
<g id="a_edge18_Node000001_Node000013"><a xlink:title=" ">
<path fill="none" stroke="#63b8ff" d="M427.45,-220.94C386.04,-211.13 328.43,-197.49 290.3,-188.46"/>
<polygon fill="#63b8ff" stroke="#63b8ff" points="426.39,-224.28 436.93,-223.18 428,-217.47 426.39,-224.28"/>
</a>
</g>
</g>
<!-- Node3 -->
<g id="Node000003" class="node">
<title>Node3</title>
<g id="a_Node000003"><a xlink:href="GameTypes_8cpp.html" target="_top" xlink:title=" ">
<polygon fill="white" stroke="#666666" points="316,-20 228.75,-20 228.75,0 316,0 316,-20"/>
<text text-anchor="middle" x="272.38" y="-6.5" font-family="Helvetica,sans-Serif" font-size="10.00">GameTypes.cpp</text>
</a>
</g>
</g>
<!-- Node2&#45;&gt;Node3 -->
<g id="edge2_Node000002_Node000003" class="edge">
<title>Node2&#45;&gt;Node3</title>
<g id="a_edge2_Node000002_Node000003"><a xlink:title=" ">
<path fill="none" stroke="#63b8ff" d="M55.85,-102.74C66.06,-87.99 82.29,-67.81 101.38,-56 140.4,-31.85 192.16,-20.56 228.48,-15.35"/>
<polygon fill="#63b8ff" stroke="#63b8ff" points="53.22,-100.38 50.63,-110.65 59.06,-104.24 53.22,-100.38"/>
</a>
</g>
</g>
<!-- Node4 -->
<g id="Node000004" class="node">
<title>Node4</title>
<g id="a_Node000004"><a xlink:href="GameTypes_8hpp.html" target="_top" xlink:title=" ">
<polygon fill="white" stroke="#666666" points="198,-76 110.75,-76 110.75,-56 198,-56 198,-76"/>
<text text-anchor="middle" x="154.38" y="-62.5" font-family="Helvetica,sans-Serif" font-size="10.00">GameTypes.hpp</text>
</a>
</g>
</g>
<!-- Node2&#45;&gt;Node4 -->
<g id="edge3_Node000002_Node000004" class="edge">
<title>Node2&#45;&gt;Node4</title>
<g id="a_edge3_Node000002_Node000004"><a xlink:title=" ">
<path fill="none" stroke="#63b8ff" d="M73.68,-106.61C93.12,-97.07 118.09,-84.81 135.06,-76.48"/>
<polygon fill="#63b8ff" stroke="#63b8ff" points="72.33,-103.38 64.89,-110.93 75.41,-109.66 72.33,-103.38"/>
</a>
</g>
</g>
<!-- Node4&#45;&gt;Node3 -->
<g id="edge4_Node000004_Node000003" class="edge">
<title>Node4&#45;&gt;Node3</title>
<g id="a_edge4_Node000004_Node000003"><a xlink:title=" ">
<path fill="none" stroke="#63b8ff" d="M185.24,-50.88C206.17,-41.3 233.28,-28.89 251.66,-20.48"/>
<polygon fill="#63b8ff" stroke="#63b8ff" points="183.94,-47.62 176.31,-54.96 186.85,-53.99 183.94,-47.62"/>
</a>
</g>
</g>
<!-- Node5 -->
<g id="Node000005" class="node">
<title>Node5</title>
<g id="a_Node000005"><a xlink:href="Client_2src_2main_8cpp.html" target="_top" xlink:title=" ">
<polygon fill="white" stroke="#666666" points="182.25,-20 126.5,-20 126.5,0 182.25,0 182.25,-20"/>
<text text-anchor="middle" x="154.38" y="-6.5" font-family="Helvetica,sans-Serif" font-size="10.00">main.cpp</text>
</a>
</g>
</g>
<!-- Node4&#45;&gt;Node5 -->
<g id="edge5_Node000004_Node000005" class="edge">
<title>Node4&#45;&gt;Node5</title>
<g id="a_edge5_Node000004_Node000005"><a xlink:title=" ">
<path fill="none" stroke="#63b8ff" d="M154.38,-44.13C154.38,-35.9 154.38,-26.85 154.38,-20.3"/>
<polygon fill="#63b8ff" stroke="#63b8ff" points="150.88,-44.08 154.38,-54.08 157.88,-44.08 150.88,-44.08"/>
</a>
</g>
</g>
<!-- Node6&#45;&gt;Node3 -->
<g id="edge7_Node000006_Node000003" class="edge">
<title>Node6&#45;&gt;Node3</title>
<g id="a_edge7_Node000006_Node000003"><a xlink:title=" ">
<path fill="none" stroke="#63b8ff" d="M484.37,-156.81C490.89,-130.32 497.42,-83.92 473.38,-56 453.25,-32.63 368.98,-20.32 316.15,-14.78"/>
<polygon fill="#63b8ff" stroke="#63b8ff" points="481.04,-155.72 481.8,-166.29 487.8,-157.55 481.04,-155.72"/>
</a>
</g>
</g>
<!-- Node6&#45;&gt;Node4 -->
<g id="edge8_Node000006_Node000004" class="edge">
<title>Node6&#45;&gt;Node4</title>
<g id="a_edge8_Node000006_Node000004"><a xlink:title=" ">
<path fill="none" stroke="#63b8ff" d="M439.69,-163.87C373.55,-141.41 240.26,-96.16 182.33,-76.49"/>
<polygon fill="#63b8ff" stroke="#63b8ff" points="438.44,-167.14 449.04,-167.04 440.69,-160.51 438.44,-167.14"/>
</a>
</g>
</g>
<!-- Node7 -->
<g id="Node000007" class="node">
<title>Node7</title>
<g id="a_Node000007"><a xlink:href="Server_8hpp.html" target="_top" xlink:title=" ">
<polygon fill="white" stroke="#666666" points="468,-132 404.75,-132 404.75,-112 468,-112 468,-132"/>
<text text-anchor="middle" x="436.38" y="-118.5" font-family="Helvetica,sans-Serif" font-size="10.00">Server.hpp</text>
</a>
</g>
</g>
<!-- Node6&#45;&gt;Node7 -->
<g id="edge9_Node000006_Node000007" class="edge">
<title>Node6&#45;&gt;Node7</title>
<g id="a_edge9_Node000006_Node000007"><a xlink:title=" ">
<path fill="none" stroke="#63b8ff" d="M464.16,-158.72C457.25,-149.84 449.24,-139.55 443.61,-132.3"/>
<polygon fill="#63b8ff" stroke="#63b8ff" points="461.23,-160.65 470.13,-166.4 466.75,-156.36 461.23,-160.65"/>
</a>
</g>
</g>
<!-- Node7&#45;&gt;Node8 -->
<g id="edge10_Node000007_Node000008" class="edge">
<title>Node7&#45;&gt;Node8</title>
<g id="a_edge10_Node000007_Node000008"><a xlink:title=" ">
<path fill="none" stroke="#63b8ff" d="M467.76,-106.88C489.05,-97.3 516.62,-84.89 535.31,-76.48"/>
<polygon fill="#63b8ff" stroke="#63b8ff" points="466.34,-103.68 458.66,-110.97 469.21,-110.06 466.34,-103.68"/>
</a>
</g>
</g>
<!-- Node9 -->
<g id="Node000009" class="node">
<title>Node9</title>
<g id="a_Node000009"><a xlink:href="Server_2src_2main_8cpp.html" target="_top" xlink:title=" ">
<polygon fill="white" stroke="#666666" points="464.25,-76 408.5,-76 408.5,-56 464.25,-56 464.25,-76"/>
<text text-anchor="middle" x="436.38" y="-62.5" font-family="Helvetica,sans-Serif" font-size="10.00">main.cpp</text>
</a>
</g>
</g>
<!-- Node7&#45;&gt;Node9 -->
<g id="edge11_Node000007_Node000009" class="edge">
<title>Node7&#45;&gt;Node9</title>
<g id="a_edge11_Node000007_Node000009"><a xlink:title=" ">
<path fill="none" stroke="#63b8ff" d="M436.38,-100.13C436.38,-91.9 436.38,-82.85 436.38,-76.3"/>
<polygon fill="#63b8ff" stroke="#63b8ff" points="432.88,-100.08 436.38,-110.08 439.88,-100.08 432.88,-100.08"/>
</a>
</g>
</g>
<!-- Node11&#45;&gt;Node3 -->
<g id="edge14_Node000011_Node000003" class="edge">
<title>Node11&#45;&gt;Node3</title>
<g id="a_edge14_Node000011_Node000003"><a xlink:title=" ">
<path fill="none" stroke="#63b8ff" d="M359.99,-157.9C338.7,-122.22 293.64,-46.65 277.92,-20.3"/>
<polygon fill="#63b8ff" stroke="#63b8ff" points="356.87,-159.5 364.99,-166.3 362.88,-155.92 356.87,-159.5"/>
</a>
</g>
</g>
<!-- Node11&#45;&gt;Node4 -->
<g id="edge15_Node000011_Node000004" class="edge">
<title>Node11&#45;&gt;Node4</title>
<g id="a_edge15_Node000011_Node000004"><a xlink:title=" ">
<path fill="none" stroke="#63b8ff" d="M305.65,-165.47C251.89,-155.49 183.19,-141.23 173.38,-132 157.79,-117.34 154.76,-90.67 154.31,-76.48"/>
<polygon fill="#63b8ff" stroke="#63b8ff" points="304.91,-168.89 315.38,-167.26 306.18,-162.01 304.91,-168.89"/>
</a>
</g>
</g>
<!-- Node11&#45;&gt;Node7 -->
<g id="edge16_Node000011_Node000007" class="edge">
<title>Node11&#45;&gt;Node7</title>
<g id="a_edge16_Node000011_Node000007"><a xlink:title=" ">
<path fill="none" stroke="#63b8ff" d="M391.35,-160.4C402.47,-151.17 415.9,-140.01 425.18,-132.3"/>
<polygon fill="#63b8ff" stroke="#63b8ff" points="389.32,-157.54 383.86,-166.63 393.79,-162.93 389.32,-157.54"/>
</a>
</g>
</g>
<!-- Node13&#45;&gt;Node3 -->
<g id="edge19_Node000013_Node000003" class="edge">
<title>Node13&#45;&gt;Node3</title>
<g id="a_edge19_Node000013_Node000003"><a xlink:title=" ">
<path fill="none" stroke="#63b8ff" d="M266.61,-158.84C272.46,-151.12 278.36,-141.68 281.38,-132 293.83,-91.97 281.48,-41.06 275.37,-20.37"/>
<polygon fill="#63b8ff" stroke="#63b8ff" points="264.04,-156.45 260.41,-166.4 269.45,-160.89 264.04,-156.45"/>
</a>
</g>
</g>
<!-- Node13&#45;&gt;Node4 -->
<g id="edge20_Node000013_Node000004" class="edge">
<title>Node13&#45;&gt;Node4</title>
<g id="a_edge20_Node000013_Node000004"><a xlink:title=" ">
<path fill="none" stroke="#63b8ff" d="M192.12,-166.89C172.32,-160.36 152.21,-149.63 140.38,-132 128.79,-114.75 140.42,-89.62 148.34,-76.22"/>
<polygon fill="#63b8ff" stroke="#63b8ff" points="191.01,-170.21 201.59,-169.67 192.98,-163.49 191.01,-170.21"/>
</a>
</g>
</g>
<!-- Node13&#45;&gt;Node7 -->
<g id="edge21_Node000013_Node000007" class="edge">
<title>Node13&#45;&gt;Node7</title>
<g id="a_edge21_Node000013_Node000007"><a xlink:title=" ">
<path fill="none" stroke="#63b8ff" d="M293.73,-164.41C327.57,-154.59 373.8,-141.17 404.35,-132.3"/>
<polygon fill="#63b8ff" stroke="#63b8ff" points="292.85,-161.02 284.23,-167.17 294.81,-167.74 292.85,-161.02"/>
</a>
</g>
</g>
<!-- Node14 -->
<g id="Node000014" class="node">
<title>Node14</title>
<g id="a_Node000014"><a xlink:href="SoundPlayer_8hpp.html" target="_top" xlink:title=" ">
<polygon fill="white" stroke="#666666" points="272.5,-132 182.25,-132 182.25,-112 272.5,-112 272.5,-132"/>
<text text-anchor="middle" x="227.38" y="-118.5" font-family="Helvetica,sans-Serif" font-size="10.00">SoundPlayer.hpp</text>
</a>
</g>
</g>
<!-- Node13&#45;&gt;Node14 -->
<g id="edge22_Node000013_Node000014" class="edge">
<title>Node13&#45;&gt;Node14</title>
<g id="a_edge22_Node000013_Node000014"><a xlink:title=" ">
<path fill="none" stroke="#63b8ff" d="M241.86,-157C238.25,-148.54 234.23,-139.08 231.34,-132.3"/>
<polygon fill="#63b8ff" stroke="#63b8ff" points="238.64,-158.37 245.78,-166.2 245.08,-155.63 238.64,-158.37"/>
</a>
</g>
</g>
<!-- Node14&#45;&gt;Node3 -->
<g id="edge23_Node000014_Node000003" class="edge">
<title>Node14&#45;&gt;Node3</title>
<g id="a_edge23_Node000014_Node000003"><a xlink:title=" ">
<path fill="none" stroke="#63b8ff" d="M235.57,-100.97C245.35,-77.07 261.28,-38.11 268.55,-20.35"/>
<polygon fill="#63b8ff" stroke="#63b8ff" points="232.33,-99.64 231.78,-110.22 238.81,-102.29 232.33,-99.64"/>
</a>
</g>
</g>
<!-- Node14&#45;&gt;Node4 -->
<g id="edge24_Node000014_Node000004" class="edge">
<title>Node14&#45;&gt;Node4</title>
<g id="a_edge24_Node000014_Node000004"><a xlink:title=" ">
<path fill="none" stroke="#63b8ff" d="M205.68,-104.95C193.06,-95.61 177.58,-84.16 166.94,-76.3"/>
<polygon fill="#63b8ff" stroke="#63b8ff" points="203.32,-107.56 213.44,-110.69 207.48,-101.93 203.32,-107.56"/>
</a>
</g>
</g>
</g>
</svg>
