<?xml version="1.0" encoding="UTF-8" standalone="no"?>
<!DOCTYPE svg PUBLIC "-//W3C//DTD SVG 1.1//EN"
 "http://www.w3.org/Graphics/SVG/1.1/DTD/svg11.dtd">
<!-- Generated by graphviz version 12.1.0 (20240811.2233)
 -->
<!-- Title: RigidBody.hpp Pages: 1 -->
<svg width="190pt" height="140pt"
 viewBox="0.00 0.00 190.00 140.00" xmlns="http://www.w3.org/2000/svg" xmlns:xlink="http://www.w3.org/1999/xlink">
<g id="graph0" class="graph" transform="scale(1 1) rotate(0) translate(4 136)">
<title>RigidBody.hpp</title>
<!-- Node1 -->
<g id="Node000001" class="node">
<title>Node1</title>
<g id="a_Node000001"><a xlink:title=" ">
<polygon fill="#999999" stroke="#666666" points="124.5,-132 45.5,-132 45.5,-112 124.5,-112 124.5,-132"/>
<text text-anchor="middle" x="85" y="-118.5" font-family="Helvetica,sans-Serif" font-size="10.00">RigidBody.hpp</text>
</a>
</g>
</g>
<!-- Node2 -->
<g id="Node000002" class="node">
<title>Node2</title>
<g id="a_Node000002"><a xlink:href="Physics_8hpp.html" target="_top" xlink:title=" ">
<polygon fill="white" stroke="#666666" points="70,-76 0,-76 0,-56 70,-56 70,-76"/>
<text text-anchor="middle" x="35" y="-62.5" font-family="Helvetica,sans-Serif" font-size="10.00">Physics.hpp</text>
</a>
</g>
</g>
<!-- Node1&#45;&gt;Node2 -->
<g id="edge1_Node000001_Node000002" class="edge">
<title>Node1&#45;&gt;Node2</title>
<g id="a_edge1_Node000001_Node000002"><a xlink:title=" ">
<path fill="none" stroke="#63b8ff" d="M68.6,-103.29C60.26,-94.28 50.46,-83.7 43.61,-76.3"/>
<polygon fill="#63b8ff" stroke="#63b8ff" points="65.9,-105.52 75.26,-110.48 71.04,-100.77 65.9,-105.52"/>
</a>
</g>
</g>
<!-- Node4 -->
<g id="Node000004" class="node">
<title>Node4</title>
<g id="a_Node000004"><a xlink:href="PlayerControl_8hpp.html" target="_top" xlink:title=" ">
<polygon fill="white" stroke="#666666" points="182,-76 88,-76 88,-56 182,-56 182,-76"/>
<text text-anchor="middle" x="135" y="-62.5" font-family="Helvetica,sans-Serif" font-size="10.00">PlayerControl.hpp</text>
</a>
</g>
</g>
<!-- Node1&#45;&gt;Node4 -->
<g id="edge3_Node000001_Node000004" class="edge">
<title>Node1&#45;&gt;Node4</title>
<g id="a_edge3_Node000001_Node000004"><a xlink:title=" ">
<path fill="none" stroke="#63b8ff" d="M101.4,-103.29C109.74,-94.28 119.54,-83.7 126.39,-76.3"/>
<polygon fill="#63b8ff" stroke="#63b8ff" points="98.96,-100.77 94.74,-110.48 104.1,-105.52 98.96,-100.77"/>
</a>
</g>
</g>
<!-- Node3 -->
<g id="Node000003" class="node">
<title>Node3</title>
<g id="a_Node000003"><a xlink:href="GameTypes_8cpp.html" target="_top" xlink:title=" ">
<polygon fill="white" stroke="#666666" points="128.62,-20 41.38,-20 41.38,0 128.62,0 128.62,-20"/>
<text text-anchor="middle" x="85" y="-6.5" font-family="Helvetica,sans-Serif" font-size="10.00">GameTypes.cpp</text>
</a>
</g>
</g>
<!-- Node2&#45;&gt;Node3 -->
<g id="edge2_Node000002_Node000003" class="edge">
<title>Node2&#45;&gt;Node3</title>
<g id="a_edge2_Node000002_Node000003"><a xlink:title=" ">
<path fill="none" stroke="#63b8ff" d="M51.4,-47.29C59.74,-38.28 69.54,-27.7 76.39,-20.3"/>
<polygon fill="#63b8ff" stroke="#63b8ff" points="48.96,-44.77 44.74,-54.48 54.1,-49.52 48.96,-44.77"/>
</a>
</g>
</g>
<!-- Node4&#45;&gt;Node3 -->
<g id="edge4_Node000004_Node000003" class="edge">
<title>Node4&#45;&gt;Node3</title>
<g id="a_edge4_Node000004_Node000003"><a xlink:title=" ">
<path fill="none" stroke="#63b8ff" d="M118.6,-47.29C110.26,-38.28 100.46,-27.7 93.61,-20.3"/>
<polygon fill="#63b8ff" stroke="#63b8ff" points="115.9,-49.52 125.26,-54.48 121.04,-44.77 115.9,-49.52"/>
</a>
</g>
</g>
</g>
</svg>
