<?xml version="1.0" encoding="UTF-8" standalone="no"?>
<!DOCTYPE svg PUBLIC "-//W3C//DTD SVG 1.1//EN"
 "http://www.w3.org/Graphics/SVG/1.1/DTD/svg11.dtd">
<!-- Generated by graphviz version 12.1.0 (20240811.2233)
 -->
<!-- Title: Room.hpp Pages: 1 -->
<svg width="361pt" height="196pt"
 viewBox="0.00 0.00 361.12 196.00" xmlns="http://www.w3.org/2000/svg" xmlns:xlink="http://www.w3.org/1999/xlink">
<g id="graph0" class="graph" transform="scale(1 1) rotate(0) translate(4 192)">
<title>Room.hpp</title>
<!-- Node1 -->
<g id="Node000001" class="node">
<title>Node1</title>
<g id="a_Node000001"><a xlink:title=" ">
<polygon fill="#999999" stroke="#666666" points="120,-188 59,-188 59,-168 120,-168 120,-188"/>
<text text-anchor="middle" x="89.5" y="-174.5" font-family="Helvetica,sans-Serif" font-size="10.00">Room.hpp</text>
</a>
</g>
</g>
<!-- Node2 -->
<g id="Node000002" class="node">
<title>Node2</title>
<g id="a_Node000002"><a xlink:href="Room_8cpp.html" target="_top" xlink:title=" ">
<polygon fill="white" stroke="#666666" points="61,-132 0,-132 0,-112 61,-112 61,-132"/>
<text text-anchor="middle" x="30.5" y="-118.5" font-family="Helvetica,sans-Serif" font-size="10.00">Room.cpp</text>
</a>
</g>
</g>
<!-- Node1&#45;&gt;Node2 -->
<g id="edge1_Node000001_Node000002" class="edge">
<title>Node1&#45;&gt;Node2</title>
<g id="a_edge1_Node000001_Node000002"><a xlink:title=" ">
<path fill="none" stroke="#63b8ff" d="M70.76,-159.85C60.79,-150.72 48.92,-139.86 40.66,-132.3"/>
<polygon fill="#63b8ff" stroke="#63b8ff" points="68.37,-162.4 78.11,-166.57 73.09,-157.24 68.37,-162.4"/>
</a>
</g>
</g>
<!-- Node3 -->
<g id="Node000003" class="node">
<title>Node3</title>
<g id="a_Node000003"><a xlink:href="RoomManager_8hpp.html" target="_top" xlink:title=" ">
<polygon fill="white" stroke="#666666" points="234.75,-132 136.25,-132 136.25,-112 234.75,-112 234.75,-132"/>
<text text-anchor="middle" x="185.5" y="-118.5" font-family="Helvetica,sans-Serif" font-size="10.00">RoomManager.hpp</text>
</a>
</g>
</g>
<!-- Node1&#45;&gt;Node3 -->
<g id="edge2_Node000001_Node000003" class="edge">
<title>Node1&#45;&gt;Node3</title>
<g id="a_edge2_Node000001_Node000003"><a xlink:title=" ">
<path fill="none" stroke="#63b8ff" d="M116.02,-162.08C132.85,-152.62 154.1,-140.66 168.65,-132.48"/>
<polygon fill="#63b8ff" stroke="#63b8ff" points="114.54,-158.9 107.54,-166.85 117.97,-165 114.54,-158.9"/>
</a>
</g>
</g>
<!-- Node5 -->
<g id="Node000005" class="node">
<title>Node5</title>
<g id="a_Node000005"><a xlink:href="UdpServer_8cpp.html" target="_top" xlink:title=" ">
<polygon fill="white" stroke="#666666" points="168.12,-20 86.88,-20 86.88,0 168.12,0 168.12,-20"/>
<text text-anchor="middle" x="127.5" y="-6.5" font-family="Helvetica,sans-Serif" font-size="10.00">UdpServer.cpp</text>
</a>
</g>
</g>
<!-- Node1&#45;&gt;Node5 -->
<g id="edge8_Node000001_Node000005" class="edge">
<title>Node1&#45;&gt;Node5</title>
<g id="a_edge8_Node000001_Node000005"><a xlink:title=" ">
<path fill="none" stroke="#63b8ff" d="M94.19,-156.5C102.49,-120.27 119.42,-46.31 125.37,-20.3"/>
<polygon fill="#63b8ff" stroke="#63b8ff" points="90.81,-155.6 91.99,-166.12 97.63,-157.16 90.81,-155.6"/>
</a>
</g>
</g>
<!-- Node4 -->
<g id="Node000004" class="node">
<title>Node4</title>
<g id="a_Node000004"><a xlink:href="RoomManager_8cpp.html" target="_top" xlink:title=" ">
<polygon fill="white" stroke="#666666" points="253.75,-76 155.25,-76 155.25,-56 253.75,-56 253.75,-76"/>
<text text-anchor="middle" x="204.5" y="-62.5" font-family="Helvetica,sans-Serif" font-size="10.00">RoomManager.cpp</text>
</a>
</g>
</g>
<!-- Node3&#45;&gt;Node4 -->
<g id="edge3_Node000003_Node000004" class="edge">
<title>Node3&#45;&gt;Node4</title>
<g id="a_edge3_Node000003_Node000004"><a xlink:title=" ">
<path fill="none" stroke="#63b8ff" d="M192.54,-101C195.51,-92.54 198.84,-83.08 201.23,-76.3"/>
<polygon fill="#63b8ff" stroke="#63b8ff" points="189.33,-99.57 189.31,-110.17 195.93,-101.89 189.33,-99.57"/>
</a>
</g>
</g>
<!-- Node3&#45;&gt;Node5 -->
<g id="edge4_Node000003_Node000005" class="edge">
<title>Node3&#45;&gt;Node5</title>
<g id="a_edge4_Node000003_Node000005"><a xlink:title=" ">
<path fill="none" stroke="#63b8ff" d="M167.31,-103.62C159.97,-95.77 151.97,-86.02 146.5,-76 136.48,-57.63 131.21,-33.38 128.93,-20.31"/>
<polygon fill="#63b8ff" stroke="#63b8ff" points="164.58,-105.83 174.08,-110.51 169.57,-100.92 164.58,-105.83"/>
</a>
</g>
</g>
<!-- Node6 -->
<g id="Node000006" class="node">
<title>Node6</title>
<g id="a_Node000006"><a xlink:href="UdpServer_8hpp.html" target="_top" xlink:title=" ">
<polygon fill="white" stroke="#666666" points="353.12,-76 271.88,-76 271.88,-56 353.12,-56 353.12,-76"/>
<text text-anchor="middle" x="312.5" y="-62.5" font-family="Helvetica,sans-Serif" font-size="10.00">UdpServer.hpp</text>
</a>
</g>
</g>
<!-- Node3&#45;&gt;Node6 -->
<g id="edge5_Node000003_Node000006" class="edge">
<title>Node3&#45;&gt;Node6</title>
<g id="a_edge5_Node000003_Node000006"><a xlink:title=" ">
<path fill="none" stroke="#63b8ff" d="M218.1,-107.14C240.71,-97.52 270.24,-84.97 290.21,-76.48"/>
<polygon fill="#63b8ff" stroke="#63b8ff" points="216.85,-103.87 209.01,-111 219.59,-110.31 216.85,-103.87"/>
</a>
</g>
</g>
<!-- Node6&#45;&gt;Node5 -->
<g id="edge6_Node000006_Node000005" class="edge">
<title>Node6&#45;&gt;Node5</title>
<g id="a_edge6_Node000006_Node000005"><a xlink:title=" ">
<path fill="none" stroke="#63b8ff" d="M269.45,-52.43C236.02,-42.67 190.38,-29.35 159.98,-20.48"/>
<polygon fill="#63b8ff" stroke="#63b8ff" points="268.24,-55.73 278.82,-55.17 270.2,-49.01 268.24,-55.73"/>
</a>
</g>
</g>
<!-- Node7 -->
<g id="Node000007" class="node">
<title>Node7</title>
<g id="a_Node000007"><a xlink:href="Server_2src_2main_8cpp.html" target="_top" xlink:title=" ">
<polygon fill="white" stroke="#666666" points="340.38,-20 284.62,-20 284.62,0 340.38,0 340.38,-20"/>
<text text-anchor="middle" x="312.5" y="-6.5" font-family="Helvetica,sans-Serif" font-size="10.00">main.cpp</text>
</a>
</g>
</g>
<!-- Node6&#45;&gt;Node7 -->
<g id="edge7_Node000006_Node000007" class="edge">
<title>Node6&#45;&gt;Node7</title>
<g id="a_edge7_Node000006_Node000007"><a xlink:title=" ">
<path fill="none" stroke="#63b8ff" d="M312.5,-44.13C312.5,-35.9 312.5,-26.85 312.5,-20.3"/>
<polygon fill="#63b8ff" stroke="#63b8ff" points="309,-44.08 312.5,-54.08 316,-44.08 309,-44.08"/>
</a>
</g>
</g>
</g>
</svg>
