<?xml version="1.0" encoding="UTF-8" standalone="no"?>
<!DOCTYPE svg PUBLIC "-//W3C//DTD SVG 1.1//EN"
 "http://www.w3.org/Graphics/SVG/1.1/DTD/svg11.dtd">
<!-- Generated by graphviz version 12.1.0 (20240811.2233)
 -->
<!-- Title: Room.hpp Pages: 1 -->
<svg width="356pt" height="140pt"
 viewBox="0.00 0.00 355.50 140.00" xmlns="http://www.w3.org/2000/svg" xmlns:xlink="http://www.w3.org/1999/xlink">
<g id="graph0" class="graph" transform="scale(1 1) rotate(0) translate(4 136)">
<title>Room.hpp</title>
<!-- Node1 -->
<g id="Node000001" class="node">
<title>Node1</title>
<g id="a_Node000001"><a xlink:title=" ">
<polygon fill="#999999" stroke="#666666" points="178,-132 117,-132 117,-112 178,-112 178,-132"/>
<text text-anchor="middle" x="147.5" y="-118.5" font-family="Helvetica,sans-Serif" font-size="10.00">Room.hpp</text>
</a>
</g>
</g>
<!-- Node2 -->
<g id="Node000002" class="node">
<title>Node2</title>
<g id="a_Node000002"><a xlink:title=" ">
<polygon fill="#e0e0e0" stroke="#999999" points="43,-76 0,-76 0,-56 43,-56 43,-76"/>
<text text-anchor="middle" x="21.5" y="-62.5" font-family="Helvetica,sans-Serif" font-size="10.00">vector</text>
</a>
</g>
</g>
<!-- Node1&#45;&gt;Node2 -->
<g id="edge1_Node000001_Node000002" class="edge">
<title>Node1&#45;&gt;Node2</title>
<g id="a_edge1_Node000001_Node000002"><a xlink:title=" ">
<path fill="none" stroke="#63b8ff" d="M125.55,-111.59C105.68,-103.08 76.15,-90.42 53.62,-80.77"/>
<polygon fill="#63b8ff" stroke="#63b8ff" points="55.16,-77.62 44.59,-76.89 52.4,-84.05 55.16,-77.62"/>
</a>
</g>
</g>
<!-- Node3 -->
<g id="Node000003" class="node">
<title>Node3</title>
<g id="a_Node000003"><a xlink:title=" ">
<polygon fill="#e0e0e0" stroke="#999999" points="86.12,-20 34.88,-20 34.88,0 86.12,0 86.12,-20"/>
<text text-anchor="middle" x="60.5" y="-6.5" font-family="Helvetica,sans-Serif" font-size="10.00">memory</text>
</a>
</g>
</g>
<!-- Node1&#45;&gt;Node3 -->
<g id="edge2_Node000001_Node000003" class="edge">
<title>Node1&#45;&gt;Node3</title>
<g id="a_edge2_Node000001_Node000003"><a xlink:title=" ">
<path fill="none" stroke="#63b8ff" d="M140.08,-111.62C125.7,-93.44 93.79,-53.09 75.04,-29.38"/>
<polygon fill="#63b8ff" stroke="#63b8ff" points="77.79,-27.21 68.84,-21.54 72.3,-31.56 77.79,-27.21"/>
</a>
</g>
</g>
<!-- Node4 -->
<g id="Node000004" class="node">
<title>Node4</title>
<g id="a_Node000004"><a xlink:title=" ">
<polygon fill="#e0e0e0" stroke="#999999" points="144.5,-20 104.5,-20 104.5,0 144.5,0 144.5,-20"/>
<text text-anchor="middle" x="124.5" y="-6.5" font-family="Helvetica,sans-Serif" font-size="10.00">string</text>
</a>
</g>
</g>
<!-- Node1&#45;&gt;Node4 -->
<g id="edge3_Node000001_Node000004" class="edge">
<title>Node1&#45;&gt;Node4</title>
<g id="a_edge3_Node000001_Node000004"><a xlink:title=" ">
<path fill="none" stroke="#63b8ff" d="M142.45,-111.66C137.92,-102.77 131.52,-88.88 128.5,-76 125.09,-61.47 124.13,-44.64 124.01,-31.75"/>
<polygon fill="#63b8ff" stroke="#63b8ff" points="127.51,-31.94 124.08,-21.91 120.51,-31.89 127.51,-31.94"/>
</a>
</g>
</g>
<!-- Node5 -->
<g id="Node000005" class="node">
<title>Node5</title>
<g id="a_Node000005"><a xlink:title=" ">
<polygon fill="#e0e0e0" stroke="#999999" points="347.5,-76 289.5,-76 289.5,-56 347.5,-56 347.5,-76"/>
<text text-anchor="middle" x="318.5" y="-62.5" font-family="Helvetica,sans-Serif" font-size="10.00">functional</text>
</a>
</g>
</g>
<!-- Node1&#45;&gt;Node5 -->
<g id="edge4_Node000001_Node000005" class="edge">
<title>Node1&#45;&gt;Node5</title>
<g id="a_edge4_Node000001_Node000005"><a xlink:title=" ">
<path fill="none" stroke="#63b8ff" d="M177.29,-111.59C205.24,-102.77 247.26,-89.5 278.2,-79.72"/>
<polygon fill="#63b8ff" stroke="#63b8ff" points="279.13,-83.1 287.61,-76.75 277.02,-76.43 279.13,-83.1"/>
</a>
</g>
</g>
<!-- Node6 -->
<g id="Node000006" class="node">
<title>Node6</title>
<g id="a_Node000006"><a xlink:title=" ">
<polygon fill="#e0e0e0" stroke="#999999" points="306.38,-20 226.62,-20 226.62,0 306.38,0 306.38,-20"/>
<text text-anchor="middle" x="266.5" y="-6.5" font-family="Helvetica,sans-Serif" font-size="10.00">boost/asio.hpp</text>
</a>
</g>
</g>
<!-- Node1&#45;&gt;Node6 -->
<g id="edge5_Node000001_Node000006" class="edge">
<title>Node1&#45;&gt;Node6</title>
<g id="a_edge5_Node000001_Node000006"><a xlink:title=" ">
<path fill="none" stroke="#63b8ff" d="M178.16,-113.12C198.84,-106.37 225.38,-94.71 242.5,-76 253.93,-63.51 260.05,-45.1 263.24,-31.06"/>
<polygon fill="#63b8ff" stroke="#63b8ff" points="266.61,-32.07 265.06,-21.59 259.73,-30.75 266.61,-32.07"/>
</a>
</g>
</g>
<!-- Node7 -->
<g id="Node000007" class="node">
<title>Node7</title>
<g id="a_Node000007"><a xlink:href="ClientSession_8hpp.html" target="_top" xlink:title=" ">
<polygon fill="white" stroke="#666666" points="233.25,-76 137.75,-76 137.75,-56 233.25,-56 233.25,-76"/>
<text text-anchor="middle" x="185.5" y="-62.5" font-family="Helvetica,sans-Serif" font-size="10.00">ClientSession.hpp</text>
</a>
</g>
</g>
<!-- Node1&#45;&gt;Node7 -->
<g id="edge6_Node000001_Node000007" class="edge">
<title>Node1&#45;&gt;Node7</title>
<g id="a_edge6_Node000001_Node000007"><a xlink:title=" ">
<path fill="none" stroke="#63b8ff" d="M154.12,-111.59C159.19,-104.39 166.34,-94.23 172.53,-85.43"/>
<polygon fill="#63b8ff" stroke="#63b8ff" points="175.19,-87.73 178.09,-77.54 169.47,-83.7 175.19,-87.73"/>
</a>
</g>
</g>
<!-- Node7&#45;&gt;Node3 -->
<g id="edge8_Node000007_Node000003" class="edge">
<title>Node7&#45;&gt;Node3</title>
<g id="a_edge8_Node000007_Node000003"><a xlink:title=" ">
<path fill="none" stroke="#63b8ff" d="M163.73,-55.59C144.13,-47.13 115.07,-34.58 92.78,-24.94"/>
<polygon fill="#63b8ff" stroke="#63b8ff" points="94.4,-21.83 83.83,-21.08 91.62,-28.26 94.4,-21.83"/>
</a>
</g>
</g>
<!-- Node7&#45;&gt;Node4 -->
<g id="edge9_Node000007_Node000004" class="edge">
<title>Node7&#45;&gt;Node4</title>
<g id="a_edge9_Node000007_Node000004"><a xlink:title=" ">
<path fill="none" stroke="#63b8ff" d="M174.87,-55.59C166.22,-47.93 153.77,-36.91 143.42,-27.75"/>
<polygon fill="#63b8ff" stroke="#63b8ff" points="145.94,-25.31 136.14,-21.3 141.3,-30.55 145.94,-25.31"/>
</a>
</g>
</g>
<!-- Node7&#45;&gt;Node6 -->
<g id="edge7_Node000007_Node000006" class="edge">
<title>Node7&#45;&gt;Node6</title>
<g id="a_edge7_Node000007_Node000006"><a xlink:title=" ">
<path fill="none" stroke="#63b8ff" d="M199.61,-55.59C211.5,-47.67 228.77,-36.16 242.78,-26.82"/>
<polygon fill="#63b8ff" stroke="#63b8ff" points="244.64,-29.78 251.02,-21.32 240.76,-23.95 244.64,-29.78"/>
</a>
</g>
</g>
<!-- Node8 -->
<g id="Node000008" class="node">
<title>Node8</title>
<g id="a_Node000008"><a xlink:title=" ">
<polygon fill="#e0e0e0" stroke="#999999" points="208.12,-20 162.88,-20 162.88,0 208.12,0 208.12,-20"/>
<text text-anchor="middle" x="185.5" y="-6.5" font-family="Helvetica,sans-Serif" font-size="10.00">chrono</text>
</a>
</g>
</g>
<!-- Node7&#45;&gt;Node8 -->
<g id="edge10_Node000007_Node000008" class="edge">
<title>Node7&#45;&gt;Node8</title>
<g id="a_edge10_Node000007_Node000008"><a xlink:title=" ">
<path fill="none" stroke="#63b8ff" d="M185.5,-55.59C185.5,-49.01 185.5,-39.96 185.5,-31.73"/>
<polygon fill="#63b8ff" stroke="#63b8ff" points="189,-31.81 185.5,-21.81 182,-31.81 189,-31.81"/>
</a>
</g>
</g>
</g>
</svg>
