<?xml version="1.0" encoding="UTF-8" standalone="no"?>
<!DOCTYPE svg PUBLIC "-//W3C//DTD SVG 1.1//EN"
 "http://www.w3.org/Graphics/SVG/1.1/DTD/svg11.dtd">
<!-- Generated by graphviz version 12.1.0 (20240811.2233)
 -->
<!-- Title: RoomManager.hpp Pages: 1 -->
<svg width="249pt" height="140pt"
 viewBox="0.00 0.00 249.12 140.00" xmlns="http://www.w3.org/2000/svg" xmlns:xlink="http://www.w3.org/1999/xlink">
<g id="graph0" class="graph" transform="scale(1 1) rotate(0) translate(4 136)">
<title>RoomManager.hpp</title>
<!-- Node1 -->
<g id="Node000001" class="node">
<title>Node1</title>
<g id="a_Node000001"><a xlink:title=" ">
<polygon fill="#999999" stroke="#666666" points="175.5,-132 77,-132 77,-112 175.5,-112 175.5,-132"/>
<text text-anchor="middle" x="126.25" y="-118.5" font-family="Helvetica,sans-Serif" font-size="10.00">RoomManager.hpp</text>
</a>
</g>
</g>
<!-- Node2 -->
<g id="Node000002" class="node">
<title>Node2</title>
<g id="a_Node000002"><a xlink:href="RoomManager_8cpp.html" target="_top" xlink:title=" ">
<polygon fill="white" stroke="#666666" points="98.5,-76 0,-76 0,-56 98.5,-56 98.5,-76"/>
<text text-anchor="middle" x="49.25" y="-62.5" font-family="Helvetica,sans-Serif" font-size="10.00">RoomManager.cpp</text>
</a>
</g>
</g>
<!-- Node1&#45;&gt;Node2 -->
<g id="edge1_Node000001_Node000002" class="edge">
<title>Node1&#45;&gt;Node2</title>
<g id="a_edge1_Node000001_Node000002"><a xlink:title=" ">
<path fill="none" stroke="#63b8ff" d="M103.43,-105C90.2,-95.72 73.99,-84.35 62.77,-76.48"/>
<polygon fill="#63b8ff" stroke="#63b8ff" points="101.4,-107.85 111.6,-110.72 105.42,-102.12 101.4,-107.85"/>
</a>
</g>
</g>
<!-- Node3 -->
<g id="Node000003" class="node">
<title>Node3</title>
<g id="a_Node000003"><a xlink:href="UdpServer_8cpp.html" target="_top" xlink:title=" ">
<polygon fill="white" stroke="#666666" points="166.88,-20 85.62,-20 85.62,0 166.88,0 166.88,-20"/>
<text text-anchor="middle" x="126.25" y="-6.5" font-family="Helvetica,sans-Serif" font-size="10.00">UdpServer.cpp</text>
</a>
</g>
</g>
<!-- Node1&#45;&gt;Node3 -->
<g id="edge2_Node000001_Node000003" class="edge">
<title>Node1&#45;&gt;Node3</title>
<g id="a_edge2_Node000001_Node000003"><a xlink:title=" ">
<path fill="none" stroke="#63b8ff" d="M126.25,-100.31C126.25,-76.36 126.25,-37.95 126.25,-20.35"/>
<polygon fill="#63b8ff" stroke="#63b8ff" points="122.75,-100.11 126.25,-110.11 129.75,-100.11 122.75,-100.11"/>
</a>
</g>
</g>
<!-- Node4 -->
<g id="Node000004" class="node">
<title>Node4</title>
<g id="a_Node000004"><a xlink:href="UdpServer_8hpp.html" target="_top" xlink:title=" ">
<polygon fill="white" stroke="#666666" points="235.88,-76 154.62,-76 154.62,-56 235.88,-56 235.88,-76"/>
<text text-anchor="middle" x="195.25" y="-62.5" font-family="Helvetica,sans-Serif" font-size="10.00">UdpServer.hpp</text>
</a>
</g>
</g>
<!-- Node1&#45;&gt;Node4 -->
<g id="edge3_Node000001_Node000004" class="edge">
<title>Node1&#45;&gt;Node4</title>
<g id="a_edge3_Node000001_Node000004"><a xlink:title=" ">
<path fill="none" stroke="#63b8ff" d="M147.1,-104.68C158.98,-95.39 173.42,-84.09 183.37,-76.3"/>
<polygon fill="#63b8ff" stroke="#63b8ff" points="145.18,-101.74 139.46,-110.66 149.49,-107.25 145.18,-101.74"/>
</a>
</g>
</g>
<!-- Node4&#45;&gt;Node3 -->
<g id="edge4_Node000004_Node000003" class="edge">
<title>Node4&#45;&gt;Node3</title>
<g id="a_edge4_Node000004_Node000003"><a xlink:title=" ">
<path fill="none" stroke="#63b8ff" d="M174.4,-48.68C162.52,-39.39 148.08,-28.09 138.13,-20.3"/>
<polygon fill="#63b8ff" stroke="#63b8ff" points="172.01,-51.25 182.04,-54.66 176.32,-45.74 172.01,-51.25"/>
</a>
</g>
</g>
<!-- Node5 -->
<g id="Node000005" class="node">
<title>Node5</title>
<g id="a_Node000005"><a xlink:href="Server_2src_2main_8cpp.html" target="_top" xlink:title=" ">
<polygon fill="white" stroke="#666666" points="241.12,-20 185.38,-20 185.38,0 241.12,0 241.12,-20"/>
<text text-anchor="middle" x="213.25" y="-6.5" font-family="Helvetica,sans-Serif" font-size="10.00">main.cpp</text>
</a>
</g>
</g>
<!-- Node4&#45;&gt;Node5 -->
<g id="edge5_Node000004_Node000005" class="edge">
<title>Node4&#45;&gt;Node5</title>
<g id="a_edge5_Node000004_Node000005"><a xlink:title=" ">
<path fill="none" stroke="#63b8ff" d="M202.01,-44.71C204.81,-36.32 207.91,-27.01 210.15,-20.3"/>
<polygon fill="#63b8ff" stroke="#63b8ff" points="198.71,-43.56 198.86,-54.16 205.35,-45.78 198.71,-43.56"/>
</a>
</g>
</g>
</g>
</svg>
