<?xml version="1.0" encoding="UTF-8" standalone="no"?>
<!DOCTYPE svg PUBLIC "-//W3C//DTD SVG 1.1//EN"
 "http://www.w3.org/Graphics/SVG/1.1/DTD/svg11.dtd">
<!-- Generated by graphviz version 12.1.0 (20240811.2233)
 -->
<!-- Title: Room.cpp Pages: 1 -->
<svg width="505pt" height="196pt"
 viewBox="0.00 0.00 504.75 196.00" xmlns="http://www.w3.org/2000/svg" xmlns:xlink="http://www.w3.org/1999/xlink">
<g id="graph0" class="graph" transform="scale(1 1) rotate(0) translate(4 192)">
<title>Room.cpp</title>
<!-- Node1 -->
<g id="Node000001" class="node">
<title>Node1</title>
<g id="a_Node000001"><a xlink:title=" ">
<polygon fill="#999999" stroke="#666666" points="412.12,-188 351.12,-188 351.12,-168 412.12,-168 412.12,-188"/>
<text text-anchor="middle" x="381.62" y="-174.5" font-family="Helvetica,sans-Serif" font-size="10.00">Room.cpp</text>
</a>
</g>
</g>
<!-- Node2 -->
<g id="Node000002" class="node">
<title>Node2</title>
<g id="a_Node000002"><a xlink:href="Room_8hpp.html" target="_top" xlink:title=" ">
<polygon fill="white" stroke="#666666" points="252.12,-132 191.12,-132 191.12,-112 252.12,-112 252.12,-132"/>
<text text-anchor="middle" x="221.62" y="-118.5" font-family="Helvetica,sans-Serif" font-size="10.00">Room.hpp</text>
</a>
</g>
</g>
<!-- Node1&#45;&gt;Node2 -->
<g id="edge1_Node000001_Node000002" class="edge">
<title>Node1&#45;&gt;Node2</title>
<g id="a_edge1_Node000001_Node000002"><a xlink:title=" ">
<path fill="none" stroke="#63b8ff" d="M353.76,-167.59C327.87,-158.86 289.1,-145.77 260.24,-136.03"/>
<polygon fill="#63b8ff" stroke="#63b8ff" points="261.74,-132.85 251.15,-132.96 259.5,-139.48 261.74,-132.85"/>
</a>
</g>
</g>
<!-- Node10 -->
<g id="Node000010" class="node">
<title>Node10</title>
<g id="a_Node000010"><a xlink:href="Log_8hpp.html" target="_top" xlink:title=" ">
<polygon fill="white" stroke="#666666" points="419.25,-132 344,-132 344,-112 419.25,-112 419.25,-132"/>
<text text-anchor="middle" x="381.62" y="-118.5" font-family="Helvetica,sans-Serif" font-size="10.00">../util/Log.hpp</text>
</a>
</g>
</g>
<!-- Node1&#45;&gt;Node10 -->
<g id="edge12_Node000001_Node000010" class="edge">
<title>Node1&#45;&gt;Node10</title>
<g id="a_edge12_Node000001_Node000010"><a xlink:title=" ">
<path fill="none" stroke="#63b8ff" d="M381.62,-167.59C381.62,-161.01 381.62,-151.96 381.62,-143.73"/>
<polygon fill="#63b8ff" stroke="#63b8ff" points="385.13,-143.81 381.63,-133.81 378.13,-143.81 385.13,-143.81"/>
</a>
</g>
</g>
<!-- Node13 -->
<g id="Node000013" class="node">
<title>Node13</title>
<g id="a_Node000013"><a xlink:title=" ">
<polygon fill="#e0e0e0" stroke="#999999" points="493.5,-132 437.75,-132 437.75,-112 493.5,-112 493.5,-132"/>
<text text-anchor="middle" x="465.62" y="-118.5" font-family="Helvetica,sans-Serif" font-size="10.00">algorithm</text>
</a>
</g>
</g>
<!-- Node1&#45;&gt;Node13 -->
<g id="edge16_Node000001_Node000013" class="edge">
<title>Node1&#45;&gt;Node13</title>
<g id="a_edge16_Node000001_Node000013"><a xlink:title=" ">
<path fill="none" stroke="#63b8ff" d="M396.26,-167.59C408.71,-159.59 426.84,-147.93 441.45,-138.54"/>
<polygon fill="#63b8ff" stroke="#63b8ff" points="443.09,-141.65 449.61,-133.3 439.3,-135.76 443.09,-141.65"/>
</a>
</g>
</g>
<!-- Node3 -->
<g id="Node000003" class="node">
<title>Node3</title>
<g id="a_Node000003"><a xlink:title=" ">
<polygon fill="#e0e0e0" stroke="#999999" points="61.12,-76 18.12,-76 18.12,-56 61.12,-56 61.12,-76"/>
<text text-anchor="middle" x="39.62" y="-62.5" font-family="Helvetica,sans-Serif" font-size="10.00">vector</text>
</a>
</g>
</g>
<!-- Node2&#45;&gt;Node3 -->
<g id="edge2_Node000002_Node000003" class="edge">
<title>Node2&#45;&gt;Node3</title>
<g id="a_edge2_Node000002_Node000003"><a xlink:title=" ">
<path fill="none" stroke="#63b8ff" d="M190.76,-111.9C162.26,-103.49 118.47,-90.54 72.38,-76.82"/>
<polygon fill="#63b8ff" stroke="#63b8ff" points="73.61,-73.53 63.03,-74.03 71.61,-80.24 73.61,-73.53"/>
</a>
</g>
</g>
<!-- Node4 -->
<g id="Node000004" class="node">
<title>Node4</title>
<g id="a_Node000004"><a xlink:title=" ">
<polygon fill="#e0e0e0" stroke="#999999" points="51.25,-20 0,-20 0,0 51.25,0 51.25,-20"/>
<text text-anchor="middle" x="25.62" y="-6.5" font-family="Helvetica,sans-Serif" font-size="10.00">memory</text>
</a>
</g>
</g>
<!-- Node2&#45;&gt;Node4 -->
<g id="edge3_Node000002_Node000004" class="edge">
<title>Node2&#45;&gt;Node4</title>
<g id="a_edge3_Node000002_Node000004"><a xlink:title=" ">
<path fill="none" stroke="#63b8ff" d="M190.96,-119.13C137.61,-115.17 31.24,-103.89 8.62,-76 -1.91,-63 4.7,-44.17 12.54,-30.11"/>
<polygon fill="#63b8ff" stroke="#63b8ff" points="15.43,-32.1 17.73,-21.76 9.48,-28.41 15.43,-32.1"/>
</a>
</g>
</g>
<!-- Node5 -->
<g id="Node000005" class="node">
<title>Node5</title>
<g id="a_Node000005"><a xlink:title=" ">
<polygon fill="#e0e0e0" stroke="#999999" points="336.62,-20 296.62,-20 296.62,0 336.62,0 336.62,-20"/>
<text text-anchor="middle" x="316.62" y="-6.5" font-family="Helvetica,sans-Serif" font-size="10.00">string</text>
</a>
</g>
</g>
<!-- Node2&#45;&gt;Node5 -->
<g id="edge4_Node000002_Node000005" class="edge">
<title>Node2&#45;&gt;Node5</title>
<g id="a_edge4_Node000002_Node000005"><a xlink:title=" ">
<path fill="none" stroke="#63b8ff" d="M234.77,-111.58C246.11,-103.07 262.52,-89.79 274.62,-76 287.07,-61.82 298.5,-43.63 306.29,-30.1"/>
<polygon fill="#63b8ff" stroke="#63b8ff" points="309.14,-32.18 310.96,-21.74 303.03,-28.76 309.14,-32.18"/>
</a>
</g>
</g>
<!-- Node6 -->
<g id="Node000006" class="node">
<title>Node6</title>
<g id="a_Node000006"><a xlink:title=" ">
<polygon fill="#e0e0e0" stroke="#999999" points="250.62,-76 192.62,-76 192.62,-56 250.62,-56 250.62,-76"/>
<text text-anchor="middle" x="221.62" y="-62.5" font-family="Helvetica,sans-Serif" font-size="10.00">functional</text>
</a>
</g>
</g>
<!-- Node2&#45;&gt;Node6 -->
<g id="edge5_Node000002_Node000006" class="edge">
<title>Node2&#45;&gt;Node6</title>
<g id="a_edge5_Node000002_Node000006"><a xlink:title=" ">
<path fill="none" stroke="#63b8ff" d="M221.62,-111.59C221.62,-105.01 221.62,-95.96 221.62,-87.73"/>
<polygon fill="#63b8ff" stroke="#63b8ff" points="225.13,-87.81 221.63,-77.81 218.13,-87.81 225.13,-87.81"/>
</a>
</g>
</g>
<!-- Node7 -->
<g id="Node000007" class="node">
<title>Node7</title>
<g id="a_Node000007"><a xlink:title=" ">
<polygon fill="#e0e0e0" stroke="#999999" points="263.5,-20 183.75,-20 183.75,0 263.5,0 263.5,-20"/>
<text text-anchor="middle" x="223.62" y="-6.5" font-family="Helvetica,sans-Serif" font-size="10.00">boost/asio.hpp</text>
</a>
</g>
</g>
<!-- Node2&#45;&gt;Node7 -->
<g id="edge6_Node000002_Node000007" class="edge">
<title>Node2&#45;&gt;Node7</title>
<g id="a_edge6_Node000002_Node000007"><a xlink:title=" ">
<path fill="none" stroke="#63b8ff" d="M233.06,-111.65C242.22,-103.38 254.36,-90.4 259.62,-76 265.89,-58.87 254.26,-40.84 242.58,-28.12"/>
<polygon fill="#63b8ff" stroke="#63b8ff" points="245.33,-25.92 235.78,-21.32 240.37,-30.87 245.33,-25.92"/>
</a>
</g>
</g>
<!-- Node8 -->
<g id="Node000008" class="node">
<title>Node8</title>
<g id="a_Node000008"><a xlink:href="ClientSession_8hpp.html" target="_top" xlink:title=" ">
<polygon fill="white" stroke="#666666" points="174.38,-76 78.88,-76 78.88,-56 174.38,-56 174.38,-76"/>
<text text-anchor="middle" x="126.62" y="-62.5" font-family="Helvetica,sans-Serif" font-size="10.00">ClientSession.hpp</text>
</a>
</g>
</g>
<!-- Node2&#45;&gt;Node8 -->
<g id="edge7_Node000002_Node000008" class="edge">
<title>Node2&#45;&gt;Node8</title>
<g id="a_edge7_Node000002_Node000008"><a xlink:title=" ">
<path fill="none" stroke="#63b8ff" d="M205.08,-111.59C190.73,-103.44 169.7,-91.48 153.02,-82"/>
<polygon fill="#63b8ff" stroke="#63b8ff" points="155.04,-79.13 144.62,-77.23 151.58,-85.21 155.04,-79.13"/>
</a>
</g>
</g>
<!-- Node8&#45;&gt;Node4 -->
<g id="edge9_Node000008_Node000004" class="edge">
<title>Node8&#45;&gt;Node4</title>
<g id="a_edge9_Node000008_Node000004"><a xlink:title=" ">
<path fill="none" stroke="#63b8ff" d="M109.03,-55.59C93.7,-47.4 71.21,-35.37 53.44,-25.87"/>
<polygon fill="#63b8ff" stroke="#63b8ff" points="55.16,-22.82 44.69,-21.19 51.86,-28.99 55.16,-22.82"/>
</a>
</g>
</g>
<!-- Node8&#45;&gt;Node5 -->
<g id="edge10_Node000008_Node000005" class="edge">
<title>Node8&#45;&gt;Node5</title>
<g id="a_edge10_Node000008_Node000005"><a xlink:title=" ">
<path fill="none" stroke="#63b8ff" d="M159.72,-55.59C195.06,-45.55 250.65,-29.75 285.3,-19.9"/>
<polygon fill="#63b8ff" stroke="#63b8ff" points="286.07,-23.32 294.73,-17.22 284.16,-16.59 286.07,-23.32"/>
</a>
</g>
</g>
<!-- Node8&#45;&gt;Node7 -->
<g id="edge8_Node000008_Node000007" class="edge">
<title>Node8&#45;&gt;Node7</title>
<g id="a_edge8_Node000008_Node000007"><a xlink:title=" ">
<path fill="none" stroke="#63b8ff" d="M143.52,-55.59C158.17,-47.44 179.65,-35.48 196.67,-26"/>
<polygon fill="#63b8ff" stroke="#63b8ff" points="198.24,-29.14 205.27,-21.22 194.83,-23.02 198.24,-29.14"/>
</a>
</g>
</g>
<!-- Node9 -->
<g id="Node000009" class="node">
<title>Node9</title>
<g id="a_Node000009"><a xlink:title=" ">
<polygon fill="#e0e0e0" stroke="#999999" points="149.25,-20 104,-20 104,0 149.25,0 149.25,-20"/>
<text text-anchor="middle" x="126.62" y="-6.5" font-family="Helvetica,sans-Serif" font-size="10.00">chrono</text>
</a>
</g>
</g>
<!-- Node8&#45;&gt;Node9 -->
<g id="edge11_Node000008_Node000009" class="edge">
<title>Node8&#45;&gt;Node9</title>
<g id="a_edge11_Node000008_Node000009"><a xlink:title=" ">
<path fill="none" stroke="#63b8ff" d="M126.62,-55.59C126.62,-49.01 126.62,-39.96 126.62,-31.73"/>
<polygon fill="#63b8ff" stroke="#63b8ff" points="130.13,-31.81 126.63,-21.81 123.13,-31.81 130.13,-31.81"/>
</a>
</g>
</g>
<!-- Node10&#45;&gt;Node5 -->
<g id="edge13_Node000010_Node000005" class="edge">
<title>Node10&#45;&gt;Node5</title>
<g id="a_edge13_Node000010_Node000005"><a xlink:title=" ">
<path fill="none" stroke="#63b8ff" d="M376.08,-111.62C365.43,-93.6 341.92,-53.81 327.87,-30.02"/>
<polygon fill="#63b8ff" stroke="#63b8ff" points="331.02,-28.49 322.92,-21.66 325,-32.05 331.02,-28.49"/>
</a>
</g>
</g>
<!-- Node11 -->
<g id="Node000011" class="node">
<title>Node11</title>
<g id="a_Node000011"><a xlink:title=" ">
<polygon fill="#e0e0e0" stroke="#999999" points="436.38,-76 382.88,-76 382.88,-56 436.38,-56 436.38,-76"/>
<text text-anchor="middle" x="409.62" y="-62.5" font-family="Helvetica,sans-Serif" font-size="10.00">iostream</text>
</a>
</g>
</g>
<!-- Node10&#45;&gt;Node11 -->
<g id="edge14_Node000010_Node000011" class="edge">
<title>Node10&#45;&gt;Node11</title>
<g id="a_edge14_Node000010_Node000011"><a xlink:title=" ">
<path fill="none" stroke="#63b8ff" d="M386.5,-111.59C390.12,-104.63 395.17,-94.89 399.62,-86.29"/>
<polygon fill="#63b8ff" stroke="#63b8ff" points="402.61,-88.13 404.11,-77.64 396.4,-84.91 402.61,-88.13"/>
</a>
</g>
</g>
<!-- Node12 -->
<g id="Node000012" class="node">
<title>Node12</title>
<g id="a_Node000012"><a xlink:title=" ">
<polygon fill="#e0e0e0" stroke="#999999" points="496.75,-76 454.5,-76 454.5,-56 496.75,-56 496.75,-76"/>
<text text-anchor="middle" x="475.62" y="-62.5" font-family="Helvetica,sans-Serif" font-size="10.00">cstdio</text>
</a>
</g>
</g>
<!-- Node10&#45;&gt;Node12 -->
<g id="edge15_Node000010_Node000012" class="edge">
<title>Node10&#45;&gt;Node12</title>
<g id="a_edge15_Node000010_Node000012"><a xlink:title=" ">
<path fill="none" stroke="#63b8ff" d="M398,-111.59C412.2,-103.44 433.01,-91.48 449.51,-82"/>
<polygon fill="#63b8ff" stroke="#63b8ff" points="450.88,-85.25 457.81,-77.23 447.4,-79.18 450.88,-85.25"/>
</a>
</g>
</g>
</g>
</svg>
