<?xml version="1.0" encoding="UTF-8" standalone="no"?>
<!DOCTYPE svg PUBLIC "-//W3C//DTD SVG 1.1//EN"
 "http://www.w3.org/Graphics/SVG/1.1/DTD/svg11.dtd">
<!-- Generated by graphviz version 12.1.0 (20240811.2233)
 -->
<!-- Title: RoomManager.hpp Pages: 1 -->
<svg width="569pt" height="196pt"
 viewBox="0.00 0.00 568.74 196.00" xmlns="http://www.w3.org/2000/svg" xmlns:xlink="http://www.w3.org/1999/xlink">
<g id="graph0" class="graph" transform="scale(1 1) rotate(0) translate(4 192)">
<title>RoomManager.hpp</title>
<!-- Node1 -->
<g id="Node000001" class="node">
<title>Node1</title>
<g id="a_Node000001"><a xlink:title=" ">
<polygon fill="#999999" stroke="#666666" points="362.49,-188 263.99,-188 263.99,-168 362.49,-168 362.49,-188"/>
<text text-anchor="middle" x="313.24" y="-174.5" font-family="Helvetica,sans-Serif" font-size="10.00">RoomManager.hpp</text>
</a>
</g>
</g>
<!-- Node2 -->
<g id="Node000002" class="node">
<title>Node2</title>
<g id="a_Node000002"><a xlink:href="Room_8hpp.html" target="_top" xlink:title=" ">
<polygon fill="white" stroke="#666666" points="267.74,-132 206.74,-132 206.74,-112 267.74,-112 267.74,-132"/>
<text text-anchor="middle" x="237.24" y="-118.5" font-family="Helvetica,sans-Serif" font-size="10.00">Room.hpp</text>
</a>
</g>
</g>
<!-- Node1&#45;&gt;Node2 -->
<g id="edge1_Node000001_Node000002" class="edge">
<title>Node1&#45;&gt;Node2</title>
<g id="a_edge1_Node000001_Node000002"><a xlink:title=" ">
<path fill="none" stroke="#63b8ff" d="M300,-167.59C288.95,-159.74 272.96,-148.38 259.88,-139.09"/>
<polygon fill="#63b8ff" stroke="#63b8ff" points="261.99,-136.3 251.81,-133.36 257.94,-142 261.99,-136.3"/>
</a>
</g>
</g>
<!-- Node3 -->
<g id="Node000003" class="node">
<title>Node3</title>
<g id="a_Node000003"><a xlink:title=" ">
<polygon fill="#e0e0e0" stroke="#999999" points="56.74,-76 13.74,-76 13.74,-56 56.74,-56 56.74,-76"/>
<text text-anchor="middle" x="35.24" y="-62.5" font-family="Helvetica,sans-Serif" font-size="10.00">vector</text>
</a>
</g>
</g>
<!-- Node1&#45;&gt;Node3 -->
<g id="edge15_Node000001_Node000003" class="edge">
<title>Node1&#45;&gt;Node3</title>
<g id="a_edge15_Node000001_Node000003"><a xlink:title=" ">
<path fill="none" stroke="#63b8ff" d="M288.99,-167.56C265.7,-158.49 229.54,-144.37 198.24,-132 152.8,-114.05 100.32,-93.08 67.46,-79.92"/>
<polygon fill="#63b8ff" stroke="#63b8ff" points="69.09,-76.8 58.51,-76.33 66.49,-83.3 69.09,-76.8"/>
</a>
</g>
</g>
<!-- Node4 -->
<g id="Node000004" class="node">
<title>Node4</title>
<g id="a_Node000004"><a xlink:title=" ">
<polygon fill="#e0e0e0" stroke="#999999" points="110.86,-20 59.61,-20 59.61,0 110.86,0 110.86,-20"/>
<text text-anchor="middle" x="85.24" y="-6.5" font-family="Helvetica,sans-Serif" font-size="10.00">memory</text>
</a>
</g>
</g>
<!-- Node1&#45;&gt;Node4 -->
<g id="edge13_Node000001_Node000004" class="edge">
<title>Node1&#45;&gt;Node4</title>
<g id="a_edge13_Node000001_Node000004"><a xlink:title=" ">
<path fill="none" stroke="#63b8ff" d="M263.49,-168.28C183.88,-153.16 33.76,-119.49 4.24,-76 -11.21,-53.25 20.5,-34.53 48.66,-23.12"/>
<polygon fill="#63b8ff" stroke="#63b8ff" points="49.66,-26.49 57.76,-19.65 47.17,-19.95 49.66,-26.49"/>
</a>
</g>
</g>
<!-- Node5 -->
<g id="Node000005" class="node">
<title>Node5</title>
<g id="a_Node000005"><a xlink:title=" ">
<polygon fill="#e0e0e0" stroke="#999999" points="390.24,-20 350.24,-20 350.24,0 390.24,0 390.24,-20"/>
<text text-anchor="middle" x="370.24" y="-6.5" font-family="Helvetica,sans-Serif" font-size="10.00">string</text>
</a>
</g>
</g>
<!-- Node1&#45;&gt;Node5 -->
<g id="edge14_Node000001_Node000005" class="edge">
<title>Node1&#45;&gt;Node5</title>
<g id="a_edge14_Node000001_Node000005"><a xlink:title=" ">
<path fill="none" stroke="#63b8ff" d="M316.46,-167.6C325.48,-141.35 351.06,-66.84 363.41,-30.89"/>
<polygon fill="#63b8ff" stroke="#63b8ff" points="366.62,-32.32 366.55,-21.73 359.99,-30.05 366.62,-32.32"/>
</a>
</g>
</g>
<!-- Node10 -->
<g id="Node000010" class="node">
<title>Node10</title>
<g id="a_Node000010"><a xlink:title=" ">
<polygon fill="#e0e0e0" stroke="#999999" points="499.61,-132 416.86,-132 416.86,-112 499.61,-112 499.61,-132"/>
<text text-anchor="middle" x="458.24" y="-118.5" font-family="Helvetica,sans-Serif" font-size="10.00">unordered_map</text>
</a>
</g>
</g>
<!-- Node1&#45;&gt;Node10 -->
<g id="edge12_Node000001_Node000010" class="edge">
<title>Node1&#45;&gt;Node10</title>
<g id="a_edge12_Node000001_Node000010"><a xlink:title=" ">
<path fill="none" stroke="#63b8ff" d="M338.49,-167.59C361.64,-158.97 396.16,-146.12 422.2,-136.42"/>
<polygon fill="#63b8ff" stroke="#63b8ff" points="423.21,-139.78 431.36,-133.01 420.77,-133.22 423.21,-139.78"/>
</a>
</g>
</g>
<!-- Node11 -->
<g id="Node000011" class="node">
<title>Node11</title>
<g id="a_Node000011"><a xlink:title=" ">
<polygon fill="#e0e0e0" stroke="#999999" points="560.74,-132 517.74,-132 517.74,-112 560.74,-112 560.74,-132"/>
<text text-anchor="middle" x="539.24" y="-118.5" font-family="Helvetica,sans-Serif" font-size="10.00">mutex</text>
</a>
</g>
</g>
<!-- Node1&#45;&gt;Node11 -->
<g id="edge16_Node000001_Node000011" class="edge">
<title>Node1&#45;&gt;Node11</title>
<g id="a_edge16_Node000001_Node000011"><a xlink:title=" ">
<path fill="none" stroke="#63b8ff" d="M357.55,-167.51C394.79,-159.37 449.65,-147 506.29,-132.4"/>
<polygon fill="#63b8ff" stroke="#63b8ff" points="507,-135.83 515.8,-129.92 505.24,-129.05 507,-135.83"/>
</a>
</g>
</g>
<!-- Node2&#45;&gt;Node3 -->
<g id="edge2_Node000002_Node000003" class="edge">
<title>Node2&#45;&gt;Node3</title>
<g id="a_edge2_Node000002_Node000003"><a xlink:title=" ">
<path fill="none" stroke="#63b8ff" d="M206.56,-112.8C169.25,-102.83 106.53,-86.06 68.21,-75.82"/>
<polygon fill="#63b8ff" stroke="#63b8ff" points="69.19,-72.45 58.62,-73.25 67.38,-79.22 69.19,-72.45"/>
</a>
</g>
</g>
<!-- Node2&#45;&gt;Node4 -->
<g id="edge3_Node000002_Node000004" class="edge">
<title>Node2&#45;&gt;Node4</title>
<g id="a_edge3_Node000002_Node000004"><a xlink:title=" ">
<path fill="none" stroke="#63b8ff" d="M206.26,-118.6C176.15,-114.62 131.15,-104.06 104.24,-76 92.78,-64.06 88.18,-45.59 86.36,-31.39"/>
<polygon fill="#63b8ff" stroke="#63b8ff" points="89.88,-31.44 85.5,-21.79 82.9,-32.06 89.88,-31.44"/>
</a>
</g>
</g>
<!-- Node2&#45;&gt;Node5 -->
<g id="edge4_Node000002_Node000005" class="edge">
<title>Node2&#45;&gt;Node5</title>
<g id="a_edge4_Node000002_Node000005"><a xlink:title=" ">
<path fill="none" stroke="#63b8ff" d="M255.55,-111.55C270.9,-103.21 293,-90.2 310.24,-76 327.57,-61.72 344.69,-42.54 356.17,-28.72"/>
<polygon fill="#63b8ff" stroke="#63b8ff" points="358.6,-31.28 362.2,-21.31 353.17,-26.86 358.6,-31.28"/>
</a>
</g>
</g>
<!-- Node6 -->
<g id="Node000006" class="node">
<title>Node6</title>
<g id="a_Node000006"><a xlink:title=" ">
<polygon fill="#e0e0e0" stroke="#999999" points="171.24,-76 113.24,-76 113.24,-56 171.24,-56 171.24,-76"/>
<text text-anchor="middle" x="142.24" y="-62.5" font-family="Helvetica,sans-Serif" font-size="10.00">functional</text>
</a>
</g>
</g>
<!-- Node2&#45;&gt;Node6 -->
<g id="edge5_Node000002_Node000006" class="edge">
<title>Node2&#45;&gt;Node6</title>
<g id="a_edge5_Node000002_Node000006"><a xlink:title=" ">
<path fill="none" stroke="#63b8ff" d="M220.69,-111.59C206.34,-103.44 185.31,-91.48 168.63,-82"/>
<polygon fill="#63b8ff" stroke="#63b8ff" points="170.65,-79.13 160.23,-77.23 167.19,-85.21 170.65,-79.13"/>
</a>
</g>
</g>
<!-- Node7 -->
<g id="Node000007" class="node">
<title>Node7</title>
<g id="a_Node000007"><a xlink:title=" ">
<polygon fill="#e0e0e0" stroke="#999999" points="332.11,-20 252.36,-20 252.36,0 332.11,0 332.11,-20"/>
<text text-anchor="middle" x="292.24" y="-6.5" font-family="Helvetica,sans-Serif" font-size="10.00">boost/asio.hpp</text>
</a>
</g>
</g>
<!-- Node2&#45;&gt;Node7 -->
<g id="edge6_Node000002_Node000007" class="edge">
<title>Node2&#45;&gt;Node7</title>
<g id="a_edge6_Node000002_Node000007"><a xlink:title=" ">
<path fill="none" stroke="#63b8ff" d="M256.72,-111.6C269.98,-104.02 286.48,-92 294.24,-76 300.95,-62.15 299.95,-44.63 297.54,-31.27"/>
<polygon fill="#63b8ff" stroke="#63b8ff" points="301.04,-30.87 295.45,-21.87 294.21,-32.39 301.04,-30.87"/>
</a>
</g>
</g>
<!-- Node8 -->
<g id="Node000008" class="node">
<title>Node8</title>
<g id="a_Node000008"><a xlink:href="ClientSession_8hpp.html" target="_top" xlink:title=" ">
<polygon fill="white" stroke="#666666" points="284.99,-76 189.49,-76 189.49,-56 284.99,-56 284.99,-76"/>
<text text-anchor="middle" x="237.24" y="-62.5" font-family="Helvetica,sans-Serif" font-size="10.00">ClientSession.hpp</text>
</a>
</g>
</g>
<!-- Node2&#45;&gt;Node8 -->
<g id="edge7_Node000002_Node000008" class="edge">
<title>Node2&#45;&gt;Node8</title>
<g id="a_edge7_Node000002_Node000008"><a xlink:title=" ">
<path fill="none" stroke="#63b8ff" d="M237.24,-111.59C237.24,-105.01 237.24,-95.96 237.24,-87.73"/>
<polygon fill="#63b8ff" stroke="#63b8ff" points="240.74,-87.81 237.24,-77.81 233.74,-87.81 240.74,-87.81"/>
</a>
</g>
</g>
<!-- Node8&#45;&gt;Node4 -->
<g id="edge9_Node000008_Node000004" class="edge">
<title>Node8&#45;&gt;Node4</title>
<g id="a_edge9_Node000008_Node000004"><a xlink:title=" ">
<path fill="none" stroke="#63b8ff" d="M210.76,-55.59C186.17,-46.86 149.31,-33.76 121.9,-24.02"/>
<polygon fill="#63b8ff" stroke="#63b8ff" points="123.18,-20.76 112.58,-20.71 120.83,-27.36 123.18,-20.76"/>
</a>
</g>
</g>
<!-- Node8&#45;&gt;Node5 -->
<g id="edge10_Node000008_Node000005" class="edge">
<title>Node8&#45;&gt;Node5</title>
<g id="a_edge10_Node000008_Node000005"><a xlink:title=" ">
<path fill="none" stroke="#63b8ff" d="M260.4,-55.59C282.35,-46.68 315.44,-33.25 339.57,-23.45"/>
<polygon fill="#63b8ff" stroke="#63b8ff" points="340.6,-26.81 348.54,-19.81 337.96,-20.33 340.6,-26.81"/>
</a>
</g>
</g>
<!-- Node8&#45;&gt;Node7 -->
<g id="edge8_Node000008_Node000007" class="edge">
<title>Node8&#45;&gt;Node7</title>
<g id="a_edge8_Node000008_Node000007"><a xlink:title=" ">
<path fill="none" stroke="#63b8ff" d="M246.82,-55.59C254.47,-48.08 265.39,-37.35 274.61,-28.3"/>
<polygon fill="#63b8ff" stroke="#63b8ff" points="277,-30.86 281.69,-21.36 272.1,-25.87 277,-30.86"/>
</a>
</g>
</g>
<!-- Node9 -->
<g id="Node000009" class="node">
<title>Node9</title>
<g id="a_Node000009"><a xlink:title=" ">
<polygon fill="#e0e0e0" stroke="#999999" points="233.86,-20 188.61,-20 188.61,0 233.86,0 233.86,-20"/>
<text text-anchor="middle" x="211.24" y="-6.5" font-family="Helvetica,sans-Serif" font-size="10.00">chrono</text>
</a>
</g>
</g>
<!-- Node8&#45;&gt;Node9 -->
<g id="edge11_Node000008_Node000009" class="edge">
<title>Node8&#45;&gt;Node9</title>
<g id="a_edge11_Node000008_Node000009"><a xlink:title=" ">
<path fill="none" stroke="#63b8ff" d="M232.71,-55.59C229.39,-48.7 224.77,-39.1 220.66,-30.57"/>
<polygon fill="#63b8ff" stroke="#63b8ff" points="223.86,-29.15 216.37,-21.66 217.55,-32.19 223.86,-29.15"/>
</a>
</g>
</g>
</g>
</svg>
