<?xml version="1.0" encoding="UTF-8" standalone="no"?>
<!DOCTYPE svg PUBLIC "-//W3C//DTD SVG 1.1//EN"
 "http://www.w3.org/Graphics/SVG/1.1/DTD/svg11.dtd">
<!-- Generated by graphviz version 12.1.0 (20240811.2233)
 -->
<!-- Title: RoomManager.cpp Pages: 1 -->
<svg width="614pt" height="252pt"
 viewBox="0.00 0.00 613.70 252.00" xmlns="http://www.w3.org/2000/svg" xmlns:xlink="http://www.w3.org/1999/xlink">
<g id="graph0" class="graph" transform="scale(1 1) rotate(0) translate(4 248)">
<title>RoomManager.cpp</title>
<!-- Node1 -->
<g id="Node000001" class="node">
<title>Node1</title>
<g id="a_Node000001"><a xlink:title=" ">
<polygon fill="#999999" stroke="#666666" points="539.82,-244 441.32,-244 441.32,-224 539.82,-224 539.82,-244"/>
<text text-anchor="middle" x="490.57" y="-230.5" font-family="Helvetica,sans-Serif" font-size="10.00">RoomManager.cpp</text>
</a>
</g>
</g>
<!-- Node2 -->
<g id="Node000002" class="node">
<title>Node2</title>
<g id="a_Node000002"><a xlink:href="RoomManager_8hpp.html" target="_top" xlink:title=" ">
<polygon fill="white" stroke="#666666" points="238.82,-188 140.32,-188 140.32,-168 238.82,-168 238.82,-188"/>
<text text-anchor="middle" x="189.57" y="-174.5" font-family="Helvetica,sans-Serif" font-size="10.00">RoomManager.hpp</text>
</a>
</g>
</g>
<!-- Node1&#45;&gt;Node2 -->
<g id="edge1_Node000001_Node000002" class="edge">
<title>Node1&#45;&gt;Node2</title>
<g id="a_edge1_Node000001_Node000002"><a xlink:title=" ">
<path fill="none" stroke="#63b8ff" d="M440.87,-224.08C388.62,-214.71 306.36,-199.95 250.3,-189.89"/>
<polygon fill="#63b8ff" stroke="#63b8ff" points="251.05,-186.47 240.59,-188.15 249.82,-193.36 251.05,-186.47"/>
</a>
</g>
</g>
<!-- Node13 -->
<g id="Node000013" class="node">
<title>Node13</title>
<g id="a_Node000013"><a xlink:href="Log_8hpp.html" target="_top" xlink:title=" ">
<polygon fill="white" stroke="#666666" points="528.2,-188 452.95,-188 452.95,-168 528.2,-168 528.2,-188"/>
<text text-anchor="middle" x="490.57" y="-174.5" font-family="Helvetica,sans-Serif" font-size="10.00">../util/Log.hpp</text>
</a>
</g>
</g>
<!-- Node1&#45;&gt;Node13 -->
<g id="edge18_Node000001_Node000013" class="edge">
<title>Node1&#45;&gt;Node13</title>
<g id="a_edge18_Node000001_Node000013"><a xlink:title=" ">
<path fill="none" stroke="#63b8ff" d="M490.57,-223.59C490.57,-217.01 490.57,-207.96 490.57,-199.73"/>
<polygon fill="#63b8ff" stroke="#63b8ff" points="494.07,-199.81 490.57,-189.81 487.07,-199.81 494.07,-199.81"/>
</a>
</g>
</g>
<!-- Node16 -->
<g id="Node000016" class="node">
<title>Node16</title>
<g id="a_Node000016"><a xlink:title=" ">
<polygon fill="#e0e0e0" stroke="#999999" points="602.45,-188 546.7,-188 546.7,-168 602.45,-168 602.45,-188"/>
<text text-anchor="middle" x="574.57" y="-174.5" font-family="Helvetica,sans-Serif" font-size="10.00">algorithm</text>
</a>
</g>
</g>
<!-- Node1&#45;&gt;Node16 -->
<g id="edge22_Node000001_Node000016" class="edge">
<title>Node1&#45;&gt;Node16</title>
<g id="a_edge22_Node000001_Node000016"><a xlink:title=" ">
<path fill="none" stroke="#63b8ff" d="M505.2,-223.59C517.66,-215.59 535.79,-203.93 550.39,-194.54"/>
<polygon fill="#63b8ff" stroke="#63b8ff" points="552.03,-197.65 558.55,-189.3 548.25,-191.76 552.03,-197.65"/>
</a>
</g>
</g>
<!-- Node3 -->
<g id="Node000003" class="node">
<title>Node3</title>
<g id="a_Node000003"><a xlink:href="Room_8hpp.html" target="_top" xlink:title=" ">
<polygon fill="white" stroke="#666666" points="279.07,-132 218.07,-132 218.07,-112 279.07,-112 279.07,-132"/>
<text text-anchor="middle" x="248.57" y="-118.5" font-family="Helvetica,sans-Serif" font-size="10.00">Room.hpp</text>
</a>
</g>
</g>
<!-- Node2&#45;&gt;Node3 -->
<g id="edge2_Node000002_Node000003" class="edge">
<title>Node2&#45;&gt;Node3</title>
<g id="a_edge2_Node000002_Node000003"><a xlink:title=" ">
<path fill="none" stroke="#63b8ff" d="M199.85,-167.59C208.14,-160.01 220.02,-149.13 229.97,-140.02"/>
<polygon fill="#63b8ff" stroke="#63b8ff" points="232.28,-142.65 237.3,-133.32 227.56,-137.49 232.28,-142.65"/>
</a>
</g>
</g>
<!-- Node4 -->
<g id="Node000004" class="node">
<title>Node4</title>
<g id="a_Node000004"><a xlink:title=" ">
<polygon fill="#e0e0e0" stroke="#999999" points="93.07,-76 50.07,-76 50.07,-56 93.07,-56 93.07,-76"/>
<text text-anchor="middle" x="71.57" y="-62.5" font-family="Helvetica,sans-Serif" font-size="10.00">vector</text>
</a>
</g>
</g>
<!-- Node2&#45;&gt;Node4 -->
<g id="edge16_Node000002_Node000004" class="edge">
<title>Node2&#45;&gt;Node4</title>
<g id="a_edge16_Node000002_Node000004"><a xlink:title=" ">
<path fill="none" stroke="#63b8ff" d="M189.24,-167.9C188.28,-154.2 184.59,-128.17 170.57,-112 161.36,-101.38 129.35,-87.88 104.19,-78.45"/>
<polygon fill="#63b8ff" stroke="#63b8ff" points="105.59,-75.23 94.99,-75.08 103.17,-81.81 105.59,-75.23"/>
</a>
</g>
</g>
<!-- Node5 -->
<g id="Node000005" class="node">
<title>Node5</title>
<g id="a_Node000005"><a xlink:title=" ">
<polygon fill="#e0e0e0" stroke="#999999" points="147.2,-20 95.95,-20 95.95,0 147.2,0 147.2,-20"/>
<text text-anchor="middle" x="121.57" y="-6.5" font-family="Helvetica,sans-Serif" font-size="10.00">memory</text>
</a>
</g>
</g>
<!-- Node2&#45;&gt;Node5 -->
<g id="edge14_Node000002_Node000005" class="edge">
<title>Node2&#45;&gt;Node5</title>
<g id="a_edge14_Node000002_Node000005"><a xlink:title=" ">
<path fill="none" stroke="#63b8ff" d="M139.93,-171.49C92.08,-165.04 24.63,-152.53 8.57,-132 -23.56,-90.89 46.7,-47.24 90.29,-25.32"/>
<polygon fill="#63b8ff" stroke="#63b8ff" points="91.65,-28.56 99.1,-21.02 88.58,-22.27 91.65,-28.56"/>
</a>
</g>
</g>
<!-- Node6 -->
<g id="Node000006" class="node">
<title>Node6</title>
<g id="a_Node000006"><a xlink:title=" ">
<polygon fill="#e0e0e0" stroke="#999999" points="426.57,-20 386.57,-20 386.57,0 426.57,0 426.57,-20"/>
<text text-anchor="middle" x="406.57" y="-6.5" font-family="Helvetica,sans-Serif" font-size="10.00">string</text>
</a>
</g>
</g>
<!-- Node2&#45;&gt;Node6 -->
<g id="edge15_Node000002_Node000006" class="edge">
<title>Node2&#45;&gt;Node6</title>
<g id="a_edge15_Node000002_Node000006"><a xlink:title=" ">
<path fill="none" stroke="#63b8ff" d="M231.57,-167.51C277.85,-154.78 350.96,-127.57 390.57,-76 400.33,-63.3 404.22,-45.44 405.73,-31.65"/>
<polygon fill="#63b8ff" stroke="#63b8ff" points="409.2,-32.14 406.44,-21.91 402.22,-31.63 409.2,-32.14"/>
</a>
</g>
</g>
<!-- Node11 -->
<g id="Node000011" class="node">
<title>Node11</title>
<g id="a_Node000011"><a xlink:title=" ">
<polygon fill="#e0e0e0" stroke="#999999" points="99.95,-132 17.2,-132 17.2,-112 99.95,-112 99.95,-132"/>
<text text-anchor="middle" x="58.57" y="-118.5" font-family="Helvetica,sans-Serif" font-size="10.00">unordered_map</text>
</a>
</g>
</g>
<!-- Node2&#45;&gt;Node11 -->
<g id="edge13_Node000002_Node000011" class="edge">
<title>Node2&#45;&gt;Node11</title>
<g id="a_edge13_Node000002_Node000011"><a xlink:title=" ">
<path fill="none" stroke="#63b8ff" d="M166.75,-167.59C146.12,-159.09 115.49,-146.46 92.08,-136.81"/>
<polygon fill="#63b8ff" stroke="#63b8ff" points="93.55,-133.63 82.97,-133.06 90.88,-140.1 93.55,-133.63"/>
</a>
</g>
</g>
<!-- Node12 -->
<g id="Node000012" class="node">
<title>Node12</title>
<g id="a_Node000012"><a xlink:title=" ">
<polygon fill="#e0e0e0" stroke="#999999" points="161.07,-132 118.07,-132 118.07,-112 161.07,-112 161.07,-132"/>
<text text-anchor="middle" x="139.57" y="-118.5" font-family="Helvetica,sans-Serif" font-size="10.00">mutex</text>
</a>
</g>
</g>
<!-- Node2&#45;&gt;Node12 -->
<g id="edge17_Node000002_Node000012" class="edge">
<title>Node2&#45;&gt;Node12</title>
<g id="a_edge17_Node000002_Node000012"><a xlink:title=" ">
<path fill="none" stroke="#63b8ff" d="M180.86,-167.59C173.98,-160.16 164.18,-149.58 155.85,-140.58"/>
<polygon fill="#63b8ff" stroke="#63b8ff" points="158.57,-138.37 149.21,-133.41 153.44,-143.12 158.57,-138.37"/>
</a>
</g>
</g>
<!-- Node3&#45;&gt;Node4 -->
<g id="edge3_Node000003_Node000004" class="edge">
<title>Node3&#45;&gt;Node4</title>
<g id="a_edge3_Node000003_Node000004"><a xlink:title=" ">
<path fill="none" stroke="#63b8ff" d="M217.74,-111.59C185.93,-101.89 136.52,-86.82 104.11,-76.93"/>
<polygon fill="#63b8ff" stroke="#63b8ff" points="105.44,-73.67 94.85,-74.1 103.4,-80.37 105.44,-73.67"/>
</a>
</g>
</g>
<!-- Node3&#45;&gt;Node5 -->
<g id="edge4_Node000003_Node000005" class="edge">
<title>Node3&#45;&gt;Node5</title>
<g id="a_edge4_Node000003_Node000005"><a xlink:title=" ">
<path fill="none" stroke="#63b8ff" d="M227.87,-111.65C211.51,-103.65 188.65,-91.04 171.57,-76 156.25,-62.5 142.4,-43.73 133.18,-29.82"/>
<polygon fill="#63b8ff" stroke="#63b8ff" points="136.25,-28.12 127.91,-21.58 130.35,-31.89 136.25,-28.12"/>
</a>
</g>
</g>
<!-- Node3&#45;&gt;Node6 -->
<g id="edge5_Node000003_Node000006" class="edge">
<title>Node3&#45;&gt;Node6</title>
<g id="a_edge5_Node000003_Node000006"><a xlink:title=" ">
<path fill="none" stroke="#63b8ff" d="M279.35,-115.49C305.5,-109.49 342.8,-97.72 368.57,-76 382.93,-63.9 393.14,-44.92 399.33,-30.59"/>
<polygon fill="#63b8ff" stroke="#63b8ff" points="402.42,-32.3 402.88,-21.72 395.92,-29.7 402.42,-32.3"/>
</a>
</g>
</g>
<!-- Node7 -->
<g id="Node000007" class="node">
<title>Node7</title>
<g id="a_Node000007"><a xlink:title=" ">
<polygon fill="#e0e0e0" stroke="#999999" points="245.57,-76 187.57,-76 187.57,-56 245.57,-56 245.57,-76"/>
<text text-anchor="middle" x="216.57" y="-62.5" font-family="Helvetica,sans-Serif" font-size="10.00">functional</text>
</a>
</g>
</g>
<!-- Node3&#45;&gt;Node7 -->
<g id="edge6_Node000003_Node000007" class="edge">
<title>Node3&#45;&gt;Node7</title>
<g id="a_edge6_Node000003_Node000007"><a xlink:title=" ">
<path fill="none" stroke="#63b8ff" d="M243,-111.59C238.82,-104.55 232.97,-94.67 227.83,-86"/>
<polygon fill="#63b8ff" stroke="#63b8ff" points="230.96,-84.42 222.85,-77.6 224.94,-87.99 230.96,-84.42"/>
</a>
</g>
</g>
<!-- Node8 -->
<g id="Node000008" class="node">
<title>Node8</title>
<g id="a_Node000008"><a xlink:title=" ">
<polygon fill="#e0e0e0" stroke="#999999" points="258.45,-20 178.7,-20 178.7,0 258.45,0 258.45,-20"/>
<text text-anchor="middle" x="218.57" y="-6.5" font-family="Helvetica,sans-Serif" font-size="10.00">boost/asio.hpp</text>
</a>
</g>
</g>
<!-- Node3&#45;&gt;Node8 -->
<g id="edge7_Node000003_Node000008" class="edge">
<title>Node3&#45;&gt;Node8</title>
<g id="a_edge7_Node000003_Node000008"><a xlink:title=" ">
<path fill="none" stroke="#63b8ff" d="M222.35,-111.66C206.59,-104.52 187.85,-92.99 178.57,-76 169.37,-59.15 183.41,-40.54 197.32,-27.57"/>
<polygon fill="#63b8ff" stroke="#63b8ff" points="199.33,-30.46 204.61,-21.28 194.75,-25.16 199.33,-30.46"/>
</a>
</g>
</g>
<!-- Node9 -->
<g id="Node000009" class="node">
<title>Node9</title>
<g id="a_Node000009"><a xlink:href="ClientSession_8hpp.html" target="_top" xlink:title=" ">
<polygon fill="white" stroke="#666666" points="359.32,-76 263.82,-76 263.82,-56 359.32,-56 359.32,-76"/>
<text text-anchor="middle" x="311.57" y="-62.5" font-family="Helvetica,sans-Serif" font-size="10.00">ClientSession.hpp</text>
</a>
</g>
</g>
<!-- Node3&#45;&gt;Node9 -->
<g id="edge8_Node000003_Node000009" class="edge">
<title>Node3&#45;&gt;Node9</title>
<g id="a_edge8_Node000003_Node000009"><a xlink:title=" ">
<path fill="none" stroke="#63b8ff" d="M259.55,-111.59C268.49,-103.93 281.34,-92.91 292.04,-83.75"/>
<polygon fill="#63b8ff" stroke="#63b8ff" points="294.26,-86.45 299.58,-77.28 289.71,-81.13 294.26,-86.45"/>
</a>
</g>
</g>
<!-- Node9&#45;&gt;Node5 -->
<g id="edge10_Node000009_Node000005" class="edge">
<title>Node9&#45;&gt;Node5</title>
<g id="a_edge10_Node000009_Node000005"><a xlink:title=" ">
<path fill="none" stroke="#63b8ff" d="M278.48,-55.59C244.9,-46.05 193.05,-31.31 158.24,-21.42"/>
<polygon fill="#63b8ff" stroke="#63b8ff" points="159.61,-18.17 149.04,-18.81 157.7,-24.91 159.61,-18.17"/>
</a>
</g>
</g>
<!-- Node9&#45;&gt;Node6 -->
<g id="edge11_Node000009_Node000006" class="edge">
<title>Node9&#45;&gt;Node6</title>
<g id="a_edge11_Node000009_Node000006"><a xlink:title=" ">
<path fill="none" stroke="#63b8ff" d="M328.12,-55.59C342.47,-47.44 363.5,-35.48 380.18,-26"/>
<polygon fill="#63b8ff" stroke="#63b8ff" points="381.62,-29.21 388.58,-21.23 378.16,-23.13 381.62,-29.21"/>
</a>
</g>
</g>
<!-- Node9&#45;&gt;Node8 -->
<g id="edge9_Node000009_Node000008" class="edge">
<title>Node9&#45;&gt;Node8</title>
<g id="a_edge9_Node000009_Node000008"><a xlink:title=" ">
<path fill="none" stroke="#63b8ff" d="M295.37,-55.59C281.32,-47.44 260.74,-35.48 244.41,-26"/>
<polygon fill="#63b8ff" stroke="#63b8ff" points="246.61,-23.23 236.21,-21.24 243.1,-29.29 246.61,-23.23"/>
</a>
</g>
</g>
<!-- Node10 -->
<g id="Node000010" class="node">
<title>Node10</title>
<g id="a_Node000010"><a xlink:title=" ">
<polygon fill="#e0e0e0" stroke="#999999" points="334.2,-20 288.95,-20 288.95,0 334.2,0 334.2,-20"/>
<text text-anchor="middle" x="311.57" y="-6.5" font-family="Helvetica,sans-Serif" font-size="10.00">chrono</text>
</a>
</g>
</g>
<!-- Node9&#45;&gt;Node10 -->
<g id="edge12_Node000009_Node000010" class="edge">
<title>Node9&#45;&gt;Node10</title>
<g id="a_edge12_Node000009_Node000010"><a xlink:title=" ">
<path fill="none" stroke="#63b8ff" d="M311.57,-55.59C311.57,-49.01 311.57,-39.96 311.57,-31.73"/>
<polygon fill="#63b8ff" stroke="#63b8ff" points="315.07,-31.81 311.57,-21.81 308.07,-31.81 315.07,-31.81"/>
</a>
</g>
</g>
<!-- Node13&#45;&gt;Node6 -->
<g id="edge19_Node000013_Node000006" class="edge">
<title>Node13&#45;&gt;Node6</title>
<g id="a_edge19_Node000013_Node000006"><a xlink:title=" ">
<path fill="none" stroke="#63b8ff" d="M487.44,-167.54C480.35,-146.69 461.95,-95.46 439.57,-56 434.33,-46.76 427.52,-37.17 421.45,-29.24"/>
<polygon fill="#63b8ff" stroke="#63b8ff" points="424.21,-27.09 415.27,-21.4 418.72,-31.42 424.21,-27.09"/>
</a>
</g>
</g>
<!-- Node14 -->
<g id="Node000014" class="node">
<title>Node14</title>
<g id="a_Node000014"><a xlink:title=" ">
<polygon fill="#e0e0e0" stroke="#999999" points="545.32,-132 491.82,-132 491.82,-112 545.32,-112 545.32,-132"/>
<text text-anchor="middle" x="518.57" y="-118.5" font-family="Helvetica,sans-Serif" font-size="10.00">iostream</text>
</a>
</g>
</g>
<!-- Node13&#45;&gt;Node14 -->
<g id="edge20_Node000013_Node000014" class="edge">
<title>Node13&#45;&gt;Node14</title>
<g id="a_edge20_Node000013_Node000014"><a xlink:title=" ">
<path fill="none" stroke="#63b8ff" d="M495.45,-167.59C499.06,-160.63 504.11,-150.89 508.57,-142.29"/>
<polygon fill="#63b8ff" stroke="#63b8ff" points="511.56,-144.13 513.05,-133.64 505.34,-140.91 511.56,-144.13"/>
</a>
</g>
</g>
<!-- Node15 -->
<g id="Node000015" class="node">
<title>Node15</title>
<g id="a_Node000015"><a xlink:title=" ">
<polygon fill="#e0e0e0" stroke="#999999" points="605.7,-132 563.45,-132 563.45,-112 605.7,-112 605.7,-132"/>
<text text-anchor="middle" x="584.57" y="-118.5" font-family="Helvetica,sans-Serif" font-size="10.00">cstdio</text>
</a>
</g>
</g>
<!-- Node13&#45;&gt;Node15 -->
<g id="edge21_Node000013_Node000015" class="edge">
<title>Node13&#45;&gt;Node15</title>
<g id="a_edge21_Node000013_Node000015"><a xlink:title=" ">
<path fill="none" stroke="#63b8ff" d="M506.95,-167.59C521.15,-159.44 541.95,-147.48 558.45,-138"/>
<polygon fill="#63b8ff" stroke="#63b8ff" points="559.83,-141.25 566.76,-133.23 556.34,-135.18 559.83,-141.25"/>
</a>
</g>
</g>
</g>
</svg>
