<?xml version="1.0" encoding="UTF-8" standalone="no"?>
<!DOCTYPE svg PUBLIC "-//W3C//DTD SVG 1.1//EN"
 "http://www.w3.org/Graphics/SVG/1.1/DTD/svg11.dtd">
<!-- Generated by graphviz version 12.1.0 (20240811.2233)
 -->
<!-- Title: main.cpp Pages: 1 -->
<svg width="1062pt" height="308pt"
 viewBox="0.00 0.00 1062.12 308.00" xmlns="http://www.w3.org/2000/svg" xmlns:xlink="http://www.w3.org/1999/xlink">
<g id="graph0" class="graph" transform="scale(1 1) rotate(0) translate(4 304)">
<title>main.cpp</title>
<!-- Node1 -->
<g id="Node000001" class="node">
<title>Node1</title>
<g id="a_Node000001"><a xlink:title=" ">
<polygon fill="#999999" stroke="#666666" points="730.62,-300 674.88,-300 674.88,-280 730.62,-280 730.62,-300"/>
<text text-anchor="middle" x="702.75" y="-286.5" font-family="Helvetica,sans-Serif" font-size="10.00">main.cpp</text>
</a>
</g>
</g>
<!-- Node2 -->
<g id="Node000002" class="node">
<title>Node2</title>
<g id="a_Node000002"><a xlink:title=" ">
<polygon fill="#e0e0e0" stroke="#999999" points="53.5,-188 0,-188 0,-168 53.5,-168 53.5,-188"/>
<text text-anchor="middle" x="26.75" y="-174.5" font-family="Helvetica,sans-Serif" font-size="10.00">iostream</text>
</a>
</g>
</g>
<!-- Node1&#45;&gt;Node2 -->
<g id="edge1_Node000001_Node000002" class="edge">
<title>Node1&#45;&gt;Node2</title>
<g id="a_edge1_Node000001_Node000002"><a xlink:title=" ">
<path fill="none" stroke="#63b8ff" d="M674.73,-288.16C561.37,-284.6 140.18,-269.75 86.75,-244 65.84,-233.92 48.71,-213.09 38.18,-197.71"/>
<polygon fill="#63b8ff" stroke="#63b8ff" points="41.18,-195.9 32.81,-189.41 35.3,-199.71 41.18,-195.9"/>
</a>
</g>
</g>
<!-- Node3 -->
<g id="Node000003" class="node">
<title>Node3</title>
<g id="a_Node000003"><a xlink:title=" ">
<polygon fill="#e0e0e0" stroke="#999999" points="787.62,-20 707.88,-20 707.88,0 787.62,0 787.62,-20"/>
<text text-anchor="middle" x="747.75" y="-6.5" font-family="Helvetica,sans-Serif" font-size="10.00">boost/asio.hpp</text>
</a>
</g>
</g>
<!-- Node1&#45;&gt;Node3 -->
<g id="edge2_Node000001_Node000003" class="edge">
<title>Node1&#45;&gt;Node3</title>
<g id="a_edge2_Node000001_Node000003"><a xlink:title=" ">
<path fill="none" stroke="#63b8ff" d="M710.01,-279.8C727.75,-256.65 773.03,-193.42 788.75,-132 792.32,-118.05 796.25,-77.78 787.75,-56 783.56,-45.27 775.57,-35.45 767.83,-27.73"/>
<polygon fill="#63b8ff" stroke="#63b8ff" points="770.55,-25.48 760.82,-21.27 765.8,-30.62 770.55,-25.48"/>
</a>
</g>
</g>
<!-- Node4 -->
<g id="Node000004" class="node">
<title>Node4</title>
<g id="a_Node000004"><a xlink:title=" ">
<polygon fill="#e0e0e0" stroke="#999999" points="1054.12,-244 1007.38,-244 1007.38,-224 1054.12,-224 1054.12,-244"/>
<text text-anchor="middle" x="1030.75" y="-230.5" font-family="Helvetica,sans-Serif" font-size="10.00">csignal</text>
</a>
</g>
</g>
<!-- Node1&#45;&gt;Node4 -->
<g id="edge3_Node000001_Node000004" class="edge">
<title>Node1&#45;&gt;Node4</title>
<g id="a_edge3_Node000001_Node000004"><a xlink:title=" ">
<path fill="none" stroke="#63b8ff" d="M730.98,-285.45C783.13,-278.71 897.98,-263.02 993.75,-244 994.42,-243.87 995.09,-243.73 995.77,-243.59"/>
<polygon fill="#63b8ff" stroke="#63b8ff" points="996.45,-247.02 1005.45,-241.44 994.93,-240.19 996.45,-247.02"/>
</a>
</g>
</g>
<!-- Node5 -->
<g id="Node000005" class="node">
<title>Node5</title>
<g id="a_Node000005"><a xlink:title=" ">
<polygon fill="#e0e0e0" stroke="#999999" points="929.38,-20 878.12,-20 878.12,0 929.38,0 929.38,-20"/>
<text text-anchor="middle" x="903.75" y="-6.5" font-family="Helvetica,sans-Serif" font-size="10.00">memory</text>
</a>
</g>
</g>
<!-- Node1&#45;&gt;Node5 -->
<g id="edge4_Node000001_Node000005" class="edge">
<title>Node1&#45;&gt;Node5</title>
<g id="a_edge4_Node000001_Node000005"><a xlink:title=" ">
<path fill="none" stroke="#63b8ff" d="M731.09,-284.01C801.69,-270.76 979.75,-232.1 979.75,-179 979.75,-179 979.75,-179 979.75,-121 979.75,-82.24 947.41,-47.24 924.92,-27.59"/>
<polygon fill="#63b8ff" stroke="#63b8ff" points="927.38,-25.08 917.46,-21.34 922.88,-30.44 927.38,-25.08"/>
</a>
</g>
</g>
<!-- Node6 -->
<g id="Node000006" class="node">
<title>Node6</title>
<g id="a_Node000006"><a xlink:href="UdpServer_8hpp.html" target="_top" xlink:title=" ">
<polygon fill="white" stroke="#666666" points="517.62,-244 419.88,-244 419.88,-224 517.62,-224 517.62,-244"/>
<text text-anchor="middle" x="468.75" y="-230.5" font-family="Helvetica,sans-Serif" font-size="10.00">net/UdpServer.hpp</text>
</a>
</g>
</g>
<!-- Node1&#45;&gt;Node6 -->
<g id="edge5_Node000001_Node000006" class="edge">
<title>Node1&#45;&gt;Node6</title>
<g id="a_edge5_Node000001_Node000006"><a xlink:title=" ">
<path fill="none" stroke="#63b8ff" d="M674.52,-282.49C636.49,-273.71 568.08,-257.92 520.64,-246.97"/>
<polygon fill="#63b8ff" stroke="#63b8ff" points="521.66,-243.62 511.13,-244.78 520.09,-250.44 521.66,-243.62"/>
</a>
</g>
</g>
<!-- Node20 -->
<g id="Node000020" class="node">
<title>Node20</title>
<g id="a_Node000020"><a xlink:href="Log_8hpp.html" target="_top" xlink:title=" ">
<polygon fill="white" stroke="#666666" points="161.88,-244 95.62,-244 95.62,-224 161.88,-224 161.88,-244"/>
<text text-anchor="middle" x="128.75" y="-230.5" font-family="Helvetica,sans-Serif" font-size="10.00">util/Log.hpp</text>
</a>
</g>
</g>
<!-- Node1&#45;&gt;Node20 -->
<g id="edge35_Node000001_Node000020" class="edge">
<title>Node1&#45;&gt;Node20</title>
<g id="a_edge35_Node000001_Node000020"><a xlink:title=" ">
<path fill="none" stroke="#63b8ff" d="M674.68,-286.36C582.18,-277.66 286.46,-249.84 173.34,-239.19"/>
<polygon fill="#63b8ff" stroke="#63b8ff" points="173.82,-235.72 163.54,-238.27 173.17,-242.69 173.82,-235.72"/>
</a>
</g>
</g>
<!-- Node6&#45;&gt;Node3 -->
<g id="edge6_Node000006_Node000003" class="edge">
<title>Node6&#45;&gt;Node3</title>
<g id="a_edge6_Node000006_Node000003"><a xlink:title=" ">
<path fill="none" stroke="#63b8ff" d="M517.95,-225.89C559.14,-219.01 618.99,-206.83 668.75,-188 717.12,-169.7 744.41,-176.51 770.75,-132 787.95,-102.93 778.66,-88.84 770.75,-56 768.6,-47.07 764.36,-37.92 760.11,-30.22"/>
<polygon fill="#63b8ff" stroke="#63b8ff" points="763.2,-28.57 755.06,-21.78 757.19,-32.16 763.2,-28.57"/>
</a>
</g>
</g>
<!-- Node6&#45;&gt;Node5 -->
<g id="edge11_Node000006_Node000005" class="edge">
<title>Node6&#45;&gt;Node5</title>
<g id="a_edge11_Node000006_Node000005"><a xlink:title=" ">
<path fill="none" stroke="#63b8ff" d="M517.75,-230.46C568.76,-226.37 650.1,-215.7 714.75,-188 792.54,-154.66 813.07,-139.74 868.75,-76 880.61,-62.43 890,-44.15 896.06,-30.44"/>
<polygon fill="#63b8ff" stroke="#63b8ff" points="899.13,-32.16 899.76,-21.59 892.67,-29.46 899.13,-32.16"/>
</a>
</g>
</g>
<!-- Node7 -->
<g id="Node000007" class="node">
<title>Node7</title>
<g id="a_Node000007"><a xlink:title=" ">
<polygon fill="#e0e0e0" stroke="#999999" points="330.62,-188 292.88,-188 292.88,-168 330.62,-168 330.62,-188"/>
<text text-anchor="middle" x="311.75" y="-174.5" font-family="Helvetica,sans-Serif" font-size="10.00">array</text>
</a>
</g>
</g>
<!-- Node6&#45;&gt;Node7 -->
<g id="edge7_Node000006_Node000007" class="edge">
<title>Node6&#45;&gt;Node7</title>
<g id="a_edge7_Node000006_Node000007"><a xlink:title=" ">
<path fill="none" stroke="#63b8ff" d="M441.4,-223.59C413.48,-213.99 370.27,-199.13 341.5,-189.23"/>
<polygon fill="#63b8ff" stroke="#63b8ff" points="342.91,-186.02 332.31,-186.07 340.63,-192.64 342.91,-186.02"/>
</a>
</g>
</g>
<!-- Node8 -->
<g id="Node000008" class="node">
<title>Node8</title>
<g id="a_Node000008"><a xlink:title=" ">
<polygon fill="#e0e0e0" stroke="#999999" points="545.12,-132 462.38,-132 462.38,-112 545.12,-112 545.12,-132"/>
<text text-anchor="middle" x="503.75" y="-118.5" font-family="Helvetica,sans-Serif" font-size="10.00">unordered_map</text>
</a>
</g>
</g>
<!-- Node6&#45;&gt;Node8 -->
<g id="edge8_Node000006_Node000008" class="edge">
<title>Node6&#45;&gt;Node8</title>
<g id="a_edge8_Node000006_Node000008"><a xlink:title=" ">
<path fill="none" stroke="#63b8ff" d="M471.73,-223.62C477.37,-205.92 489.67,-167.24 497.28,-143.32"/>
<polygon fill="#63b8ff" stroke="#63b8ff" points="500.62,-144.39 500.31,-133.8 493.95,-142.27 500.62,-144.39"/>
</a>
</g>
</g>
<!-- Node9 -->
<g id="Node000009" class="node">
<title>Node9</title>
<g id="a_Node000009"><a xlink:title=" ">
<polygon fill="#e0e0e0" stroke="#999999" points="390.75,-20 350.75,-20 350.75,0 390.75,0 390.75,-20"/>
<text text-anchor="middle" x="370.75" y="-6.5" font-family="Helvetica,sans-Serif" font-size="10.00">string</text>
</a>
</g>
</g>
<!-- Node6&#45;&gt;Node9 -->
<g id="edge9_Node000006_Node000009" class="edge">
<title>Node6&#45;&gt;Node9</title>
<g id="a_edge9_Node000006_Node000009"><a xlink:title=" ">
<path fill="none" stroke="#63b8ff" d="M419.6,-230.05C380.11,-225.66 324.67,-214.81 283.75,-188 231.48,-153.75 218.68,-135.23 198.75,-76 179.35,-18.34 284.16,-10.51 339,-10.27"/>
<polygon fill="#63b8ff" stroke="#63b8ff" points="338.97,-13.77 348.99,-10.32 339.01,-6.77 338.97,-13.77"/>
</a>
</g>
</g>
<!-- Node10 -->
<g id="Node000010" class="node">
<title>Node10</title>
<g id="a_Node000010"><a xlink:title=" ">
<polygon fill="#e0e0e0" stroke="#999999" points="461.38,-20 416.12,-20 416.12,0 461.38,0 461.38,-20"/>
<text text-anchor="middle" x="438.75" y="-6.5" font-family="Helvetica,sans-Serif" font-size="10.00">chrono</text>
</a>
</g>
</g>
<!-- Node6&#45;&gt;Node10 -->
<g id="edge10_Node000006_Node000010" class="edge">
<title>Node6&#45;&gt;Node10</title>
<g id="a_edge10_Node000006_Node000010"><a xlink:title=" ">
<path fill="none" stroke="#63b8ff" d="M460.85,-223.74C454.05,-215.12 444.72,-201.6 440.75,-188 424.79,-133.33 430.89,-65.05 435.47,-31.52"/>
<polygon fill="#63b8ff" stroke="#63b8ff" points="438.89,-32.37 436.89,-21.97 431.96,-31.35 438.89,-32.37"/>
</a>
</g>
</g>
<!-- Node11 -->
<g id="Node000011" class="node">
<title>Node11</title>
<g id="a_Node000011"><a xlink:href="Server_2src_2net_2Protocol_8hpp.html" target="_top" xlink:title=" ">
<polygon fill="white" stroke="#666666" points="369.12,-132 298.38,-132 298.38,-112 369.12,-112 369.12,-132"/>
<text text-anchor="middle" x="333.75" y="-118.5" font-family="Helvetica,sans-Serif" font-size="10.00">Protocol.hpp</text>
</a>
</g>
</g>
<!-- Node6&#45;&gt;Node11 -->
<g id="edge12_Node000006_Node000011" class="edge">
<title>Node6&#45;&gt;Node11</title>
<g id="a_edge12_Node000006_Node000011"><a xlink:title=" ">
<path fill="none" stroke="#63b8ff" d="M444.02,-223.55C425.81,-215.8 401.13,-203.59 382.75,-188 367.29,-174.89 353.77,-156.06 344.87,-142.04"/>
<polygon fill="#63b8ff" stroke="#63b8ff" points="348,-140.44 339.8,-133.73 342.02,-144.09 348,-140.44"/>
</a>
</g>
</g>
<!-- Node15 -->
<g id="Node000015" class="node">
<title>Node15</title>
<g id="a_Node000015"><a xlink:href="ClientSession_8hpp.html" target="_top" xlink:title=" ">
<polygon fill="white" stroke="#666666" points="647.5,-76 552,-76 552,-56 647.5,-56 647.5,-76"/>
<text text-anchor="middle" x="599.75" y="-62.5" font-family="Helvetica,sans-Serif" font-size="10.00">ClientSession.hpp</text>
</a>
</g>
</g>
<!-- Node6&#45;&gt;Node15 -->
<g id="edge17_Node000006_Node000015" class="edge">
<title>Node6&#45;&gt;Node15</title>
<g id="a_edge17_Node000006_Node000015"><a xlink:title=" ">
<path fill="none" stroke="#63b8ff" d="M463.64,-223.71C452.38,-201.85 428.36,-146.4 453.75,-112 473.6,-85.11 509.29,-73.79 540.41,-69.22"/>
<polygon fill="#63b8ff" stroke="#63b8ff" points="540.64,-72.72 550.13,-68.02 539.78,-65.78 540.64,-72.72"/>
</a>
</g>
</g>
<!-- Node16 -->
<g id="Node000016" class="node">
<title>Node16</title>
<g id="a_Node000016"><a xlink:href="RoomManager_8hpp.html" target="_top" xlink:title=" ">
<polygon fill="white" stroke="#666666" points="660,-188 561.5,-188 561.5,-168 660,-168 660,-188"/>
<text text-anchor="middle" x="610.75" y="-174.5" font-family="Helvetica,sans-Serif" font-size="10.00">RoomManager.hpp</text>
</a>
</g>
</g>
<!-- Node6&#45;&gt;Node16 -->
<g id="edge22_Node000006_Node000016" class="edge">
<title>Node6&#45;&gt;Node16</title>
<g id="a_edge22_Node000006_Node000016"><a xlink:title=" ">
<path fill="none" stroke="#63b8ff" d="M493.48,-223.59C516.05,-215.01 549.66,-202.23 575.12,-192.55"/>
<polygon fill="#63b8ff" stroke="#63b8ff" points="576.3,-195.84 584.41,-189.02 573.82,-189.3 576.3,-195.84"/>
</a>
</g>
</g>
<!-- Node11&#45;&gt;Node9 -->
<g id="edge16_Node000011_Node000009" class="edge">
<title>Node11&#45;&gt;Node9</title>
<g id="a_edge16_Node000011_Node000009"><a xlink:title=" ">
<path fill="none" stroke="#63b8ff" d="M336.9,-111.62C342.88,-93.84 355.99,-54.88 364.02,-31"/>
<polygon fill="#63b8ff" stroke="#63b8ff" points="367.25,-32.38 367.12,-21.79 360.62,-30.15 367.25,-32.38"/>
</a>
</g>
</g>
<!-- Node12 -->
<g id="Node000012" class="node">
<title>Node12</title>
<g id="a_Node000012"><a xlink:title=" ">
<polygon fill="#e0e0e0" stroke="#999999" points="319.38,-76 274.12,-76 274.12,-56 319.38,-56 319.38,-76"/>
<text text-anchor="middle" x="296.75" y="-62.5" font-family="Helvetica,sans-Serif" font-size="10.00">cstdint</text>
</a>
</g>
</g>
<!-- Node11&#45;&gt;Node12 -->
<g id="edge13_Node000011_Node000012" class="edge">
<title>Node11&#45;&gt;Node12</title>
<g id="a_edge13_Node000011_Node000012"><a xlink:title=" ">
<path fill="none" stroke="#63b8ff" d="M327.31,-111.59C322.42,-104.47 315.56,-94.45 309.57,-85.72"/>
<polygon fill="#63b8ff" stroke="#63b8ff" points="312.52,-83.82 303.98,-77.55 306.74,-87.77 312.52,-83.82"/>
</a>
</g>
</g>
<!-- Node13 -->
<g id="Node000013" class="node">
<title>Node13</title>
<g id="a_Node000013"><a xlink:title=" ">
<polygon fill="#e0e0e0" stroke="#999999" points="255.88,-76 207.62,-76 207.62,-56 255.88,-56 255.88,-76"/>
<text text-anchor="middle" x="231.75" y="-62.5" font-family="Helvetica,sans-Serif" font-size="10.00">cstddef</text>
</a>
</g>
</g>
<!-- Node11&#45;&gt;Node13 -->
<g id="edge14_Node000011_Node000013" class="edge">
<title>Node11&#45;&gt;Node13</title>
<g id="a_edge14_Node000011_Node000013"><a xlink:title=" ">
<path fill="none" stroke="#63b8ff" d="M315.98,-111.59C300.43,-103.36 277.57,-91.26 259.59,-81.74"/>
<polygon fill="#63b8ff" stroke="#63b8ff" points="261.47,-78.77 250.99,-77.19 258.19,-84.96 261.47,-78.77"/>
</a>
</g>
</g>
<!-- Node14 -->
<g id="Node000014" class="node">
<title>Node14</title>
<g id="a_Node000014"><a xlink:title=" ">
<polygon fill="#e0e0e0" stroke="#999999" points="495.25,-76 452.25,-76 452.25,-56 495.25,-56 495.25,-76"/>
<text text-anchor="middle" x="473.75" y="-62.5" font-family="Helvetica,sans-Serif" font-size="10.00">vector</text>
</a>
</g>
</g>
<!-- Node11&#45;&gt;Node14 -->
<g id="edge15_Node000011_Node000014" class="edge">
<title>Node11&#45;&gt;Node14</title>
<g id="a_edge15_Node000011_Node000014"><a xlink:title=" ">
<path fill="none" stroke="#63b8ff" d="M358.14,-111.59C381.2,-102.7 415.97,-89.29 441.36,-79.49"/>
<polygon fill="#63b8ff" stroke="#63b8ff" points="442.46,-82.82 450.53,-75.96 439.94,-76.29 442.46,-82.82"/>
</a>
</g>
</g>
<!-- Node15&#45;&gt;Node3 -->
<g id="edge18_Node000015_Node000003" class="edge">
<title>Node15&#45;&gt;Node3</title>
<g id="a_edge18_Node000015_Node000003"><a xlink:title=" ">
<path fill="none" stroke="#63b8ff" d="M625.53,-55.59C649.15,-46.97 684.39,-34.12 710.97,-24.42"/>
<polygon fill="#63b8ff" stroke="#63b8ff" points="712.15,-27.71 720.35,-21 709.75,-21.14 712.15,-27.71"/>
</a>
</g>
</g>
<!-- Node15&#45;&gt;Node5 -->
<g id="edge19_Node000015_Node000005" class="edge">
<title>Node15&#45;&gt;Node5</title>
<g id="a_edge19_Node000015_Node000005"><a xlink:title=" ">
<path fill="none" stroke="#63b8ff" d="M647.92,-56.44C708.59,-45.67 811.55,-27.38 866.53,-17.61"/>
<polygon fill="#63b8ff" stroke="#63b8ff" points="867.1,-21.06 876.34,-15.87 865.88,-14.17 867.1,-21.06"/>
</a>
</g>
</g>
<!-- Node15&#45;&gt;Node9 -->
<g id="edge20_Node000015_Node000009" class="edge">
<title>Node15&#45;&gt;Node9</title>
<g id="a_edge20_Node000015_Node000009"><a xlink:title=" ">
<path fill="none" stroke="#63b8ff" d="M558.29,-55.53C519.18,-46.56 458.92,-32.6 406.75,-20 405.15,-19.61 403.5,-19.21 401.84,-18.81"/>
<polygon fill="#63b8ff" stroke="#63b8ff" points="402.94,-15.47 392.39,-16.47 401.25,-22.27 402.94,-15.47"/>
</a>
</g>
</g>
<!-- Node15&#45;&gt;Node10 -->
<g id="edge21_Node000015_Node000010" class="edge">
<title>Node15&#45;&gt;Node10</title>
<g id="a_edge21_Node000015_Node000010"><a xlink:title=" ">
<path fill="none" stroke="#63b8ff" d="M571.71,-55.59C544.07,-46.32 501.81,-32.15 472.38,-22.28"/>
<polygon fill="#63b8ff" stroke="#63b8ff" points="473.81,-19.07 463.22,-19.21 471.59,-25.71 473.81,-19.07"/>
</a>
</g>
</g>
<!-- Node16&#45;&gt;Node5 -->
<g id="edge31_Node000016_Node000005" class="edge">
<title>Node16&#45;&gt;Node5</title>
<g id="a_edge31_Node000016_Node000005"><a xlink:title=" ">
<path fill="none" stroke="#63b8ff" d="M660.27,-169.22C693.1,-162.62 736.3,-151.1 770.75,-132 820.11,-104.64 866.09,-55.57 888.84,-29.11"/>
<polygon fill="#63b8ff" stroke="#63b8ff" points="891.39,-31.52 895.16,-21.62 886.04,-27 891.39,-31.52"/>
</a>
</g>
</g>
<!-- Node16&#45;&gt;Node8 -->
<g id="edge30_Node000016_Node000008" class="edge">
<title>Node16&#45;&gt;Node8</title>
<g id="a_edge30_Node000016_Node000008"><a xlink:title=" ">
<path fill="none" stroke="#63b8ff" d="M592.11,-167.59C575.72,-159.32 551.59,-147.14 532.69,-137.6"/>
<polygon fill="#63b8ff" stroke="#63b8ff" points="534.39,-134.54 523.88,-133.16 531.24,-140.79 534.39,-134.54"/>
</a>
</g>
</g>
<!-- Node16&#45;&gt;Node9 -->
<g id="edge32_Node000016_Node000009" class="edge">
<title>Node16&#45;&gt;Node9</title>
<g id="a_edge32_Node000016_Node000009"><a xlink:title=" ">
<path fill="none" stroke="#63b8ff" d="M604.93,-167.62C595.74,-153.55 576.55,-127.05 553.75,-112 510.82,-83.66 488.34,-101.64 443.75,-76 421.58,-63.25 400.21,-42.98 386.38,-28.47"/>
<polygon fill="#63b8ff" stroke="#63b8ff" points="389.2,-26.36 379.84,-21.4 384.07,-31.12 389.2,-26.36"/>
</a>
</g>
</g>
<!-- Node16&#45;&gt;Node14 -->
<g id="edge33_Node000016_Node000014" class="edge">
<title>Node16&#45;&gt;Node14</title>
<g id="a_edge33_Node000016_Node000014"><a xlink:title=" ">
<path fill="none" stroke="#63b8ff" d="M609.72,-167.78C607.72,-153.92 602.03,-127.68 586.75,-112 575.23,-100.19 535.68,-86.03 506.6,-76.79"/>
<polygon fill="#63b8ff" stroke="#63b8ff" points="507.7,-73.47 497.11,-73.84 505.62,-80.15 507.7,-73.47"/>
</a>
</g>
</g>
<!-- Node17 -->
<g id="Node000017" class="node">
<title>Node17</title>
<g id="a_Node000017"><a xlink:href="Room_8hpp.html" target="_top" xlink:title=" ">
<polygon fill="white" stroke="#666666" points="700.25,-132 639.25,-132 639.25,-112 700.25,-112 700.25,-132"/>
<text text-anchor="middle" x="669.75" y="-118.5" font-family="Helvetica,sans-Serif" font-size="10.00">Room.hpp</text>
</a>
</g>
</g>
<!-- Node16&#45;&gt;Node17 -->
<g id="edge23_Node000016_Node000017" class="edge">
<title>Node16&#45;&gt;Node17</title>
<g id="a_edge23_Node000016_Node000017"><a xlink:title=" ">
<path fill="none" stroke="#63b8ff" d="M621.03,-167.59C629.32,-160.01 641.2,-149.13 651.15,-140.02"/>
<polygon fill="#63b8ff" stroke="#63b8ff" points="653.46,-142.65 658.47,-133.32 648.73,-137.49 653.46,-142.65"/>
</a>
</g>
</g>
<!-- Node19 -->
<g id="Node000019" class="node">
<title>Node19</title>
<g id="a_Node000019"><a xlink:title=" ">
<polygon fill="#e0e0e0" stroke="#999999" points="761.25,-132 718.25,-132 718.25,-112 761.25,-112 761.25,-132"/>
<text text-anchor="middle" x="739.75" y="-118.5" font-family="Helvetica,sans-Serif" font-size="10.00">mutex</text>
</a>
</g>
</g>
<!-- Node16&#45;&gt;Node19 -->
<g id="edge34_Node000016_Node000019" class="edge">
<title>Node16&#45;&gt;Node19</title>
<g id="a_edge34_Node000016_Node000019"><a xlink:title=" ">
<path fill="none" stroke="#63b8ff" d="M633.22,-167.59C653.78,-158.99 684.45,-146.15 707.6,-136.46"/>
<polygon fill="#63b8ff" stroke="#63b8ff" points="708.7,-139.79 716.57,-132.7 706,-133.34 708.7,-139.79"/>
</a>
</g>
</g>
<!-- Node17&#45;&gt;Node3 -->
<g id="edge28_Node000017_Node000003" class="edge">
<title>Node17&#45;&gt;Node3</title>
<g id="a_edge28_Node000017_Node000003"><a xlink:title=" ">
<path fill="none" stroke="#63b8ff" d="M671.72,-111.91C674.91,-98.67 682.16,-73.75 694.75,-56 702.58,-44.96 713.73,-34.95 723.77,-27.2"/>
<polygon fill="#63b8ff" stroke="#63b8ff" points="725.71,-30.12 731.71,-21.38 721.57,-24.47 725.71,-30.12"/>
</a>
</g>
</g>
<!-- Node17&#45;&gt;Node5 -->
<g id="edge25_Node000017_Node000005" class="edge">
<title>Node17&#45;&gt;Node5</title>
<g id="a_edge25_Node000017_Node000005"><a xlink:title=" ">
<path fill="none" stroke="#63b8ff" d="M691.52,-111.57C712.05,-102.61 743.62,-88.67 770.75,-76 806.77,-59.18 847.82,-38.95 874.67,-25.58"/>
<polygon fill="#63b8ff" stroke="#63b8ff" points="876.17,-28.74 883.56,-21.14 873.05,-22.48 876.17,-28.74"/>
</a>
</g>
</g>
<!-- Node17&#45;&gt;Node9 -->
<g id="edge26_Node000017_Node000009" class="edge">
<title>Node17&#45;&gt;Node9</title>
<g id="a_edge26_Node000017_Node000009"><a xlink:title=" ">
<path fill="none" stroke="#63b8ff" d="M639.25,-111.56C613.23,-103.19 575,-90.11 542.75,-76 525.27,-68.35 522.3,-63.51 504.75,-56 470.4,-41.3 429.51,-28.17 402.01,-19.94"/>
<polygon fill="#63b8ff" stroke="#63b8ff" points="403.14,-16.62 392.56,-17.15 401.16,-23.34 403.14,-16.62"/>
</a>
</g>
</g>
<!-- Node17&#45;&gt;Node14 -->
<g id="edge24_Node000017_Node000014" class="edge">
<title>Node17&#45;&gt;Node14</title>
<g id="a_edge24_Node000017_Node000014"><a xlink:title=" ">
<path fill="none" stroke="#63b8ff" d="M639.12,-112.56C603.02,-102.62 543.28,-86.16 506.34,-75.98"/>
<polygon fill="#63b8ff" stroke="#63b8ff" points="507.69,-72.72 497.12,-73.44 505.83,-79.47 507.69,-72.72"/>
</a>
</g>
</g>
<!-- Node17&#45;&gt;Node15 -->
<g id="edge29_Node000017_Node000015" class="edge">
<title>Node17&#45;&gt;Node15</title>
<g id="a_edge29_Node000017_Node000015"><a xlink:title=" ">
<path fill="none" stroke="#63b8ff" d="M657.56,-111.59C647.42,-103.77 632.76,-92.46 620.74,-83.19"/>
<polygon fill="#63b8ff" stroke="#63b8ff" points="623.06,-80.56 613,-77.22 618.78,-86.1 623.06,-80.56"/>
</a>
</g>
</g>
<!-- Node18 -->
<g id="Node000018" class="node">
<title>Node18</title>
<g id="a_Node000018"><a xlink:title=" ">
<polygon fill="#e0e0e0" stroke="#999999" points="761.75,-76 703.75,-76 703.75,-56 761.75,-56 761.75,-76"/>
<text text-anchor="middle" x="732.75" y="-62.5" font-family="Helvetica,sans-Serif" font-size="10.00">functional</text>
</a>
</g>
</g>
<!-- Node17&#45;&gt;Node18 -->
<g id="edge27_Node000017_Node000018" class="edge">
<title>Node17&#45;&gt;Node18</title>
<g id="a_edge27_Node000017_Node000018"><a xlink:title=" ">
<path fill="none" stroke="#63b8ff" d="M680.72,-111.59C689.67,-103.93 702.52,-92.91 713.21,-83.75"/>
<polygon fill="#63b8ff" stroke="#63b8ff" points="715.44,-86.45 720.75,-77.28 710.88,-81.13 715.44,-86.45"/>
</a>
</g>
</g>
<!-- Node20&#45;&gt;Node2 -->
<g id="edge37_Node000020_Node000002" class="edge">
<title>Node20&#45;&gt;Node2</title>
<g id="a_edge37_Node000020_Node000002"><a xlink:title=" ">
<path fill="none" stroke="#63b8ff" d="M110.98,-223.59C95.43,-215.36 72.57,-203.26 54.59,-193.74"/>
<polygon fill="#63b8ff" stroke="#63b8ff" points="56.47,-190.77 45.99,-189.19 53.19,-196.96 56.47,-190.77"/>
</a>
</g>
</g>
<!-- Node20&#45;&gt;Node9 -->
<g id="edge36_Node000020_Node000009" class="edge">
<title>Node20&#45;&gt;Node9</title>
<g id="a_edge36_Node000020_Node000009"><a xlink:title=" ">
<path fill="none" stroke="#63b8ff" d="M129.19,-223.65C131.11,-194.22 141.15,-102.71 192.75,-56 233.35,-19.24 299.63,-11.56 338.84,-10.47"/>
<polygon fill="#63b8ff" stroke="#63b8ff" points="338.84,-13.97 348.8,-10.35 338.75,-6.98 338.84,-13.97"/>
</a>
</g>
</g>
<!-- Node21 -->
<g id="Node000021" class="node">
<title>Node21</title>
<g id="a_Node000021"><a xlink:title=" ">
<polygon fill="#e0e0e0" stroke="#999999" points="113.88,-188 71.62,-188 71.62,-168 113.88,-168 113.88,-188"/>
<text text-anchor="middle" x="92.75" y="-174.5" font-family="Helvetica,sans-Serif" font-size="10.00">cstdio</text>
</a>
</g>
</g>
<!-- Node20&#45;&gt;Node21 -->
<g id="edge38_Node000020_Node000021" class="edge">
<title>Node20&#45;&gt;Node21</title>
<g id="a_edge38_Node000020_Node000021"><a xlink:title=" ">
<path fill="none" stroke="#63b8ff" d="M122.48,-223.59C117.73,-216.47 111.05,-206.45 105.23,-197.72"/>
<polygon fill="#63b8ff" stroke="#63b8ff" points="108.25,-195.94 99.79,-189.56 102.42,-199.82 108.25,-195.94"/>
</a>
</g>
</g>
</g>
</svg>
