<?xml version="1.0" encoding="UTF-8" standalone="no"?>
<!DOCTYPE svg PUBLIC "-//W3C//DTD SVG 1.1//EN"
 "http://www.w3.org/Graphics/SVG/1.1/DTD/svg11.dtd">
<!-- Generated by graphviz version 12.1.0 (20240811.2233)
 -->
<!-- Title: main Pages: 1 -->
<svg width="780pt" height="190pt"
 viewBox="0.00 0.00 780.25 190.00" xmlns="http://www.w3.org/2000/svg" xmlns:xlink="http://www.w3.org/1999/xlink">
<g id="graph0" class="graph" transform="scale(1 1) rotate(0) translate(4 186)">
<title>main</title>
<!-- Node1 -->
<g id="Node000001" class="node">
<title>Node1</title>
<g id="a_Node000001"><a xlink:title=" ">
<polygon fill="#999999" stroke="#666666" points="37,-101 0,-101 0,-81 37,-81 37,-101"/>
<text text-anchor="middle" x="18.5" y="-87.5" font-family="Helvetica,sans-Serif" font-size="10.00">main</text>
</a>
</g>
</g>
<!-- Node2 -->
<g id="Node000002" class="node">
<title>Node2</title>
<g id="a_Node000002"><a xlink:href="classRTypeServer_1_1Server.html#a841ead80ea80627c1ae8be3fce3ea1cb" target="_top" xlink:title=" ">
<polygon fill="white" stroke="#666666" points="179.75,-182 73,-182 73,-150 179.75,-150 179.75,-182"/>
<text text-anchor="start" x="81" y="-168.5" font-family="Helvetica,sans-Serif" font-size="10.00">RTypeServer::Server</text>
<text text-anchor="middle" x="126.38" y="-156.5" font-family="Helvetica,sans-Serif" font-size="10.00">::gameLoop</text>
</a>
</g>
</g>
<!-- Node1&#45;&gt;Node2 -->
<g id="edge1_Node000001_Node000002" class="edge">
<title>Node1&#45;&gt;Node2</title>
<g id="a_edge1_Node000001_Node000002"><a xlink:title=" ">
<path fill="none" stroke="#63b8ff" d="M28.59,-101.18C38.66,-112.04 55.77,-129.25 73,-141 74.55,-142.05 76.14,-143.09 77.77,-144.09"/>
<polygon fill="#63b8ff" stroke="#63b8ff" points="75.67,-146.92 86.09,-148.84 79.14,-140.84 75.67,-146.92"/>
</a>
</g>
</g>
<!-- Node3 -->
<g id="Node000003" class="node">
<title>Node3</title>
<g id="a_Node000003"><a xlink:href="classRTypeServer_1_1Server.html#aa7891cda56e1ba95a26d616de13cccc1" target="_top" xlink:title=" ">
<polygon fill="white" stroke="#666666" points="179.75,-132 73,-132 73,-100 179.75,-100 179.75,-132"/>
<text text-anchor="start" x="81" y="-118.5" font-family="Helvetica,sans-Serif" font-size="10.00">RTypeServer::Server</text>
<text text-anchor="middle" x="126.38" y="-106.5" font-family="Helvetica,sans-Serif" font-size="10.00">::initEngine</text>
</a>
</g>
</g>
<!-- Node1&#45;&gt;Node3 -->
<g id="edge2_Node000001_Node000003" class="edge">
<title>Node1&#45;&gt;Node3</title>
<g id="a_edge2_Node000001_Node000003"><a xlink:title=" ">
<path fill="none" stroke="#63b8ff" d="M37.46,-95.24C44.42,-96.88 52.85,-98.87 61.69,-100.96"/>
<polygon fill="#63b8ff" stroke="#63b8ff" points="60.6,-104.3 71.14,-103.19 62.21,-97.49 60.6,-104.3"/>
</a>
</g>
</g>
<!-- Node9 -->
<g id="Node000009" class="node">
<title>Node9</title>
<g id="a_Node000009"><a xlink:href="classRTypeServer_1_1Server.html#a27bb5bac3ba73b4b48be68a9b9ac1476" target="_top" xlink:title=" ">
<polygon fill="white" stroke="#666666" points="179.75,-82 73,-82 73,-50 179.75,-50 179.75,-82"/>
<text text-anchor="start" x="81" y="-68.5" font-family="Helvetica,sans-Serif" font-size="10.00">RTypeServer::Server</text>
<text text-anchor="middle" x="126.38" y="-56.5" font-family="Helvetica,sans-Serif" font-size="10.00">::loadEngineLib</text>
</a>
</g>
</g>
<!-- Node1&#45;&gt;Node9 -->
<g id="edge8_Node000001_Node000009" class="edge">
<title>Node1&#45;&gt;Node9</title>
<g id="a_edge8_Node000001_Node000009"><a xlink:title=" ">
<path fill="none" stroke="#63b8ff" d="M37.46,-86.76C44.42,-85.12 52.85,-83.13 61.69,-81.04"/>
<polygon fill="#63b8ff" stroke="#63b8ff" points="62.21,-84.51 71.14,-78.81 60.6,-77.7 62.21,-84.51"/>
</a>
</g>
</g>
<!-- Node11 -->
<g id="Node000011" class="node">
<title>Node11</title>
<g id="a_Node000011"><a xlink:href="classRTypeServer_1_1Server.html#ad8957a5677716e7327310ab49944ba8d" target="_top" xlink:title=" ">
<polygon fill="white" stroke="#666666" points="179.75,-32 73,-32 73,0 179.75,0 179.75,-32"/>
<text text-anchor="start" x="81" y="-18.5" font-family="Helvetica,sans-Serif" font-size="10.00">RTypeServer::Server</text>
<text text-anchor="middle" x="126.38" y="-6.5" font-family="Helvetica,sans-Serif" font-size="10.00">::startServer</text>
</a>
</g>
</g>
<!-- Node1&#45;&gt;Node11 -->
<g id="edge10_Node000001_Node000011" class="edge">
<title>Node1&#45;&gt;Node11</title>
<g id="a_edge10_Node000001_Node000011"><a xlink:title=" ">
<path fill="none" stroke="#63b8ff" d="M28.59,-80.82C38.66,-69.96 55.77,-52.75 73,-41 74.55,-39.95 76.14,-38.91 77.77,-37.91"/>
<polygon fill="#63b8ff" stroke="#63b8ff" points="79.14,-41.16 86.09,-33.16 75.67,-35.08 79.14,-41.16"/>
</a>
</g>
</g>
<!-- Node4 -->
<g id="Node000004" class="node">
<title>Node4</title>
<g id="a_Node000004"><a xlink:href="classEngine_1_1Systems_1_1EnemySystem.html#a3f56472b9d1cbd11d38ed305cd839c5a" target="_top" xlink:title=" ">
<polygon fill="white" stroke="#666666" points="377.25,-179 215.75,-179 215.75,-147 377.25,-147 377.25,-179"/>
<text text-anchor="start" x="223.75" y="-165.5" font-family="Helvetica,sans-Serif" font-size="10.00">Engine::Systems::EnemySystem</text>
<text text-anchor="middle" x="296.5" y="-153.5" font-family="Helvetica,sans-Serif" font-size="10.00">::init</text>
</a>
</g>
</g>
<!-- Node3&#45;&gt;Node4 -->
<g id="edge3_Node000003_Node000004" class="edge">
<title>Node3&#45;&gt;Node4</title>
<g id="a_edge3_Node000003_Node000004"><a xlink:title=" ">
<path fill="none" stroke="#63b8ff" d="M180.11,-130.74C194.52,-134.77 210.37,-139.2 225.58,-143.45"/>
<polygon fill="#63b8ff" stroke="#63b8ff" points="224.48,-146.78 235.06,-146.1 226.37,-140.04 224.48,-146.78"/>
</a>
</g>
</g>
<!-- Node7 -->
<g id="Node000007" class="node">
<title>Node7</title>
<g id="a_Node000007"><a xlink:href="classEngine_1_1Systems_1_1PlayerControl.html#a34f318711aedbf730d7390125d2f6924" target="_top" xlink:title=" ">
<polygon fill="white" stroke="#666666" points="374.62,-129 218.38,-129 218.38,-97 374.62,-97 374.62,-129"/>
<text text-anchor="start" x="226.38" y="-115.5" font-family="Helvetica,sans-Serif" font-size="10.00">Engine::Systems::PlayerControl</text>
<text text-anchor="middle" x="296.5" y="-103.5" font-family="Helvetica,sans-Serif" font-size="10.00">::init</text>
</a>
</g>
</g>
<!-- Node3&#45;&gt;Node7 -->
<g id="edge6_Node000003_Node000007" class="edge">
<title>Node3&#45;&gt;Node7</title>
<g id="a_edge6_Node000003_Node000007"><a xlink:title=" ">
<path fill="none" stroke="#63b8ff" d="M180.11,-115.06C188.57,-114.91 197.53,-114.75 206.57,-114.59"/>
<polygon fill="#63b8ff" stroke="#63b8ff" points="206.57,-118.09 216.5,-114.41 206.44,-111.09 206.57,-118.09"/>
</a>
</g>
</g>
<!-- Node5 -->
<g id="Node000005" class="node">
<title>Node5</title>
<g id="a_Node000005"><a xlink:href="classEngine_1_1Systems_1_1EnemySystem.html#ad40dc42ba3526d22bbc4735fb4ca7dba" target="_top" xlink:title=" ">
<polygon fill="white" stroke="#666666" points="574.75,-179 413.25,-179 413.25,-147 574.75,-147 574.75,-179"/>
<text text-anchor="start" x="421.25" y="-165.5" font-family="Helvetica,sans-Serif" font-size="10.00">Engine::Systems::EnemySystem</text>
<text text-anchor="middle" x="494" y="-153.5" font-family="Helvetica,sans-Serif" font-size="10.00">::handleCollision</text>
</a>
</g>
</g>
<!-- Node4&#45;&gt;Node5 -->
<g id="edge4_Node000004_Node000005" class="edge">
<title>Node4&#45;&gt;Node5</title>
<g id="a_edge4_Node000004_Node000005"><a xlink:title=" ">
<path fill="none" stroke="#63b8ff" d="M377.58,-163C385.54,-163 393.65,-163 401.71,-163"/>
<polygon fill="#63b8ff" stroke="#63b8ff" points="401.53,-166.5 411.53,-163 401.53,-159.5 401.53,-166.5"/>
</a>
</g>
</g>
<!-- Node6 -->
<g id="Node000006" class="node">
<title>Node6</title>
<g id="a_Node000006"><a xlink:href="classEngine_1_1Systems_1_1EnemySystem.html#a60a0336504ab065e4a49cb6e2980770e" target="_top" xlink:title=" ">
<polygon fill="white" stroke="#666666" points="772.25,-179 610.75,-179 610.75,-147 772.25,-147 772.25,-179"/>
<text text-anchor="start" x="618.75" y="-165.5" font-family="Helvetica,sans-Serif" font-size="10.00">Engine::Systems::EnemySystem</text>
<text text-anchor="middle" x="691.5" y="-153.5" font-family="Helvetica,sans-Serif" font-size="10.00">::damageEnemy</text>
</a>
</g>
</g>
<!-- Node5&#45;&gt;Node6 -->
<g id="edge5_Node000005_Node000006" class="edge">
<title>Node5&#45;&gt;Node6</title>
<g id="a_edge5_Node000005_Node000006"><a xlink:title=" ">
<path fill="none" stroke="#63b8ff" d="M575.08,-163C583.04,-163 591.15,-163 599.21,-163"/>
<polygon fill="#63b8ff" stroke="#63b8ff" points="599.03,-166.5 609.03,-163 599.03,-159.5 599.03,-166.5"/>
</a>
</g>
</g>
<!-- Node8 -->
<g id="Node000008" class="node">
<title>Node8</title>
<g id="a_Node000008"><a xlink:href="classEngine_1_1Systems_1_1PlayerControl.html#acdc125a87269bdcb52dbf899a1657a07" target="_top" xlink:title=" ">
<polygon fill="white" stroke="#666666" points="572.12,-129 415.88,-129 415.88,-97 572.12,-97 572.12,-129"/>
<text text-anchor="start" x="423.88" y="-115.5" font-family="Helvetica,sans-Serif" font-size="10.00">Engine::Systems::PlayerControl</text>
<text text-anchor="middle" x="494" y="-103.5" font-family="Helvetica,sans-Serif" font-size="10.00">::inputListener</text>
</a>
</g>
</g>
<!-- Node7&#45;&gt;Node8 -->
<g id="edge7_Node000007_Node000008" class="edge">
<title>Node7&#45;&gt;Node8</title>
<g id="a_edge7_Node000007_Node000008"><a xlink:title=" ">
<path fill="none" stroke="#63b8ff" d="M375.05,-113C384.63,-113 394.47,-113 404.2,-113"/>
<polygon fill="#63b8ff" stroke="#63b8ff" points="404.03,-116.5 414.03,-113 404.03,-109.5 404.03,-116.5"/>
</a>
</g>
</g>
<!-- Node10 -->
<g id="Node000010" class="node">
<title>Node10</title>
<g id="a_Node000010"><a xlink:href="classEngine_1_1DLLoader.html#a9992ebfe75138241a88dd3c2bbe5ec96" target="_top" xlink:title=" ">
<polygon fill="white" stroke="#666666" points="372,-76 221,-76 221,-56 372,-56 372,-76"/>
<text text-anchor="middle" x="296.5" y="-62.5" font-family="Helvetica,sans-Serif" font-size="10.00">Engine::DLLoader::getFunction</text>
</a>
</g>
</g>
<!-- Node9&#45;&gt;Node10 -->
<g id="edge9_Node000009_Node000010" class="edge">
<title>Node9&#45;&gt;Node10</title>
<g id="a_edge9_Node000009_Node000010"><a xlink:title=" ">
<path fill="none" stroke="#63b8ff" d="M180.11,-66C189.49,-66 199.47,-66 209.49,-66"/>
<polygon fill="#63b8ff" stroke="#63b8ff" points="209.27,-69.5 219.27,-66 209.27,-62.5 209.27,-69.5"/>
</a>
</g>
</g>
</g>
</svg>
