<?xml version="1.0" encoding="UTF-8" standalone="no"?>
<!DOCTYPE svg PUBLIC "-//W3C//DTD SVG 1.1//EN"
 "http://www.w3.org/Graphics/SVG/1.1/DTD/svg11.dtd">
<!-- Generated by graphviz version 12.1.0 (20240811.2233)
 -->
<!-- Title: Protocol.hpp Pages: 1 -->
<svg width="221pt" height="140pt"
 viewBox="0.00 0.00 221.25 140.00" xmlns="http://www.w3.org/2000/svg" xmlns:xlink="http://www.w3.org/1999/xlink">
<g id="graph0" class="graph" transform="scale(1 1) rotate(0) translate(4 136)">
<title>Protocol.hpp</title>
<!-- Node1 -->
<g id="Node000001" class="node">
<title>Node1</title>
<g id="a_Node000001"><a xlink:title=" ">
<polygon fill="#999999" stroke="#666666" points="133.75,-132 63,-132 63,-112 133.75,-112 133.75,-132"/>
<text text-anchor="middle" x="98.38" y="-118.5" font-family="Helvetica,sans-Serif" font-size="10.00">Protocol.hpp</text>
</a>
</g>
</g>
<!-- Node2 -->
<g id="Node000002" class="node">
<title>Node2</title>
<g id="a_Node000002"><a xlink:href="Server_2src_2net_2Protocol_8cpp.html" target="_top" xlink:title=" ">
<polygon fill="white" stroke="#666666" points="70.75,-76 0,-76 0,-56 70.75,-56 70.75,-76"/>
<text text-anchor="middle" x="35.38" y="-62.5" font-family="Helvetica,sans-Serif" font-size="10.00">Protocol.cpp</text>
</a>
</g>
</g>
<!-- Node1&#45;&gt;Node2 -->
<g id="edge1_Node000001_Node000002" class="edge">
<title>Node1&#45;&gt;Node2</title>
<g id="a_edge1_Node000001_Node000002"><a xlink:title=" ">
<path fill="none" stroke="#63b8ff" d="M78.69,-104.13C67.97,-94.94 55.13,-83.93 46.22,-76.3"/>
<polygon fill="#63b8ff" stroke="#63b8ff" points="76.38,-106.76 86.25,-110.61 80.94,-101.44 76.38,-106.76"/>
</a>
</g>
</g>
<!-- Node3 -->
<g id="Node000003" class="node">
<title>Node3</title>
<g id="a_Node000003"><a xlink:href="UdpServer_8cpp.html" target="_top" xlink:title=" ">
<polygon fill="white" stroke="#666666" points="139,-20 57.75,-20 57.75,0 139,0 139,-20"/>
<text text-anchor="middle" x="98.38" y="-6.5" font-family="Helvetica,sans-Serif" font-size="10.00">UdpServer.cpp</text>
</a>
</g>
</g>
<!-- Node1&#45;&gt;Node3 -->
<g id="edge2_Node000001_Node000003" class="edge">
<title>Node1&#45;&gt;Node3</title>
<g id="a_edge2_Node000001_Node000003"><a xlink:title=" ">
<path fill="none" stroke="#63b8ff" d="M98.38,-100.31C98.38,-76.36 98.38,-37.95 98.38,-20.35"/>
<polygon fill="#63b8ff" stroke="#63b8ff" points="94.88,-100.11 98.38,-110.11 101.88,-100.11 94.88,-100.11"/>
</a>
</g>
</g>
<!-- Node4 -->
<g id="Node000004" class="node">
<title>Node4</title>
<g id="a_Node000004"><a xlink:href="UdpServer_8hpp.html" target="_top" xlink:title=" ">
<polygon fill="white" stroke="#666666" points="208,-76 126.75,-76 126.75,-56 208,-56 208,-76"/>
<text text-anchor="middle" x="167.38" y="-62.5" font-family="Helvetica,sans-Serif" font-size="10.00">UdpServer.hpp</text>
</a>
</g>
</g>
<!-- Node1&#45;&gt;Node4 -->
<g id="edge3_Node000001_Node000004" class="edge">
<title>Node1&#45;&gt;Node4</title>
<g id="a_edge3_Node000001_Node000004"><a xlink:title=" ">
<path fill="none" stroke="#63b8ff" d="M119.23,-104.68C131.1,-95.39 145.54,-84.09 155.49,-76.3"/>
<polygon fill="#63b8ff" stroke="#63b8ff" points="117.3,-101.74 111.59,-110.66 121.62,-107.25 117.3,-101.74"/>
</a>
</g>
</g>
<!-- Node4&#45;&gt;Node3 -->
<g id="edge4_Node000004_Node000003" class="edge">
<title>Node4&#45;&gt;Node3</title>
<g id="a_edge4_Node000004_Node000003"><a xlink:title=" ">
<path fill="none" stroke="#63b8ff" d="M146.52,-48.68C134.65,-39.39 120.21,-28.09 110.26,-20.3"/>
<polygon fill="#63b8ff" stroke="#63b8ff" points="144.13,-51.25 154.16,-54.66 148.45,-45.74 144.13,-51.25"/>
</a>
</g>
</g>
<!-- Node5 -->
<g id="Node000005" class="node">
<title>Node5</title>
<g id="a_Node000005"><a xlink:href="Server_2src_2main_8cpp.html" target="_top" xlink:title=" ">
<polygon fill="white" stroke="#666666" points="213.25,-20 157.5,-20 157.5,0 213.25,0 213.25,-20"/>
<text text-anchor="middle" x="185.38" y="-6.5" font-family="Helvetica,sans-Serif" font-size="10.00">main.cpp</text>
</a>
</g>
</g>
<!-- Node4&#45;&gt;Node5 -->
<g id="edge5_Node000004_Node000005" class="edge">
<title>Node4&#45;&gt;Node5</title>
<g id="a_edge5_Node000004_Node000005"><a xlink:title=" ">
<path fill="none" stroke="#63b8ff" d="M174.14,-44.71C176.93,-36.32 180.04,-27.01 182.28,-20.3"/>
<polygon fill="#63b8ff" stroke="#63b8ff" points="170.83,-43.56 170.99,-54.16 177.47,-45.78 170.83,-43.56"/>
</a>
</g>
</g>
</g>
</svg>
