<?xml version="1.0" encoding="UTF-8" standalone="no"?>
<!DOCTYPE svg PUBLIC "-//W3C//DTD SVG 1.1//EN"
 "http://www.w3.org/Graphics/SVG/1.1/DTD/svg11.dtd">
<!-- Generated by graphviz version 12.1.0 (20240811.2233)
 -->
<!-- Title: main Pages: 1 -->
<svg width="288pt" height="47pt"
 viewBox="0.00 0.00 287.75 47.00" xmlns="http://www.w3.org/2000/svg" xmlns:xlink="http://www.w3.org/1999/xlink">
<g id="graph0" class="graph" transform="scale(1 1) rotate(0) translate(4 43)">
<title>main</title>
<!-- Node1 -->
<g id="Node000001" class="node">
<title>Node1</title>
<g id="a_Node000001"><a xlink:title=" ">
<polygon fill="#999999" stroke="#666666" points="37,-39 0,-39 0,-19 37,-19 37,-39"/>
<text text-anchor="middle" x="18.5" y="-25.5" font-family="Helvetica,sans-Serif" font-size="10.00">main</text>
</a>
</g>
</g>
<!-- Node2 -->
<g id="Node000002" class="node">
<title>Node2</title>
<g id="a_Node000002"><a xlink:href="namespaceRtypeServer.html#a0945154a39091e84a43cedc8136b0abe" target="_top" xlink:title=" ">
<polygon fill="white" stroke="#666666" points="279.75,-39 184.25,-39 184.25,-19 279.75,-19 279.75,-39"/>
<text text-anchor="middle" x="232" y="-25.5" font-family="Helvetica,sans-Serif" font-size="10.00">RtypeServer::infof</text>
</a>
</g>
</g>
<!-- Node1&#45;&gt;Node2 -->
<g id="edge1_Node000001_Node000002" class="edge">
<title>Node1&#45;&gt;Node2</title>
<g id="a_edge1_Node000001_Node000002"><a xlink:title=" ">
<path fill="none" stroke="#63b8ff" d="M37.17,-29C66.64,-29 127.09,-29 172.69,-29"/>
<polygon fill="#63b8ff" stroke="#63b8ff" points="172.43,-32.5 182.43,-29 172.43,-25.5 172.43,-32.5"/>
</a>
</g>
</g>
<!-- Node3 -->
<g id="Node000003" class="node">
<title>Node3</title>
<g id="a_Node000003"><a xlink:href="Server_2src_2main_8cpp.html#a8ee3282bc313e547dbbb8d4f4010db61" target="_top" xlink:title=" ">
<polygon fill="white" stroke="#666666" points="148.25,-20 73,-20 73,0 148.25,0 148.25,-20"/>
<text text-anchor="middle" x="110.62" y="-6.5" font-family="Helvetica,sans-Serif" font-size="10.00">signalHandler</text>
</a>
</g>
</g>
<!-- Node1&#45;&gt;Node3 -->
<g id="edge2_Node000001_Node000003" class="edge">
<title>Node1&#45;&gt;Node3</title>
<g id="a_edge2_Node000001_Node000003"><a xlink:title=" ">
<path fill="none" stroke="#63b8ff" d="M37.31,-25.25C44.45,-23.74 53.05,-21.93 61.8,-20.08"/>
<polygon fill="#63b8ff" stroke="#63b8ff" points="62.3,-23.55 71.37,-18.07 60.86,-16.7 62.3,-23.55"/>
</a>
</g>
</g>
<!-- Node3&#45;&gt;Node2 -->
<g id="edge3_Node000003_Node000002" class="edge">
<title>Node3&#45;&gt;Node2</title>
<g id="a_edge3_Node000003_Node000002"><a xlink:title=" ">
<path fill="none" stroke="#63b8ff" d="M148.74,-15.91C156.28,-17.11 164.38,-18.4 172.45,-19.68"/>
<polygon fill="#63b8ff" stroke="#63b8ff" points="171.86,-23.13 182.28,-21.25 172.96,-16.22 171.86,-23.13"/>
</a>
</g>
</g>
</g>
</svg>
