<?xml version="1.0" encoding="UTF-8" standalone="no"?>
<!DOCTYPE svg PUBLIC "-//W3C//DTD SVG 1.1//EN"
 "http://www.w3.org/Graphics/SVG/1.1/DTD/svg11.dtd">
<!-- Generated by graphviz version 12.1.0 (20240811.2233)
 -->
<!-- Title: SFML.cpp Pages: 1 -->
<svg width="1607pt" height="532pt"
 viewBox="0.00 0.00 1607.39 532.00" xmlns="http://www.w3.org/2000/svg" xmlns:xlink="http://www.w3.org/1999/xlink">
<g id="graph0" class="graph" transform="scale(1 1) rotate(0) translate(4 528)">
<title>SFML.cpp</title>
<!-- Node1 -->
<g id="Node000001" class="node">
<title>Node1</title>
<g id="a_Node000001"><a xlink:title=" ">
<polygon fill="#999999" stroke="#666666" points="384.12,-524 323.12,-524 323.12,-504 384.12,-504 384.12,-524"/>
<text text-anchor="middle" x="353.62" y="-510.5" font-family="Helvetica,sans-Serif" font-size="10.00">SFML.cpp</text>
</a>
</g>
</g>
<!-- Node2 -->
<g id="Node000002" class="node">
<title>Node2</title>
<g id="a_Node000002"><a xlink:title=" ">
<polygon fill="#e0e0e0" stroke="#999999" points="129.25,-468 0,-468 0,-448 129.25,-448 129.25,-468"/>
<text text-anchor="middle" x="64.62" y="-454.5" font-family="Helvetica,sans-Serif" font-size="10.00">SFML/Graphics/Color.hpp</text>
</a>
</g>
</g>
<!-- Node1&#45;&gt;Node2 -->
<g id="edge1_Node000001_Node000002" class="edge">
<title>Node1&#45;&gt;Node2</title>
<g id="a_edge1_Node000001_Node000002"><a xlink:title=" ">
<path fill="none" stroke="#63b8ff" d="M322.7,-507.22C276.12,-498.52 187.01,-481.87 126.69,-470.6"/>
<polygon fill="#63b8ff" stroke="#63b8ff" points="127.36,-467.16 116.89,-468.77 126.08,-474.04 127.36,-467.16"/>
</a>
</g>
</g>
<!-- Node3 -->
<g id="Node000003" class="node">
<title>Node3</title>
<g id="a_Node000003"><a xlink:title=" ">
<polygon fill="#e0e0e0" stroke="#999999" points="325.62,-468 147.62,-468 147.62,-448 325.62,-448 325.62,-468"/>
<text text-anchor="middle" x="236.62" y="-454.5" font-family="Helvetica,sans-Serif" font-size="10.00">SFML/Graphics/RectangleShape.hpp</text>
</a>
</g>
</g>
<!-- Node1&#45;&gt;Node3 -->
<g id="edge2_Node000001_Node000003" class="edge">
<title>Node1&#45;&gt;Node3</title>
<g id="a_edge2_Node000001_Node000003"><a xlink:title=" ">
<path fill="none" stroke="#63b8ff" d="M333.25,-503.59C315.07,-495.21 288.2,-482.8 267.41,-473.21"/>
<polygon fill="#63b8ff" stroke="#63b8ff" points="269.08,-470.13 258.54,-469.11 266.15,-476.48 269.08,-470.13"/>
</a>
</g>
</g>
<!-- Node4 -->
<g id="Node000004" class="node">
<title>Node4</title>
<g id="a_Node000004"><a xlink:href="SFML_8hpp.html" target="_top" xlink:title=" ">
<polygon fill="white" stroke="#666666" points="676.12,-468 567.12,-468 567.12,-448 676.12,-448 676.12,-468"/>
<text text-anchor="middle" x="621.62" y="-454.5" font-family="Helvetica,sans-Serif" font-size="10.00">Renderers/SFML.hpp</text>
</a>
</g>
</g>
<!-- Node1&#45;&gt;Node4 -->
<g id="edge3_Node000001_Node000004" class="edge">
<title>Node1&#45;&gt;Node4</title>
<g id="a_edge3_Node000001_Node000004"><a xlink:title=" ">
<path fill="none" stroke="#63b8ff" d="M384.37,-506.81C427.97,-498.02 508.59,-481.78 563.64,-470.68"/>
<polygon fill="#63b8ff" stroke="#63b8ff" points="564.04,-474.17 573.15,-468.77 562.65,-467.31 564.04,-474.17"/>
</a>
</g>
</g>
<!-- Node11 -->
<g id="Node000011" class="node">
<title>Node11</title>
<g id="a_Node000011"><a xlink:href="Event_8hpp.html" target="_top" xlink:title=" ">
<polygon fill="white" stroke="#666666" points="401.75,-132 341.5,-132 341.5,-112 401.75,-112 401.75,-132"/>
<text text-anchor="middle" x="371.62" y="-118.5" font-family="Helvetica,sans-Serif" font-size="10.00">Event.hpp</text>
</a>
</g>
</g>
<!-- Node1&#45;&gt;Node11 -->
<g id="edge64_Node000001_Node000011" class="edge">
<title>Node1&#45;&gt;Node11</title>
<g id="a_edge64_Node000001_Node000011"><a xlink:title=" ">
<path fill="none" stroke="#63b8ff" d="M353.62,-503.58C353.62,-484.57 353.62,-440.24 353.62,-403 353.62,-403 353.62,-403 353.62,-233 353.62,-201.31 360.99,-165.15 366.3,-143.21"/>
<polygon fill="#63b8ff" stroke="#63b8ff" points="369.62,-144.35 368.68,-133.8 362.83,-142.64 369.62,-144.35"/>
</a>
</g>
</g>
<!-- Node14 -->
<g id="Node000014" class="node">
<title>Node14</title>
<g id="a_Node000014"><a xlink:href="NetworkManager_8hpp.html" target="_top" xlink:title=" ">
<polygon fill="white" stroke="#666666" points="973.12,-356 864.12,-356 864.12,-336 973.12,-336 973.12,-356"/>
<text text-anchor="middle" x="918.62" y="-342.5" font-family="Helvetica,sans-Serif" font-size="10.00">NetworkManager.hpp</text>
</a>
</g>
</g>
<!-- Node1&#45;&gt;Node14 -->
<g id="edge65_Node000001_Node000014" class="edge">
<title>Node1&#45;&gt;Node14</title>
<g id="a_edge65_Node000001_Node000014"><a xlink:title=" ">
<path fill="none" stroke="#63b8ff" d="M384.18,-510.76C443.09,-506.03 576.25,-493.3 685.62,-468 762.72,-450.17 787.44,-453.8 854.62,-412 874.7,-399.51 893.13,-379.48 905,-364.95"/>
<polygon fill="#63b8ff" stroke="#63b8ff" points="907.42,-367.54 910.87,-357.52 901.92,-363.2 907.42,-367.54"/>
</a>
</g>
</g>
<!-- Node5 -->
<g id="Node000005" class="node">
<title>Node5</title>
<g id="a_Node000005"><a xlink:title=" ">
<polygon fill="#e0e0e0" stroke="#999999" points="845.12,-412 742.12,-412 742.12,-392 845.12,-392 845.12,-412"/>
<text text-anchor="middle" x="793.62" y="-398.5" font-family="Helvetica,sans-Serif" font-size="10.00">SFML/Graphics.hpp</text>
</a>
</g>
</g>
<!-- Node4&#45;&gt;Node5 -->
<g id="edge4_Node000004_Node000005" class="edge">
<title>Node4&#45;&gt;Node5</title>
<g id="a_edge4_Node000004_Node000005"><a xlink:title=" ">
<path fill="none" stroke="#63b8ff" d="M651.59,-447.59C679.53,-438.82 721.46,-425.66 752.52,-415.9"/>
<polygon fill="#63b8ff" stroke="#63b8ff" points="753.49,-419.27 761.99,-412.93 751.4,-412.59 753.49,-419.27"/>
</a>
</g>
</g>
<!-- Node6 -->
<g id="Node000006" class="node">
<title>Node6</title>
<g id="a_Node000006"><a xlink:title=" ">
<polygon fill="#e0e0e0" stroke="#999999" points="470,-412 381.25,-412 381.25,-392 470,-392 470,-412"/>
<text text-anchor="middle" x="425.62" y="-398.5" font-family="Helvetica,sans-Serif" font-size="10.00">SFML/Audio.hpp</text>
</a>
</g>
</g>
<!-- Node4&#45;&gt;Node6 -->
<g id="edge5_Node000004_Node000006" class="edge">
<title>Node4&#45;&gt;Node6</title>
<g id="a_edge5_Node000004_Node000006"><a xlink:title=" ">
<path fill="none" stroke="#63b8ff" d="M587.48,-447.59C555.22,-438.71 506.6,-425.31 471.07,-415.52"/>
<polygon fill="#63b8ff" stroke="#63b8ff" points="472.06,-412.16 461.49,-412.88 470.2,-418.91 472.06,-412.16"/>
</a>
</g>
</g>
<!-- Node7 -->
<g id="Node000007" class="node">
<title>Node7</title>
<g id="a_Node000007"><a xlink:title=" ">
<polygon fill="#e0e0e0" stroke="#999999" points="705,-76 622.25,-76 622.25,-56 705,-56 705,-76"/>
<text text-anchor="middle" x="663.62" y="-62.5" font-family="Helvetica,sans-Serif" font-size="10.00">unordered_map</text>
</a>
</g>
</g>
<!-- Node4&#45;&gt;Node7 -->
<g id="edge6_Node000004_Node000007" class="edge">
<title>Node4&#45;&gt;Node7</title>
<g id="a_edge6_Node000004_Node000007"><a xlink:title=" ">
<path fill="none" stroke="#63b8ff" d="M602.12,-447.61C560.68,-426.14 467.62,-369.23 467.62,-291 467.62,-291 467.62,-291 467.62,-177 467.62,-111.15 552.79,-84.32 610.84,-73.68"/>
<polygon fill="#63b8ff" stroke="#63b8ff" points="611.3,-77.15 620.57,-72.01 610.12,-70.25 611.3,-77.15"/>
</a>
</g>
</g>
<!-- Node8 -->
<g id="Node000008" class="node">
<title>Node8</title>
<g id="a_Node000008"><a xlink:title=" ">
<polygon fill="#e0e0e0" stroke="#999999" points="755.62,-132 715.62,-132 715.62,-112 755.62,-112 755.62,-132"/>
<text text-anchor="middle" x="735.62" y="-118.5" font-family="Helvetica,sans-Serif" font-size="10.00">string</text>
</a>
</g>
</g>
<!-- Node4&#45;&gt;Node8 -->
<g id="edge7_Node000004_Node000008" class="edge">
<title>Node4&#45;&gt;Node8</title>
<g id="a_edge7_Node000004_Node000008"><a xlink:title=" ">
<path fill="none" stroke="#63b8ff" d="M621.62,-447.58C621.62,-428.57 621.62,-384.24 621.62,-347 621.62,-347 621.62,-347 621.62,-289 621.62,-224.41 681.01,-166.58 714.05,-139.4"/>
<polygon fill="#63b8ff" stroke="#63b8ff" points="716.17,-142.19 721.81,-133.22 711.81,-136.72 716.17,-142.19"/>
</a>
</g>
</g>
<!-- Node9 -->
<g id="Node000009" class="node">
<title>Node9</title>
<g id="a_Node000009"><a xlink:title=" ">
<polygon fill="#e0e0e0" stroke="#999999" points="976.25,-132 925,-132 925,-112 976.25,-112 976.25,-132"/>
<text text-anchor="middle" x="950.62" y="-118.5" font-family="Helvetica,sans-Serif" font-size="10.00">memory</text>
</a>
</g>
</g>
<!-- Node4&#45;&gt;Node9 -->
<g id="edge8_Node000004_Node000009" class="edge">
<title>Node4&#45;&gt;Node9</title>
<g id="a_edge8_Node000004_Node000009"><a xlink:title=" ">
<path fill="none" stroke="#63b8ff" d="M676.36,-456.24C874.2,-452.77 1540.62,-434.57 1540.62,-347 1540.62,-347 1540.62,-347 1540.62,-289 1540.62,-186.95 1189.32,-220.64 1092.62,-188 1051.4,-174.08 1006.05,-152.07 977.95,-137.58"/>
<polygon fill="#63b8ff" stroke="#63b8ff" points="979.9,-134.65 969.42,-133.13 976.66,-140.85 979.9,-134.65"/>
</a>
</g>
</g>
<!-- Node10 -->
<g id="Node000010" class="node">
<title>Node10</title>
<g id="a_Node000010"><a xlink:href="Renderer_8hpp.html" target="_top" xlink:title=" ">
<polygon fill="white" stroke="#666666" points="723.88,-412 649.38,-412 649.38,-392 723.88,-392 723.88,-412"/>
<text text-anchor="middle" x="686.62" y="-398.5" font-family="Helvetica,sans-Serif" font-size="10.00">Renderer.hpp</text>
</a>
</g>
</g>
<!-- Node4&#45;&gt;Node10 -->
<g id="edge9_Node000004_Node000010" class="edge">
<title>Node4&#45;&gt;Node10</title>
<g id="a_edge9_Node000004_Node000010"><a xlink:title=" ">
<path fill="none" stroke="#63b8ff" d="M632.95,-447.59C642.27,-439.85 655.7,-428.69 666.8,-419.47"/>
<polygon fill="#63b8ff" stroke="#63b8ff" points="668.81,-422.35 674.27,-413.27 664.34,-416.96 668.81,-422.35"/>
</a>
</g>
</g>
<!-- Node10&#45;&gt;Node8 -->
<g id="edge11_Node000010_Node000008" class="edge">
<title>Node10&#45;&gt;Node8</title>
<g id="a_edge11_Node000010_Node000008"><a xlink:title=" ">
<path fill="none" stroke="#63b8ff" d="M685.82,-391.7C685.08,-382.61 684.04,-368.36 683.62,-356 682.5,-322.24 678.25,-313.35 683.62,-280 691.86,-228.93 714.26,-171.97 726.81,-142.72"/>
<polygon fill="#63b8ff" stroke="#63b8ff" points="729.96,-144.24 730.77,-133.68 723.55,-141.44 729.96,-144.24"/>
</a>
</g>
</g>
<!-- Node10&#45;&gt;Node9 -->
<g id="edge10_Node000010_Node000009" class="edge">
<title>Node10&#45;&gt;Node9</title>
<g id="a_edge10_Node000010_Node000009"><a xlink:title=" ">
<path fill="none" stroke="#63b8ff" d="M689.78,-391.96C702.21,-357.66 751.01,-234.24 831.62,-168 855.45,-148.42 888.68,-136.81 913.98,-130.31"/>
<polygon fill="#63b8ff" stroke="#63b8ff" points="914.6,-133.76 923.5,-128.02 912.96,-126.95 914.6,-133.76"/>
</a>
</g>
</g>
<!-- Node10&#45;&gt;Node11 -->
<g id="edge12_Node000010_Node000011" class="edge">
<title>Node10&#45;&gt;Node11</title>
<g id="a_edge12_Node000010_Node000011"><a xlink:title=" ">
<path fill="none" stroke="#63b8ff" d="M671.51,-391.55C628.16,-363.98 501.07,-279.74 415.62,-188 402.58,-173.99 390.61,-155.79 382.45,-142.21"/>
<polygon fill="#63b8ff" stroke="#63b8ff" points="385.6,-140.67 377.55,-133.79 379.56,-144.19 385.6,-140.67"/>
</a>
</g>
</g>
<!-- Node10&#45;&gt;Node14 -->
<g id="edge16_Node000010_Node000014" class="edge">
<title>Node10&#45;&gt;Node14</title>
<g id="a_edge16_Node000010_Node000014"><a xlink:title=" ">
<path fill="none" stroke="#63b8ff" d="M724.16,-392.26C762.89,-383.25 823.59,-369.12 866.87,-359.05"/>
<polygon fill="#63b8ff" stroke="#63b8ff" points="867.6,-362.47 876.55,-356.79 866.02,-355.65 867.6,-362.47"/>
</a>
</g>
</g>
<!-- Node11&#45;&gt;Node7 -->
<g id="edge14_Node000011_Node000007" class="edge">
<title>Node11&#45;&gt;Node7</title>
<g id="a_edge14_Node000011_Node000007"><a xlink:title=" ">
<path fill="none" stroke="#63b8ff" d="M402.05,-115.37C451.45,-106.24 549.72,-88.06 610.74,-76.78"/>
<polygon fill="#63b8ff" stroke="#63b8ff" points="611.37,-80.22 620.57,-74.96 610.1,-73.34 611.37,-80.22"/>
</a>
</g>
</g>
<!-- Node12 -->
<g id="Node000012" class="node">
<title>Node12</title>
<g id="a_Node000012"><a xlink:title=" ">
<polygon fill="#e0e0e0" stroke="#999999" points="452.25,-20 407,-20 407,0 452.25,0 452.25,-20"/>
<text text-anchor="middle" x="429.62" y="-6.5" font-family="Helvetica,sans-Serif" font-size="10.00">cstdint</text>
</a>
</g>
</g>
<!-- Node11&#45;&gt;Node12 -->
<g id="edge13_Node000011_Node000012" class="edge">
<title>Node11&#45;&gt;Node12</title>
<g id="a_edge13_Node000011_Node000012"><a xlink:title=" ">
<path fill="none" stroke="#63b8ff" d="M366.48,-111.56C360.03,-98.34 350.92,-73.91 360.62,-56 368.33,-41.77 382.71,-31.33 396.35,-24.11"/>
<polygon fill="#63b8ff" stroke="#63b8ff" points="397.67,-27.36 405.15,-19.86 394.63,-21.05 397.67,-27.36"/>
</a>
</g>
</g>
<!-- Node13 -->
<g id="Node000013" class="node">
<title>Node13</title>
<g id="a_Node000013"><a xlink:title=" ">
<polygon fill="#e0e0e0" stroke="#999999" points="401.5,-76 369.75,-76 369.75,-56 401.5,-56 401.5,-76"/>
<text text-anchor="middle" x="385.62" y="-62.5" font-family="Helvetica,sans-Serif" font-size="10.00">any</text>
</a>
</g>
</g>
<!-- Node11&#45;&gt;Node13 -->
<g id="edge15_Node000011_Node000013" class="edge">
<title>Node11&#45;&gt;Node13</title>
<g id="a_edge15_Node000011_Node000013"><a xlink:title=" ">
<path fill="none" stroke="#63b8ff" d="M374.06,-111.59C375.79,-104.93 378.17,-95.75 380.33,-87.44"/>
<polygon fill="#63b8ff" stroke="#63b8ff" points="383.71,-88.32 382.83,-77.76 376.94,-86.56 383.71,-88.32"/>
</a>
</g>
</g>
<!-- Node14&#45;&gt;Node12 -->
<g id="edge17_Node000014_Node000012" class="edge">
<title>Node14&#45;&gt;Node12</title>
<g id="a_edge17_Node000014_Node000012"><a xlink:title=" ">
<path fill="none" stroke="#63b8ff" d="M863.7,-337.31C778.5,-322.69 613.88,-283.38 513.62,-188 466.89,-143.54 443.3,-67.82 434.21,-31.55"/>
<polygon fill="#63b8ff" stroke="#63b8ff" points="437.65,-30.88 431.94,-21.96 430.84,-32.49 437.65,-30.88"/>
</a>
</g>
</g>
<!-- Node15 -->
<g id="Node000015" class="node">
<title>Node15</title>
<g id="a_Node000015"><a xlink:title=" ">
<polygon fill="#e0e0e0" stroke="#999999" points="1101.5,-300 1021.75,-300 1021.75,-280 1101.5,-280 1101.5,-300"/>
<text text-anchor="middle" x="1061.62" y="-286.5" font-family="Helvetica,sans-Serif" font-size="10.00">boost/asio.hpp</text>
</a>
</g>
</g>
<!-- Node14&#45;&gt;Node15 -->
<g id="edge18_Node000014_Node000015" class="edge">
<title>Node14&#45;&gt;Node15</title>
<g id="a_edge18_Node000014_Node000015"><a xlink:title=" ">
<path fill="none" stroke="#63b8ff" d="M943.53,-335.59C966.36,-326.97 1000.41,-314.12 1026.09,-304.42"/>
<polygon fill="#63b8ff" stroke="#63b8ff" points="1026.99,-307.82 1035.11,-301.01 1024.51,-301.27 1026.99,-307.82"/>
</a>
</g>
</g>
<!-- Node16 -->
<g id="Node000016" class="node">
<title>Node16</title>
<g id="a_Node000016"><a xlink:title=" ">
<polygon fill="#e0e0e0" stroke="#999999" points="1570.5,-132 1532.75,-132 1532.75,-112 1570.5,-112 1570.5,-132"/>
<text text-anchor="middle" x="1551.62" y="-118.5" font-family="Helvetica,sans-Serif" font-size="10.00">array</text>
</a>
</g>
</g>
<!-- Node14&#45;&gt;Node16 -->
<g id="edge19_Node000014_Node000016" class="edge">
<title>Node14&#45;&gt;Node16</title>
<g id="a_edge19_Node000014_Node000016"><a xlink:title=" ">
<path fill="none" stroke="#63b8ff" d="M973.6,-343.94C1066.58,-339.93 1258.28,-322 1396.62,-244 1450.59,-213.57 1505.94,-165.47 1533.59,-140.05"/>
<polygon fill="#63b8ff" stroke="#63b8ff" points="1535.82,-142.76 1540.75,-133.39 1531.05,-137.64 1535.82,-142.76"/>
</a>
</g>
</g>
<!-- Node17 -->
<g id="Node000017" class="node">
<title>Node17</title>
<g id="a_Node000017"><a xlink:title=" ">
<polygon fill="#e0e0e0" stroke="#999999" points="845.12,-300 802.12,-300 802.12,-280 845.12,-280 845.12,-300"/>
<text text-anchor="middle" x="823.62" y="-286.5" font-family="Helvetica,sans-Serif" font-size="10.00">thread</text>
</a>
</g>
</g>
<!-- Node14&#45;&gt;Node17 -->
<g id="edge20_Node000014_Node000017" class="edge">
<title>Node14&#45;&gt;Node17</title>
<g id="a_edge20_Node000014_Node000017"><a xlink:title=" ">
<path fill="none" stroke="#63b8ff" d="M902.08,-335.59C887.73,-327.44 866.7,-315.48 850.02,-306"/>
<polygon fill="#63b8ff" stroke="#63b8ff" points="852.04,-303.13 841.62,-301.23 848.58,-309.21 852.04,-303.13"/>
</a>
</g>
</g>
<!-- Node18 -->
<g id="Node000018" class="node">
<title>Node18</title>
<g id="a_Node000018"><a xlink:href="Entity_8hpp.html" target="_top" xlink:title=" ">
<polygon fill="white" stroke="#666666" points="1398.38,-76 1338.88,-76 1338.88,-56 1398.38,-56 1398.38,-76"/>
<text text-anchor="middle" x="1368.62" y="-62.5" font-family="Helvetica,sans-Serif" font-size="10.00">Entity.hpp</text>
</a>
</g>
</g>
<!-- Node14&#45;&gt;Node18 -->
<g id="edge21_Node000014_Node000018" class="edge">
<title>Node14&#45;&gt;Node18</title>
<g id="a_edge21_Node000014_Node000018"><a xlink:title=" ">
<path fill="none" stroke="#63b8ff" d="M973.41,-341.9C1135.03,-332.03 1598.62,-298.2 1598.62,-235 1598.62,-235 1598.62,-235 1598.62,-177 1598.62,-146.9 1601.68,-132.48 1579.62,-112 1555.39,-89.5 1464.23,-76.63 1409.98,-70.81"/>
<polygon fill="#63b8ff" stroke="#63b8ff" points="1410.49,-67.35 1400.18,-69.8 1409.77,-74.31 1410.49,-67.35"/>
</a>
</g>
</g>
<!-- Node20 -->
<g id="Node000020" class="node">
<title>Node20</title>
<g id="a_Node000020"><a xlink:href="Mediator_8hpp.html" target="_top" xlink:title=" ">
<polygon fill="white" stroke="#666666" points="1071.75,-244 999.5,-244 999.5,-224 1071.75,-224 1071.75,-244"/>
<text text-anchor="middle" x="1035.62" y="-230.5" font-family="Helvetica,sans-Serif" font-size="10.00">Mediator.hpp</text>
</a>
</g>
</g>
<!-- Node14&#45;&gt;Node20 -->
<g id="edge24_Node000014_Node000020" class="edge">
<title>Node14&#45;&gt;Node20</title>
<g id="a_edge24_Node000014_Node000020"><a xlink:title=" ">
<path fill="none" stroke="#63b8ff" d="M863.86,-336.15C820,-326.72 769.47,-309.06 793.62,-280 817.86,-250.84 924.78,-240.48 988.11,-236.87"/>
<polygon fill="#63b8ff" stroke="#63b8ff" points="988.08,-240.38 997.88,-236.36 987.71,-233.39 988.08,-240.38"/>
</a>
</g>
</g>
<!-- Node35 -->
<g id="Node000035" class="node">
<title>Node35</title>
<g id="a_Node000035"><a xlink:href="ComponentRegistry_8hpp.html" target="_top" xlink:title=" ">
<polygon fill="white" stroke="#666666" points="1240.12,-300 1119.12,-300 1119.12,-280 1240.12,-280 1240.12,-300"/>
<text text-anchor="middle" x="1179.62" y="-286.5" font-family="Helvetica,sans-Serif" font-size="10.00">ComponentRegistry.hpp</text>
</a>
</g>
</g>
<!-- Node14&#45;&gt;Node35 -->
<g id="edge56_Node000014_Node000035" class="edge">
<title>Node14&#45;&gt;Node35</title>
<g id="a_edge56_Node000014_Node000035"><a xlink:title=" ">
<path fill="none" stroke="#63b8ff" d="M964.39,-335.53C1008.51,-326.4 1075.4,-312.56 1122.89,-302.74"/>
<polygon fill="#63b8ff" stroke="#63b8ff" points="1123.35,-306.22 1132.43,-300.76 1121.93,-299.36 1123.35,-306.22"/>
</a>
</g>
</g>
<!-- Node36 -->
<g id="Node000036" class="node">
<title>Node36</title>
<g id="a_Node000036"><a xlink:href="EnemyInfo_8hpp.html" target="_top" xlink:title=" ">
<polygon fill="white" stroke="#666666" points="1003.88,-300 863.38,-300 863.38,-280 1003.88,-280 1003.88,-300"/>
<text text-anchor="middle" x="933.62" y="-286.5" font-family="Helvetica,sans-Serif" font-size="10.00">Components/EnemyInfo.hpp</text>
</a>
</g>
</g>
<!-- Node14&#45;&gt;Node36 -->
<g id="edge63_Node000014_Node000036" class="edge">
<title>Node14&#45;&gt;Node36</title>
<g id="a_edge63_Node000014_Node000036"><a xlink:title=" ">
<path fill="none" stroke="#63b8ff" d="M921.24,-335.59C923.11,-328.86 925.7,-319.53 928.03,-311.15"/>
<polygon fill="#63b8ff" stroke="#63b8ff" points="931.33,-312.33 930.64,-301.76 924.59,-310.46 931.33,-312.33"/>
</a>
</g>
</g>
<!-- Node18&#45;&gt;Node12 -->
<g id="edge22_Node000018_Node000012" class="edge">
<title>Node18&#45;&gt;Node12</title>
<g id="a_edge22_Node000018_Node000012"><a xlink:title=" ">
<path fill="none" stroke="#63b8ff" d="M1338.49,-57.49C1335.51,-56.92 1332.52,-56.4 1329.62,-56 994.81,-9.37 584.01,-9.4 464.03,-10.54"/>
<polygon fill="#63b8ff" stroke="#63b8ff" points="464.19,-7.04 454.23,-10.64 464.26,-14.04 464.19,-7.04"/>
</a>
</g>
</g>
<!-- Node19 -->
<g id="Node000019" class="node">
<title>Node19</title>
<g id="a_Node000019"><a xlink:title=" ">
<polygon fill="#e0e0e0" stroke="#999999" points="1388.62,-20 1348.62,-20 1348.62,0 1388.62,0 1388.62,-20"/>
<text text-anchor="middle" x="1368.62" y="-6.5" font-family="Helvetica,sans-Serif" font-size="10.00">bitset</text>
</a>
</g>
</g>
<!-- Node18&#45;&gt;Node19 -->
<g id="edge23_Node000018_Node000019" class="edge">
<title>Node18&#45;&gt;Node19</title>
<g id="a_edge23_Node000018_Node000019"><a xlink:title=" ">
<path fill="none" stroke="#63b8ff" d="M1368.62,-55.59C1368.62,-49.01 1368.62,-39.96 1368.62,-31.73"/>
<polygon fill="#63b8ff" stroke="#63b8ff" points="1372.13,-31.81 1368.63,-21.81 1365.13,-31.81 1372.13,-31.81"/>
</a>
</g>
</g>
<!-- Node20&#45;&gt;Node9 -->
<g id="edge26_Node000020_Node000009" class="edge">
<title>Node20&#45;&gt;Node9</title>
<g id="a_edge26_Node000020_Node000009"><a xlink:title=" ">
<path fill="none" stroke="#63b8ff" d="M1034.88,-223.74C1033.4,-210.3 1029.07,-185.12 1016.62,-168 1007.49,-155.43 993.71,-145.24 981.1,-137.76"/>
<polygon fill="#63b8ff" stroke="#63b8ff" points="983.11,-134.87 972.67,-133.08 979.71,-140.99 983.11,-134.87"/>
</a>
</g>
</g>
<!-- Node21 -->
<g id="Node000021" class="node">
<title>Node21</title>
<g id="a_Node000021"><a xlink:title=" ">
<polygon fill="#e0e0e0" stroke="#999999" points="1267.38,-76 1213.88,-76 1213.88,-56 1267.38,-56 1267.38,-76"/>
<text text-anchor="middle" x="1240.62" y="-62.5" font-family="Helvetica,sans-Serif" font-size="10.00">iostream</text>
</a>
</g>
</g>
<!-- Node20&#45;&gt;Node21 -->
<g id="edge25_Node000020_Node000021" class="edge">
<title>Node20&#45;&gt;Node21</title>
<g id="a_edge25_Node000020_Node000021"><a xlink:title=" ">
<path fill="none" stroke="#63b8ff" d="M1071.99,-229.81C1123.07,-224.51 1212.14,-212.02 1232.62,-188 1256.57,-159.93 1251.48,-113.59 1245.89,-87.14"/>
<polygon fill="#63b8ff" stroke="#63b8ff" points="1249.36,-86.63 1243.65,-77.7 1242.55,-88.24 1249.36,-86.63"/>
</a>
</g>
</g>
<!-- Node22 -->
<g id="Node000022" class="node">
<title>Node22</title>
<g id="a_Node000022"><a xlink:title=" ">
<polygon fill="#e0e0e0" stroke="#999999" points="883.12,-188 840.12,-188 840.12,-168 883.12,-168 883.12,-188"/>
<text text-anchor="middle" x="861.62" y="-174.5" font-family="Helvetica,sans-Serif" font-size="10.00">vector</text>
</a>
</g>
</g>
<!-- Node20&#45;&gt;Node22 -->
<g id="edge27_Node000020_Node000022" class="edge">
<title>Node20&#45;&gt;Node22</title>
<g id="a_edge27_Node000020_Node000022"><a xlink:title=" ">
<path fill="none" stroke="#63b8ff" d="M1005.32,-223.59C974.36,-213.99 926.44,-199.11 894.56,-189.22"/>
<polygon fill="#63b8ff" stroke="#63b8ff" points="895.64,-185.89 885.05,-186.27 893.56,-192.58 895.64,-185.89"/>
</a>
</g>
</g>
<!-- Node23 -->
<g id="Node000023" class="node">
<title>Node23</title>
<g id="a_Node000023"><a xlink:href="EntityManager_8hpp.html" target="_top" xlink:title=" ">
<polygon fill="white" stroke="#666666" points="1436.5,-188 1338.75,-188 1338.75,-168 1436.5,-168 1436.5,-188"/>
<text text-anchor="middle" x="1387.62" y="-174.5" font-family="Helvetica,sans-Serif" font-size="10.00">EntityManager.hpp</text>
</a>
</g>
</g>
<!-- Node20&#45;&gt;Node23 -->
<g id="edge28_Node000020_Node000023" class="edge">
<title>Node20&#45;&gt;Node23</title>
<g id="a_edge28_Node000020_Node000023"><a xlink:title=" ">
<path fill="none" stroke="#63b8ff" d="M1071.97,-227.42C1132.24,-218.18 1253.51,-199.57 1326.94,-188.31"/>
<polygon fill="#63b8ff" stroke="#63b8ff" points="1327.45,-191.77 1336.8,-186.8 1326.39,-184.85 1327.45,-191.77"/>
</a>
</g>
</g>
<!-- Node25 -->
<g id="Node000025" class="node">
<title>Node25</title>
<g id="a_Node000025"><a xlink:href="ComponentManager_8hpp.html" target="_top" xlink:title=" ">
<polygon fill="white" stroke="#666666" points="1223.88,-188 1101.38,-188 1101.38,-168 1223.88,-168 1223.88,-188"/>
<text text-anchor="middle" x="1162.62" y="-174.5" font-family="Helvetica,sans-Serif" font-size="10.00">ComponentManager.hpp</text>
</a>
</g>
</g>
<!-- Node20&#45;&gt;Node25 -->
<g id="edge32_Node000020_Node000025" class="edge">
<title>Node20&#45;&gt;Node25</title>
<g id="a_edge32_Node000020_Node000025"><a xlink:title=" ">
<path fill="none" stroke="#63b8ff" d="M1057.75,-223.59C1077.66,-215.13 1107.18,-202.58 1129.83,-192.94"/>
<polygon fill="#63b8ff" stroke="#63b8ff" points="1131.1,-196.21 1138.94,-189.07 1128.37,-189.76 1131.1,-196.21"/>
</a>
</g>
</g>
<!-- Node29 -->
<g id="Node000029" class="node">
<title>Node29</title>
<g id="a_Node000029"><a xlink:href="SystemManager_8hpp.html" target="_top" xlink:title=" ">
<polygon fill="white" stroke="#666666" points="1007.62,-188 901.62,-188 901.62,-168 1007.62,-168 1007.62,-188"/>
<text text-anchor="middle" x="954.62" y="-174.5" font-family="Helvetica,sans-Serif" font-size="10.00">SystemManager.hpp</text>
</a>
</g>
</g>
<!-- Node20&#45;&gt;Node29 -->
<g id="edge44_Node000020_Node000029" class="edge">
<title>Node20&#45;&gt;Node29</title>
<g id="a_edge44_Node000020_Node000029"><a xlink:title=" ">
<path fill="none" stroke="#63b8ff" d="M1021.52,-223.59C1009.63,-215.67 992.36,-204.16 978.35,-194.82"/>
<polygon fill="#63b8ff" stroke="#63b8ff" points="980.37,-191.95 970.1,-189.32 976.48,-197.78 980.37,-191.95"/>
</a>
</g>
</g>
<!-- Node32 -->
<g id="Node000032" class="node">
<title>Node32</title>
<g id="a_Node000032"><a xlink:href="EventManager_8hpp.html" target="_top" xlink:title=" ">
<polygon fill="white" stroke="#666666" points="631.5,-188 533.75,-188 533.75,-168 631.5,-168 631.5,-188"/>
<text text-anchor="middle" x="582.62" y="-174.5" font-family="Helvetica,sans-Serif" font-size="10.00">EventManager.hpp</text>
</a>
</g>
</g>
<!-- Node20&#45;&gt;Node32 -->
<g id="edge52_Node000020_Node000032" class="edge">
<title>Node20&#45;&gt;Node32</title>
<g id="a_edge52_Node000020_Node000032"><a xlink:title=" ">
<path fill="none" stroke="#63b8ff" d="M999.32,-228.67C921.65,-219.41 738.66,-197.6 643.11,-186.21"/>
<polygon fill="#63b8ff" stroke="#63b8ff" points="643.75,-182.76 633.4,-185.05 642.92,-189.71 643.75,-182.76"/>
</a>
</g>
</g>
<!-- Node23&#45;&gt;Node16 -->
<g id="edge30_Node000023_Node000016" class="edge">
<title>Node23&#45;&gt;Node16</title>
<g id="a_edge30_Node000023_Node000016"><a xlink:title=" ">
<path fill="none" stroke="#63b8ff" d="M1416.19,-167.59C1445.81,-157.84 1491.91,-142.66 1521.94,-132.78"/>
<polygon fill="#63b8ff" stroke="#63b8ff" points="1522.75,-136.19 1531.15,-129.74 1520.56,-129.54 1522.75,-136.19"/>
</a>
</g>
</g>
<!-- Node23&#45;&gt;Node18 -->
<g id="edge31_Node000023_Node000018" class="edge">
<title>Node23&#45;&gt;Node18</title>
<g id="a_edge31_Node000023_Node000018"><a xlink:title=" ">
<path fill="none" stroke="#63b8ff" d="M1407.83,-167.56C1429.98,-155.83 1460.74,-134.57 1447.62,-112 1439.05,-97.25 1423.64,-86.94 1408.69,-79.94"/>
<polygon fill="#63b8ff" stroke="#63b8ff" points="1410.47,-76.89 1399.9,-76.2 1407.73,-83.34 1410.47,-76.89"/>
</a>
</g>
</g>
<!-- Node24 -->
<g id="Node000024" class="node">
<title>Node24</title>
<g id="a_Node000024"><a xlink:title=" ">
<polygon fill="#e0e0e0" stroke="#999999" points="1438.75,-132 1396.5,-132 1396.5,-112 1438.75,-112 1438.75,-132"/>
<text text-anchor="middle" x="1417.62" y="-118.5" font-family="Helvetica,sans-Serif" font-size="10.00">queue</text>
</a>
</g>
</g>
<!-- Node23&#45;&gt;Node24 -->
<g id="edge29_Node000023_Node000024" class="edge">
<title>Node23&#45;&gt;Node24</title>
<g id="a_edge29_Node000023_Node000024"><a xlink:title=" ">
<path fill="none" stroke="#63b8ff" d="M1392.85,-167.59C1396.72,-160.63 1402.13,-150.89 1406.91,-142.29"/>
<polygon fill="#63b8ff" stroke="#63b8ff" points="1409.93,-144.06 1411.72,-133.62 1403.81,-140.66 1409.93,-144.06"/>
</a>
</g>
</g>
<!-- Node25&#45;&gt;Node7 -->
<g id="edge33_Node000025_Node000007" class="edge">
<title>Node25&#45;&gt;Node7</title>
<g id="a_edge33_Node000025_Node000007"><a xlink:title=" ">
<path fill="none" stroke="#63b8ff" d="M1141.56,-167.59C1108.86,-153.37 1043.58,-126.51 985.62,-112 892.58,-88.7 781.19,-76.5 716.8,-70.94"/>
<polygon fill="#63b8ff" stroke="#63b8ff" points="717.1,-67.45 706.85,-70.1 716.52,-74.43 717.1,-67.45"/>
</a>
</g>
</g>
<!-- Node25&#45;&gt;Node8 -->
<g id="edge34_Node000025_Node000008" class="edge">
<title>Node25&#45;&gt;Node8</title>
<g id="a_edge34_Node000025_Node000008"><a xlink:title=" ">
<path fill="none" stroke="#63b8ff" d="M1100.99,-169.21C1008.64,-157.53 837.69,-135.91 767.23,-127"/>
<polygon fill="#63b8ff" stroke="#63b8ff" points="767.91,-123.56 757.55,-125.77 767.03,-130.5 767.91,-123.56"/>
</a>
</g>
</g>
<!-- Node25&#45;&gt;Node9 -->
<g id="edge35_Node000025_Node000009" class="edge">
<title>Node25&#45;&gt;Node9</title>
<g id="a_edge35_Node000025_Node000009"><a xlink:title=" ">
<path fill="none" stroke="#63b8ff" d="M1125.7,-167.59C1086.83,-157.69 1026.01,-142.2 987.25,-132.33"/>
<polygon fill="#63b8ff" stroke="#63b8ff" points="988.48,-129.03 977.93,-129.95 986.75,-135.81 988.48,-129.03"/>
</a>
</g>
</g>
<!-- Node25&#45;&gt;Node18 -->
<g id="edge37_Node000025_Node000018" class="edge">
<title>Node25&#45;&gt;Node18</title>
<g id="a_edge37_Node000025_Node000018"><a xlink:title=" ">
<path fill="none" stroke="#63b8ff" d="M1224.36,-168.91C1271.63,-161.51 1331.68,-149.1 1349.62,-132 1361.61,-120.58 1366.16,-102.07 1367.82,-87.71"/>
<polygon fill="#63b8ff" stroke="#63b8ff" points="1371.3,-88.2 1368.55,-77.96 1364.32,-87.68 1371.3,-88.2"/>
</a>
</g>
</g>
<!-- Node26 -->
<g id="Node000026" class="node">
<title>Node26</title>
<g id="a_Node000026"><a xlink:title=" ">
<polygon fill="#e0e0e0" stroke="#999999" points="1091,-76 1032.25,-76 1032.25,-56 1091,-56 1091,-76"/>
<text text-anchor="middle" x="1061.62" y="-62.5" font-family="Helvetica,sans-Serif" font-size="10.00">stdexcept</text>
</a>
</g>
</g>
<!-- Node25&#45;&gt;Node26 -->
<g id="edge36_Node000025_Node000026" class="edge">
<title>Node25&#45;&gt;Node26</title>
<g id="a_edge36_Node000025_Node000026"><a xlink:title=" ">
<path fill="none" stroke="#63b8ff" d="M1120.27,-167.61C1100.7,-161.01 1079.08,-150.02 1066.62,-132 1057.76,-119.17 1056.99,-101.31 1058.17,-87.56"/>
<polygon fill="#63b8ff" stroke="#63b8ff" points="1061.61,-88.22 1059.43,-77.85 1054.67,-87.32 1061.61,-88.22"/>
</a>
</g>
</g>
<!-- Node27 -->
<g id="Node000027" class="node">
<title>Node27</title>
<g id="a_Node000027"><a xlink:href="ComponentArray_8hpp.html" target="_top" xlink:title=" ">
<polygon fill="white" stroke="#666666" points="1216.38,-132 1108.88,-132 1108.88,-112 1216.38,-112 1216.38,-132"/>
<text text-anchor="middle" x="1162.62" y="-118.5" font-family="Helvetica,sans-Serif" font-size="10.00">ComponentArray.hpp</text>
</a>
</g>
</g>
<!-- Node25&#45;&gt;Node27 -->
<g id="edge38_Node000025_Node000027" class="edge">
<title>Node25&#45;&gt;Node27</title>
<g id="a_edge38_Node000025_Node000027"><a xlink:title=" ">
<path fill="none" stroke="#63b8ff" d="M1162.62,-167.59C1162.62,-161.01 1162.62,-151.96 1162.62,-143.73"/>
<polygon fill="#63b8ff" stroke="#63b8ff" points="1166.13,-143.81 1162.63,-133.81 1159.13,-143.81 1166.13,-143.81"/>
</a>
</g>
</g>
<!-- Node27&#45;&gt;Node7 -->
<g id="edge40_Node000027_Node000007" class="edge">
<title>Node27&#45;&gt;Node7</title>
<g id="a_edge40_Node000027_Node000007"><a xlink:title=" ">
<path fill="none" stroke="#63b8ff" d="M1108.75,-115.17C1012.59,-104.76 812.52,-83.11 716.84,-72.76"/>
<polygon fill="#63b8ff" stroke="#63b8ff" points="717.25,-69.28 706.93,-71.69 716.49,-76.24 717.25,-69.28"/>
</a>
</g>
</g>
<!-- Node27&#45;&gt;Node18 -->
<g id="edge43_Node000027_Node000018" class="edge">
<title>Node27&#45;&gt;Node18</title>
<g id="a_edge43_Node000027_Node000018"><a xlink:title=" ">
<path fill="none" stroke="#63b8ff" d="M1198.51,-111.59C1234.44,-102.17 1289.69,-87.69 1327.4,-77.81"/>
<polygon fill="#63b8ff" stroke="#63b8ff" points="1328.26,-81.2 1337.04,-75.28 1326.48,-74.43 1328.26,-81.2"/>
</a>
</g>
</g>
<!-- Node27&#45;&gt;Node21 -->
<g id="edge42_Node000027_Node000021" class="edge">
<title>Node27&#45;&gt;Node21</title>
<g id="a_edge42_Node000027_Node000021"><a xlink:title=" ">
<path fill="none" stroke="#63b8ff" d="M1176.21,-111.59C1187.66,-103.67 1204.29,-92.16 1217.78,-82.82"/>
<polygon fill="#63b8ff" stroke="#63b8ff" points="1219.46,-85.91 1225.69,-77.34 1215.47,-80.16 1219.46,-85.91"/>
</a>
</g>
</g>
<!-- Node27&#45;&gt;Node26 -->
<g id="edge41_Node000027_Node000026" class="edge">
<title>Node27&#45;&gt;Node26</title>
<g id="a_edge41_Node000027_Node000026"><a xlink:title=" ">
<path fill="none" stroke="#63b8ff" d="M1145.03,-111.59C1129.7,-103.4 1107.21,-91.37 1089.44,-81.87"/>
<polygon fill="#63b8ff" stroke="#63b8ff" points="1091.16,-78.82 1080.69,-77.19 1087.86,-84.99 1091.16,-78.82"/>
</a>
</g>
</g>
<!-- Node28 -->
<g id="Node000028" class="node">
<title>Node28</title>
<g id="a_Node000028"><a xlink:title=" ">
<polygon fill="#e0e0e0" stroke="#999999" points="1191.62,-76 1133.62,-76 1133.62,-56 1191.62,-56 1191.62,-76"/>
<text text-anchor="middle" x="1162.62" y="-62.5" font-family="Helvetica,sans-Serif" font-size="10.00">exception</text>
</a>
</g>
</g>
<!-- Node27&#45;&gt;Node28 -->
<g id="edge39_Node000027_Node000028" class="edge">
<title>Node27&#45;&gt;Node28</title>
<g id="a_edge39_Node000027_Node000028"><a xlink:title=" ">
<path fill="none" stroke="#63b8ff" d="M1162.62,-111.59C1162.62,-105.01 1162.62,-95.96 1162.62,-87.73"/>
<polygon fill="#63b8ff" stroke="#63b8ff" points="1166.13,-87.81 1162.63,-77.81 1159.13,-87.81 1166.13,-87.81"/>
</a>
</g>
</g>
<!-- Node29&#45;&gt;Node7 -->
<g id="edge45_Node000029_Node000007" class="edge">
<title>Node29&#45;&gt;Node7</title>
<g id="a_edge45_Node000029_Node000007"><a xlink:title=" ">
<path fill="none" stroke="#63b8ff" d="M929.56,-167.53C877.78,-147.95 758.84,-102.99 699.16,-80.43"/>
<polygon fill="#63b8ff" stroke="#63b8ff" points="700.74,-77.29 690.15,-77.03 698.26,-83.83 700.74,-77.29"/>
</a>
</g>
</g>
<!-- Node29&#45;&gt;Node8 -->
<g id="edge46_Node000029_Node000008" class="edge">
<title>Node29&#45;&gt;Node8</title>
<g id="a_edge46_Node000029_Node000008"><a xlink:title=" ">
<path fill="none" stroke="#63b8ff" d="M916.23,-167.53C873.78,-157.07 806.22,-140.41 766.87,-130.71"/>
<polygon fill="#63b8ff" stroke="#63b8ff" points="767.88,-127.35 757.33,-128.35 766.21,-134.15 767.88,-127.35"/>
</a>
</g>
</g>
<!-- Node29&#45;&gt;Node9 -->
<g id="edge47_Node000029_Node000009" class="edge">
<title>Node29&#45;&gt;Node9</title>
<g id="a_edge47_Node000029_Node000009"><a xlink:title=" ">
<path fill="none" stroke="#63b8ff" d="M953.93,-167.59C953.44,-161.01 952.77,-151.96 952.16,-143.73"/>
<polygon fill="#63b8ff" stroke="#63b8ff" points="955.65,-143.52 951.43,-133.81 948.67,-144.04 955.65,-143.52"/>
</a>
</g>
</g>
<!-- Node29&#45;&gt;Node26 -->
<g id="edge48_Node000029_Node000026" class="edge">
<title>Node29&#45;&gt;Node26</title>
<g id="a_edge48_Node000029_Node000026"><a xlink:title=" ">
<path fill="none" stroke="#63b8ff" d="M941.82,-167.6C925.73,-154.64 901.79,-130.74 915.62,-112 939.61,-79.5 986.73,-69.75 1020.96,-67.17"/>
<polygon fill="#63b8ff" stroke="#63b8ff" points="1020.73,-70.69 1030.52,-66.64 1020.34,-63.7 1020.73,-70.69"/>
</a>
</g>
</g>
<!-- Node30 -->
<g id="Node000030" class="node">
<title>Node30</title>
<g id="a_Node000030"><a xlink:href="System_8hpp.html" target="_top" xlink:title=" ">
<polygon fill="white" stroke="#666666" points="1340.88,-132 1272.38,-132 1272.38,-112 1340.88,-112 1340.88,-132"/>
<text text-anchor="middle" x="1306.62" y="-118.5" font-family="Helvetica,sans-Serif" font-size="10.00">System.hpp</text>
</a>
</g>
</g>
<!-- Node29&#45;&gt;Node30 -->
<g id="edge49_Node000029_Node000030" class="edge">
<title>Node29&#45;&gt;Node30</title>
<g id="a_edge49_Node000029_Node000030"><a xlink:title=" ">
<path fill="none" stroke="#63b8ff" d="M1008.09,-168.8C1077.03,-158.22 1195.78,-140 1260.79,-130.03"/>
<polygon fill="#63b8ff" stroke="#63b8ff" points="1261.05,-133.53 1270.4,-128.56 1259.99,-126.61 1261.05,-133.53"/>
</a>
</g>
</g>
<!-- Node30&#45;&gt;Node18 -->
<g id="edge51_Node000030_Node000018" class="edge">
<title>Node30&#45;&gt;Node18</title>
<g id="a_edge51_Node000030_Node000018"><a xlink:title=" ">
<path fill="none" stroke="#63b8ff" d="M1317.42,-111.59C1326.23,-103.93 1338.88,-92.91 1349.4,-83.75"/>
<polygon fill="#63b8ff" stroke="#63b8ff" points="1351.57,-86.5 1356.81,-77.29 1346.97,-81.22 1351.57,-86.5"/>
</a>
</g>
</g>
<!-- Node31 -->
<g id="Node000031" class="node">
<title>Node31</title>
<g id="a_Node000031"><a xlink:title=" ">
<polygon fill="#e0e0e0" stroke="#999999" points="1320.38,-76 1290.88,-76 1290.88,-56 1320.38,-56 1320.38,-76"/>
<text text-anchor="middle" x="1305.62" y="-62.5" font-family="Helvetica,sans-Serif" font-size="10.00">set</text>
</a>
</g>
</g>
<!-- Node30&#45;&gt;Node31 -->
<g id="edge50_Node000030_Node000031" class="edge">
<title>Node30&#45;&gt;Node31</title>
<g id="a_edge50_Node000030_Node000031"><a xlink:title=" ">
<path fill="none" stroke="#63b8ff" d="M1306.45,-111.59C1306.33,-105.01 1306.16,-95.96 1306.01,-87.73"/>
<polygon fill="#63b8ff" stroke="#63b8ff" points="1309.51,-87.75 1305.83,-77.81 1302.51,-87.87 1309.51,-87.75"/>
</a>
</g>
</g>
<!-- Node32&#45;&gt;Node11 -->
<g id="edge53_Node000032_Node000011" class="edge">
<title>Node32&#45;&gt;Node11</title>
<g id="a_edge53_Node000032_Node000011"><a xlink:title=" ">
<path fill="none" stroke="#63b8ff" d="M545.87,-167.59C508.8,-158.11 451.66,-143.48 413.01,-133.59"/>
<polygon fill="#63b8ff" stroke="#63b8ff" points="414.17,-130.27 403.61,-131.19 412.43,-137.06 414.17,-130.27"/>
</a>
</g>
</g>
<!-- Node33 -->
<g id="Node000033" class="node">
<title>Node33</title>
<g id="a_Node000033"><a xlink:title=" ">
<polygon fill="#e0e0e0" stroke="#999999" points="685.62,-132 627.62,-132 627.62,-112 685.62,-112 685.62,-132"/>
<text text-anchor="middle" x="656.62" y="-118.5" font-family="Helvetica,sans-Serif" font-size="10.00">functional</text>
</a>
</g>
</g>
<!-- Node32&#45;&gt;Node33 -->
<g id="edge54_Node000032_Node000033" class="edge">
<title>Node32&#45;&gt;Node33</title>
<g id="a_edge54_Node000032_Node000033"><a xlink:title=" ">
<path fill="none" stroke="#63b8ff" d="M595.51,-167.59C606.34,-159.7 622.04,-148.24 634.81,-138.92"/>
<polygon fill="#63b8ff" stroke="#63b8ff" points="636.65,-141.91 642.66,-133.19 632.52,-136.26 636.65,-141.91"/>
</a>
</g>
</g>
<!-- Node34 -->
<g id="Node000034" class="node">
<title>Node34</title>
<g id="a_Node000034"><a xlink:title=" ">
<polygon fill="#e0e0e0" stroke="#999999" points="597.02,-132 568.23,-132 568.23,-112 597.02,-112 597.02,-132"/>
<text text-anchor="middle" x="582.62" y="-118.5" font-family="Helvetica,sans-Serif" font-size="10.00">list</text>
</a>
</g>
</g>
<!-- Node32&#45;&gt;Node34 -->
<g id="edge55_Node000032_Node000034" class="edge">
<title>Node32&#45;&gt;Node34</title>
<g id="a_edge55_Node000032_Node000034"><a xlink:title=" ">
<path fill="none" stroke="#63b8ff" d="M582.62,-167.59C582.62,-161.01 582.62,-151.96 582.62,-143.73"/>
<polygon fill="#63b8ff" stroke="#63b8ff" points="586.13,-143.81 582.63,-133.81 579.13,-143.81 586.13,-143.81"/>
</a>
</g>
</g>
<!-- Node35&#45;&gt;Node7 -->
<g id="edge58_Node000035_Node000007" class="edge">
<title>Node35&#45;&gt;Node7</title>
<g id="a_edge58_Node000035_Node000007"><a xlink:title=" ">
<path fill="none" stroke="#63b8ff" d="M1118.76,-280.68C958.12,-258.58 534.33,-199.32 524.62,-188 502.66,-162.39 538.48,-130.19 559.62,-112 576.29,-97.67 598.21,-87.28 617.63,-80.12"/>
<polygon fill="#63b8ff" stroke="#63b8ff" points="618.68,-83.45 626.98,-76.86 616.38,-76.84 618.68,-83.45"/>
</a>
</g>
</g>
<!-- Node35&#45;&gt;Node8 -->
<g id="edge59_Node000035_Node000008" class="edge">
<title>Node35&#45;&gt;Node8</title>
<g id="a_edge59_Node000035_Node000008"><a xlink:title=" ">
<path fill="none" stroke="#63b8ff" d="M1124.56,-279.54C1053.93,-265.97 928.95,-237.06 831.62,-188 804.2,-174.18 775.37,-153.74 756.54,-139.49"/>
<polygon fill="#63b8ff" stroke="#63b8ff" points="758.69,-136.72 748.63,-133.4 754.42,-142.27 758.69,-136.72"/>
</a>
</g>
</g>
<!-- Node35&#45;&gt;Node18 -->
<g id="edge61_Node000035_Node000018" class="edge">
<title>Node35&#45;&gt;Node18</title>
<g id="a_edge61_Node000035_Node000018"><a xlink:title=" ">
<path fill="none" stroke="#63b8ff" d="M1240.55,-281.27C1300.62,-270.52 1391.12,-245.41 1445.62,-188 1469.53,-162.83 1482.19,-141.33 1463.62,-112 1451.74,-93.22 1429.67,-82.12 1409.79,-75.65"/>
<polygon fill="#63b8ff" stroke="#63b8ff" points="1410.77,-72.29 1400.19,-72.86 1408.81,-79.01 1410.77,-72.29"/>
</a>
</g>
</g>
<!-- Node35&#45;&gt;Node20 -->
<g id="edge62_Node000035_Node000020" class="edge">
<title>Node35&#45;&gt;Node20</title>
<g id="a_edge62_Node000035_Node000020"><a xlink:title=" ">
<path fill="none" stroke="#63b8ff" d="M1154.54,-279.59C1131.56,-270.97 1097.27,-258.12 1071.41,-248.42"/>
<polygon fill="#63b8ff" stroke="#63b8ff" points="1072.91,-245.25 1062.32,-245.01 1070.46,-251.8 1072.91,-245.25"/>
</a>
</g>
</g>
<!-- Node35&#45;&gt;Node26 -->
<g id="edge60_Node000035_Node000026" class="edge">
<title>Node35&#45;&gt;Node26</title>
<g id="a_edge60_Node000035_Node000026"><a xlink:title=" ">
<path fill="none" stroke="#63b8ff" d="M1189.79,-279.71C1211.99,-258.32 1260.64,-204.61 1232.62,-168 1195.41,-119.37 1148.26,-169.21 1099.62,-132 1084.55,-120.47 1074.35,-101.11 1068.35,-86.51"/>
<polygon fill="#63b8ff" stroke="#63b8ff" points="1071.75,-85.61 1064.95,-77.48 1065.2,-88.07 1071.75,-85.61"/>
</a>
</g>
</g>
<!-- Node35&#45;&gt;Node33 -->
<g id="edge57_Node000035_Node000033" class="edge">
<title>Node35&#45;&gt;Node33</title>
<g id="a_edge57_Node000035_Node000033"><a xlink:title=" ">
<path fill="none" stroke="#63b8ff" d="M1133.83,-279.51C1095.33,-271.19 1039,-258.24 990.62,-244 918.75,-222.85 902.08,-213.49 831.62,-188 783.36,-170.54 727.84,-149.81 692.51,-136.53"/>
<polygon fill="#63b8ff" stroke="#63b8ff" points="693.8,-133.28 683.2,-133.03 691.33,-139.83 693.8,-133.28"/>
</a>
</g>
</g>
</g>
</svg>
