<?xml version="1.0" encoding="UTF-8" standalone="no"?>
<!DOCTYPE svg PUBLIC "-//W3C//DTD SVG 1.1//EN"
 "http://www.w3.org/Graphics/SVG/1.1/DTD/svg11.dtd">
<!-- Generated by graphviz version 12.1.0 (20240811.2233)
 -->
<!-- Title: SFML.hpp Pages: 1 -->
<svg width="1298pt" height="476pt"
 viewBox="0.00 0.00 1298.32 476.00" xmlns="http://www.w3.org/2000/svg" xmlns:xlink="http://www.w3.org/1999/xlink">
<g id="graph0" class="graph" transform="scale(1 1) rotate(0) translate(4 472)">
<title>SFML.hpp</title>
<!-- Node1 -->
<g id="Node000001" class="node">
<title>Node1</title>
<g id="a_Node000001"><a xlink:title=" ">
<polygon fill="#999999" stroke="#666666" points="482,-468 421,-468 421,-448 482,-448 482,-468"/>
<text text-anchor="middle" x="451.5" y="-454.5" font-family="Helvetica,sans-Serif" font-size="10.00">SFML.hpp</text>
</a>
</g>
</g>
<!-- Node2 -->
<g id="Node000002" class="node">
<title>Node2</title>
<g id="a_Node000002"><a xlink:title=" ">
<polygon fill="#e0e0e0" stroke="#999999" points="103,-412 0,-412 0,-392 103,-392 103,-412"/>
<text text-anchor="middle" x="51.5" y="-398.5" font-family="Helvetica,sans-Serif" font-size="10.00">SFML/Graphics.hpp</text>
</a>
</g>
</g>
<!-- Node1&#45;&gt;Node2 -->
<g id="edge1_Node000001_Node000002" class="edge">
<title>Node1&#45;&gt;Node2</title>
<g id="a_edge1_Node000001_Node000002"><a xlink:title=" ">
<path fill="none" stroke="#63b8ff" d="M420.63,-453.05C362.83,-445.64 234.08,-428.95 114.57,-412.27"/>
<polygon fill="#63b8ff" stroke="#63b8ff" points="115.29,-408.84 104.91,-410.92 114.32,-415.77 115.29,-408.84"/>
</a>
</g>
</g>
<!-- Node3 -->
<g id="Node000003" class="node">
<title>Node3</title>
<g id="a_Node000003"><a xlink:title=" ">
<polygon fill="#e0e0e0" stroke="#999999" points="209.88,-412 121.12,-412 121.12,-392 209.88,-392 209.88,-412"/>
<text text-anchor="middle" x="165.5" y="-398.5" font-family="Helvetica,sans-Serif" font-size="10.00">SFML/Audio.hpp</text>
</a>
</g>
</g>
<!-- Node1&#45;&gt;Node3 -->
<g id="edge2_Node000001_Node000003" class="edge">
<title>Node1&#45;&gt;Node3</title>
<g id="a_edge2_Node000001_Node000003"><a xlink:title=" ">
<path fill="none" stroke="#63b8ff" d="M420.62,-451.17C372.99,-442.18 280.89,-424.79 221.36,-413.55"/>
<polygon fill="#63b8ff" stroke="#63b8ff" points="222.24,-410.15 211.76,-411.73 220.94,-417.03 222.24,-410.15"/>
</a>
</g>
</g>
<!-- Node4 -->
<g id="Node000004" class="node">
<title>Node4</title>
<g id="a_Node000004"><a xlink:title=" ">
<polygon fill="#e0e0e0" stroke="#999999" points="1077.88,-76 995.12,-76 995.12,-56 1077.88,-56 1077.88,-76"/>
<text text-anchor="middle" x="1036.5" y="-62.5" font-family="Helvetica,sans-Serif" font-size="10.00">unordered_map</text>
</a>
</g>
</g>
<!-- Node1&#45;&gt;Node4 -->
<g id="edge3_Node000001_Node000004" class="edge">
<title>Node1&#45;&gt;Node4</title>
<g id="a_edge3_Node000001_Node000004"><a xlink:title=" ">
<path fill="none" stroke="#63b8ff" d="M482.32,-456.26C633.51,-452.26 1289.5,-430.09 1289.5,-347 1289.5,-347 1289.5,-347 1289.5,-177 1289.5,-146.9 1292.76,-132.25 1270.5,-112 1244.56,-88.4 1150.31,-76.32 1089.63,-70.85"/>
<polygon fill="#63b8ff" stroke="#63b8ff" points="1090.12,-67.38 1079.86,-70.01 1089.52,-74.36 1090.12,-67.38"/>
</a>
</g>
</g>
<!-- Node5 -->
<g id="Node000005" class="node">
<title>Node5</title>
<g id="a_Node000005"><a xlink:title=" ">
<polygon fill="#e0e0e0" stroke="#999999" points="275.5,-132 235.5,-132 235.5,-112 275.5,-112 275.5,-132"/>
<text text-anchor="middle" x="255.5" y="-118.5" font-family="Helvetica,sans-Serif" font-size="10.00">string</text>
</a>
</g>
</g>
<!-- Node1&#45;&gt;Node5 -->
<g id="edge4_Node000001_Node000005" class="edge">
<title>Node1&#45;&gt;Node5</title>
<g id="a_edge4_Node000001_Node000005"><a xlink:title=" ">
<path fill="none" stroke="#63b8ff" d="M420.84,-455.11C361.67,-449.64 237.5,-428.46 237.5,-347 237.5,-347 237.5,-347 237.5,-233 237.5,-201.31 244.87,-165.15 250.17,-143.21"/>
<polygon fill="#63b8ff" stroke="#63b8ff" points="253.49,-144.35 252.55,-133.8 246.71,-142.64 253.49,-144.35"/>
</a>
</g>
</g>
<!-- Node6 -->
<g id="Node000006" class="node">
<title>Node6</title>
<g id="a_Node000006"><a xlink:title=" ">
<polygon fill="#e0e0e0" stroke="#999999" points="977.12,-132 925.88,-132 925.88,-112 977.12,-112 977.12,-132"/>
<text text-anchor="middle" x="951.5" y="-118.5" font-family="Helvetica,sans-Serif" font-size="10.00">memory</text>
</a>
</g>
</g>
<!-- Node1&#45;&gt;Node6 -->
<g id="edge5_Node000001_Node000006" class="edge">
<title>Node1&#45;&gt;Node6</title>
<g id="a_edge5_Node000001_Node000006"><a xlink:title=" ">
<path fill="none" stroke="#63b8ff" d="M482.15,-455.63C619.95,-449.09 1175.5,-418.28 1175.5,-347 1175.5,-347 1175.5,-347 1175.5,-289 1175.5,-287.44 1029.61,-180.29 973.31,-138.99"/>
<polygon fill="#63b8ff" stroke="#63b8ff" points="975.54,-136.28 965.41,-133.19 971.4,-141.93 975.54,-136.28"/>
</a>
</g>
</g>
<!-- Node7 -->
<g id="Node000007" class="node">
<title>Node7</title>
<g id="a_Node000007"><a xlink:href="Renderer_8hpp.html" target="_top" xlink:title=" ">
<polygon fill="white" stroke="#666666" points="653.75,-412 579.25,-412 579.25,-392 653.75,-392 653.75,-412"/>
<text text-anchor="middle" x="616.5" y="-398.5" font-family="Helvetica,sans-Serif" font-size="10.00">Renderer.hpp</text>
</a>
</g>
</g>
<!-- Node1&#45;&gt;Node7 -->
<g id="edge6_Node000001_Node000007" class="edge">
<title>Node1&#45;&gt;Node7</title>
<g id="a_edge6_Node000001_Node000007"><a xlink:title=" ">
<path fill="none" stroke="#63b8ff" d="M480.24,-447.59C506.93,-438.86 546.92,-425.77 576.68,-416.03"/>
<polygon fill="#63b8ff" stroke="#63b8ff" points="577.68,-419.39 586.1,-412.95 575.5,-412.73 577.68,-419.39"/>
</a>
</g>
</g>
<!-- Node7&#45;&gt;Node5 -->
<g id="edge8_Node000007_Node000005" class="edge">
<title>Node7&#45;&gt;Node5</title>
<g id="a_edge8_Node000007_Node000005"><a xlink:title=" ">
<path fill="none" stroke="#63b8ff" d="M597.66,-391.54C545.83,-364.88 398.41,-284.7 300.5,-188 286.63,-174.3 274.3,-155.8 266.07,-142.03"/>
<polygon fill="#63b8ff" stroke="#63b8ff" points="269.18,-140.42 261.15,-133.51 263.11,-143.92 269.18,-140.42"/>
</a>
</g>
</g>
<!-- Node7&#45;&gt;Node6 -->
<g id="edge7_Node000007_Node000006" class="edge">
<title>Node7&#45;&gt;Node6</title>
<g id="a_edge7_Node000007_Node000006"><a xlink:title=" ">
<path fill="none" stroke="#63b8ff" d="M653.95,-396.34C738.79,-384.94 941.44,-352.65 981.5,-300 1017.6,-252.55 983,-177.18 963.2,-142.11"/>
<polygon fill="#63b8ff" stroke="#63b8ff" points="966.25,-140.39 958.17,-133.53 960.21,-143.93 966.25,-140.39"/>
</a>
</g>
</g>
<!-- Node8 -->
<g id="Node000008" class="node">
<title>Node8</title>
<g id="a_Node000008"><a xlink:href="Event_8hpp.html" target="_top" xlink:title=" ">
<polygon fill="white" stroke="#666666" points="1261.62,-132 1201.38,-132 1201.38,-112 1261.62,-112 1261.62,-132"/>
<text text-anchor="middle" x="1231.5" y="-118.5" font-family="Helvetica,sans-Serif" font-size="10.00">Event.hpp</text>
</a>
</g>
</g>
<!-- Node7&#45;&gt;Node8 -->
<g id="edge9_Node000007_Node000008" class="edge">
<title>Node7&#45;&gt;Node8</title>
<g id="a_edge9_Node000007_Node000008"><a xlink:title=" ">
<path fill="none" stroke="#63b8ff" d="M653.9,-399.02C710.44,-395.2 820.54,-384.48 909.5,-356 1014.75,-322.31 1041.68,-308.38 1131.5,-244 1160.36,-223.31 1165.91,-215.4 1188.5,-188 1200.59,-173.34 1212.35,-155.2 1220.51,-141.81"/>
<polygon fill="#63b8ff" stroke="#63b8ff" points="1223.33,-143.93 1225.45,-133.55 1217.32,-140.34 1223.33,-143.93"/>
</a>
</g>
</g>
<!-- Node11 -->
<g id="Node000011" class="node">
<title>Node11</title>
<g id="a_Node000011"><a xlink:href="NetworkManager_8hpp.html" target="_top" xlink:title=" ">
<polygon fill="white" stroke="#666666" points="671,-356 562,-356 562,-336 671,-336 671,-356"/>
<text text-anchor="middle" x="616.5" y="-342.5" font-family="Helvetica,sans-Serif" font-size="10.00">NetworkManager.hpp</text>
</a>
</g>
</g>
<!-- Node7&#45;&gt;Node11 -->
<g id="edge13_Node000007_Node000011" class="edge">
<title>Node7&#45;&gt;Node11</title>
<g id="a_edge13_Node000007_Node000011"><a xlink:title=" ">
<path fill="none" stroke="#63b8ff" d="M616.5,-391.59C616.5,-385.01 616.5,-375.96 616.5,-367.73"/>
<polygon fill="#63b8ff" stroke="#63b8ff" points="620,-367.81 616.5,-357.81 613,-367.81 620,-367.81"/>
</a>
</g>
</g>
<!-- Node8&#45;&gt;Node4 -->
<g id="edge11_Node000008_Node000004" class="edge">
<title>Node8&#45;&gt;Node4</title>
<g id="a_edge11_Node000008_Node000004"><a xlink:title=" ">
<path fill="none" stroke="#63b8ff" d="M1201.03,-112.56C1169,-103.69 1118.25,-89.64 1081.58,-79.48"/>
<polygon fill="#63b8ff" stroke="#63b8ff" points="1082.72,-76.17 1072.15,-76.87 1080.85,-82.91 1082.72,-76.17"/>
</a>
</g>
</g>
<!-- Node9 -->
<g id="Node000009" class="node">
<title>Node9</title>
<g id="a_Node000009"><a xlink:title=" ">
<polygon fill="#e0e0e0" stroke="#999999" points="1276.12,-20 1230.88,-20 1230.88,0 1276.12,0 1276.12,-20"/>
<text text-anchor="middle" x="1253.5" y="-6.5" font-family="Helvetica,sans-Serif" font-size="10.00">cstdint</text>
</a>
</g>
</g>
<!-- Node8&#45;&gt;Node9 -->
<g id="edge10_Node000008_Node000009" class="edge">
<title>Node8&#45;&gt;Node9</title>
<g id="a_edge10_Node000008_Node000009"><a xlink:title=" ">
<path fill="none" stroke="#63b8ff" d="M1233.38,-111.62C1236.92,-93.92 1244.65,-55.24 1249.44,-31.32"/>
<polygon fill="#63b8ff" stroke="#63b8ff" points="1252.8,-32.33 1251.33,-21.84 1245.94,-30.96 1252.8,-32.33"/>
</a>
</g>
</g>
<!-- Node10 -->
<g id="Node000010" class="node">
<title>Node10</title>
<g id="a_Node000010"><a xlink:title=" ">
<polygon fill="#e0e0e0" stroke="#999999" points="1225.38,-76 1193.62,-76 1193.62,-56 1225.38,-56 1225.38,-76"/>
<text text-anchor="middle" x="1209.5" y="-62.5" font-family="Helvetica,sans-Serif" font-size="10.00">any</text>
</a>
</g>
</g>
<!-- Node8&#45;&gt;Node10 -->
<g id="edge12_Node000008_Node000010" class="edge">
<title>Node8&#45;&gt;Node10</title>
<g id="a_edge12_Node000008_Node000010"><a xlink:title=" ">
<path fill="none" stroke="#63b8ff" d="M1227.67,-111.59C1224.89,-104.78 1221.04,-95.32 1217.59,-86.86"/>
<polygon fill="#63b8ff" stroke="#63b8ff" points="1220.87,-85.64 1213.86,-77.7 1214.39,-88.28 1220.87,-85.64"/>
</a>
</g>
</g>
<!-- Node11&#45;&gt;Node9 -->
<g id="edge14_Node000011_Node000009" class="edge">
<title>Node11&#45;&gt;Node9</title>
<g id="a_edge14_Node000011_Node000009"><a xlink:title=" ">
<path fill="none" stroke="#63b8ff" d="M671.16,-345.41C769.7,-343.85 980.88,-329.8 1131.5,-244 1200.44,-204.73 1236.26,-203.57 1270.5,-132 1286.31,-98.96 1273.06,-55.45 1262.76,-30.62"/>
<polygon fill="#63b8ff" stroke="#63b8ff" points="1266.07,-29.46 1258.83,-21.73 1259.67,-32.29 1266.07,-29.46"/>
</a>
</g>
</g>
<!-- Node12 -->
<g id="Node000012" class="node">
<title>Node12</title>
<g id="a_Node000012"><a xlink:title=" ">
<polygon fill="#e0e0e0" stroke="#999999" points="833.38,-300 753.62,-300 753.62,-280 833.38,-280 833.38,-300"/>
<text text-anchor="middle" x="793.5" y="-286.5" font-family="Helvetica,sans-Serif" font-size="10.00">boost/asio.hpp</text>
</a>
</g>
</g>
<!-- Node11&#45;&gt;Node12 -->
<g id="edge15_Node000011_Node000012" class="edge">
<title>Node11&#45;&gt;Node12</title>
<g id="a_edge15_Node000011_Node000012"><a xlink:title=" ">
<path fill="none" stroke="#63b8ff" d="M647.33,-335.59C676.21,-326.78 719.61,-313.54 751.62,-303.78"/>
<polygon fill="#63b8ff" stroke="#63b8ff" points="752.44,-307.19 760.98,-300.92 750.39,-300.49 752.44,-307.19"/>
</a>
</g>
</g>
<!-- Node13 -->
<g id="Node000013" class="node">
<title>Node13</title>
<g id="a_Node000013"><a xlink:title=" ">
<polygon fill="#e0e0e0" stroke="#999999" points="429.38,-132 391.62,-132 391.62,-112 429.38,-112 429.38,-132"/>
<text text-anchor="middle" x="410.5" y="-118.5" font-family="Helvetica,sans-Serif" font-size="10.00">array</text>
</a>
</g>
</g>
<!-- Node11&#45;&gt;Node13 -->
<g id="edge16_Node000011_Node000013" class="edge">
<title>Node11&#45;&gt;Node13</title>
<g id="a_edge16_Node000011_Node000013"><a xlink:title=" ">
<path fill="none" stroke="#63b8ff" d="M561.61,-337.61C535.97,-331.5 506.89,-320.35 487.5,-300 445.3,-255.71 477.52,-221.85 448.5,-168 443.2,-158.17 435.5,-148.53 428.42,-140.71"/>
<polygon fill="#63b8ff" stroke="#63b8ff" points="431.04,-138.39 421.61,-133.57 425.98,-143.22 431.04,-138.39"/>
</a>
</g>
</g>
<!-- Node14 -->
<g id="Node000014" class="node">
<title>Node14</title>
<g id="a_Node000014"><a xlink:title=" ">
<polygon fill="#e0e0e0" stroke="#999999" points="539,-300 496,-300 496,-280 539,-280 539,-300"/>
<text text-anchor="middle" x="517.5" y="-286.5" font-family="Helvetica,sans-Serif" font-size="10.00">thread</text>
</a>
</g>
</g>
<!-- Node11&#45;&gt;Node14 -->
<g id="edge17_Node000011_Node000014" class="edge">
<title>Node11&#45;&gt;Node14</title>
<g id="a_edge17_Node000011_Node000014"><a xlink:title=" ">
<path fill="none" stroke="#63b8ff" d="M599.26,-335.59C584.16,-327.36 561.97,-315.26 544.52,-305.74"/>
<polygon fill="#63b8ff" stroke="#63b8ff" points="546.66,-302.92 536.21,-301.2 543.31,-309.07 546.66,-302.92"/>
</a>
</g>
</g>
<!-- Node15 -->
<g id="Node000015" class="node">
<title>Node15</title>
<g id="a_Node000015"><a xlink:href="Entity_8hpp.html" target="_top" xlink:title=" ">
<polygon fill="white" stroke="#666666" points="525.25,-76 465.75,-76 465.75,-56 525.25,-56 525.25,-76"/>
<text text-anchor="middle" x="495.5" y="-62.5" font-family="Helvetica,sans-Serif" font-size="10.00">Entity.hpp</text>
</a>
</g>
</g>
<!-- Node11&#45;&gt;Node15 -->
<g id="edge18_Node000011_Node000015" class="edge">
<title>Node11&#45;&gt;Node15</title>
<g id="a_edge18_Node000011_Node000015"><a xlink:title=" ">
<path fill="none" stroke="#63b8ff" d="M561.7,-338.17C464.22,-322.5 267.12,-273.64 226.5,-132 224.05,-123.46 220.76,-118.78 226.5,-112 255.21,-78.09 386.35,-69.72 454.35,-67.66"/>
<polygon fill="#63b8ff" stroke="#63b8ff" points="454.06,-71.17 463.97,-67.4 453.88,-64.17 454.06,-71.17"/>
</a>
</g>
</g>
<!-- Node17 -->
<g id="Node000017" class="node">
<title>Node17</title>
<g id="a_Node000017"><a xlink:href="Mediator_8hpp.html" target="_top" xlink:title=" ">
<polygon fill="white" stroke="#666666" points="730.62,-244 658.38,-244 658.38,-224 730.62,-224 730.62,-244"/>
<text text-anchor="middle" x="694.5" y="-230.5" font-family="Helvetica,sans-Serif" font-size="10.00">Mediator.hpp</text>
</a>
</g>
</g>
<!-- Node11&#45;&gt;Node17 -->
<g id="edge21_Node000011_Node000017" class="edge">
<title>Node11&#45;&gt;Node17</title>
<g id="a_edge21_Node000011_Node000017"><a xlink:title=" ">
<path fill="none" stroke="#63b8ff" d="M606.42,-335.7C593.53,-322.64 574.23,-298.41 586.5,-280 600.04,-259.69 624.68,-248.53 647,-242.41"/>
<polygon fill="#63b8ff" stroke="#63b8ff" points="647.69,-245.84 656.58,-240.07 646.04,-239.04 647.69,-245.84"/>
</a>
</g>
</g>
<!-- Node32 -->
<g id="Node000032" class="node">
<title>Node32</title>
<g id="a_Node000032"><a xlink:href="ComponentRegistry_8hpp.html" target="_top" xlink:title=" ">
<polygon fill="white" stroke="#666666" points="972,-300 851,-300 851,-280 972,-280 972,-300"/>
<text text-anchor="middle" x="911.5" y="-286.5" font-family="Helvetica,sans-Serif" font-size="10.00">ComponentRegistry.hpp</text>
</a>
</g>
</g>
<!-- Node11&#45;&gt;Node32 -->
<g id="edge53_Node000011_Node000032" class="edge">
<title>Node11&#45;&gt;Node32</title>
<g id="a_edge53_Node000011_Node000032"><a xlink:title=" ">
<path fill="none" stroke="#63b8ff" d="M668.22,-335.53C718.51,-326.33 794.98,-312.33 848.73,-302.49"/>
<polygon fill="#63b8ff" stroke="#63b8ff" points="849.14,-305.97 858.35,-300.73 847.88,-299.09 849.14,-305.97"/>
</a>
</g>
</g>
<!-- Node33 -->
<g id="Node000033" class="node">
<title>Node33</title>
<g id="a_Node000033"><a xlink:href="EnemyInfo_8hpp.html" target="_top" xlink:title=" ">
<polygon fill="white" stroke="#666666" points="735.75,-300 595.25,-300 595.25,-280 735.75,-280 735.75,-300"/>
<text text-anchor="middle" x="665.5" y="-286.5" font-family="Helvetica,sans-Serif" font-size="10.00">Components/EnemyInfo.hpp</text>
</a>
</g>
</g>
<!-- Node11&#45;&gt;Node33 -->
<g id="edge60_Node000011_Node000033" class="edge">
<title>Node11&#45;&gt;Node33</title>
<g id="a_edge60_Node000011_Node000033"><a xlink:title=" ">
<path fill="none" stroke="#63b8ff" d="M625.04,-335.59C631.78,-328.16 641.39,-317.58 649.54,-308.58"/>
<polygon fill="#63b8ff" stroke="#63b8ff" points="651.92,-311.18 656.05,-301.42 646.73,-306.47 651.92,-311.18"/>
</a>
</g>
</g>
<!-- Node15&#45;&gt;Node9 -->
<g id="edge19_Node000015_Node000009" class="edge">
<title>Node15&#45;&gt;Node9</title>
<g id="a_edge19_Node000015_Node000009"><a xlink:title=" ">
<path fill="none" stroke="#63b8ff" d="M525.64,-57.53C528.62,-56.95 531.61,-56.42 534.5,-56 795.82,-17.93 1115.17,-12.05 1219.08,-11.15"/>
<polygon fill="#63b8ff" stroke="#63b8ff" points="1218.9,-14.66 1228.87,-11.08 1218.85,-7.66 1218.9,-14.66"/>
</a>
</g>
</g>
<!-- Node16 -->
<g id="Node000016" class="node">
<title>Node16</title>
<g id="a_Node000016"><a xlink:title=" ">
<polygon fill="#e0e0e0" stroke="#999999" points="515.5,-20 475.5,-20 475.5,0 515.5,0 515.5,-20"/>
<text text-anchor="middle" x="495.5" y="-6.5" font-family="Helvetica,sans-Serif" font-size="10.00">bitset</text>
</a>
</g>
</g>
<!-- Node15&#45;&gt;Node16 -->
<g id="edge20_Node000015_Node000016" class="edge">
<title>Node15&#45;&gt;Node16</title>
<g id="a_edge20_Node000015_Node000016"><a xlink:title=" ">
<path fill="none" stroke="#63b8ff" d="M495.5,-55.59C495.5,-49.01 495.5,-39.96 495.5,-31.73"/>
<polygon fill="#63b8ff" stroke="#63b8ff" points="499,-31.81 495.5,-21.81 492,-31.81 499,-31.81"/>
</a>
</g>
</g>
<!-- Node17&#45;&gt;Node6 -->
<g id="edge23_Node000017_Node000006" class="edge">
<title>Node17&#45;&gt;Node6</title>
<g id="a_edge23_Node000017_Node000006"><a xlink:title=" ">
<path fill="none" stroke="#63b8ff" d="M731.05,-230.7C771.8,-226.78 838.54,-216.24 888.5,-188 908.95,-176.44 927,-156.21 938.48,-141.39"/>
<polygon fill="#63b8ff" stroke="#63b8ff" points="941.28,-143.49 944.43,-133.37 935.66,-139.32 941.28,-143.49"/>
</a>
</g>
</g>
<!-- Node18 -->
<g id="Node000018" class="node">
<title>Node18</title>
<g id="a_Node000018"><a xlink:title=" ">
<polygon fill="#e0e0e0" stroke="#999999" points="650.25,-76 596.75,-76 596.75,-56 650.25,-56 650.25,-76"/>
<text text-anchor="middle" x="623.5" y="-62.5" font-family="Helvetica,sans-Serif" font-size="10.00">iostream</text>
</a>
</g>
</g>
<!-- Node17&#45;&gt;Node18 -->
<g id="edge22_Node000017_Node000018" class="edge">
<title>Node17&#45;&gt;Node18</title>
<g id="a_edge22_Node000017_Node000018"><a xlink:title=" ">
<path fill="none" stroke="#63b8ff" d="M668.33,-223.63C652.59,-216.49 633.85,-204.95 624.5,-188 607.06,-156.37 612.6,-112.64 618.11,-87.34"/>
<polygon fill="#63b8ff" stroke="#63b8ff" points="621.49,-88.25 620.44,-77.71 614.69,-86.6 621.49,-88.25"/>
</a>
</g>
</g>
<!-- Node19 -->
<g id="Node000019" class="node">
<title>Node19</title>
<g id="a_Node000019"><a xlink:title=" ">
<polygon fill="#e0e0e0" stroke="#999999" points="577,-188 534,-188 534,-168 577,-168 577,-188"/>
<text text-anchor="middle" x="555.5" y="-174.5" font-family="Helvetica,sans-Serif" font-size="10.00">vector</text>
</a>
</g>
</g>
<!-- Node17&#45;&gt;Node19 -->
<g id="edge24_Node000017_Node000019" class="edge">
<title>Node17&#45;&gt;Node19</title>
<g id="a_edge24_Node000017_Node000019"><a xlink:title=" ">
<path fill="none" stroke="#63b8ff" d="M670.29,-223.59C647.39,-214.7 612.87,-201.29 587.66,-191.49"/>
<polygon fill="#63b8ff" stroke="#63b8ff" points="589.15,-188.32 578.56,-187.96 586.62,-194.84 589.15,-188.32"/>
</a>
</g>
</g>
<!-- Node20 -->
<g id="Node000020" class="node">
<title>Node20</title>
<g id="a_Node000020"><a xlink:href="EntityManager_8hpp.html" target="_top" xlink:title=" ">
<polygon fill="white" stroke="#666666" points="439.38,-188 341.62,-188 341.62,-168 439.38,-168 439.38,-188"/>
<text text-anchor="middle" x="390.5" y="-174.5" font-family="Helvetica,sans-Serif" font-size="10.00">EntityManager.hpp</text>
</a>
</g>
</g>
<!-- Node17&#45;&gt;Node20 -->
<g id="edge25_Node000017_Node000020" class="edge">
<title>Node17&#45;&gt;Node20</title>
<g id="a_edge25_Node000017_Node000020"><a xlink:title=" ">
<path fill="none" stroke="#63b8ff" d="M658.13,-226.54C606.87,-217.43 512.73,-200.71 450.88,-189.73"/>
<polygon fill="#63b8ff" stroke="#63b8ff" points="451.67,-186.31 441.22,-188.01 450.45,-193.2 451.67,-186.31"/>
</a>
</g>
</g>
<!-- Node22 -->
<g id="Node000022" class="node">
<title>Node22</title>
<g id="a_Node000022"><a xlink:href="ComponentManager_8hpp.html" target="_top" xlink:title=" ">
<polygon fill="white" stroke="#666666" points="755.75,-188 633.25,-188 633.25,-168 755.75,-168 755.75,-188"/>
<text text-anchor="middle" x="694.5" y="-174.5" font-family="Helvetica,sans-Serif" font-size="10.00">ComponentManager.hpp</text>
</a>
</g>
</g>
<!-- Node17&#45;&gt;Node22 -->
<g id="edge29_Node000017_Node000022" class="edge">
<title>Node17&#45;&gt;Node22</title>
<g id="a_edge29_Node000017_Node000022"><a xlink:title=" ">
<path fill="none" stroke="#63b8ff" d="M694.5,-223.59C694.5,-217.01 694.5,-207.96 694.5,-199.73"/>
<polygon fill="#63b8ff" stroke="#63b8ff" points="698,-199.81 694.5,-189.81 691,-199.81 698,-199.81"/>
</a>
</g>
</g>
<!-- Node26 -->
<g id="Node000026" class="node">
<title>Node26</title>
<g id="a_Node000026"><a xlink:href="SystemManager_8hpp.html" target="_top" xlink:title=" ">
<polygon fill="white" stroke="#666666" points="879.5,-188 773.5,-188 773.5,-168 879.5,-168 879.5,-188"/>
<text text-anchor="middle" x="826.5" y="-174.5" font-family="Helvetica,sans-Serif" font-size="10.00">SystemManager.hpp</text>
</a>
</g>
</g>
<!-- Node17&#45;&gt;Node26 -->
<g id="edge41_Node000017_Node000026" class="edge">
<title>Node17&#45;&gt;Node26</title>
<g id="a_edge41_Node000017_Node000026"><a xlink:title=" ">
<path fill="none" stroke="#63b8ff" d="M717.49,-223.59C738.28,-215.09 769.15,-202.46 792.74,-192.81"/>
<polygon fill="#63b8ff" stroke="#63b8ff" points="794,-196.08 801.93,-189.05 791.35,-189.6 794,-196.08"/>
</a>
</g>
</g>
<!-- Node29 -->
<g id="Node000029" class="node">
<title>Node29</title>
<g id="a_Node000029"><a xlink:href="EventManager_8hpp.html" target="_top" xlink:title=" ">
<polygon fill="white" stroke="#666666" points="1147.38,-188 1049.62,-188 1049.62,-168 1147.38,-168 1147.38,-188"/>
<text text-anchor="middle" x="1098.5" y="-174.5" font-family="Helvetica,sans-Serif" font-size="10.00">EventManager.hpp</text>
</a>
</g>
</g>
<!-- Node17&#45;&gt;Node29 -->
<g id="edge49_Node000017_Node000029" class="edge">
<title>Node17&#45;&gt;Node29</title>
<g id="a_edge49_Node000017_Node000029"><a xlink:title=" ">
<path fill="none" stroke="#63b8ff" d="M731.06,-228.11C800.7,-218.8 952.98,-198.45 1038.02,-187.08"/>
<polygon fill="#63b8ff" stroke="#63b8ff" points="1038.35,-190.57 1047.8,-185.78 1037.43,-183.63 1038.35,-190.57"/>
</a>
</g>
</g>
<!-- Node20&#45;&gt;Node13 -->
<g id="edge27_Node000020_Node000013" class="edge">
<title>Node20&#45;&gt;Node13</title>
<g id="a_edge27_Node000020_Node000013"><a xlink:title=" ">
<path fill="none" stroke="#63b8ff" d="M393.98,-167.59C396.51,-160.78 400.01,-151.32 403.14,-142.86"/>
<polygon fill="#63b8ff" stroke="#63b8ff" points="406.34,-144.31 406.53,-133.72 399.78,-141.88 406.34,-144.31"/>
</a>
</g>
</g>
<!-- Node20&#45;&gt;Node15 -->
<g id="edge28_Node000020_Node000015" class="edge">
<title>Node20&#45;&gt;Node15</title>
<g id="a_edge28_Node000020_Node000015"><a xlink:title=" ">
<path fill="none" stroke="#63b8ff" d="M367.34,-167.57C341.5,-155.67 305.42,-134.09 322.5,-112 338.48,-91.33 408.25,-78.39 454.16,-71.95"/>
<polygon fill="#63b8ff" stroke="#63b8ff" points="454.61,-75.42 464.06,-70.61 453.68,-68.48 454.61,-75.42"/>
</a>
</g>
</g>
<!-- Node21 -->
<g id="Node000021" class="node">
<title>Node21</title>
<g id="a_Node000021"><a xlink:title=" ">
<polygon fill="#e0e0e0" stroke="#999999" points="373.62,-132 331.38,-132 331.38,-112 373.62,-112 373.62,-132"/>
<text text-anchor="middle" x="352.5" y="-118.5" font-family="Helvetica,sans-Serif" font-size="10.00">queue</text>
</a>
</g>
</g>
<!-- Node20&#45;&gt;Node21 -->
<g id="edge26_Node000020_Node000021" class="edge">
<title>Node20&#45;&gt;Node21</title>
<g id="a_edge26_Node000020_Node000021"><a xlink:title=" ">
<path fill="none" stroke="#63b8ff" d="M383.88,-167.59C378.81,-160.39 371.66,-150.23 365.47,-141.43"/>
<polygon fill="#63b8ff" stroke="#63b8ff" points="368.53,-139.7 359.91,-133.54 362.81,-143.73 368.53,-139.7"/>
</a>
</g>
</g>
<!-- Node22&#45;&gt;Node4 -->
<g id="edge30_Node000022_Node000004" class="edge">
<title>Node22&#45;&gt;Node4</title>
<g id="a_edge30_Node000022_Node000004"><a xlink:title=" ">
<path fill="none" stroke="#63b8ff" d="M720.37,-167.53C756.33,-154.47 823.54,-130.47 881.5,-112 918.12,-100.33 959.99,-88.25 990.98,-79.54"/>
<polygon fill="#63b8ff" stroke="#63b8ff" points="991.72,-82.97 1000.41,-76.91 989.84,-76.23 991.72,-82.97"/>
</a>
</g>
</g>
<!-- Node22&#45;&gt;Node5 -->
<g id="edge31_Node000022_Node000005" class="edge">
<title>Node22&#45;&gt;Node5</title>
<g id="a_edge31_Node000022_Node000005"><a xlink:title=" ">
<path fill="none" stroke="#63b8ff" d="M632.92,-169.8C559.12,-161.12 431.72,-145.94 322.5,-132 310.84,-130.51 298.04,-128.81 286.78,-127.29"/>
<polygon fill="#63b8ff" stroke="#63b8ff" points="287.6,-123.87 277.22,-125.99 286.66,-130.8 287.6,-123.87"/>
</a>
</g>
</g>
<!-- Node22&#45;&gt;Node6 -->
<g id="edge32_Node000022_Node000006" class="edge">
<title>Node22&#45;&gt;Node6</title>
<g id="a_edge32_Node000022_Node000006"><a xlink:title=" ">
<path fill="none" stroke="#63b8ff" d="M739.56,-167.53C789.33,-157.08 868.51,-140.44 914.7,-130.73"/>
<polygon fill="#63b8ff" stroke="#63b8ff" points="915.14,-134.22 924.21,-128.73 913.71,-127.36 915.14,-134.22"/>
</a>
</g>
</g>
<!-- Node22&#45;&gt;Node15 -->
<g id="edge34_Node000022_Node000015" class="edge">
<title>Node22&#45;&gt;Node15</title>
<g id="a_edge34_Node000022_Node000015"><a xlink:title=" ">
<path fill="none" stroke="#63b8ff" d="M633.21,-168.32C588,-160.73 531.51,-148.35 514.5,-132 502.57,-120.53 498.01,-102.02 496.33,-87.68"/>
<polygon fill="#63b8ff" stroke="#63b8ff" points="499.84,-87.65 495.59,-77.95 492.86,-88.18 499.84,-87.65"/>
</a>
</g>
</g>
<!-- Node23 -->
<g id="Node000023" class="node">
<title>Node23</title>
<g id="a_Node000023"><a xlink:title=" ">
<polygon fill="#e0e0e0" stroke="#999999" points="831.88,-76 773.12,-76 773.12,-56 831.88,-56 831.88,-76"/>
<text text-anchor="middle" x="802.5" y="-62.5" font-family="Helvetica,sans-Serif" font-size="10.00">stdexcept</text>
</a>
</g>
</g>
<!-- Node22&#45;&gt;Node23 -->
<g id="edge33_Node000022_Node000023" class="edge">
<title>Node22&#45;&gt;Node23</title>
<g id="a_edge33_Node000022_Node000023"><a xlink:title=" ">
<path fill="none" stroke="#63b8ff" d="M714.08,-167.65C729.19,-159.72 749.9,-147.23 764.5,-132 777.22,-118.73 787.43,-100.43 794.05,-86.62"/>
<polygon fill="#63b8ff" stroke="#63b8ff" points="797.17,-88.22 798.12,-77.67 790.8,-85.33 797.17,-88.22"/>
</a>
</g>
</g>
<!-- Node24 -->
<g id="Node000024" class="node">
<title>Node24</title>
<g id="a_Node000024"><a xlink:href="ComponentArray_8hpp.html" target="_top" xlink:title=" ">
<polygon fill="white" stroke="#666666" points="755.25,-132 647.75,-132 647.75,-112 755.25,-112 755.25,-132"/>
<text text-anchor="middle" x="701.5" y="-118.5" font-family="Helvetica,sans-Serif" font-size="10.00">ComponentArray.hpp</text>
</a>
</g>
</g>
<!-- Node22&#45;&gt;Node24 -->
<g id="edge35_Node000022_Node000024" class="edge">
<title>Node22&#45;&gt;Node24</title>
<g id="a_edge35_Node000022_Node000024"><a xlink:title=" ">
<path fill="none" stroke="#63b8ff" d="M695.72,-167.59C696.58,-160.93 697.77,-151.75 698.85,-143.44"/>
<polygon fill="#63b8ff" stroke="#63b8ff" points="702.29,-144.17 700.1,-133.8 695.34,-143.27 702.29,-144.17"/>
</a>
</g>
</g>
<!-- Node24&#45;&gt;Node4 -->
<g id="edge37_Node000024_Node000004" class="edge">
<title>Node24&#45;&gt;Node4</title>
<g id="a_edge37_Node000024_Node000004"><a xlink:title=" ">
<path fill="none" stroke="#63b8ff" d="M755.7,-112.26C818.54,-102.13 921.45,-85.55 983.7,-75.51"/>
<polygon fill="#63b8ff" stroke="#63b8ff" points="984.02,-79.01 993.33,-73.96 982.9,-72.09 984.02,-79.01"/>
</a>
</g>
</g>
<!-- Node24&#45;&gt;Node15 -->
<g id="edge40_Node000024_Node000015" class="edge">
<title>Node24&#45;&gt;Node15</title>
<g id="a_edge40_Node000024_Node000015"><a xlink:title=" ">
<path fill="none" stroke="#63b8ff" d="M665.62,-111.59C629.68,-102.17 574.44,-87.69 536.72,-77.81"/>
<polygon fill="#63b8ff" stroke="#63b8ff" points="537.64,-74.43 527.08,-75.28 535.87,-81.2 537.64,-74.43"/>
</a>
</g>
</g>
<!-- Node24&#45;&gt;Node18 -->
<g id="edge39_Node000024_Node000018" class="edge">
<title>Node24&#45;&gt;Node18</title>
<g id="a_edge39_Node000024_Node000018"><a xlink:title=" ">
<path fill="none" stroke="#63b8ff" d="M687.91,-111.59C676.46,-103.67 659.84,-92.16 646.34,-82.82"/>
<polygon fill="#63b8ff" stroke="#63b8ff" points="648.65,-80.16 638.44,-77.34 644.67,-85.91 648.65,-80.16"/>
</a>
</g>
</g>
<!-- Node24&#45;&gt;Node23 -->
<g id="edge38_Node000024_Node000023" class="edge">
<title>Node24&#45;&gt;Node23</title>
<g id="a_edge38_Node000024_Node000023"><a xlink:title=" ">
<path fill="none" stroke="#63b8ff" d="M719.09,-111.59C734.42,-103.4 756.92,-91.37 774.69,-81.87"/>
<polygon fill="#63b8ff" stroke="#63b8ff" points="776.27,-84.99 783.44,-77.19 772.97,-78.82 776.27,-84.99"/>
</a>
</g>
</g>
<!-- Node25 -->
<g id="Node000025" class="node">
<title>Node25</title>
<g id="a_Node000025"><a xlink:title=" ">
<polygon fill="#e0e0e0" stroke="#999999" points="730.5,-76 672.5,-76 672.5,-56 730.5,-56 730.5,-76"/>
<text text-anchor="middle" x="701.5" y="-62.5" font-family="Helvetica,sans-Serif" font-size="10.00">exception</text>
</a>
</g>
</g>
<!-- Node24&#45;&gt;Node25 -->
<g id="edge36_Node000024_Node000025" class="edge">
<title>Node24&#45;&gt;Node25</title>
<g id="a_edge36_Node000024_Node000025"><a xlink:title=" ">
<path fill="none" stroke="#63b8ff" d="M701.5,-111.59C701.5,-105.01 701.5,-95.96 701.5,-87.73"/>
<polygon fill="#63b8ff" stroke="#63b8ff" points="705,-87.81 701.5,-77.81 698,-87.81 705,-87.81"/>
</a>
</g>
</g>
<!-- Node26&#45;&gt;Node4 -->
<g id="edge42_Node000026_Node000004" class="edge">
<title>Node26&#45;&gt;Node4</title>
<g id="a_edge42_Node000026_Node000004"><a xlink:title=" ">
<path fill="none" stroke="#63b8ff" d="M837.5,-167.55C853.85,-153.87 885.92,-128.39 916.5,-112 941.05,-98.84 970.28,-87.79 993.75,-79.93"/>
<polygon fill="#63b8ff" stroke="#63b8ff" points="994.56,-83.35 1002.98,-76.92 992.39,-76.7 994.56,-83.35"/>
</a>
</g>
</g>
<!-- Node26&#45;&gt;Node5 -->
<g id="edge43_Node000026_Node000005" class="edge">
<title>Node26&#45;&gt;Node5</title>
<g id="a_edge43_Node000026_Node000005"><a xlink:title=" ">
<path fill="none" stroke="#63b8ff" d="M773.09,-169.03C770.19,-168.66 767.31,-168.32 764.5,-168 568.66,-145.83 518.46,-153.13 322.5,-132 311.02,-130.76 298.46,-129.15 287.36,-127.63"/>
<polygon fill="#63b8ff" stroke="#63b8ff" points="287.88,-124.16 277.49,-126.24 286.91,-131.1 287.88,-124.16"/>
</a>
</g>
</g>
<!-- Node26&#45;&gt;Node6 -->
<g id="edge44_Node000026_Node000006" class="edge">
<title>Node26&#45;&gt;Node6</title>
<g id="a_edge44_Node000026_Node000006"><a xlink:title=" ">
<path fill="none" stroke="#63b8ff" d="M848.27,-167.59C867.87,-159.13 896.93,-146.58 919.22,-136.94"/>
<polygon fill="#63b8ff" stroke="#63b8ff" points="920.38,-140.26 928.17,-133.08 917.6,-133.83 920.38,-140.26"/>
</a>
</g>
</g>
<!-- Node26&#45;&gt;Node23 -->
<g id="edge45_Node000026_Node000023" class="edge">
<title>Node26&#45;&gt;Node23</title>
<g id="a_edge45_Node000026_Node000023"><a xlink:title=" ">
<path fill="none" stroke="#63b8ff" d="M824.45,-167.62C820.59,-149.92 812.15,-111.24 806.93,-87.32"/>
<polygon fill="#63b8ff" stroke="#63b8ff" points="810.41,-86.86 804.86,-77.83 803.58,-88.35 810.41,-86.86"/>
</a>
</g>
</g>
<!-- Node27 -->
<g id="Node000027" class="node">
<title>Node27</title>
<g id="a_Node000027"><a xlink:href="System_8hpp.html" target="_top" xlink:title=" ">
<polygon fill="white" stroke="#666666" points="591.75,-132 523.25,-132 523.25,-112 591.75,-112 591.75,-132"/>
<text text-anchor="middle" x="557.5" y="-118.5" font-family="Helvetica,sans-Serif" font-size="10.00">System.hpp</text>
</a>
</g>
</g>
<!-- Node26&#45;&gt;Node27 -->
<g id="edge46_Node000026_Node000027" class="edge">
<title>Node26&#45;&gt;Node27</title>
<g id="a_edge46_Node000026_Node000027"><a xlink:title=" ">
<path fill="none" stroke="#63b8ff" d="M779.34,-167.53C729.81,-157.59 652.46,-142.06 603.42,-132.22"/>
<polygon fill="#63b8ff" stroke="#63b8ff" points="604.17,-128.8 593.68,-130.26 602.79,-135.66 604.17,-128.8"/>
</a>
</g>
</g>
<!-- Node27&#45;&gt;Node15 -->
<g id="edge48_Node000027_Node000015" class="edge">
<title>Node27&#45;&gt;Node15</title>
<g id="a_edge48_Node000027_Node000015"><a xlink:title=" ">
<path fill="none" stroke="#63b8ff" d="M546.7,-111.59C537.9,-103.93 525.25,-92.91 514.73,-83.75"/>
<polygon fill="#63b8ff" stroke="#63b8ff" points="517.16,-81.22 507.32,-77.29 512.56,-86.5 517.16,-81.22"/>
</a>
</g>
</g>
<!-- Node28 -->
<g id="Node000028" class="node">
<title>Node28</title>
<g id="a_Node000028"><a xlink:title=" ">
<polygon fill="#e0e0e0" stroke="#999999" points="573.25,-76 543.75,-76 543.75,-56 573.25,-56 573.25,-76"/>
<text text-anchor="middle" x="558.5" y="-62.5" font-family="Helvetica,sans-Serif" font-size="10.00">set</text>
</a>
</g>
</g>
<!-- Node27&#45;&gt;Node28 -->
<g id="edge47_Node000027_Node000028" class="edge">
<title>Node27&#45;&gt;Node28</title>
<g id="a_edge47_Node000027_Node000028"><a xlink:title=" ">
<path fill="none" stroke="#63b8ff" d="M557.67,-111.59C557.8,-105.01 557.96,-95.96 558.12,-87.73"/>
<polygon fill="#63b8ff" stroke="#63b8ff" points="561.61,-87.87 558.3,-77.81 554.62,-87.75 561.61,-87.87"/>
</a>
</g>
</g>
<!-- Node29&#45;&gt;Node8 -->
<g id="edge50_Node000029_Node000008" class="edge">
<title>Node29&#45;&gt;Node8</title>
<g id="a_edge50_Node000029_Node000008"><a xlink:title=" ">
<path fill="none" stroke="#63b8ff" d="M1121.67,-167.59C1142.71,-159.05 1174,-146.35 1197.8,-136.68"/>
<polygon fill="#63b8ff" stroke="#63b8ff" points="1198.8,-140.05 1206.75,-133.05 1196.17,-133.57 1198.8,-140.05"/>
</a>
</g>
</g>
<!-- Node30 -->
<g id="Node000030" class="node">
<title>Node30</title>
<g id="a_Node000030"><a xlink:title=" ">
<polygon fill="#e0e0e0" stroke="#999999" points="1145.5,-132 1087.5,-132 1087.5,-112 1145.5,-112 1145.5,-132"/>
<text text-anchor="middle" x="1116.5" y="-118.5" font-family="Helvetica,sans-Serif" font-size="10.00">functional</text>
</a>
</g>
</g>
<!-- Node29&#45;&gt;Node30 -->
<g id="edge51_Node000029_Node000030" class="edge">
<title>Node29&#45;&gt;Node30</title>
<g id="a_edge51_Node000029_Node000030"><a xlink:title=" ">
<path fill="none" stroke="#63b8ff" d="M1101.64,-167.59C1103.88,-160.86 1106.99,-151.53 1109.78,-143.15"/>
<polygon fill="#63b8ff" stroke="#63b8ff" points="1113.08,-144.33 1112.92,-133.73 1106.44,-142.11 1113.08,-144.33"/>
</a>
</g>
</g>
<!-- Node31 -->
<g id="Node000031" class="node">
<title>Node31</title>
<g id="a_Node000031"><a xlink:title=" ">
<polygon fill="#e0e0e0" stroke="#999999" points="1069.9,-132 1041.1,-132 1041.1,-112 1069.9,-112 1069.9,-132"/>
<text text-anchor="middle" x="1055.5" y="-118.5" font-family="Helvetica,sans-Serif" font-size="10.00">list</text>
</a>
</g>
</g>
<!-- Node29&#45;&gt;Node31 -->
<g id="edge52_Node000029_Node000031" class="edge">
<title>Node29&#45;&gt;Node31</title>
<g id="a_edge52_Node000029_Node000031"><a xlink:title=" ">
<path fill="none" stroke="#63b8ff" d="M1091.01,-167.59C1085.21,-160.32 1077.01,-150.02 1069.95,-141.15"/>
<polygon fill="#63b8ff" stroke="#63b8ff" points="1072.81,-139.12 1063.85,-133.48 1067.34,-143.49 1072.81,-139.12"/>
</a>
</g>
</g>
<!-- Node32&#45;&gt;Node4 -->
<g id="edge55_Node000032_Node000004" class="edge">
<title>Node32&#45;&gt;Node4</title>
<g id="a_edge55_Node000032_Node000004"><a xlink:title=" ">
<path fill="none" stroke="#63b8ff" d="M972.31,-280.26C1009.15,-273.49 1056.42,-262.13 1095.5,-244 1133.89,-226.19 1153.3,-225.71 1172.5,-188 1183.81,-165.8 1161.03,-118.89 1154.5,-112 1137.26,-93.81 1111.89,-82.9 1089.09,-76.38"/>
<polygon fill="#63b8ff" stroke="#63b8ff" points="1090.17,-73.05 1079.61,-73.91 1088.41,-79.82 1090.17,-73.05"/>
</a>
</g>
</g>
<!-- Node32&#45;&gt;Node5 -->
<g id="edge56_Node000032_Node000005" class="edge">
<title>Node32&#45;&gt;Node5</title>
<g id="a_edge56_Node000032_Node000005"><a xlink:title=" ">
<path fill="none" stroke="#63b8ff" d="M850.56,-280.96C847.84,-280.63 845.14,-280.31 842.5,-280 613.72,-253.35 532.4,-302.42 332.5,-188 309.62,-174.9 286.99,-154.7 272.25,-140.29"/>
<polygon fill="#63b8ff" stroke="#63b8ff" points="274.77,-137.86 265.22,-133.26 269.81,-142.81 274.77,-137.86"/>
</a>
</g>
</g>
<!-- Node32&#45;&gt;Node15 -->
<g id="edge58_Node000032_Node000015" class="edge">
<title>Node32&#45;&gt;Node15</title>
<g id="a_edge58_Node000032_Node000015"><a xlink:title=" ">
<path fill="none" stroke="#63b8ff" d="M850.7,-280.38C785.42,-270.81 686.13,-255.22 649.5,-244 591.68,-226.29 568.79,-230.22 525.5,-188 498.35,-161.52 494.31,-114.59 494.47,-87.62"/>
<polygon fill="#63b8ff" stroke="#63b8ff" points="497.95,-88.07 494.74,-77.98 490.96,-87.88 497.95,-88.07"/>
</a>
</g>
</g>
<!-- Node32&#45;&gt;Node17 -->
<g id="edge59_Node000032_Node000017" class="edge">
<title>Node32&#45;&gt;Node17</title>
<g id="a_edge59_Node000032_Node000017"><a xlink:title=" ">
<path fill="none" stroke="#63b8ff" d="M873.7,-279.59C837.04,-270.47 781.31,-256.6 741.74,-246.76"/>
<polygon fill="#63b8ff" stroke="#63b8ff" points="742.8,-243.41 732.25,-244.39 741.11,-250.21 742.8,-243.41"/>
</a>
</g>
</g>
<!-- Node32&#45;&gt;Node23 -->
<g id="edge57_Node000032_Node000023" class="edge">
<title>Node32&#45;&gt;Node23</title>
<g id="a_edge57_Node000032_Node000023"><a xlink:title=" ">
<path fill="none" stroke="#63b8ff" d="M921.67,-279.65C950.84,-251.72 1029.98,-167.39 986.5,-112 969.06,-89.77 892.13,-77.11 843.43,-71.19"/>
<polygon fill="#63b8ff" stroke="#63b8ff" points="843.85,-67.71 833.52,-70.03 843.04,-74.67 843.85,-67.71"/>
</a>
</g>
</g>
<!-- Node32&#45;&gt;Node30 -->
<g id="edge54_Node000032_Node000030" class="edge">
<title>Node32&#45;&gt;Node30</title>
<g id="a_edge54_Node000032_Node000030"><a xlink:title=" ">
<path fill="none" stroke="#63b8ff" d="M947.11,-279.56C1009.01,-262.36 1132.19,-224.32 1156.5,-188 1167.24,-171.95 1152.79,-153.11 1138.34,-139.85"/>
<polygon fill="#63b8ff" stroke="#63b8ff" points="1140.62,-137.19 1130.73,-133.38 1136.08,-142.52 1140.62,-137.19"/>
</a>
</g>
</g>
</g>
</svg>
