<?xml version="1.0" encoding="UTF-8" standalone="no"?>
<!DOCTYPE svg PUBLIC "-//W3C//DTD SVG 1.1//EN"
 "http://www.w3.org/Graphics/SVG/1.1/DTD/svg11.dtd">
<!-- Generated by graphviz version 12.1.0 (20240811.2233)
 -->
<!-- Title: ShootingCooldown.hpp Pages: 1 -->
<svg width="300pt" height="196pt"
 viewBox="0.00 0.00 300.38 196.00" xmlns="http://www.w3.org/2000/svg" xmlns:xlink="http://www.w3.org/1999/xlink">
<g id="graph0" class="graph" transform="scale(1 1) rotate(0) translate(4 192)">
<title>ShootingCooldown.hpp</title>
<!-- Node1 -->
<g id="Node000001" class="node">
<title>Node1</title>
<g id="a_Node000001"><a xlink:title=" ">
<polygon fill="#999999" stroke="#666666" points="172.75,-188 56.25,-188 56.25,-168 172.75,-168 172.75,-188"/>
<text text-anchor="middle" x="114.5" y="-174.5" font-family="Helvetica,sans-Serif" font-size="10.00">ShootingCooldown.hpp</text>
</a>
</g>
</g>
<!-- Node2 -->
<g id="Node000002" class="node">
<title>Node2</title>
<g id="a_Node000002"><a xlink:href="NetworkManager_8cpp.html" target="_top" xlink:title=" ">
<polygon fill="white" stroke="#666666" points="109,-132 0,-132 0,-112 109,-112 109,-132"/>
<text text-anchor="middle" x="54.5" y="-118.5" font-family="Helvetica,sans-Serif" font-size="10.00">NetworkManager.cpp</text>
</a>
</g>
</g>
<!-- Node1&#45;&gt;Node2 -->
<g id="edge1_Node000001_Node000002" class="edge">
<title>Node1&#45;&gt;Node2</title>
<g id="a_edge1_Node000001_Node000002"><a xlink:title=" ">
<path fill="none" stroke="#63b8ff" d="M95.75,-160.13C85.55,-150.94 73.31,-139.93 64.83,-132.3"/>
<polygon fill="#63b8ff" stroke="#63b8ff" points="93.15,-162.49 102.92,-166.58 97.83,-157.29 93.15,-162.49"/>
</a>
</g>
</g>
<!-- Node3 -->
<g id="Node000003" class="node">
<title>Node3</title>
<g id="a_Node000003"><a xlink:href="PlayerControl_8hpp.html" target="_top" xlink:title=" ">
<polygon fill="white" stroke="#666666" points="221.5,-132 127.5,-132 127.5,-112 221.5,-112 221.5,-132"/>
<text text-anchor="middle" x="174.5" y="-118.5" font-family="Helvetica,sans-Serif" font-size="10.00">PlayerControl.hpp</text>
</a>
</g>
</g>
<!-- Node1&#45;&gt;Node3 -->
<g id="edge2_Node000001_Node000003" class="edge">
<title>Node1&#45;&gt;Node3</title>
<g id="a_edge2_Node000001_Node000003"><a xlink:title=" ">
<path fill="none" stroke="#63b8ff" d="M133.25,-160.13C143.45,-150.94 155.69,-139.93 164.17,-132.3"/>
<polygon fill="#63b8ff" stroke="#63b8ff" points="131.17,-157.29 126.08,-166.58 135.85,-162.49 131.17,-157.29"/>
</a>
</g>
</g>
<!-- Node4 -->
<g id="Node000004" class="node">
<title>Node4</title>
<g id="a_Node000004"><a xlink:href="GameTypes_8cpp.html" target="_top" xlink:title=" ">
<polygon fill="white" stroke="#666666" points="146.12,-20 58.88,-20 58.88,0 146.12,0 146.12,-20"/>
<text text-anchor="middle" x="102.5" y="-6.5" font-family="Helvetica,sans-Serif" font-size="10.00">GameTypes.cpp</text>
</a>
</g>
</g>
<!-- Node3&#45;&gt;Node4 -->
<g id="edge3_Node000003_Node000004" class="edge">
<title>Node3&#45;&gt;Node4</title>
<g id="a_edge3_Node000003_Node000004"><a xlink:title=" ">
<path fill="none" stroke="#63b8ff" d="M150.08,-105.1C139.95,-97.4 128.87,-87.36 121.5,-76 109.98,-58.25 105.27,-33.32 103.48,-20.09"/>
<polygon fill="#63b8ff" stroke="#63b8ff" points="147.95,-107.88 158.12,-110.85 152.03,-102.19 147.95,-107.88"/>
</a>
</g>
</g>
<!-- Node5 -->
<g id="Node000005" class="node">
<title>Node5</title>
<g id="a_Node000005"><a xlink:href="GameTypes_8hpp.html" target="_top" xlink:title=" ">
<polygon fill="white" stroke="#666666" points="218.12,-76 130.88,-76 130.88,-56 218.12,-56 218.12,-76"/>
<text text-anchor="middle" x="174.5" y="-62.5" font-family="Helvetica,sans-Serif" font-size="10.00">GameTypes.hpp</text>
</a>
</g>
</g>
<!-- Node3&#45;&gt;Node5 -->
<g id="edge4_Node000003_Node000005" class="edge">
<title>Node3&#45;&gt;Node5</title>
<g id="a_edge4_Node000003_Node000005"><a xlink:title=" ">
<path fill="none" stroke="#63b8ff" d="M174.5,-100.13C174.5,-91.9 174.5,-82.85 174.5,-76.3"/>
<polygon fill="#63b8ff" stroke="#63b8ff" points="171,-100.08 174.5,-110.08 178,-100.08 171,-100.08"/>
</a>
</g>
</g>
<!-- Node7 -->
<g id="Node000007" class="node">
<title>Node7</title>
<g id="a_Node000007"><a xlink:href="Server_2src_2main_8cpp.html" target="_top" xlink:title=" ">
<polygon fill="white" stroke="#666666" points="292.38,-76 236.62,-76 236.62,-56 292.38,-56 292.38,-76"/>
<text text-anchor="middle" x="264.5" y="-62.5" font-family="Helvetica,sans-Serif" font-size="10.00">main.cpp</text>
</a>
</g>
</g>
<!-- Node3&#45;&gt;Node7 -->
<g id="edge7_Node000003_Node000007" class="edge">
<title>Node3&#45;&gt;Node7</title>
<g id="a_edge7_Node000003_Node000007"><a xlink:title=" ">
<path fill="none" stroke="#63b8ff" d="M199.81,-105.81C215.51,-96.39 235.2,-84.58 248.7,-76.48"/>
<polygon fill="#63b8ff" stroke="#63b8ff" points="198.25,-102.67 191.47,-110.82 201.85,-108.67 198.25,-102.67"/>
</a>
</g>
</g>
<!-- Node5&#45;&gt;Node4 -->
<g id="edge5_Node000005_Node000004" class="edge">
<title>Node5&#45;&gt;Node4</title>
<g id="a_edge5_Node000005_Node000004"><a xlink:title=" ">
<path fill="none" stroke="#63b8ff" d="M153.11,-48.95C140.65,-39.61 125.39,-28.16 114.9,-20.3"/>
<polygon fill="#63b8ff" stroke="#63b8ff" points="150.65,-51.49 160.75,-54.69 154.85,-45.89 150.65,-51.49"/>
</a>
</g>
</g>
<!-- Node6 -->
<g id="Node000006" class="node">
<title>Node6</title>
<g id="a_Node000006"><a xlink:href="Client_2src_2main_8cpp.html" target="_top" xlink:title=" ">
<polygon fill="white" stroke="#666666" points="220.38,-20 164.62,-20 164.62,0 220.38,0 220.38,-20"/>
<text text-anchor="middle" x="192.5" y="-6.5" font-family="Helvetica,sans-Serif" font-size="10.00">main.cpp</text>
</a>
</g>
</g>
<!-- Node5&#45;&gt;Node6 -->
<g id="edge6_Node000005_Node000006" class="edge">
<title>Node5&#45;&gt;Node6</title>
<g id="a_edge6_Node000005_Node000006"><a xlink:title=" ">
<path fill="none" stroke="#63b8ff" d="M181.26,-44.71C184.06,-36.32 187.16,-27.01 189.4,-20.3"/>
<polygon fill="#63b8ff" stroke="#63b8ff" points="177.96,-43.56 178.11,-54.16 184.6,-45.78 177.96,-43.56"/>
</a>
</g>
</g>
</g>
</svg>
