<?xml version="1.0" encoding="UTF-8" standalone="no"?>
<!DOCTYPE svg PUBLIC "-//W3C//DTD SVG 1.1//EN"
 "http://www.w3.org/Graphics/SVG/1.1/DTD/svg11.dtd">
<!-- Generated by graphviz version 12.1.0 (20240811.2233)
 -->
<!-- Title: ShootingCooldown.hpp Pages: 1 -->
<svg width="436pt" height="252pt"
 viewBox="0.00 0.00 436.25 252.00" xmlns="http://www.w3.org/2000/svg" xmlns:xlink="http://www.w3.org/1999/xlink">
<g id="graph0" class="graph" transform="scale(1 1) rotate(0) translate(4 248)">
<title>ShootingCooldown.hpp</title>
<!-- Node1 -->
<g id="Node000001" class="node">
<title>Node1</title>
<g id="a_Node000001"><a xlink:title=" ">
<polygon fill="#999999" stroke="#666666" points="247.62,-244 131.12,-244 131.12,-224 247.62,-224 247.62,-244"/>
<text text-anchor="middle" x="189.38" y="-230.5" font-family="Helvetica,sans-Serif" font-size="10.00">ShootingCooldown.hpp</text>
</a>
</g>
</g>
<!-- Node2 -->
<g id="Node000002" class="node">
<title>Node2</title>
<g id="a_Node000002"><a xlink:href="DevConsole_8hpp.html" target="_top" xlink:title=" ">
<polygon fill="white" stroke="#666666" points="88.75,-132 0,-132 0,-112 88.75,-112 88.75,-132"/>
<text text-anchor="middle" x="44.38" y="-118.5" font-family="Helvetica,sans-Serif" font-size="10.00">DevConsole.hpp</text>
</a>
</g>
</g>
<!-- Node1&#45;&gt;Node2 -->
<g id="edge1_Node000001_Node000002" class="edge">
<title>Node1&#45;&gt;Node2</title>
<g id="a_edge1_Node000001_Node000002"><a xlink:title=" ">
<path fill="none" stroke="#63b8ff" d="M167.97,-216.76C137.18,-193.4 81.4,-151.09 56.71,-132.35"/>
<polygon fill="#63b8ff" stroke="#63b8ff" points="165.72,-219.45 175.81,-222.71 169.95,-213.87 165.72,-219.45"/>
</a>
</g>
</g>
<!-- Node6 -->
<g id="Node000006" class="node">
<title>Node6</title>
<g id="a_Node000006"><a xlink:href="NetworkManager_8cpp.html" target="_top" xlink:title=" ">
<polygon fill="white" stroke="#666666" points="363.88,-188 254.88,-188 254.88,-168 363.88,-168 363.88,-188"/>
<text text-anchor="middle" x="309.38" y="-174.5" font-family="Helvetica,sans-Serif" font-size="10.00">NetworkManager.cpp</text>
</a>
</g>
</g>
<!-- Node1&#45;&gt;Node6 -->
<g id="edge6_Node000001_Node000006" class="edge">
<title>Node1&#45;&gt;Node6</title>
<g id="a_edge6_Node000001_Node000006"><a xlink:title=" ">
<path fill="none" stroke="#63b8ff" d="M220.76,-218.88C242.05,-209.3 269.62,-196.89 288.31,-188.48"/>
<polygon fill="#63b8ff" stroke="#63b8ff" points="219.34,-215.68 211.66,-222.97 222.21,-222.06 219.34,-215.68"/>
</a>
</g>
</g>
<!-- Node7 -->
<g id="Node000007" class="node">
<title>Node7</title>
<g id="a_Node000007"><a xlink:href="PlayerControl_8hpp.html" target="_top" xlink:title=" ">
<polygon fill="white" stroke="#666666" points="236.38,-188 142.38,-188 142.38,-168 236.38,-168 236.38,-188"/>
<text text-anchor="middle" x="189.38" y="-174.5" font-family="Helvetica,sans-Serif" font-size="10.00">PlayerControl.hpp</text>
</a>
</g>
</g>
<!-- Node1&#45;&gt;Node7 -->
<g id="edge7_Node000001_Node000007" class="edge">
<title>Node1&#45;&gt;Node7</title>
<g id="a_edge7_Node000001_Node000007"><a xlink:title=" ">
<path fill="none" stroke="#63b8ff" d="M189.38,-212.13C189.38,-203.9 189.38,-194.85 189.38,-188.3"/>
<polygon fill="#63b8ff" stroke="#63b8ff" points="185.88,-212.08 189.38,-222.08 192.88,-212.08 185.88,-212.08"/>
</a>
</g>
</g>
<!-- Node3 -->
<g id="Node000003" class="node">
<title>Node3</title>
<g id="a_Node000003"><a xlink:href="GameTypes_8cpp.html" target="_top" xlink:title=" ">
<polygon fill="white" stroke="#666666" points="233,-20 145.75,-20 145.75,0 233,0 233,-20"/>
<text text-anchor="middle" x="189.38" y="-6.5" font-family="Helvetica,sans-Serif" font-size="10.00">GameTypes.cpp</text>
</a>
</g>
</g>
<!-- Node2&#45;&gt;Node3 -->
<g id="edge2_Node000002_Node000003" class="edge">
<title>Node2&#45;&gt;Node3</title>
<g id="a_edge2_Node000002_Node000003"><a xlink:title=" ">
<path fill="none" stroke="#63b8ff" d="M45.56,-100.66C47.41,-86.49 52.02,-68.04 63.38,-56 75.69,-42.95 119.03,-29.26 151.47,-20.46"/>
<polygon fill="#63b8ff" stroke="#63b8ff" points="42.11,-99.96 44.68,-110.24 49.08,-100.6 42.11,-99.96"/>
</a>
</g>
</g>
<!-- Node4 -->
<g id="Node000004" class="node">
<title>Node4</title>
<g id="a_Node000004"><a xlink:href="GameTypes_8hpp.html" target="_top" xlink:title=" ">
<polygon fill="white" stroke="#666666" points="160,-76 72.75,-76 72.75,-56 160,-56 160,-76"/>
<text text-anchor="middle" x="116.38" y="-62.5" font-family="Helvetica,sans-Serif" font-size="10.00">GameTypes.hpp</text>
</a>
</g>
</g>
<!-- Node2&#45;&gt;Node4 -->
<g id="edge3_Node000002_Node000004" class="edge">
<title>Node2&#45;&gt;Node4</title>
<g id="a_edge3_Node000002_Node000004"><a xlink:title=" ">
<path fill="none" stroke="#63b8ff" d="M65.77,-104.95C78.22,-95.61 93.49,-84.16 103.98,-76.3"/>
<polygon fill="#63b8ff" stroke="#63b8ff" points="64.03,-101.89 58.13,-110.69 68.23,-107.49 64.03,-101.89"/>
</a>
</g>
</g>
<!-- Node4&#45;&gt;Node3 -->
<g id="edge4_Node000004_Node000003" class="edge">
<title>Node4&#45;&gt;Node3</title>
<g id="a_edge4_Node000004_Node000003"><a xlink:title=" ">
<path fill="none" stroke="#63b8ff" d="M138.07,-48.95C150.69,-39.61 166.17,-28.16 176.81,-20.3"/>
<polygon fill="#63b8ff" stroke="#63b8ff" points="136.27,-45.93 130.31,-54.69 140.43,-51.56 136.27,-45.93"/>
</a>
</g>
</g>
<!-- Node5 -->
<g id="Node000005" class="node">
<title>Node5</title>
<g id="a_Node000005"><a xlink:href="Client_2src_2main_8cpp.html" target="_top" xlink:title=" ">
<polygon fill="white" stroke="#666666" points="127.25,-20 71.5,-20 71.5,0 127.25,0 127.25,-20"/>
<text text-anchor="middle" x="99.38" y="-6.5" font-family="Helvetica,sans-Serif" font-size="10.00">main.cpp</text>
</a>
</g>
</g>
<!-- Node4&#45;&gt;Node5 -->
<g id="edge5_Node000004_Node000005" class="edge">
<title>Node4&#45;&gt;Node5</title>
<g id="a_edge5_Node000004_Node000005"><a xlink:title=" ">
<path fill="none" stroke="#63b8ff" d="M109.99,-44.71C107.35,-36.32 104.41,-27.01 102.3,-20.3"/>
<polygon fill="#63b8ff" stroke="#63b8ff" points="106.62,-45.66 112.96,-54.15 113.29,-43.56 106.62,-45.66"/>
</a>
</g>
</g>
<!-- Node7&#45;&gt;Node3 -->
<g id="edge8_Node000007_Node000003" class="edge">
<title>Node7&#45;&gt;Node3</title>
<g id="a_edge8_Node000007_Node000003"><a xlink:title=" ">
<path fill="none" stroke="#63b8ff" d="M217.16,-161.16C227.38,-153.74 237.8,-143.89 243.38,-132 247.15,-123.95 245.54,-120.62 243.38,-112 234.19,-75.35 208.9,-37.47 196.46,-20.37"/>
<polygon fill="#63b8ff" stroke="#63b8ff" points="215.24,-158.23 208.85,-166.68 219.12,-164.06 215.24,-158.23"/>
</a>
</g>
</g>
<!-- Node7&#45;&gt;Node4 -->
<g id="edge9_Node000007_Node000004" class="edge">
<title>Node7&#45;&gt;Node4</title>
<g id="a_edge9_Node000007_Node000004"><a xlink:title=" ">
<path fill="none" stroke="#63b8ff" d="M164.81,-161.42C154.41,-153.71 142.96,-143.57 135.38,-132 123.77,-114.3 119.09,-89.36 117.34,-76.11"/>
<polygon fill="#63b8ff" stroke="#63b8ff" points="162.49,-164.07 172.7,-166.93 166.5,-158.33 162.49,-164.07"/>
</a>
</g>
</g>
<!-- Node8 -->
<g id="Node000008" class="node">
<title>Node8</title>
<g id="a_Node000008"><a xlink:href="Server_8hpp.html" target="_top" xlink:title=" ">
<polygon fill="white" stroke="#666666" points="354,-132 290.75,-132 290.75,-112 354,-112 354,-132"/>
<text text-anchor="middle" x="322.38" y="-118.5" font-family="Helvetica,sans-Serif" font-size="10.00">Server.hpp</text>
</a>
</g>
</g>
<!-- Node7&#45;&gt;Node8 -->
<g id="edge10_Node000007_Node000008" class="edge">
<title>Node7&#45;&gt;Node8</title>
<g id="a_edge10_Node000007_Node000008"><a xlink:title=" ">
<path fill="none" stroke="#63b8ff" d="M223.19,-163.27C246.91,-153.64 278.02,-141.01 299.03,-132.48"/>
<polygon fill="#63b8ff" stroke="#63b8ff" points="221.89,-160.02 213.94,-167.02 224.53,-166.51 221.89,-160.02"/>
</a>
</g>
</g>
<!-- Node11 -->
<g id="Node000011" class="node">
<title>Node11</title>
<g id="a_Node000011"><a xlink:href="SoundPlayer_8hpp.html" target="_top" xlink:title=" ">
<polygon fill="white" stroke="#666666" points="234.5,-132 144.25,-132 144.25,-112 234.5,-112 234.5,-132"/>
<text text-anchor="middle" x="189.38" y="-118.5" font-family="Helvetica,sans-Serif" font-size="10.00">SoundPlayer.hpp</text>
</a>
</g>
</g>
<!-- Node7&#45;&gt;Node11 -->
<g id="edge13_Node000007_Node000011" class="edge">
<title>Node7&#45;&gt;Node11</title>
<g id="a_edge13_Node000007_Node000011"><a xlink:title=" ">
<path fill="none" stroke="#63b8ff" d="M189.38,-156.13C189.38,-147.9 189.38,-138.85 189.38,-132.3"/>
<polygon fill="#63b8ff" stroke="#63b8ff" points="185.88,-156.08 189.38,-166.08 192.88,-156.08 185.88,-156.08"/>
</a>
</g>
</g>
<!-- Node9 -->
<g id="Node000009" class="node">
<title>Node9</title>
<g id="a_Node000009"><a xlink:href="Server_8cpp.html" target="_top" xlink:title=" ">
<polygon fill="white" stroke="#666666" points="354,-76 290.75,-76 290.75,-56 354,-56 354,-76"/>
<text text-anchor="middle" x="322.38" y="-62.5" font-family="Helvetica,sans-Serif" font-size="10.00">Server.cpp</text>
</a>
</g>
</g>
<!-- Node8&#45;&gt;Node9 -->
<g id="edge11_Node000008_Node000009" class="edge">
<title>Node8&#45;&gt;Node9</title>
<g id="a_edge11_Node000008_Node000009"><a xlink:title=" ">
<path fill="none" stroke="#63b8ff" d="M322.38,-100.13C322.38,-91.9 322.38,-82.85 322.38,-76.3"/>
<polygon fill="#63b8ff" stroke="#63b8ff" points="318.88,-100.08 322.38,-110.08 325.88,-100.08 318.88,-100.08"/>
</a>
</g>
</g>
<!-- Node10 -->
<g id="Node000010" class="node">
<title>Node10</title>
<g id="a_Node000010"><a xlink:href="Server_2src_2main_8cpp.html" target="_top" xlink:title=" ">
<polygon fill="white" stroke="#666666" points="428.25,-76 372.5,-76 372.5,-56 428.25,-56 428.25,-76"/>
<text text-anchor="middle" x="400.38" y="-62.5" font-family="Helvetica,sans-Serif" font-size="10.00">main.cpp</text>
</a>
</g>
</g>
<!-- Node8&#45;&gt;Node10 -->
<g id="edge12_Node000008_Node000010" class="edge">
<title>Node8&#45;&gt;Node10</title>
<g id="a_edge12_Node000008_Node000010"><a xlink:title=" ">
<path fill="none" stroke="#63b8ff" d="M345.09,-105.27C358.57,-95.94 375.2,-84.43 386.68,-76.48"/>
<polygon fill="#63b8ff" stroke="#63b8ff" points="343.44,-102.16 337.21,-110.73 347.42,-107.92 343.44,-102.16"/>
</a>
</g>
</g>
<!-- Node11&#45;&gt;Node3 -->
<g id="edge14_Node000011_Node000003" class="edge">
<title>Node11&#45;&gt;Node3</title>
<g id="a_edge14_Node000011_Node000003"><a xlink:title=" ">
<path fill="none" stroke="#63b8ff" d="M189.38,-100.31C189.38,-76.36 189.38,-37.95 189.38,-20.35"/>
<polygon fill="#63b8ff" stroke="#63b8ff" points="185.88,-100.11 189.38,-110.11 192.88,-100.11 185.88,-100.11"/>
</a>
</g>
</g>
<!-- Node11&#45;&gt;Node4 -->
<g id="edge15_Node000011_Node000004" class="edge">
<title>Node11&#45;&gt;Node4</title>
<g id="a_edge15_Node000011_Node000004"><a xlink:title=" ">
<path fill="none" stroke="#63b8ff" d="M167.68,-104.95C155.06,-95.61 139.58,-84.16 128.94,-76.3"/>
<polygon fill="#63b8ff" stroke="#63b8ff" points="165.32,-107.56 175.44,-110.69 169.48,-101.93 165.32,-107.56"/>
</a>
</g>
</g>
</g>
</svg>
