<?xml version="1.0" encoding="UTF-8" standalone="no"?>
<!DOCTYPE svg PUBLIC "-//W3C//DTD SVG 1.1//EN"
 "http://www.w3.org/Graphics/SVG/1.1/DTD/svg11.dtd">
<!-- Generated by graphviz version 12.1.0 (20240811.2233)
 -->
<!-- Title: Sound.hpp Pages: 1 -->
<svg width="447pt" height="196pt"
 viewBox="0.00 0.00 447.25 196.00" xmlns="http://www.w3.org/2000/svg" xmlns:xlink="http://www.w3.org/1999/xlink">
<g id="graph0" class="graph" transform="scale(1 1) rotate(0) translate(4 192)">
<title>Sound.hpp</title>
<!-- Node1 -->
<g id="Node000001" class="node">
<title>Node1</title>
<g id="a_Node000001"><a xlink:title=" ">
<polygon fill="#999999" stroke="#666666" points="216.88,-188 154.38,-188 154.38,-168 216.88,-168 216.88,-188"/>
<text text-anchor="middle" x="185.62" y="-174.5" font-family="Helvetica,sans-Serif" font-size="10.00">Sound.hpp</text>
</a>
</g>
</g>
<!-- Node2 -->
<g id="Node000002" class="node">
<title>Node2</title>
<g id="a_Node000002"><a xlink:href="DevConsole_8hpp.html" target="_top" xlink:title=" ">
<polygon fill="white" stroke="#666666" points="122,-132 33.25,-132 33.25,-112 122,-112 122,-132"/>
<text text-anchor="middle" x="77.62" y="-118.5" font-family="Helvetica,sans-Serif" font-size="10.00">DevConsole.hpp</text>
</a>
</g>
</g>
<!-- Node1&#45;&gt;Node2 -->
<g id="edge1_Node000001_Node000002" class="edge">
<title>Node1&#45;&gt;Node2</title>
<g id="a_edge1_Node000001_Node000002"><a xlink:title=" ">
<path fill="none" stroke="#63b8ff" d="M156.59,-162.48C137.54,-152.96 113.18,-140.78 96.58,-132.48"/>
<polygon fill="#63b8ff" stroke="#63b8ff" points="154.95,-165.58 165.46,-166.92 158.08,-159.31 154.95,-165.58"/>
</a>
</g>
</g>
<!-- Node3 -->
<g id="Node000003" class="node">
<title>Node3</title>
<g id="a_Node000003"><a xlink:href="GameTypes_8cpp.html" target="_top" xlink:title=" ">
<polygon fill="white" stroke="#666666" points="87.25,-20 0,-20 0,0 87.25,0 87.25,-20"/>
<text text-anchor="middle" x="43.62" y="-6.5" font-family="Helvetica,sans-Serif" font-size="10.00">GameTypes.cpp</text>
</a>
</g>
</g>
<!-- Node1&#45;&gt;Node3 -->
<g id="edge6_Node000001_Node000003" class="edge">
<title>Node1&#45;&gt;Node3</title>
<g id="a_edge6_Node000001_Node000003"><a xlink:title=" ">
<path fill="none" stroke="#63b8ff" d="M142.66,-170.91C99.98,-163.87 38.89,-150.8 24.62,-132 -1.34,-97.78 25.5,-42.23 37.98,-20.31"/>
<polygon fill="#63b8ff" stroke="#63b8ff" points="141.97,-174.34 152.39,-172.45 143.06,-167.43 141.97,-174.34"/>
</a>
</g>
</g>
<!-- Node6 -->
<g id="Node000006" class="node">
<title>Node6</title>
<g id="a_Node000006"><a xlink:href="NetworkManager_8cpp.html" target="_top" xlink:title=" ">
<polygon fill="white" stroke="#666666" points="358.12,-132 249.12,-132 249.12,-112 358.12,-112 358.12,-132"/>
<text text-anchor="middle" x="303.62" y="-118.5" font-family="Helvetica,sans-Serif" font-size="10.00">NetworkManager.cpp</text>
</a>
</g>
</g>
<!-- Node1&#45;&gt;Node6 -->
<g id="edge7_Node000001_Node000006" class="edge">
<title>Node1&#45;&gt;Node6</title>
<g id="a_edge7_Node000001_Node000006"><a xlink:title=" ">
<path fill="none" stroke="#63b8ff" d="M216.49,-162.88C237.42,-153.3 264.53,-140.89 282.91,-132.48"/>
<polygon fill="#63b8ff" stroke="#63b8ff" points="215.19,-159.62 207.56,-166.96 218.1,-165.99 215.19,-159.62"/>
</a>
</g>
</g>
<!-- Node7 -->
<g id="Node000007" class="node">
<title>Node7</title>
<g id="a_Node000007"><a xlink:href="Server_8cpp.html" target="_top" xlink:title=" ">
<polygon fill="white" stroke="#666666" points="439.25,-132 376,-132 376,-112 439.25,-112 439.25,-132"/>
<text text-anchor="middle" x="407.62" y="-118.5" font-family="Helvetica,sans-Serif" font-size="10.00">Server.cpp</text>
</a>
</g>
</g>
<!-- Node1&#45;&gt;Node7 -->
<g id="edge8_Node000001_Node000007" class="edge">
<title>Node1&#45;&gt;Node7</title>
<g id="a_edge8_Node000001_Node000007"><a xlink:title=" ">
<path fill="none" stroke="#63b8ff" d="M227.93,-166.71C271.01,-156.23 336.85,-140.22 375.73,-130.76"/>
<polygon fill="#63b8ff" stroke="#63b8ff" points="227.32,-163.26 218.43,-169.02 228.98,-170.06 227.32,-163.26"/>
</a>
</g>
</g>
<!-- Node8 -->
<g id="Node000008" class="node">
<title>Node8</title>
<g id="a_Node000008"><a xlink:href="SoundPlayer_8hpp.html" target="_top" xlink:title=" ">
<polygon fill="white" stroke="#666666" points="230.75,-132 140.5,-132 140.5,-112 230.75,-112 230.75,-132"/>
<text text-anchor="middle" x="185.62" y="-118.5" font-family="Helvetica,sans-Serif" font-size="10.00">SoundPlayer.hpp</text>
</a>
</g>
</g>
<!-- Node1&#45;&gt;Node8 -->
<g id="edge9_Node000001_Node000008" class="edge">
<title>Node1&#45;&gt;Node8</title>
<g id="a_edge9_Node000001_Node000008"><a xlink:title=" ">
<path fill="none" stroke="#63b8ff" d="M185.62,-156.13C185.62,-147.9 185.62,-138.85 185.62,-132.3"/>
<polygon fill="#63b8ff" stroke="#63b8ff" points="182.13,-156.08 185.63,-166.08 189.13,-156.08 182.13,-156.08"/>
</a>
</g>
</g>
<!-- Node2&#45;&gt;Node3 -->
<g id="edge2_Node000002_Node000003" class="edge">
<title>Node2&#45;&gt;Node3</title>
<g id="a_edge2_Node000002_Node000003"><a xlink:title=" ">
<path fill="none" stroke="#63b8ff" d="M70.81,-101.1C68.19,-93.29 65.2,-84.25 62.62,-76 56.45,-56.25 49.78,-32.93 46.22,-20.29"/>
<polygon fill="#63b8ff" stroke="#63b8ff" points="67.41,-101.95 73.93,-110.29 74.03,-99.7 67.41,-101.95"/>
</a>
</g>
</g>
<!-- Node4 -->
<g id="Node000004" class="node">
<title>Node4</title>
<g id="a_Node000004"><a xlink:href="GameTypes_8hpp.html" target="_top" xlink:title=" ">
<polygon fill="white" stroke="#666666" points="159.25,-76 72,-76 72,-56 159.25,-56 159.25,-76"/>
<text text-anchor="middle" x="115.62" y="-62.5" font-family="Helvetica,sans-Serif" font-size="10.00">GameTypes.hpp</text>
</a>
</g>
</g>
<!-- Node2&#45;&gt;Node4 -->
<g id="edge3_Node000002_Node000004" class="edge">
<title>Node2&#45;&gt;Node4</title>
<g id="a_edge3_Node000002_Node000004"><a xlink:title=" ">
<path fill="none" stroke="#63b8ff" d="M90.69,-102.44C96.89,-93.62 104.04,-83.47 109.08,-76.3"/>
<polygon fill="#63b8ff" stroke="#63b8ff" points="88.01,-100.16 85.12,-110.36 93.73,-104.19 88.01,-100.16"/>
</a>
</g>
</g>
<!-- Node4&#45;&gt;Node3 -->
<g id="edge4_Node000004_Node000003" class="edge">
<title>Node4&#45;&gt;Node3</title>
<g id="a_edge4_Node000004_Node000003"><a xlink:title=" ">
<path fill="none" stroke="#63b8ff" d="M94.23,-48.95C81.78,-39.61 66.51,-28.16 56.02,-20.3"/>
<polygon fill="#63b8ff" stroke="#63b8ff" points="91.77,-51.49 101.87,-54.69 95.97,-45.89 91.77,-51.49"/>
</a>
</g>
</g>
<!-- Node5 -->
<g id="Node000005" class="node">
<title>Node5</title>
<g id="a_Node000005"><a xlink:href="Client_2src_2main_8cpp.html" target="_top" xlink:title=" ">
<polygon fill="white" stroke="#666666" points="161.5,-20 105.75,-20 105.75,0 161.5,0 161.5,-20"/>
<text text-anchor="middle" x="133.62" y="-6.5" font-family="Helvetica,sans-Serif" font-size="10.00">main.cpp</text>
</a>
</g>
</g>
<!-- Node4&#45;&gt;Node5 -->
<g id="edge5_Node000004_Node000005" class="edge">
<title>Node4&#45;&gt;Node5</title>
<g id="a_edge5_Node000004_Node000005"><a xlink:title=" ">
<path fill="none" stroke="#63b8ff" d="M122.39,-44.71C125.18,-36.32 128.29,-27.01 130.53,-20.3"/>
<polygon fill="#63b8ff" stroke="#63b8ff" points="119.08,-43.56 119.24,-54.16 125.72,-45.78 119.08,-43.56"/>
</a>
</g>
</g>
<!-- Node8&#45;&gt;Node3 -->
<g id="edge10_Node000008_Node000003" class="edge">
<title>Node8&#45;&gt;Node3</title>
<g id="a_edge10_Node000008_Node000003"><a xlink:title=" ">
<path fill="none" stroke="#63b8ff" d="M185.08,-100.28C183.66,-86.19 179.59,-68 168.62,-56 156.64,-42.89 113.84,-29.27 81.64,-20.5"/>
<polygon fill="#63b8ff" stroke="#63b8ff" points="181.59,-100.49 185.68,-110.26 188.58,-100.07 181.59,-100.49"/>
</a>
</g>
</g>
<!-- Node8&#45;&gt;Node4 -->
<g id="edge11_Node000008_Node000004" class="edge">
<title>Node8&#45;&gt;Node4</title>
<g id="a_edge11_Node000008_Node000004"><a xlink:title=" ">
<path fill="none" stroke="#63b8ff" d="M164.47,-104.68C152.43,-95.39 137.77,-84.09 127.68,-76.3"/>
<polygon fill="#63b8ff" stroke="#63b8ff" points="162.18,-107.33 172.23,-110.67 166.45,-101.79 162.18,-107.33"/>
</a>
</g>
</g>
</g>
</svg>
