<?xml version="1.0" encoding="UTF-8" standalone="no"?>
<!DOCTYPE svg PUBLIC "-//W3C//DTD SVG 1.1//EN"
 "http://www.w3.org/Graphics/SVG/1.1/DTD/svg11.dtd">
<!-- Generated by graphviz version 12.1.0 (20240811.2233)
 -->
<!-- Title: Sprite.hpp Pages: 1 -->
<svg width="290pt" height="140pt"
 viewBox="0.00 0.00 290.00 140.00" xmlns="http://www.w3.org/2000/svg" xmlns:xlink="http://www.w3.org/1999/xlink">
<g id="graph0" class="graph" transform="scale(1 1) rotate(0) translate(4 136)">
<title>Sprite.hpp</title>
<!-- Node1 -->
<g id="Node000001" class="node">
<title>Node1</title>
<g id="a_Node000001"><a xlink:title=" ">
<polygon fill="#999999" stroke="#666666" points="157,-132 96.75,-132 96.75,-112 157,-112 157,-132"/>
<text text-anchor="middle" x="126.88" y="-118.5" font-family="Helvetica,sans-Serif" font-size="10.00">Sprite.hpp</text>
</a>
</g>
</g>
<!-- Node2 -->
<g id="Node000002" class="node">
<title>Node2</title>
<g id="a_Node000002"><a xlink:title=" ">
<polygon fill="#e0e0e0" stroke="#999999" points="37.75,-20 0,-20 0,0 37.75,0 37.75,-20"/>
<text text-anchor="middle" x="18.88" y="-6.5" font-family="Helvetica,sans-Serif" font-size="10.00">array</text>
</a>
</g>
</g>
<!-- Node1&#45;&gt;Node2 -->
<g id="edge1_Node000001_Node000002" class="edge">
<title>Node1&#45;&gt;Node2</title>
<g id="a_edge1_Node000001_Node000002"><a xlink:title=" ">
<path fill="none" stroke="#63b8ff" d="M117.01,-111.84C107.39,-102.85 92.43,-88.68 79.88,-76 64.3,-60.27 47.1,-41.83 34.94,-28.62"/>
<polygon fill="#63b8ff" stroke="#63b8ff" points="37.77,-26.53 28.43,-21.52 32.61,-31.26 37.77,-26.53"/>
</a>
</g>
</g>
<!-- Node3 -->
<g id="Node000003" class="node">
<title>Node3</title>
<g id="a_Node000003"><a xlink:title=" ">
<polygon fill="#e0e0e0" stroke="#999999" points="215.38,-76 172.38,-76 172.38,-56 215.38,-56 215.38,-76"/>
<text text-anchor="middle" x="193.88" y="-62.5" font-family="Helvetica,sans-Serif" font-size="10.00">vector</text>
</a>
</g>
</g>
<!-- Node1&#45;&gt;Node3 -->
<g id="edge2_Node000001_Node000003" class="edge">
<title>Node1&#45;&gt;Node3</title>
<g id="a_edge2_Node000001_Node000003"><a xlink:title=" ">
<path fill="none" stroke="#63b8ff" d="M138.55,-111.59C148.15,-103.85 162,-92.69 173.44,-83.47"/>
<polygon fill="#63b8ff" stroke="#63b8ff" points="175.57,-86.25 181.16,-77.25 171.18,-80.8 175.57,-86.25"/>
</a>
</g>
</g>
<!-- Node4 -->
<g id="Node000004" class="node">
<title>Node4</title>
<g id="a_Node000004"><a xlink:title=" ">
<polygon fill="#e0e0e0" stroke="#999999" points="282,-76 233.75,-76 233.75,-56 282,-56 282,-76"/>
<text text-anchor="middle" x="257.88" y="-62.5" font-family="Helvetica,sans-Serif" font-size="10.00">cstddef</text>
</a>
</g>
</g>
<!-- Node1&#45;&gt;Node4 -->
<g id="edge3_Node000001_Node000004" class="edge">
<title>Node1&#45;&gt;Node4</title>
<g id="a_edge3_Node000001_Node000004"><a xlink:title=" ">
<path fill="none" stroke="#63b8ff" d="M149.69,-111.59C170.32,-103.09 200.96,-90.46 224.37,-80.81"/>
<polygon fill="#63b8ff" stroke="#63b8ff" points="225.57,-84.1 233.48,-77.06 222.9,-77.63 225.57,-84.1"/>
</a>
</g>
</g>
<!-- Node5 -->
<g id="Node000005" class="node">
<title>Node5</title>
<g id="a_Node000005"><a xlink:title=" ">
<polygon fill="#e0e0e0" stroke="#999999" points="95.88,-20 55.88,-20 55.88,0 95.88,0 95.88,-20"/>
<text text-anchor="middle" x="75.88" y="-6.5" font-family="Helvetica,sans-Serif" font-size="10.00">string</text>
</a>
</g>
</g>
<!-- Node1&#45;&gt;Node5 -->
<g id="edge4_Node000001_Node000005" class="edge">
<title>Node1&#45;&gt;Node5</title>
<g id="a_edge4_Node000001_Node000005"><a xlink:title=" ">
<path fill="none" stroke="#63b8ff" d="M117.16,-111.53C108.95,-102.99 97.5,-89.69 90.88,-76 84.07,-61.94 80.27,-44.65 78.2,-31.44"/>
<polygon fill="#63b8ff" stroke="#63b8ff" points="81.7,-31.2 76.9,-21.76 74.76,-32.13 81.7,-31.2"/>
</a>
</g>
</g>
<!-- Node6 -->
<g id="Node000006" class="node">
<title>Node6</title>
<g id="a_Node000006"><a xlink:href="Utils_8hpp.html" target="_top" xlink:title=" ">
<polygon fill="white" stroke="#666666" points="154.38,-76 99.38,-76 99.38,-56 154.38,-56 154.38,-76"/>
<text text-anchor="middle" x="126.88" y="-62.5" font-family="Helvetica,sans-Serif" font-size="10.00">Utils.hpp</text>
</a>
</g>
</g>
<!-- Node1&#45;&gt;Node6 -->
<g id="edge5_Node000001_Node000006" class="edge">
<title>Node1&#45;&gt;Node6</title>
<g id="a_edge5_Node000001_Node000006"><a xlink:title=" ">
<path fill="none" stroke="#63b8ff" d="M126.88,-111.59C126.88,-105.01 126.88,-95.96 126.88,-87.73"/>
<polygon fill="#63b8ff" stroke="#63b8ff" points="130.38,-87.81 126.88,-77.81 123.38,-87.81 130.38,-87.81"/>
</a>
</g>
</g>
<!-- Node6&#45;&gt;Node2 -->
<g id="edge9_Node000006_Node000002" class="edge">
<title>Node6&#45;&gt;Node2</title>
<g id="a_edge9_Node000006_Node000002"><a xlink:title=" ">
<path fill="none" stroke="#63b8ff" d="M108.06,-55.59C91.52,-47.32 67.16,-35.14 48.08,-25.6"/>
<polygon fill="#63b8ff" stroke="#63b8ff" points="49.7,-22.5 39.19,-21.16 46.57,-28.76 49.7,-22.5"/>
</a>
</g>
</g>
<!-- Node6&#45;&gt;Node5 -->
<g id="edge7_Node000006_Node000005" class="edge">
<title>Node6&#45;&gt;Node5</title>
<g id="a_edge7_Node000006_Node000005"><a xlink:title=" ">
<path fill="none" stroke="#63b8ff" d="M117.99,-55.59C110.97,-48.16 100.97,-37.58 92.48,-28.58"/>
<polygon fill="#63b8ff" stroke="#63b8ff" points="95.11,-26.27 85.7,-21.4 90.02,-31.07 95.11,-26.27"/>
</a>
</g>
</g>
<!-- Node7 -->
<g id="Node000007" class="node">
<title>Node7</title>
<g id="a_Node000007"><a xlink:title=" ">
<polygon fill="#e0e0e0" stroke="#999999" points="159.5,-20 114.25,-20 114.25,0 159.5,0 159.5,-20"/>
<text text-anchor="middle" x="136.88" y="-6.5" font-family="Helvetica,sans-Serif" font-size="10.00">cstdint</text>
</a>
</g>
</g>
<!-- Node6&#45;&gt;Node7 -->
<g id="edge6_Node000006_Node000007" class="edge">
<title>Node6&#45;&gt;Node7</title>
<g id="a_edge6_Node000006_Node000007"><a xlink:title=" ">
<path fill="none" stroke="#63b8ff" d="M128.62,-55.59C129.85,-48.93 131.55,-39.75 133.09,-31.44"/>
<polygon fill="#63b8ff" stroke="#63b8ff" points="136.5,-32.26 134.88,-21.79 129.62,-30.98 136.5,-32.26"/>
</a>
</g>
</g>
<!-- Node8 -->
<g id="Node000008" class="node">
<title>Node8</title>
<g id="a_Node000008"><a xlink:title=" ">
<polygon fill="#e0e0e0" stroke="#999999" points="228.5,-20 177.25,-20 177.25,0 228.5,0 228.5,-20"/>
<text text-anchor="middle" x="202.88" y="-6.5" font-family="Helvetica,sans-Serif" font-size="10.00">ostream</text>
</a>
</g>
</g>
<!-- Node6&#45;&gt;Node8 -->
<g id="edge8_Node000006_Node000008" class="edge">
<title>Node6&#45;&gt;Node8</title>
<g id="a_edge8_Node000006_Node000008"><a xlink:title=" ">
<path fill="none" stroke="#63b8ff" d="M140.11,-55.59C151.16,-47.74 167.16,-36.38 180.23,-27.09"/>
<polygon fill="#63b8ff" stroke="#63b8ff" points="182.18,-30 188.3,-21.36 178.12,-24.3 182.18,-30"/>
</a>
</g>
</g>
</g>
</svg>
