<?xml version="1.0" encoding="UTF-8" standalone="no"?>
<!DOCTYPE svg PUBLIC "-//W3C//DTD SVG 1.1//EN"
 "http://www.w3.org/Graphics/SVG/1.1/DTD/svg11.dtd">
<!-- Generated by graphviz version 12.1.0 (20240811.2233)
 -->
<!-- Title: Sprite.hpp Pages: 1 -->
<svg width="613pt" height="252pt"
 viewBox="0.00 0.00 612.88 252.00" xmlns="http://www.w3.org/2000/svg" xmlns:xlink="http://www.w3.org/1999/xlink">
<g id="graph0" class="graph" transform="scale(1 1) rotate(0) translate(4 248)">
<title>Sprite.hpp</title>
<!-- Node1 -->
<g id="Node000001" class="node">
<title>Node1</title>
<g id="a_Node000001"><a xlink:title=" ">
<polygon fill="#999999" stroke="#666666" points="340.5,-244 280.25,-244 280.25,-224 340.5,-224 340.5,-244"/>
<text text-anchor="middle" x="310.38" y="-230.5" font-family="Helvetica,sans-Serif" font-size="10.00">Sprite.hpp</text>
</a>
</g>
</g>
<!-- Node2 -->
<g id="Node000002" class="node">
<title>Node2</title>
<g id="a_Node000002"><a xlink:href="DevConsole_8hpp.html" target="_top" xlink:title=" ">
<polygon fill="white" stroke="#666666" points="88.75,-132 0,-132 0,-112 88.75,-112 88.75,-132"/>
<text text-anchor="middle" x="44.38" y="-118.5" font-family="Helvetica,sans-Serif" font-size="10.00">DevConsole.hpp</text>
</a>
</g>
</g>
<!-- Node1&#45;&gt;Node2 -->
<g id="edge1_Node000001_Node000002" class="edge">
<title>Node1&#45;&gt;Node2</title>
<g id="a_edge1_Node000001_Node000002"><a xlink:title=" ">
<path fill="none" stroke="#63b8ff" d="M277.14,-219.26C222.23,-196.55 113.96,-151.78 67,-132.35"/>
<polygon fill="#63b8ff" stroke="#63b8ff" points="275.72,-222.46 286.3,-223.04 278.39,-215.99 275.72,-222.46"/>
</a>
</g>
</g>
<!-- Node6 -->
<g id="Node000006" class="node">
<title>Node6</title>
<g id="a_Node000006"><a xlink:href="NetworkManager_8cpp.html" target="_top" xlink:title=" ">
<polygon fill="white" stroke="#666666" points="604.88,-188 495.88,-188 495.88,-168 604.88,-168 604.88,-188"/>
<text text-anchor="middle" x="550.38" y="-174.5" font-family="Helvetica,sans-Serif" font-size="10.00">NetworkManager.cpp</text>
</a>
</g>
</g>
<!-- Node1&#45;&gt;Node6 -->
<g id="edge6_Node000001_Node000006" class="edge">
<title>Node1&#45;&gt;Node6</title>
<g id="a_edge6_Node000001_Node000006"><a xlink:title=" ">
<path fill="none" stroke="#63b8ff" d="M351.9,-223.66C395.77,-213.79 464.57,-198.31 508.55,-188.41"/>
<polygon fill="#63b8ff" stroke="#63b8ff" points="351.24,-220.22 342.25,-225.83 352.77,-227.05 351.24,-220.22"/>
</a>
</g>
</g>
<!-- Node7 -->
<g id="Node000007" class="node">
<title>Node7</title>
<g id="a_Node000007"><a xlink:href="PlayerControl_8hpp.html" target="_top" xlink:title=" ">
<polygon fill="white" stroke="#666666" points="357.38,-188 263.38,-188 263.38,-168 357.38,-168 357.38,-188"/>
<text text-anchor="middle" x="310.38" y="-174.5" font-family="Helvetica,sans-Serif" font-size="10.00">PlayerControl.hpp</text>
</a>
</g>
</g>
<!-- Node1&#45;&gt;Node7 -->
<g id="edge7_Node000001_Node000007" class="edge">
<title>Node1&#45;&gt;Node7</title>
<g id="a_edge7_Node000001_Node000007"><a xlink:title=" ">
<path fill="none" stroke="#63b8ff" d="M310.38,-212.13C310.38,-203.9 310.38,-194.85 310.38,-188.3"/>
<polygon fill="#63b8ff" stroke="#63b8ff" points="306.88,-212.08 310.38,-222.08 313.88,-212.08 306.88,-212.08"/>
</a>
</g>
</g>
<!-- Node9 -->
<g id="Node000009" class="node">
<title>Node9</title>
<g id="a_Node000009"><a xlink:href="Server_8cpp.html" target="_top" xlink:title=" ">
<polygon fill="white" stroke="#666666" points="513,-76 449.75,-76 449.75,-56 513,-56 513,-76"/>
<text text-anchor="middle" x="481.38" y="-62.5" font-family="Helvetica,sans-Serif" font-size="10.00">Server.cpp</text>
</a>
</g>
</g>
<!-- Node1&#45;&gt;Node9 -->
<g id="edge19_Node000001_Node000009" class="edge">
<title>Node1&#45;&gt;Node9</title>
<g id="a_edge19_Node000001_Node000009"><a xlink:title=" ">
<path fill="none" stroke="#63b8ff" d="M338,-218.09C368.21,-200.68 416.56,-169.44 448.38,-132 463.13,-114.64 473.45,-89.56 478.28,-76.2"/>
<polygon fill="#63b8ff" stroke="#63b8ff" points="336.43,-214.96 329.44,-222.92 339.87,-221.05 336.43,-214.96"/>
</a>
</g>
</g>
<!-- Node12 -->
<g id="Node000012" class="node">
<title>Node12</title>
<g id="a_Node000012"><a xlink:href="Render_8hpp.html" target="_top" xlink:title=" ">
<polygon fill="white" stroke="#666666" points="173.5,-132 107.25,-132 107.25,-112 173.5,-112 173.5,-132"/>
<text text-anchor="middle" x="140.38" y="-118.5" font-family="Helvetica,sans-Serif" font-size="10.00">Render.hpp</text>
</a>
</g>
</g>
<!-- Node1&#45;&gt;Node12 -->
<g id="edge16_Node000001_Node000012" class="edge">
<title>Node1&#45;&gt;Node12</title>
<g id="a_edge16_Node000001_Node000012"><a xlink:title=" ">
<path fill="none" stroke="#63b8ff" d="M286.67,-217.66C250.89,-194.51 184.16,-151.33 154.83,-132.35"/>
<polygon fill="#63b8ff" stroke="#63b8ff" points="284.31,-220.31 294.61,-222.8 288.12,-214.43 284.31,-220.31"/>
</a>
</g>
</g>
<!-- Node3 -->
<g id="Node000003" class="node">
<title>Node3</title>
<g id="a_Node000003"><a xlink:href="GameTypes_8cpp.html" target="_top" xlink:title=" ">
<polygon fill="white" stroke="#666666" points="273,-20 185.75,-20 185.75,0 273,0 273,-20"/>
<text text-anchor="middle" x="229.38" y="-6.5" font-family="Helvetica,sans-Serif" font-size="10.00">GameTypes.cpp</text>
</a>
</g>
</g>
<!-- Node2&#45;&gt;Node3 -->
<g id="edge2_Node000002_Node000003" class="edge">
<title>Node2&#45;&gt;Node3</title>
<g id="a_edge2_Node000002_Node000003"><a xlink:title=" ">
<path fill="none" stroke="#63b8ff" d="M54.01,-101.66C62.14,-87.18 75.06,-67.9 91.38,-56 119.17,-35.74 156.56,-24.29 185.41,-18.01"/>
<polygon fill="#63b8ff" stroke="#63b8ff" points="51.05,-99.78 49.46,-110.25 57.23,-103.05 51.05,-99.78"/>
</a>
</g>
</g>
<!-- Node4 -->
<g id="Node000004" class="node">
<title>Node4</title>
<g id="a_Node000004"><a xlink:href="GameTypes_8hpp.html" target="_top" xlink:title=" ">
<polygon fill="white" stroke="#666666" points="188,-76 100.75,-76 100.75,-56 188,-56 188,-76"/>
<text text-anchor="middle" x="144.38" y="-62.5" font-family="Helvetica,sans-Serif" font-size="10.00">GameTypes.hpp</text>
</a>
</g>
</g>
<!-- Node2&#45;&gt;Node4 -->
<g id="edge3_Node000002_Node000004" class="edge">
<title>Node2&#45;&gt;Node4</title>
<g id="a_edge3_Node000002_Node000004"><a xlink:title=" ">
<path fill="none" stroke="#63b8ff" d="M71.51,-106.35C89.11,-96.84 111.53,-84.74 126.82,-76.48"/>
<polygon fill="#63b8ff" stroke="#63b8ff" points="70.26,-103.04 63.13,-110.87 73.59,-109.2 70.26,-103.04"/>
</a>
</g>
</g>
<!-- Node4&#45;&gt;Node3 -->
<g id="edge4_Node000004_Node000003" class="edge">
<title>Node4&#45;&gt;Node3</title>
<g id="a_edge4_Node000004_Node000003"><a xlink:title=" ">
<path fill="none" stroke="#63b8ff" d="M168.71,-49.54C183.46,-40.17 201.82,-28.51 214.45,-20.48"/>
<polygon fill="#63b8ff" stroke="#63b8ff" points="167.02,-46.47 160.46,-54.78 170.78,-52.37 167.02,-46.47"/>
</a>
</g>
</g>
<!-- Node5 -->
<g id="Node000005" class="node">
<title>Node5</title>
<g id="a_Node000005"><a xlink:href="Client_2src_2main_8cpp.html" target="_top" xlink:title=" ">
<polygon fill="white" stroke="#666666" points="167.25,-20 111.5,-20 111.5,0 167.25,0 167.25,-20"/>
<text text-anchor="middle" x="139.38" y="-6.5" font-family="Helvetica,sans-Serif" font-size="10.00">main.cpp</text>
</a>
</g>
</g>
<!-- Node4&#45;&gt;Node5 -->
<g id="edge5_Node000004_Node000005" class="edge">
<title>Node4&#45;&gt;Node5</title>
<g id="a_edge5_Node000004_Node000005"><a xlink:title=" ">
<path fill="none" stroke="#63b8ff" d="M142.44,-44.13C141.68,-35.9 140.84,-26.85 140.24,-20.3"/>
<polygon fill="#63b8ff" stroke="#63b8ff" points="138.96,-44.45 143.36,-54.09 145.93,-43.81 138.96,-44.45"/>
</a>
</g>
</g>
<!-- Node7&#45;&gt;Node3 -->
<g id="edge8_Node000007_Node000003" class="edge">
<title>Node7&#45;&gt;Node3</title>
<g id="a_edge8_Node000007_Node000003"><a xlink:title=" ">
<path fill="none" stroke="#63b8ff" d="M322.29,-157.69C328.82,-144.55 334.46,-126.91 328.38,-112 311.2,-69.95 267.15,-35.93 244.03,-20.29"/>
<polygon fill="#63b8ff" stroke="#63b8ff" points="319.36,-155.75 317.57,-166.19 325.48,-159.15 319.36,-155.75"/>
</a>
</g>
</g>
<!-- Node7&#45;&gt;Node4 -->
<g id="edge9_Node000007_Node000004" class="edge">
<title>Node7&#45;&gt;Node4</title>
<g id="a_edge9_Node000007_Node000004"><a xlink:title=" ">
<path fill="none" stroke="#63b8ff" d="M277.41,-162.88C259.89,-154.8 238.34,-143.91 220.38,-132 194.33,-114.73 167.34,-89.61 153.61,-76.22"/>
<polygon fill="#63b8ff" stroke="#63b8ff" points="275.78,-165.98 286.34,-166.9 278.66,-159.6 275.78,-165.98"/>
</a>
</g>
</g>
<!-- Node8 -->
<g id="Node000008" class="node">
<title>Node8</title>
<g id="a_Node000008"><a xlink:href="Server_8hpp.html" target="_top" xlink:title=" ">
<polygon fill="white" stroke="#666666" points="439,-132 375.75,-132 375.75,-112 439,-112 439,-132"/>
<text text-anchor="middle" x="407.38" y="-118.5" font-family="Helvetica,sans-Serif" font-size="10.00">Server.hpp</text>
</a>
</g>
</g>
<!-- Node7&#45;&gt;Node8 -->
<g id="edge10_Node000007_Node000008" class="edge">
<title>Node7&#45;&gt;Node8</title>
<g id="a_edge10_Node000007_Node000008"><a xlink:title=" ">
<path fill="none" stroke="#63b8ff" d="M337.18,-162.08C354.17,-152.62 375.65,-140.66 390.35,-132.48"/>
<polygon fill="#63b8ff" stroke="#63b8ff" points="335.63,-158.94 328.59,-166.86 339.03,-165.05 335.63,-158.94"/>
</a>
</g>
</g>
<!-- Node11 -->
<g id="Node000011" class="node">
<title>Node11</title>
<g id="a_Node000011"><a xlink:href="SoundPlayer_8hpp.html" target="_top" xlink:title=" ">
<polygon fill="white" stroke="#666666" points="319.5,-132 229.25,-132 229.25,-112 319.5,-112 319.5,-132"/>
<text text-anchor="middle" x="274.38" y="-118.5" font-family="Helvetica,sans-Serif" font-size="10.00">SoundPlayer.hpp</text>
</a>
</g>
</g>
<!-- Node7&#45;&gt;Node11 -->
<g id="edge13_Node000007_Node000011" class="edge">
<title>Node7&#45;&gt;Node11</title>
<g id="a_edge13_Node000007_Node000011"><a xlink:title=" ">
<path fill="none" stroke="#63b8ff" d="M297.81,-158.15C291.98,-149.4 285.3,-139.39 280.57,-132.3"/>
<polygon fill="#63b8ff" stroke="#63b8ff" points="294.81,-159.96 303.26,-166.33 300.63,-156.07 294.81,-159.96"/>
</a>
</g>
</g>
<!-- Node8&#45;&gt;Node9 -->
<g id="edge11_Node000008_Node000009" class="edge">
<title>Node8&#45;&gt;Node9</title>
<g id="a_edge11_Node000008_Node000009"><a xlink:title=" ">
<path fill="none" stroke="#63b8ff" d="M429.36,-104.95C442.16,-95.61 457.85,-84.16 468.63,-76.3"/>
<polygon fill="#63b8ff" stroke="#63b8ff" points="427.5,-101.98 421.49,-110.7 431.63,-107.63 427.5,-101.98"/>
</a>
</g>
</g>
<!-- Node10 -->
<g id="Node000010" class="node">
<title>Node10</title>
<g id="a_Node000010"><a xlink:href="Server_2src_2main_8cpp.html" target="_top" xlink:title=" ">
<polygon fill="white" stroke="#666666" points="431.25,-76 375.5,-76 375.5,-56 431.25,-56 431.25,-76"/>
<text text-anchor="middle" x="403.38" y="-62.5" font-family="Helvetica,sans-Serif" font-size="10.00">main.cpp</text>
</a>
</g>
</g>
<!-- Node8&#45;&gt;Node10 -->
<g id="edge12_Node000008_Node000010" class="edge">
<title>Node8&#45;&gt;Node10</title>
<g id="a_edge12_Node000008_Node000010"><a xlink:title=" ">
<path fill="none" stroke="#63b8ff" d="M405.83,-100.13C405.22,-91.9 404.55,-82.85 404.06,-76.3"/>
<polygon fill="#63b8ff" stroke="#63b8ff" points="402.34,-100.37 406.57,-110.08 409.32,-99.85 402.34,-100.37"/>
</a>
</g>
</g>
<!-- Node11&#45;&gt;Node3 -->
<g id="edge14_Node000011_Node000003" class="edge">
<title>Node11&#45;&gt;Node3</title>
<g id="a_edge14_Node000011_Node000003"><a xlink:title=" ">
<path fill="none" stroke="#63b8ff" d="M266.18,-100.97C256.4,-77.07 240.47,-38.11 233.2,-20.35"/>
<polygon fill="#63b8ff" stroke="#63b8ff" points="262.94,-102.29 269.97,-110.22 269.42,-99.64 262.94,-102.29"/>
</a>
</g>
</g>
<!-- Node11&#45;&gt;Node4 -->
<g id="edge15_Node000011_Node000004" class="edge">
<title>Node11&#45;&gt;Node4</title>
<g id="a_edge15_Node000011_Node000004"><a xlink:title=" ">
<path fill="none" stroke="#63b8ff" d="M241.32,-107.27C218.14,-97.64 187.73,-85.01 167.2,-76.48"/>
<polygon fill="#63b8ff" stroke="#63b8ff" points="239.76,-110.41 250.33,-111.01 242.44,-103.94 239.76,-110.41"/>
</a>
</g>
</g>
<!-- Node12&#45;&gt;Node3 -->
<g id="edge17_Node000012_Node000003" class="edge">
<title>Node12&#45;&gt;Node3</title>
<g id="a_edge17_Node000012_Node000003"><a xlink:title=" ">
<path fill="none" stroke="#63b8ff" d="M165.17,-105.16C176.03,-97.34 188.33,-87.18 197.38,-76 211.61,-58.4 221.65,-33.41 226.35,-20.13"/>
<polygon fill="#63b8ff" stroke="#63b8ff" points="163.24,-102.24 156.98,-110.79 167.2,-108 163.24,-102.24"/>
</a>
</g>
</g>
<!-- Node12&#45;&gt;Node4 -->
<g id="edge18_Node000012_Node000004" class="edge">
<title>Node12&#45;&gt;Node4</title>
<g id="a_edge18_Node000012_Node000004"><a xlink:title=" ">
<path fill="none" stroke="#63b8ff" d="M141.92,-100.13C142.53,-91.9 143.2,-82.85 143.69,-76.3"/>
<polygon fill="#63b8ff" stroke="#63b8ff" points="138.43,-99.85 141.18,-110.08 145.41,-100.37 138.43,-99.85"/>
</a>
</g>
</g>
</g>
</svg>
