<?xml version="1.0" encoding="UTF-8" standalone="no"?>
<!DOCTYPE svg PUBLIC "-//W3C//DTD SVG 1.1//EN"
 "http://www.w3.org/Graphics/SVG/1.1/DTD/svg11.dtd">
<!-- Generated by graphviz version 12.1.0 (20240811.2233)
 -->
<!-- Title: Sprite.hpp Pages: 1 -->
<svg width="364pt" height="196pt"
 viewBox="0.00 0.00 364.38 196.00" xmlns="http://www.w3.org/2000/svg" xmlns:xlink="http://www.w3.org/1999/xlink">
<g id="graph0" class="graph" transform="scale(1 1) rotate(0) translate(4 192)">
<title>Sprite.hpp</title>
<!-- Node1 -->
<g id="Node000001" class="node">
<title>Node1</title>
<g id="a_Node000001"><a xlink:title=" ">
<polygon fill="#999999" stroke="#666666" points="239.62,-188 179.38,-188 179.38,-168 239.62,-168 239.62,-188"/>
<text text-anchor="middle" x="209.5" y="-174.5" font-family="Helvetica,sans-Serif" font-size="10.00">Sprite.hpp</text>
</a>
</g>
</g>
<!-- Node2 -->
<g id="Node000002" class="node">
<title>Node2</title>
<g id="a_Node000002"><a xlink:href="NetworkManager_8cpp.html" target="_top" xlink:title=" ">
<polygon fill="white" stroke="#666666" points="109,-132 0,-132 0,-112 109,-112 109,-132"/>
<text text-anchor="middle" x="54.5" y="-118.5" font-family="Helvetica,sans-Serif" font-size="10.00">NetworkManager.cpp</text>
</a>
</g>
</g>
<!-- Node1&#45;&gt;Node2 -->
<g id="edge1_Node000001_Node000002" class="edge">
<title>Node1&#45;&gt;Node2</title>
<g id="a_edge1_Node000001_Node000002"><a xlink:title=" ">
<path fill="none" stroke="#63b8ff" d="M171.96,-163.92C144.09,-154.21 106.74,-141.2 81.71,-132.48"/>
<polygon fill="#63b8ff" stroke="#63b8ff" points="170.48,-167.11 181.07,-167.1 172.78,-160.5 170.48,-167.11"/>
</a>
</g>
</g>
<!-- Node3 -->
<g id="Node000003" class="node">
<title>Node3</title>
<g id="a_Node000003"><a xlink:href="PlayerControl_8hpp.html" target="_top" xlink:title=" ">
<polygon fill="white" stroke="#666666" points="305.5,-132 211.5,-132 211.5,-112 305.5,-112 305.5,-132"/>
<text text-anchor="middle" x="258.5" y="-118.5" font-family="Helvetica,sans-Serif" font-size="10.00">PlayerControl.hpp</text>
</a>
</g>
</g>
<!-- Node1&#45;&gt;Node3 -->
<g id="edge2_Node000001_Node000003" class="edge">
<title>Node1&#45;&gt;Node3</title>
<g id="a_edge2_Node000001_Node000003"><a xlink:title=" ">
<path fill="none" stroke="#63b8ff" d="M225.57,-159.29C233.75,-150.28 243.35,-139.7 250.06,-132.3"/>
<polygon fill="#63b8ff" stroke="#63b8ff" points="223.18,-156.72 219.05,-166.47 228.36,-161.42 223.18,-156.72"/>
</a>
</g>
</g>
<!-- Node7 -->
<g id="Node000007" class="node">
<title>Node7</title>
<g id="a_Node000007"><a xlink:href="Server_2src_2main_8cpp.html" target="_top" xlink:title=" ">
<polygon fill="white" stroke="#666666" points="356.38,-76 300.62,-76 300.62,-56 356.38,-56 356.38,-76"/>
<text text-anchor="middle" x="328.5" y="-62.5" font-family="Helvetica,sans-Serif" font-size="10.00">main.cpp</text>
</a>
</g>
</g>
<!-- Node1&#45;&gt;Node7 -->
<g id="edge11_Node000001_Node000007" class="edge">
<title>Node1&#45;&gt;Node7</title>
<g id="a_edge11_Node000001_Node000007"><a xlink:title=" ">
<path fill="none" stroke="#63b8ff" d="M250.92,-168.9C272.92,-162.5 298.61,-151.29 314.5,-132 327.86,-115.78 329.3,-89.77 329.02,-76.09"/>
<polygon fill="#63b8ff" stroke="#63b8ff" points="250.07,-165.5 241.29,-171.44 251.86,-172.27 250.07,-165.5"/>
</a>
</g>
</g>
<!-- Node8 -->
<g id="Node000008" class="node">
<title>Node8</title>
<g id="a_Node000008"><a xlink:href="Render_8hpp.html" target="_top" xlink:title=" ">
<polygon fill="white" stroke="#666666" points="193.62,-132 127.38,-132 127.38,-112 193.62,-112 193.62,-132"/>
<text text-anchor="middle" x="160.5" y="-118.5" font-family="Helvetica,sans-Serif" font-size="10.00">Render.hpp</text>
</a>
</g>
</g>
<!-- Node1&#45;&gt;Node8 -->
<g id="edge8_Node000001_Node000008" class="edge">
<title>Node1&#45;&gt;Node8</title>
<g id="a_edge8_Node000001_Node000008"><a xlink:title=" ">
<path fill="none" stroke="#63b8ff" d="M193.43,-159.29C185.25,-150.28 175.65,-139.7 168.94,-132.3"/>
<polygon fill="#63b8ff" stroke="#63b8ff" points="190.64,-161.42 199.95,-166.47 195.82,-156.72 190.64,-161.42"/>
</a>
</g>
</g>
<!-- Node4 -->
<g id="Node000004" class="node">
<title>Node4</title>
<g id="a_Node000004"><a xlink:href="GameTypes_8cpp.html" target="_top" xlink:title=" ">
<polygon fill="white" stroke="#666666" points="271.12,-20 183.88,-20 183.88,0 271.12,0 271.12,-20"/>
<text text-anchor="middle" x="227.5" y="-6.5" font-family="Helvetica,sans-Serif" font-size="10.00">GameTypes.cpp</text>
</a>
</g>
</g>
<!-- Node3&#45;&gt;Node4 -->
<g id="edge3_Node000003_Node000004" class="edge">
<title>Node3&#45;&gt;Node4</title>
<g id="a_edge3_Node000003_Node000004"><a xlink:title=" ">
<path fill="none" stroke="#63b8ff" d="M254.86,-100.31C252.4,-87.44 248.81,-70.62 244.5,-56 240.77,-43.34 235.17,-29.17 231.43,-20.17"/>
<polygon fill="#63b8ff" stroke="#63b8ff" points="251.42,-100.94 256.66,-110.14 258.3,-99.68 251.42,-100.94"/>
</a>
</g>
</g>
<!-- Node5 -->
<g id="Node000005" class="node">
<title>Node5</title>
<g id="a_Node000005"><a xlink:href="GameTypes_8hpp.html" target="_top" xlink:title=" ">
<polygon fill="white" stroke="#666666" points="235.12,-76 147.88,-76 147.88,-56 235.12,-56 235.12,-76"/>
<text text-anchor="middle" x="191.5" y="-62.5" font-family="Helvetica,sans-Serif" font-size="10.00">GameTypes.hpp</text>
</a>
</g>
</g>
<!-- Node3&#45;&gt;Node5 -->
<g id="edge4_Node000003_Node000005" class="edge">
<title>Node3&#45;&gt;Node5</title>
<g id="a_edge4_Node000003_Node000005"><a xlink:title=" ">
<path fill="none" stroke="#63b8ff" d="M237.91,-104.4C226.45,-95.17 212.6,-84.01 203.04,-76.3"/>
<polygon fill="#63b8ff" stroke="#63b8ff" points="235.67,-107.09 245.65,-110.64 240.06,-101.64 235.67,-107.09"/>
</a>
</g>
</g>
<!-- Node3&#45;&gt;Node7 -->
<g id="edge7_Node000003_Node000007" class="edge">
<title>Node3&#45;&gt;Node7</title>
<g id="a_edge7_Node000003_Node000007"><a xlink:title=" ">
<path fill="none" stroke="#63b8ff" d="M279.66,-104.68C291.7,-95.39 306.35,-84.09 316.45,-76.3"/>
<polygon fill="#63b8ff" stroke="#63b8ff" points="277.67,-101.79 271.89,-110.67 281.95,-107.33 277.67,-101.79"/>
</a>
</g>
</g>
<!-- Node5&#45;&gt;Node4 -->
<g id="edge5_Node000005_Node000004" class="edge">
<title>Node5&#45;&gt;Node4</title>
<g id="a_edge5_Node000005_Node000004"><a xlink:title=" ">
<path fill="none" stroke="#63b8ff" d="M204.07,-46.15C209.9,-37.4 216.57,-27.39 221.3,-20.3"/>
<polygon fill="#63b8ff" stroke="#63b8ff" points="201.25,-44.07 198.61,-54.33 207.07,-47.96 201.25,-44.07"/>
</a>
</g>
</g>
<!-- Node6 -->
<g id="Node000006" class="node">
<title>Node6</title>
<g id="a_Node000006"><a xlink:href="Client_2src_2main_8cpp.html" target="_top" xlink:title=" ">
<polygon fill="white" stroke="#666666" points="165.38,-20 109.62,-20 109.62,0 165.38,0 165.38,-20"/>
<text text-anchor="middle" x="137.5" y="-6.5" font-family="Helvetica,sans-Serif" font-size="10.00">main.cpp</text>
</a>
</g>
</g>
<!-- Node5&#45;&gt;Node6 -->
<g id="edge6_Node000005_Node000006" class="edge">
<title>Node5&#45;&gt;Node6</title>
<g id="a_edge6_Node000005_Node000006"><a xlink:title=" ">
<path fill="none" stroke="#63b8ff" d="M174.07,-47.57C165,-38.5 154.28,-27.78 146.8,-20.3"/>
<polygon fill="#63b8ff" stroke="#63b8ff" points="171.48,-49.93 181.02,-54.52 176.43,-44.98 171.48,-49.93"/>
</a>
</g>
</g>
<!-- Node8&#45;&gt;Node4 -->
<g id="edge9_Node000008_Node000004" class="edge">
<title>Node8&#45;&gt;Node4</title>
<g id="a_edge9_Node000008_Node000004"><a xlink:title=" ">
<path fill="none" stroke="#63b8ff" d="M146,-102.34C137.36,-88.79 129.65,-70.39 138.5,-56 149.47,-38.15 169.96,-27.12 188.51,-20.46"/>
<polygon fill="#63b8ff" stroke="#63b8ff" points="143.03,-104.21 151.65,-110.37 148.76,-100.18 143.03,-104.21"/>
</a>
</g>
</g>
<!-- Node8&#45;&gt;Node5 -->
<g id="edge10_Node000008_Node000005" class="edge">
<title>Node8&#45;&gt;Node5</title>
<g id="a_edge10_Node000008_Node000005"><a xlink:title=" ">
<path fill="none" stroke="#63b8ff" d="M171.48,-101.87C176.47,-93.19 182.13,-83.32 186.16,-76.3"/>
<polygon fill="#63b8ff" stroke="#63b8ff" points="168.6,-99.87 166.65,-110.28 174.67,-103.35 168.6,-99.87"/>
</a>
</g>
</g>
</g>
</svg>
