<?xml version="1.0" encoding="UTF-8" standalone="no"?>
<!DOCTYPE svg PUBLIC "-//W3C//DTD SVG 1.1//EN"
 "http://www.w3.org/Graphics/SVG/1.1/DTD/svg11.dtd">
<!-- Generated by graphviz version 12.1.0 (20240811.2233)
 -->
<!-- Title: RtypeServer::UdpServer::ClientSession Pages: 1 -->
<svg width="125pt" height="120pt"
 viewBox="0.00 0.00 125.00 120.00" xmlns="http://www.w3.org/2000/svg" xmlns:xlink="http://www.w3.org/1999/xlink">
<g id="graph0" class="graph" transform="scale(1 1) rotate(0) translate(4 116)">
<title>RtypeServer::UdpServer::ClientSession</title>
<!-- Node1 -->
<g id="Node000001" class="node">
<title>Node1</title>
<g id="a_Node000001"><a xlink:title=" ">
<polygon fill="#999999" stroke="none" points="117,-112 0,-112 0,0 117,0 117,-112"/>
<text text-anchor="start" x="4.88" y="-98.5" font-family="Helvetica,sans-Serif" font-size="10.00">RtypeServer::UdpServer</text>
<text text-anchor="start" x="25.12" y="-86.5" font-family="Helvetica,sans-Serif" font-size="10.00">::ClientSession</text>
<text text-anchor="start" x="19" y="-70.5" font-family="Helvetica,sans-Serif" font-size="10.00">+</text>
<text text-anchor="start" x="44" y="-70.5" font-family="Helvetica,sans-Serif" font-size="10.00">playerId</text>
<text text-anchor="start" x="19" y="-54.5" font-family="Helvetica,sans-Serif" font-size="10.00">+</text>
<text text-anchor="start" x="44" y="-54.5" font-family="Helvetica,sans-Serif" font-size="10.00">endpoint</text>
<text text-anchor="start" x="19" y="-38.5" font-family="Helvetica,sans-Serif" font-size="10.00">+</text>
<text text-anchor="start" x="44" y="-38.5" font-family="Helvetica,sans-Serif" font-size="10.00">lastSeen</text>
<text text-anchor="start" x="19" y="-22.5" font-family="Helvetica,sans-Serif" font-size="10.00">+</text>
<text text-anchor="start" x="44" y="-22.5" font-family="Helvetica,sans-Serif" font-size="10.00">lastPing</text>
<text text-anchor="start" x="57" y="-6.5" font-family="Helvetica,sans-Serif" font-size="10.00"> </text>
<polygon fill="#666666" stroke="#666666" points="0,-82 0,-82 117,-82 117,-82 0,-82"/>
<polygon fill="#666666" stroke="#666666" points="0,-18 0,-18 42,-18 42,-18 0,-18"/>
<polygon fill="#666666" stroke="#666666" points="42,-18 42,-18 117,-18 117,-18 42,-18"/>
<polygon fill="none" stroke="#666666" points="0,0 0,-112 117,-112 117,0 0,0"/>
</a>
</g>
</g>
</g>
</svg>
