<?xml version="1.0" encoding="UTF-8" standalone="no"?>
<!DOCTYPE svg PUBLIC "-//W3C//DTD SVG 1.1//EN"
 "http://www.w3.org/Graphics/SVG/1.1/DTD/svg11.dtd">
<!-- Generated by graphviz version 12.1.0 (20240811.2233)
 -->
<!-- Title: Engine::Components::RigidBody_s Pages: 1 -->
<svg width="131pt" height="312pt"
 viewBox="0.00 0.00 131.00 312.00" xmlns="http://www.w3.org/2000/svg" xmlns:xlink="http://www.w3.org/1999/xlink">
<g id="graph0" class="graph" transform="scale(1 1) rotate(0) translate(4 308)">
<title>Engine::Components::RigidBody_s</title>
<!-- Node1 -->
<g id="Node000001" class="node">
<title>Node1</title>
<g id="a_Node000001"><a xlink:title=" ">
<polygon fill="#999999" stroke="none" points="123,-64 0,-64 0,0 123,0 123,-64"/>
<text text-anchor="start" x="15.75" y="-50.5" font-family="Helvetica,sans-Serif" font-size="10.00">Engine::Components</text>
<text text-anchor="start" x="30.75" y="-38.5" font-family="Helvetica,sans-Serif" font-size="10.00">::RigidBody_s</text>
<text text-anchor="start" x="4" y="-22.5" font-family="Helvetica,sans-Serif" font-size="10.00">+</text>
<text text-anchor="start" x="14" y="-22.5" font-family="Helvetica,sans-Serif" font-size="10.00">has_body_been_created</text>
<text text-anchor="start" x="60" y="-6.5" font-family="Helvetica,sans-Serif" font-size="10.00"> </text>
<polygon fill="#666666" stroke="#666666" points="0,-34 0,-34 123,-34 123,-34 0,-34"/>
<polygon fill="#666666" stroke="#666666" points="0,-18 0,-18 12,-18 12,-18 0,-18"/>
<polygon fill="#666666" stroke="#666666" points="12,-18 12,-18 123,-18 123,-18 12,-18"/>
<polygon fill="none" stroke="#666666" points="0,0 0,-64 123,-64 123,0 0,0"/>
</a>
</g>
</g>
<!-- Node2 -->
<g id="Node000002" class="node">
<title>Node2</title>
<g id="a_Node000002"><a xlink:href="classEngine_1_1Utils_1_1Vec2.html" target="_top" xlink:title=" ">
<polygon fill="white" stroke="none" points="108.5,-304 14.5,-304 14.5,-124 108.5,-124 108.5,-304"/>
<text text-anchor="start" x="19.5" y="-290.5" font-family="Helvetica,sans-Serif" font-size="10.00">Engine::Utils::Vec2</text>
<text text-anchor="start" x="24" y="-274.5" font-family="Helvetica,sans-Serif" font-size="10.00">+</text>
<text text-anchor="start" x="39.5" y="-274.5" font-family="Helvetica,sans-Serif" font-size="10.00">x</text>
<text text-anchor="start" x="24" y="-258.5" font-family="Helvetica,sans-Serif" font-size="10.00">+</text>
<text text-anchor="start" x="39.5" y="-258.5" font-family="Helvetica,sans-Serif" font-size="10.00">y</text>
<text text-anchor="start" x="24" y="-242.5" font-family="Helvetica,sans-Serif" font-size="10.00">+</text>
<text text-anchor="start" x="39.5" y="-242.5" font-family="Helvetica,sans-Serif" font-size="10.00">Vec2()</text>
<text text-anchor="start" x="24" y="-226.5" font-family="Helvetica,sans-Serif" font-size="10.00">+</text>
<text text-anchor="start" x="39.5" y="-226.5" font-family="Helvetica,sans-Serif" font-size="10.00">Vec2()</text>
<text text-anchor="start" x="24" y="-210.5" font-family="Helvetica,sans-Serif" font-size="10.00">+</text>
<text text-anchor="start" x="39.5" y="-210.5" font-family="Helvetica,sans-Serif" font-size="10.00">operator+()</text>
<text text-anchor="start" x="24" y="-194.5" font-family="Helvetica,sans-Serif" font-size="10.00">+</text>
<text text-anchor="start" x="39.5" y="-194.5" font-family="Helvetica,sans-Serif" font-size="10.00">operator+=()</text>
<text text-anchor="start" x="24" y="-178.5" font-family="Helvetica,sans-Serif" font-size="10.00">+</text>
<text text-anchor="start" x="39.5" y="-178.5" font-family="Helvetica,sans-Serif" font-size="10.00">operator&#45;()</text>
<text text-anchor="start" x="24" y="-162.5" font-family="Helvetica,sans-Serif" font-size="10.00">+</text>
<text text-anchor="start" x="39.5" y="-162.5" font-family="Helvetica,sans-Serif" font-size="10.00">operator&#45;=()</text>
<text text-anchor="start" x="24" y="-146.5" font-family="Helvetica,sans-Serif" font-size="10.00">+</text>
<text text-anchor="start" x="39.5" y="-146.5" font-family="Helvetica,sans-Serif" font-size="10.00">operator*()</text>
<text text-anchor="start" x="24" y="-130.5" font-family="Helvetica,sans-Serif" font-size="10.00">+</text>
<text text-anchor="start" x="39.5" y="-130.5" font-family="Helvetica,sans-Serif" font-size="10.00">toString()</text>
<polygon fill="#666666" stroke="#666666" points="14.5,-286 14.5,-286 108.5,-286 108.5,-286 14.5,-286"/>
<polygon fill="#666666" stroke="#666666" points="14.5,-254 14.5,-254 37.5,-254 37.5,-254 14.5,-254"/>
<polygon fill="#666666" stroke="#666666" points="37.5,-254 37.5,-254 108.5,-254 108.5,-254 37.5,-254"/>
<polygon fill="none" stroke="#666666" points="14.5,-124 14.5,-304 108.5,-304 108.5,-124 14.5,-124"/>
</a>
</g>
</g>
<!-- Node2&#45;&gt;Node1 -->
<g id="edge1_Node000001_Node000002" class="edge">
<title>Node2&#45;&gt;Node1</title>
<g id="a_edge1_Node000001_Node000002"><a xlink:title=" ">
<path fill="none" stroke="#63b8ff" d="M61.5,-124.05C61.5,-107.68 61.5,-91.25 61.5,-76.95"/>
<polygon fill="none" stroke="#63b8ff" points="61.5,-76.86 57.5,-70.86 61.5,-64.86 65.5,-70.86 61.5,-76.86"/>
</a>
</g>
<text text-anchor="middle" x="92.25" y="-96.5" font-family="Helvetica,sans-Serif" font-size="10.00" fill="grey"> +acceleration</text>
<text text-anchor="middle" x="92.25" y="-84.5" font-family="Helvetica,sans-Serif" font-size="10.00" fill="grey">+velocity</text>
</g>
</g>
</svg>
