<?xml version="1.0" encoding="UTF-8" standalone="no"?>
<!DOCTYPE svg PUBLIC "-//W3C//DTD SVG 1.1//EN"
 "http://www.w3.org/Graphics/SVG/1.1/DTD/svg11.dtd">
<!-- Generated by graphviz version 12.1.0 (20240811.2233)
 -->
<!-- Title: Engine::Components::Transform_s Pages: 1 -->
<svg width="109pt" height="300pt"
 viewBox="0.00 0.00 109.00 300.00" xmlns="http://www.w3.org/2000/svg" xmlns:xlink="http://www.w3.org/1999/xlink">
<g id="graph0" class="graph" transform="scale(1 1) rotate(0) translate(4 296)">
<title>Engine::Components::Transform_s</title>
<!-- Node1 -->
<g id="Node000001" class="node">
<title>Node1</title>
<g id="a_Node000001"><a xlink:title=" ">
<polygon fill="#999999" stroke="none" points="101,-80 0,-80 0,0 101,0 101,-80"/>
<text text-anchor="start" x="4.75" y="-66.5" font-family="Helvetica,sans-Serif" font-size="10.00">Engine::Components</text>
<text text-anchor="start" x="20.12" y="-54.5" font-family="Helvetica,sans-Serif" font-size="10.00">::Transform_s</text>
<text text-anchor="start" x="19" y="-38.5" font-family="Helvetica,sans-Serif" font-size="10.00">+</text>
<text text-anchor="start" x="44" y="-38.5" font-family="Helvetica,sans-Serif" font-size="10.00">rot</text>
<text text-anchor="start" x="19" y="-22.5" font-family="Helvetica,sans-Serif" font-size="10.00">+</text>
<text text-anchor="start" x="44" y="-22.5" font-family="Helvetica,sans-Serif" font-size="10.00">scale</text>
<text text-anchor="start" x="49" y="-6.5" font-family="Helvetica,sans-Serif" font-size="10.00"> </text>
<polygon fill="#666666" stroke="#666666" points="0,-50 0,-50 101,-50 101,-50 0,-50"/>
<polygon fill="#666666" stroke="#666666" points="0,-18 0,-18 42,-18 42,-18 0,-18"/>
<polygon fill="#666666" stroke="#666666" points="42,-18 42,-18 101,-18 101,-18 42,-18"/>
<polygon fill="none" stroke="#666666" points="0,0 0,-80 101,-80 101,0 0,0"/>
</a>
</g>
</g>
<!-- Node2 -->
<g id="Node000002" class="node">
<title>Node2</title>
<g id="a_Node000002"><a xlink:href="classEngine_1_1Utils_1_1Vec2.html" target="_top" xlink:title=" ">
<polygon fill="white" stroke="none" points="97.5,-292 3.5,-292 3.5,-128 97.5,-128 97.5,-292"/>
<text text-anchor="start" x="8.5" y="-278.5" font-family="Helvetica,sans-Serif" font-size="10.00">Engine::Utils::Vec2</text>
<text text-anchor="start" x="13" y="-262.5" font-family="Helvetica,sans-Serif" font-size="10.00">+</text>
<text text-anchor="start" x="28.5" y="-262.5" font-family="Helvetica,sans-Serif" font-size="10.00">x</text>
<text text-anchor="start" x="13" y="-246.5" font-family="Helvetica,sans-Serif" font-size="10.00">+</text>
<text text-anchor="start" x="28.5" y="-246.5" font-family="Helvetica,sans-Serif" font-size="10.00">y</text>
<text text-anchor="start" x="13" y="-230.5" font-family="Helvetica,sans-Serif" font-size="10.00">+</text>
<text text-anchor="start" x="28.5" y="-230.5" font-family="Helvetica,sans-Serif" font-size="10.00">Vec2()</text>
<text text-anchor="start" x="13" y="-214.5" font-family="Helvetica,sans-Serif" font-size="10.00">+</text>
<text text-anchor="start" x="28.5" y="-214.5" font-family="Helvetica,sans-Serif" font-size="10.00">Vec2()</text>
<text text-anchor="start" x="13" y="-198.5" font-family="Helvetica,sans-Serif" font-size="10.00">+</text>
<text text-anchor="start" x="28.5" y="-198.5" font-family="Helvetica,sans-Serif" font-size="10.00">operator+()</text>
<text text-anchor="start" x="13" y="-182.5" font-family="Helvetica,sans-Serif" font-size="10.00">+</text>
<text text-anchor="start" x="28.5" y="-182.5" font-family="Helvetica,sans-Serif" font-size="10.00">operator+=()</text>
<text text-anchor="start" x="13" y="-166.5" font-family="Helvetica,sans-Serif" font-size="10.00">+</text>
<text text-anchor="start" x="28.5" y="-166.5" font-family="Helvetica,sans-Serif" font-size="10.00">operator&#45;()</text>
<text text-anchor="start" x="13" y="-150.5" font-family="Helvetica,sans-Serif" font-size="10.00">+</text>
<text text-anchor="start" x="28.5" y="-150.5" font-family="Helvetica,sans-Serif" font-size="10.00">operator&#45;=()</text>
<text text-anchor="start" x="13" y="-134.5" font-family="Helvetica,sans-Serif" font-size="10.00">+</text>
<text text-anchor="start" x="28.5" y="-134.5" font-family="Helvetica,sans-Serif" font-size="10.00">operator*()</text>
<polygon fill="#666666" stroke="#666666" points="3.5,-274 3.5,-274 97.5,-274 97.5,-274 3.5,-274"/>
<polygon fill="#666666" stroke="#666666" points="3.5,-242 3.5,-242 26.5,-242 26.5,-242 3.5,-242"/>
<polygon fill="#666666" stroke="#666666" points="26.5,-242 26.5,-242 97.5,-242 97.5,-242 26.5,-242"/>
<polygon fill="none" stroke="#666666" points="3.5,-128 3.5,-292 97.5,-292 97.5,-128 3.5,-128"/>
</a>
</g>
</g>
<!-- Node2&#45;&gt;Node1 -->
<g id="edge1_Node000001_Node000002" class="edge">
<title>Node2&#45;&gt;Node1</title>
<g id="a_edge1_Node000001_Node000002"><a xlink:title=" ">
<path fill="none" stroke="#63b8ff" d="M50.5,-128.44C50.5,-116.22 50.5,-103.89 50.5,-92.51"/>
<polygon fill="none" stroke="#63b8ff" points="50.5,-92.54 46.5,-86.54 50.5,-80.54 54.5,-86.54 50.5,-92.54"/>
</a>
</g>
<text text-anchor="middle" x="62.88" y="-100.5" font-family="Helvetica,sans-Serif" font-size="10.00" fill="grey"> +pos</text>
</g>
</g>
</svg>
