<?xml version="1.0" encoding="UTF-8" standalone="no"?>
<!DOCTYPE svg PUBLIC "-//W3C//DTD SVG 1.1//EN"
 "http://www.w3.org/Graphics/SVG/1.1/DTD/svg11.dtd">
<!-- Generated by graphviz version 12.1.0 (20240811.2233)
 -->
<!-- Title: Engine::NetworkManager::PacketHeader Pages: 1 -->
<svg width="128pt" height="152pt"
 viewBox="0.00 0.00 128.00 152.00" xmlns="http://www.w3.org/2000/svg" xmlns:xlink="http://www.w3.org/1999/xlink">
<g id="graph0" class="graph" transform="scale(1 1) rotate(0) translate(4 148)">
<title>Engine::NetworkManager::PacketHeader</title>
<!-- Node1 -->
<g id="Node000001" class="node">
<title>Node1</title>
<g id="a_Node000001"><a xlink:title=" ">
<polygon fill="#999999" stroke="none" points="120,-144 0,-144 0,0 120,0 120,-144"/>
<text text-anchor="start" x="4.88" y="-130.5" font-family="Helvetica,sans-Serif" font-size="10.00">Engine::NetworkManager</text>
<text text-anchor="start" x="25.88" y="-118.5" font-family="Helvetica,sans-Serif" font-size="10.00">::PacketHeader</text>
<text text-anchor="start" x="20.5" y="-102.5" font-family="Helvetica,sans-Serif" font-size="10.00">+</text>
<text text-anchor="start" x="47" y="-102.5" font-family="Helvetica,sans-Serif" font-size="10.00">magic</text>
<text text-anchor="start" x="20.5" y="-86.5" font-family="Helvetica,sans-Serif" font-size="10.00">+</text>
<text text-anchor="start" x="47" y="-86.5" font-family="Helvetica,sans-Serif" font-size="10.00">version</text>
<text text-anchor="start" x="20.5" y="-70.5" font-family="Helvetica,sans-Serif" font-size="10.00">+</text>
<text text-anchor="start" x="47" y="-70.5" font-family="Helvetica,sans-Serif" font-size="10.00">type</text>
<text text-anchor="start" x="20.5" y="-54.5" font-family="Helvetica,sans-Serif" font-size="10.00">+</text>
<text text-anchor="start" x="47" y="-54.5" font-family="Helvetica,sans-Serif" font-size="10.00">seq</text>
<text text-anchor="start" x="20.5" y="-38.5" font-family="Helvetica,sans-Serif" font-size="10.00">+</text>
<text text-anchor="start" x="47" y="-38.5" font-family="Helvetica,sans-Serif" font-size="10.00">ack</text>
<text text-anchor="start" x="20.5" y="-22.5" font-family="Helvetica,sans-Serif" font-size="10.00">+</text>
<text text-anchor="start" x="47" y="-22.5" font-family="Helvetica,sans-Serif" font-size="10.00">ack_bits</text>
<text text-anchor="start" x="58.5" y="-6.5" font-family="Helvetica,sans-Serif" font-size="10.00"> </text>
<polygon fill="#666666" stroke="#666666" points="0,-114 0,-114 120,-114 120,-114 0,-114"/>
<polygon fill="#666666" stroke="#666666" points="0,-18 0,-18 45,-18 45,-18 0,-18"/>
<polygon fill="#666666" stroke="#666666" points="45,-18 45,-18 120,-18 120,-18 45,-18"/>
<polygon fill="none" stroke="#666666" points="0,0 0,-144 120,-144 120,0 0,0"/>
</a>
</g>
</g>
</g>
</svg>
