<?xml version="1.0" encoding="UTF-8" standalone="no"?>
<!DOCTYPE svg PUBLIC "-//W3C//DTD SVG 1.1//EN"
 "http://www.w3.org/Graphics/SVG/1.1/DTD/svg11.dtd">
<!-- Generated by graphviz version 12.1.0 (20240811.2233)
 -->
<!-- Title: Engine::Systems::Sprite_s Pages: 1 -->
<svg width="135pt" height="300pt"
 viewBox="0.00 0.00 135.00 300.00" xmlns="http://www.w3.org/2000/svg" xmlns:xlink="http://www.w3.org/1999/xlink">
<g id="graph0" class="graph" transform="scale(1 1) rotate(0) translate(4 296)">
<title>Engine::Systems::Sprite_s</title>
<!-- Node1 -->
<g id="Node000001" class="node">
<title>Node1</title>
<g id="a_Node000001"><a xlink:title=" ">
<polygon fill="#999999" stroke="none" points="127,-68 0,-68 0,0 127,0 127,-68"/>
<text text-anchor="start" x="5" y="-54.5" font-family="Helvetica,sans-Serif" font-size="10.00">Engine::Systems::Sprite_s</text>
<text text-anchor="start" x="16.5" y="-38.5" font-family="Helvetica,sans-Serif" font-size="10.00">+</text>
<text text-anchor="start" x="39" y="-38.5" font-family="Helvetica,sans-Serif" font-size="10.00">texture_name</text>
<text text-anchor="start" x="16.5" y="-22.5" font-family="Helvetica,sans-Serif" font-size="10.00">+</text>
<text text-anchor="start" x="39" y="-22.5" font-family="Helvetica,sans-Serif" font-size="10.00">frames</text>
<text text-anchor="start" x="62" y="-6.5" font-family="Helvetica,sans-Serif" font-size="10.00"> </text>
<polygon fill="#666666" stroke="#666666" points="0,-50 0,-50 127,-50 127,-50 0,-50"/>
<polygon fill="#666666" stroke="#666666" points="0,-18 0,-18 37,-18 37,-18 0,-18"/>
<polygon fill="#666666" stroke="#666666" points="37,-18 37,-18 127,-18 127,-18 37,-18"/>
<polygon fill="none" stroke="#666666" points="0,0 0,-68 127,-68 127,0 0,0"/>
</a>
</g>
</g>
<!-- Node2 -->
<g id="Node000002" class="node">
<title>Node2</title>
<g id="a_Node000002"><a xlink:href="classEngine_1_1Utils_1_1Vec2.html" target="_top" xlink:title=" ">
<polygon fill="white" stroke="none" points="110.5,-292 16.5,-292 16.5,-128 110.5,-128 110.5,-292"/>
<text text-anchor="start" x="21.5" y="-278.5" font-family="Helvetica,sans-Serif" font-size="10.00">Engine::Utils::Vec2</text>
<text text-anchor="start" x="26" y="-262.5" font-family="Helvetica,sans-Serif" font-size="10.00">+</text>
<text text-anchor="start" x="41.5" y="-262.5" font-family="Helvetica,sans-Serif" font-size="10.00">x</text>
<text text-anchor="start" x="26" y="-246.5" font-family="Helvetica,sans-Serif" font-size="10.00">+</text>
<text text-anchor="start" x="41.5" y="-246.5" font-family="Helvetica,sans-Serif" font-size="10.00">y</text>
<text text-anchor="start" x="26" y="-230.5" font-family="Helvetica,sans-Serif" font-size="10.00">+</text>
<text text-anchor="start" x="41.5" y="-230.5" font-family="Helvetica,sans-Serif" font-size="10.00">Vec2()</text>
<text text-anchor="start" x="26" y="-214.5" font-family="Helvetica,sans-Serif" font-size="10.00">+</text>
<text text-anchor="start" x="41.5" y="-214.5" font-family="Helvetica,sans-Serif" font-size="10.00">Vec2()</text>
<text text-anchor="start" x="26" y="-198.5" font-family="Helvetica,sans-Serif" font-size="10.00">+</text>
<text text-anchor="start" x="41.5" y="-198.5" font-family="Helvetica,sans-Serif" font-size="10.00">operator+()</text>
<text text-anchor="start" x="26" y="-182.5" font-family="Helvetica,sans-Serif" font-size="10.00">+</text>
<text text-anchor="start" x="41.5" y="-182.5" font-family="Helvetica,sans-Serif" font-size="10.00">operator+=()</text>
<text text-anchor="start" x="26" y="-166.5" font-family="Helvetica,sans-Serif" font-size="10.00">+</text>
<text text-anchor="start" x="41.5" y="-166.5" font-family="Helvetica,sans-Serif" font-size="10.00">operator&#45;()</text>
<text text-anchor="start" x="26" y="-150.5" font-family="Helvetica,sans-Serif" font-size="10.00">+</text>
<text text-anchor="start" x="41.5" y="-150.5" font-family="Helvetica,sans-Serif" font-size="10.00">operator&#45;=()</text>
<text text-anchor="start" x="26" y="-134.5" font-family="Helvetica,sans-Serif" font-size="10.00">+</text>
<text text-anchor="start" x="41.5" y="-134.5" font-family="Helvetica,sans-Serif" font-size="10.00">operator*()</text>
<polygon fill="#666666" stroke="#666666" points="16.5,-274 16.5,-274 110.5,-274 110.5,-274 16.5,-274"/>
<polygon fill="#666666" stroke="#666666" points="16.5,-242 16.5,-242 39.5,-242 39.5,-242 16.5,-242"/>
<polygon fill="#666666" stroke="#666666" points="39.5,-242 39.5,-242 110.5,-242 110.5,-242 39.5,-242"/>
<polygon fill="none" stroke="#666666" points="16.5,-128 16.5,-292 110.5,-292 110.5,-128 16.5,-128"/>
</a>
</g>
</g>
<!-- Node2&#45;&gt;Node1 -->
<g id="edge1_Node000001_Node000002" class="edge">
<title>Node2&#45;&gt;Node1</title>
<g id="a_edge1_Node000001_Node000002"><a xlink:title=" ">
<path fill="none" stroke="#63b8ff" d="M63.5,-128.11C63.5,-111.81 63.5,-95.21 63.5,-80.63"/>
<polygon fill="none" stroke="#63b8ff" points="63.5,-80.78 59.5,-74.78 63.5,-68.78 67.5,-74.78 63.5,-80.78"/>
</a>
</g>
<text text-anchor="middle" x="75.88" y="-100.5" font-family="Helvetica,sans-Serif" font-size="10.00" fill="grey"> +pos</text>
<text text-anchor="middle" x="75.88" y="-88.5" font-family="Helvetica,sans-Serif" font-size="10.00" fill="grey">+size</text>
</g>
</g>
</svg>
