<?xml version="1.0" encoding="UTF-8" standalone="no"?>
<!DOCTYPE svg PUBLIC "-//W3C//DTD SVG 1.1//EN"
 "http://www.w3.org/Graphics/SVG/1.1/DTD/svg11.dtd">
<!-- Generated by graphviz version 12.1.0 (20240811.2233)
 -->
<!-- Title: Engine::Components::Sound_s Pages: 1 -->
<svg width="109pt" height="104pt"
 viewBox="0.00 0.00 109.00 104.00" xmlns="http://www.w3.org/2000/svg" xmlns:xlink="http://www.w3.org/1999/xlink">
<g id="graph0" class="graph" transform="scale(1 1) rotate(0) translate(4 100)">
<title>Engine::Components::Sound_s</title>
<!-- Node1 -->
<g id="Node000001" class="node">
<title>Node1</title>
<g id="a_Node000001"><a xlink:title=" ">
<polygon fill="#999999" stroke="none" points="101,-96 0,-96 0,0 101,0 101,-96"/>
<text text-anchor="start" x="4.75" y="-82.5" font-family="Helvetica,sans-Serif" font-size="10.00">Engine::Components</text>
<text text-anchor="start" x="28.38" y="-70.5" font-family="Helvetica,sans-Serif" font-size="10.00">::Sound_s</text>
<text text-anchor="start" x="11" y="-54.5" font-family="Helvetica,sans-Serif" font-size="10.00">+</text>
<text text-anchor="start" x="28" y="-54.5" font-family="Helvetica,sans-Serif" font-size="10.00">sound_name</text>
<text text-anchor="start" x="11" y="-38.5" font-family="Helvetica,sans-Serif" font-size="10.00">+</text>
<text text-anchor="start" x="28" y="-38.5" font-family="Helvetica,sans-Serif" font-size="10.00">looping</text>
<text text-anchor="start" x="11" y="-22.5" font-family="Helvetica,sans-Serif" font-size="10.00">+</text>
<text text-anchor="start" x="28" y="-22.5" font-family="Helvetica,sans-Serif" font-size="10.00">has_played</text>
<text text-anchor="start" x="49" y="-6.5" font-family="Helvetica,sans-Serif" font-size="10.00"> </text>
<polygon fill="#666666" stroke="#666666" points="0,-66 0,-66 101,-66 101,-66 0,-66"/>
<polygon fill="#666666" stroke="#666666" points="0,-18 0,-18 26,-18 26,-18 0,-18"/>
<polygon fill="#666666" stroke="#666666" points="26,-18 26,-18 101,-18 101,-18 26,-18"/>
<polygon fill="none" stroke="#666666" points="0,0 0,-96 101,-96 101,0 0,0"/>
</a>
</g>
</g>
</g>
</svg>
