<?xml version="1.0" encoding="UTF-8" standalone="no"?>
<!DOCTYPE svg PUBLIC "-//W3C//DTD SVG 1.1//EN"
 "http://www.w3.org/Graphics/SVG/1.1/DTD/svg11.dtd">
<!-- Generated by graphviz version 12.1.0 (20240811.2233)
 -->
<!-- Title: RtypeServer::ClientSession Pages: 1 -->
<svg width="139pt" height="140pt"
 viewBox="0.00 0.00 139.00 140.00" xmlns="http://www.w3.org/2000/svg" xmlns:xlink="http://www.w3.org/1999/xlink">
<g id="graph0" class="graph" transform="scale(1 1) rotate(0) translate(4 136)">
<title>RtypeServer::ClientSession</title>
<!-- Node1 -->
<g id="Node000001" class="node">
<title>Node1</title>
<g id="a_Node000001"><a xlink:title=" ">
<polygon fill="#999999" stroke="none" points="131,-132 0,-132 0,0 131,0 131,-132"/>
<text text-anchor="start" x="4.75" y="-118.5" font-family="Helvetica,sans-Serif" font-size="10.00">RtypeServer::ClientSession</text>
<text text-anchor="start" x="18" y="-102.5" font-family="Helvetica,sans-Serif" font-size="10.00">+</text>
<text text-anchor="start" x="42" y="-102.5" font-family="Helvetica,sans-Serif" font-size="10.00">playerId</text>
<text text-anchor="start" x="18" y="-86.5" font-family="Helvetica,sans-Serif" font-size="10.00">+</text>
<text text-anchor="start" x="42" y="-86.5" font-family="Helvetica,sans-Serif" font-size="10.00">playerName</text>
<text text-anchor="start" x="18" y="-70.5" font-family="Helvetica,sans-Serif" font-size="10.00">+</text>
<text text-anchor="start" x="42" y="-70.5" font-family="Helvetica,sans-Serif" font-size="10.00">endpoint</text>
<text text-anchor="start" x="18" y="-54.5" font-family="Helvetica,sans-Serif" font-size="10.00">+</text>
<text text-anchor="start" x="42" y="-54.5" font-family="Helvetica,sans-Serif" font-size="10.00">lastSeen</text>
<text text-anchor="start" x="18" y="-38.5" font-family="Helvetica,sans-Serif" font-size="10.00">+</text>
<text text-anchor="start" x="42" y="-38.5" font-family="Helvetica,sans-Serif" font-size="10.00">lastPing</text>
<text text-anchor="start" x="18" y="-22.5" font-family="Helvetica,sans-Serif" font-size="10.00">+</text>
<text text-anchor="start" x="42" y="-22.5" font-family="Helvetica,sans-Serif" font-size="10.00">currentRoom</text>
<text text-anchor="start" x="64" y="-6.5" font-family="Helvetica,sans-Serif" font-size="10.00"> </text>
<polygon fill="#666666" stroke="#666666" points="0,-114 0,-114 131,-114 131,-114 0,-114"/>
<polygon fill="#666666" stroke="#666666" points="0,-18 0,-18 40,-18 40,-18 0,-18"/>
<polygon fill="#666666" stroke="#666666" points="40,-18 40,-18 131,-18 131,-18 40,-18"/>
<polygon fill="none" stroke="#666666" points="0,0 0,-132 131,-132 131,0 0,0"/>
</a>
</g>
</g>
</g>
</svg>
