<?xml version="1.0" encoding="UTF-8" standalone="no"?>
<!DOCTYPE svg PUBLIC "-//W3C//DTD SVG 1.1//EN"
 "http://www.w3.org/Graphics/SVG/1.1/DTD/svg11.dtd">
<!-- Generated by graphviz version 12.1.0 (20240811.2233)
 -->
<!-- Title: Engine::NetworkManager::WelcomeBody Pages: 1 -->
<svg width="128pt" height="104pt"
 viewBox="0.00 0.00 128.00 104.00" xmlns="http://www.w3.org/2000/svg" xmlns:xlink="http://www.w3.org/1999/xlink">
<g id="graph0" class="graph" transform="scale(1 1) rotate(0) translate(4 100)">
<title>Engine::NetworkManager::WelcomeBody</title>
<!-- Node1 -->
<g id="Node000001" class="node">
<title>Node1</title>
<g id="a_Node000001"><a xlink:title=" ">
<polygon fill="#999999" stroke="none" points="120,-96 0,-96 0,0 120,0 120,-96"/>
<text text-anchor="start" x="4.88" y="-82.5" font-family="Helvetica,sans-Serif" font-size="10.00">Engine::NetworkManager</text>
<text text-anchor="start" x="25.5" y="-70.5" font-family="Helvetica,sans-Serif" font-size="10.00">::WelcomeBody</text>
<text text-anchor="start" x="15" y="-54.5" font-family="Helvetica,sans-Serif" font-size="10.00">+</text>
<text text-anchor="start" x="36" y="-54.5" font-family="Helvetica,sans-Serif" font-size="10.00">player_id</text>
<text text-anchor="start" x="15" y="-38.5" font-family="Helvetica,sans-Serif" font-size="10.00">+</text>
<text text-anchor="start" x="36" y="-38.5" font-family="Helvetica,sans-Serif" font-size="10.00">room_id</text>
<text text-anchor="start" x="15" y="-22.5" font-family="Helvetica,sans-Serif" font-size="10.00">+</text>
<text text-anchor="start" x="36" y="-22.5" font-family="Helvetica,sans-Serif" font-size="10.00">baseline_tick</text>
<text text-anchor="start" x="58.5" y="-6.5" font-family="Helvetica,sans-Serif" font-size="10.00"> </text>
<polygon fill="#666666" stroke="#666666" points="0,-66 0,-66 120,-66 120,-66 0,-66"/>
<polygon fill="#666666" stroke="#666666" points="0,-18 0,-18 34,-18 34,-18 0,-18"/>
<polygon fill="#666666" stroke="#666666" points="34,-18 34,-18 120,-18 120,-18 34,-18"/>
<polygon fill="none" stroke="#666666" points="0,0 0,-96 120,-96 120,0 0,0"/>
</a>
</g>
</g>
</g>
</svg>
