<?xml version="1.0" encoding="UTF-8" standalone="no"?>
<!DOCTYPE svg PUBLIC "-//W3C//DTD SVG 1.1//EN"
 "http://www.w3.org/Graphics/SVG/1.1/DTD/svg11.dtd">
<!-- Generated by graphviz version 12.1.0 (20240811.2233)
 -->
<!-- Title: Engine::Systems::Sound_s Pages: 1 -->
<svg width="137pt" height="60pt"
 viewBox="0.00 0.00 137.00 60.00" xmlns="http://www.w3.org/2000/svg" xmlns:xlink="http://www.w3.org/1999/xlink">
<g id="graph0" class="graph" transform="scale(1 1) rotate(0) translate(4 56)">
<title>Engine::Systems::Sound_s</title>
<!-- Node1 -->
<g id="Node000001" class="node">
<title>Node1</title>
<g id="a_Node000001"><a xlink:title=" ">
<polygon fill="#999999" stroke="none" points="129,-52 0,-52 0,0 129,0 129,-52"/>
<text text-anchor="start" x="4.88" y="-38.5" font-family="Helvetica,sans-Serif" font-size="10.00">Engine::Systems::Sound_s</text>
<text text-anchor="start" x="18" y="-22.5" font-family="Helvetica,sans-Serif" font-size="10.00">+</text>
<text text-anchor="start" x="42" y="-22.5" font-family="Helvetica,sans-Serif" font-size="10.00">sound_name</text>
<text text-anchor="start" x="63" y="-6.5" font-family="Helvetica,sans-Serif" font-size="10.00"> </text>
<polygon fill="#666666" stroke="#666666" points="0,-34 0,-34 129,-34 129,-34 0,-34"/>
<polygon fill="#666666" stroke="#666666" points="0,-18 0,-18 40,-18 40,-18 0,-18"/>
<polygon fill="#666666" stroke="#666666" points="40,-18 40,-18 129,-18 129,-18 40,-18"/>
<polygon fill="none" stroke="#666666" points="0,0 0,-52 129,-52 129,0 0,0"/>
</a>
</g>
</g>
</g>
</svg>
