<?xml version="1.0" encoding="UTF-8" standalone="no"?>
<!DOCTYPE svg PUBLIC "-//W3C//DTD SVG 1.1//EN"
 "http://www.w3.org/Graphics/SVG/1.1/DTD/svg11.dtd">
<!-- Generated by graphviz version 12.1.0 (20240811.2233)
 -->
<!-- Title: Engine::Components::RigidBody_s Pages: 1 -->
<svg width="120pt" height="296pt"
 viewBox="0.00 0.00 120.00 296.00" xmlns="http://www.w3.org/2000/svg" xmlns:xlink="http://www.w3.org/1999/xlink">
<g id="graph0" class="graph" transform="scale(1 1) rotate(0) translate(4 292)">
<title>Engine::Components::RigidBody_s</title>
<!-- Node1 -->
<g id="Node000001" class="node">
<title>Node1</title>
<g id="a_Node000001"><a xlink:title=" ">
<polygon fill="#999999" stroke="none" points="101,-64 0,-64 0,0 101,0 101,-64"/>
<text text-anchor="start" x="4.75" y="-50.5" font-family="Helvetica,sans-Serif" font-size="10.00">Engine::Components</text>
<text text-anchor="start" x="19.75" y="-38.5" font-family="Helvetica,sans-Serif" font-size="10.00">::RigidBody_s</text>
<text text-anchor="start" x="49" y="-22.5" font-family="Helvetica,sans-Serif" font-size="10.00"> </text>
<text text-anchor="start" x="49" y="-6.5" font-family="Helvetica,sans-Serif" font-size="10.00"> </text>
<polygon fill="#666666" stroke="#666666" points="0,-34 0,-34 101,-34 101,-34 0,-34"/>
<polygon fill="#666666" stroke="#666666" points="0,-18 0,-18 101,-18 101,-18 0,-18"/>
<polygon fill="none" stroke="#666666" points="0,0 0,-64 101,-64 101,0 0,0"/>
</a>
</g>
</g>
<!-- Node2 -->
<g id="Node000002" class="node">
<title>Node2</title>
<g id="a_Node000002"><a xlink:href="classEngine_1_1Utils_1_1Vec2.html" target="_top" xlink:title=" ">
<polygon fill="white" stroke="none" points="97.5,-288 3.5,-288 3.5,-124 97.5,-124 97.5,-288"/>
<text text-anchor="start" x="8.5" y="-274.5" font-family="Helvetica,sans-Serif" font-size="10.00">Engine::Utils::Vec2</text>
<text text-anchor="start" x="13" y="-258.5" font-family="Helvetica,sans-Serif" font-size="10.00">+</text>
<text text-anchor="start" x="28.5" y="-258.5" font-family="Helvetica,sans-Serif" font-size="10.00">x</text>
<text text-anchor="start" x="13" y="-242.5" font-family="Helvetica,sans-Serif" font-size="10.00">+</text>
<text text-anchor="start" x="28.5" y="-242.5" font-family="Helvetica,sans-Serif" font-size="10.00">y</text>
<text text-anchor="start" x="13" y="-226.5" font-family="Helvetica,sans-Serif" font-size="10.00">+</text>
<text text-anchor="start" x="28.5" y="-226.5" font-family="Helvetica,sans-Serif" font-size="10.00">Vec2()</text>
<text text-anchor="start" x="13" y="-210.5" font-family="Helvetica,sans-Serif" font-size="10.00">+</text>
<text text-anchor="start" x="28.5" y="-210.5" font-family="Helvetica,sans-Serif" font-size="10.00">Vec2()</text>
<text text-anchor="start" x="13" y="-194.5" font-family="Helvetica,sans-Serif" font-size="10.00">+</text>
<text text-anchor="start" x="28.5" y="-194.5" font-family="Helvetica,sans-Serif" font-size="10.00">operator+()</text>
<text text-anchor="start" x="13" y="-178.5" font-family="Helvetica,sans-Serif" font-size="10.00">+</text>
<text text-anchor="start" x="28.5" y="-178.5" font-family="Helvetica,sans-Serif" font-size="10.00">operator+=()</text>
<text text-anchor="start" x="13" y="-162.5" font-family="Helvetica,sans-Serif" font-size="10.00">+</text>
<text text-anchor="start" x="28.5" y="-162.5" font-family="Helvetica,sans-Serif" font-size="10.00">operator&#45;()</text>
<text text-anchor="start" x="13" y="-146.5" font-family="Helvetica,sans-Serif" font-size="10.00">+</text>
<text text-anchor="start" x="28.5" y="-146.5" font-family="Helvetica,sans-Serif" font-size="10.00">operator&#45;=()</text>
<text text-anchor="start" x="13" y="-130.5" font-family="Helvetica,sans-Serif" font-size="10.00">+</text>
<text text-anchor="start" x="28.5" y="-130.5" font-family="Helvetica,sans-Serif" font-size="10.00">operator*()</text>
<polygon fill="#666666" stroke="#666666" points="3.5,-270 3.5,-270 97.5,-270 97.5,-270 3.5,-270"/>
<polygon fill="#666666" stroke="#666666" points="3.5,-238 3.5,-238 26.5,-238 26.5,-238 3.5,-238"/>
<polygon fill="#666666" stroke="#666666" points="26.5,-238 26.5,-238 97.5,-238 97.5,-238 26.5,-238"/>
<polygon fill="none" stroke="#666666" points="3.5,-124 3.5,-288 97.5,-288 97.5,-124 3.5,-124"/>
</a>
</g>
</g>
<!-- Node2&#45;&gt;Node1 -->
<g id="edge1_Node000001_Node000002" class="edge">
<title>Node2&#45;&gt;Node1</title>
<g id="a_edge1_Node000001_Node000002"><a xlink:title=" ">
<path fill="none" stroke="#63b8ff" d="M50.5,-124.04C50.5,-107.63 50.5,-90.97 50.5,-76.47"/>
<polygon fill="none" stroke="#63b8ff" points="50.5,-76.73 46.5,-70.73 50.5,-64.73 54.5,-70.73 50.5,-76.73"/>
</a>
</g>
<text text-anchor="middle" x="81.25" y="-96.5" font-family="Helvetica,sans-Serif" font-size="10.00" fill="grey"> +acceleration</text>
<text text-anchor="middle" x="81.25" y="-84.5" font-family="Helvetica,sans-Serif" font-size="10.00" fill="grey">+velocity</text>
</g>
</g>
</svg>
