<?xml version="1.0" encoding="UTF-8" standalone="no"?>
<!DOCTYPE svg PUBLIC "-//W3C//DTD SVG 1.1//EN"
 "http://www.w3.org/Graphics/SVG/1.1/DTD/svg11.dtd">
<!-- Generated by graphviz version 12.1.0 (20240811.2233)
 -->
<!-- Title: RtypeServer::RoomCreatedBody Pages: 1 -->
<svg width="162pt" height="92pt"
 viewBox="0.00 0.00 162.00 92.00" xmlns="http://www.w3.org/2000/svg" xmlns:xlink="http://www.w3.org/1999/xlink">
<g id="graph0" class="graph" transform="scale(1 1) rotate(0) translate(4 88)">
<title>RtypeServer::RoomCreatedBody</title>
<!-- Node1 -->
<g id="Node000001" class="node">
<title>Node1</title>
<g id="a_Node000001"><a xlink:title=" ">
<polygon fill="#999999" stroke="none" points="154,-84 0,-84 0,0 154,0 154,-84"/>
<text text-anchor="start" x="5" y="-70.5" font-family="Helvetica,sans-Serif" font-size="10.00">RtypeServer::RoomCreatedBody</text>
<text text-anchor="start" x="26" y="-54.5" font-family="Helvetica,sans-Serif" font-size="10.00">+</text>
<text text-anchor="start" x="58" y="-54.5" font-family="Helvetica,sans-Serif" font-size="10.00">roomId</text>
<text text-anchor="start" x="26" y="-38.5" font-family="Helvetica,sans-Serif" font-size="10.00">+</text>
<text text-anchor="start" x="58" y="-38.5" font-family="Helvetica,sans-Serif" font-size="10.00">roomName</text>
<text text-anchor="start" x="26" y="-22.5" font-family="Helvetica,sans-Serif" font-size="10.00">+</text>
<text text-anchor="start" x="58" y="-22.5" font-family="Helvetica,sans-Serif" font-size="10.00">success</text>
<text text-anchor="start" x="75.5" y="-6.5" font-family="Helvetica,sans-Serif" font-size="10.00"> </text>
<polygon fill="#666666" stroke="#666666" points="0,-66 0,-66 154,-66 154,-66 0,-66"/>
<polygon fill="#666666" stroke="#666666" points="0,-18 0,-18 56,-18 56,-18 0,-18"/>
<polygon fill="#666666" stroke="#666666" points="56,-18 56,-18 154,-18 154,-18 56,-18"/>
<polygon fill="none" stroke="#666666" points="0,0 0,-84 154,-84 154,0 0,0"/>
</a>
</g>
</g>
</g>
</svg>
