<?xml version="1.0" encoding="UTF-8" standalone="no"?>
<!DOCTYPE svg PUBLIC "-//W3C//DTD SVG 1.1//EN"
 "http://www.w3.org/Graphics/SVG/1.1/DTD/svg11.dtd">
<!-- Generated by graphviz version 12.1.0 (20240811.2233)
 -->
<!-- Title: RtypeServer::NetHeader Pages: 1 -->
<svg width="126pt" height="140pt"
 viewBox="0.00 0.00 126.00 140.00" xmlns="http://www.w3.org/2000/svg" xmlns:xlink="http://www.w3.org/1999/xlink">
<g id="graph0" class="graph" transform="scale(1 1) rotate(0) translate(4 136)">
<title>RtypeServer::NetHeader</title>
<!-- Node1 -->
<g id="Node000001" class="node">
<title>Node1</title>
<g id="a_Node000001"><a xlink:title=" ">
<polygon fill="#999999" stroke="none" points="118,-132 0,-132 0,0 118,0 118,-132"/>
<text text-anchor="start" x="5" y="-118.5" font-family="Helvetica,sans-Serif" font-size="10.00">RtypeServer::NetHeader</text>
<text text-anchor="start" x="20.5" y="-102.5" font-family="Helvetica,sans-Serif" font-size="10.00">+</text>
<text text-anchor="start" x="47" y="-102.5" font-family="Helvetica,sans-Serif" font-size="10.00">magic</text>
<text text-anchor="start" x="20.5" y="-86.5" font-family="Helvetica,sans-Serif" font-size="10.00">+</text>
<text text-anchor="start" x="47" y="-86.5" font-family="Helvetica,sans-Serif" font-size="10.00">version</text>
<text text-anchor="start" x="20.5" y="-70.5" font-family="Helvetica,sans-Serif" font-size="10.00">+</text>
<text text-anchor="start" x="47" y="-70.5" font-family="Helvetica,sans-Serif" font-size="10.00">type</text>
<text text-anchor="start" x="20.5" y="-54.5" font-family="Helvetica,sans-Serif" font-size="10.00">+</text>
<text text-anchor="start" x="47" y="-54.5" font-family="Helvetica,sans-Serif" font-size="10.00">seq</text>
<text text-anchor="start" x="20.5" y="-38.5" font-family="Helvetica,sans-Serif" font-size="10.00">+</text>
<text text-anchor="start" x="47" y="-38.5" font-family="Helvetica,sans-Serif" font-size="10.00">ack</text>
<text text-anchor="start" x="20.5" y="-22.5" font-family="Helvetica,sans-Serif" font-size="10.00">+</text>
<text text-anchor="start" x="47" y="-22.5" font-family="Helvetica,sans-Serif" font-size="10.00">ackBits</text>
<text text-anchor="start" x="57.5" y="-6.5" font-family="Helvetica,sans-Serif" font-size="10.00"> </text>
<polygon fill="#666666" stroke="#666666" points="0,-114 0,-114 118,-114 118,-114 0,-114"/>
<polygon fill="#666666" stroke="#666666" points="0,-18 0,-18 45,-18 45,-18 0,-18"/>
<polygon fill="#666666" stroke="#666666" points="45,-18 45,-18 118,-18 118,-18 45,-18"/>
<polygon fill="none" stroke="#666666" points="0,0 0,-132 118,-132 118,0 0,0"/>
</a>
</g>
</g>
</g>
</svg>
