<?xml version="1.0" encoding="UTF-8" standalone="no"?>
<!DOCTYPE svg PUBLIC "-//W3C//DTD SVG 1.1//EN"
 "http://www.w3.org/Graphics/SVG/1.1/DTD/svg11.dtd">
<!-- Generated by graphviz version 12.1.0 (20240811.2233)
 -->
<!-- Title: Engine::Components::Sprite_s Pages: 1 -->
<svg width="109pt" height="120pt"
 viewBox="0.00 0.00 109.00 120.00" xmlns="http://www.w3.org/2000/svg" xmlns:xlink="http://www.w3.org/1999/xlink">
<g id="graph0" class="graph" transform="scale(1 1) rotate(0) translate(4 116)">
<title>Engine::Components::Sprite_s</title>
<!-- Node1 -->
<g id="Node000001" class="node">
<title>Node1</title>
<g id="a_Node000001"><a xlink:title=" ">
<polygon fill="#999999" stroke="none" points="101,-112 0,-112 0,0 101,0 101,-112"/>
<text text-anchor="start" x="4.75" y="-98.5" font-family="Helvetica,sans-Serif" font-size="10.00">Engine::Components</text>
<text text-anchor="start" x="29.5" y="-86.5" font-family="Helvetica,sans-Serif" font-size="10.00">::Sprite_s</text>
<text text-anchor="start" x="9" y="-70.5" font-family="Helvetica,sans-Serif" font-size="10.00">+</text>
<text text-anchor="start" x="24" y="-70.5" font-family="Helvetica,sans-Serif" font-size="10.00">sprite_name</text>
<text text-anchor="start" x="9" y="-54.5" font-family="Helvetica,sans-Serif" font-size="10.00">+</text>
<text text-anchor="start" x="24" y="-54.5" font-family="Helvetica,sans-Serif" font-size="10.00">frame_nb</text>
<text text-anchor="start" x="9" y="-38.5" font-family="Helvetica,sans-Serif" font-size="10.00">+</text>
<text text-anchor="start" x="24" y="-38.5" font-family="Helvetica,sans-Serif" font-size="10.00">scrolling</text>
<text text-anchor="start" x="9" y="-22.5" font-family="Helvetica,sans-Serif" font-size="10.00">+</text>
<text text-anchor="start" x="24" y="-22.5" font-family="Helvetica,sans-Serif" font-size="10.00">is_background</text>
<text text-anchor="start" x="49" y="-6.5" font-family="Helvetica,sans-Serif" font-size="10.00"> </text>
<polygon fill="#666666" stroke="#666666" points="0,-82 0,-82 101,-82 101,-82 0,-82"/>
<polygon fill="#666666" stroke="#666666" points="0,-18 0,-18 22,-18 22,-18 0,-18"/>
<polygon fill="#666666" stroke="#666666" points="22,-18 22,-18 101,-18 101,-18 22,-18"/>
<polygon fill="none" stroke="#666666" points="0,0 0,-112 101,-112 101,0 0,0"/>
</a>
</g>
</g>
</g>
</svg>
