<?xml version="1.0" encoding="UTF-8" standalone="no"?>
<!DOCTYPE svg PUBLIC "-//W3C//DTD SVG 1.1//EN"
 "http://www.w3.org/Graphics/SVG/1.1/DTD/svg11.dtd">
<!-- Generated by graphviz version 12.1.0 (20240811.2233)
 -->
<!-- Title: Engine::NetworkManager::EntityBody Pages: 1 -->
<svg width="128pt" height="88pt"
 viewBox="0.00 0.00 128.00 88.00" xmlns="http://www.w3.org/2000/svg" xmlns:xlink="http://www.w3.org/1999/xlink">
<g id="graph0" class="graph" transform="scale(1 1) rotate(0) translate(4 84)">
<title>Engine::NetworkManager::EntityBody</title>
<!-- Node1 -->
<g id="Node000001" class="node">
<title>Node1</title>
<g id="a_Node000001"><a xlink:title=" ">
<polygon fill="#999999" stroke="none" points="120,-80 0,-80 0,0 120,0 120,-80"/>
<text text-anchor="start" x="4.88" y="-66.5" font-family="Helvetica,sans-Serif" font-size="10.00">Engine::NetworkManager</text>
<text text-anchor="start" x="33" y="-54.5" font-family="Helvetica,sans-Serif" font-size="10.00">::EntityBody</text>
<text text-anchor="start" x="19.5" y="-38.5" font-family="Helvetica,sans-Serif" font-size="10.00">+</text>
<text text-anchor="start" x="45" y="-38.5" font-family="Helvetica,sans-Serif" font-size="10.00">entity_id</text>
<text text-anchor="start" x="19.5" y="-22.5" font-family="Helvetica,sans-Serif" font-size="10.00">+</text>
<text text-anchor="start" x="45" y="-22.5" font-family="Helvetica,sans-Serif" font-size="10.00">signature</text>
<text text-anchor="start" x="58.5" y="-6.5" font-family="Helvetica,sans-Serif" font-size="10.00"> </text>
<polygon fill="#666666" stroke="#666666" points="0,-50 0,-50 120,-50 120,-50 0,-50"/>
<polygon fill="#666666" stroke="#666666" points="0,-18 0,-18 43,-18 43,-18 0,-18"/>
<polygon fill="#666666" stroke="#666666" points="43,-18 43,-18 120,-18 120,-18 43,-18"/>
<polygon fill="none" stroke="#666666" points="0,0 0,-80 120,-80 120,0 0,0"/>
</a>
</g>
</g>
</g>
</svg>
