<?xml version="1.0" encoding="UTF-8" standalone="no"?>
<!DOCTYPE svg PUBLIC "-//W3C//DTD SVG 1.1//EN"
 "http://www.w3.org/Graphics/SVG/1.1/DTD/svg11.dtd">
<!-- Generated by graphviz version 12.1.0 (20240811.2233)
 -->
<!-- Title: SystemManager.cpp Pages: 1 -->
<svg width="351pt" height="252pt"
 viewBox="0.00 0.00 351.38 252.00" xmlns="http://www.w3.org/2000/svg" xmlns:xlink="http://www.w3.org/1999/xlink">
<g id="graph0" class="graph" transform="scale(1 1) rotate(0) translate(4 248)">
<title>SystemManager.cpp</title>
<!-- Node1 -->
<g id="Node000001" class="node">
<title>Node1</title>
<g id="a_Node000001"><a xlink:title=" ">
<polygon fill="#999999" stroke="#666666" points="205.38,-244 99.38,-244 99.38,-224 205.38,-224 205.38,-244"/>
<text text-anchor="middle" x="152.38" y="-230.5" font-family="Helvetica,sans-Serif" font-size="10.00">SystemManager.cpp</text>
</a>
</g>
</g>
<!-- Node2 -->
<g id="Node000002" class="node">
<title>Node2</title>
<g id="a_Node000002"><a xlink:href="SystemManager_8hpp.html" target="_top" xlink:title=" ">
<polygon fill="white" stroke="#666666" points="205.38,-188 99.38,-188 99.38,-168 205.38,-168 205.38,-188"/>
<text text-anchor="middle" x="152.38" y="-174.5" font-family="Helvetica,sans-Serif" font-size="10.00">SystemManager.hpp</text>
</a>
</g>
</g>
<!-- Node1&#45;&gt;Node2 -->
<g id="edge1_Node000001_Node000002" class="edge">
<title>Node1&#45;&gt;Node2</title>
<g id="a_edge1_Node000001_Node000002"><a xlink:title=" ">
<path fill="none" stroke="#63b8ff" d="M152.38,-223.59C152.38,-217.01 152.38,-207.96 152.38,-199.73"/>
<polygon fill="#63b8ff" stroke="#63b8ff" points="155.88,-199.81 152.38,-189.81 148.88,-199.81 155.88,-199.81"/>
</a>
</g>
</g>
<!-- Node3 -->
<g id="Node000003" class="node">
<title>Node3</title>
<g id="a_Node000003"><a xlink:title=" ">
<polygon fill="#e0e0e0" stroke="#999999" points="82.75,-132 0,-132 0,-112 82.75,-112 82.75,-132"/>
<text text-anchor="middle" x="41.38" y="-118.5" font-family="Helvetica,sans-Serif" font-size="10.00">unordered_map</text>
</a>
</g>
</g>
<!-- Node2&#45;&gt;Node3 -->
<g id="edge2_Node000002_Node000003" class="edge">
<title>Node2&#45;&gt;Node3</title>
<g id="a_edge2_Node000002_Node000003"><a xlink:title=" ">
<path fill="none" stroke="#63b8ff" d="M133.04,-167.59C115.96,-159.28 90.77,-147.03 71.12,-137.47"/>
<polygon fill="#63b8ff" stroke="#63b8ff" points="72.75,-134.37 62.22,-133.14 69.68,-140.66 72.75,-134.37"/>
</a>
</g>
</g>
<!-- Node4 -->
<g id="Node000004" class="node">
<title>Node4</title>
<g id="a_Node000004"><a xlink:title=" ">
<polygon fill="#e0e0e0" stroke="#999999" points="140.38,-132 100.38,-132 100.38,-112 140.38,-112 140.38,-132"/>
<text text-anchor="middle" x="120.38" y="-118.5" font-family="Helvetica,sans-Serif" font-size="10.00">string</text>
</a>
</g>
</g>
<!-- Node2&#45;&gt;Node4 -->
<g id="edge3_Node000002_Node000004" class="edge">
<title>Node2&#45;&gt;Node4</title>
<g id="a_edge3_Node000002_Node000004"><a xlink:title=" ">
<path fill="none" stroke="#63b8ff" d="M146.8,-167.59C142.63,-160.55 136.77,-150.67 131.63,-142"/>
<polygon fill="#63b8ff" stroke="#63b8ff" points="134.77,-140.42 126.66,-133.6 128.74,-143.99 134.77,-140.42"/>
</a>
</g>
</g>
<!-- Node5 -->
<g id="Node000005" class="node">
<title>Node5</title>
<g id="a_Node000005"><a xlink:title=" ">
<polygon fill="#e0e0e0" stroke="#999999" points="210,-132 158.75,-132 158.75,-112 210,-112 210,-132"/>
<text text-anchor="middle" x="184.38" y="-118.5" font-family="Helvetica,sans-Serif" font-size="10.00">memory</text>
</a>
</g>
</g>
<!-- Node2&#45;&gt;Node5 -->
<g id="edge4_Node000002_Node000005" class="edge">
<title>Node2&#45;&gt;Node5</title>
<g id="a_edge4_Node000002_Node000005"><a xlink:title=" ">
<path fill="none" stroke="#63b8ff" d="M157.95,-167.59C162.12,-160.55 167.98,-150.67 173.12,-142"/>
<polygon fill="#63b8ff" stroke="#63b8ff" points="176.01,-143.99 178.09,-133.6 169.98,-140.42 176.01,-143.99"/>
</a>
</g>
</g>
<!-- Node6 -->
<g id="Node000006" class="node">
<title>Node6</title>
<g id="a_Node000006"><a xlink:href="System_8hpp.html" target="_top" xlink:title=" ">
<polygon fill="white" stroke="#666666" points="296.62,-132 228.12,-132 228.12,-112 296.62,-112 296.62,-132"/>
<text text-anchor="middle" x="262.38" y="-118.5" font-family="Helvetica,sans-Serif" font-size="10.00">System.hpp</text>
</a>
</g>
</g>
<!-- Node2&#45;&gt;Node6 -->
<g id="edge5_Node000002_Node000006" class="edge">
<title>Node2&#45;&gt;Node6</title>
<g id="a_edge5_Node000002_Node000006"><a xlink:title=" ">
<path fill="none" stroke="#63b8ff" d="M171.54,-167.59C188.47,-159.28 213.42,-147.03 232.9,-137.47"/>
<polygon fill="#63b8ff" stroke="#63b8ff" points="234.27,-140.7 241.71,-133.15 231.19,-134.41 234.27,-140.7"/>
</a>
</g>
</g>
<!-- Node7 -->
<g id="Node000007" class="node">
<title>Node7</title>
<g id="a_Node000007"><a xlink:title=" ">
<polygon fill="#e0e0e0" stroke="#999999" points="245.12,-76 215.62,-76 215.62,-56 245.12,-56 245.12,-76"/>
<text text-anchor="middle" x="230.38" y="-62.5" font-family="Helvetica,sans-Serif" font-size="10.00">set</text>
</a>
</g>
</g>
<!-- Node6&#45;&gt;Node7 -->
<g id="edge6_Node000006_Node000007" class="edge">
<title>Node6&#45;&gt;Node7</title>
<g id="a_edge6_Node000006_Node000007"><a xlink:title=" ">
<path fill="none" stroke="#63b8ff" d="M256.8,-111.59C252.63,-104.55 246.77,-94.67 241.63,-86"/>
<polygon fill="#63b8ff" stroke="#63b8ff" points="244.77,-84.42 236.66,-77.6 238.74,-87.99 244.77,-84.42"/>
</a>
</g>
</g>
<!-- Node8 -->
<g id="Node000008" class="node">
<title>Node8</title>
<g id="a_Node000008"><a xlink:href="Entity_8hpp.html" target="_top" xlink:title=" ">
<polygon fill="white" stroke="#666666" points="323.12,-76 263.62,-76 263.62,-56 323.12,-56 323.12,-76"/>
<text text-anchor="middle" x="293.38" y="-62.5" font-family="Helvetica,sans-Serif" font-size="10.00">Entity.hpp</text>
</a>
</g>
</g>
<!-- Node6&#45;&gt;Node8 -->
<g id="edge7_Node000006_Node000008" class="edge">
<title>Node6&#45;&gt;Node8</title>
<g id="a_edge7_Node000006_Node000008"><a xlink:title=" ">
<path fill="none" stroke="#63b8ff" d="M267.77,-111.59C271.82,-104.55 277.49,-94.67 282.47,-86"/>
<polygon fill="#63b8ff" stroke="#63b8ff" points="285.34,-88.03 287.28,-77.61 279.27,-84.54 285.34,-88.03"/>
</a>
</g>
</g>
<!-- Node9 -->
<g id="Node000009" class="node">
<title>Node9</title>
<g id="a_Node000009"><a xlink:title=" ">
<polygon fill="#e0e0e0" stroke="#999999" points="285,-20 239.75,-20 239.75,0 285,0 285,-20"/>
<text text-anchor="middle" x="262.38" y="-6.5" font-family="Helvetica,sans-Serif" font-size="10.00">cstdint</text>
</a>
</g>
</g>
<!-- Node8&#45;&gt;Node9 -->
<g id="edge8_Node000008_Node000009" class="edge">
<title>Node8&#45;&gt;Node9</title>
<g id="a_edge8_Node000008_Node000009"><a xlink:title=" ">
<path fill="none" stroke="#63b8ff" d="M287.98,-55.59C283.93,-48.55 278.26,-38.67 273.28,-30"/>
<polygon fill="#63b8ff" stroke="#63b8ff" points="276.48,-28.54 268.47,-21.61 270.41,-32.03 276.48,-28.54"/>
</a>
</g>
</g>
<!-- Node10 -->
<g id="Node000010" class="node">
<title>Node10</title>
<g id="a_Node000010"><a xlink:title=" ">
<polygon fill="#e0e0e0" stroke="#999999" points="343.38,-20 303.38,-20 303.38,0 343.38,0 343.38,-20"/>
<text text-anchor="middle" x="323.38" y="-6.5" font-family="Helvetica,sans-Serif" font-size="10.00">bitset</text>
</a>
</g>
</g>
<!-- Node8&#45;&gt;Node10 -->
<g id="edge9_Node000008_Node000010" class="edge">
<title>Node8&#45;&gt;Node10</title>
<g id="a_edge9_Node000008_Node000010"><a xlink:title=" ">
<path fill="none" stroke="#63b8ff" d="M298.6,-55.59C302.47,-48.63 307.88,-38.89 312.66,-30.29"/>
<polygon fill="#63b8ff" stroke="#63b8ff" points="315.68,-32.06 317.47,-21.62 309.56,-28.66 315.68,-32.06"/>
</a>
</g>
</g>
</g>
</svg>
