<?xml version="1.0" encoding="UTF-8" standalone="no"?>
<!DOCTYPE svg PUBLIC "-//W3C//DTD SVG 1.1//EN"
 "http://www.w3.org/Graphics/SVG/1.1/DTD/svg11.dtd">
<!-- Generated by graphviz version 12.1.0 (20240811.2233)
 -->
<!-- Title: SystemManager.hpp Pages: 1 -->
<svg width="380pt" height="196pt"
 viewBox="0.00 0.00 379.71 196.00" xmlns="http://www.w3.org/2000/svg" xmlns:xlink="http://www.w3.org/1999/xlink">
<g id="graph0" class="graph" transform="scale(1 1) rotate(0) translate(4 192)">
<title>SystemManager.hpp</title>
<!-- Node1 -->
<g id="Node000001" class="node">
<title>Node1</title>
<g id="a_Node000001"><a xlink:title=" ">
<polygon fill="#999999" stroke="#666666" points="246.58,-188 140.58,-188 140.58,-168 246.58,-168 246.58,-188"/>
<text text-anchor="middle" x="193.58" y="-174.5" font-family="Helvetica,sans-Serif" font-size="10.00">SystemManager.hpp</text>
</a>
</g>
</g>
<!-- Node2 -->
<g id="Node000002" class="node">
<title>Node2</title>
<g id="a_Node000002"><a xlink:href="Mediator_8hpp.html" target="_top" xlink:title=" ">
<polygon fill="white" stroke="#666666" points="176.71,-132 104.46,-132 104.46,-112 176.71,-112 176.71,-132"/>
<text text-anchor="middle" x="140.58" y="-118.5" font-family="Helvetica,sans-Serif" font-size="10.00">Mediator.hpp</text>
</a>
</g>
</g>
<!-- Node1&#45;&gt;Node2 -->
<g id="edge1_Node000001_Node000002" class="edge">
<title>Node1&#45;&gt;Node2</title>
<g id="a_edge1_Node000001_Node000002"><a xlink:title=" ">
<path fill="none" stroke="#63b8ff" d="M176.47,-159.57C167.57,-150.5 157.05,-139.78 149.71,-132.3"/>
<polygon fill="#63b8ff" stroke="#63b8ff" points="173.79,-161.83 183.29,-166.51 178.78,-156.93 173.79,-161.83"/>
</a>
</g>
</g>
<!-- Node8 -->
<g id="Node000008" class="node">
<title>Node8</title>
<g id="a_Node000008"><a xlink:href="SystemManager_8cpp.html" target="_top" xlink:title=" ">
<polygon fill="white" stroke="#666666" points="300.58,-132 194.58,-132 194.58,-112 300.58,-112 300.58,-132"/>
<text text-anchor="middle" x="247.58" y="-118.5" font-family="Helvetica,sans-Serif" font-size="10.00">SystemManager.cpp</text>
</a>
</g>
</g>
<!-- Node1&#45;&gt;Node8 -->
<g id="edge10_Node000001_Node000008" class="edge">
<title>Node1&#45;&gt;Node8</title>
<g id="a_edge10_Node000001_Node000008"><a xlink:title=" ">
<path fill="none" stroke="#63b8ff" d="M211.01,-159.57C220.08,-150.5 230.8,-139.78 238.28,-132.3"/>
<polygon fill="#63b8ff" stroke="#63b8ff" points="208.65,-156.98 204.06,-166.52 213.6,-161.93 208.65,-156.98"/>
</a>
</g>
</g>
<!-- Node3 -->
<g id="Node000003" class="node">
<title>Node3</title>
<g id="a_Node000003"><a xlink:href="GameTypes_8cpp.html" target="_top" xlink:title=" ">
<polygon fill="white" stroke="#666666" points="234.21,-20 146.96,-20 146.96,0 234.21,0 234.21,-20"/>
<text text-anchor="middle" x="190.58" y="-6.5" font-family="Helvetica,sans-Serif" font-size="10.00">GameTypes.cpp</text>
</a>
</g>
</g>
<!-- Node2&#45;&gt;Node3 -->
<g id="edge2_Node000002_Node000003" class="edge">
<title>Node2&#45;&gt;Node3</title>
<g id="a_edge2_Node000002_Node000003"><a xlink:title=" ">
<path fill="none" stroke="#63b8ff" d="M92.87,-115.09C44.43,-107.11 -19.95,-89.8 6.58,-56 23.69,-34.21 97.99,-21.61 146.78,-15.54"/>
<polygon fill="#63b8ff" stroke="#63b8ff" points="92.24,-118.54 102.66,-116.61 93.31,-111.62 92.24,-118.54"/>
</a>
</g>
</g>
<!-- Node4 -->
<g id="Node000004" class="node">
<title>Node4</title>
<g id="a_Node000004"><a xlink:href="Mediator_8cpp.html" target="_top" xlink:title=" ">
<polygon fill="white" stroke="#666666" points="87.71,-76 15.46,-76 15.46,-56 87.71,-56 87.71,-76"/>
<text text-anchor="middle" x="51.58" y="-62.5" font-family="Helvetica,sans-Serif" font-size="10.00">Mediator.cpp</text>
</a>
</g>
</g>
<!-- Node2&#45;&gt;Node4 -->
<g id="edge3_Node000002_Node000004" class="edge">
<title>Node2&#45;&gt;Node4</title>
<g id="a_edge3_Node000002_Node000004"><a xlink:title=" ">
<path fill="none" stroke="#63b8ff" d="M115.55,-105.81C100.02,-96.39 80.56,-84.58 67.2,-76.48"/>
<polygon fill="#63b8ff" stroke="#63b8ff" points="113.42,-108.61 123.78,-110.81 117.05,-102.63 113.42,-108.61"/>
</a>
</g>
</g>
<!-- Node5 -->
<g id="Node000005" class="node">
<title>Node5</title>
<g id="a_Node000005"><a xlink:href="Physics_8hpp.html" target="_top" xlink:title=" ">
<polygon fill="white" stroke="#666666" points="175.58,-76 105.58,-76 105.58,-56 175.58,-56 175.58,-76"/>
<text text-anchor="middle" x="140.58" y="-62.5" font-family="Helvetica,sans-Serif" font-size="10.00">Physics.hpp</text>
</a>
</g>
</g>
<!-- Node2&#45;&gt;Node5 -->
<g id="edge4_Node000002_Node000005" class="edge">
<title>Node2&#45;&gt;Node5</title>
<g id="a_edge4_Node000002_Node000005"><a xlink:title=" ">
<path fill="none" stroke="#63b8ff" d="M140.58,-100.13C140.58,-91.9 140.58,-82.85 140.58,-76.3"/>
<polygon fill="#63b8ff" stroke="#63b8ff" points="137.08,-100.08 140.58,-110.08 144.08,-100.08 137.08,-100.08"/>
</a>
</g>
</g>
<!-- Node6 -->
<g id="Node000006" class="node">
<title>Node6</title>
<g id="a_Node000006"><a xlink:href="PlayerControl_8hpp.html" target="_top" xlink:title=" ">
<polygon fill="white" stroke="#666666" points="287.58,-76 193.58,-76 193.58,-56 287.58,-56 287.58,-76"/>
<text text-anchor="middle" x="240.58" y="-62.5" font-family="Helvetica,sans-Serif" font-size="10.00">PlayerControl.hpp</text>
</a>
</g>
</g>
<!-- Node2&#45;&gt;Node6 -->
<g id="edge6_Node000002_Node000006" class="edge">
<title>Node2&#45;&gt;Node6</title>
<g id="a_edge6_Node000002_Node000006"><a xlink:title=" ">
<path fill="none" stroke="#63b8ff" d="M167.71,-106.35C185.32,-96.84 207.73,-84.74 223.03,-76.48"/>
<polygon fill="#63b8ff" stroke="#63b8ff" points="166.47,-103.04 159.33,-110.87 169.79,-109.2 166.47,-103.04"/>
</a>
</g>
</g>
<!-- Node7 -->
<g id="Node000007" class="node">
<title>Node7</title>
<g id="a_Node000007"><a xlink:href="Render_8hpp.html" target="_top" xlink:title=" ">
<polygon fill="white" stroke="#666666" points="371.71,-76 305.46,-76 305.46,-56 371.71,-56 371.71,-76"/>
<text text-anchor="middle" x="338.58" y="-62.5" font-family="Helvetica,sans-Serif" font-size="10.00">Render.hpp</text>
</a>
</g>
</g>
<!-- Node2&#45;&gt;Node7 -->
<g id="edge8_Node000002_Node000007" class="edge">
<title>Node2&#45;&gt;Node7</title>
<g id="a_edge8_Node000002_Node000007"><a xlink:title=" ">
<path fill="none" stroke="#63b8ff" d="M185.87,-108.65C222.2,-98.74 272.38,-85.05 305.15,-76.12"/>
<polygon fill="#63b8ff" stroke="#63b8ff" points="185.26,-105.19 176.53,-111.2 187.1,-111.94 185.26,-105.19"/>
</a>
</g>
</g>
<!-- Node5&#45;&gt;Node3 -->
<g id="edge5_Node000005_Node000003" class="edge">
<title>Node5&#45;&gt;Node3</title>
<g id="a_edge5_Node000005_Node000003"><a xlink:title=" ">
<path fill="none" stroke="#63b8ff" d="M156.98,-47.29C165.32,-38.28 175.12,-27.7 181.97,-20.3"/>
<polygon fill="#63b8ff" stroke="#63b8ff" points="154.54,-44.77 150.32,-54.48 159.68,-49.52 154.54,-44.77"/>
</a>
</g>
</g>
<!-- Node6&#45;&gt;Node3 -->
<g id="edge7_Node000006_Node000003" class="edge">
<title>Node6&#45;&gt;Node3</title>
<g id="a_edge7_Node000006_Node000003"><a xlink:title=" ">
<path fill="none" stroke="#63b8ff" d="M224.18,-47.29C215.84,-38.28 206.04,-27.7 199.19,-20.3"/>
<polygon fill="#63b8ff" stroke="#63b8ff" points="221.48,-49.52 230.84,-54.48 226.62,-44.77 221.48,-49.52"/>
</a>
</g>
</g>
<!-- Node7&#45;&gt;Node3 -->
<g id="edge9_Node000007_Node000003" class="edge">
<title>Node7&#45;&gt;Node3</title>
<g id="a_edge9_Node000007_Node000003"><a xlink:title=" ">
<path fill="none" stroke="#63b8ff" d="M302.02,-51.66C275.5,-41.98 240.25,-29.12 216.56,-20.48"/>
<polygon fill="#63b8ff" stroke="#63b8ff" points="300.78,-54.94 311.38,-55.08 303.18,-48.36 300.78,-54.94"/>
</a>
</g>
</g>
</g>
</svg>
