<?xml version="1.0" encoding="UTF-8" standalone="no"?>
<!DOCTYPE svg PUBLIC "-//W3C//DTD SVG 1.1//EN"
 "http://www.w3.org/Graphics/SVG/1.1/DTD/svg11.dtd">
<!-- Generated by graphviz version 12.1.0 (20240811.2233)
 -->
<!-- Title: SystemManager.hpp Pages: 1 -->
<svg width="1113pt" height="420pt"
 viewBox="0.00 0.00 1113.42 420.00" xmlns="http://www.w3.org/2000/svg" xmlns:xlink="http://www.w3.org/1999/xlink">
<g id="graph0" class="graph" transform="scale(1 1) rotate(0) translate(4 416)">
<title>SystemManager.hpp</title>
<!-- Node1 -->
<g id="Node000001" class="node">
<title>Node1</title>
<g id="a_Node000001"><a xlink:title=" ">
<polygon fill="#999999" stroke="#666666" points="878.42,-412 772.42,-412 772.42,-392 878.42,-392 878.42,-412"/>
<text text-anchor="middle" x="825.42" y="-398.5" font-family="Helvetica,sans-Serif" font-size="10.00">SystemManager.hpp</text>
</a>
</g>
</g>
<!-- Node2 -->
<g id="Node000002" class="node">
<title>Node2</title>
<g id="a_Node000002"><a xlink:href="Mediator_8hpp.html" target="_top" xlink:title=" ">
<polygon fill="white" stroke="#666666" points="808.55,-356 736.3,-356 736.3,-336 808.55,-336 808.55,-356"/>
<text text-anchor="middle" x="772.42" y="-342.5" font-family="Helvetica,sans-Serif" font-size="10.00">Mediator.hpp</text>
</a>
</g>
</g>
<!-- Node1&#45;&gt;Node2 -->
<g id="edge1_Node000001_Node000002" class="edge">
<title>Node1&#45;&gt;Node2</title>
<g id="a_edge1_Node000001_Node000002"><a xlink:title=" ">
<path fill="none" stroke="#63b8ff" d="M808.31,-383.57C799.41,-374.5 788.89,-363.78 781.55,-356.3"/>
<polygon fill="#63b8ff" stroke="#63b8ff" points="805.63,-385.83 815.13,-390.51 810.62,-380.93 805.63,-385.83"/>
</a>
</g>
</g>
<!-- Node25 -->
<g id="Node000025" class="node">
<title>Node25</title>
<g id="a_Node000025"><a xlink:href="SystemManager_8cpp.html" target="_top" xlink:title=" ">
<polygon fill="white" stroke="#666666" points="932.42,-356 826.42,-356 826.42,-336 932.42,-336 932.42,-356"/>
<text text-anchor="middle" x="879.42" y="-342.5" font-family="Helvetica,sans-Serif" font-size="10.00">SystemManager.cpp</text>
</a>
</g>
</g>
<!-- Node1&#45;&gt;Node25 -->
<g id="edge55_Node000001_Node000025" class="edge">
<title>Node1&#45;&gt;Node25</title>
<g id="a_edge55_Node000001_Node000025"><a xlink:title=" ">
<path fill="none" stroke="#63b8ff" d="M842.86,-383.57C851.92,-374.5 862.64,-363.78 870.12,-356.3"/>
<polygon fill="#63b8ff" stroke="#63b8ff" points="840.49,-380.98 835.9,-390.52 845.44,-385.93 840.49,-380.98"/>
</a>
</g>
</g>
<!-- Node3 -->
<g id="Node000003" class="node">
<title>Node3</title>
<g id="a_Node000003"><a xlink:href="ComponentRegistry_8hpp.html" target="_top" xlink:title=" ">
<polygon fill="white" stroke="#666666" points="677.92,-300 556.92,-300 556.92,-280 677.92,-280 677.92,-300"/>
<text text-anchor="middle" x="617.42" y="-286.5" font-family="Helvetica,sans-Serif" font-size="10.00">ComponentRegistry.hpp</text>
</a>
</g>
</g>
<!-- Node2&#45;&gt;Node3 -->
<g id="edge2_Node000002_Node000003" class="edge">
<title>Node2&#45;&gt;Node3</title>
<g id="a_edge2_Node000002_Node000003"><a xlink:title=" ">
<path fill="none" stroke="#63b8ff" d="M734.88,-331.92C707.01,-322.21 669.66,-309.2 644.63,-300.48"/>
<polygon fill="#63b8ff" stroke="#63b8ff" points="733.4,-335.11 743.99,-335.1 735.7,-328.5 733.4,-335.11"/>
</a>
</g>
</g>
<!-- Node4 -->
<g id="Node000004" class="node">
<title>Node4</title>
<g id="a_Node000004"><a xlink:href="NetworkManager_8hpp.html" target="_top" xlink:title=" ">
<polygon fill="white" stroke="#666666" points="663.92,-244 554.92,-244 554.92,-224 663.92,-224 663.92,-244"/>
<text text-anchor="middle" x="609.42" y="-230.5" font-family="Helvetica,sans-Serif" font-size="10.00">NetworkManager.hpp</text>
</a>
</g>
</g>
<!-- Node2&#45;&gt;Node4 -->
<g id="edge43_Node000002_Node000004" class="edge">
<title>Node2&#45;&gt;Node4</title>
<g id="a_edge43_Node000002_Node000004"><a xlink:title=" ">
<path fill="none" stroke="#63b8ff" d="M752.76,-328.8C735.87,-315.17 710.64,-295.48 687.42,-280 667.39,-266.64 643.23,-253.07 627.16,-244.38"/>
<polygon fill="#63b8ff" stroke="#63b8ff" points="750.08,-331.13 760.05,-334.73 754.5,-325.7 750.08,-331.13"/>
</a>
</g>
</g>
<!-- Node6 -->
<g id="Node000006" class="node">
<title>Node6</title>
<g id="a_Node000006"><a xlink:href="GameTypes_8cpp.html" target="_top" xlink:title=" ">
<polygon fill="white" stroke="#666666" points="456.05,-20 368.8,-20 368.8,0 456.05,0 456.05,-20"/>
<text text-anchor="middle" x="412.42" y="-6.5" font-family="Helvetica,sans-Serif" font-size="10.00">GameTypes.cpp</text>
</a>
</g>
</g>
<!-- Node2&#45;&gt;Node6 -->
<g id="edge40_Node000002_Node000006" class="edge">
<title>Node2&#45;&gt;Node6</title>
<g id="a_edge40_Node000002_Node000006"><a xlink:title=" ">
<path fill="none" stroke="#63b8ff" d="M724.37,-342.5C657.05,-338.16 531.25,-326.94 427.42,-300 231.62,-249.19 118.03,-299.37 4.42,-132 -38.53,-68.73 254.74,-28.67 368.58,-15.65"/>
<polygon fill="#63b8ff" stroke="#63b8ff" points="724.14,-346 734.34,-343.12 724.57,-339.01 724.14,-346"/>
</a>
</g>
</g>
<!-- Node7 -->
<g id="Node000007" class="node">
<title>Node7</title>
<g id="a_Node000007"><a xlink:href="GameTypes_8hpp.html" target="_top" xlink:title=" ">
<polygon fill="white" stroke="#666666" points="339.05,-76 251.8,-76 251.8,-56 339.05,-56 339.05,-76"/>
<text text-anchor="middle" x="295.42" y="-62.5" font-family="Helvetica,sans-Serif" font-size="10.00">GameTypes.hpp</text>
</a>
</g>
</g>
<!-- Node2&#45;&gt;Node7 -->
<g id="edge41_Node000002_Node000007" class="edge">
<title>Node2&#45;&gt;Node7</title>
<g id="a_edge41_Node000002_Node000007"><a xlink:title=" ">
<path fill="none" stroke="#63b8ff" d="M724.54,-345.16C585.87,-345.13 191.37,-341.38 152.42,-300 95.15,-239.15 100.86,-179.28 150.42,-112 173.4,-80.81 217.8,-70.6 251.45,-67.56"/>
<polygon fill="#63b8ff" stroke="#63b8ff" points="724.48,-348.66 734.48,-345.15 724.48,-341.66 724.48,-348.66"/>
</a>
</g>
</g>
<!-- Node9 -->
<g id="Node000009" class="node">
<title>Node9</title>
<g id="a_Node000009"><a xlink:href="Server_8hpp.html" target="_top" xlink:title=" ">
<polygon fill="white" stroke="#666666" points="893.05,-132 829.8,-132 829.8,-112 893.05,-112 893.05,-132"/>
<text text-anchor="middle" x="861.42" y="-118.5" font-family="Helvetica,sans-Serif" font-size="10.00">Server.hpp</text>
</a>
</g>
</g>
<!-- Node2&#45;&gt;Node9 -->
<g id="edge54_Node000002_Node000009" class="edge">
<title>Node2&#45;&gt;Node9</title>
<g id="a_edge54_Node000002_Node000009"><a xlink:title=" ">
<path fill="none" stroke="#63b8ff" d="M783.42,-326.1C807.22,-285.2 861.41,-191.79 862.42,-188 867.53,-168.81 865.14,-145.28 863.15,-132.45"/>
<polygon fill="#63b8ff" stroke="#63b8ff" points="780.48,-324.21 778.47,-334.61 786.53,-327.73 780.48,-324.21"/>
</a>
</g>
</g>
<!-- Node10 -->
<g id="Node000010" class="node">
<title>Node10</title>
<g id="a_Node000010"><a xlink:href="Server_8cpp.html" target="_top" xlink:title=" ">
<polygon fill="white" stroke="#666666" points="1099.05,-76 1035.8,-76 1035.8,-56 1099.05,-56 1099.05,-76"/>
<text text-anchor="middle" x="1067.42" y="-62.5" font-family="Helvetica,sans-Serif" font-size="10.00">Server.cpp</text>
</a>
</g>
</g>
<!-- Node2&#45;&gt;Node10 -->
<g id="edge53_Node000002_Node000010" class="edge">
<title>Node2&#45;&gt;Node10</title>
<g id="a_edge53_Node000002_Node000010"><a xlink:title=" ">
<path fill="none" stroke="#63b8ff" d="M820.05,-335.92C892.01,-327.18 1036.62,-334.69 1080.42,-300 1104.69,-280.78 1105.42,-265.95 1105.42,-235 1105.42,-235 1105.42,-235 1105.42,-177 1105.42,-137.8 1083.6,-94.84 1073.03,-76.33"/>
<polygon fill="#63b8ff" stroke="#63b8ff" points="819.64,-332.44 810.23,-337.32 820.63,-339.37 819.64,-332.44"/>
</a>
</g>
</g>
<!-- Node15 -->
<g id="Node000015" class="node">
<title>Node15</title>
<g id="a_Node000015"><a xlink:href="PlayerControl_8hpp.html" target="_top" xlink:title=" ">
<polygon fill="white" stroke="#666666" points="364.42,-188 270.42,-188 270.42,-168 364.42,-168 364.42,-188"/>
<text text-anchor="middle" x="317.42" y="-174.5" font-family="Helvetica,sans-Serif" font-size="10.00">PlayerControl.hpp</text>
</a>
</g>
</g>
<!-- Node2&#45;&gt;Node15 -->
<g id="edge51_Node000002_Node000015" class="edge">
<title>Node2&#45;&gt;Node15</title>
<g id="a_edge51_Node000002_Node000015"><a xlink:title=" ">
<path fill="none" stroke="#63b8ff" d="M724.73,-339.42C678.65,-333.1 607.36,-320.88 548.42,-300 461.79,-269.32 367.3,-211.21 331.89,-188.47"/>
<polygon fill="#63b8ff" stroke="#63b8ff" points="724.01,-342.86 734.38,-340.7 724.93,-335.92 724.01,-342.86"/>
</a>
</g>
</g>
<!-- Node18 -->
<g id="Node000018" class="node">
<title>Node18</title>
<g id="a_Node000018"><a xlink:href="Render_8hpp.html" target="_top" xlink:title=" ">
<polygon fill="white" stroke="#666666" points="225.55,-132 159.3,-132 159.3,-112 225.55,-112 225.55,-132"/>
<text text-anchor="middle" x="192.42" y="-118.5" font-family="Helvetica,sans-Serif" font-size="10.00">Render.hpp</text>
</a>
</g>
</g>
<!-- Node2&#45;&gt;Node18 -->
<g id="edge52_Node000002_Node000018" class="edge">
<title>Node2&#45;&gt;Node18</title>
<g id="a_edge52_Node000002_Node000018"><a xlink:title=" ">
<path fill="none" stroke="#63b8ff" d="M724.75,-341.71C626.21,-332.74 396.83,-300.37 247.42,-188 225.92,-171.83 207.19,-145.8 198.16,-132.1"/>
<polygon fill="#63b8ff" stroke="#63b8ff" points="724.33,-345.19 734.6,-342.56 724.94,-338.21 724.33,-345.19"/>
</a>
</g>
</g>
<!-- Node21 -->
<g id="Node000021" class="node">
<title>Node21</title>
<g id="a_Node000021"><a xlink:href="Mediator_8cpp.html" target="_top" xlink:title=" ">
<polygon fill="white" stroke="#666666" points="915.55,-300 843.3,-300 843.3,-280 915.55,-280 915.55,-300"/>
<text text-anchor="middle" x="879.42" y="-286.5" font-family="Helvetica,sans-Serif" font-size="10.00">Mediator.cpp</text>
</a>
</g>
</g>
<!-- Node2&#45;&gt;Node21 -->
<g id="edge42_Node000002_Node000021" class="edge">
<title>Node2&#45;&gt;Node21</title>
<g id="a_edge42_Node000002_Node000021"><a xlink:title=" ">
<path fill="none" stroke="#63b8ff" d="M801.19,-330.48C820.06,-320.96 844.2,-308.78 860.64,-300.48"/>
<polygon fill="#63b8ff" stroke="#63b8ff" points="799.76,-327.28 792.41,-334.91 802.92,-333.53 799.76,-327.28"/>
</a>
</g>
</g>
<!-- Node22 -->
<g id="Node000022" class="node">
<title>Node22</title>
<g id="a_Node000022"><a xlink:href="PhysicsEngine_8hpp.html" target="_top" xlink:title=" ">
<polygon fill="white" stroke="#666666" points="1071.42,-300 971.42,-300 971.42,-280 1071.42,-280 1071.42,-300"/>
<text text-anchor="middle" x="1021.42" y="-286.5" font-family="Helvetica,sans-Serif" font-size="10.00">PhysicsEngine.hpp</text>
</a>
</g>
</g>
<!-- Node2&#45;&gt;Node22 -->
<g id="edge44_Node000002_Node000022" class="edge">
<title>Node2&#45;&gt;Node22</title>
<g id="a_edge44_Node000002_Node000022"><a xlink:title=" ">
<path fill="none" stroke="#63b8ff" d="M819.95,-334.69C865.45,-324.82 933.53,-310.06 977.72,-300.48"/>
<polygon fill="#63b8ff" stroke="#63b8ff" points="819.41,-331.23 810.37,-336.77 820.89,-338.07 819.41,-331.23"/>
</a>
</g>
</g>
<!-- Node23 -->
<g id="Node000023" class="node">
<title>Node23</title>
<g id="a_Node000023"><a xlink:href="PhysicsUsingEngine_8hpp.html" target="_top" xlink:title=" ">
<polygon fill="white" stroke="#666666" points="1042.17,-244 916.67,-244 916.67,-224 1042.17,-224 1042.17,-244"/>
<text text-anchor="middle" x="979.42" y="-230.5" font-family="Helvetica,sans-Serif" font-size="10.00">PhysicsUsingEngine.hpp</text>
</a>
</g>
</g>
<!-- Node2&#45;&gt;Node23 -->
<g id="edge50_Node000002_Node000023" class="edge">
<title>Node2&#45;&gt;Node23</title>
<g id="a_edge50_Node000002_Node000023"><a xlink:title=" ">
<path fill="none" stroke="#63b8ff" d="M819.65,-334.16C857.51,-324.9 907.06,-311.33 924.42,-300 946.95,-285.3 965.25,-258.65 973.94,-244.47"/>
<polygon fill="#63b8ff" stroke="#63b8ff" points="819.2,-330.67 810.3,-336.42 820.84,-337.48 819.2,-330.67"/>
</a>
</g>
</g>
<!-- Node24 -->
<g id="Node000024" class="node">
<title>Node24</title>
<g id="a_Node000024"><a xlink:href="PhysicsNoEngine_8hpp.html" target="_top" xlink:title=" ">
<polygon fill="white" stroke="#666666" points="1039.8,-188 927.05,-188 927.05,-168 1039.8,-168 1039.8,-188"/>
<text text-anchor="middle" x="983.42" y="-174.5" font-family="Helvetica,sans-Serif" font-size="10.00">PhysicsNoEngine.hpp</text>
</a>
</g>
</g>
<!-- Node2&#45;&gt;Node24 -->
<g id="edge46_Node000002_Node000024" class="edge">
<title>Node2&#45;&gt;Node24</title>
<g id="a_edge46_Node000002_Node000024"><a xlink:title=" ">
<path fill="none" stroke="#63b8ff" d="M787.89,-327.35C800.03,-313.86 817.64,-295.07 834.42,-280 864.85,-252.68 873.55,-246.9 907.42,-224 926.98,-210.77 950.51,-197.18 966.16,-188.44"/>
<polygon fill="#63b8ff" stroke="#63b8ff" points="785.47,-324.81 781.44,-334.61 790.7,-329.46 785.47,-324.81"/>
</a>
</g>
</g>
<!-- Node3&#45;&gt;Node4 -->
<g id="edge3_Node000003_Node000004" class="edge">
<title>Node3&#45;&gt;Node4</title>
<g id="a_edge3_Node000003_Node000004"><a xlink:title=" ">
<path fill="none" stroke="#63b8ff" d="M614.37,-268.43C613.14,-260.11 611.78,-250.93 610.8,-244.3"/>
<polygon fill="#63b8ff" stroke="#63b8ff" points="610.88,-268.72 615.81,-278.1 617.8,-267.69 610.88,-268.72"/>
</a>
</g>
</g>
<!-- Node5 -->
<g id="Node000005" class="node">
<title>Node5</title>
<g id="a_Node000005"><a xlink:href="Collision_8hpp.html" target="_top" xlink:title=" ">
<polygon fill="white" stroke="#666666" points="750.55,-188 678.3,-188 678.3,-168 750.55,-168 750.55,-188"/>
<text text-anchor="middle" x="714.42" y="-174.5" font-family="Helvetica,sans-Serif" font-size="10.00">Collision.hpp</text>
</a>
</g>
</g>
<!-- Node4&#45;&gt;Node5 -->
<g id="edge4_Node000004_Node000005" class="edge">
<title>Node4&#45;&gt;Node5</title>
<g id="a_edge4_Node000004_Node000005"><a xlink:title=" ">
<path fill="none" stroke="#63b8ff" d="M637.91,-218.35C656.39,-208.84 679.93,-196.74 695.99,-188.48"/>
<polygon fill="#63b8ff" stroke="#63b8ff" points="636.35,-215.22 629.06,-222.9 639.55,-221.44 636.35,-215.22"/>
</a>
</g>
</g>
<!-- Node4&#45;&gt;Node7 -->
<g id="edge19_Node000004_Node000007" class="edge">
<title>Node4&#45;&gt;Node7</title>
<g id="a_edge19_Node000004_Node000007"><a xlink:title=" ">
<path fill="none" stroke="#63b8ff" d="M543.36,-229.1C447.63,-222.76 279.71,-208.8 261.42,-188 232.32,-154.89 270.31,-98.7 287.64,-76.46"/>
<polygon fill="#63b8ff" stroke="#63b8ff" points="542.95,-232.58 553.15,-229.73 543.4,-225.59 542.95,-232.58"/>
</a>
</g>
</g>
<!-- Node4&#45;&gt;Node9 -->
<g id="edge39_Node000004_Node000009" class="edge">
<title>Node4&#45;&gt;Node9</title>
<g id="a_edge39_Node000004_Node000009"><a xlink:title=" ">
<path fill="none" stroke="#63b8ff" d="M675.6,-227.85C735.67,-221.86 818.42,-209.86 842.42,-188 858.42,-173.44 861.24,-146.23 861.55,-132.08"/>
<polygon fill="#63b8ff" stroke="#63b8ff" points="675.42,-224.35 665.8,-228.79 676.08,-231.32 675.42,-224.35"/>
</a>
</g>
</g>
<!-- Node4&#45;&gt;Node10 -->
<g id="edge38_Node000004_Node000010" class="edge">
<title>Node4&#45;&gt;Node10</title>
<g id="a_edge38_Node000004_Node000010"><a xlink:title=" ">
<path fill="none" stroke="#63b8ff" d="M675.45,-230.61C791.41,-225.78 1021.92,-213.12 1048.42,-188 1079.91,-158.16 1073.28,-99.04 1069.29,-76.26"/>
<polygon fill="#63b8ff" stroke="#63b8ff" points="675.62,-227.1 665.78,-231.01 675.91,-234.1 675.62,-227.1"/>
</a>
</g>
</g>
<!-- Node12 -->
<g id="Node000012" class="node">
<title>Node12</title>
<g id="a_Node000012"><a xlink:href="DevConsole_8hpp.html" target="_top" xlink:title=" ">
<polygon fill="white" stroke="#666666" points="483.8,-132 395.05,-132 395.05,-112 483.8,-112 483.8,-132"/>
<text text-anchor="middle" x="439.42" y="-118.5" font-family="Helvetica,sans-Serif" font-size="10.00">DevConsole.hpp</text>
</a>
</g>
</g>
<!-- Node4&#45;&gt;Node12 -->
<g id="edge12_Node000004_Node000012" class="edge">
<title>Node4&#45;&gt;Node12</title>
<g id="a_edge12_Node000004_Node000012"><a xlink:title=" ">
<path fill="none" stroke="#63b8ff" d="M543.37,-226.77C492.38,-220.44 427.83,-208.55 411.42,-188 397.62,-170.71 417.07,-145.6 429.84,-132.21"/>
<polygon fill="#63b8ff" stroke="#63b8ff" points="542.84,-230.23 553.18,-227.94 543.66,-223.28 542.84,-230.23"/>
</a>
</g>
</g>
<!-- Node13 -->
<g id="Node000013" class="node">
<title>Node13</title>
<g id="a_Node000013"><a xlink:href="Enemy_8hpp.html" target="_top" xlink:title=" ">
<polygon fill="white" stroke="#666666" points="833.8,-188 769.05,-188 769.05,-168 833.8,-168 833.8,-188"/>
<text text-anchor="middle" x="801.42" y="-174.5" font-family="Helvetica,sans-Serif" font-size="10.00">Enemy.hpp</text>
</a>
</g>
</g>
<!-- Node4&#45;&gt;Node13 -->
<g id="edge15_Node000004_Node000013" class="edge">
<title>Node4&#45;&gt;Node13</title>
<g id="a_edge15_Node000004_Node000013"><a xlink:title=" ">
<path fill="none" stroke="#63b8ff" d="M653.76,-220.53C688.84,-210.66 737.03,-197.11 768.68,-188.21"/>
<polygon fill="#63b8ff" stroke="#63b8ff" points="653,-217.11 644.32,-223.18 654.9,-223.85 653,-217.11"/>
</a>
</g>
</g>
<!-- Node14 -->
<g id="Node000014" class="node">
<title>Node14</title>
<g id="a_Node000014"><a xlink:href="NetworkManager_8cpp.html" target="_top" xlink:title=" ">
<polygon fill="white" stroke="#666666" points="659.92,-188 550.92,-188 550.92,-168 659.92,-168 659.92,-188"/>
<text text-anchor="middle" x="605.42" y="-174.5" font-family="Helvetica,sans-Serif" font-size="10.00">NetworkManager.cpp</text>
</a>
</g>
</g>
<!-- Node4&#45;&gt;Node14 -->
<g id="edge20_Node000004_Node000014" class="edge">
<title>Node4&#45;&gt;Node14</title>
<g id="a_edge20_Node000004_Node000014"><a xlink:title=" ">
<path fill="none" stroke="#63b8ff" d="M607.88,-212.13C607.27,-203.9 606.6,-194.85 606.11,-188.3"/>
<polygon fill="#63b8ff" stroke="#63b8ff" points="604.38,-212.37 608.61,-222.08 611.37,-211.85 604.38,-212.37"/>
</a>
</g>
</g>
<!-- Node4&#45;&gt;Node15 -->
<g id="edge21_Node000004_Node000015" class="edge">
<title>Node4&#45;&gt;Node15</title>
<g id="a_edge21_Node000004_Node000015"><a xlink:title=" ">
<path fill="none" stroke="#63b8ff" d="M546.95,-221.45C492.34,-211.35 414.24,-196.9 364.69,-187.74"/>
<polygon fill="#63b8ff" stroke="#63b8ff" points="546.27,-224.88 556.74,-223.26 547.54,-218 546.27,-224.88"/>
</a>
</g>
</g>
<!-- Node17 -->
<g id="Node000017" class="node">
<title>Node17</title>
<g id="a_Node000017"><a xlink:href="Renderer_8hpp.html" target="_top" xlink:title=" ">
<polygon fill="white" stroke="#666666" points="494.67,-188 420.17,-188 420.17,-168 494.67,-168 494.67,-188"/>
<text text-anchor="middle" x="457.42" y="-174.5" font-family="Helvetica,sans-Serif" font-size="10.00">Renderer.hpp</text>
</a>
</g>
</g>
<!-- Node4&#45;&gt;Node17 -->
<g id="edge28_Node000004_Node000017" class="edge">
<title>Node4&#45;&gt;Node17</title>
<g id="a_edge28_Node000004_Node000017"><a xlink:title=" ">
<path fill="none" stroke="#63b8ff" d="M572.24,-219.79C544.96,-210.1 508.54,-197.16 484.11,-188.48"/>
<polygon fill="#63b8ff" stroke="#63b8ff" points="570.92,-223.04 581.52,-223.09 573.27,-216.44 570.92,-223.04"/>
</a>
</g>
</g>
<!-- Node20 -->
<g id="Node000020" class="node">
<title>Node20</title>
<g id="a_Node000020"><a xlink:href="Renderers_2SFML_2SFML_8cpp.html" target="_top" xlink:title=" ">
<polygon fill="white" stroke="#666666" points="663.92,-76 602.92,-76 602.92,-56 663.92,-56 663.92,-76"/>
<text text-anchor="middle" x="633.42" y="-62.5" font-family="Helvetica,sans-Serif" font-size="10.00">SFML.cpp</text>
</a>
</g>
</g>
<!-- Node4&#45;&gt;Node20 -->
<g id="edge37_Node000004_Node000020" class="edge">
<title>Node4&#45;&gt;Node20</title>
<g id="a_edge37_Node000004_Node000020"><a xlink:title=" ">
<path fill="none" stroke="#63b8ff" d="M576.29,-218.49C553.06,-206.2 528.44,-187.51 542.42,-168 571.4,-127.56 619.44,-172.44 648.42,-132 660.56,-115.05 648.22,-89.8 639.81,-76.3"/>
<polygon fill="#63b8ff" stroke="#63b8ff" points="574.52,-221.51 585.03,-222.83 577.63,-215.25 574.52,-221.51"/>
</a>
</g>
</g>
<!-- Node5&#45;&gt;Node6 -->
<g id="edge5_Node000005_Node000006" class="edge">
<title>Node5&#45;&gt;Node6</title>
<g id="a_edge5_Node000005_Node000006"><a xlink:title=" ">
<path fill="none" stroke="#63b8ff" d="M713.61,-156.42C711.35,-129.11 703.11,-81.38 673.42,-56 641.49,-28.7 522.14,-17.44 456.46,-13.24"/>
<polygon fill="#63b8ff" stroke="#63b8ff" points="710.1,-156.41 714.2,-166.18 717.09,-155.99 710.1,-156.41"/>
</a>
</g>
</g>
<!-- Node5&#45;&gt;Node7 -->
<g id="edge6_Node000005_Node000007" class="edge">
<title>Node5&#45;&gt;Node7</title>
<g id="a_edge6_Node000005_Node000007"><a xlink:title=" ">
<path fill="none" stroke="#63b8ff" d="M673.5,-164.22C629.12,-150.54 556.06,-128.57 492.42,-112 440.14,-98.39 379.47,-84.87 339.42,-76.26"/>
<polygon fill="#63b8ff" stroke="#63b8ff" points="672.39,-167.53 682.97,-167.14 674.45,-160.85 672.39,-167.53"/>
</a>
</g>
</g>
<!-- Node5&#45;&gt;Node9 -->
<g id="edge9_Node000005_Node000009" class="edge">
<title>Node5&#45;&gt;Node9</title>
<g id="a_edge9_Node000005_Node000009"><a xlink:title=" ">
<path fill="none" stroke="#63b8ff" d="M750.73,-163.66C777.08,-153.98 812.09,-141.12 835.62,-132.48"/>
<polygon fill="#63b8ff" stroke="#63b8ff" points="749.63,-160.34 741.45,-167.07 752.04,-166.91 749.63,-160.34"/>
</a>
</g>
</g>
<!-- Node7&#45;&gt;Node6 -->
<g id="edge7_Node000007_Node000006" class="edge">
<title>Node7&#45;&gt;Node6</title>
<g id="a_edge7_Node000007_Node000006"><a xlink:title=" ">
<path fill="none" stroke="#63b8ff" d="M326.02,-50.88C346.78,-41.3 373.66,-28.89 391.88,-20.48"/>
<polygon fill="#63b8ff" stroke="#63b8ff" points="324.79,-47.59 317.18,-54.96 327.72,-53.95 324.79,-47.59"/>
</a>
</g>
</g>
<!-- Node8 -->
<g id="Node000008" class="node">
<title>Node8</title>
<g id="a_Node000008"><a xlink:href="Client_2src_2main_8cpp.html" target="_top" xlink:title=" ">
<polygon fill="white" stroke="#666666" points="323.3,-20 267.55,-20 267.55,0 323.3,0 323.3,-20"/>
<text text-anchor="middle" x="295.42" y="-6.5" font-family="Helvetica,sans-Serif" font-size="10.00">main.cpp</text>
</a>
</g>
</g>
<!-- Node7&#45;&gt;Node8 -->
<g id="edge8_Node000007_Node000008" class="edge">
<title>Node7&#45;&gt;Node8</title>
<g id="a_edge8_Node000007_Node000008"><a xlink:title=" ">
<path fill="none" stroke="#63b8ff" d="M295.42,-44.13C295.42,-35.9 295.42,-26.85 295.42,-20.3"/>
<polygon fill="#63b8ff" stroke="#63b8ff" points="291.92,-44.08 295.42,-54.08 298.92,-44.08 291.92,-44.08"/>
</a>
</g>
</g>
<!-- Node9&#45;&gt;Node10 -->
<g id="edge10_Node000009_Node000010" class="edge">
<title>Node9&#45;&gt;Node10</title>
<g id="a_edge10_Node000009_Node000010"><a xlink:title=" ">
<path fill="none" stroke="#63b8ff" d="M904.16,-109.8C943.19,-99.57 1000.03,-84.67 1035.31,-75.42"/>
<polygon fill="#63b8ff" stroke="#63b8ff" points="903.41,-106.38 894.62,-112.3 905.18,-113.15 903.41,-106.38"/>
</a>
</g>
</g>
<!-- Node11 -->
<g id="Node000011" class="node">
<title>Node11</title>
<g id="a_Node000011"><a xlink:href="Server_2src_2main_8cpp.html" target="_top" xlink:title=" ">
<polygon fill="white" stroke="#666666" points="889.3,-76 833.55,-76 833.55,-56 889.3,-56 889.3,-76"/>
<text text-anchor="middle" x="861.42" y="-62.5" font-family="Helvetica,sans-Serif" font-size="10.00">main.cpp</text>
</a>
</g>
</g>
<!-- Node9&#45;&gt;Node11 -->
<g id="edge11_Node000009_Node000011" class="edge">
<title>Node9&#45;&gt;Node11</title>
<g id="a_edge11_Node000009_Node000011"><a xlink:title=" ">
<path fill="none" stroke="#63b8ff" d="M861.42,-100.13C861.42,-91.9 861.42,-82.85 861.42,-76.3"/>
<polygon fill="#63b8ff" stroke="#63b8ff" points="857.92,-100.08 861.42,-110.08 864.92,-100.08 857.92,-100.08"/>
</a>
</g>
</g>
<!-- Node12&#45;&gt;Node6 -->
<g id="edge13_Node000012_Node000006" class="edge">
<title>Node12&#45;&gt;Node6</title>
<g id="a_edge13_Node000012_Node000006"><a xlink:title=" ">
<path fill="none" stroke="#63b8ff" d="M434.43,-100.64C428.55,-76.72 419.06,-38.03 414.72,-20.35"/>
<polygon fill="#63b8ff" stroke="#63b8ff" points="430.98,-101.27 436.76,-110.15 437.77,-99.61 430.98,-101.27"/>
</a>
</g>
</g>
<!-- Node12&#45;&gt;Node7 -->
<g id="edge14_Node000012_Node000007" class="edge">
<title>Node12&#45;&gt;Node7</title>
<g id="a_edge14_Node000012_Node000007"><a xlink:title=" ">
<path fill="none" stroke="#63b8ff" d="M403.85,-107.66C378.04,-97.98 343.75,-85.12 320.7,-76.48"/>
<polygon fill="#63b8ff" stroke="#63b8ff" points="402.33,-110.83 412.92,-111.06 404.79,-104.27 402.33,-110.83"/>
</a>
</g>
</g>
<!-- Node13&#45;&gt;Node6 -->
<g id="edge16_Node000013_Node000006" class="edge">
<title>Node13&#45;&gt;Node6</title>
<g id="a_edge16_Node000013_Node000006"><a xlink:title=" ">
<path fill="none" stroke="#63b8ff" d="M790.85,-158.21C774.33,-130.79 739.67,-80.43 695.42,-56 655.14,-33.75 525.29,-20.16 456.36,-14.33"/>
<polygon fill="#63b8ff" stroke="#63b8ff" points="787.62,-159.62 795.68,-166.49 793.66,-156.09 787.62,-159.62"/>
</a>
</g>
</g>
<!-- Node13&#45;&gt;Node7 -->
<g id="edge17_Node000013_Node000007" class="edge">
<title>Node13&#45;&gt;Node7</title>
<g id="a_edge17_Node000013_Node000007"><a xlink:title=" ">
<path fill="none" stroke="#63b8ff" d="M773.49,-162.36C743.43,-147.27 693.83,-124.29 648.42,-112 539.74,-82.59 406.89,-72.25 339.37,-68.73"/>
<polygon fill="#63b8ff" stroke="#63b8ff" points="771.78,-165.42 782.28,-166.84 774.96,-159.18 771.78,-165.42"/>
</a>
</g>
</g>
<!-- Node13&#45;&gt;Node9 -->
<g id="edge18_Node000013_Node000009" class="edge">
<title>Node13&#45;&gt;Node9</title>
<g id="a_edge18_Node000013_Node000009"><a xlink:title=" ">
<path fill="none" stroke="#63b8ff" d="M820.17,-160.13C830.37,-150.94 842.61,-139.93 851.09,-132.3"/>
<polygon fill="#63b8ff" stroke="#63b8ff" points="818.09,-157.29 813,-166.58 822.77,-162.49 818.09,-157.29"/>
</a>
</g>
</g>
<!-- Node15&#45;&gt;Node6 -->
<g id="edge22_Node000015_Node000006" class="edge">
<title>Node15&#45;&gt;Node6</title>
<g id="a_edge22_Node000015_Node000006"><a xlink:title=" ">
<path fill="none" stroke="#63b8ff" d="M328.35,-157.9C348.77,-122.22 392.02,-46.65 407.1,-20.3"/>
<polygon fill="#63b8ff" stroke="#63b8ff" points="325.48,-155.87 323.55,-166.29 331.56,-159.35 325.48,-155.87"/>
</a>
</g>
</g>
<!-- Node15&#45;&gt;Node7 -->
<g id="edge23_Node000015_Node000007" class="edge">
<title>Node15&#45;&gt;Node7</title>
<g id="a_edge23_Node000015_Node000007"><a xlink:title=" ">
<path fill="none" stroke="#63b8ff" d="M313.35,-156.64C308.57,-132.72 300.83,-94.03 297.29,-76.35"/>
<polygon fill="#63b8ff" stroke="#63b8ff" points="309.86,-157.02 315.25,-166.14 316.72,-155.65 309.86,-157.02"/>
</a>
</g>
</g>
<!-- Node15&#45;&gt;Node9 -->
<g id="edge24_Node000015_Node000009" class="edge">
<title>Node15&#45;&gt;Node9</title>
<g id="a_edge24_Node000015_Node000009"><a xlink:title=" ">
<path fill="none" stroke="#63b8ff" d="M376.07,-171.18C490.7,-159.8 741.02,-134.95 829.59,-126.16"/>
<polygon fill="#63b8ff" stroke="#63b8ff" points="375.86,-167.68 366.25,-172.15 376.55,-174.65 375.86,-167.68"/>
</a>
</g>
</g>
<!-- Node16 -->
<g id="Node000016" class="node">
<title>Node16</title>
<g id="a_Node000016"><a xlink:href="SoundPlayer_8hpp.html" target="_top" xlink:title=" ">
<polygon fill="white" stroke="#666666" points="103.55,-132 13.3,-132 13.3,-112 103.55,-112 103.55,-132"/>
<text text-anchor="middle" x="58.42" y="-118.5" font-family="Helvetica,sans-Serif" font-size="10.00">SoundPlayer.hpp</text>
</a>
</g>
</g>
<!-- Node15&#45;&gt;Node16 -->
<g id="edge25_Node000015_Node000016" class="edge">
<title>Node15&#45;&gt;Node16</title>
<g id="a_edge25_Node000015_Node000016"><a xlink:title=" ">
<path fill="none" stroke="#63b8ff" d="M260.77,-165.19C213.65,-155.36 147.46,-141.56 103.78,-132.46"/>
<polygon fill="#63b8ff" stroke="#63b8ff" points="260.03,-168.61 270.53,-167.22 261.45,-161.76 260.03,-168.61"/>
</a>
</g>
</g>
<!-- Node16&#45;&gt;Node6 -->
<g id="edge26_Node000016_Node000006" class="edge">
<title>Node16&#45;&gt;Node6</title>
<g id="a_edge26_Node000016_Node000006"><a xlink:title=" ">
<path fill="none" stroke="#63b8ff" d="M88.94,-106.8C120.56,-92.5 171.66,-70.53 217.42,-56 268.42,-39.81 328.63,-26.81 368.51,-19.03"/>
<polygon fill="#63b8ff" stroke="#63b8ff" points="87.64,-103.55 79.99,-110.88 90.54,-109.91 87.64,-103.55"/>
</a>
</g>
</g>
<!-- Node16&#45;&gt;Node7 -->
<g id="edge27_Node000016_Node000007" class="edge">
<title>Node16&#45;&gt;Node7</title>
<g id="a_edge27_Node000016_Node000007"><a xlink:title=" ">
<path fill="none" stroke="#63b8ff" d="M111.09,-109C154.15,-99.19 214.2,-85.51 253.92,-76.46"/>
<polygon fill="#63b8ff" stroke="#63b8ff" points="110.42,-105.56 101.45,-111.2 111.98,-112.39 110.42,-105.56"/>
</a>
</g>
</g>
<!-- Node17&#45;&gt;Node6 -->
<g id="edge30_Node000017_Node000006" class="edge">
<title>Node17&#45;&gt;Node6</title>
<g id="a_edge30_Node000017_Node000006"><a xlink:title=" ">
<path fill="none" stroke="#63b8ff" d="M476.1,-159.5C487.3,-146.8 498.32,-128.95 492.42,-112 478.67,-72.49 442.32,-36.81 423.73,-20.45"/>
<polygon fill="#63b8ff" stroke="#63b8ff" points="473.62,-157.03 469.2,-166.66 478.66,-161.88 473.62,-157.03"/>
</a>
</g>
</g>
<!-- Node17&#45;&gt;Node7 -->
<g id="edge31_Node000017_Node000007" class="edge">
<title>Node17&#45;&gt;Node7</title>
<g id="a_edge31_Node000017_Node000007"><a xlink:title=" ">
<path fill="none" stroke="#63b8ff" d="M432.33,-161.57C418.65,-153.04 401.47,-142.13 386.42,-132 358.08,-112.92 325.7,-89.35 308.22,-76.48"/>
<polygon fill="#63b8ff" stroke="#63b8ff" points="430.4,-164.49 440.74,-166.79 434.09,-158.54 430.4,-164.49"/>
</a>
</g>
</g>
<!-- Node17&#45;&gt;Node12 -->
<g id="edge29_Node000017_Node000012" class="edge">
<title>Node17&#45;&gt;Node12</title>
<g id="a_edge29_Node000017_Node000012"><a xlink:title=" ">
<path fill="none" stroke="#63b8ff" d="M450.66,-156.71C447.86,-148.32 444.76,-139.01 442.52,-132.3"/>
<polygon fill="#63b8ff" stroke="#63b8ff" points="447.33,-157.78 453.81,-166.16 453.97,-155.56 447.33,-157.78"/>
</a>
</g>
</g>
<!-- Node17&#45;&gt;Node18 -->
<g id="edge32_Node000017_Node000018" class="edge">
<title>Node17&#45;&gt;Node18</title>
<g id="a_edge32_Node000017_Node000018"><a xlink:title=" ">
<path fill="none" stroke="#63b8ff" d="M408.55,-167.04C355.41,-156.21 271.9,-139.2 225.79,-129.8"/>
<polygon fill="#63b8ff" stroke="#63b8ff" points="407.75,-170.45 418.25,-169.02 409.15,-163.59 407.75,-170.45"/>
</a>
</g>
</g>
<!-- Node19 -->
<g id="Node000019" class="node">
<title>Node19</title>
<g id="a_Node000019"><a xlink:href="Renderers_2SFML_2SFML_8hpp.html" target="_top" xlink:title=" ">
<polygon fill="white" stroke="#666666" points="638.92,-132 577.92,-132 577.92,-112 638.92,-112 638.92,-132"/>
<text text-anchor="middle" x="608.42" y="-118.5" font-family="Helvetica,sans-Serif" font-size="10.00">SFML.hpp</text>
</a>
</g>
</g>
<!-- Node17&#45;&gt;Node19 -->
<g id="edge35_Node000017_Node000019" class="edge">
<title>Node17&#45;&gt;Node19</title>
<g id="a_edge35_Node000017_Node000019"><a xlink:title=" ">
<path fill="none" stroke="#63b8ff" d="M494.36,-163.79C521.46,-154.1 557.64,-141.16 581.91,-132.48"/>
<polygon fill="#63b8ff" stroke="#63b8ff" points="493.39,-160.42 485.15,-167.08 495.74,-167.01 493.39,-160.42"/>
</a>
</g>
</g>
<!-- Node18&#45;&gt;Node6 -->
<g id="edge33_Node000018_Node000006" class="edge">
<title>Node18&#45;&gt;Node6</title>
<g id="a_edge33_Node000018_Node000006"><a xlink:title=" ">
<path fill="none" stroke="#63b8ff" d="M202.49,-101.87C211.17,-87.2 225.04,-67.56 242.42,-56 280.43,-30.72 332.02,-19.62 368.37,-14.76"/>
<polygon fill="#63b8ff" stroke="#63b8ff" points="199.44,-100.15 197.62,-110.59 205.55,-103.56 199.44,-100.15"/>
</a>
</g>
</g>
<!-- Node18&#45;&gt;Node7 -->
<g id="edge34_Node000018_Node000007" class="edge">
<title>Node18&#45;&gt;Node7</title>
<g id="a_edge34_Node000018_Node000007"><a xlink:title=" ">
<path fill="none" stroke="#63b8ff" d="M220.37,-106.35C238.5,-96.84 261.59,-84.74 277.34,-76.48"/>
<polygon fill="#63b8ff" stroke="#63b8ff" points="218.94,-103.15 211.7,-110.89 222.19,-109.35 218.94,-103.15"/>
</a>
</g>
</g>
<!-- Node19&#45;&gt;Node20 -->
<g id="edge36_Node000019_Node000020" class="edge">
<title>Node19&#45;&gt;Node20</title>
<g id="a_edge36_Node000019_Node000020"><a xlink:title=" ">
<path fill="none" stroke="#63b8ff" d="M617.55,-101.29C621.5,-92.75 625.94,-83.16 629.12,-76.3"/>
<polygon fill="#63b8ff" stroke="#63b8ff" points="614.44,-99.68 613.41,-110.22 620.79,-102.62 614.44,-99.68"/>
</a>
</g>
</g>
<!-- Node22&#45;&gt;Node23 -->
<g id="edge45_Node000022_Node000023" class="edge">
<title>Node22&#45;&gt;Node23</title>
<g id="a_edge45_Node000022_Node000023"><a xlink:title=" ">
<path fill="none" stroke="#63b8ff" d="M1007.2,-270.72C1000.3,-261.84 992.29,-251.55 986.65,-244.3"/>
<polygon fill="#63b8ff" stroke="#63b8ff" points="1004.27,-272.65 1013.18,-278.4 1009.8,-268.36 1004.27,-272.65"/>
</a>
</g>
</g>
<!-- Node24&#45;&gt;Node6 -->
<g id="edge47_Node000024_Node000006" class="edge">
<title>Node24&#45;&gt;Node6</title>
<g id="a_edge47_Node000024_Node000006"><a xlink:title=" ">
<path fill="none" stroke="#63b8ff" d="M975.84,-157.18C964,-129.23 938.26,-79.1 898.42,-56 823.92,-12.81 561.37,-9.84 456.33,-10.44"/>
<polygon fill="#63b8ff" stroke="#63b8ff" points="972.51,-158.28 979.5,-166.25 979.01,-155.66 972.51,-158.28"/>
</a>
</g>
</g>
<!-- Node24&#45;&gt;Node7 -->
<g id="edge48_Node000024_Node000007" class="edge">
<title>Node24&#45;&gt;Node7</title>
<g id="a_edge48_Node000024_Node000007"><a xlink:title=" ">
<path fill="none" stroke="#63b8ff" d="M967.83,-159.56C952.79,-144.04 928.51,-122.27 902.42,-112 850.43,-91.53 470.03,-74.17 339.36,-68.75"/>
<polygon fill="#63b8ff" stroke="#63b8ff" points="965.15,-161.81 974.53,-166.73 970.26,-157.03 965.15,-161.81"/>
</a>
</g>
</g>
<!-- Node24&#45;&gt;Node9 -->
<g id="edge49_Node000024_Node000009" class="edge">
<title>Node24&#45;&gt;Node9</title>
<g id="a_edge49_Node000024_Node000009"><a xlink:title=" ">
<path fill="none" stroke="#63b8ff" d="M951.81,-163.01C930.13,-153.41 901.93,-140.93 882.84,-132.48"/>
<polygon fill="#63b8ff" stroke="#63b8ff" points="950.23,-166.13 960.79,-166.98 953.06,-159.73 950.23,-166.13"/>
</a>
</g>
</g>
</g>
</svg>
