<?xml version="1.0" encoding="UTF-8" standalone="no"?>
<!DOCTYPE svg PUBLIC "-//W3C//DTD SVG 1.1//EN"
 "http://www.w3.org/Graphics/SVG/1.1/DTD/svg11.dtd">
<!-- Generated by graphviz version 12.1.0 (20240811.2233)
 -->
<!-- Title: System.hpp Pages: 1 -->
<svg width="1150pt" height="476pt"
 viewBox="0.00 0.00 1150.12 476.00" xmlns="http://www.w3.org/2000/svg" xmlns:xlink="http://www.w3.org/1999/xlink">
<g id="graph0" class="graph" transform="scale(1 1) rotate(0) translate(4 472)">
<title>System.hpp</title>
<!-- Node1 -->
<g id="Node000001" class="node">
<title>Node1</title>
<g id="a_Node000001"><a xlink:title=" ">
<polygon fill="#999999" stroke="#666666" points="426.38,-468 357.88,-468 357.88,-448 426.38,-448 426.38,-468"/>
<text text-anchor="middle" x="392.12" y="-454.5" font-family="Helvetica,sans-Serif" font-size="10.00">System.hpp</text>
</a>
</g>
</g>
<!-- Node2 -->
<g id="Node000002" class="node">
<title>Node2</title>
<g id="a_Node000002"><a xlink:href="Collision_8hpp.html" target="_top" xlink:title=" ">
<polygon fill="white" stroke="#666666" points="750.25,-188 678,-188 678,-168 750.25,-168 750.25,-188"/>
<text text-anchor="middle" x="714.12" y="-174.5" font-family="Helvetica,sans-Serif" font-size="10.00">Collision.hpp</text>
</a>
</g>
</g>
<!-- Node1&#45;&gt;Node2 -->
<g id="edge1_Node000001_Node000002" class="edge">
<title>Node1&#45;&gt;Node2</title>
<g id="a_edge1_Node000001_Node000002"><a xlink:title=" ">
<path fill="none" stroke="#63b8ff" d="M397.29,-436.85C407.78,-400.02 435.11,-321.82 487.12,-280 532.85,-243.24 560.71,-268.26 614.12,-244 648.25,-228.5 684.11,-202.43 702.19,-188.48"/>
<polygon fill="#63b8ff" stroke="#63b8ff" points="394,-435.61 394.76,-446.18 400.75,-437.44 394,-435.61"/>
</a>
</g>
</g>
<!-- Node9 -->
<g id="Node000009" class="node">
<title>Node9</title>
<g id="a_Node000009"><a xlink:href="DevConsole_8hpp.html" target="_top" xlink:title=" ">
<polygon fill="white" stroke="#666666" points="432.5,-132 343.75,-132 343.75,-112 432.5,-112 432.5,-132"/>
<text text-anchor="middle" x="388.12" y="-118.5" font-family="Helvetica,sans-Serif" font-size="10.00">DevConsole.hpp</text>
</a>
</g>
</g>
<!-- Node1&#45;&gt;Node9 -->
<g id="edge9_Node000001_Node000009" class="edge">
<title>Node1&#45;&gt;Node9</title>
<g id="a_edge9_Node000001_Node000009"><a xlink:title=" ">
<path fill="none" stroke="#63b8ff" d="M381.02,-437.6C369.81,-416.15 354.12,-380.23 354.12,-347 354.12,-347 354.12,-347 354.12,-233 354.12,-194.22 373.65,-151.05 383.11,-132.41"/>
<polygon fill="#63b8ff" stroke="#63b8ff" points="377.93,-439.24 385.79,-446.34 384.07,-435.88 377.93,-439.24"/>
</a>
</g>
</g>
<!-- Node10 -->
<g id="Node000010" class="node">
<title>Node10</title>
<g id="a_Node000010"><a xlink:href="Enemy_8hpp.html" target="_top" xlink:title=" ">
<polygon fill="white" stroke="#666666" points="908.5,-188 843.75,-188 843.75,-168 908.5,-168 908.5,-188"/>
<text text-anchor="middle" x="876.12" y="-174.5" font-family="Helvetica,sans-Serif" font-size="10.00">Enemy.hpp</text>
</a>
</g>
</g>
<!-- Node1&#45;&gt;Node10 -->
<g id="edge12_Node000001_Node000010" class="edge">
<title>Node1&#45;&gt;Node10</title>
<g id="a_edge12_Node000001_Node000010"><a xlink:title=" ">
<path fill="none" stroke="#63b8ff" d="M438.11,-456.29C527.8,-453.07 730,-436.63 875.12,-356 933.92,-323.33 981.91,-282.72 949.12,-224 939.55,-206.84 920.44,-195.41 904.17,-188.37"/>
<polygon fill="#63b8ff" stroke="#63b8ff" points="438.12,-452.79 428.24,-456.6 438.34,-459.78 438.12,-452.79"/>
</a>
</g>
</g>
<!-- Node11 -->
<g id="Node000011" class="node">
<title>Node11</title>
<g id="a_Node000011"><a xlink:href="PhysicsNoEngine_8hpp.html" target="_top" xlink:title=" ">
<polygon fill="white" stroke="#666666" points="1076.5,-188 963.75,-188 963.75,-168 1076.5,-168 1076.5,-188"/>
<text text-anchor="middle" x="1020.12" y="-174.5" font-family="Helvetica,sans-Serif" font-size="10.00">PhysicsNoEngine.hpp</text>
</a>
</g>
</g>
<!-- Node1&#45;&gt;Node11 -->
<g id="edge16_Node000001_Node000011" class="edge">
<title>Node1&#45;&gt;Node11</title>
<g id="a_edge16_Node000001_Node000011"><a xlink:title=" ">
<path fill="none" stroke="#63b8ff" d="M437.92,-456.19C511.39,-453.89 659.56,-445.15 780.12,-412 838.82,-395.86 854.41,-389.67 905.12,-356 935.51,-335.83 943.83,-329.62 965.12,-300 992.06,-262.53 1010.48,-209.75 1017.25,-188.46"/>
<polygon fill="#63b8ff" stroke="#63b8ff" points="438.2,-452.68 428.3,-456.46 438.4,-459.68 438.2,-452.68"/>
</a>
</g>
</g>
<!-- Node12 -->
<g id="Node000012" class="node">
<title>Node12</title>
<g id="a_Node000012"><a xlink:href="PhysicsUsingEngine_8hpp.html" target="_top" xlink:title=" ">
<polygon fill="white" stroke="#666666" points="939.88,-244 814.38,-244 814.38,-224 939.88,-224 939.88,-244"/>
<text text-anchor="middle" x="877.12" y="-230.5" font-family="Helvetica,sans-Serif" font-size="10.00">PhysicsUsingEngine.hpp</text>
</a>
</g>
</g>
<!-- Node1&#45;&gt;Node12 -->
<g id="edge20_Node000001_Node000012" class="edge">
<title>Node1&#45;&gt;Node12</title>
<g id="a_edge20_Node000001_Node000012"><a xlink:title=" ">
<path fill="none" stroke="#63b8ff" d="M438.04,-450.72C556.75,-433.42 868.61,-380.95 927.12,-300 941.72,-279.81 913,-256.85 893.36,-244.34"/>
<polygon fill="#63b8ff" stroke="#63b8ff" points="437.74,-447.22 428.34,-452.11 438.74,-454.15 437.74,-447.22"/>
</a>
</g>
</g>
<!-- Node13 -->
<g id="Node000013" class="node">
<title>Node13</title>
<g id="a_Node000013"><a xlink:href="PlayerControl_8hpp.html" target="_top" xlink:title=" ">
<polygon fill="white" stroke="#666666" points="288.12,-188 194.12,-188 194.12,-168 288.12,-168 288.12,-188"/>
<text text-anchor="middle" x="241.12" y="-174.5" font-family="Helvetica,sans-Serif" font-size="10.00">PlayerControl.hpp</text>
</a>
</g>
</g>
<!-- Node1&#45;&gt;Node13 -->
<g id="edge21_Node000001_Node000013" class="edge">
<title>Node1&#45;&gt;Node13</title>
<g id="a_edge21_Node000001_Node000013"><a xlink:title=" ">
<path fill="none" stroke="#63b8ff" d="M346.54,-457.61C271.01,-455.97 128.12,-440.51 128.12,-347 128.12,-347 128.12,-347 128.12,-289 128.12,-238.76 186.18,-204.03 219.07,-188.38"/>
<polygon fill="#63b8ff" stroke="#63b8ff" points="346.05,-461.1 356.1,-457.74 346.15,-454.1 346.05,-461.1"/>
</a>
</g>
</g>
<!-- Node14 -->
<g id="Node000014" class="node">
<title>Node14</title>
<g id="a_Node000014"><a xlink:href="SoundPlayer_8hpp.html" target="_top" xlink:title=" ">
<polygon fill="white" stroke="#666666" points="90.25,-132 0,-132 0,-112 90.25,-112 90.25,-132"/>
<text text-anchor="middle" x="45.12" y="-118.5" font-family="Helvetica,sans-Serif" font-size="10.00">SoundPlayer.hpp</text>
</a>
</g>
</g>
<!-- Node1&#45;&gt;Node14 -->
<g id="edge31_Node000001_Node000014" class="edge">
<title>Node1&#45;&gt;Node14</title>
<g id="a_edge31_Node000001_Node000014"><a xlink:title=" ">
<path fill="none" stroke="#63b8ff" d="M346.42,-453.68C276.21,-447.93 145.68,-434.55 105.12,-412 71.8,-393.47 49.12,-385.13 49.12,-347 49.12,-347 49.12,-347 49.12,-233 49.12,-195.74 46.8,-151.42 45.7,-132.41"/>
<polygon fill="#63b8ff" stroke="#63b8ff" points="345.8,-457.14 356.05,-454.44 346.36,-450.16 345.8,-457.14"/>
</a>
</g>
</g>
<!-- Node15 -->
<g id="Node000015" class="node">
<title>Node15</title>
<g id="a_Node000015"><a xlink:href="Render_8hpp.html" target="_top" xlink:title=" ">
<polygon fill="white" stroke="#666666" points="174.25,-132 108,-132 108,-112 174.25,-112 174.25,-132"/>
<text text-anchor="middle" x="141.12" y="-118.5" font-family="Helvetica,sans-Serif" font-size="10.00">Render.hpp</text>
</a>
</g>
</g>
<!-- Node1&#45;&gt;Node15 -->
<g id="edge28_Node000001_Node000015" class="edge">
<title>Node1&#45;&gt;Node15</title>
<g id="a_edge28_Node000001_Node000015"><a xlink:title=" ">
<path fill="none" stroke="#63b8ff" d="M346.11,-452.95C282.64,-446.69 172.16,-433.11 138.12,-412 107.6,-393.08 90.12,-382.91 90.12,-347 90.12,-347 90.12,-347 90.12,-233 90.12,-192.37 119.11,-150.48 133.38,-132.33"/>
<polygon fill="#63b8ff" stroke="#63b8ff" points="345.6,-456.42 355.89,-453.89 346.27,-449.45 345.6,-456.42"/>
</a>
</g>
</g>
<!-- Node16 -->
<g id="Node000016" class="node">
<title>Node16</title>
<g id="a_Node000016"><a xlink:href="SystemManager_8hpp.html" target="_top" xlink:title=" ">
<polygon fill="white" stroke="#666666" points="579.12,-412 473.12,-412 473.12,-392 579.12,-392 579.12,-412"/>
<text text-anchor="middle" x="526.12" y="-398.5" font-family="Helvetica,sans-Serif" font-size="10.00">SystemManager.hpp</text>
</a>
</g>
</g>
<!-- Node1&#45;&gt;Node16 -->
<g id="edge32_Node000001_Node000016" class="edge">
<title>Node1&#45;&gt;Node16</title>
<g id="a_edge32_Node000001_Node000016"><a xlink:title=" ">
<path fill="none" stroke="#63b8ff" d="M425.87,-443.4C449.81,-433.75 481.34,-421.05 502.6,-412.48"/>
<polygon fill="#63b8ff" stroke="#63b8ff" points="424.84,-440.04 416.87,-447.03 427.45,-446.54 424.84,-440.04"/>
</a>
</g>
</g>
<!-- Node3 -->
<g id="Node000003" class="node">
<title>Node3</title>
<g id="a_Node000003"><a xlink:href="GameTypes_8cpp.html" target="_top" xlink:title=" ">
<polygon fill="white" stroke="#666666" points="550.75,-20 463.5,-20 463.5,0 550.75,0 550.75,-20"/>
<text text-anchor="middle" x="507.12" y="-6.5" font-family="Helvetica,sans-Serif" font-size="10.00">GameTypes.cpp</text>
</a>
</g>
</g>
<!-- Node2&#45;&gt;Node3 -->
<g id="edge2_Node000002_Node000003" class="edge">
<title>Node2&#45;&gt;Node3</title>
<g id="a_edge2_Node000002_Node000003"><a xlink:title=" ">
<path fill="none" stroke="#63b8ff" d="M714.84,-156.13C714.57,-129.23 709.88,-82.74 683.12,-56 664.72,-37.61 596.93,-24.23 551.06,-17.04"/>
<polygon fill="#63b8ff" stroke="#63b8ff" points="711.34,-156.03 714.71,-166.08 718.34,-156.12 711.34,-156.03"/>
</a>
</g>
</g>
<!-- Node4 -->
<g id="Node000004" class="node">
<title>Node4</title>
<g id="a_Node000004"><a xlink:href="GameTypes_8hpp.html" target="_top" xlink:title=" ">
<polygon fill="white" stroke="#666666" points="431.75,-76 344.5,-76 344.5,-56 431.75,-56 431.75,-76"/>
<text text-anchor="middle" x="388.12" y="-62.5" font-family="Helvetica,sans-Serif" font-size="10.00">GameTypes.hpp</text>
</a>
</g>
</g>
<!-- Node2&#45;&gt;Node4 -->
<g id="edge3_Node000002_Node000004" class="edge">
<title>Node2&#45;&gt;Node4</title>
<g id="a_edge3_Node000002_Node000004"><a xlink:title=" ">
<path fill="none" stroke="#63b8ff" d="M666.74,-164.86C634.94,-156.4 592.23,-144.44 555.12,-132 502.47,-114.35 442.05,-89.71 410.3,-76.41"/>
<polygon fill="#63b8ff" stroke="#63b8ff" points="665.49,-168.15 676.05,-167.31 667.27,-161.38 665.49,-168.15"/>
</a>
</g>
</g>
<!-- Node6 -->
<g id="Node000006" class="node">
<title>Node6</title>
<g id="a_Node000006"><a xlink:href="Server_8hpp.html" target="_top" xlink:title=" ">
<polygon fill="white" stroke="#666666" points="809.75,-132 746.5,-132 746.5,-112 809.75,-112 809.75,-132"/>
<text text-anchor="middle" x="778.12" y="-118.5" font-family="Helvetica,sans-Serif" font-size="10.00">Server.hpp</text>
</a>
</g>
</g>
<!-- Node2&#45;&gt;Node6 -->
<g id="edge6_Node000002_Node000006" class="edge">
<title>Node2&#45;&gt;Node6</title>
<g id="a_edge6_Node000002_Node000006"><a xlink:title=" ">
<path fill="none" stroke="#63b8ff" d="M733.8,-160.4C744.74,-151.17 757.97,-140.01 767.1,-132.3"/>
<polygon fill="#63b8ff" stroke="#63b8ff" points="731.82,-157.49 726.43,-166.62 736.33,-162.84 731.82,-157.49"/>
</a>
</g>
</g>
<!-- Node4&#45;&gt;Node3 -->
<g id="edge4_Node000004_Node000003" class="edge">
<title>Node4&#45;&gt;Node3</title>
<g id="a_edge4_Node000004_Node000003"><a xlink:title=" ">
<path fill="none" stroke="#63b8ff" d="M419.25,-50.88C440.36,-41.3 467.7,-28.89 486.24,-20.48"/>
<polygon fill="#63b8ff" stroke="#63b8ff" points="417.89,-47.65 410.23,-54.97 420.78,-54.02 417.89,-47.65"/>
</a>
</g>
</g>
<!-- Node5 -->
<g id="Node000005" class="node">
<title>Node5</title>
<g id="a_Node000005"><a xlink:href="Client_2src_2main_8cpp.html" target="_top" xlink:title=" ">
<polygon fill="white" stroke="#666666" points="416,-20 360.25,-20 360.25,0 416,0 416,-20"/>
<text text-anchor="middle" x="388.12" y="-6.5" font-family="Helvetica,sans-Serif" font-size="10.00">main.cpp</text>
</a>
</g>
</g>
<!-- Node4&#45;&gt;Node5 -->
<g id="edge5_Node000004_Node000005" class="edge">
<title>Node4&#45;&gt;Node5</title>
<g id="a_edge5_Node000004_Node000005"><a xlink:title=" ">
<path fill="none" stroke="#63b8ff" d="M388.12,-44.13C388.12,-35.9 388.12,-26.85 388.12,-20.3"/>
<polygon fill="#63b8ff" stroke="#63b8ff" points="384.63,-44.08 388.13,-54.08 391.63,-44.08 384.63,-44.08"/>
</a>
</g>
</g>
<!-- Node7 -->
<g id="Node000007" class="node">
<title>Node7</title>
<g id="a_Node000007"><a xlink:href="Server_8cpp.html" target="_top" xlink:title=" ">
<polygon fill="white" stroke="#666666" points="967.75,-76 904.5,-76 904.5,-56 967.75,-56 967.75,-76"/>
<text text-anchor="middle" x="936.12" y="-62.5" font-family="Helvetica,sans-Serif" font-size="10.00">Server.cpp</text>
</a>
</g>
</g>
<!-- Node6&#45;&gt;Node7 -->
<g id="edge7_Node000006_Node000007" class="edge">
<title>Node6&#45;&gt;Node7</title>
<g id="a_edge7_Node000006_Node000007"><a xlink:title=" ">
<path fill="none" stroke="#63b8ff" d="M816.39,-107.92C844.8,-98.21 882.87,-85.2 908.39,-76.48"/>
<polygon fill="#63b8ff" stroke="#63b8ff" points="815.41,-104.56 807.08,-111.1 817.67,-111.18 815.41,-104.56"/>
</a>
</g>
</g>
<!-- Node8 -->
<g id="Node000008" class="node">
<title>Node8</title>
<g id="a_Node000008"><a xlink:href="Server_2src_2main_8cpp.html" target="_top" xlink:title=" ">
<polygon fill="white" stroke="#666666" points="806,-76 750.25,-76 750.25,-56 806,-56 806,-76"/>
<text text-anchor="middle" x="778.12" y="-62.5" font-family="Helvetica,sans-Serif" font-size="10.00">main.cpp</text>
</a>
</g>
</g>
<!-- Node6&#45;&gt;Node8 -->
<g id="edge8_Node000006_Node000008" class="edge">
<title>Node6&#45;&gt;Node8</title>
<g id="a_edge8_Node000006_Node000008"><a xlink:title=" ">
<path fill="none" stroke="#63b8ff" d="M778.12,-100.13C778.12,-91.9 778.12,-82.85 778.12,-76.3"/>
<polygon fill="#63b8ff" stroke="#63b8ff" points="774.63,-100.08 778.13,-110.08 781.63,-100.08 774.63,-100.08"/>
</a>
</g>
</g>
<!-- Node9&#45;&gt;Node3 -->
<g id="edge10_Node000009_Node000003" class="edge">
<title>Node9&#45;&gt;Node3</title>
<g id="a_edge10_Node000009_Node000003"><a xlink:title=" ">
<path fill="none" stroke="#63b8ff" d="M408.51,-104.3C418.49,-95.96 430.6,-85.63 441.12,-76 462.01,-56.9 485.37,-33.34 497.94,-20.48"/>
<polygon fill="#63b8ff" stroke="#63b8ff" points="406.34,-101.54 400.87,-110.62 410.81,-106.93 406.34,-101.54"/>
</a>
</g>
</g>
<!-- Node9&#45;&gt;Node4 -->
<g id="edge11_Node000009_Node000004" class="edge">
<title>Node9&#45;&gt;Node4</title>
<g id="a_edge11_Node000009_Node000004"><a xlink:title=" ">
<path fill="none" stroke="#63b8ff" d="M388.12,-100.13C388.12,-91.9 388.12,-82.85 388.12,-76.3"/>
<polygon fill="#63b8ff" stroke="#63b8ff" points="384.63,-100.08 388.13,-110.08 391.63,-100.08 384.63,-100.08"/>
</a>
</g>
</g>
<!-- Node10&#45;&gt;Node3 -->
<g id="edge13_Node000010_Node000003" class="edge">
<title>Node10&#45;&gt;Node3</title>
<g id="a_edge13_Node000010_Node000003"><a xlink:title=" ">
<path fill="none" stroke="#63b8ff" d="M872.11,-156.74C865.46,-129.03 849.36,-80.03 815.12,-56 773.38,-26.7 625.76,-16.14 551.08,-12.62"/>
<polygon fill="#63b8ff" stroke="#63b8ff" points="868.65,-157.31 874.2,-166.33 875.49,-155.81 868.65,-157.31"/>
</a>
</g>
</g>
<!-- Node10&#45;&gt;Node4 -->
<g id="edge14_Node000010_Node000004" class="edge">
<title>Node10&#45;&gt;Node4</title>
<g id="a_edge14_Node000010_Node000004"><a xlink:title=" ">
<path fill="none" stroke="#63b8ff" d="M865.41,-158.46C855.5,-143.19 839.27,-122.42 819.12,-112 785.26,-94.48 534.69,-76.48 431.92,-69.76"/>
<polygon fill="#63b8ff" stroke="#63b8ff" points="862.23,-159.97 870.44,-166.67 868.2,-156.31 862.23,-159.97"/>
</a>
</g>
</g>
<!-- Node10&#45;&gt;Node6 -->
<g id="edge15_Node000010_Node000006" class="edge">
<title>Node10&#45;&gt;Node6</title>
<g id="a_edge15_Node000010_Node000006"><a xlink:title=" ">
<path fill="none" stroke="#63b8ff" d="M849.05,-162.08C831.87,-152.62 810.17,-140.66 795.33,-132.48"/>
<polygon fill="#63b8ff" stroke="#63b8ff" points="847.28,-165.1 857.73,-166.86 850.66,-158.97 847.28,-165.1"/>
</a>
</g>
</g>
<!-- Node11&#45;&gt;Node3 -->
<g id="edge17_Node000011_Node000003" class="edge">
<title>Node11&#45;&gt;Node3</title>
<g id="a_edge17_Node000011_Node000003"><a xlink:title=" ">
<path fill="none" stroke="#63b8ff" d="M1019.22,-156.06C1016.8,-128.33 1008.08,-80.15 977.12,-56 943.92,-30.1 661.16,-16.78 550.9,-12.54"/>
<polygon fill="#63b8ff" stroke="#63b8ff" points="1015.73,-156.25 1019.86,-166 1022.71,-155.8 1015.73,-156.25"/>
</a>
</g>
</g>
<!-- Node11&#45;&gt;Node4 -->
<g id="edge18_Node000011_Node000004" class="edge">
<title>Node11&#45;&gt;Node4</title>
<g id="a_edge18_Node000011_Node000004"><a xlink:title=" ">
<path fill="none" stroke="#63b8ff" d="M989.62,-162.92C955.27,-147.72 897.41,-124.07 845.12,-112 696.37,-77.66 514.44,-69.51 432.21,-67.59"/>
<polygon fill="#63b8ff" stroke="#63b8ff" points="987.97,-166.02 998.53,-166.91 990.84,-159.63 987.97,-166.02"/>
</a>
</g>
</g>
<!-- Node11&#45;&gt;Node6 -->
<g id="edge19_Node000011_Node000006" class="edge">
<title>Node11&#45;&gt;Node6</title>
<g id="a_edge19_Node000011_Node000006"><a xlink:title=" ">
<path fill="none" stroke="#63b8ff" d="M966.59,-165.05C918.64,-154.35 849.92,-139.02 810.07,-130.13"/>
<polygon fill="#63b8ff" stroke="#63b8ff" points="965.7,-168.44 976.22,-167.2 967.22,-161.61 965.7,-168.44"/>
</a>
</g>
</g>
<!-- Node13&#45;&gt;Node3 -->
<g id="edge22_Node000013_Node000003" class="edge">
<title>Node13&#45;&gt;Node3</title>
<g id="a_edge22_Node000013_Node000003"><a xlink:title=" ">
<path fill="none" stroke="#63b8ff" d="M249.78,-157.16C256.1,-143.76 265.41,-126.02 276.12,-112 298.08,-83.28 303.53,-73.57 335.12,-56 375.32,-33.64 426.99,-22.07 463.16,-16.3"/>
<polygon fill="#63b8ff" stroke="#63b8ff" points="246.6,-155.69 245.66,-166.24 252.98,-158.58 246.6,-155.69"/>
</a>
</g>
</g>
<!-- Node13&#45;&gt;Node4 -->
<g id="edge23_Node000013_Node000004" class="edge">
<title>Node13&#45;&gt;Node4</title>
<g id="a_edge23_Node000013_Node000004"><a xlink:title=" ">
<path fill="none" stroke="#63b8ff" d="M255.21,-158.95C266.76,-144.95 284.1,-125.69 302.12,-112 321.85,-97.02 347.28,-84.4 365.36,-76.38"/>
<polygon fill="#63b8ff" stroke="#63b8ff" points="252.69,-156.5 249.14,-166.49 258.14,-160.89 252.69,-156.5"/>
</a>
</g>
</g>
<!-- Node13&#45;&gt;Node6 -->
<g id="edge24_Node000013_Node000006" class="edge">
<title>Node13&#45;&gt;Node6</title>
<g id="a_edge24_Node000013_Node000006"><a xlink:title=" ">
<path fill="none" stroke="#63b8ff" d="M299.48,-171.13C412.61,-159.76 658.32,-135.05 746.13,-126.22"/>
<polygon fill="#63b8ff" stroke="#63b8ff" points="299.42,-167.62 289.82,-172.1 300.12,-174.59 299.42,-167.62"/>
</a>
</g>
</g>
<!-- Node13&#45;&gt;Node14 -->
<g id="edge25_Node000013_Node000014" class="edge">
<title>Node13&#45;&gt;Node14</title>
<g id="a_edge25_Node000013_Node000014"><a xlink:title=" ">
<path fill="none" stroke="#63b8ff" d="M195.97,-164.56C160.51,-154.79 111.89,-141.39 79.53,-132.48"/>
<polygon fill="#63b8ff" stroke="#63b8ff" points="194.95,-167.91 205.53,-167.19 196.81,-161.16 194.95,-167.91"/>
</a>
</g>
</g>
<!-- Node14&#45;&gt;Node3 -->
<g id="edge26_Node000014_Node000003" class="edge">
<title>Node14&#45;&gt;Node3</title>
<g id="a_edge26_Node000014_Node000003"><a xlink:title=" ">
<path fill="none" stroke="#63b8ff" d="M71.71,-106.23C99.97,-91.19 146.38,-68.4 189.12,-56 214.93,-48.52 382.15,-26.79 463.21,-16.51"/>
<polygon fill="#63b8ff" stroke="#63b8ff" points="70.28,-103.02 63.15,-110.85 73.61,-109.18 70.28,-103.02"/>
</a>
</g>
</g>
<!-- Node14&#45;&gt;Node4 -->
<g id="edge27_Node000014_Node000004" class="edge">
<title>Node14&#45;&gt;Node4</title>
<g id="a_edge27_Node000014_Node000004"><a xlink:title=" ">
<path fill="none" stroke="#63b8ff" d="M101.69,-111.6C193.71,-96.81 289.56,-82.05 344.04,-73.72"/>
<polygon fill="#63b8ff" stroke="#63b8ff" points="101.3,-108.12 91.99,-113.16 102.42,-115.03 101.3,-108.12"/>
</a>
</g>
</g>
<!-- Node15&#45;&gt;Node3 -->
<g id="edge29_Node000015_Node000003" class="edge">
<title>Node15&#45;&gt;Node3</title>
<g id="a_edge29_Node000015_Node000003"><a xlink:title=" ">
<path fill="none" stroke="#63b8ff" d="M157.95,-104.01C174.01,-88.87 199.63,-67.39 226.12,-56 247.52,-46.81 389.76,-26.75 463.28,-16.82"/>
<polygon fill="#63b8ff" stroke="#63b8ff" points="155.88,-101.14 151.15,-110.62 160.76,-106.16 155.88,-101.14"/>
</a>
</g>
</g>
<!-- Node15&#45;&gt;Node4 -->
<g id="edge30_Node000015_Node000004" class="edge">
<title>Node15&#45;&gt;Node4</title>
<g id="a_edge30_Node000015_Node000004"><a xlink:title=" ">
<path fill="none" stroke="#63b8ff" d="M185.92,-111.21C231.14,-101.32 300.5,-86.16 345.08,-76.41"/>
<polygon fill="#63b8ff" stroke="#63b8ff" points="185.19,-107.78 176.17,-113.34 186.69,-114.62 185.19,-107.78"/>
</a>
</g>
</g>
<!-- Node17 -->
<g id="Node000017" class="node">
<title>Node17</title>
<g id="a_Node000017"><a xlink:href="Mediator_8hpp.html" target="_top" xlink:title=" ">
<polygon fill="white" stroke="#666666" points="721.25,-356 649,-356 649,-336 721.25,-336 721.25,-356"/>
<text text-anchor="middle" x="685.12" y="-342.5" font-family="Helvetica,sans-Serif" font-size="10.00">Mediator.hpp</text>
</a>
</g>
</g>
<!-- Node16&#45;&gt;Node17 -->
<g id="edge33_Node000016_Node000017" class="edge">
<title>Node16&#45;&gt;Node17</title>
<g id="a_edge33_Node000016_Node000017"><a xlink:title=" ">
<path fill="none" stroke="#63b8ff" d="M564.64,-387.92C593.22,-378.21 631.54,-365.2 657.21,-356.48"/>
<polygon fill="#63b8ff" stroke="#63b8ff" points="563.6,-384.58 555.25,-391.11 565.85,-391.21 563.6,-384.58"/>
</a>
</g>
</g>
<!-- Node26 -->
<g id="Node000026" class="node">
<title>Node26</title>
<g id="a_Node000026"><a xlink:href="SystemManager_8cpp.html" target="_top" xlink:title=" ">
<polygon fill="white" stroke="#666666" points="579.12,-356 473.12,-356 473.12,-336 579.12,-336 579.12,-356"/>
<text text-anchor="middle" x="526.12" y="-342.5" font-family="Helvetica,sans-Serif" font-size="10.00">SystemManager.cpp</text>
</a>
</g>
</g>
<!-- Node16&#45;&gt;Node26 -->
<g id="edge64_Node000016_Node000026" class="edge">
<title>Node16&#45;&gt;Node26</title>
<g id="a_edge64_Node000016_Node000026"><a xlink:title=" ">
<path fill="none" stroke="#63b8ff" d="M526.12,-380.13C526.12,-371.9 526.12,-362.85 526.12,-356.3"/>
<polygon fill="#63b8ff" stroke="#63b8ff" points="522.63,-380.08 526.13,-390.08 529.63,-380.08 522.63,-380.08"/>
</a>
</g>
</g>
<!-- Node17&#45;&gt;Node3 -->
<g id="edge52_Node000017_Node000003" class="edge">
<title>Node17&#45;&gt;Node3</title>
<g id="a_edge52_Node000017_Node000003"><a xlink:title=" ">
<path fill="none" stroke="#63b8ff" d="M733.17,-345.19C795.45,-343.85 906.37,-335.99 993.12,-300 1071.92,-267.31 1142.12,-264.31 1142.12,-179 1142.12,-179 1142.12,-179 1142.12,-121 1142.12,-51.59 1067.2,-73.85 1000.12,-56 838.79,-13.06 638.44,-9.37 551.18,-10.1"/>
<polygon fill="#63b8ff" stroke="#63b8ff" points="733.2,-341.69 723.26,-345.35 733.32,-348.69 733.2,-341.69"/>
</a>
</g>
</g>
<!-- Node17&#45;&gt;Node4 -->
<g id="edge53_Node000017_Node000004" class="edge">
<title>Node17&#45;&gt;Node4</title>
<g id="a_edge53_Node000017_Node000004"><a xlink:title=" ">
<path fill="none" stroke="#63b8ff" d="M637.35,-339.29C588.17,-332.67 509.7,-320.02 444.12,-300 324.18,-263.37 253.99,-292.81 185.12,-188 142.71,-123.45 272.45,-88.4 344.09,-74.38"/>
<polygon fill="#63b8ff" stroke="#63b8ff" points="636.72,-342.73 647.09,-340.57 637.63,-335.79 636.72,-342.73"/>
</a>
</g>
</g>
<!-- Node17&#45;&gt;Node6 -->
<g id="edge63_Node000017_Node000006" class="edge">
<title>Node17&#45;&gt;Node6</title>
<g id="a_edge63_Node000017_Node000006"><a xlink:title=" ">
<path fill="none" stroke="#63b8ff" d="M719.04,-330.31C732.17,-323.01 746.17,-312.94 755.12,-300 792.5,-245.98 783.75,-160.04 779.63,-132.1"/>
<polygon fill="#63b8ff" stroke="#63b8ff" points="717.44,-327.2 710.15,-334.89 720.64,-333.43 717.44,-327.2"/>
</a>
</g>
</g>
<!-- Node17&#45;&gt;Node7 -->
<g id="edge62_Node000017_Node000007" class="edge">
<title>Node17&#45;&gt;Node7</title>
<g id="a_edge62_Node000017_Node000007"><a xlink:title=" ">
<path fill="none" stroke="#63b8ff" d="M732.87,-344.99C825.19,-341.93 1024.43,-319.74 1085.12,-188 1111.27,-131.25 1019.19,-92.72 968.04,-76.16"/>
<polygon fill="#63b8ff" stroke="#63b8ff" points="733.05,-341.48 723.14,-345.24 733.23,-348.48 733.05,-341.48"/>
</a>
</g>
</g>
<!-- Node17&#45;&gt;Node11 -->
<g id="edge58_Node000017_Node000011" class="edge">
<title>Node17&#45;&gt;Node11</title>
<g id="a_edge58_Node000017_Node000011"><a xlink:title=" ">
<path fill="none" stroke="#63b8ff" d="M732.68,-340.23C793.62,-333.42 895.2,-319.56 927.12,-300 973.21,-271.76 1004.9,-211.69 1015.88,-188.45"/>
<polygon fill="#63b8ff" stroke="#63b8ff" points="732.5,-336.73 722.94,-341.29 733.26,-343.68 732.5,-336.73"/>
</a>
</g>
</g>
<!-- Node17&#45;&gt;Node12 -->
<g id="edge59_Node000017_Node000012" class="edge">
<title>Node17&#45;&gt;Node12</title>
<g id="a_edge59_Node000017_Node000012"><a xlink:title=" ">
<path fill="none" stroke="#63b8ff" d="M733.13,-342.38C792.68,-338.01 889.06,-326.89 911.12,-300 925.67,-282.28 902.95,-257.34 888.18,-244.1"/>
<polygon fill="#63b8ff" stroke="#63b8ff" points="732.99,-338.88 723.26,-343.06 733.48,-345.87 732.99,-338.88"/>
</a>
</g>
</g>
<!-- Node17&#45;&gt;Node13 -->
<g id="edge60_Node000017_Node000013" class="edge">
<title>Node17&#45;&gt;Node13</title>
<g id="a_edge60_Node000017_Node000013"><a xlink:title=" ">
<path fill="none" stroke="#63b8ff" d="M637.44,-337.39C596.78,-330.15 537.14,-317.71 487.12,-300 475.26,-295.8 315.09,-215.95 259.77,-188.32"/>
<polygon fill="#63b8ff" stroke="#63b8ff" points="636.7,-340.82 647.15,-339.08 637.9,-333.92 636.7,-340.82"/>
</a>
</g>
</g>
<!-- Node17&#45;&gt;Node15 -->
<g id="edge61_Node000017_Node000015" class="edge">
<title>Node17&#45;&gt;Node15</title>
<g id="a_edge61_Node000017_Node000015"><a xlink:title=" ">
<path fill="none" stroke="#63b8ff" d="M637.35,-339.29C588.17,-332.67 509.7,-320.02 444.12,-300 324.18,-263.37 281.69,-268.02 185.12,-188 166.03,-172.18 151.85,-146 145.24,-132.19"/>
<polygon fill="#63b8ff" stroke="#63b8ff" points="636.72,-342.73 647.09,-340.57 637.63,-335.79 636.72,-342.73"/>
</a>
</g>
</g>
<!-- Node18 -->
<g id="Node000018" class="node">
<title>Node18</title>
<g id="a_Node000018"><a xlink:href="ComponentRegistry_8hpp.html" target="_top" xlink:title=" ">
<polygon fill="white" stroke="#666666" points="745.62,-300 624.62,-300 624.62,-280 745.62,-280 745.62,-300"/>
<text text-anchor="middle" x="685.12" y="-286.5" font-family="Helvetica,sans-Serif" font-size="10.00">ComponentRegistry.hpp</text>
</a>
</g>
</g>
<!-- Node17&#45;&gt;Node18 -->
<g id="edge34_Node000017_Node000018" class="edge">
<title>Node17&#45;&gt;Node18</title>
<g id="a_edge34_Node000017_Node000018"><a xlink:title=" ">
<path fill="none" stroke="#63b8ff" d="M685.12,-324.13C685.12,-315.9 685.12,-306.85 685.12,-300.3"/>
<polygon fill="#63b8ff" stroke="#63b8ff" points="681.63,-324.08 685.13,-334.08 688.63,-324.08 681.63,-324.08"/>
</a>
</g>
</g>
<!-- Node19 -->
<g id="Node000019" class="node">
<title>Node19</title>
<g id="a_Node000019"><a xlink:href="NetworkManager_8hpp.html" target="_top" xlink:title=" ">
<polygon fill="white" stroke="#666666" points="605.62,-244 496.62,-244 496.62,-224 605.62,-224 605.62,-244"/>
<text text-anchor="middle" x="551.12" y="-230.5" font-family="Helvetica,sans-Serif" font-size="10.00">NetworkManager.hpp</text>
</a>
</g>
</g>
<!-- Node17&#45;&gt;Node19 -->
<g id="edge55_Node000017_Node000019" class="edge">
<title>Node17&#45;&gt;Node19</title>
<g id="a_edge55_Node000017_Node000019"><a xlink:title=" ">
<path fill="none" stroke="#63b8ff" d="M658.62,-329.88C645.11,-321.7 628.71,-311.03 615.12,-300 593.25,-282.23 570.85,-257.74 559.24,-244.48"/>
<polygon fill="#63b8ff" stroke="#63b8ff" points="656.6,-332.75 666.99,-334.84 660.17,-326.73 656.6,-332.75"/>
</a>
</g>
</g>
<!-- Node24 -->
<g id="Node000024" class="node">
<title>Node24</title>
<g id="a_Node000024"><a xlink:href="Mediator_8cpp.html" target="_top" xlink:title=" ">
<polygon fill="white" stroke="#666666" points="568.25,-300 496,-300 496,-280 568.25,-280 568.25,-300"/>
<text text-anchor="middle" x="532.12" y="-286.5" font-family="Helvetica,sans-Serif" font-size="10.00">Mediator.cpp</text>
</a>
</g>
</g>
<!-- Node17&#45;&gt;Node24 -->
<g id="edge54_Node000017_Node000024" class="edge">
<title>Node17&#45;&gt;Node24</title>
<g id="a_edge54_Node000017_Node000024"><a xlink:title=" ">
<path fill="none" stroke="#63b8ff" d="M647.7,-331.79C620.24,-322.1 583.58,-309.16 558.98,-300.48"/>
<polygon fill="#63b8ff" stroke="#63b8ff" points="646.45,-335.06 657.05,-335.09 648.78,-328.46 646.45,-335.06"/>
</a>
</g>
</g>
<!-- Node25 -->
<g id="Node000025" class="node">
<title>Node25</title>
<g id="a_Node000025"><a xlink:href="PhysicsEngine_8hpp.html" target="_top" xlink:title=" ">
<polygon fill="white" stroke="#666666" points="902.12,-300 802.12,-300 802.12,-280 902.12,-280 902.12,-300"/>
<text text-anchor="middle" x="852.12" y="-286.5" font-family="Helvetica,sans-Serif" font-size="10.00">PhysicsEngine.hpp</text>
</a>
</g>
</g>
<!-- Node17&#45;&gt;Node25 -->
<g id="edge56_Node000017_Node000025" class="edge">
<title>Node17&#45;&gt;Node25</title>
<g id="a_edge56_Node000017_Node000025"><a xlink:title=" ">
<path fill="none" stroke="#63b8ff" d="M724.78,-332.18C754.88,-322.44 795.6,-309.28 822.81,-300.48"/>
<polygon fill="#63b8ff" stroke="#63b8ff" points="724.09,-328.72 715.65,-335.13 726.25,-335.38 724.09,-328.72"/>
</a>
</g>
</g>
<!-- Node18&#45;&gt;Node19 -->
<g id="edge35_Node000018_Node000019" class="edge">
<title>Node18&#45;&gt;Node19</title>
<g id="a_edge35_Node000018_Node000019"><a xlink:title=" ">
<path fill="none" stroke="#63b8ff" d="M651.38,-275.4C627.44,-265.75 595.91,-253.05 574.65,-244.48"/>
<polygon fill="#63b8ff" stroke="#63b8ff" points="649.8,-278.54 660.38,-279.03 652.41,-272.04 649.8,-278.54"/>
</a>
</g>
</g>
<!-- Node19&#45;&gt;Node2 -->
<g id="edge36_Node000019_Node000002" class="edge">
<title>Node19&#45;&gt;Node2</title>
<g id="a_edge36_Node000019_Node000002"><a xlink:title=" ">
<path fill="none" stroke="#63b8ff" d="M590.22,-220.05C619.56,-210.33 659.07,-197.24 685.51,-188.48"/>
<polygon fill="#63b8ff" stroke="#63b8ff" points="589.35,-216.65 580.95,-223.12 591.55,-223.3 589.35,-216.65"/>
</a>
</g>
</g>
<!-- Node19&#45;&gt;Node4 -->
<g id="edge39_Node000019_Node000004" class="edge">
<title>Node19&#45;&gt;Node4</title>
<g id="a_edge39_Node000019_Node000004"><a xlink:title=" ">
<path fill="none" stroke="#63b8ff" d="M485.46,-221.28C456.51,-214.33 422.85,-203.72 395.12,-188 363.4,-170.01 349.66,-165.45 335.12,-132 325.26,-109.3 351.87,-88.08 370.86,-76.39"/>
<polygon fill="#63b8ff" stroke="#63b8ff" points="484.29,-224.61 494.82,-223.43 485.86,-217.78 484.29,-224.61"/>
</a>
</g>
</g>
<!-- Node19&#45;&gt;Node6 -->
<g id="edge51_Node000019_Node000006" class="edge">
<title>Node19&#45;&gt;Node6</title>
<g id="a_edge51_Node000019_Node000006"><a xlink:title=" ">
<path fill="none" stroke="#63b8ff" d="M617.42,-226.05C670.29,-219.2 738.75,-206.97 759.12,-188 774.79,-173.42 777.78,-146.72 778.21,-132.5"/>
<polygon fill="#63b8ff" stroke="#63b8ff" points="617.04,-222.57 607.55,-227.28 617.91,-229.52 617.04,-222.57"/>
</a>
</g>
</g>
<!-- Node19&#45;&gt;Node7 -->
<g id="edge50_Node000019_Node000007" class="edge">
<title>Node19&#45;&gt;Node7</title>
<g id="a_edge50_Node000019_Node000007"><a xlink:title=" ">
<path fill="none" stroke="#63b8ff" d="M617.51,-229.13C717.15,-222.68 896.02,-208.42 917.12,-188 948.31,-157.84 941.86,-98.91 937.95,-76.22"/>
<polygon fill="#63b8ff" stroke="#63b8ff" points="617.33,-225.63 607.57,-229.76 617.77,-232.62 617.33,-225.63"/>
</a>
</g>
</g>
<!-- Node19&#45;&gt;Node9 -->
<g id="edge37_Node000019_Node000009" class="edge">
<title>Node19&#45;&gt;Node9</title>
<g id="a_edge37_Node000019_Node000009"><a xlink:title=" ">
<path fill="none" stroke="#63b8ff" d="M485.35,-224.7C459.4,-218.41 431.08,-207.38 411.12,-188 395.5,-172.82 390.47,-146.37 388.86,-132.35"/>
<polygon fill="#63b8ff" stroke="#63b8ff" points="484.31,-228.05 494.82,-226.78 485.81,-221.21 484.31,-228.05"/>
</a>
</g>
</g>
<!-- Node19&#45;&gt;Node10 -->
<g id="edge38_Node000019_Node000010" class="edge">
<title>Node19&#45;&gt;Node10</title>
<g id="a_edge38_Node000019_Node000010"><a xlink:title=" ">
<path fill="none" stroke="#63b8ff" d="M617.02,-222.05C685.76,-210.63 790.7,-193.19 843.45,-184.43"/>
<polygon fill="#63b8ff" stroke="#63b8ff" points="616.67,-218.56 607.38,-223.65 617.82,-225.47 616.67,-218.56"/>
</a>
</g>
</g>
<!-- Node19&#45;&gt;Node13 -->
<g id="edge41_Node000019_Node000013" class="edge">
<title>Node19&#45;&gt;Node13</title>
<g id="a_edge41_Node000019_Node000013"><a xlink:title=" ">
<path fill="none" stroke="#63b8ff" d="M485.69,-221.6C426.56,-211.3 340.98,-196.39 288.3,-187.22"/>
<polygon fill="#63b8ff" stroke="#63b8ff" points="484.83,-225 495.28,-223.27 486.03,-218.11 484.83,-225"/>
</a>
</g>
</g>
<!-- Node20 -->
<g id="Node000020" class="node">
<title>Node20</title>
<g id="a_Node000020"><a xlink:href="NetworkManager_8cpp.html" target="_top" xlink:title=" ">
<polygon fill="white" stroke="#666666" points="659.62,-188 550.62,-188 550.62,-168 659.62,-168 659.62,-188"/>
<text text-anchor="middle" x="605.12" y="-174.5" font-family="Helvetica,sans-Serif" font-size="10.00">NetworkManager.cpp</text>
</a>
</g>
</g>
<!-- Node19&#45;&gt;Node20 -->
<g id="edge40_Node000019_Node000020" class="edge">
<title>Node19&#45;&gt;Node20</title>
<g id="a_edge40_Node000019_Node000020"><a xlink:title=" ">
<path fill="none" stroke="#63b8ff" d="M568.56,-215.57C577.63,-206.5 588.35,-195.78 595.83,-188.3"/>
<polygon fill="#63b8ff" stroke="#63b8ff" points="566.2,-212.98 561.6,-222.52 571.15,-217.93 566.2,-212.98"/>
</a>
</g>
</g>
<!-- Node21 -->
<g id="Node000021" class="node">
<title>Node21</title>
<g id="a_Node000021"><a xlink:href="Renderer_8hpp.html" target="_top" xlink:title=" ">
<polygon fill="white" stroke="#666666" points="494.38,-188 419.88,-188 419.88,-168 494.38,-168 494.38,-188"/>
<text text-anchor="middle" x="457.12" y="-174.5" font-family="Helvetica,sans-Serif" font-size="10.00">Renderer.hpp</text>
</a>
</g>
</g>
<!-- Node19&#45;&gt;Node21 -->
<g id="edge42_Node000019_Node000021" class="edge">
<title>Node19&#45;&gt;Node21</title>
<g id="a_edge42_Node000019_Node000021"><a xlink:title=" ">
<path fill="none" stroke="#63b8ff" d="M525.15,-218.08C508.68,-208.62 487.87,-196.66 473.63,-188.48"/>
<polygon fill="#63b8ff" stroke="#63b8ff" points="523.02,-220.89 533.44,-222.84 526.51,-214.82 523.02,-220.89"/>
</a>
</g>
</g>
<!-- Node23 -->
<g id="Node000023" class="node">
<title>Node23</title>
<g id="a_Node000023"><a xlink:href="Renderers_2SFML_2SFML_8cpp.html" target="_top" xlink:title=" ">
<polygon fill="white" stroke="#666666" points="674.62,-76 613.62,-76 613.62,-56 674.62,-56 674.62,-76"/>
<text text-anchor="middle" x="644.12" y="-62.5" font-family="Helvetica,sans-Serif" font-size="10.00">SFML.cpp</text>
</a>
</g>
</g>
<!-- Node19&#45;&gt;Node23 -->
<g id="edge49_Node000019_Node000023" class="edge">
<title>Node19&#45;&gt;Node23</title>
<g id="a_edge49_Node000019_Node000023"><a xlink:title=" ">
<path fill="none" stroke="#63b8ff" d="M541.33,-213.36C535.96,-199.55 532.05,-181.24 541.12,-168 566.18,-131.44 606.36,-166.55 634.12,-132 647.14,-115.8 646.71,-89.78 645.36,-76.09"/>
<polygon fill="#63b8ff" stroke="#63b8ff" points="538.05,-214.6 545.32,-222.32 544.45,-211.76 538.05,-214.6"/>
</a>
</g>
</g>
<!-- Node21&#45;&gt;Node3 -->
<g id="edge44_Node000021_Node000003" class="edge">
<title>Node21&#45;&gt;Node3</title>
<g id="a_edge44_Node000021_Node000003"><a xlink:title=" ">
<path fill="none" stroke="#63b8ff" d="M463.16,-156.97C474.02,-120.92 496.46,-46.42 504.32,-20.3"/>
<polygon fill="#63b8ff" stroke="#63b8ff" points="459.93,-155.57 460.39,-166.15 466.63,-157.58 459.93,-155.57"/>
</a>
</g>
</g>
<!-- Node21&#45;&gt;Node4 -->
<g id="edge45_Node000021_Node000004" class="edge">
<title>Node21&#45;&gt;Node4</title>
<g id="a_edge45_Node000021_Node000004"><a xlink:title=" ">
<path fill="none" stroke="#63b8ff" d="M455.37,-156.52C453.46,-143.05 449.47,-125.48 441.12,-112 431.85,-97.01 415.92,-84.48 403.94,-76.48"/>
<polygon fill="#63b8ff" stroke="#63b8ff" points="451.89,-156.86 456.47,-166.41 458.85,-156.09 451.89,-156.86"/>
</a>
</g>
</g>
<!-- Node21&#45;&gt;Node9 -->
<g id="edge43_Node000021_Node000009" class="edge">
<title>Node21&#45;&gt;Node9</title>
<g id="a_edge43_Node000021_Node000009"><a xlink:title=" ">
<path fill="none" stroke="#63b8ff" d="M436.27,-160.68C424.4,-151.39 409.96,-140.09 400.01,-132.3"/>
<polygon fill="#63b8ff" stroke="#63b8ff" points="433.88,-163.25 443.91,-166.66 438.2,-157.74 433.88,-163.25"/>
</a>
</g>
</g>
<!-- Node21&#45;&gt;Node15 -->
<g id="edge46_Node000021_Node000015" class="edge">
<title>Node21&#45;&gt;Node15</title>
<g id="a_edge46_Node000021_Node000015"><a xlink:title=" ">
<path fill="none" stroke="#63b8ff" d="M408.51,-168.69C343.74,-157.62 230.82,-138.33 174.73,-128.74"/>
<polygon fill="#63b8ff" stroke="#63b8ff" points="407.7,-172.1 418.14,-170.34 408.88,-165.2 407.7,-172.1"/>
</a>
</g>
</g>
<!-- Node22 -->
<g id="Node000022" class="node">
<title>Node22</title>
<g id="a_Node000022"><a xlink:href="Renderers_2SFML_2SFML_8hpp.html" target="_top" xlink:title=" ">
<polygon fill="white" stroke="#666666" points="625.62,-132 564.62,-132 564.62,-112 625.62,-112 625.62,-132"/>
<text text-anchor="middle" x="595.12" y="-118.5" font-family="Helvetica,sans-Serif" font-size="10.00">SFML.hpp</text>
</a>
</g>
</g>
<!-- Node21&#45;&gt;Node22 -->
<g id="edge47_Node000021_Node000022" class="edge">
<title>Node21&#45;&gt;Node22</title>
<g id="a_edge47_Node000021_Node000022"><a xlink:title=" ">
<path fill="none" stroke="#63b8ff" d="M491.88,-163.4C516.53,-153.75 549.01,-141.05 570.9,-132.48"/>
<polygon fill="#63b8ff" stroke="#63b8ff" points="490.61,-160.14 482.57,-167.04 493.16,-166.66 490.61,-160.14"/>
</a>
</g>
</g>
<!-- Node22&#45;&gt;Node23 -->
<g id="edge48_Node000022_Node000023" class="edge">
<title>Node22&#45;&gt;Node23</title>
<g id="a_edge48_Node000022_Node000023"><a xlink:title=" ">
<path fill="none" stroke="#63b8ff" d="M611.2,-103.29C619.37,-94.28 628.97,-83.7 635.69,-76.3"/>
<polygon fill="#63b8ff" stroke="#63b8ff" points="608.81,-100.72 604.68,-110.47 613.99,-105.42 608.81,-100.72"/>
</a>
</g>
</g>
<!-- Node25&#45;&gt;Node12 -->
<g id="edge57_Node000025_Node000012" class="edge">
<title>Node25&#45;&gt;Node12</title>
<g id="a_edge57_Node000025_Node000012"><a xlink:title=" ">
<path fill="none" stroke="#63b8ff" d="M861.25,-269.29C865.2,-260.75 869.64,-251.16 872.82,-244.3"/>
<polygon fill="#63b8ff" stroke="#63b8ff" points="858.14,-267.68 857.12,-278.22 864.49,-270.62 858.14,-267.68"/>
</a>
</g>
</g>
</g>
</svg>
