<?xml version="1.0" encoding="UTF-8" standalone="no"?>
<!DOCTYPE svg PUBLIC "-//W3C//DTD SVG 1.1//EN"
 "http://www.w3.org/Graphics/SVG/1.1/DTD/svg11.dtd">
<!-- Generated by graphviz version 12.1.0 (20240811.2233)
 -->
<!-- Title: SystemManager.hpp Pages: 1 -->
<svg width="489pt" height="196pt"
 viewBox="0.00 0.00 489.38 196.00" xmlns="http://www.w3.org/2000/svg" xmlns:xlink="http://www.w3.org/1999/xlink">
<g id="graph0" class="graph" transform="scale(1 1) rotate(0) translate(4 192)">
<title>SystemManager.hpp</title>
<!-- Node1 -->
<g id="Node000001" class="node">
<title>Node1</title>
<g id="a_Node000001"><a xlink:title=" ">
<polygon fill="#999999" stroke="#666666" points="265.38,-188 159.38,-188 159.38,-168 265.38,-168 265.38,-188"/>
<text text-anchor="middle" x="212.38" y="-174.5" font-family="Helvetica,sans-Serif" font-size="10.00">SystemManager.hpp</text>
</a>
</g>
</g>
<!-- Node2 -->
<g id="Node000002" class="node">
<title>Node2</title>
<g id="a_Node000002"><a xlink:title=" ">
<polygon fill="#e0e0e0" stroke="#999999" points="82.75,-132 0,-132 0,-112 82.75,-112 82.75,-132"/>
<text text-anchor="middle" x="41.38" y="-118.5" font-family="Helvetica,sans-Serif" font-size="10.00">unordered_map</text>
</a>
</g>
</g>
<!-- Node1&#45;&gt;Node2 -->
<g id="edge1_Node000001_Node000002" class="edge">
<title>Node1&#45;&gt;Node2</title>
<g id="a_edge1_Node000001_Node000002"><a xlink:title=" ">
<path fill="none" stroke="#63b8ff" d="M182.59,-167.59C154.81,-158.82 113.12,-145.66 82.24,-135.9"/>
<polygon fill="#63b8ff" stroke="#63b8ff" points="83.43,-132.61 72.84,-132.94 81.32,-139.28 83.43,-132.61"/>
</a>
</g>
</g>
<!-- Node3 -->
<g id="Node000003" class="node">
<title>Node3</title>
<g id="a_Node000003"><a xlink:title=" ">
<polygon fill="#e0e0e0" stroke="#999999" points="140.38,-132 100.38,-132 100.38,-112 140.38,-112 140.38,-132"/>
<text text-anchor="middle" x="120.38" y="-118.5" font-family="Helvetica,sans-Serif" font-size="10.00">string</text>
</a>
</g>
</g>
<!-- Node1&#45;&gt;Node3 -->
<g id="edge2_Node000001_Node000003" class="edge">
<title>Node1&#45;&gt;Node3</title>
<g id="a_edge2_Node000001_Node000003"><a xlink:title=" ">
<path fill="none" stroke="#63b8ff" d="M196.35,-167.59C182.58,-159.51 162.47,-147.71 146.4,-138.27"/>
<polygon fill="#63b8ff" stroke="#63b8ff" points="148.23,-135.29 137.83,-133.25 144.68,-141.33 148.23,-135.29"/>
</a>
</g>
</g>
<!-- Node4 -->
<g id="Node000004" class="node">
<title>Node4</title>
<g id="a_Node000004"><a xlink:title=" ">
<polygon fill="#e0e0e0" stroke="#999999" points="201.88,-132 158.88,-132 158.88,-112 201.88,-112 201.88,-132"/>
<text text-anchor="middle" x="180.38" y="-118.5" font-family="Helvetica,sans-Serif" font-size="10.00">vector</text>
</a>
</g>
</g>
<!-- Node1&#45;&gt;Node4 -->
<g id="edge3_Node000001_Node000004" class="edge">
<title>Node1&#45;&gt;Node4</title>
<g id="a_edge3_Node000001_Node000004"><a xlink:title=" ">
<path fill="none" stroke="#63b8ff" d="M206.8,-167.59C202.63,-160.55 196.77,-150.67 191.63,-142"/>
<polygon fill="#63b8ff" stroke="#63b8ff" points="194.77,-140.42 186.66,-133.6 188.74,-143.99 194.77,-140.42"/>
</a>
</g>
</g>
<!-- Node5 -->
<g id="Node000005" class="node">
<title>Node5</title>
<g id="a_Node000005"><a xlink:title=" ">
<polygon fill="#e0e0e0" stroke="#999999" points="271,-132 219.75,-132 219.75,-112 271,-112 271,-132"/>
<text text-anchor="middle" x="245.38" y="-118.5" font-family="Helvetica,sans-Serif" font-size="10.00">memory</text>
</a>
</g>
</g>
<!-- Node1&#45;&gt;Node5 -->
<g id="edge4_Node000001_Node000005" class="edge">
<title>Node1&#45;&gt;Node5</title>
<g id="a_edge4_Node000001_Node000005"><a xlink:title=" ">
<path fill="none" stroke="#63b8ff" d="M218.12,-167.59C222.43,-160.55 228.47,-150.67 233.76,-142"/>
<polygon fill="#63b8ff" stroke="#63b8ff" points="236.68,-143.95 238.9,-133.59 230.7,-140.3 236.68,-143.95"/>
</a>
</g>
</g>
<!-- Node6 -->
<g id="Node000006" class="node">
<title>Node6</title>
<g id="a_Node000006"><a xlink:title=" ">
<polygon fill="#e0e0e0" stroke="#999999" points="347.75,-132 289,-132 289,-112 347.75,-112 347.75,-132"/>
<text text-anchor="middle" x="318.38" y="-118.5" font-family="Helvetica,sans-Serif" font-size="10.00">stdexcept</text>
</a>
</g>
</g>
<!-- Node1&#45;&gt;Node6 -->
<g id="edge5_Node000001_Node000006" class="edge">
<title>Node1&#45;&gt;Node6</title>
<g id="a_edge5_Node000001_Node000006"><a xlink:title=" ">
<path fill="none" stroke="#63b8ff" d="M230.84,-167.59C247.08,-159.32 270.98,-147.14 289.71,-137.6"/>
<polygon fill="#63b8ff" stroke="#63b8ff" points="291.1,-140.82 298.42,-133.17 287.92,-134.59 291.1,-140.82"/>
</a>
</g>
</g>
<!-- Node7 -->
<g id="Node000007" class="node">
<title>Node7</title>
<g id="a_Node000007"><a xlink:href="System_8hpp.html" target="_top" xlink:title=" ">
<polygon fill="white" stroke="#666666" points="434.62,-132 366.12,-132 366.12,-112 434.62,-112 434.62,-132"/>
<text text-anchor="middle" x="400.38" y="-118.5" font-family="Helvetica,sans-Serif" font-size="10.00">System.hpp</text>
</a>
</g>
</g>
<!-- Node1&#45;&gt;Node7 -->
<g id="edge6_Node000001_Node000007" class="edge">
<title>Node1&#45;&gt;Node7</title>
<g id="a_edge6_Node000001_Node000007"><a xlink:title=" ">
<path fill="none" stroke="#63b8ff" d="M245.12,-167.59C275.93,-158.74 322.3,-145.43 356.34,-135.65"/>
<polygon fill="#63b8ff" stroke="#63b8ff" points="357.27,-139.02 365.92,-132.9 355.34,-132.29 357.27,-139.02"/>
</a>
</g>
</g>
<!-- Node8 -->
<g id="Node000008" class="node">
<title>Node8</title>
<g id="a_Node000008"><a xlink:title=" ">
<polygon fill="#e0e0e0" stroke="#999999" points="383.12,-76 353.62,-76 353.62,-56 383.12,-56 383.12,-76"/>
<text text-anchor="middle" x="368.38" y="-62.5" font-family="Helvetica,sans-Serif" font-size="10.00">set</text>
</a>
</g>
</g>
<!-- Node7&#45;&gt;Node8 -->
<g id="edge7_Node000007_Node000008" class="edge">
<title>Node7&#45;&gt;Node8</title>
<g id="a_edge7_Node000007_Node000008"><a xlink:title=" ">
<path fill="none" stroke="#63b8ff" d="M394.8,-111.59C390.63,-104.55 384.77,-94.67 379.63,-86"/>
<polygon fill="#63b8ff" stroke="#63b8ff" points="382.77,-84.42 374.66,-77.6 376.74,-87.99 382.77,-84.42"/>
</a>
</g>
</g>
<!-- Node9 -->
<g id="Node000009" class="node">
<title>Node9</title>
<g id="a_Node000009"><a xlink:href="Entity_8hpp.html" target="_top" xlink:title=" ">
<polygon fill="white" stroke="#666666" points="461.12,-76 401.62,-76 401.62,-56 461.12,-56 461.12,-76"/>
<text text-anchor="middle" x="431.38" y="-62.5" font-family="Helvetica,sans-Serif" font-size="10.00">Entity.hpp</text>
</a>
</g>
</g>
<!-- Node7&#45;&gt;Node9 -->
<g id="edge8_Node000007_Node000009" class="edge">
<title>Node7&#45;&gt;Node9</title>
<g id="a_edge8_Node000007_Node000009"><a xlink:title=" ">
<path fill="none" stroke="#63b8ff" d="M405.77,-111.59C409.82,-104.55 415.49,-94.67 420.47,-86"/>
<polygon fill="#63b8ff" stroke="#63b8ff" points="423.34,-88.03 425.28,-77.61 417.27,-84.54 423.34,-88.03"/>
</a>
</g>
</g>
<!-- Node10 -->
<g id="Node000010" class="node">
<title>Node10</title>
<g id="a_Node000010"><a xlink:title=" ">
<polygon fill="#e0e0e0" stroke="#999999" points="423,-20 377.75,-20 377.75,0 423,0 423,-20"/>
<text text-anchor="middle" x="400.38" y="-6.5" font-family="Helvetica,sans-Serif" font-size="10.00">cstdint</text>
</a>
</g>
</g>
<!-- Node9&#45;&gt;Node10 -->
<g id="edge9_Node000009_Node000010" class="edge">
<title>Node9&#45;&gt;Node10</title>
<g id="a_edge9_Node000009_Node000010"><a xlink:title=" ">
<path fill="none" stroke="#63b8ff" d="M425.98,-55.59C421.93,-48.55 416.26,-38.67 411.28,-30"/>
<polygon fill="#63b8ff" stroke="#63b8ff" points="414.48,-28.54 406.47,-21.61 408.41,-32.03 414.48,-28.54"/>
</a>
</g>
</g>
<!-- Node11 -->
<g id="Node000011" class="node">
<title>Node11</title>
<g id="a_Node000011"><a xlink:title=" ">
<polygon fill="#e0e0e0" stroke="#999999" points="481.38,-20 441.38,-20 441.38,0 481.38,0 481.38,-20"/>
<text text-anchor="middle" x="461.38" y="-6.5" font-family="Helvetica,sans-Serif" font-size="10.00">bitset</text>
</a>
</g>
</g>
<!-- Node9&#45;&gt;Node11 -->
<g id="edge10_Node000009_Node000011" class="edge">
<title>Node9&#45;&gt;Node11</title>
<g id="a_edge10_Node000009_Node000011"><a xlink:title=" ">
<path fill="none" stroke="#63b8ff" d="M436.6,-55.59C440.47,-48.63 445.88,-38.89 450.66,-30.29"/>
<polygon fill="#63b8ff" stroke="#63b8ff" points="453.68,-32.06 455.47,-21.62 447.56,-28.66 453.68,-32.06"/>
</a>
</g>
</g>
</g>
</svg>
