<?xml version="1.0" encoding="UTF-8" standalone="no"?>
<!DOCTYPE svg PUBLIC "-//W3C//DTD SVG 1.1//EN"
 "http://www.w3.org/Graphics/SVG/1.1/DTD/svg11.dtd">
<!-- Generated by graphviz version 12.1.0 (20240811.2233)
 -->
<!-- Title: SystemManager.hpp Pages: 1 -->
<svg width="806pt" height="420pt"
 viewBox="0.00 0.00 805.83 420.00" xmlns="http://www.w3.org/2000/svg" xmlns:xlink="http://www.w3.org/1999/xlink">
<g id="graph0" class="graph" transform="scale(1 1) rotate(0) translate(4 416)">
<title>SystemManager.hpp</title>
<!-- Node1 -->
<g id="Node000001" class="node">
<title>Node1</title>
<g id="a_Node000001"><a xlink:title=" ">
<polygon fill="#999999" stroke="#666666" points="648,-412 542,-412 542,-392 648,-392 648,-412"/>
<text text-anchor="middle" x="595" y="-398.5" font-family="Helvetica,sans-Serif" font-size="10.00">SystemManager.hpp</text>
</a>
</g>
</g>
<!-- Node2 -->
<g id="Node000002" class="node">
<title>Node2</title>
<g id="a_Node000002"><a xlink:href="Mediator_8hpp.html" target="_top" xlink:title=" ">
<polygon fill="white" stroke="#666666" points="578.12,-356 505.88,-356 505.88,-336 578.12,-336 578.12,-356"/>
<text text-anchor="middle" x="542" y="-342.5" font-family="Helvetica,sans-Serif" font-size="10.00">Mediator.hpp</text>
</a>
</g>
</g>
<!-- Node1&#45;&gt;Node2 -->
<g id="edge1_Node000001_Node000002" class="edge">
<title>Node1&#45;&gt;Node2</title>
<g id="a_edge1_Node000001_Node000002"><a xlink:title=" ">
<path fill="none" stroke="#63b8ff" d="M577.89,-383.57C568.99,-374.5 558.47,-363.78 551.13,-356.3"/>
<polygon fill="#63b8ff" stroke="#63b8ff" points="575.21,-385.83 584.71,-390.51 580.2,-380.93 575.21,-385.83"/>
</a>
</g>
</g>
<!-- Node19 -->
<g id="Node000019" class="node">
<title>Node19</title>
<g id="a_Node000019"><a xlink:href="SystemManager_8cpp.html" target="_top" xlink:title=" ">
<polygon fill="white" stroke="#666666" points="702,-356 596,-356 596,-336 702,-336 702,-356"/>
<text text-anchor="middle" x="649" y="-342.5" font-family="Helvetica,sans-Serif" font-size="10.00">SystemManager.cpp</text>
</a>
</g>
</g>
<!-- Node1&#45;&gt;Node19 -->
<g id="edge41_Node000001_Node000019" class="edge">
<title>Node1&#45;&gt;Node19</title>
<g id="a_edge41_Node000001_Node000019"><a xlink:title=" ">
<path fill="none" stroke="#63b8ff" d="M612.43,-383.57C621.5,-374.5 632.22,-363.78 639.7,-356.3"/>
<polygon fill="#63b8ff" stroke="#63b8ff" points="610.07,-380.98 605.48,-390.52 615.02,-385.93 610.07,-380.98"/>
</a>
</g>
</g>
<!-- Node3 -->
<g id="Node000003" class="node">
<title>Node3</title>
<g id="a_Node000003"><a xlink:href="ComponentRegistry_8hpp.html" target="_top" xlink:title=" ">
<polygon fill="white" stroke="#666666" points="602.5,-300 481.5,-300 481.5,-280 602.5,-280 602.5,-300"/>
<text text-anchor="middle" x="542" y="-286.5" font-family="Helvetica,sans-Serif" font-size="10.00">ComponentRegistry.hpp</text>
</a>
</g>
</g>
<!-- Node2&#45;&gt;Node3 -->
<g id="edge2_Node000002_Node000003" class="edge">
<title>Node2&#45;&gt;Node3</title>
<g id="a_edge2_Node000002_Node000003"><a xlink:title=" ">
<path fill="none" stroke="#63b8ff" d="M542,-324.13C542,-315.9 542,-306.85 542,-300.3"/>
<polygon fill="#63b8ff" stroke="#63b8ff" points="538.5,-324.08 542,-334.08 545.5,-324.08 538.5,-324.08"/>
</a>
</g>
</g>
<!-- Node4 -->
<g id="Node000004" class="node">
<title>Node4</title>
<g id="a_Node000004"><a xlink:href="NetworkManager_8hpp.html" target="_top" xlink:title=" ">
<polygon fill="white" stroke="#666666" points="520.5,-244 411.5,-244 411.5,-224 520.5,-224 520.5,-244"/>
<text text-anchor="middle" x="466" y="-230.5" font-family="Helvetica,sans-Serif" font-size="10.00">NetworkManager.hpp</text>
</a>
</g>
</g>
<!-- Node2&#45;&gt;Node4 -->
<g id="edge33_Node000002_Node000004" class="edge">
<title>Node2&#45;&gt;Node4</title>
<g id="a_edge33_Node000002_Node000004"><a xlink:title=" ">
<path fill="none" stroke="#63b8ff" d="M507.33,-330.33C494.44,-323.11 481.02,-313.08 473,-300 462.32,-282.58 463.2,-257.52 464.66,-244.18"/>
<polygon fill="#63b8ff" stroke="#63b8ff" points="505.59,-333.38 516.09,-334.84 508.8,-327.15 505.59,-333.38"/>
</a>
</g>
</g>
<!-- Node6 -->
<g id="Node000006" class="node">
<title>Node6</title>
<g id="a_Node000006"><a xlink:href="GameTypes_8cpp.html" target="_top" xlink:title=" ">
<polygon fill="white" stroke="#666666" points="431.62,-20 344.38,-20 344.38,0 431.62,0 431.62,-20"/>
<text text-anchor="middle" x="388" y="-6.5" font-family="Helvetica,sans-Serif" font-size="10.00">GameTypes.cpp</text>
</a>
</g>
</g>
<!-- Node2&#45;&gt;Node6 -->
<g id="edge30_Node000002_Node000006" class="edge">
<title>Node2&#45;&gt;Node6</title>
<g id="a_edge30_Node000002_Node000006"><a xlink:title=" ">
<path fill="none" stroke="#63b8ff" d="M494.26,-345.38C361.9,-345.18 0,-335.43 0,-235 0,-235 0,-235 0,-121 0,-87.54 10.03,-74.37 38,-56 93.57,-19.5 269.21,-29.57 335,-20 337.96,-19.57 341,-19.11 344.07,-18.63"/>
<polygon fill="#63b8ff" stroke="#63b8ff" points="494.08,-348.88 504.08,-345.38 494.08,-341.88 494.08,-348.88"/>
</a>
</g>
</g>
<!-- Node7 -->
<g id="Node000007" class="node">
<title>Node7</title>
<g id="a_Node000007"><a xlink:href="GameTypes_8hpp.html" target="_top" xlink:title=" ">
<polygon fill="white" stroke="#666666" points="359.62,-76 272.38,-76 272.38,-56 359.62,-56 359.62,-76"/>
<text text-anchor="middle" x="316" y="-62.5" font-family="Helvetica,sans-Serif" font-size="10.00">GameTypes.hpp</text>
</a>
</g>
</g>
<!-- Node2&#45;&gt;Node7 -->
<g id="edge31_Node000002_Node000007" class="edge">
<title>Node2&#45;&gt;Node7</title>
<g id="a_edge31_Node000002_Node000007"><a xlink:title=" ">
<path fill="none" stroke="#63b8ff" d="M494.58,-342.08C445.61,-337.68 367.84,-326.77 306,-300 267.17,-283.19 258.05,-274.77 229,-244 185.49,-197.91 137.61,-163.18 175,-112 197.05,-81.81 239.59,-71.4 272.2,-68.04"/>
<polygon fill="#63b8ff" stroke="#63b8ff" points="494.02,-345.54 504.27,-342.89 494.6,-338.57 494.02,-345.54"/>
</a>
</g>
</g>
<!-- Node9 -->
<g id="Node000009" class="node">
<title>Node9</title>
<g id="a_Node000009"><a xlink:href="Server_2src_2main_8cpp.html" target="_top" xlink:title=" ">
<polygon fill="white" stroke="#666666" points="582.88,-76 527.12,-76 527.12,-56 582.88,-56 582.88,-76"/>
<text text-anchor="middle" x="555" y="-62.5" font-family="Helvetica,sans-Serif" font-size="10.00">main.cpp</text>
</a>
</g>
</g>
<!-- Node2&#45;&gt;Node9 -->
<g id="edge40_Node000002_Node000009" class="edge">
<title>Node2&#45;&gt;Node9</title>
<g id="a_edge40_Node000002_Node000009"><a xlink:title=" ">
<path fill="none" stroke="#63b8ff" d="M589.59,-335.74C675.3,-322.52 716.62,-355.63 778,-300 800.3,-279.79 797,-265.1 797,-235 797,-235 797,-235 797,-177 797,-84.01 647.07,-69.26 583.23,-67.19"/>
<polygon fill="#63b8ff" stroke="#63b8ff" points="589.08,-332.27 579.83,-337.44 590.29,-339.17 589.08,-332.27"/>
</a>
</g>
</g>
<!-- Node12 -->
<g id="Node000012" class="node">
<title>Node12</title>
<g id="a_Node000012"><a xlink:href="PlayerControl_8hpp.html" target="_top" xlink:title=" ">
<polygon fill="white" stroke="#666666" points="525,-132 431,-132 431,-112 525,-112 525,-132"/>
<text text-anchor="middle" x="478" y="-118.5" font-family="Helvetica,sans-Serif" font-size="10.00">PlayerControl.hpp</text>
</a>
</g>
</g>
<!-- Node2&#45;&gt;Node12 -->
<g id="edge38_Node000002_Node000012" class="edge">
<title>Node2&#45;&gt;Node12</title>
<g id="a_edge38_Node000002_Node000012"><a xlink:title=" ">
<path fill="none" stroke="#63b8ff" d="M578.47,-330.55C591.47,-323.42 604.68,-313.41 612,-300 616.26,-292.2 615.08,-288.34 612,-280 587.08,-212.42 518.69,-154.18 490.45,-132.27"/>
<polygon fill="#63b8ff" stroke="#63b8ff" points="576.96,-327.39 569.57,-334.98 580.09,-333.65 576.96,-327.39"/>
</a>
</g>
</g>
<!-- Node14 -->
<g id="Node000014" class="node">
<title>Node14</title>
<g id="a_Node000014"><a xlink:href="Render_8hpp.html" target="_top" xlink:title=" ">
<polygon fill="white" stroke="#666666" points="250.12,-132 183.88,-132 183.88,-112 250.12,-112 250.12,-132"/>
<text text-anchor="middle" x="217" y="-118.5" font-family="Helvetica,sans-Serif" font-size="10.00">Render.hpp</text>
</a>
</g>
</g>
<!-- Node2&#45;&gt;Node14 -->
<g id="edge39_Node000002_Node000014" class="edge">
<title>Node2&#45;&gt;Node14</title>
<g id="a_edge39_Node000002_Node000014"><a xlink:title=" ">
<path fill="none" stroke="#63b8ff" d="M494.2,-339.04C417.05,-326.57 267.15,-289.85 202,-188 190.77,-170.44 202.75,-145.44 210.85,-132.14"/>
<polygon fill="#63b8ff" stroke="#63b8ff" points="493.57,-342.49 503.99,-340.55 494.64,-335.57 493.57,-342.49"/>
</a>
</g>
</g>
<!-- Node17 -->
<g id="Node000017" class="node">
<title>Node17</title>
<g id="a_Node000017"><a xlink:href="Mediator_8cpp.html" target="_top" xlink:title=" ">
<polygon fill="white" stroke="#666666" points="769.12,-300 696.88,-300 696.88,-280 769.12,-280 769.12,-300"/>
<text text-anchor="middle" x="733" y="-286.5" font-family="Helvetica,sans-Serif" font-size="10.00">Mediator.cpp</text>
</a>
</g>
</g>
<!-- Node2&#45;&gt;Node17 -->
<g id="edge32_Node000002_Node000017" class="edge">
<title>Node2&#45;&gt;Node17</title>
<g id="a_edge32_Node000002_Node000017"><a xlink:title=" ">
<path fill="none" stroke="#63b8ff" d="M586,-332.56C620.56,-322.79 667.94,-309.39 699.47,-300.48"/>
<polygon fill="#63b8ff" stroke="#63b8ff" points="585.4,-329.09 576.73,-335.18 587.3,-335.83 585.4,-329.09"/>
</a>
</g>
</g>
<!-- Node18 -->
<g id="Node000018" class="node">
<title>Node18</title>
<g id="a_Node000018"><a xlink:href="Physics_8hpp.html" target="_top" xlink:title=" ">
<polygon fill="white" stroke="#666666" points="741,-132 671,-132 671,-112 741,-112 741,-132"/>
<text text-anchor="middle" x="706" y="-118.5" font-family="Helvetica,sans-Serif" font-size="10.00">Physics.hpp</text>
</a>
</g>
</g>
<!-- Node2&#45;&gt;Node18 -->
<g id="edge34_Node000002_Node000018" class="edge">
<title>Node2&#45;&gt;Node18</title>
<g id="a_edge34_Node000002_Node000018"><a xlink:title=" ">
<path fill="none" stroke="#63b8ff" d="M580.49,-331.18C596.5,-323.9 614.28,-313.61 627,-300 675.72,-247.89 697.93,-160.7 704.12,-132.27"/>
<polygon fill="#63b8ff" stroke="#63b8ff" points="579.51,-327.8 571.69,-334.95 582.26,-334.23 579.51,-327.8"/>
</a>
</g>
</g>
<!-- Node3&#45;&gt;Node4 -->
<g id="edge3_Node000003_Node000004" class="edge">
<title>Node3&#45;&gt;Node4</title>
<g id="a_edge3_Node000003_Node000004"><a xlink:title=" ">
<path fill="none" stroke="#63b8ff" d="M519.48,-273C506.42,-263.72 490.42,-252.35 479.34,-244.48"/>
<polygon fill="#63b8ff" stroke="#63b8ff" points="517.35,-275.78 527.53,-278.72 521.4,-270.07 517.35,-275.78"/>
</a>
</g>
</g>
<!-- Node5 -->
<g id="Node000005" class="node">
<title>Node5</title>
<g id="a_Node000005"><a xlink:href="Collision_8hpp.html" target="_top" xlink:title=" ">
<polygon fill="white" stroke="#666666" points="653.12,-132 580.88,-132 580.88,-112 653.12,-112 653.12,-132"/>
<text text-anchor="middle" x="617" y="-118.5" font-family="Helvetica,sans-Serif" font-size="10.00">Collision.hpp</text>
</a>
</g>
</g>
<!-- Node4&#45;&gt;Node5 -->
<g id="edge4_Node000004_Node000005" class="edge">
<title>Node4&#45;&gt;Node5</title>
<g id="a_edge4_Node000004_Node000005"><a xlink:title=" ">
<path fill="none" stroke="#63b8ff" d="M509.75,-219.67C529.2,-212.35 551.58,-201.9 569,-188 588.96,-172.08 604.8,-145.94 612.29,-132.16"/>
<polygon fill="#63b8ff" stroke="#63b8ff" points="508.66,-216.34 500.43,-223.01 511.02,-222.93 508.66,-216.34"/>
</a>
</g>
</g>
<!-- Node4&#45;&gt;Node7 -->
<g id="edge14_Node000004_Node000007" class="edge">
<title>Node4&#45;&gt;Node7</title>
<g id="a_edge14_Node000004_Node000007"><a xlink:title=" ">
<path fill="none" stroke="#63b8ff" d="M400.33,-225.78C375.34,-219.66 348.86,-208.46 332,-188 304.78,-154.96 310.56,-98.73 314.2,-76.47"/>
<polygon fill="#63b8ff" stroke="#63b8ff" points="399.3,-229.14 409.82,-227.86 400.79,-222.3 399.3,-229.14"/>
</a>
</g>
</g>
<!-- Node4&#45;&gt;Node9 -->
<g id="edge29_Node000004_Node000009" class="edge">
<title>Node4&#45;&gt;Node9</title>
<g id="a_edge29_Node000004_Node000009"><a xlink:title=" ">
<path fill="none" stroke="#63b8ff" d="M484.34,-215.96C492.26,-207.97 501.25,-198.02 508,-188 533.18,-150.62 547.7,-97.79 552.85,-76.47"/>
<polygon fill="#63b8ff" stroke="#63b8ff" points="482.13,-213.23 477.4,-222.71 487.01,-218.25 482.13,-213.23"/>
</a>
</g>
</g>
<!-- Node10 -->
<g id="Node000010" class="node">
<title>Node10</title>
<g id="a_Node000010"><a xlink:href="Enemy_8hpp.html" target="_top" xlink:title=" ">
<polygon fill="white" stroke="#666666" points="413.38,-132 348.62,-132 348.62,-112 413.38,-112 413.38,-132"/>
<text text-anchor="middle" x="381" y="-118.5" font-family="Helvetica,sans-Serif" font-size="10.00">Enemy.hpp</text>
</a>
</g>
</g>
<!-- Node4&#45;&gt;Node10 -->
<g id="edge10_Node000004_Node000010" class="edge">
<title>Node4&#45;&gt;Node10</title>
<g id="a_edge10_Node000004_Node000010"><a xlink:title=" ">
<path fill="none" stroke="#63b8ff" d="M468.75,-212.62C469.55,-198.96 468.46,-181.13 460,-168 448.88,-150.75 428.68,-139.42 411.5,-132.44"/>
<polygon fill="#63b8ff" stroke="#63b8ff" points="465.3,-211.95 467.8,-222.24 472.27,-212.64 465.3,-211.95"/>
</a>
</g>
</g>
<!-- Node11 -->
<g id="Node000011" class="node">
<title>Node11</title>
<g id="a_Node000011"><a xlink:href="NetworkManager_8cpp.html" target="_top" xlink:title=" ">
<polygon fill="white" stroke="#666666" points="450.5,-188 341.5,-188 341.5,-168 450.5,-168 450.5,-188"/>
<text text-anchor="middle" x="396" y="-174.5" font-family="Helvetica,sans-Serif" font-size="10.00">NetworkManager.cpp</text>
</a>
</g>
</g>
<!-- Node4&#45;&gt;Node11 -->
<g id="edge15_Node000004_Node000011" class="edge">
<title>Node4&#45;&gt;Node11</title>
<g id="a_edge15_Node000004_Node000011"><a xlink:title=" ">
<path fill="none" stroke="#63b8ff" d="M444.84,-216.68C432.8,-207.39 418.15,-196.09 408.05,-188.3"/>
<polygon fill="#63b8ff" stroke="#63b8ff" points="442.55,-219.33 452.61,-222.67 446.83,-213.79 442.55,-219.33"/>
</a>
</g>
</g>
<!-- Node4&#45;&gt;Node12 -->
<g id="edge16_Node000004_Node000012" class="edge">
<title>Node4&#45;&gt;Node12</title>
<g id="a_edge16_Node000004_Node000012"><a xlink:title=" ">
<path fill="none" stroke="#63b8ff" d="M480.31,-214.32C485.36,-206.6 490.43,-197.3 493,-188 498.44,-168.36 489.31,-145 483.07,-132.32"/>
<polygon fill="#63b8ff" stroke="#63b8ff" points="477.46,-212.28 474.53,-222.47 483.17,-216.33 477.46,-212.28"/>
</a>
</g>
</g>
<!-- Node13 -->
<g id="Node000013" class="node">
<title>Node13</title>
<g id="a_Node000013"><a xlink:href="Renderer_8hpp.html" target="_top" xlink:title=" ">
<polygon fill="white" stroke="#666666" points="285.25,-188 210.75,-188 210.75,-168 285.25,-168 285.25,-188"/>
<text text-anchor="middle" x="248" y="-174.5" font-family="Helvetica,sans-Serif" font-size="10.00">Renderer.hpp</text>
</a>
</g>
</g>
<!-- Node4&#45;&gt;Node13 -->
<g id="edge20_Node000004_Node000013" class="edge">
<title>Node4&#45;&gt;Node13</title>
<g id="a_edge20_Node000004_Node000013"><a xlink:title=" ">
<path fill="none" stroke="#63b8ff" d="M416.73,-220.79C376.91,-210.93 321.71,-197.26 285.45,-188.28"/>
<polygon fill="#63b8ff" stroke="#63b8ff" points="415.76,-224.16 426.31,-223.17 417.44,-217.37 415.76,-224.16"/>
</a>
</g>
</g>
<!-- Node16 -->
<g id="Node000016" class="node">
<title>Node16</title>
<g id="a_Node000016"><a xlink:href="SFML_8cpp.html" target="_top" xlink:title=" ">
<polygon fill="white" stroke="#666666" points="108.5,-76 47.5,-76 47.5,-56 108.5,-56 108.5,-76"/>
<text text-anchor="middle" x="78" y="-62.5" font-family="Helvetica,sans-Serif" font-size="10.00">SFML.cpp</text>
</a>
</g>
</g>
<!-- Node4&#45;&gt;Node16 -->
<g id="edge28_Node000004_Node000016" class="edge">
<title>Node4&#45;&gt;Node16</title>
<g id="a_edge28_Node000004_Node000016"><a xlink:title=" ">
<path fill="none" stroke="#63b8ff" d="M399.98,-227.1C294.41,-216.06 95.51,-188.16 57,-132 44.93,-114.4 60.21,-89.41 70.35,-76.13"/>
<polygon fill="#63b8ff" stroke="#63b8ff" points="399.32,-230.55 409.63,-228.08 400.04,-223.58 399.32,-230.55"/>
</a>
</g>
</g>
<!-- Node5&#45;&gt;Node6 -->
<g id="edge5_Node000005_Node000006" class="edge">
<title>Node5&#45;&gt;Node6</title>
<g id="a_edge5_Node000005_Node000006"><a xlink:title=" ">
<path fill="none" stroke="#63b8ff" d="M614.31,-100.57C611.31,-86.05 605.04,-67.22 592,-56 568.35,-35.66 484.39,-22.34 431.84,-15.79"/>
<polygon fill="#63b8ff" stroke="#63b8ff" points="610.85,-101.12 615.94,-110.42 617.76,-99.98 610.85,-101.12"/>
</a>
</g>
</g>
<!-- Node5&#45;&gt;Node7 -->
<g id="edge6_Node000005_Node000007" class="edge">
<title>Node5&#45;&gt;Node7</title>
<g id="a_edge6_Node000005_Node000007"><a xlink:title=" ">
<path fill="none" stroke="#63b8ff" d="M569.42,-112.46C511.86,-102.14 415.75,-84.9 359.9,-74.88"/>
<polygon fill="#63b8ff" stroke="#63b8ff" points="568.44,-115.84 578.9,-114.17 569.68,-108.95 568.44,-115.84"/>
</a>
</g>
</g>
<!-- Node5&#45;&gt;Node9 -->
<g id="edge9_Node000005_Node000009" class="edge">
<title>Node5&#45;&gt;Node9</title>
<g id="a_edge9_Node000005_Node000009"><a xlink:title=" ">
<path fill="none" stroke="#63b8ff" d="M597.63,-104.13C587.08,-94.94 574.44,-83.93 565.68,-76.3"/>
<polygon fill="#63b8ff" stroke="#63b8ff" points="595.22,-106.67 605.06,-110.6 599.82,-101.39 595.22,-106.67"/>
</a>
</g>
</g>
<!-- Node7&#45;&gt;Node6 -->
<g id="edge7_Node000007_Node000006" class="edge">
<title>Node7&#45;&gt;Node6</title>
<g id="a_edge7_Node000007_Node000006"><a xlink:title=" ">
<path fill="none" stroke="#63b8ff" d="M337.39,-48.95C349.85,-39.61 365.11,-28.16 375.6,-20.3"/>
<polygon fill="#63b8ff" stroke="#63b8ff" points="335.65,-45.89 329.75,-54.69 339.85,-51.49 335.65,-45.89"/>
</a>
</g>
</g>
<!-- Node8 -->
<g id="Node000008" class="node">
<title>Node8</title>
<g id="a_Node000008"><a xlink:href="Client_2src_2main_8cpp.html" target="_top" xlink:title=" ">
<polygon fill="white" stroke="#666666" points="325.88,-20 270.12,-20 270.12,0 325.88,0 325.88,-20"/>
<text text-anchor="middle" x="298" y="-6.5" font-family="Helvetica,sans-Serif" font-size="10.00">main.cpp</text>
</a>
</g>
</g>
<!-- Node7&#45;&gt;Node8 -->
<g id="edge8_Node000007_Node000008" class="edge">
<title>Node7&#45;&gt;Node8</title>
<g id="a_edge8_Node000007_Node000008"><a xlink:title=" ">
<path fill="none" stroke="#63b8ff" d="M309.24,-44.71C306.44,-36.32 303.34,-27.01 301.1,-20.3"/>
<polygon fill="#63b8ff" stroke="#63b8ff" points="305.9,-45.78 312.39,-54.16 312.54,-43.56 305.9,-45.78"/>
</a>
</g>
</g>
<!-- Node10&#45;&gt;Node6 -->
<g id="edge11_Node000010_Node000006" class="edge">
<title>Node10&#45;&gt;Node6</title>
<g id="a_edge11_Node000010_Node000006"><a xlink:title=" ">
<path fill="none" stroke="#63b8ff" d="M382.32,-100.31C383.84,-76.36 386.28,-37.95 387.4,-20.35"/>
<polygon fill="#63b8ff" stroke="#63b8ff" points="378.84,-99.91 381.69,-110.11 385.82,-100.35 378.84,-99.91"/>
</a>
</g>
</g>
<!-- Node10&#45;&gt;Node7 -->
<g id="edge12_Node000010_Node000007" class="edge">
<title>Node10&#45;&gt;Node7</title>
<g id="a_edge12_Node000010_Node000007"><a xlink:title=" ">
<path fill="none" stroke="#63b8ff" d="M361.02,-104.4C349.9,-95.17 336.47,-84.01 327.19,-76.3"/>
<polygon fill="#63b8ff" stroke="#63b8ff" points="358.59,-106.93 368.51,-110.63 363.06,-101.54 358.59,-106.93"/>
</a>
</g>
</g>
<!-- Node10&#45;&gt;Node9 -->
<g id="edge13_Node000010_Node000009" class="edge">
<title>Node10&#45;&gt;Node9</title>
<g id="a_edge13_Node000010_Node000009"><a xlink:title=" ">
<path fill="none" stroke="#63b8ff" d="M422.18,-108.22C454.42,-98.21 498.41,-84.56 526.77,-75.76"/>
<polygon fill="#63b8ff" stroke="#63b8ff" points="421.27,-104.84 412.75,-111.15 423.34,-111.52 421.27,-104.84"/>
</a>
</g>
</g>
<!-- Node12&#45;&gt;Node6 -->
<g id="edge17_Node000012_Node000006" class="edge">
<title>Node12&#45;&gt;Node6</title>
<g id="a_edge17_Node000012_Node000006"><a xlink:title=" ">
<path fill="none" stroke="#63b8ff" d="M463.19,-102.9C443.82,-79.22 410.58,-38.6 395.65,-20.35"/>
<polygon fill="#63b8ff" stroke="#63b8ff" points="460.33,-104.93 469.37,-110.45 465.74,-100.49 460.33,-104.93"/>
</a>
</g>
</g>
<!-- Node12&#45;&gt;Node7 -->
<g id="edge18_Node000012_Node000007" class="edge">
<title>Node12&#45;&gt;Node7</title>
<g id="a_edge18_Node000012_Node000007"><a xlink:title=" ">
<path fill="none" stroke="#63b8ff" d="M439.15,-108.05C409.98,-98.33 370.72,-85.24 344.44,-76.48"/>
<polygon fill="#63b8ff" stroke="#63b8ff" points="437.75,-111.27 448.35,-111.12 439.97,-104.63 437.75,-111.27"/>
</a>
</g>
</g>
<!-- Node12&#45;&gt;Node9 -->
<g id="edge19_Node000012_Node000009" class="edge">
<title>Node12&#45;&gt;Node9</title>
<g id="a_edge19_Node000012_Node000009"><a xlink:title=" ">
<path fill="none" stroke="#63b8ff" d="M500.82,-105C514.05,-95.72 530.26,-84.35 541.48,-76.48"/>
<polygon fill="#63b8ff" stroke="#63b8ff" points="498.83,-102.12 492.65,-110.72 502.85,-107.85 498.83,-102.12"/>
</a>
</g>
</g>
<!-- Node13&#45;&gt;Node7 -->
<g id="edge21_Node000013_Node000007" class="edge">
<title>Node13&#45;&gt;Node7</title>
<g id="a_edge21_Node000013_Node000007"><a xlink:title=" ">
<path fill="none" stroke="#63b8ff" d="M259.78,-157.95C274.49,-134.14 299.09,-94.36 310.22,-76.35"/>
<polygon fill="#63b8ff" stroke="#63b8ff" points="256.87,-155.99 254.59,-166.33 262.83,-159.67 256.87,-155.99"/>
</a>
</g>
</g>
<!-- Node13&#45;&gt;Node14 -->
<g id="edge22_Node000013_Node000014" class="edge">
<title>Node13&#45;&gt;Node14</title>
<g id="a_edge22_Node000013_Node000014"><a xlink:title=" ">
<path fill="none" stroke="#63b8ff" d="M237.02,-157.87C232.03,-149.19 226.37,-139.32 222.34,-132.3"/>
<polygon fill="#63b8ff" stroke="#63b8ff" points="233.83,-159.35 241.85,-166.28 239.9,-155.87 233.83,-159.35"/>
</a>
</g>
</g>
<!-- Node15 -->
<g id="Node000015" class="node">
<title>Node15</title>
<g id="a_Node000015"><a xlink:href="SFML_8hpp.html" target="_top" xlink:title=" ">
<polygon fill="white" stroke="#666666" points="127.5,-132 66.5,-132 66.5,-112 127.5,-112 127.5,-132"/>
<text text-anchor="middle" x="97" y="-118.5" font-family="Helvetica,sans-Serif" font-size="10.00">SFML.hpp</text>
</a>
</g>
</g>
<!-- Node13&#45;&gt;Node15 -->
<g id="edge25_Node000013_Node000015" class="edge">
<title>Node13&#45;&gt;Node15</title>
<g id="a_edge25_Node000013_Node000015"><a xlink:title=" ">
<path fill="none" stroke="#63b8ff" d="M211.06,-163.79C183.96,-154.1 147.79,-141.16 123.51,-132.48"/>
<polygon fill="#63b8ff" stroke="#63b8ff" points="209.68,-167.01 220.27,-167.08 212.04,-160.42 209.68,-167.01"/>
</a>
</g>
</g>
<!-- Node14&#45;&gt;Node6 -->
<g id="edge23_Node000014_Node000006" class="edge">
<title>Node14&#45;&gt;Node6</title>
<g id="a_edge23_Node000014_Node000006"><a xlink:title=" ">
<path fill="none" stroke="#63b8ff" d="M226.44,-101.79C234.4,-87.38 247.04,-68.14 263,-56 286.77,-37.92 318.48,-26.61 344.01,-19.86"/>
<polygon fill="#63b8ff" stroke="#63b8ff" points="223.51,-99.84 221.99,-110.32 229.72,-103.08 223.51,-99.84"/>
</a>
</g>
</g>
<!-- Node14&#45;&gt;Node7 -->
<g id="edge24_Node000014_Node000007" class="edge">
<title>Node14&#45;&gt;Node7</title>
<g id="a_edge24_Node000014_Node000007"><a xlink:title=" ">
<path fill="none" stroke="#63b8ff" d="M243.86,-106.35C261.29,-96.84 283.48,-84.74 298.62,-76.48"/>
<polygon fill="#63b8ff" stroke="#63b8ff" points="242.68,-103.01 235.57,-110.87 246.03,-109.15 242.68,-103.01"/>
</a>
</g>
</g>
<!-- Node15&#45;&gt;Node6 -->
<g id="edge26_Node000015_Node000006" class="edge">
<title>Node15&#45;&gt;Node6</title>
<g id="a_edge26_Node000015_Node000006"><a xlink:title=" ">
<path fill="none" stroke="#63b8ff" d="M125.93,-106.63C154.69,-92.66 200.26,-71.36 241,-56 278.46,-41.88 322.49,-28.85 352.53,-20.49"/>
<polygon fill="#63b8ff" stroke="#63b8ff" points="124.58,-103.39 117.14,-110.93 127.66,-109.68 124.58,-103.39"/>
</a>
</g>
</g>
<!-- Node15&#45;&gt;Node16 -->
<g id="edge27_Node000015_Node000016" class="edge">
<title>Node15&#45;&gt;Node16</title>
<g id="a_edge27_Node000015_Node000016"><a xlink:title=" ">
<path fill="none" stroke="#63b8ff" d="M89.96,-101C86.99,-92.54 83.66,-83.08 81.27,-76.3"/>
<polygon fill="#63b8ff" stroke="#63b8ff" points="86.57,-101.89 93.19,-110.17 93.17,-99.57 86.57,-101.89"/>
</a>
</g>
</g>
<!-- Node18&#45;&gt;Node6 -->
<g id="edge35_Node000018_Node000006" class="edge">
<title>Node18&#45;&gt;Node6</title>
<g id="a_edge35_Node000018_Node000006"><a xlink:title=" ">
<path fill="none" stroke="#63b8ff" d="M687.39,-104.47C669.55,-89.52 641.23,-68.06 613,-56 553.29,-30.49 478.4,-19.22 431.87,-14.4"/>
<polygon fill="#63b8ff" stroke="#63b8ff" points="684.7,-106.77 694.56,-110.63 689.26,-101.46 684.7,-106.77"/>
</a>
</g>
</g>
<!-- Node18&#45;&gt;Node7 -->
<g id="edge36_Node000018_Node000007" class="edge">
<title>Node18&#45;&gt;Node7</title>
<g id="a_edge36_Node000018_Node000007"><a xlink:title=" ">
<path fill="none" stroke="#63b8ff" d="M659.64,-111.71C545.82,-93 423.9,-78.73 360.12,-71.7"/>
<polygon fill="#63b8ff" stroke="#63b8ff" points="659.05,-115.16 669.49,-113.35 660.19,-108.26 659.05,-115.16"/>
</a>
</g>
</g>
<!-- Node18&#45;&gt;Node9 -->
<g id="edge37_Node000018_Node000009" class="edge">
<title>Node18&#45;&gt;Node9</title>
<g id="a_edge37_Node000018_Node000009"><a xlink:title=" ">
<path fill="none" stroke="#63b8ff" d="M669.06,-107.79C641.96,-98.1 605.79,-85.16 581.51,-76.48"/>
<polygon fill="#63b8ff" stroke="#63b8ff" points="667.68,-111.01 678.27,-111.08 670.04,-104.42 667.68,-111.01"/>
</a>
</g>
</g>
</g>
</svg>
