<?xml version="1.0" encoding="UTF-8" standalone="no"?>
<!DOCTYPE svg PUBLIC "-//W3C//DTD SVG 1.1//EN"
 "http://www.w3.org/Graphics/SVG/1.1/DTD/svg11.dtd">
<!-- Generated by graphviz version 12.1.0 (20240811.2233)
 -->
<!-- Title: System.hpp Pages: 1 -->
<svg width="136pt" height="140pt"
 viewBox="0.00 0.00 135.75 140.00" xmlns="http://www.w3.org/2000/svg" xmlns:xlink="http://www.w3.org/1999/xlink">
<g id="graph0" class="graph" transform="scale(1 1) rotate(0) translate(4 136)">
<title>System.hpp</title>
<!-- Node1 -->
<g id="Node000001" class="node">
<title>Node1</title>
<g id="a_Node000001"><a xlink:title=" ">
<polygon fill="#999999" stroke="#666666" points="80,-132 11.5,-132 11.5,-112 80,-112 80,-132"/>
<text text-anchor="middle" x="45.75" y="-118.5" font-family="Helvetica,sans-Serif" font-size="10.00">System.hpp</text>
</a>
</g>
</g>
<!-- Node2 -->
<g id="Node000002" class="node">
<title>Node2</title>
<g id="a_Node000002"><a xlink:title=" ">
<polygon fill="#e0e0e0" stroke="#999999" points="29.5,-76 0,-76 0,-56 29.5,-56 29.5,-76"/>
<text text-anchor="middle" x="14.75" y="-62.5" font-family="Helvetica,sans-Serif" font-size="10.00">set</text>
</a>
</g>
</g>
<!-- Node1&#45;&gt;Node2 -->
<g id="edge1_Node000001_Node000002" class="edge">
<title>Node1&#45;&gt;Node2</title>
<g id="a_edge1_Node000001_Node000002"><a xlink:title=" ">
<path fill="none" stroke="#63b8ff" d="M40.35,-111.59C36.31,-104.55 30.63,-94.67 25.66,-86"/>
<polygon fill="#63b8ff" stroke="#63b8ff" points="28.86,-84.54 20.84,-77.61 22.78,-88.03 28.86,-84.54"/>
</a>
</g>
</g>
<!-- Node3 -->
<g id="Node000003" class="node">
<title>Node3</title>
<g id="a_Node000003"><a xlink:href="Entity_8hpp.html" target="_top" xlink:title=" ">
<polygon fill="white" stroke="#666666" points="107.5,-76 48,-76 48,-56 107.5,-56 107.5,-76"/>
<text text-anchor="middle" x="77.75" y="-62.5" font-family="Helvetica,sans-Serif" font-size="10.00">Entity.hpp</text>
</a>
</g>
</g>
<!-- Node1&#45;&gt;Node3 -->
<g id="edge2_Node000001_Node000003" class="edge">
<title>Node1&#45;&gt;Node3</title>
<g id="a_edge2_Node000001_Node000003"><a xlink:title=" ">
<path fill="none" stroke="#63b8ff" d="M51.32,-111.59C55.5,-104.55 61.35,-94.67 66.49,-86"/>
<polygon fill="#63b8ff" stroke="#63b8ff" points="69.38,-87.99 71.47,-77.6 63.36,-84.42 69.38,-87.99"/>
</a>
</g>
</g>
<!-- Node4 -->
<g id="Node000004" class="node">
<title>Node4</title>
<g id="a_Node000004"><a xlink:title=" ">
<polygon fill="#e0e0e0" stroke="#999999" points="69.38,-20 24.12,-20 24.12,0 69.38,0 69.38,-20"/>
<text text-anchor="middle" x="46.75" y="-6.5" font-family="Helvetica,sans-Serif" font-size="10.00">cstdint</text>
</a>
</g>
</g>
<!-- Node3&#45;&gt;Node4 -->
<g id="edge3_Node000003_Node000004" class="edge">
<title>Node3&#45;&gt;Node4</title>
<g id="a_edge3_Node000003_Node000004"><a xlink:title=" ">
<path fill="none" stroke="#63b8ff" d="M72.35,-55.59C68.31,-48.55 62.63,-38.67 57.66,-30"/>
<polygon fill="#63b8ff" stroke="#63b8ff" points="60.86,-28.54 52.84,-21.61 54.78,-32.03 60.86,-28.54"/>
</a>
</g>
</g>
<!-- Node5 -->
<g id="Node000005" class="node">
<title>Node5</title>
<g id="a_Node000005"><a xlink:title=" ">
<polygon fill="#e0e0e0" stroke="#999999" points="127.75,-20 87.75,-20 87.75,0 127.75,0 127.75,-20"/>
<text text-anchor="middle" x="107.75" y="-6.5" font-family="Helvetica,sans-Serif" font-size="10.00">bitset</text>
</a>
</g>
</g>
<!-- Node3&#45;&gt;Node5 -->
<g id="edge4_Node000003_Node000005" class="edge">
<title>Node3&#45;&gt;Node5</title>
<g id="a_edge4_Node000003_Node000005"><a xlink:title=" ">
<path fill="none" stroke="#63b8ff" d="M82.98,-55.59C86.85,-48.63 92.26,-38.89 97.03,-30.29"/>
<polygon fill="#63b8ff" stroke="#63b8ff" points="100.05,-32.06 101.85,-21.62 93.93,-28.66 100.05,-32.06"/>
</a>
</g>
</g>
</g>
</svg>
