<?xml version="1.0" encoding="UTF-8" standalone="no"?>
<!DOCTYPE svg PUBLIC "-//W3C//DTD SVG 1.1//EN"
 "http://www.w3.org/Graphics/SVG/1.1/DTD/svg11.dtd">
<!-- Generated by graphviz version 12.1.0 (20240811.2233)
 -->
<!-- Title: System.hpp Pages: 1 -->
<svg width="402pt" height="252pt"
 viewBox="0.00 0.00 402.12 252.00" xmlns="http://www.w3.org/2000/svg" xmlns:xlink="http://www.w3.org/1999/xlink">
<g id="graph0" class="graph" transform="scale(1 1) rotate(0) translate(4 248)">
<title>System.hpp</title>
<!-- Node1 -->
<g id="Node000001" class="node">
<title>Node1</title>
<g id="a_Node000001"><a xlink:title=" ">
<polygon fill="#999999" stroke="#666666" points="260.38,-244 191.88,-244 191.88,-224 260.38,-224 260.38,-244"/>
<text text-anchor="middle" x="226.12" y="-230.5" font-family="Helvetica,sans-Serif" font-size="10.00">System.hpp</text>
</a>
</g>
</g>
<!-- Node2 -->
<g id="Node000002" class="node">
<title>Node2</title>
<g id="a_Node000002"><a xlink:href="Physics_8hpp.html" target="_top" xlink:title=" ">
<polygon fill="white" stroke="#666666" points="282.12,-76 212.12,-76 212.12,-56 282.12,-56 282.12,-76"/>
<text text-anchor="middle" x="247.12" y="-62.5" font-family="Helvetica,sans-Serif" font-size="10.00">Physics.hpp</text>
</a>
</g>
</g>
<!-- Node1&#45;&gt;Node2 -->
<g id="edge1_Node000001_Node000002" class="edge">
<title>Node1&#45;&gt;Node2</title>
<g id="a_edge1_Node000001_Node000002"><a xlink:title=" ">
<path fill="none" stroke="#63b8ff" d="M237.79,-214.01C241.92,-206.24 246.05,-196.98 248.12,-188 257.55,-147.27 251.72,-96.75 248.65,-76.27"/>
<polygon fill="#63b8ff" stroke="#63b8ff" points="234.86,-212.09 232.93,-222.5 240.93,-215.57 234.86,-212.09"/>
</a>
</g>
</g>
<!-- Node4 -->
<g id="Node000004" class="node">
<title>Node4</title>
<g id="a_Node000004"><a xlink:href="PlayerControl_8hpp.html" target="_top" xlink:title=" ">
<polygon fill="white" stroke="#666666" points="394.12,-76 300.12,-76 300.12,-56 394.12,-56 394.12,-76"/>
<text text-anchor="middle" x="347.12" y="-62.5" font-family="Helvetica,sans-Serif" font-size="10.00">PlayerControl.hpp</text>
</a>
</g>
</g>
<!-- Node1&#45;&gt;Node4 -->
<g id="edge3_Node000001_Node000004" class="edge">
<title>Node1&#45;&gt;Node4</title>
<g id="a_edge3_Node000001_Node000004"><a xlink:title=" ">
<path fill="none" stroke="#63b8ff" d="M242.06,-214.98C249.02,-206.88 257.18,-197.12 264.12,-188 294.85,-147.68 327.96,-96.93 341.18,-76.33"/>
<polygon fill="#63b8ff" stroke="#63b8ff" points="239.49,-212.59 235.56,-222.43 244.77,-217.19 239.49,-212.59"/>
</a>
</g>
</g>
<!-- Node5 -->
<g id="Node000005" class="node">
<title>Node5</title>
<g id="a_Node000005"><a xlink:href="Render_8hpp.html" target="_top" xlink:title=" ">
<polygon fill="white" stroke="#666666" points="66.25,-76 0,-76 0,-56 66.25,-56 66.25,-76"/>
<text text-anchor="middle" x="33.12" y="-62.5" font-family="Helvetica,sans-Serif" font-size="10.00">Render.hpp</text>
</a>
</g>
</g>
<!-- Node1&#45;&gt;Node5 -->
<g id="edge5_Node000001_Node000005" class="edge">
<title>Node1&#45;&gt;Node5</title>
<g id="a_edge5_Node000001_Node000005"><a xlink:title=" ">
<path fill="none" stroke="#63b8ff" d="M180.53,-223.87C133.97,-211.79 64.36,-185.45 34.12,-132 24.12,-114.32 27.69,-89.37 30.69,-76.11"/>
<polygon fill="#63b8ff" stroke="#63b8ff" points="179.53,-227.22 190.08,-226.21 181.2,-220.42 179.53,-227.22"/>
</a>
</g>
</g>
<!-- Node6 -->
<g id="Node000006" class="node">
<title>Node6</title>
<g id="a_Node000006"><a xlink:href="SystemManager_8hpp.html" target="_top" xlink:title=" ">
<polygon fill="white" stroke="#666666" points="239.12,-188 133.12,-188 133.12,-168 239.12,-168 239.12,-188"/>
<text text-anchor="middle" x="186.12" y="-174.5" font-family="Helvetica,sans-Serif" font-size="10.00">SystemManager.hpp</text>
</a>
</g>
</g>
<!-- Node1&#45;&gt;Node6 -->
<g id="edge7_Node000001_Node000006" class="edge">
<title>Node1&#45;&gt;Node6</title>
<g id="a_edge7_Node000001_Node000006"><a xlink:title=" ">
<path fill="none" stroke="#63b8ff" d="M212.37,-214.44C205.84,-205.62 198.32,-195.47 193.01,-188.3"/>
<polygon fill="#63b8ff" stroke="#63b8ff" points="209.49,-216.43 218.26,-222.38 215.12,-212.26 209.49,-216.43"/>
</a>
</g>
</g>
<!-- Node3 -->
<g id="Node000003" class="node">
<title>Node3</title>
<g id="a_Node000003"><a xlink:href="GameTypes_8cpp.html" target="_top" xlink:title=" ">
<polygon fill="white" stroke="#666666" points="258.75,-20 171.5,-20 171.5,0 258.75,0 258.75,-20"/>
<text text-anchor="middle" x="215.12" y="-6.5" font-family="Helvetica,sans-Serif" font-size="10.00">GameTypes.cpp</text>
</a>
</g>
</g>
<!-- Node2&#45;&gt;Node3 -->
<g id="edge2_Node000002_Node000003" class="edge">
<title>Node2&#45;&gt;Node3</title>
<g id="a_edge2_Node000002_Node000003"><a xlink:title=" ">
<path fill="none" stroke="#63b8ff" d="M235.79,-45.87C230.64,-37.19 224.79,-27.32 220.64,-20.3"/>
<polygon fill="#63b8ff" stroke="#63b8ff" points="232.67,-47.47 240.78,-54.29 238.69,-43.9 232.67,-47.47"/>
</a>
</g>
</g>
<!-- Node4&#45;&gt;Node3 -->
<g id="edge4_Node000004_Node000003" class="edge">
<title>Node4&#45;&gt;Node3</title>
<g id="a_edge4_Node000004_Node000003"><a xlink:title=" ">
<path fill="none" stroke="#63b8ff" d="M313.57,-51.27C290.02,-41.64 259.14,-29.01 238.3,-20.48"/>
<polygon fill="#63b8ff" stroke="#63b8ff" points="312.15,-54.47 322.73,-55.02 314.8,-48 312.15,-54.47"/>
</a>
</g>
</g>
<!-- Node5&#45;&gt;Node3 -->
<g id="edge6_Node000005_Node000003" class="edge">
<title>Node5&#45;&gt;Node3</title>
<g id="a_edge6_Node000005_Node000003"><a xlink:title=" ">
<path fill="none" stroke="#63b8ff" d="M75.48,-52.43C108.37,-42.67 153.26,-29.35 183.18,-20.48"/>
<polygon fill="#63b8ff" stroke="#63b8ff" points="74.87,-48.96 66.28,-55.16 76.86,-55.67 74.87,-48.96"/>
</a>
</g>
</g>
<!-- Node7 -->
<g id="Node000007" class="node">
<title>Node7</title>
<g id="a_Node000007"><a xlink:href="Mediator_8hpp.html" target="_top" xlink:title=" ">
<polygon fill="white" stroke="#666666" points="239.25,-132 167,-132 167,-112 239.25,-112 239.25,-132"/>
<text text-anchor="middle" x="203.12" y="-118.5" font-family="Helvetica,sans-Serif" font-size="10.00">Mediator.hpp</text>
</a>
</g>
</g>
<!-- Node6&#45;&gt;Node7 -->
<g id="edge8_Node000006_Node000007" class="edge">
<title>Node6&#45;&gt;Node7</title>
<g id="a_edge8_Node000006_Node000007"><a xlink:title=" ">
<path fill="none" stroke="#63b8ff" d="M192.51,-156.71C195.15,-148.32 198.09,-139.01 200.2,-132.3"/>
<polygon fill="#63b8ff" stroke="#63b8ff" points="189.21,-155.56 189.54,-166.15 195.88,-157.66 189.21,-155.56"/>
</a>
</g>
</g>
<!-- Node9 -->
<g id="Node000009" class="node">
<title>Node9</title>
<g id="a_Node000009"><a xlink:href="SystemManager_8cpp.html" target="_top" xlink:title=" ">
<polygon fill="white" stroke="#666666" points="149.12,-132 43.12,-132 43.12,-112 149.12,-112 149.12,-132"/>
<text text-anchor="middle" x="96.12" y="-118.5" font-family="Helvetica,sans-Serif" font-size="10.00">SystemManager.cpp</text>
</a>
</g>
</g>
<!-- Node6&#45;&gt;Node9 -->
<g id="edge14_Node000006_Node000009" class="edge">
<title>Node6&#45;&gt;Node9</title>
<g id="a_edge14_Node000006_Node000009"><a xlink:title=" ">
<path fill="none" stroke="#63b8ff" d="M160.81,-161.81C145.11,-152.39 125.43,-140.58 111.92,-132.48"/>
<polygon fill="#63b8ff" stroke="#63b8ff" points="158.77,-164.67 169.15,-166.82 162.38,-158.67 158.77,-164.67"/>
</a>
</g>
</g>
<!-- Node7&#45;&gt;Node2 -->
<g id="edge11_Node000007_Node000002" class="edge">
<title>Node7&#45;&gt;Node2</title>
<g id="a_edge11_Node000007_Node000002"><a xlink:title=" ">
<path fill="none" stroke="#63b8ff" d="M218.02,-102.72C225.26,-93.84 233.64,-83.55 239.55,-76.3"/>
<polygon fill="#63b8ff" stroke="#63b8ff" points="215.35,-100.46 211.75,-110.42 220.78,-104.88 215.35,-100.46"/>
</a>
</g>
</g>
<!-- Node7&#45;&gt;Node3 -->
<g id="edge9_Node000007_Node000003" class="edge">
<title>Node7&#45;&gt;Node3</title>
<g id="a_edge9_Node000007_Node000003"><a xlink:title=" ">
<path fill="none" stroke="#63b8ff" d="M201.76,-100.42C201.25,-87.59 201.19,-70.77 203.12,-56 204.78,-43.33 208.97,-29.16 211.93,-20.17"/>
<polygon fill="#63b8ff" stroke="#63b8ff" points="198.26,-100.38 202.29,-110.18 205.25,-100.01 198.26,-100.38"/>
</a>
</g>
</g>
<!-- Node7&#45;&gt;Node4 -->
<g id="edge12_Node000007_Node000004" class="edge">
<title>Node7&#45;&gt;Node4</title>
<g id="a_edge12_Node000007_Node000004"><a xlink:title=" ">
<path fill="none" stroke="#63b8ff" d="M238.69,-107.66C264.5,-97.98 298.8,-85.12 321.85,-76.48"/>
<polygon fill="#63b8ff" stroke="#63b8ff" points="237.76,-104.27 229.63,-111.06 240.22,-110.83 237.76,-104.27"/>
</a>
</g>
</g>
<!-- Node7&#45;&gt;Node5 -->
<g id="edge13_Node000007_Node000005" class="edge">
<title>Node7&#45;&gt;Node5</title>
<g id="a_edge13_Node000007_Node000005"><a xlink:title=" ">
<path fill="none" stroke="#63b8ff" d="M162.76,-108.18C132.11,-98.44 90.66,-85.28 62.97,-76.48"/>
<polygon fill="#63b8ff" stroke="#63b8ff" points="161.48,-111.44 172.07,-111.14 163.6,-104.77 161.48,-111.44"/>
</a>
</g>
</g>
<!-- Node8 -->
<g id="Node000008" class="node">
<title>Node8</title>
<g id="a_Node000008"><a xlink:href="Mediator_8cpp.html" target="_top" xlink:title=" ">
<polygon fill="white" stroke="#666666" points="156.25,-76 84,-76 84,-56 156.25,-56 156.25,-76"/>
<text text-anchor="middle" x="120.12" y="-62.5" font-family="Helvetica,sans-Serif" font-size="10.00">Mediator.cpp</text>
</a>
</g>
</g>
<!-- Node7&#45;&gt;Node8 -->
<g id="edge10_Node000007_Node000008" class="edge">
<title>Node7&#45;&gt;Node8</title>
<g id="a_edge10_Node000007_Node000008"><a xlink:title=" ">
<path fill="none" stroke="#63b8ff" d="M179.37,-105.54C164.96,-96.17 147.03,-84.51 134.7,-76.48"/>
<polygon fill="#63b8ff" stroke="#63b8ff" points="177.11,-108.25 187.4,-110.77 180.93,-102.38 177.11,-108.25"/>
</a>
</g>
</g>
</g>
</svg>
