<?xml version="1.0" encoding="UTF-8" standalone="no"?>
<!DOCTYPE svg PUBLIC "-//W3C//DTD SVG 1.1//EN"
 "http://www.w3.org/Graphics/SVG/1.1/DTD/svg11.dtd">
<!-- Generated by graphviz version 12.1.0 (20240811.2233)
 -->
<!-- Title: System.hpp Pages: 1 -->
<svg width="853pt" height="476pt"
 viewBox="0.00 0.00 853.29 476.00" xmlns="http://www.w3.org/2000/svg" xmlns:xlink="http://www.w3.org/1999/xlink">
<g id="graph0" class="graph" transform="scale(1 1) rotate(0) translate(4 472)">
<title>System.hpp</title>
<!-- Node1 -->
<g id="Node000001" class="node">
<title>Node1</title>
<g id="a_Node000001"><a xlink:title=" ">
<polygon fill="#999999" stroke="#666666" points="237.54,-468 169.04,-468 169.04,-448 237.54,-448 237.54,-468"/>
<text text-anchor="middle" x="203.29" y="-454.5" font-family="Helvetica,sans-Serif" font-size="10.00">System.hpp</text>
</a>
</g>
</g>
<!-- Node2 -->
<g id="Node000002" class="node">
<title>Node2</title>
<g id="a_Node000002"><a xlink:href="Collision_8hpp.html" target="_top" xlink:title=" ">
<polygon fill="white" stroke="#666666" points="213.42,-188 141.17,-188 141.17,-168 213.42,-168 213.42,-188"/>
<text text-anchor="middle" x="177.29" y="-174.5" font-family="Helvetica,sans-Serif" font-size="10.00">Collision.hpp</text>
</a>
</g>
</g>
<!-- Node1&#45;&gt;Node2 -->
<g id="edge1_Node000001_Node000002" class="edge">
<title>Node1&#45;&gt;Node2</title>
<g id="a_edge1_Node000001_Node000002"><a xlink:title=" ">
<path fill="none" stroke="#63b8ff" d="M160.58,-443.42C143.96,-436.31 125.91,-426.09 113.29,-412 92.75,-389.06 89.29,-377.8 89.29,-347 89.29,-347 89.29,-347 89.29,-289 89.29,-258.2 94.51,-248.41 113.29,-224 125.22,-208.5 143.98,-196.2 158.11,-188.4"/>
<polygon fill="#63b8ff" stroke="#63b8ff" points="159.24,-446.65 169.83,-447.09 161.82,-440.14 159.24,-446.65"/>
</a>
</g>
</g>
<!-- Node7 -->
<g id="Node000007" class="node">
<title>Node7</title>
<g id="a_Node000007"><a xlink:href="Enemy_8hpp.html" target="_top" xlink:title=" ">
<polygon fill="white" stroke="#666666" points="371.67,-188 306.92,-188 306.92,-168 371.67,-168 371.67,-188"/>
<text text-anchor="middle" x="339.29" y="-174.5" font-family="Helvetica,sans-Serif" font-size="10.00">Enemy.hpp</text>
</a>
</g>
</g>
<!-- Node1&#45;&gt;Node7 -->
<g id="edge7_Node000001_Node000007" class="edge">
<title>Node1&#45;&gt;Node7</title>
<g id="a_edge7_Node000001_Node000007"><a xlink:title=" ">
<path fill="none" stroke="#63b8ff" d="M182.12,-440.41C159.63,-420.76 127.29,-385.76 127.29,-347 127.29,-347 127.29,-347 127.29,-289 127.29,-209.18 247.17,-187.2 306.63,-181.21"/>
<polygon fill="#63b8ff" stroke="#63b8ff" points="179.67,-442.92 189.58,-446.66 184.16,-437.56 179.67,-442.92"/>
</a>
</g>
</g>
<!-- Node8 -->
<g id="Node000008" class="node">
<title>Node8</title>
<g id="a_Node000008"><a xlink:href="Physics_8hpp.html" target="_top" xlink:title=" ">
<polygon fill="white" stroke="#666666" points="85.29,-188 15.29,-188 15.29,-168 85.29,-168 85.29,-188"/>
<text text-anchor="middle" x="50.29" y="-174.5" font-family="Helvetica,sans-Serif" font-size="10.00">Physics.hpp</text>
</a>
</g>
</g>
<!-- Node1&#45;&gt;Node8 -->
<g id="edge11_Node000001_Node000008" class="edge">
<title>Node1&#45;&gt;Node8</title>
<g id="a_edge11_Node000001_Node000008"><a xlink:title=" ">
<path fill="none" stroke="#63b8ff" d="M157.83,-445.07C113.05,-430.24 51.29,-400.15 51.29,-347 51.29,-347 51.29,-347 51.29,-289 51.29,-251.76 50.71,-207.43 50.44,-188.42"/>
<polygon fill="#63b8ff" stroke="#63b8ff" points="156.77,-448.4 167.36,-448.06 158.87,-441.72 156.77,-448.4"/>
</a>
</g>
</g>
<!-- Node9 -->
<g id="Node000009" class="node">
<title>Node9</title>
<g id="a_Node000009"><a xlink:href="PlayerControl_8hpp.html" target="_top" xlink:title=" ">
<polygon fill="white" stroke="#666666" points="611.29,-188 517.29,-188 517.29,-168 611.29,-168 611.29,-188"/>
<text text-anchor="middle" x="564.29" y="-174.5" font-family="Helvetica,sans-Serif" font-size="10.00">PlayerControl.hpp</text>
</a>
</g>
</g>
<!-- Node1&#45;&gt;Node9 -->
<g id="edge15_Node000001_Node000009" class="edge">
<title>Node1&#45;&gt;Node9</title>
<g id="a_edge15_Node000001_Node000009"><a xlink:title=" ">
<path fill="none" stroke="#63b8ff" d="M249.3,-457.14C377.82,-456.3 731.29,-445.06 731.29,-347 731.29,-347 731.29,-347 731.29,-289 731.29,-230.85 659.8,-201.7 610.37,-188.5"/>
<polygon fill="#63b8ff" stroke="#63b8ff" points="249.44,-453.64 239.45,-457.18 249.47,-460.64 249.44,-453.64"/>
</a>
</g>
</g>
<!-- Node10 -->
<g id="Node000010" class="node">
<title>Node10</title>
<g id="a_Node000010"><a xlink:href="Render_8hpp.html" target="_top" xlink:title=" ">
<polygon fill="white" stroke="#666666" points="779.42,-132 713.17,-132 713.17,-112 779.42,-112 779.42,-132"/>
<text text-anchor="middle" x="746.29" y="-118.5" font-family="Helvetica,sans-Serif" font-size="10.00">Render.hpp</text>
</a>
</g>
</g>
<!-- Node1&#45;&gt;Node10 -->
<g id="edge19_Node000001_Node000010" class="edge">
<title>Node1&#45;&gt;Node10</title>
<g id="a_edge19_Node000001_Node000010"><a xlink:title=" ">
<path fill="none" stroke="#63b8ff" d="M249.26,-457.56C337.14,-457.59 534.47,-452.63 694.29,-412 765.11,-394 845.29,-420.06 845.29,-347 845.29,-347 845.29,-347 845.29,-233 845.29,-185.21 793.03,-148.8 764.45,-132.46"/>
<polygon fill="#63b8ff" stroke="#63b8ff" points="249.37,-454.06 239.36,-457.53 249.35,-461.06 249.37,-454.06"/>
</a>
</g>
</g>
<!-- Node11 -->
<g id="Node000011" class="node">
<title>Node11</title>
<g id="a_Node000011"><a xlink:href="SystemManager_8hpp.html" target="_top" xlink:title=" ">
<polygon fill="white" stroke="#666666" points="376.29,-412 270.29,-412 270.29,-392 376.29,-392 376.29,-412"/>
<text text-anchor="middle" x="323.29" y="-398.5" font-family="Helvetica,sans-Serif" font-size="10.00">SystemManager.hpp</text>
</a>
</g>
</g>
<!-- Node1&#45;&gt;Node11 -->
<g id="edge22_Node000001_Node000011" class="edge">
<title>Node1&#45;&gt;Node11</title>
<g id="a_edge22_Node000001_Node000011"><a xlink:title=" ">
<path fill="none" stroke="#63b8ff" d="M234.68,-442.88C255.97,-433.3 283.54,-420.89 302.23,-412.48"/>
<polygon fill="#63b8ff" stroke="#63b8ff" points="233.26,-439.68 225.58,-446.97 236.13,-446.06 233.26,-439.68"/>
</a>
</g>
</g>
<!-- Node3 -->
<g id="Node000003" class="node">
<title>Node3</title>
<g id="a_Node000003"><a xlink:href="GameTypes_8cpp.html" target="_top" xlink:title=" ">
<polygon fill="white" stroke="#666666" points="531.92,-20 444.67,-20 444.67,0 531.92,0 531.92,-20"/>
<text text-anchor="middle" x="488.29" y="-6.5" font-family="Helvetica,sans-Serif" font-size="10.00">GameTypes.cpp</text>
</a>
</g>
</g>
<!-- Node2&#45;&gt;Node3 -->
<g id="edge2_Node000002_Node000003" class="edge">
<title>Node2&#45;&gt;Node3</title>
<g id="a_edge2_Node000002_Node000003"><a xlink:title=" ">
<path fill="none" stroke="#63b8ff" d="M192.52,-159.51C205.64,-145.25 225.68,-125.37 246.29,-112 315.42,-67.15 407.77,-35.23 455.95,-20.38"/>
<polygon fill="#63b8ff" stroke="#63b8ff" points="190.04,-157.03 185.97,-166.81 195.25,-161.7 190.04,-157.03"/>
</a>
</g>
</g>
<!-- Node4 -->
<g id="Node000004" class="node">
<title>Node4</title>
<g id="a_Node000004"><a xlink:href="GameTypes_8hpp.html" target="_top" xlink:title=" ">
<polygon fill="white" stroke="#666666" points="204.92,-76 117.67,-76 117.67,-56 204.92,-56 204.92,-76"/>
<text text-anchor="middle" x="161.29" y="-62.5" font-family="Helvetica,sans-Serif" font-size="10.00">GameTypes.hpp</text>
</a>
</g>
</g>
<!-- Node2&#45;&gt;Node4 -->
<g id="edge3_Node000002_Node000004" class="edge">
<title>Node2&#45;&gt;Node4</title>
<g id="a_edge3_Node000002_Node000004"><a xlink:title=" ">
<path fill="none" stroke="#63b8ff" d="M174.29,-156.31C170.8,-132.36 165.21,-93.95 162.65,-76.35"/>
<polygon fill="#63b8ff" stroke="#63b8ff" points="170.81,-156.73 175.71,-166.12 177.74,-155.72 170.81,-156.73"/>
</a>
</g>
</g>
<!-- Node6 -->
<g id="Node000006" class="node">
<title>Node6</title>
<g id="a_Node000006"><a xlink:href="Server_2src_2main_8cpp.html" target="_top" xlink:title=" ">
<polygon fill="white" stroke="#666666" points="311.17,-132 255.42,-132 255.42,-112 311.17,-112 311.17,-132"/>
<text text-anchor="middle" x="283.29" y="-118.5" font-family="Helvetica,sans-Serif" font-size="10.00">main.cpp</text>
</a>
</g>
</g>
<!-- Node2&#45;&gt;Node6 -->
<g id="edge6_Node000002_Node000006" class="edge">
<title>Node2&#45;&gt;Node6</title>
<g id="a_edge6_Node000002_Node000006"><a xlink:title=" ">
<path fill="none" stroke="#63b8ff" d="M205.8,-162.48C224.49,-152.96 248.4,-140.78 264.69,-132.48"/>
<polygon fill="#63b8ff" stroke="#63b8ff" points="204.43,-159.25 197.11,-166.91 207.61,-165.49 204.43,-159.25"/>
</a>
</g>
</g>
<!-- Node4&#45;&gt;Node3 -->
<g id="edge4_Node000004_Node000003" class="edge">
<title>Node4&#45;&gt;Node3</title>
<g id="a_edge4_Node000004_Node000003"><a xlink:title=" ">
<path fill="none" stroke="#63b8ff" d="M216.5,-55.88C280.72,-45.28 385.42,-27.99 444.37,-18.25"/>
<polygon fill="#63b8ff" stroke="#63b8ff" points="216.18,-52.39 206.89,-57.47 217.32,-59.29 216.18,-52.39"/>
</a>
</g>
</g>
<!-- Node5 -->
<g id="Node000005" class="node">
<title>Node5</title>
<g id="a_Node000005"><a xlink:href="Client_2src_2main_8cpp.html" target="_top" xlink:title=" ">
<polygon fill="white" stroke="#666666" points="189.17,-20 133.42,-20 133.42,0 189.17,0 189.17,-20"/>
<text text-anchor="middle" x="161.29" y="-6.5" font-family="Helvetica,sans-Serif" font-size="10.00">main.cpp</text>
</a>
</g>
</g>
<!-- Node4&#45;&gt;Node5 -->
<g id="edge5_Node000004_Node000005" class="edge">
<title>Node4&#45;&gt;Node5</title>
<g id="a_edge5_Node000004_Node000005"><a xlink:title=" ">
<path fill="none" stroke="#63b8ff" d="M161.29,-44.13C161.29,-35.9 161.29,-26.85 161.29,-20.3"/>
<polygon fill="#63b8ff" stroke="#63b8ff" points="157.79,-44.08 161.29,-54.08 164.79,-44.08 157.79,-44.08"/>
</a>
</g>
</g>
<!-- Node7&#45;&gt;Node3 -->
<g id="edge8_Node000007_Node000003" class="edge">
<title>Node7&#45;&gt;Node3</title>
<g id="a_edge8_Node000007_Node000003"><a xlink:title=" ">
<path fill="none" stroke="#63b8ff" d="M355.21,-159.27C386.7,-124.18 455.99,-46.99 479.95,-20.3"/>
<polygon fill="#63b8ff" stroke="#63b8ff" points="352.82,-156.69 348.74,-166.47 358.03,-161.37 352.82,-156.69"/>
</a>
</g>
</g>
<!-- Node7&#45;&gt;Node4 -->
<g id="edge9_Node000007_Node000004" class="edge">
<title>Node7&#45;&gt;Node4</title>
<g id="a_edge9_Node000007_Node000004"><a xlink:title=" ">
<path fill="none" stroke="#63b8ff" d="M338.35,-156.43C336.62,-142.14 332.05,-123.65 320.29,-112 289.84,-81.8 240.73,-71.53 205.14,-68.21"/>
<polygon fill="#63b8ff" stroke="#63b8ff" points="334.84,-156.43 339.14,-166.11 341.82,-155.86 334.84,-156.43"/>
</a>
</g>
</g>
<!-- Node7&#45;&gt;Node6 -->
<g id="edge10_Node000007_Node000006" class="edge">
<title>Node7&#45;&gt;Node6</title>
<g id="a_edge10_Node000007_Node000006"><a xlink:title=" ">
<path fill="none" stroke="#63b8ff" d="M321.51,-159.85C312.04,-150.72 300.77,-139.86 292.94,-132.3"/>
<polygon fill="#63b8ff" stroke="#63b8ff" points="318.82,-162.12 328.45,-166.54 323.68,-157.08 318.82,-162.12"/>
</a>
</g>
</g>
<!-- Node8&#45;&gt;Node3 -->
<g id="edge12_Node000008_Node000003" class="edge">
<title>Node8&#45;&gt;Node3</title>
<g id="a_edge12_Node000008_Node000003"><a xlink:title=" ">
<path fill="none" stroke="#63b8ff" d="M53.6,-156.48C59.32,-128.46 73.92,-79.09 108.29,-56 162.34,-19.69 356.38,-12.6 444.36,-11.27"/>
<polygon fill="#63b8ff" stroke="#63b8ff" points="50.18,-155.72 51.83,-166.19 57.07,-156.98 50.18,-155.72"/>
</a>
</g>
</g>
<!-- Node8&#45;&gt;Node4 -->
<g id="edge13_Node000008_Node000004" class="edge">
<title>Node8&#45;&gt;Node4</title>
<g id="a_edge13_Node000008_Node000004"><a xlink:title=" ">
<path fill="none" stroke="#63b8ff" d="M62,-158.59C71.19,-144.9 84.83,-126.2 99.29,-112 113.62,-97.93 132.62,-84.8 145.79,-76.4"/>
<polygon fill="#63b8ff" stroke="#63b8ff" points="59.26,-156.38 56.72,-166.66 65.12,-160.21 59.26,-156.38"/>
</a>
</g>
</g>
<!-- Node8&#45;&gt;Node6 -->
<g id="edge14_Node000008_Node000006" class="edge">
<title>Node8&#45;&gt;Node6</title>
<g id="a_edge14_Node000008_Node000006"><a xlink:title=" ">
<path fill="none" stroke="#63b8ff" d="M96.83,-166.21C144.04,-155.27 215.59,-138.69 254.92,-129.58"/>
<polygon fill="#63b8ff" stroke="#63b8ff" points="96.11,-162.79 87.16,-168.46 97.69,-169.61 96.11,-162.79"/>
</a>
</g>
</g>
<!-- Node9&#45;&gt;Node3 -->
<g id="edge16_Node000009_Node000003" class="edge">
<title>Node9&#45;&gt;Node3</title>
<g id="a_edge16_Node000009_Node000003"><a xlink:title=" ">
<path fill="none" stroke="#63b8ff" d="M555.34,-157.44C538.92,-121.57 504.56,-46.53 492.55,-20.3"/>
<polygon fill="#63b8ff" stroke="#63b8ff" points="552.02,-158.59 559.36,-166.22 558.38,-155.67 552.02,-158.59"/>
</a>
</g>
</g>
<!-- Node9&#45;&gt;Node4 -->
<g id="edge17_Node000009_Node000004" class="edge">
<title>Node9&#45;&gt;Node4</title>
<g id="a_edge17_Node000009_Node000004"><a xlink:title=" ">
<path fill="none" stroke="#63b8ff" d="M522.45,-164.37C477.55,-150.93 404.07,-129.26 340.29,-112 292.35,-99.02 236.85,-85.26 200.51,-76.43"/>
<polygon fill="#63b8ff" stroke="#63b8ff" points="521.2,-167.65 531.78,-167.17 523.21,-160.94 521.2,-167.65"/>
</a>
</g>
</g>
<!-- Node9&#45;&gt;Node6 -->
<g id="edge18_Node000009_Node000006" class="edge">
<title>Node9&#45;&gt;Node6</title>
<g id="a_edge18_Node000009_Node000006"><a xlink:title=" ">
<path fill="none" stroke="#63b8ff" d="M505.85,-165.77C446.4,-154.34 356.78,-137.12 311.54,-128.43"/>
<polygon fill="#63b8ff" stroke="#63b8ff" points="504.98,-169.16 515.46,-167.62 506.3,-162.29 504.98,-169.16"/>
</a>
</g>
</g>
<!-- Node10&#45;&gt;Node3 -->
<g id="edge20_Node000010_Node000003" class="edge">
<title>Node10&#45;&gt;Node3</title>
<g id="a_edge20_Node000010_Node000003"><a xlink:title=" ">
<path fill="none" stroke="#63b8ff" d="M741.18,-100.81C736.41,-86.14 727.79,-67 713.29,-56 685.37,-34.81 589.49,-21.48 532.3,-15.23"/>
<polygon fill="#63b8ff" stroke="#63b8ff" points="737.8,-101.7 743.92,-110.35 744.53,-99.78 737.8,-101.7"/>
</a>
</g>
</g>
<!-- Node10&#45;&gt;Node4 -->
<g id="edge21_Node000010_Node000004" class="edge">
<title>Node10&#45;&gt;Node4</title>
<g id="a_edge21_Node000010_Node000004"><a xlink:title=" ">
<path fill="none" stroke="#63b8ff" d="M701.67,-115.8C690.15,-114.5 677.77,-113.16 666.29,-112 495.96,-94.83 292.94,-77.78 205.23,-70.57"/>
<polygon fill="#63b8ff" stroke="#63b8ff" points="701,-119.24 711.33,-116.89 701.79,-112.29 701,-119.24"/>
</a>
</g>
</g>
<!-- Node12 -->
<g id="Node000012" class="node">
<title>Node12</title>
<g id="a_Node000012"><a xlink:href="Mediator_8hpp.html" target="_top" xlink:title=" ">
<polygon fill="white" stroke="#666666" points="359.42,-356 287.17,-356 287.17,-336 359.42,-336 359.42,-356"/>
<text text-anchor="middle" x="323.29" y="-342.5" font-family="Helvetica,sans-Serif" font-size="10.00">Mediator.hpp</text>
</a>
</g>
</g>
<!-- Node11&#45;&gt;Node12 -->
<g id="edge23_Node000011_Node000012" class="edge">
<title>Node11&#45;&gt;Node12</title>
<g id="a_edge23_Node000011_Node000012"><a xlink:title=" ">
<path fill="none" stroke="#63b8ff" d="M323.29,-380.13C323.29,-371.9 323.29,-362.85 323.29,-356.3"/>
<polygon fill="#63b8ff" stroke="#63b8ff" points="319.79,-380.08 323.29,-390.08 326.79,-380.08 319.79,-380.08"/>
</a>
</g>
</g>
<!-- Node20 -->
<g id="Node000020" class="node">
<title>Node20</title>
<g id="a_Node000020"><a xlink:href="SystemManager_8cpp.html" target="_top" xlink:title=" ">
<polygon fill="white" stroke="#666666" points="483.29,-356 377.29,-356 377.29,-336 483.29,-336 483.29,-356"/>
<text text-anchor="middle" x="430.29" y="-342.5" font-family="Helvetica,sans-Serif" font-size="10.00">SystemManager.cpp</text>
</a>
</g>
</g>
<!-- Node11&#45;&gt;Node20 -->
<g id="edge47_Node000011_Node000020" class="edge">
<title>Node11&#45;&gt;Node20</title>
<g id="a_edge47_Node000011_Node000020"><a xlink:title=" ">
<path fill="none" stroke="#63b8ff" d="M352.06,-386.48C370.94,-376.96 395.07,-364.78 411.51,-356.48"/>
<polygon fill="#63b8ff" stroke="#63b8ff" points="350.63,-383.28 343.28,-390.91 353.79,-389.53 350.63,-383.28"/>
</a>
</g>
</g>
<!-- Node12&#45;&gt;Node3 -->
<g id="edge39_Node000012_Node000003" class="edge">
<title>Node12&#45;&gt;Node3</title>
<g id="a_edge39_Node000012_Node000003"><a xlink:title=" ">
<path fill="none" stroke="#63b8ff" d="M370.69,-335.84C488.38,-319.11 807.29,-331.88 807.29,-235 807.29,-235 807.29,-235 807.29,-121 807.29,-77.89 773.98,-75.03 735.29,-56 669.39,-23.57 583.24,-14.34 532.04,-11.81"/>
<polygon fill="#63b8ff" stroke="#63b8ff" points="370.44,-332.34 361.12,-337.38 371.54,-339.25 370.44,-332.34"/>
</a>
</g>
</g>
<!-- Node12&#45;&gt;Node4 -->
<g id="edge40_Node000012_Node000004" class="edge">
<title>Node12&#45;&gt;Node4</title>
<g id="a_edge40_Node000012_Node000004"><a xlink:title=" ">
<path fill="none" stroke="#63b8ff" d="M275.52,-338.12C201.49,-324.54 61.82,-286.52 6.29,-188 -25.13,-132.24 72.62,-93.25 127.19,-76.38"/>
<polygon fill="#63b8ff" stroke="#63b8ff" points="274.87,-341.56 285.32,-339.84 276.07,-334.67 274.87,-341.56"/>
</a>
</g>
</g>
<!-- Node12&#45;&gt;Node6 -->
<g id="edge46_Node000012_Node000006" class="edge">
<title>Node12&#45;&gt;Node6</title>
<g id="a_edge46_Node000012_Node000006"><a xlink:title=" ">
<path fill="none" stroke="#63b8ff" d="M307.36,-326.74C301.56,-319.01 295.61,-309.58 292.29,-300 271.18,-238.93 278.65,-158.95 282.02,-132.18"/>
<polygon fill="#63b8ff" stroke="#63b8ff" points="304.48,-328.74 313.48,-334.32 309.93,-324.34 304.48,-328.74"/>
</a>
</g>
</g>
<!-- Node12&#45;&gt;Node8 -->
<g id="edge43_Node000012_Node000008" class="edge">
<title>Node12&#45;&gt;Node8</title>
<g id="a_edge43_Node000012_Node000008"><a xlink:title=" ">
<path fill="none" stroke="#63b8ff" d="M290.22,-331.08C271.4,-322.77 247.6,-311.6 227.29,-300 162.33,-262.89 90.26,-209.46 62.3,-188.22"/>
<polygon fill="#63b8ff" stroke="#63b8ff" points="288.71,-334.24 299.28,-335.02 291.5,-327.82 288.71,-334.24"/>
</a>
</g>
</g>
<!-- Node12&#45;&gt;Node9 -->
<g id="edge44_Node000012_Node000009" class="edge">
<title>Node12&#45;&gt;Node9</title>
<g id="a_edge44_Node000012_Node000009"><a xlink:title=" ">
<path fill="none" stroke="#63b8ff" d="M370.79,-335.19C430.43,-322.79 525.37,-302.72 528.29,-300 561.04,-269.56 564.46,-210.8 564.5,-188.18"/>
<polygon fill="#63b8ff" stroke="#63b8ff" points="370.29,-331.72 361.21,-337.18 371.71,-338.58 370.29,-331.72"/>
</a>
</g>
</g>
<!-- Node12&#45;&gt;Node10 -->
<g id="edge45_Node000012_Node000010" class="edge">
<title>Node12&#45;&gt;Node10</title>
<g id="a_edge45_Node000012_Node000010"><a xlink:title=" ">
<path fill="none" stroke="#63b8ff" d="M370.78,-335.59C450.92,-320.77 476.33,-328.95 549.29,-300 636.52,-265.39 672.18,-263.22 728.29,-188 740.9,-171.11 744.68,-145.83 745.81,-132.32"/>
<polygon fill="#63b8ff" stroke="#63b8ff" points="370.29,-332.12 361.13,-337.44 371.61,-338.99 370.29,-332.12"/>
</a>
</g>
</g>
<!-- Node13 -->
<g id="Node000013" class="node">
<title>Node13</title>
<g id="a_Node000013"><a xlink:href="ComponentRegistry_8hpp.html" target="_top" xlink:title=" ">
<polygon fill="white" stroke="#666666" points="428.79,-300 307.79,-300 307.79,-280 428.79,-280 428.79,-300"/>
<text text-anchor="middle" x="368.29" y="-286.5" font-family="Helvetica,sans-Serif" font-size="10.00">ComponentRegistry.hpp</text>
</a>
</g>
</g>
<!-- Node12&#45;&gt;Node13 -->
<g id="edge24_Node000012_Node000013" class="edge">
<title>Node12&#45;&gt;Node13</title>
<g id="a_edge24_Node000012_Node000013"><a xlink:title=" ">
<path fill="none" stroke="#63b8ff" d="M338.29,-327C345.75,-318.06 354.44,-307.62 360.55,-300.3"/>
<polygon fill="#63b8ff" stroke="#63b8ff" points="335.81,-324.51 332.1,-334.43 341.19,-328.99 335.81,-324.51"/>
</a>
</g>
</g>
<!-- Node14 -->
<g id="Node000014" class="node">
<title>Node14</title>
<g id="a_Node000014"><a xlink:href="NetworkManager_8hpp.html" target="_top" xlink:title=" ">
<polygon fill="white" stroke="#666666" points="407.79,-244 298.79,-244 298.79,-224 407.79,-224 407.79,-244"/>
<text text-anchor="middle" x="353.29" y="-230.5" font-family="Helvetica,sans-Serif" font-size="10.00">NetworkManager.hpp</text>
</a>
</g>
</g>
<!-- Node12&#45;&gt;Node14 -->
<g id="edge42_Node000012_Node000014" class="edge">
<title>Node12&#45;&gt;Node14</title>
<g id="a_edge42_Node000012_Node000014"><a xlink:title=" ">
<path fill="none" stroke="#63b8ff" d="M308.62,-326.52C300.03,-313.33 292.14,-295.28 299.29,-280 306.64,-264.31 322.46,-252.18 335.08,-244.49"/>
<polygon fill="#63b8ff" stroke="#63b8ff" points="305.54,-328.23 314.21,-334.31 311.23,-324.15 305.54,-328.23"/>
</a>
</g>
</g>
<!-- Node19 -->
<g id="Node000019" class="node">
<title>Node19</title>
<g id="a_Node000019"><a xlink:href="Mediator_8cpp.html" target="_top" xlink:title=" ">
<polygon fill="white" stroke="#666666" points="519.42,-300 447.17,-300 447.17,-280 519.42,-280 519.42,-300"/>
<text text-anchor="middle" x="483.29" y="-286.5" font-family="Helvetica,sans-Serif" font-size="10.00">Mediator.cpp</text>
</a>
</g>
</g>
<!-- Node12&#45;&gt;Node19 -->
<g id="edge41_Node000012_Node000019" class="edge">
<title>Node12&#45;&gt;Node19</title>
<g id="a_edge41_Node000012_Node000019"><a xlink:title=" ">
<path fill="none" stroke="#63b8ff" d="M362.05,-331.92C390.81,-322.21 429.37,-309.2 455.21,-300.48"/>
<polygon fill="#63b8ff" stroke="#63b8ff" points="360.95,-328.6 352.6,-335.11 363.19,-335.23 360.95,-328.6"/>
</a>
</g>
</g>
<!-- Node13&#45;&gt;Node14 -->
<g id="edge25_Node000013_Node000014" class="edge">
<title>Node13&#45;&gt;Node14</title>
<g id="a_edge25_Node000013_Node000014"><a xlink:title=" ">
<path fill="none" stroke="#63b8ff" d="M362.66,-268.71C360.33,-260.32 357.74,-251.01 355.88,-244.3"/>
<polygon fill="#63b8ff" stroke="#63b8ff" points="359.23,-269.44 365.28,-278.14 365.97,-267.56 359.23,-269.44"/>
</a>
</g>
</g>
<!-- Node14&#45;&gt;Node2 -->
<g id="edge26_Node000014_Node000002" class="edge">
<title>Node14&#45;&gt;Node2</title>
<g id="a_edge26_Node000014_Node000002"><a xlink:title=" ">
<path fill="none" stroke="#63b8ff" d="M311.92,-220.31C280.15,-210.56 236.99,-197.32 208.19,-188.48"/>
<polygon fill="#63b8ff" stroke="#63b8ff" points="310.6,-223.56 321.19,-223.15 312.66,-216.87 310.6,-223.56"/>
</a>
</g>
</g>
<!-- Node14&#45;&gt;Node4 -->
<g id="edge28_Node000014_Node000004" class="edge">
<title>Node14&#45;&gt;Node4</title>
<g id="a_edge28_Node000014_Node000004"><a xlink:title=" ">
<path fill="none" stroke="#63b8ff" d="M287.16,-228.58C229.31,-223.17 151.6,-211.63 132.29,-188 104.69,-154.21 138.7,-98.41 154.28,-76.37"/>
<polygon fill="#63b8ff" stroke="#63b8ff" points="286.67,-232.05 296.94,-229.45 287.28,-225.07 286.67,-232.05"/>
</a>
</g>
</g>
<!-- Node14&#45;&gt;Node6 -->
<g id="edge38_Node000014_Node000006" class="edge">
<title>Node14&#45;&gt;Node6</title>
<g id="a_edge38_Node000014_Node000006"><a xlink:title=" ">
<path fill="none" stroke="#63b8ff" d="M327.31,-217.24C316.82,-209.64 305.52,-199.63 298.29,-188 287.29,-170.29 284.35,-145.35 283.57,-132.1"/>
<polygon fill="#63b8ff" stroke="#63b8ff" points="325.07,-219.96 335.31,-222.68 329,-214.16 325.07,-219.96"/>
</a>
</g>
</g>
<!-- Node14&#45;&gt;Node7 -->
<g id="edge27_Node000014_Node000007" class="edge">
<title>Node14&#45;&gt;Node7</title>
<g id="a_edge27_Node000014_Node000007"><a xlink:title=" ">
<path fill="none" stroke="#63b8ff" d="M348.04,-212.71C345.86,-204.32 343.44,-195.01 341.7,-188.3"/>
<polygon fill="#63b8ff" stroke="#63b8ff" points="344.58,-213.33 350.48,-222.13 351.35,-211.57 344.58,-213.33"/>
</a>
</g>
</g>
<!-- Node14&#45;&gt;Node9 -->
<g id="edge30_Node000014_Node000009" class="edge">
<title>Node14&#45;&gt;Node9</title>
<g id="a_edge30_Node000014_Node000009"><a xlink:title=" ">
<path fill="none" stroke="#63b8ff" d="M400.91,-220.81C439.17,-211.02 492.12,-197.47 527.25,-188.48"/>
<polygon fill="#63b8ff" stroke="#63b8ff" points="400.33,-217.35 391.51,-223.22 402.07,-224.13 400.33,-217.35"/>
</a>
</g>
</g>
<!-- Node15 -->
<g id="Node000015" class="node">
<title>Node15</title>
<g id="a_Node000015"><a xlink:href="NetworkManager_8cpp.html" target="_top" xlink:title=" ">
<polygon fill="white" stroke="#666666" points="498.79,-188 389.79,-188 389.79,-168 498.79,-168 498.79,-188"/>
<text text-anchor="middle" x="444.29" y="-174.5" font-family="Helvetica,sans-Serif" font-size="10.00">NetworkManager.cpp</text>
</a>
</g>
</g>
<!-- Node14&#45;&gt;Node15 -->
<g id="edge29_Node000014_Node000015" class="edge">
<title>Node14&#45;&gt;Node15</title>
<g id="a_edge29_Node000014_Node000015"><a xlink:title=" ">
<path fill="none" stroke="#63b8ff" d="M378.89,-217.81C394.76,-208.39 414.66,-196.58 428.32,-188.48"/>
<polygon fill="#63b8ff" stroke="#63b8ff" points="377.26,-214.71 370.45,-222.82 380.83,-220.73 377.26,-214.71"/>
</a>
</g>
</g>
<!-- Node16 -->
<g id="Node000016" class="node">
<title>Node16</title>
<g id="a_Node000016"><a xlink:href="Renderer_8hpp.html" target="_top" xlink:title=" ">
<polygon fill="white" stroke="#666666" points="703.54,-188 629.04,-188 629.04,-168 703.54,-168 703.54,-188"/>
<text text-anchor="middle" x="666.29" y="-174.5" font-family="Helvetica,sans-Serif" font-size="10.00">Renderer.hpp</text>
</a>
</g>
</g>
<!-- Node14&#45;&gt;Node16 -->
<g id="edge31_Node000014_Node000016" class="edge">
<title>Node14&#45;&gt;Node16</title>
<g id="a_edge31_Node000014_Node000016"><a xlink:title=" ">
<path fill="none" stroke="#63b8ff" d="M419.24,-222.38C473.33,-213.55 551.86,-200.46 620.29,-188 623.02,-187.5 625.83,-186.98 628.65,-186.45"/>
<polygon fill="#63b8ff" stroke="#63b8ff" points="418.88,-218.89 409.58,-223.95 420.01,-225.8 418.88,-218.89"/>
</a>
</g>
</g>
<!-- Node18 -->
<g id="Node000018" class="node">
<title>Node18</title>
<g id="a_Node000018"><a xlink:href="SFML_8cpp.html" target="_top" xlink:title=" ">
<polygon fill="white" stroke="#666666" points="703.79,-76 642.79,-76 642.79,-56 703.79,-56 703.79,-76"/>
<text text-anchor="middle" x="673.29" y="-62.5" font-family="Helvetica,sans-Serif" font-size="10.00">SFML.cpp</text>
</a>
</g>
</g>
<!-- Node14&#45;&gt;Node18 -->
<g id="edge37_Node000014_Node000018" class="edge">
<title>Node14&#45;&gt;Node18</title>
<g id="a_edge37_Node000014_Node000018"><a xlink:title=" ">
<path fill="none" stroke="#63b8ff" d="M419.58,-229.37C517.99,-223.28 693.28,-209.55 712.29,-188 718.18,-181.34 713.92,-176.74 712.29,-168 705.72,-132.71 687.24,-93.86 678.29,-76.4"/>
<polygon fill="#63b8ff" stroke="#63b8ff" points="419.54,-225.86 409.77,-229.96 419.97,-232.85 419.54,-225.86"/>
</a>
</g>
</g>
<!-- Node16&#45;&gt;Node4 -->
<g id="edge32_Node000016_Node000004" class="edge">
<title>Node16&#45;&gt;Node4</title>
<g id="a_edge32_Node000016_Node000004"><a xlink:title=" ">
<path fill="none" stroke="#63b8ff" d="M617.72,-165.12C562.33,-151.68 468.97,-129.42 388.29,-112 324.87,-98.3 251.13,-83.98 205.33,-75.27"/>
<polygon fill="#63b8ff" stroke="#63b8ff" points="616.6,-168.44 627.14,-167.4 618.25,-161.64 616.6,-168.44"/>
</a>
</g>
</g>
<!-- Node16&#45;&gt;Node10 -->
<g id="edge33_Node000016_Node000010" class="edge">
<title>Node16&#45;&gt;Node10</title>
<g id="a_edge33_Node000016_Node000010"><a xlink:title=" ">
<path fill="none" stroke="#63b8ff" d="M689.6,-161.27C703.42,-151.94 720.47,-140.43 732.25,-132.48"/>
<polygon fill="#63b8ff" stroke="#63b8ff" points="687.81,-158.25 681.48,-166.75 691.73,-164.05 687.81,-158.25"/>
</a>
</g>
</g>
<!-- Node17 -->
<g id="Node000017" class="node">
<title>Node17</title>
<g id="a_Node000017"><a xlink:href="SFML_8hpp.html" target="_top" xlink:title=" ">
<polygon fill="white" stroke="#666666" points="656.79,-132 595.79,-132 595.79,-112 656.79,-112 656.79,-132"/>
<text text-anchor="middle" x="626.29" y="-118.5" font-family="Helvetica,sans-Serif" font-size="10.00">SFML.hpp</text>
</a>
</g>
</g>
<!-- Node16&#45;&gt;Node17 -->
<g id="edge34_Node000016_Node000017" class="edge">
<title>Node16&#45;&gt;Node17</title>
<g id="a_edge34_Node000016_Node000017"><a xlink:title=" ">
<path fill="none" stroke="#63b8ff" d="M652.54,-158.44C646.01,-149.62 638.49,-139.47 633.18,-132.3"/>
<polygon fill="#63b8ff" stroke="#63b8ff" points="649.66,-160.43 658.43,-166.38 655.29,-156.26 649.66,-160.43"/>
</a>
</g>
</g>
<!-- Node17&#45;&gt;Node3 -->
<g id="edge35_Node000017_Node000003" class="edge">
<title>Node17&#45;&gt;Node3</title>
<g id="a_edge35_Node000017_Node000003"><a xlink:title=" ">
<path fill="none" stroke="#63b8ff" d="M614.22,-102.44C604.42,-88.42 589.6,-69.37 573.29,-56 554.57,-40.65 529.79,-28.25 511.82,-20.39"/>
<polygon fill="#63b8ff" stroke="#63b8ff" points="611.07,-104.03 619.57,-110.36 616.87,-100.11 611.07,-104.03"/>
</a>
</g>
</g>
<!-- Node17&#45;&gt;Node18 -->
<g id="edge36_Node000017_Node000018" class="edge">
<title>Node17&#45;&gt;Node18</title>
<g id="a_edge36_Node000017_Node000018"><a xlink:title=" ">
<path fill="none" stroke="#63b8ff" d="M641.96,-103C649.74,-94.06 658.83,-83.62 665.2,-76.3"/>
<polygon fill="#63b8ff" stroke="#63b8ff" points="639.4,-100.61 635.47,-110.45 644.68,-105.21 639.4,-100.61"/>
</a>
</g>
</g>
</g>
</svg>
