<?xml version="1.0" encoding="UTF-8" standalone="no"?>
<!DOCTYPE svg PUBLIC "-//W3C//DTD SVG 1.1//EN"
 "http://www.w3.org/Graphics/SVG/1.1/DTD/svg11.dtd">
<!-- Generated by graphviz version 12.1.0 (20240811.2233)
 -->
<!-- Title: SystemManager.hpp Pages: 1 -->
<svg width="428pt" height="196pt"
 viewBox="0.00 0.00 428.38 196.00" xmlns="http://www.w3.org/2000/svg" xmlns:xlink="http://www.w3.org/1999/xlink">
<g id="graph0" class="graph" transform="scale(1 1) rotate(0) translate(4 192)">
<title>SystemManager.hpp</title>
<!-- Node1 -->
<g id="Node000001" class="node">
<title>Node1</title>
<g id="a_Node000001"><a xlink:title=" ">
<polygon fill="#999999" stroke="#666666" points="237.38,-188 131.38,-188 131.38,-168 237.38,-168 237.38,-188"/>
<text text-anchor="middle" x="184.38" y="-174.5" font-family="Helvetica,sans-Serif" font-size="10.00">SystemManager.hpp</text>
</a>
</g>
</g>
<!-- Node2 -->
<g id="Node000002" class="node">
<title>Node2</title>
<g id="a_Node000002"><a xlink:title=" ">
<polygon fill="#e0e0e0" stroke="#999999" points="82.75,-132 0,-132 0,-112 82.75,-112 82.75,-132"/>
<text text-anchor="middle" x="41.38" y="-118.5" font-family="Helvetica,sans-Serif" font-size="10.00">unordered_map</text>
</a>
</g>
</g>
<!-- Node1&#45;&gt;Node2 -->
<g id="edge1_Node000001_Node000002" class="edge">
<title>Node1&#45;&gt;Node2</title>
<g id="a_edge1_Node000001_Node000002"><a xlink:title=" ">
<path fill="none" stroke="#63b8ff" d="M159.47,-167.59C136.64,-158.97 102.59,-146.12 76.91,-136.42"/>
<polygon fill="#63b8ff" stroke="#63b8ff" points="78.49,-133.27 67.89,-133.01 76.01,-139.82 78.49,-133.27"/>
</a>
</g>
</g>
<!-- Node3 -->
<g id="Node000003" class="node">
<title>Node3</title>
<g id="a_Node000003"><a xlink:title=" ">
<polygon fill="#e0e0e0" stroke="#999999" points="140.38,-132 100.38,-132 100.38,-112 140.38,-112 140.38,-132"/>
<text text-anchor="middle" x="120.38" y="-118.5" font-family="Helvetica,sans-Serif" font-size="10.00">string</text>
</a>
</g>
</g>
<!-- Node1&#45;&gt;Node3 -->
<g id="edge2_Node000001_Node000003" class="edge">
<title>Node1&#45;&gt;Node3</title>
<g id="a_edge2_Node000001_Node000003"><a xlink:title=" ">
<path fill="none" stroke="#63b8ff" d="M173.23,-167.59C164.05,-159.85 150.82,-148.69 139.89,-139.47"/>
<polygon fill="#63b8ff" stroke="#63b8ff" points="142.45,-137.05 132.55,-133.27 137.94,-142.4 142.45,-137.05"/>
</a>
</g>
</g>
<!-- Node4 -->
<g id="Node000004" class="node">
<title>Node4</title>
<g id="a_Node000004"><a xlink:title=" ">
<polygon fill="#e0e0e0" stroke="#999999" points="210,-132 158.75,-132 158.75,-112 210,-112 210,-132"/>
<text text-anchor="middle" x="184.38" y="-118.5" font-family="Helvetica,sans-Serif" font-size="10.00">memory</text>
</a>
</g>
</g>
<!-- Node1&#45;&gt;Node4 -->
<g id="edge3_Node000001_Node000004" class="edge">
<title>Node1&#45;&gt;Node4</title>
<g id="a_edge3_Node000001_Node000004"><a xlink:title=" ">
<path fill="none" stroke="#63b8ff" d="M184.38,-167.59C184.38,-161.01 184.38,-151.96 184.38,-143.73"/>
<polygon fill="#63b8ff" stroke="#63b8ff" points="187.88,-143.81 184.38,-133.81 180.88,-143.81 187.88,-143.81"/>
</a>
</g>
</g>
<!-- Node5 -->
<g id="Node000005" class="node">
<title>Node5</title>
<g id="a_Node000005"><a xlink:title=" ">
<polygon fill="#e0e0e0" stroke="#999999" points="286.75,-132 228,-132 228,-112 286.75,-112 286.75,-132"/>
<text text-anchor="middle" x="257.38" y="-118.5" font-family="Helvetica,sans-Serif" font-size="10.00">stdexcept</text>
</a>
</g>
</g>
<!-- Node1&#45;&gt;Node5 -->
<g id="edge4_Node000001_Node000005" class="edge">
<title>Node1&#45;&gt;Node5</title>
<g id="a_edge4_Node000001_Node000005"><a xlink:title=" ">
<path fill="none" stroke="#63b8ff" d="M197.09,-167.59C207.77,-159.7 223.25,-148.24 235.86,-138.92"/>
<polygon fill="#63b8ff" stroke="#63b8ff" points="237.63,-141.96 243.59,-133.2 233.47,-136.33 237.63,-141.96"/>
</a>
</g>
</g>
<!-- Node6 -->
<g id="Node000006" class="node">
<title>Node6</title>
<g id="a_Node000006"><a xlink:href="System_8hpp.html" target="_top" xlink:title=" ">
<polygon fill="white" stroke="#666666" points="373.62,-132 305.12,-132 305.12,-112 373.62,-112 373.62,-132"/>
<text text-anchor="middle" x="339.38" y="-118.5" font-family="Helvetica,sans-Serif" font-size="10.00">System.hpp</text>
</a>
</g>
</g>
<!-- Node1&#45;&gt;Node6 -->
<g id="edge5_Node000001_Node000006" class="edge">
<title>Node1&#45;&gt;Node6</title>
<g id="a_edge5_Node000001_Node000006"><a xlink:title=" ">
<path fill="none" stroke="#63b8ff" d="M211.37,-167.59C236.34,-158.9 273.68,-145.89 301.6,-136.16"/>
<polygon fill="#63b8ff" stroke="#63b8ff" points="302.44,-139.57 310.74,-132.98 300.14,-132.96 302.44,-139.57"/>
</a>
</g>
</g>
<!-- Node7 -->
<g id="Node000007" class="node">
<title>Node7</title>
<g id="a_Node000007"><a xlink:title=" ">
<polygon fill="#e0e0e0" stroke="#999999" points="322.12,-76 292.62,-76 292.62,-56 322.12,-56 322.12,-76"/>
<text text-anchor="middle" x="307.38" y="-62.5" font-family="Helvetica,sans-Serif" font-size="10.00">set</text>
</a>
</g>
</g>
<!-- Node6&#45;&gt;Node7 -->
<g id="edge6_Node000006_Node000007" class="edge">
<title>Node6&#45;&gt;Node7</title>
<g id="a_edge6_Node000006_Node000007"><a xlink:title=" ">
<path fill="none" stroke="#63b8ff" d="M333.8,-111.59C329.63,-104.55 323.77,-94.67 318.63,-86"/>
<polygon fill="#63b8ff" stroke="#63b8ff" points="321.77,-84.42 313.66,-77.6 315.74,-87.99 321.77,-84.42"/>
</a>
</g>
</g>
<!-- Node8 -->
<g id="Node000008" class="node">
<title>Node8</title>
<g id="a_Node000008"><a xlink:href="Entity_8hpp.html" target="_top" xlink:title=" ">
<polygon fill="white" stroke="#666666" points="400.12,-76 340.62,-76 340.62,-56 400.12,-56 400.12,-76"/>
<text text-anchor="middle" x="370.38" y="-62.5" font-family="Helvetica,sans-Serif" font-size="10.00">Entity.hpp</text>
</a>
</g>
</g>
<!-- Node6&#45;&gt;Node8 -->
<g id="edge7_Node000006_Node000008" class="edge">
<title>Node6&#45;&gt;Node8</title>
<g id="a_edge7_Node000006_Node000008"><a xlink:title=" ">
<path fill="none" stroke="#63b8ff" d="M344.77,-111.59C348.82,-104.55 354.49,-94.67 359.47,-86"/>
<polygon fill="#63b8ff" stroke="#63b8ff" points="362.34,-88.03 364.28,-77.61 356.27,-84.54 362.34,-88.03"/>
</a>
</g>
</g>
<!-- Node9 -->
<g id="Node000009" class="node">
<title>Node9</title>
<g id="a_Node000009"><a xlink:title=" ">
<polygon fill="#e0e0e0" stroke="#999999" points="362,-20 316.75,-20 316.75,0 362,0 362,-20"/>
<text text-anchor="middle" x="339.38" y="-6.5" font-family="Helvetica,sans-Serif" font-size="10.00">cstdint</text>
</a>
</g>
</g>
<!-- Node8&#45;&gt;Node9 -->
<g id="edge8_Node000008_Node000009" class="edge">
<title>Node8&#45;&gt;Node9</title>
<g id="a_edge8_Node000008_Node000009"><a xlink:title=" ">
<path fill="none" stroke="#63b8ff" d="M364.98,-55.59C360.93,-48.55 355.26,-38.67 350.28,-30"/>
<polygon fill="#63b8ff" stroke="#63b8ff" points="353.48,-28.54 345.47,-21.61 347.41,-32.03 353.48,-28.54"/>
</a>
</g>
</g>
<!-- Node10 -->
<g id="Node000010" class="node">
<title>Node10</title>
<g id="a_Node000010"><a xlink:title=" ">
<polygon fill="#e0e0e0" stroke="#999999" points="420.38,-20 380.38,-20 380.38,0 420.38,0 420.38,-20"/>
<text text-anchor="middle" x="400.38" y="-6.5" font-family="Helvetica,sans-Serif" font-size="10.00">bitset</text>
</a>
</g>
</g>
<!-- Node8&#45;&gt;Node10 -->
<g id="edge9_Node000008_Node000010" class="edge">
<title>Node8&#45;&gt;Node10</title>
<g id="a_edge9_Node000008_Node000010"><a xlink:title=" ">
<path fill="none" stroke="#63b8ff" d="M375.6,-55.59C379.47,-48.63 384.88,-38.89 389.66,-30.29"/>
<polygon fill="#63b8ff" stroke="#63b8ff" points="392.68,-32.06 394.47,-21.62 386.56,-28.66 392.68,-32.06"/>
</a>
</g>
</g>
</g>
</svg>
