<?xml version="1.0" encoding="UTF-8" standalone="no"?>
<!DOCTYPE svg PUBLIC "-//W3C//DTD SVG 1.1//EN"
 "http://www.w3.org/Graphics/SVG/1.1/DTD/svg11.dtd">
<!-- Generated by graphviz version 12.1.0 (20240811.2233)
 -->
<!-- Title: Transform.hpp Pages: 1 -->
<svg width="745pt" height="252pt"
 viewBox="0.00 0.00 745.00 252.00" xmlns="http://www.w3.org/2000/svg" xmlns:xlink="http://www.w3.org/1999/xlink">
<g id="graph0" class="graph" transform="scale(1 1) rotate(0) translate(4 248)">
<title>Transform.hpp</title>
<!-- Node1 -->
<g id="Node000001" class="node">
<title>Node1</title>
<g id="a_Node000001"><a xlink:title=" ">
<polygon fill="#999999" stroke="#666666" points="345.12,-244 266.12,-244 266.12,-224 345.12,-224 345.12,-244"/>
<text text-anchor="middle" x="305.62" y="-230.5" font-family="Helvetica,sans-Serif" font-size="10.00">Transform.hpp</text>
</a>
</g>
</g>
<!-- Node2 -->
<g id="Node000002" class="node">
<title>Node2</title>
<g id="a_Node000002"><a xlink:href="Collision_8hpp.html" target="_top" xlink:title=" ">
<polygon fill="white" stroke="#666666" points="361.75,-132 289.5,-132 289.5,-112 361.75,-112 361.75,-132"/>
<text text-anchor="middle" x="325.62" y="-118.5" font-family="Helvetica,sans-Serif" font-size="10.00">Collision.hpp</text>
</a>
</g>
</g>
<!-- Node1&#45;&gt;Node2 -->
<g id="edge1_Node000001_Node000002" class="edge">
<title>Node1&#45;&gt;Node2</title>
<g id="a_edge1_Node000001_Node000002"><a xlink:title=" ">
<path fill="none" stroke="#63b8ff" d="M274.55,-218.42C253.26,-206.27 230.83,-187.82 242.62,-168 253.11,-150.39 273.14,-139.25 290.9,-132.46"/>
<polygon fill="#63b8ff" stroke="#63b8ff" points="272.64,-221.36 283.11,-222.98 275.93,-215.19 272.64,-221.36"/>
</a>
</g>
</g>
<!-- Node7 -->
<g id="Node000007" class="node">
<title>Node7</title>
<g id="a_Node000007"><a xlink:href="Server_8cpp.html" target="_top" xlink:title=" ">
<polygon fill="white" stroke="#666666" points="63.25,-20 0,-20 0,0 63.25,0 63.25,-20"/>
<text text-anchor="middle" x="31.62" y="-6.5" font-family="Helvetica,sans-Serif" font-size="10.00">Server.cpp</text>
</a>
</g>
</g>
<!-- Node1&#45;&gt;Node7 -->
<g id="edge32_Node000001_Node000007" class="edge">
<title>Node1&#45;&gt;Node7</title>
<g id="a_edge32_Node000001_Node000007"><a xlink:title=" ">
<path fill="none" stroke="#63b8ff" d="M254.59,-226.47C197.76,-216.41 107.4,-191.58 57.62,-132 29.8,-98.69 29.7,-42.61 30.89,-20.43"/>
<polygon fill="#63b8ff" stroke="#63b8ff" points="253.89,-229.9 264.33,-228.1 255.05,-223 253.89,-229.9"/>
</a>
</g>
</g>
<!-- Node9 -->
<g id="Node000009" class="node">
<title>Node9</title>
<g id="a_Node000009"><a xlink:href="DevConsole_8hpp.html" target="_top" xlink:title=" ">
<polygon fill="white" stroke="#666666" points="737,-132 648.25,-132 648.25,-112 737,-112 737,-132"/>
<text text-anchor="middle" x="692.62" y="-118.5" font-family="Helvetica,sans-Serif" font-size="10.00">DevConsole.hpp</text>
</a>
</g>
</g>
<!-- Node1&#45;&gt;Node9 -->
<g id="edge9_Node000001_Node000009" class="edge">
<title>Node1&#45;&gt;Node9</title>
<g id="a_edge9_Node000001_Node000009"><a xlink:title=" ">
<path fill="none" stroke="#63b8ff" d="M356.71,-230.91C438.65,-226.78 595.08,-215.47 642.62,-188 665.31,-174.89 681.21,-147.05 688.37,-132.42"/>
<polygon fill="#63b8ff" stroke="#63b8ff" points="356.75,-227.4 346.93,-231.38 357.09,-234.4 356.75,-227.4"/>
</a>
</g>
</g>
<!-- Node10 -->
<g id="Node000010" class="node">
<title>Node10</title>
<g id="a_Node000010"><a xlink:href="Enemy_8hpp.html" target="_top" xlink:title=" ">
<polygon fill="white" stroke="#666666" points="271,-132 206.25,-132 206.25,-112 271,-112 271,-132"/>
<text text-anchor="middle" x="238.62" y="-118.5" font-family="Helvetica,sans-Serif" font-size="10.00">Enemy.hpp</text>
</a>
</g>
</g>
<!-- Node1&#45;&gt;Node10 -->
<g id="edge12_Node000001_Node000010" class="edge">
<title>Node1&#45;&gt;Node10</title>
<g id="a_edge12_Node000001_Node000010"><a xlink:title=" ">
<path fill="none" stroke="#63b8ff" d="M269.15,-218.55C256.16,-211.42 242.94,-201.41 235.62,-188 225.88,-170.15 231.32,-145.27 235.41,-132.07"/>
<polygon fill="#63b8ff" stroke="#63b8ff" points="267.54,-221.65 278.05,-222.98 270.66,-215.39 267.54,-221.65"/>
</a>
</g>
</g>
<!-- Node11 -->
<g id="Node000011" class="node">
<title>Node11</title>
<g id="a_Node000011"><a xlink:href="NetworkManager_8cpp.html" target="_top" xlink:title=" ">
<polygon fill="white" stroke="#666666" points="360.12,-188 251.12,-188 251.12,-168 360.12,-168 360.12,-188"/>
<text text-anchor="middle" x="305.62" y="-174.5" font-family="Helvetica,sans-Serif" font-size="10.00">NetworkManager.cpp</text>
</a>
</g>
</g>
<!-- Node1&#45;&gt;Node11 -->
<g id="edge16_Node000001_Node000011" class="edge">
<title>Node1&#45;&gt;Node11</title>
<g id="a_edge16_Node000001_Node000011"><a xlink:title=" ">
<path fill="none" stroke="#63b8ff" d="M305.62,-212.13C305.62,-203.9 305.62,-194.85 305.62,-188.3"/>
<polygon fill="#63b8ff" stroke="#63b8ff" points="302.13,-212.08 305.63,-222.08 309.13,-212.08 302.13,-212.08"/>
</a>
</g>
</g>
<!-- Node12 -->
<g id="Node000012" class="node">
<title>Node12</title>
<g id="a_Node000012"><a xlink:href="PhysicsNoEngine_8hpp.html" target="_top" xlink:title=" ">
<polygon fill="white" stroke="#666666" points="188,-132 75.25,-132 75.25,-112 188,-112 188,-132"/>
<text text-anchor="middle" x="131.62" y="-118.5" font-family="Helvetica,sans-Serif" font-size="10.00">PhysicsNoEngine.hpp</text>
</a>
</g>
</g>
<!-- Node1&#45;&gt;Node12 -->
<g id="edge17_Node000001_Node000012" class="edge">
<title>Node1&#45;&gt;Node12</title>
<g id="a_edge17_Node000001_Node000012"><a xlink:title=" ">
<path fill="none" stroke="#63b8ff" d="M278.22,-218.12C262.87,-209.6 243.48,-198.54 226.62,-188 196.64,-169.24 162.7,-145.35 144.61,-132.39"/>
<polygon fill="#63b8ff" stroke="#63b8ff" points="276.35,-221.08 286.8,-222.84 279.73,-214.95 276.35,-221.08"/>
</a>
</g>
</g>
<!-- Node13 -->
<g id="Node000013" class="node">
<title>Node13</title>
<g id="a_Node000013"><a xlink:href="PhysicsUsingEngine_8hpp.html" target="_top" xlink:title=" ">
<polygon fill="white" stroke="#666666" points="616.38,-188 490.88,-188 490.88,-168 616.38,-168 616.38,-188"/>
<text text-anchor="middle" x="553.62" y="-174.5" font-family="Helvetica,sans-Serif" font-size="10.00">PhysicsUsingEngine.hpp</text>
</a>
</g>
</g>
<!-- Node1&#45;&gt;Node13 -->
<g id="edge21_Node000001_Node000013" class="edge">
<title>Node1&#45;&gt;Node13</title>
<g id="a_edge21_Node000001_Node000013"><a xlink:title=" ">
<path fill="none" stroke="#63b8ff" d="M356.52,-221.92C401.78,-212.06 467.25,-197.81 510.12,-188.47"/>
<polygon fill="#63b8ff" stroke="#63b8ff" points="355.98,-218.45 346.95,-224 357.47,-225.29 355.98,-218.45"/>
</a>
</g>
</g>
<!-- Node14 -->
<g id="Node000014" class="node">
<title>Node14</title>
<g id="a_Node000014"><a xlink:href="PlayerControl_8hpp.html" target="_top" xlink:title=" ">
<polygon fill="white" stroke="#666666" points="472.62,-188 378.62,-188 378.62,-168 472.62,-168 472.62,-188"/>
<text text-anchor="middle" x="425.62" y="-174.5" font-family="Helvetica,sans-Serif" font-size="10.00">PlayerControl.hpp</text>
</a>
</g>
</g>
<!-- Node1&#45;&gt;Node14 -->
<g id="edge22_Node000001_Node000014" class="edge">
<title>Node1&#45;&gt;Node14</title>
<g id="a_edge22_Node000001_Node000014"><a xlink:title=" ">
<path fill="none" stroke="#63b8ff" d="M337.01,-218.88C358.3,-209.3 385.87,-196.89 404.56,-188.48"/>
<polygon fill="#63b8ff" stroke="#63b8ff" points="335.59,-215.68 327.91,-222.97 338.46,-222.06 335.59,-215.68"/>
</a>
</g>
</g>
<!-- Node16 -->
<g id="Node000016" class="node">
<title>Node16</title>
<g id="a_Node000016"><a xlink:href="Render_8hpp.html" target="_top" xlink:title=" ">
<polygon fill="white" stroke="#666666" points="629.75,-132 563.5,-132 563.5,-112 629.75,-112 629.75,-132"/>
<text text-anchor="middle" x="596.62" y="-118.5" font-family="Helvetica,sans-Serif" font-size="10.00">Render.hpp</text>
</a>
</g>
</g>
<!-- Node1&#45;&gt;Node16 -->
<g id="edge29_Node000001_Node000016" class="edge">
<title>Node1&#45;&gt;Node16</title>
<g id="a_edge29_Node000001_Node000016"><a xlink:title=" ">
<path fill="none" stroke="#63b8ff" d="M356.83,-233.58C438.21,-233.28 591.42,-227.35 625.62,-188 640.22,-171.21 619.95,-145.9 606.63,-132.35"/>
<polygon fill="#63b8ff" stroke="#63b8ff" points="356.87,-230.08 346.87,-233.58 356.88,-237.08 356.87,-230.08"/>
</a>
</g>
</g>
<!-- Node3 -->
<g id="Node000003" class="node">
<title>Node3</title>
<g id="a_Node000003"><a xlink:href="GameTypes_8cpp.html" target="_top" xlink:title=" ">
<polygon fill="white" stroke="#666666" points="509.25,-20 422,-20 422,0 509.25,0 509.25,-20"/>
<text text-anchor="middle" x="465.62" y="-6.5" font-family="Helvetica,sans-Serif" font-size="10.00">GameTypes.cpp</text>
</a>
</g>
</g>
<!-- Node2&#45;&gt;Node3 -->
<g id="edge2_Node000002_Node000003" class="edge">
<title>Node2&#45;&gt;Node3</title>
<g id="a_edge2_Node000002_Node000003"><a xlink:title=" ">
<path fill="none" stroke="#63b8ff" d="M325.46,-100.33C326.42,-86.26 329.91,-68.07 340.62,-56 352.38,-42.76 394.98,-29.22 427.21,-20.5"/>
<polygon fill="#63b8ff" stroke="#63b8ff" points="321.96,-100.2 325.19,-110.28 328.96,-100.38 321.96,-100.2"/>
</a>
</g>
</g>
<!-- Node4 -->
<g id="Node000004" class="node">
<title>Node4</title>
<g id="a_Node000004"><a xlink:href="GameTypes_8hpp.html" target="_top" xlink:title=" ">
<polygon fill="white" stroke="#666666" points="437.25,-76 350,-76 350,-56 437.25,-56 437.25,-76"/>
<text text-anchor="middle" x="393.62" y="-62.5" font-family="Helvetica,sans-Serif" font-size="10.00">GameTypes.hpp</text>
</a>
</g>
</g>
<!-- Node2&#45;&gt;Node4 -->
<g id="edge3_Node000002_Node000004" class="edge">
<title>Node2&#45;&gt;Node4</title>
<g id="a_edge3_Node000002_Node000004"><a xlink:title=" ">
<path fill="none" stroke="#63b8ff" d="M346.18,-104.68C357.88,-95.39 372.11,-84.09 381.92,-76.3"/>
<polygon fill="#63b8ff" stroke="#63b8ff" points="344.31,-101.69 338.65,-110.65 348.66,-107.17 344.31,-101.69"/>
</a>
</g>
</g>
<!-- Node6 -->
<g id="Node000006" class="node">
<title>Node6</title>
<g id="a_Node000006"><a xlink:href="Server_8hpp.html" target="_top" xlink:title=" ">
<polygon fill="white" stroke="#666666" points="163.25,-76 100,-76 100,-56 163.25,-56 163.25,-76"/>
<text text-anchor="middle" x="131.62" y="-62.5" font-family="Helvetica,sans-Serif" font-size="10.00">Server.hpp</text>
</a>
</g>
</g>
<!-- Node2&#45;&gt;Node6 -->
<g id="edge6_Node000002_Node000006" class="edge">
<title>Node2&#45;&gt;Node6</title>
<g id="a_edge6_Node000002_Node000006"><a xlink:title=" ">
<path fill="none" stroke="#63b8ff" d="M281.19,-108.63C245.35,-98.66 195.81,-84.87 163.74,-75.94"/>
<polygon fill="#63b8ff" stroke="#63b8ff" points="279.8,-111.88 290.37,-111.19 281.68,-105.13 279.8,-111.88"/>
</a>
</g>
</g>
<!-- Node4&#45;&gt;Node3 -->
<g id="edge4_Node000004_Node000003" class="edge">
<title>Node4&#45;&gt;Node3</title>
<g id="a_edge4_Node000004_Node000003"><a xlink:title=" ">
<path fill="none" stroke="#63b8ff" d="M415.02,-48.95C427.47,-39.61 442.74,-28.16 453.23,-20.3"/>
<polygon fill="#63b8ff" stroke="#63b8ff" points="413.28,-45.89 407.38,-54.69 417.48,-51.49 413.28,-45.89"/>
</a>
</g>
</g>
<!-- Node5 -->
<g id="Node000005" class="node">
<title>Node5</title>
<g id="a_Node000005"><a xlink:href="Client_2src_2main_8cpp.html" target="_top" xlink:title=" ">
<polygon fill="white" stroke="#666666" points="403.5,-20 347.75,-20 347.75,0 403.5,0 403.5,-20"/>
<text text-anchor="middle" x="375.62" y="-6.5" font-family="Helvetica,sans-Serif" font-size="10.00">main.cpp</text>
</a>
</g>
</g>
<!-- Node4&#45;&gt;Node5 -->
<g id="edge5_Node000004_Node000005" class="edge">
<title>Node4&#45;&gt;Node5</title>
<g id="a_edge5_Node000004_Node000005"><a xlink:title=" ">
<path fill="none" stroke="#63b8ff" d="M386.86,-44.71C384.07,-36.32 380.96,-27.01 378.72,-20.3"/>
<polygon fill="#63b8ff" stroke="#63b8ff" points="383.53,-45.78 390.01,-54.16 390.17,-43.56 383.53,-45.78"/>
</a>
</g>
</g>
<!-- Node6&#45;&gt;Node7 -->
<g id="edge7_Node000006_Node000007" class="edge">
<title>Node6&#45;&gt;Node7</title>
<g id="a_edge7_Node000006_Node000007"><a xlink:title=" ">
<path fill="none" stroke="#63b8ff" d="M104.49,-50.35C86.89,-40.84 64.47,-28.74 49.18,-20.48"/>
<polygon fill="#63b8ff" stroke="#63b8ff" points="102.41,-53.2 112.87,-54.87 105.74,-47.04 102.41,-53.2"/>
</a>
</g>
</g>
<!-- Node8 -->
<g id="Node000008" class="node">
<title>Node8</title>
<g id="a_Node000008"><a xlink:href="Server_2src_2main_8cpp.html" target="_top" xlink:title=" ">
<polygon fill="white" stroke="#666666" points="159.5,-20 103.75,-20 103.75,0 159.5,0 159.5,-20"/>
<text text-anchor="middle" x="131.62" y="-6.5" font-family="Helvetica,sans-Serif" font-size="10.00">main.cpp</text>
</a>
</g>
</g>
<!-- Node6&#45;&gt;Node8 -->
<g id="edge8_Node000006_Node000008" class="edge">
<title>Node6&#45;&gt;Node8</title>
<g id="a_edge8_Node000006_Node000008"><a xlink:title=" ">
<path fill="none" stroke="#63b8ff" d="M131.62,-44.13C131.62,-35.9 131.62,-26.85 131.62,-20.3"/>
<polygon fill="#63b8ff" stroke="#63b8ff" points="128.13,-44.08 131.63,-54.08 135.13,-44.08 128.13,-44.08"/>
</a>
</g>
</g>
<!-- Node9&#45;&gt;Node3 -->
<g id="edge10_Node000009_Node000003" class="edge">
<title>Node9&#45;&gt;Node3</title>
<g id="a_edge10_Node000009_Node000003"><a xlink:title=" ">
<path fill="none" stroke="#63b8ff" d="M666.82,-106.06C642.77,-92.38 605.75,-71.89 572.62,-56 544.64,-42.58 511.61,-29.02 489.72,-20.35"/>
<polygon fill="#63b8ff" stroke="#63b8ff" points="664.85,-108.97 675.27,-110.9 668.33,-102.9 664.85,-108.97"/>
</a>
</g>
</g>
<!-- Node9&#45;&gt;Node4 -->
<g id="edge11_Node000009_Node000004" class="edge">
<title>Node9&#45;&gt;Node4</title>
<g id="a_edge11_Node000009_Node000004"><a xlink:title=" ">
<path fill="none" stroke="#63b8ff" d="M636.78,-110.91C579.19,-100.51 490.57,-84.51 437.72,-74.96"/>
<polygon fill="#63b8ff" stroke="#63b8ff" points="635.91,-114.31 646.37,-112.65 637.15,-107.43 635.91,-114.31"/>
</a>
</g>
</g>
<!-- Node10&#45;&gt;Node3 -->
<g id="edge13_Node000010_Node000003" class="edge">
<title>Node10&#45;&gt;Node3</title>
<g id="a_edge13_Node000010_Node000003"><a xlink:title=" ">
<path fill="none" stroke="#63b8ff" d="M257.44,-104.27C274.49,-89.83 300.82,-69.26 326.62,-56 358.1,-39.83 396.54,-27.92 425.02,-20.43"/>
<polygon fill="#63b8ff" stroke="#63b8ff" points="255.41,-101.4 250.13,-110.59 259.98,-106.7 255.41,-101.4"/>
</a>
</g>
</g>
<!-- Node10&#45;&gt;Node4 -->
<g id="edge14_Node000010_Node000004" class="edge">
<title>Node10&#45;&gt;Node4</title>
<g id="a_edge14_Node000010_Node000004"><a xlink:title=" ">
<path fill="none" stroke="#63b8ff" d="M276.17,-107.92C304.03,-98.21 341.38,-85.2 366.42,-76.48"/>
<polygon fill="#63b8ff" stroke="#63b8ff" points="275.35,-104.5 267.05,-111.1 277.65,-111.11 275.35,-104.5"/>
</a>
</g>
</g>
<!-- Node10&#45;&gt;Node6 -->
<g id="edge15_Node000010_Node000006" class="edge">
<title>Node10&#45;&gt;Node6</title>
<g id="a_edge15_Node000010_Node000006"><a xlink:title=" ">
<path fill="none" stroke="#63b8ff" d="M209.85,-106.48C190.98,-96.96 166.85,-84.78 150.41,-76.48"/>
<polygon fill="#63b8ff" stroke="#63b8ff" points="208.13,-109.53 218.64,-110.91 211.29,-103.28 208.13,-109.53"/>
</a>
</g>
</g>
<!-- Node12&#45;&gt;Node3 -->
<g id="edge18_Node000012_Node000003" class="edge">
<title>Node12&#45;&gt;Node3</title>
<g id="a_edge18_Node000012_Node000003"><a xlink:title=" ">
<path fill="none" stroke="#63b8ff" d="M162.7,-106.94C194.6,-92.84 245.92,-71.12 291.62,-56 335.62,-41.45 387.12,-28.64 422.62,-20.44"/>
<polygon fill="#63b8ff" stroke="#63b8ff" points="161.36,-103.71 153.64,-110.97 164.2,-110.1 161.36,-103.71"/>
</a>
</g>
</g>
<!-- Node12&#45;&gt;Node4 -->
<g id="edge19_Node000012_Node000004" class="edge">
<title>Node12&#45;&gt;Node4</title>
<g id="a_edge19_Node000012_Node000004"><a xlink:title=" ">
<path fill="none" stroke="#63b8ff" d="M188.81,-109.21C237.27,-99.22 305.75,-85.11 349.92,-76.01"/>
<polygon fill="#63b8ff" stroke="#63b8ff" points="188.13,-105.78 179.04,-111.23 189.54,-112.64 188.13,-105.78"/>
</a>
</g>
</g>
<!-- Node12&#45;&gt;Node6 -->
<g id="edge20_Node000012_Node000006" class="edge">
<title>Node12&#45;&gt;Node6</title>
<g id="a_edge20_Node000012_Node000006"><a xlink:title=" ">
<path fill="none" stroke="#63b8ff" d="M131.62,-100.13C131.62,-91.9 131.62,-82.85 131.62,-76.3"/>
<polygon fill="#63b8ff" stroke="#63b8ff" points="128.13,-100.08 131.63,-110.08 135.13,-100.08 128.13,-100.08"/>
</a>
</g>
</g>
<!-- Node14&#45;&gt;Node3 -->
<g id="edge23_Node000014_Node000003" class="edge">
<title>Node14&#45;&gt;Node3</title>
<g id="a_edge23_Node000014_Node000003"><a xlink:title=" ">
<path fill="none" stroke="#63b8ff" d="M476.65,-163.4C492.2,-156.6 507.56,-146.6 516.62,-132 540.68,-93.27 496.02,-41.2 475.33,-20.28"/>
<polygon fill="#63b8ff" stroke="#63b8ff" points="475.38,-160.14 467.35,-167.05 477.93,-166.66 475.38,-160.14"/>
</a>
</g>
</g>
<!-- Node14&#45;&gt;Node4 -->
<g id="edge24_Node000014_Node000004" class="edge">
<title>Node14&#45;&gt;Node4</title>
<g id="a_edge24_Node000014_Node000004"><a xlink:title=" ">
<path fill="none" stroke="#63b8ff" d="M417.5,-157.24C414.48,-149.46 411.16,-140.39 408.62,-132 402.72,-112.49 397.84,-89.08 395.37,-76.36"/>
<polygon fill="#63b8ff" stroke="#63b8ff" points="414.21,-158.43 421.18,-166.41 420.71,-155.83 414.21,-158.43"/>
</a>
</g>
</g>
<!-- Node14&#45;&gt;Node6 -->
<g id="edge25_Node000014_Node000006" class="edge">
<title>Node14&#45;&gt;Node6</title>
<g id="a_edge25_Node000014_Node000006"><a xlink:title=" ">
<path fill="none" stroke="#63b8ff" d="M366.9,-167.97C284.9,-160.71 109.54,-180.32 66.62,-132 48.18,-111.24 84.84,-88.67 110.21,-76.34"/>
<polygon fill="#63b8ff" stroke="#63b8ff" points="366.46,-171.45 376.79,-169.08 367.24,-164.49 366.46,-171.45"/>
</a>
</g>
</g>
<!-- Node15 -->
<g id="Node000015" class="node">
<title>Node15</title>
<g id="a_Node000015"><a xlink:href="SoundPlayer_8hpp.html" target="_top" xlink:title=" ">
<polygon fill="white" stroke="#666666" points="507.75,-132 417.5,-132 417.5,-112 507.75,-112 507.75,-132"/>
<text text-anchor="middle" x="462.62" y="-118.5" font-family="Helvetica,sans-Serif" font-size="10.00">SoundPlayer.hpp</text>
</a>
</g>
</g>
<!-- Node14&#45;&gt;Node15 -->
<g id="edge26_Node000014_Node000015" class="edge">
<title>Node14&#45;&gt;Node15</title>
<g id="a_edge26_Node000014_Node000015"><a xlink:title=" ">
<path fill="none" stroke="#63b8ff" d="M438.54,-158.15C444.53,-149.4 451.39,-139.39 456.25,-132.3"/>
<polygon fill="#63b8ff" stroke="#63b8ff" points="435.69,-156.12 432.93,-166.35 441.47,-160.07 435.69,-156.12"/>
</a>
</g>
</g>
<!-- Node15&#45;&gt;Node3 -->
<g id="edge27_Node000015_Node000003" class="edge">
<title>Node15&#45;&gt;Node3</title>
<g id="a_edge27_Node000015_Node000003"><a xlink:title=" ">
<path fill="none" stroke="#63b8ff" d="M463.19,-100.31C463.84,-76.36 464.89,-37.95 465.37,-20.35"/>
<polygon fill="#63b8ff" stroke="#63b8ff" points="459.7,-100.02 462.92,-110.11 466.69,-100.21 459.7,-100.02"/>
</a>
</g>
</g>
<!-- Node15&#45;&gt;Node4 -->
<g id="edge28_Node000015_Node000004" class="edge">
<title>Node15&#45;&gt;Node4</title>
<g id="a_edge28_Node000015_Node000004"><a xlink:title=" ">
<path fill="none" stroke="#63b8ff" d="M441.77,-104.68C429.9,-95.39 415.46,-84.09 405.51,-76.3"/>
<polygon fill="#63b8ff" stroke="#63b8ff" points="439.38,-107.25 449.41,-110.66 443.7,-101.74 439.38,-107.25"/>
</a>
</g>
</g>
<!-- Node16&#45;&gt;Node3 -->
<g id="edge30_Node000016_Node000003" class="edge">
<title>Node16&#45;&gt;Node3</title>
<g id="a_edge30_Node000016_Node000003"><a xlink:title=" ">
<path fill="none" stroke="#63b8ff" d="M586.08,-101.98C577.61,-87.97 564.66,-69.15 549.62,-56 531.81,-40.43 507.69,-28.21 489.86,-20.46"/>
<polygon fill="#63b8ff" stroke="#63b8ff" points="582.84,-103.37 590.89,-110.27 588.9,-99.86 582.84,-103.37"/>
</a>
</g>
</g>
<!-- Node16&#45;&gt;Node4 -->
<g id="edge31_Node000016_Node000004" class="edge">
<title>Node16&#45;&gt;Node4</title>
<g id="a_edge31_Node000016_Node000004"><a xlink:title=" ">
<path fill="none" stroke="#63b8ff" d="M552.17,-109.17C515.26,-99.36 463.46,-85.58 429.25,-76.48"/>
<polygon fill="#63b8ff" stroke="#63b8ff" points="551.08,-112.51 561.64,-111.69 552.88,-105.74 551.08,-112.51"/>
</a>
</g>
</g>
</g>
</svg>
