<?xml version="1.0" encoding="UTF-8" standalone="no"?>
<!DOCTYPE svg PUBLIC "-//W3C//DTD SVG 1.1//EN"
 "http://www.w3.org/Graphics/SVG/1.1/DTD/svg11.dtd">
<!-- Generated by graphviz version 12.1.0 (20240811.2233)
 -->
<!-- Title: Transform.hpp Pages: 1 -->
<svg width="612pt" height="196pt"
 viewBox="0.00 0.00 611.62 196.00" xmlns="http://www.w3.org/2000/svg" xmlns:xlink="http://www.w3.org/1999/xlink">
<g id="graph0" class="graph" transform="scale(1 1) rotate(0) translate(4 192)">
<title>Transform.hpp</title>
<!-- Node1 -->
<g id="Node000001" class="node">
<title>Node1</title>
<g id="a_Node000001"><a xlink:title=" ">
<polygon fill="#999999" stroke="#666666" points="360.62,-188 281.62,-188 281.62,-168 360.62,-168 360.62,-188"/>
<text text-anchor="middle" x="321.12" y="-174.5" font-family="Helvetica,sans-Serif" font-size="10.00">Transform.hpp</text>
</a>
</g>
</g>
<!-- Node2 -->
<g id="Node000002" class="node">
<title>Node2</title>
<g id="a_Node000002"><a xlink:href="Collision_8hpp.html" target="_top" xlink:title=" ">
<polygon fill="white" stroke="#666666" points="268.25,-132 196,-132 196,-112 268.25,-112 268.25,-132"/>
<text text-anchor="middle" x="232.12" y="-118.5" font-family="Helvetica,sans-Serif" font-size="10.00">Collision.hpp</text>
</a>
</g>
</g>
<!-- Node1&#45;&gt;Node2 -->
<g id="edge1_Node000001_Node000002" class="edge">
<title>Node1&#45;&gt;Node2</title>
<g id="a_edge1_Node000001_Node000002"><a xlink:title=" ">
<path fill="none" stroke="#63b8ff" d="M296.09,-161.81C280.57,-152.39 261.1,-140.58 247.75,-132.48"/>
<polygon fill="#63b8ff" stroke="#63b8ff" points="293.96,-164.61 304.33,-166.81 297.59,-158.63 293.96,-164.61"/>
</a>
</g>
</g>
<!-- Node6 -->
<g id="Node000006" class="node">
<title>Node6</title>
<g id="a_Node000006"><a xlink:href="Server_2src_2main_8cpp.html" target="_top" xlink:title=" ">
<polygon fill="white" stroke="#666666" points="350,-76 294.25,-76 294.25,-56 350,-56 350,-76"/>
<text text-anchor="middle" x="322.12" y="-62.5" font-family="Helvetica,sans-Serif" font-size="10.00">main.cpp</text>
</a>
</g>
</g>
<!-- Node1&#45;&gt;Node6 -->
<g id="edge23_Node000001_Node000006" class="edge">
<title>Node1&#45;&gt;Node6</title>
<g id="a_edge23_Node000001_Node000006"><a xlink:title=" ">
<path fill="none" stroke="#63b8ff" d="M343.34,-160.61C351.85,-152.98 360.59,-143.11 365.12,-132 373.91,-110.45 351.48,-88.52 335.81,-76.44"/>
<polygon fill="#63b8ff" stroke="#63b8ff" points="341.39,-157.69 335.92,-166.76 345.85,-163.08 341.39,-157.69"/>
</a>
</g>
</g>
<!-- Node7 -->
<g id="Node000007" class="node">
<title>Node7</title>
<g id="a_Node000007"><a xlink:href="Enemy_8hpp.html" target="_top" xlink:title=" ">
<polygon fill="white" stroke="#666666" points="476.5,-132 411.75,-132 411.75,-112 476.5,-112 476.5,-132"/>
<text text-anchor="middle" x="444.12" y="-118.5" font-family="Helvetica,sans-Serif" font-size="10.00">Enemy.hpp</text>
</a>
</g>
</g>
<!-- Node1&#45;&gt;Node7 -->
<g id="edge7_Node000001_Node000007" class="edge">
<title>Node1&#45;&gt;Node7</title>
<g id="a_edge7_Node000001_Node000007"><a xlink:title=" ">
<path fill="none" stroke="#63b8ff" d="M352.99,-163.01C374.86,-153.41 403.28,-140.93 422.53,-132.48"/>
<polygon fill="#63b8ff" stroke="#63b8ff" points="351.69,-159.76 343.94,-166.99 354.5,-166.17 351.69,-159.76"/>
</a>
</g>
</g>
<!-- Node8 -->
<g id="Node000008" class="node">
<title>Node8</title>
<g id="a_Node000008"><a xlink:href="NetworkManager_8cpp.html" target="_top" xlink:title=" ">
<polygon fill="white" stroke="#666666" points="603.62,-132 494.62,-132 494.62,-112 603.62,-112 603.62,-132"/>
<text text-anchor="middle" x="549.12" y="-118.5" font-family="Helvetica,sans-Serif" font-size="10.00">NetworkManager.cpp</text>
</a>
</g>
</g>
<!-- Node1&#45;&gt;Node8 -->
<g id="edge11_Node000001_Node000008" class="edge">
<title>Node1&#45;&gt;Node8</title>
<g id="a_edge11_Node000001_Node000008"><a xlink:title=" ">
<path fill="none" stroke="#63b8ff" d="M372.05,-164.94C413.46,-155.13 471.07,-141.49 509.2,-132.46"/>
<polygon fill="#63b8ff" stroke="#63b8ff" points="371.5,-161.47 362.57,-167.18 373.11,-168.28 371.5,-161.47"/>
</a>
</g>
</g>
<!-- Node9 -->
<g id="Node000009" class="node">
<title>Node9</title>
<g id="a_Node000009"><a xlink:href="Physics_8hpp.html" target="_top" xlink:title=" ">
<polygon fill="white" stroke="#666666" points="356.12,-132 286.12,-132 286.12,-112 356.12,-112 356.12,-132"/>
<text text-anchor="middle" x="321.12" y="-118.5" font-family="Helvetica,sans-Serif" font-size="10.00">Physics.hpp</text>
</a>
</g>
</g>
<!-- Node1&#45;&gt;Node9 -->
<g id="edge12_Node000001_Node000009" class="edge">
<title>Node1&#45;&gt;Node9</title>
<g id="a_edge12_Node000001_Node000009"><a xlink:title=" ">
<path fill="none" stroke="#63b8ff" d="M321.12,-156.13C321.12,-147.9 321.12,-138.85 321.12,-132.3"/>
<polygon fill="#63b8ff" stroke="#63b8ff" points="317.63,-156.08 321.13,-166.08 324.63,-156.08 317.63,-156.08"/>
</a>
</g>
</g>
<!-- Node10 -->
<g id="Node000010" class="node">
<title>Node10</title>
<g id="a_Node000010"><a xlink:href="PlayerControl_8hpp.html" target="_top" xlink:title=" ">
<polygon fill="white" stroke="#666666" points="178.12,-132 84.12,-132 84.12,-112 178.12,-112 178.12,-132"/>
<text text-anchor="middle" x="131.12" y="-118.5" font-family="Helvetica,sans-Serif" font-size="10.00">PlayerControl.hpp</text>
</a>
</g>
</g>
<!-- Node1&#45;&gt;Node10 -->
<g id="edge16_Node000001_Node000010" class="edge">
<title>Node1&#45;&gt;Node10</title>
<g id="a_edge16_Node000001_Node000010"><a xlink:title=" ">
<path fill="none" stroke="#63b8ff" d="M277.35,-164.56C242.98,-154.79 195.84,-141.39 164.48,-132.48"/>
<polygon fill="#63b8ff" stroke="#63b8ff" points="276,-167.81 286.57,-167.18 277.91,-161.08 276,-167.81"/>
</a>
</g>
</g>
<!-- Node11 -->
<g id="Node000011" class="node">
<title>Node11</title>
<g id="a_Node000011"><a xlink:href="Render_8hpp.html" target="_top" xlink:title=" ">
<polygon fill="white" stroke="#666666" points="66.25,-132 0,-132 0,-112 66.25,-112 66.25,-132"/>
<text text-anchor="middle" x="33.12" y="-118.5" font-family="Helvetica,sans-Serif" font-size="10.00">Render.hpp</text>
</a>
</g>
</g>
<!-- Node1&#45;&gt;Node11 -->
<g id="edge20_Node000001_Node000011" class="edge">
<title>Node1&#45;&gt;Node11</title>
<g id="a_edge20_Node000001_Node000011"><a xlink:title=" ">
<path fill="none" stroke="#63b8ff" d="M270.33,-168.17C220.52,-159.4 142.49,-145.38 75.12,-132 72.35,-131.45 69.47,-130.86 66.58,-130.26"/>
<polygon fill="#63b8ff" stroke="#63b8ff" points="269.49,-171.57 279.94,-169.86 270.7,-164.68 269.49,-171.57"/>
</a>
</g>
</g>
<!-- Node3 -->
<g id="Node000003" class="node">
<title>Node3</title>
<g id="a_Node000003"><a xlink:href="GameTypes_8cpp.html" target="_top" xlink:title=" ">
<polygon fill="white" stroke="#666666" points="203.75,-20 116.5,-20 116.5,0 203.75,0 203.75,-20"/>
<text text-anchor="middle" x="160.12" y="-6.5" font-family="Helvetica,sans-Serif" font-size="10.00">GameTypes.cpp</text>
</a>
</g>
</g>
<!-- Node2&#45;&gt;Node3 -->
<g id="edge2_Node000002_Node000003" class="edge">
<title>Node2&#45;&gt;Node3</title>
<g id="a_edge2_Node000002_Node000003"><a xlink:title=" ">
<path fill="none" stroke="#63b8ff" d="M207.71,-105.1C197.58,-97.4 186.49,-87.36 179.12,-76 167.61,-58.25 162.89,-33.32 161.11,-20.09"/>
<polygon fill="#63b8ff" stroke="#63b8ff" points="205.58,-107.88 215.75,-110.85 209.65,-102.19 205.58,-107.88"/>
</a>
</g>
</g>
<!-- Node4 -->
<g id="Node000004" class="node">
<title>Node4</title>
<g id="a_Node000004"><a xlink:href="GameTypes_8hpp.html" target="_top" xlink:title=" ">
<polygon fill="white" stroke="#666666" points="275.75,-76 188.5,-76 188.5,-56 275.75,-56 275.75,-76"/>
<text text-anchor="middle" x="232.12" y="-62.5" font-family="Helvetica,sans-Serif" font-size="10.00">GameTypes.hpp</text>
</a>
</g>
</g>
<!-- Node2&#45;&gt;Node4 -->
<g id="edge3_Node000002_Node000004" class="edge">
<title>Node2&#45;&gt;Node4</title>
<g id="a_edge3_Node000002_Node000004"><a xlink:title=" ">
<path fill="none" stroke="#63b8ff" d="M232.12,-100.13C232.12,-91.9 232.12,-82.85 232.12,-76.3"/>
<polygon fill="#63b8ff" stroke="#63b8ff" points="228.63,-100.08 232.13,-110.08 235.63,-100.08 228.63,-100.08"/>
</a>
</g>
</g>
<!-- Node2&#45;&gt;Node6 -->
<g id="edge6_Node000002_Node000006" class="edge">
<title>Node2&#45;&gt;Node6</title>
<g id="a_edge6_Node000002_Node000006"><a xlink:title=" ">
<path fill="none" stroke="#63b8ff" d="M257.44,-105.81C273.14,-96.39 292.82,-84.58 306.33,-76.48"/>
<polygon fill="#63b8ff" stroke="#63b8ff" points="255.87,-102.67 249.1,-110.82 259.48,-108.67 255.87,-102.67"/>
</a>
</g>
</g>
<!-- Node4&#45;&gt;Node3 -->
<g id="edge4_Node000004_Node000003" class="edge">
<title>Node4&#45;&gt;Node3</title>
<g id="a_edge4_Node000004_Node000003"><a xlink:title=" ">
<path fill="none" stroke="#63b8ff" d="M210.73,-48.95C198.28,-39.61 183.01,-28.16 172.52,-20.3"/>
<polygon fill="#63b8ff" stroke="#63b8ff" points="208.27,-51.49 218.37,-54.69 212.47,-45.89 208.27,-51.49"/>
</a>
</g>
</g>
<!-- Node5 -->
<g id="Node000005" class="node">
<title>Node5</title>
<g id="a_Node000005"><a xlink:href="Client_2src_2main_8cpp.html" target="_top" xlink:title=" ">
<polygon fill="white" stroke="#666666" points="278,-20 222.25,-20 222.25,0 278,0 278,-20"/>
<text text-anchor="middle" x="250.12" y="-6.5" font-family="Helvetica,sans-Serif" font-size="10.00">main.cpp</text>
</a>
</g>
</g>
<!-- Node4&#45;&gt;Node5 -->
<g id="edge5_Node000004_Node000005" class="edge">
<title>Node4&#45;&gt;Node5</title>
<g id="a_edge5_Node000004_Node000005"><a xlink:title=" ">
<path fill="none" stroke="#63b8ff" d="M238.89,-44.71C241.68,-36.32 244.79,-27.01 247.03,-20.3"/>
<polygon fill="#63b8ff" stroke="#63b8ff" points="235.58,-43.56 235.74,-54.16 242.22,-45.78 235.58,-43.56"/>
</a>
</g>
</g>
<!-- Node7&#45;&gt;Node3 -->
<g id="edge8_Node000007_Node000003" class="edge">
<title>Node7&#45;&gt;Node3</title>
<g id="a_edge8_Node000007_Node000003"><a xlink:title=" ">
<path fill="none" stroke="#63b8ff" d="M429.93,-102.95C417.19,-88.03 397.15,-67.49 375.12,-56 360.12,-48.17 262.56,-29.57 204.14,-18.89"/>
<polygon fill="#63b8ff" stroke="#63b8ff" points="427.18,-105.12 436.23,-110.62 432.59,-100.67 427.18,-105.12"/>
</a>
</g>
</g>
<!-- Node7&#45;&gt;Node4 -->
<g id="edge9_Node000007_Node000004" class="edge">
<title>Node7&#45;&gt;Node4</title>
<g id="a_edge9_Node000007_Node000004"><a xlink:title=" ">
<path fill="none" stroke="#63b8ff" d="M400.53,-109.89C361.76,-100.02 305.72,-85.74 269.1,-76.42"/>
<polygon fill="#63b8ff" stroke="#63b8ff" points="399.44,-113.23 410,-112.31 401.17,-106.45 399.44,-113.23"/>
</a>
</g>
</g>
<!-- Node7&#45;&gt;Node6 -->
<g id="edge10_Node000007_Node000006" class="edge">
<title>Node7&#45;&gt;Node6</title>
<g id="a_edge10_Node000007_Node000006"><a xlink:title=" ">
<path fill="none" stroke="#63b8ff" d="M412.52,-107.01C390.83,-97.41 362.63,-84.93 343.54,-76.48"/>
<polygon fill="#63b8ff" stroke="#63b8ff" points="410.93,-110.13 421.49,-110.98 413.76,-103.73 410.93,-110.13"/>
</a>
</g>
</g>
<!-- Node9&#45;&gt;Node3 -->
<g id="edge13_Node000009_Node000003" class="edge">
<title>Node9&#45;&gt;Node3</title>
<g id="a_edge13_Node000009_Node000003"><a xlink:title=" ">
<path fill="none" stroke="#63b8ff" d="M341.92,-104.34C356.46,-90.69 371.27,-71.19 359.12,-56 354.23,-49.88 260.98,-30.71 203.88,-19.46"/>
<polygon fill="#63b8ff" stroke="#63b8ff" points="339.96,-101.42 334.74,-110.64 344.57,-106.68 339.96,-101.42"/>
</a>
</g>
</g>
<!-- Node9&#45;&gt;Node4 -->
<g id="edge14_Node000009_Node000004" class="edge">
<title>Node9&#45;&gt;Node4</title>
<g id="a_edge14_Node000009_Node000004"><a xlink:title=" ">
<path fill="none" stroke="#63b8ff" d="M296.09,-105.81C280.57,-96.39 261.1,-84.58 247.75,-76.48"/>
<polygon fill="#63b8ff" stroke="#63b8ff" points="293.96,-108.61 304.33,-110.81 297.59,-102.63 293.96,-108.61"/>
</a>
</g>
</g>
<!-- Node9&#45;&gt;Node6 -->
<g id="edge15_Node000009_Node000006" class="edge">
<title>Node9&#45;&gt;Node6</title>
<g id="a_edge15_Node000009_Node000006"><a xlink:title=" ">
<path fill="none" stroke="#63b8ff" d="M321.51,-100.13C321.66,-91.9 321.83,-82.85 321.95,-76.3"/>
<polygon fill="#63b8ff" stroke="#63b8ff" points="318.01,-100.02 321.33,-110.08 325.01,-100.15 318.01,-100.02"/>
</a>
</g>
</g>
<!-- Node10&#45;&gt;Node3 -->
<g id="edge17_Node000010_Node000003" class="edge">
<title>Node10&#45;&gt;Node3</title>
<g id="a_edge17_Node000010_Node000003"><a xlink:title=" ">
<path fill="none" stroke="#63b8ff" d="M135.38,-100.81C138.19,-87.93 142.09,-70.91 146.12,-56 149.5,-43.52 154.04,-29.3 157.03,-20.25"/>
<polygon fill="#63b8ff" stroke="#63b8ff" points="132.04,-99.7 133.36,-110.21 138.88,-101.16 132.04,-99.7"/>
</a>
</g>
</g>
<!-- Node10&#45;&gt;Node4 -->
<g id="edge18_Node000010_Node000004" class="edge">
<title>Node10&#45;&gt;Node4</title>
<g id="a_edge18_Node000010_Node000004"><a xlink:title=" ">
<path fill="none" stroke="#63b8ff" d="M158.53,-106.35C176.31,-96.84 198.95,-84.74 214.39,-76.48"/>
<polygon fill="#63b8ff" stroke="#63b8ff" points="157.22,-103.08 150.05,-110.88 160.52,-109.25 157.22,-103.08"/>
</a>
</g>
</g>
<!-- Node10&#45;&gt;Node6 -->
<g id="edge19_Node000010_Node000006" class="edge">
<title>Node10&#45;&gt;Node6</title>
<g id="a_edge19_Node000010_Node000006"><a xlink:title=" ">
<path fill="none" stroke="#63b8ff" d="M175.24,-108.53C211.78,-98.2 262.62,-83.82 293.9,-74.98"/>
<polygon fill="#63b8ff" stroke="#63b8ff" points="174.52,-105.09 165.85,-111.18 176.43,-111.83 174.52,-105.09"/>
</a>
</g>
</g>
<!-- Node11&#45;&gt;Node3 -->
<g id="edge21_Node000011_Node000003" class="edge">
<title>Node11&#45;&gt;Node3</title>
<g id="a_edge21_Node000011_Node000003"><a xlink:title=" ">
<path fill="none" stroke="#63b8ff" d="M52.58,-104.15C79.68,-80.67 127.88,-38.93 149.32,-20.35"/>
<polygon fill="#63b8ff" stroke="#63b8ff" points="50.36,-101.44 45.1,-110.63 54.95,-106.73 50.36,-101.44"/>
</a>
</g>
</g>
<!-- Node11&#45;&gt;Node4 -->
<g id="edge22_Node000011_Node000004" class="edge">
<title>Node11&#45;&gt;Node4</title>
<g id="a_edge22_Node000011_Node000004"><a xlink:title=" ">
<path fill="none" stroke="#63b8ff" d="M77.17,-109.05C113.38,-99.22 163.97,-85.49 197.37,-76.43"/>
<polygon fill="#63b8ff" stroke="#63b8ff" points="76.63,-105.57 67.89,-111.57 78.46,-112.32 76.63,-105.57"/>
</a>
</g>
</g>
</g>
</svg>
