<?xml version="1.0" encoding="UTF-8" standalone="no"?>
<!DOCTYPE svg PUBLIC "-//W3C//DTD SVG 1.1//EN"
 "http://www.w3.org/Graphics/SVG/1.1/DTD/svg11.dtd">
<!-- Generated by graphviz version 12.1.0 (20240811.2233)
 -->
<!-- Title: Transform.hpp Pages: 1 -->
<svg width="274pt" height="140pt"
 viewBox="0.00 0.00 274.12 140.00" xmlns="http://www.w3.org/2000/svg" xmlns:xlink="http://www.w3.org/1999/xlink">
<g id="graph0" class="graph" transform="scale(1 1) rotate(0) translate(4 136)">
<title>Transform.hpp</title>
<!-- Node1 -->
<g id="Node000001" class="node">
<title>Node1</title>
<g id="a_Node000001"><a xlink:title=" ">
<polygon fill="#999999" stroke="#666666" points="174.5,-132 95.5,-132 95.5,-112 174.5,-112 174.5,-132"/>
<text text-anchor="middle" x="135" y="-118.5" font-family="Helvetica,sans-Serif" font-size="10.00">Transform.hpp</text>
</a>
</g>
</g>
<!-- Node2 -->
<g id="Node000002" class="node">
<title>Node2</title>
<g id="a_Node000002"><a xlink:href="Physics_8hpp.html" target="_top" xlink:title=" ">
<polygon fill="white" stroke="#666666" points="70,-76 0,-76 0,-56 70,-56 70,-76"/>
<text text-anchor="middle" x="35" y="-62.5" font-family="Helvetica,sans-Serif" font-size="10.00">Physics.hpp</text>
</a>
</g>
</g>
<!-- Node1&#45;&gt;Node2 -->
<g id="edge1_Node000001_Node000002" class="edge">
<title>Node1&#45;&gt;Node2</title>
<g id="a_edge1_Node000001_Node000002"><a xlink:title=" ">
<path fill="none" stroke="#63b8ff" d="M107.87,-106.35C90.26,-96.84 67.85,-84.74 52.55,-76.48"/>
<polygon fill="#63b8ff" stroke="#63b8ff" points="105.79,-109.2 116.25,-110.87 109.11,-103.04 105.79,-109.2"/>
</a>
</g>
</g>
<!-- Node4 -->
<g id="Node000004" class="node">
<title>Node4</title>
<g id="a_Node000004"><a xlink:href="PlayerControl_8hpp.html" target="_top" xlink:title=" ">
<polygon fill="white" stroke="#666666" points="182,-76 88,-76 88,-56 182,-56 182,-76"/>
<text text-anchor="middle" x="135" y="-62.5" font-family="Helvetica,sans-Serif" font-size="10.00">PlayerControl.hpp</text>
</a>
</g>
</g>
<!-- Node1&#45;&gt;Node4 -->
<g id="edge3_Node000001_Node000004" class="edge">
<title>Node1&#45;&gt;Node4</title>
<g id="a_edge3_Node000001_Node000004"><a xlink:title=" ">
<path fill="none" stroke="#63b8ff" d="M135,-100.13C135,-91.9 135,-82.85 135,-76.3"/>
<polygon fill="#63b8ff" stroke="#63b8ff" points="131.5,-100.08 135,-110.08 138.5,-100.08 131.5,-100.08"/>
</a>
</g>
</g>
<!-- Node5 -->
<g id="Node000005" class="node">
<title>Node5</title>
<g id="a_Node000005"><a xlink:href="Render_8hpp.html" target="_top" xlink:title=" ">
<polygon fill="white" stroke="#666666" points="266.12,-76 199.88,-76 199.88,-56 266.12,-56 266.12,-76"/>
<text text-anchor="middle" x="233" y="-62.5" font-family="Helvetica,sans-Serif" font-size="10.00">Render.hpp</text>
</a>
</g>
</g>
<!-- Node1&#45;&gt;Node5 -->
<g id="edge5_Node000001_Node000005" class="edge">
<title>Node1&#45;&gt;Node5</title>
<g id="a_edge5_Node000001_Node000005"><a xlink:title=" ">
<path fill="none" stroke="#63b8ff" d="M162.08,-106.08C179.25,-96.62 200.95,-84.66 215.8,-76.48"/>
<polygon fill="#63b8ff" stroke="#63b8ff" points="160.47,-102.97 153.4,-110.86 163.84,-109.1 160.47,-102.97"/>
</a>
</g>
</g>
<!-- Node3 -->
<g id="Node000003" class="node">
<title>Node3</title>
<g id="a_Node000003"><a xlink:href="GameTypes_8cpp.html" target="_top" xlink:title=" ">
<polygon fill="white" stroke="#666666" points="178.62,-20 91.38,-20 91.38,0 178.62,0 178.62,-20"/>
<text text-anchor="middle" x="135" y="-6.5" font-family="Helvetica,sans-Serif" font-size="10.00">GameTypes.cpp</text>
</a>
</g>
</g>
<!-- Node2&#45;&gt;Node3 -->
<g id="edge2_Node000002_Node000003" class="edge">
<title>Node2&#45;&gt;Node3</title>
<g id="a_edge2_Node000002_Node000003"><a xlink:title=" ">
<path fill="none" stroke="#63b8ff" d="M62.13,-50.35C79.74,-40.84 102.15,-28.74 117.45,-20.48"/>
<polygon fill="#63b8ff" stroke="#63b8ff" points="60.89,-47.04 53.75,-54.87 64.21,-53.2 60.89,-47.04"/>
</a>
</g>
</g>
<!-- Node4&#45;&gt;Node3 -->
<g id="edge4_Node000004_Node000003" class="edge">
<title>Node4&#45;&gt;Node3</title>
<g id="a_edge4_Node000004_Node000003"><a xlink:title=" ">
<path fill="none" stroke="#63b8ff" d="M135,-44.13C135,-35.9 135,-26.85 135,-20.3"/>
<polygon fill="#63b8ff" stroke="#63b8ff" points="131.5,-44.08 135,-54.08 138.5,-44.08 131.5,-44.08"/>
</a>
</g>
</g>
<!-- Node5&#45;&gt;Node3 -->
<g id="edge6_Node000005_Node000003" class="edge">
<title>Node5&#45;&gt;Node3</title>
<g id="a_edge6_Node000005_Node000003"><a xlink:title=" ">
<path fill="none" stroke="#63b8ff" d="M205.92,-50.08C188.75,-40.62 167.05,-28.66 152.2,-20.48"/>
<polygon fill="#63b8ff" stroke="#63b8ff" points="204.16,-53.1 214.6,-54.86 207.53,-46.97 204.16,-53.1"/>
</a>
</g>
</g>
</g>
</svg>
