<?xml version="1.0" encoding="UTF-8" standalone="no"?>
<!DOCTYPE svg PUBLIC "-//W3C//DTD SVG 1.1//EN"
 "http://www.w3.org/Graphics/SVG/1.1/DTD/svg11.dtd">
<!-- Generated by graphviz version 12.1.0 (20240811.2233)
 -->
<!-- Title: UdpServer.hpp Pages: 1 -->
<svg width="818pt" height="252pt"
 viewBox="0.00 0.00 817.50 252.00" xmlns="http://www.w3.org/2000/svg" xmlns:xlink="http://www.w3.org/1999/xlink">
<g id="graph0" class="graph" transform="scale(1 1) rotate(0) translate(4 248)">
<title>UdpServer.hpp</title>
<!-- Node1 -->
<g id="Node000001" class="node">
<title>Node1</title>
<g id="a_Node000001"><a xlink:title=" ">
<polygon fill="#999999" stroke="#666666" points="612.25,-244 531,-244 531,-224 612.25,-224 612.25,-244"/>
<text text-anchor="middle" x="571.62" y="-230.5" font-family="Helvetica,sans-Serif" font-size="10.00">UdpServer.hpp</text>
</a>
</g>
</g>
<!-- Node2 -->
<g id="Node000002" class="node">
<title>Node2</title>
<g id="a_Node000002"><a xlink:title=" ">
<polygon fill="#e0e0e0" stroke="#999999" points="517.5,-20 437.75,-20 437.75,0 517.5,0 517.5,-20"/>
<text text-anchor="middle" x="477.62" y="-6.5" font-family="Helvetica,sans-Serif" font-size="10.00">boost/asio.hpp</text>
</a>
</g>
</g>
<!-- Node1&#45;&gt;Node2 -->
<g id="edge1_Node000001_Node000002" class="edge">
<title>Node1&#45;&gt;Node2</title>
<g id="a_edge1_Node000001_Node000002"><a xlink:title=" ">
<path fill="none" stroke="#63b8ff" d="M571.66,-223.79C571.42,-203.01 569.08,-151.22 552.62,-112 538.9,-79.29 512.4,-47.43 494.86,-28.51"/>
<polygon fill="#63b8ff" stroke="#63b8ff" points="497.54,-26.24 488.11,-21.41 492.46,-31.07 497.54,-26.24"/>
</a>
</g>
</g>
<!-- Node3 -->
<g id="Node000003" class="node">
<title>Node3</title>
<g id="a_Node000003"><a xlink:title=" ">
<polygon fill="#e0e0e0" stroke="#999999" points="809.5,-188 771.75,-188 771.75,-168 809.5,-168 809.5,-188"/>
<text text-anchor="middle" x="790.62" y="-174.5" font-family="Helvetica,sans-Serif" font-size="10.00">array</text>
</a>
</g>
</g>
<!-- Node1&#45;&gt;Node3 -->
<g id="edge2_Node000001_Node000003" class="edge">
<title>Node1&#45;&gt;Node3</title>
<g id="a_edge2_Node000001_Node000003"><a xlink:title=" ">
<path fill="none" stroke="#63b8ff" d="M612.35,-223.51C650.09,-214.62 707.75,-200.83 757.62,-188 758.61,-187.75 759.6,-187.49 760.61,-187.23"/>
<polygon fill="#63b8ff" stroke="#63b8ff" points="761.23,-190.68 769.99,-184.72 759.43,-183.92 761.23,-190.68"/>
</a>
</g>
</g>
<!-- Node4 -->
<g id="Node000004" class="node">
<title>Node4</title>
<g id="a_Node000004"><a xlink:title=" ">
<polygon fill="#e0e0e0" stroke="#999999" points="544,-132 461.25,-132 461.25,-112 544,-112 544,-132"/>
<text text-anchor="middle" x="502.62" y="-118.5" font-family="Helvetica,sans-Serif" font-size="10.00">unordered_map</text>
</a>
</g>
</g>
<!-- Node1&#45;&gt;Node4 -->
<g id="edge3_Node000001_Node000004" class="edge">
<title>Node1&#45;&gt;Node4</title>
<g id="a_edge3_Node000001_Node000004"><a xlink:title=" ">
<path fill="none" stroke="#63b8ff" d="M565.74,-223.62C554.44,-205.6 529.48,-165.81 514.56,-142.02"/>
<polygon fill="#63b8ff" stroke="#63b8ff" points="517.58,-140.25 509.3,-133.64 511.65,-143.97 517.58,-140.25"/>
</a>
</g>
</g>
<!-- Node5 -->
<g id="Node000005" class="node">
<title>Node5</title>
<g id="a_Node000005"><a xlink:title=" ">
<polygon fill="#e0e0e0" stroke="#999999" points="307.62,-20 267.62,-20 267.62,0 307.62,0 307.62,-20"/>
<text text-anchor="middle" x="287.62" y="-6.5" font-family="Helvetica,sans-Serif" font-size="10.00">string</text>
</a>
</g>
</g>
<!-- Node1&#45;&gt;Node5 -->
<g id="edge4_Node000001_Node000005" class="edge">
<title>Node1&#45;&gt;Node5</title>
<g id="a_edge4_Node000001_Node000005"><a xlink:title=" ">
<path fill="none" stroke="#63b8ff" d="M530.51,-228.74C440.83,-218.45 232.8,-188.8 196.62,-132 186.54,-116.17 192.84,-75.3 206.62,-56 218.78,-38.98 239.48,-27.64 256.91,-20.6"/>
<polygon fill="#63b8ff" stroke="#63b8ff" points="257.67,-24.06 265.82,-17.29 255.23,-17.5 257.67,-24.06"/>
</a>
</g>
</g>
<!-- Node6 -->
<g id="Node000006" class="node">
<title>Node6</title>
<g id="a_Node000006"><a xlink:title=" ">
<polygon fill="#e0e0e0" stroke="#999999" points="744.25,-20 699,-20 699,0 744.25,0 744.25,-20"/>
<text text-anchor="middle" x="721.62" y="-6.5" font-family="Helvetica,sans-Serif" font-size="10.00">chrono</text>
</a>
</g>
</g>
<!-- Node1&#45;&gt;Node6 -->
<g id="edge5_Node000001_Node000006" class="edge">
<title>Node1&#45;&gt;Node6</title>
<g id="a_edge5_Node000001_Node000006"><a xlink:title=" ">
<path fill="none" stroke="#63b8ff" d="M585.65,-223.81C597.73,-215.45 615.13,-202.26 627.62,-188 670.92,-138.62 701.47,-65.84 714.53,-31"/>
<polygon fill="#63b8ff" stroke="#63b8ff" points="717.76,-32.38 717.9,-21.79 711.18,-29.98 717.76,-32.38"/>
</a>
</g>
</g>
<!-- Node7 -->
<g id="Node000007" class="node">
<title>Node7</title>
<g id="a_Node000007"><a xlink:title=" ">
<polygon fill="#e0e0e0" stroke="#999999" points="638.25,-20 587,-20 587,0 638.25,0 638.25,-20"/>
<text text-anchor="middle" x="612.62" y="-6.5" font-family="Helvetica,sans-Serif" font-size="10.00">memory</text>
</a>
</g>
</g>
<!-- Node1&#45;&gt;Node7 -->
<g id="edge6_Node000001_Node000007" class="edge">
<title>Node1&#45;&gt;Node7</title>
<g id="a_edge6_Node000001_Node000007"><a xlink:title=" ">
<path fill="none" stroke="#63b8ff" d="M579.81,-223.59C599.31,-200.46 648.12,-138.16 664.62,-76 666.91,-67.41 668.32,-64.08 664.62,-56 659.25,-44.23 649.1,-34.36 639.19,-26.9"/>
<polygon fill="#63b8ff" stroke="#63b8ff" points="641.39,-24.16 631.17,-21.35 637.41,-29.91 641.39,-24.16"/>
</a>
</g>
</g>
<!-- Node8 -->
<g id="Node000008" class="node">
<title>Node8</title>
<g id="a_Node000008"><a xlink:href="Server_2src_2net_2Protocol_8hpp.html" target="_top" xlink:title=" ">
<polygon fill="white" stroke="#666666" points="150,-132 79.25,-132 79.25,-112 150,-112 150,-132"/>
<text text-anchor="middle" x="114.62" y="-118.5" font-family="Helvetica,sans-Serif" font-size="10.00">Protocol.hpp</text>
</a>
</g>
</g>
<!-- Node1&#45;&gt;Node8 -->
<g id="edge7_Node000001_Node000008" class="edge">
<title>Node1&#45;&gt;Node8</title>
<g id="a_edge7_Node000001_Node000008"><a xlink:title=" ">
<path fill="none" stroke="#63b8ff" d="M530.83,-232.55C440.28,-230.9 225.64,-223.29 163.62,-188 145.44,-177.65 131.9,-157.53 123.71,-142.4"/>
<polygon fill="#63b8ff" stroke="#63b8ff" points="127.02,-141.19 119.39,-133.83 120.77,-144.34 127.02,-141.19"/>
</a>
</g>
</g>
<!-- Node12 -->
<g id="Node000012" class="node">
<title>Node12</title>
<g id="a_Node000012"><a xlink:href="ClientSession_8hpp.html" target="_top" xlink:title=" ">
<polygon fill="white" stroke="#666666" points="639.38,-76 543.88,-76 543.88,-56 639.38,-56 639.38,-76"/>
<text text-anchor="middle" x="591.62" y="-62.5" font-family="Helvetica,sans-Serif" font-size="10.00">ClientSession.hpp</text>
</a>
</g>
</g>
<!-- Node1&#45;&gt;Node12 -->
<g id="edge12_Node000001_Node000012" class="edge">
<title>Node1&#45;&gt;Node12</title>
<g id="a_edge12_Node000001_Node000012"><a xlink:title=" ">
<path fill="none" stroke="#63b8ff" d="M575.34,-223.52C578.68,-214.53 583.4,-200.57 585.62,-188 591.82,-153.07 592.46,-111.63 592.17,-87.44"/>
<polygon fill="#63b8ff" stroke="#63b8ff" points="595.67,-87.64 591.98,-77.71 588.68,-87.77 595.67,-87.64"/>
</a>
</g>
</g>
<!-- Node13 -->
<g id="Node000013" class="node">
<title>Node13</title>
<g id="a_Node000013"><a xlink:href="RoomManager_8hpp.html" target="_top" xlink:title=" ">
<polygon fill="white" stroke="#666666" points="423.88,-188 325.38,-188 325.38,-168 423.88,-168 423.88,-188"/>
<text text-anchor="middle" x="374.62" y="-174.5" font-family="Helvetica,sans-Serif" font-size="10.00">RoomManager.hpp</text>
</a>
</g>
</g>
<!-- Node1&#45;&gt;Node13 -->
<g id="edge17_Node000001_Node000013" class="edge">
<title>Node1&#45;&gt;Node13</title>
<g id="a_edge17_Node000001_Node000013"><a xlink:title=" ">
<path fill="none" stroke="#63b8ff" d="M537.31,-223.59C504.88,-214.71 456.01,-201.31 420.3,-191.52"/>
<polygon fill="#63b8ff" stroke="#63b8ff" points="421.24,-188.15 410.67,-188.88 419.39,-194.9 421.24,-188.15"/>
</a>
</g>
</g>
<!-- Node8&#45;&gt;Node5 -->
<g id="edge11_Node000008_Node000005" class="edge">
<title>Node8&#45;&gt;Node5</title>
<g id="a_edge11_Node000008_Node000005"><a xlink:title=" ">
<path fill="none" stroke="#63b8ff" d="M119.36,-111.68C126.9,-97.69 142.94,-71.29 163.62,-56 191.54,-35.37 229.87,-23.39 256.49,-17.06"/>
<polygon fill="#63b8ff" stroke="#63b8ff" points="257,-20.53 265.99,-14.93 255.47,-13.7 257,-20.53"/>
</a>
</g>
</g>
<!-- Node9 -->
<g id="Node000009" class="node">
<title>Node9</title>
<g id="a_Node000009"><a xlink:title=" ">
<polygon fill="#e0e0e0" stroke="#999999" points="45.25,-76 0,-76 0,-56 45.25,-56 45.25,-76"/>
<text text-anchor="middle" x="22.62" y="-62.5" font-family="Helvetica,sans-Serif" font-size="10.00">cstdint</text>
</a>
</g>
</g>
<!-- Node8&#45;&gt;Node9 -->
<g id="edge8_Node000008_Node000009" class="edge">
<title>Node8&#45;&gt;Node9</title>
<g id="a_edge8_Node000008_Node000009"><a xlink:title=" ">
<path fill="none" stroke="#63b8ff" d="M98.6,-111.59C84.83,-103.51 64.72,-91.71 48.65,-82.27"/>
<polygon fill="#63b8ff" stroke="#63b8ff" points="50.48,-79.29 40.08,-77.25 46.93,-85.33 50.48,-79.29"/>
</a>
</g>
</g>
<!-- Node10 -->
<g id="Node000010" class="node">
<title>Node10</title>
<g id="a_Node000010"><a xlink:title=" ">
<polygon fill="#e0e0e0" stroke="#999999" points="111.75,-76 63.5,-76 63.5,-56 111.75,-56 111.75,-76"/>
<text text-anchor="middle" x="87.62" y="-62.5" font-family="Helvetica,sans-Serif" font-size="10.00">cstddef</text>
</a>
</g>
</g>
<!-- Node8&#45;&gt;Node10 -->
<g id="edge9_Node000008_Node000010" class="edge">
<title>Node8&#45;&gt;Node10</title>
<g id="a_edge9_Node000008_Node000010"><a xlink:title=" ">
<path fill="none" stroke="#63b8ff" d="M109.92,-111.59C106.48,-104.7 101.68,-95.1 97.41,-86.57"/>
<polygon fill="#63b8ff" stroke="#63b8ff" points="100.55,-85.03 92.95,-77.65 94.29,-88.16 100.55,-85.03"/>
</a>
</g>
</g>
<!-- Node11 -->
<g id="Node000011" class="node">
<title>Node11</title>
<g id="a_Node000011"><a xlink:title=" ">
<polygon fill="#e0e0e0" stroke="#999999" points="259.12,-76 216.12,-76 216.12,-56 259.12,-56 259.12,-76"/>
<text text-anchor="middle" x="237.62" y="-62.5" font-family="Helvetica,sans-Serif" font-size="10.00">vector</text>
</a>
</g>
</g>
<!-- Node8&#45;&gt;Node11 -->
<g id="edge10_Node000008_Node000011" class="edge">
<title>Node8&#45;&gt;Node11</title>
<g id="a_edge10_Node000008_Node000011"><a xlink:title=" ">
<path fill="none" stroke="#63b8ff" d="M136.05,-111.59C155.25,-103.17 183.67,-90.69 205.57,-81.07"/>
<polygon fill="#63b8ff" stroke="#63b8ff" points="206.9,-84.31 214.65,-77.09 204.08,-77.9 206.9,-84.31"/>
</a>
</g>
</g>
<!-- Node12&#45;&gt;Node2 -->
<g id="edge13_Node000012_Node000002" class="edge">
<title>Node12&#45;&gt;Node2</title>
<g id="a_edge13_Node000012_Node000002"><a xlink:title=" ">
<path fill="none" stroke="#63b8ff" d="M571.77,-55.59C554.14,-47.24 528.12,-34.92 507.9,-25.34"/>
<polygon fill="#63b8ff" stroke="#63b8ff" points="509.54,-22.25 499.01,-21.13 506.54,-28.57 509.54,-22.25"/>
</a>
</g>
</g>
<!-- Node12&#45;&gt;Node5 -->
<g id="edge15_Node000012_Node000005" class="edge">
<title>Node12&#45;&gt;Node5</title>
<g id="a_edge15_Node000012_Node000005"><a xlink:title=" ">
<path fill="none" stroke="#63b8ff" d="M543.46,-56.44C480.57,-45.27 372.28,-26.04 319.04,-16.58"/>
<polygon fill="#63b8ff" stroke="#63b8ff" points="319.89,-13.18 309.43,-14.87 318.67,-20.07 319.89,-13.18"/>
</a>
</g>
</g>
<!-- Node12&#45;&gt;Node6 -->
<g id="edge16_Node000012_Node000006" class="edge">
<title>Node12&#45;&gt;Node6</title>
<g id="a_edge16_Node000012_Node000006"><a xlink:title=" ">
<path fill="none" stroke="#63b8ff" d="M614.27,-55.59C634.74,-47.09 665.14,-34.46 688.37,-24.81"/>
<polygon fill="#63b8ff" stroke="#63b8ff" points="689.51,-28.13 697.41,-21.06 686.83,-21.66 689.51,-28.13"/>
</a>
</g>
</g>
<!-- Node12&#45;&gt;Node7 -->
<g id="edge14_Node000012_Node000007" class="edge">
<title>Node12&#45;&gt;Node7</title>
<g id="a_edge14_Node000012_Node000007"><a xlink:title=" ">
<path fill="none" stroke="#63b8ff" d="M595.28,-55.59C597.93,-48.78 601.61,-39.32 604.9,-30.86"/>
<polygon fill="#63b8ff" stroke="#63b8ff" points="608.1,-32.3 608.46,-21.71 601.57,-29.76 608.1,-32.3"/>
</a>
</g>
</g>
<!-- Node13&#45;&gt;Node4 -->
<g id="edge25_Node000013_Node000004" class="edge">
<title>Node13&#45;&gt;Node4</title>
<g id="a_edge25_Node000013_Node000004"><a xlink:title=" ">
<path fill="none" stroke="#63b8ff" d="M396.92,-167.59C416.99,-159.13 446.74,-146.58 469.58,-136.94"/>
<polygon fill="#63b8ff" stroke="#63b8ff" points="470.91,-140.18 478.76,-133.07 468.19,-133.73 470.91,-140.18"/>
</a>
</g>
</g>
<!-- Node13&#45;&gt;Node5 -->
<g id="edge27_Node000013_Node000005" class="edge">
<title>Node13&#45;&gt;Node5</title>
<g id="a_edge27_Node000013_Node000005"><a xlink:title=" ">
<path fill="none" stroke="#63b8ff" d="M364.63,-167.8C355.79,-159.23 343.02,-145.74 334.62,-132 314.52,-99.1 300.29,-56.13 293.07,-31.24"/>
<polygon fill="#63b8ff" stroke="#63b8ff" points="296.49,-30.46 290.42,-21.77 289.74,-32.35 296.49,-30.46"/>
</a>
</g>
</g>
<!-- Node13&#45;&gt;Node7 -->
<g id="edge26_Node000013_Node000007" class="edge">
<title>Node13&#45;&gt;Node7</title>
<g id="a_edge26_Node000013_Node000007"><a xlink:title=" ">
<path fill="none" stroke="#63b8ff" d="M382.69,-167.73C395.81,-153.32 423.26,-125.76 452.62,-112 532.83,-74.42 591.94,-144.05 648.62,-76 660.86,-61.31 646.86,-41.84 632.9,-28.05"/>
<polygon fill="#63b8ff" stroke="#63b8ff" points="635.3,-25.5 625.56,-21.31 630.56,-30.65 635.3,-25.5"/>
</a>
</g>
</g>
<!-- Node13&#45;&gt;Node11 -->
<g id="edge28_Node000013_Node000011" class="edge">
<title>Node13&#45;&gt;Node11</title>
<g id="a_edge28_Node000013_Node000011"><a xlink:title=" ">
<path fill="none" stroke="#63b8ff" d="M356.73,-167.57C341.45,-159.15 319.21,-146.01 301.62,-132 283.51,-117.57 265.21,-98.41 252.84,-84.64"/>
<polygon fill="#63b8ff" stroke="#63b8ff" points="255.54,-82.41 246.3,-77.22 250.29,-87.04 255.54,-82.41"/>
</a>
</g>
</g>
<!-- Node14 -->
<g id="Node000014" class="node">
<title>Node14</title>
<g id="a_Node000014"><a xlink:href="Room_8hpp.html" target="_top" xlink:title=" ">
<polygon fill="white" stroke="#666666" points="405.12,-132 344.12,-132 344.12,-112 405.12,-112 405.12,-132"/>
<text text-anchor="middle" x="374.62" y="-118.5" font-family="Helvetica,sans-Serif" font-size="10.00">Room.hpp</text>
</a>
</g>
</g>
<!-- Node13&#45;&gt;Node14 -->
<g id="edge18_Node000013_Node000014" class="edge">
<title>Node13&#45;&gt;Node14</title>
<g id="a_edge18_Node000013_Node000014"><a xlink:title=" ">
<path fill="none" stroke="#63b8ff" d="M374.62,-167.59C374.62,-161.01 374.62,-151.96 374.62,-143.73"/>
<polygon fill="#63b8ff" stroke="#63b8ff" points="378.13,-143.81 374.63,-133.81 371.13,-143.81 378.13,-143.81"/>
</a>
</g>
</g>
<!-- Node16 -->
<g id="Node000016" class="node">
<title>Node16</title>
<g id="a_Node000016"><a xlink:title=" ">
<polygon fill="#e0e0e0" stroke="#999999" points="249.12,-132 206.12,-132 206.12,-112 249.12,-112 249.12,-132"/>
<text text-anchor="middle" x="227.62" y="-118.5" font-family="Helvetica,sans-Serif" font-size="10.00">mutex</text>
</a>
</g>
</g>
<!-- Node13&#45;&gt;Node16 -->
<g id="edge29_Node000013_Node000016" class="edge">
<title>Node13&#45;&gt;Node16</title>
<g id="a_edge29_Node000013_Node000016"><a xlink:title=" ">
<path fill="none" stroke="#63b8ff" d="M349.02,-167.59C324.4,-158.55 287.09,-144.85 260.34,-135.02"/>
<polygon fill="#63b8ff" stroke="#63b8ff" points="261.6,-131.75 251,-131.59 259.18,-138.32 261.6,-131.75"/>
</a>
</g>
</g>
<!-- Node14&#45;&gt;Node2 -->
<g id="edge23_Node000014_Node000002" class="edge">
<title>Node14&#45;&gt;Node2</title>
<g id="a_edge23_Node000014_Node000002"><a xlink:title=" ">
<path fill="none" stroke="#63b8ff" d="M373.15,-111.6C371.56,-97.99 370.64,-72.59 382.62,-56 393.32,-41.19 410.17,-31.09 426.73,-24.27"/>
<polygon fill="#63b8ff" stroke="#63b8ff" points="427.94,-27.55 436.08,-20.77 425.49,-20.99 427.94,-27.55"/>
</a>
</g>
</g>
<!-- Node14&#45;&gt;Node5 -->
<g id="edge21_Node000014_Node000005" class="edge">
<title>Node14&#45;&gt;Node5</title>
<g id="a_edge21_Node000014_Node000005"><a xlink:title=" ">
<path fill="none" stroke="#63b8ff" d="M367.21,-111.62C352.83,-93.44 320.92,-53.09 302.17,-29.38"/>
<polygon fill="#63b8ff" stroke="#63b8ff" points="304.91,-27.21 295.96,-21.54 299.42,-31.56 304.91,-27.21"/>
</a>
</g>
</g>
<!-- Node14&#45;&gt;Node7 -->
<g id="edge20_Node000014_Node000007" class="edge">
<title>Node14&#45;&gt;Node7</title>
<g id="a_edge20_Node000014_Node000007"><a xlink:title=" ">
<path fill="none" stroke="#63b8ff" d="M394.92,-111.62C436.72,-92.3 532.65,-47.96 582.02,-25.14"/>
<polygon fill="#63b8ff" stroke="#63b8ff" points="583.4,-28.36 591.01,-20.99 580.46,-22.01 583.4,-28.36"/>
</a>
</g>
</g>
<!-- Node14&#45;&gt;Node11 -->
<g id="edge19_Node000014_Node000011" class="edge">
<title>Node14&#45;&gt;Node11</title>
<g id="a_edge19_Node000014_Node000011"><a xlink:title=" ">
<path fill="none" stroke="#63b8ff" d="M350.76,-111.59C328.42,-102.79 294.87,-89.56 270.1,-79.8"/>
<polygon fill="#63b8ff" stroke="#63b8ff" points="271.4,-76.55 260.82,-76.14 268.84,-83.06 271.4,-76.55"/>
</a>
</g>
</g>
<!-- Node14&#45;&gt;Node12 -->
<g id="edge24_Node000014_Node000012" class="edge">
<title>Node14&#45;&gt;Node12</title>
<g id="a_edge24_Node000014_Node000012"><a xlink:title=" ">
<path fill="none" stroke="#63b8ff" d="M405.26,-113.38C440.89,-104.51 500.22,-89.75 542.35,-79.26"/>
<polygon fill="#63b8ff" stroke="#63b8ff" points="543.15,-82.67 552.01,-76.86 541.46,-75.88 543.15,-82.67"/>
</a>
</g>
</g>
<!-- Node15 -->
<g id="Node000015" class="node">
<title>Node15</title>
<g id="a_Node000015"><a xlink:title=" ">
<polygon fill="#e0e0e0" stroke="#999999" points="449.62,-76 391.62,-76 391.62,-56 449.62,-56 449.62,-76"/>
<text text-anchor="middle" x="420.62" y="-62.5" font-family="Helvetica,sans-Serif" font-size="10.00">functional</text>
</a>
</g>
</g>
<!-- Node14&#45;&gt;Node15 -->
<g id="edge22_Node000014_Node000015" class="edge">
<title>Node14&#45;&gt;Node15</title>
<g id="a_edge22_Node000014_Node000015"><a xlink:title=" ">
<path fill="none" stroke="#63b8ff" d="M382.64,-111.59C388.9,-104.24 397.8,-93.8 405.41,-84.87"/>
<polygon fill="#63b8ff" stroke="#63b8ff" points="407.9,-87.33 411.72,-77.45 402.57,-82.79 407.9,-87.33"/>
</a>
</g>
</g>
</g>
</svg>
