<?xml version="1.0" encoding="UTF-8" standalone="no"?>
<!DOCTYPE svg PUBLIC "-//W3C//DTD SVG 1.1//EN"
 "http://www.w3.org/Graphics/SVG/1.1/DTD/svg11.dtd">
<!-- Generated by graphviz version 12.1.0 (20240811.2233)
 -->
<!-- Title: UdpServer.hpp Pages: 1 -->
<svg width="164pt" height="84pt"
 viewBox="0.00 0.00 163.50 84.00" xmlns="http://www.w3.org/2000/svg" xmlns:xlink="http://www.w3.org/1999/xlink">
<g id="graph0" class="graph" transform="scale(1 1) rotate(0) translate(4 80)">
<title>UdpServer.hpp</title>
<!-- Node1 -->
<g id="Node000001" class="node">
<title>Node1</title>
<g id="a_Node000001"><a xlink:title=" ">
<polygon fill="#999999" stroke="#666666" points="124.25,-76 43,-76 43,-56 124.25,-56 124.25,-76"/>
<text text-anchor="middle" x="83.62" y="-62.5" font-family="Helvetica,sans-Serif" font-size="10.00">UdpServer.hpp</text>
</a>
</g>
</g>
<!-- Node2 -->
<g id="Node000002" class="node">
<title>Node2</title>
<g id="a_Node000002"><a xlink:href="UdpServer_8cpp.html" target="_top" xlink:title=" ">
<polygon fill="white" stroke="#666666" points="81.25,-20 0,-20 0,0 81.25,0 81.25,-20"/>
<text text-anchor="middle" x="40.62" y="-6.5" font-family="Helvetica,sans-Serif" font-size="10.00">UdpServer.cpp</text>
</a>
</g>
</g>
<!-- Node1&#45;&gt;Node2 -->
<g id="edge1_Node000001_Node000002" class="edge">
<title>Node1&#45;&gt;Node2</title>
<g id="a_edge1_Node000001_Node000002"><a xlink:title=" ">
<path fill="none" stroke="#63b8ff" d="M69.07,-46.72C62,-37.84 53.8,-27.55 48.03,-20.3"/>
<polygon fill="#63b8ff" stroke="#63b8ff" points="66.22,-48.77 75.19,-54.41 71.7,-44.41 66.22,-48.77"/>
</a>
</g>
</g>
<!-- Node3 -->
<g id="Node000003" class="node">
<title>Node3</title>
<g id="a_Node000003"><a xlink:href="Server_2src_2main_8cpp.html" target="_top" xlink:title=" ">
<polygon fill="white" stroke="#666666" points="155.5,-20 99.75,-20 99.75,0 155.5,0 155.5,-20"/>
<text text-anchor="middle" x="127.62" y="-6.5" font-family="Helvetica,sans-Serif" font-size="10.00">main.cpp</text>
</a>
</g>
</g>
<!-- Node1&#45;&gt;Node3 -->
<g id="edge2_Node000001_Node000003" class="edge">
<title>Node1&#45;&gt;Node3</title>
<g id="a_edge2_Node000001_Node000003"><a xlink:title=" ">
<path fill="none" stroke="#63b8ff" d="M98.52,-46.72C105.76,-37.84 114.14,-27.55 120.05,-20.3"/>
<polygon fill="#63b8ff" stroke="#63b8ff" points="95.85,-44.46 92.25,-54.42 101.28,-48.88 95.85,-44.46"/>
</a>
</g>
</g>
</g>
</svg>
