<?xml version="1.0" encoding="UTF-8" standalone="no"?>
<!DOCTYPE svg PUBLIC "-//W3C//DTD SVG 1.1//EN"
 "http://www.w3.org/Graphics/SVG/1.1/DTD/svg11.dtd">
<!-- Generated by graphviz version 12.1.0 (20240811.2233)
 -->
<!-- Title: UdpServer.cpp Pages: 1 -->
<svg width="1063pt" height="308pt"
 viewBox="0.00 0.00 1062.75 308.00" xmlns="http://www.w3.org/2000/svg" xmlns:xlink="http://www.w3.org/1999/xlink">
<g id="graph0" class="graph" transform="scale(1 1) rotate(0) translate(4 304)">
<title>UdpServer.cpp</title>
<!-- Node1 -->
<g id="Node000001" class="node">
<title>Node1</title>
<g id="a_Node000001"><a xlink:title=" ">
<polygon fill="#999999" stroke="#666666" points="571.25,-300 490,-300 490,-280 571.25,-280 571.25,-300"/>
<text text-anchor="middle" x="530.62" y="-286.5" font-family="Helvetica,sans-Serif" font-size="10.00">UdpServer.cpp</text>
</a>
</g>
</g>
<!-- Node2 -->
<g id="Node000002" class="node">
<title>Node2</title>
<g id="a_Node000002"><a xlink:href="UdpServer_8hpp.html" target="_top" xlink:title=" ">
<polygon fill="white" stroke="#666666" points="414.25,-244 333,-244 333,-224 414.25,-224 414.25,-244"/>
<text text-anchor="middle" x="373.62" y="-230.5" font-family="Helvetica,sans-Serif" font-size="10.00">UdpServer.hpp</text>
</a>
</g>
</g>
<!-- Node1&#45;&gt;Node2 -->
<g id="edge1_Node000001_Node000002" class="edge">
<title>Node1&#45;&gt;Node2</title>
<g id="a_edge1_Node000001_Node000002"><a xlink:title=" ">
<path fill="none" stroke="#63b8ff" d="M503.28,-279.59C477.99,-270.9 440.17,-257.89 411.89,-248.16"/>
<polygon fill="#63b8ff" stroke="#63b8ff" points="413.21,-244.91 402.62,-244.97 410.93,-251.53 413.21,-244.91"/>
</a>
</g>
</g>
<!-- Node9 -->
<g id="Node000009" class="node">
<title>Node9</title>
<g id="a_Node000009"><a xlink:href="Server_2src_2net_2Protocol_8hpp.html" target="_top" xlink:title=" ">
<polygon fill="white" stroke="#666666" points="748,-188 677.25,-188 677.25,-168 748,-168 748,-188"/>
<text text-anchor="middle" x="712.62" y="-174.5" font-family="Helvetica,sans-Serif" font-size="10.00">Protocol.hpp</text>
</a>
</g>
</g>
<!-- Node1&#45;&gt;Node9 -->
<g id="edge31_Node000001_Node000009" class="edge">
<title>Node1&#45;&gt;Node9</title>
<g id="a_edge31_Node000001_Node000009"><a xlink:title=" ">
<path fill="none" stroke="#63b8ff" d="M546.14,-279.62C577.71,-260.54 649.62,-217.08 687.78,-194.02"/>
<polygon fill="#63b8ff" stroke="#63b8ff" points="689.1,-197.31 695.85,-189.14 685.48,-191.31 689.1,-197.31"/>
</a>
</g>
</g>
<!-- Node14 -->
<g id="Node000014" class="node">
<title>Node14</title>
<g id="a_Node000014"><a xlink:href="RoomManager_8hpp.html" target="_top" xlink:title=" ">
<polygon fill="white" stroke="#666666" points="579.88,-188 481.38,-188 481.38,-168 579.88,-168 579.88,-188"/>
<text text-anchor="middle" x="530.62" y="-174.5" font-family="Helvetica,sans-Serif" font-size="10.00">RoomManager.hpp</text>
</a>
</g>
</g>
<!-- Node1&#45;&gt;Node14 -->
<g id="edge33_Node000001_Node000014" class="edge">
<title>Node1&#45;&gt;Node14</title>
<g id="a_edge33_Node000001_Node000014"><a xlink:title=" ">
<path fill="none" stroke="#63b8ff" d="M530.62,-279.62C530.62,-262.01 530.62,-223.59 530.62,-199.65"/>
<polygon fill="#63b8ff" stroke="#63b8ff" points="534.13,-199.87 530.63,-189.87 527.13,-199.87 534.13,-199.87"/>
</a>
</g>
</g>
<!-- Node15 -->
<g id="Node000015" class="node">
<title>Node15</title>
<g id="a_Node000015"><a xlink:href="Room_8hpp.html" target="_top" xlink:title=" ">
<polygon fill="white" stroke="#666666" points="309.12,-132 248.12,-132 248.12,-112 309.12,-112 309.12,-132"/>
<text text-anchor="middle" x="278.62" y="-118.5" font-family="Helvetica,sans-Serif" font-size="10.00">Room.hpp</text>
</a>
</g>
</g>
<!-- Node1&#45;&gt;Node15 -->
<g id="edge32_Node000001_Node000015" class="edge">
<title>Node1&#45;&gt;Node15</title>
<g id="a_edge32_Node000001_Node000015"><a xlink:title=" ">
<path fill="none" stroke="#63b8ff" d="M489.85,-288.17C445.75,-285.53 374.9,-276.11 323.62,-244 296.8,-227.2 290.2,-217.83 279.62,-188 274.54,-173.65 274.53,-156.38 275.67,-143.24"/>
<polygon fill="#63b8ff" stroke="#63b8ff" points="279.1,-144 276.8,-133.66 272.15,-143.18 279.1,-144"/>
</a>
</g>
</g>
<!-- Node18 -->
<g id="Node000018" class="node">
<title>Node18</title>
<g id="a_Node000018"><a xlink:href="Log_8hpp.html" target="_top" xlink:title=" ">
<polygon fill="white" stroke="#666666" points="977.25,-244 902,-244 902,-224 977.25,-224 977.25,-244"/>
<text text-anchor="middle" x="939.62" y="-230.5" font-family="Helvetica,sans-Serif" font-size="10.00">../util/Log.hpp</text>
</a>
</g>
</g>
<!-- Node1&#45;&gt;Node18 -->
<g id="edge34_Node000001_Node000018" class="edge">
<title>Node1&#45;&gt;Node18</title>
<g id="a_edge34_Node000001_Node000018"><a xlink:title=" ">
<path fill="none" stroke="#63b8ff" d="M571.71,-283.58C647.56,-273.56 809.2,-252.22 890.62,-241.47"/>
<polygon fill="#63b8ff" stroke="#63b8ff" points="890.6,-245 900.05,-240.22 889.68,-238.06 890.6,-245"/>
</a>
</g>
</g>
<!-- Node3 -->
<g id="Node000003" class="node">
<title>Node3</title>
<g id="a_Node000003"><a xlink:title=" ">
<polygon fill="#e0e0e0" stroke="#999999" points="143.5,-20 63.75,-20 63.75,0 143.5,0 143.5,-20"/>
<text text-anchor="middle" x="103.62" y="-6.5" font-family="Helvetica,sans-Serif" font-size="10.00">boost/asio.hpp</text>
</a>
</g>
</g>
<!-- Node2&#45;&gt;Node3 -->
<g id="edge2_Node000002_Node000003" class="edge">
<title>Node2&#45;&gt;Node3</title>
<g id="a_edge2_Node000002_Node000003"><a xlink:title=" ">
<path fill="none" stroke="#63b8ff" d="M332.73,-224.01C268.99,-207.46 148.6,-165.36 103.62,-76 96.78,-62.4 97.15,-45.09 99.03,-31.75"/>
<polygon fill="#63b8ff" stroke="#63b8ff" points="102.47,-32.39 100.84,-21.92 95.59,-31.12 102.47,-32.39"/>
</a>
</g>
</g>
<!-- Node4 -->
<g id="Node000004" class="node">
<title>Node4</title>
<g id="a_Node000004"><a xlink:title=" ">
<polygon fill="#e0e0e0" stroke="#999999" points="326.5,-188 288.75,-188 288.75,-168 326.5,-168 326.5,-188"/>
<text text-anchor="middle" x="307.62" y="-174.5" font-family="Helvetica,sans-Serif" font-size="10.00">array</text>
</a>
</g>
</g>
<!-- Node2&#45;&gt;Node4 -->
<g id="edge3_Node000002_Node000004" class="edge">
<title>Node2&#45;&gt;Node4</title>
<g id="a_edge3_Node000002_Node000004"><a xlink:title=" ">
<path fill="none" stroke="#63b8ff" d="M362.13,-223.59C352.66,-215.85 339.02,-204.69 327.75,-195.47"/>
<polygon fill="#63b8ff" stroke="#63b8ff" points="330.12,-192.88 320.16,-189.26 325.68,-198.3 330.12,-192.88"/>
</a>
</g>
</g>
<!-- Node5 -->
<g id="Node000005" class="node">
<title>Node5</title>
<g id="a_Node000005"><a xlink:title=" ">
<polygon fill="#e0e0e0" stroke="#999999" points="503,-132 420.25,-132 420.25,-112 503,-112 503,-132"/>
<text text-anchor="middle" x="461.62" y="-118.5" font-family="Helvetica,sans-Serif" font-size="10.00">unordered_map</text>
</a>
</g>
</g>
<!-- Node2&#45;&gt;Node5 -->
<g id="edge4_Node000002_Node000005" class="edge">
<title>Node2&#45;&gt;Node5</title>
<g id="a_edge4_Node000002_Node000005"><a xlink:title=" ">
<path fill="none" stroke="#63b8ff" d="M381.13,-223.62C395.74,-205.36 428.24,-164.73 447.17,-141.07"/>
<polygon fill="#63b8ff" stroke="#63b8ff" points="449.68,-143.53 453.2,-133.54 444.22,-139.16 449.68,-143.53"/>
</a>
</g>
</g>
<!-- Node6 -->
<g id="Node000006" class="node">
<title>Node6</title>
<g id="a_Node000006"><a xlink:title=" ">
<polygon fill="#e0e0e0" stroke="#999999" points="588.62,-20 548.62,-20 548.62,0 588.62,0 588.62,-20"/>
<text text-anchor="middle" x="568.62" y="-6.5" font-family="Helvetica,sans-Serif" font-size="10.00">string</text>
</a>
</g>
</g>
<!-- Node2&#45;&gt;Node6 -->
<g id="edge5_Node000002_Node000006" class="edge">
<title>Node2&#45;&gt;Node6</title>
<g id="a_edge5_Node000002_Node000006"><a xlink:title=" ">
<path fill="none" stroke="#63b8ff" d="M374.42,-223.52C376.66,-201.71 384.78,-147.19 411.62,-112 444.85,-68.45 502.64,-38.38 538.07,-22.97"/>
<polygon fill="#63b8ff" stroke="#63b8ff" points="539.05,-26.36 546.91,-19.25 536.33,-19.91 539.05,-26.36"/>
</a>
</g>
</g>
<!-- Node7 -->
<g id="Node000007" class="node">
<title>Node7</title>
<g id="a_Node000007"><a xlink:title=" ">
<polygon fill="#e0e0e0" stroke="#999999" points="45.25,-20 0,-20 0,0 45.25,0 45.25,-20"/>
<text text-anchor="middle" x="22.62" y="-6.5" font-family="Helvetica,sans-Serif" font-size="10.00">chrono</text>
</a>
</g>
</g>
<!-- Node2&#45;&gt;Node7 -->
<g id="edge6_Node000002_Node000007" class="edge">
<title>Node2&#45;&gt;Node7</title>
<g id="a_edge6_Node000002_Node000007"><a xlink:title=" ">
<path fill="none" stroke="#63b8ff" d="M332.86,-228.06C295.16,-222.31 238.35,-210.55 193.62,-188 119.31,-150.54 59.09,-67.62 34.54,-30.1"/>
<polygon fill="#63b8ff" stroke="#63b8ff" points="37.49,-28.21 29.15,-21.68 31.59,-31.99 37.49,-28.21"/>
</a>
</g>
</g>
<!-- Node8 -->
<g id="Node000008" class="node">
<title>Node8</title>
<g id="a_Node000008"><a xlink:title=" ">
<polygon fill="#e0e0e0" stroke="#999999" points="371.25,-20 320,-20 320,0 371.25,0 371.25,-20"/>
<text text-anchor="middle" x="345.62" y="-6.5" font-family="Helvetica,sans-Serif" font-size="10.00">memory</text>
</a>
</g>
</g>
<!-- Node2&#45;&gt;Node8 -->
<g id="edge7_Node000002_Node000008" class="edge">
<title>Node2&#45;&gt;Node8</title>
<g id="a_edge7_Node000002_Node000008"><a xlink:title=" ">
<path fill="none" stroke="#63b8ff" d="M372.46,-223.74C368.29,-190.74 354.12,-78.31 348.22,-31.61"/>
<polygon fill="#63b8ff" stroke="#63b8ff" points="351.71,-31.28 346.99,-21.8 344.77,-32.16 351.71,-31.28"/>
</a>
</g>
</g>
<!-- Node2&#45;&gt;Node9 -->
<g id="edge8_Node000002_Node000009" class="edge">
<title>Node2&#45;&gt;Node9</title>
<g id="a_edge8_Node000002_Node000009"><a xlink:title=" ">
<path fill="none" stroke="#63b8ff" d="M414.52,-226.49C477.94,-216.38 599.65,-197 666.26,-186.39"/>
<polygon fill="#63b8ff" stroke="#63b8ff" points="666.42,-189.9 675.75,-184.87 665.32,-182.99 666.42,-189.9"/>
</a>
</g>
</g>
<!-- Node13 -->
<g id="Node000013" class="node">
<title>Node13</title>
<g id="a_Node000013"><a xlink:href="ClientSession_8hpp.html" target="_top" xlink:title=" ">
<polygon fill="white" stroke="#666666" points="222.38,-76 126.88,-76 126.88,-56 222.38,-56 222.38,-76"/>
<text text-anchor="middle" x="174.62" y="-62.5" font-family="Helvetica,sans-Serif" font-size="10.00">ClientSession.hpp</text>
</a>
</g>
</g>
<!-- Node2&#45;&gt;Node13 -->
<g id="edge13_Node000002_Node000013" class="edge">
<title>Node2&#45;&gt;Node13</title>
<g id="a_edge13_Node000002_Node000013"><a xlink:title=" ">
<path fill="none" stroke="#63b8ff" d="M346.88,-223.6C327.12,-215.89 300.2,-203.68 279.62,-188 240.35,-158.07 205.05,-111.45 187.1,-85.7"/>
<polygon fill="#63b8ff" stroke="#63b8ff" points="190.09,-83.87 181.56,-77.58 184.31,-87.82 190.09,-83.87"/>
</a>
</g>
</g>
<!-- Node2&#45;&gt;Node14 -->
<g id="edge18_Node000002_Node000014" class="edge">
<title>Node2&#45;&gt;Node14</title>
<g id="a_edge18_Node000002_Node000014"><a xlink:title=" ">
<path fill="none" stroke="#63b8ff" d="M400.97,-223.59C426.26,-214.9 464.08,-201.89 492.36,-192.16"/>
<polygon fill="#63b8ff" stroke="#63b8ff" points="493.32,-195.53 501.63,-188.97 491.04,-188.91 493.32,-195.53"/>
</a>
</g>
</g>
<!-- Node9&#45;&gt;Node6 -->
<g id="edge12_Node000009_Node000006" class="edge">
<title>Node9&#45;&gt;Node6</title>
<g id="a_edge12_Node000009_Node000006"><a xlink:title=" ">
<path fill="none" stroke="#63b8ff" d="M748.33,-174.05C799.47,-168.36 884.39,-152.62 855.62,-112 796.24,-28.14 661.38,-13.41 600.05,-11.17"/>
<polygon fill="#63b8ff" stroke="#63b8ff" points="600.41,-7.68 590.32,-10.91 600.22,-14.67 600.41,-7.68"/>
</a>
</g>
</g>
<!-- Node10 -->
<g id="Node000010" class="node">
<title>Node10</title>
<g id="a_Node000010"><a xlink:title=" ">
<polygon fill="#e0e0e0" stroke="#999999" points="780.25,-132 735,-132 735,-112 780.25,-112 780.25,-132"/>
<text text-anchor="middle" x="757.62" y="-118.5" font-family="Helvetica,sans-Serif" font-size="10.00">cstdint</text>
</a>
</g>
</g>
<!-- Node9&#45;&gt;Node10 -->
<g id="edge9_Node000009_Node000010" class="edge">
<title>Node9&#45;&gt;Node10</title>
<g id="a_edge9_Node000009_Node000010"><a xlink:title=" ">
<path fill="none" stroke="#63b8ff" d="M720.46,-167.59C726.59,-160.24 735.3,-149.8 742.74,-140.87"/>
<polygon fill="#63b8ff" stroke="#63b8ff" points="745.19,-143.38 748.91,-133.46 739.82,-138.9 745.19,-143.38"/>
</a>
</g>
</g>
<!-- Node11 -->
<g id="Node000011" class="node">
<title>Node11</title>
<g id="a_Node000011"><a xlink:title=" ">
<polygon fill="#e0e0e0" stroke="#999999" points="846.75,-132 798.5,-132 798.5,-112 846.75,-112 846.75,-132"/>
<text text-anchor="middle" x="822.62" y="-118.5" font-family="Helvetica,sans-Serif" font-size="10.00">cstddef</text>
</a>
</g>
</g>
<!-- Node9&#45;&gt;Node11 -->
<g id="edge10_Node000009_Node000011" class="edge">
<title>Node9&#45;&gt;Node11</title>
<g id="a_edge10_Node000009_Node000011"><a xlink:title=" ">
<path fill="none" stroke="#63b8ff" d="M731.79,-167.59C748.72,-159.28 773.67,-147.03 793.15,-137.47"/>
<polygon fill="#63b8ff" stroke="#63b8ff" points="794.52,-140.7 801.96,-133.15 791.44,-134.41 794.52,-140.7"/>
</a>
</g>
</g>
<!-- Node12 -->
<g id="Node000012" class="node">
<title>Node12</title>
<g id="a_Node000012"><a xlink:title=" ">
<polygon fill="#e0e0e0" stroke="#999999" points="602.12,-76 559.12,-76 559.12,-56 602.12,-56 602.12,-76"/>
<text text-anchor="middle" x="580.62" y="-62.5" font-family="Helvetica,sans-Serif" font-size="10.00">vector</text>
</a>
</g>
</g>
<!-- Node9&#45;&gt;Node12 -->
<g id="edge11_Node000009_Node000012" class="edge">
<title>Node9&#45;&gt;Node12</title>
<g id="a_edge11_Node000009_Node000012"><a xlink:title=" ">
<path fill="none" stroke="#63b8ff" d="M704.65,-167.53C693.24,-154.27 671.21,-129.79 649.62,-112 636.26,-100.98 620.09,-90.31 606.77,-82.13"/>
<polygon fill="#63b8ff" stroke="#63b8ff" points="608.9,-79.33 598.53,-77.18 605.3,-85.33 608.9,-79.33"/>
</a>
</g>
</g>
<!-- Node13&#45;&gt;Node3 -->
<g id="edge14_Node000013_Node000003" class="edge">
<title>Node13&#45;&gt;Node3</title>
<g id="a_edge14_Node000013_Node000003"><a xlink:title=" ">
<path fill="none" stroke="#63b8ff" d="M162.26,-55.59C151.98,-47.77 137.11,-36.46 124.91,-27.19"/>
<polygon fill="#63b8ff" stroke="#63b8ff" points="127.13,-24.48 117.06,-21.21 122.9,-30.05 127.13,-24.48"/>
</a>
</g>
</g>
<!-- Node13&#45;&gt;Node6 -->
<g id="edge16_Node000013_Node000006" class="edge">
<title>Node13&#45;&gt;Node6</title>
<g id="a_edge16_Node000013_Node000006"><a xlink:title=" ">
<path fill="none" stroke="#63b8ff" d="M222.81,-57.31C225.79,-56.86 228.75,-56.42 231.62,-56 343.92,-39.64 477.62,-22.47 537.23,-14.94"/>
<polygon fill="#63b8ff" stroke="#63b8ff" points="537.48,-18.43 546.97,-13.71 536.61,-11.49 537.48,-18.43"/>
</a>
</g>
</g>
<!-- Node13&#45;&gt;Node7 -->
<g id="edge17_Node000013_Node000007" class="edge">
<title>Node13&#45;&gt;Node7</title>
<g id="a_edge17_Node000013_Node000007"><a xlink:title=" ">
<path fill="none" stroke="#63b8ff" d="M148.15,-55.59C122.58,-46.51 83.77,-32.72 56.08,-22.88"/>
<polygon fill="#63b8ff" stroke="#63b8ff" points="57.35,-19.62 46.76,-19.57 55.01,-26.22 57.35,-19.62"/>
</a>
</g>
</g>
<!-- Node13&#45;&gt;Node8 -->
<g id="edge15_Node000013_Node000008" class="edge">
<title>Node13&#45;&gt;Node8</title>
<g id="a_edge15_Node000013_Node000008"><a xlink:title=" ">
<path fill="none" stroke="#63b8ff" d="M204.41,-55.59C233.39,-46.44 277.48,-32.52 308.68,-22.67"/>
<polygon fill="#63b8ff" stroke="#63b8ff" points="309.61,-26.04 318.09,-19.69 307.5,-19.37 309.61,-26.04"/>
</a>
</g>
</g>
<!-- Node14&#45;&gt;Node5 -->
<g id="edge26_Node000014_Node000005" class="edge">
<title>Node14&#45;&gt;Node5</title>
<g id="a_edge26_Node000014_Node000005"><a xlink:title=" ">
<path fill="none" stroke="#63b8ff" d="M518.61,-167.59C508.61,-159.77 494.16,-148.46 482.32,-139.19"/>
<polygon fill="#63b8ff" stroke="#63b8ff" points="484.73,-136.64 474.7,-133.23 480.42,-142.15 484.73,-136.64"/>
</a>
</g>
</g>
<!-- Node14&#45;&gt;Node6 -->
<g id="edge28_Node000014_Node000006" class="edge">
<title>Node14&#45;&gt;Node6</title>
<g id="a_edge28_Node000014_Node000006"><a xlink:title=" ">
<path fill="none" stroke="#63b8ff" d="M580.19,-171.49C605.42,-165.89 633.99,-154.62 649.62,-132 675.41,-94.68 625.25,-50.23 592.95,-26.98"/>
<polygon fill="#63b8ff" stroke="#63b8ff" points="595.05,-24.18 584.84,-21.34 591.05,-29.93 595.05,-24.18"/>
</a>
</g>
</g>
<!-- Node14&#45;&gt;Node8 -->
<g id="edge27_Node000014_Node000008" class="edge">
<title>Node14&#45;&gt;Node8</title>
<g id="a_edge27_Node000014_Node000008"><a xlink:title=" ">
<path fill="none" stroke="#63b8ff" d="M530,-167.66C528.67,-154.11 524.5,-128.79 511.62,-112 478.18,-68.39 420.07,-39.38 382.24,-24.05"/>
<polygon fill="#63b8ff" stroke="#63b8ff" points="383.67,-20.85 373.08,-20.46 381.11,-27.37 383.67,-20.85"/>
</a>
</g>
</g>
<!-- Node14&#45;&gt;Node12 -->
<g id="edge29_Node000014_Node000012" class="edge">
<title>Node14&#45;&gt;Node12</title>
<g id="a_edge29_Node000014_Node000012"><a xlink:title=" ">
<path fill="none" stroke="#63b8ff" d="M534.89,-167.62C543.01,-149.76 560.84,-110.53 571.68,-86.67"/>
<polygon fill="#63b8ff" stroke="#63b8ff" points="574.79,-88.28 575.75,-77.73 568.42,-85.39 574.79,-88.28"/>
</a>
</g>
</g>
<!-- Node14&#45;&gt;Node15 -->
<g id="edge19_Node000014_Node000015" class="edge">
<title>Node14&#45;&gt;Node15</title>
<g id="a_edge19_Node000014_Node000015"><a xlink:title=" ">
<path fill="none" stroke="#63b8ff" d="M486.44,-167.53C439.6,-157.49 366.16,-141.76 320.3,-131.93"/>
<polygon fill="#63b8ff" stroke="#63b8ff" points="321.25,-128.56 310.74,-129.88 319.79,-135.4 321.25,-128.56"/>
</a>
</g>
</g>
<!-- Node17 -->
<g id="Node000017" class="node">
<title>Node17</title>
<g id="a_Node000017"><a xlink:title=" ">
<polygon fill="#e0e0e0" stroke="#999999" points="640.12,-132 597.12,-132 597.12,-112 640.12,-112 640.12,-132"/>
<text text-anchor="middle" x="618.62" y="-118.5" font-family="Helvetica,sans-Serif" font-size="10.00">mutex</text>
</a>
</g>
</g>
<!-- Node14&#45;&gt;Node17 -->
<g id="edge30_Node000014_Node000017" class="edge">
<title>Node14&#45;&gt;Node17</title>
<g id="a_edge30_Node000014_Node000017"><a xlink:title=" ">
<path fill="none" stroke="#63b8ff" d="M545.95,-167.59C559.12,-159.51 578.36,-147.71 593.73,-138.27"/>
<polygon fill="#63b8ff" stroke="#63b8ff" points="595.19,-141.48 601.89,-133.27 591.53,-135.52 595.19,-141.48"/>
</a>
</g>
</g>
<!-- Node15&#45;&gt;Node3 -->
<g id="edge24_Node000015_Node000003" class="edge">
<title>Node15&#45;&gt;Node3</title>
<g id="a_edge24_Node000015_Node000003"><a xlink:title=" ">
<path fill="none" stroke="#63b8ff" d="M247.77,-121.34C211.34,-119.98 151.44,-111.93 117.62,-76 106.49,-64.17 103.37,-45.7 102.81,-31.46"/>
<polygon fill="#63b8ff" stroke="#63b8ff" points="106.31,-31.84 102.84,-21.83 99.31,-31.82 106.31,-31.84"/>
</a>
</g>
</g>
<!-- Node15&#45;&gt;Node6 -->
<g id="edge22_Node000015_Node000006" class="edge">
<title>Node15&#45;&gt;Node6</title>
<g id="a_edge22_Node000015_Node000006"><a xlink:title=" ">
<path fill="none" stroke="#63b8ff" d="M297.98,-111.7C325.99,-98.43 379.62,-73.71 426.62,-56 464.23,-41.83 508.49,-28.29 537.48,-19.82"/>
<polygon fill="#63b8ff" stroke="#63b8ff" points="538.08,-23.3 546.71,-17.16 536.14,-16.57 538.08,-23.3"/>
</a>
</g>
</g>
<!-- Node15&#45;&gt;Node8 -->
<g id="edge21_Node000015_Node000008" class="edge">
<title>Node15&#45;&gt;Node8</title>
<g id="a_edge21_Node000015_Node000008"><a xlink:title=" ">
<path fill="none" stroke="#63b8ff" d="M284.74,-111.77C290.69,-102.72 299.94,-88.51 307.62,-76 317.03,-60.68 327.3,-43.07 334.78,-30.04"/>
<polygon fill="#63b8ff" stroke="#63b8ff" points="337.66,-32.06 339.59,-21.65 331.58,-28.59 337.66,-32.06"/>
</a>
</g>
</g>
<!-- Node15&#45;&gt;Node12 -->
<g id="edge20_Node000015_Node000012" class="edge">
<title>Node15&#45;&gt;Node12</title>
<g id="a_edge20_Node000015_Node000012"><a xlink:title=" ">
<path fill="none" stroke="#63b8ff" d="M309.53,-115.47C366.77,-105.24 488.81,-83.42 547.61,-72.9"/>
<polygon fill="#63b8ff" stroke="#63b8ff" points="548.1,-76.37 557.33,-71.17 546.87,-69.48 548.1,-76.37"/>
</a>
</g>
</g>
<!-- Node15&#45;&gt;Node13 -->
<g id="edge25_Node000015_Node000013" class="edge">
<title>Node15&#45;&gt;Node13</title>
<g id="a_edge25_Node000015_Node000013"><a xlink:title=" ">
<path fill="none" stroke="#63b8ff" d="M260.51,-111.59C244.65,-103.36 221.34,-91.26 203.01,-81.74"/>
<polygon fill="#63b8ff" stroke="#63b8ff" points="204.71,-78.68 194.23,-77.18 201.49,-84.89 204.71,-78.68"/>
</a>
</g>
</g>
<!-- Node16 -->
<g id="Node000016" class="node">
<title>Node16</title>
<g id="a_Node000016"><a xlink:title=" ">
<polygon fill="#e0e0e0" stroke="#999999" points="298.62,-76 240.62,-76 240.62,-56 298.62,-56 298.62,-76"/>
<text text-anchor="middle" x="269.62" y="-62.5" font-family="Helvetica,sans-Serif" font-size="10.00">functional</text>
</a>
</g>
</g>
<!-- Node15&#45;&gt;Node16 -->
<g id="edge23_Node000015_Node000016" class="edge">
<title>Node15&#45;&gt;Node16</title>
<g id="a_edge23_Node000015_Node000016"><a xlink:title=" ">
<path fill="none" stroke="#63b8ff" d="M277.06,-111.59C275.95,-104.93 274.42,-95.75 273.03,-87.44"/>
<polygon fill="#63b8ff" stroke="#63b8ff" points="276.52,-87.08 271.42,-77.79 269.62,-88.23 276.52,-87.08"/>
</a>
</g>
</g>
<!-- Node18&#45;&gt;Node6 -->
<g id="edge35_Node000018_Node000006" class="edge">
<title>Node18&#45;&gt;Node6</title>
<g id="a_edge35_Node000018_Node000006"><a xlink:title=" ">
<path fill="none" stroke="#63b8ff" d="M936.78,-223.75C926.76,-192.99 889.86,-93.93 819.62,-56 748.01,-17.33 649.81,-10.99 600.14,-10.49"/>
<polygon fill="#63b8ff" stroke="#63b8ff" points="600.4,-6.99 590.4,-10.48 600.39,-13.99 600.4,-6.99"/>
</a>
</g>
</g>
<!-- Node19 -->
<g id="Node000019" class="node">
<title>Node19</title>
<g id="a_Node000019"><a xlink:title=" ">
<polygon fill="#e0e0e0" stroke="#999999" points="994.38,-188 940.88,-188 940.88,-168 994.38,-168 994.38,-188"/>
<text text-anchor="middle" x="967.62" y="-174.5" font-family="Helvetica,sans-Serif" font-size="10.00">iostream</text>
</a>
</g>
</g>
<!-- Node18&#45;&gt;Node19 -->
<g id="edge36_Node000018_Node000019" class="edge">
<title>Node18&#45;&gt;Node19</title>
<g id="a_edge36_Node000018_Node000019"><a xlink:title=" ">
<path fill="none" stroke="#63b8ff" d="M944.5,-223.59C948.12,-216.63 953.17,-206.89 957.62,-198.29"/>
<polygon fill="#63b8ff" stroke="#63b8ff" points="960.61,-200.13 962.11,-189.64 954.4,-196.91 960.61,-200.13"/>
</a>
</g>
</g>
<!-- Node20 -->
<g id="Node000020" class="node">
<title>Node20</title>
<g id="a_Node000020"><a xlink:title=" ">
<polygon fill="#e0e0e0" stroke="#999999" points="1054.75,-188 1012.5,-188 1012.5,-168 1054.75,-168 1054.75,-188"/>
<text text-anchor="middle" x="1033.62" y="-174.5" font-family="Helvetica,sans-Serif" font-size="10.00">cstdio</text>
</a>
</g>
</g>
<!-- Node18&#45;&gt;Node20 -->
<g id="edge37_Node000018_Node000020" class="edge">
<title>Node18&#45;&gt;Node20</title>
<g id="a_edge37_Node000018_Node000020"><a xlink:title=" ">
<path fill="none" stroke="#63b8ff" d="M956,-223.59C970.2,-215.44 991.01,-203.48 1007.51,-194"/>
<polygon fill="#63b8ff" stroke="#63b8ff" points="1008.88,-197.25 1015.81,-189.23 1005.4,-191.18 1008.88,-197.25"/>
</a>
</g>
</g>
</g>
</svg>
