<?xml version="1.0" encoding="UTF-8" standalone="no"?>
<!DOCTYPE svg PUBLIC "-//W3C//DTD SVG 1.1//EN"
 "http://www.w3.org/Graphics/SVG/1.1/DTD/svg11.dtd">
<!-- Generated by graphviz version 12.1.0 (20240811.2233)
 -->
<!-- Title: Utils.hpp Pages: 1 -->
<svg width="349pt" height="196pt"
 viewBox="0.00 0.00 348.88 196.00" xmlns="http://www.w3.org/2000/svg" xmlns:xlink="http://www.w3.org/1999/xlink">
<g id="graph0" class="graph" transform="scale(1 1) rotate(0) translate(4 192)">
<title>Utils.hpp</title>
<!-- Node1 -->
<g id="Node000001" class="node">
<title>Node1</title>
<g id="a_Node000001"><a xlink:title=" ">
<polygon fill="#999999" stroke="#666666" points="198.25,-188 143.25,-188 143.25,-168 198.25,-168 198.25,-188"/>
<text text-anchor="middle" x="170.75" y="-174.5" font-family="Helvetica,sans-Serif" font-size="10.00">Utils.hpp</text>
</a>
</g>
</g>
<!-- Node2 -->
<g id="Node000002" class="node">
<title>Node2</title>
<g id="a_Node000002"><a xlink:href="Gravity_8hpp.html" target="_top" xlink:title=" ">
<polygon fill="white" stroke="#666666" points="65.5,-132 0,-132 0,-112 65.5,-112 65.5,-132"/>
<text text-anchor="middle" x="32.75" y="-118.5" font-family="Helvetica,sans-Serif" font-size="10.00">Gravity.hpp</text>
</a>
</g>
</g>
<!-- Node1&#45;&gt;Node2 -->
<g id="edge1_Node000001_Node000002" class="edge">
<title>Node1&#45;&gt;Node2</title>
<g id="a_edge1_Node000001_Node000002"><a xlink:title=" ">
<path fill="none" stroke="#63b8ff" d="M136,-163.4C111.34,-153.75 78.87,-141.05 56.98,-132.48"/>
<polygon fill="#63b8ff" stroke="#63b8ff" points="134.71,-166.66 145.3,-167.04 137.27,-160.14 134.71,-166.66"/>
</a>
</g>
</g>
<!-- Node5 -->
<g id="Node000005" class="node">
<title>Node5</title>
<g id="a_Node000005"><a xlink:href="RigidBody_8hpp.html" target="_top" xlink:title=" ">
<polygon fill="white" stroke="#666666" points="162.25,-132 83.25,-132 83.25,-112 162.25,-112 162.25,-132"/>
<text text-anchor="middle" x="122.75" y="-118.5" font-family="Helvetica,sans-Serif" font-size="10.00">RigidBody.hpp</text>
</a>
</g>
</g>
<!-- Node1&#45;&gt;Node5 -->
<g id="edge4_Node000001_Node000005" class="edge">
<title>Node1&#45;&gt;Node5</title>
<g id="a_edge4_Node000001_Node000005"><a xlink:title=" ">
<path fill="none" stroke="#63b8ff" d="M154.75,-159C146.8,-150.06 137.53,-139.62 131.02,-132.3"/>
<polygon fill="#63b8ff" stroke="#63b8ff" points="152.12,-161.31 161.38,-166.46 157.36,-156.66 152.12,-161.31"/>
</a>
</g>
</g>
<!-- Node7 -->
<g id="Node000007" class="node">
<title>Node7</title>
<g id="a_Node000007"><a xlink:href="Sprite_8hpp.html" target="_top" xlink:title=" ">
<polygon fill="white" stroke="#666666" points="337.88,-132 277.62,-132 277.62,-112 337.88,-112 337.88,-132"/>
<text text-anchor="middle" x="307.75" y="-118.5" font-family="Helvetica,sans-Serif" font-size="10.00">Sprite.hpp</text>
</a>
</g>
</g>
<!-- Node1&#45;&gt;Node7 -->
<g id="edge8_Node000001_Node000007" class="edge">
<title>Node1&#45;&gt;Node7</title>
<g id="a_edge8_Node000001_Node000007"><a xlink:title=" ">
<path fill="none" stroke="#63b8ff" d="M205.25,-163.4C229.73,-153.75 261.97,-141.05 283.7,-132.48"/>
<polygon fill="#63b8ff" stroke="#63b8ff" points="204.04,-160.12 196.02,-167.04 206.61,-166.63 204.04,-160.12"/>
</a>
</g>
</g>
<!-- Node9 -->
<g id="Node000009" class="node">
<title>Node9</title>
<g id="a_Node000009"><a xlink:href="Transform_8hpp.html" target="_top" xlink:title=" ">
<polygon fill="white" stroke="#666666" points="259.25,-132 180.25,-132 180.25,-112 259.25,-112 259.25,-132"/>
<text text-anchor="middle" x="219.75" y="-118.5" font-family="Helvetica,sans-Serif" font-size="10.00">Transform.hpp</text>
</a>
</g>
</g>
<!-- Node1&#45;&gt;Node9 -->
<g id="edge11_Node000001_Node000009" class="edge">
<title>Node1&#45;&gt;Node9</title>
<g id="a_edge11_Node000001_Node000009"><a xlink:title=" ">
<path fill="none" stroke="#63b8ff" d="M186.82,-159.29C195,-150.28 204.6,-139.7 211.31,-132.3"/>
<polygon fill="#63b8ff" stroke="#63b8ff" points="184.43,-156.72 180.3,-166.47 189.61,-161.42 184.43,-156.72"/>
</a>
</g>
</g>
<!-- Node3 -->
<g id="Node000003" class="node">
<title>Node3</title>
<g id="a_Node000003"><a xlink:href="Physics_8hpp.html" target="_top" xlink:title=" ">
<polygon fill="white" stroke="#666666" points="144.75,-76 74.75,-76 74.75,-56 144.75,-56 144.75,-76"/>
<text text-anchor="middle" x="109.75" y="-62.5" font-family="Helvetica,sans-Serif" font-size="10.00">Physics.hpp</text>
</a>
</g>
</g>
<!-- Node2&#45;&gt;Node3 -->
<g id="edge2_Node000002_Node000003" class="edge">
<title>Node2&#45;&gt;Node3</title>
<g id="a_edge2_Node000002_Node000003"><a xlink:title=" ">
<path fill="none" stroke="#63b8ff" d="M55.57,-105C68.8,-95.72 85.01,-84.35 96.23,-76.48"/>
<polygon fill="#63b8ff" stroke="#63b8ff" points="53.58,-102.12 47.4,-110.72 57.6,-107.85 53.58,-102.12"/>
</a>
</g>
</g>
<!-- Node4 -->
<g id="Node000004" class="node">
<title>Node4</title>
<g id="a_Node000004"><a xlink:href="GameTypes_8cpp.html" target="_top" xlink:title=" ">
<polygon fill="white" stroke="#666666" points="253.38,-20 166.12,-20 166.12,0 253.38,0 253.38,-20"/>
<text text-anchor="middle" x="209.75" y="-6.5" font-family="Helvetica,sans-Serif" font-size="10.00">GameTypes.cpp</text>
</a>
</g>
</g>
<!-- Node3&#45;&gt;Node4 -->
<g id="edge3_Node000003_Node000004" class="edge">
<title>Node3&#45;&gt;Node4</title>
<g id="a_edge3_Node000003_Node000004"><a xlink:title=" ">
<path fill="none" stroke="#63b8ff" d="M136.88,-50.35C154.49,-40.84 176.9,-28.74 192.2,-20.48"/>
<polygon fill="#63b8ff" stroke="#63b8ff" points="135.64,-47.04 128.5,-54.87 138.96,-53.2 135.64,-47.04"/>
</a>
</g>
</g>
<!-- Node5&#45;&gt;Node3 -->
<g id="edge5_Node000005_Node000003" class="edge">
<title>Node5&#45;&gt;Node3</title>
<g id="a_edge5_Node000005_Node000003"><a xlink:title=" ">
<path fill="none" stroke="#63b8ff" d="M117.8,-100.43C115.79,-92.11 113.59,-82.93 111.99,-76.3"/>
<polygon fill="#63b8ff" stroke="#63b8ff" points="114.39,-101.22 120.13,-110.12 121.19,-99.58 114.39,-101.22"/>
</a>
</g>
</g>
<!-- Node6 -->
<g id="Node000006" class="node">
<title>Node6</title>
<g id="a_Node000006"><a xlink:href="PlayerControl_8hpp.html" target="_top" xlink:title=" ">
<polygon fill="white" stroke="#666666" points="256.75,-76 162.75,-76 162.75,-56 256.75,-56 256.75,-76"/>
<text text-anchor="middle" x="209.75" y="-62.5" font-family="Helvetica,sans-Serif" font-size="10.00">PlayerControl.hpp</text>
</a>
</g>
</g>
<!-- Node5&#45;&gt;Node6 -->
<g id="edge6_Node000005_Node000006" class="edge">
<title>Node5&#45;&gt;Node6</title>
<g id="a_edge6_Node000005_Node000006"><a xlink:title=" ">
<path fill="none" stroke="#63b8ff" d="M147.65,-105.54C162.76,-96.17 181.55,-84.51 194.48,-76.48"/>
<polygon fill="#63b8ff" stroke="#63b8ff" points="145.84,-102.55 139.19,-110.8 149.53,-108.5 145.84,-102.55"/>
</a>
</g>
</g>
<!-- Node6&#45;&gt;Node4 -->
<g id="edge7_Node000006_Node000004" class="edge">
<title>Node6&#45;&gt;Node4</title>
<g id="a_edge7_Node000006_Node000004"><a xlink:title=" ">
<path fill="none" stroke="#63b8ff" d="M209.75,-44.13C209.75,-35.9 209.75,-26.85 209.75,-20.3"/>
<polygon fill="#63b8ff" stroke="#63b8ff" points="206.25,-44.08 209.75,-54.08 213.25,-44.08 206.25,-44.08"/>
</a>
</g>
</g>
<!-- Node8 -->
<g id="Node000008" class="node">
<title>Node8</title>
<g id="a_Node000008"><a xlink:href="Render_8hpp.html" target="_top" xlink:title=" ">
<polygon fill="white" stroke="#666666" points="340.88,-76 274.62,-76 274.62,-56 340.88,-56 340.88,-76"/>
<text text-anchor="middle" x="307.75" y="-62.5" font-family="Helvetica,sans-Serif" font-size="10.00">Render.hpp</text>
</a>
</g>
</g>
<!-- Node7&#45;&gt;Node8 -->
<g id="edge9_Node000007_Node000008" class="edge">
<title>Node7&#45;&gt;Node8</title>
<g id="a_edge9_Node000007_Node000008"><a xlink:title=" ">
<path fill="none" stroke="#63b8ff" d="M307.75,-100.13C307.75,-91.9 307.75,-82.85 307.75,-76.3"/>
<polygon fill="#63b8ff" stroke="#63b8ff" points="304.25,-100.08 307.75,-110.08 311.25,-100.08 304.25,-100.08"/>
</a>
</g>
</g>
<!-- Node8&#45;&gt;Node4 -->
<g id="edge10_Node000008_Node000004" class="edge">
<title>Node8&#45;&gt;Node4</title>
<g id="a_edge10_Node000008_Node000004"><a xlink:title=" ">
<path fill="none" stroke="#63b8ff" d="M280.67,-50.08C263.5,-40.62 241.8,-28.66 226.95,-20.48"/>
<polygon fill="#63b8ff" stroke="#63b8ff" points="278.91,-53.1 289.35,-54.86 282.28,-46.97 278.91,-53.1"/>
</a>
</g>
</g>
<!-- Node9&#45;&gt;Node3 -->
<g id="edge12_Node000009_Node000003" class="edge">
<title>Node9&#45;&gt;Node3</title>
<g id="a_edge12_Node000009_Node000003"><a xlink:title=" ">
<path fill="none" stroke="#63b8ff" d="M190.44,-106.61C171,-97.07 146.04,-84.81 129.06,-76.48"/>
<polygon fill="#63b8ff" stroke="#63b8ff" points="188.71,-109.66 199.23,-110.93 191.8,-103.38 188.71,-109.66"/>
</a>
</g>
</g>
<!-- Node9&#45;&gt;Node6 -->
<g id="edge13_Node000009_Node000006" class="edge">
<title>Node9&#45;&gt;Node6</title>
<g id="a_edge13_Node000009_Node000006"><a xlink:title=" ">
<path fill="none" stroke="#63b8ff" d="M215.94,-100.43C214.4,-92.11 212.7,-82.93 211.47,-76.3"/>
<polygon fill="#63b8ff" stroke="#63b8ff" points="212.47,-100.91 217.73,-110.11 219.35,-99.64 212.47,-100.91"/>
</a>
</g>
</g>
<!-- Node9&#45;&gt;Node8 -->
<g id="edge14_Node000009_Node000008" class="edge">
<title>Node9&#45;&gt;Node8</title>
<g id="a_edge14_Node000009_Node000008"><a xlink:title=" ">
<path fill="none" stroke="#63b8ff" d="M244.5,-105.81C259.85,-96.39 279.1,-84.58 292.3,-76.48"/>
<polygon fill="#63b8ff" stroke="#63b8ff" points="243.06,-102.59 236.37,-110.8 246.72,-108.56 243.06,-102.59"/>
</a>
</g>
</g>
</g>
</svg>
